<?xml version="1.0" encoding="UTF-8"?>
<svg id="Layer_2" xmlns="http://www.w3.org/2000/svg" xmlns:xlink="http://www.w3.org/1999/xlink" viewBox="0 0 261.41 300">
  <defs>
    <style>
      .cls-1 {
        fill: url(#Silver_2-19);
      }

      .cls-2 {
        fill: url(#Silver_2-17);
      }

      .cls-3 {
        fill: url(#Silver_2-18);
      }

      .cls-4 {
        fill: url(#Silver_2-15);
      }

      .cls-5 {
        fill: url(#Silver_2-16);
      }

      .cls-6 {
        fill: url(#Silver_2-10);
      }

      .cls-7 {
        fill: url(#Silver_2-13);
      }

      .cls-8 {
        fill: url(#Silver_2-14);
      }

      .cls-9 {
        fill: url(#Silver_2-11);
      }

      .cls-10 {
        fill: url(#Silver_2-12);
      }

      .cls-11 {
        fill: url(#Silver_2-20);
      }

      .cls-12 {
        fill: url(#Silver_2-22);
      }

      .cls-13 {
        fill: url(#Silver_2-23);
      }

      .cls-14 {
        fill: url(#Silver_2-21);
      }

      .cls-15 {
        fill: url(#Silver_2);
      }

      .cls-16 {
        fill: url(#Silver_2-5);
      }

      .cls-17 {
        fill: url(#Silver_2-4);
      }

      .cls-18 {
        fill: url(#Silver_2-2);
      }

      .cls-19 {
        fill: url(#Silver_2-3);
      }

      .cls-20 {
        fill: url(#Silver_2-8);
      }

      .cls-21 {
        fill: url(#Silver_2-9);
      }

      .cls-22 {
        fill: url(#Silver_2-6);
      }

      .cls-23 {
        fill: url(#Silver_2-7);
      }

      .cls-24 {
        isolation: isolate;
      }

      .cls-25 {
        fill: #303434;
      }
    </style>
    <linearGradient id="Silver_2" data-name="Silver 2" x1="50.63" y1="238.55" x2="63.05" y2="238.55" gradientUnits="userSpaceOnUse">
      <stop offset="0" stop-color="#a0a1a5"/>
      <stop offset=".5" stop-color="#f9f9f9"/>
      <stop offset="1" stop-color="#8a8c91"/>
    </linearGradient>
    <linearGradient id="Silver_2-2" data-name="Silver 2" x1="97.07" y1="233.34" x2="108.63" y2="233.34" xlink:href="#Silver_2"/>
    <linearGradient id="Silver_2-3" data-name="Silver 2" x1="29.31" y1="127.78" x2="67.74" y2="127.78" xlink:href="#Silver_2"/>
    <linearGradient id="Silver_2-4" data-name="Silver 2" x1="78.06" y1="41.9" x2="186.6" y2="41.9" xlink:href="#Silver_2"/>
    <linearGradient id="Silver_2-5" data-name="Silver 2" x1="165.98" y1="143.79" x2="235.44" y2="143.79" xlink:href="#Silver_2"/>
    <linearGradient id="Silver_2-6" data-name="Silver 2" x1="62.77" y1="144.91" x2="80.63" y2="144.91" xlink:href="#Silver_2"/>
    <linearGradient id="Silver_2-7" data-name="Silver 2" x1="158.03" y1="156.43" x2="201.97" y2="156.43" xlink:href="#Silver_2"/>
    <linearGradient id="Silver_2-8" data-name="Silver 2" x1="157.86" y1="232.17" x2="171.17" y2="232.17" xlink:href="#Silver_2"/>
    <linearGradient id="Silver_2-9" data-name="Silver 2" x1="147.46" y1="223.53" x2="154.87" y2="223.53" xlink:href="#Silver_2"/>
    <linearGradient id="Silver_2-10" data-name="Silver 2" x1="112.79" y1="224.21" x2="119.19" y2="224.21" xlink:href="#Silver_2"/>
    <linearGradient id="Silver_2-11" data-name="Silver 2" x1="52.09" y1="204.79" x2="108.82" y2="204.79" xlink:href="#Silver_2"/>
    <linearGradient id="Silver_2-12" data-name="Silver 2" x1="122.01" y1="225.66" x2="144.16" y2="225.66" xlink:href="#Silver_2"/>
    <linearGradient id="Silver_2-13" data-name="Silver 2" x1="100.14" y1="217.99" x2="108.58" y2="217.99" xlink:href="#Silver_2"/>
    <linearGradient id="Silver_2-14" data-name="Silver 2" x1="38.3" y1="131.04" x2="73.4" y2="131.04" xlink:href="#Silver_2"/>
    <linearGradient id="Silver_2-15" data-name="Silver 2" x1="157.9" y1="147.66" x2="226.44" y2="147.66" xlink:href="#Silver_2"/>
    <linearGradient id="Silver_2-16" data-name="Silver 2" x1="97.91" y1="46.41" x2="166.74" y2="46.41" xlink:href="#Silver_2"/>
    <linearGradient id="Silver_2-17" data-name="Silver 2" x1="61.91" y1="192.34" x2="79.52" y2="192.34" xlink:href="#Silver_2"/>
    <linearGradient id="Silver_2-18" data-name="Silver 2" x1="67.02" y1="204.59" x2="96.23" y2="204.59" xlink:href="#Silver_2"/>
    <linearGradient id="Silver_2-19" data-name="Silver 2" x1="129.3" y1="214.29" x2="135.44" y2="214.29" xlink:href="#Silver_2"/>
    <linearGradient id="Silver_2-20" data-name="Silver 2" x1="129.3" y1="235.38" x2="135.44" y2="235.38" xlink:href="#Silver_2"/>
    <linearGradient id="Silver_2-21" data-name="Silver 2" x1="112.79" y1="287.39" x2="152.65" y2="287.39" xlink:href="#Silver_2"/>
    <linearGradient id="Silver_2-22" data-name="Silver 2" x1="71.97" y1="125.53" x2="192.66" y2="125.53" xlink:href="#Silver_2"/>
    <linearGradient id="Silver_2-23" data-name="Silver 2" x1="249.08" y1="121.69" x2="261.41" y2="121.69" xlink:href="#Silver_2"/>
  </defs>
  <g>
    <path class="cls-25" d="M10.7,213.92l27.62-20.1,5.22,7.17c5.07,6.97,1.79,13.01-2.18,15.9-6.2,4.51-12.68,2.66-16.1-2.03-1.15-1.58-1.71-3.03-2.13-4.46l-9.8,7.13-2.62-3.61h0ZM39.84,202.56l-2.07-2.84-11.38,8.28c.22,1.58.77,2.84,1.77,4.22,2.36,3.24,6.44,3.99,10.57.98,3.69-2.68,4.11-6.52,1.11-10.65h0Z"/>
    <path class="cls-25" d="M16.65,173.47c7.55-3.24,13.37,1.55,15.49,6.48,3.15,7.31-.93,13.43-5.85,15.55-6.16,2.65-12.76.36-15.69-6.44-2.67-6.21-.38-12.81,6.06-15.58h0ZM24.34,191.36c4.42-1.9,5.75-6.02,4.07-9.93-1.76-4.09-5.92-5.53-10.01-3.76-4.88,2.1-5.56,6.48-4.01,10.07,1.62,3.77,5.58,5.5,9.95,3.62Z"/>
    <path class="cls-25" d="M3.2,153.99l4.31,1.5c-.96,1.53-1.53,3.44-1.28,4.66.45,2.16,3.54,4.68,7.65,3.82l11.72-2.45.91,4.36-22.01,4.6-.91-4.36,5.05-1.06c-4.64-1.64-6.44-3.36-6.87-5.42-.38-1.82.26-3.89,1.42-5.67h0Z"/>
    <path class="cls-25" d="M7,134.23l11.31-.38c.7-.02,1.04-.29,1.02-.89-.01-.45-.44-1.29-1.28-2.31l3.2-.11c1.21,1.66,1.86,3.14,1.91,4.6.05,1.6-.56,2.68-2.2,3.13,1.62,1.9,2.44,3.93,2.5,5.98.11,3.2-2.37,5.59-5.32,5.69-4.1.14-5.65-2.62-8.9-11.33l-1.25.04c-2.8.1-3.86,1.53-3.77,4.18.08,2.45,1.32,4.92,3.94,6.98l-4.86.16c-2.11-1.68-3.2-4.2-3.3-7.36-.17-5.15,2.68-8.26,6.98-8.4h0ZM20.24,142.16c-.05-1.4-.79-2.68-1.98-3.84l-6.56.22c1.87,5.1,3.39,7,5.49,6.93,1.75-.06,3.11-1.41,3.05-3.31h0Z"/>
    <path class="cls-25" d="M12.45,107.56l13.39,2.2-.72,4.4-13.29-2.18c-4.6-.76-6.04,1.24-6.43,3.61-.34,2.02.53,4.2,2.24,5.85l15.86,2.61-.72,4.4-22.19-3.65.72-4.4,2.82.46c-1.95-2.35-2.48-5.28-2.15-7.31.78-4.75,4.6-6.96,10.48-5.99h0Z"/>
    <path class="cls-25" d="M13.82,77.82c.89-1.79,2.23-3.26,4.11-4.56l2.2,1.09c-2.1,1.3-3.53,2.61-4.42,4.4-1.27,2.56-.68,4.52,1.25,5.48,1.75.87,3.16.51,6.85-2.53,3.15-2.63,5.7-3.71,8.53-2.31,2.83,1.4,4.36,4.96,2.33,9.04-1.02,2.07-2.34,3.59-4.64,5.19l-2.33-1.16c2.35-1.35,4.16-3.08,5.03-4.83,1.34-2.69.68-4.97-1.34-5.98-1.93-.96-3.25-.44-7.18,2.75-3.2,2.61-5.5,3.42-8.24,2.06-3.05-1.51-3.98-4.94-2.13-8.66h0Z"/>
    <path class="cls-25" d="M33.05,50.62l2,1.51c-2.11,1.04-3.49,2.2-4.73,3.83-3.21,4.23-2.02,9.47,2.21,12.67,4.11,3.12,9.51,3.12,13.05-1.55,1.27-1.68,1.94-3.31,2.49-5.28l1.87,1.42c-.59,1.94-1.45,3.74-2.72,5.42-4.33,5.71-11.11,5.78-16.01,2.06-5.75-4.36-6.64-10.88-2.74-16.03,1.24-1.63,2.58-2.82,4.59-4.06Z"/>
    <path class="cls-25" d="M47.5,35.2c5.04-4.2,11.91-3.47,16.24,1.72,4.65,5.58,3.32,12.43-1.3,16.27-5.43,4.52-12.31,3.15-16.15-1.47-4.39-5.27-4.05-12.14,1.22-16.53h0ZM61.09,51.58c4.12-3.43,4.29-8.93.8-13.12-3.65-4.38-9.12-4.92-13.16-1.55-3.85,3.21-4.38,8.67-.69,13.09,3.62,4.35,9.09,4.88,13.05,1.58Z"/>
    <path class="cls-25" d="M63.07,24.3l4.28-2.3-2.49-4.63,1.39-2.4,3.17,5.91,5.91-3.17,1,1.85-5.91,3.17,6.43,11.96c1.54,2.87,2.86,4.26,5.38,2.91,1.19-.64,2.32-1.82,3.2-3.14l1.07,1.98c-.88,1.33-2.23,2.51-3.47,3.17-3.53,1.9-5.81.73-8.25-3.81l-6.43-11.96-4.28,2.3-1-1.85h0Z"/>
    <path class="cls-25" d="M82.46,14.45l4.6-1.57-1.7-4.98,1.76-2.13,2.17,6.35,6.35-2.17.68,1.99-6.35,2.17,4.38,12.84c1.05,3.08,2.12,4.67,4.83,3.75,1.28-.43,2.59-1.41,3.67-2.58l.73,2.13c-1.08,1.16-2.61,2.11-3.94,2.56-3.79,1.3-5.85-.23-7.51-5.11l-4.38-12.84-4.6,1.57-.68-1.99h0Z"/>
    <path class="cls-25" d="M126.8,4.34l5.1,13.94,6.5-13.27,3.3.19,4.9,13.94,6.65-13.26,4.75.28-11.25,22.31-1.4-.08-5.72-16.09-7.47,15.31-1.45-.09-8.65-23.49,4.75.28h0Z"/>
    <path class="cls-25" d="M168.09,9.81l-5.72,21.75-4.31-1.13,5.72-21.75,4.31,1.13ZM170.22,3.28c-.36,1.36-1.84,2.26-3.24,1.89-1.45-.38-2.17-1.97-1.84-3.23.33-1.26,1.73-2.24,3.18-1.86,1.4.37,2.26,1.84,1.91,3.19h0Z"/>
    <path class="cls-25" d="M183.73,2.71l-11.7,32.09-4.19-1.53L179.55,1.18l4.19,1.53h0Z"/>
    <path class="cls-25" d="M195.97,8.05l-14.61,30.87-4.03-1.91,14.61-30.87,4.03,1.91Z"/>
    <path class="cls-25" d="M201.72,24.54l-11.47,19.34-3.84-2.27,11.47-19.34,3.84,2.27ZM205.57,18.84c-.72,1.2-2.39,1.67-3.64.93-1.29-.77-1.55-2.49-.89-3.61.67-1.12,2.28-1.68,3.57-.91,1.25.74,1.67,2.39.96,3.6h0Z"/>
    <path class="cls-25" d="M215.84,43.29l-7.05,8.86c-.43.55-.46.98.01,1.35.35.28,1.27.5,2.59.53l-2,2.51c-2.05-.16-3.6-.62-4.74-1.53-1.25-1-1.67-2.16-.96-3.7-2.5,0-4.57-.69-6.18-1.97-2.51-2-2.72-5.43-.88-7.74,2.55-3.22,5.66-2.6,14.39.57l.78-.98c1.75-2.2,1.34-3.93-.74-5.58-1.92-1.53-4.6-2.19-7.87-1.53l3.03-3.8c2.65-.52,5.27.29,7.74,2.26,4.04,3.21,4.55,7.4,1.87,10.77h0ZM201.22,48.24c1.1.87,2.55,1.14,4.21.98l4.09-5.14c-5.1-1.88-7.53-1.96-8.84-.31-1.09,1.37-.95,3.28.54,4.47Z"/>
    <path class="cls-25" d="M236.02,61.07c4.07.58,6.1,1.38,7.69,3.5,2.94,3.93,1.86,7.99-2.55,11.3l-11.31,8.46-2.64-3.53,11.03-8.26c2.77-2.07,3.27-4.57,1.5-6.94-.96-1.28-2.93-2.25-5.28-2.37l-13.07,9.79-2.64-3.53,10.78-8.08c3.17-2.37,3.73-4.54,1.93-6.95-1.29-1.73-3.16-2.39-5.47-2.54l-13.07,9.79-2.64-3.53,18-13.48,2.64,3.53-2.36,1.77c3.33.44,5.28,1.37,6.75,3.33,1.62,2.16,2.16,4.89.72,7.72h0Z"/>
    <path class="cls-25" d="M254.44,85.42c.89,2.12,1.21,4.43.93,7l-4.11,1.73c.44-2.96.49-5.04-.31-6.93s-1.89-2.3-2.68-1.97c-1.01.43-1.5.96-2.06,5.7-.38,3.09-.99,6.94-4.36,8.36-2.45,1.03-6.68.64-8.9-4.62-.95-2.26-1.24-3.99-1.02-7.72l4.43-1.87c-.71,2.58-.76,5.81.05,7.75.97,2.31,2.31,2.78,3.28,2.37,1.29-.54,1.55-1.09,2.31-6.78.52-3.42,1.39-6.13,4.25-7.33,3.14-1.32,6.57.5,8.18,4.33h0Z"/>
  </g>
  <path class="cls-15" d="M60.54,233.57c2.69,2,3.37,5.87,1.28,8.69-2.03,2.74-5.96,3.32-8.69,1.28-2.69-2-3.37-5.87-1.28-8.69,2.09-2.81,5.96-3.32,8.69-1.28Z"/>
  <g>
    <path class="cls-18" d="M97.07,234.05c3.75,1.38,7.61,2.53,11.56,3.47v-5.37c-3.34-.83-6.6-1.83-9.78-3l-1.78,4.9h0Z"/>
    <path class="cls-19" d="M67.74,56.98c-23.43,18.91-38.44,47.85-38.44,80.24,0,22.98,7.55,44.22,20.31,61.37l4.19-3.1c-12.11-16.29-19.29-36.46-19.29-58.27,0-29.18,12.84-55.42,33.16-73.36l.07-6.87h0Z"/>
    <path class="cls-17" d="M186.6,49.6c-15.76-9.79-34.35-15.45-54.23-15.45-19.91,0-38.53,5.67-54.31,15.5h10.65c13.15-6.58,27.98-10.29,43.65-10.29s30.41,3.68,43.53,10.23h10.7s0,0,0,0Z"/>
    <path class="cls-16" d="M196.91,63.72c20.41,17.95,33.31,44.24,33.31,73.5,0,42.15-26.79,78.17-64.24,91.91,0,0,1.72.69,4.84,1.19,2.8.45,4.97.38,4.97.38,35.2-16.41,59.65-52.14,59.65-93.47,0-32.44-15.06-61.42-38.56-80.33l.03,6.83h0Z"/>
    <path class="cls-22" d="M67.93,137.22c0,14.37,4.72,27.64,12.7,38.37l-4.14,3.07c-8.61-11.59-13.72-25.93-13.72-41.44,0-9.21,1.8-18.01,5.06-26.06l.1,26.06Z"/>
    <path class="cls-23" d="M196.81,137.22c0,25.59-14.99,47.74-36.66,58.14,0,0-1.29,1.54-2.12,6.56,25.71-10.24,43.94-35.38,43.94-64.69,0-9.29-1.83-18.16-5.14-26.27v26.27s-.01,0-.01,0Z"/>
    <path class="cls-20" d="M157.86,234.62c1.4.49,3.52.95,6.2.68l7.11-2.6c-5.36.26-10.33-1.86-10.33-1.86l-2.99-1.88v5.65h0Z"/>
    <path class="cls-21" d="M152.68,206.16s0-5.8,2.19-8.56c0,0-2.06.96-5.72,1.84,0,0-1.69,2.02-1.69,8.21v41.81c2.73-.26,5.22-.73,5.22-.73v-42.55h0Z"/>
    <path class="cls-6" d="M118.01,249.37c-2.84-.37-5.22-.85-5.22-.85v-41.62s0,7.26,0,0,1.21-7.84,1.21-7.84c1.81.55,3.32.92,5.19,1.31,0,0-1.18.48-1.18,7.37v41.63h0Z"/>
    <path class="cls-9" d="M77.28,190.17l-4.75-4.78,10.01-8.76s9.72,12.98,26.27,19.65l-17.17,36.68s-22.36-8.89-39.57-29.67l11.12-9.73,4.81,4.83-6.13,5.41c12.2,12.89,26.81,20.02,26.81,20.02l11.25-24.32c-11.17-6.01-18.04-13.41-18.04-13.41l-4.62,4.06h0Z"/>
    <path class="cls-10" d="M142.69,249.9s-2.7.44-9.89.44-10.79-.44-10.79-.44v-40.98s-.24-7.64,2.11-7.4c2.71.29,5.46.52,8.25.52,4.02,0,7.96-.37,11.78-1.06,0,0-1.46.87-1.46,9.32v39.61h0ZM138.6,214.29c0-3.44-2.79-6.23-6.23-6.23s-6.23,2.79-6.23,6.23,2.79,6.23,6.23,6.23,6.23-2.79,6.23-6.23ZM138.6,235.38c0-3.44-2.79-6.23-6.23-6.23s-6.23,2.79-6.23,6.23,2.79,6.23,6.23,6.23,6.23-2.79,6.23-6.23Z"/>
    <path class="cls-7" d="M108.58,224.56c-.18-.1-.34-.2-.52-.32-2.83-1.96-3.53-5.84-1.57-8.67.56-.81,1.28-1.44,2.09-1.9h0v-4.76l-1.92-1.19-6.52,17.87c2.75,1.01,5.57,1.89,8.44,2.64v-3.68h0,0Z"/>
    <path class="cls-8" d="M67.83,68.84c-18.17,17.16-29.53,41.47-29.53,68.38,0,20.97,6.9,40.36,18.55,56.02l3.48-2.58-.14-.14c-2.59-2.65-2.49-6.43-.06-8.84,2.42-2.4,6.34-2.4,8.75.03l1.49,1.5,3.03-2.25c-9.09-12.22-14.48-27.37-14.48-43.74,0-12.72,3.25-24.7,8.97-35.14l-.06-33.23h0Z"/>
    <path class="cls-4" d="M196.88,102.11c5.7,10.43,8.94,22.4,8.94,35.1,0,31.53-19.97,58.48-47.92,68.87v18.01l3.91,2.46c37.5-12.38,64.63-47.76,64.63-89.35,0-26.95-11.39-51.29-29.61-68.45l.04,33.35h0Z"/>
    <path class="cls-5" d="M166.74,49.64c-10.65-4.19-22.25-6.5-34.37-6.5s-23.79,2.32-34.46,6.54l68.83-.04Z"/>
    <path class="cls-2" d="M76.95,201.19c-.66,0-1.32-.25-1.83-.76l-12.46-12.54c-1-1.01-1-2.64.01-3.65,1.01-1,2.64-1,3.64.01l12.46,12.54c1.01,1.01,1,2.64-.01,3.65-.5.5-1.16.75-1.82.75h0Z"/>
    <path class="cls-3" d="M96.22,201.19c-5.43-3.08-10.43-6.83-14.89-11.13l-2.46,2.55c2.6.76,4.49,3.15,4.49,5.99,0,3.44-2.79,6.23-6.23,6.23-2.76,0-5.1-1.8-5.92-4.28l-4.18,4.34c5.71,5.51,12.11,10.31,19.06,14.25l2.52-4.46c-1.5-2.08-1.61-4.96-.06-7.19,1.31-1.89,3.49-2.84,5.63-2.66l2.06-3.63h0Z"/>
    <path class="cls-1" d="M135.44,214.29c0-1.69-1.37-3.07-3.07-3.07s-3.07,1.38-3.07,3.07,1.38,3.07,3.07,3.07,3.07-1.37,3.07-3.07Z"/>
    <path class="cls-11" d="M135.44,235.38c0-1.69-1.37-3.07-3.07-3.07s-3.07,1.37-3.07,3.07,1.38,3.07,3.07,3.07,3.07-1.37,3.07-3.07Z"/>
    <path class="cls-14" d="M112.83,280.09c0,10.99,8.91,19.91,19.91,19.91s19.91-8.92,19.91-19.91l-.05-5.29s-8.45,1.39-19.65,1.39c-10.29,0-20.16-1.41-20.16-1.41l.04,5.31Z"/>
    <path class="cls-12" d="M72.08,136.91c0,33.3,26.99,60.29,60.29,60.29s60.29-26.99,60.29-60.29V53.86h-120.69l.11,83.06h0Z"/>
  </g>
  <g>
    <path class="cls-25" d="M115.67,66.37c-.2.92-.8,2,.14,2.35.78.29,1.28-1.01,1.05-2.44-.17-1.04-.9-1.8-2.19-1.94,0,0,1.22.99,1,2.03h0Z"/>
    <path class="cls-25" d="M119,58.37s.4-.26,1.19-.29c-.57-.63-1.74-1.09-2.59-.96,0,0,.82.44,1.4,1.25Z"/>
    <path class="cls-25" d="M117.04,60.76c2.02,3.99,3.52,3.31,3.52,3.31-1.77-1.6-.84-4.2-3.19-5.98-4.14-3.12-7.4.8-7.4.8,0,0,4.48-3.25,7.07,1.87h0Z"/>
    <path class="cls-25" d="M119.2,58.64c.63.84,1,2.15,1.17,3.44.13.96.84,1.79.84,1.79.81-.29,1.41-1,1.64-1.87-.02.63-.23,1.2-.55,1.69,1.16-.19,2.31.02,3.32.53.06-.38.07-.77,0-1.18-.3-1.87-1.93-3.17-3.64-2.89-.37.06-.72.19-1.03.37,0,0-.05.03-.08.04-.12.02-.22-.07-.24-.19-.03-.18.1-.23.1-.23.33-.19.71-.3,1.11-.39.28-.06.68-.03.68-.03-.55-.92-1.56-1.47-2.6-1.3-.25.04-.48.12-.7.23h0Z"/>
    <path class="cls-25" d="M116.55,62.05s-2.2-2.23-4.83.07c0,0,2.93-.87,3.63.94.6,1.56,1.92,2.66,4.52,1.61,0,0-2.4.24-3.32-2.62h0Z"/>
    <path class="cls-25" d="M111.56,73.76c2.34,3.43,6.58,5.31,10.9,4.46l-.64-3.03c.68.13,1.36.13,2.09-.02l-5.46-6.86-2.37,4.37c-.71-.21-1.49-.26-2.27-.09-.87.18-1.65.6-2.24,1.18h0Z"/>
    <path class="cls-25" d="M121.72,64.52c-.55.12-1.07.31-1.53.57l-.52.97c.12-.05.25-.09.37-.12.74-.16,1.4.16,1.83.72l5.63.37c-1.14-1.98-3.41-3-5.77-2.51h0Z"/>
    <path class="cls-25" d="M102.43,89.71c.39.25.84.43,1.34.48,1.74.22,3.33-1.02,3.55-2.76.22-1.74-1.02-3.33-2.76-3.55-1.38-.17-2.66.56-3.24,1.74,0,0,1.62.94,1.43,3.06-.03.37-.15.71-.31,1.02h0Z"/>
    <path class="cls-25" d="M128.85,91.91c.36-.88.46-1.85.25-2.85-.28-1.33-1.08-2.43-2.13-3.12,0,0-.46-.29-.77.11l-1.85,2.89,4.51,2.97h0Z"/>
    <path class="cls-25" d="M124.27,87.33l-1.69-8.36c-3.54.71-6.74-.04-9.27-2.25.2,1.15.24,2.76-.83,4.36l11.09,7.35.7-1.1h0Z"/>
    <path class="cls-25" d="M128.58,67.81l-6.4-.45c.2.94-.37,1.89-1.32,2.14-.12.03-.23.05-.34.06l2.57,3.29,1.52-1.39c.23-.21.56-.21.75,0,.19.2.16.54-.07.75l-1.57,1.44.62.81,2.33-2.13c.23-.21.56-.21.75,0,.19.2.16.54-.07.75l-2.39,2.19.6.74,4.5-4.12-1.47-4.05h0ZM123.76,69.22l4.51.31.66,1.85-5.17-2.16Z"/>
    <path class="cls-25" d="M127.37,76.56c-1.44,0-2.69.82-3.31,2.01l-.85.28,1.58,7.68.98-1.57c.61-2.89,1.8-5.58,3.45-7.91-.54-.31-1.17-.49-1.85-.49h0Z"/>
    <path class="cls-25" d="M114.01,85.91l5.36,2.87.56-.2-9.25-5.87c-.83.49-1.8.78-2.83.78-.29,0-.58-.02-.86-.07l6.38,3.1.64-.6h0Z"/>
    <polygon class="cls-25" points="119.55 93.07 120.8 92.8 123.28 88.93 122.04 88.18 119.04 89.28 113.31 86.51 111.16 88.72 112 92.52 119.55 93.07"/>
    <path class="cls-25" d="M105.21,91.11l5.77.68-.7-3.3-2.06-.49c-.41,1.4-1.56,2.54-3.09,2.86-.14.21.08.24.08.24h0Z"/>
    <path class="cls-25" d="M101.02,86.52c-.2.2-.34.45-.41.74l-3.01,1.44,3.37-.09c.2.22.46.38.76.45.06-.16.1-.32.12-.5.1-.81-.23-1.57-.82-2.05h0Z"/>
    <path class="cls-25" d="M120.69,68.9c.64-.17,1.02-.83.85-1.47-.17-.64-.83-1.02-1.47-.85-.64.17-1.02.83-.85,1.47.17.64.83,1.02,1.47.85h0Z"/>
    <path class="cls-25" d="M125.29,107.76c-2.29.48-4.55-.99-5.03-3.29-.12-.59-.12-1.18,0-1.74-.76.52-1.24,1.44-1.1,2.41l3.53,13.16c.39-.01.79-.04,1.19-.1,1.93-.28,3.64-1.1,5.02-2.27l-1.37-9.44c-.58.63-1.35,1.08-2.25,1.27h0Z"/>
    <path class="cls-25" d="M126.92,101.58c-.84-1.02-2.26-1.46-3.59-1-1.54.53-2.44,2.1-2.17,3.66h0c.16-.17.37-.31.6-.39.79-.27,1.65.15,1.93.94.25.72-.08,1.5-.74,1.84.76.37,1.65.45,2.52.16,1.45-.5,2.33-1.89,2.21-3.36l2.27-1.78s-.05-.05-.08-.08h-2.94s0,.01,0,.01Z"/>
    <polygon class="cls-25" points="158.9 115.08 158.47 121.43 161.62 119.76 161.33 124.11 165.3 120.17 165.47 117.63 161.92 115.37 158.9 115.08"/>
    <path class="cls-25" d="M125.27,94.92c-1.38.29-2.74-.03-3.81-.76,0,0-.33-.23-.26-.56l-1.33.3-6.51-.44-3.44,12.17,7.69-.24c-.46-3.11,1.69-6,4.8-6.45,1.53-.22,2.99.18,4.15,1.01l-.12-.84c1.31.57,2.48,1.42,3.44,2.48h.18l-.11.08c1.24,1.4,2.1,3.17,2.4,5.17.52,3.55-.88,6.94-3.43,9.11l1.72,11.69c.48-.03.98-.08,1.47-.15,8.52-1.25,14.69-8.48,14.89-16.81l2.78,2.61,3.73-3.26-25.74-16.44c-.66.66-1.51,1.15-2.49,1.35h0Z"/>
    <path class="cls-25" d="M131.87,132.38c.16,1.08.72,1.99,1.52,2.61l6.75-5.87-8.03,1.18c-.25.64-.34,1.35-.24,2.08h0Z"/>
    <polygon class="cls-25" points="154.69 108.97 153.5 110 161.92 115.37 162.02 113.81 154.69 108.97"/>
    <polygon class="cls-25" points="165.57 116.15 165.47 117.63 184.38 129.62 184.75 128.95 165.57 116.15"/>
    <path class="cls-25" d="M162.02,113.81l3.54,2.34,1.07-15.99,1.72-1.5.32-4.88-1.46.21c.37-1.71.52-3.95.44-5.77l-14.53,13.21s-.98.94-2.47,1.16c-2.07.31-3.74-.53-4.73-2.24l-1.37-2.32,7.06-7.27c-.26-.71-.54-1.7-.66-2.48-.48-3.26.45-5.92,2.37-8.3,0,0,.39-.57.73-.24.38.38-.04.78-.04.78-1.69,2.1-2.54,4.87-2.12,7.75.14.93.4,1.81.76,2.63l-6.98,7.17,1.03,1.74c.72,1.34,2.23,2.16,3.83,1.93.61-.09,1.17-.32,1.65-.67l20.6-18.73c-1.37-.42-2.85-.55-4.37-.32-.68.1-1.35.27-1.97.5-3.3-9.09-12.49-15-22.58-13.58-7.24,1.01-14.96,6.16-17.22,15.87v.02c1.59.74,2.84,2.21,3.23,4.07.25,1.21.11,2.41-.34,3.46l25.15,16.61,8.13-7.11-.8,11.95h0ZM159.87,87.27c.51-.08.99.28,1.06.79s-.28.99-.79,1.06-.99-.28-1.06-.79.28-.99.79-1.06Z"/>
    <path class="cls-25" d="M125.68,136.67l-1.25-2.52-.47,2.77-2.78.41,2.49,1.3-.47,2.77,2.01-1.97,2.49,1.3-1.25-2.52,1.26-1.24c.34,1.27.64,2.37.64,2.37l1.89-1.64c.03-.32.02-.64-.03-.97-.27-1.84-1.73-3.21-3.49-3.45,0,0,.42,1.56.83,3.1l-1.88.28h0Z"/>
    <path class="cls-25" d="M83.57,129.72s-.28-.78-.1-2.16c-1.17.79-2.26,2.67-2.3,4.19,0,0,.95-1.28,2.41-2.03h0Z"/>
    <path class="cls-25" d="M103,77.93c0,.33.03.66.1.98l-2.2,5.72c.57-.87,1.47-1.52,2.57-1.75.82-.17,1.63-.08,2.35.2-.13-.05-.23-.17-.23-.32,0-.19.16-.34.34-.34.05,0,.1,0,.14.02.55.21,1.15.33,1.77.33,2.68,0,4.85-2.17,4.85-4.85s-2.17-4.85-4.85-4.85c-1.72,0-3.22.89-4.08,2.24l-11.16-7.37-1.48,2.28,11.88,7.57v.14h0Z"/>
    <path class="cls-25" d="M100.37,71.23c2.49.23,2.6-1.42,2.6-1.42-.78.22-1.15-.4-.71-.91.57-.66.7-1.76.7-1.76,0,0-.29.86-1.63.39-1.48-.51-1.84.78-1.84.78-1.59-.85-1.53-2.57-1.15-3.25.37-.69,1.2-.82,1.2-.82,0,0-.67.65-.18,1.84.36.87,1.92,1.22,2.65-.18.88-1.66-1.94-5-4.54-2.2-2.28,2.45.2,7.27,2.91,7.52h0Z"/>
    <path class="cls-25" d="M87.57,133.71c7.03-1.8,6.31-4.45,6.31-4.45-3.78,2.19-6.62-1.17-10.47,1.6-6.78,4.88-2.79,12.43-2.79,12.43,0,0-1.76-7.37,6.94-9.59h0Z"/>
    <path class="cls-25" d="M97.6,153.87s-.48-3.69-2.92-5.19c-1.22,1.17-2.78,1.98-4.5,2.25-.04,0-.09.02-.14.01-.24-.02-.41-.23-.39-.47.02-.2.19-.36.38-.39,3.93-.61,6.75-4.19,6.38-8.2-.2-2.17-1.3-4.04-2.89-5.28,0,0-.77,1.04-2.85,1.54,0,0-.53.12-.57-.24-.04-.34.42-.42.42-.42,2.32-.58,3.92-2.28,3.54-6.74,0,0-1.55,4.14-5.46,4.27-.15,0-.29.01-.44.03-4.17.39-7.24,4.09-6.85,8.26.11,1.18.5,2.26,1.06,3.22.48.84,1.23,1.79.9,3.79,0,0,.04-2.38-1.85-2.67-.46,1.05-.66,2.24-.55,3.46.28,3.04,2.47,5.45,5.27,6.17,0,0,5.69,1.38,4.57,5.2-.76,2.58.83,3.46.83,3.46-2.06,2.29-4.68,1.35-5.57.38-.89-.96-.7-2.43-.7-2.43,0,0,.69,1.45,2.76,1.19,1.51-.19,2.78-2.65.97-4.58-2.15-2.29-8.64.86-5.53,6.63,2.49,4.62,9.95,3.45,12.45-.24.66-1.06,1.08-2.46.95-3.8-.19-1.99-1.35-3.66-2.97-4.58-.08-.05-.13-.13-.14-.23-.01-.16.11-.31.27-.32.07,0,.12.02.17.04,1.78,1,3.05,2.84,3.26,5.03.03.35.04.69.02,1.03.6-1.56,1.71-5.75-1.33-10.14l1.47-.05h0Z"/>
    <path class="cls-25" d="M125.44,132.36s-.1.02-.15.02h0c-.26.04-.44.28-.4.54.04.26.28.45.54.4.04,0,.11-.01.15-.02.39-.06.78-.06,1.15,0l-.27-.98c-.34-.02-.68,0-1.02.04Z"/>
    <path class="cls-25" d="M130.93,132.52c-.11-.71-.06-1.41.12-2.06l-.18-1.23c-1.83.12-3.62-.01-5.34-.38l.93,3.47c2.34.13,4.34,1.89,4.7,4.3.01.1.03.19.04.28l1.46-1.27c-.9-.76-1.54-1.85-1.73-3.11h0Z"/>
    <path class="cls-25" d="M103.47,63.24c1.34-.61.32.97.6,1.97.35,1.24,1.58.94,1.58.94,0,0-.02,1.32-1.83,1.02,0,0,.18,2.3,1.98,1.81,0,0-1.49.37-1.92,1.65-.44,1.28-1.53,1.32-2.09,1.34,0,0,3.32.8,5.66-2.41l.28.87s1.77-.62,2.23-2.34c-.84-.53-1.56-1.49-2-2.46-.01-.03-.04-.1-.05-.13-.03-.15.02-.35.2-.38.18-.03.34.08.39.2.85,1.9,2.8,3.06,4.76,2.68.53-.1,1.02-.31,1.45-.6,0,0-.2-.54-.92-.92,0,0,.41-.69,1.04-1.04,0,0-.24-.92-1.27-1.12,0,0,0-1.38-.82-1.82-.83-.44-1.71.32-1.62,1.05,0,0,1.3.2.96,1.32-.28.91-1.79.49-1.84-.93-.06-1.82,1.03-2.86,3.42-3.33,1.26-.24,2.45.66,2.45.66,0,0-1.17-2.6-3.88-2.39-2.6.2-2.86,3.66-5,2.46,0,0,1.29-.34,1.13-1.52,0,0-2.15-.82-3.31,1.64,0,0-2.23-1.08-3.01,1.41,0,0,.27.92,1.42.39h0Z"/>
    <path class="cls-25" d="M122.56,171.28c-.94-2.35-1.38-4.16-1.77-6.77-.2-1.38-.32-2.75-.34-4.1l-10.02-12.08,10.19-9.55c-.84-.85-1.42-1.97-1.61-3.25-.47-3.21,1.75-6.19,4.95-6.66.53-.08,1.05-.08,1.56-.02l-2.83-10.53c-4.51.13-8.56-2.81-9.86-7.1l1.81-1.34-1.02-1.33c-.32.33-.74.57-1.23.64-.89.13-1.73-.31-2.15-1.04h0c-.42-.74-1.26-1.19-2.15-1.05-1.16.17-1.96,1.24-1.79,2.4.04.25.12.49.23.7h0l2.51,3.82c-1.17-.15-2.38-.15-3.61.04-4.11.6-7.51,3.05-9.45,6.38-.56-.27-1.12-.36-1.78-.42-3.05-.28-5.75,1.96-6.03,5.01-.06.66,0,1.31.16,1.91,0,0,.02.09.02.14-.02.2-.2.35-.4.33-.29-.02-.32-.27-.32-.27-.16-.65-.18-1.35-.15-2.06.02-.52.23-1.17.23-1.17-1.67.55-2.93,2.04-3.11,3.9-.04.44-.02.88.06,1.3,1.58-.72,3.77-.83,5.86-.56,1.84.24,3.14-.67,3.14-.67-.11-1.51-1.13-3.02-2.4-3.77,1.52.28,2.31,1.25,2.95,2.01-.07.94-.04,1.9.11,2.87.69,4.7,3.79,8.46,7.87,10.2-1.66,2.97-3.79,5.66-6.28,7.98l17.3,20.91-.46,3.4,2.01,5.02-.92,1.09.68,2.5,7.9.17-1.56-3.08c-1.38-1.86-2.86-2.52-3.48-4.95l5.2,2.78-.04-3.71h0ZM104.18,147.37l-.58-.92,1.95-1.7-1.36,2.61ZM117.4,168.87l-9.26-15.29,8.79,7.81-.37,2.39,1.49,4.46-.64.64h0Z"/>
  </g>
  <g>
    <g id="text968">
      <g class="cls-24">
        <path class="cls-25" d="M133.51,171.84h2.96v.23h-.16c-.11,0-.27.05-.48.14s-.4.23-.57.41-.38.47-.63.87l-2.04,3.18v2.1c0,.52.06.84.17.96.16.17.41.26.75.26h.28v.23h-3.6v-.23h.3c.36,0,.61-.11.76-.32.09-.13.14-.43.14-.9v-1.99l-2.33-3.51c-.28-.41-.46-.67-.56-.77-.1-.1-.3-.23-.61-.37-.08-.04-.2-.06-.36-.06v-.23h3.62v.23h-.19c-.2,0-.38.05-.54.14-.16.09-.25.23-.25.41,0,.15.13.42.38.8l1.77,2.7,1.66-2.59c.25-.39.38-.68.38-.87,0-.12-.03-.22-.09-.31-.06-.09-.15-.16-.26-.21-.11-.05-.28-.08-.51-.08v-.23Z"/>
        <path class="cls-25" d="M139.28,172.3v3.31h1.86c.48,0,.81-.07.97-.22.22-.19.34-.52.36-1h.23v2.92h-.23c-.06-.41-.12-.67-.18-.79-.07-.14-.2-.26-.37-.34-.17-.08-.43-.12-.79-.12h-1.86v2.76c0,.37.02.6.05.68s.09.14.17.19c.08.05.24.07.48.07h1.44c.48,0,.83-.03,1.04-.1.22-.07.42-.2.62-.39.26-.26.52-.64.79-1.16h.25l-.73,2.1h-6.53v-.23h.3c.2,0,.39-.05.57-.14.13-.07.22-.17.27-.3s.07-.4.07-.81v-5.45c0-.53-.05-.86-.16-.98-.15-.17-.4-.25-.75-.25h-.3v-.23h6.53l.09,1.84h-.24c-.09-.44-.18-.74-.29-.91-.11-.17-.26-.29-.47-.38-.17-.06-.46-.09-.88-.09h-2.33Z"/>
        <path class="cls-25" d="M150.23,177.42h-3.28l-.58,1.32c-.14.33-.21.57-.21.73,0,.13.06.24.18.34.12.1.39.16.8.19v.23h-2.67v-.23c.35-.06.58-.14.69-.24.21-.2.45-.6.71-1.21l2.98-6.9h.22l2.95,6.98c.24.56.45.92.65,1.09s.46.26.81.28v.23h-3.34v-.23c.34-.02.57-.07.68-.17.12-.09.18-.21.18-.35,0-.18-.08-.47-.25-.86l-.51-1.21ZM150.05,176.97l-1.44-3.39-1.47,3.39h2.91Z"/>
        <path class="cls-25" d="M162.21,180.23h-2.26l-2.87-3.92c-.21,0-.39.01-.52.01-.05,0-.11,0-.17,0s-.13,0-.19,0v2.44c0,.53.06.86.17.98.16.18.4.27.71.27h.33v.23h-3.63v-.23h.32c.36,0,.62-.12.77-.35.09-.13.13-.43.13-.91v-5.42c0-.53-.06-.86-.17-.98-.16-.18-.4-.27-.73-.27h-.32v-.23h3.09c.9,0,1.56.06,1.99.19.43.13.79.37,1.09.72.3.35.45.76.45,1.25,0,.52-.17.96-.51,1.34-.34.38-.87.65-1.58.8l1.75,2.41c.4.55.74.92,1.03,1.1.29.18.66.3,1.12.35v.23ZM156.19,175.92c.08,0,.15,0,.21,0,.06,0,.11,0,.14,0,.81,0,1.42-.17,1.83-.52.41-.35.62-.79.62-1.32s-.17-.95-.5-1.28c-.33-.33-.77-.49-1.32-.49-.24,0-.57.04-.98.12v3.49Z"/>
        <path class="cls-25" d="M167.92,171.65v2.9h-.23c-.08-.56-.21-1-.4-1.33-.19-.33-.47-.59-.83-.79s-.73-.29-1.11-.29c-.43,0-.79.13-1.08.39-.28.26-.42.56-.42.89,0,.25.09.49.27.7.26.31.87.72,1.84,1.24.79.42,1.33.74,1.62.97.29.22.51.49.67.79s.23.62.23.96c0,.63-.25,1.18-.75,1.64s-1.14.69-1.92.69c-.25,0-.48-.02-.69-.06-.13-.02-.4-.1-.8-.23s-.66-.19-.77-.19-.19.03-.25.09c-.06.06-.11.19-.13.38h-.23v-2.88h.23c.11.6.25,1.05.44,1.35.18.3.46.55.84.75.38.2.79.3,1.24.3.52,0,.93-.14,1.23-.41.3-.27.45-.59.45-.96,0-.21-.06-.41-.17-.62-.11-.21-.29-.41-.53-.59-.16-.12-.61-.39-1.33-.79-.73-.4-1.24-.72-1.55-.96-.31-.24-.54-.5-.7-.79-.16-.29-.24-.61-.24-.95,0-.6.23-1.12.7-1.56.47-.44,1.06-.65,1.78-.65.45,0,.93.11,1.43.33.23.1.4.16.49.16.11,0,.2-.03.27-.1.07-.06.12-.19.17-.39h.23Z"/>
      </g>
    </g>
    <g id="text969">
      <g class="cls-24">
        <path class="cls-25" d="M139.08,167.77c-.59-.14-1.3-.33-2.15-.57-1.01-.3-1.84-.52-2.5-.66-.66-.14-1.34-.21-2.05-.21-1.53,0-3.03.4-4.51,1.19h-.16c-.16-.66-.25-1.3-.25-1.93,0-1.15.29-2.28.88-3.38.59-1.11,1.3-2.12,2.15-3.05.85-.93,2.01-2.12,3.48-3.57,1.56-1.5,2.81-2.79,3.77-3.87.96-1.08,1.76-2.27,2.42-3.57.66-1.3.98-2.66.98-4.08,0-1.56-.25-2.79-.76-3.69-.51-.9-1.28-1.35-2.32-1.35-.96,0-1.74.32-2.34.96-.6.64-.9,1.43-.9,2.36s.18,1.76.55,2.48c.37.72.84,1.25,1.41,1.58v.16c-.46.44-.97.78-1.52,1.03-.55.25-1.08.37-1.6.37-.85,0-1.55-.38-2.11-1.15-.56-.76-.84-1.8-.84-3.12,0-1.15.33-2.25,1-3.32.67-1.07,1.66-1.94,2.97-2.62,1.31-.68,2.86-1.03,4.63-1.03,2.38,0,4.3.66,5.76,1.99,1.46,1.33,2.19,3.15,2.19,5.47,0,1.48-.38,2.84-1.13,4.1-.75,1.26-1.67,2.38-2.77,3.36-1.09.98-2.55,2.17-4.38,3.57-1.8,1.37-3.24,2.54-4.3,3.53-1.07.98-1.88,2.02-2.46,3.12.79-.22,1.64-.33,2.54-.33.66,0,1.34.05,2.05.16.71.11,1.38.23,2.01.37.11.03.47.1,1.09.23.62.12,1.17.18,1.66.18.74,0,1.42-.16,2.05-.47.63-.31,1.28-.85,1.97-1.62l.12.08c.36,1.01.53,1.86.53,2.54,0,.96-.25,1.81-.76,2.56-.51.75-1.18,1.34-2.03,1.76s-1.75.64-2.7.64c-.55,0-1.11-.07-1.7-.21Z"/>
        <path class="cls-25" d="M150.46,166.13c-1.28-1.04-1.93-2.51-1.93-4.43,0-1.72.49-3.11,1.48-4.16.98-1.05,2.27-1.58,3.85-1.58,1.67,0,2.64.7,2.91,2.09-1.12.14-2.02.54-2.68,1.21-.67.67-1,1.54-1,2.6,0,.96.29,1.71.86,2.25.57.55,1.34.82,2.29.82,1.58,0,2.88-.71,3.89-2.13s1.52-3.24,1.52-5.45c0-1.89-.4-3.34-1.19-4.37-.79-1.02-1.9-1.54-3.32-1.54s-3.24.62-5.37,1.84l-.53-.37,3.16-15.54c3.09.36,5.38.53,6.88.53,2.49,0,4.86-.38,7.13-1.15.05.6.08,1.05.08,1.35,0,1.42-.38,2.57-1.13,3.44-.75.88-1.95,1.31-3.59,1.31-.63,0-1.38-.07-2.25-.21-.88-.14-1.71-.29-2.5-.45-.68-.14-1.38-.26-2.09-.37l-1.64,7.42c1.78-.85,3.47-1.27,5.08-1.27,2.24,0,4.01.76,5.31,2.28,1.3,1.52,1.95,3.57,1.95,6.17,0,2.21-.49,4.17-1.46,5.86-.97,1.7-2.34,3.01-4.1,3.96-1.76.94-3.79,1.42-6.09,1.42s-4.25-.52-5.53-1.56Z"/>
      </g>
    </g>
  </g>
  <g>
    <path class="cls-25" d="M99.31,263.16c-.05.1-.1.18-.17.24-.07.06-.14.1-.21.14s-.15.05-.22.05-.14,0-.21-.03l-.51-.15c-.14-.04-.24-.09-.33-.15s-.15-.14-.2-.23-.08-.21-.1-.35c-.02-.14-.03-.31-.05-.51l-.33-5.98c-.02-.43-.04-.85-.05-1.27s-.03-.85-.04-1.27h-.02c-.19.4-.39.81-.59,1.21s-.41.8-.61,1.2l-2.89,5.58s-.05.07-.09.1c-.04.02-.09.04-.15.04-.06,0-.14,0-.23-.01s-.19-.04-.32-.07c-.12-.04-.22-.07-.3-.11-.08-.04-.14-.07-.17-.1-.04-.03-.06-.06-.06-.1s0-.07.03-.11l4.58-8.84c.1-.2.23-.32.39-.37.16-.05.31-.05.44-.02l.62.18c.13.04.23.08.32.14s.15.13.2.21c.05.09.08.19.1.32s.04.28.05.46l.33,6.05c.02.38.04.75.06,1.13.02.38.04.75.05,1.13h.01c.2-.4.41-.82.63-1.26.22-.43.43-.86.64-1.26l2.7-5.19s.05-.07.09-.09.08-.04.14-.04.13,0,.21,0c.09.01.19.04.32.07.12.04.22.07.3.1.08.04.14.07.18.1.04.03.06.07.07.1,0,.03,0,.07-.01.11l-4.6,8.84h0Z"/>
    <path class="cls-25" d="M110.07,260.92c-.08.39-.21.79-.37,1.19-.16.39-.36.77-.59,1.12-.23.35-.5.67-.81.96-.31.29-.64.52-1.01.71s-.77.31-1.2.37c-.43.06-.89.04-1.39-.06-.51-.11-.93-.26-1.27-.46s-.6-.44-.78-.73-.3-.61-.34-.97c-.04-.37-.01-.77.08-1.2.08-.39.2-.79.36-1.19.16-.4.36-.77.59-1.11.23-.34.5-.67.81-.96.3-.29.64-.53,1.01-.71.37-.19.77-.31,1.2-.37.43-.06.89-.04,1.39.06.51.11.93.26,1.27.47s.6.45.78.73c.19.29.3.61.34.97.04.37.01.76-.08,1.19h0ZM108.67,260.7c.05-.27.08-.51.07-.74,0-.23-.07-.43-.17-.6-.1-.18-.24-.32-.44-.45-.19-.13-.44-.22-.74-.28-.32-.07-.62-.07-.91-.01-.28.06-.55.16-.79.32-.24.15-.47.34-.68.57-.21.23-.39.48-.55.76-.16.28-.3.57-.41.87-.11.3-.2.6-.27.9-.05.27-.08.51-.06.74s.07.43.17.6.24.33.43.45c.19.12.43.22.73.28.32.07.63.07.91.01.28-.06.55-.17.79-.32.25-.15.47-.34.68-.58.21-.23.39-.48.55-.76.16-.28.3-.57.41-.87s.2-.6.26-.9Z"/>
    <path class="cls-25" d="M116.68,259.86c0,.05-.03.12-.06.21-.03.09-.07.17-.11.25s-.09.15-.14.2-.1.08-.15.07c-.06,0-.14-.05-.22-.11-.08-.06-.18-.14-.3-.22s-.27-.17-.44-.25-.38-.14-.63-.18c-.23-.04-.45-.04-.64,0s-.36.11-.5.2-.26.21-.34.35c-.09.14-.14.29-.17.45-.03.22,0,.41.13.57.12.16.28.32.48.47s.41.29.64.44c.23.15.44.32.63.51s.34.41.45.66c.11.24.14.54.09.88-.06.38-.18.72-.38,1.02s-.45.55-.76.74c-.31.19-.68.33-1.09.4-.41.07-.86.07-1.34,0-.25-.04-.49-.1-.7-.17s-.41-.15-.58-.24c-.17-.09-.32-.18-.43-.27s-.21-.18-.27-.25c-.04-.05-.06-.1-.07-.15-.01-.05-.01-.1,0-.17,0-.04.02-.1.03-.15.01-.06.04-.12.06-.18.03-.06.05-.12.08-.18s.06-.11.09-.15c.04-.05.07-.08.1-.1.03-.03.07-.04.1-.03.06,0,.14.06.22.14s.19.18.32.29.31.21.51.32.48.19.81.24c.29.05.55.05.78,0,.22-.04.41-.11.57-.21.16-.1.28-.23.37-.38s.15-.32.18-.49c.04-.23,0-.42-.13-.58s-.28-.32-.47-.47c-.19-.15-.41-.3-.64-.45-.23-.15-.44-.32-.63-.51s-.34-.4-.45-.65-.14-.54-.09-.89c.05-.36.18-.67.36-.96s.42-.52.71-.7.62-.31,1-.38.78-.07,1.22,0c.2.03.4.08.59.14.18.06.36.13.51.2.15.07.28.15.39.23.11.08.19.15.24.22.05.06.07.15.05.26v-.02Z"/>
    <path class="cls-25" d="M126.04,260.72c0,.05-.02.13-.04.21-.02.09-.05.18-.09.26-.04.09-.08.15-.12.21-.05.06-.09.08-.14.08-.06,0-.14-.04-.23-.1s-.19-.13-.32-.2c-.13-.08-.28-.14-.46-.21-.18-.07-.39-.11-.64-.13-.24-.02-.45,0-.64.05s-.35.14-.48.24c-.13.11-.24.24-.32.38-.08.14-.12.3-.13.46-.02.22.04.4.18.56.13.15.3.3.51.43.21.13.43.26.68.39s.46.29.67.46.37.38.49.62.18.53.15.87c-.03.38-.13.73-.3,1.05-.18.32-.41.58-.7.8-.3.22-.65.38-1.06.48s-.85.14-1.34.1c-.25-.02-.49-.05-.71-.11-.22-.05-.42-.12-.6-.19-.18-.07-.33-.15-.45-.24-.13-.08-.22-.16-.28-.23-.04-.05-.07-.1-.09-.14-.01-.05-.02-.1-.01-.17,0-.05,0-.1.02-.15s.03-.12.05-.19c.02-.06.05-.13.07-.18.02-.06.05-.11.08-.16s.06-.09.09-.11.06-.04.1-.04c.06,0,.14.05.23.13s.2.17.34.26c.14.1.32.19.54.28.22.09.49.15.82.17.3.02.55,0,.78-.05.22-.06.41-.14.55-.25.15-.11.27-.24.34-.4.08-.16.13-.33.14-.51.02-.23-.04-.42-.17-.58-.13-.15-.3-.3-.5-.43-.21-.13-.43-.27-.67-.4s-.46-.29-.66-.46-.37-.38-.49-.61c-.13-.24-.18-.53-.15-.88.03-.36.12-.69.29-.98.16-.3.38-.55.66-.76.28-.21.6-.36.97-.46.37-.1.78-.13,1.21-.1.21.01.41.05.6.1s.37.1.52.16.3.13.41.19c.11.07.2.14.25.2.05.06.08.14.07.26h0Z"/>
    <path class="cls-25" d="M132.97,261.15c0,.1-.01.2-.04.3s-.05.2-.09.29-.09.16-.14.22-.11.09-.18.09c-.08,0-.15-.05-.23-.13-.08-.08-.18-.17-.32-.27s-.3-.19-.5-.28-.46-.13-.78-.14c-.35,0-.66.05-.93.19-.27.14-.51.32-.71.55-.2.23-.37.48-.51.78-.14.29-.25.58-.34.88-.09.3-.15.58-.2.87-.04.28-.07.53-.07.73-.01.56.1.99.33,1.29.24.29.6.45,1.08.46.35,0,.66-.03.91-.11.26-.08.47-.18.65-.28.18-.11.33-.2.44-.29.12-.09.22-.13.31-.12.05,0,.08.02.1.06s.04.1.03.18c0,.07,0,.14-.02.23-.01.09-.03.18-.06.28-.03.1-.06.18-.09.26s-.09.15-.16.22c-.07.07-.18.14-.35.24-.17.1-.36.18-.57.25-.22.07-.45.14-.7.18-.25.05-.51.06-.78.06-.87-.02-1.52-.26-1.94-.72-.42-.46-.62-1.13-.6-2.01,0-.33.05-.7.11-1.09s.17-.79.32-1.19.33-.78.55-1.15c.22-.37.49-.7.81-.98s.68-.51,1.09-.67c.41-.16.88-.24,1.41-.23.22,0,.42.03.63.07.2.04.39.09.56.16.18.06.33.14.47.24.14.1.25.18.33.25s.13.14.14.19.03.1.02.16h0Z"/>
    <path class="cls-25" d="M134.51,267.8s-.03.08-.05.11-.07.06-.12.08-.13.04-.22.05c-.09.01-.2.02-.33.02-.14,0-.25,0-.33-.01-.09,0-.15-.02-.2-.05-.05-.02-.08-.05-.09-.08s-.02-.07,0-.11l1.34-7.39s.02-.07.05-.11c.03-.03.07-.06.12-.08s.13-.04.22-.05c.09-.01.2-.02.34-.02.13,0,.24,0,.32,0,.09,0,.15.03.2.05.05.02.08.05.09.08.01.03.02.07.01.1l-1.34,7.39h0ZM136.47,257.92c-.03.15-.06.28-.1.38s-.1.19-.18.25c-.08.06-.17.11-.28.14-.11.03-.25.05-.41.05s-.29,0-.39-.04c-.1-.03-.18-.07-.23-.13-.05-.06-.08-.14-.09-.25s0-.23.03-.38c.03-.15.07-.28.12-.38.05-.1.11-.19.18-.26.07-.07.17-.12.28-.14s.25-.04.41-.04.29,0,.39.03.18.07.23.14c.05.07.08.15.09.25s0,.23-.04.38h0Z"/>
    <path class="cls-25" d="M143.51,261.52c.02.38-.05.72-.2,1.03s-.41.58-.77.82c-.36.24-.82.43-1.38.58s-1.25.25-2.06.3l-.86.05c-.03.18-.04.36-.05.53,0,.17,0,.33,0,.48.03.54.19.95.48,1.23.28.27.73.39,1.33.35.35-.02.66-.07.93-.14.28-.07.51-.14.71-.21s.36-.14.49-.2c.13-.06.22-.09.26-.1.05,0,.09.01.11.05.03.04.04.08.05.15v.2c0,.08-.02.15-.04.24-.02.08-.04.16-.07.23-.03.07-.07.14-.11.19-.06.07-.17.14-.33.21s-.36.14-.58.21c-.23.06-.47.12-.74.17s-.54.08-.81.1c-.48.03-.91,0-1.28-.09-.37-.09-.68-.24-.94-.45-.25-.21-.45-.48-.59-.81s-.22-.72-.25-1.18c-.02-.35,0-.73.03-1.15.05-.41.13-.82.25-1.22.12-.41.29-.8.5-1.18.21-.38.47-.72.78-1.01s.66-.54,1.08-.74c.41-.19.88-.31,1.42-.34.46-.03.84,0,1.17.1.32.1.59.23.81.39.21.17.37.36.48.58.1.21.17.43.18.65h0ZM142.15,261.72c-.02-.28-.14-.49-.37-.65s-.54-.23-.94-.2c-.35.02-.66.1-.92.24-.26.14-.49.32-.69.54s-.36.47-.49.76-.23.58-.31.89l.83-.05c.57-.04,1.04-.1,1.42-.19s.68-.21.9-.34.38-.29.46-.46c.09-.17.12-.34.11-.53h0Z"/>
    <path class="cls-25" d="M155.6,265.82s0,.08-.03.12c-.02.03-.06.06-.11.1s-.12.05-.21.08c-.09.02-.19.05-.32.06s-.23.03-.32.03c-.09,0-.15,0-.2-.02-.05-.01-.08-.04-.1-.06-.02-.03-.03-.06-.02-.11l.25-4.63c0-.16,0-.31,0-.45s-.01-.29-.03-.43c-.05-.34-.15-.61-.32-.8-.16-.19-.41-.26-.74-.21-.27.04-.54.16-.8.37-.27.21-.51.47-.72.8-.22.33-.4.7-.54,1.13-.14.43-.23.88-.25,1.35l-.18,3.35s-.02.09-.04.12-.06.06-.11.1-.12.05-.21.08c-.09.02-.19.05-.32.06s-.23.03-.32.03c-.09,0-.15,0-.2-.02-.05-.01-.08-.04-.1-.06s-.03-.06-.03-.11l.25-4.63c.01-.17.02-.33,0-.49,0-.16-.02-.3-.04-.44-.05-.33-.15-.58-.32-.76-.16-.18-.41-.24-.73-.19-.28.04-.54.16-.8.37-.26.21-.5.47-.72.8-.22.33-.4.7-.54,1.13-.14.43-.23.88-.25,1.35l-.18,3.35s-.02.09-.04.12-.06.06-.11.1c-.05.03-.12.05-.21.08-.09.02-.19.05-.32.06-.14.02-.24.03-.33.03s-.15,0-.2-.02-.08-.04-.1-.06-.02-.06-.02-.11l.41-7.51s0-.08.03-.11.05-.07.1-.1.11-.05.18-.07.17-.04.28-.05c.11-.02.21-.03.28-.03s.13,0,.18.02.07.04.09.07.02.06.02.1l-.08,1.43c.05-.19.16-.41.32-.64.16-.23.35-.45.57-.66.22-.21.47-.39.75-.55.28-.15.57-.25.87-.3.32-.05.6-.04.85.01.24.05.45.15.62.28s.31.3.41.5.18.43.23.68c.08-.2.2-.42.36-.66.16-.23.35-.45.57-.66.22-.21.47-.38.74-.54.28-.15.56-.25.86-.3.36-.05.67-.05.92.02.26.07.47.18.65.34.18.15.31.35.41.58s.17.48.21.77c.03.19.04.38.05.56s0,.38,0,.58l-.26,4.68h0Z"/>
    <path class="cls-25" d="M164.09,263.92s0,.09-.02.12c-.02.04-.05.07-.09.1-.05.03-.1.06-.18.09s-.17.05-.28.08c-.11.02-.19.04-.27.05-.07,0-.13,0-.18,0-.05,0-.08-.03-.09-.06-.02-.03-.03-.06-.03-.11l-.05-1.41c-.04.2-.13.42-.27.66-.14.24-.31.48-.51.7-.21.23-.45.43-.71.6-.27.18-.55.3-.86.37-.36.08-.68.1-.94.06-.27-.04-.5-.13-.69-.27-.19-.14-.35-.32-.47-.54-.12-.22-.21-.47-.28-.76-.04-.18-.07-.36-.09-.55-.02-.19-.03-.38-.04-.58l-.16-4.7s.01-.08.03-.12c.02-.04.05-.07.1-.11.05-.03.12-.06.2-.1.09-.03.19-.06.32-.09s.23-.05.32-.06.15,0,.2,0c.05,0,.09.03.1.06.02.03.03.06.04.1l.16,4.65c0,.14,0,.29.03.45.02.15.05.31.08.46.04.16.09.3.14.43.06.12.14.23.23.3.09.08.2.13.33.16s.27.02.43-.02c.28-.06.55-.21.8-.44.26-.23.48-.52.67-.87.19-.34.33-.74.44-1.18.11-.44.15-.91.14-1.4l-.11-3.32s0-.08.03-.12c.02-.04.06-.08.11-.11.05-.04.12-.06.2-.1.09-.03.19-.06.32-.09.13-.03.23-.05.32-.06s.15-.01.2,0c.05,0,.09.03.1.06.02.03.03.06.04.1l.23,7.52v.02Z"/>
    <path class="cls-25" d="M169.84,255.05s.03.12.04.21c0,.09.01.18,0,.28s-.02.17-.04.24-.06.11-.1.12c-.06.02-.14.01-.24,0-.1-.02-.22-.05-.37-.08s-.31-.04-.5-.04-.41.04-.64.1c-.23.07-.42.16-.58.28s-.28.25-.37.4-.14.3-.16.47c-.02.16,0,.32.04.48.06.21.18.36.36.46.18.1.39.17.63.22.24.05.5.09.77.13s.54.1.79.19.48.23.68.4.35.43.45.76c.11.37.14.73.09,1.09-.05.36-.18.69-.38,1-.2.31-.47.58-.82.82-.34.24-.75.43-1.22.57-.24.07-.48.12-.71.15s-.44.04-.63.03-.36-.03-.51-.06-.26-.07-.35-.11c-.05-.03-.09-.06-.13-.1-.03-.04-.05-.09-.08-.15-.01-.04-.02-.09-.04-.15s-.02-.12-.02-.19v-.19c0-.06,0-.12.02-.18.01-.05.03-.1.05-.14s.05-.06.08-.07c.06-.02.15,0,.26.04s.25.09.41.13c.17.04.37.06.6.07.23,0,.51-.04.83-.13.29-.09.52-.19.71-.33s.33-.28.43-.43c.1-.16.16-.33.18-.5s0-.35-.05-.53c-.06-.22-.18-.38-.36-.48-.18-.1-.38-.17-.62-.23-.24-.05-.5-.1-.77-.14-.27-.04-.53-.1-.78-.19-.25-.09-.47-.22-.68-.4s-.35-.43-.45-.77c-.1-.34-.13-.68-.08-1.02s.17-.65.35-.94c.18-.29.43-.55.74-.77s.68-.4,1.1-.52c.2-.06.39-.1.59-.12.19-.02.37-.04.55-.03.17,0,.32.01.45.04s.23.05.31.1c.07.04.13.11.16.22h0Z"/>
    <path class="cls-25" d="M179.92,250.84s.03.1.04.16c0,.06,0,.12,0,.19.03.63.03,1.27,0,1.93-.02.66-.06,1.33-.14,2-.07.67-.18,1.35-.31,2.02-.14.67-.31,1.34-.52,2-.01.07-.04.13-.07.18-.04.05-.08.1-.14.14-.06.04-.13.08-.2.12-.08.04-.18.08-.28.12-.16.06-.28.1-.39.13-.1.03-.18.04-.24.04-.06,0-.11-.01-.14-.04s-.07-.06-.09-.11l-3.5-6.12c-.03-.05-.05-.1-.07-.14s-.04-.08-.05-.12c-.03-.07-.04-.12-.03-.16,0-.05.03-.09.07-.12.04-.04.09-.08.17-.11s.18-.08.31-.13.24-.09.32-.11c.09-.02.15-.04.2-.03.05,0,.09.01.12.04s.05.06.08.1l2.99,5.35.04.09.02-.06c.13-.57.23-1.11.32-1.63.09-.52.15-1.05.19-1.59.04-.53.06-1.09.06-1.66s-.02-1.2-.05-1.87c0-.05,0-.1.02-.14s.05-.09.09-.12c.05-.04.11-.08.2-.12.09-.04.19-.09.32-.14.12-.05.22-.08.3-.1.08-.02.14-.04.19-.04.05,0,.09,0,.11.02s.05.04.06.07h0Z"/>
    <path class="cls-25" d="M182.05,247.22c.04.15.05.28.05.4,0,.11-.02.21-.07.3-.05.09-.11.17-.21.24s-.22.14-.37.2c-.14.06-.27.1-.37.12-.1.02-.19,0-.26-.03s-.13-.1-.18-.19c-.05-.1-.09-.21-.12-.37-.03-.15-.05-.29-.04-.4s.03-.21.07-.3.11-.17.2-.24c.09-.07.22-.14.37-.2.14-.06.27-.1.37-.12.1-.02.19,0,.27.04.07.04.14.11.18.2s.08.21.11.37h0ZM184.01,257.09s0,.09,0,.12c-.01.04-.04.08-.08.12s-.1.09-.18.13c-.08.05-.18.1-.3.14-.13.05-.23.1-.31.12-.08.02-.15.04-.2.03-.05,0-.09-.01-.11-.04s-.04-.05-.05-.1l-1.58-7.34s0-.08,0-.12c.01-.04.04-.08.08-.12.04-.04.1-.09.18-.13s.18-.1.3-.15c.12-.05.22-.09.3-.11.08-.02.15-.04.2-.03.05,0,.09.01.11.04s.05.05.05.1l1.58,7.34h0Z"/>
    <path class="cls-25" d="M191.68,253.49c.02.09,0,.18-.08.25-.07.08-.21.17-.41.27-.1.05-.18.08-.25.1s-.13.03-.17.04c-.05,0-.09,0-.11-.03-.03-.02-.05-.05-.05-.11l-.37-1.37c.01.19-.02.42-.09.68-.08.27-.19.53-.34.81-.15.27-.34.52-.57.76-.23.24-.49.43-.78.57-.39.19-.75.28-1.07.27-.32,0-.61-.09-.87-.24-.26-.15-.49-.35-.69-.61s-.37-.53-.51-.83c-.14-.28-.26-.6-.38-.97s-.21-.77-.27-1.19-.09-.85-.07-1.28c.01-.43.09-.85.21-1.25s.32-.77.58-1.1c.26-.33.61-.6,1.04-.82s.85-.31,1.24-.29.79.13,1.19.32l-.19-.74c-.02-.09,0-.17.09-.25s.21-.17.41-.26c.1-.05.18-.09.25-.11.07-.03.13-.04.18-.04s.09.01.11.04.04.05.05.09l1.91,7.27h0ZM189.06,248.71c-.39-.23-.77-.36-1.11-.39s-.69.02-1.02.19c-.26.13-.47.31-.62.54s-.26.49-.32.77c-.06.29-.09.59-.08.91,0,.32.04.64.1.96.06.32.14.62.23.91s.19.54.3.76c.09.17.18.34.29.49.11.15.23.29.38.39s.3.16.47.19c.17.02.37-.02.58-.12.27-.13.5-.34.7-.62s.35-.61.46-.99c.1-.38.16-.79.17-1.24s-.05-.91-.18-1.38l-.34-1.34h0Z"/>
    <path class="cls-25" d="M203.21,246.88s.02.08.01.12c0,.04-.03.09-.07.13-.04.05-.09.1-.16.15s-.16.12-.28.19c-.11.07-.21.12-.28.15-.08.04-.14.05-.19.06s-.09,0-.12-.02c-.03-.02-.05-.05-.06-.09l-1.54-4.37c-.06-.15-.11-.29-.17-.42-.05-.13-.12-.26-.19-.38-.18-.3-.38-.5-.6-.62s-.47-.08-.76.09c-.23.14-.43.36-.6.65-.17.29-.28.63-.36,1.01-.08.38-.09.8-.06,1.25.03.45.13.9.29,1.35l1.12,3.16s.01.09,0,.12c0,.04-.03.08-.07.13s-.09.1-.16.15c-.07.05-.16.12-.28.19-.11.07-.21.12-.28.15s-.14.05-.19.05-.09,0-.12-.02c-.03-.02-.05-.05-.07-.09l-1.54-4.37c-.05-.16-.11-.31-.18-.45s-.14-.27-.21-.39c-.17-.29-.37-.48-.58-.58-.22-.1-.47-.07-.75.1-.24.14-.44.36-.6.65-.16.29-.28.63-.36,1.01s-.09.8-.06,1.25c.03.45.13.9.29,1.35l1.12,3.16s.01.09,0,.12-.03.08-.06.13c-.04.05-.09.1-.16.15-.07.05-.16.12-.28.19-.12.07-.21.12-.29.15-.08.04-.14.05-.19.06s-.09,0-.12-.02-.05-.05-.06-.1l-2.49-7.09s-.02-.07-.02-.11.02-.08.05-.13c.03-.05.08-.09.14-.14.06-.05.14-.1.23-.15.1-.06.18-.1.25-.14s.13-.05.17-.05c.05,0,.08,0,.11.03s.05.05.06.09l.48,1.35c-.02-.2,0-.44.05-.72.05-.28.14-.55.27-.83.13-.28.28-.54.48-.79.19-.25.43-.46.69-.62.28-.17.54-.27.79-.32.25-.04.47-.04.68.02.21.06.4.16.57.31s.33.33.47.54c0-.22.02-.47.08-.74s.15-.55.28-.83c.13-.28.29-.54.48-.79s.42-.45.68-.61c.31-.19.6-.3.86-.34.26-.04.51-.02.73.06s.42.2.6.38.34.38.49.62c.1.16.18.33.26.5.08.17.15.35.22.54l1.56,4.42h0Z"/>
    <path class="cls-25" d="M213.12,239.7c.04.09.03.18-.02.27s-.17.2-.36.34c-.09.06-.16.12-.23.15s-.12.05-.16.07c-.05,0-.09,0-.12,0-.03-.01-.05-.05-.07-.1l-.62-1.27c.05.18.06.41.04.69-.02.28-.08.56-.18.86-.09.29-.23.58-.41.86-.18.28-.39.52-.65.71-.35.26-.68.42-1,.47s-.62.03-.91-.07c-.28-.1-.55-.25-.79-.47s-.46-.45-.66-.72c-.18-.24-.37-.54-.56-.88s-.35-.72-.49-1.11-.24-.81-.31-1.24-.08-.85-.03-1.26c.05-.42.17-.81.36-1.19s.48-.71.87-1.01c.38-.29.78-.47,1.17-.52s.8-.03,1.22.09l-.32-.69c-.04-.08-.02-.17.04-.26.06-.1.18-.2.35-.34.09-.07.16-.12.23-.15s.12-.06.17-.07c.05,0,.09,0,.11.01.03.02.05.05.07.08l3.27,6.77h0ZM209.64,235.52c-.43-.14-.82-.2-1.17-.17s-.67.16-.97.38c-.23.18-.4.39-.51.65-.1.25-.16.53-.17.82,0,.29.02.6.09.91.07.31.16.62.28.92.12.3.25.58.4.84.15.26.29.49.44.68.11.15.24.29.38.43.14.13.28.24.45.31s.33.1.5.09c.18-.01.36-.09.54-.23.24-.18.43-.43.57-.74.14-.32.23-.67.26-1.06s0-.81-.07-1.25c-.08-.44-.23-.88-.44-1.32l-.59-1.25h0Z"/>
    <path class="cls-25" d="M219.7,234.13s.04.08.04.12,0,.09-.04.13c-.02.05-.06.1-.11.16-.05.06-.12.13-.21.2-.08.07-.15.13-.22.17s-.12.07-.16.08c-.05.01-.08,0-.11,0s-.06-.05-.08-.08l-.7-1.22c.05.2.08.43.07.71s-.05.57-.13.87-.19.59-.35.87-.35.53-.59.73c-.28.24-.55.41-.8.5-.26.09-.5.12-.74.09-.23-.03-.46-.12-.66-.26s-.41-.32-.6-.53c-.12-.14-.23-.28-.33-.44-.1-.16-.2-.32-.3-.49l-2.33-4.08s-.03-.08-.03-.12.01-.09.04-.14.08-.11.14-.18c.06-.06.14-.14.24-.23s.18-.15.25-.2c.07-.05.13-.08.18-.1.05-.01.09-.01.12,0,.03.02.06.04.08.07l2.3,4.04c.07.13.14.25.23.38.09.13.18.25.28.37.11.12.22.23.32.31s.23.14.34.16.24.02.37-.01c.13-.04.25-.11.37-.22.22-.19.38-.45.51-.77.12-.32.18-.68.18-1.08s-.05-.81-.16-1.25c-.11-.44-.29-.87-.53-1.3l-1.64-2.88s-.03-.07-.03-.11.02-.1.05-.15.08-.11.14-.18c.06-.06.14-.14.24-.23.1-.09.18-.15.25-.2.07-.05.13-.08.18-.1.05-.01.09-.01.12,0,.03.02.06.04.08.07l3.7,6.54.02.02Z"/>
    <path class="cls-25" d="M220.22,223.58s.07.08.1.12c.04.05.07.1.1.15s.05.11.08.18c.02.06.04.12.05.17,0,.05.01.1,0,.15,0,.05-.03.09-.06.12l-1.34,1.31,2.25,3.53c.06.1.14.2.23.32s.16.2.23.27c.19.2.37.3.55.32.17,0,.35-.08.54-.26.1-.1.19-.2.25-.29.06-.1.11-.18.15-.25.04-.07.07-.14.09-.2s.05-.1.09-.14c.03-.03.07-.05.1-.04s.09.04.14.1c.05.05.1.11.15.18.05.07.09.14.14.22.04.07.07.14.09.22.02.07.03.13.03.19,0,.06-.03.13-.06.22-.04.09-.09.18-.14.29-.06.1-.13.2-.21.3s-.17.19-.26.28c-.22.21-.43.37-.64.48s-.41.17-.62.17-.41-.04-.6-.14-.4-.25-.6-.47c-.05-.05-.09-.1-.14-.16-.05-.06-.1-.13-.15-.2-.05-.07-.1-.14-.15-.22s-.09-.14-.14-.21l-2.28-3.55-.73.71s-.09.06-.14.06c-.05,0-.11-.04-.18-.11-.05-.05-.11-.12-.17-.21s-.1-.17-.14-.25-.06-.17-.06-.25c0-.08.02-.14.07-.19l.74-.72-.96-1.5s-.04-.07-.04-.11,0-.1.03-.15c.02-.05.06-.12.12-.19.06-.07.13-.15.23-.24s.18-.16.24-.21c.07-.05.13-.08.18-.1.05-.01.09-.01.12,0,.03.01.06.04.08.07l.96,1.5,1.35-1.31c.06-.06.12-.07.18-.05s.12.06.17.12h0Z"/>
    <path class="cls-25" d="M222.88,216.92c.09.12.16.24.21.34s.06.2.06.3-.04.2-.09.3c-.05.1-.14.22-.25.34-.11.12-.2.2-.29.26-.09.06-.17.09-.25.08-.08,0-.16-.04-.24-.11s-.17-.16-.26-.29c-.09-.13-.16-.24-.2-.35-.04-.1-.06-.21-.06-.31s.03-.2.09-.3c.06-.1.14-.21.25-.34.11-.12.2-.2.29-.26s.17-.08.26-.08c.09,0,.17.04.24.11s.16.16.25.29h0ZM228.7,225.11s.04.08.04.12,0,.09-.02.14-.06.12-.11.19c-.05.07-.12.16-.21.26s-.17.18-.23.24c-.06.05-.12.09-.17.11s-.09.02-.12.01-.06-.04-.09-.07l-4.44-6.04s-.04-.07-.05-.11,0-.09.02-.14c.02-.05.06-.12.11-.19.05-.07.13-.16.22-.26.09-.1.16-.17.23-.23s.12-.09.17-.11c.05-.02.09-.02.12,0,.03.01.06.03.09.06l4.44,6.04h0Z"/>
    <path class="cls-25" d="M230.5,214.17c.14.12.28.25.41.38.13.14.26.28.38.43l2.94,3.65s.05.07.05.11c0,.04,0,.09-.02.14s-.05.12-.1.2c-.05.07-.11.16-.2.27-.08.1-.16.18-.22.24-.06.06-.12.1-.16.12-.05.02-.09.03-.12.02s-.06-.03-.09-.06l-2.91-3.6c-.1-.14-.22-.26-.32-.37-.11-.11-.22-.2-.31-.28-.26-.21-.51-.33-.75-.35-.25-.02-.48.1-.69.35-.18.22-.31.5-.37.84-.06.34-.07.7,0,1.09s.18.78.36,1.2c.18.41.41.81.72,1.18l2.11,2.6s.04.07.05.11c0,.04,0,.09-.02.14-.02.05-.05.12-.1.2-.05.08-.11.16-.2.27s-.16.19-.23.24-.12.1-.16.12-.09.03-.12.02-.06-.03-.09-.07l-4.71-5.84s-.05-.06-.05-.1,0-.09,0-.14c.02-.05.05-.11.09-.18s.1-.14.17-.23.14-.16.19-.21c.05-.05.1-.09.14-.1s.08-.02.11,0c.03.01.06.03.09.06l.9,1.11c-.09-.18-.16-.41-.2-.68-.04-.28-.05-.57-.02-.87s.1-.62.21-.93.27-.59.48-.85c.23-.28.47-.48.71-.6.24-.12.48-.18.72-.18s.47.05.69.15.44.24.64.4h0Z"/>
    <path class="cls-25" d="M233.78,206.85s.09.07.12.12.07.1.11.15c.36.51.71,1.06,1.05,1.62.34.57.66,1.15.96,1.75s.58,1.23.83,1.87c.25.64.46,1.3.64,1.97.03.07.04.13.04.19,0,.06-.02.12-.04.19-.02.07-.06.14-.11.21-.05.07-.1.16-.18.25-.1.14-.18.24-.25.32-.07.08-.13.13-.18.17-.05.03-.1.05-.14.05s-.09-.02-.14-.05l-6.25-3.25s-.09-.06-.14-.09c-.04-.02-.07-.05-.1-.07-.06-.04-.09-.08-.11-.12s-.02-.09,0-.14.04-.11.08-.19.11-.17.19-.28c.09-.11.15-.2.21-.27.06-.06.11-.11.15-.14.04-.03.08-.04.12-.03.04,0,.08.02.12.05l5.4,2.88.08.06v-.06c-.21-.55-.42-1.06-.63-1.55s-.44-.96-.69-1.44c-.26-.47-.54-.95-.85-1.43-.31-.48-.66-1-1.05-1.55-.03-.04-.05-.09-.06-.13,0-.05,0-.1.01-.15.02-.06.05-.13.1-.21s.12-.18.2-.29c.08-.1.14-.19.2-.25.05-.06.1-.1.14-.14.04-.03.07-.05.1-.05s.06,0,.09.03h0Z"/>
    <path class="cls-25" d="M238.84,201.84c.32.2.55.46.71.77.16.31.23.68.2,1.11s-.14.91-.36,1.46c-.22.55-.54,1.16-.98,1.84l-.47.73c.13.13.26.24.4.35s.26.19.39.28c.46.29.88.41,1.27.34s.74-.36,1.07-.87c.19-.29.34-.57.44-.83.11-.26.19-.49.25-.7.06-.2.1-.38.13-.51.03-.14.05-.23.08-.27s.06-.06.1-.06.09.02.14.05c.05.03.1.07.15.12.06.05.11.11.17.17.05.06.1.13.14.19.04.07.07.14.09.2.02.09,0,.22-.03.4-.04.17-.09.37-.18.59s-.18.45-.3.7c-.12.25-.25.48-.4.72-.26.41-.54.73-.83.98s-.6.41-.92.49-.65.08-1,0c-.35-.08-.71-.25-1.1-.5-.3-.19-.6-.43-.9-.71-.3-.28-.58-.58-.83-.92s-.47-.71-.65-1.1-.3-.81-.36-1.23c-.06-.43-.04-.86.05-1.31.09-.45.28-.9.56-1.35.25-.38.51-.68.78-.89s.53-.34.79-.42c.26-.07.51-.09.74-.05.23.04.44.12.63.24h0ZM238.2,203.07c-.23-.15-.48-.18-.74-.09-.26.09-.5.3-.72.64-.19.3-.31.59-.36.89-.05.29-.04.59.02.88s.17.57.32.85.32.53.53.78l.45-.7c.31-.48.54-.9.69-1.26s.23-.67.26-.93c.02-.26,0-.48-.09-.64-.09-.17-.2-.3-.35-.4h0Z"/>
    <path class="cls-25" d="M242.76,195.11c.17.1.32.19.47.3.15.11.3.23.46.36l3.55,3.05s.05.06.07.1c.01.04.02.09,0,.14,0,.06-.03.13-.06.21s-.08.18-.15.3c-.06.11-.12.2-.17.28-.05.07-.09.12-.14.15-.04.03-.08.05-.11.04s-.07-.02-.1-.04l-3.51-3.01c-.13-.11-.26-.22-.39-.31-.13-.09-.25-.16-.35-.22-.29-.16-.56-.23-.8-.21-.25.02-.45.18-.61.47-.14.25-.21.55-.21.9s.06.7.19,1.07c.13.37.32.74.56,1.11s.55.72.92,1.03l2.54,2.18s.05.06.07.1c.01.04.01.09,0,.14,0,.06-.03.13-.06.21-.04.09-.08.18-.15.3s-.13.21-.18.28-.09.12-.14.14c-.04.03-.08.05-.11.04-.03,0-.06-.02-.1-.05l-5.69-4.89s-.05-.05-.07-.09c-.02-.04-.02-.09-.02-.14s.03-.12.05-.19c.03-.07.07-.16.13-.25.05-.1.1-.18.15-.24.04-.06.09-.1.12-.13.04-.02.08-.04.11-.03s.07.02.09.05l1.09.93c-.12-.16-.23-.38-.32-.64-.09-.26-.15-.55-.18-.86-.03-.31-.02-.62.04-.95.05-.33.16-.63.32-.92.18-.32.37-.56.59-.72s.44-.26.68-.31.47-.04.71.02c.24.06.47.15.7.28h0Z"/>
    <path class="cls-25" d="M241.09,189.23c.12.09.22.18.29.27s.12.18.14.28.02.2,0,.32c-.03.11-.08.24-.15.39s-.14.25-.21.34-.14.13-.22.14c-.08.01-.16,0-.26-.04-.09-.04-.2-.11-.33-.2-.12-.1-.22-.19-.28-.28-.07-.09-.12-.18-.14-.28s-.03-.2,0-.31.08-.24.15-.39c.07-.14.14-.25.21-.33s.14-.13.23-.14c.09-.02.17,0,.27.04.09.04.2.11.32.21h0ZM248.92,195.52s.06.06.07.1c.01.04.02.09.01.14s-.02.13-.05.22-.08.19-.13.3c-.06.12-.11.22-.16.29s-.09.12-.13.15c-.04.03-.08.05-.11.05s-.07-.02-.1-.05l-5.91-4.6s-.05-.05-.07-.09c-.02-.04-.02-.09-.02-.14s.02-.13.05-.22.08-.19.14-.31.11-.21.16-.28c.05-.07.09-.12.13-.15.04-.03.08-.05.11-.05s.07.01.1.04l5.91,4.6h0Z"/>
    <path class="cls-25" d="M247.51,184.6c.34.15.61.37.82.65s.32.63.37,1.06c.05.43,0,.92-.13,1.5s-.36,1.23-.69,1.97l-.35.79c.15.11.3.2.45.29s.29.15.42.21c.5.22.93.27,1.3.14s.68-.47.92-1.02c.14-.32.24-.62.31-.89.07-.28.11-.52.14-.73s.05-.39.05-.53c0-.14.02-.23.04-.28.02-.05.05-.07.09-.08.04,0,.09,0,.15.03.05.02.11.05.17.1s.13.09.19.14.12.11.17.17.09.12.12.18c.03.09.05.22.04.4s-.04.38-.09.61c-.05.23-.11.48-.19.74s-.18.52-.29.77c-.2.44-.42.81-.67,1.1-.25.29-.52.5-.83.63-.3.13-.64.18-.99.15-.36-.03-.74-.14-1.16-.32-.32-.14-.65-.33-1-.56s-.66-.49-.97-.78c-.3-.3-.57-.62-.81-.99-.24-.36-.41-.75-.54-1.16-.12-.41-.17-.84-.15-1.3s.14-.93.35-1.42c.18-.42.4-.75.63-1,.23-.24.47-.43.72-.54s.49-.17.73-.16c.24,0,.46.05.65.14h0ZM247.06,185.91c-.25-.11-.5-.1-.75.02s-.45.38-.61.75c-.14.32-.22.63-.21.93,0,.3.05.59.16.87.1.28.25.54.44.79.19.25.41.48.64.69l.34-.76c.23-.53.39-.97.49-1.35.09-.38.13-.7.11-.96-.02-.26-.08-.47-.19-.62-.11-.15-.25-.27-.41-.34h0Z"/>
    <path class="cls-25" d="M256.89,175.82s.07.05.09.08.03.09.03.14,0,.14-.03.23-.05.19-.09.32c-.04.12-.08.22-.12.3-.04.08-.08.13-.11.17s-.07.06-.1.06c-.04,0-.07,0-.11-.03l-3.98-2.36c-.14-.08-.27-.15-.4-.21-.13-.06-.26-.12-.39-.17-.33-.11-.61-.14-.85-.09s-.41.24-.52.56c-.09.26-.1.55-.05.88s.18.67.37,1.01c.19.34.44.67.75,1,.31.32.67.61,1.08.85l2.88,1.71s.07.05.09.09c.02.04.03.08.03.14,0,.06,0,.14-.03.23-.02.09-.05.19-.09.32-.05.12-.08.22-.12.3s-.08.13-.11.17c-.04.04-.07.05-.1.06-.03,0-.07,0-.11-.02l-3.98-2.36c-.14-.09-.28-.17-.43-.23s-.28-.12-.41-.17c-.31-.11-.59-.14-.82-.07-.23.06-.4.25-.51.56-.09.26-.11.56-.05.88.06.33.18.67.37,1.01.19.34.44.68.75,1s.67.61,1.08.85l2.88,1.71s.07.05.09.09c.02.04.03.08.03.14s0,.13-.03.22c-.02.09-.05.19-.09.32-.05.13-.09.23-.13.31s-.08.13-.11.17-.07.05-.1.06c-.03,0-.07,0-.1-.03l-6.44-3.84s-.06-.05-.09-.08c-.02-.04-.04-.08-.04-.14,0-.05,0-.12.02-.2.02-.08.05-.17.08-.27.04-.11.07-.19.1-.26s.06-.12.1-.15c.04-.03.07-.05.1-.05s.07,0,.1.03l1.23.73c-.15-.14-.29-.33-.42-.58-.13-.24-.24-.52-.32-.81s-.13-.6-.14-.92c0-.32.04-.62.14-.92.11-.31.24-.56.41-.75.16-.19.34-.34.54-.42s.41-.13.63-.13.46.04.71.11c-.14-.17-.28-.37-.41-.62-.13-.25-.24-.52-.32-.82-.08-.29-.13-.6-.14-.91,0-.32.04-.62.14-.91.12-.34.27-.62.45-.82.18-.2.38-.34.6-.42.22-.09.45-.12.7-.1s.51.07.77.17c.18.06.35.14.52.22.17.08.34.17.51.28l4.02,2.39h0Z"/>
    <path class="cls-25" d="M259.13,167.39s.07.04.1.08c.02.04.04.08.05.13,0,.05,0,.12,0,.2,0,.08-.03.18-.05.29-.03.1-.05.19-.09.26-.03.07-.06.12-.09.15-.03.04-.06.05-.09.06s-.07,0-.11-.02l-1.27-.61c.16.13.31.31.46.55.15.23.28.49.38.78s.17.59.2.91,0,.63-.07.93c-.09.36-.22.65-.38.87-.16.22-.35.38-.55.49s-.44.16-.69.17c-.25,0-.51-.03-.79-.1-.17-.05-.35-.1-.52-.17-.18-.07-.35-.15-.52-.24l-4.22-2.03s-.06-.05-.09-.08c-.02-.04-.04-.08-.05-.14,0-.06,0-.14.01-.23s.04-.2.07-.32c.03-.13.06-.23.09-.31.03-.08.06-.14.09-.18.03-.04.07-.06.1-.07.04,0,.07,0,.1.01l4.18,2.02c.13.07.27.13.41.18.14.05.29.1.44.14.16.04.31.06.44.07.14,0,.26-.02.37-.06s.21-.12.29-.22c.08-.1.14-.23.18-.39.07-.28.07-.59-.02-.92-.09-.34-.24-.67-.46-.99-.22-.33-.5-.64-.84-.94-.34-.3-.73-.56-1.17-.77l-2.98-1.44s-.06-.04-.09-.08-.04-.09-.05-.15c0-.06,0-.14.01-.23s.04-.2.07-.32c.03-.13.06-.23.09-.31.03-.08.06-.14.09-.18s.07-.06.1-.07c.04,0,.07,0,.1.01l6.74,3.28h0Z"/>
    <path class="cls-25" d="M253.97,158.16c.05,0,.12.03.21.07.09.03.17.07.25.12s.14.1.19.14c.05.05.07.1.06.15-.01.06-.05.14-.12.21s-.14.18-.23.29-.18.26-.27.43c-.09.17-.16.38-.21.62-.05.24-.05.45-.02.65s.09.37.18.51.2.27.34.36c.14.1.28.15.44.19.21.04.41,0,.57-.11.17-.11.33-.27.49-.46.15-.19.31-.4.47-.63s.34-.43.54-.61.42-.32.67-.42.54-.11.88-.05c.37.07.71.22,1,.43.29.21.53.48.71.8.18.32.29.69.35,1.11.05.42.03.87-.06,1.35-.05.25-.11.48-.19.7s-.17.41-.26.58-.19.31-.29.42c-.1.11-.18.2-.26.26-.05.04-.1.06-.15.07-.05,0-.1,0-.17,0-.04,0-.09-.02-.15-.04-.06-.02-.12-.04-.18-.07s-.12-.06-.17-.09-.1-.06-.14-.1-.08-.07-.1-.1-.03-.07-.03-.1c.01-.06.06-.14.15-.21s.19-.18.3-.31.23-.3.34-.5.21-.47.27-.8c.06-.29.07-.55.04-.78s-.09-.42-.18-.58c-.09-.16-.21-.29-.36-.39-.15-.1-.31-.17-.48-.2-.23-.05-.42-.01-.59.1s-.33.26-.49.45c-.16.19-.32.39-.47.62-.16.22-.34.43-.53.61s-.41.32-.66.42c-.25.1-.55.11-.88.05-.35-.07-.66-.2-.94-.4-.28-.2-.5-.45-.67-.75s-.28-.64-.33-1.02c-.05-.38-.04-.79.05-1.22.04-.2.09-.4.17-.58.07-.18.14-.35.23-.5.08-.15.16-.28.24-.38s.16-.18.23-.23c.06-.05.15-.06.27-.04h-.04Z"/>
  </g>
  <path class="cls-13" d="M249.13,122.44c-.4-3.31,1.92-6.45,5.37-6.87,3.35-.41,6.46,2.01,6.87,5.37.4,3.3-1.92,6.45-5.37,6.87s-6.46-2.01-6.87-5.37h0Z"/>
</svg>