<?xml version="1.0" standalone="no"?><!DOCTYPE svg PUBLIC "-//W3C//DTD SVG 1.1//EN" "http://www.w3.org/Graphics/SVG/1.1/DTD/svg11.dtd"><svg xmlns="http://www.w3.org/2000/svg" version="1.1" width="749px" height="106.8px" viewBox="0 -1 749 106.8" style="top:-1px">  <desc>assessment &amp; learning</desc>  <defs/>  <g id="Polygon62590">    <path d="M 20.9 25.2 L 39.8 66.5 L 36.5 66.5 L 30 52.3 L 10 52.3 L 3.6 66.5 L 0.2 66.5 L 19.2 25.2 L 20.9 25.2 Z M 28.8 49.7 L 20 30.4 L 11.2 49.7 L 28.8 49.7 Z M 54.6 25 C 57.7 25 60.9 25.9 64 27.6 C 64 27.6 64 31.1 64 31.1 C 60.5 29 57.4 27.9 54.8 27.9 C 52.4 27.9 50.3 28.7 48.7 30.2 C 47 31.7 46.2 33.5 46.2 35.7 C 46.2 37.3 46.7 38.7 47.7 40 C 48.6 41.3 50.7 42.5 53.8 43.7 C 56.9 44.8 59.2 45.8 60.6 46.6 C 62 47.4 63.2 48.5 64.2 50 C 65.2 51.5 65.7 53.4 65.7 55.8 C 65.7 58.9 64.6 61.6 62.3 63.7 C 60 65.9 57.1 67 53.8 67 C 50.4 67 46.9 65.8 43.3 63.4 C 43.3 63.4 43.3 59.7 43.3 59.7 C 47.3 62.6 50.7 64.1 53.6 64.1 C 56.1 64.1 58.1 63.3 59.8 61.7 C 61.5 60.1 62.3 58.2 62.3 55.9 C 62.3 54.2 61.8 52.6 60.7 51.2 C 59.7 49.8 57.6 48.5 54.4 47.3 C 51.3 46.1 49 45.1 47.7 44.4 C 46.3 43.6 45.1 42.6 44.2 41.2 C 43.2 39.8 42.8 38 42.8 35.9 C 42.8 32.9 43.9 30.3 46.2 28.2 C 48.5 26.1 51.3 25 54.6 25 C 54.6 25 54.6 25 54.6 25 Z M 82.7 25 C 85.9 25 89 25.9 92.2 27.6 C 92.2 27.6 92.2 31.1 92.2 31.1 C 88.6 29 85.6 27.9 83 27.9 C 80.5 27.9 78.5 28.7 76.8 30.2 C 75.2 31.7 74.4 33.5 74.4 35.7 C 74.4 37.3 74.8 38.7 75.8 40 C 76.8 41.3 78.8 42.5 81.9 43.7 C 85 44.8 87.3 45.8 88.7 46.6 C 90.2 47.4 91.4 48.5 92.4 50 C 93.4 51.5 93.9 53.4 93.9 55.8 C 93.9 58.9 92.7 61.6 90.4 63.7 C 88.1 65.9 85.3 67 82 67 C 78.6 67 75.1 65.8 71.5 63.4 C 71.5 63.4 71.5 59.7 71.5 59.7 C 75.4 62.6 78.9 64.1 81.8 64.1 C 84.2 64.1 86.3 63.3 87.9 61.7 C 89.6 60.1 90.4 58.2 90.4 55.9 C 90.4 54.2 89.9 52.6 88.9 51.2 C 87.9 49.8 85.8 48.5 82.6 47.3 C 79.4 46.1 77.2 45.1 75.8 44.4 C 74.5 43.6 73.3 42.6 72.3 41.2 C 71.4 39.8 70.9 38 70.9 35.9 C 70.9 32.9 72.1 30.3 74.4 28.2 C 76.7 26.1 79.5 25 82.7 25 C 82.7 25 82.7 25 82.7 25 Z M 123.5 25.5 L 123.5 28.2 L 104.3 28.2 L 104.3 44.5 L 123 44.5 L 123 47.2 L 104.3 47.2 L 104.3 63.8 L 123.9 63.8 L 123.9 66.5 L 101.1 66.5 L 101.1 25.5 L 123.5 25.5 Z M 140.3 25 C 143.5 25 146.6 25.9 149.7 27.6 C 149.7 27.6 149.7 31.1 149.7 31.1 C 146.2 29 143.1 27.9 140.6 27.9 C 138.1 27.9 136 28.7 134.4 30.2 C 132.7 31.7 131.9 33.5 131.9 35.7 C 131.9 37.3 132.4 38.7 133.4 40 C 134.4 41.3 136.4 42.5 139.5 43.7 C 142.6 44.8 144.9 45.8 146.3 46.6 C 147.7 47.4 148.9 48.5 149.9 50 C 150.9 51.5 151.4 53.4 151.4 55.8 C 151.4 58.9 150.3 61.6 148 63.7 C 145.7 65.9 142.9 67 139.5 67 C 136.1 67 132.6 65.8 129.1 63.4 C 129.1 63.4 129.1 59.7 129.1 59.7 C 133 62.6 136.5 64.1 139.4 64.1 C 141.8 64.1 143.8 63.3 145.5 61.7 C 147.2 60.1 148 58.2 148 55.9 C 148 54.2 147.5 52.6 146.5 51.2 C 145.4 49.8 143.3 48.5 140.2 47.3 C 137 46.1 134.7 45.1 133.4 44.4 C 132 43.6 130.9 42.6 129.9 41.2 C 129 39.8 128.5 38 128.5 35.9 C 128.5 32.9 129.6 30.3 132 28.2 C 134.3 26.1 137 25 140.3 25 C 140.3 25 140.3 25 140.3 25 Z M 168.4 25 C 171.6 25 174.8 25.9 177.9 27.6 C 177.9 27.6 177.9 31.1 177.9 31.1 C 174.3 29 171.3 27.9 168.7 27.9 C 166.3 27.9 164.2 28.7 162.6 30.2 C 160.9 31.7 160.1 33.5 160.1 35.7 C 160.1 37.3 160.6 38.7 161.5 40 C 162.5 41.3 164.6 42.5 167.7 43.7 C 170.8 44.8 173 45.8 174.5 46.6 C 175.9 47.4 177.1 48.5 178.1 50 C 179.1 51.5 179.6 53.4 179.6 55.8 C 179.6 58.9 178.4 61.6 176.1 63.7 C 173.8 65.9 171 67 167.7 67 C 164.3 67 160.8 65.8 157.2 63.4 C 157.2 63.4 157.2 59.7 157.2 59.7 C 161.2 62.6 164.6 64.1 167.5 64.1 C 169.9 64.1 172 63.3 173.7 61.7 C 175.3 60.1 176.2 58.2 176.2 55.9 C 176.2 54.2 175.6 52.6 174.6 51.2 C 173.6 49.8 171.5 48.5 168.3 47.3 C 165.2 46.1 162.9 45.1 161.5 44.4 C 160.2 43.6 159 42.6 158.1 41.2 C 157.1 39.8 156.7 38 156.7 35.9 C 156.7 32.9 157.8 30.3 160.1 28.2 C 162.4 26.1 165.2 25 168.4 25 C 168.4 25 168.4 25 168.4 25 Z M 205.5 44.5 L 221 25.5 L 224.2 25.5 L 224.2 66.5 L 221 66.5 L 221 30.2 L 205.5 49.3 L 189.8 30.2 L 189.8 66.5 L 186.7 66.5 L 186.7 25.5 L 189.8 25.5 L 205.5 44.5 Z M 256 25.5 L 256 28.2 L 236.9 28.2 L 236.9 44.5 L 255.5 44.5 L 255.5 47.2 L 236.9 47.2 L 236.9 63.8 L 256.5 63.8 L 256.5 66.5 L 233.7 66.5 L 233.7 25.5 L 256 25.5 Z M 299.9 25.5 L 299.9 66.5 L 297.3 66.5 L 266.2 30.7 L 266.2 66.5 L 263 66.5 L 263 25.5 L 265.7 25.5 L 296.7 61.3 L 296.7 25.5 L 299.9 25.5 Z M 338.7 25.5 L 338.7 28.2 L 323.3 28.2 L 323.3 66.5 L 320.2 66.5 L 320.2 28.2 L 304.8 28.2 L 304.8 25.5 L 338.7 25.5 Z M 381.6 55.3 C 383.5 52.5 385 49.5 386.1 46.1 C 386.1 46.1 389.5 46.1 389.5 46.1 C 388.2 50.1 386.3 53.9 383.8 57.7 C 383.82 57.66 392.2 66.5 392.2 66.5 L 388.1 66.5 C 388.1 66.5 381.96 60.05 382 60 C 378 64.7 373.3 67 367.9 67 C 364.7 67 362.1 66.1 360.1 64.3 C 358.2 62.5 357.2 60.2 357.2 57.3 C 357.2 51.9 360.6 47.8 367.3 44.8 C 363.9 41.3 362.2 38.1 362.2 35.3 C 362.2 32.8 363.2 30.6 365 28.9 C 366.9 27.2 369.2 26.3 372 26.3 C 374.5 26.3 376.7 27.1 378.4 28.7 C 380 30.3 380.9 32.4 380.9 34.8 C 380.9 39.1 378 42.7 372.4 45.6 C 372.37 45.59 381.6 55.3 381.6 55.3 C 381.6 55.3 381.6 55.32 381.6 55.3 Z M 365.3 35.1 C 365.3 37.6 367 40.4 370.3 43.4 C 375.4 41.3 378 38.5 378 35.1 C 378 33.4 377.4 32 376.2 30.9 C 375 29.8 373.6 29.2 371.8 29.2 C 369.9 29.2 368.4 29.8 367.2 30.9 C 365.9 32.1 365.3 33.4 365.3 35.1 C 365.3 35.1 365.3 35.1 365.3 35.1 Z M 368.5 64.1 C 372.6 64.1 376.4 62 379.8 57.8 C 379.8 57.8 369.4 47 369.4 47 C 366.4 48.3 364.2 49.7 362.7 51.2 C 361.3 52.8 360.6 54.6 360.6 56.8 C 360.6 59.1 361.3 60.9 362.7 62.1 C 364.1 63.4 366 64.1 368.5 64.1 C 368.5 64.1 368.5 64.1 368.5 64.1 Z M 417.1 25.5 L 417.1 63.8 L 437.4 63.8 L 437.4 66.5 L 414 66.5 L 414 25.5 L 417.1 25.5 Z M 464.5 25.5 L 464.5 28.2 L 445.3 28.2 L 445.3 44.5 L 464 44.5 L 464 47.2 L 445.3 47.2 L 445.3 63.8 L 465 63.8 L 465 66.5 L 442.2 66.5 L 442.2 25.5 L 464.5 25.5 Z M 487.7 25.2 L 506.6 66.5 L 503.3 66.5 L 496.8 52.3 L 476.8 52.3 L 470.3 66.5 L 467 66.5 L 485.9 25.2 L 487.7 25.2 Z M 495.6 49.7 L 486.8 30.4 L 478 49.7 L 495.6 49.7 Z M 511.6 25.5 C 511.6 25.5 522.04 25.53 522 25.5 C 526.4 25.5 529.8 26.5 532.1 28.4 C 534.4 30.3 535.6 32.9 535.6 36.1 C 535.6 40.8 533 44.2 527.8 46.1 C 529.2 46.7 531 48.8 533.3 52.3 C 533.26 52.3 542.5 66.5 542.5 66.5 L 538.8 66.5 C 538.8 66.5 531.64 55.24 531.6 55.2 C 529.3 51.5 527.4 49.1 526.1 48.2 C 524.8 47.3 522.8 46.8 520.3 46.8 C 520.25 46.83 514.7 46.8 514.7 46.8 L 514.7 66.5 L 511.6 66.5 L 511.6 25.5 Z M 514.7 28.2 L 514.7 44.2 C 514.7 44.2 521.51 44.19 521.5 44.2 C 525 44.2 527.6 43.5 529.4 42.1 C 531.3 40.7 532.2 38.7 532.2 36.2 C 532.2 33.6 531.2 31.7 529.4 30.3 C 527.5 28.9 524.9 28.2 521.4 28.2 C 521.4 28.16 514.7 28.2 514.7 28.2 Z M 582.8 25.5 L 582.8 66.5 L 580.2 66.5 L 549.1 30.7 L 549.1 66.5 L 545.9 66.5 L 545.9 25.5 L 548.6 25.5 L 579.6 61.3 L 579.6 25.5 L 582.8 25.5 Z M 595.3 25.5 L 595.3 66.5 L 592.1 66.5 L 592.1 25.5 L 595.3 25.5 Z M 641.5 25.5 L 641.5 66.5 L 638.9 66.5 L 607.8 30.7 L 607.8 66.5 L 604.6 66.5 L 604.6 25.5 L 607.3 25.5 L 638.3 61.3 L 638.3 25.5 L 641.5 25.5 Z M 671.2 25 C 675.5 25 680.1 26.2 685.2 28.5 C 685.2 28.5 685.2 32.1 685.2 32.1 C 680.4 29.3 675.5 27.9 670.7 27.9 C 665.5 27.9 661.2 29.6 657.8 33.1 C 654.3 36.5 652.6 40.8 652.6 46 C 652.6 51.2 654.3 55.5 657.7 58.9 C 661.1 62.3 665.7 64.1 671.6 64.1 C 675.8 64.1 679.5 63.2 682.8 61.5 C 682.79 61.53 682.8 50.5 682.8 50.5 L 674.2 50.5 L 674.2 47.9 L 686 47.9 C 686 47.9 685.99 63.53 686 63.5 C 681.2 65.8 676.3 67 671.5 67 C 665.1 67 659.8 65 655.6 60.9 C 651.3 56.9 649.2 51.9 649.2 45.9 C 649.2 39.9 651.3 34.9 655.4 31 C 659.6 27 664.9 25 671.2 25 C 671.2 25 671.2 25 671.2 25 Z " stroke="none" fill="#000"/>  </g></svg>