<?xml version="1.0" standalone="no"?><!DOCTYPE svg PUBLIC "-//W3C//DTD SVG 1.1//EN" "http://www.w3.org/Graphics/SVG/1.1/DTD/svg11.dtd"><svg xmlns="http://www.w3.org/2000/svg" version="1.1" width="262.3px" height="57.5px" viewBox="0 -9 262.3 57.5" style="top:-9px">  <desc>News Read all the latest news and views from the team.</desc>  <defs/>  <g id="Polygon69187">    <path d="M 2.6 41.4 L 2.6 33 C 2.6 33 6.36 33.03 6.4 33 C 7.1 33 7.7 33.1 8.1 33.3 C 8.5 33.4 8.8 33.7 9 34.1 C 9.2 34.4 9.4 34.9 9.4 35.3 C 9.4 35.9 9.2 36.4 8.8 36.8 C 8.4 37.2 7.8 37.5 7 37.6 C 7.3 37.7 7.5 37.9 7.7 38 C 8 38.3 8.3 38.7 8.6 39.1 C 8.58 39.14 10 41.4 10 41.4 L 8.6 41.4 C 8.6 41.4 7.53 39.68 7.5 39.7 C 7.2 39.2 6.9 38.8 6.7 38.5 C 6.5 38.3 6.3 38.1 6.2 38 C 6 37.9 5.8 37.8 5.7 37.7 C 5.5 37.7 5.3 37.7 5 37.7 C 5.04 37.7 3.8 37.7 3.8 37.7 L 3.8 41.4 L 2.6 41.4 Z M 3.8 36.7 C 3.8 36.7 6.14 36.73 6.1 36.7 C 6.6 36.7 7 36.7 7.3 36.6 C 7.6 36.5 7.8 36.3 8 36.1 C 8.1 35.8 8.2 35.6 8.2 35.3 C 8.2 34.9 8.1 34.6 7.8 34.3 C 7.5 34.1 7 34 6.4 34 C 6.41 33.95 3.8 34 3.8 34 L 3.8 36.7 Z M 15.1 39.5 C 15.1 39.5 16.2 39.6 16.2 39.6 C 16 40.2 15.7 40.7 15.3 41 C 14.8 41.4 14.2 41.6 13.5 41.6 C 12.6 41.6 11.9 41.3 11.4 40.7 C 10.9 40.2 10.6 39.4 10.6 38.4 C 10.6 37.4 10.9 36.6 11.4 36.1 C 11.9 35.5 12.6 35.2 13.5 35.2 C 14.3 35.2 14.9 35.5 15.5 36 C 16 36.6 16.2 37.4 16.2 38.4 C 16.2 38.4 16.2 38.5 16.2 38.6 C 16.2 38.6 11.7 38.6 11.7 38.6 C 11.7 39.3 11.9 39.8 12.3 40.2 C 12.6 40.5 13 40.7 13.5 40.7 C 13.9 40.7 14.2 40.6 14.5 40.4 C 14.8 40.2 15 39.9 15.1 39.5 Z M 11.7 37.8 C 11.7 37.8 15.1 37.8 15.1 37.8 C 15.1 37.3 15 36.9 14.8 36.6 C 14.4 36.3 14 36.1 13.5 36.1 C 13 36.1 12.6 36.2 12.3 36.5 C 12 36.8 11.8 37.3 11.7 37.8 Z M 21.7 41.4 C 21.6 41.2 21.5 41 21.5 40.7 C 21.1 41 20.7 41.2 20.4 41.4 C 20 41.5 19.6 41.6 19.2 41.6 C 18.6 41.6 18 41.4 17.7 41.1 C 17.3 40.7 17.1 40.3 17.1 39.8 C 17.1 39.5 17.2 39.3 17.3 39 C 17.5 38.8 17.7 38.6 17.9 38.4 C 18.1 38.3 18.3 38.2 18.6 38.1 C 18.8 38 19.1 38 19.5 37.9 C 20.4 37.8 21 37.7 21.4 37.6 C 21.4 37.4 21.4 37.3 21.4 37.3 C 21.4 36.9 21.3 36.6 21.1 36.4 C 20.8 36.2 20.4 36.1 19.9 36.1 C 19.4 36.1 19.1 36.1 18.8 36.3 C 18.6 36.5 18.4 36.8 18.3 37.2 C 18.3 37.2 17.3 37.1 17.3 37.1 C 17.4 36.6 17.6 36.3 17.8 36 C 18 35.8 18.3 35.6 18.7 35.4 C 19.1 35.3 19.5 35.2 20.1 35.2 C 20.6 35.2 21 35.3 21.3 35.4 C 21.7 35.5 21.9 35.7 22 35.8 C 22.2 36 22.3 36.3 22.4 36.6 C 22.4 36.7 22.4 37 22.4 37.5 C 22.4 37.5 22.4 38.9 22.4 38.9 C 22.4 39.8 22.4 40.4 22.5 40.7 C 22.5 40.9 22.6 41.2 22.7 41.4 C 22.74 41.43 21.7 41.4 21.7 41.4 C 21.7 41.4 21.67 41.43 21.7 41.4 Z M 21.4 38.4 C 21 38.5 20.4 38.7 19.7 38.8 C 19.3 38.8 19 38.9 18.8 39 C 18.6 39 18.5 39.2 18.4 39.3 C 18.3 39.5 18.2 39.6 18.2 39.8 C 18.2 40.1 18.3 40.3 18.6 40.5 C 18.8 40.7 19.1 40.8 19.5 40.8 C 19.9 40.8 20.2 40.7 20.5 40.5 C 20.8 40.3 21.1 40.1 21.2 39.8 C 21.3 39.5 21.4 39.2 21.4 38.8 C 21.4 38.8 21.4 38.4 21.4 38.4 Z M 28 41.4 C 28 41.4 27.96 40.66 28 40.7 C 27.6 41.3 27 41.6 26.3 41.6 C 25.8 41.6 25.3 41.4 24.9 41.2 C 24.5 40.9 24.2 40.5 24 40 C 23.8 39.6 23.6 39 23.6 38.4 C 23.6 37.8 23.7 37.2 23.9 36.7 C 24.1 36.2 24.5 35.9 24.9 35.6 C 25.3 35.3 25.7 35.2 26.2 35.2 C 26.6 35.2 26.9 35.3 27.2 35.4 C 27.5 35.6 27.7 35.8 27.9 36 C 27.89 36.04 27.9 33 27.9 33 L 28.9 33 L 28.9 41.4 L 28 41.4 Z M 24.7 38.4 C 24.7 39.2 24.9 39.8 25.2 40.1 C 25.5 40.5 25.9 40.7 26.4 40.7 C 26.8 40.7 27.2 40.5 27.5 40.2 C 27.8 39.8 28 39.2 28 38.5 C 28 37.6 27.8 37 27.5 36.6 C 27.2 36.3 26.8 36.1 26.3 36.1 C 25.9 36.1 25.5 36.2 25.2 36.6 C 24.9 37 24.7 37.6 24.7 38.4 Z M 38 41.4 C 37.9 41.2 37.8 41 37.8 40.7 C 37.4 41 37 41.2 36.7 41.4 C 36.3 41.5 35.9 41.6 35.5 41.6 C 34.9 41.6 34.3 41.4 34 41.1 C 33.6 40.7 33.5 40.3 33.5 39.8 C 33.5 39.5 33.5 39.3 33.7 39 C 33.8 38.8 34 38.6 34.2 38.4 C 34.4 38.3 34.7 38.2 34.9 38.1 C 35.1 38 35.4 38 35.8 37.9 C 36.7 37.8 37.3 37.7 37.7 37.6 C 37.7 37.4 37.7 37.3 37.7 37.3 C 37.7 36.9 37.6 36.6 37.4 36.4 C 37.1 36.2 36.7 36.1 36.2 36.1 C 35.7 36.1 35.4 36.1 35.2 36.3 C 34.9 36.5 34.7 36.8 34.6 37.2 C 34.6 37.2 33.6 37.1 33.6 37.1 C 33.7 36.6 33.9 36.3 34.1 36 C 34.3 35.8 34.6 35.6 35 35.4 C 35.4 35.3 35.9 35.2 36.4 35.2 C 36.9 35.2 37.3 35.3 37.6 35.4 C 38 35.5 38.2 35.7 38.4 35.8 C 38.5 36 38.6 36.3 38.7 36.6 C 38.7 36.7 38.7 37 38.7 37.5 C 38.7 37.5 38.7 38.9 38.7 38.9 C 38.7 39.8 38.8 40.4 38.8 40.7 C 38.8 40.9 38.9 41.2 39.1 41.4 C 39.05 41.43 38 41.4 38 41.4 C 38 41.4 37.98 41.43 38 41.4 Z M 37.7 38.4 C 37.3 38.5 36.7 38.7 36 38.8 C 35.6 38.8 35.3 38.9 35.1 39 C 34.9 39 34.8 39.2 34.7 39.3 C 34.6 39.5 34.6 39.6 34.6 39.8 C 34.6 40.1 34.7 40.3 34.9 40.5 C 35.1 40.7 35.4 40.8 35.8 40.8 C 36.2 40.8 36.5 40.7 36.8 40.5 C 37.1 40.3 37.4 40.1 37.5 39.8 C 37.6 39.5 37.7 39.2 37.7 38.8 C 37.7 38.8 37.7 38.4 37.7 38.4 Z M 40.3 41.4 L 40.3 33 L 41.3 33 L 41.3 41.4 L 40.3 41.4 Z M 42.9 41.4 L 42.9 33 L 43.9 33 L 43.9 41.4 L 42.9 41.4 Z M 50.6 40.5 C 50.7 40.5 50.9 40.5 51.1 40.5 C 51.1 40.5 51.2 41.4 51.2 41.4 C 50.9 41.5 50.7 41.5 50.4 41.5 C 50 41.5 49.8 41.4 49.6 41.3 C 49.3 41.2 49.2 41.1 49.1 40.9 C 49 40.7 49 40.3 49 39.6 C 48.99 39.64 49 36.1 49 36.1 L 48.2 36.1 L 48.2 35.3 L 49 35.3 L 49 33.8 L 50 33.2 L 50 35.3 L 51.1 35.3 L 51.1 36.1 L 50 36.1 C 50 36.1 50.01 39.7 50 39.7 C 50 40 50 40.2 50.1 40.3 C 50.1 40.4 50.2 40.4 50.2 40.5 C 50.3 40.5 50.4 40.5 50.6 40.5 C 50.6 40.5 50.6 40.5 50.6 40.5 Z M 52.1 41.4 L 52.1 33 L 53.1 33 C 53.1 33 53.09 36.04 53.1 36 C 53.6 35.5 54.2 35.2 54.9 35.2 C 55.4 35.2 55.8 35.3 56.1 35.5 C 56.4 35.6 56.7 35.9 56.8 36.2 C 56.9 36.5 57 37 57 37.6 C 57.02 37.57 57 41.4 57 41.4 L 56 41.4 C 56 41.4 55.98 37.57 56 37.6 C 56 37.1 55.9 36.7 55.6 36.4 C 55.4 36.2 55.1 36.1 54.7 36.1 C 54.4 36.1 54.1 36.2 53.8 36.3 C 53.6 36.5 53.4 36.7 53.3 37 C 53.1 37.2 53.1 37.6 53.1 38.1 C 53.09 38.1 53.1 41.4 53.1 41.4 L 52.1 41.4 Z M 62.8 39.5 C 62.8 39.5 63.8 39.6 63.8 39.6 C 63.6 40.2 63.3 40.7 62.9 41 C 62.4 41.4 61.8 41.6 61.1 41.6 C 60.3 41.6 59.5 41.3 59 40.7 C 58.5 40.2 58.2 39.4 58.2 38.4 C 58.2 37.4 58.5 36.6 59 36.1 C 59.6 35.5 60.2 35.2 61.1 35.2 C 61.9 35.2 62.6 35.5 63.1 36 C 63.6 36.6 63.9 37.4 63.9 38.4 C 63.9 38.4 63.8 38.5 63.8 38.6 C 63.8 38.6 59.3 38.6 59.3 38.6 C 59.3 39.3 59.5 39.8 59.9 40.2 C 60.2 40.5 60.6 40.7 61.1 40.7 C 61.5 40.7 61.8 40.6 62.1 40.4 C 62.4 40.2 62.6 39.9 62.8 39.5 Z M 59.4 37.8 C 59.4 37.8 62.8 37.8 62.8 37.8 C 62.7 37.3 62.6 36.9 62.4 36.6 C 62 36.3 61.6 36.1 61.1 36.1 C 60.6 36.1 60.2 36.2 59.9 36.5 C 59.6 36.8 59.4 37.3 59.4 37.8 Z M 68.3 41.4 L 68.3 33 L 69.4 33 L 69.4 41.4 L 68.3 41.4 Z M 75.2 41.4 C 75 41.2 75 41 74.9 40.7 C 74.6 41 74.2 41.2 73.8 41.4 C 73.5 41.5 73.1 41.6 72.7 41.6 C 72 41.6 71.5 41.4 71.2 41.1 C 70.8 40.7 70.6 40.3 70.6 39.8 C 70.6 39.5 70.7 39.3 70.8 39 C 71 38.8 71.1 38.6 71.4 38.4 C 71.6 38.3 71.8 38.2 72.1 38.1 C 72.3 38 72.6 38 73 37.9 C 73.9 37.8 74.5 37.7 74.9 37.6 C 74.9 37.4 74.9 37.3 74.9 37.3 C 74.9 36.9 74.8 36.6 74.6 36.4 C 74.3 36.2 73.9 36.1 73.4 36.1 C 72.9 36.1 72.6 36.1 72.3 36.3 C 72.1 36.5 71.9 36.8 71.8 37.2 C 71.8 37.2 70.8 37.1 70.8 37.1 C 70.9 36.6 71 36.3 71.3 36 C 71.5 35.8 71.8 35.6 72.2 35.4 C 72.6 35.3 73 35.2 73.5 35.2 C 74.1 35.2 74.5 35.3 74.8 35.4 C 75.1 35.5 75.4 35.7 75.5 35.8 C 75.7 36 75.8 36.3 75.9 36.6 C 75.9 36.7 75.9 37 75.9 37.5 C 75.9 37.5 75.9 38.9 75.9 38.9 C 75.9 39.8 75.9 40.4 76 40.7 C 76 40.9 76.1 41.2 76.2 41.4 C 76.23 41.43 75.2 41.4 75.2 41.4 C 75.2 41.4 75.15 41.43 75.2 41.4 Z M 74.9 38.4 C 74.5 38.5 73.9 38.7 73.2 38.8 C 72.8 38.8 72.5 38.9 72.3 39 C 72.1 39 72 39.2 71.9 39.3 C 71.8 39.5 71.7 39.6 71.7 39.8 C 71.7 40.1 71.8 40.3 72 40.5 C 72.2 40.7 72.6 40.8 73 40.8 C 73.4 40.8 73.7 40.7 74 40.5 C 74.3 40.3 74.6 40.1 74.7 39.8 C 74.8 39.5 74.9 39.2 74.9 38.8 C 74.9 38.8 74.9 38.4 74.9 38.4 Z M 79.3 40.5 C 79.4 40.5 79.6 40.5 79.8 40.5 C 79.8 40.5 79.9 41.4 79.9 41.4 C 79.6 41.5 79.4 41.5 79.1 41.5 C 78.8 41.5 78.5 41.4 78.3 41.3 C 78 41.2 77.9 41.1 77.8 40.9 C 77.7 40.7 77.7 40.3 77.7 39.6 C 77.69 39.64 77.7 36.1 77.7 36.1 L 76.9 36.1 L 76.9 35.3 L 77.7 35.3 L 77.7 33.8 L 78.7 33.2 L 78.7 35.3 L 79.8 35.3 L 79.8 36.1 L 78.7 36.1 C 78.7 36.1 78.72 39.7 78.7 39.7 C 78.7 40 78.7 40.2 78.8 40.3 C 78.8 40.4 78.9 40.4 78.9 40.5 C 79 40.5 79.1 40.5 79.3 40.5 C 79.3 40.5 79.3 40.5 79.3 40.5 Z M 84.9 39.5 C 84.9 39.5 86 39.6 86 39.6 C 85.8 40.2 85.5 40.7 85.1 41 C 84.6 41.4 84 41.6 83.3 41.6 C 82.4 41.6 81.7 41.3 81.2 40.7 C 80.7 40.2 80.4 39.4 80.4 38.4 C 80.4 37.4 80.7 36.6 81.2 36.1 C 81.7 35.5 82.4 35.2 83.3 35.2 C 84.1 35.2 84.7 35.5 85.3 36 C 85.8 36.6 86 37.4 86 38.4 C 86 38.4 86 38.5 86 38.6 C 86 38.6 81.5 38.6 81.5 38.6 C 81.5 39.3 81.7 39.8 82.1 40.2 C 82.4 40.5 82.8 40.7 83.3 40.7 C 83.7 40.7 84 40.6 84.3 40.4 C 84.6 40.2 84.8 39.9 84.9 39.5 Z M 81.5 37.8 C 81.5 37.8 84.9 37.8 84.9 37.8 C 84.9 37.3 84.8 36.9 84.5 36.6 C 84.2 36.3 83.8 36.1 83.3 36.1 C 82.8 36.1 82.4 36.2 82.1 36.5 C 81.8 36.8 81.6 37.3 81.5 37.8 Z M 86.9 39.6 C 86.9 39.6 87.9 39.4 87.9 39.4 C 88 39.9 88.1 40.2 88.4 40.4 C 88.6 40.6 89 40.7 89.5 40.7 C 89.9 40.7 90.3 40.6 90.5 40.4 C 90.8 40.2 90.9 40 90.9 39.7 C 90.9 39.5 90.8 39.3 90.6 39.2 C 90.4 39.1 90.1 39 89.5 38.8 C 88.8 38.7 88.2 38.5 87.9 38.4 C 87.6 38.2 87.4 38 87.3 37.8 C 87.1 37.5 87 37.3 87 37 C 87 36.7 87.1 36.4 87.2 36.2 C 87.4 36 87.5 35.8 87.7 35.6 C 87.9 35.5 88.1 35.4 88.4 35.3 C 88.7 35.2 89 35.2 89.3 35.2 C 89.8 35.2 90.2 35.3 90.5 35.4 C 90.9 35.5 91.2 35.7 91.3 36 C 91.5 36.2 91.6 36.5 91.7 36.9 C 91.7 36.9 90.7 37 90.7 37 C 90.6 36.7 90.5 36.5 90.3 36.3 C 90.1 36.1 89.8 36.1 89.4 36.1 C 88.9 36.1 88.6 36.1 88.3 36.3 C 88.1 36.4 88 36.6 88 36.8 C 88 37 88.1 37.1 88.2 37.2 C 88.3 37.3 88.4 37.4 88.6 37.5 C 88.7 37.5 89 37.6 89.5 37.7 C 90.2 37.9 90.7 38.1 91 38.2 C 91.3 38.3 91.5 38.5 91.7 38.8 C 91.8 39 91.9 39.3 91.9 39.6 C 91.9 40 91.8 40.3 91.6 40.6 C 91.4 40.9 91.1 41.1 90.8 41.3 C 90.4 41.5 90 41.6 89.5 41.6 C 88.7 41.6 88.1 41.4 87.7 41.1 C 87.3 40.7 87 40.3 86.9 39.6 Z M 95 40.5 C 95.1 40.5 95.2 40.5 95.4 40.5 C 95.4 40.5 95.6 41.4 95.6 41.4 C 95.3 41.5 95 41.5 94.8 41.5 C 94.4 41.5 94.1 41.4 93.9 41.3 C 93.7 41.2 93.6 41.1 93.5 40.9 C 93.4 40.7 93.3 40.3 93.3 39.6 C 93.34 39.64 93.3 36.1 93.3 36.1 L 92.6 36.1 L 92.6 35.3 L 93.3 35.3 L 93.3 33.8 L 94.4 33.2 L 94.4 35.3 L 95.4 35.3 L 95.4 36.1 L 94.4 36.1 C 94.4 36.1 94.37 39.7 94.4 39.7 C 94.4 40 94.4 40.2 94.4 40.3 C 94.5 40.4 94.5 40.4 94.6 40.5 C 94.7 40.5 94.8 40.5 95 40.5 C 95 40.5 95 40.5 95 40.5 Z M 99.7 41.4 L 99.7 35.3 L 100.6 35.3 C 100.6 35.3 100.6 36.21 100.6 36.2 C 101 35.5 101.7 35.2 102.5 35.2 C 102.9 35.2 103.2 35.3 103.6 35.4 C 103.9 35.5 104.1 35.7 104.2 35.9 C 104.4 36.1 104.5 36.4 104.6 36.7 C 104.6 36.9 104.6 37.2 104.6 37.7 C 104.62 37.68 104.6 41.4 104.6 41.4 L 103.6 41.4 C 103.6 41.4 103.59 37.72 103.6 37.7 C 103.6 37.3 103.5 37 103.5 36.8 C 103.4 36.6 103.2 36.4 103 36.3 C 102.8 36.2 102.6 36.1 102.3 36.1 C 101.9 36.1 101.5 36.2 101.2 36.5 C 100.9 36.8 100.7 37.3 100.7 38.1 C 100.71 38.1 100.7 41.4 100.7 41.4 L 99.7 41.4 Z M 110.4 39.5 C 110.4 39.5 111.4 39.6 111.4 39.6 C 111.3 40.2 111 40.7 110.5 41 C 110 41.4 109.5 41.6 108.8 41.6 C 107.9 41.6 107.2 41.3 106.6 40.7 C 106.1 40.2 105.9 39.4 105.9 38.4 C 105.9 37.4 106.1 36.6 106.6 36.1 C 107.2 35.5 107.9 35.2 108.7 35.2 C 109.5 35.2 110.2 35.5 110.7 36 C 111.2 36.6 111.5 37.4 111.5 38.4 C 111.5 38.4 111.5 38.5 111.5 38.6 C 111.5 38.6 106.9 38.6 106.9 38.6 C 107 39.3 107.1 39.8 107.5 40.2 C 107.8 40.5 108.3 40.7 108.8 40.7 C 109.1 40.7 109.5 40.6 109.7 40.4 C 110 40.2 110.2 39.9 110.4 39.5 Z M 107 37.8 C 107 37.8 110.4 37.8 110.4 37.8 C 110.3 37.3 110.2 36.9 110 36.6 C 109.7 36.3 109.2 36.1 108.7 36.1 C 108.2 36.1 107.8 36.2 107.5 36.5 C 107.2 36.8 107 37.3 107 37.8 Z M 113.8 41.4 L 112 35.3 L 113.1 35.3 L 114 38.9 C 114 38.9 114.38 40.16 114.4 40.2 C 114.4 40.1 114.5 39.7 114.7 38.9 C 114.7 38.9 115.7 35.3 115.7 35.3 L 116.7 35.3 L 117.6 38.9 L 117.9 40 L 118.3 38.9 L 119.3 35.3 L 120.3 35.3 L 118.4 41.4 L 117.4 41.4 L 116.4 37.8 L 116.2 36.7 L 114.9 41.4 L 113.8 41.4 Z M 120.8 39.6 C 120.8 39.6 121.8 39.4 121.8 39.4 C 121.9 39.9 122 40.2 122.3 40.4 C 122.5 40.6 122.9 40.7 123.4 40.7 C 123.9 40.7 124.2 40.6 124.4 40.4 C 124.7 40.2 124.8 40 124.8 39.7 C 124.8 39.5 124.7 39.3 124.5 39.2 C 124.3 39.1 124 39 123.4 38.8 C 122.7 38.7 122.1 38.5 121.8 38.4 C 121.6 38.2 121.3 38 121.2 37.8 C 121 37.5 121 37.3 121 37 C 121 36.7 121 36.4 121.1 36.2 C 121.3 36 121.4 35.8 121.7 35.6 C 121.8 35.5 122 35.4 122.3 35.3 C 122.6 35.2 122.9 35.2 123.2 35.2 C 123.7 35.2 124.1 35.3 124.5 35.4 C 124.8 35.5 125.1 35.7 125.3 36 C 125.4 36.2 125.5 36.5 125.6 36.9 C 125.6 36.9 124.6 37 124.6 37 C 124.6 36.7 124.4 36.5 124.2 36.3 C 124 36.1 123.7 36.1 123.3 36.1 C 122.8 36.1 122.5 36.1 122.3 36.3 C 122.1 36.4 122 36.6 122 36.8 C 122 37 122 37.1 122.1 37.2 C 122.2 37.3 122.3 37.4 122.5 37.5 C 122.6 37.5 122.9 37.6 123.4 37.7 C 124.1 37.9 124.6 38.1 124.9 38.2 C 125.2 38.3 125.4 38.5 125.6 38.8 C 125.8 39 125.8 39.3 125.8 39.6 C 125.8 40 125.7 40.3 125.5 40.6 C 125.3 40.9 125 41.1 124.7 41.3 C 124.3 41.5 123.9 41.6 123.4 41.6 C 122.6 41.6 122 41.4 121.6 41.1 C 121.2 40.7 120.9 40.3 120.8 39.6 Z M 134.5 41.4 C 134.4 41.2 134.3 41 134.3 40.7 C 133.9 41 133.5 41.2 133.2 41.4 C 132.8 41.5 132.5 41.6 132.1 41.6 C 131.4 41.6 130.9 41.4 130.5 41.1 C 130.2 40.7 130 40.3 130 39.8 C 130 39.5 130 39.3 130.2 39 C 130.3 38.8 130.5 38.6 130.7 38.4 C 130.9 38.3 131.2 38.2 131.5 38.1 C 131.7 38 132 38 132.4 37.9 C 133.2 37.8 133.8 37.7 134.2 37.6 C 134.2 37.4 134.2 37.3 134.2 37.3 C 134.2 36.9 134.1 36.6 133.9 36.4 C 133.7 36.2 133.3 36.1 132.7 36.1 C 132.3 36.1 131.9 36.1 131.7 36.3 C 131.4 36.5 131.3 36.8 131.2 37.2 C 131.2 37.2 130.2 37.1 130.2 37.1 C 130.2 36.6 130.4 36.3 130.6 36 C 130.8 35.8 131.1 35.6 131.5 35.4 C 131.9 35.3 132.4 35.2 132.9 35.2 C 133.4 35.2 133.8 35.3 134.2 35.4 C 134.5 35.5 134.7 35.7 134.9 35.8 C 135 36 135.1 36.3 135.2 36.6 C 135.2 36.7 135.3 37 135.3 37.5 C 135.3 37.5 135.3 38.9 135.3 38.9 C 135.3 39.8 135.3 40.4 135.3 40.7 C 135.4 40.9 135.4 41.2 135.6 41.4 C 135.58 41.43 134.5 41.4 134.5 41.4 C 134.5 41.4 134.5 41.43 134.5 41.4 Z M 134.2 38.4 C 133.8 38.5 133.3 38.7 132.5 38.8 C 132.1 38.8 131.8 38.9 131.6 39 C 131.5 39 131.3 39.2 131.2 39.3 C 131.1 39.5 131.1 39.6 131.1 39.8 C 131.1 40.1 131.2 40.3 131.4 40.5 C 131.6 40.7 131.9 40.8 132.3 40.8 C 132.7 40.8 133.1 40.7 133.4 40.5 C 133.7 40.3 133.9 40.1 134 39.8 C 134.2 39.5 134.2 39.2 134.2 38.8 C 134.2 38.8 134.2 38.4 134.2 38.4 Z M 136.9 41.4 L 136.9 35.3 L 137.8 35.3 C 137.8 35.3 137.78 36.21 137.8 36.2 C 138.2 35.5 138.9 35.2 139.7 35.2 C 140.1 35.2 140.4 35.3 140.7 35.4 C 141 35.5 141.3 35.7 141.4 35.9 C 141.6 36.1 141.7 36.4 141.7 36.7 C 141.8 36.9 141.8 37.2 141.8 37.7 C 141.8 37.68 141.8 41.4 141.8 41.4 L 140.8 41.4 C 140.8 41.4 140.76 37.72 140.8 37.7 C 140.8 37.3 140.7 37 140.6 36.8 C 140.6 36.6 140.4 36.4 140.2 36.3 C 140 36.2 139.8 36.1 139.5 36.1 C 139.1 36.1 138.7 36.2 138.4 36.5 C 138 36.8 137.9 37.3 137.9 38.1 C 137.88 38.1 137.9 41.4 137.9 41.4 L 136.9 41.4 Z M 147.3 41.4 C 147.3 41.4 147.32 40.66 147.3 40.7 C 146.9 41.3 146.4 41.6 145.6 41.6 C 145.1 41.6 144.7 41.4 144.3 41.2 C 143.9 40.9 143.6 40.5 143.3 40 C 143.1 39.6 143 39 143 38.4 C 143 37.8 143.1 37.2 143.3 36.7 C 143.5 36.2 143.8 35.9 144.2 35.6 C 144.6 35.3 145.1 35.2 145.6 35.2 C 145.9 35.2 146.3 35.3 146.6 35.4 C 146.8 35.6 147.1 35.8 147.3 36 C 147.26 36.04 147.3 33 147.3 33 L 148.3 33 L 148.3 41.4 L 147.3 41.4 Z M 144.1 38.4 C 144.1 39.2 144.2 39.8 144.6 40.1 C 144.9 40.5 145.3 40.7 145.7 40.7 C 146.2 40.7 146.6 40.5 146.9 40.2 C 147.2 39.8 147.3 39.2 147.3 38.5 C 147.3 37.6 147.2 37 146.9 36.6 C 146.5 36.3 146.1 36.1 145.7 36.1 C 145.2 36.1 144.8 36.2 144.5 36.6 C 144.2 37 144.1 37.6 144.1 38.4 Z M 154.9 41.4 L 152.5 35.3 L 153.6 35.3 C 153.6 35.3 154.93 38.99 154.9 39 C 155.1 39.4 155.2 39.8 155.3 40.2 C 155.4 39.9 155.5 39.5 155.7 39.1 C 155.71 39.05 157.1 35.3 157.1 35.3 L 158.1 35.3 L 155.8 41.4 L 154.9 41.4 Z M 159 34.2 L 159 33 L 160.1 33 L 160.1 34.2 L 159 34.2 Z M 159 41.4 L 159 35.3 L 160.1 35.3 L 160.1 41.4 L 159 41.4 Z M 165.8 39.5 C 165.8 39.5 166.9 39.6 166.9 39.6 C 166.7 40.2 166.4 40.7 165.9 41 C 165.5 41.4 164.9 41.6 164.2 41.6 C 163.3 41.6 162.6 41.3 162.1 40.7 C 161.6 40.2 161.3 39.4 161.3 38.4 C 161.3 37.4 161.6 36.6 162.1 36.1 C 162.6 35.5 163.3 35.2 164.1 35.2 C 164.9 35.2 165.6 35.5 166.1 36 C 166.6 36.6 166.9 37.4 166.9 38.4 C 166.9 38.4 166.9 38.5 166.9 38.6 C 166.9 38.6 162.4 38.6 162.4 38.6 C 162.4 39.3 162.6 39.8 162.9 40.2 C 163.3 40.5 163.7 40.7 164.2 40.7 C 164.6 40.7 164.9 40.6 165.2 40.4 C 165.4 40.2 165.6 39.9 165.8 39.5 Z M 162.4 37.8 C 162.4 37.8 165.8 37.8 165.8 37.8 C 165.8 37.3 165.6 36.9 165.4 36.6 C 165.1 36.3 164.7 36.1 164.1 36.1 C 163.7 36.1 163.3 36.2 163 36.5 C 162.6 36.8 162.4 37.3 162.4 37.8 Z M 169.3 41.4 L 167.4 35.3 L 168.5 35.3 L 169.5 38.9 C 169.5 38.9 169.82 40.16 169.8 40.2 C 169.8 40.1 169.9 39.7 170.1 38.9 C 170.13 38.9 171.1 35.3 171.1 35.3 L 172.2 35.3 L 173.1 38.9 L 173.4 40 L 173.7 38.9 L 174.8 35.3 L 175.8 35.3 L 173.9 41.4 L 172.8 41.4 L 171.8 37.8 L 171.6 36.7 L 170.4 41.4 L 169.3 41.4 Z M 176.2 39.6 C 176.2 39.6 177.2 39.4 177.2 39.4 C 177.3 39.9 177.5 40.2 177.7 40.4 C 178 40.6 178.3 40.7 178.8 40.7 C 179.3 40.7 179.6 40.6 179.9 40.4 C 180.1 40.2 180.2 40 180.2 39.7 C 180.2 39.5 180.1 39.3 179.9 39.2 C 179.8 39.1 179.4 39 178.9 38.8 C 178.1 38.7 177.6 38.5 177.3 38.4 C 177 38.2 176.8 38 176.6 37.8 C 176.5 37.5 176.4 37.3 176.4 37 C 176.4 36.7 176.5 36.4 176.6 36.2 C 176.7 36 176.9 35.8 177.1 35.6 C 177.2 35.5 177.5 35.4 177.7 35.3 C 178 35.2 178.3 35.2 178.6 35.2 C 179.1 35.2 179.5 35.3 179.9 35.4 C 180.3 35.5 180.5 35.7 180.7 36 C 180.9 36.2 181 36.5 181 36.9 C 181 36.9 180 37 180 37 C 180 36.7 179.9 36.5 179.6 36.3 C 179.4 36.1 179.1 36.1 178.7 36.1 C 178.2 36.1 177.9 36.1 177.7 36.3 C 177.5 36.4 177.4 36.6 177.4 36.8 C 177.4 37 177.4 37.1 177.5 37.2 C 177.6 37.3 177.7 37.4 177.9 37.5 C 178 37.5 178.3 37.6 178.8 37.7 C 179.6 37.9 180.1 38.1 180.4 38.2 C 180.6 38.3 180.9 38.5 181 38.8 C 181.2 39 181.3 39.3 181.3 39.6 C 181.3 40 181.2 40.3 181 40.6 C 180.8 40.9 180.5 41.1 180.1 41.3 C 179.7 41.5 179.3 41.6 178.8 41.6 C 178 41.6 177.4 41.4 177 41.1 C 176.6 40.7 176.3 40.3 176.2 39.6 Z M 186 41.4 L 186 36.1 L 185.1 36.1 L 185.1 35.3 L 186 35.3 C 186 35.3 186.01 34.69 186 34.7 C 186 34.3 186 34 186.1 33.8 C 186.2 33.5 186.4 33.3 186.6 33.1 C 186.9 33 187.2 32.9 187.7 32.9 C 188 32.9 188.3 32.9 188.7 33 C 188.7 33 188.5 33.9 188.5 33.9 C 188.3 33.8 188.1 33.8 187.9 33.8 C 187.6 33.8 187.4 33.9 187.2 34 C 187.1 34.2 187 34.4 187 34.8 C 187.03 34.78 187 35.3 187 35.3 L 188.2 35.3 L 188.2 36.1 L 187 36.1 L 187 41.4 L 186 41.4 Z M 189 41.4 L 189 35.3 L 189.9 35.3 C 189.9 35.3 189.94 36.26 189.9 36.3 C 190.2 35.8 190.4 35.5 190.6 35.4 C 190.8 35.3 191 35.2 191.3 35.2 C 191.6 35.2 192 35.3 192.3 35.5 C 192.3 35.5 192 36.5 192 36.5 C 191.7 36.3 191.5 36.3 191.2 36.3 C 191 36.3 190.8 36.3 190.6 36.5 C 190.4 36.6 190.3 36.8 190.2 37 C 190.1 37.4 190 37.8 190 38.2 C 190.04 38.24 190 41.4 190 41.4 L 189 41.4 Z M 192.5 38.4 C 192.5 37.3 192.9 36.4 193.5 35.9 C 194 35.4 194.6 35.2 195.4 35.2 C 196.2 35.2 196.9 35.5 197.4 36 C 198 36.6 198.2 37.3 198.2 38.3 C 198.2 39.1 198.1 39.7 197.9 40.1 C 197.7 40.6 197.3 40.9 196.9 41.2 C 196.4 41.4 195.9 41.6 195.4 41.6 C 194.5 41.6 193.9 41.3 193.3 40.7 C 192.8 40.2 192.5 39.4 192.5 38.4 Z M 193.6 38.4 C 193.6 39.2 193.8 39.7 194.1 40.1 C 194.5 40.5 194.9 40.7 195.4 40.7 C 195.9 40.7 196.3 40.5 196.7 40.1 C 197 39.7 197.2 39.1 197.2 38.3 C 197.2 37.6 197 37 196.7 36.6 C 196.3 36.3 195.9 36.1 195.4 36.1 C 194.9 36.1 194.5 36.3 194.1 36.6 C 193.8 37 193.6 37.6 193.6 38.4 Z M 199.5 41.4 L 199.5 35.3 L 200.4 35.3 C 200.4 35.3 200.38 36.19 200.4 36.2 C 200.6 35.9 200.8 35.7 201.1 35.5 C 201.5 35.3 201.8 35.2 202.2 35.2 C 202.7 35.2 203 35.3 203.3 35.5 C 203.6 35.7 203.8 35.9 203.9 36.3 C 204.4 35.6 205 35.2 205.8 35.2 C 206.4 35.2 206.9 35.4 207.2 35.7 C 207.5 36 207.7 36.6 207.7 37.2 C 207.7 37.25 207.7 41.4 207.7 41.4 L 206.7 41.4 C 206.7 41.4 206.67 37.59 206.7 37.6 C 206.7 37.2 206.6 36.9 206.6 36.7 C 206.5 36.5 206.4 36.4 206.2 36.3 C 206 36.2 205.8 36.1 205.6 36.1 C 205.2 36.1 204.8 36.2 204.5 36.5 C 204.2 36.8 204.1 37.3 204.1 37.9 C 204.1 37.89 204.1 41.4 204.1 41.4 L 203.1 41.4 C 203.1 41.4 203.07 37.47 203.1 37.5 C 203.1 37 203 36.7 202.8 36.4 C 202.6 36.2 202.4 36.1 202 36.1 C 201.7 36.1 201.4 36.2 201.2 36.3 C 200.9 36.5 200.8 36.7 200.7 37 C 200.5 37.3 200.5 37.7 200.5 38.3 C 200.49 38.27 200.5 41.4 200.5 41.4 L 199.5 41.4 Z M 214.3 40.5 C 214.4 40.5 214.6 40.5 214.7 40.5 C 214.7 40.5 214.9 41.4 214.9 41.4 C 214.6 41.5 214.3 41.5 214.1 41.5 C 213.7 41.5 213.4 41.4 213.2 41.3 C 213 41.2 212.9 41.1 212.8 40.9 C 212.7 40.7 212.7 40.3 212.7 39.6 C 212.68 39.64 212.7 36.1 212.7 36.1 L 211.9 36.1 L 211.9 35.3 L 212.7 35.3 L 212.7 33.8 L 213.7 33.2 L 213.7 35.3 L 214.7 35.3 L 214.7 36.1 L 213.7 36.1 C 213.7 36.1 213.7 39.7 213.7 39.7 C 213.7 40 213.7 40.2 213.8 40.3 C 213.8 40.4 213.9 40.4 213.9 40.5 C 214 40.5 214.1 40.5 214.3 40.5 C 214.3 40.5 214.3 40.5 214.3 40.5 Z M 215.7 41.4 L 215.7 33 L 216.8 33 C 216.8 33 216.78 36.04 216.8 36 C 217.3 35.5 217.9 35.2 218.6 35.2 C 219.1 35.2 219.4 35.3 219.8 35.5 C 220.1 35.6 220.3 35.9 220.5 36.2 C 220.6 36.5 220.7 37 220.7 37.6 C 220.7 37.57 220.7 41.4 220.7 41.4 L 219.7 41.4 C 219.7 41.4 219.67 37.57 219.7 37.6 C 219.7 37.1 219.6 36.7 219.3 36.4 C 219.1 36.2 218.8 36.1 218.4 36.1 C 218.1 36.1 217.8 36.2 217.5 36.3 C 217.3 36.5 217.1 36.7 217 37 C 216.8 37.2 216.8 37.6 216.8 38.1 C 216.78 38.1 216.8 41.4 216.8 41.4 L 215.7 41.4 Z M 226.4 39.5 C 226.4 39.5 227.5 39.6 227.5 39.6 C 227.3 40.2 227 40.7 226.6 41 C 226.1 41.4 225.5 41.6 224.8 41.6 C 223.9 41.6 223.2 41.3 222.7 40.7 C 222.2 40.2 221.9 39.4 221.9 38.4 C 221.9 37.4 222.2 36.6 222.7 36.1 C 223.2 35.5 223.9 35.2 224.8 35.2 C 225.6 35.2 226.2 35.5 226.8 36 C 227.3 36.6 227.5 37.4 227.5 38.4 C 227.5 38.4 227.5 38.5 227.5 38.6 C 227.5 38.6 223 38.6 223 38.6 C 223 39.3 223.2 39.8 223.6 40.2 C 223.9 40.5 224.3 40.7 224.8 40.7 C 225.2 40.7 225.5 40.6 225.8 40.4 C 226.1 40.2 226.3 39.9 226.4 39.5 Z M 223.1 37.8 C 223.1 37.8 226.4 37.8 226.4 37.8 C 226.4 37.3 226.3 36.9 226.1 36.6 C 225.7 36.3 225.3 36.1 224.8 36.1 C 224.3 36.1 223.9 36.2 223.6 36.5 C 223.3 36.8 223.1 37.3 223.1 37.8 Z M 233.9 40.5 C 234 40.5 234.1 40.5 234.3 40.5 C 234.3 40.5 234.5 41.4 234.5 41.4 C 234.2 41.5 233.9 41.5 233.7 41.5 C 233.3 41.5 233 41.4 232.8 41.3 C 232.6 41.2 232.5 41.1 232.4 40.9 C 232.3 40.7 232.2 40.3 232.2 39.6 C 232.25 39.64 232.2 36.1 232.2 36.1 L 231.5 36.1 L 231.5 35.3 L 232.2 35.3 L 232.2 33.8 L 233.3 33.2 L 233.3 35.3 L 234.3 35.3 L 234.3 36.1 L 233.3 36.1 C 233.3 36.1 233.27 39.7 233.3 39.7 C 233.3 40 233.3 40.2 233.3 40.3 C 233.4 40.4 233.4 40.4 233.5 40.5 C 233.6 40.5 233.7 40.5 233.9 40.5 C 233.9 40.5 233.9 40.5 233.9 40.5 Z M 239.5 39.5 C 239.5 39.5 240.5 39.6 240.5 39.6 C 240.4 40.2 240.1 40.7 239.6 41 C 239.2 41.4 238.6 41.6 237.9 41.6 C 237 41.6 236.3 41.3 235.8 40.7 C 235.2 40.2 235 39.4 235 38.4 C 235 37.4 235.2 36.6 235.8 36.1 C 236.3 35.5 237 35.2 237.8 35.2 C 238.6 35.2 239.3 35.5 239.8 36 C 240.3 36.6 240.6 37.4 240.6 38.4 C 240.6 38.4 240.6 38.5 240.6 38.6 C 240.6 38.6 236 38.6 236 38.6 C 236.1 39.3 236.3 39.8 236.6 40.2 C 236.9 40.5 237.4 40.7 237.9 40.7 C 238.3 40.7 238.6 40.6 238.8 40.4 C 239.1 40.2 239.3 39.9 239.5 39.5 Z M 236.1 37.8 C 236.1 37.8 239.5 37.8 239.5 37.8 C 239.4 37.3 239.3 36.9 239.1 36.6 C 238.8 36.3 238.4 36.1 237.8 36.1 C 237.4 36.1 237 36.2 236.6 36.5 C 236.3 36.8 236.1 37.3 236.1 37.8 Z M 246 41.4 C 245.9 41.2 245.8 41 245.8 40.7 C 245.4 41 245.1 41.2 244.7 41.4 C 244.4 41.5 244 41.6 243.6 41.6 C 242.9 41.6 242.4 41.4 242 41.1 C 241.7 40.7 241.5 40.3 241.5 39.8 C 241.5 39.5 241.6 39.3 241.7 39 C 241.8 38.8 242 38.6 242.2 38.4 C 242.5 38.3 242.7 38.2 243 38.1 C 243.2 38 243.5 38 243.9 37.9 C 244.7 37.8 245.3 37.7 245.7 37.6 C 245.7 37.4 245.7 37.3 245.7 37.3 C 245.7 36.9 245.6 36.6 245.4 36.4 C 245.2 36.2 244.8 36.1 244.3 36.1 C 243.8 36.1 243.4 36.1 243.2 36.3 C 243 36.5 242.8 36.8 242.7 37.2 C 242.7 37.2 241.7 37.1 241.7 37.1 C 241.8 36.6 241.9 36.3 242.1 36 C 242.3 35.8 242.6 35.6 243 35.4 C 243.4 35.3 243.9 35.2 244.4 35.2 C 244.9 35.2 245.4 35.3 245.7 35.4 C 246 35.5 246.2 35.7 246.4 35.8 C 246.6 36 246.7 36.3 246.7 36.6 C 246.8 36.7 246.8 37 246.8 37.5 C 246.8 37.5 246.8 38.9 246.8 38.9 C 246.8 39.8 246.8 40.4 246.8 40.7 C 246.9 40.9 247 41.2 247.1 41.4 C 247.1 41.43 246 41.4 246 41.4 C 246 41.4 246.02 41.43 246 41.4 Z M 245.7 38.4 C 245.4 38.5 244.8 38.7 244 38.8 C 243.6 38.8 243.3 38.9 243.1 39 C 243 39 242.8 39.2 242.7 39.3 C 242.6 39.5 242.6 39.6 242.6 39.8 C 242.6 40.1 242.7 40.3 242.9 40.5 C 243.1 40.7 243.4 40.8 243.8 40.8 C 244.2 40.8 244.6 40.7 244.9 40.5 C 245.2 40.3 245.4 40.1 245.6 39.8 C 245.7 39.5 245.7 39.2 245.7 38.8 C 245.7 38.8 245.7 38.4 245.7 38.4 Z M 248.4 41.4 L 248.4 35.3 L 249.3 35.3 C 249.3 35.3 249.29 36.19 249.3 36.2 C 249.5 35.9 249.7 35.7 250.1 35.5 C 250.4 35.3 250.7 35.2 251.1 35.2 C 251.6 35.2 252 35.3 252.2 35.5 C 252.5 35.7 252.7 35.9 252.9 36.3 C 253.3 35.6 254 35.2 254.7 35.2 C 255.3 35.2 255.8 35.4 256.1 35.7 C 256.5 36 256.6 36.6 256.6 37.2 C 256.61 37.25 256.6 41.4 256.6 41.4 L 255.6 41.4 C 255.6 41.4 255.59 37.59 255.6 37.6 C 255.6 37.2 255.6 36.9 255.5 36.7 C 255.4 36.5 255.3 36.4 255.1 36.3 C 254.9 36.2 254.7 36.1 254.5 36.1 C 254.1 36.1 253.7 36.2 253.4 36.5 C 253.2 36.8 253 37.3 253 37.9 C 253.02 37.89 253 41.4 253 41.4 L 252 41.4 C 252 41.4 251.98 37.47 252 37.5 C 252 37 251.9 36.7 251.7 36.4 C 251.6 36.2 251.3 36.1 250.9 36.1 C 250.6 36.1 250.3 36.2 250.1 36.3 C 249.9 36.5 249.7 36.7 249.6 37 C 249.5 37.3 249.4 37.7 249.4 38.3 C 249.4 38.27 249.4 41.4 249.4 41.4 L 248.4 41.4 Z M 258.4 41.4 L 258.4 40.3 L 259.6 40.3 L 259.6 41.4 L 258.4 41.4 Z " stroke="none" fill="#ffffff"/>  </g>  <g id="Polygon69186">    <path d="M 118 0.2 L 118 13.3 L 117.1 13.3 L 107.2 1.8 L 107.2 13.3 L 106.2 13.3 L 106.2 0.2 L 107 0.2 L 117 11.6 L 117 0.2 L 118 0.2 Z M 128.2 0.2 L 128.2 1 L 122 1 L 122 6.3 L 128 6.3 L 128 7.1 L 122 7.1 L 122 12.4 L 128.3 12.4 L 128.3 13.3 L 121 13.3 L 121 0.2 L 128.2 0.2 Z M 138.8 2.3 L 134.4 13.4 L 134.1 13.4 L 128.9 0.2 L 129.9 0.2 L 134.2 11 L 138.6 0.2 L 138.9 0.2 L 143.3 11 L 147.7 0.2 L 148.7 0.2 L 143.4 13.4 L 143.2 13.4 L 138.8 2.3 Z M 153.3 0 C 154.3 0 155.4 0.3 156.4 0.8 C 156.4 0.8 156.4 1.9 156.4 1.9 C 155.2 1.3 154.2 0.9 153.4 0.9 C 152.6 0.9 152 1.2 151.4 1.7 C 150.9 2.1 150.7 2.7 150.7 3.4 C 150.7 3.9 150.8 4.4 151.1 4.8 C 151.4 5.2 152.1 5.6 153.1 6 C 154.1 6.3 154.8 6.7 155.3 6.9 C 155.7 7.2 156.1 7.5 156.4 8 C 156.7 8.5 156.9 9.1 156.9 9.8 C 156.9 10.9 156.5 11.7 155.8 12.4 C 155.1 13.1 154.2 13.4 153.1 13.4 C 152 13.4 150.9 13.1 149.7 12.3 C 149.7 12.3 149.7 11.1 149.7 11.1 C 151 12 152.1 12.5 153 12.5 C 153.8 12.5 154.5 12.2 155 11.7 C 155.5 11.2 155.8 10.6 155.8 9.9 C 155.8 9.3 155.6 8.8 155.3 8.4 C 155 7.9 154.3 7.5 153.3 7.1 C 152.3 6.7 151.6 6.4 151.1 6.2 C 150.7 6 150.3 5.6 150 5.2 C 149.7 4.7 149.6 4.2 149.6 3.5 C 149.6 2.5 149.9 1.7 150.7 1 C 151.4 0.3 152.3 0 153.3 0 C 153.3 0 153.3 0 153.3 0 Z " stroke="none" fill="#ffffff"/>  </g></svg>