<?xml version="1.0" standalone="no"?><!DOCTYPE svg PUBLIC "-//W3C//DTD SVG 1.1//EN" "http://www.w3.org/Graphics/SVG/1.1/DTD/svg11.dtd"><svg xmlns="http://www.w3.org/2000/svg" version="1.1" width="129px" height="25.1px" viewBox="0 -4 129 25.1" style="top:-4px">  <desc>Download Centre</desc>  <defs/>  <g id="Polygon64286">    <path d="M 8.9 11.3 L 8.9 0.8 C 8.9 0.8 12.52 0.83 12.5 0.8 C 13.3 0.8 14 0.9 14.4 1 C 15 1.1 15.5 1.4 15.9 1.7 C 16.5 2.2 16.9 2.8 17.2 3.5 C 17.4 4.3 17.6 5.1 17.6 6 C 17.6 6.8 17.5 7.5 17.3 8.1 C 17.1 8.8 16.9 9.3 16.6 9.7 C 16.3 10.1 16 10.4 15.6 10.6 C 15.3 10.9 14.9 11 14.4 11.2 C 13.9 11.3 13.3 11.3 12.7 11.3 C 12.69 11.33 8.9 11.3 8.9 11.3 Z M 10.3 10.1 C 10.3 10.1 12.53 10.09 12.5 10.1 C 13.2 10.1 13.8 10 14.2 9.9 C 14.6 9.8 14.9 9.6 15.1 9.4 C 15.4 9 15.7 8.6 15.9 8 C 16.1 7.5 16.1 6.8 16.1 6 C 16.1 4.9 16 4.1 15.6 3.5 C 15.2 2.9 14.8 2.5 14.3 2.3 C 13.9 2.1 13.3 2.1 12.5 2.1 C 12.5 2.07 10.3 2.1 10.3 2.1 L 10.3 10.1 Z M 18.8 7.5 C 18.8 6.1 19.2 5.1 20 4.4 C 20.7 3.8 21.5 3.6 22.4 3.6 C 23.5 3.6 24.3 3.9 25 4.6 C 25.6 5.3 26 6.2 26 7.4 C 26 8.4 25.8 9.2 25.5 9.7 C 25.2 10.3 24.8 10.7 24.3 11 C 23.7 11.4 23.1 11.5 22.4 11.5 C 21.3 11.5 20.5 11.2 19.8 10.5 C 19.2 9.8 18.8 8.8 18.8 7.5 Z M 20.2 7.5 C 20.2 8.5 20.4 9.2 20.8 9.7 C 21.2 10.2 21.8 10.4 22.4 10.4 C 23.1 10.4 23.6 10.2 24 9.7 C 24.4 9.2 24.6 8.5 24.6 7.5 C 24.6 6.5 24.4 5.8 24 5.3 C 23.6 4.9 23 4.6 22.4 4.6 C 21.8 4.6 21.2 4.9 20.8 5.3 C 20.4 5.8 20.2 6.6 20.2 7.5 Z M 28.9 11.3 L 26.6 3.7 L 27.9 3.7 L 29.1 8.1 C 29.1 8.1 29.55 9.75 29.6 9.8 C 29.6 9.7 29.7 9.1 29.9 8.2 C 29.95 8.18 31.2 3.7 31.2 3.7 L 32.5 3.7 L 33.6 8.1 L 34 9.6 L 34.4 8.1 L 35.7 3.7 L 37 3.7 L 34.6 11.3 L 33.3 11.3 L 32.1 6.8 L 31.8 5.5 L 30.2 11.3 L 28.9 11.3 Z M 38.1 11.3 L 38.1 3.7 L 39.2 3.7 C 39.2 3.7 39.24 4.81 39.2 4.8 C 39.8 4 40.6 3.6 41.7 3.6 C 42.1 3.6 42.5 3.6 42.9 3.8 C 43.3 4 43.6 4.2 43.8 4.5 C 44 4.7 44.1 5 44.2 5.4 C 44.2 5.6 44.3 6.1 44.3 6.7 C 44.26 6.66 44.3 11.3 44.3 11.3 L 43 11.3 C 43 11.3 42.97 6.71 43 6.7 C 43 6.2 42.9 5.8 42.8 5.5 C 42.7 5.3 42.5 5.1 42.3 4.9 C 42 4.8 41.7 4.7 41.4 4.7 C 40.8 4.7 40.4 4.8 40 5.2 C 39.6 5.5 39.4 6.2 39.4 7.2 C 39.37 7.18 39.4 11.3 39.4 11.3 L 38.1 11.3 Z M 46.2 11.3 L 46.2 0.8 L 47.5 0.8 L 47.5 11.3 L 46.2 11.3 Z M 49 7.5 C 49 6.1 49.4 5.1 50.2 4.4 C 50.8 3.8 51.6 3.6 52.6 3.6 C 53.6 3.6 54.5 3.9 55.1 4.6 C 55.8 5.3 56.1 6.2 56.1 7.4 C 56.1 8.4 56 9.2 55.7 9.7 C 55.4 10.3 55 10.7 54.4 11 C 53.9 11.4 53.2 11.5 52.6 11.5 C 51.5 11.5 50.7 11.2 50 10.5 C 49.3 9.8 49 8.8 49 7.5 Z M 50.3 7.5 C 50.3 8.5 50.5 9.2 51 9.7 C 51.4 10.2 51.9 10.4 52.6 10.4 C 53.2 10.4 53.8 10.2 54.2 9.7 C 54.6 9.2 54.8 8.5 54.8 7.5 C 54.8 6.5 54.6 5.8 54.2 5.3 C 53.7 4.9 53.2 4.6 52.6 4.6 C 51.9 4.6 51.4 4.9 51 5.3 C 50.5 5.8 50.3 6.6 50.3 7.5 Z M 62.9 11.3 C 62.7 11.1 62.6 10.8 62.6 10.4 C 62.1 10.8 61.7 11.1 61.2 11.3 C 60.8 11.4 60.3 11.5 59.8 11.5 C 59 11.5 58.3 11.3 57.9 10.9 C 57.4 10.5 57.2 10 57.2 9.3 C 57.2 9 57.3 8.6 57.5 8.3 C 57.6 8 57.9 7.8 58.1 7.6 C 58.4 7.4 58.7 7.2 59.1 7.1 C 59.3 7.1 59.7 7 60.2 7 C 61.2 6.8 62 6.7 62.5 6.5 C 62.5 6.3 62.5 6.2 62.5 6.2 C 62.5 5.6 62.4 5.3 62.1 5.1 C 61.8 4.8 61.3 4.6 60.7 4.6 C 60.1 4.6 59.6 4.7 59.3 4.9 C 59 5.2 58.8 5.5 58.7 6.1 C 58.7 6.1 57.4 5.9 57.4 5.9 C 57.5 5.4 57.7 4.9 58 4.6 C 58.3 4.3 58.6 4 59.1 3.8 C 59.6 3.6 60.2 3.6 60.9 3.6 C 61.5 3.6 62 3.6 62.4 3.8 C 62.9 3.9 63.2 4.1 63.3 4.4 C 63.5 4.6 63.7 4.9 63.7 5.2 C 63.8 5.5 63.8 5.9 63.8 6.4 C 63.8 6.4 63.8 8.1 63.8 8.1 C 63.8 9.3 63.8 10.1 63.9 10.4 C 63.9 10.7 64.1 11 64.2 11.3 C 64.22 11.33 62.9 11.3 62.9 11.3 C 62.9 11.3 62.87 11.33 62.9 11.3 Z M 62.5 7.5 C 62 7.7 61.3 7.9 60.4 8 C 59.9 8.1 59.5 8.2 59.3 8.3 C 59.1 8.4 58.9 8.5 58.8 8.7 C 58.6 8.9 58.6 9.1 58.6 9.3 C 58.6 9.6 58.7 9.9 59 10.2 C 59.2 10.4 59.6 10.5 60.1 10.5 C 60.6 10.5 61.1 10.4 61.4 10.2 C 61.8 10 62.1 9.7 62.3 9.3 C 62.4 9 62.5 8.6 62.5 8 C 62.5 8 62.5 7.5 62.5 7.5 Z M 70.7 11.3 C 70.7 11.3 70.74 10.37 70.7 10.4 C 70.3 11.1 69.5 11.5 68.6 11.5 C 68 11.5 67.4 11.3 66.9 11 C 66.4 10.7 66 10.2 65.8 9.6 C 65.5 9 65.3 8.3 65.3 7.5 C 65.3 6.8 65.5 6.1 65.7 5.5 C 66 4.9 66.4 4.4 66.9 4.1 C 67.4 3.7 67.9 3.6 68.6 3.6 C 69 3.6 69.4 3.7 69.8 3.8 C 70.1 4 70.4 4.3 70.7 4.6 C 70.65 4.6 70.7 0.8 70.7 0.8 L 71.9 0.8 L 71.9 11.3 L 70.7 11.3 Z M 66.7 7.5 C 66.7 8.5 66.9 9.2 67.3 9.7 C 67.7 10.2 68.2 10.4 68.7 10.4 C 69.3 10.4 69.8 10.2 70.2 9.8 C 70.6 9.3 70.8 8.6 70.8 7.6 C 70.8 6.6 70.6 5.8 70.2 5.4 C 69.8 4.9 69.3 4.6 68.7 4.6 C 68.1 4.6 67.6 4.9 67.2 5.3 C 66.9 5.8 66.7 6.5 66.7 7.5 Z M 85.7 7.7 C 85.7 7.7 87.1 8 87.1 8 C 86.8 9.1 86.3 10 85.5 10.6 C 84.8 11.2 83.8 11.5 82.7 11.5 C 81.6 11.5 80.7 11.3 80 10.8 C 79.3 10.4 78.7 9.7 78.4 8.8 C 78 7.9 77.8 7 77.8 6 C 77.8 4.9 78 4 78.4 3.1 C 78.8 2.3 79.4 1.7 80.2 1.3 C 81 0.9 81.8 0.7 82.8 0.7 C 83.8 0.7 84.7 0.9 85.4 1.5 C 86.1 2 86.6 2.7 86.9 3.7 C 86.9 3.7 85.5 4 85.5 4 C 85.3 3.3 84.9 2.7 84.5 2.4 C 84 2 83.4 1.8 82.7 1.8 C 81.9 1.8 81.2 2 80.7 2.4 C 80.2 2.8 79.8 3.3 79.6 4 C 79.3 4.6 79.2 5.3 79.2 6 C 79.2 6.9 79.4 7.7 79.6 8.3 C 79.9 9 80.3 9.5 80.8 9.8 C 81.4 10.2 82 10.3 82.6 10.3 C 83.4 10.3 84.1 10.1 84.6 9.7 C 85.1 9.2 85.5 8.5 85.7 7.7 Z M 93.8 8.9 C 93.8 8.9 95.2 9 95.2 9 C 95 9.8 94.6 10.4 94 10.9 C 93.4 11.3 92.7 11.5 91.8 11.5 C 90.7 11.5 89.8 11.2 89.2 10.5 C 88.5 9.8 88.2 8.8 88.2 7.6 C 88.2 6.3 88.5 5.3 89.2 4.6 C 89.8 3.9 90.7 3.6 91.8 3.6 C 92.8 3.6 93.6 3.9 94.2 4.6 C 94.9 5.3 95.2 6.3 95.2 7.5 C 95.2 7.6 95.2 7.7 95.2 7.9 C 95.2 7.9 89.5 7.9 89.5 7.9 C 89.6 8.7 89.8 9.3 90.2 9.8 C 90.7 10.2 91.2 10.4 91.8 10.4 C 92.3 10.4 92.7 10.3 93 10.1 C 93.4 9.8 93.6 9.4 93.8 8.9 Z M 89.6 6.8 C 89.6 6.8 93.9 6.8 93.9 6.8 C 93.8 6.2 93.6 5.7 93.4 5.4 C 93 4.9 92.4 4.6 91.8 4.6 C 91.2 4.6 90.7 4.8 90.3 5.2 C 89.9 5.6 89.6 6.1 89.6 6.8 Z M 96.8 11.3 L 96.8 3.7 L 97.9 3.7 C 97.9 3.7 97.95 4.81 97.9 4.8 C 98.5 4 99.3 3.6 100.4 3.6 C 100.8 3.6 101.2 3.6 101.6 3.8 C 102 4 102.3 4.2 102.5 4.5 C 102.7 4.7 102.8 5 102.9 5.4 C 102.9 5.6 103 6.1 103 6.7 C 102.97 6.66 103 11.3 103 11.3 L 101.7 11.3 C 101.7 11.3 101.68 6.71 101.7 6.7 C 101.7 6.2 101.6 5.8 101.5 5.5 C 101.4 5.3 101.2 5.1 101 4.9 C 100.7 4.8 100.4 4.7 100.1 4.7 C 99.5 4.7 99.1 4.8 98.7 5.2 C 98.3 5.5 98.1 6.2 98.1 7.2 C 98.08 7.18 98.1 11.3 98.1 11.3 L 96.8 11.3 Z M 107.2 10.2 C 107.3 10.2 107.5 10.2 107.8 10.2 C 107.8 10.2 107.9 11.3 107.9 11.3 C 107.6 11.4 107.3 11.4 107 11.4 C 106.5 11.4 106.1 11.4 105.9 11.2 C 105.6 11.1 105.4 10.9 105.3 10.6 C 105.2 10.4 105.2 9.9 105.2 9.1 C 105.18 9.11 105.2 4.7 105.2 4.7 L 104.2 4.7 L 104.2 3.7 L 105.2 3.7 L 105.2 1.8 L 106.5 1.1 L 106.5 3.7 L 107.8 3.7 L 107.8 4.7 L 106.5 4.7 C 106.5 4.7 106.46 9.18 106.5 9.2 C 106.5 9.5 106.5 9.8 106.5 9.9 C 106.6 10 106.6 10.1 106.8 10.1 C 106.9 10.2 107 10.2 107.2 10.2 C 107.2 10.2 107.2 10.2 107.2 10.2 Z M 109 11.3 L 109 3.7 L 110.2 3.7 C 110.2 3.7 110.16 4.88 110.2 4.9 C 110.5 4.3 110.7 4 111 3.8 C 111.2 3.6 111.5 3.6 111.8 3.6 C 112.2 3.6 112.7 3.7 113.1 4 C 113.1 4 112.7 5.2 112.7 5.2 C 112.4 5 112.1 4.9 111.7 4.9 C 111.5 4.9 111.2 5 111 5.1 C 110.8 5.3 110.6 5.5 110.5 5.8 C 110.4 6.3 110.3 6.8 110.3 7.4 C 110.29 7.35 110.3 11.3 110.3 11.3 L 109 11.3 Z M 119.1 8.9 C 119.1 8.9 120.4 9 120.4 9 C 120.2 9.8 119.8 10.4 119.3 10.9 C 118.7 11.3 118 11.5 117.1 11.5 C 116 11.5 115.1 11.2 114.4 10.5 C 113.8 9.8 113.5 8.8 113.5 7.6 C 113.5 6.3 113.8 5.3 114.5 4.6 C 115.1 3.9 116 3.6 117 3.6 C 118 3.6 118.9 3.9 119.5 4.6 C 120.2 5.3 120.5 6.3 120.5 7.5 C 120.5 7.6 120.5 7.7 120.5 7.9 C 120.5 7.9 114.8 7.9 114.8 7.9 C 114.9 8.7 115.1 9.3 115.5 9.8 C 115.9 10.2 116.5 10.4 117.1 10.4 C 117.6 10.4 118 10.3 118.3 10.1 C 118.6 9.8 118.9 9.4 119.1 8.9 Z M 114.9 6.8 C 114.9 6.8 119.1 6.8 119.1 6.8 C 119.1 6.2 118.9 5.7 118.6 5.4 C 118.2 4.9 117.7 4.6 117 4.6 C 116.4 4.6 115.9 4.8 115.5 5.2 C 115.1 5.6 114.9 6.1 114.9 6.8 Z " stroke="none" fill="#ffffff"/>  </g></svg>