<?xml version="1.0" standalone="no"?><!DOCTYPE svg PUBLIC "-//W3C//DTD SVG 1.1//EN" "http://www.w3.org/Graphics/SVG/1.1/DTD/svg11.dtd"><svg xmlns="http://www.w3.org/2000/svg" version="1.1" width="492px" height="106.6px" viewBox="0 -16 492 106.6" style="top:-16px">  <desc>YouTube Visit Our YouTube channel.</desc>  <defs/>  <g id="Polygon63115">    <path d="M 119.4 77.7 L 113.3 61.9 L 115.5 61.9 C 115.5 61.9 119.61 73.37 119.6 73.4 C 119.9 74.3 120.2 75.1 120.4 75.9 C 120.7 75.1 121 74.2 121.3 73.4 C 121.29 73.37 125.5 61.9 125.5 61.9 L 127.7 61.9 L 121.5 77.7 L 119.4 77.7 Z M 128.9 64.1 L 128.9 61.9 L 130.8 61.9 L 130.8 64.1 L 128.9 64.1 Z M 128.9 77.7 L 128.9 66.3 L 130.8 66.3 L 130.8 77.7 L 128.9 77.7 Z M 133 74.3 C 133 74.3 134.9 74 134.9 74 C 135 74.7 135.3 75.3 135.8 75.7 C 136.3 76.1 137 76.3 137.9 76.3 C 138.8 76.3 139.4 76.2 139.9 75.8 C 140.3 75.4 140.5 75 140.5 74.5 C 140.5 74.1 140.3 73.7 139.9 73.5 C 139.7 73.3 139 73.1 138 72.8 C 136.5 72.5 135.5 72.2 135 71.9 C 134.5 71.6 134 71.3 133.8 70.8 C 133.5 70.4 133.3 69.9 133.3 69.3 C 133.3 68.8 133.4 68.3 133.7 67.9 C 133.9 67.4 134.2 67.1 134.6 66.8 C 134.9 66.6 135.3 66.4 135.9 66.2 C 136.4 66.1 136.9 66 137.5 66 C 138.4 66 139.2 66.1 139.9 66.4 C 140.6 66.7 141.1 67 141.4 67.4 C 141.7 67.9 141.9 68.5 142.1 69.2 C 142.1 69.2 140.2 69.5 140.2 69.5 C 140.1 68.9 139.8 68.4 139.4 68.1 C 139 67.8 138.4 67.6 137.7 67.6 C 136.8 67.6 136.1 67.7 135.8 68 C 135.4 68.3 135.2 68.7 135.2 69.1 C 135.2 69.3 135.3 69.5 135.4 69.7 C 135.6 70 135.8 70.1 136.2 70.3 C 136.4 70.3 136.9 70.5 137.9 70.8 C 139.3 71.1 140.2 71.4 140.7 71.7 C 141.3 71.9 141.7 72.2 142 72.7 C 142.3 73.1 142.5 73.7 142.5 74.3 C 142.5 75 142.3 75.6 141.9 76.1 C 141.5 76.7 141 77.2 140.3 77.5 C 139.6 77.8 138.8 77.9 137.9 77.9 C 136.4 77.9 135.3 77.6 134.5 77 C 133.7 76.4 133.2 75.5 133 74.3 Z M 144.8 64.1 L 144.8 61.9 L 146.7 61.9 L 146.7 64.1 L 144.8 64.1 Z M 144.8 77.7 L 144.8 66.3 L 146.7 66.3 L 146.7 77.7 L 144.8 77.7 Z M 153 76 C 153.3 76 153.5 76 153.9 75.9 C 153.9 75.9 154.2 77.7 154.2 77.7 C 153.6 77.8 153.1 77.8 152.7 77.8 C 152 77.8 151.5 77.7 151.1 77.5 C 150.7 77.3 150.4 77 150.3 76.6 C 150.1 76.3 150 75.5 150 74.3 C 150.02 74.33 150 67.8 150 67.8 L 148.6 67.8 L 148.6 66.3 L 150 66.3 L 150 63.4 L 151.9 62.3 L 151.9 66.3 L 153.9 66.3 L 153.9 67.8 L 151.9 67.8 C 151.9 67.8 151.95 74.44 151.9 74.4 C 151.9 75 152 75.3 152 75.5 C 152.1 75.7 152.2 75.8 152.4 75.9 C 152.5 76 152.8 76 153 76 C 153 76 153 76 153 76 Z M 161.5 70 C 161.5 67.4 162.2 65.3 163.6 63.9 C 165 62.4 166.8 61.6 169 61.6 C 170.5 61.6 171.8 62 173 62.7 C 174.1 63.4 175 64.4 175.6 65.6 C 176.3 66.8 176.6 68.2 176.6 69.8 C 176.6 71.4 176.2 72.8 175.6 74.1 C 175 75.4 174 76.3 172.9 77 C 171.7 77.6 170.4 77.9 169 77.9 C 167.6 77.9 166.2 77.6 165.1 76.9 C 163.9 76.2 163 75.2 162.4 73.9 C 161.8 72.7 161.5 71.4 161.5 70 Z M 163.7 70 C 163.7 71.9 164.2 73.4 165.2 74.5 C 166.2 75.6 167.5 76.2 169 76.2 C 170.6 76.2 171.9 75.6 172.9 74.5 C 173.9 73.4 174.4 71.8 174.4 69.8 C 174.4 68.5 174.2 67.4 173.8 66.5 C 173.3 65.5 172.7 64.8 171.9 64.2 C 171 63.7 170.1 63.4 169.1 63.4 C 167.6 63.4 166.3 63.9 165.3 65 C 164.2 66 163.7 67.7 163.7 70 Z M 186.5 77.7 C 186.5 77.7 186.48 76 186.5 76 C 185.6 77.3 184.4 77.9 182.9 77.9 C 182.2 77.9 181.6 77.8 181 77.5 C 180.4 77.3 180 77 179.7 76.6 C 179.4 76.2 179.2 75.7 179.1 75.1 C 179 74.8 179 74.2 179 73.3 C 178.96 73.33 179 66.3 179 66.3 L 180.9 66.3 C 180.9 66.3 180.9 72.59 180.9 72.6 C 180.9 73.6 180.9 74.3 181 74.6 C 181.1 75.1 181.4 75.5 181.8 75.8 C 182.2 76.1 182.7 76.3 183.3 76.3 C 183.8 76.3 184.4 76.1 184.9 75.8 C 185.4 75.5 185.8 75.1 186 74.6 C 186.2 74.1 186.3 73.4 186.3 72.4 C 186.28 72.38 186.3 66.3 186.3 66.3 L 188.2 66.3 L 188.2 77.7 L 186.5 77.7 Z M 191.2 77.7 L 191.2 66.3 L 193 66.3 C 193 66.3 192.96 67.99 193 68 C 193.4 67.2 193.8 66.7 194.2 66.4 C 194.6 66.1 195 66 195.4 66 C 196.1 66 196.7 66.2 197.4 66.6 C 197.4 66.6 196.8 68.4 196.8 68.4 C 196.3 68.1 195.8 68 195.3 68 C 194.9 68 194.5 68.1 194.2 68.4 C 193.9 68.6 193.6 69 193.5 69.4 C 193.3 70.1 193.2 70.9 193.2 71.7 C 193.15 71.7 193.2 77.7 193.2 77.7 L 191.2 77.7 Z M 209 77.7 L 209 71 L 202.9 61.9 L 205.4 61.9 C 205.4 61.9 208.54 66.67 208.5 66.7 C 209.1 67.6 209.6 68.4 210.1 69.3 C 210.6 68.5 211.2 67.6 211.9 66.6 C 211.86 66.55 214.9 61.9 214.9 61.9 L 217.3 61.9 L 211.1 71 L 211.1 77.7 L 209 77.7 Z M 216.2 72 C 216.2 69.9 216.8 68.3 218 67.3 C 219 66.4 220.2 66 221.6 66 C 223.1 66 224.4 66.5 225.4 67.5 C 226.4 68.6 226.9 70 226.9 71.8 C 226.9 73.3 226.7 74.4 226.2 75.3 C 225.8 76.1 225.2 76.8 224.3 77.2 C 223.5 77.7 222.6 77.9 221.6 77.9 C 220 77.9 218.7 77.4 217.7 76.4 C 216.7 75.4 216.2 73.9 216.2 72 Z M 218.2 72 C 218.2 73.4 218.5 74.5 219.2 75.3 C 219.8 76 220.6 76.3 221.6 76.3 C 222.5 76.3 223.3 76 224 75.2 C 224.6 74.5 224.9 73.4 224.9 71.9 C 224.9 70.5 224.6 69.4 224 68.7 C 223.3 68 222.5 67.6 221.6 67.6 C 220.6 67.6 219.8 68 219.2 68.7 C 218.5 69.4 218.2 70.5 218.2 72 Z M 236.6 77.7 C 236.6 77.7 236.65 76 236.6 76 C 235.8 77.3 234.6 77.9 233 77.9 C 232.4 77.9 231.7 77.8 231.1 77.5 C 230.6 77.3 230.1 77 229.8 76.6 C 229.6 76.2 229.4 75.7 229.2 75.1 C 229.2 74.8 229.1 74.2 229.1 73.3 C 229.13 73.33 229.1 66.3 229.1 66.3 L 231.1 66.3 C 231.1 66.3 231.06 72.59 231.1 72.6 C 231.1 73.6 231.1 74.3 231.2 74.6 C 231.3 75.1 231.6 75.5 232 75.8 C 232.3 76.1 232.8 76.3 233.4 76.3 C 234 76.3 234.5 76.1 235 75.8 C 235.6 75.5 235.9 75.1 236.1 74.6 C 236.3 74.1 236.4 73.4 236.4 72.4 C 236.45 72.38 236.4 66.3 236.4 66.3 L 238.4 66.3 L 238.4 77.7 L 236.6 77.7 Z M 245.7 77.7 L 245.7 63.8 L 240.5 63.8 L 240.5 61.9 L 253 61.9 L 253 63.8 L 247.7 63.8 L 247.7 77.7 L 245.7 77.7 Z M 261.5 77.7 C 261.5 77.7 261.51 76 261.5 76 C 260.6 77.3 259.4 77.9 257.9 77.9 C 257.2 77.9 256.6 77.8 256 77.5 C 255.4 77.3 255 77 254.7 76.6 C 254.4 76.2 254.2 75.7 254.1 75.1 C 254 74.8 254 74.2 254 73.3 C 253.99 73.33 254 66.3 254 66.3 L 255.9 66.3 C 255.9 66.3 255.92 72.59 255.9 72.6 C 255.9 73.6 256 74.3 256 74.6 C 256.2 75.1 256.4 75.5 256.8 75.8 C 257.2 76.1 257.7 76.3 258.3 76.3 C 258.9 76.3 259.4 76.1 259.9 75.8 C 260.4 75.5 260.8 75.1 261 74.6 C 261.2 74.1 261.3 73.4 261.3 72.4 C 261.3 72.38 261.3 66.3 261.3 66.3 L 263.2 66.3 L 263.2 77.7 L 261.5 77.7 Z M 268 77.7 L 266.3 77.7 L 266.3 61.9 L 268.2 61.9 C 268.2 61.9 268.19 67.54 268.2 67.5 C 269 66.5 270 66 271.3 66 C 272 66 272.7 66.1 273.3 66.4 C 273.9 66.7 274.4 67.1 274.9 67.6 C 275.3 68.1 275.6 68.8 275.8 69.5 C 276 70.2 276.1 71 276.1 71.8 C 276.1 73.8 275.7 75.3 274.7 76.3 C 273.7 77.4 272.6 77.9 271.2 77.9 C 269.9 77.9 268.8 77.4 268 76.2 C 268.05 76.24 268 77.7 268 77.7 Z M 268 71.9 C 268 73.3 268.2 74.2 268.6 74.8 C 269.2 75.8 270 76.3 271.1 76.3 C 271.9 76.3 272.6 76 273.2 75.2 C 273.9 74.5 274.2 73.4 274.2 72 C 274.2 70.5 273.9 69.4 273.3 68.7 C 272.7 68 272 67.6 271.1 67.6 C 270.3 67.6 269.6 68 269 68.7 C 268.3 69.4 268 70.5 268 71.9 Z M 286.3 74 C 286.3 74 288.3 74.2 288.3 74.2 C 288 75.4 287.4 76.3 286.6 77 C 285.7 77.6 284.6 77.9 283.3 77.9 C 281.6 77.9 280.3 77.4 279.3 76.4 C 278.3 75.4 277.9 73.9 277.9 72.1 C 277.9 70.1 278.4 68.7 279.3 67.6 C 280.3 66.5 281.6 66 283.2 66 C 284.7 66 286 66.5 286.9 67.6 C 287.9 68.6 288.4 70.1 288.4 71.9 C 288.4 72.1 288.4 72.2 288.4 72.5 C 288.4 72.5 279.9 72.5 279.9 72.5 C 279.9 73.7 280.3 74.7 280.9 75.3 C 281.6 76 282.4 76.3 283.3 76.3 C 284 76.3 284.6 76.2 285.1 75.8 C 285.6 75.4 286 74.8 286.3 74 Z M 280 70.9 C 280 70.9 286.3 70.9 286.3 70.9 C 286.2 69.9 286 69.2 285.6 68.7 C 285 68 284.2 67.6 283.2 67.6 C 282.3 67.6 281.6 67.9 281 68.5 C 280.4 69.1 280 69.9 280 70.9 Z M 304.3 73.5 C 304.3 73.5 306.2 73.7 306.2 73.7 C 306 75.1 305.5 76.1 304.6 76.8 C 303.7 77.6 302.7 77.9 301.4 77.9 C 299.9 77.9 298.6 77.4 297.7 76.4 C 296.7 75.4 296.3 73.9 296.3 72 C 296.3 70.8 296.5 69.7 296.9 68.8 C 297.3 67.9 297.9 67.2 298.7 66.7 C 299.6 66.2 300.5 66 301.5 66 C 302.7 66 303.7 66.3 304.5 66.9 C 305.3 67.6 305.8 68.5 306 69.6 C 306 69.6 304.1 69.9 304.1 69.9 C 304 69.1 303.6 68.6 303.2 68.2 C 302.7 67.8 302.2 67.6 301.5 67.6 C 300.6 67.6 299.8 67.9 299.2 68.6 C 298.5 69.3 298.2 70.4 298.2 72 C 298.2 73.5 298.5 74.6 299.1 75.3 C 299.7 76 300.5 76.3 301.4 76.3 C 302.2 76.3 302.8 76.1 303.3 75.6 C 303.8 75.2 304.2 74.5 304.3 73.5 Z M 307.8 77.7 L 307.8 61.9 L 309.8 61.9 C 309.8 61.9 309.78 67.58 309.8 67.6 C 310.7 66.5 311.8 66 313.2 66 C 314 66 314.8 66.2 315.4 66.5 C 316 66.8 316.5 67.3 316.7 67.9 C 317 68.5 317.1 69.3 317.1 70.4 C 317.14 70.44 317.1 77.7 317.1 77.7 L 315.2 77.7 C 315.2 77.7 315.21 70.44 315.2 70.4 C 315.2 69.5 315 68.8 314.6 68.3 C 314.2 67.9 313.6 67.7 312.8 67.7 C 312.2 67.7 311.7 67.8 311.2 68.1 C 310.7 68.4 310.3 68.8 310.1 69.3 C 309.9 69.8 309.8 70.5 309.8 71.4 C 309.78 71.43 309.8 77.7 309.8 77.7 L 307.8 77.7 Z M 327.9 77.7 C 327.7 77.3 327.6 76.8 327.5 76.3 C 326.8 76.9 326.1 77.3 325.5 77.6 C 324.8 77.8 324.1 77.9 323.3 77.9 C 322.1 77.9 321.1 77.6 320.4 77 C 319.8 76.4 319.4 75.6 319.4 74.7 C 319.4 74.1 319.6 73.6 319.8 73.1 C 320.1 72.7 320.4 72.3 320.8 72 C 321.2 71.7 321.7 71.5 322.2 71.4 C 322.6 71.3 323.2 71.2 323.9 71.1 C 325.5 70.9 326.6 70.7 327.4 70.4 C 327.4 70.2 327.4 70 327.4 69.9 C 327.4 69.1 327.2 68.6 326.8 68.3 C 326.3 67.8 325.6 67.6 324.6 67.6 C 323.7 67.6 323 67.8 322.6 68.1 C 322.2 68.4 321.9 69 321.7 69.8 C 321.7 69.8 319.8 69.5 319.8 69.5 C 319.9 68.7 320.2 68.1 320.6 67.6 C 321 67.1 321.6 66.7 322.3 66.4 C 323.1 66.1 323.9 66 324.9 66 C 325.9 66 326.7 66.1 327.3 66.4 C 327.9 66.6 328.3 66.9 328.6 67.2 C 328.9 67.6 329.1 68 329.2 68.5 C 329.3 68.9 329.3 69.5 329.3 70.3 C 329.3 70.3 329.3 72.9 329.3 72.9 C 329.3 74.7 329.4 75.8 329.4 76.3 C 329.5 76.8 329.7 77.2 329.9 77.7 C 329.93 77.67 327.9 77.7 327.9 77.7 C 327.9 77.7 327.92 77.67 327.9 77.7 Z M 327.4 71.9 C 326.7 72.2 325.6 72.5 324.2 72.7 C 323.4 72.8 322.9 72.9 322.5 73.1 C 322.2 73.2 321.9 73.4 321.8 73.7 C 321.6 74 321.5 74.3 321.5 74.6 C 321.5 75.1 321.7 75.6 322.1 75.9 C 322.5 76.2 323 76.4 323.8 76.4 C 324.5 76.4 325.2 76.3 325.8 75.9 C 326.4 75.6 326.8 75.2 327.1 74.6 C 327.3 74.2 327.4 73.5 327.4 72.7 C 327.4 72.7 327.4 71.9 327.4 71.9 Z M 332.3 77.7 L 332.3 66.3 L 334.1 66.3 C 334.1 66.3 334.06 67.89 334.1 67.9 C 334.9 66.6 336.1 66 337.7 66 C 338.4 66 339 66.1 339.6 66.4 C 340.2 66.6 340.6 66.9 340.9 67.3 C 341.2 67.8 341.4 68.2 341.5 68.8 C 341.6 69.1 341.6 69.8 341.6 70.7 C 341.59 70.66 341.6 77.7 341.6 77.7 L 339.7 77.7 C 339.7 77.7 339.66 70.73 339.7 70.7 C 339.7 69.9 339.6 69.4 339.4 69 C 339.3 68.6 339 68.3 338.6 68 C 338.2 67.8 337.8 67.7 337.3 67.7 C 336.5 67.7 335.7 67.9 335.1 68.5 C 334.6 69 334.3 70 334.3 71.4 C 334.25 71.44 334.3 77.7 334.3 77.7 L 332.3 77.7 Z M 344.6 77.7 L 344.6 66.3 L 346.3 66.3 C 346.3 66.3 346.3 67.89 346.3 67.9 C 347.1 66.6 348.3 66 349.9 66 C 350.6 66 351.2 66.1 351.8 66.4 C 352.4 66.6 352.8 66.9 353.1 67.3 C 353.4 67.8 353.6 68.2 353.7 68.8 C 353.8 69.1 353.8 69.8 353.8 70.7 C 353.83 70.66 353.8 77.7 353.8 77.7 L 351.9 77.7 C 351.9 77.7 351.89 70.73 351.9 70.7 C 351.9 69.9 351.8 69.4 351.7 69 C 351.5 68.6 351.2 68.3 350.9 68 C 350.5 67.8 350 67.7 349.5 67.7 C 348.7 67.7 348 67.9 347.4 68.5 C 346.8 69 346.5 70 346.5 71.4 C 346.49 71.44 346.5 77.7 346.5 77.7 L 344.6 77.7 Z M 364.6 74 C 364.6 74 366.6 74.2 366.6 74.2 C 366.3 75.4 365.7 76.3 364.8 77 C 364 77.6 362.9 77.9 361.6 77.9 C 359.9 77.9 358.6 77.4 357.6 76.4 C 356.6 75.4 356.1 73.9 356.1 72.1 C 356.1 70.1 356.6 68.7 357.6 67.6 C 358.6 66.5 359.9 66 361.5 66 C 363 66 364.2 66.5 365.2 67.6 C 366.2 68.6 366.7 70.1 366.7 71.9 C 366.7 72.1 366.7 72.2 366.7 72.5 C 366.7 72.5 358.1 72.5 358.1 72.5 C 358.2 73.7 358.6 74.7 359.2 75.3 C 359.8 76 360.6 76.3 361.6 76.3 C 362.3 76.3 362.9 76.2 363.4 75.8 C 363.9 75.4 364.3 74.8 364.6 74 Z M 358.3 70.9 C 358.3 70.9 364.6 70.9 364.6 70.9 C 364.5 69.9 364.3 69.2 363.9 68.7 C 363.3 68 362.5 67.6 361.5 67.6 C 360.6 67.6 359.9 67.9 359.3 68.5 C 358.7 69.1 358.3 69.9 358.3 70.9 Z M 369 77.7 L 369 61.9 L 370.9 61.9 L 370.9 77.7 L 369 77.7 Z M 374.5 77.7 L 374.5 75.5 L 376.7 75.5 L 376.7 77.7 L 374.5 77.7 Z " stroke="none" fill="#ffffff"/>  </g>  <g id="Polygon63114">    <path d="M 189.2 0.3 L 179.7 11.7 L 179.7 24.9 L 177.8 24.9 L 177.8 11.7 L 168.3 0.3 L 170.6 0.3 L 178.8 10 L 186.9 0.3 L 189.2 0.3 Z M 201 0 C 204.6 0 207.7 1.2 210.2 3.7 C 212.7 6.1 214 9.1 214 12.6 C 214 16.1 212.7 19.1 210.2 21.5 C 207.7 24 204.6 25.2 201 25.2 C 197.4 25.2 194.3 24 191.8 21.5 C 189.3 19.1 188 16.1 188 12.6 C 188 9.1 189.3 6.1 191.8 3.7 C 194.3 1.2 197.4 0 201 0 Z M 201.1 23.4 C 204.1 23.4 206.7 22.4 208.8 20.3 C 210.9 18.2 212 15.6 212 12.6 C 212 9.6 210.9 7 208.8 4.9 C 206.7 2.8 204.1 1.8 201.1 1.8 C 198 1.8 195.4 2.8 193.3 4.9 C 191.1 7 190.1 9.6 190.1 12.6 C 190.1 15.6 191.1 18.2 193.3 20.3 C 195.4 22.4 198 23.4 201.1 23.4 Z M 236.8 0.3 L 238.7 0.3 C 238.7 0.3 238.67 13.71 238.7 13.7 C 238.7 17.4 237.7 20.2 235.8 22.2 C 233.9 24.2 231.4 25.2 228.4 25.2 C 225.4 25.2 222.9 24.2 221 22.2 C 219.1 20.3 218.1 17.6 218.1 14.2 C 218.12 14.15 218.1 0.3 218.1 0.3 L 220 0.3 C 220 0.3 220.04 14.08 220 14.1 C 220 17 220.8 19.3 222.4 21 C 223.9 22.6 225.9 23.4 228.4 23.4 C 230.9 23.4 232.9 22.6 234.4 20.9 C 236 19.3 236.8 16.9 236.8 13.8 C 236.77 13.82 236.8 0.3 236.8 0.3 Z M 261.4 0.3 L 261.4 1.9 L 252.2 1.9 L 252.2 24.9 L 250.3 24.9 L 250.3 1.9 L 241.1 1.9 L 241.1 0.3 L 261.4 0.3 Z M 282.5 0.3 L 284.4 0.3 C 284.4 0.3 284.45 13.71 284.4 13.7 C 284.4 17.4 283.5 20.2 281.6 22.2 C 279.7 24.2 277.2 25.2 274.2 25.2 C 271.1 25.2 268.7 24.2 266.8 22.2 C 264.9 20.3 263.9 17.6 263.9 14.2 C 263.9 14.15 263.9 0.3 263.9 0.3 L 265.8 0.3 C 265.8 0.3 265.81 14.08 265.8 14.1 C 265.8 17 266.6 19.3 268.1 21 C 269.7 22.6 271.7 23.4 274.2 23.4 C 276.6 23.4 278.7 22.6 280.2 20.9 C 281.8 19.3 282.5 16.9 282.5 13.8 C 282.55 13.82 282.5 0.3 282.5 0.3 Z M 289.6 0.3 C 289.6 0.3 294.73 0.32 294.7 0.3 C 297.4 0.3 299.4 0.9 300.8 2 C 302.2 3.1 302.9 4.7 302.9 6.7 C 302.9 9 301.7 10.9 299.4 12.1 C 303.2 12.9 305 15 305 18.4 C 305 20.3 304.3 21.9 302.8 23.1 C 301.3 24.3 299.3 24.9 296.8 24.9 C 296.8 24.87 289.6 24.9 289.6 24.9 L 289.6 0.3 Z M 291.5 1.9 L 291.5 11.7 C 291.5 11.7 294.15 11.69 294.1 11.7 C 298.6 11.7 300.8 10.1 300.8 6.8 C 300.8 3.5 298.6 1.9 294.1 1.9 C 294.08 1.9 291.5 1.9 291.5 1.9 Z M 291.5 13.3 L 291.5 23.3 C 291.5 23.3 296.59 23.29 296.6 23.3 C 298.7 23.3 300.3 22.8 301.4 21.9 C 302.5 21 303 19.8 303 18.3 C 303 15 300.6 13.3 295.8 13.3 C 295.77 13.29 291.5 13.3 291.5 13.3 Z M 322.1 0.3 L 322.1 1.9 L 310.6 1.9 L 310.6 11.7 L 321.8 11.7 L 321.8 13.3 L 310.6 13.3 L 310.6 23.3 L 322.4 23.3 L 322.4 24.9 L 308.7 24.9 L 308.7 0.3 L 322.1 0.3 Z " stroke="none" fill="#ffffff"/>  </g></svg>