<?xml version="1.0" standalone="no"?><!DOCTYPE svg PUBLIC "-//W3C//DTD SVG 1.1//EN" "http://www.w3.org/Graphics/SVG/1.1/DTD/svg11.dtd"><svg xmlns="http://www.w3.org/2000/svg" version="1.1" width="211px" height="78.4px" viewBox="0 -1 211 78.4" style="top:-1px">  <desc>FREELANCE TALENT</desc>  <defs/>  <g id="Polygon68044">    <path d="M 83.2 41.1 L 83.2 41.9 L 78.3 41.9 L 78.3 54.2 L 77.3 54.2 L 77.3 41.9 L 72.3 41.9 L 72.3 41.1 L 83.2 41.1 Z M 88 41 L 94.1 54.2 L 93 54.2 L 91 49.6 L 84.6 49.6 L 82.5 54.2 L 81.4 54.2 L 87.5 41 L 88 41 Z M 90.6 48.8 L 87.8 42.6 L 84.9 48.8 L 90.6 48.8 Z M 96.7 41.1 L 96.7 53.3 L 103.2 53.3 L 103.2 54.2 L 95.7 54.2 L 95.7 41.1 L 96.7 41.1 Z M 111.9 41.1 L 111.9 41.9 L 105.7 41.9 L 105.7 47.1 L 111.7 47.1 L 111.7 48 L 105.7 48 L 105.7 53.3 L 112 53.3 L 112 54.2 L 104.7 54.2 L 104.7 41.1 L 111.9 41.1 Z M 125.9 41.1 L 125.9 54.2 L 125.1 54.2 L 115.1 42.7 L 115.1 54.2 L 114.1 54.2 L 114.1 41.1 L 114.9 41.1 L 124.9 52.5 L 124.9 41.1 L 125.9 41.1 Z M 138.3 41.1 L 138.3 41.9 L 133.4 41.9 L 133.4 54.2 L 132.4 54.2 L 132.4 41.9 L 127.5 41.9 L 127.5 41.1 L 138.3 41.1 Z " stroke="none" fill="#ffffff"/>  </g>  <g id="Polygon68043">    <path d="M 64.9 18 L 64.9 18.9 L 59.2 18.9 L 59.2 23.8 L 64.4 23.8 L 64.4 24.7 L 59.2 24.7 L 59.2 31.1 L 58.2 31.1 L 58.2 18 L 64.9 18 Z M 66.6 18 C 66.6 18 69.98 18.02 70 18 C 71.4 18 72.5 18.3 73.2 18.9 C 74 19.5 74.3 20.4 74.3 21.4 C 74.3 22.9 73.5 24 71.8 24.6 C 72.3 24.8 72.8 25.5 73.6 26.6 C 73.58 26.58 76.5 31.1 76.5 31.1 L 75.3 31.1 C 75.3 31.1 73.06 27.52 73.1 27.5 C 72.3 26.3 71.7 25.6 71.3 25.3 C 70.9 25 70.2 24.8 69.4 24.8 C 69.41 24.83 67.6 24.8 67.6 24.8 L 67.6 31.1 L 66.6 31.1 L 66.6 18 Z M 67.6 18.9 L 67.6 24 C 67.6 24 69.82 23.99 69.8 24 C 70.9 24 71.8 23.8 72.4 23.3 C 72.9 22.9 73.2 22.2 73.2 21.4 C 73.2 20.6 72.9 20 72.3 19.5 C 71.7 19.1 70.9 18.9 69.8 18.9 C 69.78 18.86 67.6 18.9 67.6 18.9 Z M 84.8 18 L 84.8 18.9 L 78.7 18.9 L 78.7 24.1 L 84.6 24.1 L 84.6 25 L 78.7 25 L 78.7 30.3 L 84.9 30.3 L 84.9 31.1 L 77.7 31.1 L 77.7 18 L 84.8 18 Z M 94.2 18 L 94.2 18.9 L 88.1 18.9 L 88.1 24.1 L 94.1 24.1 L 94.1 25 L 88.1 25 L 88.1 30.3 L 94.4 30.3 L 94.4 31.1 L 87.1 31.1 L 87.1 18 L 94.2 18 Z M 97.5 18 L 97.5 30.3 L 104 30.3 L 104 31.1 L 96.5 31.1 L 96.5 18 L 97.5 18 Z M 110.6 17.9 L 116.7 31.1 L 115.6 31.1 L 113.6 26.6 L 107.2 26.6 L 105.1 31.1 L 104 31.1 L 110.1 17.9 L 110.6 17.9 Z M 113.2 25.7 L 110.3 19.6 L 107.5 25.7 L 113.2 25.7 Z M 130.1 18 L 130.1 31.1 L 129.2 31.1 L 119.3 19.7 L 119.3 31.1 L 118.3 31.1 L 118.3 18 L 119.1 18 L 129 29.5 L 129 18 L 130.1 18 Z M 139.4 17.8 C 140.9 17.8 142.4 18.2 144 18.9 C 144 18.9 144 20.1 144 20.1 C 142.4 19.2 140.8 18.8 139.3 18.8 C 137.7 18.8 136.3 19.3 135.2 20.4 C 134.1 21.6 133.6 22.9 133.6 24.6 C 133.6 26.3 134.1 27.6 135.2 28.7 C 136.3 29.8 137.7 30.3 139.5 30.3 C 140.9 30.3 142.4 29.9 144.1 29 C 144.1 29 144.1 30.1 144.1 30.1 C 142.6 30.9 141 31.3 139.5 31.3 C 137.5 31.3 135.8 30.6 134.5 29.4 C 133.2 28.1 132.5 26.5 132.5 24.6 C 132.5 22.7 133.2 21.1 134.5 19.8 C 135.9 18.5 137.5 17.8 139.4 17.8 C 139.4 17.8 139.4 17.8 139.4 17.8 Z M 153.2 18 L 153.2 18.9 L 147.1 18.9 L 147.1 24.1 L 153.1 24.1 L 153.1 25 L 147.1 25 L 147.1 30.3 L 153.4 30.3 L 153.4 31.1 L 146.1 31.1 L 146.1 18 L 153.2 18 Z " stroke="none" fill="#ffffff"/>  </g></svg>