<?xml version="1.0" standalone="no"?><!DOCTYPE svg PUBLIC "-//W3C//DTD SVG 1.1//EN" "http://www.w3.org/Graphics/SVG/1.1/DTD/svg11.dtd"><svg xmlns="http://www.w3.org/2000/svg" version="1.1" width="211px" height="99.5px" viewBox="0 0 211 99.5">  <desc>Delivering quality training and consultancy services to help develop programmes which are engaging, effective and res...</desc>  <defs/>  <g id="Polygon68373">    <path d="M 72.1 77.7 C 72.1 76.5 72.4 75.7 73.1 75.2 C 73.6 74.7 74.2 74.5 75 74.5 C 75.8 74.5 76.5 74.7 77 75.3 C 77.6 75.8 77.8 76.6 77.8 77.6 C 77.8 78.4 77.7 79 77.5 79.4 C 77.2 79.9 76.9 80.2 76.5 80.5 C 76 80.7 75.5 80.8 75 80.8 C 74.1 80.8 73.4 80.6 72.9 80 C 72.4 79.5 72.1 78.7 72.1 77.7 Z M 73.2 77.7 C 73.2 78.4 73.4 79 73.7 79.4 C 74 79.8 74.5 80 75 80 C 75.5 80 75.9 79.8 76.3 79.4 C 76.6 79 76.8 78.4 76.8 77.6 C 76.8 76.9 76.6 76.3 76.3 75.9 C 75.9 75.5 75.5 75.3 75 75.3 C 74.5 75.3 74 75.5 73.7 75.9 C 73.4 76.3 73.2 76.9 73.2 77.7 Z M 79 80.7 L 79 74.6 L 80 74.6 C 80 74.6 79.96 75.54 80 75.5 C 80.2 75.1 80.4 74.8 80.6 74.7 C 80.8 74.5 81 74.5 81.3 74.5 C 81.6 74.5 82 74.6 82.3 74.8 C 82.3 74.8 82 75.8 82 75.8 C 81.7 75.6 81.5 75.5 81.2 75.5 C 81 75.5 80.8 75.6 80.6 75.7 C 80.4 75.9 80.3 76.1 80.2 76.3 C 80.1 76.7 80.1 77.1 80.1 77.5 C 80.06 77.51 80.1 80.7 80.1 80.7 L 79 80.7 Z M 82.8 81.2 C 82.8 81.2 83.8 81.4 83.8 81.4 C 83.8 81.7 83.9 81.9 84.1 82 C 84.4 82.2 84.7 82.3 85.2 82.3 C 85.6 82.3 86 82.2 86.3 82 C 86.5 81.8 86.7 81.6 86.8 81.2 C 86.8 81 86.9 80.6 86.9 79.9 C 86.4 80.4 85.9 80.7 85.2 80.7 C 84.3 80.7 83.7 80.4 83.2 79.8 C 82.8 79.2 82.6 78.5 82.6 77.6 C 82.6 77 82.7 76.5 82.9 76 C 83.1 75.5 83.4 75.1 83.8 74.9 C 84.2 74.6 84.6 74.5 85.2 74.5 C 85.9 74.5 86.5 74.8 87 75.3 C 86.96 75.35 87 74.6 87 74.6 L 87.9 74.6 C 87.9 74.6 87.91 79.87 87.9 79.9 C 87.9 80.8 87.8 81.5 87.6 81.9 C 87.4 82.3 87.1 82.6 86.7 82.8 C 86.3 83.1 85.8 83.2 85.2 83.2 C 84.4 83.2 83.9 83 83.4 82.7 C 83 82.4 82.7 81.9 82.8 81.2 Z M 83.6 77.5 C 83.6 78.3 83.8 78.9 84.1 79.3 C 84.4 79.7 84.8 79.8 85.3 79.8 C 85.8 79.8 86.1 79.7 86.5 79.3 C 86.8 78.9 87 78.4 87 77.6 C 87 76.8 86.8 76.3 86.5 75.9 C 86.1 75.5 85.7 75.3 85.3 75.3 C 84.8 75.3 84.4 75.5 84.1 75.9 C 83.8 76.3 83.6 76.8 83.6 77.5 Z M 93.6 80.7 C 93.5 80.5 93.5 80.2 93.4 79.9 C 93.1 80.3 92.7 80.5 92.3 80.6 C 92 80.8 91.6 80.8 91.2 80.8 C 90.5 80.8 90 80.7 89.7 80.3 C 89.3 80 89.1 79.6 89.1 79.1 C 89.1 78.8 89.2 78.5 89.3 78.3 C 89.5 78 89.6 77.8 89.9 77.7 C 90.1 77.5 90.3 77.4 90.6 77.3 C 90.8 77.3 91.1 77.2 91.5 77.2 C 92.4 77.1 93 77 93.4 76.8 C 93.4 76.7 93.4 76.6 93.4 76.6 C 93.4 76.1 93.3 75.9 93.1 75.7 C 92.8 75.4 92.4 75.3 91.9 75.3 C 91.4 75.3 91.1 75.4 90.8 75.6 C 90.6 75.8 90.4 76.1 90.3 76.5 C 90.3 76.5 89.3 76.3 89.3 76.3 C 89.4 75.9 89.5 75.6 89.8 75.3 C 90 75 90.3 74.8 90.7 74.7 C 91.1 74.5 91.5 74.5 92 74.5 C 92.6 74.5 93 74.5 93.3 74.7 C 93.6 74.8 93.9 74.9 94 75.1 C 94.2 75.3 94.3 75.5 94.3 75.8 C 94.4 76 94.4 76.3 94.4 76.8 C 94.4 76.8 94.4 78.1 94.4 78.1 C 94.4 79.1 94.4 79.7 94.5 80 C 94.5 80.2 94.6 80.5 94.7 80.7 C 94.73 80.7 93.6 80.7 93.6 80.7 C 93.6 80.7 93.65 80.7 93.6 80.7 Z M 93.4 77.6 C 93 77.8 92.4 77.9 91.7 78 C 91.2 78.1 90.9 78.2 90.8 78.2 C 90.6 78.3 90.5 78.4 90.4 78.6 C 90.3 78.7 90.2 78.9 90.2 79.1 C 90.2 79.3 90.3 79.6 90.5 79.8 C 90.7 79.9 91 80 91.4 80 C 91.8 80 92.2 79.9 92.5 79.8 C 92.8 79.6 93 79.4 93.2 79.1 C 93.3 78.8 93.4 78.5 93.4 78 C 93.4 78 93.4 77.6 93.4 77.6 Z M 96 80.7 L 96 74.6 L 96.9 74.6 C 96.9 74.6 96.93 75.48 96.9 75.5 C 97.4 74.8 98 74.5 98.9 74.5 C 99.2 74.5 99.6 74.5 99.9 74.7 C 100.2 74.8 100.4 75 100.6 75.2 C 100.7 75.4 100.8 75.7 100.9 76 C 100.9 76.1 100.9 76.5 100.9 77 C 100.94 76.96 100.9 80.7 100.9 80.7 L 99.9 80.7 C 99.9 80.7 99.91 77 99.9 77 C 99.9 76.6 99.9 76.3 99.8 76.1 C 99.7 75.8 99.6 75.7 99.4 75.6 C 99.2 75.4 98.9 75.4 98.6 75.4 C 98.2 75.4 97.8 75.5 97.5 75.8 C 97.2 76.1 97 76.6 97 77.4 C 97.03 77.37 97 80.7 97 80.7 L 96 80.7 Z M 102.5 73.5 L 102.5 72.3 L 103.6 72.3 L 103.6 73.5 L 102.5 73.5 Z M 102.5 80.7 L 102.5 74.6 L 103.6 74.6 L 103.6 80.7 L 102.5 80.7 Z M 104.7 78.9 C 104.7 78.9 105.7 78.7 105.7 78.7 C 105.8 79.1 106 79.4 106.2 79.7 C 106.5 79.9 106.8 80 107.3 80 C 107.8 80 108.1 79.9 108.4 79.7 C 108.6 79.5 108.7 79.3 108.7 79 C 108.7 78.8 108.6 78.6 108.4 78.5 C 108.3 78.4 107.9 78.3 107.4 78.1 C 106.6 77.9 106.1 77.8 105.8 77.6 C 105.5 77.5 105.3 77.3 105.1 77 C 105 76.8 104.9 76.5 104.9 76.2 C 104.9 76 105 75.7 105.1 75.5 C 105.2 75.2 105.4 75.1 105.6 74.9 C 105.7 74.8 106 74.7 106.2 74.6 C 106.5 74.5 106.8 74.5 107.1 74.5 C 107.6 74.5 108 74.5 108.4 74.7 C 108.7 74.8 109 75 109.2 75.2 C 109.4 75.5 109.5 75.8 109.5 76.2 C 109.5 76.2 108.5 76.3 108.5 76.3 C 108.5 76 108.4 75.8 108.1 75.6 C 107.9 75.4 107.6 75.3 107.2 75.3 C 106.7 75.3 106.4 75.4 106.2 75.6 C 106 75.7 105.9 75.9 105.9 76.1 C 105.9 76.2 105.9 76.4 106 76.5 C 106.1 76.6 106.2 76.7 106.4 76.7 C 106.5 76.8 106.8 76.9 107.3 77 C 108 77.2 108.6 77.4 108.8 77.5 C 109.1 77.6 109.4 77.8 109.5 78 C 109.7 78.3 109.8 78.6 109.8 78.9 C 109.8 79.3 109.7 79.6 109.5 79.9 C 109.3 80.2 109 80.4 108.6 80.6 C 108.2 80.8 107.8 80.8 107.3 80.8 C 106.5 80.8 105.9 80.7 105.5 80.3 C 105.1 80 104.8 79.5 104.7 78.9 Z M 115.2 80.7 C 115.1 80.5 115 80.2 115 79.9 C 114.6 80.3 114.2 80.5 113.9 80.6 C 113.5 80.8 113.1 80.8 112.7 80.8 C 112.1 80.8 111.5 80.7 111.2 80.3 C 110.8 80 110.6 79.6 110.6 79.1 C 110.6 78.8 110.7 78.5 110.9 78.3 C 111 78 111.2 77.8 111.4 77.7 C 111.6 77.5 111.9 77.4 112.1 77.3 C 112.3 77.3 112.6 77.2 113 77.2 C 113.9 77.1 114.5 77 114.9 76.8 C 114.9 76.7 114.9 76.6 114.9 76.6 C 114.9 76.1 114.8 75.9 114.6 75.7 C 114.3 75.4 113.9 75.3 113.4 75.3 C 112.9 75.3 112.6 75.4 112.3 75.6 C 112.1 75.8 111.9 76.1 111.8 76.5 C 111.8 76.5 110.8 76.3 110.8 76.3 C 110.9 75.9 111.1 75.6 111.3 75.3 C 111.5 75 111.8 74.8 112.2 74.7 C 112.6 74.5 113 74.5 113.6 74.5 C 114.1 74.5 114.5 74.5 114.8 74.7 C 115.2 74.8 115.4 74.9 115.6 75.1 C 115.7 75.3 115.8 75.5 115.9 75.8 C 115.9 76 115.9 76.3 115.9 76.8 C 115.9 76.8 115.9 78.1 115.9 78.1 C 115.9 79.1 115.9 79.7 116 80 C 116 80.2 116.1 80.5 116.3 80.7 C 116.25 80.7 115.2 80.7 115.2 80.7 C 115.2 80.7 115.17 80.7 115.2 80.7 Z M 114.9 77.6 C 114.5 77.8 113.9 77.9 113.2 78 C 112.8 78.1 112.5 78.2 112.3 78.2 C 112.1 78.3 112 78.4 111.9 78.6 C 111.8 78.7 111.7 78.9 111.7 79.1 C 111.7 79.3 111.9 79.6 112.1 79.8 C 112.3 79.9 112.6 80 113 80 C 113.4 80 113.7 79.9 114 79.8 C 114.3 79.6 114.6 79.4 114.7 79.1 C 114.8 78.8 114.9 78.5 114.9 78 C 114.9 78 114.9 77.6 114.9 77.6 Z M 119.3 79.8 C 119.4 79.8 119.6 79.8 119.8 79.8 C 119.8 79.8 119.9 80.7 119.9 80.7 C 119.6 80.7 119.4 80.8 119.1 80.8 C 118.8 80.8 118.5 80.7 118.3 80.6 C 118.1 80.5 117.9 80.3 117.8 80.1 C 117.8 79.9 117.7 79.5 117.7 78.9 C 117.71 78.92 117.7 75.4 117.7 75.4 L 117 75.4 L 117 74.6 L 117.7 74.6 L 117.7 73.1 L 118.7 72.5 L 118.7 74.6 L 119.8 74.6 L 119.8 75.4 L 118.7 75.4 C 118.7 75.4 118.74 78.97 118.7 79 C 118.7 79.3 118.8 79.5 118.8 79.5 C 118.8 79.6 118.9 79.7 119 79.7 C 119.1 79.8 119.2 79.8 119.3 79.8 C 119.3 79.8 119.3 79.8 119.3 79.8 Z M 120.8 73.5 L 120.8 72.3 L 121.8 72.3 L 121.8 73.5 L 120.8 73.5 Z M 120.8 80.7 L 120.8 74.6 L 121.8 74.6 L 121.8 80.7 L 120.8 80.7 Z M 123 77.7 C 123 76.5 123.3 75.7 123.9 75.2 C 124.5 74.7 125.1 74.5 125.9 74.5 C 126.7 74.5 127.4 74.7 127.9 75.3 C 128.4 75.8 128.7 76.6 128.7 77.6 C 128.7 78.4 128.6 79 128.4 79.4 C 128.1 79.9 127.8 80.2 127.3 80.5 C 126.9 80.7 126.4 80.8 125.9 80.8 C 125 80.8 124.3 80.6 123.8 80 C 123.3 79.5 123 78.7 123 77.7 Z M 124.1 77.7 C 124.1 78.4 124.2 79 124.6 79.4 C 124.9 79.8 125.3 80 125.9 80 C 126.4 80 126.8 79.8 127.1 79.4 C 127.5 79 127.6 78.4 127.6 77.6 C 127.6 76.9 127.5 76.3 127.1 75.9 C 126.8 75.5 126.4 75.3 125.9 75.3 C 125.3 75.3 124.9 75.5 124.6 75.9 C 124.2 76.3 124.1 76.9 124.1 77.7 Z M 129.9 80.7 L 129.9 74.6 L 130.8 74.6 C 130.8 74.6 130.84 75.48 130.8 75.5 C 131.3 74.8 131.9 74.5 132.8 74.5 C 133.1 74.5 133.5 74.5 133.8 74.7 C 134.1 74.8 134.3 75 134.5 75.2 C 134.6 75.4 134.7 75.7 134.8 76 C 134.8 76.1 134.9 76.5 134.9 77 C 134.86 76.96 134.9 80.7 134.9 80.7 L 133.8 80.7 C 133.8 80.7 133.83 77 133.8 77 C 133.8 76.6 133.8 76.3 133.7 76.1 C 133.6 75.8 133.5 75.7 133.3 75.6 C 133.1 75.4 132.8 75.4 132.6 75.4 C 132.1 75.4 131.7 75.5 131.4 75.8 C 131.1 76.1 130.9 76.6 130.9 77.4 C 130.95 77.37 130.9 80.7 130.9 80.7 L 129.9 80.7 Z M 136.7 80.7 L 136.7 79.5 L 137.9 79.5 L 137.9 80.7 L 136.7 80.7 Z " stroke="none" fill="#fff"/>  </g>  <g id="Polygon68372">    <path d="M 27.5 64.7 C 27.5 64.7 28.6 64.8 28.6 64.8 C 28.4 65.4 28.1 65.9 27.7 66.2 C 27.2 66.6 26.6 66.8 25.9 66.8 C 25 66.8 24.3 66.5 23.8 65.9 C 23.3 65.4 23 64.6 23 63.6 C 23 62.6 23.3 61.8 23.8 61.2 C 24.4 60.7 25 60.4 25.9 60.4 C 26.7 60.4 27.4 60.7 27.9 61.2 C 28.4 61.8 28.6 62.6 28.6 63.6 C 28.6 63.6 28.6 63.7 28.6 63.8 C 28.6 63.8 24.1 63.8 24.1 63.8 C 24.1 64.5 24.3 65 24.7 65.4 C 25 65.7 25.4 65.9 25.9 65.9 C 26.3 65.9 26.6 65.8 26.9 65.6 C 27.2 65.4 27.4 65.1 27.5 64.7 Z M 24.2 63 C 24.2 63 27.6 63 27.6 63 C 27.5 62.5 27.4 62.1 27.2 61.8 C 26.8 61.4 26.4 61.2 25.9 61.2 C 25.4 61.2 25 61.4 24.7 61.7 C 24.4 62 24.2 62.5 24.2 63 Z M 30.2 66.6 L 30.2 61.3 L 29.2 61.3 L 29.2 60.5 L 30.2 60.5 C 30.2 60.5 30.15 59.89 30.2 59.9 C 30.2 59.5 30.2 59.2 30.3 59 C 30.4 58.7 30.5 58.5 30.8 58.3 C 31 58.2 31.4 58.1 31.8 58.1 C 32.1 58.1 32.4 58.1 32.8 58.2 C 32.8 58.2 32.6 59.1 32.6 59.1 C 32.4 59 32.2 59 32 59 C 31.7 59 31.5 59.1 31.4 59.2 C 31.2 59.4 31.2 59.6 31.2 60 C 31.18 59.97 31.2 60.5 31.2 60.5 L 32.4 60.5 L 32.4 61.3 L 31.2 61.3 L 31.2 66.6 L 30.2 66.6 Z M 33.2 66.6 L 33.2 61.3 L 32.3 61.3 L 32.3 60.5 L 33.2 60.5 C 33.2 60.5 33.2 59.89 33.2 59.9 C 33.2 59.5 33.2 59.2 33.3 59 C 33.4 58.7 33.6 58.5 33.8 58.3 C 34.1 58.2 34.4 58.1 34.9 58.1 C 35.2 58.1 35.5 58.1 35.8 58.2 C 35.8 58.2 35.7 59.1 35.7 59.1 C 35.5 59 35.3 59 35.1 59 C 34.8 59 34.6 59.1 34.4 59.2 C 34.3 59.4 34.2 59.6 34.2 60 C 34.23 59.97 34.2 60.5 34.2 60.5 L 35.4 60.5 L 35.4 61.3 L 34.2 61.3 L 34.2 66.6 L 33.2 66.6 Z M 40.4 64.7 C 40.4 64.7 41.4 64.8 41.4 64.8 C 41.3 65.4 41 65.9 40.5 66.2 C 40.1 66.6 39.5 66.8 38.8 66.8 C 37.9 66.8 37.2 66.5 36.7 65.9 C 36.1 65.4 35.9 64.6 35.9 63.6 C 35.9 62.6 36.1 61.8 36.7 61.2 C 37.2 60.7 37.9 60.4 38.7 60.4 C 39.5 60.4 40.2 60.7 40.7 61.2 C 41.2 61.8 41.5 62.6 41.5 63.6 C 41.5 63.6 41.5 63.7 41.5 63.8 C 41.5 63.8 36.9 63.8 36.9 63.8 C 37 64.5 37.2 65 37.5 65.4 C 37.8 65.7 38.3 65.9 38.8 65.9 C 39.2 65.9 39.5 65.8 39.7 65.6 C 40 65.4 40.2 65.1 40.4 64.7 Z M 37 63 C 37 63 40.4 63 40.4 63 C 40.3 62.5 40.2 62.1 40 61.8 C 39.7 61.4 39.2 61.2 38.7 61.2 C 38.2 61.2 37.9 61.4 37.5 61.7 C 37.2 62 37 62.5 37 63 Z M 46.7 64.4 C 46.7 64.4 47.7 64.5 47.7 64.5 C 47.6 65.2 47.3 65.8 46.9 66.2 C 46.4 66.6 45.9 66.8 45.2 66.8 C 44.4 66.8 43.7 66.5 43.2 65.9 C 42.7 65.4 42.4 64.6 42.4 63.6 C 42.4 62.9 42.5 62.4 42.8 61.9 C 43 61.4 43.3 61 43.7 60.8 C 44.2 60.5 44.7 60.4 45.2 60.4 C 45.9 60.4 46.4 60.6 46.8 60.9 C 47.2 61.2 47.5 61.7 47.6 62.3 C 47.6 62.3 46.6 62.5 46.6 62.5 C 46.5 62.1 46.4 61.8 46.1 61.6 C 45.9 61.3 45.6 61.2 45.2 61.2 C 44.7 61.2 44.3 61.4 44 61.8 C 43.6 62.2 43.5 62.8 43.5 63.6 C 43.5 64.4 43.6 65 44 65.4 C 44.3 65.7 44.7 65.9 45.2 65.9 C 45.6 65.9 45.9 65.8 46.2 65.5 C 46.5 65.3 46.6 64.9 46.7 64.4 Z M 50.4 65.7 C 50.5 65.7 50.7 65.7 50.9 65.7 C 50.9 65.7 51 66.6 51 66.6 C 50.7 66.7 50.5 66.7 50.2 66.7 C 49.9 66.7 49.6 66.6 49.4 66.5 C 49.2 66.4 49 66.2 48.9 66.1 C 48.8 65.9 48.8 65.5 48.8 64.8 C 48.8 64.84 48.8 61.3 48.8 61.3 L 48 61.3 L 48 60.5 L 48.8 60.5 L 48.8 59 L 49.8 58.4 L 49.8 60.5 L 50.9 60.5 L 50.9 61.3 L 49.8 61.3 C 49.8 61.3 49.82 64.89 49.8 64.9 C 49.8 65.2 49.8 65.4 49.9 65.5 C 49.9 65.5 50 65.6 50.1 65.7 C 50.1 65.7 50.3 65.7 50.4 65.7 C 50.4 65.7 50.4 65.7 50.4 65.7 Z M 51.9 59.4 L 51.9 58.2 L 52.9 58.2 L 52.9 59.4 L 51.9 59.4 Z M 51.9 66.6 L 51.9 60.5 L 52.9 60.5 L 52.9 66.6 L 51.9 66.6 Z M 56.2 66.6 L 53.8 60.5 L 54.9 60.5 C 54.9 60.5 56.24 64.18 56.2 64.2 C 56.4 64.6 56.5 65 56.6 65.4 C 56.7 65.1 56.9 64.7 57 64.2 C 57.02 64.25 58.4 60.5 58.4 60.5 L 59.4 60.5 L 57.1 66.6 L 56.2 66.6 Z M 64.5 64.7 C 64.5 64.7 65.6 64.8 65.6 64.8 C 65.4 65.4 65.1 65.9 64.6 66.2 C 64.2 66.6 63.6 66.8 62.9 66.8 C 62 66.8 61.3 66.5 60.8 65.9 C 60.3 65.4 60 64.6 60 63.6 C 60 62.6 60.3 61.8 60.8 61.2 C 61.3 60.7 62 60.4 62.8 60.4 C 63.7 60.4 64.3 60.7 64.8 61.2 C 65.3 61.8 65.6 62.6 65.6 63.6 C 65.6 63.6 65.6 63.7 65.6 63.8 C 65.6 63.8 61.1 63.8 61.1 63.8 C 61.1 64.5 61.3 65 61.6 65.4 C 62 65.7 62.4 65.9 62.9 65.9 C 63.3 65.9 63.6 65.8 63.9 65.6 C 64.1 65.4 64.3 65.1 64.5 64.7 Z M 61.1 63 C 61.1 63 64.5 63 64.5 63 C 64.5 62.5 64.3 62.1 64.1 61.8 C 63.8 61.4 63.4 61.2 62.8 61.2 C 62.4 61.2 62 61.4 61.7 61.7 C 61.3 62 61.2 62.5 61.1 63 Z M 74.3 66.6 C 74.2 66.4 74.1 66.2 74.1 65.9 C 73.7 66.2 73.3 66.4 73 66.6 C 72.6 66.7 72.3 66.8 71.9 66.8 C 71.2 66.8 70.7 66.6 70.3 66.3 C 70 65.9 69.8 65.5 69.8 65 C 69.8 64.7 69.8 64.4 70 64.2 C 70.1 64 70.3 63.8 70.5 63.6 C 70.7 63.5 71 63.3 71.3 63.3 C 71.5 63.2 71.8 63.2 72.2 63.1 C 73 63 73.6 62.9 74 62.8 C 74 62.6 74 62.5 74 62.5 C 74 62.1 73.9 61.8 73.7 61.6 C 73.5 61.4 73.1 61.2 72.5 61.2 C 72.1 61.2 71.7 61.3 71.5 61.5 C 71.2 61.7 71.1 62 71 62.4 C 71 62.4 70 62.3 70 62.3 C 70 61.8 70.2 61.5 70.4 61.2 C 70.6 61 70.9 60.8 71.3 60.6 C 71.7 60.5 72.2 60.4 72.7 60.4 C 73.2 60.4 73.6 60.5 74 60.6 C 74.3 60.7 74.5 60.9 74.7 61 C 74.8 61.2 74.9 61.5 75 61.7 C 75 61.9 75.1 62.2 75.1 62.7 C 75.1 62.7 75.1 64.1 75.1 64.1 C 75.1 65 75.1 65.6 75.1 65.9 C 75.2 66.1 75.2 66.4 75.4 66.6 C 75.38 66.62 74.3 66.6 74.3 66.6 C 74.3 66.6 74.3 66.62 74.3 66.6 Z M 74 63.6 C 73.6 63.7 73.1 63.8 72.3 64 C 71.9 64 71.6 64.1 71.4 64.2 C 71.2 64.2 71.1 64.3 71 64.5 C 70.9 64.6 70.9 64.8 70.9 65 C 70.9 65.3 71 65.5 71.2 65.7 C 71.4 65.9 71.7 65.9 72.1 65.9 C 72.5 65.9 72.9 65.9 73.2 65.7 C 73.5 65.5 73.7 65.3 73.8 65 C 74 64.7 74 64.4 74 63.9 C 74 63.9 74 63.6 74 63.6 Z M 76.7 66.6 L 76.7 60.5 L 77.6 60.5 C 77.6 60.5 77.58 61.4 77.6 61.4 C 78 60.7 78.7 60.4 79.5 60.4 C 79.9 60.4 80.2 60.5 80.5 60.6 C 80.8 60.7 81.1 60.9 81.2 61.1 C 81.4 61.3 81.5 61.6 81.5 61.9 C 81.6 62.1 81.6 62.4 81.6 62.9 C 81.59 62.88 81.6 66.6 81.6 66.6 L 80.6 66.6 C 80.6 66.6 80.56 62.92 80.6 62.9 C 80.6 62.5 80.5 62.2 80.4 62 C 80.4 61.8 80.2 61.6 80 61.5 C 79.8 61.4 79.6 61.3 79.3 61.3 C 78.9 61.3 78.5 61.4 78.2 61.7 C 77.8 62 77.7 62.5 77.7 63.3 C 77.68 63.29 77.7 66.6 77.7 66.6 L 76.7 66.6 Z M 87.1 66.6 C 87.1 66.6 87.12 65.85 87.1 65.9 C 86.7 66.5 86.2 66.8 85.4 66.8 C 84.9 66.8 84.5 66.6 84.1 66.4 C 83.7 66.1 83.4 65.7 83.1 65.2 C 82.9 64.8 82.8 64.2 82.8 63.6 C 82.8 63 82.9 62.4 83.1 61.9 C 83.3 61.4 83.6 61.1 84 60.8 C 84.4 60.5 84.9 60.4 85.4 60.4 C 85.7 60.4 86.1 60.5 86.4 60.6 C 86.6 60.8 86.9 61 87.1 61.2 C 87.05 61.23 87.1 58.2 87.1 58.2 L 88.1 58.2 L 88.1 66.6 L 87.1 66.6 Z M 83.9 63.6 C 83.9 64.4 84 64.9 84.4 65.3 C 84.7 65.7 85.1 65.9 85.5 65.9 C 86 65.9 86.4 65.7 86.7 65.4 C 87 65 87.1 64.4 87.1 63.7 C 87.1 62.8 87 62.2 86.7 61.8 C 86.3 61.4 85.9 61.2 85.5 61.2 C 85 61.2 84.6 61.4 84.3 61.8 C 84 62.2 83.9 62.8 83.9 63.6 Z M 92.9 66.6 L 92.9 60.5 L 93.9 60.5 C 93.9 60.5 93.88 61.46 93.9 61.5 C 94.1 61 94.3 60.7 94.5 60.6 C 94.7 60.5 95 60.4 95.2 60.4 C 95.5 60.4 95.9 60.5 96.3 60.7 C 96.3 60.7 95.9 61.7 95.9 61.7 C 95.6 61.5 95.4 61.5 95.1 61.5 C 94.9 61.5 94.7 61.5 94.5 61.7 C 94.4 61.8 94.2 62 94.2 62.2 C 94 62.6 94 63 94 63.4 C 93.98 63.43 94 66.6 94 66.6 L 92.9 66.6 Z M 101 64.7 C 101 64.7 102.1 64.8 102.1 64.8 C 101.9 65.4 101.6 65.9 101.2 66.2 C 100.7 66.6 100.1 66.8 99.4 66.8 C 98.5 66.8 97.8 66.5 97.3 65.9 C 96.8 65.4 96.5 64.6 96.5 63.6 C 96.5 62.6 96.8 61.8 97.3 61.2 C 97.8 60.7 98.5 60.4 99.4 60.4 C 100.2 60.4 100.8 60.7 101.4 61.2 C 101.9 61.8 102.1 62.6 102.1 63.6 C 102.1 63.6 102.1 63.7 102.1 63.8 C 102.1 63.8 97.6 63.8 97.6 63.8 C 97.6 64.5 97.8 65 98.2 65.4 C 98.5 65.7 98.9 65.9 99.4 65.9 C 99.8 65.9 100.1 65.8 100.4 65.6 C 100.7 65.4 100.9 65.1 101 64.7 Z M 97.6 63 C 97.6 63 101 63 101 63 C 101 62.5 100.9 62.1 100.7 61.8 C 100.3 61.4 99.9 61.2 99.4 61.2 C 98.9 61.2 98.5 61.4 98.2 61.7 C 97.9 62 97.7 62.5 97.6 63 Z M 103 64.8 C 103 64.8 104 64.6 104 64.6 C 104.1 65 104.2 65.4 104.5 65.6 C 104.7 65.8 105.1 65.9 105.6 65.9 C 106.1 65.9 106.4 65.8 106.6 65.6 C 106.9 65.4 107 65.2 107 64.9 C 107 64.7 106.9 64.5 106.7 64.4 C 106.5 64.3 106.2 64.2 105.6 64 C 104.9 63.8 104.3 63.7 104 63.5 C 103.8 63.4 103.5 63.2 103.4 63 C 103.2 62.7 103.2 62.4 103.2 62.1 C 103.2 61.9 103.2 61.6 103.3 61.4 C 103.5 61.2 103.6 61 103.8 60.8 C 104 60.7 104.2 60.6 104.5 60.5 C 104.8 60.4 105.1 60.4 105.4 60.4 C 105.9 60.4 106.3 60.5 106.7 60.6 C 107 60.7 107.3 60.9 107.5 61.2 C 107.6 61.4 107.7 61.7 107.8 62.1 C 107.8 62.1 106.8 62.2 106.8 62.2 C 106.8 61.9 106.6 61.7 106.4 61.5 C 106.2 61.3 105.9 61.2 105.5 61.2 C 105 61.2 104.7 61.3 104.5 61.5 C 104.3 61.6 104.2 61.8 104.2 62 C 104.2 62.2 104.2 62.3 104.3 62.4 C 104.4 62.5 104.5 62.6 104.7 62.7 C 104.8 62.7 105.1 62.8 105.6 62.9 C 106.3 63.1 106.8 63.3 107.1 63.4 C 107.4 63.5 107.6 63.7 107.8 63.9 C 108 64.2 108 64.5 108 64.8 C 108 65.2 107.9 65.5 107.7 65.8 C 107.5 66.1 107.2 66.3 106.9 66.5 C 106.5 66.7 106.1 66.8 105.6 66.8 C 104.8 66.8 104.2 66.6 103.8 66.3 C 103.4 65.9 103.1 65.4 103 64.8 Z M 108.9 63.6 C 108.9 62.4 109.2 61.6 109.8 61.1 C 110.3 60.6 111 60.4 111.7 60.4 C 112.6 60.4 113.3 60.7 113.8 61.2 C 114.3 61.8 114.6 62.5 114.6 63.5 C 114.6 64.3 114.5 64.9 114.2 65.3 C 114 65.8 113.6 66.1 113.2 66.4 C 112.8 66.6 112.3 66.8 111.7 66.8 C 110.9 66.8 110.2 66.5 109.7 65.9 C 109.1 65.4 108.9 64.6 108.9 63.6 Z M 109.9 63.6 C 109.9 64.4 110.1 64.9 110.4 65.3 C 110.8 65.7 111.2 65.9 111.7 65.9 C 112.2 65.9 112.7 65.7 113 65.3 C 113.3 64.9 113.5 64.3 113.5 63.5 C 113.5 62.8 113.3 62.2 113 61.8 C 112.7 61.4 112.2 61.2 111.7 61.2 C 111.2 61.2 110.8 61.4 110.4 61.8 C 110.1 62.2 109.9 62.8 109.9 63.6 Z M 115.8 66.6 L 115.8 60.5 L 116.7 60.5 C 116.7 60.5 116.71 61.4 116.7 61.4 C 117.2 60.7 117.8 60.4 118.7 60.4 C 119 60.4 119.4 60.5 119.7 60.6 C 120 60.7 120.2 60.9 120.4 61.1 C 120.5 61.3 120.6 61.6 120.7 61.9 C 120.7 62.1 120.7 62.4 120.7 62.9 C 120.73 62.88 120.7 66.6 120.7 66.6 L 119.7 66.6 C 119.7 66.6 119.7 62.92 119.7 62.9 C 119.7 62.5 119.7 62.2 119.6 62 C 119.5 61.8 119.4 61.6 119.2 61.5 C 118.9 61.4 118.7 61.3 118.4 61.3 C 118 61.3 117.6 61.4 117.3 61.7 C 117 62 116.8 62.5 116.8 63.3 C 116.82 63.29 116.8 66.6 116.8 66.6 L 115.8 66.6 Z M 126.5 66.6 C 126.4 66.4 126.3 66.2 126.3 65.9 C 125.9 66.2 125.5 66.4 125.2 66.6 C 124.8 66.7 124.4 66.8 124 66.8 C 123.4 66.8 122.9 66.6 122.5 66.3 C 122.1 65.9 122 65.5 122 65 C 122 64.7 122 64.4 122.2 64.2 C 122.3 64 122.5 63.8 122.7 63.6 C 122.9 63.5 123.2 63.3 123.4 63.3 C 123.6 63.2 123.9 63.2 124.4 63.1 C 125.2 63 125.8 62.9 126.2 62.8 C 126.2 62.6 126.2 62.5 126.2 62.5 C 126.2 62.1 126.1 61.8 125.9 61.6 C 125.6 61.4 125.3 61.2 124.7 61.2 C 124.3 61.2 123.9 61.3 123.7 61.5 C 123.4 61.7 123.3 62 123.1 62.4 C 123.1 62.4 122.1 62.3 122.1 62.3 C 122.2 61.8 122.4 61.5 122.6 61.2 C 122.8 61 123.1 60.8 123.5 60.6 C 123.9 60.5 124.4 60.4 124.9 60.4 C 125.4 60.4 125.8 60.5 126.2 60.6 C 126.5 60.7 126.7 60.9 126.9 61 C 127 61.2 127.1 61.5 127.2 61.7 C 127.2 61.9 127.2 62.2 127.2 62.7 C 127.2 62.7 127.2 64.1 127.2 64.1 C 127.2 65 127.3 65.6 127.3 65.9 C 127.3 66.1 127.4 66.4 127.6 66.6 C 127.57 66.62 126.5 66.6 126.5 66.6 C 126.5 66.6 126.49 66.62 126.5 66.6 Z M 126.2 63.6 C 125.8 63.7 125.3 63.8 124.5 64 C 124.1 64 123.8 64.1 123.6 64.2 C 123.4 64.2 123.3 64.3 123.2 64.5 C 123.1 64.6 123.1 64.8 123.1 65 C 123.1 65.3 123.2 65.5 123.4 65.7 C 123.6 65.9 123.9 65.9 124.3 65.9 C 124.7 65.9 125 65.9 125.3 65.7 C 125.7 65.5 125.9 65.3 126 65 C 126.1 64.7 126.2 64.4 126.2 63.9 C 126.2 63.9 126.2 63.6 126.2 63.6 Z M 130.6 65.7 C 130.8 65.7 130.9 65.7 131.1 65.7 C 131.1 65.7 131.2 66.6 131.2 66.6 C 130.9 66.7 130.7 66.7 130.5 66.7 C 130.1 66.7 129.8 66.6 129.6 66.5 C 129.4 66.4 129.2 66.2 129.2 66.1 C 129.1 65.9 129 65.5 129 64.8 C 129.03 64.84 129 61.3 129 61.3 L 128.3 61.3 L 128.3 60.5 L 129 60.5 L 129 59 L 130.1 58.4 L 130.1 60.5 L 131.1 60.5 L 131.1 61.3 L 130.1 61.3 C 130.1 61.3 130.05 64.89 130.1 64.9 C 130.1 65.2 130.1 65.4 130.1 65.5 C 130.1 65.5 130.2 65.6 130.3 65.7 C 130.4 65.7 130.5 65.7 130.6 65.7 C 130.6 65.7 130.6 65.7 130.6 65.7 Z M 136.3 64.7 C 136.3 64.7 137.3 64.8 137.3 64.8 C 137.2 65.4 136.8 65.9 136.4 66.2 C 135.9 66.6 135.4 66.8 134.7 66.8 C 133.8 66.8 133.1 66.5 132.5 65.9 C 132 65.4 131.8 64.6 131.8 63.6 C 131.8 62.6 132 61.8 132.5 61.2 C 133.1 60.7 133.8 60.4 134.6 60.4 C 135.4 60.4 136.1 60.7 136.6 61.2 C 137.1 61.8 137.4 62.6 137.4 63.6 C 137.4 63.6 137.4 63.7 137.4 63.8 C 137.4 63.8 132.8 63.8 132.8 63.8 C 132.9 64.5 133 65 133.4 65.4 C 133.7 65.7 134.2 65.9 134.7 65.9 C 135 65.9 135.4 65.8 135.6 65.6 C 135.9 65.4 136.1 65.1 136.3 64.7 Z M 132.9 63 C 132.9 63 136.3 63 136.3 63 C 136.2 62.5 136.1 62.1 135.9 61.8 C 135.6 61.4 135.1 61.2 134.6 61.2 C 134.1 61.2 133.7 61.4 133.4 61.7 C 133.1 62 132.9 62.5 132.9 63 Z M 143 66.6 L 141.1 60.5 L 142.2 60.5 L 143.2 64 C 143.2 64 143.54 65.35 143.5 65.4 C 143.6 65.3 143.7 64.9 143.9 64.1 C 143.85 64.1 144.8 60.5 144.8 60.5 L 145.9 60.5 L 146.8 64.1 L 147.1 65.2 L 147.4 64.1 L 148.5 60.5 L 149.5 60.5 L 147.6 66.6 L 146.5 66.6 L 145.5 63 L 145.3 61.9 L 144.1 66.6 L 143 66.6 Z M 150.4 59.4 L 150.4 58.2 L 151.4 58.2 L 151.4 59.4 L 150.4 59.4 Z M 150.4 66.6 L 150.4 60.5 L 151.4 60.5 L 151.4 66.6 L 150.4 66.6 Z M 154.8 65.7 C 154.9 65.7 155 65.7 155.2 65.7 C 155.2 65.7 155.4 66.6 155.4 66.6 C 155.1 66.7 154.8 66.7 154.6 66.7 C 154.2 66.7 153.9 66.6 153.7 66.5 C 153.5 66.4 153.4 66.2 153.3 66.1 C 153.2 65.9 153.2 65.5 153.2 64.8 C 153.15 64.84 153.2 61.3 153.2 61.3 L 152.4 61.3 L 152.4 60.5 L 153.2 60.5 L 153.2 59 L 154.2 58.4 L 154.2 60.5 L 155.2 60.5 L 155.2 61.3 L 154.2 61.3 C 154.2 61.3 154.18 64.89 154.2 64.9 C 154.2 65.2 154.2 65.4 154.2 65.5 C 154.3 65.5 154.3 65.6 154.4 65.7 C 154.5 65.7 154.6 65.7 154.8 65.7 C 154.8 65.7 154.8 65.7 154.8 65.7 Z M 156.2 66.6 L 156.2 58.2 L 157.3 58.2 C 157.3 58.2 157.25 61.23 157.3 61.2 C 157.7 60.7 158.3 60.4 159.1 60.4 C 159.5 60.4 159.9 60.5 160.3 60.7 C 160.6 60.8 160.8 61.1 161 61.4 C 161.1 61.7 161.2 62.2 161.2 62.8 C 161.18 62.76 161.2 66.6 161.2 66.6 L 160.1 66.6 C 160.1 66.6 160.15 62.76 160.1 62.8 C 160.1 62.2 160 61.9 159.8 61.6 C 159.6 61.4 159.3 61.3 158.9 61.3 C 158.6 61.3 158.3 61.4 158 61.5 C 157.7 61.7 157.5 61.9 157.4 62.2 C 157.3 62.4 157.3 62.8 157.3 63.3 C 157.25 63.29 157.3 66.6 157.3 66.6 L 156.2 66.6 Z M 166.6 69.1 C 166.4 69.1 166.2 69 166 69 C 166 69 165.8 68 165.8 68 C 166.1 68.1 166.3 68.1 166.4 68.1 C 166.7 68.1 166.9 68 167 68 C 167.1 67.9 167.2 67.8 167.3 67.6 C 167.4 67.5 167.5 67.3 167.6 66.9 C 167.7 66.8 167.7 66.7 167.7 66.6 C 167.73 66.63 165.4 60.5 165.4 60.5 L 166.5 60.5 C 166.5 60.5 167.8 64.06 167.8 64.1 C 168 64.5 168.1 65 168.2 65.5 C 168.4 65 168.5 64.5 168.7 64.1 C 168.67 64.08 170 60.5 170 60.5 L 171 60.5 C 171 60.5 168.68 66.72 168.7 66.7 C 168.4 67.4 168.2 67.8 168.1 68.1 C 167.9 68.4 167.7 68.7 167.5 68.8 C 167.2 69 167 69.1 166.6 69.1 C 166.6 69.1 166.6 69.1 166.6 69.1 Z M 171.5 63.6 C 171.5 62.4 171.8 61.6 172.4 61.1 C 173 60.6 173.6 60.4 174.3 60.4 C 175.2 60.4 175.9 60.7 176.4 61.2 C 176.9 61.8 177.2 62.5 177.2 63.5 C 177.2 64.3 177.1 64.9 176.8 65.3 C 176.6 65.8 176.3 66.1 175.8 66.4 C 175.4 66.6 174.9 66.8 174.3 66.8 C 173.5 66.8 172.8 66.5 172.3 65.9 C 171.8 65.4 171.5 64.6 171.5 63.6 Z M 172.6 63.6 C 172.6 64.4 172.7 64.9 173.1 65.3 C 173.4 65.7 173.8 65.9 174.3 65.9 C 174.9 65.9 175.3 65.7 175.6 65.3 C 176 64.9 176.1 64.3 176.1 63.5 C 176.1 62.8 176 62.2 175.6 61.8 C 175.3 61.4 174.9 61.2 174.3 61.2 C 173.8 61.2 173.4 61.4 173.1 61.8 C 172.7 62.2 172.6 62.8 172.6 63.6 Z M 182.4 66.6 C 182.4 66.6 182.39 65.72 182.4 65.7 C 181.9 66.4 181.3 66.8 180.5 66.8 C 180.1 66.8 179.8 66.7 179.5 66.5 C 179.1 66.4 178.9 66.2 178.8 66 C 178.6 65.8 178.5 65.6 178.4 65.3 C 178.4 65.1 178.4 64.7 178.4 64.3 C 178.38 64.3 178.4 60.5 178.4 60.5 L 179.4 60.5 C 179.4 60.5 179.41 63.91 179.4 63.9 C 179.4 64.4 179.4 64.8 179.5 65 C 179.5 65.3 179.7 65.5 179.9 65.6 C 180.1 65.8 180.4 65.9 180.7 65.9 C 181 65.9 181.3 65.8 181.5 65.6 C 181.8 65.5 182 65.3 182.1 65 C 182.2 64.7 182.3 64.3 182.3 63.8 C 182.28 63.79 182.3 60.5 182.3 60.5 L 183.3 60.5 L 183.3 66.6 L 182.4 66.6 Z M 184.9 66.6 L 184.9 60.5 L 185.8 60.5 C 185.8 60.5 185.84 61.46 185.8 61.5 C 186.1 61 186.3 60.7 186.5 60.6 C 186.7 60.5 186.9 60.4 187.2 60.4 C 187.5 60.4 187.9 60.5 188.2 60.7 C 188.2 60.7 187.9 61.7 187.9 61.7 C 187.6 61.5 187.4 61.5 187.1 61.5 C 186.9 61.5 186.7 61.5 186.5 61.7 C 186.3 61.8 186.2 62 186.1 62.2 C 186 62.6 185.9 63 185.9 63.4 C 185.95 63.43 185.9 66.6 185.9 66.6 L 184.9 66.6 Z " stroke="none" fill="#fff"/>  </g>  <g id="Polygon68371">    <path d="M 19 54.9 L 19 46.5 L 20 46.5 C 20 46.5 19.98 47.24 20 47.2 C 20.2 46.9 20.4 46.7 20.7 46.5 C 21 46.4 21.3 46.3 21.7 46.3 C 22.3 46.3 22.7 46.4 23.1 46.7 C 23.5 47 23.8 47.4 24 47.8 C 24.2 48.3 24.3 48.9 24.3 49.4 C 24.3 50.1 24.2 50.6 24 51.1 C 23.8 51.6 23.4 52 23 52.3 C 22.6 52.5 22.1 52.7 21.7 52.7 C 21.3 52.7 21 52.6 20.7 52.5 C 20.5 52.3 20.2 52.1 20.1 51.9 C 20.07 51.91 20.1 54.9 20.1 54.9 L 19 54.9 Z M 20 49.5 C 20 50.3 20.1 50.9 20.4 51.3 C 20.8 51.6 21.1 51.8 21.6 51.8 C 22.1 51.8 22.4 51.6 22.8 51.2 C 23.1 50.9 23.3 50.3 23.3 49.4 C 23.3 48.7 23.1 48.1 22.8 47.7 C 22.5 47.3 22.1 47.1 21.6 47.1 C 21.2 47.1 20.8 47.3 20.5 47.7 C 20.1 48.2 20 48.7 20 49.5 Z M 25.6 52.5 L 25.6 46.5 L 26.5 46.5 C 26.5 46.5 26.48 47.38 26.5 47.4 C 26.7 46.9 26.9 46.7 27.1 46.5 C 27.3 46.4 27.6 46.3 27.8 46.3 C 28.1 46.3 28.5 46.4 28.9 46.6 C 28.9 46.6 28.5 47.6 28.5 47.6 C 28.3 47.5 28 47.4 27.7 47.4 C 27.5 47.4 27.3 47.4 27.1 47.6 C 27 47.7 26.8 47.9 26.8 48.1 C 26.6 48.5 26.6 48.9 26.6 49.4 C 26.58 49.35 26.6 52.5 26.6 52.5 L 25.6 52.5 Z M 29.1 49.5 C 29.1 48.4 29.4 47.5 30 47 C 30.5 46.5 31.2 46.3 31.9 46.3 C 32.8 46.3 33.5 46.6 34 47.1 C 34.5 47.7 34.8 48.4 34.8 49.4 C 34.8 50.2 34.7 50.8 34.4 51.3 C 34.2 51.7 33.9 52.1 33.4 52.3 C 33 52.6 32.5 52.7 31.9 52.7 C 31.1 52.7 30.4 52.4 29.9 51.9 C 29.3 51.3 29.1 50.5 29.1 49.5 Z M 30.1 49.5 C 30.1 50.3 30.3 50.9 30.7 51.2 C 31 51.6 31.4 51.8 31.9 51.8 C 32.5 51.8 32.9 51.6 33.2 51.2 C 33.6 50.9 33.7 50.3 33.7 49.5 C 33.7 48.7 33.6 48.1 33.2 47.8 C 32.9 47.4 32.4 47.2 31.9 47.2 C 31.4 47.2 31 47.4 30.7 47.7 C 30.3 48.1 30.1 48.7 30.1 49.5 Z M 35.8 53 C 35.8 53 36.8 53.2 36.8 53.2 C 36.9 53.5 37 53.7 37.2 53.9 C 37.4 54.1 37.8 54.2 38.2 54.2 C 38.7 54.2 39.1 54.1 39.3 53.9 C 39.6 53.7 39.7 53.4 39.8 53.1 C 39.9 52.9 39.9 52.4 39.9 51.7 C 39.5 52.3 38.9 52.5 38.2 52.5 C 37.4 52.5 36.7 52.2 36.3 51.6 C 35.8 51 35.6 50.3 35.6 49.5 C 35.6 48.9 35.7 48.3 35.9 47.9 C 36.1 47.4 36.4 47 36.8 46.7 C 37.2 46.4 37.7 46.3 38.2 46.3 C 39 46.3 39.5 46.6 40 47.2 C 40.01 47.19 40 46.5 40 46.5 L 41 46.5 C 41 46.5 40.96 51.71 41 51.7 C 41 52.7 40.9 53.3 40.7 53.7 C 40.5 54.1 40.2 54.4 39.8 54.7 C 39.3 54.9 38.8 55 38.2 55 C 37.5 55 36.9 54.8 36.5 54.5 C 36 54.2 35.8 53.7 35.8 53 Z M 36.7 49.4 C 36.7 50.2 36.8 50.8 37.1 51.1 C 37.5 51.5 37.9 51.7 38.3 51.7 C 38.8 51.7 39.2 51.5 39.5 51.1 C 39.8 50.8 40 50.2 40 49.4 C 40 48.7 39.8 48.1 39.5 47.7 C 39.2 47.4 38.8 47.2 38.3 47.2 C 37.9 47.2 37.5 47.4 37.1 47.7 C 36.8 48.1 36.7 48.7 36.7 49.4 Z M 42.5 52.5 L 42.5 46.5 L 43.4 46.5 C 43.4 46.5 43.44 47.38 43.4 47.4 C 43.7 46.9 43.9 46.7 44.1 46.5 C 44.3 46.4 44.5 46.3 44.8 46.3 C 45.1 46.3 45.5 46.4 45.8 46.6 C 45.8 46.6 45.5 47.6 45.5 47.6 C 45.2 47.5 45 47.4 44.7 47.4 C 44.5 47.4 44.3 47.4 44.1 47.6 C 43.9 47.7 43.8 47.9 43.7 48.1 C 43.6 48.5 43.5 48.9 43.5 49.4 C 43.54 49.35 43.5 52.5 43.5 52.5 L 42.5 52.5 Z M 50.6 52.5 C 50.5 52.3 50.4 52.1 50.4 51.8 C 50 52.1 49.6 52.3 49.3 52.5 C 48.9 52.6 48.6 52.7 48.2 52.7 C 47.5 52.7 47 52.5 46.6 52.2 C 46.3 51.9 46.1 51.4 46.1 50.9 C 46.1 50.6 46.1 50.4 46.3 50.1 C 46.4 49.9 46.6 49.7 46.8 49.5 C 47 49.4 47.3 49.3 47.6 49.2 C 47.8 49.1 48.1 49.1 48.5 49 C 49.3 48.9 49.9 48.8 50.3 48.7 C 50.3 48.5 50.3 48.4 50.3 48.4 C 50.3 48 50.2 47.7 50 47.5 C 49.8 47.3 49.4 47.2 48.9 47.2 C 48.4 47.2 48 47.3 47.8 47.4 C 47.5 47.6 47.4 47.9 47.3 48.3 C 47.3 48.3 46.3 48.2 46.3 48.2 C 46.3 47.8 46.5 47.4 46.7 47.1 C 46.9 46.9 47.2 46.7 47.6 46.5 C 48 46.4 48.5 46.3 49 46.3 C 49.5 46.3 49.9 46.4 50.3 46.5 C 50.6 46.6 50.8 46.8 51 47 C 51.1 47.1 51.2 47.4 51.3 47.7 C 51.3 47.8 51.4 48.2 51.4 48.6 C 51.4 48.6 51.4 50 51.4 50 C 51.4 50.9 51.4 51.6 51.4 51.8 C 51.5 52.1 51.6 52.3 51.7 52.5 C 51.68 52.54 50.6 52.5 50.6 52.5 C 50.6 52.5 50.61 52.54 50.6 52.5 Z M 50.3 49.5 C 49.9 49.6 49.4 49.8 48.6 49.9 C 48.2 49.9 47.9 50 47.7 50.1 C 47.6 50.2 47.4 50.3 47.3 50.4 C 47.2 50.6 47.2 50.7 47.2 50.9 C 47.2 51.2 47.3 51.4 47.5 51.6 C 47.7 51.8 48 51.9 48.4 51.9 C 48.8 51.9 49.2 51.8 49.5 51.6 C 49.8 51.4 50 51.2 50.1 50.9 C 50.3 50.7 50.3 50.3 50.3 49.9 C 50.3 49.9 50.3 49.5 50.3 49.5 Z M 53 52.5 L 53 46.5 L 53.9 46.5 C 53.9 46.5 53.88 47.31 53.9 47.3 C 54.1 47 54.3 46.8 54.6 46.6 C 55 46.4 55.3 46.3 55.7 46.3 C 56.2 46.3 56.5 46.4 56.8 46.6 C 57.1 46.8 57.3 47 57.4 47.4 C 57.9 46.7 58.5 46.3 59.3 46.3 C 59.9 46.3 60.4 46.5 60.7 46.8 C 61 47.2 61.2 47.7 61.2 48.4 C 61.2 48.36 61.2 52.5 61.2 52.5 L 60.2 52.5 C 60.2 52.5 60.17 48.7 60.2 48.7 C 60.2 48.3 60.1 48 60.1 47.8 C 60 47.6 59.9 47.5 59.7 47.4 C 59.5 47.3 59.3 47.2 59.1 47.2 C 58.7 47.2 58.3 47.4 58 47.6 C 57.7 47.9 57.6 48.4 57.6 49 C 57.6 49 57.6 52.5 57.6 52.5 L 56.6 52.5 C 56.6 52.5 56.57 48.58 56.6 48.6 C 56.6 48.1 56.5 47.8 56.3 47.6 C 56.1 47.3 55.9 47.2 55.5 47.2 C 55.2 47.2 54.9 47.3 54.7 47.4 C 54.4 47.6 54.3 47.8 54.2 48.1 C 54 48.4 54 48.8 54 49.4 C 53.99 49.38 54 52.5 54 52.5 L 53 52.5 Z M 62.7 52.5 L 62.7 46.5 L 63.7 46.5 C 63.7 46.5 63.65 47.31 63.7 47.3 C 63.8 47 64.1 46.8 64.4 46.6 C 64.7 46.4 65.1 46.3 65.5 46.3 C 65.9 46.3 66.3 46.4 66.6 46.6 C 66.9 46.8 67.1 47 67.2 47.4 C 67.7 46.7 68.3 46.3 69.1 46.3 C 69.7 46.3 70.2 46.5 70.5 46.8 C 70.8 47.2 71 47.7 71 48.4 C 70.97 48.36 71 52.5 71 52.5 L 69.9 52.5 C 69.9 52.5 69.95 48.7 69.9 48.7 C 69.9 48.3 69.9 48 69.8 47.8 C 69.8 47.6 69.7 47.5 69.5 47.4 C 69.3 47.3 69.1 47.2 68.9 47.2 C 68.4 47.2 68.1 47.4 67.8 47.6 C 67.5 47.9 67.4 48.4 67.4 49 C 67.37 49 67.4 52.5 67.4 52.5 L 66.3 52.5 C 66.3 52.5 66.34 48.58 66.3 48.6 C 66.3 48.1 66.3 47.8 66.1 47.6 C 65.9 47.3 65.6 47.2 65.3 47.2 C 65 47.2 64.7 47.3 64.5 47.4 C 64.2 47.6 64 47.8 63.9 48.1 C 63.8 48.4 63.8 48.8 63.8 49.4 C 63.76 49.38 63.8 52.5 63.8 52.5 L 62.7 52.5 Z M 76.7 50.6 C 76.7 50.6 77.7 50.7 77.7 50.7 C 77.6 51.3 77.3 51.8 76.8 52.2 C 76.3 52.5 75.8 52.7 75.1 52.7 C 74.2 52.7 73.5 52.4 72.9 51.9 C 72.4 51.3 72.2 50.5 72.2 49.5 C 72.2 48.5 72.4 47.7 72.9 47.2 C 73.5 46.6 74.2 46.3 75 46.3 C 75.8 46.3 76.5 46.6 77 47.1 C 77.5 47.7 77.8 48.5 77.8 49.5 C 77.8 49.5 77.8 49.6 77.8 49.8 C 77.8 49.8 73.2 49.8 73.2 49.8 C 73.3 50.4 73.5 50.9 73.8 51.3 C 74.1 51.6 74.6 51.8 75.1 51.8 C 75.4 51.8 75.8 51.7 76 51.5 C 76.3 51.3 76.5 51 76.7 50.6 Z M 73.3 48.9 C 73.3 48.9 76.7 48.9 76.7 48.9 C 76.6 48.4 76.5 48 76.3 47.8 C 76 47.4 75.5 47.2 75 47.2 C 74.5 47.2 74.1 47.3 73.8 47.6 C 73.5 48 73.3 48.4 73.3 48.9 Z M 78.6 50.7 C 78.6 50.7 79.6 50.6 79.6 50.6 C 79.7 51 79.9 51.3 80.1 51.5 C 80.4 51.7 80.7 51.8 81.2 51.8 C 81.7 51.8 82 51.7 82.3 51.5 C 82.5 51.3 82.6 51.1 82.6 50.9 C 82.6 50.6 82.5 50.4 82.3 50.3 C 82.2 50.2 81.8 50.1 81.3 50 C 80.5 49.8 80 49.6 79.7 49.5 C 79.4 49.3 79.2 49.1 79 48.9 C 78.9 48.6 78.8 48.4 78.8 48.1 C 78.8 47.8 78.8 47.5 79 47.3 C 79.1 47.1 79.3 46.9 79.5 46.7 C 79.6 46.6 79.9 46.5 80.1 46.4 C 80.4 46.4 80.7 46.3 81 46.3 C 81.5 46.3 81.9 46.4 82.3 46.5 C 82.6 46.7 82.9 46.8 83.1 47.1 C 83.3 47.3 83.4 47.6 83.4 48 C 83.4 48 82.4 48.2 82.4 48.2 C 82.4 47.8 82.3 47.6 82 47.4 C 81.8 47.3 81.5 47.2 81.1 47.2 C 80.6 47.2 80.3 47.2 80.1 47.4 C 79.9 47.6 79.8 47.7 79.8 47.9 C 79.8 48.1 79.8 48.2 79.9 48.3 C 80 48.4 80.1 48.5 80.3 48.6 C 80.4 48.6 80.7 48.7 81.2 48.8 C 81.9 49 82.5 49.2 82.7 49.3 C 83 49.5 83.3 49.6 83.4 49.9 C 83.6 50.1 83.7 50.4 83.7 50.8 C 83.7 51.1 83.6 51.4 83.4 51.7 C 83.2 52 82.9 52.3 82.5 52.4 C 82.1 52.6 81.7 52.7 81.2 52.7 C 80.4 52.7 79.8 52.5 79.4 52.2 C 79 51.9 78.7 51.4 78.6 50.7 Z M 89.3 52.5 L 87.4 46.5 L 88.5 46.5 L 89.4 50 C 89.4 50 89.81 51.27 89.8 51.3 C 89.8 51.2 89.9 50.8 90.1 50 C 90.13 50.02 91.1 46.5 91.1 46.5 L 92.2 46.5 L 93.1 50 L 93.4 51.1 L 93.7 50 L 94.8 46.5 L 95.8 46.5 L 93.9 52.5 L 92.8 52.5 L 91.8 48.9 L 91.6 47.9 L 90.4 52.5 L 89.3 52.5 Z M 96.6 52.5 L 96.6 44.1 L 97.7 44.1 C 97.7 44.1 97.66 47.15 97.7 47.2 C 98.1 46.6 98.7 46.3 99.5 46.3 C 99.9 46.3 100.3 46.4 100.7 46.6 C 101 46.8 101.2 47 101.4 47.3 C 101.5 47.6 101.6 48.1 101.6 48.7 C 101.58 48.68 101.6 52.5 101.6 52.5 L 100.6 52.5 C 100.6 52.5 100.55 48.68 100.6 48.7 C 100.6 48.2 100.4 47.8 100.2 47.6 C 100 47.3 99.7 47.2 99.3 47.2 C 99 47.2 98.7 47.3 98.4 47.4 C 98.1 47.6 97.9 47.8 97.8 48.1 C 97.7 48.4 97.7 48.7 97.7 49.2 C 97.66 49.21 97.7 52.5 97.7 52.5 L 96.6 52.5 Z M 103.2 45.3 L 103.2 44.1 L 104.2 44.1 L 104.2 45.3 L 103.2 45.3 Z M 103.2 52.5 L 103.2 46.5 L 104.2 46.5 L 104.2 52.5 L 103.2 52.5 Z M 109.7 50.3 C 109.7 50.3 110.7 50.4 110.7 50.4 C 110.6 51.1 110.4 51.7 109.9 52.1 C 109.4 52.5 108.9 52.7 108.2 52.7 C 107.4 52.7 106.7 52.4 106.2 51.9 C 105.7 51.3 105.4 50.5 105.4 49.5 C 105.4 48.9 105.6 48.3 105.8 47.8 C 106 47.3 106.3 46.9 106.8 46.7 C 107.2 46.4 107.7 46.3 108.2 46.3 C 108.9 46.3 109.4 46.5 109.8 46.8 C 110.3 47.2 110.5 47.6 110.6 48.2 C 110.6 48.2 109.6 48.4 109.6 48.4 C 109.5 48 109.4 47.7 109.1 47.5 C 108.9 47.3 108.6 47.2 108.3 47.2 C 107.7 47.2 107.3 47.4 107 47.7 C 106.7 48.1 106.5 48.7 106.5 49.5 C 106.5 50.3 106.7 50.9 107 51.3 C 107.3 51.6 107.7 51.8 108.2 51.8 C 108.6 51.8 108.9 51.7 109.2 51.5 C 109.5 51.2 109.7 50.8 109.7 50.3 Z M 111.6 52.5 L 111.6 44.1 L 112.7 44.1 C 112.7 44.1 112.66 47.15 112.7 47.2 C 113.1 46.6 113.7 46.3 114.5 46.3 C 114.9 46.3 115.3 46.4 115.7 46.6 C 116 46.8 116.2 47 116.4 47.3 C 116.5 47.6 116.6 48.1 116.6 48.7 C 116.58 48.68 116.6 52.5 116.6 52.5 L 115.6 52.5 C 115.6 52.5 115.55 48.68 115.6 48.7 C 115.6 48.2 115.4 47.8 115.2 47.6 C 115 47.3 114.7 47.2 114.3 47.2 C 114 47.2 113.7 47.3 113.4 47.4 C 113.1 47.6 112.9 47.8 112.8 48.1 C 112.7 48.4 112.7 48.7 112.7 49.2 C 112.66 49.21 112.7 52.5 112.7 52.5 L 111.6 52.5 Z M 125.6 52.5 C 125.5 52.3 125.4 52.1 125.4 51.8 C 125 52.1 124.6 52.3 124.3 52.5 C 123.9 52.6 123.5 52.7 123.1 52.7 C 122.5 52.7 122 52.5 121.6 52.2 C 121.2 51.9 121.1 51.4 121.1 50.9 C 121.1 50.6 121.1 50.4 121.3 50.1 C 121.4 49.9 121.6 49.7 121.8 49.5 C 122 49.4 122.3 49.3 122.5 49.2 C 122.7 49.1 123 49.1 123.5 49 C 124.3 48.9 124.9 48.8 125.3 48.7 C 125.3 48.5 125.3 48.4 125.3 48.4 C 125.3 48 125.2 47.7 125 47.5 C 124.7 47.3 124.4 47.2 123.8 47.2 C 123.4 47.2 123 47.3 122.8 47.4 C 122.5 47.6 122.4 47.9 122.2 48.3 C 122.2 48.3 121.2 48.2 121.2 48.2 C 121.3 47.8 121.5 47.4 121.7 47.1 C 121.9 46.9 122.2 46.7 122.6 46.5 C 123 46.4 123.5 46.3 124 46.3 C 124.5 46.3 124.9 46.4 125.3 46.5 C 125.6 46.6 125.8 46.8 126 47 C 126.1 47.1 126.2 47.4 126.3 47.7 C 126.3 47.8 126.3 48.2 126.3 48.6 C 126.3 48.6 126.3 50 126.3 50 C 126.3 50.9 126.4 51.6 126.4 51.8 C 126.4 52.1 126.5 52.3 126.7 52.5 C 126.67 52.54 125.6 52.5 125.6 52.5 C 125.6 52.5 125.59 52.54 125.6 52.5 Z M 125.3 49.5 C 124.9 49.6 124.4 49.8 123.6 49.9 C 123.2 49.9 122.9 50 122.7 50.1 C 122.5 50.2 122.4 50.3 122.3 50.4 C 122.2 50.6 122.2 50.7 122.2 50.9 C 122.2 51.2 122.3 51.4 122.5 51.6 C 122.7 51.8 123 51.9 123.4 51.9 C 123.8 51.9 124.1 51.8 124.4 51.6 C 124.8 51.4 125 51.2 125.1 50.9 C 125.2 50.7 125.3 50.3 125.3 49.9 C 125.3 49.9 125.3 49.5 125.3 49.5 Z M 127.9 52.5 L 127.9 46.5 L 128.9 46.5 C 128.9 46.5 128.85 47.38 128.9 47.4 C 129.1 46.9 129.3 46.7 129.5 46.5 C 129.7 46.4 129.9 46.3 130.2 46.3 C 130.5 46.3 130.9 46.4 131.2 46.6 C 131.2 46.6 130.9 47.6 130.9 47.6 C 130.6 47.5 130.4 47.4 130.1 47.4 C 129.9 47.4 129.7 47.4 129.5 47.6 C 129.3 47.7 129.2 47.9 129.1 48.1 C 129 48.5 129 48.9 129 49.4 C 128.96 49.35 129 52.5 129 52.5 L 127.9 52.5 Z M 136 50.6 C 136 50.6 137.1 50.7 137.1 50.7 C 136.9 51.3 136.6 51.8 136.1 52.2 C 135.7 52.5 135.1 52.7 134.4 52.7 C 133.5 52.7 132.8 52.4 132.3 51.9 C 131.8 51.3 131.5 50.5 131.5 49.5 C 131.5 48.5 131.8 47.7 132.3 47.2 C 132.8 46.6 133.5 46.3 134.3 46.3 C 135.2 46.3 135.8 46.6 136.3 47.1 C 136.9 47.7 137.1 48.5 137.1 49.5 C 137.1 49.5 137.1 49.6 137.1 49.8 C 137.1 49.8 132.6 49.8 132.6 49.8 C 132.6 50.4 132.8 50.9 133.1 51.3 C 133.5 51.6 133.9 51.8 134.4 51.8 C 134.8 51.8 135.1 51.7 135.4 51.5 C 135.6 51.3 135.9 51 136 50.6 Z M 132.6 48.9 C 132.6 48.9 136 48.9 136 48.9 C 136 48.4 135.8 48 135.6 47.8 C 135.3 47.4 134.9 47.2 134.4 47.2 C 133.9 47.2 133.5 47.3 133.2 47.6 C 132.8 48 132.7 48.4 132.6 48.9 Z M 145.8 50.6 C 145.8 50.6 146.9 50.7 146.9 50.7 C 146.7 51.3 146.4 51.8 145.9 52.2 C 145.5 52.5 144.9 52.7 144.2 52.7 C 143.3 52.7 142.6 52.4 142.1 51.9 C 141.5 51.3 141.3 50.5 141.3 49.5 C 141.3 48.5 141.6 47.7 142.1 47.2 C 142.6 46.6 143.3 46.3 144.1 46.3 C 144.9 46.3 145.6 46.6 146.1 47.1 C 146.6 47.7 146.9 48.5 146.9 49.5 C 146.9 49.5 146.9 49.6 146.9 49.8 C 146.9 49.8 142.4 49.8 142.4 49.8 C 142.4 50.4 142.6 50.9 142.9 51.3 C 143.3 51.6 143.7 51.8 144.2 51.8 C 144.6 51.8 144.9 51.7 145.2 51.5 C 145.4 51.3 145.6 51 145.8 50.6 Z M 142.4 48.9 C 142.4 48.9 145.8 48.9 145.8 48.9 C 145.8 48.4 145.6 48 145.4 47.8 C 145.1 47.4 144.7 47.2 144.1 47.2 C 143.7 47.2 143.3 47.3 142.9 47.6 C 142.6 48 142.4 48.4 142.4 48.9 Z M 148.2 52.5 L 148.2 46.5 L 149.1 46.5 C 149.1 46.5 149.08 47.32 149.1 47.3 C 149.5 46.7 150.2 46.3 151 46.3 C 151.4 46.3 151.7 46.4 152 46.5 C 152.3 46.6 152.6 46.8 152.7 47 C 152.9 47.2 153 47.5 153 47.8 C 153.1 48 153.1 48.3 153.1 48.8 C 153.1 48.8 153.1 52.5 153.1 52.5 L 152.1 52.5 C 152.1 52.5 152.07 48.84 152.1 48.8 C 152.1 48.4 152 48.1 151.9 47.9 C 151.9 47.7 151.7 47.5 151.5 47.4 C 151.3 47.3 151.1 47.2 150.8 47.2 C 150.4 47.2 150 47.3 149.7 47.6 C 149.3 47.9 149.2 48.4 149.2 49.2 C 149.19 49.21 149.2 52.5 149.2 52.5 L 148.2 52.5 Z M 154.5 53 C 154.5 53 155.5 53.2 155.5 53.2 C 155.5 53.5 155.7 53.7 155.8 53.9 C 156.1 54.1 156.4 54.2 156.9 54.2 C 157.4 54.2 157.7 54.1 158 53.9 C 158.3 53.7 158.4 53.4 158.5 53.1 C 158.6 52.9 158.6 52.4 158.6 51.7 C 158.1 52.3 157.6 52.5 156.9 52.5 C 156.1 52.5 155.4 52.2 155 51.6 C 154.5 51 154.3 50.3 154.3 49.5 C 154.3 48.9 154.4 48.3 154.6 47.9 C 154.8 47.4 155.1 47 155.5 46.7 C 155.9 46.4 156.4 46.3 156.9 46.3 C 157.6 46.3 158.2 46.6 158.7 47.2 C 158.7 47.19 158.7 46.5 158.7 46.5 L 159.6 46.5 C 159.6 46.5 159.65 51.71 159.6 51.7 C 159.6 52.7 159.6 53.3 159.4 53.7 C 159.2 54.1 158.9 54.4 158.4 54.7 C 158 54.9 157.5 55 156.9 55 C 156.2 55 155.6 54.8 155.1 54.5 C 154.7 54.2 154.5 53.7 154.5 53 Z M 155.3 49.4 C 155.3 50.2 155.5 50.8 155.8 51.1 C 156.1 51.5 156.5 51.7 157 51.7 C 157.5 51.7 157.9 51.5 158.2 51.1 C 158.5 50.8 158.7 50.2 158.7 49.4 C 158.7 48.7 158.5 48.1 158.2 47.7 C 157.9 47.4 157.5 47.2 157 47.2 C 156.5 47.2 156.1 47.4 155.8 47.7 C 155.5 48.1 155.3 48.7 155.3 49.4 Z M 165.4 52.5 C 165.3 52.3 165.2 52.1 165.2 51.8 C 164.8 52.1 164.4 52.3 164.1 52.5 C 163.7 52.6 163.3 52.7 162.9 52.7 C 162.3 52.7 161.8 52.5 161.4 52.2 C 161 51.9 160.9 51.4 160.9 50.9 C 160.9 50.6 160.9 50.4 161.1 50.1 C 161.2 49.9 161.4 49.7 161.6 49.5 C 161.8 49.4 162.1 49.3 162.3 49.2 C 162.5 49.1 162.8 49.1 163.3 49 C 164.1 48.9 164.7 48.8 165.1 48.7 C 165.1 48.5 165.1 48.4 165.1 48.4 C 165.1 48 165 47.7 164.8 47.5 C 164.5 47.3 164.1 47.2 163.6 47.2 C 163.1 47.2 162.8 47.3 162.6 47.4 C 162.3 47.6 162.2 47.9 162 48.3 C 162 48.3 161 48.2 161 48.2 C 161.1 47.8 161.3 47.4 161.5 47.1 C 161.7 46.9 162 46.7 162.4 46.5 C 162.8 46.4 163.3 46.3 163.8 46.3 C 164.3 46.3 164.7 46.4 165 46.5 C 165.4 46.6 165.6 46.8 165.8 47 C 165.9 47.1 166 47.4 166.1 47.7 C 166.1 47.8 166.1 48.2 166.1 48.6 C 166.1 48.6 166.1 50 166.1 50 C 166.1 50.9 166.2 51.6 166.2 51.8 C 166.2 52.1 166.3 52.3 166.5 52.5 C 166.46 52.54 165.4 52.5 165.4 52.5 C 165.4 52.5 165.38 52.54 165.4 52.5 Z M 165.1 49.5 C 164.7 49.6 164.2 49.8 163.4 49.9 C 163 49.9 162.7 50 162.5 50.1 C 162.3 50.2 162.2 50.3 162.1 50.4 C 162 50.6 162 50.7 162 50.9 C 162 51.2 162.1 51.4 162.3 51.6 C 162.5 51.8 162.8 51.9 163.2 51.9 C 163.6 51.9 163.9 51.8 164.2 51.6 C 164.6 51.4 164.8 51.2 164.9 50.9 C 165 50.7 165.1 50.3 165.1 49.9 C 165.1 49.9 165.1 49.5 165.1 49.5 Z M 167.5 53 C 167.5 53 168.5 53.2 168.5 53.2 C 168.6 53.5 168.7 53.7 168.9 53.9 C 169.2 54.1 169.5 54.2 169.9 54.2 C 170.4 54.2 170.8 54.1 171 53.9 C 171.3 53.7 171.5 53.4 171.6 53.1 C 171.6 52.9 171.7 52.4 171.7 51.7 C 171.2 52.3 170.6 52.5 170 52.5 C 169.1 52.5 168.5 52.2 168 51.6 C 167.6 51 167.3 50.3 167.3 49.5 C 167.3 48.9 167.4 48.3 167.7 47.9 C 167.9 47.4 168.2 47 168.6 46.7 C 169 46.4 169.4 46.3 170 46.3 C 170.7 46.3 171.3 46.6 171.7 47.2 C 171.75 47.19 171.7 46.5 171.7 46.5 L 172.7 46.5 C 172.7 46.5 172.7 51.71 172.7 51.7 C 172.7 52.7 172.6 53.3 172.4 53.7 C 172.2 54.1 171.9 54.4 171.5 54.7 C 171.1 54.9 170.6 55 169.9 55 C 169.2 55 168.6 54.8 168.2 54.5 C 167.7 54.2 167.5 53.7 167.5 53 Z M 168.4 49.4 C 168.4 50.2 168.6 50.8 168.9 51.1 C 169.2 51.5 169.6 51.7 170.1 51.7 C 170.5 51.7 170.9 51.5 171.3 51.1 C 171.6 50.8 171.7 50.2 171.7 49.4 C 171.7 48.7 171.6 48.1 171.2 47.7 C 170.9 47.4 170.5 47.2 170 47.2 C 169.6 47.2 169.2 47.4 168.9 47.7 C 168.6 48.1 168.4 48.7 168.4 49.4 Z M 174.3 45.3 L 174.3 44.1 L 175.3 44.1 L 175.3 45.3 L 174.3 45.3 Z M 174.3 52.5 L 174.3 46.5 L 175.3 46.5 L 175.3 52.5 L 174.3 52.5 Z M 176.9 52.5 L 176.9 46.5 L 177.8 46.5 C 177.8 46.5 177.79 47.32 177.8 47.3 C 178.2 46.7 178.9 46.3 179.7 46.3 C 180.1 46.3 180.4 46.4 180.7 46.5 C 181 46.6 181.3 46.8 181.4 47 C 181.6 47.2 181.7 47.5 181.8 47.8 C 181.8 48 181.8 48.3 181.8 48.8 C 181.81 48.8 181.8 52.5 181.8 52.5 L 180.8 52.5 C 180.8 52.5 180.78 48.84 180.8 48.8 C 180.8 48.4 180.7 48.1 180.7 47.9 C 180.6 47.7 180.4 47.5 180.2 47.4 C 180 47.3 179.8 47.2 179.5 47.2 C 179.1 47.2 178.7 47.3 178.4 47.6 C 178.1 47.9 177.9 48.4 177.9 49.2 C 177.9 49.21 177.9 52.5 177.9 52.5 L 176.9 52.5 Z M 183.2 53 C 183.2 53 184.2 53.2 184.2 53.2 C 184.2 53.5 184.4 53.7 184.6 53.9 C 184.8 54.1 185.2 54.2 185.6 54.2 C 186.1 54.2 186.4 54.1 186.7 53.9 C 187 53.7 187.1 53.4 187.2 53.1 C 187.3 52.9 187.3 52.4 187.3 51.7 C 186.9 52.3 186.3 52.5 185.6 52.5 C 184.8 52.5 184.1 52.2 183.7 51.6 C 183.2 51 183 50.3 183 49.5 C 183 48.9 183.1 48.3 183.3 47.9 C 183.5 47.4 183.8 47 184.2 46.7 C 184.6 46.4 185.1 46.3 185.6 46.3 C 186.3 46.3 186.9 46.6 187.4 47.2 C 187.41 47.19 187.4 46.5 187.4 46.5 L 188.4 46.5 C 188.4 46.5 188.36 51.71 188.4 51.7 C 188.4 52.7 188.3 53.3 188.1 53.7 C 187.9 54.1 187.6 54.4 187.2 54.7 C 186.7 54.9 186.2 55 185.6 55 C 184.9 55 184.3 54.8 183.8 54.5 C 183.4 54.2 183.2 53.7 183.2 53 Z M 184.1 49.4 C 184.1 50.2 184.2 50.8 184.5 51.1 C 184.8 51.5 185.2 51.7 185.7 51.7 C 186.2 51.7 186.6 51.5 186.9 51.1 C 187.2 50.8 187.4 50.2 187.4 49.4 C 187.4 48.7 187.2 48.1 186.9 47.7 C 186.6 47.4 186.2 47.2 185.7 47.2 C 185.2 47.2 184.9 47.4 184.5 47.7 C 184.2 48.1 184.1 48.7 184.1 49.4 Z M 190.2 52.5 L 190.2 51.4 L 191.4 51.4 C 191.4 51.4 191.36 52.54 191.4 52.5 C 191.4 53 191.3 53.3 191.1 53.6 C 191 53.8 190.7 54.1 190.4 54.2 C 190.4 54.2 190.1 53.8 190.1 53.8 C 190.3 53.7 190.5 53.5 190.6 53.3 C 190.7 53.2 190.8 52.9 190.8 52.5 C 190.77 52.54 190.2 52.5 190.2 52.5 Z " stroke="none" fill="#fff"/>  </g>  <g id="Polygon68370">    <path d="M 14.5 36.2 C 14.5 36.2 15.5 36.4 15.5 36.4 C 15.4 37.1 15.1 37.6 14.7 38 C 14.2 38.4 13.7 38.6 13 38.6 C 12.2 38.6 11.5 38.3 11 37.8 C 10.5 37.2 10.2 36.5 10.2 35.4 C 10.2 34.8 10.3 34.2 10.6 33.7 C 10.8 33.2 11.1 32.9 11.6 32.6 C 12 32.4 12.5 32.2 13 32.2 C 13.7 32.2 14.2 32.4 14.6 32.7 C 15.1 33.1 15.3 33.5 15.4 34.2 C 15.4 34.2 14.4 34.3 14.4 34.3 C 14.3 33.9 14.2 33.6 13.9 33.4 C 13.7 33.2 13.4 33.1 13.1 33.1 C 12.5 33.1 12.1 33.3 11.8 33.6 C 11.5 34 11.3 34.6 11.3 35.4 C 11.3 36.2 11.5 36.8 11.8 37.2 C 12.1 37.6 12.5 37.7 13 37.7 C 13.4 37.7 13.7 37.6 14 37.4 C 14.3 37.1 14.5 36.7 14.5 36.2 Z M 16 35.4 C 16 34.3 16.4 33.5 17 32.9 C 17.5 32.5 18.1 32.2 18.9 32.2 C 19.7 32.2 20.4 32.5 20.9 33.1 C 21.5 33.6 21.7 34.4 21.7 35.3 C 21.7 36.1 21.6 36.7 21.4 37.2 C 21.2 37.6 20.8 38 20.4 38.2 C 19.9 38.5 19.4 38.6 18.9 38.6 C 18 38.6 17.4 38.3 16.8 37.8 C 16.3 37.2 16 36.4 16 35.4 Z M 17.1 35.4 C 17.1 36.2 17.3 36.8 17.6 37.2 C 17.9 37.6 18.4 37.7 18.9 37.7 C 19.4 37.7 19.8 37.6 20.2 37.2 C 20.5 36.8 20.7 36.2 20.7 35.4 C 20.7 34.6 20.5 34.1 20.2 33.7 C 19.8 33.3 19.4 33.1 18.9 33.1 C 18.4 33.1 17.9 33.3 17.6 33.7 C 17.3 34.1 17.1 34.6 17.1 35.4 Z M 22.9 38.5 L 22.9 32.4 L 23.9 32.4 C 23.9 32.4 23.88 33.24 23.9 33.2 C 24.3 32.6 25 32.2 25.8 32.2 C 26.2 32.2 26.5 32.3 26.8 32.4 C 27.1 32.6 27.4 32.7 27.5 33 C 27.7 33.2 27.8 33.4 27.8 33.7 C 27.9 33.9 27.9 34.2 27.9 34.7 C 27.89 34.72 27.9 38.5 27.9 38.5 L 26.9 38.5 C 26.9 38.5 26.86 34.76 26.9 34.8 C 26.9 34.3 26.8 34 26.7 33.8 C 26.7 33.6 26.5 33.4 26.3 33.3 C 26.1 33.2 25.9 33.1 25.6 33.1 C 25.2 33.1 24.8 33.3 24.5 33.5 C 24.1 33.8 24 34.4 24 35.1 C 23.98 35.13 24 38.5 24 38.5 L 22.9 38.5 Z M 29.1 36.6 C 29.1 36.6 30.1 36.5 30.1 36.5 C 30.1 36.9 30.3 37.2 30.6 37.4 C 30.8 37.6 31.2 37.7 31.7 37.7 C 32.1 37.7 32.5 37.7 32.7 37.5 C 32.9 37.3 33.1 37 33.1 36.8 C 33.1 36.5 33 36.4 32.8 36.2 C 32.6 36.1 32.3 36 31.7 35.9 C 30.9 35.7 30.4 35.5 30.1 35.4 C 29.8 35.2 29.6 35.1 29.5 34.8 C 29.3 34.6 29.2 34.3 29.2 34 C 29.2 33.7 29.3 33.5 29.4 33.2 C 29.5 33 29.7 32.8 29.9 32.7 C 30.1 32.5 30.3 32.4 30.6 32.4 C 30.9 32.3 31.2 32.2 31.5 32.2 C 32 32.2 32.4 32.3 32.7 32.4 C 33.1 32.6 33.4 32.8 33.5 33 C 33.7 33.2 33.8 33.5 33.9 33.9 C 33.9 33.9 32.9 34.1 32.9 34.1 C 32.8 33.8 32.7 33.5 32.5 33.3 C 32.3 33.2 31.9 33.1 31.5 33.1 C 31.1 33.1 30.7 33.2 30.5 33.3 C 30.3 33.5 30.2 33.7 30.2 33.9 C 30.2 34 30.3 34.1 30.4 34.2 C 30.4 34.3 30.6 34.4 30.8 34.5 C 30.9 34.5 31.2 34.6 31.7 34.8 C 32.4 35 32.9 35.1 33.2 35.2 C 33.5 35.4 33.7 35.6 33.9 35.8 C 34 36 34.1 36.3 34.1 36.7 C 34.1 37 34 37.3 33.8 37.6 C 33.6 37.9 33.3 38.2 32.9 38.3 C 32.6 38.5 32.1 38.6 31.7 38.6 C 30.9 38.6 30.3 38.4 29.9 38.1 C 29.4 37.8 29.2 37.3 29.1 36.6 Z M 39.3 38.5 C 39.3 38.5 39.33 37.56 39.3 37.6 C 38.9 38.3 38.2 38.6 37.4 38.6 C 37 38.6 36.7 38.5 36.4 38.4 C 36.1 38.3 35.8 38.1 35.7 37.9 C 35.5 37.7 35.4 37.4 35.4 37.1 C 35.3 36.9 35.3 36.6 35.3 36.1 C 35.32 36.14 35.3 32.4 35.3 32.4 L 36.3 32.4 C 36.3 32.4 36.35 35.75 36.3 35.7 C 36.3 36.3 36.4 36.6 36.4 36.8 C 36.5 37.1 36.6 37.3 36.8 37.5 C 37 37.6 37.3 37.7 37.6 37.7 C 37.9 37.7 38.2 37.6 38.5 37.5 C 38.7 37.3 38.9 37.1 39 36.8 C 39.2 36.5 39.2 36.2 39.2 35.6 C 39.22 35.63 39.2 32.4 39.2 32.4 L 40.3 32.4 L 40.3 38.5 L 39.3 38.5 Z M 41.8 38.5 L 41.8 30.1 L 42.9 30.1 L 42.9 38.5 L 41.8 38.5 Z M 46.3 37.6 C 46.4 37.6 46.5 37.6 46.7 37.5 C 46.7 37.5 46.9 38.4 46.9 38.4 C 46.6 38.5 46.3 38.5 46.1 38.5 C 45.7 38.5 45.4 38.5 45.2 38.4 C 45 38.2 44.9 38.1 44.8 37.9 C 44.7 37.7 44.7 37.3 44.7 36.7 C 44.66 36.68 44.7 33.2 44.7 33.2 L 43.9 33.2 L 43.9 32.4 L 44.7 32.4 L 44.7 30.9 L 45.7 30.2 L 45.7 32.4 L 46.7 32.4 L 46.7 33.2 L 45.7 33.2 C 45.7 33.2 45.69 36.73 45.7 36.7 C 45.7 37 45.7 37.2 45.7 37.3 C 45.8 37.4 45.8 37.5 45.9 37.5 C 46 37.6 46.1 37.6 46.3 37.6 C 46.3 37.6 46.3 37.6 46.3 37.6 Z M 51.9 38.5 C 51.8 38.2 51.7 38 51.7 37.7 C 51.3 38 51 38.3 50.6 38.4 C 50.2 38.5 49.9 38.6 49.5 38.6 C 48.8 38.6 48.3 38.4 47.9 38.1 C 47.6 37.8 47.4 37.4 47.4 36.9 C 47.4 36.6 47.5 36.3 47.6 36 C 47.7 35.8 47.9 35.6 48.1 35.4 C 48.3 35.3 48.6 35.2 48.9 35.1 C 49.1 35.1 49.4 35 49.8 35 C 50.6 34.9 51.2 34.7 51.6 34.6 C 51.6 34.5 51.6 34.4 51.6 34.3 C 51.6 33.9 51.5 33.6 51.3 33.4 C 51.1 33.2 50.7 33.1 50.2 33.1 C 49.7 33.1 49.3 33.2 49.1 33.3 C 48.9 33.5 48.7 33.8 48.6 34.2 C 48.6 34.2 47.6 34.1 47.6 34.1 C 47.7 33.7 47.8 33.3 48 33.1 C 48.2 32.8 48.5 32.6 48.9 32.5 C 49.3 32.3 49.8 32.2 50.3 32.2 C 50.8 32.2 51.2 32.3 51.6 32.4 C 51.9 32.5 52.1 32.7 52.3 32.9 C 52.4 33.1 52.5 33.3 52.6 33.6 C 52.6 33.8 52.7 34.1 52.7 34.5 C 52.7 34.5 52.7 35.9 52.7 35.9 C 52.7 36.9 52.7 37.5 52.7 37.7 C 52.8 38 52.9 38.2 53 38.5 C 52.99 38.46 51.9 38.5 51.9 38.5 C 51.9 38.5 51.91 38.46 51.9 38.5 Z M 51.6 35.4 C 51.2 35.6 50.7 35.7 49.9 35.8 C 49.5 35.9 49.2 35.9 49 36 C 48.9 36.1 48.7 36.2 48.6 36.3 C 48.5 36.5 48.5 36.6 48.5 36.8 C 48.5 37.1 48.6 37.3 48.8 37.5 C 49 37.7 49.3 37.8 49.7 37.8 C 50.1 37.8 50.5 37.7 50.8 37.5 C 51.1 37.4 51.3 37.1 51.5 36.8 C 51.6 36.6 51.6 36.2 51.6 35.8 C 51.6 35.8 51.6 35.4 51.6 35.4 Z M 54.3 38.5 L 54.3 32.4 L 55.2 32.4 C 55.2 32.4 55.19 33.24 55.2 33.2 C 55.6 32.6 56.3 32.2 57.1 32.2 C 57.5 32.2 57.8 32.3 58.1 32.4 C 58.4 32.6 58.7 32.7 58.8 33 C 59 33.2 59.1 33.4 59.1 33.7 C 59.2 33.9 59.2 34.2 59.2 34.7 C 59.2 34.72 59.2 38.5 59.2 38.5 L 58.2 38.5 C 58.2 38.5 58.17 34.76 58.2 34.8 C 58.2 34.3 58.1 34 58.1 33.8 C 58 33.6 57.8 33.4 57.6 33.3 C 57.4 33.2 57.2 33.1 56.9 33.1 C 56.5 33.1 56.1 33.3 55.8 33.5 C 55.4 33.8 55.3 34.4 55.3 35.1 C 55.29 35.13 55.3 38.5 55.3 38.5 L 54.3 38.5 Z M 64.8 36.2 C 64.8 36.2 65.8 36.4 65.8 36.4 C 65.7 37.1 65.4 37.6 64.9 38 C 64.5 38.4 63.9 38.6 63.2 38.6 C 62.4 38.6 61.7 38.3 61.2 37.8 C 60.7 37.2 60.5 36.5 60.5 35.4 C 60.5 34.8 60.6 34.2 60.8 33.7 C 61 33.2 61.3 32.9 61.8 32.6 C 62.2 32.4 62.7 32.2 63.2 32.2 C 63.9 32.2 64.4 32.4 64.9 32.7 C 65.3 33.1 65.6 33.5 65.7 34.2 C 65.7 34.2 64.7 34.3 64.7 34.3 C 64.6 33.9 64.4 33.6 64.2 33.4 C 63.9 33.2 63.6 33.1 63.3 33.1 C 62.8 33.1 62.3 33.3 62 33.6 C 61.7 34 61.5 34.6 61.5 35.4 C 61.5 36.2 61.7 36.8 62 37.2 C 62.3 37.6 62.7 37.7 63.2 37.7 C 63.6 37.7 64 37.6 64.2 37.4 C 64.5 37.1 64.7 36.7 64.8 36.2 Z M 67.3 40.9 C 67.1 40.9 66.8 40.9 66.6 40.8 C 66.6 40.8 66.5 39.8 66.5 39.8 C 66.7 39.9 66.9 39.9 67.1 39.9 C 67.3 39.9 67.5 39.9 67.6 39.8 C 67.8 39.7 67.9 39.6 68 39.5 C 68 39.4 68.1 39.1 68.3 38.7 C 68.3 38.7 68.3 38.6 68.4 38.5 C 68.37 38.47 66.1 32.4 66.1 32.4 L 67.2 32.4 C 67.2 32.4 68.44 35.9 68.4 35.9 C 68.6 36.3 68.8 36.8 68.9 37.3 C 69 36.8 69.1 36.4 69.3 35.9 C 69.31 35.92 70.6 32.4 70.6 32.4 L 71.6 32.4 C 71.6 32.4 69.33 38.56 69.3 38.6 C 69.1 39.2 68.9 39.7 68.7 39.9 C 68.6 40.3 68.4 40.5 68.1 40.7 C 67.9 40.8 67.6 40.9 67.3 40.9 C 67.3 40.9 67.3 40.9 67.3 40.9 Z M 75.4 36.6 C 75.4 36.6 76.4 36.5 76.4 36.5 C 76.4 36.9 76.6 37.2 76.9 37.4 C 77.1 37.6 77.5 37.7 78 37.7 C 78.4 37.7 78.8 37.7 79 37.5 C 79.2 37.3 79.4 37 79.4 36.8 C 79.4 36.5 79.3 36.4 79.1 36.2 C 78.9 36.1 78.6 36 78 35.9 C 77.2 35.7 76.7 35.5 76.4 35.4 C 76.1 35.2 75.9 35.1 75.8 34.8 C 75.6 34.6 75.5 34.3 75.5 34 C 75.5 33.7 75.6 33.5 75.7 33.2 C 75.8 33 76 32.8 76.2 32.7 C 76.4 32.5 76.6 32.4 76.9 32.4 C 77.2 32.3 77.5 32.2 77.8 32.2 C 78.3 32.2 78.7 32.3 79 32.4 C 79.4 32.6 79.7 32.8 79.8 33 C 80 33.2 80.1 33.5 80.2 33.9 C 80.2 33.9 79.2 34.1 79.2 34.1 C 79.1 33.8 79 33.5 78.8 33.3 C 78.6 33.2 78.3 33.1 77.9 33.1 C 77.4 33.1 77 33.2 76.8 33.3 C 76.6 33.5 76.5 33.7 76.5 33.9 C 76.5 34 76.6 34.1 76.7 34.2 C 76.7 34.3 76.9 34.4 77.1 34.5 C 77.2 34.5 77.5 34.6 78 34.8 C 78.7 35 79.2 35.1 79.5 35.2 C 79.8 35.4 80 35.6 80.2 35.8 C 80.3 36 80.4 36.3 80.4 36.7 C 80.4 37 80.3 37.3 80.1 37.6 C 79.9 37.9 79.6 38.2 79.2 38.3 C 78.9 38.5 78.4 38.6 78 38.6 C 77.2 38.6 76.6 38.4 76.2 38.1 C 75.7 37.8 75.5 37.3 75.4 36.6 Z M 85.8 36.5 C 85.8 36.5 86.9 36.6 86.9 36.6 C 86.7 37.3 86.4 37.7 85.9 38.1 C 85.5 38.4 84.9 38.6 84.2 38.6 C 83.3 38.6 82.6 38.3 82.1 37.8 C 81.6 37.2 81.3 36.5 81.3 35.5 C 81.3 34.4 81.6 33.6 82.1 33.1 C 82.6 32.5 83.3 32.2 84.1 32.2 C 85 32.2 85.6 32.5 86.1 33.1 C 86.7 33.6 86.9 34.4 86.9 35.4 C 86.9 35.5 86.9 35.6 86.9 35.7 C 86.9 35.7 82.4 35.7 82.4 35.7 C 82.4 36.3 82.6 36.9 82.9 37.2 C 83.3 37.6 83.7 37.7 84.2 37.7 C 84.6 37.7 84.9 37.6 85.2 37.4 C 85.4 37.3 85.7 36.9 85.8 36.5 Z M 82.4 34.8 C 82.4 34.8 85.8 34.8 85.8 34.8 C 85.8 34.3 85.6 33.9 85.4 33.7 C 85.1 33.3 84.7 33.1 84.2 33.1 C 83.7 33.1 83.3 33.2 83 33.6 C 82.6 33.9 82.5 34.3 82.4 34.8 Z M 88.2 38.5 L 88.2 32.4 L 89.1 32.4 C 89.1 32.4 89.09 33.3 89.1 33.3 C 89.3 32.9 89.5 32.6 89.7 32.4 C 89.9 32.3 90.2 32.2 90.4 32.2 C 90.8 32.2 91.1 32.3 91.5 32.6 C 91.5 32.6 91.1 33.5 91.1 33.5 C 90.9 33.4 90.6 33.3 90.4 33.3 C 90.1 33.3 89.9 33.4 89.7 33.5 C 89.6 33.6 89.4 33.8 89.4 34.1 C 89.2 34.4 89.2 34.8 89.2 35.3 C 89.19 35.27 89.2 38.5 89.2 38.5 L 88.2 38.5 Z M 93.8 38.5 L 91.5 32.4 L 92.5 32.4 C 92.5 32.4 93.85 36.02 93.8 36 C 94 36.4 94.1 36.8 94.2 37.2 C 94.3 36.9 94.5 36.5 94.6 36.1 C 94.62 36.09 96 32.4 96 32.4 L 97 32.4 L 94.7 38.5 L 93.8 38.5 Z M 97.9 31.2 L 97.9 30.1 L 99 30.1 L 99 31.2 L 97.9 31.2 Z M 97.9 38.5 L 97.9 32.4 L 99 32.4 L 99 38.5 L 97.9 38.5 Z M 104.5 36.2 C 104.5 36.2 105.5 36.4 105.5 36.4 C 105.4 37.1 105.1 37.6 104.7 38 C 104.2 38.4 103.7 38.6 103 38.6 C 102.2 38.6 101.5 38.3 101 37.8 C 100.5 37.2 100.2 36.5 100.2 35.4 C 100.2 34.8 100.3 34.2 100.6 33.7 C 100.8 33.2 101.1 32.9 101.6 32.6 C 102 32.4 102.5 32.2 103 32.2 C 103.7 32.2 104.2 32.4 104.6 32.7 C 105 33.1 105.3 33.5 105.4 34.2 C 105.4 34.2 104.4 34.3 104.4 34.3 C 104.3 33.9 104.2 33.6 103.9 33.4 C 103.7 33.2 103.4 33.1 103 33.1 C 102.5 33.1 102.1 33.3 101.8 33.6 C 101.5 34 101.3 34.6 101.3 35.4 C 101.3 36.2 101.5 36.8 101.8 37.2 C 102.1 37.6 102.5 37.7 103 37.7 C 103.4 37.7 103.7 37.6 104 37.4 C 104.3 37.1 104.4 36.7 104.5 36.2 Z M 110.6 36.5 C 110.6 36.5 111.6 36.6 111.6 36.6 C 111.5 37.3 111.2 37.7 110.7 38.1 C 110.3 38.4 109.7 38.6 109 38.6 C 108.1 38.6 107.4 38.3 106.9 37.8 C 106.3 37.2 106.1 36.5 106.1 35.5 C 106.1 34.4 106.3 33.6 106.9 33.1 C 107.4 32.5 108.1 32.2 108.9 32.2 C 109.7 32.2 110.4 32.5 110.9 33.1 C 111.4 33.6 111.7 34.4 111.7 35.4 C 111.7 35.5 111.7 35.6 111.7 35.7 C 111.7 35.7 107.1 35.7 107.1 35.7 C 107.2 36.3 107.4 36.9 107.7 37.2 C 108 37.6 108.5 37.7 109 37.7 C 109.4 37.7 109.7 37.6 109.9 37.4 C 110.2 37.3 110.4 36.9 110.6 36.5 Z M 107.2 34.8 C 107.2 34.8 110.6 34.8 110.6 34.8 C 110.5 34.3 110.4 33.9 110.2 33.7 C 109.9 33.3 109.4 33.1 108.9 33.1 C 108.5 33.1 108.1 33.2 107.7 33.6 C 107.4 33.9 107.2 34.3 107.2 34.8 Z M 112.5 36.6 C 112.5 36.6 113.5 36.5 113.5 36.5 C 113.6 36.9 113.8 37.2 114 37.4 C 114.3 37.6 114.7 37.7 115.1 37.7 C 115.6 37.7 115.9 37.7 116.2 37.5 C 116.4 37.3 116.5 37 116.5 36.8 C 116.5 36.5 116.4 36.4 116.2 36.2 C 116.1 36.1 115.7 36 115.2 35.9 C 114.4 35.7 113.9 35.5 113.6 35.4 C 113.3 35.2 113.1 35.1 112.9 34.8 C 112.8 34.6 112.7 34.3 112.7 34 C 112.7 33.7 112.8 33.5 112.9 33.2 C 113 33 113.2 32.8 113.4 32.7 C 113.6 32.5 113.8 32.4 114.1 32.4 C 114.3 32.3 114.6 32.2 114.9 32.2 C 115.4 32.2 115.8 32.3 116.2 32.4 C 116.6 32.6 116.8 32.8 117 33 C 117.2 33.2 117.3 33.5 117.4 33.9 C 117.4 33.9 116.3 34.1 116.3 34.1 C 116.3 33.8 116.2 33.5 115.9 33.3 C 115.7 33.2 115.4 33.1 115 33.1 C 114.5 33.1 114.2 33.2 114 33.3 C 113.8 33.5 113.7 33.7 113.7 33.9 C 113.7 34 113.7 34.1 113.8 34.2 C 113.9 34.3 114 34.4 114.2 34.5 C 114.3 34.5 114.6 34.6 115.1 34.8 C 115.9 35 116.4 35.1 116.7 35.2 C 116.9 35.4 117.2 35.6 117.3 35.8 C 117.5 36 117.6 36.3 117.6 36.7 C 117.6 37 117.5 37.3 117.3 37.6 C 117.1 37.9 116.8 38.2 116.4 38.3 C 116 38.5 115.6 38.6 115.1 38.6 C 114.3 38.6 113.7 38.4 113.3 38.1 C 112.9 37.8 112.6 37.3 112.5 36.6 Z M 123.9 37.6 C 124 37.6 124.1 37.6 124.3 37.5 C 124.3 37.5 124.5 38.4 124.5 38.4 C 124.2 38.5 123.9 38.5 123.7 38.5 C 123.3 38.5 123 38.5 122.8 38.4 C 122.6 38.2 122.5 38.1 122.4 37.9 C 122.3 37.7 122.3 37.3 122.3 36.7 C 122.26 36.68 122.3 33.2 122.3 33.2 L 121.5 33.2 L 121.5 32.4 L 122.3 32.4 L 122.3 30.9 L 123.3 30.2 L 123.3 32.4 L 124.3 32.4 L 124.3 33.2 L 123.3 33.2 C 123.3 33.2 123.28 36.73 123.3 36.7 C 123.3 37 123.3 37.2 123.3 37.3 C 123.4 37.4 123.4 37.5 123.5 37.5 C 123.6 37.6 123.7 37.6 123.9 37.6 C 123.9 37.6 123.9 37.6 123.9 37.6 Z M 124.9 35.4 C 124.9 34.3 125.3 33.5 125.9 32.9 C 126.4 32.5 127 32.2 127.8 32.2 C 128.6 32.2 129.3 32.5 129.8 33.1 C 130.4 33.6 130.6 34.4 130.6 35.3 C 130.6 36.1 130.5 36.7 130.3 37.2 C 130.1 37.6 129.7 38 129.3 38.2 C 128.8 38.5 128.3 38.6 127.8 38.6 C 126.9 38.6 126.3 38.3 125.7 37.8 C 125.2 37.2 124.9 36.4 124.9 35.4 Z M 126 35.4 C 126 36.2 126.2 36.8 126.5 37.2 C 126.9 37.6 127.3 37.7 127.8 37.7 C 128.3 37.7 128.7 37.6 129.1 37.2 C 129.4 36.8 129.6 36.2 129.6 35.4 C 129.6 34.6 129.4 34.1 129.1 33.7 C 128.7 33.3 128.3 33.1 127.8 33.1 C 127.3 33.1 126.9 33.3 126.5 33.7 C 126.2 34.1 126 34.6 126 35.4 Z M 135.1 38.5 L 135.1 30.1 L 136.1 30.1 C 136.1 30.1 136.14 33.07 136.1 33.1 C 136.6 32.5 137.2 32.2 138 32.2 C 138.4 32.2 138.8 32.3 139.1 32.5 C 139.5 32.7 139.7 32.9 139.9 33.2 C 140 33.6 140.1 34 140.1 34.6 C 140.07 34.6 140.1 38.5 140.1 38.5 L 139 38.5 C 139 38.5 139.04 34.6 139 34.6 C 139 34.1 138.9 33.7 138.7 33.5 C 138.5 33.2 138.2 33.1 137.8 33.1 C 137.4 33.1 137.2 33.2 136.9 33.4 C 136.6 33.5 136.4 33.7 136.3 34 C 136.2 34.3 136.1 34.7 136.1 35.1 C 136.14 35.13 136.1 38.5 136.1 38.5 L 135.1 38.5 Z M 145.8 36.5 C 145.8 36.5 146.9 36.6 146.9 36.6 C 146.7 37.3 146.4 37.7 145.9 38.1 C 145.5 38.4 144.9 38.6 144.2 38.6 C 143.3 38.6 142.6 38.3 142.1 37.8 C 141.6 37.2 141.3 36.5 141.3 35.5 C 141.3 34.4 141.6 33.6 142.1 33.1 C 142.6 32.5 143.3 32.2 144.1 32.2 C 145 32.2 145.6 32.5 146.1 33.1 C 146.6 33.6 146.9 34.4 146.9 35.4 C 146.9 35.5 146.9 35.6 146.9 35.7 C 146.9 35.7 142.4 35.7 142.4 35.7 C 142.4 36.3 142.6 36.9 142.9 37.2 C 143.3 37.6 143.7 37.7 144.2 37.7 C 144.6 37.7 144.9 37.6 145.2 37.4 C 145.4 37.3 145.6 36.9 145.8 36.5 Z M 142.4 34.8 C 142.4 34.8 145.8 34.8 145.8 34.8 C 145.8 34.3 145.6 33.9 145.4 33.7 C 145.1 33.3 144.7 33.1 144.1 33.1 C 143.7 33.1 143.3 33.2 143 33.6 C 142.6 33.9 142.5 34.3 142.4 34.8 Z M 148.1 38.5 L 148.1 30.1 L 149.2 30.1 L 149.2 38.5 L 148.1 38.5 Z M 150.8 40.8 L 150.8 32.4 L 151.7 32.4 C 151.7 32.4 151.71 33.16 151.7 33.2 C 151.9 32.9 152.2 32.6 152.5 32.5 C 152.7 32.3 153.1 32.2 153.5 32.2 C 154 32.2 154.5 32.4 154.9 32.6 C 155.2 32.9 155.5 33.3 155.7 33.8 C 156 34.3 156.1 34.8 156.1 35.4 C 156.1 36 155.9 36.6 155.7 37.1 C 155.5 37.5 155.2 37.9 154.7 38.2 C 154.3 38.5 153.9 38.6 153.4 38.6 C 153.1 38.6 152.7 38.5 152.5 38.4 C 152.2 38.2 152 38 151.8 37.8 C 151.8 37.83 151.8 40.8 151.8 40.8 L 150.8 40.8 Z M 151.7 35.4 C 151.7 36.2 151.9 36.8 152.2 37.2 C 152.5 37.6 152.9 37.7 153.3 37.7 C 153.8 37.7 154.2 37.6 154.5 37.2 C 154.8 36.8 155 36.2 155 35.4 C 155 34.6 154.8 34 154.5 33.6 C 154.2 33.2 153.8 33 153.4 33 C 152.9 33 152.6 33.2 152.2 33.7 C 151.9 34.1 151.7 34.7 151.7 35.4 Z M 164.5 38.5 C 164.5 38.5 164.5 37.69 164.5 37.7 C 164.1 38.3 163.6 38.6 162.8 38.6 C 162.3 38.6 161.9 38.5 161.5 38.2 C 161.1 37.9 160.7 37.6 160.5 37.1 C 160.3 36.6 160.2 36 160.2 35.4 C 160.2 34.8 160.3 34.3 160.5 33.8 C 160.7 33.3 161 32.9 161.4 32.6 C 161.8 32.4 162.3 32.2 162.8 32.2 C 163.1 32.2 163.4 32.3 163.7 32.5 C 164 32.6 164.3 32.8 164.4 33.1 C 164.44 33.07 164.4 30.1 164.4 30.1 L 165.5 30.1 L 165.5 38.5 L 164.5 38.5 Z M 161.2 35.4 C 161.2 36.2 161.4 36.8 161.7 37.2 C 162.1 37.6 162.5 37.7 162.9 37.7 C 163.4 37.7 163.7 37.6 164 37.2 C 164.4 36.8 164.5 36.3 164.5 35.5 C 164.5 34.7 164.4 34.1 164 33.7 C 163.7 33.3 163.3 33.1 162.9 33.1 C 162.4 33.1 162 33.3 161.7 33.7 C 161.4 34 161.2 34.6 161.2 35.4 Z M 171.2 36.5 C 171.2 36.5 172.3 36.6 172.3 36.6 C 172.1 37.3 171.8 37.7 171.4 38.1 C 170.9 38.4 170.3 38.6 169.6 38.6 C 168.7 38.6 168 38.3 167.5 37.8 C 167 37.2 166.7 36.5 166.7 35.5 C 166.7 34.4 167 33.6 167.5 33.1 C 168.1 32.5 168.7 32.2 169.6 32.2 C 170.4 32.2 171.1 32.5 171.6 33.1 C 172.1 33.6 172.3 34.4 172.3 35.4 C 172.3 35.5 172.3 35.6 172.3 35.7 C 172.3 35.7 167.8 35.7 167.8 35.7 C 167.8 36.3 168 36.9 168.4 37.2 C 168.7 37.6 169.1 37.7 169.6 37.7 C 170 37.7 170.3 37.6 170.6 37.4 C 170.9 37.3 171.1 36.9 171.2 36.5 Z M 167.9 34.8 C 167.9 34.8 171.3 34.8 171.3 34.8 C 171.2 34.3 171.1 33.9 170.9 33.7 C 170.5 33.3 170.1 33.1 169.6 33.1 C 169.1 33.1 168.7 33.2 168.4 33.6 C 168.1 33.9 167.9 34.3 167.9 34.8 Z M 175.3 38.5 L 173 32.4 L 174.1 32.4 C 174.1 32.4 175.38 36.02 175.4 36 C 175.5 36.4 175.6 36.8 175.8 37.2 C 175.9 36.9 176 36.5 176.2 36.1 C 176.15 36.09 177.5 32.4 177.5 32.4 L 178.6 32.4 L 176.3 38.5 L 175.3 38.5 Z M 183.6 36.5 C 183.6 36.5 184.7 36.6 184.7 36.6 C 184.5 37.3 184.2 37.7 183.8 38.1 C 183.3 38.4 182.7 38.6 182 38.6 C 181.1 38.6 180.4 38.3 179.9 37.8 C 179.4 37.2 179.1 36.5 179.1 35.5 C 179.1 34.4 179.4 33.6 179.9 33.1 C 180.4 32.5 181.1 32.2 182 32.2 C 182.8 32.2 183.5 32.5 184 33.1 C 184.5 33.6 184.7 34.4 184.7 35.4 C 184.7 35.5 184.7 35.6 184.7 35.7 C 184.7 35.7 180.2 35.7 180.2 35.7 C 180.2 36.3 180.4 36.9 180.8 37.2 C 181.1 37.6 181.5 37.7 182 37.7 C 182.4 37.7 182.7 37.6 183 37.4 C 183.3 37.3 183.5 36.9 183.6 36.5 Z M 180.3 34.8 C 180.3 34.8 183.7 34.8 183.7 34.8 C 183.6 34.3 183.5 33.9 183.3 33.7 C 182.9 33.3 182.5 33.1 182 33.1 C 181.5 33.1 181.1 33.2 180.8 33.6 C 180.5 33.9 180.3 34.3 180.3 34.8 Z M 186 38.5 L 186 30.1 L 187 30.1 L 187 38.5 L 186 38.5 Z M 188.2 35.4 C 188.2 34.3 188.5 33.5 189.2 32.9 C 189.7 32.5 190.3 32.2 191.1 32.2 C 191.9 32.2 192.6 32.5 193.1 33.1 C 193.7 33.6 193.9 34.4 193.9 35.3 C 193.9 36.1 193.8 36.7 193.6 37.2 C 193.3 37.6 193 38 192.5 38.2 C 192.1 38.5 191.6 38.6 191.1 38.6 C 190.2 38.6 189.5 38.3 189 37.8 C 188.5 37.2 188.2 36.4 188.2 35.4 Z M 189.3 35.4 C 189.3 36.2 189.5 36.8 189.8 37.2 C 190.1 37.6 190.6 37.7 191.1 37.7 C 191.6 37.7 192 37.6 192.4 37.2 C 192.7 36.8 192.9 36.2 192.9 35.4 C 192.9 34.6 192.7 34.1 192.4 33.7 C 192 33.3 191.6 33.1 191.1 33.1 C 190.6 33.1 190.1 33.3 189.8 33.7 C 189.5 34.1 189.3 34.6 189.3 35.4 Z M 195.1 40.8 L 195.1 32.4 L 196.1 32.4 C 196.1 32.4 196.07 33.16 196.1 33.2 C 196.3 32.9 196.5 32.6 196.8 32.5 C 197.1 32.3 197.4 32.2 197.8 32.2 C 198.4 32.2 198.8 32.4 199.2 32.6 C 199.6 32.9 199.9 33.3 200.1 33.8 C 200.3 34.3 200.4 34.8 200.4 35.4 C 200.4 36 200.3 36.6 200.1 37.1 C 199.9 37.5 199.5 37.9 199.1 38.2 C 198.7 38.5 198.2 38.6 197.8 38.6 C 197.4 38.6 197.1 38.5 196.8 38.4 C 196.6 38.2 196.3 38 196.2 37.8 C 196.16 37.83 196.2 40.8 196.2 40.8 L 195.1 40.8 Z M 196.1 35.4 C 196.1 36.2 196.2 36.8 196.5 37.2 C 196.9 37.6 197.2 37.7 197.7 37.7 C 198.2 37.7 198.5 37.6 198.9 37.2 C 199.2 36.8 199.4 36.2 199.4 35.4 C 199.4 34.6 199.2 34 198.9 33.6 C 198.6 33.2 198.2 33 197.7 33 C 197.3 33 196.9 33.2 196.6 33.7 C 196.2 34.1 196.1 34.7 196.1 35.4 Z " stroke="none" fill="#fff"/>  </g>  <g id="Polygon68369">    <path d="M 29.3 24.4 L 29.3 16 C 29.3 16 32.17 15.98 32.2 16 C 32.8 16 33.3 16 33.7 16.1 C 34.1 16.2 34.6 16.4 34.9 16.7 C 35.3 17.1 35.7 17.6 35.9 18.1 C 36.1 18.7 36.2 19.4 36.2 20.1 C 36.2 20.8 36.1 21.3 36 21.8 C 35.8 22.3 35.7 22.7 35.4 23.1 C 35.2 23.4 34.9 23.6 34.7 23.8 C 34.4 24 34 24.1 33.7 24.2 C 33.3 24.3 32.8 24.4 32.3 24.4 C 32.31 24.38 29.3 24.4 29.3 24.4 Z M 30.4 23.4 C 30.4 23.4 32.18 23.39 32.2 23.4 C 32.7 23.4 33.2 23.3 33.5 23.2 C 33.8 23.1 34.1 23 34.2 22.8 C 34.5 22.5 34.7 22.2 34.9 21.7 C 35 21.3 35.1 20.7 35.1 20.1 C 35.1 19.2 34.9 18.6 34.6 18.1 C 34.4 17.6 34 17.3 33.6 17.1 C 33.3 17 32.8 17 32.2 17 C 32.15 16.97 30.4 17 30.4 17 L 30.4 23.4 Z M 41.8 22.4 C 41.8 22.4 42.8 22.6 42.8 22.6 C 42.7 23.2 42.4 23.7 41.9 24 C 41.5 24.3 40.9 24.5 40.2 24.5 C 39.3 24.5 38.6 24.2 38.1 23.7 C 37.5 23.1 37.3 22.4 37.3 21.4 C 37.3 20.4 37.5 19.6 38.1 19 C 38.6 18.4 39.3 18.2 40.1 18.2 C 40.9 18.2 41.6 18.4 42.1 19 C 42.6 19.5 42.9 20.3 42.9 21.3 C 42.9 21.4 42.9 21.5 42.9 21.6 C 42.9 21.6 38.3 21.6 38.3 21.6 C 38.4 22.3 38.6 22.8 38.9 23.1 C 39.2 23.5 39.7 23.7 40.2 23.7 C 40.6 23.7 40.9 23.6 41.1 23.4 C 41.4 23.2 41.6 22.9 41.8 22.4 Z M 38.4 20.8 C 38.4 20.8 41.8 20.8 41.8 20.8 C 41.7 20.2 41.6 19.9 41.4 19.6 C 41.1 19.2 40.7 19 40.1 19 C 39.7 19 39.3 19.2 38.9 19.5 C 38.6 19.8 38.4 20.2 38.4 20.8 Z M 44.1 24.4 L 44.1 16 L 45.2 16 L 45.2 24.4 L 44.1 24.4 Z M 46.8 17.2 L 46.8 16 L 47.8 16 L 47.8 17.2 L 46.8 17.2 Z M 46.8 24.4 L 46.8 18.3 L 47.8 18.3 L 47.8 24.4 L 46.8 24.4 Z M 51 24.4 L 48.7 18.3 L 49.8 18.3 C 49.8 18.3 51.13 21.94 51.1 21.9 C 51.3 22.3 51.4 22.7 51.5 23.2 C 51.6 22.8 51.7 22.5 51.9 22 C 51.9 22.01 53.3 18.3 53.3 18.3 L 54.3 18.3 L 52 24.4 L 51 24.4 Z M 59.4 22.4 C 59.4 22.4 60.5 22.6 60.5 22.6 C 60.3 23.2 60 23.7 59.5 24 C 59.1 24.3 58.5 24.5 57.8 24.5 C 56.9 24.5 56.2 24.2 55.7 23.7 C 55.1 23.1 54.9 22.4 54.9 21.4 C 54.9 20.4 55.1 19.6 55.7 19 C 56.2 18.4 56.9 18.2 57.7 18.2 C 58.5 18.2 59.2 18.4 59.7 19 C 60.2 19.5 60.5 20.3 60.5 21.3 C 60.5 21.4 60.5 21.5 60.5 21.6 C 60.5 21.6 55.9 21.6 55.9 21.6 C 56 22.3 56.2 22.8 56.5 23.1 C 56.9 23.5 57.3 23.7 57.8 23.7 C 58.2 23.7 58.5 23.6 58.8 23.4 C 59 23.2 59.2 22.9 59.4 22.4 Z M 56 20.8 C 56 20.8 59.4 20.8 59.4 20.8 C 59.4 20.2 59.2 19.9 59 19.6 C 58.7 19.2 58.3 19 57.7 19 C 57.3 19 56.9 19.2 56.5 19.5 C 56.2 19.8 56 20.2 56 20.8 Z M 61.7 24.4 L 61.7 18.3 L 62.7 18.3 C 62.7 18.3 62.67 19.22 62.7 19.2 C 62.9 18.8 63.1 18.5 63.3 18.4 C 63.5 18.2 63.7 18.2 64 18.2 C 64.3 18.2 64.7 18.3 65 18.5 C 65 18.5 64.7 19.4 64.7 19.4 C 64.4 19.3 64.2 19.2 63.9 19.2 C 63.7 19.2 63.5 19.3 63.3 19.4 C 63.1 19.6 63 19.7 62.9 20 C 62.8 20.4 62.8 20.8 62.8 21.2 C 62.77 21.19 62.8 24.4 62.8 24.4 L 61.7 24.4 Z M 65.7 17.2 L 65.7 16 L 66.7 16 L 66.7 17.2 L 65.7 17.2 Z M 65.7 24.4 L 65.7 18.3 L 66.7 18.3 L 66.7 24.4 L 65.7 24.4 Z M 68.3 24.4 L 68.3 18.3 L 69.2 18.3 C 69.2 18.3 69.19 19.16 69.2 19.2 C 69.6 18.5 70.3 18.2 71.1 18.2 C 71.5 18.2 71.8 18.2 72.1 18.4 C 72.4 18.5 72.7 18.7 72.8 18.9 C 73 19.1 73.1 19.3 73.1 19.6 C 73.2 19.8 73.2 20.2 73.2 20.6 C 73.21 20.64 73.2 24.4 73.2 24.4 L 72.2 24.4 C 72.2 24.4 72.18 20.68 72.2 20.7 C 72.2 20.3 72.1 19.9 72.1 19.7 C 72 19.5 71.8 19.4 71.6 19.2 C 71.4 19.1 71.2 19 70.9 19 C 70.5 19 70.1 19.2 69.8 19.5 C 69.5 19.7 69.3 20.3 69.3 21.1 C 69.29 21.05 69.3 24.4 69.3 24.4 L 68.3 24.4 Z M 74.6 24.9 C 74.6 24.9 75.6 25 75.6 25 C 75.6 25.3 75.8 25.6 76 25.7 C 76.2 25.9 76.6 26 77 26 C 77.5 26 77.8 25.9 78.1 25.7 C 78.4 25.5 78.5 25.2 78.6 24.9 C 78.7 24.7 78.7 24.3 78.7 23.6 C 78.3 24.1 77.7 24.4 77 24.4 C 76.2 24.4 75.5 24.1 75.1 23.5 C 74.6 22.9 74.4 22.1 74.4 21.3 C 74.4 20.7 74.5 20.2 74.7 19.7 C 74.9 19.2 75.2 18.8 75.6 18.6 C 76 18.3 76.5 18.2 77 18.2 C 77.7 18.2 78.3 18.4 78.8 19 C 78.8 19.03 78.8 18.3 78.8 18.3 L 79.8 18.3 C 79.8 18.3 79.76 23.55 79.8 23.6 C 79.8 24.5 79.7 25.2 79.5 25.6 C 79.3 26 79 26.3 78.5 26.5 C 78.1 26.7 77.6 26.8 77 26.8 C 76.3 26.8 75.7 26.7 75.2 26.4 C 74.8 26 74.6 25.5 74.6 24.9 Z M 75.5 21.2 C 75.5 22 75.6 22.6 75.9 23 C 76.2 23.3 76.6 23.5 77.1 23.5 C 77.6 23.5 78 23.3 78.3 23 C 78.6 22.6 78.8 22 78.8 21.3 C 78.8 20.5 78.6 20 78.3 19.6 C 78 19.2 77.6 19 77.1 19 C 76.6 19 76.3 19.2 75.9 19.6 C 75.6 19.9 75.5 20.5 75.5 21.2 Z M 88.5 26.7 C 88.5 26.7 88.45 23.73 88.5 23.7 C 88.3 24 88.1 24.1 87.8 24.3 C 87.5 24.4 87.2 24.5 86.9 24.5 C 86.1 24.5 85.5 24.2 85 23.7 C 84.5 23.1 84.2 22.3 84.2 21.3 C 84.2 20.7 84.3 20.1 84.5 19.6 C 84.7 19.1 85.1 18.8 85.5 18.5 C 85.9 18.3 86.3 18.2 86.8 18.2 C 87.5 18.2 88.1 18.5 88.6 19.1 C 88.56 19.11 88.6 18.3 88.6 18.3 L 89.5 18.3 L 89.5 26.7 L 88.5 26.7 Z M 85.3 21.3 C 85.3 22.1 85.4 22.7 85.8 23.1 C 86.1 23.5 86.5 23.7 86.9 23.7 C 87.4 23.7 87.8 23.5 88.1 23.1 C 88.4 22.7 88.6 22.2 88.6 21.4 C 88.6 20.6 88.4 20 88.1 19.6 C 87.7 19.2 87.3 19 86.9 19 C 86.4 19 86.1 19.2 85.7 19.5 C 85.4 19.9 85.3 20.5 85.3 21.3 Z M 95.1 24.4 C 95.1 24.4 95.09 23.48 95.1 23.5 C 94.6 24.2 94 24.5 93.2 24.5 C 92.8 24.5 92.5 24.4 92.2 24.3 C 91.8 24.2 91.6 24 91.5 23.8 C 91.3 23.6 91.2 23.3 91.1 23 C 91.1 22.8 91.1 22.5 91.1 22.1 C 91.08 22.06 91.1 18.3 91.1 18.3 L 92.1 18.3 C 92.1 18.3 92.11 21.67 92.1 21.7 C 92.1 22.2 92.1 22.6 92.2 22.8 C 92.2 23 92.4 23.2 92.6 23.4 C 92.8 23.5 93.1 23.6 93.4 23.6 C 93.7 23.6 94 23.5 94.2 23.4 C 94.5 23.2 94.7 23 94.8 22.7 C 94.9 22.5 95 22.1 95 21.6 C 94.98 21.55 95 18.3 95 18.3 L 96 18.3 L 96 24.4 L 95.1 24.4 Z M 101.8 24.4 C 101.7 24.2 101.6 23.9 101.6 23.6 C 101.2 24 100.8 24.2 100.5 24.3 C 100.1 24.4 99.8 24.5 99.4 24.5 C 98.7 24.5 98.2 24.4 97.8 24 C 97.5 23.7 97.3 23.3 97.3 22.8 C 97.3 22.5 97.3 22.2 97.5 22 C 97.6 21.7 97.8 21.5 98 21.4 C 98.2 21.2 98.5 21.1 98.8 21 C 99 21 99.3 20.9 99.7 20.9 C 100.5 20.8 101.1 20.7 101.5 20.5 C 101.5 20.4 101.5 20.3 101.5 20.2 C 101.5 19.8 101.4 19.5 101.2 19.4 C 101 19.1 100.6 19 100 19 C 99.6 19 99.2 19.1 99 19.3 C 98.7 19.4 98.6 19.7 98.5 20.2 C 98.5 20.2 97.5 20 97.5 20 C 97.5 19.6 97.7 19.2 97.9 19 C 98.1 18.7 98.4 18.5 98.8 18.4 C 99.2 18.2 99.7 18.2 100.2 18.2 C 100.7 18.2 101.1 18.2 101.5 18.3 C 101.8 18.5 102 18.6 102.2 18.8 C 102.3 19 102.4 19.2 102.5 19.5 C 102.5 19.7 102.6 20 102.6 20.5 C 102.6 20.5 102.6 21.8 102.6 21.8 C 102.6 22.8 102.6 23.4 102.6 23.6 C 102.7 23.9 102.7 24.1 102.9 24.4 C 102.88 24.38 101.8 24.4 101.8 24.4 C 101.8 24.4 101.8 24.38 101.8 24.4 Z M 101.5 21.3 C 101.1 21.5 100.6 21.6 99.8 21.7 C 99.4 21.8 99.1 21.8 98.9 21.9 C 98.7 22 98.6 22.1 98.5 22.3 C 98.4 22.4 98.4 22.6 98.4 22.7 C 98.4 23 98.5 23.2 98.7 23.4 C 98.9 23.6 99.2 23.7 99.6 23.7 C 100 23.7 100.4 23.6 100.7 23.4 C 101 23.3 101.2 23 101.3 22.7 C 101.5 22.5 101.5 22.2 101.5 21.7 C 101.5 21.7 101.5 21.3 101.5 21.3 Z M 104.1 24.4 L 104.1 16 L 105.2 16 L 105.2 24.4 L 104.1 24.4 Z M 106.8 17.2 L 106.8 16 L 107.8 16 L 107.8 17.2 L 106.8 17.2 Z M 106.8 24.4 L 106.8 18.3 L 107.8 18.3 L 107.8 24.4 L 106.8 24.4 Z M 111.2 23.5 C 111.3 23.5 111.4 23.5 111.6 23.5 C 111.6 23.5 111.8 24.4 111.8 24.4 C 111.5 24.4 111.2 24.5 111 24.5 C 110.6 24.5 110.3 24.4 110.1 24.3 C 109.9 24.2 109.8 24 109.7 23.8 C 109.6 23.6 109.6 23.2 109.6 22.6 C 109.55 22.6 109.6 19.1 109.6 19.1 L 108.8 19.1 L 108.8 18.3 L 109.6 18.3 L 109.6 16.8 L 110.6 16.2 L 110.6 18.3 L 111.6 18.3 L 111.6 19.1 L 110.6 19.1 C 110.6 19.1 110.58 22.65 110.6 22.7 C 110.6 22.9 110.6 23.1 110.6 23.2 C 110.7 23.3 110.7 23.4 110.8 23.4 C 110.9 23.5 111 23.5 111.2 23.5 C 111.2 23.5 111.2 23.5 111.2 23.5 Z M 113.2 26.8 C 113 26.8 112.8 26.8 112.6 26.7 C 112.6 26.7 112.5 25.8 112.5 25.8 C 112.7 25.8 112.9 25.8 113.1 25.8 C 113.3 25.8 113.5 25.8 113.6 25.7 C 113.7 25.7 113.9 25.5 113.9 25.4 C 114 25.3 114.1 25 114.3 24.6 C 114.3 24.6 114.3 24.5 114.3 24.4 C 114.35 24.39 112 18.3 112 18.3 L 113.2 18.3 C 113.2 18.3 114.42 21.82 114.4 21.8 C 114.6 22.3 114.7 22.7 114.9 23.2 C 115 22.8 115.1 22.3 115.3 21.8 C 115.28 21.84 116.6 18.3 116.6 18.3 L 117.6 18.3 C 117.6 18.3 115.3 24.48 115.3 24.5 C 115.1 25.1 114.9 25.6 114.7 25.9 C 114.5 26.2 114.3 26.5 114.1 26.6 C 113.9 26.8 113.6 26.8 113.2 26.8 C 113.2 26.8 113.2 26.8 113.2 26.8 Z M 123.5 23.5 C 123.7 23.5 123.8 23.5 124 23.5 C 124 23.5 124.2 24.4 124.2 24.4 C 123.9 24.4 123.6 24.5 123.4 24.5 C 123 24.5 122.7 24.4 122.5 24.3 C 122.3 24.2 122.1 24 122.1 23.8 C 122 23.6 121.9 23.2 121.9 22.6 C 121.94 22.6 121.9 19.1 121.9 19.1 L 121.2 19.1 L 121.2 18.3 L 121.9 18.3 L 121.9 16.8 L 123 16.2 L 123 18.3 L 124 18.3 L 124 19.1 L 123 19.1 C 123 19.1 122.96 22.65 123 22.7 C 123 22.9 123 23.1 123 23.2 C 123.1 23.3 123.1 23.4 123.2 23.4 C 123.3 23.5 123.4 23.5 123.5 23.5 C 123.5 23.5 123.5 23.5 123.5 23.5 Z M 125 24.4 L 125 18.3 L 125.9 18.3 C 125.9 18.3 125.93 19.22 125.9 19.2 C 126.2 18.8 126.4 18.5 126.6 18.4 C 126.8 18.2 127 18.2 127.2 18.2 C 127.6 18.2 127.9 18.3 128.3 18.5 C 128.3 18.5 127.9 19.4 127.9 19.4 C 127.7 19.3 127.4 19.2 127.2 19.2 C 127 19.2 126.8 19.3 126.6 19.4 C 126.4 19.6 126.3 19.7 126.2 20 C 126.1 20.4 126 20.8 126 21.2 C 126.03 21.19 126 24.4 126 24.4 L 125 24.4 Z M 133.1 24.4 C 133 24.2 132.9 23.9 132.9 23.6 C 132.5 24 132.1 24.2 131.8 24.3 C 131.4 24.4 131.1 24.5 130.6 24.5 C 130 24.5 129.5 24.4 129.1 24 C 128.7 23.7 128.6 23.3 128.6 22.8 C 128.6 22.5 128.6 22.2 128.8 22 C 128.9 21.7 129.1 21.5 129.3 21.4 C 129.5 21.2 129.8 21.1 130 21 C 130.2 21 130.6 20.9 131 20.9 C 131.8 20.8 132.4 20.7 132.8 20.5 C 132.8 20.4 132.8 20.3 132.8 20.2 C 132.8 19.8 132.7 19.5 132.5 19.4 C 132.3 19.1 131.9 19 131.3 19 C 130.9 19 130.5 19.1 130.3 19.3 C 130 19.4 129.9 19.7 129.8 20.2 C 129.8 20.2 128.7 20 128.7 20 C 128.8 19.6 129 19.2 129.2 19 C 129.4 18.7 129.7 18.5 130.1 18.4 C 130.5 18.2 131 18.2 131.5 18.2 C 132 18.2 132.4 18.2 132.8 18.3 C 133.1 18.5 133.3 18.6 133.5 18.8 C 133.6 19 133.7 19.2 133.8 19.5 C 133.8 19.7 133.8 20 133.8 20.5 C 133.8 20.5 133.8 21.8 133.8 21.8 C 133.8 22.8 133.9 23.4 133.9 23.6 C 134 23.9 134 24.1 134.2 24.4 C 134.17 24.38 133.1 24.4 133.1 24.4 C 133.1 24.4 133.09 24.38 133.1 24.4 Z M 132.8 21.3 C 132.4 21.5 131.9 21.6 131.1 21.7 C 130.7 21.8 130.4 21.8 130.2 21.9 C 130 22 129.9 22.1 129.8 22.3 C 129.7 22.4 129.7 22.6 129.7 22.7 C 129.7 23 129.8 23.2 130 23.4 C 130.2 23.6 130.5 23.7 130.9 23.7 C 131.3 23.7 131.6 23.6 132 23.4 C 132.3 23.3 132.5 23 132.6 22.7 C 132.7 22.5 132.8 22.2 132.8 21.7 C 132.8 21.7 132.8 21.3 132.8 21.3 Z M 135.4 17.2 L 135.4 16 L 136.5 16 L 136.5 17.2 L 135.4 17.2 Z M 135.4 24.4 L 135.4 18.3 L 136.5 18.3 L 136.5 24.4 L 135.4 24.4 Z M 138 24.4 L 138 18.3 L 139 18.3 C 139 18.3 138.98 19.16 139 19.2 C 139.4 18.5 140.1 18.2 140.9 18.2 C 141.3 18.2 141.6 18.2 141.9 18.4 C 142.2 18.5 142.5 18.7 142.6 18.9 C 142.8 19.1 142.9 19.3 142.9 19.6 C 143 19.8 143 20.2 143 20.6 C 142.99 20.64 143 24.4 143 24.4 L 142 24.4 C 142 24.4 141.96 20.68 142 20.7 C 142 20.3 141.9 19.9 141.8 19.7 C 141.8 19.5 141.6 19.4 141.4 19.2 C 141.2 19.1 141 19 140.7 19 C 140.3 19 139.9 19.2 139.6 19.5 C 139.2 19.7 139.1 20.3 139.1 21.1 C 139.08 21.05 139.1 24.4 139.1 24.4 L 138 24.4 Z M 144.6 17.2 L 144.6 16 L 145.6 16 L 145.6 17.2 L 144.6 17.2 Z M 144.6 24.4 L 144.6 18.3 L 145.6 18.3 L 145.6 24.4 L 144.6 24.4 Z M 147.2 24.4 L 147.2 18.3 L 148.1 18.3 C 148.1 18.3 148.11 19.16 148.1 19.2 C 148.6 18.5 149.2 18.2 150 18.2 C 150.4 18.2 150.8 18.2 151.1 18.4 C 151.4 18.5 151.6 18.7 151.7 18.9 C 151.9 19.1 152 19.3 152.1 19.6 C 152.1 19.8 152.1 20.2 152.1 20.6 C 152.13 20.64 152.1 24.4 152.1 24.4 L 151.1 24.4 C 151.1 24.4 151.1 20.68 151.1 20.7 C 151.1 20.3 151.1 19.9 151 19.7 C 150.9 19.5 150.8 19.4 150.5 19.2 C 150.3 19.1 150.1 19 149.8 19 C 149.4 19 149 19.2 148.7 19.5 C 148.4 19.7 148.2 20.3 148.2 21.1 C 148.21 21.05 148.2 24.4 148.2 24.4 L 147.2 24.4 Z M 153.5 24.9 C 153.5 24.9 154.5 25 154.5 25 C 154.6 25.3 154.7 25.6 154.9 25.7 C 155.1 25.9 155.5 26 155.9 26 C 156.4 26 156.8 25.9 157 25.7 C 157.3 25.5 157.5 25.2 157.6 24.9 C 157.6 24.7 157.6 24.3 157.6 23.6 C 157.2 24.1 156.6 24.4 155.9 24.4 C 155.1 24.4 154.5 24.1 154 23.5 C 153.5 22.9 153.3 22.1 153.3 21.3 C 153.3 20.7 153.4 20.2 153.6 19.7 C 153.8 19.2 154.1 18.8 154.5 18.6 C 154.9 18.3 155.4 18.2 155.9 18.2 C 156.7 18.2 157.3 18.4 157.7 19 C 157.72 19.03 157.7 18.3 157.7 18.3 L 158.7 18.3 C 158.7 18.3 158.67 23.55 158.7 23.6 C 158.7 24.5 158.6 25.2 158.4 25.6 C 158.2 26 157.9 26.3 157.5 26.5 C 157.1 26.7 156.5 26.8 155.9 26.8 C 155.2 26.8 154.6 26.7 154.2 26.4 C 153.7 26 153.5 25.5 153.5 24.9 Z M 154.4 21.2 C 154.4 22 154.5 22.6 154.8 23 C 155.2 23.3 155.6 23.5 156 23.5 C 156.5 23.5 156.9 23.3 157.2 23 C 157.6 22.6 157.7 22 157.7 21.3 C 157.7 20.5 157.5 20 157.2 19.6 C 156.9 19.2 156.5 19 156 19 C 155.6 19 155.2 19.2 154.9 19.6 C 154.5 19.9 154.4 20.5 154.4 21.2 Z M 167.7 24.4 C 167.6 24.2 167.5 23.9 167.5 23.6 C 167.1 24 166.7 24.2 166.4 24.3 C 166 24.4 165.6 24.5 165.2 24.5 C 164.6 24.5 164 24.4 163.7 24 C 163.3 23.7 163.1 23.3 163.1 22.8 C 163.1 22.5 163.2 22.2 163.3 22 C 163.5 21.7 163.7 21.5 163.9 21.4 C 164.1 21.2 164.3 21.1 164.6 21 C 164.8 21 165.1 20.9 165.5 20.9 C 166.4 20.8 167 20.7 167.4 20.5 C 167.4 20.4 167.4 20.3 167.4 20.2 C 167.4 19.8 167.3 19.5 167.1 19.4 C 166.8 19.1 166.4 19 165.9 19 C 165.4 19 165.1 19.1 164.8 19.3 C 164.6 19.4 164.4 19.7 164.3 20.2 C 164.3 20.2 163.3 20 163.3 20 C 163.4 19.6 163.6 19.2 163.8 19 C 164 18.7 164.3 18.5 164.7 18.4 C 165.1 18.2 165.5 18.2 166.1 18.2 C 166.6 18.2 167 18.2 167.3 18.3 C 167.7 18.5 167.9 18.6 168 18.8 C 168.2 19 168.3 19.2 168.4 19.5 C 168.4 19.7 168.4 20 168.4 20.5 C 168.4 20.5 168.4 21.8 168.4 21.8 C 168.4 22.8 168.4 23.4 168.5 23.6 C 168.5 23.9 168.6 24.1 168.7 24.4 C 168.75 24.38 167.7 24.4 167.7 24.4 C 167.7 24.4 167.67 24.38 167.7 24.4 Z M 167.4 21.3 C 167 21.5 166.4 21.6 165.7 21.7 C 165.3 21.8 165 21.8 164.8 21.9 C 164.6 22 164.5 22.1 164.4 22.3 C 164.3 22.4 164.2 22.6 164.2 22.7 C 164.2 23 164.3 23.2 164.6 23.4 C 164.8 23.6 165.1 23.7 165.5 23.7 C 165.9 23.7 166.2 23.6 166.5 23.4 C 166.8 23.3 167.1 23 167.2 22.7 C 167.3 22.5 167.4 22.2 167.4 21.7 C 167.4 21.7 167.4 21.3 167.4 21.3 Z M 170 24.4 L 170 18.3 L 170.9 18.3 C 170.9 18.3 170.95 19.16 170.9 19.2 C 171.4 18.5 172 18.2 172.9 18.2 C 173.2 18.2 173.6 18.2 173.9 18.4 C 174.2 18.5 174.4 18.7 174.6 18.9 C 174.7 19.1 174.8 19.3 174.9 19.6 C 174.9 19.8 175 20.2 175 20.6 C 174.96 20.64 175 24.4 175 24.4 L 173.9 24.4 C 173.9 24.4 173.93 20.68 173.9 20.7 C 173.9 20.3 173.9 19.9 173.8 19.7 C 173.7 19.5 173.6 19.4 173.4 19.2 C 173.2 19.1 172.9 19 172.7 19 C 172.2 19 171.8 19.2 171.5 19.5 C 171.2 19.7 171 20.3 171 21.1 C 171.05 21.05 171 24.4 171 24.4 L 170 24.4 Z M 180.5 24.4 C 180.5 24.4 180.49 23.61 180.5 23.6 C 180.1 24.2 179.5 24.5 178.8 24.5 C 178.3 24.5 177.9 24.4 177.5 24.1 C 177 23.8 176.7 23.5 176.5 23 C 176.3 22.5 176.2 22 176.2 21.3 C 176.2 20.7 176.3 20.2 176.5 19.7 C 176.7 19.2 177 18.8 177.4 18.6 C 177.8 18.3 178.2 18.2 178.7 18.2 C 179.1 18.2 179.4 18.2 179.7 18.4 C 180 18.5 180.2 18.7 180.4 19 C 180.42 18.99 180.4 16 180.4 16 L 181.4 16 L 181.4 24.4 L 180.5 24.4 Z M 177.2 21.3 C 177.2 22.1 177.4 22.7 177.7 23.1 C 178.1 23.5 178.4 23.7 178.9 23.7 C 179.3 23.7 179.7 23.5 180 23.1 C 180.4 22.7 180.5 22.2 180.5 21.4 C 180.5 20.6 180.3 20 180 19.6 C 179.7 19.2 179.3 19 178.8 19 C 178.4 19 178 19.2 177.7 19.6 C 177.4 19.9 177.2 20.5 177.2 21.3 Z " stroke="none" fill="#fff"/>  </g></svg>