<?xml version="1.0" standalone="no"?><!DOCTYPE svg PUBLIC "-//W3C//DTD SVG 1.1//EN" "http://www.w3.org/Graphics/SVG/1.1/DTD/svg11.dtd"><svg xmlns="http://www.w3.org/2000/svg" version="1.1" width="68.5px" height="20.5px" viewBox="0 -4 68.5 20.5" style="top:-4px">  <desc>Contact Us</desc>  <defs/>  <g id="Polygon67479">    <path d="M 12.1 6.1 C 12.1 6.1 13.2 6.4 13.2 6.4 C 13 7.3 12.6 8 12 8.5 C 11.4 9 10.6 9.2 9.8 9.2 C 8.9 9.2 8.1 9 7.6 8.7 C 7 8.3 6.6 7.8 6.3 7.1 C 6 6.4 5.8 5.6 5.8 4.8 C 5.8 3.9 6 3.2 6.3 2.5 C 6.6 1.9 7.1 1.4 7.7 1 C 8.4 0.7 9 0.5 9.8 0.5 C 10.6 0.5 11.3 0.7 11.9 1.2 C 12.5 1.6 12.9 2.2 13.1 3 C 13.1 3 12 3.2 12 3.2 C 11.8 2.6 11.5 2.2 11.2 1.9 C 10.8 1.6 10.3 1.5 9.8 1.5 C 9.1 1.5 8.6 1.6 8.1 1.9 C 7.7 2.2 7.4 2.7 7.2 3.2 C 7 3.7 7 4.2 7 4.8 C 7 5.5 7.1 6.1 7.3 6.7 C 7.5 7.2 7.8 7.6 8.2 7.9 C 8.7 8.1 9.2 8.3 9.7 8.3 C 10.3 8.3 10.8 8.1 11.3 7.7 C 11.7 7.4 12 6.8 12.1 6.1 Z M 14.1 6 C 14.1 4.9 14.4 4.1 15 3.5 C 15.6 3.1 16.2 2.8 16.9 2.8 C 17.8 2.8 18.5 3.1 19 3.7 C 19.5 4.2 19.8 5 19.8 5.9 C 19.8 6.7 19.7 7.3 19.4 7.8 C 19.2 8.2 18.9 8.6 18.4 8.8 C 18 9.1 17.5 9.2 16.9 9.2 C 16.1 9.2 15.4 8.9 14.9 8.4 C 14.4 7.8 14.1 7.1 14.1 6 Z M 15.2 6 C 15.2 6.8 15.3 7.4 15.7 7.8 C 16 8.2 16.4 8.4 16.9 8.4 C 17.5 8.4 17.9 8.2 18.2 7.8 C 18.6 7.4 18.7 6.8 18.7 6 C 18.7 5.2 18.6 4.7 18.2 4.3 C 17.9 3.9 17.5 3.7 16.9 3.7 C 16.4 3.7 16 3.9 15.7 4.3 C 15.3 4.7 15.2 5.2 15.2 6 Z M 21 9.1 L 21 3 L 21.9 3 C 21.9 3 21.93 3.85 21.9 3.8 C 22.4 3.2 23 2.8 23.9 2.8 C 24.2 2.8 24.6 2.9 24.9 3 C 25.2 3.2 25.4 3.3 25.6 3.6 C 25.7 3.8 25.8 4 25.9 4.3 C 25.9 4.5 25.9 4.8 25.9 5.3 C 25.95 5.33 25.9 9.1 25.9 9.1 L 24.9 9.1 C 24.9 9.1 24.91 5.37 24.9 5.4 C 24.9 4.9 24.9 4.6 24.8 4.4 C 24.7 4.2 24.6 4 24.4 3.9 C 24.2 3.8 23.9 3.7 23.6 3.7 C 23.2 3.7 22.8 3.9 22.5 4.2 C 22.2 4.4 22 5 22 5.7 C 22.03 5.74 22 9.1 22 9.1 L 21 9.1 Z M 29.3 8.2 C 29.4 8.2 29.6 8.2 29.8 8.1 C 29.8 8.1 29.9 9.1 29.9 9.1 C 29.6 9.1 29.4 9.1 29.1 9.1 C 28.8 9.1 28.5 9.1 28.3 9 C 28.1 8.9 27.9 8.7 27.8 8.5 C 27.8 8.3 27.7 7.9 27.7 7.3 C 27.72 7.28 27.7 3.8 27.7 3.8 L 27 3.8 L 27 3 L 27.7 3 L 27.7 1.5 L 28.7 0.9 L 28.7 3 L 29.8 3 L 29.8 3.8 L 28.7 3.8 C 28.7 3.8 28.74 7.34 28.7 7.3 C 28.7 7.6 28.8 7.8 28.8 7.9 C 28.8 8 28.9 8.1 29 8.1 C 29.1 8.2 29.2 8.2 29.3 8.2 C 29.3 8.2 29.3 8.2 29.3 8.2 Z M 35 9.1 C 34.9 8.9 34.8 8.6 34.8 8.3 C 34.4 8.6 34 8.9 33.7 9 C 33.3 9.1 32.9 9.2 32.5 9.2 C 31.8 9.2 31.3 9 31 8.7 C 30.6 8.4 30.4 8 30.4 7.5 C 30.4 7.2 30.5 6.9 30.6 6.6 C 30.8 6.4 31 6.2 31.2 6.1 C 31.4 5.9 31.6 5.8 31.9 5.7 C 32.1 5.7 32.4 5.6 32.8 5.6 C 33.7 5.5 34.3 5.3 34.7 5.2 C 34.7 5.1 34.7 5 34.7 4.9 C 34.7 4.5 34.6 4.2 34.4 4 C 34.1 3.8 33.7 3.7 33.2 3.7 C 32.7 3.7 32.4 3.8 32.1 4 C 31.9 4.1 31.7 4.4 31.6 4.9 C 31.6 4.9 30.6 4.7 30.6 4.7 C 30.7 4.3 30.9 3.9 31.1 3.7 C 31.3 3.4 31.6 3.2 32 3.1 C 32.4 2.9 32.8 2.8 33.4 2.8 C 33.9 2.8 34.3 2.9 34.6 3 C 35 3.2 35.2 3.3 35.3 3.5 C 35.5 3.7 35.6 3.9 35.7 4.2 C 35.7 4.4 35.7 4.7 35.7 5.1 C 35.7 5.1 35.7 6.5 35.7 6.5 C 35.7 7.5 35.7 8.1 35.8 8.3 C 35.8 8.6 35.9 8.8 36 9.1 C 36.04 9.07 35 9.1 35 9.1 C 35 9.1 34.96 9.07 35 9.1 Z M 34.7 6 C 34.3 6.2 33.7 6.3 33 6.4 C 32.6 6.5 32.3 6.5 32.1 6.6 C 31.9 6.7 31.8 6.8 31.7 6.9 C 31.6 7.1 31.5 7.3 31.5 7.4 C 31.5 7.7 31.6 7.9 31.9 8.1 C 32.1 8.3 32.4 8.4 32.8 8.4 C 33.2 8.4 33.5 8.3 33.8 8.1 C 34.1 8 34.4 7.7 34.5 7.4 C 34.6 7.2 34.7 6.8 34.7 6.4 C 34.7 6.4 34.7 6 34.7 6 Z M 41.3 6.8 C 41.3 6.8 42.3 7 42.3 7 C 42.2 7.7 41.9 8.2 41.4 8.6 C 41 9 40.4 9.2 39.8 9.2 C 38.9 9.2 38.3 8.9 37.8 8.4 C 37.3 7.8 37 7.1 37 6 C 37 5.4 37.1 4.8 37.3 4.3 C 37.5 3.8 37.9 3.5 38.3 3.2 C 38.8 3 39.2 2.8 39.8 2.8 C 40.4 2.8 41 3 41.4 3.3 C 41.8 3.7 42.1 4.2 42.2 4.8 C 42.2 4.8 41.2 4.9 41.2 4.9 C 41.1 4.5 40.9 4.2 40.7 4 C 40.4 3.8 40.2 3.7 39.8 3.7 C 39.3 3.7 38.9 3.9 38.5 4.3 C 38.2 4.6 38.1 5.2 38.1 6 C 38.1 6.8 38.2 7.4 38.5 7.8 C 38.8 8.2 39.2 8.4 39.8 8.4 C 40.2 8.4 40.5 8.2 40.8 8 C 41 7.7 41.2 7.4 41.3 6.8 Z M 45 8.2 C 45.1 8.2 45.2 8.2 45.4 8.1 C 45.4 8.1 45.6 9.1 45.6 9.1 C 45.3 9.1 45 9.1 44.8 9.1 C 44.4 9.1 44.1 9.1 43.9 9 C 43.7 8.9 43.6 8.7 43.5 8.5 C 43.4 8.3 43.4 7.9 43.4 7.3 C 43.37 7.28 43.4 3.8 43.4 3.8 L 42.6 3.8 L 42.6 3 L 43.4 3 L 43.4 1.5 L 44.4 0.9 L 44.4 3 L 45.4 3 L 45.4 3.8 L 44.4 3.8 C 44.4 3.8 44.39 7.34 44.4 7.3 C 44.4 7.6 44.4 7.8 44.4 7.9 C 44.5 8 44.5 8.1 44.6 8.1 C 44.7 8.2 44.8 8.2 45 8.2 C 45 8.2 45 8.2 45 8.2 Z M 55.3 0.7 L 56.5 0.7 C 56.5 0.7 56.45 5.52 56.5 5.5 C 56.5 6.4 56.4 7 56.2 7.5 C 56 8 55.6 8.4 55.1 8.7 C 54.6 9.1 54 9.2 53.2 9.2 C 52.4 9.2 51.7 9.1 51.2 8.8 C 50.7 8.5 50.4 8.1 50.2 7.6 C 50 7.1 49.8 6.4 49.8 5.5 C 49.85 5.52 49.8 0.7 49.8 0.7 L 51 0.7 C 51 0.7 50.96 5.51 51 5.5 C 51 6.2 51 6.8 51.2 7.1 C 51.3 7.5 51.5 7.7 51.9 7.9 C 52.2 8.1 52.6 8.2 53.1 8.2 C 53.9 8.2 54.5 8 54.8 7.7 C 55.2 7.3 55.3 6.6 55.3 5.5 C 55.34 5.51 55.3 0.7 55.3 0.7 Z M 57.8 7.3 C 57.8 7.3 58.8 7.1 58.8 7.1 C 58.8 7.5 59 7.8 59.3 8 C 59.5 8.2 59.9 8.4 60.4 8.4 C 60.8 8.4 61.2 8.3 61.4 8.1 C 61.6 7.9 61.8 7.6 61.8 7.4 C 61.8 7.2 61.7 7 61.4 6.8 C 61.3 6.7 61 6.6 60.4 6.5 C 59.6 6.3 59.1 6.1 58.8 6 C 58.5 5.9 58.3 5.7 58.2 5.4 C 58 5.2 57.9 4.9 57.9 4.6 C 57.9 4.3 58 4.1 58.1 3.8 C 58.2 3.6 58.4 3.4 58.6 3.3 C 58.8 3.2 59 3.1 59.3 3 C 59.6 2.9 59.9 2.8 60.2 2.8 C 60.6 2.8 61.1 2.9 61.4 3.1 C 61.8 3.2 62.1 3.4 62.2 3.6 C 62.4 3.8 62.5 4.2 62.6 4.6 C 62.6 4.6 61.6 4.7 61.6 4.7 C 61.5 4.4 61.4 4.1 61.2 4 C 61 3.8 60.6 3.7 60.2 3.7 C 59.8 3.7 59.4 3.8 59.2 3.9 C 59 4.1 58.9 4.3 58.9 4.5 C 58.9 4.6 59 4.7 59.1 4.8 C 59.1 4.9 59.3 5 59.5 5.1 C 59.6 5.2 59.9 5.2 60.4 5.4 C 61.1 5.6 61.6 5.7 61.9 5.9 C 62.2 6 62.4 6.2 62.6 6.4 C 62.7 6.6 62.8 6.9 62.8 7.3 C 62.8 7.6 62.7 7.9 62.5 8.3 C 62.3 8.6 62 8.8 61.6 9 C 61.3 9.1 60.8 9.2 60.4 9.2 C 59.6 9.2 59 9 58.6 8.7 C 58.1 8.4 57.9 7.9 57.8 7.3 Z " stroke="none" fill="#f28620"/>  </g></svg>