<?xml version="1.0" standalone="no"?><!DOCTYPE svg PUBLIC "-//W3C//DTD SVG 1.1//EN" "http://www.w3.org/Graphics/SVG/1.1/DTD/svg11.dtd"><svg xmlns="http://www.w3.org/2000/svg" version="1.1" width="158px" height="146.5px" viewBox="0 -4 158 146.5" style="top:-4px">  <desc>DSW House Unit 3, Hayfield Business Park Field Lane Auckley Doncaster DN9 3FL 01302 760 008 info@dswlearning.co.uk</desc>  <defs/>  <g id="Polygon69524">    <path d="M 0.8 128 L 0.8 126.9 L 1.8 126.9 L 1.8 128 L 0.8 128 Z M 0.8 135.3 L 0.8 129.2 L 1.8 129.2 L 1.8 135.3 L 0.8 135.3 Z M 3.4 135.3 L 3.4 129.2 L 4.3 129.2 C 4.3 129.2 4.31 130.04 4.3 130 C 4.8 129.4 5.4 129 6.2 129 C 6.6 129 6.9 129.1 7.3 129.2 C 7.6 129.4 7.8 129.5 7.9 129.8 C 8.1 130 8.2 130.2 8.3 130.5 C 8.3 130.7 8.3 131 8.3 131.5 C 8.32 131.52 8.3 135.3 8.3 135.3 L 7.3 135.3 C 7.3 135.3 7.29 131.56 7.3 131.6 C 7.3 131.1 7.3 130.8 7.2 130.6 C 7.1 130.4 7 130.2 6.7 130.1 C 6.5 130 6.3 129.9 6 129.9 C 5.6 129.9 5.2 130.1 4.9 130.4 C 4.6 130.6 4.4 131.2 4.4 131.9 C 4.41 131.94 4.4 135.3 4.4 135.3 L 3.4 135.3 Z M 10.2 135.3 L 10.2 130 L 9.2 130 L 9.2 129.2 L 10.2 129.2 C 10.2 129.2 10.15 128.53 10.2 128.5 C 10.2 128.1 10.2 127.8 10.3 127.6 C 10.4 127.4 10.5 127.1 10.8 127 C 11 126.8 11.4 126.7 11.8 126.7 C 12.1 126.7 12.4 126.8 12.8 126.8 C 12.8 126.8 12.6 127.7 12.6 127.7 C 12.4 127.7 12.2 127.7 12 127.7 C 11.7 127.7 11.5 127.7 11.4 127.9 C 11.2 128 11.2 128.2 11.2 128.6 C 11.18 128.62 11.2 129.2 11.2 129.2 L 12.4 129.2 L 12.4 130 L 11.2 130 L 11.2 135.3 L 10.2 135.3 Z M 12.8 132.2 C 12.8 131.1 13.1 130.3 13.7 129.7 C 14.2 129.3 14.9 129 15.6 129 C 16.5 129 17.2 129.3 17.7 129.9 C 18.2 130.4 18.5 131.2 18.5 132.1 C 18.5 132.9 18.4 133.5 18.1 134 C 17.9 134.4 17.6 134.8 17.1 135 C 16.7 135.3 16.2 135.4 15.6 135.4 C 14.8 135.4 14.1 135.1 13.6 134.6 C 13 134 12.8 133.2 12.8 132.2 Z M 13.8 132.2 C 13.8 133 14 133.6 14.4 134 C 14.7 134.4 15.1 134.6 15.6 134.6 C 16.1 134.6 16.6 134.4 16.9 134 C 17.3 133.6 17.4 133 17.4 132.2 C 17.4 131.4 17.3 130.9 16.9 130.5 C 16.6 130.1 16.1 129.9 15.6 129.9 C 15.1 129.9 14.7 130.1 14.4 130.5 C 14 130.9 13.8 131.4 13.8 132.2 Z M 25.7 134.8 C 25.6 134.7 25.6 134.6 25.6 134.3 C 25.3 134.6 25 134.8 24.7 135 C 24.4 135.2 24.1 135.3 23.8 135.3 C 23.5 135.3 23.1 135.2 22.8 135 C 22.5 134.8 22.2 134.5 22 134.1 C 21.8 133.7 21.7 133.2 21.7 132.7 C 21.7 132.1 21.9 131.5 22.2 130.9 C 22.5 130.3 22.9 129.8 23.4 129.5 C 23.8 129.2 24.3 129.1 24.7 129.1 C 25 129.1 25.4 129.1 25.7 129.3 C 26 129.5 26.2 129.8 26.4 130.1 C 26.44 130.11 26.6 129.2 26.6 129.2 L 27.7 129.2 C 27.7 129.2 26.84 133.06 26.8 133.1 C 26.7 133.6 26.7 133.9 26.7 134 C 26.7 134.1 26.7 134.1 26.8 134.2 C 26.9 134.3 27 134.3 27.1 134.3 C 27.3 134.3 27.5 134.2 27.9 134 C 28.3 133.7 28.6 133.3 28.9 132.7 C 29.1 132.2 29.3 131.7 29.3 131.2 C 29.3 130.5 29.1 129.9 28.8 129.4 C 28.5 128.8 28 128.4 27.3 128 C 26.7 127.7 26 127.5 25.2 127.5 C 24.3 127.5 23.5 127.8 22.7 128.2 C 22 128.6 21.4 129.2 21 130 C 20.6 130.8 20.4 131.6 20.4 132.5 C 20.4 133.4 20.6 134.2 21 134.9 C 21.4 135.6 22 136.1 22.8 136.4 C 23.5 136.7 24.4 136.9 25.3 136.9 C 26.3 136.9 27.2 136.7 27.8 136.4 C 28.5 136 29 135.6 29.4 135.2 C 29.4 135.2 30.4 135.2 30.4 135.2 C 30.2 135.6 29.9 136 29.4 136.4 C 28.9 136.8 28.4 137.1 27.7 137.4 C 27.1 137.6 26.3 137.7 25.4 137.7 C 24.5 137.7 23.7 137.6 23 137.4 C 22.3 137.2 21.7 136.9 21.2 136.4 C 20.7 136 20.3 135.5 20 134.9 C 19.7 134.2 19.6 133.4 19.6 132.6 C 19.6 131.6 19.7 130.8 20.1 129.9 C 20.6 128.9 21.3 128.1 22.1 127.5 C 23 127 24 126.7 25.2 126.7 C 26.2 126.7 27 126.9 27.8 127.3 C 28.5 127.7 29.1 128.3 29.6 129 C 29.9 129.7 30.1 130.4 30.1 131.2 C 30.1 132.3 29.7 133.3 29 134.1 C 28.3 134.9 27.5 135.3 26.7 135.3 C 26.4 135.3 26.2 135.2 26 135.2 C 25.9 135.1 25.8 135 25.7 134.8 C 25.7 134.8 25.7 134.8 25.7 134.8 Z M 22.8 132.8 C 22.8 133.3 22.9 133.7 23.2 134 C 23.4 134.3 23.7 134.4 24 134.4 C 24.2 134.4 24.5 134.4 24.7 134.2 C 24.9 134.1 25.2 133.9 25.4 133.7 C 25.6 133.4 25.8 133.1 25.9 132.7 C 26 132.3 26.1 131.9 26.1 131.5 C 26.1 131 26 130.6 25.7 130.3 C 25.5 130 25.2 129.9 24.8 129.9 C 24.5 129.9 24.3 130 24.1 130.1 C 23.9 130.2 23.7 130.4 23.5 130.7 C 23.3 131 23.1 131.3 23 131.7 C 22.9 132.1 22.8 132.4 22.8 132.8 Z M 35.5 135.3 C 35.5 135.3 35.55 134.49 35.5 134.5 C 35.2 135.1 34.6 135.4 33.8 135.4 C 33.4 135.4 32.9 135.3 32.5 135 C 32.1 134.7 31.8 134.4 31.6 133.9 C 31.3 133.4 31.2 132.8 31.2 132.2 C 31.2 131.6 31.3 131.1 31.5 130.6 C 31.7 130.1 32 129.7 32.4 129.4 C 32.8 129.2 33.3 129 33.8 129 C 34.2 129 34.5 129.1 34.8 129.3 C 35.1 129.4 35.3 129.6 35.5 129.9 C 35.48 129.88 35.5 126.9 35.5 126.9 L 36.5 126.9 L 36.5 135.3 L 35.5 135.3 Z M 32.3 132.2 C 32.3 133 32.5 133.6 32.8 134 C 33.1 134.4 33.5 134.6 33.9 134.6 C 34.4 134.6 34.8 134.4 35.1 134 C 35.4 133.6 35.6 133.1 35.6 132.3 C 35.6 131.5 35.4 130.9 35.1 130.5 C 34.8 130.1 34.4 129.9 33.9 129.9 C 33.4 129.9 33.1 130.1 32.8 130.5 C 32.4 130.8 32.3 131.4 32.3 132.2 Z M 37.7 133.4 C 37.7 133.4 38.7 133.3 38.7 133.3 C 38.8 133.7 39 134 39.2 134.2 C 39.5 134.4 39.8 134.6 40.3 134.6 C 40.8 134.6 41.1 134.5 41.4 134.3 C 41.6 134.1 41.7 133.8 41.7 133.6 C 41.7 133.4 41.6 133.2 41.4 133 C 41.3 132.9 40.9 132.8 40.4 132.7 C 39.6 132.5 39.1 132.3 38.8 132.2 C 38.5 132 38.3 131.9 38.1 131.6 C 38 131.4 37.9 131.1 37.9 130.8 C 37.9 130.5 37.9 130.3 38.1 130 C 38.2 129.8 38.4 129.6 38.6 129.5 C 38.7 129.3 39 129.2 39.2 129.2 C 39.5 129.1 39.8 129 40.1 129 C 40.6 129 41 129.1 41.4 129.2 C 41.7 129.4 42 129.6 42.2 129.8 C 42.4 130 42.5 130.4 42.5 130.7 C 42.5 130.7 41.5 130.9 41.5 130.9 C 41.5 130.6 41.4 130.3 41.1 130.2 C 40.9 130 40.6 129.9 40.2 129.9 C 39.7 129.9 39.4 130 39.2 130.1 C 39 130.3 38.9 130.5 38.9 130.7 C 38.9 130.8 38.9 130.9 39 131 C 39.1 131.1 39.2 131.2 39.4 131.3 C 39.5 131.3 39.8 131.4 40.3 131.6 C 41 131.8 41.6 131.9 41.8 132.1 C 42.1 132.2 42.4 132.4 42.5 132.6 C 42.7 132.8 42.8 133.1 42.8 133.5 C 42.8 133.8 42.7 134.1 42.5 134.4 C 42.3 134.7 42 135 41.6 135.2 C 41.2 135.3 40.8 135.4 40.3 135.4 C 39.5 135.4 38.9 135.2 38.5 134.9 C 38.1 134.6 37.8 134.1 37.7 133.4 Z M 45.1 135.3 L 43.3 129.2 L 44.3 129.2 L 45.3 132.7 C 45.3 132.7 45.65 134 45.6 134 C 45.7 133.9 45.8 133.5 46 132.7 C 45.97 132.74 46.9 129.2 46.9 129.2 L 48 129.2 L 48.9 132.7 L 49.2 133.9 L 49.6 132.7 L 50.6 129.2 L 51.6 129.2 L 49.7 135.3 L 48.6 135.3 L 47.7 131.6 L 47.4 130.6 L 46.2 135.3 L 45.1 135.3 Z M 52.4 135.3 L 52.4 126.9 L 53.5 126.9 L 53.5 135.3 L 52.4 135.3 Z M 59.2 133.3 C 59.2 133.3 60.3 133.4 60.3 133.4 C 60.1 134.1 59.8 134.5 59.4 134.9 C 58.9 135.2 58.3 135.4 57.6 135.4 C 56.7 135.4 56 135.1 55.5 134.6 C 55 134 54.7 133.3 54.7 132.3 C 54.7 131.2 55 130.5 55.5 129.9 C 56 129.3 56.7 129 57.6 129 C 58.4 129 59.1 129.3 59.6 129.9 C 60.1 130.4 60.3 131.2 60.3 132.2 C 60.3 132.3 60.3 132.4 60.3 132.5 C 60.3 132.5 55.8 132.5 55.8 132.5 C 55.8 133.2 56 133.7 56.4 134 C 56.7 134.4 57.1 134.6 57.6 134.6 C 58 134.6 58.3 134.5 58.6 134.3 C 58.9 134.1 59.1 133.7 59.2 133.3 Z M 55.9 131.6 C 55.9 131.6 59.3 131.6 59.3 131.6 C 59.2 131.1 59.1 130.7 58.9 130.5 C 58.5 130.1 58.1 129.9 57.6 129.9 C 57.1 129.9 56.7 130 56.4 130.4 C 56.1 130.7 55.9 131.1 55.9 131.6 Z M 65.8 135.3 C 65.7 135 65.6 134.8 65.6 134.5 C 65.2 134.8 64.8 135.1 64.5 135.2 C 64.1 135.3 63.7 135.4 63.3 135.4 C 62.7 135.4 62.1 135.2 61.8 134.9 C 61.4 134.6 61.3 134.2 61.3 133.7 C 61.3 133.4 61.3 133.1 61.5 132.8 C 61.6 132.6 61.8 132.4 62 132.2 C 62.2 132.1 62.5 132 62.7 131.9 C 62.9 131.9 63.2 131.8 63.6 131.8 C 64.5 131.7 65.1 131.5 65.5 131.4 C 65.5 131.3 65.5 131.2 65.5 131.1 C 65.5 130.7 65.4 130.4 65.2 130.2 C 64.9 130 64.5 129.9 64 129.9 C 63.5 129.9 63.2 130 62.9 130.1 C 62.7 130.3 62.5 130.6 62.4 131.1 C 62.4 131.1 61.4 130.9 61.4 130.9 C 61.5 130.5 61.7 130.1 61.9 129.9 C 62.1 129.6 62.4 129.4 62.8 129.3 C 63.2 129.1 63.6 129 64.2 129 C 64.7 129 65.1 129.1 65.4 129.2 C 65.8 129.3 66 129.5 66.2 129.7 C 66.3 129.9 66.4 130.1 66.5 130.4 C 66.5 130.6 66.5 130.9 66.5 131.3 C 66.5 131.3 66.5 132.7 66.5 132.7 C 66.5 133.7 66.5 134.3 66.6 134.5 C 66.6 134.8 66.7 135 66.9 135.3 C 66.85 135.26 65.8 135.3 65.8 135.3 C 65.8 135.3 65.78 135.26 65.8 135.3 Z M 65.5 132.2 C 65.1 132.4 64.5 132.5 63.8 132.6 C 63.4 132.7 63.1 132.7 62.9 132.8 C 62.7 132.9 62.6 133 62.5 133.1 C 62.4 133.3 62.4 133.4 62.4 133.6 C 62.4 133.9 62.5 134.1 62.7 134.3 C 62.9 134.5 63.2 134.6 63.6 134.6 C 64 134.6 64.3 134.5 64.6 134.3 C 64.9 134.2 65.2 133.9 65.3 133.6 C 65.4 133.4 65.5 133 65.5 132.6 C 65.5 132.6 65.5 132.2 65.5 132.2 Z M 68.1 135.3 L 68.1 129.2 L 69 129.2 C 69 129.2 69.04 130.1 69 130.1 C 69.3 129.7 69.5 129.4 69.7 129.2 C 69.9 129.1 70.1 129 70.4 129 C 70.7 129 71.1 129.2 71.4 129.4 C 71.4 129.4 71.1 130.3 71.1 130.3 C 70.8 130.2 70.6 130.1 70.3 130.1 C 70.1 130.1 69.9 130.2 69.7 130.3 C 69.5 130.4 69.4 130.6 69.3 130.9 C 69.2 131.2 69.1 131.6 69.1 132.1 C 69.15 132.08 69.1 135.3 69.1 135.3 L 68.1 135.3 Z M 72 135.3 L 72 129.2 L 73 129.2 C 73 129.2 72.96 130.04 73 130 C 73.4 129.4 74.1 129 74.9 129 C 75.3 129 75.6 129.1 75.9 129.2 C 76.2 129.4 76.4 129.5 76.6 129.8 C 76.8 130 76.9 130.2 76.9 130.5 C 77 130.7 77 131 77 131.5 C 76.98 131.52 77 135.3 77 135.3 L 75.9 135.3 C 75.9 135.3 75.95 131.56 75.9 131.6 C 75.9 131.1 75.9 130.8 75.8 130.6 C 75.7 130.4 75.6 130.2 75.4 130.1 C 75.2 130 75 129.9 74.7 129.9 C 74.2 129.9 73.9 130.1 73.5 130.4 C 73.2 130.6 73.1 131.2 73.1 131.9 C 73.06 131.94 73.1 135.3 73.1 135.3 L 72 135.3 Z M 78.6 128 L 78.6 126.9 L 79.6 126.9 L 79.6 128 L 78.6 128 Z M 78.6 135.3 L 78.6 129.2 L 79.6 129.2 L 79.6 135.3 L 78.6 135.3 Z M 81.2 135.3 L 81.2 129.2 L 82.1 129.2 C 82.1 129.2 82.09 130.04 82.1 130 C 82.5 129.4 83.2 129 84 129 C 84.4 129 84.7 129.1 85 129.2 C 85.3 129.4 85.6 129.5 85.7 129.8 C 85.9 130 86 130.2 86.1 130.5 C 86.1 130.7 86.1 131 86.1 131.5 C 86.11 131.52 86.1 135.3 86.1 135.3 L 85.1 135.3 C 85.1 135.3 85.08 131.56 85.1 131.6 C 85.1 131.1 85 130.8 85 130.6 C 84.9 130.4 84.7 130.2 84.5 130.1 C 84.3 130 84.1 129.9 83.8 129.9 C 83.4 129.9 83 130.1 82.7 130.4 C 82.4 130.6 82.2 131.2 82.2 131.9 C 82.2 131.94 82.2 135.3 82.2 135.3 L 81.2 135.3 Z M 87.5 135.8 C 87.5 135.8 88.5 135.9 88.5 135.9 C 88.5 136.2 88.7 136.5 88.9 136.6 C 89.1 136.8 89.5 136.9 89.9 136.9 C 90.4 136.9 90.7 136.8 91 136.6 C 91.3 136.4 91.4 136.1 91.5 135.8 C 91.6 135.6 91.6 135.1 91.6 134.5 C 91.2 135 90.6 135.3 89.9 135.3 C 89.1 135.3 88.4 135 88 134.4 C 87.5 133.8 87.3 133 87.3 132.2 C 87.3 131.6 87.4 131.1 87.6 130.6 C 87.8 130.1 88.1 129.7 88.5 129.4 C 88.9 129.2 89.4 129 89.9 129 C 90.6 129 91.2 129.3 91.7 129.9 C 91.71 129.91 91.7 129.2 91.7 129.2 L 92.7 129.2 C 92.7 129.2 92.66 134.44 92.7 134.4 C 92.7 135.4 92.6 136.1 92.4 136.5 C 92.2 136.8 91.9 137.2 91.5 137.4 C 91 137.6 90.5 137.7 89.9 137.7 C 89.2 137.7 88.6 137.6 88.1 137.2 C 87.7 136.9 87.5 136.4 87.5 135.8 Z M 88.4 132.1 C 88.4 132.9 88.5 133.5 88.8 133.9 C 89.1 134.2 89.5 134.4 90 134.4 C 90.5 134.4 90.9 134.2 91.2 133.9 C 91.5 133.5 91.7 132.9 91.7 132.1 C 91.7 131.4 91.5 130.8 91.2 130.5 C 90.9 130.1 90.5 129.9 90 129.9 C 89.5 129.9 89.2 130.1 88.8 130.5 C 88.5 130.8 88.4 131.4 88.4 132.1 Z M 94.5 135.3 L 94.5 134.1 L 95.7 134.1 L 95.7 135.3 L 94.5 135.3 Z M 101.4 133 C 101.4 133 102.5 133.2 102.5 133.2 C 102.3 133.9 102.1 134.4 101.6 134.8 C 101.2 135.2 100.6 135.4 99.9 135.4 C 99.1 135.4 98.4 135.1 97.9 134.6 C 97.4 134 97.2 133.3 97.2 132.2 C 97.2 131.6 97.3 131 97.5 130.5 C 97.7 130 98 129.7 98.5 129.4 C 98.9 129.2 99.4 129 99.9 129 C 100.6 129 101.1 129.2 101.6 129.5 C 102 129.9 102.2 130.4 102.4 131 C 102.4 131 101.4 131.1 101.4 131.1 C 101.3 130.7 101.1 130.4 100.9 130.2 C 100.6 130 100.3 129.9 100 129.9 C 99.5 129.9 99 130.1 98.7 130.4 C 98.4 130.8 98.2 131.4 98.2 132.2 C 98.2 133 98.4 133.6 98.7 134 C 99 134.4 99.4 134.6 99.9 134.6 C 100.3 134.6 100.7 134.4 100.9 134.2 C 101.2 133.9 101.4 133.5 101.4 133 Z M 103 132.2 C 103 131.1 103.3 130.3 103.9 129.7 C 104.4 129.3 105.1 129 105.8 129 C 106.6 129 107.3 129.3 107.9 129.9 C 108.4 130.4 108.7 131.2 108.7 132.1 C 108.7 132.9 108.5 133.5 108.3 134 C 108.1 134.4 107.7 134.8 107.3 135 C 106.8 135.3 106.3 135.4 105.8 135.4 C 105 135.4 104.3 135.1 103.7 134.6 C 103.2 134 103 133.2 103 132.2 Z M 104 132.2 C 104 133 104.2 133.6 104.5 134 C 104.9 134.4 105.3 134.6 105.8 134.6 C 106.3 134.6 106.7 134.4 107.1 134 C 107.4 133.6 107.6 133 107.6 132.2 C 107.6 131.4 107.4 130.9 107.1 130.5 C 106.7 130.1 106.3 129.9 105.8 129.9 C 105.3 129.9 104.9 130.1 104.5 130.5 C 104.2 130.9 104 131.4 104 132.2 Z M 110.2 135.3 L 110.2 134.1 L 111.3 134.1 L 111.3 135.3 L 110.2 135.3 Z M 117.1 135.3 C 117.1 135.3 117.12 134.37 117.1 134.4 C 116.6 135.1 116 135.4 115.2 135.4 C 114.8 135.4 114.5 135.3 114.2 135.2 C 113.9 135.1 113.6 134.9 113.5 134.7 C 113.3 134.5 113.2 134.2 113.2 133.9 C 113.1 133.7 113.1 133.4 113.1 132.9 C 113.11 132.95 113.1 129.2 113.1 129.2 L 114.1 129.2 C 114.1 129.2 114.14 132.55 114.1 132.6 C 114.1 133.1 114.2 133.5 114.2 133.6 C 114.3 133.9 114.4 134.1 114.6 134.3 C 114.8 134.4 115.1 134.5 115.4 134.5 C 115.7 134.5 116 134.4 116.3 134.3 C 116.5 134.1 116.7 133.9 116.8 133.6 C 117 133.4 117 133 117 132.4 C 117.01 132.44 117 129.2 117 129.2 L 118 129.2 L 118 135.3 L 117.1 135.3 Z M 119.7 135.3 L 119.7 126.9 L 120.7 126.9 L 120.7 131.7 L 123.1 129.2 L 124.5 129.2 L 122.1 131.4 L 124.7 135.3 L 123.4 135.3 L 121.4 132.2 L 120.7 132.9 L 120.7 135.3 L 119.7 135.3 Z " stroke="none" fill="#000"/>  </g>  <g id="Polygon69523">    <path d="M 1.3 106.4 C 0.8 105.7 0.5 104.5 0.5 103 C 0.5 102 0.6 101.2 0.8 100.6 C 1 100 1.3 99.5 1.7 99.2 C 2.1 98.8 2.6 98.7 3.2 98.7 C 3.7 98.7 4.1 98.8 4.4 98.9 C 4.8 99.1 5 99.4 5.3 99.7 C 5.5 100.1 5.6 100.5 5.8 101 C 5.9 101.5 6 102.1 6 103 C 6 103.9 5.9 104.7 5.7 105.3 C 5.5 106 5.2 106.4 4.8 106.7 C 4.3 107.1 3.8 107.2 3.2 107.2 C 2.4 107.2 1.8 107 1.3 106.4 C 1.3 106.4 1.3 106.4 1.3 106.4 Z M 2.1 100.1 C 1.7 100.6 1.5 101.6 1.5 103 C 1.5 104.3 1.7 105.3 2 105.7 C 2.4 106.2 2.8 106.4 3.2 106.4 C 3.7 106.4 4.1 106.2 4.4 105.7 C 4.7 105.3 4.9 104.3 4.9 103 C 4.9 101.6 4.7 100.7 4.4 100.2 C 4.1 99.7 3.7 99.5 3.2 99.5 C 2.7 99.5 2.4 99.7 2.1 100.1 C 2.1 100.1 2.1 100.1 2.1 100.1 Z M 10.9 107.1 L 9.9 107.1 C 9.9 107.1 9.87 100.53 9.9 100.5 C 9.6 100.8 9.3 101 8.9 101.2 C 8.5 101.5 8.1 101.7 7.8 101.8 C 7.8 101.8 7.8 100.8 7.8 100.8 C 8.4 100.5 8.9 100.2 9.3 99.8 C 9.7 99.4 10.1 99 10.2 98.7 C 10.23 98.67 10.9 98.7 10.9 98.7 L 10.9 107.1 Z M 13.5 104.9 C 13.5 104.9 14.6 104.7 14.6 104.7 C 14.7 105.3 14.9 105.8 15.2 106 C 15.5 106.3 15.8 106.4 16.2 106.4 C 16.7 106.4 17.1 106.2 17.4 105.9 C 17.8 105.6 17.9 105.1 17.9 104.6 C 17.9 104.2 17.8 103.8 17.5 103.5 C 17.2 103.2 16.8 103 16.3 103 C 16.1 103 15.9 103 15.6 103.1 C 15.6 103.1 15.7 102.2 15.7 102.2 C 15.8 102.2 15.8 102.2 15.9 102.2 C 16.3 102.2 16.7 102.1 17 101.9 C 17.4 101.7 17.6 101.3 17.6 100.8 C 17.6 100.5 17.4 100.1 17.2 99.9 C 16.9 99.6 16.6 99.5 16.2 99.5 C 15.8 99.5 15.5 99.6 15.2 99.9 C 14.9 100.1 14.8 100.5 14.7 101 C 14.7 101 13.6 100.8 13.6 100.8 C 13.8 100.2 14.1 99.6 14.5 99.2 C 15 98.9 15.5 98.7 16.2 98.7 C 16.6 98.7 17.1 98.8 17.4 99 C 17.8 99.2 18.1 99.4 18.3 99.8 C 18.5 100.1 18.6 100.5 18.6 100.9 C 18.6 101.2 18.5 101.5 18.3 101.8 C 18.1 102.1 17.9 102.4 17.5 102.6 C 18 102.7 18.4 102.9 18.6 103.3 C 18.9 103.6 19 104.1 19 104.6 C 19 105.4 18.8 106 18.2 106.5 C 17.7 107 17 107.3 16.2 107.3 C 15.5 107.3 14.9 107 14.4 106.6 C 13.9 106.2 13.6 105.6 13.5 104.9 Z M 20.9 106.4 C 20.3 105.7 20.1 104.5 20.1 103 C 20.1 102 20.2 101.2 20.4 100.6 C 20.6 100 20.9 99.5 21.3 99.2 C 21.7 98.8 22.2 98.7 22.8 98.7 C 23.3 98.7 23.6 98.8 24 98.9 C 24.3 99.1 24.6 99.4 24.8 99.7 C 25.1 100.1 25.2 100.5 25.4 101 C 25.5 101.5 25.5 102.1 25.5 103 C 25.5 103.9 25.4 104.7 25.2 105.3 C 25 106 24.7 106.4 24.3 106.7 C 23.9 107.1 23.4 107.2 22.8 107.2 C 22 107.2 21.4 107 20.9 106.4 C 20.9 106.4 20.9 106.4 20.9 106.4 Z M 21.7 100.1 C 21.3 100.6 21.1 101.6 21.1 103 C 21.1 104.3 21.3 105.3 21.6 105.7 C 21.9 106.2 22.3 106.4 22.8 106.4 C 23.3 106.4 23.7 106.2 24 105.7 C 24.3 105.3 24.5 104.3 24.5 103 C 24.5 101.6 24.3 100.7 24 100.2 C 23.7 99.7 23.3 99.5 22.8 99.5 C 22.3 99.5 21.9 99.7 21.7 100.1 C 21.7 100.1 21.7 100.1 21.7 100.1 Z M 32 106.1 L 32 107.1 C 32 107.1 26.46 107.1 26.5 107.1 C 26.4 106.9 26.5 106.6 26.6 106.4 C 26.7 106 26.9 105.6 27.3 105.3 C 27.6 104.9 28 104.5 28.6 104 C 29.5 103.2 30.1 102.7 30.5 102.2 C 30.8 101.8 30.9 101.4 30.9 101 C 30.9 100.6 30.8 100.2 30.5 99.9 C 30.2 99.7 29.8 99.5 29.4 99.5 C 28.9 99.5 28.5 99.7 28.2 100 C 27.9 100.3 27.7 100.7 27.7 101.2 C 27.7 101.2 26.7 101.1 26.7 101.1 C 26.7 100.3 27 99.7 27.5 99.3 C 27.9 98.9 28.6 98.7 29.4 98.7 C 30.2 98.7 30.8 98.9 31.3 99.3 C 31.8 99.8 32 100.3 32 101 C 32 101.3 31.9 101.7 31.8 102 C 31.7 102.3 31.4 102.7 31.1 103 C 30.8 103.4 30.3 103.9 29.5 104.5 C 28.9 105 28.5 105.4 28.3 105.6 C 28.1 105.7 28 105.9 27.9 106.1 C 27.89 106.11 32 106.1 32 106.1 Z M 36.4 99.8 L 36.4 98.8 L 41.9 98.8 C 41.9 98.8 41.88 99.61 41.9 99.6 C 41.3 100.2 40.8 100.9 40.3 101.9 C 39.8 102.8 39.4 103.8 39.1 104.8 C 38.9 105.5 38.7 106.3 38.7 107.1 C 38.7 107.1 37.6 107.1 37.6 107.1 C 37.6 106.4 37.8 105.6 38 104.7 C 38.3 103.8 38.6 102.9 39.1 102 C 39.5 101.1 40 100.4 40.6 99.8 C 40.56 99.8 36.4 99.8 36.4 99.8 Z M 48.3 100.8 C 48.3 100.8 47.2 100.8 47.2 100.8 C 47.1 100.4 47 100.1 46.8 100 C 46.6 99.7 46.2 99.5 45.8 99.5 C 45.5 99.5 45.2 99.6 44.9 99.8 C 44.6 100 44.4 100.4 44.2 100.8 C 44 101.3 43.9 101.9 43.9 102.8 C 44.1 102.4 44.4 102.1 44.8 101.9 C 45.1 101.7 45.5 101.7 45.9 101.7 C 46.6 101.7 47.2 101.9 47.7 102.4 C 48.2 102.9 48.4 103.6 48.4 104.4 C 48.4 104.9 48.3 105.4 48.1 105.8 C 47.8 106.3 47.5 106.6 47.1 106.9 C 46.7 107.1 46.3 107.2 45.8 107.2 C 44.9 107.2 44.2 106.9 43.7 106.3 C 43.1 105.7 42.9 104.6 42.9 103.2 C 42.9 101.5 43.2 100.4 43.8 99.6 C 44.3 99 45 98.7 45.9 98.7 C 46.5 98.7 47.1 98.9 47.5 99.2 C 47.9 99.6 48.2 100.1 48.3 100.8 Z M 44 104.4 C 44 104.7 44.1 105.1 44.3 105.4 C 44.4 105.7 44.6 106 44.9 106.1 C 45.2 106.3 45.5 106.4 45.8 106.4 C 46.2 106.4 46.6 106.2 46.9 105.9 C 47.2 105.5 47.3 105 47.3 104.4 C 47.3 103.9 47.2 103.4 46.9 103.1 C 46.6 102.7 46.2 102.6 45.7 102.6 C 45.2 102.6 44.9 102.7 44.5 103.1 C 44.2 103.4 44 103.8 44 104.4 Z M 50.3 106.4 C 49.7 105.7 49.4 104.5 49.4 103 C 49.4 102 49.5 101.2 49.7 100.6 C 49.9 100 50.2 99.5 50.6 99.2 C 51 98.8 51.6 98.7 52.2 98.7 C 52.6 98.7 53 98.8 53.3 98.9 C 53.7 99.1 54 99.4 54.2 99.7 C 54.4 100.1 54.6 100.5 54.7 101 C 54.8 101.5 54.9 102.1 54.9 103 C 54.9 103.9 54.8 104.7 54.6 105.3 C 54.4 106 54.1 106.4 53.7 106.7 C 53.3 107.1 52.8 107.2 52.2 107.2 C 51.4 107.2 50.7 107 50.3 106.4 C 50.3 106.4 50.3 106.4 50.3 106.4 Z M 51 100.1 C 50.7 100.6 50.5 101.6 50.5 103 C 50.5 104.3 50.6 105.3 51 105.7 C 51.3 106.2 51.7 106.4 52.2 106.4 C 52.6 106.4 53 106.2 53.4 105.7 C 53.7 105.3 53.8 104.3 53.8 103 C 53.8 101.6 53.7 100.7 53.4 100.2 C 53 99.7 52.6 99.5 52.2 99.5 C 51.7 99.5 51.3 99.7 51 100.1 C 51 100.1 51 100.1 51 100.1 Z M 60 106.4 C 59.5 105.7 59.2 104.5 59.2 103 C 59.2 102 59.3 101.2 59.5 100.6 C 59.7 100 60 99.5 60.4 99.2 C 60.8 98.8 61.3 98.7 61.9 98.7 C 62.4 98.7 62.8 98.8 63.1 98.9 C 63.5 99.1 63.8 99.4 64 99.7 C 64.2 100.1 64.4 100.5 64.5 101 C 64.6 101.5 64.7 102.1 64.7 103 C 64.7 103.9 64.6 104.7 64.4 105.3 C 64.2 106 63.9 106.4 63.5 106.7 C 63.1 107.1 62.6 107.2 61.9 107.2 C 61.1 107.2 60.5 107 60 106.4 C 60 106.4 60 106.4 60 106.4 Z M 60.8 100.1 C 60.4 100.6 60.3 101.6 60.3 103 C 60.3 104.3 60.4 105.3 60.8 105.7 C 61.1 106.2 61.5 106.4 61.9 106.4 C 62.4 106.4 62.8 106.2 63.1 105.7 C 63.5 105.3 63.6 104.3 63.6 103 C 63.6 101.6 63.5 100.7 63.1 100.2 C 62.8 99.7 62.4 99.5 61.9 99.5 C 61.5 99.5 61.1 99.7 60.8 100.1 C 60.8 100.1 60.8 100.1 60.8 100.1 Z M 66.6 106.4 C 66 105.7 65.7 104.5 65.7 103 C 65.7 102 65.8 101.2 66 100.6 C 66.2 100 66.6 99.5 67 99.2 C 67.4 98.8 67.9 98.7 68.5 98.7 C 68.9 98.7 69.3 98.8 69.7 98.9 C 70 99.1 70.3 99.4 70.5 99.7 C 70.7 100.1 70.9 100.5 71 101 C 71.2 101.5 71.2 102.1 71.2 103 C 71.2 103.9 71.1 104.7 70.9 105.3 C 70.7 106 70.4 106.4 70 106.7 C 69.6 107.1 69.1 107.2 68.5 107.2 C 67.7 107.2 67 107 66.6 106.4 C 66.6 106.4 66.6 106.4 66.6 106.4 Z M 67.3 100.1 C 67 100.6 66.8 101.6 66.8 103 C 66.8 104.3 67 105.3 67.3 105.7 C 67.6 106.2 68 106.4 68.5 106.4 C 68.9 106.4 69.3 106.2 69.7 105.7 C 70 105.3 70.2 104.3 70.2 103 C 70.2 101.6 70 100.7 69.7 100.2 C 69.3 99.7 68.9 99.5 68.5 99.5 C 68 99.5 67.6 99.7 67.3 100.1 C 67.3 100.1 67.3 100.1 67.3 100.1 Z M 73.8 102.5 C 73.4 102.4 73.1 102.2 72.9 101.9 C 72.7 101.6 72.6 101.2 72.6 100.8 C 72.6 100.2 72.8 99.7 73.2 99.3 C 73.7 98.9 74.3 98.7 75 98.7 C 75.7 98.7 76.3 98.9 76.8 99.3 C 77.2 99.7 77.4 100.3 77.4 100.9 C 77.4 101.3 77.3 101.6 77.1 101.9 C 76.9 102.2 76.6 102.4 76.2 102.5 C 76.7 102.7 77.1 103 77.4 103.4 C 77.7 103.7 77.8 104.2 77.8 104.7 C 77.8 105.4 77.5 106 77 106.5 C 76.5 107 75.8 107.2 75 107.2 C 74.2 107.2 73.5 107 73 106.5 C 72.5 106 72.3 105.4 72.3 104.7 C 72.3 104.1 72.4 103.7 72.7 103.3 C 72.9 102.9 73.3 102.7 73.8 102.5 Z M 73.6 100.8 C 73.6 101.2 73.8 101.5 74 101.8 C 74.3 102 74.6 102.2 75 102.2 C 75.4 102.2 75.7 102 76 101.8 C 76.3 101.5 76.4 101.2 76.4 100.9 C 76.4 100.5 76.3 100.2 76 99.9 C 75.7 99.6 75.4 99.5 75 99.5 C 74.6 99.5 74.3 99.6 74 99.9 C 73.8 100.1 73.6 100.4 73.6 100.8 Z M 73.3 104.7 C 73.3 105 73.4 105.3 73.5 105.5 C 73.7 105.8 73.9 106 74.1 106.2 C 74.4 106.3 74.7 106.4 75 106.4 C 75.5 106.4 75.9 106.2 76.2 105.9 C 76.6 105.6 76.7 105.2 76.7 104.7 C 76.7 104.2 76.6 103.8 76.2 103.5 C 75.9 103.2 75.5 103 75 103 C 74.5 103 74.1 103.2 73.8 103.5 C 73.5 103.8 73.3 104.2 73.3 104.7 Z " stroke="none" fill="#000"/>  </g>  <g id="Polygon69522">    <path d="M 0.9 78.9 L 0.9 70.5 C 0.9 70.5 3.8 70.54 3.8 70.5 C 4.5 70.5 5 70.6 5.3 70.7 C 5.8 70.8 6.2 71 6.5 71.3 C 7 71.6 7.3 72.1 7.5 72.7 C 7.7 73.3 7.8 73.9 7.8 74.7 C 7.8 75.3 7.8 75.9 7.6 76.4 C 7.5 76.9 7.3 77.3 7.1 77.6 C 6.8 77.9 6.6 78.2 6.3 78.4 C 6 78.6 5.7 78.7 5.3 78.8 C 4.9 78.9 4.4 78.9 3.9 78.9 C 3.94 78.94 0.9 78.9 0.9 78.9 Z M 2 78 C 2 78 3.81 77.95 3.8 78 C 4.4 78 4.8 77.9 5.1 77.8 C 5.4 77.7 5.7 77.5 5.9 77.4 C 6.1 77.1 6.3 76.7 6.5 76.3 C 6.6 75.9 6.7 75.3 6.7 74.7 C 6.7 73.8 6.6 73.1 6.3 72.7 C 6 72.2 5.6 71.9 5.2 71.7 C 4.9 71.6 4.4 71.5 3.8 71.5 C 3.78 71.53 2 71.5 2 71.5 L 2 78 Z M 9.4 78.9 L 9.4 70.5 L 10.5 70.5 L 14.9 77.1 L 14.9 70.5 L 16 70.5 L 16 78.9 L 14.8 78.9 L 10.4 72.3 L 10.4 78.9 L 9.4 78.9 Z M 17.6 77 C 17.6 77 18.6 76.9 18.6 76.9 C 18.7 77.4 18.8 77.7 19.1 77.9 C 19.3 78.1 19.6 78.2 20 78.2 C 20.3 78.2 20.6 78.2 20.8 78 C 21 77.9 21.2 77.7 21.4 77.4 C 21.5 77.2 21.7 76.9 21.8 76.5 C 21.9 76 21.9 75.6 21.9 75.2 C 21.9 75.1 21.9 75.1 21.9 75 C 21.7 75.3 21.4 75.6 21.1 75.8 C 20.7 76 20.3 76.1 19.9 76.1 C 19.2 76.1 18.6 75.8 18.2 75.3 C 17.7 74.8 17.4 74.2 17.4 73.3 C 17.4 72.5 17.7 71.8 18.2 71.3 C 18.7 70.8 19.3 70.5 20.1 70.5 C 20.6 70.5 21.1 70.7 21.6 71 C 22 71.2 22.4 71.7 22.6 72.2 C 22.8 72.8 23 73.5 23 74.6 C 23 75.6 22.8 76.5 22.6 77.1 C 22.4 77.8 22 78.3 21.6 78.6 C 21.1 78.9 20.6 79.1 19.9 79.1 C 19.3 79.1 18.8 78.9 18.3 78.5 C 17.9 78.2 17.7 77.7 17.6 77 Z M 21.8 73.3 C 21.8 72.7 21.7 72.2 21.3 71.9 C 21 71.5 20.6 71.4 20.2 71.4 C 19.7 71.4 19.3 71.5 19 71.9 C 18.7 72.3 18.5 72.8 18.5 73.4 C 18.5 73.9 18.7 74.3 19 74.7 C 19.3 75 19.7 75.2 20.2 75.2 C 20.6 75.2 21 75 21.3 74.7 C 21.7 74.3 21.8 73.9 21.8 73.3 Z M 27.2 76.7 C 27.2 76.7 28.3 76.6 28.3 76.6 C 28.4 77.2 28.6 77.6 28.9 77.9 C 29.1 78.1 29.5 78.2 29.9 78.2 C 30.4 78.2 30.8 78.1 31.1 77.7 C 31.5 77.4 31.6 77 31.6 76.5 C 31.6 76 31.5 75.6 31.2 75.3 C 30.9 75 30.5 74.9 30 74.9 C 29.8 74.9 29.5 74.9 29.3 75 C 29.3 75 29.4 74.1 29.4 74.1 C 29.4 74.1 29.5 74.1 29.5 74.1 C 30 74.1 30.4 74 30.7 73.7 C 31.1 73.5 31.3 73.1 31.3 72.7 C 31.3 72.3 31.1 72 30.9 71.7 C 30.6 71.5 30.3 71.4 29.9 71.4 C 29.5 71.4 29.1 71.5 28.9 71.7 C 28.6 72 28.4 72.4 28.4 72.9 C 28.4 72.9 27.3 72.7 27.3 72.7 C 27.5 72 27.7 71.5 28.2 71.1 C 28.6 70.7 29.2 70.5 29.9 70.5 C 30.3 70.5 30.7 70.6 31.1 70.8 C 31.5 71 31.8 71.3 32 71.6 C 32.2 71.9 32.3 72.3 32.3 72.7 C 32.3 73.1 32.2 73.4 32 73.7 C 31.8 74 31.5 74.2 31.2 74.4 C 31.7 74.5 32 74.7 32.3 75.1 C 32.6 75.5 32.7 75.9 32.7 76.5 C 32.7 77.2 32.5 77.8 31.9 78.3 C 31.4 78.8 30.7 79.1 29.9 79.1 C 29.2 79.1 28.5 78.9 28.1 78.4 C 27.6 78 27.3 77.4 27.2 76.7 Z M 34.2 78.9 L 34.2 70.5 L 39.9 70.5 L 39.9 71.5 L 35.3 71.5 L 35.3 74.1 L 39.3 74.1 L 39.3 75.1 L 35.3 75.1 L 35.3 78.9 L 34.2 78.9 Z M 41.3 78.9 L 41.3 70.5 L 42.4 70.5 L 42.4 78 L 46.5 78 L 46.5 78.9 L 41.3 78.9 Z " stroke="none" fill="#000"/>  </g>  <g id="Polygon69521">    <path d="M 0.9 64.9 L 0.9 56.5 C 0.9 56.5 3.8 56.46 3.8 56.5 C 4.5 56.5 5 56.5 5.3 56.6 C 5.8 56.7 6.2 56.9 6.5 57.2 C 7 57.6 7.3 58 7.5 58.6 C 7.7 59.2 7.8 59.9 7.8 60.6 C 7.8 61.3 7.8 61.8 7.6 62.3 C 7.5 62.8 7.3 63.2 7.1 63.5 C 6.8 63.9 6.6 64.1 6.3 64.3 C 6 64.5 5.7 64.6 5.3 64.7 C 4.9 64.8 4.4 64.9 3.9 64.9 C 3.94 64.86 0.9 64.9 0.9 64.9 Z M 2 63.9 C 2 63.9 3.81 63.87 3.8 63.9 C 4.4 63.9 4.8 63.8 5.1 63.7 C 5.4 63.6 5.7 63.5 5.9 63.3 C 6.1 63 6.3 62.7 6.5 62.2 C 6.6 61.8 6.7 61.2 6.7 60.6 C 6.7 59.7 6.6 59 6.3 58.6 C 6 58.1 5.6 57.8 5.2 57.6 C 4.9 57.5 4.4 57.5 3.8 57.5 C 3.78 57.45 2 57.5 2 57.5 L 2 63.9 Z M 8.9 61.8 C 8.9 60.7 9.2 59.9 9.8 59.3 C 10.3 58.9 11 58.6 11.7 58.6 C 12.6 58.6 13.2 58.9 13.8 59.5 C 14.3 60 14.6 60.8 14.6 61.7 C 14.6 62.5 14.4 63.1 14.2 63.6 C 14 64 13.6 64.4 13.2 64.6 C 12.7 64.9 12.2 65 11.7 65 C 10.9 65 10.2 64.7 9.7 64.2 C 9.1 63.6 8.9 62.8 8.9 61.8 Z M 9.9 61.8 C 9.9 62.6 10.1 63.2 10.4 63.6 C 10.8 64 11.2 64.2 11.7 64.2 C 12.2 64.2 12.7 64 13 63.6 C 13.3 63.2 13.5 62.6 13.5 61.8 C 13.5 61 13.3 60.5 13 60.1 C 12.6 59.7 12.2 59.5 11.7 59.5 C 11.2 59.5 10.8 59.7 10.4 60.1 C 10.1 60.5 9.9 61 9.9 61.8 Z M 15.8 64.9 L 15.8 58.8 L 16.7 58.8 C 16.7 58.8 16.7 59.64 16.7 59.6 C 17.1 59 17.8 58.6 18.6 58.6 C 19 58.6 19.3 58.7 19.6 58.8 C 20 59 20.2 59.1 20.3 59.4 C 20.5 59.6 20.6 59.8 20.7 60.1 C 20.7 60.3 20.7 60.6 20.7 61.1 C 20.72 61.12 20.7 64.9 20.7 64.9 L 19.7 64.9 C 19.7 64.9 19.69 61.16 19.7 61.2 C 19.7 60.7 19.6 60.4 19.6 60.2 C 19.5 60 19.3 59.8 19.1 59.7 C 18.9 59.6 18.7 59.5 18.4 59.5 C 18 59.5 17.6 59.7 17.3 60 C 17 60.2 16.8 60.8 16.8 61.5 C 16.8 61.54 16.8 64.9 16.8 64.9 L 15.8 64.9 Z M 26.3 62.6 C 26.3 62.6 27.3 62.8 27.3 62.8 C 27.2 63.5 26.9 64 26.4 64.4 C 26 64.8 25.4 65 24.7 65 C 23.9 65 23.2 64.7 22.7 64.2 C 22.2 63.6 22 62.9 22 61.8 C 22 61.2 22.1 60.6 22.3 60.1 C 22.5 59.6 22.9 59.3 23.3 59 C 23.7 58.8 24.2 58.6 24.8 58.6 C 25.4 58.6 26 58.8 26.4 59.1 C 26.8 59.5 27.1 60 27.2 60.6 C 27.2 60.6 26.2 60.7 26.2 60.7 C 26.1 60.3 25.9 60 25.7 59.8 C 25.4 59.6 25.1 59.5 24.8 59.5 C 24.3 59.5 23.9 59.7 23.5 60 C 23.2 60.4 23 61 23 61.8 C 23 62.6 23.2 63.2 23.5 63.6 C 23.8 64 24.2 64.2 24.7 64.2 C 25.1 64.2 25.5 64 25.8 63.8 C 26 63.5 26.2 63.1 26.3 62.6 Z M 32.3 64.9 C 32.2 64.6 32.2 64.4 32.1 64.1 C 31.8 64.4 31.4 64.7 31 64.8 C 30.7 64.9 30.3 65 29.9 65 C 29.2 65 28.7 64.8 28.4 64.5 C 28 64.2 27.8 63.8 27.8 63.3 C 27.8 63 27.9 62.7 28 62.4 C 28.2 62.2 28.3 62 28.6 61.8 C 28.8 61.7 29 61.6 29.3 61.5 C 29.5 61.5 29.8 61.4 30.2 61.4 C 31 61.3 31.7 61.1 32 61 C 32.1 60.9 32.1 60.8 32.1 60.7 C 32.1 60.3 32 60 31.8 59.8 C 31.5 59.6 31.1 59.5 30.6 59.5 C 30.1 59.5 29.7 59.6 29.5 59.7 C 29.3 59.9 29.1 60.2 29 60.7 C 29 60.7 28 60.5 28 60.5 C 28.1 60.1 28.2 59.7 28.4 59.5 C 28.7 59.2 29 59 29.4 58.9 C 29.8 58.7 30.2 58.6 30.7 58.6 C 31.3 58.6 31.7 58.7 32 58.8 C 32.3 58.9 32.6 59.1 32.7 59.3 C 32.9 59.5 33 59.7 33 60 C 33.1 60.2 33.1 60.5 33.1 60.9 C 33.1 60.9 33.1 62.3 33.1 62.3 C 33.1 63.3 33.1 63.9 33.2 64.1 C 33.2 64.4 33.3 64.6 33.4 64.9 C 33.42 64.86 32.3 64.9 32.3 64.9 C 32.3 64.9 32.34 64.86 32.3 64.9 Z M 32 61.8 C 31.7 62 31.1 62.1 30.4 62.2 C 29.9 62.3 29.6 62.3 29.5 62.4 C 29.3 62.5 29.2 62.6 29.1 62.7 C 29 62.9 28.9 63 28.9 63.2 C 28.9 63.5 29 63.7 29.2 63.9 C 29.4 64.1 29.7 64.2 30.1 64.2 C 30.5 64.2 30.9 64.1 31.2 63.9 C 31.5 63.8 31.7 63.5 31.9 63.2 C 32 63 32 62.6 32 62.2 C 32 62.2 32 61.8 32 61.8 Z M 34.3 63 C 34.3 63 35.3 62.9 35.3 62.9 C 35.4 63.3 35.5 63.6 35.8 63.8 C 36 64 36.4 64.2 36.9 64.2 C 37.3 64.2 37.7 64.1 37.9 63.9 C 38.2 63.7 38.3 63.4 38.3 63.2 C 38.3 63 38.2 62.8 38 62.6 C 37.8 62.5 37.5 62.4 36.9 62.3 C 36.2 62.1 35.6 61.9 35.3 61.8 C 35 61.6 34.8 61.5 34.7 61.2 C 34.5 61 34.4 60.7 34.4 60.4 C 34.4 60.1 34.5 59.9 34.6 59.6 C 34.8 59.4 34.9 59.2 35.1 59.1 C 35.3 58.9 35.5 58.8 35.8 58.8 C 36.1 58.7 36.4 58.6 36.7 58.6 C 37.2 58.6 37.6 58.7 37.9 58.8 C 38.3 59 38.6 59.2 38.7 59.4 C 38.9 59.6 39 60 39.1 60.3 C 39.1 60.3 38.1 60.5 38.1 60.5 C 38 60.2 37.9 59.9 37.7 59.8 C 37.5 59.6 37.2 59.5 36.8 59.5 C 36.3 59.5 36 59.6 35.7 59.7 C 35.5 59.9 35.4 60.1 35.4 60.3 C 35.4 60.4 35.5 60.5 35.6 60.6 C 35.7 60.7 35.8 60.8 36 60.9 C 36.1 60.9 36.4 61 36.9 61.2 C 37.6 61.4 38.1 61.5 38.4 61.7 C 38.7 61.8 38.9 62 39.1 62.2 C 39.2 62.4 39.3 62.7 39.3 63.1 C 39.3 63.4 39.2 63.7 39 64 C 38.8 64.3 38.5 64.6 38.2 64.8 C 37.8 64.9 37.4 65 36.9 65 C 36.1 65 35.5 64.8 35.1 64.5 C 34.7 64.2 34.4 63.7 34.3 63 Z M 42.4 64 C 42.5 64 42.6 64 42.8 63.9 C 42.8 63.9 43 64.9 43 64.9 C 42.7 64.9 42.4 64.9 42.2 64.9 C 41.8 64.9 41.5 64.9 41.3 64.8 C 41.1 64.6 41 64.5 40.9 64.3 C 40.8 64.1 40.7 63.7 40.7 63.1 C 40.75 63.08 40.7 59.6 40.7 59.6 L 40 59.6 L 40 58.8 L 40.7 58.8 L 40.7 57.3 L 41.8 56.7 L 41.8 58.8 L 42.8 58.8 L 42.8 59.6 L 41.8 59.6 C 41.8 59.6 41.77 63.14 41.8 63.1 C 41.8 63.4 41.8 63.6 41.8 63.7 C 41.9 63.8 41.9 63.9 42 63.9 C 42.1 64 42.2 64 42.4 64 C 42.4 64 42.4 64 42.4 64 Z M 48 62.9 C 48 62.9 49 63 49 63 C 48.9 63.7 48.6 64.1 48.1 64.5 C 47.7 64.8 47.1 65 46.4 65 C 45.5 65 44.8 64.7 44.3 64.2 C 43.7 63.6 43.5 62.9 43.5 61.9 C 43.5 60.8 43.7 60.1 44.3 59.5 C 44.8 58.9 45.5 58.6 46.3 58.6 C 47.1 58.6 47.8 58.9 48.3 59.5 C 48.8 60 49.1 60.8 49.1 61.8 C 49.1 61.9 49.1 62 49.1 62.1 C 49.1 62.1 44.5 62.1 44.5 62.1 C 44.6 62.8 44.8 63.3 45.1 63.6 C 45.4 64 45.9 64.2 46.4 64.2 C 46.8 64.2 47.1 64.1 47.3 63.9 C 47.6 63.7 47.8 63.3 48 62.9 Z M 44.6 61.2 C 44.6 61.2 48 61.2 48 61.2 C 47.9 60.7 47.8 60.3 47.6 60.1 C 47.3 59.7 46.8 59.5 46.3 59.5 C 45.9 59.5 45.5 59.6 45.1 60 C 44.8 60.3 44.6 60.7 44.6 61.2 Z M 50.3 64.9 L 50.3 58.8 L 51.3 58.8 C 51.3 58.8 51.26 59.7 51.3 59.7 C 51.5 59.3 51.7 59 51.9 58.8 C 52.1 58.7 52.3 58.6 52.6 58.6 C 52.9 58.6 53.3 58.8 53.6 59 C 53.6 59 53.3 59.9 53.3 59.9 C 53 59.8 52.8 59.7 52.5 59.7 C 52.3 59.7 52.1 59.8 51.9 59.9 C 51.7 60 51.6 60.2 51.5 60.5 C 51.4 60.8 51.4 61.2 51.4 61.7 C 51.36 61.68 51.4 64.9 51.4 64.9 L 50.3 64.9 Z " stroke="none" fill="#000"/>  </g>  <g id="Polygon69520">    <path d="M 0 50.8 L 3.2 42.4 L 4.4 42.4 L 7.8 50.8 L 6.6 50.8 L 5.6 48.2 L 2.1 48.2 L 1.2 50.8 L 0 50.8 Z M 2.4 47.3 L 5.3 47.3 C 5.3 47.3 4.38 45.01 4.4 45 C 4.1 44.3 3.9 43.7 3.8 43.3 C 3.7 43.8 3.5 44.3 3.3 44.9 C 3.33 44.87 2.4 47.3 2.4 47.3 Z M 12.6 50.8 C 12.6 50.8 12.59 49.89 12.6 49.9 C 12.1 50.6 11.5 50.9 10.7 50.9 C 10.3 50.9 10 50.9 9.7 50.7 C 9.3 50.6 9.1 50.4 9 50.2 C 8.8 50 8.7 49.7 8.6 49.4 C 8.6 49.2 8.6 48.9 8.6 48.5 C 8.58 48.47 8.6 44.7 8.6 44.7 L 9.6 44.7 C 9.6 44.7 9.61 48.07 9.6 48.1 C 9.6 48.6 9.6 49 9.7 49.2 C 9.7 49.4 9.9 49.6 10.1 49.8 C 10.3 50 10.6 50 10.9 50 C 11.2 50 11.5 50 11.7 49.8 C 12 49.6 12.2 49.4 12.3 49.1 C 12.4 48.9 12.5 48.5 12.5 48 C 12.48 47.96 12.5 44.7 12.5 44.7 L 13.5 44.7 L 13.5 50.8 L 12.6 50.8 Z M 19.1 48.6 C 19.1 48.6 20.1 48.7 20.1 48.7 C 20 49.4 19.7 49.9 19.3 50.3 C 18.8 50.7 18.2 50.9 17.6 50.9 C 16.7 50.9 16.1 50.6 15.6 50.1 C 15.1 49.6 14.8 48.8 14.8 47.8 C 14.8 47.1 14.9 46.5 15.1 46 C 15.4 45.5 15.7 45.2 16.1 44.9 C 16.6 44.7 17.1 44.6 17.6 44.6 C 18.2 44.6 18.8 44.7 19.2 45.1 C 19.6 45.4 19.9 45.9 20 46.5 C 20 46.5 19 46.6 19 46.6 C 18.9 46.2 18.7 45.9 18.5 45.7 C 18.3 45.5 18 45.4 17.6 45.4 C 17.1 45.4 16.7 45.6 16.4 46 C 16 46.3 15.9 46.9 15.9 47.7 C 15.9 48.6 16 49.1 16.3 49.5 C 16.7 49.9 17.1 50.1 17.6 50.1 C 18 50.1 18.3 49.9 18.6 49.7 C 18.9 49.5 19 49.1 19.1 48.6 Z M 21 50.8 L 21 42.4 L 22 42.4 L 22 47.2 L 24.5 44.7 L 25.8 44.7 L 23.5 47 L 26 50.8 L 24.8 50.8 L 22.8 47.7 L 22 48.4 L 22 50.8 L 21 50.8 Z M 26.8 50.8 L 26.8 42.4 L 27.9 42.4 L 27.9 50.8 L 26.8 50.8 Z M 33.6 48.8 C 33.6 48.8 34.7 49 34.7 49 C 34.5 49.6 34.2 50.1 33.8 50.4 C 33.3 50.7 32.7 50.9 32 50.9 C 31.1 50.9 30.4 50.6 29.9 50.1 C 29.4 49.5 29.1 48.8 29.1 47.8 C 29.1 46.8 29.4 46 29.9 45.4 C 30.4 44.8 31.1 44.6 32 44.6 C 32.8 44.6 33.4 44.8 34 45.4 C 34.5 45.9 34.7 46.7 34.7 47.7 C 34.7 47.8 34.7 47.9 34.7 48 C 34.7 48 30.2 48 30.2 48 C 30.2 48.7 30.4 49.2 30.8 49.5 C 31.1 49.9 31.5 50.1 32 50.1 C 32.4 50.1 32.7 50 33 49.8 C 33.3 49.6 33.5 49.3 33.6 48.8 Z M 30.2 47.2 C 30.2 47.2 33.6 47.2 33.6 47.2 C 33.6 46.6 33.5 46.3 33.3 46 C 32.9 45.6 32.5 45.4 32 45.4 C 31.5 45.4 31.1 45.6 30.8 45.9 C 30.5 46.2 30.3 46.6 30.2 47.2 Z M 36.6 53.3 C 36.4 53.3 36.2 53.2 35.9 53.1 C 35.9 53.1 35.8 52.2 35.8 52.2 C 36.1 52.2 36.3 52.2 36.4 52.2 C 36.6 52.2 36.8 52.2 37 52.1 C 37.1 52.1 37.2 52 37.3 51.8 C 37.4 51.7 37.5 51.5 37.6 51 C 37.6 51 37.7 50.9 37.7 50.8 C 37.72 50.79 35.4 44.7 35.4 44.7 L 36.5 44.7 C 36.5 44.7 37.78 48.22 37.8 48.2 C 37.9 48.7 38.1 49.1 38.2 49.6 C 38.3 49.2 38.5 48.7 38.6 48.2 C 38.65 48.24 39.9 44.7 39.9 44.7 L 41 44.7 C 41 44.7 38.67 50.89 38.7 50.9 C 38.4 51.6 38.2 52 38.1 52.3 C 37.9 52.6 37.7 52.9 37.5 53 C 37.2 53.2 36.9 53.3 36.6 53.3 C 36.6 53.3 36.6 53.3 36.6 53.3 Z " stroke="none" fill="#000"/>  </g>  <g id="Polygon69519">    <path d="M 1 36.7 L 1 28.3 L 6.6 28.3 L 6.6 29.3 L 2.1 29.3 L 2.1 31.9 L 6 31.9 L 6 32.9 L 2.1 32.9 L 2.1 36.7 L 1 36.7 Z M 7.9 29.5 L 7.9 28.3 L 9 28.3 L 9 29.5 L 7.9 29.5 Z M 7.9 36.7 L 7.9 30.6 L 9 30.6 L 9 36.7 L 7.9 36.7 Z M 14.7 34.7 C 14.7 34.7 15.8 34.9 15.8 34.9 C 15.6 35.5 15.3 36 14.8 36.3 C 14.4 36.7 13.8 36.8 13.1 36.8 C 12.2 36.8 11.5 36.6 11 36 C 10.5 35.5 10.2 34.7 10.2 33.7 C 10.2 32.7 10.5 31.9 11 31.3 C 11.5 30.8 12.2 30.5 13 30.5 C 13.9 30.5 14.5 30.8 15 31.3 C 15.6 31.9 15.8 32.6 15.8 33.6 C 15.8 33.7 15.8 33.8 15.8 33.9 C 15.8 33.9 11.3 33.9 11.3 33.9 C 11.3 34.6 11.5 35.1 11.8 35.5 C 12.2 35.8 12.6 36 13.1 36 C 13.5 36 13.8 35.9 14.1 35.7 C 14.3 35.5 14.6 35.2 14.7 34.7 Z M 11.3 33.1 C 11.3 33.1 14.7 33.1 14.7 33.1 C 14.7 32.6 14.5 32.2 14.3 31.9 C 14 31.5 13.6 31.3 13.1 31.3 C 12.6 31.3 12.2 31.5 11.9 31.8 C 11.5 32.1 11.4 32.5 11.3 33.1 Z M 17 36.7 L 17 28.3 L 18.1 28.3 L 18.1 36.7 L 17 36.7 Z M 23.6 36.7 C 23.6 36.7 23.63 35.93 23.6 35.9 C 23.2 36.5 22.7 36.8 21.9 36.8 C 21.4 36.8 21 36.7 20.6 36.4 C 20.2 36.2 19.9 35.8 19.6 35.3 C 19.4 34.8 19.3 34.3 19.3 33.7 C 19.3 33.1 19.4 32.5 19.6 32 C 19.8 31.5 20.1 31.1 20.5 30.9 C 20.9 30.6 21.4 30.5 21.9 30.5 C 22.2 30.5 22.6 30.6 22.9 30.7 C 23.1 30.9 23.4 31.1 23.6 31.3 C 23.56 31.32 23.6 28.3 23.6 28.3 L 24.6 28.3 L 24.6 36.7 L 23.6 36.7 Z M 20.4 33.7 C 20.4 34.4 20.5 35 20.9 35.4 C 21.2 35.8 21.6 36 22 36 C 22.5 36 22.9 35.8 23.2 35.4 C 23.5 35.1 23.6 34.5 23.6 33.8 C 23.6 32.9 23.5 32.3 23.2 31.9 C 22.8 31.5 22.4 31.3 22 31.3 C 21.5 31.3 21.1 31.5 20.8 31.9 C 20.5 32.3 20.4 32.9 20.4 33.7 Z M 29.6 36.7 L 29.6 28.3 L 30.7 28.3 L 30.7 35.7 L 34.8 35.7 L 34.8 36.7 L 29.6 36.7 Z M 40.2 36.7 C 40.1 36.5 40 36.2 40 36 C 39.6 36.3 39.2 36.5 38.9 36.6 C 38.5 36.8 38.1 36.8 37.7 36.8 C 37.1 36.8 36.5 36.7 36.2 36.3 C 35.8 36 35.6 35.6 35.6 35.1 C 35.6 34.8 35.7 34.5 35.8 34.3 C 36 34 36.2 33.8 36.4 33.7 C 36.6 33.5 36.8 33.4 37.1 33.4 C 37.3 33.3 37.6 33.2 38 33.2 C 38.9 33.1 39.5 33 39.9 32.8 C 39.9 32.7 39.9 32.6 39.9 32.6 C 39.9 32.2 39.8 31.9 39.6 31.7 C 39.3 31.5 38.9 31.3 38.4 31.3 C 37.9 31.3 37.6 31.4 37.3 31.6 C 37.1 31.8 36.9 32.1 36.8 32.5 C 36.8 32.5 35.8 32.4 35.8 32.4 C 35.9 31.9 36.1 31.6 36.3 31.3 C 36.5 31 36.8 30.8 37.2 30.7 C 37.6 30.6 38 30.5 38.6 30.5 C 39.1 30.5 39.5 30.5 39.8 30.7 C 40.2 30.8 40.4 30.9 40.5 31.1 C 40.7 31.3 40.8 31.5 40.9 31.8 C 40.9 32 40.9 32.3 40.9 32.8 C 40.9 32.8 40.9 34.2 40.9 34.2 C 40.9 35.1 40.9 35.7 41 36 C 41 36.2 41.1 36.5 41.2 36.7 C 41.24 36.7 40.2 36.7 40.2 36.7 C 40.2 36.7 40.17 36.7 40.2 36.7 Z M 39.9 33.6 C 39.5 33.8 38.9 33.9 38.2 34 C 37.8 34.1 37.5 34.2 37.3 34.2 C 37.1 34.3 37 34.4 36.9 34.6 C 36.8 34.7 36.7 34.9 36.7 35.1 C 36.7 35.3 36.8 35.6 37.1 35.8 C 37.3 35.9 37.6 36 38 36 C 38.4 36 38.7 35.9 39 35.8 C 39.3 35.6 39.6 35.4 39.7 35.1 C 39.8 34.8 39.9 34.5 39.9 34 C 39.9 34 39.9 33.6 39.9 33.6 Z M 42.5 36.7 L 42.5 30.6 L 43.4 30.6 C 43.4 30.6 43.44 31.48 43.4 31.5 C 43.9 30.8 44.5 30.5 45.4 30.5 C 45.7 30.5 46.1 30.5 46.4 30.7 C 46.7 30.8 46.9 31 47.1 31.2 C 47.2 31.4 47.3 31.7 47.4 32 C 47.4 32.1 47.5 32.5 47.5 33 C 47.46 32.96 47.5 36.7 47.5 36.7 L 46.4 36.7 C 46.4 36.7 46.43 33 46.4 33 C 46.4 32.6 46.4 32.3 46.3 32.1 C 46.2 31.9 46.1 31.7 45.9 31.6 C 45.7 31.4 45.4 31.4 45.2 31.4 C 44.7 31.4 44.3 31.5 44 31.8 C 43.7 32.1 43.5 32.6 43.5 33.4 C 43.55 33.38 43.5 36.7 43.5 36.7 L 42.5 36.7 Z M 53.2 34.7 C 53.2 34.7 54.3 34.9 54.3 34.9 C 54.1 35.5 53.8 36 53.3 36.3 C 52.9 36.7 52.3 36.8 51.6 36.8 C 50.7 36.8 50 36.6 49.5 36 C 49 35.5 48.7 34.7 48.7 33.7 C 48.7 32.7 49 31.9 49.5 31.3 C 50 30.8 50.7 30.5 51.5 30.5 C 52.4 30.5 53 30.8 53.5 31.3 C 54 31.9 54.3 32.6 54.3 33.6 C 54.3 33.7 54.3 33.8 54.3 33.9 C 54.3 33.9 49.8 33.9 49.8 33.9 C 49.8 34.6 50 35.1 50.3 35.5 C 50.7 35.8 51.1 36 51.6 36 C 52 36 52.3 35.9 52.6 35.7 C 52.8 35.5 53.1 35.2 53.2 34.7 Z M 49.8 33.1 C 49.8 33.1 53.2 33.1 53.2 33.1 C 53.2 32.6 53 32.2 52.8 31.9 C 52.5 31.5 52.1 31.3 51.6 31.3 C 51.1 31.3 50.7 31.5 50.4 31.8 C 50 32.1 49.9 32.5 49.8 33.1 Z " stroke="none" fill="#000"/>  </g>  <g id="Polygon69518">    <path d="M 6.4 14.2 L 7.5 14.2 C 7.5 14.2 7.53 19.08 7.5 19.1 C 7.5 19.9 7.4 20.6 7.2 21.1 C 7.1 21.6 6.7 22 6.2 22.3 C 5.7 22.6 5.1 22.8 4.2 22.8 C 3.5 22.8 2.8 22.6 2.3 22.4 C 1.8 22.1 1.5 21.7 1.2 21.2 C 1 20.7 0.9 20 0.9 19.1 C 0.92 19.08 0.9 14.2 0.9 14.2 L 2 14.2 C 2 14.2 2.03 19.07 2 19.1 C 2 19.8 2.1 20.3 2.2 20.7 C 2.4 21 2.6 21.3 2.9 21.5 C 3.3 21.7 3.7 21.8 4.1 21.8 C 5 21.8 5.5 21.6 5.9 21.2 C 6.2 20.8 6.4 20.1 6.4 19.1 C 6.42 19.07 6.4 14.2 6.4 14.2 Z M 9.2 22.6 L 9.2 16.5 L 10.2 16.5 C 10.2 16.5 10.17 17.4 10.2 17.4 C 10.6 16.7 11.3 16.4 12.1 16.4 C 12.5 16.4 12.8 16.5 13.1 16.6 C 13.4 16.7 13.7 16.9 13.8 17.1 C 14 17.3 14.1 17.6 14.1 17.9 C 14.2 18.1 14.2 18.4 14.2 18.9 C 14.19 18.88 14.2 22.6 14.2 22.6 L 13.2 22.6 C 13.2 22.6 13.16 18.92 13.2 18.9 C 13.2 18.5 13.1 18.2 13 18 C 13 17.8 12.8 17.6 12.6 17.5 C 12.4 17.4 12.2 17.3 11.9 17.3 C 11.5 17.3 11.1 17.4 10.8 17.7 C 10.4 18 10.3 18.5 10.3 19.3 C 10.28 19.3 10.3 22.6 10.3 22.6 L 9.2 22.6 Z M 15.8 15.4 L 15.8 14.2 L 16.8 14.2 L 16.8 15.4 L 15.8 15.4 Z M 15.8 22.6 L 15.8 16.5 L 16.8 16.5 L 16.8 22.6 L 15.8 22.6 Z M 20.2 21.7 C 20.3 21.7 20.4 21.7 20.6 21.7 C 20.6 21.7 20.8 22.6 20.8 22.6 C 20.5 22.7 20.2 22.7 20 22.7 C 19.6 22.7 19.3 22.6 19.1 22.5 C 18.9 22.4 18.8 22.3 18.7 22.1 C 18.6 21.9 18.6 21.5 18.6 20.8 C 18.57 20.84 18.6 17.3 18.6 17.3 L 17.8 17.3 L 17.8 16.5 L 18.6 16.5 L 18.6 15 L 19.6 14.4 L 19.6 16.5 L 20.6 16.5 L 20.6 17.3 L 19.6 17.3 C 19.6 17.3 19.59 20.9 19.6 20.9 C 19.6 21.2 19.6 21.4 19.6 21.5 C 19.7 21.5 19.7 21.6 19.8 21.7 C 19.9 21.7 20 21.7 20.2 21.7 C 20.2 21.7 20.2 21.7 20.2 21.7 Z M 24.6 20.4 C 24.6 20.4 25.6 20.3 25.6 20.3 C 25.8 20.9 26 21.3 26.3 21.5 C 26.5 21.8 26.9 21.9 27.3 21.9 C 27.8 21.9 28.2 21.7 28.5 21.4 C 28.9 21.1 29 20.7 29 20.2 C 29 19.7 28.9 19.3 28.6 19 C 28.3 18.7 27.9 18.5 27.4 18.5 C 27.2 18.5 26.9 18.6 26.7 18.6 C 26.7 18.6 26.8 17.7 26.8 17.7 C 26.8 17.7 26.9 17.8 26.9 17.8 C 27.4 17.8 27.8 17.6 28.1 17.4 C 28.5 17.2 28.6 16.8 28.6 16.3 C 28.6 16 28.5 15.7 28.3 15.4 C 28 15.2 27.7 15 27.3 15 C 26.9 15 26.5 15.2 26.3 15.4 C 26 15.7 25.8 16 25.8 16.5 C 25.8 16.5 24.7 16.4 24.7 16.4 C 24.8 15.7 25.1 15.1 25.6 14.8 C 26 14.4 26.6 14.2 27.2 14.2 C 27.7 14.2 28.1 14.3 28.5 14.5 C 28.9 14.7 29.2 14.9 29.4 15.3 C 29.6 15.6 29.7 16 29.7 16.4 C 29.7 16.7 29.6 17.1 29.4 17.4 C 29.2 17.7 28.9 17.9 28.5 18.1 C 29 18.2 29.4 18.4 29.7 18.8 C 30 19.1 30.1 19.6 30.1 20.1 C 30.1 20.9 29.9 21.5 29.3 22 C 28.8 22.5 28.1 22.8 27.3 22.8 C 26.6 22.8 25.9 22.6 25.5 22.1 C 25 21.7 24.7 21.1 24.6 20.4 Z M 31.7 22.6 L 31.7 21.4 L 32.9 21.4 C 32.9 21.4 32.87 22.62 32.9 22.6 C 32.9 23.1 32.8 23.4 32.6 23.7 C 32.5 23.9 32.2 24.1 31.9 24.3 C 31.9 24.3 31.6 23.8 31.6 23.8 C 31.8 23.7 32 23.6 32.1 23.4 C 32.2 23.2 32.3 23 32.3 22.6 C 32.28 22.62 31.7 22.6 31.7 22.6 Z M 38.1 22.6 L 38.1 14.2 L 39.2 14.2 L 39.2 17.7 L 43.6 17.7 L 43.6 14.2 L 44.7 14.2 L 44.7 22.6 L 43.6 22.6 L 43.6 18.7 L 39.2 18.7 L 39.2 22.6 L 38.1 22.6 Z M 50.6 22.6 C 50.5 22.4 50.4 22.2 50.4 21.9 C 50 22.2 49.6 22.4 49.3 22.6 C 48.9 22.7 48.6 22.8 48.1 22.8 C 47.5 22.8 47 22.6 46.6 22.3 C 46.2 21.9 46.1 21.5 46.1 21 C 46.1 20.7 46.1 20.4 46.3 20.2 C 46.4 20 46.6 19.8 46.8 19.6 C 47 19.5 47.3 19.3 47.5 19.3 C 47.7 19.2 48.1 19.2 48.5 19.1 C 49.3 19 49.9 18.9 50.3 18.8 C 50.3 18.6 50.3 18.5 50.3 18.5 C 50.3 18.1 50.2 17.8 50 17.6 C 49.8 17.4 49.4 17.3 48.8 17.3 C 48.4 17.3 48 17.3 47.8 17.5 C 47.5 17.7 47.4 18 47.3 18.4 C 47.3 18.4 46.2 18.3 46.2 18.3 C 46.3 17.8 46.5 17.5 46.7 17.2 C 46.9 17 47.2 16.8 47.6 16.6 C 48 16.5 48.5 16.4 49 16.4 C 49.5 16.4 49.9 16.5 50.3 16.6 C 50.6 16.7 50.8 16.9 51 17 C 51.1 17.2 51.2 17.5 51.3 17.7 C 51.3 17.9 51.3 18.2 51.3 18.7 C 51.3 18.7 51.3 20.1 51.3 20.1 C 51.3 21 51.4 21.6 51.4 21.9 C 51.5 22.1 51.5 22.4 51.7 22.6 C 51.67 22.62 50.6 22.6 50.6 22.6 C 50.6 22.6 50.59 22.62 50.6 22.6 Z M 50.3 19.6 C 49.9 19.7 49.4 19.9 48.6 20 C 48.2 20 47.9 20.1 47.7 20.2 C 47.5 20.2 47.4 20.4 47.3 20.5 C 47.2 20.6 47.2 20.8 47.2 21 C 47.2 21.3 47.3 21.5 47.5 21.7 C 47.7 21.9 48 22 48.4 22 C 48.8 22 49.1 21.9 49.5 21.7 C 49.8 21.5 50 21.3 50.1 21 C 50.2 20.7 50.3 20.4 50.3 19.9 C 50.3 19.9 50.3 19.6 50.3 19.6 Z M 53.6 25.1 C 53.4 25.1 53.1 25 52.9 25 C 52.9 25 52.8 24 52.8 24 C 53 24.1 53.2 24.1 53.4 24.1 C 53.6 24.1 53.8 24.1 53.9 24 C 54.1 23.9 54.2 23.8 54.3 23.7 C 54.3 23.6 54.4 23.3 54.6 22.9 C 54.6 22.8 54.6 22.7 54.7 22.6 C 54.67 22.63 52.4 16.5 52.4 16.5 L 53.5 16.5 C 53.5 16.5 54.74 20.06 54.7 20.1 C 54.9 20.5 55 21 55.2 21.5 C 55.3 21 55.4 20.5 55.6 20.1 C 55.6 20.08 56.9 16.5 56.9 16.5 L 57.9 16.5 C 57.9 16.5 55.62 22.73 55.6 22.7 C 55.4 23.4 55.2 23.9 55 24.1 C 54.9 24.4 54.6 24.7 54.4 24.9 C 54.2 25 53.9 25.1 53.6 25.1 C 53.6 25.1 53.6 25.1 53.6 25.1 Z M 59.1 22.6 L 59.1 17.3 L 58.2 17.3 L 58.2 16.5 L 59.1 16.5 C 59.1 16.5 59.08 15.95 59.1 15.9 C 59.1 15.3 59.2 14.9 59.5 14.6 C 59.7 14.2 60.1 14.1 60.7 14.1 C 61.1 14.1 61.4 14.1 61.8 14.2 C 61.8 14.2 61.6 15.1 61.6 15.1 C 61.4 15 61.2 15 61 15 C 60.7 15 60.4 15.1 60.3 15.2 C 60.2 15.4 60.1 15.7 60.1 16.1 C 60.12 16.14 60.1 16.5 60.1 16.5 L 61.3 16.5 L 61.3 17.3 L 60.1 17.3 L 60.1 22.6 L 59.1 22.6 Z M 62.1 15.4 L 62.1 14.2 L 63.1 14.2 L 63.1 15.4 L 62.1 15.4 Z M 62.1 22.6 L 62.1 16.5 L 63.1 16.5 L 63.1 22.6 L 62.1 22.6 Z M 68.8 20.7 C 68.8 20.7 69.9 20.8 69.9 20.8 C 69.7 21.4 69.4 21.9 69 22.2 C 68.5 22.6 67.9 22.8 67.2 22.8 C 66.3 22.8 65.6 22.5 65.1 21.9 C 64.6 21.4 64.3 20.6 64.3 19.6 C 64.3 18.6 64.6 17.8 65.1 17.2 C 65.7 16.7 66.3 16.4 67.2 16.4 C 68 16.4 68.7 16.7 69.2 17.2 C 69.7 17.8 69.9 18.6 69.9 19.6 C 69.9 19.6 69.9 19.7 69.9 19.8 C 69.9 19.8 65.4 19.8 65.4 19.8 C 65.4 20.5 65.6 21 66 21.4 C 66.3 21.7 66.7 21.9 67.2 21.9 C 67.6 21.9 67.9 21.8 68.2 21.6 C 68.5 21.4 68.7 21.1 68.8 20.7 Z M 65.5 19 C 65.5 19 68.9 19 68.9 19 C 68.8 18.5 68.7 18.1 68.5 17.8 C 68.1 17.4 67.7 17.2 67.2 17.2 C 66.7 17.2 66.3 17.4 66 17.7 C 65.7 18 65.5 18.5 65.5 19 Z M 71.2 22.6 L 71.2 14.2 L 72.2 14.2 L 72.2 22.6 L 71.2 22.6 Z M 77.8 22.6 C 77.8 22.6 77.76 21.85 77.8 21.9 C 77.4 22.5 76.8 22.8 76.1 22.8 C 75.6 22.8 75.1 22.6 74.7 22.4 C 74.3 22.1 74 21.7 73.8 21.2 C 73.5 20.8 73.4 20.2 73.4 19.6 C 73.4 19 73.5 18.4 73.7 17.9 C 73.9 17.4 74.2 17.1 74.7 16.8 C 75.1 16.5 75.5 16.4 76 16.4 C 76.4 16.4 76.7 16.5 77 16.6 C 77.3 16.8 77.5 17 77.7 17.2 C 77.69 17.24 77.7 14.2 77.7 14.2 L 78.7 14.2 L 78.7 22.6 L 77.8 22.6 Z M 74.5 19.6 C 74.5 20.4 74.7 20.9 75 21.3 C 75.3 21.7 75.7 21.9 76.2 21.9 C 76.6 21.9 77 21.7 77.3 21.4 C 77.6 21 77.8 20.4 77.8 19.7 C 77.8 18.8 77.6 18.2 77.3 17.8 C 77 17.4 76.6 17.3 76.1 17.3 C 75.6 17.3 75.3 17.4 75 17.8 C 74.6 18.2 74.5 18.8 74.5 19.6 Z M 83.7 22.6 L 83.7 14.2 C 83.7 14.2 86.83 14.22 86.8 14.2 C 87.5 14.2 88 14.3 88.4 14.5 C 88.8 14.6 89.1 14.9 89.3 15.3 C 89.5 15.6 89.6 16 89.6 16.4 C 89.6 16.7 89.5 17.1 89.3 17.4 C 89.1 17.7 88.8 18 88.4 18.2 C 88.9 18.3 89.3 18.6 89.6 18.9 C 89.9 19.3 90 19.7 90 20.2 C 90 20.6 89.9 20.9 89.8 21.3 C 89.6 21.6 89.4 21.9 89.2 22.1 C 88.9 22.2 88.6 22.4 88.2 22.5 C 87.9 22.6 87.4 22.6 86.9 22.6 C 86.88 22.62 83.7 22.6 83.7 22.6 Z M 84.8 17.8 C 84.8 17.8 86.61 17.75 86.6 17.8 C 87.1 17.8 87.5 17.7 87.7 17.7 C 88 17.6 88.2 17.4 88.3 17.2 C 88.4 17 88.5 16.8 88.5 16.5 C 88.5 16.2 88.5 16 88.3 15.8 C 88.2 15.6 88 15.4 87.7 15.3 C 87.5 15.3 87.1 15.2 86.5 15.2 C 86.47 15.21 84.8 15.2 84.8 15.2 L 84.8 17.8 Z M 84.8 21.6 C 84.8 21.6 86.88 21.63 86.9 21.6 C 87.2 21.6 87.5 21.6 87.6 21.6 C 87.9 21.5 88.1 21.5 88.3 21.4 C 88.5 21.3 88.6 21.1 88.7 20.9 C 88.8 20.7 88.9 20.5 88.9 20.2 C 88.9 19.9 88.8 19.6 88.6 19.4 C 88.5 19.1 88.2 19 88 18.9 C 87.7 18.8 87.3 18.7 86.7 18.7 C 86.73 18.74 84.8 18.7 84.8 18.7 L 84.8 21.6 Z M 95.4 22.6 C 95.4 22.6 95.41 21.73 95.4 21.7 C 94.9 22.4 94.3 22.8 93.5 22.8 C 93.1 22.8 92.8 22.7 92.5 22.6 C 92.2 22.4 91.9 22.2 91.8 22 C 91.6 21.8 91.5 21.6 91.5 21.3 C 91.4 21.1 91.4 20.7 91.4 20.3 C 91.4 20.31 91.4 16.5 91.4 16.5 L 92.4 16.5 C 92.4 16.5 92.43 19.91 92.4 19.9 C 92.4 20.5 92.4 20.8 92.5 21 C 92.6 21.3 92.7 21.5 92.9 21.6 C 93.1 21.8 93.4 21.9 93.7 21.9 C 94 21.9 94.3 21.8 94.6 21.6 C 94.8 21.5 95 21.3 95.1 21 C 95.2 20.7 95.3 20.3 95.3 19.8 C 95.3 19.8 95.3 16.5 95.3 16.5 L 96.3 16.5 L 96.3 22.6 L 95.4 22.6 Z M 97.5 20.8 C 97.5 20.8 98.6 20.6 98.6 20.6 C 98.6 21.1 98.8 21.4 99 21.6 C 99.3 21.8 99.7 21.9 100.1 21.9 C 100.6 21.9 101 21.8 101.2 21.6 C 101.4 21.4 101.5 21.2 101.5 20.9 C 101.5 20.7 101.4 20.5 101.2 20.4 C 101.1 20.3 100.7 20.2 100.2 20 C 99.4 19.9 98.9 19.7 98.6 19.5 C 98.3 19.4 98.1 19.2 97.9 19 C 97.8 18.7 97.7 18.5 97.7 18.2 C 97.7 17.9 97.8 17.6 97.9 17.4 C 98 17.2 98.2 17 98.4 16.8 C 98.6 16.7 98.8 16.6 99.1 16.5 C 99.3 16.4 99.6 16.4 99.9 16.4 C 100.4 16.4 100.8 16.5 101.2 16.6 C 101.6 16.7 101.8 16.9 102 17.2 C 102.2 17.4 102.3 17.7 102.4 18.1 C 102.4 18.1 101.3 18.2 101.3 18.2 C 101.3 17.9 101.2 17.7 101 17.5 C 100.7 17.3 100.4 17.2 100 17.2 C 99.5 17.2 99.2 17.3 99 17.5 C 98.8 17.6 98.7 17.8 98.7 18 C 98.7 18.2 98.7 18.3 98.8 18.4 C 98.9 18.5 99 18.6 99.2 18.7 C 99.3 18.7 99.6 18.8 100.1 18.9 C 100.9 19.1 101.4 19.3 101.7 19.4 C 101.9 19.5 102.2 19.7 102.3 20 C 102.5 20.2 102.6 20.5 102.6 20.8 C 102.6 21.2 102.5 21.5 102.3 21.8 C 102.1 22.1 101.8 22.3 101.4 22.5 C 101 22.7 100.6 22.8 100.1 22.8 C 99.3 22.8 98.7 22.6 98.3 22.3 C 97.9 21.9 97.6 21.5 97.5 20.8 Z M 103.8 15.4 L 103.8 14.2 L 104.8 14.2 L 104.8 15.4 L 103.8 15.4 Z M 103.8 22.6 L 103.8 16.5 L 104.8 16.5 L 104.8 22.6 L 103.8 22.6 Z M 106.4 22.6 L 106.4 16.5 L 107.3 16.5 C 107.3 16.5 107.35 17.4 107.3 17.4 C 107.8 16.7 108.4 16.4 109.3 16.4 C 109.7 16.4 110 16.5 110.3 16.6 C 110.6 16.7 110.8 16.9 111 17.1 C 111.1 17.3 111.2 17.6 111.3 17.9 C 111.3 18.1 111.4 18.4 111.4 18.9 C 111.36 18.88 111.4 22.6 111.4 22.6 L 110.3 22.6 C 110.3 22.6 110.33 18.92 110.3 18.9 C 110.3 18.5 110.3 18.2 110.2 18 C 110.1 17.8 110 17.6 109.8 17.5 C 109.6 17.4 109.3 17.3 109.1 17.3 C 108.6 17.3 108.2 17.4 107.9 17.7 C 107.6 18 107.5 18.5 107.5 19.3 C 107.45 19.3 107.5 22.6 107.5 22.6 L 106.4 22.6 Z M 117.1 20.7 C 117.1 20.7 118.2 20.8 118.2 20.8 C 118 21.4 117.7 21.9 117.2 22.2 C 116.8 22.6 116.2 22.8 115.5 22.8 C 114.6 22.8 113.9 22.5 113.4 21.9 C 112.9 21.4 112.6 20.6 112.6 19.6 C 112.6 18.6 112.9 17.8 113.4 17.2 C 113.9 16.7 114.6 16.4 115.4 16.4 C 116.3 16.4 116.9 16.7 117.4 17.2 C 118 17.8 118.2 18.6 118.2 19.6 C 118.2 19.6 118.2 19.7 118.2 19.8 C 118.2 19.8 113.7 19.8 113.7 19.8 C 113.7 20.5 113.9 21 114.2 21.4 C 114.6 21.7 115 21.9 115.5 21.9 C 115.9 21.9 116.2 21.8 116.5 21.6 C 116.7 21.4 117 21.1 117.1 20.7 Z M 113.7 19 C 113.7 19 117.1 19 117.1 19 C 117.1 18.5 116.9 18.1 116.7 17.8 C 116.4 17.4 116 17.2 115.5 17.2 C 115 17.2 114.6 17.4 114.3 17.7 C 113.9 18 113.8 18.5 113.7 19 Z M 119.1 20.8 C 119.1 20.8 120.1 20.6 120.1 20.6 C 120.1 21.1 120.3 21.4 120.6 21.6 C 120.8 21.8 121.2 21.9 121.7 21.9 C 122.1 21.9 122.5 21.8 122.7 21.6 C 122.9 21.4 123.1 21.2 123.1 20.9 C 123.1 20.7 122.9 20.5 122.7 20.4 C 122.6 20.3 122.3 20.2 121.7 20 C 120.9 19.9 120.4 19.7 120.1 19.5 C 119.8 19.4 119.6 19.2 119.5 19 C 119.3 18.7 119.2 18.5 119.2 18.2 C 119.2 17.9 119.3 17.6 119.4 17.4 C 119.5 17.2 119.7 17 119.9 16.8 C 120.1 16.7 120.3 16.6 120.6 16.5 C 120.9 16.4 121.2 16.4 121.5 16.4 C 121.9 16.4 122.4 16.5 122.7 16.6 C 123.1 16.7 123.4 16.9 123.5 17.2 C 123.7 17.4 123.8 17.7 123.9 18.1 C 123.9 18.1 122.9 18.2 122.9 18.2 C 122.8 17.9 122.7 17.7 122.5 17.5 C 122.3 17.3 121.9 17.2 121.5 17.2 C 121.1 17.2 120.7 17.3 120.5 17.5 C 120.3 17.6 120.2 17.8 120.2 18 C 120.2 18.2 120.3 18.3 120.4 18.4 C 120.4 18.5 120.6 18.6 120.7 18.7 C 120.9 18.7 121.2 18.8 121.7 18.9 C 122.4 19.1 122.9 19.3 123.2 19.4 C 123.5 19.5 123.7 19.7 123.9 20 C 124 20.2 124.1 20.5 124.1 20.8 C 124.1 21.2 124 21.5 123.8 21.8 C 123.6 22.1 123.3 22.3 122.9 22.5 C 122.6 22.7 122.1 22.8 121.7 22.8 C 120.9 22.8 120.3 22.6 119.9 22.3 C 119.4 21.9 119.2 21.5 119.1 20.8 Z M 124.9 20.8 C 124.9 20.8 125.9 20.6 125.9 20.6 C 126 21.1 126.2 21.4 126.4 21.6 C 126.7 21.8 127 21.9 127.5 21.9 C 128 21.9 128.3 21.8 128.6 21.6 C 128.8 21.4 128.9 21.2 128.9 20.9 C 128.9 20.7 128.8 20.5 128.6 20.4 C 128.5 20.3 128.1 20.2 127.6 20 C 126.8 19.9 126.3 19.7 126 19.5 C 125.7 19.4 125.5 19.2 125.3 19 C 125.2 18.7 125.1 18.5 125.1 18.2 C 125.1 17.9 125.2 17.6 125.3 17.4 C 125.4 17.2 125.6 17 125.8 16.8 C 125.9 16.7 126.2 16.6 126.4 16.5 C 126.7 16.4 127 16.4 127.3 16.4 C 127.8 16.4 128.2 16.5 128.6 16.6 C 129 16.7 129.2 16.9 129.4 17.2 C 129.6 17.4 129.7 17.7 129.7 18.1 C 129.7 18.1 128.7 18.2 128.7 18.2 C 128.7 17.9 128.6 17.7 128.3 17.5 C 128.1 17.3 127.8 17.2 127.4 17.2 C 126.9 17.2 126.6 17.3 126.4 17.5 C 126.2 17.6 126.1 17.8 126.1 18 C 126.1 18.2 126.1 18.3 126.2 18.4 C 126.3 18.5 126.4 18.6 126.6 18.7 C 126.7 18.7 127 18.8 127.5 18.9 C 128.3 19.1 128.8 19.3 129.1 19.4 C 129.3 19.5 129.6 19.7 129.7 20 C 129.9 20.2 130 20.5 130 20.8 C 130 21.2 129.9 21.5 129.7 21.8 C 129.5 22.1 129.2 22.3 128.8 22.5 C 128.4 22.7 128 22.8 127.5 22.8 C 126.7 22.8 126.1 22.6 125.7 22.3 C 125.3 21.9 125 21.5 124.9 20.8 Z M 134.6 22.6 L 134.6 14.2 C 134.6 14.2 137.76 14.22 137.8 14.2 C 138.3 14.2 138.7 14.2 139 14.3 C 139.5 14.4 139.8 14.5 140.1 14.7 C 140.4 14.9 140.6 15.2 140.8 15.5 C 140.9 15.9 141 16.2 141 16.7 C 141 17.4 140.8 18 140.3 18.5 C 139.9 19 139 19.2 137.9 19.2 C 137.86 19.21 135.7 19.2 135.7 19.2 L 135.7 22.6 L 134.6 22.6 Z M 135.7 18.2 C 135.7 18.2 137.88 18.22 137.9 18.2 C 138.6 18.2 139.1 18.1 139.4 17.8 C 139.7 17.5 139.9 17.2 139.9 16.7 C 139.9 16.3 139.8 16 139.6 15.8 C 139.4 15.5 139.2 15.4 138.9 15.3 C 138.7 15.2 138.4 15.2 137.9 15.2 C 137.86 15.21 135.7 15.2 135.7 15.2 L 135.7 18.2 Z M 146.5 22.6 C 146.4 22.4 146.3 22.2 146.3 21.9 C 145.9 22.2 145.5 22.4 145.2 22.6 C 144.8 22.7 144.4 22.8 144 22.8 C 143.4 22.8 142.8 22.6 142.5 22.3 C 142.1 21.9 141.9 21.5 141.9 21 C 141.9 20.7 142 20.4 142.1 20.2 C 142.3 20 142.5 19.8 142.7 19.6 C 142.9 19.5 143.1 19.3 143.4 19.3 C 143.6 19.2 143.9 19.2 144.3 19.1 C 145.2 19 145.8 18.9 146.2 18.8 C 146.2 18.6 146.2 18.5 146.2 18.5 C 146.2 18.1 146.1 17.8 145.9 17.6 C 145.6 17.4 145.2 17.3 144.7 17.3 C 144.2 17.3 143.9 17.3 143.6 17.5 C 143.4 17.7 143.2 18 143.1 18.4 C 143.1 18.4 142.1 18.3 142.1 18.3 C 142.2 17.8 142.4 17.5 142.6 17.2 C 142.8 17 143.1 16.8 143.5 16.6 C 143.9 16.5 144.3 16.4 144.9 16.4 C 145.4 16.4 145.8 16.5 146.1 16.6 C 146.5 16.7 146.7 16.9 146.8 17 C 147 17.2 147.1 17.5 147.2 17.7 C 147.2 17.9 147.2 18.2 147.2 18.7 C 147.2 18.7 147.2 20.1 147.2 20.1 C 147.2 21 147.2 21.6 147.3 21.9 C 147.3 22.1 147.4 22.4 147.5 22.6 C 147.54 22.62 146.5 22.6 146.5 22.6 C 146.5 22.6 146.47 22.62 146.5 22.6 Z M 146.2 19.6 C 145.8 19.7 145.2 19.9 144.5 20 C 144.1 20 143.8 20.1 143.6 20.2 C 143.4 20.2 143.3 20.4 143.2 20.5 C 143.1 20.6 143 20.8 143 21 C 143 21.3 143.1 21.5 143.4 21.7 C 143.6 21.9 143.9 22 144.3 22 C 144.7 22 145 21.9 145.3 21.7 C 145.6 21.5 145.9 21.3 146 21 C 146.1 20.7 146.2 20.4 146.2 19.9 C 146.2 19.9 146.2 19.6 146.2 19.6 Z M 148.8 22.6 L 148.8 16.5 L 149.7 16.5 C 149.7 16.5 149.73 17.46 149.7 17.5 C 150 17 150.2 16.7 150.4 16.6 C 150.6 16.5 150.8 16.4 151 16.4 C 151.4 16.4 151.8 16.5 152.1 16.7 C 152.1 16.7 151.8 17.7 151.8 17.7 C 151.5 17.5 151.2 17.5 151 17.5 C 150.8 17.5 150.6 17.5 150.4 17.7 C 150.2 17.8 150.1 18 150 18.2 C 149.9 18.6 149.8 19 149.8 19.4 C 149.83 19.44 149.8 22.6 149.8 22.6 L 148.8 22.6 Z M 152.7 22.6 L 152.7 14.2 L 153.8 14.2 L 153.8 19 L 156.2 16.5 L 157.5 16.5 L 155.2 18.8 L 157.8 22.6 L 156.5 22.6 L 154.5 19.5 L 153.8 20.2 L 153.8 22.6 L 152.7 22.6 Z " stroke="none" fill="#000"/>  </g>  <g id="Polygon69517">    <path d="M 0.9 8.5 L 0.9 0.1 C 0.9 0.1 3.8 0.14 3.8 0.1 C 4.5 0.1 5 0.2 5.3 0.3 C 5.8 0.4 6.2 0.6 6.5 0.9 C 7 1.2 7.3 1.7 7.5 2.3 C 7.7 2.9 7.8 3.5 7.8 4.3 C 7.8 4.9 7.8 5.5 7.6 6 C 7.5 6.5 7.3 6.9 7.1 7.2 C 6.8 7.5 6.6 7.8 6.3 8 C 6 8.2 5.7 8.3 5.3 8.4 C 4.9 8.5 4.4 8.5 3.9 8.5 C 3.94 8.54 0.9 8.5 0.9 8.5 Z M 2 7.6 C 2 7.6 3.81 7.55 3.8 7.6 C 4.4 7.6 4.8 7.5 5.1 7.4 C 5.4 7.3 5.7 7.1 5.9 7 C 6.1 6.7 6.3 6.3 6.5 5.9 C 6.6 5.5 6.7 4.9 6.7 4.3 C 6.7 3.4 6.6 2.7 6.3 2.3 C 6 1.8 5.6 1.5 5.2 1.3 C 4.9 1.2 4.4 1.1 3.8 1.1 C 3.78 1.13 2 1.1 2 1.1 L 2 7.6 Z M 9 5.8 C 9 5.8 10 5.8 10 5.8 C 10.1 6.2 10.2 6.5 10.4 6.8 C 10.6 7.1 10.9 7.3 11.2 7.4 C 11.6 7.6 12.1 7.7 12.5 7.7 C 13 7.7 13.3 7.6 13.7 7.5 C 14 7.4 14.2 7.2 14.4 7 C 14.5 6.8 14.6 6.5 14.6 6.3 C 14.6 6 14.5 5.8 14.4 5.6 C 14.2 5.4 14 5.2 13.6 5.1 C 13.4 5 12.9 4.9 12.1 4.7 C 11.4 4.5 10.8 4.3 10.5 4.1 C 10.1 3.9 9.8 3.7 9.6 3.4 C 9.4 3 9.3 2.7 9.3 2.3 C 9.3 1.9 9.4 1.5 9.7 1.1 C 9.9 0.8 10.3 0.5 10.7 0.3 C 11.2 0.1 11.7 0 12.3 0 C 12.9 0 13.4 0.1 13.9 0.3 C 14.4 0.5 14.8 0.8 15 1.2 C 15.3 1.6 15.4 2 15.4 2.5 C 15.4 2.5 14.4 2.6 14.4 2.6 C 14.3 2.1 14.1 1.7 13.8 1.4 C 13.5 1.1 13 1 12.3 1 C 11.7 1 11.2 1.1 10.9 1.3 C 10.5 1.6 10.4 1.9 10.4 2.2 C 10.4 2.5 10.5 2.8 10.7 3 C 10.9 3.2 11.5 3.4 12.4 3.6 C 13.3 3.8 13.9 4 14.3 4.1 C 14.7 4.3 15.1 4.6 15.3 5 C 15.6 5.3 15.7 5.7 15.7 6.2 C 15.7 6.6 15.6 7 15.3 7.4 C 15 7.8 14.7 8.1 14.2 8.4 C 13.7 8.6 13.2 8.7 12.6 8.7 C 11.8 8.7 11.2 8.6 10.7 8.4 C 10.2 8.1 9.8 7.8 9.5 7.4 C 9.2 6.9 9 6.4 9 5.8 Z M 18.7 8.5 L 16.4 0.1 L 17.6 0.1 C 17.6 0.1 18.86 5.65 18.9 5.6 C 19 6.2 19.1 6.8 19.2 7.4 C 19.4 6.5 19.6 6 19.6 5.8 C 19.59 5.82 21.2 0.1 21.2 0.1 L 22.5 0.1 C 22.5 0.1 23.74 4.39 23.7 4.4 C 24 5.4 24.3 6.4 24.4 7.4 C 24.5 6.8 24.6 6.2 24.8 5.5 C 24.81 5.54 26.1 0.1 26.1 0.1 L 27.2 0.1 L 24.9 8.5 L 23.9 8.5 C 23.9 8.5 22.1 2.14 22.1 2.1 C 21.9 1.6 21.9 1.3 21.8 1.2 C 21.7 1.5 21.7 1.9 21.6 2.1 C 21.59 2.14 19.8 8.5 19.8 8.5 L 18.7 8.5 Z M 31.6 8.5 L 31.6 0.1 L 32.7 0.1 L 32.7 3.6 L 37.1 3.6 L 37.1 0.1 L 38.2 0.1 L 38.2 8.5 L 37.1 8.5 L 37.1 4.6 L 32.7 4.6 L 32.7 8.5 L 31.6 8.5 Z M 39.5 5.5 C 39.5 4.4 39.8 3.5 40.4 3 C 41 2.5 41.6 2.3 42.3 2.3 C 43.2 2.3 43.9 2.6 44.4 3.1 C 44.9 3.7 45.2 4.4 45.2 5.4 C 45.2 6.2 45.1 6.8 44.8 7.3 C 44.6 7.7 44.3 8.1 43.8 8.3 C 43.4 8.6 42.9 8.7 42.3 8.7 C 41.5 8.7 40.8 8.4 40.3 7.9 C 39.8 7.3 39.5 6.5 39.5 5.5 Z M 40.6 5.5 C 40.6 6.3 40.7 6.9 41.1 7.3 C 41.4 7.6 41.8 7.8 42.3 7.8 C 42.9 7.8 43.3 7.6 43.6 7.2 C 44 6.9 44.1 6.3 44.1 5.5 C 44.1 4.7 44 4.1 43.6 3.8 C 43.3 3.4 42.9 3.2 42.3 3.2 C 41.8 3.2 41.4 3.4 41.1 3.8 C 40.7 4.1 40.6 4.7 40.6 5.5 Z M 50.4 8.5 C 50.4 8.5 50.39 7.65 50.4 7.6 C 49.9 8.3 49.3 8.7 48.5 8.7 C 48.1 8.7 47.8 8.6 47.5 8.5 C 47.1 8.3 46.9 8.2 46.8 8 C 46.6 7.7 46.5 7.5 46.4 7.2 C 46.4 7 46.4 6.7 46.4 6.2 C 46.38 6.23 46.4 2.5 46.4 2.5 L 47.4 2.5 C 47.4 2.5 47.41 5.83 47.4 5.8 C 47.4 6.4 47.4 6.7 47.5 6.9 C 47.5 7.2 47.7 7.4 47.9 7.6 C 48.1 7.7 48.4 7.8 48.7 7.8 C 49 7.8 49.3 7.7 49.5 7.6 C 49.8 7.4 50 7.2 50.1 6.9 C 50.2 6.6 50.3 6.2 50.3 5.7 C 50.28 5.72 50.3 2.5 50.3 2.5 L 51.3 2.5 L 51.3 8.5 L 50.4 8.5 Z M 52.5 6.7 C 52.5 6.7 53.5 6.6 53.5 6.6 C 53.6 7 53.8 7.3 54 7.5 C 54.3 7.7 54.6 7.8 55.1 7.8 C 55.6 7.8 55.9 7.7 56.2 7.5 C 56.4 7.3 56.5 7.1 56.5 6.9 C 56.5 6.6 56.4 6.4 56.2 6.3 C 56.1 6.2 55.7 6.1 55.2 6 C 54.4 5.8 53.9 5.6 53.6 5.5 C 53.3 5.3 53.1 5.1 52.9 4.9 C 52.8 4.6 52.7 4.4 52.7 4.1 C 52.7 3.8 52.8 3.6 52.9 3.3 C 53 3.1 53.2 2.9 53.4 2.7 C 53.5 2.6 53.8 2.5 54 2.4 C 54.3 2.4 54.6 2.3 54.9 2.3 C 55.4 2.3 55.8 2.4 56.2 2.5 C 56.5 2.7 56.8 2.9 57 3.1 C 57.2 3.3 57.3 3.6 57.3 4 C 57.3 4 56.3 4.2 56.3 4.2 C 56.3 3.9 56.2 3.6 55.9 3.4 C 55.7 3.3 55.4 3.2 55 3.2 C 54.5 3.2 54.2 3.2 54 3.4 C 53.8 3.6 53.7 3.7 53.7 4 C 53.7 4.1 53.7 4.2 53.8 4.3 C 53.9 4.4 54 4.5 54.2 4.6 C 54.3 4.6 54.6 4.7 55.1 4.9 C 55.8 5 56.4 5.2 56.6 5.3 C 56.9 5.5 57.2 5.6 57.3 5.9 C 57.5 6.1 57.6 6.4 57.6 6.8 C 57.6 7.1 57.5 7.4 57.3 7.7 C 57.1 8 56.8 8.3 56.4 8.4 C 56 8.6 55.6 8.7 55.1 8.7 C 54.3 8.7 53.7 8.5 53.3 8.2 C 52.9 7.9 52.6 7.4 52.5 6.7 Z M 63 6.6 C 63 6.6 64 6.7 64 6.7 C 63.9 7.3 63.5 7.8 63.1 8.2 C 62.6 8.5 62.1 8.7 61.4 8.7 C 60.5 8.7 59.8 8.4 59.2 7.9 C 58.7 7.3 58.5 6.5 58.5 5.6 C 58.5 4.5 58.7 3.7 59.2 3.2 C 59.8 2.6 60.5 2.3 61.3 2.3 C 62.1 2.3 62.8 2.6 63.3 3.2 C 63.8 3.7 64.1 4.5 64.1 5.5 C 64.1 5.5 64.1 5.6 64.1 5.8 C 64.1 5.8 59.5 5.8 59.5 5.8 C 59.6 6.4 59.7 6.9 60.1 7.3 C 60.4 7.7 60.9 7.8 61.4 7.8 C 61.7 7.8 62.1 7.7 62.3 7.5 C 62.6 7.3 62.8 7 63 6.6 Z M 59.6 4.9 C 59.6 4.9 63 4.9 63 4.9 C 62.9 4.4 62.8 4 62.6 3.8 C 62.3 3.4 61.8 3.2 61.3 3.2 C 60.8 3.2 60.4 3.3 60.1 3.6 C 59.8 4 59.6 4.4 59.6 4.9 Z " stroke="none" fill="#000"/>  </g></svg>