<?xml version="1.0" standalone="no"?><!DOCTYPE svg PUBLIC "-//W3C//DTD SVG 1.1//EN" "http://www.w3.org/Graphics/SVG/1.1/DTD/svg11.dtd"><svg xmlns="http://www.w3.org/2000/svg" version="1.1" width="197.4px" height="25.1px" viewBox="0 -5 197.4 25.1" style="top:-5px">  <desc>© DSW Consulting Ltd. 2024</desc>  <defs/>  <g id="Polygon66463">    <path d="M 15.1 0 C 16 0 16.9 0.2 17.7 0.7 C 18.6 1.2 19.3 1.8 19.8 2.7 C 20.2 3.6 20.5 4.5 20.5 5.4 C 20.5 6.3 20.2 7.2 19.8 8.1 C 19.3 9 18.6 9.6 17.8 10.1 C 16.9 10.6 16 10.8 15.1 10.8 C 14.1 10.8 13.2 10.6 12.4 10.1 C 11.5 9.6 10.9 9 10.4 8.1 C 9.9 7.2 9.7 6.3 9.7 5.4 C 9.7 4.5 9.9 3.6 10.4 2.7 C 10.9 1.8 11.6 1.2 12.4 0.7 C 13.3 0.2 14.2 0 15.1 0 Z M 15.1 0.9 C 14.3 0.9 13.6 1.1 12.9 1.5 C 12.1 1.9 11.6 2.4 11.2 3.1 C 10.8 3.9 10.6 4.6 10.6 5.4 C 10.6 6.2 10.8 6.9 11.2 7.6 C 11.6 8.4 12.1 8.9 12.8 9.3 C 13.6 9.7 14.3 9.9 15.1 9.9 C 15.9 9.9 16.6 9.7 17.3 9.3 C 18 8.9 18.6 8.4 19 7.6 C 19.4 6.9 19.6 6.2 19.6 5.4 C 19.6 4.6 19.4 3.9 19 3.1 C 18.6 2.4 18 1.9 17.3 1.5 C 16.6 1.1 15.8 0.9 15.1 0.9 Z M 16.8 6.3 C 16.8 6.3 17.7 6.5 17.7 6.5 C 17.6 7.1 17.2 7.6 16.8 8 C 16.3 8.3 15.8 8.5 15.1 8.5 C 14.2 8.5 13.6 8.2 13 7.7 C 12.5 7.1 12.3 6.4 12.3 5.4 C 12.3 4.8 12.4 4.2 12.6 3.8 C 12.9 3.3 13.2 3 13.6 2.7 C 14.1 2.5 14.6 2.4 15.1 2.4 C 15.8 2.4 16.3 2.5 16.7 2.8 C 17.1 3.1 17.4 3.5 17.6 4.1 C 17.6 4.1 16.7 4.3 16.7 4.3 C 16.6 3.9 16.4 3.6 16.1 3.5 C 15.8 3.3 15.5 3.2 15.1 3.2 C 14.6 3.2 14.1 3.4 13.8 3.8 C 13.4 4.2 13.2 4.7 13.2 5.4 C 13.2 6.2 13.4 6.7 13.7 7.1 C 14.1 7.5 14.5 7.7 15 7.7 C 15.5 7.7 15.8 7.5 16.2 7.3 C 16.5 7 16.7 6.7 16.8 6.3 Z M 25.7 10.7 L 25.7 0.2 C 25.7 0.2 29.28 0.18 29.3 0.2 C 30.1 0.2 30.7 0.2 31.2 0.3 C 31.8 0.5 32.3 0.7 32.7 1.1 C 33.2 1.5 33.7 2.1 33.9 2.9 C 34.2 3.6 34.3 4.4 34.3 5.4 C 34.3 6.2 34.3 6.9 34.1 7.5 C 33.9 8.1 33.6 8.6 33.4 9 C 33.1 9.4 32.7 9.7 32.4 10 C 32 10.2 31.6 10.4 31.1 10.5 C 30.7 10.6 30.1 10.7 29.5 10.7 C 29.46 10.68 25.7 10.7 25.7 10.7 Z M 27.1 9.4 C 27.1 9.4 29.3 9.44 29.3 9.4 C 30 9.4 30.5 9.4 30.9 9.2 C 31.3 9.1 31.6 8.9 31.9 8.7 C 32.2 8.4 32.5 7.9 32.6 7.4 C 32.8 6.8 32.9 6.1 32.9 5.3 C 32.9 4.3 32.7 3.4 32.4 2.8 C 32 2.2 31.6 1.8 31.1 1.6 C 30.7 1.5 30.1 1.4 29.3 1.4 C 29.26 1.42 27.1 1.4 27.1 1.4 L 27.1 9.4 Z M 35.8 7.3 C 35.8 7.3 37.1 7.2 37.1 7.2 C 37.2 7.7 37.3 8.1 37.5 8.5 C 37.8 8.8 38.1 9.1 38.6 9.3 C 39.1 9.5 39.6 9.6 40.2 9.6 C 40.7 9.6 41.2 9.5 41.6 9.4 C 42 9.2 42.3 9 42.5 8.7 C 42.7 8.5 42.8 8.2 42.8 7.8 C 42.8 7.5 42.7 7.2 42.5 7 C 42.3 6.7 42 6.5 41.6 6.3 C 41.3 6.2 40.7 6.1 39.7 5.8 C 38.7 5.6 38.1 5.4 37.7 5.2 C 37.2 4.9 36.8 4.6 36.6 4.2 C 36.3 3.8 36.2 3.4 36.2 2.9 C 36.2 2.4 36.3 1.9 36.6 1.4 C 36.9 0.9 37.4 0.6 38 0.4 C 38.5 0.1 39.2 0 39.9 0 C 40.7 0 41.3 0.1 41.9 0.4 C 42.5 0.6 43 1 43.3 1.5 C 43.6 2 43.8 2.5 43.8 3.1 C 43.8 3.1 42.5 3.2 42.5 3.2 C 42.4 2.6 42.2 2.1 41.8 1.7 C 41.4 1.4 40.7 1.2 39.9 1.2 C 39.1 1.2 38.5 1.4 38.1 1.7 C 37.7 2 37.5 2.4 37.5 2.8 C 37.5 3.2 37.7 3.5 37.9 3.7 C 38.2 4 38.9 4.2 40 4.5 C 41.2 4.7 41.9 5 42.4 5.1 C 43 5.4 43.4 5.8 43.7 6.2 C 44 6.7 44.1 7.1 44.1 7.7 C 44.1 8.3 44 8.8 43.7 9.3 C 43.3 9.8 42.9 10.2 42.3 10.4 C 41.7 10.7 41 10.9 40.3 10.9 C 39.3 10.9 38.5 10.7 37.9 10.4 C 37.2 10.2 36.7 9.7 36.4 9.2 C 36 8.6 35.8 8 35.8 7.3 Z M 47.9 10.7 L 45.1 0.2 L 46.5 0.2 C 46.5 0.2 48.11 7.06 48.1 7.1 C 48.3 7.8 48.4 8.5 48.6 9.2 C 48.8 8.1 49 7.4 49 7.3 C 49.03 7.27 51 0.2 51 0.2 L 52.7 0.2 C 52.7 0.2 54.21 5.49 54.2 5.5 C 54.6 6.8 54.9 8 55 9.2 C 55.2 8.5 55.3 7.8 55.5 6.9 C 55.54 6.93 57.2 0.2 57.2 0.2 L 58.6 0.2 L 55.7 10.7 L 54.4 10.7 C 54.4 10.7 52.16 2.68 52.2 2.7 C 52 2 51.9 1.6 51.8 1.4 C 51.7 1.9 51.6 2.3 51.5 2.7 C 51.52 2.68 49.3 10.7 49.3 10.7 L 47.9 10.7 Z M 71.4 7 C 71.4 7 72.8 7.3 72.8 7.3 C 72.5 8.5 72 9.4 71.3 10 C 70.5 10.6 69.6 10.9 68.5 10.9 C 67.4 10.9 66.4 10.6 65.7 10.2 C 65 9.7 64.5 9 64.1 8.2 C 63.7 7.3 63.6 6.4 63.6 5.3 C 63.6 4.3 63.8 3.3 64.2 2.5 C 64.6 1.7 65.2 1.1 66 0.6 C 66.7 0.2 67.6 0 68.5 0 C 69.6 0 70.4 0.3 71.2 0.8 C 71.9 1.3 72.4 2.1 72.7 3.1 C 72.7 3.1 71.3 3.4 71.3 3.4 C 71 2.6 70.7 2.1 70.2 1.7 C 69.8 1.4 69.2 1.2 68.5 1.2 C 67.7 1.2 67 1.4 66.5 1.8 C 65.9 2.2 65.5 2.7 65.3 3.3 C 65.1 4 65 4.7 65 5.3 C 65 6.2 65.1 7 65.4 7.7 C 65.6 8.3 66 8.8 66.6 9.2 C 67.1 9.5 67.7 9.7 68.4 9.7 C 69.2 9.7 69.8 9.4 70.4 9 C 70.9 8.5 71.3 7.9 71.4 7 Z M 73.9 6.9 C 73.9 5.5 74.3 4.4 75.1 3.7 C 75.7 3.2 76.5 2.9 77.5 2.9 C 78.5 2.9 79.4 3.2 80 3.9 C 80.7 4.6 81 5.6 81 6.8 C 81 7.7 80.9 8.5 80.6 9.1 C 80.3 9.6 79.9 10.1 79.3 10.4 C 78.7 10.7 78.1 10.8 77.5 10.8 C 76.4 10.8 75.5 10.5 74.9 9.8 C 74.2 9.1 73.9 8.2 73.9 6.9 Z M 75.2 6.9 C 75.2 7.8 75.4 8.6 75.9 9.1 C 76.3 9.5 76.8 9.8 77.5 9.8 C 78.1 9.8 78.6 9.5 79.1 9.1 C 79.5 8.6 79.7 7.8 79.7 6.8 C 79.7 5.9 79.5 5.2 79.1 4.7 C 78.6 4.2 78.1 4 77.5 4 C 76.8 4 76.3 4.2 75.9 4.7 C 75.4 5.2 75.2 5.9 75.2 6.9 Z M 82.5 10.7 L 82.5 3.1 L 83.7 3.1 C 83.7 3.1 83.7 4.15 83.7 4.2 C 84.3 3.3 85.1 2.9 86.1 2.9 C 86.6 2.9 87 3 87.4 3.1 C 87.8 3.3 88.1 3.5 88.3 3.8 C 88.4 4.1 88.6 4.4 88.7 4.7 C 88.7 5 88.7 5.4 88.7 6 C 88.72 6 88.7 10.7 88.7 10.7 L 87.4 10.7 C 87.4 10.7 87.43 6.05 87.4 6.1 C 87.4 5.5 87.4 5.1 87.3 4.9 C 87.2 4.6 87 4.4 86.8 4.3 C 86.5 4.1 86.2 4 85.9 4 C 85.3 4 84.8 4.2 84.4 4.5 C 84 4.9 83.8 5.6 83.8 6.5 C 83.83 6.52 83.8 10.7 83.8 10.7 L 82.5 10.7 Z M 90.2 8.4 C 90.2 8.4 91.5 8.2 91.5 8.2 C 91.5 8.7 91.7 9.1 92.1 9.4 C 92.4 9.7 92.8 9.8 93.4 9.8 C 94 9.8 94.5 9.7 94.7 9.4 C 95 9.2 95.2 8.9 95.2 8.6 C 95.2 8.3 95 8.1 94.8 7.9 C 94.6 7.8 94.2 7.6 93.5 7.5 C 92.5 7.2 91.9 7 91.5 6.8 C 91.1 6.7 90.9 6.4 90.7 6.1 C 90.5 5.8 90.4 5.5 90.4 5.1 C 90.4 4.8 90.5 4.4 90.6 4.2 C 90.8 3.9 91 3.6 91.3 3.4 C 91.5 3.3 91.7 3.2 92.1 3.1 C 92.4 3 92.8 2.9 93.2 2.9 C 93.8 2.9 94.3 3 94.8 3.2 C 95.2 3.3 95.6 3.6 95.8 3.9 C 96 4.2 96.1 4.5 96.2 5 C 96.2 5 95 5.2 95 5.2 C 94.9 4.8 94.7 4.5 94.5 4.3 C 94.2 4.1 93.8 4 93.3 4 C 92.7 4 92.3 4.1 92 4.3 C 91.8 4.4 91.6 4.7 91.6 4.9 C 91.6 5.1 91.7 5.3 91.8 5.4 C 91.9 5.5 92.1 5.6 92.3 5.7 C 92.4 5.8 92.8 5.9 93.4 6.1 C 94.3 6.3 95 6.5 95.3 6.7 C 95.7 6.8 96 7 96.2 7.3 C 96.4 7.6 96.5 8 96.5 8.4 C 96.5 8.9 96.4 9.3 96.1 9.7 C 95.9 10 95.5 10.3 95 10.5 C 94.6 10.7 94 10.8 93.4 10.8 C 92.4 10.8 91.7 10.6 91.2 10.2 C 90.7 9.8 90.3 9.2 90.2 8.4 Z M 103 10.7 C 103 10.7 103.02 9.56 103 9.6 C 102.4 10.4 101.6 10.8 100.6 10.8 C 100.2 10.8 99.7 10.8 99.3 10.6 C 99 10.4 98.7 10.2 98.5 9.9 C 98.3 9.7 98.2 9.4 98.1 9 C 98 8.7 98 8.3 98 7.8 C 98 7.78 98 3.1 98 3.1 L 99.3 3.1 C 99.3 3.1 99.29 7.29 99.3 7.3 C 99.3 8 99.3 8.4 99.4 8.7 C 99.5 9 99.6 9.3 99.9 9.4 C 100.2 9.6 100.5 9.7 100.9 9.7 C 101.2 9.7 101.6 9.6 102 9.4 C 102.3 9.2 102.5 9 102.7 8.6 C 102.8 8.3 102.9 7.8 102.9 7.1 C 102.88 7.15 102.9 3.1 102.9 3.1 L 104.2 3.1 L 104.2 10.7 L 103 10.7 Z M 106.2 10.7 L 106.2 0.2 L 107.5 0.2 L 107.5 10.7 L 106.2 10.7 Z M 111.7 9.6 C 111.8 9.6 112 9.6 112.3 9.5 C 112.3 9.5 112.4 10.7 112.4 10.7 C 112.1 10.7 111.8 10.8 111.5 10.8 C 111 10.8 110.6 10.7 110.4 10.6 C 110.1 10.4 109.9 10.2 109.8 10 C 109.7 9.7 109.7 9.2 109.7 8.5 C 109.68 8.45 109.7 4.1 109.7 4.1 L 108.7 4.1 L 108.7 3.1 L 109.7 3.1 L 109.7 1.2 L 111 0.4 L 111 3.1 L 112.3 3.1 L 112.3 4.1 L 111 4.1 C 111 4.1 110.97 8.52 111 8.5 C 111 8.9 111 9.1 111 9.2 C 111.1 9.3 111.2 9.4 111.3 9.5 C 111.4 9.5 111.5 9.6 111.7 9.6 C 111.7 9.6 111.7 9.6 111.7 9.6 Z M 113.5 1.7 L 113.5 0.2 L 114.8 0.2 L 114.8 1.7 L 113.5 1.7 Z M 113.5 10.7 L 113.5 3.1 L 114.8 3.1 L 114.8 10.7 L 113.5 10.7 Z M 116.8 10.7 L 116.8 3.1 L 117.9 3.1 C 117.9 3.1 117.94 4.15 117.9 4.2 C 118.5 3.3 119.3 2.9 120.4 2.9 C 120.8 2.9 121.2 3 121.6 3.1 C 122 3.3 122.3 3.5 122.5 3.8 C 122.7 4.1 122.8 4.4 122.9 4.7 C 122.9 5 123 5.4 123 6 C 122.96 6 123 10.7 123 10.7 L 121.7 10.7 C 121.7 10.7 121.67 6.05 121.7 6.1 C 121.7 5.5 121.6 5.1 121.5 4.9 C 121.4 4.6 121.2 4.4 121 4.3 C 120.7 4.1 120.4 4 120.1 4 C 119.5 4 119.1 4.2 118.7 4.5 C 118.3 4.9 118.1 5.6 118.1 6.5 C 118.07 6.52 118.1 10.7 118.1 10.7 L 116.8 10.7 Z M 124.7 11.3 C 124.7 11.3 126 11.5 126 11.5 C 126 11.9 126.2 12.2 126.4 12.3 C 126.7 12.6 127.1 12.7 127.7 12.7 C 128.3 12.7 128.8 12.6 129.1 12.3 C 129.4 12.1 129.6 11.8 129.7 11.3 C 129.8 11.1 129.8 10.5 129.8 9.7 C 129.3 10.3 128.6 10.7 127.7 10.7 C 126.7 10.7 125.9 10.3 125.3 9.5 C 124.7 8.8 124.4 7.9 124.4 6.8 C 124.4 6.1 124.6 5.4 124.8 4.8 C 125.1 4.2 125.5 3.7 126 3.4 C 126.5 3.1 127.1 2.9 127.7 2.9 C 128.6 2.9 129.4 3.3 130 4 C 129.96 3.99 130 3.1 130 3.1 L 131.1 3.1 C 131.1 3.1 131.15 9.65 131.1 9.6 C 131.1 10.8 131 11.7 130.8 12.2 C 130.5 12.7 130.2 13 129.6 13.3 C 129.1 13.6 128.5 13.8 127.7 13.8 C 126.8 13.8 126.1 13.6 125.5 13.2 C 125 12.7 124.7 12.1 124.7 11.3 Z M 125.8 6.7 C 125.8 7.7 126 8.5 126.4 8.9 C 126.8 9.4 127.3 9.6 127.9 9.6 C 128.4 9.6 128.9 9.4 129.3 8.9 C 129.7 8.5 129.9 7.8 129.9 6.8 C 129.9 5.9 129.7 5.1 129.3 4.7 C 128.9 4.2 128.4 4 127.8 4 C 127.3 4 126.8 4.2 126.4 4.7 C 126 5.1 125.8 5.8 125.8 6.7 Z M 137.3 10.7 L 137.3 0.2 L 138.7 0.2 L 138.7 9.4 L 143.8 9.4 L 143.8 10.7 L 137.3 10.7 Z M 147.6 9.6 C 147.7 9.6 147.9 9.6 148.1 9.5 C 148.1 9.5 148.3 10.7 148.3 10.7 C 148 10.7 147.6 10.8 147.4 10.8 C 146.9 10.8 146.5 10.7 146.3 10.6 C 146 10.4 145.8 10.2 145.7 10 C 145.6 9.7 145.6 9.2 145.6 8.5 C 145.56 8.45 145.6 4.1 145.6 4.1 L 144.6 4.1 L 144.6 3.1 L 145.6 3.1 L 145.6 1.2 L 146.8 0.4 L 146.8 3.1 L 148.1 3.1 L 148.1 4.1 L 146.8 4.1 C 146.8 4.1 146.85 8.52 146.8 8.5 C 146.8 8.9 146.9 9.1 146.9 9.2 C 147 9.3 147 9.4 147.1 9.5 C 147.2 9.5 147.4 9.6 147.6 9.6 C 147.6 9.6 147.6 9.6 147.6 9.6 Z M 154.3 10.7 C 154.3 10.7 154.34 9.72 154.3 9.7 C 153.9 10.5 153.1 10.8 152.2 10.8 C 151.6 10.8 151 10.7 150.5 10.3 C 150 10 149.6 9.5 149.4 8.9 C 149.1 8.3 148.9 7.7 148.9 6.9 C 148.9 6.1 149.1 5.4 149.3 4.8 C 149.6 4.2 149.9 3.7 150.5 3.4 C 151 3.1 151.5 2.9 152.2 2.9 C 152.6 2.9 153 3 153.4 3.2 C 153.7 3.4 154 3.6 154.3 3.9 C 154.25 3.95 154.3 0.2 154.3 0.2 L 155.5 0.2 L 155.5 10.7 L 154.3 10.7 Z M 150.3 6.9 C 150.3 7.9 150.5 8.6 150.9 9.1 C 151.3 9.5 151.8 9.8 152.3 9.8 C 152.9 9.8 153.4 9.6 153.8 9.1 C 154.2 8.6 154.4 7.9 154.4 7 C 154.4 5.9 154.2 5.2 153.8 4.7 C 153.4 4.2 152.9 4 152.3 4 C 151.7 4 151.2 4.2 150.8 4.7 C 150.5 5.1 150.3 5.9 150.3 6.9 Z M 157.9 10.7 L 157.9 9.2 L 159.4 9.2 L 159.4 10.7 L 157.9 10.7 Z M 172.1 9.4 L 172.1 10.7 C 172.1 10.7 165.19 10.68 165.2 10.7 C 165.2 10.4 165.2 10.1 165.3 9.8 C 165.5 9.3 165.8 8.8 166.2 8.4 C 166.6 7.9 167.1 7.4 167.9 6.8 C 169 5.9 169.8 5.1 170.2 4.6 C 170.6 4 170.8 3.5 170.8 3 C 170.8 2.5 170.6 2.1 170.2 1.7 C 169.9 1.4 169.4 1.2 168.8 1.2 C 168.2 1.2 167.7 1.4 167.3 1.8 C 166.9 2.1 166.8 2.6 166.8 3.3 C 166.8 3.3 165.4 3.2 165.4 3.2 C 165.5 2.2 165.9 1.4 166.5 0.9 C 167 0.4 167.8 0.1 168.8 0.1 C 169.8 0.1 170.6 0.4 171.2 1 C 171.8 1.5 172.1 2.2 172.1 3.1 C 172.1 3.5 172 3.9 171.9 4.3 C 171.7 4.7 171.4 5.1 171 5.6 C 170.6 6 169.9 6.6 169 7.4 C 168.2 8.1 167.7 8.5 167.5 8.7 C 167.3 9 167.1 9.2 167 9.4 C 166.98 9.44 172.1 9.4 172.1 9.4 Z M 174.5 9.8 C 173.9 8.9 173.5 7.5 173.5 5.5 C 173.5 4.3 173.6 3.3 173.9 2.5 C 174.1 1.7 174.5 1.2 175 0.8 C 175.5 0.3 176.2 0.1 176.9 0.1 C 177.5 0.1 178 0.2 178.4 0.5 C 178.8 0.7 179.2 1 179.5 1.5 C 179.7 1.9 180 2.4 180.1 3 C 180.3 3.6 180.4 4.5 180.4 5.5 C 180.4 6.7 180.2 7.7 180 8.5 C 179.7 9.2 179.3 9.8 178.8 10.2 C 178.3 10.7 177.7 10.9 176.9 10.9 C 175.9 10.9 175.1 10.5 174.5 9.8 C 174.5 9.8 174.5 9.8 174.5 9.8 Z M 175.5 2 C 175.1 2.6 174.8 3.8 174.8 5.5 C 174.8 7.2 175 8.4 175.4 8.9 C 175.8 9.5 176.3 9.8 176.9 9.8 C 177.5 9.8 178 9.5 178.4 8.9 C 178.8 8.4 179 7.2 179 5.5 C 179 3.8 178.8 2.6 178.4 2.1 C 178 1.5 177.5 1.2 176.9 1.2 C 176.3 1.2 175.9 1.5 175.5 2 C 175.5 2 175.5 2 175.5 2 Z M 188.4 9.4 L 188.4 10.7 C 188.4 10.7 181.5 10.68 181.5 10.7 C 181.5 10.4 181.5 10.1 181.7 9.8 C 181.8 9.3 182.1 8.8 182.5 8.4 C 182.9 7.9 183.5 7.4 184.2 6.8 C 185.3 5.9 186.1 5.1 186.5 4.6 C 186.9 4 187.1 3.5 187.1 3 C 187.1 2.5 186.9 2.1 186.6 1.7 C 186.2 1.4 185.7 1.2 185.1 1.2 C 184.5 1.2 184 1.4 183.6 1.8 C 183.3 2.1 183.1 2.6 183.1 3.3 C 183.1 3.3 181.7 3.2 181.7 3.2 C 181.8 2.2 182.2 1.4 182.8 0.9 C 183.4 0.4 184.2 0.1 185.2 0.1 C 186.2 0.1 187 0.4 187.5 1 C 188.1 1.5 188.4 2.2 188.4 3.1 C 188.4 3.5 188.3 3.9 188.2 4.3 C 188 4.7 187.7 5.1 187.3 5.6 C 186.9 6 186.3 6.6 185.3 7.4 C 184.6 8.1 184.1 8.5 183.8 8.7 C 183.6 9 183.4 9.2 183.3 9.4 C 183.29 9.44 188.4 9.4 188.4 9.4 Z M 194 10.7 L 194 8.2 L 189.4 8.2 L 189.4 7 L 194.2 0.2 L 195.2 0.2 L 195.2 7 L 196.7 7 L 196.7 8.2 L 195.2 8.2 L 195.2 10.7 L 194 10.7 Z M 194 7 L 194 2.2 L 190.7 7 L 194 7 Z " stroke="none" fill="#000"/>  </g></svg>