<?xml version="1.0" standalone="no"?><!DOCTYPE svg PUBLIC "-//W3C//DTD SVG 1.1//EN" "http://www.w3.org/Graphics/SVG/1.1/DTD/svg11.dtd"><svg xmlns="http://www.w3.org/2000/svg" version="1.1" width="262.3px" height="56.4px" viewBox="0 -9 262.3 56.4" style="top:-9px">  <desc>YouTube</desc>  <defs/>  <g id="Polygon69436">    <path d="M 100.9 0.2 L 95.8 6.2 L 95.8 13.3 L 94.8 13.3 L 94.8 6.2 L 89.7 0.2 L 91 0.2 L 95.3 5.4 L 99.7 0.2 L 100.9 0.2 Z M 107.2 0 C 109.1 0 110.8 0.7 112.1 2 C 113.5 3.3 114.1 4.8 114.1 6.7 C 114.1 8.6 113.5 10.2 112.1 11.5 C 110.8 12.8 109.1 13.4 107.2 13.4 C 105.3 13.4 103.6 12.8 102.3 11.5 C 100.9 10.2 100.3 8.6 100.3 6.7 C 100.3 4.8 100.9 3.3 102.3 2 C 103.6 0.7 105.3 0 107.2 0 Z M 107.2 12.5 C 108.9 12.5 110.2 11.9 111.4 10.8 C 112.5 9.7 113 8.3 113 6.7 C 113 5.1 112.5 3.7 111.4 2.6 C 110.2 1.5 108.9 0.9 107.2 0.9 C 105.6 0.9 104.2 1.5 103.1 2.6 C 101.9 3.7 101.4 5.1 101.4 6.7 C 101.4 8.3 101.9 9.7 103.1 10.8 C 104.2 11.9 105.6 12.5 107.2 12.5 Z M 126.3 0.2 L 127.3 0.2 C 127.3 0.2 127.29 7.31 127.3 7.3 C 127.3 9.3 126.8 10.8 125.8 11.8 C 124.7 12.9 123.4 13.4 121.8 13.4 C 120.2 13.4 118.9 12.9 117.9 11.9 C 116.8 10.8 116.3 9.4 116.3 7.5 C 116.33 7.55 116.3 0.2 116.3 0.2 L 117.4 0.2 C 117.4 0.2 117.36 7.51 117.4 7.5 C 117.4 9.1 117.8 10.3 118.6 11.2 C 119.4 12.1 120.5 12.5 121.8 12.5 C 123.1 12.5 124.2 12.1 125 11.2 C 125.9 10.3 126.3 9 126.3 7.4 C 126.28 7.37 126.3 0.2 126.3 0.2 Z M 139.4 0.2 L 139.4 1 L 134.5 1 L 134.5 13.3 L 133.5 13.3 L 133.5 1 L 128.6 1 L 128.6 0.2 L 139.4 0.2 Z M 150.7 0.2 L 151.7 0.2 C 151.7 0.2 151.7 7.31 151.7 7.3 C 151.7 9.3 151.2 10.8 150.2 11.8 C 149.2 12.9 147.8 13.4 146.2 13.4 C 144.6 13.4 143.3 12.9 142.3 11.9 C 141.3 10.8 140.7 9.4 140.7 7.5 C 140.75 7.55 140.7 0.2 140.7 0.2 L 141.8 0.2 C 141.8 0.2 141.77 7.51 141.8 7.5 C 141.8 9.1 142.2 10.3 143 11.2 C 143.8 12.1 144.9 12.5 146.2 12.5 C 147.5 12.5 148.6 12.1 149.5 11.2 C 150.3 10.3 150.7 9 150.7 7.4 C 150.69 7.37 150.7 0.2 150.7 0.2 Z M 154.5 0.2 C 154.5 0.2 157.19 0.17 157.2 0.2 C 158.6 0.2 159.7 0.5 160.4 1.1 C 161.2 1.7 161.5 2.5 161.5 3.6 C 161.5 4.8 160.9 5.8 159.7 6.5 C 161.7 6.9 162.7 8 162.7 9.8 C 162.7 10.9 162.3 11.7 161.5 12.3 C 160.7 13 159.6 13.3 158.3 13.3 C 158.3 13.27 154.5 13.3 154.5 13.3 L 154.5 0.2 Z M 155.5 1 L 155.5 6.2 C 155.5 6.2 156.88 6.23 156.9 6.2 C 159.3 6.2 160.5 5.4 160.5 3.6 C 160.5 1.9 159.2 1 156.8 1 C 156.84 1.01 155.5 1 155.5 1 Z M 155.5 7.1 L 155.5 12.4 C 155.5 12.4 158.18 12.42 158.2 12.4 C 159.3 12.4 160.2 12.2 160.7 11.7 C 161.3 11.2 161.6 10.6 161.6 9.8 C 161.6 8 160.3 7.1 157.7 7.1 C 157.74 7.09 155.5 7.1 155.5 7.1 Z M 171.8 0.2 L 171.8 1 L 165.7 1 L 165.7 6.3 L 171.6 6.3 L 171.6 7.1 L 165.7 7.1 L 165.7 12.4 L 171.9 12.4 L 171.9 13.3 L 164.7 13.3 L 164.7 0.2 L 171.8 0.2 Z " stroke="none" fill="#ffffff"/>  </g></svg>