<?xml version="1.0" standalone="no"?><!DOCTYPE svg PUBLIC "-//W3C//DTD SVG 1.1//EN" "http://www.w3.org/Graphics/SVG/1.1/DTD/svg11.dtd"><svg xmlns="http://www.w3.org/2000/svg" version="1.1" width="61.4px" height="25.1px" viewBox="0 -4 61.4 25.1" style="top:-4px">  <desc>Join Us</desc>  <defs/>  <g id="Polygon64130">    <path d="M 6.7 8.4 C 6.7 8.4 7.9 8.2 7.9 8.2 C 8 9 8.1 9.5 8.4 9.8 C 8.6 10.1 9 10.3 9.5 10.3 C 9.8 10.3 10.1 10.2 10.4 10 C 10.6 9.9 10.8 9.7 10.9 9.4 C 11 9.1 11.1 8.7 11.1 8.1 C 11.05 8.07 11.1 0.8 11.1 0.8 L 12.4 0.8 C 12.4 0.8 12.44 7.99 12.4 8 C 12.4 8.9 12.3 9.5 12.1 10 C 11.9 10.5 11.6 10.9 11.1 11.1 C 10.7 11.4 10.1 11.5 9.5 11.5 C 8.6 11.5 7.9 11.2 7.4 10.7 C 6.9 10.2 6.7 9.4 6.7 8.4 Z M 14.1 7.5 C 14.1 6.1 14.5 5.1 15.2 4.4 C 15.9 3.8 16.7 3.6 17.6 3.6 C 18.7 3.6 19.5 3.9 20.2 4.6 C 20.9 5.3 21.2 6.2 21.2 7.4 C 21.2 8.4 21 9.2 20.8 9.7 C 20.5 10.3 20 10.7 19.5 11 C 18.9 11.4 18.3 11.5 17.6 11.5 C 16.6 11.5 15.7 11.2 15.1 10.5 C 14.4 9.8 14.1 8.8 14.1 7.5 Z M 15.4 7.5 C 15.4 8.5 15.6 9.2 16 9.7 C 16.5 10.2 17 10.4 17.6 10.4 C 18.3 10.4 18.8 10.2 19.2 9.7 C 19.7 9.2 19.9 8.5 19.9 7.5 C 19.9 6.5 19.7 5.8 19.2 5.3 C 18.8 4.9 18.3 4.6 17.6 4.6 C 17 4.6 16.5 4.9 16 5.3 C 15.6 5.8 15.4 6.6 15.4 7.5 Z M 22.7 2.3 L 22.7 0.8 L 24 0.8 L 24 2.3 L 22.7 2.3 Z M 22.7 11.3 L 22.7 3.7 L 24 3.7 L 24 11.3 L 22.7 11.3 Z M 26 11.3 L 26 3.7 L 27.1 3.7 C 27.1 3.7 27.12 4.81 27.1 4.8 C 27.7 4 28.5 3.6 29.5 3.6 C 30 3.6 30.4 3.6 30.8 3.8 C 31.2 4 31.5 4.2 31.7 4.5 C 31.9 4.7 32 5 32.1 5.4 C 32.1 5.6 32.1 6.1 32.1 6.7 C 32.14 6.66 32.1 11.3 32.1 11.3 L 30.9 11.3 C 30.9 11.3 30.86 6.71 30.9 6.7 C 30.9 6.2 30.8 5.8 30.7 5.5 C 30.6 5.3 30.4 5.1 30.2 4.9 C 29.9 4.8 29.6 4.7 29.3 4.7 C 28.7 4.7 28.3 4.8 27.9 5.2 C 27.5 5.5 27.3 6.2 27.3 7.2 C 27.25 7.18 27.3 11.3 27.3 11.3 L 26 11.3 Z M 45.3 0.8 L 46.6 0.8 C 46.6 0.8 46.64 6.9 46.6 6.9 C 46.6 8 46.5 8.8 46.3 9.4 C 46 10 45.6 10.5 45 10.9 C 44.4 11.3 43.5 11.5 42.5 11.5 C 41.6 11.5 40.7 11.3 40.1 11 C 39.5 10.7 39.1 10.2 38.8 9.5 C 38.5 8.9 38.4 8 38.4 6.9 C 38.38 6.9 38.4 0.8 38.4 0.8 L 39.8 0.8 C 39.8 0.8 39.77 6.89 39.8 6.9 C 39.8 7.8 39.9 8.5 40 8.9 C 40.2 9.3 40.5 9.7 40.9 9.9 C 41.3 10.1 41.8 10.3 42.4 10.3 C 43.4 10.3 44.2 10 44.6 9.6 C 45 9.1 45.3 8.2 45.3 6.9 C 45.25 6.89 45.3 0.8 45.3 0.8 Z M 48.3 9.1 C 48.3 9.1 49.5 8.9 49.5 8.9 C 49.6 9.4 49.8 9.8 50.1 10 C 50.5 10.3 50.9 10.4 51.5 10.4 C 52.1 10.4 52.5 10.3 52.8 10.1 C 53.1 9.8 53.3 9.6 53.3 9.2 C 53.3 8.9 53.1 8.7 52.9 8.5 C 52.7 8.4 52.3 8.3 51.6 8.1 C 50.6 7.9 50 7.7 49.6 7.5 C 49.2 7.3 49 7.1 48.8 6.8 C 48.6 6.5 48.5 6.1 48.5 5.7 C 48.5 5.4 48.6 5.1 48.7 4.8 C 48.9 4.5 49.1 4.3 49.4 4.1 C 49.6 3.9 49.8 3.8 50.2 3.7 C 50.5 3.6 50.9 3.6 51.3 3.6 C 51.9 3.6 52.4 3.6 52.9 3.8 C 53.3 4 53.6 4.2 53.9 4.5 C 54.1 4.8 54.2 5.2 54.3 5.7 C 54.3 5.7 53 5.9 53 5.9 C 53 5.5 52.8 5.2 52.5 4.9 C 52.3 4.7 51.9 4.6 51.4 4.6 C 50.8 4.6 50.4 4.7 50.1 4.9 C 49.9 5.1 49.7 5.3 49.7 5.6 C 49.7 5.8 49.8 5.9 49.9 6 C 50 6.2 50.2 6.3 50.4 6.4 C 50.5 6.4 50.9 6.5 51.5 6.7 C 52.4 7 53.1 7.2 53.4 7.3 C 53.8 7.5 54.1 7.7 54.3 8 C 54.5 8.3 54.6 8.7 54.6 9.1 C 54.6 9.5 54.5 9.9 54.2 10.3 C 54 10.7 53.6 11 53.1 11.2 C 52.7 11.4 52.1 11.5 51.5 11.5 C 50.5 11.5 49.8 11.3 49.3 10.9 C 48.7 10.5 48.4 9.9 48.3 9.1 Z " stroke="none" fill="#ffffff"/>  </g></svg>