<?xml version="1.0" standalone="no"?><!DOCTYPE svg PUBLIC "-//W3C//DTD SVG 1.1//EN" "http://www.w3.org/Graphics/SVG/1.1/DTD/svg11.dtd"><svg xmlns="http://www.w3.org/2000/svg" version="1.1" width="263.3px" height="97.5px" viewBox="0 -1 263.3 97.5" style="top:-1px">  <desc>FREELANCE TALENT</desc>  <defs/>  <g id="Polygon65093">    <path d="M 104 51.3 L 104 52.4 L 97.9 52.4 L 97.9 67.7 L 96.6 67.7 L 96.6 52.4 L 90.4 52.4 L 90.4 51.3 L 104 51.3 Z M 110.1 51.2 L 117.6 67.7 L 116.3 67.7 L 113.7 62 L 105.7 62 L 103.1 67.7 L 101.8 67.7 L 109.4 51.2 L 110.1 51.2 Z M 113.2 61 L 109.7 53.3 L 106.2 61 L 113.2 61 Z M 120.9 51.3 L 120.9 66.6 L 129 66.6 L 129 67.7 L 119.6 67.7 L 119.6 51.3 L 120.9 51.3 Z M 139.8 51.3 L 139.8 52.4 L 132.2 52.4 L 132.2 58.9 L 139.6 58.9 L 139.6 60 L 132.2 60 L 132.2 66.6 L 140 66.6 L 140 67.7 L 130.9 67.7 L 130.9 51.3 L 139.8 51.3 Z M 157.4 51.3 L 157.4 67.7 L 156.3 67.7 L 143.9 53.4 L 143.9 67.7 L 142.6 67.7 L 142.6 51.3 L 143.7 51.3 L 156.1 65.6 L 156.1 51.3 L 157.4 51.3 Z M 172.9 51.3 L 172.9 52.4 L 166.7 52.4 L 166.7 67.7 L 165.5 67.7 L 165.5 52.4 L 159.3 52.4 L 159.3 51.3 L 172.9 51.3 Z " stroke="none" fill="#ffffff"/>  </g>  <g id="Polygon65092">    <path d="M 81.2 22.5 L 81.2 23.6 L 74 23.6 L 74 29.8 L 80.5 29.8 L 80.5 30.9 L 74 30.9 L 74 38.9 L 72.8 38.9 L 72.8 22.5 L 81.2 22.5 Z M 83.3 22.5 C 83.3 22.5 87.48 22.52 87.5 22.5 C 89.2 22.5 90.6 22.9 91.5 23.7 C 92.4 24.4 92.9 25.5 92.9 26.8 C 92.9 28.6 91.9 30 89.8 30.7 C 90.3 31 91.1 31.8 92 33.2 C 91.97 33.23 95.7 38.9 95.7 38.9 L 94.2 38.9 C 94.2 38.9 91.32 34.4 91.3 34.4 C 90.4 32.9 89.6 32 89.1 31.6 C 88.6 31.2 87.8 31 86.8 31 C 86.77 31.04 84.6 31 84.6 31 L 84.6 38.9 L 83.3 38.9 L 83.3 22.5 Z M 84.6 23.6 L 84.6 30 C 84.6 30 87.27 29.98 87.3 30 C 88.7 30 89.7 29.7 90.4 29.1 C 91.2 28.6 91.5 27.8 91.5 26.8 C 91.5 25.8 91.2 25 90.4 24.4 C 89.7 23.9 88.6 23.6 87.2 23.6 C 87.22 23.57 84.6 23.6 84.6 23.6 Z M 106 22.5 L 106 23.6 L 98.3 23.6 L 98.3 30.1 L 105.8 30.1 L 105.8 31.2 L 98.3 31.2 L 98.3 37.8 L 106.2 37.8 L 106.2 38.9 L 97.1 38.9 L 97.1 22.5 L 106 22.5 Z M 117.8 22.5 L 117.8 23.6 L 110.1 23.6 L 110.1 30.1 L 117.6 30.1 L 117.6 31.2 L 110.1 31.2 L 110.1 37.8 L 117.9 37.8 L 117.9 38.9 L 108.8 38.9 L 108.8 22.5 L 117.8 22.5 Z M 121.8 22.5 L 121.8 37.8 L 129.9 37.8 L 129.9 38.9 L 120.6 38.9 L 120.6 22.5 L 121.8 22.5 Z M 138.3 22.4 L 145.9 38.9 L 144.5 38.9 L 141.9 33.2 L 133.9 33.2 L 131.4 38.9 L 130 38.9 L 137.6 22.4 L 138.3 22.4 Z M 141.5 32.2 L 137.9 24.5 L 134.4 32.2 L 141.5 32.2 Z M 162.6 22.5 L 162.6 38.9 L 161.5 38.9 L 149.1 24.6 L 149.1 38.9 L 147.8 38.9 L 147.8 22.5 L 148.9 22.5 L 161.3 36.8 L 161.3 22.5 L 162.6 22.5 Z M 174.2 22.3 C 176.1 22.3 178 22.8 180 23.7 C 180 23.7 180 25.1 180 25.1 C 178 24 176 23.5 174.1 23.5 C 172.1 23.5 170.4 24.2 169 25.6 C 167.7 26.9 167 28.7 167 30.7 C 167 32.8 167.7 34.6 169.1 35.9 C 170.4 37.3 172.2 37.9 174.3 37.9 C 176.1 37.9 178 37.4 180.1 36.3 C 180.1 36.3 180.1 37.6 180.1 37.6 C 178.2 38.6 176.3 39.1 174.3 39.1 C 171.8 39.1 169.8 38.3 168.1 36.7 C 166.5 35.1 165.6 33.1 165.6 30.7 C 165.6 28.3 166.5 26.3 168.2 24.7 C 169.9 23.1 171.9 22.3 174.2 22.3 C 174.2 22.3 174.2 22.3 174.2 22.3 Z M 191.5 22.5 L 191.5 23.6 L 183.9 23.6 L 183.9 30.1 L 191.3 30.1 L 191.3 31.2 L 183.9 31.2 L 183.9 37.8 L 191.7 37.8 L 191.7 38.9 L 182.6 38.9 L 182.6 22.5 L 191.5 22.5 Z " stroke="none" fill="#ffffff"/>  </g></svg>