<?xml version="1.0" standalone="no"?><!DOCTYPE svg PUBLIC "-//W3C//DTD SVG 1.1//EN" "http://www.w3.org/Graphics/SVG/1.1/DTD/svg11.dtd"><svg xmlns="http://www.w3.org/2000/svg" version="1.1" width="40.1px" height="20.5px" viewBox="0 -4 40.1 20.5" style="top:-4px">  <desc>Home</desc>  <defs/>  <g id="Polygon66777">    <path d="M 5.4 9.1 L 5.4 0.7 L 6.5 0.7 L 6.5 4.1 L 10.8 4.1 L 10.8 0.7 L 11.9 0.7 L 11.9 9.1 L 10.8 9.1 L 10.8 5.1 L 6.5 5.1 L 6.5 9.1 L 5.4 9.1 Z M 13.3 6 C 13.3 4.9 13.6 4.1 14.2 3.5 C 14.7 3.1 15.4 2.8 16.1 2.8 C 17 2.8 17.7 3.1 18.2 3.7 C 18.7 4.2 19 5 19 5.9 C 19 6.7 18.9 7.3 18.6 7.8 C 18.4 8.2 18 8.6 17.6 8.8 C 17.2 9.1 16.7 9.2 16.1 9.2 C 15.3 9.2 14.6 8.9 14.1 8.4 C 13.5 7.8 13.3 7.1 13.3 6 Z M 14.3 6 C 14.3 6.8 14.5 7.4 14.8 7.8 C 15.2 8.2 15.6 8.4 16.1 8.4 C 16.6 8.4 17.1 8.2 17.4 7.8 C 17.7 7.4 17.9 6.8 17.9 6 C 17.9 5.2 17.7 4.7 17.4 4.3 C 17.1 3.9 16.6 3.7 16.1 3.7 C 15.6 3.7 15.2 3.9 14.8 4.3 C 14.5 4.7 14.3 5.2 14.3 6 Z M 20.2 9.1 L 20.2 3 L 21.1 3 C 21.1 3 21.11 3.84 21.1 3.8 C 21.3 3.5 21.6 3.3 21.9 3.1 C 22.2 2.9 22.5 2.8 23 2.8 C 23.4 2.8 23.8 2.9 24.1 3.1 C 24.4 3.3 24.6 3.6 24.7 3.9 C 25.2 3.2 25.8 2.8 26.6 2.8 C 27.2 2.8 27.6 3 27.9 3.3 C 28.3 3.7 28.4 4.2 28.4 4.9 C 28.43 4.89 28.4 9.1 28.4 9.1 L 27.4 9.1 C 27.4 9.1 27.41 5.23 27.4 5.2 C 27.4 4.8 27.4 4.5 27.3 4.3 C 27.2 4.2 27.1 4 26.9 3.9 C 26.8 3.8 26.6 3.7 26.3 3.7 C 25.9 3.7 25.5 3.9 25.3 4.2 C 25 4.4 24.8 4.9 24.8 5.5 C 24.83 5.53 24.8 9.1 24.8 9.1 L 23.8 9.1 C 23.8 9.1 23.8 5.11 23.8 5.1 C 23.8 4.7 23.7 4.3 23.6 4.1 C 23.4 3.9 23.1 3.7 22.7 3.7 C 22.4 3.7 22.2 3.8 21.9 4 C 21.7 4.1 21.5 4.3 21.4 4.6 C 21.3 4.9 21.2 5.4 21.2 5.9 C 21.22 5.91 21.2 9.1 21.2 9.1 L 20.2 9.1 Z M 34.1 7.1 C 34.1 7.1 35.2 7.2 35.2 7.2 C 35 7.9 34.7 8.3 34.3 8.7 C 33.8 9 33.2 9.2 32.5 9.2 C 31.6 9.2 30.9 8.9 30.4 8.4 C 29.9 7.8 29.6 7.1 29.6 6.1 C 29.6 5.1 29.9 4.3 30.4 3.7 C 30.9 3.1 31.6 2.8 32.5 2.8 C 33.3 2.8 33.9 3.1 34.5 3.7 C 35 4.2 35.2 5 35.2 6 C 35.2 6.1 35.2 6.2 35.2 6.3 C 35.2 6.3 30.7 6.3 30.7 6.3 C 30.7 7 30.9 7.5 31.3 7.8 C 31.6 8.2 32 8.4 32.5 8.4 C 32.9 8.4 33.2 8.3 33.5 8.1 C 33.8 7.9 34 7.5 34.1 7.1 Z M 30.7 5.4 C 30.7 5.4 34.1 5.4 34.1 5.4 C 34.1 4.9 34 4.5 33.7 4.3 C 33.4 3.9 33 3.7 32.5 3.7 C 32 3.7 31.6 3.9 31.3 4.2 C 31 4.5 30.8 4.9 30.7 5.4 Z " stroke="none" fill="#ffffff"/>  </g></svg>