<?xml version="1.0" standalone="no"?><!DOCTYPE svg PUBLIC "-//W3C//DTD SVG 1.1//EN" "http://www.w3.org/Graphics/SVG/1.1/DTD/svg11.dtd"><svg xmlns="http://www.w3.org/2000/svg" version="1.1" width="263.3px" height="97.5px" viewBox="0 -1 263.3 97.5" style="top:-1px">  <desc>Managed Services</desc>  <defs/>  <g id="Polygon65591">    <path d="M 90.2 51.1 C 91.5 51.1 92.7 51.5 94 52.1 C 94 52.1 94 53.5 94 53.5 C 92.5 52.7 91.3 52.3 90.3 52.3 C 89.3 52.3 88.5 52.6 87.8 53.2 C 87.2 53.8 86.8 54.5 86.8 55.4 C 86.8 56 87 56.6 87.4 57.1 C 87.8 57.6 88.6 58.1 89.9 58.6 C 91.1 59 92 59.4 92.6 59.7 C 93.2 60.1 93.7 60.5 94 61.1 C 94.4 61.7 94.6 62.5 94.6 63.4 C 94.6 64.7 94.2 65.7 93.3 66.6 C 92.3 67.5 91.2 67.9 89.9 67.9 C 88.5 67.9 87.1 67.4 85.7 66.5 C 85.7 66.5 85.7 65 85.7 65 C 87.3 66.1 88.7 66.7 89.8 66.7 C 90.8 66.7 91.6 66.4 92.3 65.8 C 92.9 65.2 93.3 64.4 93.3 63.5 C 93.3 62.8 93.1 62.1 92.7 61.6 C 92.2 61 91.4 60.5 90.1 60 C 88.9 59.5 88 59.1 87.4 58.9 C 86.9 58.6 86.4 58.1 86 57.6 C 85.7 57 85.5 56.3 85.5 55.5 C 85.5 54.3 85.9 53.2 86.9 52.4 C 87.8 51.5 88.9 51.1 90.2 51.1 C 90.2 51.1 90.2 51.1 90.2 51.1 Z M 106.5 51.3 L 106.5 52.4 L 98.8 52.4 L 98.8 58.9 L 106.3 58.9 L 106.3 60 L 98.8 60 L 98.8 66.6 L 106.7 66.6 L 106.7 67.7 L 97.6 67.7 L 97.6 51.3 L 106.5 51.3 Z M 109.3 51.3 C 109.3 51.3 113.49 51.32 113.5 51.3 C 115.2 51.3 116.6 51.7 117.5 52.5 C 118.5 53.2 118.9 54.3 118.9 55.6 C 118.9 57.4 117.9 58.8 115.8 59.5 C 116.3 59.8 117.1 60.6 118 62 C 117.98 62.03 121.7 67.7 121.7 67.7 L 120.2 67.7 C 120.2 67.7 117.33 63.2 117.3 63.2 C 116.4 61.7 115.6 60.8 115.1 60.4 C 114.6 60 113.8 59.8 112.8 59.8 C 112.78 59.84 110.6 59.8 110.6 59.8 L 110.6 67.7 L 109.3 67.7 L 109.3 51.3 Z M 110.6 52.4 L 110.6 58.8 C 110.6 58.8 113.28 58.78 113.3 58.8 C 114.7 58.8 115.7 58.5 116.4 57.9 C 117.2 57.4 117.5 56.6 117.5 55.6 C 117.5 54.6 117.2 53.8 116.4 53.2 C 115.7 52.7 114.6 52.4 113.2 52.4 C 113.23 52.37 110.6 52.4 110.6 52.4 Z M 134.6 51.3 L 127.8 67.9 L 127.4 67.9 L 120.5 51.3 L 121.8 51.3 L 127.6 65.2 L 133.4 51.3 L 134.6 51.3 Z M 137.8 51.3 L 137.8 67.7 L 136.6 67.7 L 136.6 51.3 L 137.8 51.3 Z M 149.5 51.1 C 151.3 51.1 153.2 51.6 155.2 52.5 C 155.2 52.5 155.2 53.9 155.2 53.9 C 153.2 52.8 151.3 52.3 149.4 52.3 C 147.4 52.3 145.7 53 144.3 54.4 C 142.9 55.7 142.2 57.5 142.2 59.5 C 142.2 61.6 142.9 63.4 144.3 64.7 C 145.7 66.1 147.4 66.7 149.6 66.7 C 151.3 66.7 153.3 66.2 155.4 65.1 C 155.4 65.1 155.4 66.4 155.4 66.4 C 153.4 67.4 151.5 67.9 149.6 67.9 C 147.1 67.9 145 67.1 143.4 65.5 C 141.7 63.9 140.9 61.9 140.9 59.5 C 140.9 57.1 141.7 55.1 143.4 53.5 C 145.1 51.9 147.1 51.1 149.5 51.1 C 149.5 51.1 149.5 51.1 149.5 51.1 Z M 166.8 51.3 L 166.8 52.4 L 159.1 52.4 L 159.1 58.9 L 166.6 58.9 L 166.6 60 L 159.1 60 L 159.1 66.6 L 167 66.6 L 167 67.7 L 157.9 67.7 L 157.9 51.3 L 166.8 51.3 Z M 173.5 51.1 C 174.8 51.1 176 51.5 177.3 52.1 C 177.3 52.1 177.3 53.5 177.3 53.5 C 175.9 52.7 174.7 52.3 173.6 52.3 C 172.6 52.3 171.8 52.6 171.2 53.2 C 170.5 53.8 170.2 54.5 170.2 55.4 C 170.2 56 170.4 56.6 170.8 57.1 C 171.2 57.6 172 58.1 173.2 58.6 C 174.5 59 175.4 59.4 175.9 59.7 C 176.5 60.1 177 60.5 177.4 61.1 C 177.8 61.7 178 62.5 178 63.4 C 178 64.7 177.5 65.7 176.6 66.6 C 175.7 67.5 174.5 67.9 173.2 67.9 C 171.9 67.9 170.5 67.4 169 66.5 C 169 66.5 169 65 169 65 C 170.6 66.1 172 66.7 173.2 66.7 C 174.1 66.7 174.9 66.4 175.6 65.8 C 176.3 65.2 176.6 64.4 176.6 63.5 C 176.6 62.8 176.4 62.1 176 61.6 C 175.6 61 174.7 60.5 173.5 60 C 172.2 59.5 171.3 59.1 170.8 58.9 C 170.2 58.6 169.8 58.1 169.4 57.6 C 169 57 168.8 56.3 168.8 55.5 C 168.8 54.3 169.3 53.2 170.2 52.4 C 171.1 51.5 172.2 51.1 173.5 51.1 C 173.5 51.1 173.5 51.1 173.5 51.1 Z " stroke="none" fill="#ffffff"/>  </g>  <g id="Polygon65590">    <path d="M 83.6 30.1 L 89.8 22.5 L 91.1 22.5 L 91.1 38.9 L 89.8 38.9 L 89.8 24.4 L 83.6 32 L 77.4 24.4 L 77.4 38.9 L 76.1 38.9 L 76.1 22.5 L 77.4 22.5 L 83.6 30.1 Z M 101.3 22.4 L 108.9 38.9 L 107.6 38.9 L 105 33.2 L 97 33.2 L 94.4 38.9 L 93.1 38.9 L 100.6 22.4 L 101.3 22.4 Z M 104.5 32.2 L 101 24.5 L 97.5 32.2 L 104.5 32.2 Z M 125.6 22.5 L 125.6 38.9 L 124.6 38.9 L 112.1 24.6 L 112.1 38.9 L 110.9 38.9 L 110.9 22.5 L 111.9 22.5 L 124.3 36.8 L 124.3 22.5 L 125.6 22.5 Z M 135.8 22.4 L 143.4 38.9 L 142.1 38.9 L 139.5 33.2 L 131.5 33.2 L 128.9 38.9 L 127.6 38.9 L 135.2 22.4 L 135.8 22.4 Z M 139 32.2 L 135.5 24.5 L 132 32.2 L 139 32.2 Z M 152.3 22.3 C 154 22.3 155.9 22.8 157.9 23.7 C 157.9 23.7 157.9 25.1 157.9 25.1 C 156 24 154 23.5 152.1 23.5 C 150 23.5 148.3 24.2 146.9 25.5 C 145.6 26.9 144.9 28.6 144.9 30.7 C 144.9 32.8 145.5 34.5 146.9 35.9 C 148.3 37.2 150.1 37.9 152.4 37.9 C 154.1 37.9 155.6 37.6 156.9 36.9 C 156.94 36.92 156.9 32.5 156.9 32.5 L 153.5 32.5 L 153.5 31.4 L 158.2 31.4 C 158.2 31.4 158.22 37.72 158.2 37.7 C 156.3 38.6 154.3 39.1 152.4 39.1 C 149.9 39.1 147.7 38.3 146 36.7 C 144.3 35.1 143.5 33.1 143.5 30.7 C 143.5 28.3 144.3 26.3 146 24.7 C 147.7 23.1 149.8 22.3 152.3 22.3 C 152.3 22.3 152.3 22.3 152.3 22.3 Z M 170.4 22.5 L 170.4 23.6 L 162.8 23.6 L 162.8 30.1 L 170.2 30.1 L 170.2 31.2 L 162.8 31.2 L 162.8 37.8 L 170.6 37.8 L 170.6 38.9 L 161.5 38.9 L 161.5 22.5 L 170.4 22.5 Z M 173.2 22.5 C 173.2 22.5 178.96 22.52 179 22.5 C 181.9 22.5 184.1 23.3 185.6 24.8 C 187.1 26.3 187.9 28.3 187.9 30.7 C 187.9 33.1 187.1 35 185.6 36.6 C 184.1 38.1 182 38.9 179.2 38.9 C 179.18 38.89 173.2 38.9 173.2 38.9 L 173.2 22.5 Z M 174.5 23.6 L 174.5 37.8 C 174.5 37.8 179.11 37.84 179.1 37.8 C 181.2 37.8 183 37.2 184.4 35.9 C 185.8 34.6 186.5 32.9 186.5 30.7 C 186.5 28.6 185.8 26.9 184.4 25.6 C 183 24.2 181.2 23.6 179 23.6 C 179.03 23.57 174.5 23.6 174.5 23.6 Z " stroke="none" fill="#ffffff"/>  </g></svg>