<?xml version="1.0" standalone="no"?><!DOCTYPE svg PUBLIC "-//W3C//DTD SVG 1.1//EN" "http://www.w3.org/Graphics/SVG/1.1/DTD/svg11.dtd"><svg xmlns="http://www.w3.org/2000/svg" version="1.1" width="639px" height="106.8px" viewBox="0 -1 639 106.8" style="top:-1px">  <desc>Providing training,</desc>  <defs/>  <g id="Polygon62534">    <path d="M 4.7 25.5 C 4.7 25.5 15.97 25.53 16 25.5 C 20.3 25.5 23.6 26.5 25.9 28.4 C 28.2 30.4 29.3 33 29.3 36.3 C 29.3 39.7 28.2 42.4 25.9 44.4 C 23.5 46.3 20.1 47.3 15.7 47.3 C 15.67 47.32 7.9 47.3 7.9 47.3 L 7.9 66.5 L 4.7 66.5 L 4.7 25.5 Z M 7.9 28.2 L 7.9 44.7 C 7.9 44.7 15.47 44.69 15.5 44.7 C 18.9 44.7 21.5 44 23.3 42.5 C 25 41.1 25.9 39 25.9 36.4 C 25.9 33.9 25.1 31.9 23.3 30.4 C 21.6 28.9 19.1 28.2 15.8 28.2 C 15.85 28.16 7.9 28.2 7.9 28.2 Z M 35.3 25.5 C 35.3 25.5 45.82 25.53 45.8 25.5 C 50.2 25.5 53.6 26.5 55.9 28.4 C 58.2 30.3 59.4 32.9 59.4 36.1 C 59.4 40.8 56.8 44.2 51.6 46.1 C 52.9 46.7 54.8 48.8 57 52.3 C 57.04 52.3 66.3 66.5 66.3 66.5 L 62.6 66.5 C 62.6 66.5 55.42 55.24 55.4 55.2 C 53 51.5 51.2 49.1 49.9 48.2 C 48.5 47.3 46.6 46.8 44 46.8 C 44.03 46.83 38.5 46.8 38.5 46.8 L 38.5 66.5 L 35.3 66.5 L 35.3 25.5 Z M 38.5 28.2 L 38.5 44.2 C 38.5 44.2 45.29 44.19 45.3 44.2 C 48.8 44.2 51.4 43.5 53.2 42.1 C 55 40.7 56 38.7 56 36.2 C 56 33.6 55 31.7 53.2 30.3 C 51.3 28.9 48.7 28.2 45.2 28.2 C 45.18 28.16 38.5 28.2 38.5 28.2 Z M 88.7 25 C 94.8 25 99.9 27 104.1 31.1 C 108.3 35.2 110.4 40.1 110.4 46 C 110.4 51.8 108.3 56.8 104.1 60.9 C 99.9 64.9 94.8 67 88.7 67 C 82.7 67 77.6 64.9 73.4 60.9 C 69.2 56.8 67.1 51.8 67.1 46 C 67.1 40.1 69.2 35.2 73.4 31.1 C 77.6 27 82.7 25 88.7 25 Z M 88.9 64.1 C 94 64.1 98.3 62.3 101.8 58.8 C 105.3 55.3 107 51.1 107 46 C 107 40.9 105.3 36.6 101.8 33.2 C 98.3 29.7 94 27.9 88.9 27.9 C 83.7 27.9 79.4 29.7 75.9 33.2 C 72.3 36.6 70.5 40.9 70.5 46 C 70.5 51.1 72.3 55.3 75.9 58.8 C 79.4 62.3 83.7 64.1 88.9 64.1 Z M 146.5 25.5 L 129.4 66.9 L 128.5 66.9 L 111.2 25.5 L 114.4 25.5 L 129 60.2 L 143.4 25.5 L 146.5 25.5 Z M 154.6 25.5 L 154.6 66.5 L 151.4 66.5 L 151.4 25.5 L 154.6 25.5 Z M 163.9 25.5 C 163.9 25.5 178.27 25.53 178.3 25.5 C 185.5 25.5 191 27.4 194.9 31.2 C 198.7 35 200.6 40 200.6 46 C 200.6 51.9 198.7 56.8 194.9 60.7 C 191.1 64.5 185.8 66.5 178.8 66.5 C 178.83 66.46 163.9 66.5 163.9 66.5 L 163.9 25.5 Z M 167.1 28.2 L 167.1 63.8 C 167.1 63.8 178.65 63.82 178.7 63.8 C 183.9 63.8 188.4 62.2 191.9 58.9 C 195.4 55.7 197.2 51.4 197.2 46 C 197.2 40.8 195.4 36.5 192 33.1 C 188.5 29.8 184 28.2 178.4 28.2 C 178.45 28.16 167.1 28.2 167.1 28.2 Z M 211.5 25.5 L 211.5 66.5 L 208.3 66.5 L 208.3 25.5 L 211.5 25.5 Z M 257.7 25.5 L 257.7 66.5 L 255.1 66.5 L 223.9 30.7 L 223.9 66.5 L 220.8 66.5 L 220.8 25.5 L 223.5 25.5 L 254.5 61.3 L 254.5 25.5 L 257.7 25.5 Z M 287.3 25 C 291.6 25 296.3 26.2 301.3 28.5 C 301.3 28.5 301.3 32.1 301.3 32.1 C 296.5 29.3 291.7 27.9 286.8 27.9 C 281.7 27.9 277.4 29.6 273.9 33.1 C 270.5 36.5 268.8 40.8 268.8 46 C 268.8 51.2 270.5 55.5 273.9 58.9 C 277.3 62.3 281.9 64.1 287.7 64.1 C 291.9 64.1 295.7 63.2 298.9 61.5 C 298.95 61.53 298.9 50.5 298.9 50.5 L 290.3 50.5 L 290.3 47.9 L 302.1 47.9 C 302.1 47.9 302.14 63.53 302.1 63.5 C 297.3 65.8 292.5 67 287.6 67 C 281.3 67 276 65 271.7 60.9 C 267.5 56.9 265.3 51.9 265.3 45.9 C 265.3 39.9 267.4 34.9 271.6 31 C 275.8 27 281 25 287.3 25 C 287.3 25 287.3 25 287.3 25 Z M 347.9 25.5 L 347.9 28.2 L 332.5 28.2 L 332.5 66.5 L 329.4 66.5 L 329.4 28.2 L 314 28.2 L 314 25.5 L 347.9 25.5 Z M 352.9 25.5 C 352.9 25.5 363.4 25.53 363.4 25.5 C 367.8 25.5 371.2 26.5 373.5 28.4 C 375.8 30.3 377 32.9 377 36.1 C 377 40.8 374.4 44.2 369.2 46.1 C 370.5 46.7 372.3 48.8 374.6 52.3 C 374.62 52.3 383.9 66.5 383.9 66.5 L 380.1 66.5 C 380.1 66.5 373 55.24 373 55.2 C 370.6 51.5 368.8 49.1 367.4 48.2 C 366.1 47.3 364.2 46.8 361.6 46.8 C 361.61 46.83 356.1 46.8 356.1 46.8 L 356.1 66.5 L 352.9 66.5 L 352.9 25.5 Z M 356.1 28.2 L 356.1 44.2 C 356.1 44.2 362.87 44.19 362.9 44.2 C 366.3 44.2 369 43.5 370.8 42.1 C 372.6 40.7 373.5 38.7 373.5 36.2 C 373.5 33.6 372.6 31.7 370.8 30.3 C 368.9 28.9 366.2 28.2 362.8 28.2 C 362.75 28.16 356.1 28.2 356.1 28.2 Z M 403.5 25.2 L 422.4 66.5 L 419.1 66.5 L 412.6 52.3 L 392.6 52.3 L 386.1 66.5 L 382.8 66.5 L 401.7 25.2 L 403.5 25.2 Z M 411.4 49.7 L 402.6 30.4 L 393.8 49.7 L 411.4 49.7 Z M 430.4 25.5 L 430.4 66.5 L 427.3 66.5 L 427.3 25.5 L 430.4 25.5 Z M 476.6 25.5 L 476.6 66.5 L 474 66.5 L 442.9 30.7 L 442.9 66.5 L 439.7 66.5 L 439.7 25.5 L 442.4 25.5 L 473.5 61.3 L 473.5 25.5 L 476.6 25.5 Z M 489.2 25.5 L 489.2 66.5 L 486 66.5 L 486 25.5 L 489.2 25.5 Z M 535.4 25.5 L 535.4 66.5 L 532.8 66.5 L 501.7 30.7 L 501.7 66.5 L 498.5 66.5 L 498.5 25.5 L 501.2 25.5 L 532.2 61.3 L 532.2 25.5 L 535.4 25.5 Z M 565 25 C 569.3 25 574 26.2 579.1 28.5 C 579.1 28.5 579.1 32.1 579.1 32.1 C 574.2 29.3 569.4 27.9 564.6 27.9 C 559.4 27.9 555.1 29.6 551.6 33.1 C 548.2 36.5 546.5 40.8 546.5 46 C 546.5 51.2 548.2 55.5 551.6 58.9 C 555 62.3 559.6 64.1 565.4 64.1 C 569.6 64.1 573.4 63.2 576.7 61.5 C 576.65 61.53 576.7 50.5 576.7 50.5 L 568 50.5 L 568 47.9 L 579.8 47.9 C 579.8 47.9 579.84 63.53 579.8 63.5 C 575 65.8 570.2 67 565.3 67 C 559 67 553.7 65 549.4 60.9 C 545.2 56.9 543 51.9 543 45.9 C 543 39.9 545.1 34.9 549.3 31 C 553.5 27 558.7 25 565 25 C 565 25 565 25 565 25 Z M 590.5 60.6 C 590.5 60.6 590.48 65.2 590.5 65.2 C 590.5 68.7 589.2 71.5 586.6 73.5 C 586.6 73.5 586.6 71.4 586.6 71.4 C 587.4 70.2 587.8 68.6 587.8 66.5 C 587.84 66.46 586.6 66.5 586.6 66.5 L 586.6 60.6 L 590.5 60.6 Z " stroke="none" fill="#000"/>  </g></svg>