<?xml version="1.0" standalone="no"?><!DOCTYPE svg PUBLIC "-//W3C//DTD SVG 1.1//EN" "http://www.w3.org/Graphics/SVG/1.1/DTD/svg11.dtd"><svg xmlns="http://www.w3.org/2000/svg" version="1.1" width="328px" height="72.1px" viewBox="0 -11 328 72.1" style="top:-11px">  <desc>YouTube Visit Our YouTube channel.</desc>  <defs/>  <g id="Polygon66238">    <path d="M 79.6 51.8 L 75.5 41.3 L 77 41.3 C 77 41.3 79.74 48.91 79.7 48.9 C 80 49.5 80.1 50.1 80.3 50.6 C 80.5 50.1 80.6 49.5 80.9 48.9 C 80.86 48.91 83.7 41.3 83.7 41.3 L 85.1 41.3 L 81 51.8 L 79.6 51.8 Z M 85.9 42.8 L 85.9 41.3 L 87.2 41.3 L 87.2 42.8 L 85.9 42.8 Z M 85.9 51.8 L 85.9 44.2 L 87.2 44.2 L 87.2 51.8 L 85.9 51.8 Z M 88.7 49.5 C 88.7 49.5 89.9 49.3 89.9 49.3 C 90 49.8 90.2 50.2 90.5 50.5 C 90.9 50.8 91.3 50.9 91.9 50.9 C 92.5 50.9 92.9 50.8 93.2 50.5 C 93.5 50.3 93.7 50 93.7 49.7 C 93.7 49.4 93.5 49.2 93.3 49 C 93.1 48.9 92.7 48.7 92 48.6 C 91 48.3 90.4 48.1 90 47.9 C 89.6 47.8 89.4 47.5 89.2 47.2 C 89 46.9 88.9 46.6 88.9 46.2 C 88.9 45.9 89 45.5 89.1 45.3 C 89.3 45 89.5 44.7 89.8 44.5 C 90 44.4 90.2 44.3 90.6 44.2 C 90.9 44.1 91.3 44 91.7 44 C 92.3 44 92.8 44.1 93.3 44.3 C 93.7 44.4 94 44.7 94.3 45 C 94.5 45.3 94.6 45.6 94.7 46.1 C 94.7 46.1 93.4 46.3 93.4 46.3 C 93.4 45.9 93.2 45.6 92.9 45.4 C 92.7 45.2 92.3 45.1 91.8 45.1 C 91.2 45.1 90.8 45.2 90.5 45.4 C 90.3 45.6 90.1 45.8 90.1 46 C 90.1 46.2 90.2 46.4 90.3 46.5 C 90.4 46.6 90.6 46.7 90.8 46.8 C 90.9 46.9 91.3 47 91.9 47.2 C 92.8 47.4 93.5 47.6 93.8 47.8 C 94.2 47.9 94.5 48.1 94.7 48.4 C 94.9 48.7 95 49.1 95 49.5 C 95 50 94.9 50.4 94.6 50.8 C 94.4 51.1 94 51.4 93.5 51.6 C 93.1 51.9 92.5 52 91.9 52 C 90.9 52 90.2 51.7 89.7 51.3 C 89.1 50.9 88.8 50.3 88.7 49.5 Z M 96.5 42.8 L 96.5 41.3 L 97.8 41.3 L 97.8 42.8 L 96.5 42.8 Z M 96.5 51.8 L 96.5 44.2 L 97.8 44.2 L 97.8 51.8 L 96.5 51.8 Z M 102 50.7 C 102.2 50.7 102.4 50.7 102.6 50.6 C 102.6 50.6 102.8 51.8 102.8 51.8 C 102.4 51.8 102.1 51.9 101.8 51.9 C 101.3 51.9 101 51.8 100.7 51.7 C 100.5 51.5 100.3 51.3 100.2 51.1 C 100.1 50.8 100 50.3 100 49.6 C 100.02 49.55 100 45.2 100 45.2 L 99.1 45.2 L 99.1 44.2 L 100 44.2 L 100 42.3 L 101.3 41.5 L 101.3 44.2 L 102.6 44.2 L 102.6 45.2 L 101.3 45.2 C 101.3 45.2 101.3 49.63 101.3 49.6 C 101.3 50 101.3 50.2 101.4 50.3 C 101.4 50.4 101.5 50.5 101.6 50.6 C 101.7 50.6 101.8 50.7 102 50.7 C 102 50.7 102 50.7 102 50.7 Z M 107.7 46.7 C 107.7 44.9 108.1 43.6 109.1 42.6 C 110 41.6 111.2 41.1 112.7 41.1 C 113.7 41.1 114.5 41.3 115.3 41.8 C 116.1 42.3 116.7 42.9 117.1 43.7 C 117.5 44.6 117.7 45.5 117.7 46.5 C 117.7 47.6 117.5 48.6 117.1 49.4 C 116.6 50.2 116 50.9 115.2 51.3 C 114.5 51.7 113.6 52 112.7 52 C 111.7 52 110.8 51.7 110 51.2 C 109.3 50.8 108.7 50.1 108.3 49.3 C 107.9 48.5 107.7 47.6 107.7 46.7 Z M 109.1 46.7 C 109.1 48 109.4 49 110.1 49.7 C 110.8 50.4 111.7 50.8 112.7 50.8 C 113.7 50.8 114.6 50.4 115.3 49.7 C 115.9 48.9 116.3 47.9 116.3 46.5 C 116.3 45.7 116.1 44.9 115.8 44.3 C 115.6 43.7 115.1 43.2 114.6 42.8 C 114 42.5 113.4 42.3 112.7 42.3 C 111.7 42.3 110.9 42.6 110.2 43.3 C 109.5 44 109.1 45.1 109.1 46.7 Z M 124.3 51.8 C 124.3 51.8 124.32 50.66 124.3 50.7 C 123.7 51.5 122.9 52 121.9 52 C 121.5 52 121 51.9 120.7 51.7 C 120.3 51.5 120 51.3 119.8 51 C 119.6 50.8 119.5 50.5 119.4 50.1 C 119.3 49.8 119.3 49.4 119.3 48.9 C 119.31 48.89 119.3 44.2 119.3 44.2 L 120.6 44.2 C 120.6 44.2 120.6 48.39 120.6 48.4 C 120.6 49.1 120.6 49.5 120.7 49.8 C 120.8 50.1 120.9 50.4 121.2 50.6 C 121.5 50.7 121.8 50.8 122.2 50.8 C 122.6 50.8 122.9 50.7 123.3 50.5 C 123.6 50.3 123.8 50.1 124 49.7 C 124.1 49.4 124.2 48.9 124.2 48.3 C 124.19 48.25 124.2 44.2 124.2 44.2 L 125.5 44.2 L 125.5 51.8 L 124.3 51.8 Z M 127.5 51.8 L 127.5 44.2 L 128.6 44.2 C 128.6 44.2 128.64 45.33 128.6 45.3 C 128.9 44.8 129.2 44.4 129.5 44.3 C 129.7 44.1 130 44 130.3 44 C 130.7 44 131.2 44.1 131.6 44.4 C 131.6 44.4 131.2 45.6 131.2 45.6 C 130.9 45.4 130.5 45.3 130.2 45.3 C 129.9 45.3 129.7 45.4 129.5 45.6 C 129.2 45.8 129.1 46 129 46.3 C 128.8 46.8 128.8 47.3 128.8 47.8 C 128.77 47.8 128.8 51.8 128.8 51.8 L 127.5 51.8 Z M 139.3 51.8 L 139.3 47.3 L 135.3 41.3 L 137 41.3 C 137 41.3 139.02 44.45 139 44.4 C 139.4 45 139.8 45.6 140.1 46.2 C 140.4 45.7 140.8 45.1 141.2 44.4 C 141.24 44.37 143.3 41.3 143.3 41.3 L 144.9 41.3 L 140.7 47.3 L 140.7 51.8 L 139.3 51.8 Z M 144.1 48 C 144.1 46.6 144.5 45.5 145.3 44.8 C 146 44.3 146.8 44 147.7 44 C 148.8 44 149.6 44.3 150.3 45 C 150.9 45.7 151.3 46.7 151.3 47.9 C 151.3 48.9 151.1 49.6 150.8 50.2 C 150.5 50.7 150.1 51.2 149.5 51.5 C 149 51.8 148.4 52 147.7 52 C 146.6 52 145.8 51.6 145.1 50.9 C 144.5 50.2 144.1 49.3 144.1 48 Z M 145.5 48 C 145.5 49 145.7 49.7 146.1 50.2 C 146.5 50.7 147.1 50.9 147.7 50.9 C 148.4 50.9 148.9 50.7 149.3 50.2 C 149.7 49.7 149.9 48.9 149.9 47.9 C 149.9 47 149.7 46.3 149.3 45.8 C 148.9 45.3 148.3 45.1 147.7 45.1 C 147.1 45.1 146.5 45.3 146.1 45.8 C 145.7 46.3 145.5 47 145.5 48 Z M 157.8 51.8 C 157.8 51.8 157.77 50.66 157.8 50.7 C 157.2 51.5 156.4 52 155.4 52 C 154.9 52 154.5 51.9 154.1 51.7 C 153.7 51.5 153.4 51.3 153.2 51 C 153 50.8 152.9 50.5 152.8 50.1 C 152.8 49.8 152.8 49.4 152.8 48.9 C 152.75 48.89 152.8 44.2 152.8 44.2 L 154 44.2 C 154 44.2 154.04 48.39 154 48.4 C 154 49.1 154.1 49.5 154.1 49.8 C 154.2 50.1 154.4 50.4 154.6 50.6 C 154.9 50.7 155.2 50.8 155.6 50.8 C 156 50.8 156.4 50.7 156.7 50.5 C 157 50.3 157.3 50.1 157.4 49.7 C 157.6 49.4 157.6 48.9 157.6 48.3 C 157.63 48.25 157.6 44.2 157.6 44.2 L 158.9 44.2 L 158.9 51.8 L 157.8 51.8 Z M 163.8 51.8 L 163.8 42.5 L 160.3 42.5 L 160.3 41.3 L 168.6 41.3 L 168.6 42.5 L 165.2 42.5 L 165.2 51.8 L 163.8 51.8 Z M 174.3 51.8 C 174.3 51.8 174.34 50.66 174.3 50.7 C 173.7 51.5 172.9 52 171.9 52 C 171.5 52 171.1 51.9 170.7 51.7 C 170.3 51.5 170 51.3 169.8 51 C 169.6 50.8 169.5 50.5 169.4 50.1 C 169.4 49.8 169.3 49.4 169.3 48.9 C 169.32 48.89 169.3 44.2 169.3 44.2 L 170.6 44.2 C 170.6 44.2 170.61 48.39 170.6 48.4 C 170.6 49.1 170.6 49.5 170.7 49.8 C 170.8 50.1 170.9 50.4 171.2 50.6 C 171.5 50.7 171.8 50.8 172.2 50.8 C 172.6 50.8 172.9 50.7 173.3 50.5 C 173.6 50.3 173.8 50.1 174 49.7 C 174.1 49.4 174.2 48.9 174.2 48.3 C 174.2 48.25 174.2 44.2 174.2 44.2 L 175.5 44.2 L 175.5 51.8 L 174.3 51.8 Z M 178.7 51.8 L 177.5 51.8 L 177.5 41.3 L 178.8 41.3 C 178.8 41.3 178.79 45.03 178.8 45 C 179.3 44.3 180 44 180.9 44 C 181.3 44 181.8 44.1 182.2 44.3 C 182.6 44.5 183 44.7 183.2 45.1 C 183.5 45.4 183.7 45.8 183.9 46.3 C 184 46.8 184.1 47.3 184.1 47.9 C 184.1 49.2 183.8 50.2 183.1 50.9 C 182.5 51.6 181.7 52 180.8 52 C 179.9 52 179.2 51.6 178.7 50.8 C 178.7 50.83 178.7 51.8 178.7 51.8 Z M 178.7 47.9 C 178.7 48.8 178.8 49.5 179.1 49.9 C 179.5 50.6 180 50.9 180.7 50.9 C 181.3 50.9 181.8 50.6 182.2 50.2 C 182.6 49.7 182.8 48.9 182.8 48 C 182.8 47 182.6 46.2 182.2 45.8 C 181.8 45.3 181.3 45.1 180.8 45.1 C 180.2 45.1 179.7 45.3 179.3 45.8 C 178.9 46.3 178.7 47 178.7 47.9 Z M 190.9 49.3 C 190.9 49.3 192.2 49.5 192.2 49.5 C 192 50.3 191.6 50.9 191 51.3 C 190.5 51.7 189.7 52 188.9 52 C 187.7 52 186.9 51.6 186.2 50.9 C 185.6 50.2 185.2 49.3 185.2 48 C 185.2 46.8 185.6 45.8 186.2 45.1 C 186.9 44.4 187.7 44 188.8 44 C 189.8 44 190.6 44.4 191.3 45 C 191.9 45.7 192.2 46.7 192.2 48 C 192.2 48 192.2 48.2 192.2 48.3 C 192.2 48.3 186.6 48.3 186.6 48.3 C 186.6 49.1 186.9 49.8 187.3 50.2 C 187.7 50.7 188.2 50.9 188.9 50.9 C 189.3 50.9 189.7 50.8 190.1 50.5 C 190.4 50.3 190.7 49.9 190.9 49.3 Z M 186.6 47.2 C 186.6 47.2 190.9 47.2 190.9 47.2 C 190.8 46.6 190.7 46.1 190.4 45.8 C 190 45.3 189.5 45.1 188.8 45.1 C 188.2 45.1 187.7 45.3 187.3 45.7 C 186.9 46.1 186.7 46.6 186.6 47.2 Z M 202.9 49 C 202.9 49 204.1 49.2 204.1 49.2 C 204 50 203.6 50.7 203.1 51.2 C 202.5 51.7 201.8 52 201 52 C 199.9 52 199.1 51.6 198.5 50.9 C 197.8 50.3 197.5 49.3 197.5 48 C 197.5 47.2 197.6 46.5 197.9 45.9 C 198.2 45.2 198.6 44.8 199.2 44.5 C 199.7 44.2 200.3 44 201 44 C 201.8 44 202.5 44.2 203 44.6 C 203.5 45 203.9 45.6 204 46.4 C 204 46.4 202.8 46.6 202.8 46.6 C 202.6 46.1 202.4 45.7 202.1 45.5 C 201.8 45.2 201.5 45.1 201 45.1 C 200.4 45.1 199.8 45.3 199.4 45.8 C 199 46.2 198.8 47 198.8 48 C 198.8 49 199 49.7 199.4 50.2 C 199.8 50.7 200.3 50.9 200.9 50.9 C 201.5 50.9 201.9 50.7 202.2 50.4 C 202.6 50.1 202.8 49.6 202.9 49 Z M 205.2 51.8 L 205.2 41.3 L 206.5 41.3 C 206.5 41.3 206.52 45.05 206.5 45.1 C 207.1 44.4 207.9 44 208.8 44 C 209.4 44 209.9 44.1 210.3 44.3 C 210.7 44.6 211 44.9 211.2 45.3 C 211.3 45.6 211.4 46.2 211.4 47 C 211.43 46.96 211.4 51.8 211.4 51.8 L 210.1 51.8 C 210.1 51.8 210.14 46.96 210.1 47 C 210.1 46.3 210 45.8 209.7 45.6 C 209.4 45.3 209 45.1 208.5 45.1 C 208.2 45.1 207.8 45.2 207.5 45.4 C 207.1 45.6 206.9 45.9 206.7 46.2 C 206.6 46.6 206.5 47 206.5 47.6 C 206.52 47.62 206.5 51.8 206.5 51.8 L 205.2 51.8 Z M 218.6 51.8 C 218.5 51.5 218.4 51.2 218.4 50.8 C 217.9 51.2 217.4 51.5 217 51.7 C 216.5 51.9 216.1 52 215.6 52 C 214.7 52 214.1 51.7 213.6 51.3 C 213.2 50.9 213 50.4 213 49.8 C 213 49.4 213 49.1 213.2 48.8 C 213.4 48.4 213.6 48.2 213.9 48 C 214.1 47.8 214.5 47.7 214.8 47.6 C 215.1 47.5 215.4 47.5 215.9 47.4 C 217 47.3 217.8 47.1 218.2 47 C 218.2 46.8 218.3 46.7 218.3 46.6 C 218.3 46.1 218.1 45.7 217.9 45.5 C 217.6 45.2 217.1 45.1 216.4 45.1 C 215.8 45.1 215.4 45.2 215.1 45.4 C 214.8 45.6 214.6 46 214.4 46.5 C 214.4 46.5 213.2 46.3 213.2 46.3 C 213.3 45.8 213.5 45.4 213.7 45 C 214 44.7 214.4 44.5 214.9 44.3 C 215.4 44.1 216 44 216.6 44 C 217.3 44 217.8 44.1 218.2 44.2 C 218.6 44.4 218.9 44.6 219.1 44.8 C 219.3 45 219.4 45.3 219.5 45.7 C 219.5 45.9 219.5 46.3 219.5 46.9 C 219.5 46.9 219.5 48.6 219.5 48.6 C 219.5 49.8 219.6 50.6 219.6 50.9 C 219.7 51.2 219.8 51.5 220 51.8 C 219.96 51.78 218.6 51.8 218.6 51.8 C 218.6 51.8 218.61 51.78 218.6 51.8 Z M 218.2 48 C 217.8 48.2 217.1 48.3 216.1 48.5 C 215.6 48.5 215.2 48.6 215 48.7 C 214.8 48.8 214.6 48.9 214.5 49.1 C 214.4 49.3 214.3 49.5 214.3 49.7 C 214.3 50.1 214.5 50.4 214.7 50.6 C 215 50.8 215.4 50.9 215.9 50.9 C 216.4 50.9 216.8 50.8 217.2 50.6 C 217.6 50.4 217.9 50.1 218 49.7 C 218.2 49.4 218.2 49 218.2 48.4 C 218.2 48.4 218.2 48 218.2 48 Z M 221.5 51.8 L 221.5 44.2 L 222.7 44.2 C 222.7 44.2 222.71 45.26 222.7 45.3 C 223.3 44.4 224.1 44 225.1 44 C 225.6 44 226 44.1 226.4 44.3 C 226.8 44.4 227.1 44.6 227.3 44.9 C 227.4 45.2 227.6 45.5 227.7 45.9 C 227.7 46.1 227.7 46.5 227.7 47.1 C 227.73 47.11 227.7 51.8 227.7 51.8 L 226.4 51.8 C 226.4 51.8 226.44 47.16 226.4 47.2 C 226.4 46.6 226.4 46.2 226.3 46 C 226.2 45.7 226 45.5 225.8 45.4 C 225.5 45.2 225.2 45.1 224.9 45.1 C 224.3 45.1 223.8 45.3 223.4 45.6 C 223 46 222.8 46.7 222.8 47.6 C 222.84 47.63 222.8 51.8 222.8 51.8 L 221.5 51.8 Z M 229.7 51.8 L 229.7 44.2 L 230.9 44.2 C 230.9 44.2 230.86 45.26 230.9 45.3 C 231.4 44.4 232.2 44 233.3 44 C 233.7 44 234.2 44.1 234.5 44.3 C 234.9 44.4 235.2 44.6 235.4 44.9 C 235.6 45.2 235.7 45.5 235.8 45.9 C 235.9 46.1 235.9 46.5 235.9 47.1 C 235.88 47.11 235.9 51.8 235.9 51.8 L 234.6 51.8 C 234.6 51.8 234.59 47.16 234.6 47.2 C 234.6 46.6 234.5 46.2 234.4 46 C 234.3 45.7 234.2 45.5 233.9 45.4 C 233.7 45.2 233.4 45.1 233 45.1 C 232.5 45.1 232 45.3 231.6 45.6 C 231.2 46 231 46.7 231 47.6 C 230.99 47.63 231 51.8 231 51.8 L 229.7 51.8 Z M 243.1 49.3 C 243.1 49.3 244.4 49.5 244.4 49.5 C 244.2 50.3 243.8 50.9 243.2 51.3 C 242.7 51.7 241.9 52 241.1 52 C 239.9 52 239.1 51.6 238.4 50.9 C 237.8 50.2 237.4 49.3 237.4 48 C 237.4 46.8 237.8 45.8 238.4 45.1 C 239.1 44.4 239.9 44 241 44 C 242 44 242.8 44.4 243.5 45 C 244.1 45.7 244.4 46.7 244.4 48 C 244.4 48 244.4 48.2 244.4 48.3 C 244.4 48.3 238.8 48.3 238.8 48.3 C 238.8 49.1 239 49.8 239.5 50.2 C 239.9 50.7 240.4 50.9 241.1 50.9 C 241.5 50.9 241.9 50.8 242.3 50.5 C 242.6 50.3 242.9 49.9 243.1 49.3 Z M 238.8 47.2 C 238.8 47.2 243.1 47.2 243.1 47.2 C 243 46.6 242.9 46.1 242.6 45.8 C 242.2 45.3 241.7 45.1 241 45.1 C 240.4 45.1 239.9 45.3 239.5 45.7 C 239.1 46.1 238.9 46.6 238.8 47.2 Z M 246 51.8 L 246 41.3 L 247.3 41.3 L 247.3 51.8 L 246 51.8 Z M 249.6 51.8 L 249.6 50.3 L 251.1 50.3 L 251.1 51.8 L 249.6 51.8 Z " stroke="none" fill="#ffffff"/>  </g>  <g id="Polygon66237">    <path d="M 126.2 0.2 L 119.8 7.8 L 119.8 16.6 L 118.5 16.6 L 118.5 7.8 L 112.2 0.2 L 113.7 0.2 L 119.2 6.7 L 124.6 0.2 L 126.2 0.2 Z M 134 0 C 136.4 0 138.5 0.8 140.1 2.4 C 141.8 4.1 142.7 6.1 142.7 8.4 C 142.7 10.7 141.8 12.7 140.1 14.3 C 138.5 16 136.4 16.8 134 16.8 C 131.6 16.8 129.5 16 127.9 14.3 C 126.2 12.7 125.3 10.7 125.3 8.4 C 125.3 6.1 126.2 4.1 127.9 2.4 C 129.5 0.8 131.6 0 134 0 Z M 134 15.6 C 136.1 15.6 137.8 14.9 139.2 13.5 C 140.6 12.1 141.3 10.4 141.3 8.4 C 141.3 6.4 140.6 4.7 139.2 3.3 C 137.8 1.9 136.1 1.2 134 1.2 C 132 1.2 130.3 1.9 128.8 3.3 C 127.4 4.7 126.7 6.4 126.7 8.4 C 126.7 10.4 127.4 12.1 128.8 13.5 C 130.3 14.9 132 15.6 134 15.6 Z M 157.8 0.2 L 159.1 0.2 C 159.1 0.2 159.12 9.14 159.1 9.1 C 159.1 11.6 158.5 13.5 157.2 14.8 C 155.9 16.1 154.3 16.8 152.3 16.8 C 150.2 16.8 148.6 16.1 147.3 14.8 C 146.1 13.5 145.4 11.7 145.4 9.4 C 145.42 9.43 145.4 0.2 145.4 0.2 L 146.7 0.2 C 146.7 0.2 146.69 9.39 146.7 9.4 C 146.7 11.3 147.2 12.9 148.2 14 C 149.3 15.1 150.6 15.6 152.3 15.6 C 153.9 15.6 155.3 15.1 156.3 14 C 157.3 12.8 157.8 11.3 157.8 9.2 C 157.85 9.21 157.8 0.2 157.8 0.2 Z M 174.3 0.2 L 174.3 1.3 L 168.2 1.3 L 168.2 16.6 L 166.9 16.6 L 166.9 1.3 L 160.7 1.3 L 160.7 0.2 L 174.3 0.2 Z M 188.4 0.2 L 189.6 0.2 C 189.6 0.2 189.63 9.14 189.6 9.1 C 189.6 11.6 189 13.5 187.7 14.8 C 186.4 16.1 184.8 16.8 182.8 16.8 C 180.8 16.8 179.1 16.1 177.8 14.8 C 176.6 13.5 175.9 11.7 175.9 9.4 C 175.93 9.43 175.9 0.2 175.9 0.2 L 177.2 0.2 C 177.2 0.2 177.21 9.39 177.2 9.4 C 177.2 11.3 177.7 12.9 178.8 14 C 179.8 15.1 181.1 15.6 182.8 15.6 C 184.4 15.6 185.8 15.1 186.8 14 C 187.8 12.8 188.4 11.3 188.4 9.2 C 188.37 9.21 188.4 0.2 188.4 0.2 Z M 193.1 0.2 C 193.1 0.2 196.49 0.21 196.5 0.2 C 198.3 0.2 199.6 0.6 200.6 1.3 C 201.5 2.1 201.9 3.1 201.9 4.4 C 201.9 6 201.2 7.2 199.6 8.1 C 202.1 8.6 203.4 10 203.4 12.2 C 203.4 13.6 202.9 14.6 201.9 15.4 C 200.9 16.2 199.6 16.6 197.9 16.6 C 197.87 16.58 193.1 16.6 193.1 16.6 L 193.1 0.2 Z M 194.3 1.3 L 194.3 7.8 C 194.3 7.8 196.1 7.79 196.1 7.8 C 199.1 7.8 200.6 6.7 200.6 4.5 C 200.6 2.4 199.1 1.3 196.1 1.3 C 196.05 1.27 194.3 1.3 194.3 1.3 Z M 194.3 8.9 L 194.3 15.5 C 194.3 15.5 197.73 15.53 197.7 15.5 C 199.1 15.5 200.2 15.2 200.9 14.6 C 201.6 14 202 13.2 202 12.2 C 202 10 200.4 8.9 197.2 8.9 C 197.18 8.86 194.3 8.9 194.3 8.9 Z M 214.7 0.2 L 214.7 1.3 L 207.1 1.3 L 207.1 7.8 L 214.5 7.8 L 214.5 8.9 L 207.1 8.9 L 207.1 15.5 L 214.9 15.5 L 214.9 16.6 L 205.8 16.6 L 205.8 0.2 L 214.7 0.2 Z " stroke="none" fill="#ffffff"/>  </g></svg>