<?xml version="1.0" standalone="no"?><!DOCTYPE svg PUBLIC "-//W3C//DTD SVG 1.1//EN" "http://www.w3.org/Graphics/SVG/1.1/DTD/svg11.dtd"><svg xmlns="http://www.w3.org/2000/svg" version="1.1" width="399.5px" height="57.4px" viewBox="0 -1 399.5 57.4" style="top:-1px">  <desc>assessment &amp; learning</desc>  <defs/>  <g id="Polygon68838">    <path d="M 11.1 13.5 L 21.2 35.4 L 19.5 35.4 L 16 27.9 L 5.3 27.9 L 1.9 35.4 L 0.1 35.4 L 10.2 13.5 L 11.1 13.5 Z M 15.4 26.5 L 10.7 16.2 L 6 26.5 L 15.4 26.5 Z M 29.1 13.3 C 30.8 13.3 32.5 13.8 34.1 14.7 C 34.1 14.7 34.1 16.6 34.1 16.6 C 32.2 15.5 30.6 14.9 29.3 14.9 C 27.9 14.9 26.8 15.3 26 16.1 C 25.1 16.9 24.6 17.9 24.6 19.1 C 24.6 19.9 24.9 20.7 25.4 21.3 C 25.9 22 27 22.7 28.7 23.3 C 30.3 23.9 31.6 24.4 32.3 24.8 C 33.1 25.3 33.7 25.9 34.3 26.7 C 34.8 27.5 35 28.5 35 29.7 C 35 31.4 34.4 32.8 33.2 34 C 32 35.1 30.5 35.7 28.7 35.7 C 26.9 35.7 25 35.1 23.1 33.8 C 23.1 33.8 23.1 31.8 23.1 31.8 C 25.2 33.4 27.1 34.2 28.6 34.2 C 29.9 34.2 31 33.7 31.9 32.9 C 32.8 32.1 33.2 31 33.2 29.8 C 33.2 28.9 32.9 28.1 32.4 27.3 C 31.8 26.6 30.7 25.9 29 25.2 C 27.3 24.6 26.1 24.1 25.4 23.7 C 24.7 23.3 24.1 22.7 23.6 22 C 23.1 21.2 22.8 20.3 22.8 19.1 C 22.8 17.5 23.4 16.2 24.7 15 C 25.9 13.9 27.4 13.3 29.1 13.3 C 29.1 13.3 29.1 13.3 29.1 13.3 Z M 44.1 13.3 C 45.8 13.3 47.5 13.8 49.2 14.7 C 49.2 14.7 49.2 16.6 49.2 16.6 C 47.3 15.5 45.6 14.9 44.3 14.9 C 43 14.9 41.9 15.3 41 16.1 C 40.1 16.9 39.7 17.9 39.7 19.1 C 39.7 19.9 39.9 20.7 40.4 21.3 C 41 22 42 22.7 43.7 23.3 C 45.4 23.9 46.6 24.4 47.3 24.8 C 48.1 25.3 48.7 25.9 49.3 26.7 C 49.8 27.5 50.1 28.5 50.1 29.7 C 50.1 31.4 49.4 32.8 48.2 34 C 47 35.1 45.5 35.7 43.7 35.7 C 41.9 35.7 40 35.1 38.1 33.8 C 38.1 33.8 38.1 31.8 38.1 31.8 C 40.2 33.4 42.1 34.2 43.6 34.2 C 44.9 34.2 46 33.7 46.9 32.9 C 47.8 32.1 48.2 31 48.2 29.8 C 48.2 28.9 48 28.1 47.4 27.3 C 46.9 26.6 45.7 25.9 44 25.2 C 42.4 24.6 41.2 24.1 40.4 23.7 C 39.7 23.3 39.1 22.7 38.6 22 C 38.1 21.2 37.8 20.3 37.8 19.1 C 37.8 17.5 38.4 16.2 39.7 15 C 40.9 13.9 42.4 13.3 44.1 13.3 C 44.1 13.3 44.1 13.3 44.1 13.3 Z M 65.8 13.6 L 65.8 15 L 55.6 15 L 55.6 23.8 L 65.6 23.8 L 65.6 25.2 L 55.6 25.2 L 55.6 34 L 66.1 34 L 66.1 35.4 L 53.9 35.4 L 53.9 13.6 L 65.8 13.6 Z M 74.8 13.3 C 76.5 13.3 78.2 13.8 79.9 14.7 C 79.9 14.7 79.9 16.6 79.9 16.6 C 78 15.5 76.3 14.9 75 14.9 C 73.7 14.9 72.6 15.3 71.7 16.1 C 70.8 16.9 70.4 17.9 70.4 19.1 C 70.4 19.9 70.6 20.7 71.1 21.3 C 71.7 22 72.8 22.7 74.4 23.3 C 76.1 23.9 77.3 24.4 78 24.8 C 78.8 25.3 79.4 25.9 80 26.7 C 80.5 27.5 80.8 28.5 80.8 29.7 C 80.8 31.4 80.2 32.8 78.9 34 C 77.7 35.1 76.2 35.7 74.4 35.7 C 72.6 35.7 70.7 35.1 68.8 33.8 C 68.8 33.8 68.8 31.8 68.8 31.8 C 70.9 33.4 72.8 34.2 74.3 34.2 C 75.6 34.2 76.7 33.7 77.6 32.9 C 78.5 32.1 78.9 31 78.9 29.8 C 78.9 28.9 78.7 28.1 78.1 27.3 C 77.6 26.6 76.4 25.9 74.8 25.2 C 73.1 24.6 71.9 24.1 71.1 23.7 C 70.4 23.3 69.8 22.7 69.3 22 C 68.8 21.2 68.5 20.3 68.5 19.1 C 68.5 17.5 69.1 16.2 70.4 15 C 71.6 13.9 73.1 13.3 74.8 13.3 C 74.8 13.3 74.8 13.3 74.8 13.3 Z M 89.8 13.3 C 91.5 13.3 93.2 13.8 94.9 14.7 C 94.9 14.7 94.9 16.6 94.9 16.6 C 93 15.5 91.3 14.9 90 14.9 C 88.7 14.9 87.6 15.3 86.7 16.1 C 85.8 16.9 85.4 17.9 85.4 19.1 C 85.4 19.9 85.6 20.7 86.2 21.3 C 86.7 22 87.8 22.7 89.4 23.3 C 91.1 23.9 92.3 24.4 93 24.8 C 93.8 25.3 94.5 25.9 95 26.7 C 95.5 27.5 95.8 28.5 95.8 29.7 C 95.8 31.4 95.2 32.8 93.9 34 C 92.7 35.1 91.2 35.7 89.4 35.7 C 87.6 35.7 85.8 35.1 83.8 33.8 C 83.8 33.8 83.8 31.8 83.8 31.8 C 86 33.4 87.8 34.2 89.3 34.2 C 90.6 34.2 91.7 33.7 92.6 32.9 C 93.5 32.1 94 31 94 29.8 C 94 28.9 93.7 28.1 93.1 27.3 C 92.6 26.6 91.5 25.9 89.8 25.2 C 88.1 24.6 86.9 24.1 86.2 23.7 C 85.4 23.3 84.8 22.7 84.3 22 C 83.8 21.2 83.5 20.3 83.5 19.1 C 83.5 17.5 84.2 16.2 85.4 15 C 86.6 13.9 88.1 13.3 89.8 13.3 C 89.8 13.3 89.8 13.3 89.8 13.3 Z M 109.6 23.8 L 117.9 13.6 L 119.6 13.6 L 119.6 35.4 L 117.9 35.4 L 117.9 16.1 L 109.6 26.3 L 101.3 16.1 L 101.3 35.4 L 99.6 35.4 L 99.6 13.6 L 101.3 13.6 L 109.6 23.8 Z M 136.5 13.6 L 136.5 15 L 126.3 15 L 126.3 23.8 L 136.3 23.8 L 136.3 25.2 L 126.3 25.2 L 126.3 34 L 136.8 34 L 136.8 35.4 L 124.6 35.4 L 124.6 13.6 L 136.5 13.6 Z M 159.9 13.6 L 159.9 35.4 L 158.5 35.4 L 142 16.4 L 142 35.4 L 140.3 35.4 L 140.3 13.6 L 141.7 13.6 L 158.3 32.7 L 158.3 13.6 L 159.9 13.6 Z M 180.6 13.6 L 180.6 15 L 172.5 15 L 172.5 35.4 L 170.8 35.4 L 170.8 15 L 162.6 15 L 162.6 13.6 L 180.6 13.6 Z M 203.5 29.5 C 204.5 28 205.3 26.4 205.9 24.6 C 205.9 24.6 207.7 24.6 207.7 24.6 C 207 26.7 206 28.8 204.7 30.8 C 204.7 30.75 209.2 35.4 209.2 35.4 L 207 35.4 C 207 35.4 203.71 32.03 203.7 32 C 201.6 34.5 199.1 35.7 196.2 35.7 C 194.5 35.7 193.1 35.2 192.1 34.3 C 191 33.3 190.5 32.1 190.5 30.6 C 190.5 27.7 192.3 25.5 195.9 23.9 C 194.1 22 193.2 20.3 193.2 18.8 C 193.2 17.5 193.7 16.3 194.7 15.4 C 195.7 14.5 196.9 14 198.4 14 C 199.8 14 200.9 14.5 201.8 15.3 C 202.7 16.2 203.1 17.3 203.1 18.5 C 203.1 20.9 201.6 22.8 198.6 24.3 C 198.59 24.32 203.5 29.5 203.5 29.5 C 203.5 29.5 203.52 29.5 203.5 29.5 Z M 194.8 18.7 C 194.8 20.1 195.7 21.5 197.5 23.2 C 200.2 22 201.6 20.5 201.6 18.7 C 201.6 17.8 201.3 17.1 200.6 16.5 C 200 15.9 199.2 15.6 198.3 15.6 C 197.3 15.6 196.5 15.9 195.8 16.5 C 195.2 17.1 194.8 17.8 194.8 18.7 C 194.8 18.7 194.8 18.7 194.8 18.7 Z M 196.5 34.2 C 198.7 34.2 200.7 33.1 202.6 30.8 C 202.6 30.8 197 25.1 197 25.1 C 195.4 25.8 194.2 26.5 193.5 27.3 C 192.7 28.1 192.3 29.1 192.3 30.3 C 192.3 31.5 192.7 32.5 193.4 33.1 C 194.2 33.8 195.2 34.2 196.5 34.2 C 196.5 34.2 196.5 34.2 196.5 34.2 Z M 222.5 13.6 L 222.5 34 L 233.3 34 L 233.3 35.4 L 220.8 35.4 L 220.8 13.6 L 222.5 13.6 Z M 247.7 13.6 L 247.7 15 L 237.5 15 L 237.5 23.8 L 247.5 23.8 L 247.5 25.2 L 237.5 25.2 L 237.5 34 L 248 34 L 248 35.4 L 235.8 35.4 L 235.8 13.6 L 247.7 13.6 Z M 260.1 13.5 L 270.2 35.4 L 268.4 35.4 L 265 27.9 L 254.3 27.9 L 250.8 35.4 L 249.1 35.4 L 259.2 13.5 L 260.1 13.5 Z M 264.3 26.5 L 259.6 16.2 L 254.9 26.5 L 264.3 26.5 Z M 272.8 13.6 C 272.8 13.6 278.42 13.61 278.4 13.6 C 280.8 13.6 282.6 14.1 283.8 15.1 C 285 16.2 285.7 17.5 285.7 19.3 C 285.7 21.8 284.3 23.5 281.5 24.6 C 282.2 24.9 283.2 26 284.4 27.9 C 284.41 27.9 289.3 35.4 289.3 35.4 L 287.3 35.4 C 287.3 35.4 283.54 29.46 283.5 29.5 C 282.3 27.5 281.3 26.2 280.6 25.7 C 279.9 25.2 278.8 25 277.5 25 C 277.47 24.97 274.5 25 274.5 25 L 274.5 35.4 L 272.8 35.4 L 272.8 13.6 Z M 274.5 15 L 274.5 23.6 C 274.5 23.6 278.14 23.57 278.1 23.6 C 280 23.6 281.4 23.2 282.4 22.5 C 283.3 21.7 283.8 20.7 283.8 19.3 C 283.8 17.9 283.3 16.9 282.3 16.1 C 281.4 15.4 279.9 15 278.1 15 C 278.08 15.02 274.5 15 274.5 15 Z M 310.8 13.6 L 310.8 35.4 L 309.4 35.4 L 292.8 16.4 L 292.8 35.4 L 291.1 35.4 L 291.1 13.6 L 292.6 13.6 L 309.1 32.7 L 309.1 13.6 L 310.8 13.6 Z M 317.5 13.6 L 317.5 35.4 L 315.8 35.4 L 315.8 13.6 L 317.5 13.6 Z M 342.1 13.6 L 342.1 35.4 L 340.8 35.4 L 324.2 16.4 L 324.2 35.4 L 322.5 35.4 L 322.5 13.6 L 323.9 13.6 L 340.5 32.7 L 340.5 13.6 L 342.1 13.6 Z M 358 13.3 C 360.2 13.3 362.7 14 365.4 15.2 C 365.4 15.2 365.4 17.1 365.4 17.1 C 362.9 15.6 360.3 14.9 357.7 14.9 C 354.9 14.9 352.6 15.8 350.8 17.6 C 349 19.5 348.1 21.8 348.1 24.5 C 348.1 27.3 349 29.6 350.8 31.4 C 352.6 33.2 355.1 34.2 358.2 34.2 C 360.4 34.2 362.4 33.7 364.2 32.8 C 364.16 32.82 364.2 26.9 364.2 26.9 L 359.5 26.9 L 359.5 25.5 L 365.9 25.5 C 365.9 25.5 365.86 33.88 365.9 33.9 C 363.3 35.1 360.7 35.7 358.1 35.7 C 354.7 35.7 351.9 34.7 349.6 32.5 C 347.4 30.4 346.2 27.7 346.2 24.5 C 346.2 21.3 347.3 18.6 349.6 16.5 C 351.8 14.4 354.6 13.3 358 13.3 C 358 13.3 358 13.3 358 13.3 Z " stroke="none" fill="#000"/>  </g></svg>