<?xml version="1.0" standalone="no"?><!DOCTYPE svg PUBLIC "-//W3C//DTD SVG 1.1//EN" "http://www.w3.org/Graphics/SVG/1.1/DTD/svg11.dtd"><svg xmlns="http://www.w3.org/2000/svg" version="1.1" width="346.1px" height="57.4px" viewBox="0 -1 346.1 57.4" style="top:-1px">  <desc>Providing training,</desc>  <defs/>  <g id="Polygon68785">    <path d="M 2.5 13.6 C 2.5 13.6 8.52 13.61 8.5 13.6 C 10.8 13.6 12.6 14.1 13.8 15.2 C 15 16.2 15.6 17.6 15.6 19.4 C 15.6 21.2 15 22.6 13.8 23.7 C 12.6 24.7 10.7 25.2 8.4 25.2 C 8.36 25.24 4.2 25.2 4.2 25.2 L 4.2 35.4 L 2.5 35.4 L 2.5 13.6 Z M 4.2 15 L 4.2 23.8 C 4.2 23.8 8.25 23.83 8.3 23.8 C 10.1 23.8 11.5 23.4 12.4 22.7 C 13.4 21.9 13.8 20.8 13.8 19.4 C 13.8 18.1 13.4 17 12.4 16.2 C 11.5 15.4 10.2 15 8.5 15 C 8.45 15.02 4.2 15 4.2 15 Z M 18.8 13.6 C 18.8 13.6 24.44 13.61 24.4 13.6 C 26.8 13.6 28.6 14.1 29.8 15.1 C 31.1 16.2 31.7 17.5 31.7 19.3 C 31.7 21.8 30.3 23.5 27.5 24.6 C 28.2 24.9 29.2 26 30.4 27.9 C 30.42 27.9 35.4 35.4 35.4 35.4 L 33.4 35.4 C 33.4 35.4 29.56 29.46 29.6 29.5 C 28.3 27.5 27.3 26.2 26.6 25.7 C 25.9 25.2 24.8 25 23.5 25 C 23.48 24.97 20.5 25 20.5 25 L 20.5 35.4 L 18.8 35.4 L 18.8 13.6 Z M 20.5 15 L 20.5 23.6 C 20.5 23.6 24.16 23.57 24.2 23.6 C 26 23.6 27.4 23.2 28.4 22.5 C 29.4 21.7 29.8 20.7 29.8 19.3 C 29.8 17.9 29.3 16.9 28.4 16.1 C 27.4 15.4 25.9 15 24.1 15 C 24.09 15.02 20.5 15 20.5 15 Z M 47.3 13.3 C 50.6 13.3 53.3 14.4 55.5 16.6 C 57.8 18.8 58.9 21.4 58.9 24.5 C 58.9 27.7 57.8 30.3 55.5 32.5 C 53.3 34.6 50.6 35.7 47.3 35.7 C 44.1 35.7 41.4 34.6 39.1 32.5 C 36.9 30.3 35.8 27.7 35.8 24.5 C 35.8 21.4 36.9 18.8 39.1 16.6 C 41.4 14.4 44.1 13.3 47.3 13.3 Z M 47.4 34.2 C 50.1 34.2 52.4 33.2 54.3 31.4 C 56.1 29.5 57.1 27.2 57.1 24.5 C 57.1 21.8 56.1 19.5 54.3 17.7 C 52.4 15.8 50.1 14.9 47.4 14.9 C 44.7 14.9 42.4 15.8 40.5 17.7 C 38.6 19.5 37.6 21.8 37.6 24.5 C 37.6 27.2 38.6 29.5 40.5 31.4 C 42.4 33.2 44.7 34.2 47.4 34.2 Z M 78.2 13.6 L 69 35.7 L 68.5 35.7 L 59.3 13.6 L 61 13.6 L 68.8 32.1 L 76.5 13.6 L 78.2 13.6 Z M 82.4 13.6 L 82.4 35.4 L 80.8 35.4 L 80.8 13.6 L 82.4 13.6 Z M 87.4 13.6 C 87.4 13.6 95.08 13.61 95.1 13.6 C 98.9 13.6 101.9 14.6 103.9 16.7 C 106 18.7 107 21.3 107 24.5 C 107 27.7 106 30.3 104 32.4 C 101.9 34.4 99.1 35.4 95.4 35.4 C 95.38 35.44 87.4 35.4 87.4 35.4 L 87.4 13.6 Z M 89.1 15 L 89.1 34 C 89.1 34 95.28 34.04 95.3 34 C 98.1 34 100.5 33.2 102.3 31.4 C 104.2 29.7 105.2 27.4 105.2 24.5 C 105.2 21.7 104.2 19.4 102.4 17.7 C 100.5 15.9 98.1 15 95.2 15 C 95.17 15.02 89.1 15 89.1 15 Z M 112.8 13.6 L 112.8 35.4 L 111.1 35.4 L 111.1 13.6 L 112.8 13.6 Z M 137.4 13.6 L 137.4 35.4 L 136 35.4 L 119.4 16.4 L 119.4 35.4 L 117.8 35.4 L 117.8 13.6 L 119.2 13.6 L 135.7 32.7 L 135.7 13.6 L 137.4 13.6 Z M 153.2 13.3 C 155.5 13.3 158 14 160.7 15.2 C 160.7 15.2 160.7 17.1 160.7 17.1 C 158.1 15.6 155.6 14.9 153 14.9 C 150.2 14.9 147.9 15.8 146.1 17.6 C 144.3 19.5 143.3 21.8 143.3 24.5 C 143.3 27.3 144.3 29.6 146.1 31.4 C 147.9 33.2 150.3 34.2 153.5 34.2 C 155.7 34.2 157.7 33.7 159.4 32.8 C 159.44 32.82 159.4 26.9 159.4 26.9 L 154.8 26.9 L 154.8 25.5 L 161.1 25.5 C 161.1 25.5 161.14 33.88 161.1 33.9 C 158.6 35.1 156 35.7 153.4 35.7 C 150 35.7 147.2 34.7 144.9 32.5 C 142.6 30.4 141.5 27.7 141.5 24.5 C 141.5 21.3 142.6 18.6 144.9 16.5 C 147.1 14.4 149.9 13.3 153.2 13.3 C 153.2 13.3 153.2 13.3 153.2 13.3 Z M 185.5 13.6 L 185.5 15 L 177.4 15 L 177.4 35.4 L 175.7 35.4 L 175.7 15 L 167.5 15 L 167.5 13.6 L 185.5 13.6 Z M 188.2 13.6 C 188.2 13.6 193.81 13.61 193.8 13.6 C 196.2 13.6 197.9 14.1 199.2 15.1 C 200.4 16.2 201 17.5 201 19.3 C 201 21.8 199.7 23.5 196.9 24.6 C 197.6 24.9 198.6 26 199.8 27.9 C 199.8 27.9 204.7 35.4 204.7 35.4 L 202.7 35.4 C 202.7 35.4 198.93 29.46 198.9 29.5 C 197.7 27.5 196.7 26.2 196 25.7 C 195.3 25.2 194.2 25 192.9 25 C 192.86 24.97 189.9 25 189.9 25 L 189.9 35.4 L 188.2 35.4 L 188.2 13.6 Z M 189.9 15 L 189.9 23.6 C 189.9 23.6 193.53 23.57 193.5 23.6 C 195.4 23.6 196.8 23.2 197.8 22.5 C 198.7 21.7 199.2 20.7 199.2 19.3 C 199.2 17.9 198.7 16.9 197.7 16.1 C 196.7 15.4 195.3 15 193.5 15 C 193.47 15.02 189.9 15 189.9 15 Z M 215.2 13.5 L 225.3 35.4 L 223.5 35.4 L 220 27.9 L 209.4 27.9 L 205.9 35.4 L 204.2 35.4 L 214.2 13.5 L 215.2 13.5 Z M 219.4 26.5 L 214.7 16.2 L 210 26.5 L 219.4 26.5 Z M 229.6 13.6 L 229.6 35.4 L 227.9 35.4 L 227.9 13.6 L 229.6 13.6 Z M 254.2 13.6 L 254.2 35.4 L 252.8 35.4 L 236.2 16.4 L 236.2 35.4 L 234.5 35.4 L 234.5 13.6 L 236 13.6 L 252.5 32.7 L 252.5 13.6 L 254.2 13.6 Z M 260.9 13.6 L 260.9 35.4 L 259.2 35.4 L 259.2 13.6 L 260.9 13.6 Z M 285.5 13.6 L 285.5 35.4 L 284.1 35.4 L 267.5 16.4 L 267.5 35.4 L 265.9 35.4 L 265.9 13.6 L 267.3 13.6 L 283.8 32.7 L 283.8 13.6 L 285.5 13.6 Z M 301.3 13.3 C 303.6 13.3 306.1 14 308.8 15.2 C 308.8 15.2 308.8 17.1 308.8 17.1 C 306.2 15.6 303.7 14.9 301.1 14.9 C 298.3 14.9 296 15.8 294.2 17.6 C 292.4 19.5 291.5 21.8 291.5 24.5 C 291.5 27.3 292.4 29.6 294.2 31.4 C 296 33.2 298.4 34.2 301.6 34.2 C 303.8 34.2 305.8 33.7 307.5 32.8 C 307.55 32.82 307.5 26.9 307.5 26.9 L 302.9 26.9 L 302.9 25.5 L 309.3 25.5 C 309.3 25.5 309.25 33.88 309.3 33.9 C 306.7 35.1 304.1 35.7 301.5 35.7 C 298.1 35.7 295.3 34.7 293 32.5 C 290.8 30.4 289.6 27.7 289.6 24.5 C 289.6 21.3 290.7 18.6 293 16.5 C 295.2 14.4 298 13.3 301.3 13.3 C 301.3 13.3 301.3 13.3 301.3 13.3 Z M 314.9 32.3 C 314.9 32.3 314.92 34.77 314.9 34.8 C 314.9 36.7 314.2 38.1 312.8 39.2 C 312.8 39.2 312.8 38.1 312.8 38.1 C 313.3 37.4 313.5 36.6 313.5 35.4 C 313.52 35.44 312.8 35.4 312.8 35.4 L 312.8 32.3 L 314.9 32.3 Z " stroke="none" fill="#000"/>  </g></svg>