<?xml version="1.0" standalone="no"?><!DOCTYPE svg PUBLIC "-//W3C//DTD SVG 1.1//EN" "http://www.w3.org/Graphics/SVG/1.1/DTD/svg11.dtd"><svg xmlns="http://www.w3.org/2000/svg" version="1.1" width="50.2px" height="25.1px" viewBox="0 -4 50.2 25.1" style="top:-4px">  <desc>Home</desc>  <defs/>  <g id="Polygon63662">    <path d="M 6.7 11.3 L 6.7 0.8 L 8.1 0.8 L 8.1 5.1 L 13.5 5.1 L 13.5 0.8 L 14.9 0.8 L 14.9 11.3 L 13.5 11.3 L 13.5 6.4 L 8.1 6.4 L 8.1 11.3 L 6.7 11.3 Z M 16.6 7.5 C 16.6 6.1 17 5.1 17.8 4.4 C 18.4 3.8 19.2 3.6 20.2 3.6 C 21.2 3.6 22.1 3.9 22.7 4.6 C 23.4 5.3 23.7 6.2 23.7 7.4 C 23.7 8.4 23.6 9.2 23.3 9.7 C 23 10.3 22.6 10.7 22 11 C 21.4 11.4 20.8 11.5 20.2 11.5 C 19.1 11.5 18.2 11.2 17.6 10.5 C 16.9 9.8 16.6 8.8 16.6 7.5 Z M 17.9 7.5 C 17.9 8.5 18.1 9.2 18.6 9.7 C 19 10.2 19.5 10.4 20.2 10.4 C 20.8 10.4 21.3 10.2 21.8 9.7 C 22.2 9.2 22.4 8.5 22.4 7.5 C 22.4 6.5 22.2 5.8 21.8 5.3 C 21.3 4.9 20.8 4.6 20.2 4.6 C 19.5 4.6 19 4.9 18.6 5.3 C 18.1 5.8 17.9 6.6 17.9 7.5 Z M 25.2 11.3 L 25.2 3.7 L 26.4 3.7 C 26.4 3.7 26.39 4.79 26.4 4.8 C 26.6 4.4 26.9 4.1 27.3 3.9 C 27.7 3.7 28.2 3.6 28.7 3.6 C 29.3 3.6 29.7 3.7 30.1 3.9 C 30.4 4.1 30.7 4.5 30.8 4.9 C 31.4 4 32.2 3.6 33.2 3.6 C 33.9 3.6 34.5 3.8 34.9 4.2 C 35.3 4.6 35.5 5.2 35.5 6.1 C 35.54 6.11 35.5 11.3 35.5 11.3 L 34.3 11.3 C 34.3 11.3 34.26 6.54 34.3 6.5 C 34.3 6 34.2 5.7 34.1 5.4 C 34 5.2 33.9 5 33.7 4.9 C 33.5 4.7 33.2 4.7 32.9 4.7 C 32.4 4.7 31.9 4.9 31.6 5.2 C 31.2 5.6 31 6.1 31 6.9 C 31.04 6.91 31 11.3 31 11.3 L 29.8 11.3 C 29.8 11.3 29.75 6.39 29.8 6.4 C 29.8 5.8 29.6 5.4 29.4 5.1 C 29.2 4.8 28.9 4.7 28.4 4.7 C 28 4.7 27.7 4.8 27.4 5 C 27.1 5.2 26.9 5.4 26.7 5.8 C 26.6 6.2 26.5 6.7 26.5 7.4 C 26.52 7.39 26.5 11.3 26.5 11.3 L 25.2 11.3 Z M 42.7 8.9 C 42.7 8.9 44 9 44 9 C 43.8 9.8 43.4 10.4 42.8 10.9 C 42.3 11.3 41.5 11.5 40.6 11.5 C 39.5 11.5 38.7 11.2 38 10.5 C 37.3 9.8 37 8.8 37 7.6 C 37 6.3 37.4 5.3 38 4.6 C 38.7 3.9 39.5 3.6 40.6 3.6 C 41.6 3.6 42.4 3.9 43.1 4.6 C 43.7 5.3 44 6.3 44 7.5 C 44 7.6 44 7.7 44 7.9 C 44 7.9 38.4 7.9 38.4 7.9 C 38.4 8.7 38.6 9.3 39.1 9.8 C 39.5 10.2 40 10.4 40.7 10.4 C 41.1 10.4 41.5 10.3 41.9 10.1 C 42.2 9.8 42.5 9.4 42.7 8.9 Z M 38.4 6.8 C 38.4 6.8 42.7 6.8 42.7 6.8 C 42.6 6.2 42.5 5.7 42.2 5.4 C 41.8 4.9 41.2 4.6 40.6 4.6 C 40 4.6 39.5 4.8 39.1 5.2 C 38.7 5.6 38.5 6.1 38.4 6.8 Z " stroke="none" fill="#ffffff"/>  </g></svg>