<?xml version="1.0" standalone="no"?><!DOCTYPE svg PUBLIC "-//W3C//DTD SVG 1.1//EN" "http://www.w3.org/Graphics/SVG/1.1/DTD/svg11.dtd"><svg xmlns="http://www.w3.org/2000/svg" version="1.1" width="328px" height="69.5px" viewBox="0 -11 328 69.5" style="top:-11px">  <desc>News</desc>  <defs/>  <g id="Polygon66155">    <path d="M 147.5 0.2 L 147.5 16.6 L 146.4 16.6 L 134 2.3 L 134 16.6 L 132.7 16.6 L 132.7 0.2 L 133.8 0.2 L 146.2 14.5 L 146.2 0.2 L 147.5 0.2 Z M 160.2 0.2 L 160.2 1.3 L 152.5 1.3 L 152.5 7.8 L 160 7.8 L 160 8.9 L 152.5 8.9 L 152.5 15.5 L 160.4 15.5 L 160.4 16.6 L 151.3 16.6 L 151.3 0.2 L 160.2 0.2 Z M 173.5 2.9 L 168 16.7 L 167.7 16.7 L 161.1 0.2 L 162.4 0.2 L 167.8 13.8 L 173.3 0.2 L 173.7 0.2 L 179.2 13.8 L 184.6 0.2 L 185.9 0.2 L 179.3 16.7 L 179 16.7 L 173.5 2.9 Z M 191.7 0 C 192.9 0 194.2 0.3 195.4 1 C 195.4 1 195.4 2.4 195.4 2.4 C 194 1.6 192.8 1.2 191.8 1.2 C 190.8 1.2 190 1.5 189.3 2.1 C 188.6 2.7 188.3 3.4 188.3 4.3 C 188.3 4.9 188.5 5.5 188.9 6 C 189.3 6.5 190.1 7 191.3 7.5 C 192.6 7.9 193.5 8.3 194.1 8.6 C 194.6 8.9 195.1 9.4 195.5 10 C 195.9 10.6 196.1 11.4 196.1 12.3 C 196.1 13.6 195.7 14.6 194.7 15.5 C 193.8 16.4 192.7 16.8 191.4 16.8 C 190 16.8 188.6 16.3 187.2 15.4 C 187.2 15.4 187.2 13.9 187.2 13.9 C 188.8 15 190.1 15.6 191.3 15.6 C 192.3 15.6 193.1 15.3 193.7 14.7 C 194.4 14 194.7 13.3 194.7 12.4 C 194.7 11.7 194.5 11 194.1 10.5 C 193.7 9.9 192.9 9.4 191.6 8.9 C 190.3 8.4 189.4 8 188.9 7.7 C 188.4 7.4 187.9 7 187.5 6.5 C 187.1 5.9 186.9 5.2 186.9 4.3 C 186.9 3.1 187.4 2.1 188.3 1.3 C 189.2 0.4 190.4 0 191.7 0 C 191.7 0 191.7 0 191.7 0 Z " stroke="none" fill="#ffffff"/>  </g></svg>