<?xml version="1.0" standalone="no"?><!DOCTYPE svg PUBLIC "-//W3C//DTD SVG 1.1//EN" "http://www.w3.org/Graphics/SVG/1.1/DTD/svg11.dtd"><svg xmlns="http://www.w3.org/2000/svg" version="1.1" width="211px" height="78.4px" viewBox="0 -1 211 78.4" style="top:-1px">  <desc>Managed Services</desc>  <defs/>  <g id="Polygon68541">    <path d="M 72.1 40.9 C 73.2 40.9 74.2 41.2 75.2 41.7 C 75.2 41.7 75.2 42.8 75.2 42.8 C 74 42.2 73.1 41.8 72.2 41.8 C 71.5 41.8 70.8 42.1 70.3 42.5 C 69.7 43 69.5 43.6 69.5 44.3 C 69.5 44.8 69.6 45.3 69.9 45.7 C 70.3 46.1 70.9 46.5 71.9 46.9 C 72.9 47.2 73.6 47.5 74.1 47.8 C 74.5 48 74.9 48.4 75.2 48.9 C 75.6 49.4 75.7 50 75.7 50.7 C 75.7 51.7 75.3 52.6 74.6 53.3 C 73.9 54 73 54.3 71.9 54.3 C 70.8 54.3 69.7 53.9 68.6 53.2 C 68.6 53.2 68.6 52 68.6 52 C 69.8 52.9 70.9 53.4 71.9 53.4 C 72.6 53.4 73.3 53.1 73.8 52.6 C 74.4 52.1 74.6 51.5 74.6 50.8 C 74.6 50.2 74.5 49.7 74.1 49.3 C 73.8 48.8 73.1 48.4 72.1 48 C 71.1 47.6 70.4 47.3 69.9 47.1 C 69.5 46.8 69.1 46.5 68.8 46.1 C 68.5 45.6 68.4 45.1 68.4 44.4 C 68.4 43.4 68.7 42.6 69.5 41.9 C 70.2 41.2 71.1 40.9 72.1 40.9 C 72.1 40.9 72.1 40.9 72.1 40.9 Z M 85.2 41.1 L 85.2 41.9 L 79.1 41.9 L 79.1 47.1 L 85 47.1 L 85 48 L 79.1 48 L 79.1 53.3 L 85.3 53.3 L 85.3 54.2 L 78 54.2 L 78 41.1 L 85.2 41.1 Z M 87.4 41.1 C 87.4 41.1 90.79 41.06 90.8 41.1 C 92.2 41.1 93.3 41.4 94 42 C 94.8 42.6 95.1 43.4 95.1 44.4 C 95.1 46 94.3 47 92.6 47.6 C 93.1 47.8 93.7 48.5 94.4 49.6 C 94.38 49.62 97.3 54.2 97.3 54.2 L 96.1 54.2 C 96.1 54.2 93.87 50.56 93.9 50.6 C 93.1 49.4 92.5 48.6 92.1 48.3 C 91.7 48 91 47.9 90.2 47.9 C 90.22 47.87 88.4 47.9 88.4 47.9 L 88.4 54.2 L 87.4 54.2 L 87.4 41.1 Z M 88.4 41.9 L 88.4 47 C 88.4 47 90.62 47.03 90.6 47 C 91.7 47 92.6 46.8 93.2 46.4 C 93.7 45.9 94 45.3 94 44.5 C 94 43.7 93.7 43 93.1 42.6 C 92.6 42.1 91.7 41.9 90.6 41.9 C 90.59 41.9 88.4 41.9 88.4 41.9 Z M 107.7 41.1 L 102.2 54.3 L 101.9 54.3 L 96.4 41.1 L 97.4 41.1 L 102.1 52.1 L 106.7 41.1 L 107.7 41.1 Z M 110.3 41.1 L 110.3 54.2 L 109.3 54.2 L 109.3 41.1 L 110.3 41.1 Z M 119.6 40.9 C 121 40.9 122.6 41.3 124.2 42 C 124.2 42 124.2 43.1 124.2 43.1 C 122.6 42.2 121 41.8 119.5 41.8 C 117.9 41.8 116.5 42.4 115.4 43.5 C 114.3 44.6 113.8 46 113.8 47.6 C 113.8 49.3 114.3 50.7 115.4 51.8 C 116.5 52.8 117.9 53.4 119.6 53.4 C 121.1 53.4 122.6 52.9 124.3 52 C 124.3 52 124.3 53.1 124.3 53.1 C 122.8 53.9 121.2 54.3 119.7 54.3 C 117.7 54.3 116 53.7 114.7 52.4 C 113.4 51.1 112.7 49.5 112.7 47.6 C 112.7 45.7 113.4 44.1 114.7 42.8 C 116.1 41.5 117.7 40.9 119.6 40.9 C 119.6 40.9 119.6 40.9 119.6 40.9 Z M 133.4 41.1 L 133.4 41.9 L 127.3 41.9 L 127.3 47.1 L 133.3 47.1 L 133.3 48 L 127.3 48 L 127.3 53.3 L 133.6 53.3 L 133.6 54.2 L 126.3 54.2 L 126.3 41.1 L 133.4 41.1 Z M 138.8 40.9 C 139.8 40.9 140.8 41.2 141.8 41.7 C 141.8 41.7 141.8 42.8 141.8 42.8 C 140.7 42.2 139.7 41.8 138.9 41.8 C 138.1 41.8 137.5 42.1 136.9 42.5 C 136.4 43 136.1 43.6 136.1 44.3 C 136.1 44.8 136.3 45.3 136.6 45.7 C 136.9 46.1 137.6 46.5 138.6 46.9 C 139.6 47.2 140.3 47.5 140.7 47.8 C 141.2 48 141.6 48.4 141.9 48.9 C 142.2 49.4 142.4 50 142.4 50.7 C 142.4 51.7 142 52.6 141.3 53.3 C 140.5 54 139.6 54.3 138.6 54.3 C 137.5 54.3 136.4 53.9 135.2 53.2 C 135.2 53.2 135.2 52 135.2 52 C 136.5 52.9 137.6 53.4 138.5 53.4 C 139.3 53.4 140 53.1 140.5 52.6 C 141 52.1 141.3 51.5 141.3 50.8 C 141.3 50.2 141.1 49.7 140.8 49.3 C 140.5 48.8 139.8 48.4 138.8 48 C 137.8 47.6 137 47.3 136.6 47.1 C 136.2 46.8 135.8 46.5 135.5 46.1 C 135.2 45.6 135 45.1 135 44.4 C 135 43.4 135.4 42.6 136.1 41.9 C 136.9 41.2 137.8 40.9 138.8 40.9 C 138.8 40.9 138.8 40.9 138.8 40.9 Z " stroke="none" fill="#ffffff"/>  </g>  <g id="Polygon68540">    <path d="M 66.9 24.1 L 71.9 18 L 72.9 18 L 72.9 31.1 L 71.9 31.1 L 71.9 19.5 L 66.9 25.6 L 61.9 19.5 L 61.9 31.1 L 60.9 31.1 L 60.9 18 L 61.9 18 L 66.9 24.1 Z M 81.1 17.9 L 87.1 31.1 L 86.1 31.1 L 84 26.6 L 77.6 26.6 L 75.5 31.1 L 74.5 31.1 L 80.5 17.9 L 81.1 17.9 Z M 83.6 25.7 L 80.8 19.6 L 78 25.7 L 83.6 25.7 Z M 100.5 18 L 100.5 31.1 L 99.7 31.1 L 89.7 19.7 L 89.7 31.1 L 88.7 31.1 L 88.7 18 L 89.5 18 L 99.5 29.5 L 99.5 18 L 100.5 18 Z M 108.7 17.9 L 114.7 31.1 L 113.7 31.1 L 111.6 26.6 L 105.2 26.6 L 103.1 31.1 L 102.1 31.1 L 108.1 17.9 L 108.7 17.9 Z M 111.2 25.7 L 108.4 19.6 L 105.6 25.7 L 111.2 25.7 Z M 121.8 17.8 C 123.2 17.8 124.7 18.2 126.3 19 C 126.3 19 126.3 20.1 126.3 20.1 C 124.8 19.2 123.2 18.8 121.7 18.8 C 120 18.8 118.6 19.3 117.5 20.4 C 116.4 21.5 115.9 22.9 115.9 24.6 C 115.9 26.2 116.4 27.6 117.5 28.7 C 118.6 29.8 120.1 30.3 122 30.3 C 123.3 30.3 124.5 30.1 125.6 29.5 C 125.55 29.54 125.6 26 125.6 26 L 122.8 26 L 122.8 25.2 L 126.6 25.2 C 126.6 25.2 126.57 30.18 126.6 30.2 C 125 30.9 123.5 31.3 121.9 31.3 C 119.9 31.3 118.2 30.6 116.8 29.4 C 115.5 28.1 114.8 26.5 114.8 24.5 C 114.8 22.6 115.5 21 116.8 19.8 C 118.1 18.5 119.8 17.8 121.8 17.8 C 121.8 17.8 121.8 17.8 121.8 17.8 Z M 136.3 18 L 136.3 18.9 L 130.2 18.9 L 130.2 24.1 L 136.2 24.1 L 136.2 25 L 130.2 25 L 130.2 30.3 L 136.5 30.3 L 136.5 31.1 L 129.2 31.1 L 129.2 18 L 136.3 18 Z M 138.6 18 C 138.6 18 143.17 18.02 143.2 18 C 145.5 18 147.3 18.6 148.5 19.8 C 149.7 21.1 150.3 22.6 150.3 24.6 C 150.3 26.5 149.7 28 148.5 29.3 C 147.3 30.5 145.6 31.1 143.3 31.1 C 143.34 31.11 138.6 31.1 138.6 31.1 L 138.6 18 Z M 139.6 18.9 L 139.6 30.3 C 139.6 30.3 143.29 30.27 143.3 30.3 C 145 30.3 146.4 29.7 147.5 28.7 C 148.6 27.7 149.2 26.3 149.2 24.6 C 149.2 22.9 148.7 21.5 147.5 20.5 C 146.4 19.4 145 18.9 143.2 18.9 C 143.22 18.86 139.6 18.9 139.6 18.9 Z " stroke="none" fill="#ffffff"/>  </g></svg>