<?xml version="1.0" standalone="no"?><!DOCTYPE svg PUBLIC "-//W3C//DTD SVG 1.1//EN" "http://www.w3.org/Graphics/SVG/1.1/DTD/svg11.dtd"><svg xmlns="http://www.w3.org/2000/svg" version="1.1" width="492px" height="106.6px" viewBox="0 -16 492 106.6" style="top:-16px">  <desc>News Read all the latest news and views from the team.</desc>  <defs/>  <g id="Polygon62949">    <path d="M 5 77.7 L 5 61.9 C 5 61.9 11.93 61.92 11.9 61.9 C 13.3 61.9 14.4 62.1 15.1 62.3 C 15.9 62.6 16.4 63.1 16.9 63.8 C 17.3 64.6 17.5 65.4 17.5 66.2 C 17.5 67.3 17.2 68.3 16.5 69 C 15.7 69.8 14.6 70.3 13.1 70.5 C 13.7 70.8 14.1 71 14.4 71.3 C 15 71.9 15.5 72.5 16.1 73.4 C 16.09 73.39 18.8 77.7 18.8 77.7 L 16.2 77.7 C 16.2 77.7 14.12 74.4 14.1 74.4 C 13.5 73.5 13 72.7 12.6 72.2 C 12.2 71.7 11.9 71.4 11.6 71.2 C 11.3 71 10.9 70.8 10.6 70.8 C 10.4 70.7 10 70.7 9.5 70.7 C 9.45 70.68 7 70.7 7 70.7 L 7 77.7 L 5 77.7 Z M 7 68.9 C 7 68.9 11.51 68.88 11.5 68.9 C 12.5 68.9 13.2 68.8 13.7 68.6 C 14.3 68.4 14.7 68.1 15 67.6 C 15.3 67.2 15.4 66.7 15.4 66.2 C 15.4 65.5 15.1 64.9 14.6 64.4 C 14 63.9 13.2 63.7 12 63.7 C 12.02 63.67 7 63.7 7 63.7 L 7 68.9 Z M 28.4 74 C 28.4 74 30.4 74.2 30.4 74.2 C 30.1 75.4 29.5 76.3 28.6 77 C 27.8 77.6 26.7 77.9 25.3 77.9 C 23.7 77.9 22.4 77.4 21.4 76.4 C 20.4 75.4 19.9 73.9 19.9 72.1 C 19.9 70.1 20.4 68.7 21.4 67.6 C 22.4 66.5 23.7 66 25.2 66 C 26.8 66 28 66.5 29 67.6 C 29.9 68.6 30.4 70.1 30.4 71.9 C 30.4 72.1 30.4 72.2 30.4 72.5 C 30.4 72.5 21.9 72.5 21.9 72.5 C 22 73.7 22.3 74.7 23 75.3 C 23.6 76 24.4 76.3 25.4 76.3 C 26.1 76.3 26.7 76.2 27.2 75.8 C 27.7 75.4 28.1 74.8 28.4 74 Z M 22 70.9 C 22 70.9 28.4 70.9 28.4 70.9 C 28.3 69.9 28.1 69.2 27.7 68.7 C 27 68 26.2 67.6 25.3 67.6 C 24.4 67.6 23.6 67.9 23 68.5 C 22.4 69.1 22.1 69.9 22 70.9 Z M 40.6 77.7 C 40.4 77.3 40.3 76.8 40.2 76.3 C 39.5 76.9 38.8 77.3 38.2 77.6 C 37.5 77.8 36.8 77.9 36 77.9 C 34.8 77.9 33.8 77.6 33.1 77 C 32.5 76.4 32.1 75.6 32.1 74.7 C 32.1 74.1 32.3 73.6 32.5 73.1 C 32.8 72.7 33.1 72.3 33.5 72 C 33.9 71.7 34.4 71.5 34.9 71.4 C 35.3 71.3 35.9 71.2 36.6 71.1 C 38.2 70.9 39.3 70.7 40.1 70.4 C 40.1 70.2 40.1 70 40.1 69.9 C 40.1 69.1 39.9 68.6 39.5 68.3 C 39 67.8 38.3 67.6 37.3 67.6 C 36.4 67.6 35.8 67.8 35.3 68.1 C 34.9 68.4 34.6 69 34.4 69.8 C 34.4 69.8 32.5 69.5 32.5 69.5 C 32.6 68.7 32.9 68.1 33.3 67.6 C 33.7 67.1 34.3 66.7 35 66.4 C 35.8 66.1 36.6 66 37.6 66 C 38.6 66 39.4 66.1 40 66.4 C 40.6 66.6 41 66.9 41.3 67.2 C 41.6 67.6 41.8 68 41.9 68.5 C 42 68.9 42 69.5 42 70.3 C 42 70.3 42 72.9 42 72.9 C 42 74.7 42.1 75.8 42.2 76.3 C 42.2 76.8 42.4 77.2 42.6 77.7 C 42.64 77.67 40.6 77.7 40.6 77.7 C 40.6 77.7 40.62 77.67 40.6 77.7 Z M 40.1 71.9 C 39.4 72.2 38.3 72.5 36.9 72.7 C 36.1 72.8 35.6 72.9 35.2 73.1 C 34.9 73.2 34.6 73.4 34.5 73.7 C 34.3 74 34.2 74.3 34.2 74.6 C 34.2 75.1 34.4 75.6 34.8 75.9 C 35.2 76.2 35.7 76.4 36.5 76.4 C 37.2 76.4 37.9 76.3 38.5 75.9 C 39.1 75.6 39.5 75.2 39.8 74.6 C 40 74.2 40.1 73.5 40.1 72.7 C 40.1 72.7 40.1 71.9 40.1 71.9 Z M 52.4 77.7 C 52.4 77.7 52.43 76.23 52.4 76.2 C 51.7 77.4 50.6 77.9 49.2 77.9 C 48.3 77.9 47.5 77.7 46.7 77.2 C 46 76.7 45.4 76 45 75.1 C 44.5 74.2 44.3 73.1 44.3 72 C 44.3 70.8 44.5 69.8 44.9 68.9 C 45.3 68 45.8 67.2 46.6 66.7 C 47.4 66.3 48.2 66 49.2 66 C 49.8 66 50.5 66.2 51 66.4 C 51.5 66.7 52 67.1 52.3 67.6 C 52.3 67.58 52.3 61.9 52.3 61.9 L 54.2 61.9 L 54.2 77.7 L 52.4 77.7 Z M 46.3 72 C 46.3 73.4 46.6 74.5 47.2 75.3 C 47.9 76 48.6 76.3 49.4 76.3 C 50.3 76.3 51 76 51.6 75.3 C 52.2 74.6 52.5 73.6 52.5 72.1 C 52.5 70.6 52.2 69.4 51.6 68.7 C 51 68 50.2 67.6 49.3 67.6 C 48.5 67.6 47.8 68 47.2 68.7 C 46.6 69.4 46.3 70.5 46.3 72 Z M 71.2 77.7 C 71 77.3 70.9 76.8 70.8 76.3 C 70.1 76.9 69.4 77.3 68.8 77.6 C 68.1 77.8 67.4 77.9 66.6 77.9 C 65.4 77.9 64.4 77.6 63.7 77 C 63.1 76.4 62.7 75.6 62.7 74.7 C 62.7 74.1 62.8 73.6 63.1 73.1 C 63.4 72.7 63.7 72.3 64.1 72 C 64.5 71.7 65 71.5 65.5 71.4 C 65.9 71.3 66.4 71.2 67.2 71.1 C 68.8 70.9 69.9 70.7 70.7 70.4 C 70.7 70.2 70.7 70 70.7 69.9 C 70.7 69.1 70.5 68.6 70.1 68.3 C 69.6 67.8 68.9 67.6 67.9 67.6 C 67 67.6 66.3 67.8 65.9 68.1 C 65.5 68.4 65.2 69 64.9 69.8 C 64.9 69.8 63.1 69.5 63.1 69.5 C 63.2 68.7 63.5 68.1 63.9 67.6 C 64.3 67.1 64.9 66.7 65.6 66.4 C 66.4 66.1 67.2 66 68.2 66 C 69.2 66 70 66.1 70.6 66.4 C 71.2 66.6 71.6 66.9 71.9 67.2 C 72.2 67.6 72.4 68 72.5 68.5 C 72.6 68.9 72.6 69.5 72.6 70.3 C 72.6 70.3 72.6 72.9 72.6 72.9 C 72.6 74.7 72.7 75.8 72.7 76.3 C 72.8 76.8 73 77.2 73.2 77.7 C 73.23 77.67 71.2 77.7 71.2 77.7 C 71.2 77.7 71.21 77.67 71.2 77.7 Z M 70.7 71.9 C 70 72.2 68.9 72.5 67.5 72.7 C 66.7 72.8 66.1 72.9 65.8 73.1 C 65.5 73.2 65.2 73.4 65.1 73.7 C 64.9 74 64.8 74.3 64.8 74.6 C 64.8 75.1 65 75.6 65.4 75.9 C 65.8 76.2 66.3 76.4 67.1 76.4 C 67.8 76.4 68.5 76.3 69.1 75.9 C 69.7 75.6 70.1 75.2 70.3 74.6 C 70.6 74.2 70.7 73.5 70.7 72.7 C 70.7 72.7 70.7 71.9 70.7 71.9 Z M 75.6 77.7 L 75.6 61.9 L 77.5 61.9 L 77.5 77.7 L 75.6 77.7 Z M 80.5 77.7 L 80.5 61.9 L 82.4 61.9 L 82.4 77.7 L 80.5 77.7 Z M 94.9 76 C 95.1 76 95.4 76 95.7 75.9 C 95.7 75.9 96 77.7 96 77.7 C 95.5 77.8 95 77.8 94.5 77.8 C 93.8 77.8 93.3 77.7 92.9 77.5 C 92.5 77.3 92.2 77 92.1 76.6 C 91.9 76.3 91.9 75.5 91.9 74.3 C 91.85 74.33 91.9 67.8 91.9 67.8 L 90.4 67.8 L 90.4 66.3 L 91.9 66.3 L 91.9 63.4 L 93.8 62.3 L 93.8 66.3 L 95.7 66.3 L 95.7 67.8 L 93.8 67.8 C 93.8 67.8 93.78 74.44 93.8 74.4 C 93.8 75 93.8 75.3 93.9 75.5 C 93.9 75.7 94.1 75.8 94.2 75.9 C 94.4 76 94.6 76 94.9 76 C 94.9 76 94.9 76 94.9 76 Z M 97.6 77.7 L 97.6 61.9 L 99.5 61.9 C 99.5 61.9 99.55 67.58 99.5 67.6 C 100.4 66.5 101.6 66 103 66 C 103.8 66 104.5 66.2 105.2 66.5 C 105.8 66.8 106.2 67.3 106.5 67.9 C 106.8 68.5 106.9 69.3 106.9 70.4 C 106.9 70.44 106.9 77.7 106.9 77.7 L 105 77.7 C 105 77.7 104.97 70.44 105 70.4 C 105 69.5 104.8 68.8 104.3 68.3 C 103.9 67.9 103.3 67.7 102.6 67.7 C 102 67.7 101.5 67.8 100.9 68.1 C 100.4 68.4 100.1 68.8 99.9 69.3 C 99.7 69.8 99.5 70.5 99.5 71.4 C 99.55 71.43 99.5 77.7 99.5 77.7 L 97.6 77.7 Z M 117.7 74 C 117.7 74 119.7 74.2 119.7 74.2 C 119.3 75.4 118.8 76.3 117.9 77 C 117.1 77.6 116 77.9 114.6 77.9 C 113 77.9 111.6 77.4 110.7 76.4 C 109.7 75.4 109.2 73.9 109.2 72.1 C 109.2 70.1 109.7 68.7 110.7 67.6 C 111.7 66.5 113 66 114.5 66 C 116.1 66 117.3 66.5 118.3 67.6 C 119.2 68.6 119.7 70.1 119.7 71.9 C 119.7 72.1 119.7 72.2 119.7 72.5 C 119.7 72.5 111.2 72.5 111.2 72.5 C 111.3 73.7 111.6 74.7 112.3 75.3 C 112.9 76 113.7 76.3 114.6 76.3 C 115.4 76.3 116 76.2 116.5 75.8 C 117 75.4 117.4 74.8 117.7 74 Z M 111.3 70.9 C 111.3 70.9 117.7 70.9 117.7 70.9 C 117.6 69.9 117.3 69.2 116.9 68.7 C 116.3 68 115.5 67.6 114.6 67.6 C 113.7 67.6 112.9 67.9 112.3 68.5 C 111.7 69.1 111.4 69.9 111.3 70.9 Z M 128.2 77.7 L 128.2 61.9 L 130.1 61.9 L 130.1 77.7 L 128.2 77.7 Z M 140.9 77.7 C 140.7 77.3 140.6 76.8 140.5 76.3 C 139.8 76.9 139.1 77.3 138.5 77.6 C 137.8 77.8 137.1 77.9 136.3 77.9 C 135.1 77.9 134.1 77.6 133.4 77 C 132.8 76.4 132.4 75.6 132.4 74.7 C 132.4 74.1 132.6 73.6 132.8 73.1 C 133.1 72.7 133.4 72.3 133.8 72 C 134.2 71.7 134.7 71.5 135.2 71.4 C 135.6 71.3 136.2 71.2 136.9 71.1 C 138.5 70.9 139.6 70.7 140.4 70.4 C 140.4 70.2 140.4 70 140.4 69.9 C 140.4 69.1 140.2 68.6 139.8 68.3 C 139.3 67.8 138.6 67.6 137.6 67.6 C 136.7 67.6 136 67.8 135.6 68.1 C 135.2 68.4 134.9 69 134.7 69.8 C 134.7 69.8 132.8 69.5 132.8 69.5 C 132.9 68.7 133.2 68.1 133.6 67.6 C 134 67.1 134.6 66.7 135.3 66.4 C 136.1 66.1 136.9 66 137.9 66 C 138.9 66 139.7 66.1 140.3 66.4 C 140.9 66.6 141.3 66.9 141.6 67.2 C 141.9 67.6 142.1 68 142.2 68.5 C 142.3 68.9 142.3 69.5 142.3 70.3 C 142.3 70.3 142.3 72.9 142.3 72.9 C 142.3 74.7 142.4 75.8 142.4 76.3 C 142.5 76.8 142.7 77.2 142.9 77.7 C 142.93 77.67 140.9 77.7 140.9 77.7 C 140.9 77.7 140.91 77.67 140.9 77.7 Z M 140.4 71.9 C 139.7 72.2 138.6 72.5 137.2 72.7 C 136.4 72.8 135.9 72.9 135.5 73.1 C 135.2 73.2 134.9 73.4 134.8 73.7 C 134.6 74 134.5 74.3 134.5 74.6 C 134.5 75.1 134.7 75.6 135.1 75.9 C 135.5 76.2 136 76.4 136.8 76.4 C 137.5 76.4 138.2 76.3 138.8 75.9 C 139.4 75.6 139.8 75.2 140.1 74.6 C 140.3 74.2 140.4 73.5 140.4 72.7 C 140.4 72.7 140.4 71.9 140.4 71.9 Z M 148.7 76 C 148.9 76 149.2 76 149.5 75.9 C 149.5 75.9 149.8 77.7 149.8 77.7 C 149.3 77.8 148.8 77.8 148.4 77.8 C 147.7 77.8 147.1 77.7 146.7 77.5 C 146.3 77.3 146.1 77 145.9 76.6 C 145.8 76.3 145.7 75.5 145.7 74.3 C 145.67 74.33 145.7 67.8 145.7 67.8 L 144.3 67.8 L 144.3 66.3 L 145.7 66.3 L 145.7 63.4 L 147.6 62.3 L 147.6 66.3 L 149.5 66.3 L 149.5 67.8 L 147.6 67.8 C 147.6 67.8 147.6 74.44 147.6 74.4 C 147.6 75 147.6 75.3 147.7 75.5 C 147.8 75.7 147.9 75.8 148 75.9 C 148.2 76 148.4 76 148.7 76 C 148.7 76 148.7 76 148.7 76 Z M 159.2 74 C 159.2 74 161.2 74.2 161.2 74.2 C 160.9 75.4 160.3 76.3 159.5 77 C 158.6 77.6 157.5 77.9 156.2 77.9 C 154.6 77.9 153.2 77.4 152.3 76.4 C 151.3 75.4 150.8 73.9 150.8 72.1 C 150.8 70.1 151.3 68.7 152.3 67.6 C 153.3 66.5 154.5 66 156.1 66 C 157.6 66 158.9 66.5 159.9 67.6 C 160.8 68.6 161.3 70.1 161.3 71.9 C 161.3 72.1 161.3 72.2 161.3 72.5 C 161.3 72.5 152.8 72.5 152.8 72.5 C 152.9 73.7 153.2 74.7 153.8 75.3 C 154.5 76 155.3 76.3 156.2 76.3 C 156.9 76.3 157.5 76.2 158 75.8 C 158.5 75.4 158.9 74.8 159.2 74 Z M 152.9 70.9 C 152.9 70.9 159.3 70.9 159.3 70.9 C 159.2 69.9 158.9 69.2 158.5 68.7 C 157.9 68 157.1 67.6 156.1 67.6 C 155.2 67.6 154.5 67.9 153.9 68.5 C 153.3 69.1 153 69.9 152.9 70.9 Z M 162.9 74.3 C 162.9 74.3 164.8 74 164.8 74 C 164.9 74.7 165.2 75.3 165.7 75.7 C 166.2 76.1 166.9 76.3 167.8 76.3 C 168.6 76.3 169.3 76.2 169.7 75.8 C 170.2 75.4 170.4 75 170.4 74.5 C 170.4 74.1 170.2 73.7 169.8 73.5 C 169.5 73.3 168.9 73.1 167.8 72.8 C 166.4 72.5 165.4 72.2 164.9 71.9 C 164.3 71.6 163.9 71.3 163.6 70.8 C 163.4 70.4 163.2 69.9 163.2 69.3 C 163.2 68.8 163.3 68.3 163.6 67.9 C 163.8 67.4 164.1 67.1 164.5 66.8 C 164.8 66.6 165.2 66.4 165.7 66.2 C 166.3 66.1 166.8 66 167.4 66 C 168.3 66 169.1 66.1 169.8 66.4 C 170.4 66.7 170.9 67 171.3 67.4 C 171.6 67.9 171.8 68.5 171.9 69.2 C 171.9 69.2 170 69.5 170 69.5 C 170 68.9 169.7 68.4 169.3 68.1 C 168.9 67.8 168.3 67.6 167.6 67.6 C 166.7 67.6 166 67.7 165.7 68 C 165.3 68.3 165.1 68.7 165.1 69.1 C 165.1 69.3 165.2 69.5 165.3 69.7 C 165.5 70 165.7 70.1 166.1 70.3 C 166.3 70.3 166.8 70.5 167.8 70.8 C 169.1 71.1 170.1 71.4 170.6 71.7 C 171.2 71.9 171.6 72.2 171.9 72.7 C 172.2 73.1 172.4 73.7 172.4 74.3 C 172.4 75 172.2 75.6 171.8 76.1 C 171.4 76.7 170.9 77.2 170.2 77.5 C 169.5 77.8 168.7 77.9 167.8 77.9 C 166.3 77.9 165.2 77.6 164.4 77 C 163.6 76.4 163.1 75.5 162.9 74.3 Z M 178 76 C 178.3 76 178.5 76 178.9 75.9 C 178.9 75.9 179.2 77.7 179.2 77.7 C 178.6 77.8 178.1 77.8 177.7 77.8 C 177 77.8 176.5 77.7 176.1 77.5 C 175.7 77.3 175.4 77 175.3 76.6 C 175.1 76.3 175 75.5 175 74.3 C 175.02 74.33 175 67.8 175 67.8 L 173.6 67.8 L 173.6 66.3 L 175 66.3 L 175 63.4 L 176.9 62.3 L 176.9 66.3 L 178.9 66.3 L 178.9 67.8 L 176.9 67.8 C 176.9 67.8 176.94 74.44 176.9 74.4 C 176.9 75 177 75.3 177 75.5 C 177.1 75.7 177.2 75.8 177.4 75.9 C 177.5 76 177.8 76 178 76 C 178 76 178 76 178 76 Z M 186.9 77.7 L 186.9 66.3 L 188.6 66.3 C 188.6 66.3 188.63 67.89 188.6 67.9 C 189.5 66.6 190.7 66 192.3 66 C 192.9 66 193.6 66.1 194.2 66.4 C 194.7 66.6 195.2 66.9 195.5 67.3 C 195.7 67.8 195.9 68.2 196.1 68.8 C 196.1 69.1 196.2 69.8 196.2 70.7 C 196.16 70.66 196.2 77.7 196.2 77.7 L 194.2 77.7 C 194.2 77.7 194.23 70.73 194.2 70.7 C 194.2 69.9 194.2 69.4 194 69 C 193.9 68.6 193.6 68.3 193.2 68 C 192.8 67.8 192.4 67.7 191.9 67.7 C 191 67.7 190.3 67.9 189.7 68.5 C 189.1 69 188.8 70 188.8 71.4 C 188.82 71.44 188.8 77.7 188.8 77.7 L 186.9 77.7 Z M 206.9 74 C 206.9 74 208.9 74.2 208.9 74.2 C 208.6 75.4 208 76.3 207.2 77 C 206.3 77.6 205.2 77.9 203.9 77.9 C 202.2 77.9 200.9 77.4 199.9 76.4 C 199 75.4 198.5 73.9 198.5 72.1 C 198.5 70.1 199 68.7 200 67.6 C 201 66.5 202.2 66 203.8 66 C 205.3 66 206.6 66.5 207.5 67.6 C 208.5 68.6 209 70.1 209 71.9 C 209 72.1 209 72.2 209 72.5 C 209 72.5 200.5 72.5 200.5 72.5 C 200.6 73.7 200.9 74.7 201.5 75.3 C 202.2 76 203 76.3 203.9 76.3 C 204.6 76.3 205.2 76.2 205.7 75.8 C 206.2 75.4 206.6 74.8 206.9 74 Z M 200.6 70.9 C 200.6 70.9 207 70.9 207 70.9 C 206.9 69.9 206.6 69.2 206.2 68.7 C 205.6 68 204.8 67.6 203.8 67.6 C 202.9 67.6 202.2 67.9 201.6 68.5 C 201 69.1 200.7 69.9 200.6 70.9 Z M 213.5 77.7 L 210 66.3 L 212 66.3 L 213.8 72.8 C 213.8 72.8 214.47 75.3 214.5 75.3 C 214.5 75.2 214.7 74.4 215.1 72.9 C 215.06 72.95 216.9 66.3 216.9 66.3 L 218.9 66.3 L 220.6 72.9 L 221.1 75.1 L 221.8 72.9 L 223.7 66.3 L 225.6 66.3 L 222.1 77.7 L 220.1 77.7 L 218.2 70.8 L 217.8 68.9 L 215.5 77.7 L 213.5 77.7 Z M 226.5 74.3 C 226.5 74.3 228.4 74 228.4 74 C 228.5 74.7 228.8 75.3 229.3 75.7 C 229.8 76.1 230.5 76.3 231.3 76.3 C 232.2 76.3 232.9 76.2 233.3 75.8 C 233.7 75.4 234 75 234 74.5 C 234 74.1 233.8 73.7 233.4 73.5 C 233.1 73.3 232.5 73.1 231.4 72.8 C 230 72.5 229 72.2 228.5 71.9 C 227.9 71.6 227.5 71.3 227.2 70.8 C 226.9 70.4 226.8 69.9 226.8 69.3 C 226.8 68.8 226.9 68.3 227.1 67.9 C 227.4 67.4 227.7 67.1 228.1 66.8 C 228.4 66.6 228.8 66.4 229.3 66.2 C 229.8 66.1 230.4 66 231 66 C 231.9 66 232.7 66.1 233.4 66.4 C 234 66.7 234.5 67 234.9 67.4 C 235.2 67.9 235.4 68.5 235.5 69.2 C 235.5 69.2 233.6 69.5 233.6 69.5 C 233.5 68.9 233.3 68.4 232.9 68.1 C 232.5 67.8 231.9 67.6 231.1 67.6 C 230.2 67.6 229.6 67.7 229.2 68 C 228.9 68.3 228.7 68.7 228.7 69.1 C 228.7 69.3 228.7 69.5 228.9 69.7 C 229.1 70 229.3 70.1 229.6 70.3 C 229.8 70.3 230.4 70.5 231.4 70.8 C 232.7 71.1 233.7 71.4 234.2 71.7 C 234.8 71.9 235.2 72.2 235.5 72.7 C 235.8 73.1 236 73.7 236 74.3 C 236 75 235.8 75.6 235.4 76.1 C 235 76.7 234.5 77.2 233.8 77.5 C 233 77.8 232.2 77.9 231.4 77.9 C 229.9 77.9 228.7 77.6 228 77 C 227.2 76.4 226.7 75.5 226.5 74.3 Z M 252.2 77.7 C 252 77.3 251.9 76.8 251.8 76.3 C 251.1 76.9 250.4 77.3 249.7 77.6 C 249.1 77.8 248.4 77.9 247.6 77.9 C 246.4 77.9 245.4 77.6 244.7 77 C 244 76.4 243.7 75.6 243.7 74.7 C 243.7 74.1 243.8 73.6 244.1 73.1 C 244.3 72.7 244.7 72.3 245.1 72 C 245.5 71.7 246 71.5 246.5 71.4 C 246.9 71.3 247.4 71.2 248.2 71.1 C 249.8 70.9 250.9 70.7 251.6 70.4 C 251.7 70.2 251.7 70 251.7 69.9 C 251.7 69.1 251.5 68.6 251.1 68.3 C 250.6 67.8 249.9 67.6 248.9 67.6 C 248 67.6 247.3 67.8 246.9 68.1 C 246.5 68.4 246.1 69 245.9 69.8 C 245.9 69.8 244 69.5 244 69.5 C 244.2 68.7 244.5 68.1 244.9 67.6 C 245.3 67.1 245.9 66.7 246.6 66.4 C 247.3 66.1 248.2 66 249.2 66 C 250.2 66 250.9 66.1 251.6 66.4 C 252.2 66.6 252.6 66.9 252.9 67.2 C 253.2 67.6 253.4 68 253.5 68.5 C 253.6 68.9 253.6 69.5 253.6 70.3 C 253.6 70.3 253.6 72.9 253.6 72.9 C 253.6 74.7 253.6 75.8 253.7 76.3 C 253.8 76.8 254 77.2 254.2 77.7 C 254.21 77.67 252.2 77.7 252.2 77.7 C 252.2 77.7 252.19 77.67 252.2 77.7 Z M 251.6 71.9 C 250.9 72.2 249.9 72.5 248.5 72.7 C 247.7 72.8 247.1 72.9 246.8 73.1 C 246.5 73.2 246.2 73.4 246 73.7 C 245.9 74 245.8 74.3 245.8 74.6 C 245.8 75.1 246 75.6 246.4 75.9 C 246.7 76.2 247.3 76.4 248.1 76.4 C 248.8 76.4 249.5 76.3 250.1 75.9 C 250.6 75.6 251.1 75.2 251.3 74.6 C 251.5 74.2 251.6 73.5 251.6 72.7 C 251.6 72.7 251.6 71.9 251.6 71.9 Z M 256.6 77.7 L 256.6 66.3 L 258.3 66.3 C 258.3 66.3 258.34 67.89 258.3 67.9 C 259.2 66.6 260.4 66 262 66 C 262.7 66 263.3 66.1 263.9 66.4 C 264.4 66.6 264.9 66.9 265.2 67.3 C 265.4 67.8 265.6 68.2 265.8 68.8 C 265.8 69.1 265.9 69.8 265.9 70.7 C 265.87 70.66 265.9 77.7 265.9 77.7 L 263.9 77.7 C 263.9 77.7 263.93 70.73 263.9 70.7 C 263.9 69.9 263.9 69.4 263.7 69 C 263.6 68.6 263.3 68.3 262.9 68 C 262.5 67.8 262.1 67.7 261.6 67.7 C 260.7 67.7 260 67.9 259.4 68.5 C 258.8 69 258.5 70 258.5 71.4 C 258.53 71.44 258.5 77.7 258.5 77.7 L 256.6 77.7 Z M 276.2 77.7 C 276.2 77.7 276.23 76.23 276.2 76.2 C 275.5 77.4 274.4 77.9 273 77.9 C 272.1 77.9 271.3 77.7 270.5 77.2 C 269.8 76.7 269.2 76 268.8 75.1 C 268.3 74.2 268.1 73.1 268.1 72 C 268.1 70.8 268.3 69.8 268.7 68.9 C 269.1 68 269.7 67.2 270.4 66.7 C 271.2 66.3 272 66 273 66 C 273.6 66 274.3 66.2 274.8 66.4 C 275.3 66.7 275.8 67.1 276.1 67.6 C 276.1 67.58 276.1 61.9 276.1 61.9 L 278 61.9 L 278 77.7 L 276.2 77.7 Z M 270.1 72 C 270.1 73.4 270.4 74.5 271 75.3 C 271.7 76 272.4 76.3 273.2 76.3 C 274.1 76.3 274.8 76 275.4 75.3 C 276 74.6 276.3 73.6 276.3 72.1 C 276.3 70.6 276 69.4 275.4 68.7 C 274.8 68 274 67.6 273.1 67.6 C 272.3 67.6 271.6 68 271 68.7 C 270.4 69.4 270.1 70.5 270.1 72 Z M 290.3 77.7 L 286 66.3 L 288 66.3 C 288 66.3 290.5 73.1 290.5 73.1 C 290.8 73.8 291 74.6 291.2 75.4 C 291.4 74.8 291.6 74.1 291.9 73.2 C 291.95 73.23 294.5 66.3 294.5 66.3 L 296.5 66.3 L 292.2 77.7 L 290.3 77.7 Z M 298.2 64.1 L 298.2 61.9 L 300.1 61.9 L 300.1 64.1 L 298.2 64.1 Z M 298.2 77.7 L 298.2 66.3 L 300.1 66.3 L 300.1 77.7 L 298.2 77.7 Z M 310.9 74 C 310.9 74 312.9 74.2 312.9 74.2 C 312.6 75.4 312 76.3 311.1 77 C 310.3 77.6 309.2 77.9 307.9 77.9 C 306.2 77.9 304.9 77.4 303.9 76.4 C 302.9 75.4 302.4 73.9 302.4 72.1 C 302.4 70.1 302.9 68.7 303.9 67.6 C 304.9 66.5 306.2 66 307.8 66 C 309.3 66 310.5 66.5 311.5 67.6 C 312.5 68.6 312.9 70.1 312.9 71.9 C 312.9 72.1 312.9 72.2 312.9 72.5 C 312.9 72.5 304.4 72.5 304.4 72.5 C 304.5 73.7 304.8 74.7 305.5 75.3 C 306.1 76 306.9 76.3 307.9 76.3 C 308.6 76.3 309.2 76.2 309.7 75.8 C 310.2 75.4 310.6 74.8 310.9 74 Z M 304.5 70.9 C 304.5 70.9 310.9 70.9 310.9 70.9 C 310.8 69.9 310.6 69.2 310.2 68.7 C 309.6 68 308.8 67.6 307.8 67.6 C 306.9 67.6 306.1 67.9 305.5 68.5 C 304.9 69.1 304.6 69.9 304.5 70.9 Z M 317.4 77.7 L 313.9 66.3 L 315.9 66.3 L 317.7 72.8 C 317.7 72.8 318.41 75.3 318.4 75.3 C 318.4 75.2 318.6 74.4 319 72.9 C 319 72.95 320.8 66.3 320.8 66.3 L 322.8 66.3 L 324.5 72.9 L 325.1 75.1 L 325.7 72.9 L 327.7 66.3 L 329.6 66.3 L 326 77.7 L 324 77.7 L 322.2 70.8 L 321.7 68.9 L 319.4 77.7 L 317.4 77.7 Z M 330.4 74.3 C 330.4 74.3 332.3 74 332.3 74 C 332.4 74.7 332.7 75.3 333.2 75.7 C 333.7 76.1 334.4 76.3 335.3 76.3 C 336.2 76.3 336.8 76.2 337.3 75.8 C 337.7 75.4 337.9 75 337.9 74.5 C 337.9 74.1 337.7 73.7 337.3 73.5 C 337.1 73.3 336.4 73.1 335.4 72.8 C 333.9 72.5 333 72.2 332.4 71.9 C 331.9 71.6 331.4 71.3 331.2 70.8 C 330.9 70.4 330.7 69.9 330.7 69.3 C 330.7 68.8 330.9 68.3 331.1 67.9 C 331.3 67.4 331.6 67.1 332 66.8 C 332.3 66.6 332.7 66.4 333.3 66.2 C 333.8 66.1 334.3 66 334.9 66 C 335.8 66 336.6 66.1 337.3 66.4 C 338 66.7 338.5 67 338.8 67.4 C 339.1 67.9 339.3 68.5 339.5 69.2 C 339.5 69.2 337.6 69.5 337.6 69.5 C 337.5 68.9 337.2 68.4 336.8 68.1 C 336.4 67.8 335.8 67.6 335.1 67.6 C 334.2 67.6 333.6 67.7 333.2 68 C 332.8 68.3 332.6 68.7 332.6 69.1 C 332.6 69.3 332.7 69.5 332.8 69.7 C 333 70 333.2 70.1 333.6 70.3 C 333.8 70.3 334.3 70.5 335.3 70.8 C 336.7 71.1 337.6 71.4 338.2 71.7 C 338.7 71.9 339.1 72.2 339.4 72.7 C 339.7 73.1 339.9 73.7 339.9 74.3 C 339.9 75 339.7 75.6 339.3 76.1 C 339 76.7 338.4 77.2 337.7 77.5 C 337 77.8 336.2 77.9 335.3 77.9 C 333.8 77.9 332.7 77.6 331.9 77 C 331.1 76.4 330.6 75.5 330.4 74.3 Z M 348.8 77.7 L 348.8 67.8 L 347.1 67.8 L 347.1 66.3 L 348.8 66.3 C 348.8 66.3 348.76 65.05 348.8 65.1 C 348.8 64.3 348.8 63.7 349 63.3 C 349.2 62.8 349.5 62.4 350 62.1 C 350.4 61.8 351.1 61.7 351.9 61.7 C 352.5 61.7 353.1 61.7 353.7 61.8 C 353.7 61.8 353.4 63.5 353.4 63.5 C 353 63.5 352.7 63.4 352.3 63.4 C 351.7 63.4 351.3 63.6 351.1 63.8 C 350.8 64.1 350.7 64.5 350.7 65.2 C 350.69 65.21 350.7 66.3 350.7 66.3 L 352.9 66.3 L 352.9 67.8 L 350.7 67.8 L 350.7 77.7 L 348.8 77.7 Z M 354.4 77.7 L 354.4 66.3 L 356.1 66.3 C 356.1 66.3 356.13 67.99 356.1 68 C 356.6 67.2 357 66.7 357.4 66.4 C 357.7 66.1 358.2 66 358.6 66 C 359.3 66 359.9 66.2 360.6 66.6 C 360.6 66.6 359.9 68.4 359.9 68.4 C 359.5 68.1 359 68 358.5 68 C 358.1 68 357.7 68.1 357.4 68.4 C 357 68.6 356.8 69 356.6 69.4 C 356.4 70.1 356.3 70.9 356.3 71.7 C 356.33 71.7 356.3 77.7 356.3 77.7 L 354.4 77.7 Z M 361 72 C 361 69.9 361.6 68.3 362.8 67.3 C 363.8 66.4 365 66 366.4 66 C 367.9 66 369.2 66.5 370.2 67.5 C 371.2 68.6 371.7 70 371.7 71.8 C 371.7 73.3 371.5 74.4 371 75.3 C 370.6 76.1 370 76.8 369.1 77.2 C 368.3 77.7 367.4 77.9 366.4 77.9 C 364.8 77.9 363.5 77.4 362.5 76.4 C 361.5 75.4 361 73.9 361 72 Z M 363 72 C 363 73.4 363.3 74.5 364 75.3 C 364.6 76 365.4 76.3 366.4 76.3 C 367.3 76.3 368.1 76 368.8 75.2 C 369.4 74.5 369.7 73.4 369.7 71.9 C 369.7 70.5 369.4 69.4 368.8 68.7 C 368.1 68 367.3 67.6 366.4 67.6 C 365.4 67.6 364.6 68 364 68.7 C 363.3 69.4 363 70.5 363 72 Z M 374 77.7 L 374 66.3 L 375.7 66.3 C 375.7 66.3 375.71 67.87 375.7 67.9 C 376.1 67.3 376.5 66.9 377.1 66.5 C 377.7 66.2 378.4 66 379.2 66 C 380 66 380.7 66.2 381.2 66.5 C 381.8 66.9 382.2 67.4 382.4 68 C 383.3 66.7 384.5 66 385.9 66 C 387 66 387.9 66.3 388.5 66.9 C 389.1 67.6 389.4 68.5 389.4 69.8 C 389.43 69.84 389.4 77.7 389.4 77.7 L 387.5 77.7 C 387.5 77.7 387.51 70.49 387.5 70.5 C 387.5 69.7 387.4 69.2 387.3 68.8 C 387.2 68.5 387 68.2 386.6 68 C 386.3 67.8 385.9 67.7 385.5 67.7 C 384.7 67.7 384 67.9 383.5 68.5 C 383 69 382.7 69.9 382.7 71 C 382.69 71.05 382.7 77.7 382.7 77.7 L 380.8 77.7 C 380.8 77.7 380.75 70.26 380.8 70.3 C 380.8 69.4 380.6 68.8 380.3 68.3 C 380 67.9 379.5 67.7 378.7 67.7 C 378.2 67.7 377.7 67.8 377.2 68.1 C 376.8 68.4 376.4 68.8 376.2 69.4 C 376 69.9 375.9 70.7 375.9 71.8 C 375.91 71.75 375.9 77.7 375.9 77.7 L 374 77.7 Z M 401.8 76 C 402 76 402.3 76 402.6 75.9 C 402.6 75.9 402.9 77.7 402.9 77.7 C 402.4 77.8 401.9 77.8 401.5 77.8 C 400.8 77.8 400.2 77.7 399.8 77.5 C 399.4 77.3 399.2 77 399 76.6 C 398.8 76.3 398.8 75.5 398.8 74.3 C 398.77 74.33 398.8 67.8 398.8 67.8 L 397.4 67.8 L 397.4 66.3 L 398.8 66.3 L 398.8 63.4 L 400.7 62.3 L 400.7 66.3 L 402.6 66.3 L 402.6 67.8 L 400.7 67.8 C 400.7 67.8 400.69 74.44 400.7 74.4 C 400.7 75 400.7 75.3 400.8 75.5 C 400.9 75.7 401 75.8 401.1 75.9 C 401.3 76 401.5 76 401.8 76 C 401.8 76 401.8 76 401.8 76 Z M 404.5 77.7 L 404.5 61.9 L 406.5 61.9 C 406.5 61.9 406.46 67.58 406.5 67.6 C 407.4 66.5 408.5 66 409.9 66 C 410.7 66 411.5 66.2 412.1 66.5 C 412.7 66.8 413.1 67.3 413.4 67.9 C 413.7 68.5 413.8 69.3 413.8 70.4 C 413.82 70.44 413.8 77.7 413.8 77.7 L 411.9 77.7 C 411.9 77.7 411.89 70.44 411.9 70.4 C 411.9 69.5 411.7 68.8 411.3 68.3 C 410.8 67.9 410.2 67.7 409.5 67.7 C 408.9 67.7 408.4 67.8 407.9 68.1 C 407.4 68.4 407 68.8 406.8 69.3 C 406.6 69.8 406.5 70.5 406.5 71.4 C 406.46 71.43 406.5 77.7 406.5 77.7 L 404.5 77.7 Z M 424.6 74 C 424.6 74 426.6 74.2 426.6 74.2 C 426.3 75.4 425.7 76.3 424.8 77 C 424 77.6 422.9 77.9 421.6 77.9 C 419.9 77.9 418.6 77.4 417.6 76.4 C 416.6 75.4 416.1 73.9 416.1 72.1 C 416.1 70.1 416.6 68.7 417.6 67.6 C 418.6 66.5 419.9 66 421.4 66 C 423 66 424.2 66.5 425.2 67.6 C 426.2 68.6 426.6 70.1 426.6 71.9 C 426.6 72.1 426.6 72.2 426.6 72.5 C 426.6 72.5 418.1 72.5 418.1 72.5 C 418.2 73.7 418.5 74.7 419.2 75.3 C 419.8 76 420.6 76.3 421.6 76.3 C 422.3 76.3 422.9 76.2 423.4 75.8 C 423.9 75.4 424.3 74.8 424.6 74 Z M 418.2 70.9 C 418.2 70.9 424.6 70.9 424.6 70.9 C 424.5 69.9 424.3 69.2 423.9 68.7 C 423.2 68 422.4 67.6 421.5 67.6 C 420.6 67.6 419.8 67.9 419.2 68.5 C 418.6 69.1 418.3 69.9 418.2 70.9 Z M 438.5 76 C 438.7 76 439 76 439.3 75.9 C 439.3 75.9 439.6 77.7 439.6 77.7 C 439.1 77.8 438.6 77.8 438.2 77.8 C 437.4 77.8 436.9 77.7 436.5 77.5 C 436.1 77.3 435.9 77 435.7 76.6 C 435.5 76.3 435.5 75.5 435.5 74.3 C 435.46 74.33 435.5 67.8 435.5 67.8 L 434 67.8 L 434 66.3 L 435.5 66.3 L 435.5 63.4 L 437.4 62.3 L 437.4 66.3 L 439.3 66.3 L 439.3 67.8 L 437.4 67.8 C 437.4 67.8 437.39 74.44 437.4 74.4 C 437.4 75 437.4 75.3 437.5 75.5 C 437.6 75.7 437.7 75.8 437.8 75.9 C 438 76 438.2 76 438.5 76 C 438.5 76 438.5 76 438.5 76 Z M 449 74 C 449 74 451 74.2 451 74.2 C 450.7 75.4 450.1 76.3 449.3 77 C 448.4 77.6 447.3 77.9 446 77.9 C 444.3 77.9 443 77.4 442 76.4 C 441.1 75.4 440.6 73.9 440.6 72.1 C 440.6 70.1 441.1 68.7 442.1 67.6 C 443 66.5 444.3 66 445.9 66 C 447.4 66 448.7 66.5 449.6 67.6 C 450.6 68.6 451.1 70.1 451.1 71.9 C 451.1 72.1 451.1 72.2 451.1 72.5 C 451.1 72.5 442.6 72.5 442.6 72.5 C 442.6 73.7 443 74.7 443.6 75.3 C 444.3 76 445.1 76.3 446 76.3 C 446.7 76.3 447.3 76.2 447.8 75.8 C 448.3 75.4 448.7 74.8 449 74 Z M 442.7 70.9 C 442.7 70.9 449.1 70.9 449.1 70.9 C 449 69.9 448.7 69.2 448.3 68.7 C 447.7 68 446.9 67.6 445.9 67.6 C 445 67.6 444.3 67.9 443.7 68.5 C 443.1 69.1 442.7 69.9 442.7 70.9 Z M 461.3 77.7 C 461.1 77.3 461 76.8 460.9 76.3 C 460.2 76.9 459.5 77.3 458.8 77.6 C 458.2 77.8 457.5 77.9 456.7 77.9 C 455.4 77.9 454.5 77.6 453.8 77 C 453.1 76.4 452.8 75.6 452.8 74.7 C 452.8 74.1 452.9 73.6 453.2 73.1 C 453.4 72.7 453.8 72.3 454.2 72 C 454.6 71.7 455.1 71.5 455.6 71.4 C 456 71.3 456.5 71.2 457.3 71.1 C 458.9 70.9 460 70.7 460.7 70.4 C 460.7 70.2 460.8 70 460.8 69.9 C 460.8 69.1 460.6 68.6 460.2 68.3 C 459.7 67.8 459 67.6 458 67.6 C 457.1 67.6 456.4 67.8 456 68.1 C 455.6 68.4 455.2 69 455 69.8 C 455 69.8 453.1 69.5 453.1 69.5 C 453.3 68.7 453.6 68.1 454 67.6 C 454.4 67.1 454.9 66.7 455.7 66.4 C 456.4 66.1 457.3 66 458.3 66 C 459.3 66 460 66.1 460.7 66.4 C 461.3 66.6 461.7 66.9 462 67.2 C 462.3 67.6 462.5 68 462.6 68.5 C 462.7 68.9 462.7 69.5 462.7 70.3 C 462.7 70.3 462.7 72.9 462.7 72.9 C 462.7 74.7 462.7 75.8 462.8 76.3 C 462.9 76.8 463.1 77.2 463.3 77.7 C 463.31 77.67 461.3 77.7 461.3 77.7 C 461.3 77.7 461.29 77.67 461.3 77.7 Z M 460.7 71.9 C 460 72.2 459 72.5 457.6 72.7 C 456.8 72.8 456.2 72.9 455.9 73.1 C 455.6 73.2 455.3 73.4 455.1 73.7 C 455 74 454.9 74.3 454.9 74.6 C 454.9 75.1 455.1 75.6 455.5 75.9 C 455.8 76.2 456.4 76.4 457.2 76.4 C 457.9 76.4 458.6 76.3 459.2 75.9 C 459.7 75.6 460.2 75.2 460.4 74.6 C 460.6 74.2 460.7 73.5 460.7 72.7 C 460.7 72.7 460.7 71.9 460.7 71.9 Z M 465.7 77.7 L 465.7 66.3 L 467.4 66.3 C 467.4 66.3 467.42 67.87 467.4 67.9 C 467.8 67.3 468.3 66.9 468.9 66.5 C 469.4 66.2 470.1 66 470.9 66 C 471.7 66 472.4 66.2 473 66.5 C 473.5 66.9 473.9 67.4 474.1 68 C 475 66.7 476.2 66 477.6 66 C 478.8 66 479.6 66.3 480.2 66.9 C 480.8 67.6 481.2 68.5 481.2 69.8 C 481.15 69.84 481.2 77.7 481.2 77.7 L 479.2 77.7 C 479.2 77.7 479.23 70.49 479.2 70.5 C 479.2 69.7 479.2 69.2 479 68.8 C 478.9 68.5 478.7 68.2 478.4 68 C 478 67.8 477.6 67.7 477.2 67.7 C 476.4 67.7 475.7 67.9 475.2 68.5 C 474.7 69 474.4 69.9 474.4 71 C 474.41 71.05 474.4 77.7 474.4 77.7 L 472.5 77.7 C 472.5 77.7 472.47 70.26 472.5 70.3 C 472.5 69.4 472.3 68.8 472 68.3 C 471.7 67.9 471.2 67.7 470.5 67.7 C 469.9 67.7 469.4 67.8 468.9 68.1 C 468.5 68.4 468.1 68.8 467.9 69.4 C 467.7 69.9 467.6 70.7 467.6 71.8 C 467.63 71.75 467.6 77.7 467.6 77.7 L 465.7 77.7 Z M 484.6 77.7 L 484.6 75.5 L 486.8 75.5 L 486.8 77.7 L 484.6 77.7 Z " stroke="none" fill="#ffffff"/>  </g>  <g id="Polygon62948">    <path d="M 221.2 0.3 L 221.2 24.9 L 219.6 24.9 L 201 3.4 L 201 24.9 L 199.1 24.9 L 199.1 0.3 L 200.7 0.3 L 219.3 21.8 L 219.3 0.3 L 221.2 0.3 Z M 240.3 0.3 L 240.3 1.9 L 228.8 1.9 L 228.8 11.7 L 240 11.7 L 240 13.3 L 228.8 13.3 L 228.8 23.3 L 240.6 23.3 L 240.6 24.9 L 226.9 24.9 L 226.9 0.3 L 240.3 0.3 Z M 260.2 4.4 L 252 25.1 L 251.5 25.1 L 241.6 0.3 L 243.6 0.3 L 251.7 20.7 L 259.9 0.3 L 260.5 0.3 L 268.7 20.7 L 276.9 0.3 L 278.8 0.3 L 268.9 25.1 L 268.5 25.1 L 260.2 4.4 Z M 287.5 0 C 289.4 0 291.3 0.5 293.2 1.5 C 293.2 1.5 293.2 3.6 293.2 3.6 C 291 2.4 289.2 1.8 287.7 1.8 C 286.2 1.8 284.9 2.2 284 3.1 C 283 4 282.5 5.1 282.5 6.4 C 282.5 7.4 282.8 8.2 283.3 9 C 283.9 9.8 285.2 10.5 287 11.2 C 288.9 11.9 290.2 12.5 291.1 13 C 292 13.4 292.7 14.1 293.3 15 C 293.9 15.9 294.2 17 294.2 18.5 C 294.2 20.3 293.5 21.9 292.1 23.2 C 290.7 24.5 289 25.2 287 25.2 C 285 25.2 282.9 24.5 280.7 23 C 280.7 23 280.7 20.8 280.7 20.8 C 283.1 22.6 285.2 23.4 286.9 23.4 C 288.4 23.4 289.6 23 290.6 22 C 291.6 21.1 292.1 19.9 292.1 18.5 C 292.1 17.5 291.8 16.6 291.2 15.7 C 290.6 14.9 289.3 14.1 287.4 13.4 C 285.5 12.6 284.2 12.1 283.3 11.6 C 282.5 11.2 281.8 10.5 281.3 9.7 C 280.7 8.9 280.4 7.8 280.4 6.5 C 280.4 4.7 281.1 3.2 282.5 1.9 C 283.9 0.6 285.5 0 287.5 0 C 287.5 0 287.5 0 287.5 0 Z " stroke="none" fill="#ffffff"/>  </g></svg>