<?xml version="1.0" standalone="no"?><!DOCTYPE svg PUBLIC "-//W3C//DTD SVG 1.1//EN" "http://www.w3.org/Graphics/SVG/1.1/DTD/svg11.dtd"><svg xmlns="http://www.w3.org/2000/svg" version="1.1" width="395px" height="185.6px" viewBox="0 0 395 185.6">  <desc>Our Managed Learning Service was developed in response to requests from clients who wanted more choice, flexibility a...</desc>  <defs/>  <g id="Polygon62351">    <path d="M 74.8 151.3 L 74.8 135.6 L 76.7 135.6 L 76.7 151.3 L 74.8 151.3 Z M 87.5 147.6 C 87.5 147.6 89.5 147.9 89.5 147.9 C 89.2 149 88.6 150 87.8 150.6 C 86.9 151.2 85.9 151.6 84.5 151.6 C 82.9 151.6 81.5 151.1 80.6 150 C 79.6 149 79.1 147.6 79.1 145.7 C 79.1 143.8 79.6 142.3 80.6 141.2 C 81.6 140.2 82.8 139.6 84.4 139.6 C 85.9 139.6 87.2 140.2 88.2 141.2 C 89.1 142.2 89.6 143.7 89.6 145.6 C 89.6 145.7 89.6 145.9 89.6 146.1 C 89.6 146.1 81.1 146.1 81.1 146.1 C 81.2 147.4 81.5 148.3 82.2 149 C 82.8 149.6 83.6 150 84.5 150 C 85.2 150 85.9 149.8 86.4 149.4 C 86.9 149 87.3 148.5 87.5 147.6 Z M 81.2 144.5 C 81.2 144.5 87.6 144.5 87.6 144.5 C 87.5 143.5 87.2 142.8 86.8 142.3 C 86.2 141.6 85.4 141.2 84.4 141.2 C 83.6 141.2 82.8 141.5 82.2 142.1 C 81.6 142.7 81.3 143.5 81.2 144.5 Z M 95.1 151.3 L 90.8 139.9 L 92.8 139.9 C 92.8 139.9 95.29 146.73 95.3 146.7 C 95.6 147.5 95.8 148.2 96 149 C 96.2 148.4 96.4 147.7 96.7 146.9 C 96.74 146.86 99.3 139.9 99.3 139.9 L 101.3 139.9 L 96.9 151.3 L 95.1 151.3 Z M 110.8 147.6 C 110.8 147.6 112.8 147.9 112.8 147.9 C 112.5 149 111.9 150 111 150.6 C 110.2 151.2 109.1 151.6 107.8 151.6 C 106.1 151.6 104.8 151.1 103.8 150 C 102.8 149 102.3 147.6 102.3 145.7 C 102.3 143.8 102.8 142.3 103.8 141.2 C 104.8 140.2 106.1 139.6 107.7 139.6 C 109.2 139.6 110.4 140.2 111.4 141.2 C 112.4 142.2 112.8 143.7 112.8 145.6 C 112.8 145.7 112.8 145.9 112.8 146.1 C 112.8 146.1 104.3 146.1 104.3 146.1 C 104.4 147.4 104.8 148.3 105.4 149 C 106 149.6 106.8 150 107.8 150 C 108.5 150 109.1 149.8 109.6 149.4 C 110.1 149 110.5 148.5 110.8 147.6 Z M 104.4 144.5 C 104.4 144.5 110.8 144.5 110.8 144.5 C 110.7 143.5 110.5 142.8 110.1 142.3 C 109.5 141.6 108.7 141.2 107.7 141.2 C 106.8 141.2 106 141.5 105.4 142.1 C 104.8 142.7 104.5 143.5 104.4 144.5 Z M 115.2 151.3 L 115.2 135.6 L 117.1 135.6 L 117.1 151.3 L 115.2 151.3 Z M 125.5 145.6 C 125.5 143.5 126.1 141.9 127.3 140.9 C 128.2 140.1 129.4 139.6 130.8 139.6 C 132.4 139.6 133.7 140.2 134.7 141.2 C 135.7 142.2 136.2 143.6 136.2 145.4 C 136.2 146.9 136 148.1 135.5 148.9 C 135.1 149.7 134.4 150.4 133.6 150.9 C 132.8 151.3 131.8 151.6 130.8 151.6 C 129.2 151.6 128 151.1 127 150 C 126 149 125.5 147.5 125.5 145.6 Z M 127.5 145.6 C 127.5 147.1 127.8 148.2 128.4 148.9 C 129.1 149.6 129.9 150 130.8 150 C 131.8 150 132.6 149.6 133.2 148.9 C 133.9 148.2 134.2 147 134.2 145.5 C 134.2 144.1 133.9 143.1 133.2 142.3 C 132.6 141.6 131.8 141.2 130.8 141.2 C 129.9 141.2 129.1 141.6 128.4 142.3 C 127.8 143.1 127.5 144.1 127.5 145.6 Z M 138.9 151.3 L 138.9 141.4 L 137.2 141.4 L 137.2 139.9 L 138.9 139.9 C 138.9 139.9 138.91 138.69 138.9 138.7 C 138.9 137.9 139 137.4 139.1 137 C 139.3 136.5 139.6 136.1 140.1 135.8 C 140.6 135.4 141.2 135.3 142.1 135.3 C 142.6 135.3 143.2 135.4 143.9 135.5 C 143.9 135.5 143.6 137.2 143.6 137.2 C 143.2 137.1 142.8 137.1 142.4 137.1 C 141.9 137.1 141.4 137.2 141.2 137.4 C 141 137.7 140.8 138.2 140.8 138.8 C 140.83 138.85 140.8 139.9 140.8 139.9 L 143.1 139.9 L 143.1 141.4 L 140.8 141.4 L 140.8 151.3 L 138.9 151.3 Z M 158.1 147.1 C 158.1 147.1 160 147.4 160 147.4 C 159.8 148.7 159.3 149.7 158.4 150.5 C 157.6 151.2 156.5 151.6 155.3 151.6 C 153.7 151.6 152.5 151.1 151.5 150 C 150.6 149 150.1 147.6 150.1 145.6 C 150.1 144.4 150.3 143.3 150.7 142.4 C 151.1 141.5 151.7 140.8 152.6 140.3 C 153.4 139.9 154.3 139.6 155.3 139.6 C 156.5 139.6 157.5 140 158.3 140.6 C 159.1 141.2 159.6 142.1 159.8 143.3 C 159.8 143.3 158 143.5 158 143.5 C 157.8 142.8 157.5 142.2 157 141.8 C 156.5 141.4 156 141.2 155.4 141.2 C 154.4 141.2 153.6 141.6 153 142.3 C 152.4 143 152.1 144.1 152.1 145.6 C 152.1 147.1 152.4 148.2 152.9 148.9 C 153.5 149.6 154.3 150 155.2 150 C 156 150 156.6 149.7 157.1 149.3 C 157.7 148.8 158 148.1 158.1 147.1 Z M 169.1 151.3 C 169.1 151.3 169.15 149.63 169.1 149.6 C 168.3 150.9 167.1 151.6 165.5 151.6 C 164.9 151.6 164.2 151.4 163.6 151.2 C 163.1 150.9 162.6 150.6 162.3 150.2 C 162.1 149.8 161.9 149.3 161.7 148.8 C 161.7 148.4 161.6 147.8 161.6 147 C 161.63 146.97 161.6 139.9 161.6 139.9 L 163.6 139.9 C 163.6 139.9 163.56 146.23 163.6 146.2 C 163.6 147.2 163.6 147.9 163.7 148.3 C 163.8 148.8 164.1 149.2 164.5 149.5 C 164.8 149.8 165.3 149.9 165.9 149.9 C 166.5 149.9 167 149.8 167.5 149.5 C 168.1 149.2 168.4 148.8 168.6 148.2 C 168.8 147.7 168.9 147 168.9 146 C 168.94 146.01 168.9 139.9 168.9 139.9 L 170.9 139.9 L 170.9 151.3 L 169.1 151.3 Z M 173.1 147.9 C 173.1 147.9 175 147.6 175 147.6 C 175.2 148.4 175.4 149 175.9 149.4 C 176.4 149.8 177.1 150 178 150 C 178.9 150 179.5 149.8 180 149.4 C 180.4 149.1 180.6 148.6 180.6 148.2 C 180.6 147.7 180.4 147.4 180 147.1 C 179.8 147 179.1 146.7 178.1 146.5 C 176.7 146.1 175.7 145.8 175.1 145.5 C 174.6 145.3 174.2 144.9 173.9 144.5 C 173.6 144 173.5 143.5 173.5 142.9 C 173.5 142.4 173.6 142 173.8 141.5 C 174 141.1 174.4 140.7 174.8 140.4 C 175.1 140.2 175.5 140 176 139.9 C 176.5 139.7 177.1 139.6 177.7 139.6 C 178.5 139.6 179.3 139.8 180 140 C 180.7 140.3 181.2 140.6 181.5 141.1 C 181.8 141.5 182.1 142.1 182.2 142.8 C 182.2 142.8 180.3 143.1 180.3 143.1 C 180.2 142.5 180 142.1 179.5 141.7 C 179.1 141.4 178.5 141.2 177.8 141.2 C 176.9 141.2 176.3 141.4 175.9 141.7 C 175.5 142 175.3 142.3 175.3 142.7 C 175.3 143 175.4 143.2 175.6 143.4 C 175.7 143.6 176 143.8 176.3 143.9 C 176.5 144 177.1 144.1 178 144.4 C 179.4 144.8 180.3 145.1 180.9 145.3 C 181.4 145.5 181.8 145.9 182.1 146.3 C 182.5 146.7 182.6 147.3 182.6 148 C 182.6 148.6 182.4 149.2 182 149.8 C 181.7 150.3 181.1 150.8 180.4 151.1 C 179.7 151.4 178.9 151.6 178 151.6 C 176.5 151.6 175.4 151.3 174.6 150.6 C 173.8 150 173.3 149.1 173.1 147.9 Z M 188.3 149.7 C 188.5 149.7 188.8 149.6 189.1 149.6 C 189.1 149.6 189.4 151.3 189.4 151.3 C 188.9 151.4 188.4 151.5 187.9 151.5 C 187.2 151.5 186.7 151.3 186.3 151.1 C 185.9 150.9 185.7 150.6 185.5 150.3 C 185.3 149.9 185.3 149.1 185.3 148 C 185.26 147.97 185.3 141.4 185.3 141.4 L 183.8 141.4 L 183.8 139.9 L 185.3 139.9 L 185.3 137.1 L 187.2 135.9 L 187.2 139.9 L 189.1 139.9 L 189.1 141.4 L 187.2 141.4 C 187.2 141.4 187.18 148.07 187.2 148.1 C 187.2 148.6 187.2 149 187.3 149.1 C 187.4 149.3 187.5 149.4 187.6 149.5 C 187.8 149.6 188 149.7 188.3 149.7 C 188.3 149.7 188.3 149.7 188.3 149.7 Z M 190.3 145.6 C 190.3 143.5 190.9 141.9 192.1 140.9 C 193 140.1 194.2 139.6 195.6 139.6 C 197.2 139.6 198.5 140.2 199.5 141.2 C 200.5 142.2 201 143.6 201 145.4 C 201 146.9 200.8 148.1 200.3 148.9 C 199.9 149.7 199.2 150.4 198.4 150.9 C 197.6 151.3 196.6 151.6 195.6 151.6 C 194 151.6 192.8 151.1 191.8 150 C 190.8 149 190.3 147.5 190.3 145.6 Z M 192.3 145.6 C 192.3 147.1 192.6 148.2 193.2 148.9 C 193.9 149.6 194.7 150 195.6 150 C 196.6 150 197.4 149.6 198 148.9 C 198.7 148.2 199 147 199 145.5 C 199 144.1 198.7 143.1 198 142.3 C 197.4 141.6 196.6 141.2 195.6 141.2 C 194.7 141.2 193.9 141.6 193.2 142.3 C 192.6 143.1 192.3 144.1 192.3 145.6 Z M 203.3 151.3 L 203.3 139.9 L 205 139.9 C 205 139.9 204.98 141.5 205 141.5 C 205.3 140.9 205.8 140.5 206.4 140.2 C 207 139.8 207.7 139.6 208.4 139.6 C 209.3 139.6 210 139.8 210.5 140.2 C 211.1 140.5 211.4 141 211.7 141.6 C 212.6 140.3 213.7 139.6 215.2 139.6 C 216.3 139.6 217.2 140 217.8 140.6 C 218.4 141.2 218.7 142.2 218.7 143.5 C 218.71 143.48 218.7 151.3 218.7 151.3 L 216.8 151.3 C 216.8 151.3 216.79 144.12 216.8 144.1 C 216.8 143.3 216.7 142.8 216.6 142.5 C 216.5 142.1 216.2 141.8 215.9 141.6 C 215.6 141.4 215.2 141.3 214.8 141.3 C 214 141.3 213.3 141.6 212.8 142.1 C 212.2 142.7 212 143.5 212 144.7 C 211.96 144.68 212 151.3 212 151.3 L 210 151.3 C 210 151.3 210.03 143.9 210 143.9 C 210 143 209.9 142.4 209.6 142 C 209.2 141.5 208.7 141.3 208 141.3 C 207.5 141.3 207 141.5 206.5 141.7 C 206 142 205.7 142.5 205.5 143 C 205.3 143.6 205.2 144.4 205.2 145.4 C 205.19 145.39 205.2 151.3 205.2 151.3 L 203.3 151.3 Z M 229.4 147.6 C 229.4 147.6 231.4 147.9 231.4 147.9 C 231.1 149 230.5 150 229.6 150.6 C 228.8 151.2 227.7 151.6 226.4 151.6 C 224.7 151.6 223.4 151.1 222.4 150 C 221.4 149 220.9 147.6 220.9 145.7 C 220.9 143.8 221.4 142.3 222.4 141.2 C 223.4 140.2 224.7 139.6 226.3 139.6 C 227.8 139.6 229 140.2 230 141.2 C 231 142.2 231.5 143.7 231.5 145.6 C 231.5 145.7 231.4 145.9 231.4 146.1 C 231.4 146.1 222.9 146.1 222.9 146.1 C 223 147.4 223.4 148.3 224 149 C 224.6 149.6 225.4 150 226.4 150 C 227.1 150 227.7 149.8 228.2 149.4 C 228.7 149 229.1 148.5 229.4 147.6 Z M 223 144.5 C 223 144.5 229.4 144.5 229.4 144.5 C 229.3 143.5 229.1 142.8 228.7 142.3 C 228.1 141.6 227.3 141.2 226.3 141.2 C 225.4 141.2 224.6 141.5 224 142.1 C 223.4 142.7 223.1 143.5 223 144.5 Z M 233.8 151.3 L 233.8 139.9 L 235.5 139.9 C 235.5 139.9 235.53 141.63 235.5 141.6 C 236 140.8 236.4 140.3 236.8 140 C 237.1 139.8 237.6 139.6 238 139.6 C 238.7 139.6 239.3 139.9 240 140.3 C 240 140.3 239.3 142.1 239.3 142.1 C 238.9 141.8 238.4 141.6 237.9 141.6 C 237.5 141.6 237.1 141.8 236.8 142 C 236.4 142.3 236.2 142.6 236 143.1 C 235.8 143.8 235.7 144.5 235.7 145.3 C 235.73 145.34 235.7 151.3 235.7 151.3 L 233.8 151.3 Z M 246.5 147.9 C 246.5 147.9 248.4 147.6 248.4 147.6 C 248.5 148.4 248.8 149 249.3 149.4 C 249.8 149.8 250.5 150 251.3 150 C 252.2 150 252.9 149.8 253.3 149.4 C 253.8 149.1 254 148.6 254 148.2 C 254 147.7 253.8 147.4 253.4 147.1 C 253.1 147 252.5 146.7 251.4 146.5 C 250 146.1 249 145.8 248.5 145.5 C 247.9 145.3 247.5 144.9 247.2 144.5 C 246.9 144 246.8 143.5 246.8 142.9 C 246.8 142.4 246.9 142 247.2 141.5 C 247.4 141.1 247.7 140.7 248.1 140.4 C 248.4 140.2 248.8 140 249.3 139.9 C 249.9 139.7 250.4 139.6 251 139.6 C 251.9 139.6 252.7 139.8 253.4 140 C 254 140.3 254.5 140.6 254.9 141.1 C 255.2 141.5 255.4 142.1 255.5 142.8 C 255.5 142.8 253.6 143.1 253.6 143.1 C 253.5 142.5 253.3 142.1 252.9 141.7 C 252.5 141.4 251.9 141.2 251.1 141.2 C 250.3 141.2 249.6 141.4 249.2 141.7 C 248.9 142 248.7 142.3 248.7 142.7 C 248.7 143 248.7 143.2 248.9 143.4 C 249.1 143.6 249.3 143.8 249.6 143.9 C 249.8 144 250.4 144.1 251.4 144.4 C 252.7 144.8 253.7 145.1 254.2 145.3 C 254.8 145.5 255.2 145.9 255.5 146.3 C 255.8 146.7 256 147.3 256 148 C 256 148.6 255.8 149.2 255.4 149.8 C 255 150.3 254.5 150.8 253.8 151.1 C 253.1 151.4 252.3 151.6 251.4 151.6 C 249.9 151.6 248.7 151.3 248 150.6 C 247.2 150 246.7 149.1 246.5 147.9 Z M 266.1 147.6 C 266.1 147.6 268.1 147.9 268.1 147.9 C 267.7 149 267.2 150 266.3 150.6 C 265.5 151.2 264.4 151.6 263 151.6 C 261.4 151.6 260.1 151.1 259.1 150 C 258.1 149 257.6 147.6 257.6 145.7 C 257.6 143.8 258.1 142.3 259.1 141.2 C 260.1 140.2 261.4 139.6 262.9 139.6 C 264.5 139.6 265.7 140.2 266.7 141.2 C 267.6 142.2 268.1 143.7 268.1 145.6 C 268.1 145.7 268.1 145.9 268.1 146.1 C 268.1 146.1 259.6 146.1 259.6 146.1 C 259.7 147.4 260 148.3 260.7 149 C 261.3 149.6 262.1 150 263.1 150 C 263.8 150 264.4 149.8 264.9 149.4 C 265.4 149 265.8 148.5 266.1 147.6 Z M 259.7 144.5 C 259.7 144.5 266.1 144.5 266.1 144.5 C 266 143.5 265.8 142.8 265.4 142.3 C 264.7 141.6 263.9 141.2 263 141.2 C 262.1 141.2 261.3 141.5 260.7 142.1 C 260.1 142.7 259.8 143.5 259.7 144.5 Z M 270.5 151.3 L 270.5 139.9 L 272.2 139.9 C 272.2 139.9 272.21 141.63 272.2 141.6 C 272.7 140.8 273.1 140.3 273.4 140 C 273.8 139.8 274.2 139.6 274.7 139.6 C 275.3 139.6 276 139.9 276.7 140.3 C 276.7 140.3 276 142.1 276 142.1 C 275.5 141.8 275.1 141.6 274.6 141.6 C 274.2 141.6 273.8 141.8 273.4 142 C 273.1 142.3 272.9 142.6 272.7 143.1 C 272.5 143.8 272.4 144.5 272.4 145.3 C 272.4 145.34 272.4 151.3 272.4 151.3 L 270.5 151.3 Z M 281 151.3 L 276.6 139.9 L 278.7 139.9 C 278.7 139.9 281.13 146.73 281.1 146.7 C 281.4 147.5 281.6 148.2 281.9 149 C 282 148.4 282.3 147.7 282.6 146.9 C 282.58 146.86 285.1 139.9 285.1 139.9 L 287.1 139.9 L 282.8 151.3 L 281 151.3 Z M 288.8 137.8 L 288.8 135.6 L 290.8 135.6 L 290.8 137.8 L 288.8 137.8 Z M 288.8 151.3 L 288.8 139.9 L 290.8 139.9 L 290.8 151.3 L 288.8 151.3 Z M 301.1 147.1 C 301.1 147.1 303 147.4 303 147.4 C 302.8 148.7 302.3 149.7 301.5 150.5 C 300.6 151.2 299.5 151.6 298.3 151.6 C 296.7 151.6 295.5 151.1 294.5 150 C 293.6 149 293.1 147.6 293.1 145.6 C 293.1 144.4 293.3 143.3 293.7 142.4 C 294.1 141.5 294.8 140.8 295.6 140.3 C 296.4 139.9 297.3 139.6 298.3 139.6 C 299.5 139.6 300.6 140 301.4 140.6 C 302.1 141.2 302.6 142.1 302.9 143.3 C 302.9 143.3 301 143.5 301 143.5 C 300.8 142.8 300.5 142.2 300 141.8 C 299.6 141.4 299 141.2 298.4 141.2 C 297.4 141.2 296.6 141.6 296 142.3 C 295.4 143 295.1 144.1 295.1 145.6 C 295.1 147.1 295.4 148.2 296 148.9 C 296.6 149.6 297.3 150 298.3 150 C 299 150 299.7 149.7 300.2 149.3 C 300.7 148.8 301 148.1 301.1 147.1 Z M 312.5 147.6 C 312.5 147.6 314.5 147.9 314.5 147.9 C 314.2 149 313.6 150 312.8 150.6 C 311.9 151.2 310.8 151.6 309.5 151.6 C 307.8 151.6 306.5 151.1 305.5 150 C 304.5 149 304.1 147.6 304.1 145.7 C 304.1 143.8 304.6 142.3 305.5 141.2 C 306.5 140.2 307.8 139.6 309.4 139.6 C 310.9 139.6 312.2 140.2 313.1 141.2 C 314.1 142.2 314.6 143.7 314.6 145.6 C 314.6 145.7 314.6 145.9 314.6 146.1 C 314.6 146.1 306.1 146.1 306.1 146.1 C 306.1 147.4 306.5 148.3 307.1 149 C 307.8 149.6 308.6 150 309.5 150 C 310.2 150 310.8 149.8 311.3 149.4 C 311.8 149 312.2 148.5 312.5 147.6 Z M 306.2 144.5 C 306.2 144.5 312.5 144.5 312.5 144.5 C 312.4 143.5 312.2 142.8 311.8 142.3 C 311.2 141.6 310.4 141.2 309.4 141.2 C 308.5 141.2 307.8 141.5 307.2 142.1 C 306.6 142.7 306.2 143.5 306.2 144.5 Z M 317.5 151.3 L 317.5 149.1 L 319.7 149.1 L 319.7 151.3 L 317.5 151.3 Z " stroke="none" fill="#fff"/>  </g>  <g id="Polygon62350">    <path d="M 31.5 120.7 C 31.5 120.7 33.4 121 33.4 121 C 33.2 122.3 32.7 123.3 31.8 124.1 C 31 124.8 29.9 125.2 28.7 125.2 C 27.1 125.2 25.8 124.7 24.9 123.6 C 24 122.6 23.5 121.2 23.5 119.2 C 23.5 118 23.7 116.9 24.1 116 C 24.5 115.1 25.1 114.4 26 113.9 C 26.8 113.5 27.7 113.2 28.7 113.2 C 29.9 113.2 30.9 113.6 31.7 114.2 C 32.5 114.8 33 115.7 33.2 116.9 C 33.2 116.9 31.4 117.1 31.4 117.1 C 31.2 116.4 30.9 115.8 30.4 115.4 C 29.9 115 29.4 114.8 28.8 114.8 C 27.8 114.8 27 115.2 26.4 115.9 C 25.8 116.6 25.5 117.7 25.5 119.2 C 25.5 120.7 25.8 121.8 26.3 122.5 C 26.9 123.2 27.7 123.6 28.6 123.6 C 29.4 123.6 30 123.3 30.5 122.9 C 31.1 122.4 31.4 121.7 31.5 120.7 Z M 35.1 124.9 L 35.1 109.2 L 37 109.2 C 37 109.2 37 114.81 37 114.8 C 37.9 113.8 39 113.2 40.4 113.2 C 41.3 113.2 42 113.4 42.6 113.7 C 43.2 114.1 43.7 114.5 44 115.1 C 44.2 115.7 44.4 116.6 44.4 117.7 C 44.36 117.68 44.4 124.9 44.4 124.9 L 42.4 124.9 C 42.4 124.9 42.43 117.68 42.4 117.7 C 42.4 116.7 42.2 116 41.8 115.6 C 41.4 115.1 40.8 114.9 40 114.9 C 39.4 114.9 38.9 115.1 38.4 115.4 C 37.9 115.7 37.5 116.1 37.3 116.6 C 37.1 117.1 37 117.8 37 118.7 C 37 118.67 37 124.9 37 124.9 L 35.1 124.9 Z M 46.6 119.2 C 46.6 117.1 47.2 115.5 48.3 114.5 C 49.3 113.7 50.5 113.2 51.9 113.2 C 53.5 113.2 54.8 113.8 55.8 114.8 C 56.8 115.8 57.3 117.2 57.3 119 C 57.3 120.5 57.1 121.7 56.6 122.5 C 56.2 123.3 55.5 124 54.7 124.5 C 53.8 124.9 52.9 125.2 51.9 125.2 C 50.3 125.2 49 124.7 48.1 123.6 C 47.1 122.6 46.6 121.1 46.6 119.2 Z M 48.6 119.2 C 48.6 120.7 48.9 121.8 49.5 122.5 C 50.2 123.2 51 123.6 51.9 123.6 C 52.9 123.6 53.7 123.2 54.3 122.5 C 55 121.8 55.3 120.6 55.3 119.1 C 55.3 117.7 55 116.7 54.3 115.9 C 53.7 115.2 52.9 114.8 51.9 114.8 C 51 114.8 50.2 115.2 49.5 115.9 C 48.9 116.7 48.6 117.7 48.6 119.2 Z M 59.5 111.4 L 59.5 109.2 L 61.5 109.2 L 61.5 111.4 L 59.5 111.4 Z M 59.5 124.9 L 59.5 113.5 L 61.5 113.5 L 61.5 124.9 L 59.5 124.9 Z M 71.9 120.7 C 71.9 120.7 73.8 121 73.8 121 C 73.6 122.3 73 123.3 72.2 124.1 C 71.3 124.8 70.3 125.2 69 125.2 C 67.5 125.2 66.2 124.7 65.3 123.6 C 64.3 122.6 63.8 121.2 63.8 119.2 C 63.8 118 64 116.9 64.4 116 C 64.9 115.1 65.5 114.4 66.3 113.9 C 67.1 113.5 68.1 113.2 69 113.2 C 70.3 113.2 71.3 113.6 72.1 114.2 C 72.9 114.8 73.4 115.7 73.6 116.9 C 73.6 116.9 71.7 117.1 71.7 117.1 C 71.5 116.4 71.2 115.8 70.8 115.4 C 70.3 115 69.8 114.8 69.1 114.8 C 68.1 114.8 67.3 115.2 66.7 115.9 C 66.1 116.6 65.8 117.7 65.8 119.2 C 65.8 120.7 66.1 121.8 66.7 122.5 C 67.3 123.2 68.1 123.6 69 123.6 C 69.8 123.6 70.4 123.3 70.9 122.9 C 71.4 122.4 71.7 121.7 71.9 120.7 Z M 83.2 121.2 C 83.2 121.2 85.2 121.5 85.2 121.5 C 84.9 122.6 84.3 123.6 83.5 124.2 C 82.6 124.8 81.5 125.2 80.2 125.2 C 78.5 125.2 77.2 124.7 76.2 123.6 C 75.3 122.6 74.8 121.2 74.8 119.3 C 74.8 117.4 75.3 115.9 76.3 114.8 C 77.3 113.8 78.5 113.2 80.1 113.2 C 81.6 113.2 82.9 113.8 83.8 114.8 C 84.8 115.8 85.3 117.3 85.3 119.2 C 85.3 119.3 85.3 119.5 85.3 119.7 C 85.3 119.7 76.8 119.7 76.8 119.7 C 76.9 121 77.2 121.9 77.8 122.6 C 78.5 123.2 79.3 123.6 80.2 123.6 C 80.9 123.6 81.5 123.4 82 123 C 82.5 122.6 82.9 122.1 83.2 121.2 Z M 76.9 118.1 C 76.9 118.1 83.3 118.1 83.3 118.1 C 83.2 117.1 82.9 116.4 82.5 115.9 C 81.9 115.2 81.1 114.8 80.1 114.8 C 79.2 114.8 78.5 115.1 77.9 115.7 C 77.3 116.3 77 117.1 76.9 118.1 Z M 88.2 124.9 L 88.2 122.7 L 90.4 122.7 C 90.4 122.7 90.37 124.91 90.4 124.9 C 90.4 125.7 90.2 126.4 89.9 126.9 C 89.7 127.4 89.2 127.8 88.6 128 C 88.6 128 88 127.2 88 127.2 C 88.4 127 88.7 126.8 88.9 126.4 C 89.1 126.1 89.2 125.6 89.3 124.9 C 89.26 124.91 88.2 124.9 88.2 124.9 Z M 100.4 124.9 L 100.4 115 L 98.7 115 L 98.7 113.5 L 100.4 113.5 C 100.4 113.5 100.4 112.39 100.4 112.4 C 100.4 111.3 100.6 110.4 101.1 109.8 C 101.6 109.2 102.4 108.9 103.4 108.9 C 104.2 108.9 104.8 109 105.4 109.1 C 105.4 109.1 105.1 110.8 105.1 110.8 C 104.7 110.7 104.4 110.7 104.1 110.7 C 103.4 110.7 102.9 110.8 102.7 111.1 C 102.5 111.3 102.3 111.9 102.3 112.8 C 102.33 112.76 102.3 113.5 102.3 113.5 L 104.5 113.5 L 104.5 115 L 102.3 115 L 102.3 124.9 L 100.4 124.9 Z M 106 124.9 L 106 109.2 L 107.9 109.2 L 107.9 124.9 L 106 124.9 Z M 118.7 121.2 C 118.7 121.2 120.7 121.5 120.7 121.5 C 120.4 122.6 119.8 123.6 118.9 124.2 C 118.1 124.8 117 125.2 115.7 125.2 C 114 125.2 112.7 124.7 111.7 123.6 C 110.7 122.6 110.2 121.2 110.2 119.3 C 110.2 117.4 110.7 115.9 111.7 114.8 C 112.7 113.8 114 113.2 115.6 113.2 C 117.1 113.2 118.3 113.8 119.3 114.8 C 120.3 115.8 120.8 117.3 120.8 119.2 C 120.8 119.3 120.8 119.5 120.7 119.7 C 120.7 119.7 112.2 119.7 112.2 119.7 C 112.3 121 112.7 121.9 113.3 122.6 C 113.9 123.2 114.7 123.6 115.7 123.6 C 116.4 123.6 117 123.4 117.5 123 C 118 122.6 118.4 122.1 118.7 121.2 Z M 112.3 118.1 C 112.3 118.1 118.7 118.1 118.7 118.1 C 118.6 117.1 118.4 116.4 118 115.9 C 117.4 115.2 116.6 114.8 115.6 114.8 C 114.7 114.8 114 115.1 113.4 115.7 C 112.7 116.3 112.4 117.1 112.3 118.1 Z M 121.8 124.9 L 126 119 L 122.1 113.5 L 124.6 113.5 C 124.6 113.5 126.31 116.17 126.3 116.2 C 126.6 116.7 126.9 117.1 127.1 117.5 C 127.4 117 127.7 116.6 128 116.2 C 127.98 116.2 129.9 113.5 129.9 113.5 L 132.2 113.5 L 128.3 118.9 L 132.5 124.9 L 130.1 124.9 L 127.8 121.4 L 127.2 120.4 L 124.2 124.9 L 121.8 124.9 Z M 134.1 111.4 L 134.1 109.2 L 136.1 109.2 L 136.1 111.4 L 134.1 111.4 Z M 134.1 124.9 L 134.1 113.5 L 136.1 113.5 L 136.1 124.9 L 134.1 124.9 Z M 140.8 124.9 L 139 124.9 L 139 109.2 L 140.9 109.2 C 140.9 109.2 140.93 114.78 140.9 114.8 C 141.7 113.8 142.8 113.2 144.1 113.2 C 144.8 113.2 145.4 113.4 146.1 113.7 C 146.7 113.9 147.2 114.3 147.6 114.9 C 148 115.4 148.3 116 148.5 116.7 C 148.8 117.4 148.9 118.2 148.9 119 C 148.9 121 148.4 122.5 147.4 123.6 C 146.5 124.6 145.3 125.2 144 125.2 C 142.6 125.2 141.6 124.6 140.8 123.5 C 140.79 123.48 140.8 124.9 140.8 124.9 Z M 140.8 119.1 C 140.8 120.5 141 121.5 141.3 122.1 C 141.9 123.1 142.8 123.6 143.8 123.6 C 144.6 123.6 145.4 123.2 146 122.5 C 146.6 121.7 146.9 120.6 146.9 119.2 C 146.9 117.7 146.6 116.6 146 115.9 C 145.4 115.2 144.7 114.8 143.9 114.8 C 143 114.8 142.3 115.2 141.7 115.9 C 141.1 116.7 140.8 117.7 140.8 119.1 Z M 151.3 111.4 L 151.3 109.2 L 153.2 109.2 L 153.2 111.4 L 151.3 111.4 Z M 151.3 124.9 L 151.3 113.5 L 153.2 113.5 L 153.2 124.9 L 151.3 124.9 Z M 156.1 124.9 L 156.1 109.2 L 158 109.2 L 158 124.9 L 156.1 124.9 Z M 161 111.4 L 161 109.2 L 163 109.2 L 163 111.4 L 161 111.4 Z M 161 124.9 L 161 113.5 L 163 113.5 L 163 124.9 L 161 124.9 Z M 169.3 123.3 C 169.5 123.3 169.8 123.2 170.1 123.2 C 170.1 123.2 170.4 124.9 170.4 124.9 C 169.9 125 169.4 125.1 168.9 125.1 C 168.2 125.1 167.7 124.9 167.3 124.7 C 166.9 124.5 166.7 124.2 166.5 123.9 C 166.3 123.5 166.3 122.7 166.3 121.6 C 166.26 121.57 166.3 115 166.3 115 L 164.8 115 L 164.8 113.5 L 166.3 113.5 L 166.3 110.7 L 168.2 109.5 L 168.2 113.5 L 170.1 113.5 L 170.1 115 L 168.2 115 C 168.2 115 168.18 121.67 168.2 121.7 C 168.2 122.2 168.2 122.6 168.3 122.7 C 168.4 122.9 168.5 123 168.6 123.1 C 168.8 123.2 169 123.3 169.3 123.3 C 169.3 123.3 169.3 123.3 169.3 123.3 Z M 173.2 129.5 C 172.8 129.5 172.4 129.5 171.9 129.3 C 171.9 129.3 171.7 127.5 171.7 127.5 C 172.1 127.6 172.5 127.7 172.8 127.7 C 173.3 127.7 173.6 127.6 173.9 127.4 C 174.1 127.3 174.3 127.1 174.5 126.8 C 174.6 126.6 174.8 126.2 175.1 125.4 C 175.1 125.3 175.2 125.1 175.3 124.9 C 175.25 124.93 170.9 113.5 170.9 113.5 L 173 113.5 C 173 113.5 175.38 120.11 175.4 120.1 C 175.7 120.9 176 121.8 176.2 122.7 C 176.4 121.9 176.7 121 177 120.1 C 177 120.15 179.4 113.5 179.4 113.5 L 181.4 113.5 C 181.4 113.5 177.04 125.1 177 125.1 C 176.6 126.4 176.2 127.2 176 127.7 C 175.6 128.3 175.2 128.8 174.8 129.1 C 174.3 129.4 173.8 129.5 173.2 129.5 C 173.2 129.5 173.2 129.5 173.2 129.5 Z M 197 124.9 C 196.8 124.5 196.6 124 196.6 123.5 C 195.9 124.1 195.2 124.5 194.5 124.8 C 193.8 125 193.1 125.2 192.4 125.2 C 191.1 125.2 190.2 124.9 189.5 124.2 C 188.8 123.6 188.5 122.9 188.5 121.9 C 188.5 121.3 188.6 120.8 188.9 120.4 C 189.1 119.9 189.4 119.5 189.9 119.3 C 190.3 119 190.7 118.8 191.2 118.6 C 191.6 118.5 192.2 118.4 193 118.3 C 194.5 118.1 195.7 117.9 196.4 117.7 C 196.4 117.4 196.4 117.2 196.4 117.2 C 196.4 116.4 196.2 115.8 195.9 115.5 C 195.4 115.1 194.6 114.8 193.7 114.8 C 192.8 114.8 192.1 115 191.7 115.3 C 191.2 115.6 190.9 116.2 190.7 117 C 190.7 117 188.8 116.8 188.8 116.8 C 189 115.9 189.3 115.3 189.7 114.8 C 190.1 114.3 190.6 113.9 191.4 113.6 C 192.1 113.4 193 113.2 194 113.2 C 194.9 113.2 195.7 113.4 196.3 113.6 C 196.9 113.8 197.4 114.1 197.7 114.5 C 198 114.8 198.2 115.2 198.3 115.8 C 198.3 116.1 198.4 116.7 198.4 117.5 C 198.4 117.5 198.4 120.1 198.4 120.1 C 198.4 121.9 198.4 123.1 198.5 123.5 C 198.6 124 198.7 124.5 199 124.9 C 198.98 124.91 197 124.9 197 124.9 C 197 124.9 196.96 124.91 197 124.9 Z M 196.4 119.2 C 195.7 119.5 194.7 119.7 193.3 119.9 C 192.5 120 191.9 120.2 191.6 120.3 C 191.2 120.4 191 120.7 190.8 120.9 C 190.6 121.2 190.5 121.5 190.5 121.8 C 190.5 122.4 190.7 122.8 191.1 123.1 C 191.5 123.5 192.1 123.7 192.8 123.7 C 193.6 123.7 194.2 123.5 194.8 123.2 C 195.4 122.8 195.8 122.4 196.1 121.8 C 196.3 121.4 196.4 120.7 196.4 119.9 C 196.4 119.9 196.4 119.2 196.4 119.2 Z M 201.4 124.9 L 201.4 113.5 L 203.1 113.5 C 203.1 113.5 203.11 115.12 203.1 115.1 C 203.9 113.9 205.2 113.2 206.7 113.2 C 207.4 113.2 208.1 113.4 208.6 113.6 C 209.2 113.9 209.6 114.2 209.9 114.6 C 210.2 115 210.4 115.5 210.5 116 C 210.6 116.4 210.6 117 210.6 117.9 C 210.64 117.89 210.6 124.9 210.6 124.9 L 208.7 124.9 C 208.7 124.9 208.7 117.97 208.7 118 C 208.7 117.2 208.6 116.6 208.5 116.2 C 208.3 115.8 208.1 115.5 207.7 115.3 C 207.3 115 206.8 114.9 206.3 114.9 C 205.5 114.9 204.8 115.2 204.2 115.7 C 203.6 116.2 203.3 117.2 203.3 118.7 C 203.3 118.68 203.3 124.9 203.3 124.9 L 201.4 124.9 Z M 221 124.9 C 221 124.9 221 123.47 221 123.5 C 220.3 124.6 219.2 125.2 217.8 125.2 C 216.9 125.2 216.1 124.9 215.3 124.4 C 214.5 123.9 214 123.2 213.5 122.3 C 213.1 121.4 212.9 120.4 212.9 119.2 C 212.9 118.1 213.1 117 213.5 116.1 C 213.9 115.2 214.4 114.5 215.2 114 C 215.9 113.5 216.8 113.2 217.7 113.2 C 218.4 113.2 219 113.4 219.6 113.7 C 220.1 114 220.5 114.3 220.9 114.8 C 220.88 114.81 220.9 109.2 220.9 109.2 L 222.8 109.2 L 222.8 124.9 L 221 124.9 Z M 214.9 119.2 C 214.9 120.7 215.2 121.8 215.8 122.5 C 216.4 123.2 217.2 123.6 218 123.6 C 218.8 123.6 219.6 123.2 220.1 122.5 C 220.7 121.8 221 120.8 221 119.4 C 221 117.8 220.7 116.7 220.1 115.9 C 219.5 115.2 218.8 114.8 217.9 114.8 C 217.1 114.8 216.3 115.2 215.8 115.9 C 215.2 116.6 214.9 117.7 214.9 119.2 Z M 239.8 124.9 C 239.6 124.5 239.5 124 239.4 123.5 C 238.7 124.1 238 124.5 237.3 124.8 C 236.7 125 236 125.2 235.2 125.2 C 233.9 125.2 233 124.9 232.3 124.2 C 231.6 123.6 231.3 122.9 231.3 121.9 C 231.3 121.3 231.4 120.8 231.7 120.4 C 231.9 119.9 232.3 119.5 232.7 119.3 C 233.1 119 233.6 118.8 234.1 118.6 C 234.4 118.5 235 118.4 235.8 118.3 C 237.3 118.1 238.5 117.9 239.2 117.7 C 239.2 117.4 239.2 117.2 239.2 117.2 C 239.2 116.4 239.1 115.8 238.7 115.5 C 238.2 115.1 237.5 114.8 236.5 114.8 C 235.6 114.8 234.9 115 234.5 115.3 C 234 115.6 233.7 116.2 233.5 117 C 233.5 117 231.6 116.8 231.6 116.8 C 231.8 115.9 232.1 115.3 232.5 114.8 C 232.9 114.3 233.4 113.9 234.2 113.6 C 234.9 113.4 235.8 113.2 236.8 113.2 C 237.7 113.2 238.5 113.4 239.1 113.6 C 239.8 113.8 240.2 114.1 240.5 114.5 C 240.8 114.8 241 115.2 241.1 115.8 C 241.2 116.1 241.2 116.7 241.2 117.5 C 241.2 117.5 241.2 120.1 241.2 120.1 C 241.2 121.9 241.2 123.1 241.3 123.5 C 241.4 124 241.6 124.5 241.8 124.9 C 241.8 124.91 239.8 124.9 239.8 124.9 C 239.8 124.9 239.78 124.91 239.8 124.9 Z M 239.2 119.2 C 238.5 119.5 237.5 119.7 236.1 119.9 C 235.3 120 234.7 120.2 234.4 120.3 C 234.1 120.4 233.8 120.7 233.6 120.9 C 233.4 121.2 233.4 121.5 233.4 121.8 C 233.4 122.4 233.6 122.8 233.9 123.1 C 234.3 123.5 234.9 123.7 235.7 123.7 C 236.4 123.7 237.1 123.5 237.6 123.2 C 238.2 122.8 238.6 122.4 238.9 121.8 C 239.1 121.4 239.2 120.7 239.2 119.9 C 239.2 119.9 239.2 119.2 239.2 119.2 Z M 244.2 124.9 L 244.2 113.5 L 245.9 113.5 C 245.9 113.5 245.93 115.12 245.9 115.1 C 246.8 113.9 248 113.2 249.6 113.2 C 250.2 113.2 250.9 113.4 251.5 113.6 C 252 113.9 252.5 114.2 252.7 114.6 C 253 115 253.2 115.5 253.3 116 C 253.4 116.4 253.5 117 253.5 117.9 C 253.46 117.89 253.5 124.9 253.5 124.9 L 251.5 124.9 C 251.5 124.9 251.52 117.97 251.5 118 C 251.5 117.2 251.4 116.6 251.3 116.2 C 251.1 115.8 250.9 115.5 250.5 115.3 C 250.1 115 249.7 114.9 249.1 114.9 C 248.3 114.9 247.6 115.2 247 115.7 C 246.4 116.2 246.1 117.2 246.1 118.7 C 246.12 118.68 246.1 124.9 246.1 124.9 L 244.2 124.9 Z M 270.3 121.2 C 270.3 121.2 272.3 121.5 272.3 121.5 C 272 122.6 271.4 123.6 270.6 124.2 C 269.7 124.8 268.6 125.2 267.3 125.2 C 265.7 125.2 264.3 124.7 263.4 123.6 C 262.4 122.6 261.9 121.2 261.9 119.3 C 261.9 117.4 262.4 115.9 263.4 114.8 C 264.4 113.8 265.6 113.2 267.2 113.2 C 268.7 113.2 270 113.8 271 114.8 C 271.9 115.8 272.4 117.3 272.4 119.2 C 272.4 119.3 272.4 119.5 272.4 119.7 C 272.4 119.7 263.9 119.7 263.9 119.7 C 264 121 264.3 121.9 265 122.6 C 265.6 123.2 266.4 123.6 267.3 123.6 C 268 123.6 268.6 123.4 269.2 123 C 269.7 122.6 270 122.1 270.3 121.2 Z M 264 118.1 C 264 118.1 270.4 118.1 270.4 118.1 C 270.3 117.1 270 116.4 269.6 115.9 C 269 115.2 268.2 114.8 267.2 114.8 C 266.4 114.8 265.6 115.1 265 115.7 C 264.4 116.3 264.1 117.1 264 118.1 Z M 273.5 124.9 L 277.6 119 L 273.8 113.5 L 276.2 113.5 C 276.2 113.5 277.96 116.17 278 116.2 C 278.3 116.7 278.6 117.1 278.8 117.5 C 279.1 117 279.4 116.6 279.6 116.2 C 279.62 116.2 281.5 113.5 281.5 113.5 L 283.9 113.5 L 279.9 118.9 L 284.2 124.9 L 281.8 124.9 L 279.4 121.4 L 278.8 120.4 L 275.8 124.9 L 273.5 124.9 Z M 293.2 120.7 C 293.2 120.7 295.1 121 295.1 121 C 294.9 122.3 294.4 123.3 293.5 124.1 C 292.7 124.8 291.6 125.2 290.4 125.2 C 288.8 125.2 287.5 124.7 286.6 123.6 C 285.7 122.6 285.2 121.2 285.2 119.2 C 285.2 118 285.4 116.9 285.8 116 C 286.2 115.1 286.8 114.4 287.7 113.9 C 288.5 113.5 289.4 113.2 290.4 113.2 C 291.6 113.2 292.6 113.6 293.4 114.2 C 294.2 114.8 294.7 115.7 294.9 116.9 C 294.9 116.9 293.1 117.1 293.1 117.1 C 292.9 116.4 292.6 115.8 292.1 115.4 C 291.6 115 291.1 114.8 290.5 114.8 C 289.5 114.8 288.7 115.2 288.1 115.9 C 287.5 116.6 287.2 117.7 287.2 119.2 C 287.2 120.7 287.5 121.8 288 122.5 C 288.6 123.2 289.4 123.6 290.3 123.6 C 291.1 123.6 291.7 123.3 292.2 122.9 C 292.8 122.4 293.1 121.7 293.2 120.7 Z M 304.6 121.2 C 304.6 121.2 306.6 121.5 306.6 121.5 C 306.3 122.6 305.7 123.6 304.8 124.2 C 304 124.8 302.9 125.2 301.6 125.2 C 299.9 125.2 298.6 124.7 297.6 123.6 C 296.6 122.6 296.1 121.2 296.1 119.3 C 296.1 117.4 296.6 115.9 297.6 114.8 C 298.6 113.8 299.9 113.2 301.5 113.2 C 303 113.2 304.2 113.8 305.2 114.8 C 306.2 115.8 306.6 117.3 306.6 119.2 C 306.6 119.3 306.6 119.5 306.6 119.7 C 306.6 119.7 298.1 119.7 298.1 119.7 C 298.2 121 298.5 121.9 299.2 122.6 C 299.8 123.2 300.6 123.6 301.6 123.6 C 302.3 123.6 302.9 123.4 303.4 123 C 303.9 122.6 304.3 122.1 304.6 121.2 Z M 298.2 118.1 C 298.2 118.1 304.6 118.1 304.6 118.1 C 304.5 117.1 304.3 116.4 303.9 115.9 C 303.3 115.2 302.5 114.8 301.5 114.8 C 300.6 114.8 299.8 115.1 299.2 115.7 C 298.6 116.3 298.3 117.1 298.2 118.1 Z M 309 129.3 L 309 113.5 L 310.8 113.5 C 310.8 113.5 310.77 114.98 310.8 115 C 311.2 114.4 311.7 114 312.2 113.7 C 312.7 113.4 313.3 113.2 314.1 113.2 C 315 113.2 315.9 113.5 316.7 114 C 317.4 114.5 318 115.2 318.3 116.1 C 318.7 117 318.9 118 318.9 119.1 C 318.9 120.3 318.7 121.3 318.3 122.3 C 317.9 123.2 317.3 123.9 316.5 124.4 C 315.7 124.9 314.8 125.2 313.9 125.2 C 313.3 125.2 312.7 125 312.2 124.8 C 311.7 124.5 311.3 124.1 310.9 123.7 C 310.94 123.73 310.9 129.3 310.9 129.3 L 309 129.3 Z M 310.8 119.3 C 310.8 120.7 311.1 121.8 311.6 122.5 C 312.2 123.2 313 123.6 313.8 123.6 C 314.7 123.6 315.4 123.2 316 122.5 C 316.6 121.8 316.9 120.6 316.9 119.1 C 316.9 117.7 316.6 116.6 316 115.8 C 315.4 115.1 314.7 114.8 313.9 114.8 C 313.1 114.8 312.3 115.1 311.7 115.9 C 311.1 116.7 310.8 117.8 310.8 119.3 Z M 324.6 123.3 C 324.8 123.3 325.1 123.2 325.5 123.2 C 325.5 123.2 325.7 124.9 325.7 124.9 C 325.2 125 324.7 125.1 324.3 125.1 C 323.6 125.1 323 124.9 322.6 124.7 C 322.3 124.5 322 124.2 321.8 123.9 C 321.7 123.5 321.6 122.7 321.6 121.6 C 321.59 121.57 321.6 115 321.6 115 L 320.2 115 L 320.2 113.5 L 321.6 113.5 L 321.6 110.7 L 323.5 109.5 L 323.5 113.5 L 325.5 113.5 L 325.5 115 L 323.5 115 C 323.5 115 323.52 121.67 323.5 121.7 C 323.5 122.2 323.6 122.6 323.6 122.7 C 323.7 122.9 323.8 123 324 123.1 C 324.1 123.2 324.3 123.3 324.6 123.3 C 324.6 123.3 324.6 123.3 324.6 123.3 Z M 327.4 111.4 L 327.4 109.2 L 329.3 109.2 L 329.3 111.4 L 327.4 111.4 Z M 327.4 124.9 L 327.4 113.5 L 329.3 113.5 L 329.3 124.9 L 327.4 124.9 Z M 331.5 119.2 C 331.5 117.1 332.1 115.5 333.3 114.5 C 334.3 113.7 335.5 113.2 336.9 113.2 C 338.4 113.2 339.7 113.8 340.7 114.8 C 341.7 115.8 342.2 117.2 342.2 119 C 342.2 120.5 342 121.7 341.5 122.5 C 341.1 123.3 340.5 124 339.6 124.5 C 338.8 124.9 337.9 125.2 336.9 125.2 C 335.3 125.2 334 124.7 333 123.6 C 332 122.6 331.5 121.1 331.5 119.2 Z M 333.5 119.2 C 333.5 120.7 333.8 121.8 334.5 122.5 C 335.1 123.2 335.9 123.6 336.9 123.6 C 337.8 123.6 338.6 123.2 339.3 122.5 C 339.9 121.8 340.2 120.6 340.2 119.1 C 340.2 117.7 339.9 116.7 339.3 115.9 C 338.6 115.2 337.8 114.8 336.9 114.8 C 335.9 114.8 335.1 115.2 334.5 115.9 C 333.8 116.7 333.5 117.7 333.5 119.2 Z M 344.5 124.9 L 344.5 113.5 L 346.2 113.5 C 346.2 113.5 346.21 115.12 346.2 115.1 C 347.1 113.9 348.3 113.2 349.8 113.2 C 350.5 113.2 351.2 113.4 351.7 113.6 C 352.3 113.9 352.7 114.2 353 114.6 C 353.3 115 353.5 115.5 353.6 116 C 353.7 116.4 353.7 117 353.7 117.9 C 353.75 117.89 353.7 124.9 353.7 124.9 L 351.8 124.9 C 351.8 124.9 351.81 117.97 351.8 118 C 351.8 117.2 351.7 116.6 351.6 116.2 C 351.4 115.8 351.2 115.5 350.8 115.3 C 350.4 115 350 114.9 349.4 114.9 C 348.6 114.9 347.9 115.2 347.3 115.7 C 346.7 116.2 346.4 117.2 346.4 118.7 C 346.41 118.68 346.4 124.9 346.4 124.9 L 344.5 124.9 Z M 364.5 124.9 C 364.3 124.5 364.2 124 364.2 123.5 C 363.4 124.1 362.7 124.5 362.1 124.8 C 361.4 125 360.7 125.2 360 125.2 C 358.7 125.2 357.7 124.9 357.1 124.2 C 356.4 123.6 356.1 122.9 356.1 121.9 C 356.1 121.3 356.2 120.8 356.4 120.4 C 356.7 119.9 357 119.5 357.4 119.3 C 357.8 119 358.3 118.8 358.8 118.6 C 359.2 118.5 359.8 118.4 360.5 118.3 C 362.1 118.1 363.3 117.9 364 117.7 C 364 117.4 364 117.2 364 117.2 C 364 116.4 363.8 115.8 363.5 115.5 C 363 115.1 362.2 114.8 361.3 114.8 C 360.3 114.8 359.7 115 359.2 115.3 C 358.8 115.6 358.5 116.2 358.3 117 C 358.3 117 356.4 116.8 356.4 116.8 C 356.6 115.9 356.8 115.3 357.2 114.8 C 357.6 114.3 358.2 113.9 358.9 113.6 C 359.7 113.4 360.6 113.2 361.5 113.2 C 362.5 113.2 363.3 113.4 363.9 113.6 C 364.5 113.8 365 114.1 365.3 114.5 C 365.5 114.8 365.7 115.2 365.9 115.8 C 365.9 116.1 365.9 116.7 365.9 117.5 C 365.9 117.5 365.9 120.1 365.9 120.1 C 365.9 121.9 366 123.1 366.1 123.5 C 366.2 124 366.3 124.5 366.6 124.9 C 366.56 124.91 364.5 124.9 364.5 124.9 C 364.5 124.9 364.54 124.91 364.5 124.9 Z M 364 119.2 C 363.3 119.5 362.2 119.7 360.8 119.9 C 360 120 359.5 120.2 359.1 120.3 C 358.8 120.4 358.6 120.7 358.4 120.9 C 358.2 121.2 358.1 121.5 358.1 121.8 C 358.1 122.4 358.3 122.8 358.7 123.1 C 359.1 123.5 359.7 123.7 360.4 123.7 C 361.2 123.7 361.8 123.5 362.4 123.2 C 363 122.8 363.4 122.4 363.7 121.8 C 363.9 121.4 364 120.7 364 119.9 C 364 119.9 364 119.2 364 119.2 Z M 368.9 124.9 L 368.9 109.2 L 370.8 109.2 L 370.8 124.9 L 368.9 124.9 Z " stroke="none" fill="#fff"/>  </g>  <g id="Polygon62349">    <path d="M 53.3 98.5 L 53.3 88.6 L 51.6 88.6 L 51.6 87.1 L 53.3 87.1 C 53.3 87.1 53.3 85.89 53.3 85.9 C 53.3 85.1 53.4 84.6 53.5 84.2 C 53.7 83.7 54 83.3 54.5 83 C 55 82.6 55.6 82.5 56.5 82.5 C 57 82.5 57.6 82.6 58.3 82.7 C 58.3 82.7 58 84.4 58 84.4 C 57.6 84.3 57.2 84.3 56.8 84.3 C 56.2 84.3 55.8 84.4 55.6 84.6 C 55.3 84.9 55.2 85.4 55.2 86 C 55.22 86.05 55.2 87.1 55.2 87.1 L 57.4 87.1 L 57.4 88.6 L 55.2 88.6 L 55.2 98.5 L 53.3 98.5 Z M 58.9 98.5 L 58.9 87.1 L 60.7 87.1 C 60.7 87.1 60.67 88.83 60.7 88.8 C 61.1 88 61.5 87.5 61.9 87.2 C 62.3 87 62.7 86.8 63.1 86.8 C 63.8 86.8 64.5 87.1 65.1 87.5 C 65.1 87.5 64.5 89.3 64.5 89.3 C 64 89 63.5 88.8 63 88.8 C 62.6 88.8 62.2 89 61.9 89.2 C 61.6 89.5 61.3 89.8 61.2 90.3 C 61 91 60.9 91.7 60.9 92.5 C 60.86 92.54 60.9 98.5 60.9 98.5 L 58.9 98.5 Z M 65.6 92.8 C 65.6 90.7 66.1 89.1 67.3 88.1 C 68.3 87.3 69.5 86.8 70.9 86.8 C 72.5 86.8 73.8 87.4 74.7 88.4 C 75.7 89.4 76.2 90.8 76.2 92.6 C 76.2 94.1 76 95.3 75.6 96.1 C 75.1 96.9 74.5 97.6 73.7 98.1 C 72.8 98.5 71.9 98.8 70.9 98.8 C 69.3 98.8 68 98.3 67 97.2 C 66 96.2 65.6 94.7 65.6 92.8 Z M 67.5 92.8 C 67.5 94.3 67.9 95.4 68.5 96.1 C 69.1 96.8 69.9 97.2 70.9 97.2 C 71.9 97.2 72.7 96.8 73.3 96.1 C 73.9 95.4 74.3 94.2 74.3 92.7 C 74.3 91.3 73.9 90.3 73.3 89.5 C 72.7 88.8 71.9 88.4 70.9 88.4 C 69.9 88.4 69.1 88.8 68.5 89.5 C 67.9 90.3 67.5 91.3 67.5 92.8 Z M 78.5 98.5 L 78.5 87.1 L 80.2 87.1 C 80.2 87.1 80.24 88.7 80.2 88.7 C 80.6 88.1 81.1 87.7 81.7 87.4 C 82.3 87 82.9 86.8 83.7 86.8 C 84.5 86.8 85.2 87 85.8 87.4 C 86.3 87.7 86.7 88.2 86.9 88.8 C 87.8 87.5 89 86.8 90.4 86.8 C 91.6 86.8 92.4 87.2 93.1 87.8 C 93.7 88.4 94 89.4 94 90.7 C 93.97 90.68 94 98.5 94 98.5 L 92 98.5 C 92 98.5 92.04 91.32 92 91.3 C 92 90.5 92 90 91.9 89.7 C 91.7 89.3 91.5 89 91.2 88.8 C 90.8 88.6 90.5 88.5 90 88.5 C 89.2 88.5 88.5 88.8 88 89.3 C 87.5 89.9 87.2 90.7 87.2 91.9 C 87.22 91.88 87.2 98.5 87.2 98.5 L 85.3 98.5 C 85.3 98.5 85.29 91.1 85.3 91.1 C 85.3 90.2 85.1 89.6 84.8 89.2 C 84.5 88.7 84 88.5 83.3 88.5 C 82.7 88.5 82.2 88.7 81.8 88.9 C 81.3 89.2 81 89.7 80.8 90.2 C 80.5 90.8 80.4 91.6 80.4 92.6 C 80.44 92.59 80.4 98.5 80.4 98.5 L 78.5 98.5 Z M 110.4 94.3 C 110.4 94.3 112.3 94.6 112.3 94.6 C 112.1 95.9 111.6 96.9 110.7 97.7 C 109.8 98.4 108.8 98.8 107.5 98.8 C 106 98.8 104.7 98.3 103.8 97.2 C 102.8 96.2 102.4 94.8 102.4 92.8 C 102.4 91.6 102.6 90.5 103 89.6 C 103.4 88.7 104 88 104.8 87.5 C 105.7 87.1 106.6 86.8 107.6 86.8 C 108.8 86.8 109.8 87.2 110.6 87.8 C 111.4 88.4 111.9 89.3 112.1 90.5 C 112.1 90.5 110.2 90.7 110.2 90.7 C 110.1 90 109.7 89.4 109.3 89 C 108.8 88.6 108.3 88.4 107.6 88.4 C 106.7 88.4 105.9 88.8 105.3 89.5 C 104.6 90.2 104.3 91.3 104.3 92.8 C 104.3 94.3 104.6 95.4 105.2 96.1 C 105.8 96.8 106.6 97.2 107.5 97.2 C 108.3 97.2 108.9 96.9 109.4 96.5 C 109.9 96 110.3 95.3 110.4 94.3 Z M 113.9 98.5 L 113.9 82.8 L 115.8 82.8 L 115.8 98.5 L 113.9 98.5 Z M 118.8 85 L 118.8 82.8 L 120.8 82.8 L 120.8 85 L 118.8 85 Z M 118.8 98.5 L 118.8 87.1 L 120.8 87.1 L 120.8 98.5 L 118.8 98.5 Z M 131.5 94.8 C 131.5 94.8 133.5 95.1 133.5 95.1 C 133.2 96.2 132.6 97.2 131.8 97.8 C 130.9 98.4 129.8 98.8 128.5 98.8 C 126.8 98.8 125.5 98.3 124.5 97.2 C 123.6 96.2 123.1 94.8 123.1 92.9 C 123.1 91 123.6 89.5 124.6 88.4 C 125.5 87.4 126.8 86.8 128.4 86.8 C 129.9 86.8 131.2 87.4 132.1 88.4 C 133.1 89.4 133.6 90.9 133.6 92.8 C 133.6 92.9 133.6 93.1 133.6 93.3 C 133.6 93.3 125.1 93.3 125.1 93.3 C 125.1 94.6 125.5 95.5 126.1 96.2 C 126.8 96.8 127.6 97.2 128.5 97.2 C 129.2 97.2 129.8 97 130.3 96.6 C 130.8 96.2 131.2 95.7 131.5 94.8 Z M 125.2 91.7 C 125.2 91.7 131.6 91.7 131.6 91.7 C 131.5 90.7 131.2 90 130.8 89.5 C 130.2 88.8 129.4 88.4 128.4 88.4 C 127.5 88.4 126.8 88.7 126.2 89.3 C 125.6 89.9 125.2 90.7 125.2 91.7 Z M 136 98.5 L 136 87.1 L 137.7 87.1 C 137.7 87.1 137.7 88.72 137.7 88.7 C 138.5 87.5 139.7 86.8 141.3 86.8 C 142 86.8 142.6 87 143.2 87.2 C 143.8 87.5 144.2 87.8 144.5 88.2 C 144.8 88.6 145 89.1 145.1 89.6 C 145.2 90 145.2 90.6 145.2 91.5 C 145.23 91.49 145.2 98.5 145.2 98.5 L 143.3 98.5 C 143.3 98.5 143.29 91.57 143.3 91.6 C 143.3 90.8 143.2 90.2 143.1 89.8 C 142.9 89.4 142.7 89.1 142.3 88.9 C 141.9 88.6 141.4 88.5 140.9 88.5 C 140.1 88.5 139.4 88.8 138.8 89.3 C 138.2 89.8 137.9 90.8 137.9 92.3 C 137.89 92.28 137.9 98.5 137.9 98.5 L 136 98.5 Z M 151.6 96.9 C 151.8 96.9 152.1 96.8 152.4 96.8 C 152.4 96.8 152.7 98.5 152.7 98.5 C 152.2 98.6 151.7 98.7 151.2 98.7 C 150.5 98.7 150 98.5 149.6 98.3 C 149.2 98.1 148.9 97.8 148.8 97.5 C 148.6 97.1 148.5 96.3 148.5 95.2 C 148.55 95.17 148.5 88.6 148.5 88.6 L 147.1 88.6 L 147.1 87.1 L 148.5 87.1 L 148.5 84.3 L 150.5 83.1 L 150.5 87.1 L 152.4 87.1 L 152.4 88.6 L 150.5 88.6 C 150.5 88.6 150.47 95.27 150.5 95.3 C 150.5 95.8 150.5 96.2 150.6 96.3 C 150.6 96.5 150.8 96.6 150.9 96.7 C 151.1 96.8 151.3 96.9 151.6 96.9 C 151.6 96.9 151.6 96.9 151.6 96.9 Z M 153.5 95.1 C 153.5 95.1 155.4 94.8 155.4 94.8 C 155.6 95.6 155.9 96.2 156.3 96.6 C 156.8 97 157.5 97.2 158.4 97.2 C 159.3 97.2 159.9 97 160.4 96.6 C 160.8 96.3 161 95.8 161 95.4 C 161 94.9 160.8 94.6 160.5 94.3 C 160.2 94.2 159.5 93.9 158.5 93.7 C 157.1 93.3 156.1 93 155.5 92.7 C 155 92.5 154.6 92.1 154.3 91.7 C 154 91.2 153.9 90.7 153.9 90.1 C 153.9 89.6 154 89.2 154.2 88.7 C 154.4 88.3 154.8 87.9 155.2 87.6 C 155.5 87.4 155.9 87.2 156.4 87.1 C 156.9 86.9 157.5 86.8 158.1 86.8 C 158.9 86.8 159.7 87 160.4 87.2 C 161.1 87.5 161.6 87.8 161.9 88.3 C 162.2 88.7 162.5 89.3 162.6 90 C 162.6 90 160.7 90.3 160.7 90.3 C 160.6 89.7 160.4 89.3 159.9 88.9 C 159.5 88.6 158.9 88.4 158.2 88.4 C 157.3 88.4 156.7 88.6 156.3 88.9 C 155.9 89.2 155.7 89.5 155.7 89.9 C 155.7 90.2 155.8 90.4 156 90.6 C 156.1 90.8 156.4 91 156.7 91.1 C 156.9 91.2 157.5 91.3 158.4 91.6 C 159.8 92 160.7 92.3 161.3 92.5 C 161.8 92.7 162.2 93.1 162.5 93.5 C 162.9 93.9 163 94.5 163 95.2 C 163 95.8 162.8 96.4 162.4 97 C 162.1 97.5 161.5 98 160.8 98.3 C 160.1 98.6 159.3 98.8 158.4 98.8 C 156.9 98.8 155.8 98.5 155 97.8 C 154.2 97.2 153.7 96.3 153.5 95.1 Z M 173.5 98.5 L 170 87.1 L 172 87.1 L 173.8 93.7 C 173.8 93.7 174.52 96.13 174.5 96.1 C 174.6 96 174.7 95.2 175.1 93.8 C 175.11 93.78 176.9 87.1 176.9 87.1 L 178.9 87.1 L 180.6 93.7 L 181.2 95.9 L 181.8 93.7 L 183.8 87.1 L 185.7 87.1 L 182.1 98.5 L 180.1 98.5 L 178.3 91.7 L 177.9 89.7 L 175.5 98.5 L 173.5 98.5 Z M 187.3 98.5 L 187.3 82.8 L 189.2 82.8 C 189.2 82.8 189.24 88.41 189.2 88.4 C 190.1 87.4 191.3 86.8 192.7 86.8 C 193.5 86.8 194.2 87 194.9 87.3 C 195.5 87.7 195.9 88.1 196.2 88.7 C 196.5 89.3 196.6 90.2 196.6 91.3 C 196.6 91.28 196.6 98.5 196.6 98.5 L 194.7 98.5 C 194.7 98.5 194.66 91.28 194.7 91.3 C 194.7 90.3 194.5 89.6 194 89.2 C 193.6 88.7 193 88.5 192.3 88.5 C 191.7 88.5 191.1 88.7 190.6 89 C 190.1 89.3 189.8 89.7 189.6 90.2 C 189.3 90.7 189.2 91.4 189.2 92.3 C 189.24 92.27 189.2 98.5 189.2 98.5 L 187.3 98.5 Z M 198.8 92.8 C 198.8 90.7 199.4 89.1 200.6 88.1 C 201.6 87.3 202.8 86.8 204.2 86.8 C 205.7 86.8 207 87.4 208 88.4 C 209 89.4 209.5 90.8 209.5 92.6 C 209.5 94.1 209.3 95.3 208.8 96.1 C 208.4 96.9 207.8 97.6 206.9 98.1 C 206.1 98.5 205.2 98.8 204.2 98.8 C 202.6 98.8 201.3 98.3 200.3 97.2 C 199.3 96.2 198.8 94.7 198.8 92.8 Z M 200.8 92.8 C 200.8 94.3 201.1 95.4 201.8 96.1 C 202.4 96.8 203.2 97.2 204.2 97.2 C 205.1 97.2 205.9 96.8 206.6 96.1 C 207.2 95.4 207.5 94.2 207.5 92.7 C 207.5 91.3 207.2 90.3 206.6 89.5 C 205.9 88.8 205.1 88.4 204.2 88.4 C 203.2 88.4 202.4 88.8 201.8 89.5 C 201.1 90.3 200.8 91.3 200.8 92.8 Z M 220 98.5 L 216.5 87.1 L 218.5 87.1 L 220.3 93.7 C 220.3 93.7 220.99 96.13 221 96.1 C 221 96 221.2 95.2 221.6 93.8 C 221.58 93.78 223.4 87.1 223.4 87.1 L 225.4 87.1 L 227.1 93.7 L 227.7 95.9 L 228.3 93.7 L 230.3 87.1 L 232.2 87.1 L 228.6 98.5 L 226.6 98.5 L 224.8 91.7 L 224.3 89.7 L 222 98.5 L 220 98.5 Z M 241.6 98.5 C 241.4 98.1 241.3 97.6 241.2 97.1 C 240.5 97.7 239.8 98.1 239.2 98.4 C 238.5 98.6 237.8 98.8 237 98.8 C 235.8 98.8 234.8 98.5 234.1 97.8 C 233.5 97.2 233.1 96.5 233.1 95.5 C 233.1 94.9 233.2 94.4 233.5 94 C 233.8 93.5 234.1 93.1 234.5 92.9 C 234.9 92.6 235.4 92.4 235.9 92.2 C 236.3 92.1 236.8 92 237.6 91.9 C 239.2 91.7 240.3 91.5 241.1 91.3 C 241.1 91 241.1 90.8 241.1 90.8 C 241.1 90 240.9 89.4 240.5 89.1 C 240 88.7 239.3 88.4 238.3 88.4 C 237.4 88.4 236.7 88.6 236.3 88.9 C 235.9 89.2 235.6 89.8 235.3 90.6 C 235.3 90.6 233.5 90.4 233.5 90.4 C 233.6 89.5 233.9 88.9 234.3 88.4 C 234.7 87.9 235.3 87.5 236 87.2 C 236.8 87 237.6 86.8 238.6 86.8 C 239.6 86.8 240.4 87 241 87.2 C 241.6 87.4 242 87.7 242.3 88.1 C 242.6 88.4 242.8 88.8 242.9 89.4 C 243 89.7 243 90.3 243 91.1 C 243 91.1 243 93.7 243 93.7 C 243 95.5 243.1 96.7 243.1 97.1 C 243.2 97.6 243.4 98.1 243.6 98.5 C 243.63 98.51 241.6 98.5 241.6 98.5 C 241.6 98.5 241.61 98.51 241.6 98.5 Z M 241.1 92.8 C 240.4 93.1 239.3 93.3 237.9 93.5 C 237.1 93.6 236.5 93.8 236.2 93.9 C 235.9 94 235.6 94.3 235.5 94.5 C 235.3 94.8 235.2 95.1 235.2 95.4 C 235.2 96 235.4 96.4 235.8 96.7 C 236.2 97.1 236.7 97.3 237.5 97.3 C 238.2 97.3 238.9 97.1 239.5 96.8 C 240 96.4 240.5 96 240.7 95.4 C 241 95 241.1 94.3 241.1 93.5 C 241.1 93.5 241.1 92.8 241.1 92.8 Z M 246 98.5 L 246 87.1 L 247.8 87.1 C 247.8 87.1 247.75 88.72 247.8 88.7 C 248.6 87.5 249.8 86.8 251.4 86.8 C 252.1 86.8 252.7 87 253.3 87.2 C 253.9 87.5 254.3 87.8 254.6 88.2 C 254.9 88.6 255.1 89.1 255.2 89.6 C 255.2 90 255.3 90.6 255.3 91.5 C 255.28 91.49 255.3 98.5 255.3 98.5 L 253.3 98.5 C 253.3 98.5 253.35 91.57 253.3 91.6 C 253.3 90.8 253.3 90.2 253.1 89.8 C 253 89.4 252.7 89.1 252.3 88.9 C 251.9 88.6 251.5 88.5 251 88.5 C 250.2 88.5 249.4 88.8 248.8 89.3 C 248.2 89.8 247.9 90.8 247.9 92.3 C 247.95 92.28 247.9 98.5 247.9 98.5 L 246 98.5 Z M 261.6 96.9 C 261.8 96.9 262.1 96.8 262.5 96.8 C 262.5 96.8 262.7 98.5 262.7 98.5 C 262.2 98.6 261.7 98.7 261.3 98.7 C 260.6 98.7 260 98.5 259.7 98.3 C 259.3 98.1 259 97.8 258.8 97.5 C 258.7 97.1 258.6 96.3 258.6 95.2 C 258.6 95.17 258.6 88.6 258.6 88.6 L 257.2 88.6 L 257.2 87.1 L 258.6 87.1 L 258.6 84.3 L 260.5 83.1 L 260.5 87.1 L 262.5 87.1 L 262.5 88.6 L 260.5 88.6 C 260.5 88.6 260.52 95.27 260.5 95.3 C 260.5 95.8 260.6 96.2 260.6 96.3 C 260.7 96.5 260.8 96.6 261 96.7 C 261.1 96.8 261.3 96.9 261.6 96.9 C 261.6 96.9 261.6 96.9 261.6 96.9 Z M 272.2 94.8 C 272.2 94.8 274.2 95.1 274.2 95.1 C 273.9 96.2 273.3 97.2 272.4 97.8 C 271.6 98.4 270.5 98.8 269.2 98.8 C 267.5 98.8 266.2 98.3 265.2 97.2 C 264.2 96.2 263.7 94.8 263.7 92.9 C 263.7 91 264.2 89.5 265.2 88.4 C 266.2 87.4 267.5 86.8 269 86.8 C 270.6 86.8 271.8 87.4 272.8 88.4 C 273.7 89.4 274.2 90.9 274.2 92.8 C 274.2 92.9 274.2 93.1 274.2 93.3 C 274.2 93.3 265.7 93.3 265.7 93.3 C 265.8 94.6 266.1 95.5 266.8 96.2 C 267.4 96.8 268.2 97.2 269.2 97.2 C 269.9 97.2 270.5 97 271 96.6 C 271.5 96.2 271.9 95.7 272.2 94.8 Z M 265.8 91.7 C 265.8 91.7 272.2 91.7 272.2 91.7 C 272.1 90.7 271.9 90 271.5 89.5 C 270.8 88.8 270 88.4 269.1 88.4 C 268.2 88.4 267.4 88.7 266.8 89.3 C 266.2 89.9 265.9 90.7 265.8 91.7 Z M 284 98.5 C 284 98.5 284 97.07 284 97.1 C 283.3 98.2 282.2 98.8 280.8 98.8 C 279.9 98.8 279.1 98.5 278.3 98 C 277.5 97.5 276.9 96.8 276.5 95.9 C 276.1 95 275.9 94 275.9 92.8 C 275.9 91.7 276.1 90.6 276.5 89.7 C 276.8 88.8 277.4 88.1 278.2 87.6 C 278.9 87.1 279.8 86.8 280.7 86.8 C 281.4 86.8 282 87 282.6 87.3 C 283.1 87.6 283.5 87.9 283.9 88.4 C 283.87 88.41 283.9 82.8 283.9 82.8 L 285.8 82.8 L 285.8 98.5 L 284 98.5 Z M 277.9 92.8 C 277.9 94.3 278.2 95.4 278.8 96.1 C 279.4 96.8 280.2 97.2 281 97.2 C 281.8 97.2 282.6 96.8 283.1 96.1 C 283.7 95.4 284 94.4 284 93 C 284 91.4 283.7 90.3 283.1 89.5 C 282.5 88.8 281.8 88.4 280.9 88.4 C 280 88.4 279.3 88.8 278.7 89.5 C 278.2 90.2 277.9 91.3 277.9 92.8 Z M 294.9 98.5 L 294.9 87.1 L 296.7 87.1 C 296.7 87.1 296.67 88.7 296.7 88.7 C 297 88.1 297.5 87.7 298.1 87.4 C 298.7 87 299.4 86.8 300.1 86.8 C 301 86.8 301.7 87 302.2 87.4 C 302.8 87.7 303.1 88.2 303.4 88.8 C 304.3 87.5 305.4 86.8 306.9 86.8 C 308 86.8 308.9 87.2 309.5 87.8 C 310.1 88.4 310.4 89.4 310.4 90.7 C 310.4 90.68 310.4 98.5 310.4 98.5 L 308.5 98.5 C 308.5 98.5 308.48 91.32 308.5 91.3 C 308.5 90.5 308.4 90 308.3 89.7 C 308.2 89.3 307.9 89 307.6 88.8 C 307.3 88.6 306.9 88.5 306.4 88.5 C 305.6 88.5 305 88.8 304.4 89.3 C 303.9 89.9 303.7 90.7 303.7 91.9 C 303.65 91.88 303.7 98.5 303.7 98.5 L 301.7 98.5 C 301.7 98.5 301.72 91.1 301.7 91.1 C 301.7 90.2 301.6 89.6 301.2 89.2 C 300.9 88.7 300.4 88.5 299.7 88.5 C 299.2 88.5 298.7 88.7 298.2 88.9 C 297.7 89.2 297.4 89.7 297.2 90.2 C 297 90.8 296.9 91.6 296.9 92.6 C 296.88 92.59 296.9 98.5 296.9 98.5 L 294.9 98.5 Z M 312.5 92.8 C 312.5 90.7 313.1 89.1 314.3 88.1 C 315.3 87.3 316.5 86.8 317.9 86.8 C 319.5 86.8 320.7 87.4 321.7 88.4 C 322.7 89.4 323.2 90.8 323.2 92.6 C 323.2 94.1 323 95.3 322.6 96.1 C 322.1 96.9 321.5 97.6 320.7 98.1 C 319.8 98.5 318.9 98.8 317.9 98.8 C 316.3 98.8 315 98.3 314 97.2 C 313 96.2 312.5 94.7 312.5 92.8 Z M 314.5 92.8 C 314.5 94.3 314.9 95.4 315.5 96.1 C 316.1 96.8 316.9 97.2 317.9 97.2 C 318.9 97.2 319.7 96.8 320.3 96.1 C 320.9 95.4 321.3 94.2 321.3 92.7 C 321.3 91.3 320.9 90.3 320.3 89.5 C 319.6 88.8 318.9 88.4 317.9 88.4 C 316.9 88.4 316.1 88.8 315.5 89.5 C 314.9 90.3 314.5 91.3 314.5 92.8 Z M 325.5 98.5 L 325.5 87.1 L 327.2 87.1 C 327.2 87.1 327.22 88.83 327.2 88.8 C 327.7 88 328.1 87.5 328.5 87.2 C 328.8 87 329.2 86.8 329.7 86.8 C 330.3 86.8 331 87.1 331.7 87.5 C 331.7 87.5 331 89.3 331 89.3 C 330.5 89 330.1 88.8 329.6 88.8 C 329.2 88.8 328.8 89 328.5 89.2 C 328.1 89.5 327.9 89.8 327.7 90.3 C 327.5 91 327.4 91.7 327.4 92.5 C 327.42 92.54 327.4 98.5 327.4 98.5 L 325.5 98.5 Z M 340.6 94.8 C 340.6 94.8 342.6 95.1 342.6 95.1 C 342.3 96.2 341.7 97.2 340.9 97.8 C 340 98.4 338.9 98.8 337.6 98.8 C 336 98.8 334.6 98.3 333.7 97.2 C 332.7 96.2 332.2 94.8 332.2 92.9 C 332.2 91 332.7 89.5 333.7 88.4 C 334.7 87.4 335.9 86.8 337.5 86.8 C 339 86.8 340.3 87.4 341.3 88.4 C 342.2 89.4 342.7 90.9 342.7 92.8 C 342.7 92.9 342.7 93.1 342.7 93.3 C 342.7 93.3 334.2 93.3 334.2 93.3 C 334.3 94.6 334.6 95.5 335.2 96.2 C 335.9 96.8 336.7 97.2 337.6 97.2 C 338.3 97.2 338.9 97 339.4 96.6 C 339.9 96.2 340.3 95.7 340.6 94.8 Z M 334.3 91.7 C 334.3 91.7 340.7 91.7 340.7 91.7 C 340.6 90.7 340.3 90 339.9 89.5 C 339.3 88.8 338.5 88.4 337.5 88.4 C 336.6 88.4 335.9 88.7 335.3 89.3 C 334.7 89.9 334.4 90.7 334.3 91.7 Z " stroke="none" fill="#fff"/>  </g>  <g id="Polygon62348">    <path d="M 38.2 72.1 C 38.2 72.1 38.18 70.67 38.2 70.7 C 37.5 71.8 36.4 72.4 35 72.4 C 34.1 72.4 33.2 72.1 32.5 71.6 C 31.7 71.1 31.1 70.4 30.7 69.5 C 30.3 68.6 30.1 67.6 30.1 66.4 C 30.1 65.3 30.3 64.2 30.7 63.3 C 31 62.4 31.6 61.7 32.4 61.2 C 33.1 60.7 34 60.4 34.9 60.4 C 35.6 60.4 36.2 60.6 36.7 60.9 C 37.3 61.2 37.7 61.5 38.1 62 C 38.05 62.01 38.1 56.4 38.1 56.4 L 40 56.4 L 40 72.1 L 38.2 72.1 Z M 32.1 66.4 C 32.1 67.9 32.4 69 33 69.7 C 33.6 70.4 34.3 70.8 35.2 70.8 C 36 70.8 36.7 70.4 37.3 69.7 C 37.9 69 38.2 68 38.2 66.6 C 38.2 65 37.9 63.9 37.3 63.1 C 36.7 62.4 36 62 35.1 62 C 34.2 62 33.5 62.4 32.9 63.1 C 32.4 63.8 32.1 64.9 32.1 66.4 Z M 50.8 68.4 C 50.8 68.4 52.8 68.7 52.8 68.7 C 52.5 69.8 51.9 70.8 51.1 71.4 C 50.2 72 49.1 72.4 47.8 72.4 C 46.1 72.4 44.8 71.9 43.8 70.8 C 42.9 69.8 42.4 68.4 42.4 66.5 C 42.4 64.6 42.9 63.1 43.9 62 C 44.8 61 46.1 60.4 47.7 60.4 C 49.2 60.4 50.5 61 51.4 62 C 52.4 63 52.9 64.5 52.9 66.4 C 52.9 66.5 52.9 66.7 52.9 66.9 C 52.9 66.9 44.4 66.9 44.4 66.9 C 44.4 68.2 44.8 69.1 45.4 69.8 C 46.1 70.4 46.9 70.8 47.8 70.8 C 48.5 70.8 49.1 70.6 49.6 70.2 C 50.1 69.8 50.5 69.3 50.8 68.4 Z M 44.5 65.3 C 44.5 65.3 50.8 65.3 50.8 65.3 C 50.8 64.3 50.5 63.6 50.1 63.1 C 49.5 62.4 48.7 62 47.7 62 C 46.8 62 46.1 62.3 45.5 62.9 C 44.9 63.5 44.5 64.3 44.5 65.3 Z M 58.4 72.1 L 54.1 60.7 L 56.1 60.7 C 56.1 60.7 58.57 67.53 58.6 67.5 C 58.8 68.3 59.1 69 59.3 69.8 C 59.5 69.2 59.7 68.5 60 67.7 C 60.02 67.66 62.6 60.7 62.6 60.7 L 64.5 60.7 L 60.2 72.1 L 58.4 72.1 Z M 74.1 68.4 C 74.1 68.4 76.1 68.7 76.1 68.7 C 75.7 69.8 75.2 70.8 74.3 71.4 C 73.5 72 72.4 72.4 71 72.4 C 69.4 72.4 68.1 71.9 67.1 70.8 C 66.1 69.8 65.6 68.4 65.6 66.5 C 65.6 64.6 66.1 63.1 67.1 62 C 68.1 61 69.4 60.4 70.9 60.4 C 72.5 60.4 73.7 61 74.7 62 C 75.6 63 76.1 64.5 76.1 66.4 C 76.1 66.5 76.1 66.7 76.1 66.9 C 76.1 66.9 67.6 66.9 67.6 66.9 C 67.7 68.2 68 69.1 68.7 69.8 C 69.3 70.4 70.1 70.8 71.1 70.8 C 71.8 70.8 72.4 70.6 72.9 70.2 C 73.4 69.8 73.8 69.3 74.1 68.4 Z M 67.7 65.3 C 67.7 65.3 74.1 65.3 74.1 65.3 C 74 64.3 73.8 63.6 73.4 63.1 C 72.7 62.4 71.9 62 71 62 C 70.1 62 69.3 62.3 68.7 62.9 C 68.1 63.5 67.8 64.3 67.7 65.3 Z M 78.4 72.1 L 78.4 56.4 L 80.4 56.4 L 80.4 72.1 L 78.4 72.1 Z M 82.7 66.4 C 82.7 64.3 83.2 62.7 84.4 61.7 C 85.4 60.9 86.6 60.4 88 60.4 C 89.6 60.4 90.9 61 91.9 62 C 92.8 63 93.3 64.4 93.3 66.2 C 93.3 67.7 93.1 68.9 92.7 69.7 C 92.2 70.5 91.6 71.2 90.8 71.7 C 89.9 72.1 89 72.4 88 72.4 C 86.4 72.4 85.1 71.9 84.1 70.8 C 83.1 69.8 82.7 68.3 82.7 66.4 Z M 84.6 66.4 C 84.6 67.9 85 69 85.6 69.7 C 86.2 70.4 87 70.8 88 70.8 C 89 70.8 89.8 70.4 90.4 69.7 C 91 69 91.4 67.8 91.4 66.3 C 91.4 64.9 91 63.9 90.4 63.1 C 89.8 62.4 89 62 88 62 C 87 62 86.2 62.4 85.6 63.1 C 85 63.9 84.6 64.9 84.6 66.4 Z M 95.6 76.5 L 95.6 60.7 L 97.4 60.7 C 97.4 60.7 97.37 62.18 97.4 62.2 C 97.8 61.6 98.3 61.2 98.8 60.9 C 99.3 60.6 99.9 60.4 100.7 60.4 C 101.7 60.4 102.5 60.7 103.3 61.2 C 104 61.7 104.6 62.4 104.9 63.3 C 105.3 64.2 105.5 65.2 105.5 66.3 C 105.5 67.5 105.3 68.5 104.9 69.5 C 104.5 70.4 103.9 71.1 103.1 71.6 C 102.3 72.1 101.4 72.4 100.5 72.4 C 99.9 72.4 99.3 72.2 98.8 72 C 98.3 71.7 97.9 71.3 97.5 70.9 C 97.54 70.93 97.5 76.5 97.5 76.5 L 95.6 76.5 Z M 97.4 66.5 C 97.4 67.9 97.7 69 98.3 69.7 C 98.8 70.4 99.6 70.8 100.4 70.8 C 101.3 70.8 102 70.4 102.6 69.7 C 103.2 69 103.5 67.8 103.5 66.3 C 103.5 64.9 103.2 63.8 102.6 63 C 102 62.3 101.3 62 100.5 62 C 99.7 62 98.9 62.3 98.3 63.1 C 97.7 63.9 97.4 65 97.4 66.5 Z M 115.7 68.4 C 115.7 68.4 117.7 68.7 117.7 68.7 C 117.3 69.8 116.8 70.8 115.9 71.4 C 115.1 72 114 72.4 112.6 72.4 C 111 72.4 109.6 71.9 108.7 70.8 C 107.7 69.8 107.2 68.4 107.2 66.5 C 107.2 64.6 107.7 63.1 108.7 62 C 109.7 61 111 60.4 112.5 60.4 C 114.1 60.4 115.3 61 116.3 62 C 117.2 63 117.7 64.5 117.7 66.4 C 117.7 66.5 117.7 66.7 117.7 66.9 C 117.7 66.9 109.2 66.9 109.2 66.9 C 109.3 68.2 109.6 69.1 110.3 69.8 C 110.9 70.4 111.7 70.8 112.6 70.8 C 113.4 70.8 114 70.6 114.5 70.2 C 115 69.8 115.4 69.3 115.7 68.4 Z M 109.3 65.3 C 109.3 65.3 115.7 65.3 115.7 65.3 C 115.6 64.3 115.3 63.6 114.9 63.1 C 114.3 62.4 113.5 62 112.6 62 C 111.7 62 110.9 62.3 110.3 62.9 C 109.7 63.5 109.4 64.3 109.3 65.3 Z M 127.5 72.1 C 127.5 72.1 127.48 70.67 127.5 70.7 C 126.8 71.8 125.7 72.4 124.3 72.4 C 123.4 72.4 122.5 72.1 121.8 71.6 C 121 71.1 120.4 70.4 120 69.5 C 119.6 68.6 119.4 67.6 119.4 66.4 C 119.4 65.3 119.6 64.2 120 63.3 C 120.3 62.4 120.9 61.7 121.7 61.2 C 122.4 60.7 123.3 60.4 124.2 60.4 C 124.9 60.4 125.5 60.6 126 60.9 C 126.6 61.2 127 61.5 127.4 62 C 127.35 62.01 127.4 56.4 127.4 56.4 L 129.3 56.4 L 129.3 72.1 L 127.5 72.1 Z M 121.4 66.4 C 121.4 67.9 121.7 69 122.3 69.7 C 122.9 70.4 123.6 70.8 124.5 70.8 C 125.3 70.8 126 70.4 126.6 69.7 C 127.2 69 127.5 68 127.5 66.6 C 127.5 65 127.2 63.9 126.6 63.1 C 126 62.4 125.3 62 124.4 62 C 123.5 62 122.8 62.4 122.2 63.1 C 121.7 63.8 121.4 64.9 121.4 66.4 Z M 138.4 58.6 L 138.4 56.4 L 140.4 56.4 L 140.4 58.6 L 138.4 58.6 Z M 138.4 72.1 L 138.4 60.7 L 140.4 60.7 L 140.4 72.1 L 138.4 72.1 Z M 143.3 72.1 L 143.3 60.7 L 145.1 60.7 C 145.1 60.7 145.06 62.32 145.1 62.3 C 145.9 61.1 147.1 60.4 148.7 60.4 C 149.4 60.4 150 60.6 150.6 60.8 C 151.2 61.1 151.6 61.4 151.9 61.8 C 152.2 62.2 152.4 62.7 152.5 63.2 C 152.6 63.6 152.6 64.2 152.6 65.1 C 152.59 65.09 152.6 72.1 152.6 72.1 L 150.7 72.1 C 150.7 72.1 150.65 65.17 150.7 65.2 C 150.7 64.4 150.6 63.8 150.4 63.4 C 150.3 63 150 62.7 149.6 62.5 C 149.2 62.2 148.8 62.1 148.3 62.1 C 147.5 62.1 146.7 62.4 146.1 62.9 C 145.5 63.4 145.3 64.4 145.3 65.9 C 145.25 65.88 145.3 72.1 145.3 72.1 L 143.3 72.1 Z M 161.6 72.1 L 161.6 60.7 L 163.4 60.7 C 163.4 60.7 163.38 62.43 163.4 62.4 C 163.8 61.6 164.2 61.1 164.6 60.8 C 165 60.6 165.4 60.4 165.9 60.4 C 166.5 60.4 167.2 60.7 167.8 61.1 C 167.8 61.1 167.2 62.9 167.2 62.9 C 166.7 62.6 166.2 62.4 165.8 62.4 C 165.3 62.4 165 62.6 164.6 62.8 C 164.3 63.1 164 63.4 163.9 63.9 C 163.7 64.6 163.6 65.3 163.6 66.1 C 163.58 66.14 163.6 72.1 163.6 72.1 L 161.6 72.1 Z M 176.8 68.4 C 176.8 68.4 178.8 68.7 178.8 68.7 C 178.5 69.8 177.9 70.8 177 71.4 C 176.2 72 175.1 72.4 173.8 72.4 C 172.1 72.4 170.8 71.9 169.8 70.8 C 168.8 69.8 168.3 68.4 168.3 66.5 C 168.3 64.6 168.8 63.1 169.8 62 C 170.8 61 172.1 60.4 173.7 60.4 C 175.2 60.4 176.4 61 177.4 62 C 178.4 63 178.9 64.5 178.9 66.4 C 178.9 66.5 178.9 66.7 178.9 66.9 C 178.9 66.9 170.3 66.9 170.3 66.9 C 170.4 68.2 170.8 69.1 171.4 69.8 C 172 70.4 172.8 70.8 173.8 70.8 C 174.5 70.8 175.1 70.6 175.6 70.2 C 176.1 69.8 176.5 69.3 176.8 68.4 Z M 170.5 65.3 C 170.5 65.3 176.8 65.3 176.8 65.3 C 176.7 64.3 176.5 63.6 176.1 63.1 C 175.5 62.4 174.7 62 173.7 62 C 172.8 62 172.1 62.3 171.5 62.9 C 170.9 63.5 170.5 64.3 170.5 65.3 Z M 180.5 68.7 C 180.5 68.7 182.4 68.4 182.4 68.4 C 182.5 69.2 182.8 69.8 183.3 70.2 C 183.8 70.6 184.4 70.8 185.3 70.8 C 186.2 70.8 186.9 70.6 187.3 70.2 C 187.7 69.9 187.9 69.4 187.9 69 C 187.9 68.5 187.7 68.2 187.4 67.9 C 187.1 67.8 186.4 67.5 185.4 67.3 C 184 66.9 183 66.6 182.4 66.3 C 181.9 66.1 181.5 65.7 181.2 65.3 C 180.9 64.8 180.8 64.3 180.8 63.7 C 180.8 63.2 180.9 62.8 181.1 62.3 C 181.4 61.9 181.7 61.5 182.1 61.2 C 182.4 61 182.8 60.8 183.3 60.7 C 183.8 60.5 184.4 60.4 185 60.4 C 185.9 60.4 186.7 60.6 187.3 60.8 C 188 61.1 188.5 61.4 188.8 61.9 C 189.2 62.3 189.4 62.9 189.5 63.6 C 189.5 63.6 187.6 63.9 187.6 63.9 C 187.5 63.3 187.3 62.9 186.9 62.5 C 186.4 62.2 185.9 62 185.1 62 C 184.2 62 183.6 62.2 183.2 62.5 C 182.8 62.8 182.6 63.1 182.6 63.5 C 182.6 63.8 182.7 64 182.9 64.2 C 183 64.4 183.3 64.6 183.6 64.7 C 183.8 64.8 184.4 64.9 185.3 65.2 C 186.7 65.6 187.7 65.9 188.2 66.1 C 188.7 66.3 189.2 66.7 189.5 67.1 C 189.8 67.5 189.9 68.1 189.9 68.8 C 189.9 69.4 189.7 70 189.4 70.6 C 189 71.1 188.4 71.6 187.7 71.9 C 187 72.2 186.2 72.4 185.3 72.4 C 183.8 72.4 182.7 72.1 181.9 71.4 C 181.2 70.8 180.7 69.9 180.5 68.7 Z M 192.2 76.5 L 192.2 60.7 L 194 60.7 C 194 60.7 193.99 62.18 194 62.2 C 194.4 61.6 194.9 61.2 195.4 60.9 C 195.9 60.6 196.6 60.4 197.3 60.4 C 198.3 60.4 199.1 60.7 199.9 61.2 C 200.6 61.7 201.2 62.4 201.6 63.3 C 201.9 64.2 202.1 65.2 202.1 66.3 C 202.1 67.5 201.9 68.5 201.5 69.5 C 201.1 70.4 200.5 71.1 199.7 71.6 C 198.9 72.1 198 72.4 197.2 72.4 C 196.5 72.4 195.9 72.2 195.4 72 C 194.9 71.7 194.5 71.3 194.2 70.9 C 194.16 70.93 194.2 76.5 194.2 76.5 L 192.2 76.5 Z M 194 66.5 C 194 67.9 194.3 69 194.9 69.7 C 195.5 70.4 196.2 70.8 197 70.8 C 197.9 70.8 198.6 70.4 199.2 69.7 C 199.8 69 200.2 67.8 200.2 66.3 C 200.2 64.9 199.9 63.8 199.3 63 C 198.7 62.3 197.9 62 197.1 62 C 196.3 62 195.6 62.3 194.9 63.1 C 194.3 63.9 194 65 194 66.5 Z M 203.7 66.4 C 203.7 64.3 204.3 62.7 205.5 61.7 C 206.5 60.9 207.7 60.4 209.1 60.4 C 210.7 60.4 211.9 61 212.9 62 C 213.9 63 214.4 64.4 214.4 66.2 C 214.4 67.7 214.2 68.9 213.8 69.7 C 213.3 70.5 212.7 71.2 211.8 71.7 C 211 72.1 210.1 72.4 209.1 72.4 C 207.5 72.4 206.2 71.9 205.2 70.8 C 204.2 69.8 203.7 68.3 203.7 66.4 Z M 205.7 66.4 C 205.7 67.9 206 69 206.7 69.7 C 207.3 70.4 208.1 70.8 209.1 70.8 C 210.1 70.8 210.8 70.4 211.5 69.7 C 212.1 69 212.4 67.8 212.4 66.3 C 212.4 64.9 212.1 63.9 211.5 63.1 C 210.8 62.4 210 62 209.1 62 C 208.1 62 207.3 62.4 206.7 63.1 C 206 63.9 205.7 64.9 205.7 66.4 Z M 216.7 72.1 L 216.7 60.7 L 218.4 60.7 C 218.4 60.7 218.44 62.32 218.4 62.3 C 219.3 61.1 220.5 60.4 222.1 60.4 C 222.8 60.4 223.4 60.6 224 60.8 C 224.5 61.1 225 61.4 225.3 61.8 C 225.5 62.2 225.7 62.7 225.9 63.2 C 225.9 63.6 226 64.2 226 65.1 C 225.97 65.09 226 72.1 226 72.1 L 224 72.1 C 224 72.1 224.03 65.17 224 65.2 C 224 64.4 224 63.8 223.8 63.4 C 223.7 63 223.4 62.7 223 62.5 C 222.6 62.2 222.2 62.1 221.7 62.1 C 220.8 62.1 220.1 62.4 219.5 62.9 C 218.9 63.4 218.6 64.4 218.6 65.9 C 218.63 65.88 218.6 72.1 218.6 72.1 L 216.7 72.1 Z M 228.2 68.7 C 228.2 68.7 230.1 68.4 230.1 68.4 C 230.2 69.2 230.5 69.8 231 70.2 C 231.5 70.6 232.1 70.8 233 70.8 C 233.9 70.8 234.6 70.6 235 70.2 C 235.4 69.9 235.6 69.4 235.6 69 C 235.6 68.5 235.5 68.2 235.1 67.9 C 234.8 67.8 234.2 67.5 233.1 67.3 C 231.7 66.9 230.7 66.6 230.2 66.3 C 229.6 66.1 229.2 65.7 228.9 65.3 C 228.6 64.8 228.5 64.3 228.5 63.7 C 228.5 63.2 228.6 62.8 228.8 62.3 C 229.1 61.9 229.4 61.5 229.8 61.2 C 230.1 61 230.5 60.8 231 60.7 C 231.5 60.5 232.1 60.4 232.7 60.4 C 233.6 60.4 234.4 60.6 235 60.8 C 235.7 61.1 236.2 61.4 236.5 61.9 C 236.9 62.3 237.1 62.9 237.2 63.6 C 237.2 63.6 235.3 63.9 235.3 63.9 C 235.2 63.3 235 62.9 234.6 62.5 C 234.2 62.2 233.6 62 232.8 62 C 231.9 62 231.3 62.2 230.9 62.5 C 230.5 62.8 230.3 63.1 230.3 63.5 C 230.3 63.8 230.4 64 230.6 64.2 C 230.7 64.4 231 64.6 231.3 64.7 C 231.5 64.8 232.1 64.9 233 65.2 C 234.4 65.6 235.4 65.9 235.9 66.1 C 236.4 66.3 236.9 66.7 237.2 67.1 C 237.5 67.5 237.6 68.1 237.6 68.8 C 237.6 69.4 237.4 70 237.1 70.6 C 236.7 71.1 236.2 71.6 235.4 71.9 C 234.7 72.2 233.9 72.4 233 72.4 C 231.6 72.4 230.4 72.1 229.6 71.4 C 228.9 70.8 228.4 69.9 228.2 68.7 Z M 247.7 68.4 C 247.7 68.4 249.7 68.7 249.7 68.7 C 249.4 69.8 248.8 70.8 248 71.4 C 247.1 72 246 72.4 244.7 72.4 C 243.1 72.4 241.7 71.9 240.8 70.8 C 239.8 69.8 239.3 68.4 239.3 66.5 C 239.3 64.6 239.8 63.1 240.8 62 C 241.8 61 243 60.4 244.6 60.4 C 246.1 60.4 247.4 61 248.4 62 C 249.3 63 249.8 64.5 249.8 66.4 C 249.8 66.5 249.8 66.7 249.8 66.9 C 249.8 66.9 241.3 66.9 241.3 66.9 C 241.4 68.2 241.7 69.1 242.3 69.8 C 243 70.4 243.8 70.8 244.7 70.8 C 245.4 70.8 246 70.6 246.5 70.2 C 247.1 69.8 247.4 69.3 247.7 68.4 Z M 241.4 65.3 C 241.4 65.3 247.8 65.3 247.8 65.3 C 247.7 64.3 247.4 63.6 247 63.1 C 246.4 62.4 245.6 62 244.6 62 C 243.7 62 243 62.3 242.4 62.9 C 241.8 63.5 241.5 64.3 241.4 65.3 Z M 261.7 70.5 C 261.9 70.5 262.2 70.4 262.5 70.4 C 262.5 70.4 262.8 72.1 262.8 72.1 C 262.2 72.2 261.7 72.3 261.3 72.3 C 260.6 72.3 260.1 72.1 259.7 71.9 C 259.3 71.7 259 71.4 258.9 71.1 C 258.7 70.7 258.6 69.9 258.6 68.8 C 258.63 68.77 258.6 62.2 258.6 62.2 L 257.2 62.2 L 257.2 60.7 L 258.6 60.7 L 258.6 57.9 L 260.6 56.7 L 260.6 60.7 L 262.5 60.7 L 262.5 62.2 L 260.6 62.2 C 260.6 62.2 260.56 68.87 260.6 68.9 C 260.6 69.4 260.6 69.8 260.7 69.9 C 260.7 70.1 260.8 70.2 261 70.3 C 261.1 70.4 261.4 70.5 261.7 70.5 C 261.7 70.5 261.7 70.5 261.7 70.5 Z M 263.7 66.4 C 263.7 64.3 264.3 62.7 265.4 61.7 C 266.4 60.9 267.6 60.4 269 60.4 C 270.6 60.4 271.9 61 272.9 62 C 273.9 63 274.4 64.4 274.4 66.2 C 274.4 67.7 274.1 68.9 273.7 69.7 C 273.3 70.5 272.6 71.2 271.8 71.7 C 270.9 72.1 270 72.4 269 72.4 C 267.4 72.4 266.1 71.9 265.1 70.8 C 264.2 69.8 263.7 68.3 263.7 66.4 Z M 265.7 66.4 C 265.7 67.9 266 69 266.6 69.7 C 267.3 70.4 268.1 70.8 269 70.8 C 270 70.8 270.8 70.4 271.4 69.7 C 272.1 69 272.4 67.8 272.4 66.3 C 272.4 64.9 272.1 63.9 271.4 63.1 C 270.8 62.4 270 62 269 62 C 268.1 62 267.3 62.4 266.6 63.1 C 266 63.9 265.7 64.9 265.7 66.4 Z M 282.7 72.1 L 282.7 60.7 L 284.5 60.7 C 284.5 60.7 284.46 62.43 284.5 62.4 C 284.9 61.6 285.3 61.1 285.7 60.8 C 286.1 60.6 286.5 60.4 286.9 60.4 C 287.6 60.4 288.2 60.7 288.9 61.1 C 288.9 61.1 288.3 62.9 288.3 62.9 C 287.8 62.6 287.3 62.4 286.8 62.4 C 286.4 62.4 286 62.6 285.7 62.8 C 285.4 63.1 285.1 63.4 285 63.9 C 284.8 64.6 284.7 65.3 284.7 66.1 C 284.65 66.14 284.7 72.1 284.7 72.1 L 282.7 72.1 Z M 297.9 68.4 C 297.9 68.4 299.9 68.7 299.9 68.7 C 299.6 69.8 299 70.8 298.1 71.4 C 297.3 72 296.2 72.4 294.9 72.4 C 293.2 72.4 291.9 71.9 290.9 70.8 C 289.9 69.8 289.4 68.4 289.4 66.5 C 289.4 64.6 289.9 63.1 290.9 62 C 291.9 61 293.2 60.4 294.7 60.4 C 296.3 60.4 297.5 61 298.5 62 C 299.5 63 299.9 64.5 299.9 66.4 C 299.9 66.5 299.9 66.7 299.9 66.9 C 299.9 66.9 291.4 66.9 291.4 66.9 C 291.5 68.2 291.8 69.1 292.5 69.8 C 293.1 70.4 293.9 70.8 294.9 70.8 C 295.6 70.8 296.2 70.6 296.7 70.2 C 297.2 69.8 297.6 69.3 297.9 68.4 Z M 291.5 65.3 C 291.5 65.3 297.9 65.3 297.9 65.3 C 297.8 64.3 297.6 63.6 297.2 63.1 C 296.6 62.4 295.8 62 294.8 62 C 293.9 62 293.1 62.3 292.5 62.9 C 291.9 63.5 291.6 64.3 291.5 65.3 Z M 309.6 76.5 C 309.6 76.5 309.57 70.89 309.6 70.9 C 309.3 71.3 308.9 71.7 308.3 71.9 C 307.8 72.2 307.2 72.4 306.6 72.4 C 305.2 72.4 304.1 71.8 303.1 70.7 C 302.1 69.7 301.6 68.2 301.6 66.3 C 301.6 65.2 301.8 64.1 302.2 63.2 C 302.6 62.3 303.2 61.6 303.9 61.1 C 304.7 60.7 305.5 60.4 306.4 60.4 C 307.8 60.4 309 61 309.8 62.2 C 309.77 62.23 309.8 60.7 309.8 60.7 L 311.5 60.7 L 311.5 76.5 L 309.6 76.5 Z M 303.6 66.4 C 303.6 67.8 303.9 68.9 304.5 69.7 C 305.2 70.4 305.9 70.8 306.7 70.8 C 307.6 70.8 308.3 70.4 308.9 69.7 C 309.5 69 309.8 68 309.8 66.5 C 309.8 65 309.5 63.9 308.8 63.1 C 308.2 62.4 307.5 62 306.6 62 C 305.8 62 305.1 62.3 304.5 63 C 303.9 63.7 303.6 64.9 303.6 66.4 Z M 322 72.1 C 322 72.1 322.01 70.43 322 70.4 C 321.1 71.7 319.9 72.4 318.4 72.4 C 317.7 72.4 317.1 72.2 316.5 72 C 315.9 71.7 315.5 71.4 315.2 71 C 314.9 70.6 314.7 70.1 314.6 69.6 C 314.5 69.2 314.5 68.6 314.5 67.8 C 314.49 67.77 314.5 60.7 314.5 60.7 L 316.4 60.7 C 316.4 60.7 316.43 67.03 316.4 67 C 316.4 68 316.5 68.7 316.5 69.1 C 316.7 69.6 316.9 70 317.3 70.3 C 317.7 70.6 318.2 70.7 318.8 70.7 C 319.4 70.7 319.9 70.6 320.4 70.3 C 320.9 70 321.3 69.6 321.5 69 C 321.7 68.5 321.8 67.8 321.8 66.8 C 321.81 66.81 321.8 60.7 321.8 60.7 L 323.7 60.7 L 323.7 72.1 L 322 72.1 Z M 334.6 68.4 C 334.6 68.4 336.6 68.7 336.6 68.7 C 336.3 69.8 335.7 70.8 334.8 71.4 C 334 72 332.9 72.4 331.6 72.4 C 329.9 72.4 328.6 71.9 327.6 70.8 C 326.6 69.8 326.1 68.4 326.1 66.5 C 326.1 64.6 326.6 63.1 327.6 62 C 328.6 61 329.9 60.4 331.5 60.4 C 333 60.4 334.2 61 335.2 62 C 336.2 63 336.6 64.5 336.6 66.4 C 336.6 66.5 336.6 66.7 336.6 66.9 C 336.6 66.9 328.1 66.9 328.1 66.9 C 328.2 68.2 328.6 69.1 329.2 69.8 C 329.8 70.4 330.6 70.8 331.6 70.8 C 332.3 70.8 332.9 70.6 333.4 70.2 C 333.9 69.8 334.3 69.3 334.6 68.4 Z M 328.2 65.3 C 328.2 65.3 334.6 65.3 334.6 65.3 C 334.5 64.3 334.3 63.6 333.9 63.1 C 333.3 62.4 332.5 62 331.5 62 C 330.6 62 329.8 62.3 329.2 62.9 C 328.6 63.5 328.3 64.3 328.2 65.3 Z M 338.2 68.7 C 338.2 68.7 340.1 68.4 340.1 68.4 C 340.3 69.2 340.6 69.8 341 70.2 C 341.5 70.6 342.2 70.8 343.1 70.8 C 344 70.8 344.6 70.6 345.1 70.2 C 345.5 69.9 345.7 69.4 345.7 69 C 345.7 68.5 345.5 68.2 345.2 67.9 C 344.9 67.8 344.2 67.5 343.2 67.3 C 341.8 66.9 340.8 66.6 340.2 66.3 C 339.7 66.1 339.3 65.7 339 65.3 C 338.7 64.8 338.6 64.3 338.6 63.7 C 338.6 63.2 338.7 62.8 338.9 62.3 C 339.1 61.9 339.5 61.5 339.9 61.2 C 340.2 61 340.6 60.8 341.1 60.7 C 341.6 60.5 342.2 60.4 342.8 60.4 C 343.7 60.4 344.4 60.6 345.1 60.8 C 345.8 61.1 346.3 61.4 346.6 61.9 C 346.9 62.3 347.2 62.9 347.3 63.6 C 347.3 63.6 345.4 63.9 345.4 63.9 C 345.3 63.3 345.1 62.9 344.6 62.5 C 344.2 62.2 343.6 62 342.9 62 C 342 62 341.4 62.2 341 62.5 C 340.6 62.8 340.4 63.1 340.4 63.5 C 340.4 63.8 340.5 64 340.7 64.2 C 340.8 64.4 341.1 64.6 341.4 64.7 C 341.6 64.8 342.2 64.9 343.1 65.2 C 344.5 65.6 345.4 65.9 346 66.1 C 346.5 66.3 346.9 66.7 347.2 67.1 C 347.6 67.5 347.7 68.1 347.7 68.8 C 347.7 69.4 347.5 70 347.1 70.6 C 346.8 71.1 346.2 71.6 345.5 71.9 C 344.8 72.2 344 72.4 343.1 72.4 C 341.6 72.4 340.5 72.1 339.7 71.4 C 338.9 70.8 338.4 69.9 338.2 68.7 Z M 353.4 70.5 C 353.6 70.5 353.9 70.4 354.2 70.4 C 354.2 70.4 354.5 72.1 354.5 72.1 C 354 72.2 353.5 72.3 353 72.3 C 352.3 72.3 351.8 72.1 351.4 71.9 C 351 71.7 350.8 71.4 350.6 71.1 C 350.4 70.7 350.4 69.9 350.4 68.8 C 350.36 68.77 350.4 62.2 350.4 62.2 L 348.9 62.2 L 348.9 60.7 L 350.4 60.7 L 350.4 57.9 L 352.3 56.7 L 352.3 60.7 L 354.2 60.7 L 354.2 62.2 L 352.3 62.2 C 352.3 62.2 352.28 68.87 352.3 68.9 C 352.3 69.4 352.3 69.8 352.4 69.9 C 352.5 70.1 352.6 70.2 352.7 70.3 C 352.9 70.4 353.1 70.5 353.4 70.5 C 353.4 70.5 353.4 70.5 353.4 70.5 Z M 355.3 68.7 C 355.3 68.7 357.3 68.4 357.3 68.4 C 357.4 69.2 357.7 69.8 358.2 70.2 C 358.6 70.6 359.3 70.8 360.2 70.8 C 361.1 70.8 361.8 70.6 362.2 70.2 C 362.6 69.9 362.8 69.4 362.8 69 C 362.8 68.5 362.6 68.2 362.3 67.9 C 362 67.8 361.3 67.5 360.3 67.3 C 358.9 66.9 357.9 66.6 357.3 66.3 C 356.8 66.1 356.4 65.7 356.1 65.3 C 355.8 64.8 355.7 64.3 355.7 63.7 C 355.7 63.2 355.8 62.8 356 62.3 C 356.2 61.9 356.6 61.5 357 61.2 C 357.3 61 357.7 60.8 358.2 60.7 C 358.7 60.5 359.3 60.4 359.9 60.4 C 360.8 60.4 361.5 60.6 362.2 60.8 C 362.9 61.1 363.4 61.4 363.7 61.9 C 364 62.3 364.3 62.9 364.4 63.6 C 364.4 63.6 362.5 63.9 362.5 63.9 C 362.4 63.3 362.2 62.9 361.8 62.5 C 361.3 62.2 360.8 62 360 62 C 359.1 62 358.5 62.2 358.1 62.5 C 357.7 62.8 357.5 63.1 357.5 63.5 C 357.5 63.8 357.6 64 357.8 64.2 C 357.9 64.4 358.2 64.6 358.5 64.7 C 358.7 64.8 359.3 64.9 360.2 65.2 C 361.6 65.6 362.5 65.9 363.1 66.1 C 363.6 66.3 364.1 66.7 364.4 67.1 C 364.7 67.5 364.8 68.1 364.8 68.8 C 364.8 69.4 364.6 70 364.3 70.6 C 363.9 71.1 363.3 71.6 362.6 71.9 C 361.9 72.2 361.1 72.4 360.2 72.4 C 358.7 72.4 357.6 72.1 356.8 71.4 C 356.1 70.8 355.6 69.9 355.3 68.7 Z " stroke="none" fill="#fff"/>  </g>  <g id="Polygon62347">    <path d="M 23.1 38 C 23.1 35.4 23.8 33.4 25.2 31.9 C 26.6 30.4 28.4 29.7 30.6 29.7 C 32.1 29.7 33.4 30 34.6 30.7 C 35.7 31.4 36.6 32.4 37.2 33.6 C 37.8 34.9 38.1 36.3 38.1 37.9 C 38.1 39.5 37.8 40.9 37.2 42.1 C 36.5 43.4 35.6 44.4 34.4 45 C 33.3 45.7 32 46 30.6 46 C 29.1 46 27.8 45.6 26.6 44.9 C 25.5 44.2 24.6 43.2 24 42 C 23.4 40.7 23.1 39.4 23.1 38 Z M 25.2 38.1 C 25.2 40 25.7 41.5 26.8 42.6 C 27.8 43.6 29.1 44.2 30.6 44.2 C 32.2 44.2 33.5 43.6 34.5 42.5 C 35.5 41.4 36 39.9 36 37.8 C 36 36.6 35.8 35.4 35.3 34.5 C 34.9 33.5 34.3 32.8 33.4 32.3 C 32.6 31.7 31.7 31.5 30.6 31.5 C 29.2 31.5 27.9 32 26.8 33 C 25.8 34 25.2 35.7 25.2 38.1 Z M 48.1 45.7 C 48.1 45.7 48.05 44.03 48.1 44 C 47.2 45.3 46 46 44.4 46 C 43.8 46 43.1 45.8 42.5 45.6 C 42 45.3 41.5 45 41.2 44.6 C 41 44.2 40.8 43.7 40.7 43.2 C 40.6 42.8 40.5 42.2 40.5 41.4 C 40.54 41.37 40.5 34.3 40.5 34.3 L 42.5 34.3 C 42.5 34.3 42.47 40.63 42.5 40.6 C 42.5 41.6 42.5 42.3 42.6 42.7 C 42.7 43.2 43 43.6 43.4 43.9 C 43.8 44.2 44.2 44.3 44.8 44.3 C 45.4 44.3 45.9 44.2 46.5 43.9 C 47 43.6 47.3 43.2 47.5 42.6 C 47.7 42.1 47.9 41.4 47.9 40.4 C 47.85 40.41 47.9 34.3 47.9 34.3 L 49.8 34.3 L 49.8 45.7 L 48.1 45.7 Z M 52.8 45.7 L 52.8 34.3 L 54.5 34.3 C 54.5 34.3 54.53 36.03 54.5 36 C 55 35.2 55.4 34.7 55.8 34.4 C 56.1 34.2 56.6 34 57 34 C 57.7 34 58.3 34.3 59 34.7 C 59 34.7 58.3 36.5 58.3 36.5 C 57.9 36.2 57.4 36 56.9 36 C 56.5 36 56.1 36.2 55.8 36.4 C 55.4 36.7 55.2 37 55 37.5 C 54.8 38.2 54.7 38.9 54.7 39.7 C 54.73 39.74 54.7 45.7 54.7 45.7 L 52.8 45.7 Z M 66.4 45.7 L 66.4 30 L 69.6 30 C 69.6 30 73.3 41.11 73.3 41.1 C 73.6 42.1 73.9 42.9 74.1 43.4 C 74.2 42.9 74.5 42 74.9 40.9 C 74.89 40.92 78.7 30 78.7 30 L 81.5 30 L 81.5 45.7 L 79.5 45.7 L 79.5 32.5 L 74.9 45.7 L 73 45.7 L 68.4 32.3 L 68.4 45.7 L 66.4 45.7 Z M 92.4 45.7 C 92.2 45.3 92.1 44.8 92 44.3 C 91.3 44.9 90.6 45.3 90 45.6 C 89.3 45.8 88.6 46 87.8 46 C 86.6 46 85.6 45.7 84.9 45 C 84.3 44.4 83.9 43.7 83.9 42.7 C 83.9 42.1 84 41.6 84.3 41.2 C 84.6 40.7 84.9 40.3 85.3 40.1 C 85.7 39.8 86.2 39.6 86.7 39.4 C 87.1 39.3 87.6 39.2 88.4 39.1 C 90 38.9 91.1 38.7 91.9 38.5 C 91.9 38.2 91.9 38 91.9 38 C 91.9 37.2 91.7 36.6 91.3 36.3 C 90.8 35.9 90.1 35.6 89.1 35.6 C 88.2 35.6 87.5 35.8 87.1 36.1 C 86.7 36.4 86.4 37 86.1 37.8 C 86.1 37.8 84.3 37.6 84.3 37.6 C 84.4 36.7 84.7 36.1 85.1 35.6 C 85.5 35.1 86.1 34.7 86.8 34.4 C 87.6 34.2 88.4 34 89.4 34 C 90.4 34 91.2 34.2 91.8 34.4 C 92.4 34.6 92.8 34.9 93.1 35.3 C 93.4 35.6 93.6 36 93.7 36.6 C 93.8 36.9 93.8 37.5 93.8 38.3 C 93.8 38.3 93.8 40.9 93.8 40.9 C 93.8 42.7 93.9 43.9 93.9 44.3 C 94 44.8 94.2 45.3 94.4 45.7 C 94.43 45.71 92.4 45.7 92.4 45.7 C 92.4 45.7 92.41 45.71 92.4 45.7 Z M 91.9 40 C 91.2 40.3 90.1 40.5 88.7 40.7 C 87.9 40.8 87.3 41 87 41.1 C 86.7 41.2 86.4 41.5 86.3 41.7 C 86.1 42 86 42.3 86 42.6 C 86 43.2 86.2 43.6 86.6 43.9 C 87 44.3 87.5 44.5 88.3 44.5 C 89 44.5 89.7 44.3 90.3 44 C 90.9 43.6 91.3 43.2 91.5 42.6 C 91.8 42.2 91.9 41.5 91.9 40.7 C 91.9 40.7 91.9 40 91.9 40 Z M 96.8 45.7 L 96.8 34.3 L 98.6 34.3 C 98.6 34.3 98.55 35.92 98.6 35.9 C 99.4 34.7 100.6 34 102.2 34 C 102.9 34 103.5 34.2 104.1 34.4 C 104.7 34.7 105.1 35 105.4 35.4 C 105.7 35.8 105.9 36.3 106 36.8 C 106 37.2 106.1 37.8 106.1 38.7 C 106.08 38.69 106.1 45.7 106.1 45.7 L 104.2 45.7 C 104.2 45.7 104.15 38.77 104.2 38.8 C 104.2 38 104.1 37.4 103.9 37 C 103.8 36.6 103.5 36.3 103.1 36.1 C 102.7 35.8 102.3 35.7 101.8 35.7 C 101 35.7 100.2 36 99.6 36.5 C 99 37 98.7 38 98.7 39.5 C 98.75 39.48 98.7 45.7 98.7 45.7 L 96.8 45.7 Z M 116.9 45.7 C 116.7 45.3 116.6 44.8 116.5 44.3 C 115.8 44.9 115.1 45.3 114.4 45.6 C 113.8 45.8 113.1 46 112.3 46 C 111 46 110.1 45.7 109.4 45 C 108.7 44.4 108.4 43.7 108.4 42.7 C 108.4 42.1 108.5 41.6 108.8 41.2 C 109 40.7 109.4 40.3 109.8 40.1 C 110.2 39.8 110.6 39.6 111.2 39.4 C 111.5 39.3 112.1 39.2 112.9 39.1 C 114.4 38.9 115.6 38.7 116.3 38.5 C 116.3 38.2 116.3 38 116.3 38 C 116.3 37.2 116.2 36.6 115.8 36.3 C 115.3 35.9 114.6 35.6 113.6 35.6 C 112.7 35.6 112 35.8 111.6 36.1 C 111.1 36.4 110.8 37 110.6 37.8 C 110.6 37.8 108.7 37.6 108.7 37.6 C 108.9 36.7 109.2 36.1 109.6 35.6 C 110 35.1 110.5 34.7 111.3 34.4 C 112 34.2 112.9 34 113.9 34 C 114.8 34 115.6 34.2 116.2 34.4 C 116.9 34.6 117.3 34.9 117.6 35.3 C 117.9 35.6 118.1 36 118.2 36.6 C 118.3 36.9 118.3 37.5 118.3 38.3 C 118.3 38.3 118.3 40.9 118.3 40.9 C 118.3 42.7 118.3 43.9 118.4 44.3 C 118.5 44.8 118.7 45.3 118.9 45.7 C 118.9 45.71 116.9 45.7 116.9 45.7 C 116.9 45.7 116.88 45.71 116.9 45.7 Z M 116.3 40 C 115.6 40.3 114.6 40.5 113.2 40.7 C 112.4 40.8 111.8 41 111.5 41.1 C 111.2 41.2 110.9 41.5 110.7 41.7 C 110.5 42 110.5 42.3 110.5 42.6 C 110.5 43.2 110.7 43.6 111 43.9 C 111.4 44.3 112 44.5 112.8 44.5 C 113.5 44.5 114.2 44.3 114.7 44 C 115.3 43.6 115.7 43.2 116 42.6 C 116.2 42.2 116.3 41.5 116.3 40.7 C 116.3 40.7 116.3 40 116.3 40 Z M 120.9 46.7 C 120.9 46.7 122.8 46.9 122.8 46.9 C 122.9 47.5 123.1 47.9 123.5 48.2 C 123.9 48.6 124.6 48.7 125.4 48.7 C 126.3 48.7 127 48.6 127.5 48.2 C 128 47.8 128.3 47.3 128.5 46.7 C 128.6 46.3 128.6 45.5 128.6 44.2 C 127.8 45.2 126.7 45.7 125.5 45.7 C 123.9 45.7 122.7 45.1 121.8 44 C 121 42.9 120.5 41.5 120.5 39.9 C 120.5 38.9 120.7 37.8 121.1 36.9 C 121.5 36 122.1 35.3 122.8 34.8 C 123.6 34.3 124.5 34 125.5 34 C 126.8 34 127.9 34.6 128.8 35.7 C 128.81 35.68 128.8 34.3 128.8 34.3 L 130.6 34.3 C 130.6 34.3 130.6 44.16 130.6 44.2 C 130.6 45.9 130.4 47.2 130.1 47.9 C 129.7 48.7 129.1 49.3 128.3 49.7 C 127.6 50.1 126.6 50.3 125.4 50.3 C 124.1 50.3 123 50 122.1 49.4 C 121.3 48.8 120.9 47.9 120.9 46.7 Z M 122.5 39.8 C 122.5 41.3 122.8 42.4 123.4 43.1 C 124 43.8 124.8 44.1 125.7 44.1 C 126.5 44.1 127.3 43.8 127.9 43.1 C 128.5 42.4 128.8 41.3 128.8 39.9 C 128.8 38.5 128.5 37.4 127.9 36.7 C 127.2 36 126.5 35.6 125.6 35.6 C 124.8 35.6 124 36 123.4 36.7 C 122.8 37.4 122.5 38.4 122.5 39.8 Z M 141.3 42 C 141.3 42 143.3 42.3 143.3 42.3 C 143 43.4 142.4 44.4 141.6 45 C 140.7 45.6 139.6 46 138.3 46 C 136.6 46 135.3 45.5 134.3 44.4 C 133.4 43.4 132.9 42 132.9 40.1 C 132.9 38.2 133.4 36.7 134.4 35.6 C 135.3 34.6 136.6 34 138.2 34 C 139.7 34 141 34.6 141.9 35.6 C 142.9 36.6 143.4 38.1 143.4 40 C 143.4 40.1 143.4 40.3 143.4 40.5 C 143.4 40.5 134.9 40.5 134.9 40.5 C 134.9 41.8 135.3 42.7 135.9 43.4 C 136.6 44 137.4 44.4 138.3 44.4 C 139 44.4 139.6 44.2 140.1 43.8 C 140.6 43.4 141 42.9 141.3 42 Z M 135 38.9 C 135 38.9 141.4 38.9 141.4 38.9 C 141.3 37.9 141 37.2 140.6 36.7 C 140 36 139.2 35.6 138.2 35.6 C 137.3 35.6 136.6 35.9 136 36.5 C 135.4 37.1 135 37.9 135 38.9 Z M 153.2 45.7 C 153.2 45.7 153.16 44.27 153.2 44.3 C 152.4 45.4 151.4 46 150 46 C 149.1 46 148.2 45.7 147.5 45.2 C 146.7 44.7 146.1 44 145.7 43.1 C 145.3 42.2 145.1 41.2 145.1 40 C 145.1 38.9 145.2 37.8 145.6 36.9 C 146 36 146.6 35.3 147.3 34.8 C 148.1 34.3 148.9 34 149.9 34 C 150.6 34 151.2 34.2 151.7 34.5 C 152.3 34.8 152.7 35.1 153 35.6 C 153.03 35.61 153 30 153 30 L 155 30 L 155 45.7 L 153.2 45.7 Z M 147 40 C 147 41.5 147.4 42.6 148 43.3 C 148.6 44 149.3 44.4 150.1 44.4 C 151 44.4 151.7 44 152.3 43.3 C 152.9 42.6 153.2 41.6 153.2 40.2 C 153.2 38.6 152.9 37.5 152.3 36.7 C 151.7 36 150.9 35.6 150.1 35.6 C 149.2 35.6 148.5 36 147.9 36.7 C 147.3 37.4 147 38.5 147 40 Z M 164.3 45.7 L 164.3 30 L 166.3 30 L 166.3 43.8 L 174.1 43.8 L 174.1 45.7 L 164.3 45.7 Z M 184.1 42 C 184.1 42 186.1 42.3 186.1 42.3 C 185.8 43.4 185.2 44.4 184.4 45 C 183.5 45.6 182.5 46 181.1 46 C 179.5 46 178.1 45.5 177.2 44.4 C 176.2 43.4 175.7 42 175.7 40.1 C 175.7 38.2 176.2 36.7 177.2 35.6 C 178.2 34.6 179.4 34 181 34 C 182.5 34 183.8 34.6 184.8 35.6 C 185.7 36.6 186.2 38.1 186.2 40 C 186.2 40.1 186.2 40.3 186.2 40.5 C 186.2 40.5 177.7 40.5 177.7 40.5 C 177.8 41.8 178.1 42.7 178.8 43.4 C 179.4 44 180.2 44.4 181.1 44.4 C 181.8 44.4 182.5 44.2 183 43.8 C 183.5 43.4 183.9 42.9 184.1 42 Z M 177.8 38.9 C 177.8 38.9 184.2 38.9 184.2 38.9 C 184.1 37.9 183.8 37.2 183.4 36.7 C 182.8 36 182 35.6 181 35.6 C 180.2 35.6 179.4 35.9 178.8 36.5 C 178.2 37.1 177.9 37.9 177.8 38.9 Z M 196.4 45.7 C 196.2 45.3 196.1 44.8 196 44.3 C 195.3 44.9 194.6 45.3 193.9 45.6 C 193.3 45.8 192.6 46 191.8 46 C 190.6 46 189.6 45.7 188.9 45 C 188.3 44.4 187.9 43.7 187.9 42.7 C 187.9 42.1 188 41.6 188.3 41.2 C 188.6 40.7 188.9 40.3 189.3 40.1 C 189.7 39.8 190.2 39.6 190.7 39.4 C 191.1 39.3 191.6 39.2 192.4 39.1 C 194 38.9 195.1 38.7 195.9 38.5 C 195.9 38.2 195.9 38 195.9 38 C 195.9 37.2 195.7 36.6 195.3 36.3 C 194.8 35.9 194.1 35.6 193.1 35.6 C 192.2 35.6 191.5 35.8 191.1 36.1 C 190.7 36.4 190.3 37 190.1 37.8 C 190.1 37.8 188.3 37.6 188.3 37.6 C 188.4 36.7 188.7 36.1 189.1 35.6 C 189.5 35.1 190.1 34.7 190.8 34.4 C 191.6 34.2 192.4 34 193.4 34 C 194.4 34 195.2 34.2 195.8 34.4 C 196.4 34.6 196.8 34.9 197.1 35.3 C 197.4 35.6 197.6 36 197.7 36.6 C 197.8 36.9 197.8 37.5 197.8 38.3 C 197.8 38.3 197.8 40.9 197.8 40.9 C 197.8 42.7 197.9 43.9 197.9 44.3 C 198 44.8 198.2 45.3 198.4 45.7 C 198.42 45.71 196.4 45.7 196.4 45.7 C 196.4 45.7 196.4 45.71 196.4 45.7 Z M 195.9 40 C 195.2 40.3 194.1 40.5 192.7 40.7 C 191.9 40.8 191.3 41 191 41.1 C 190.7 41.2 190.4 41.5 190.2 41.7 C 190.1 42 190 42.3 190 42.6 C 190 43.2 190.2 43.6 190.6 43.9 C 191 44.3 191.5 44.5 192.3 44.5 C 193 44.5 193.7 44.3 194.3 44 C 194.8 43.6 195.3 43.2 195.5 42.6 C 195.8 42.2 195.9 41.5 195.9 40.7 C 195.9 40.7 195.9 40 195.9 40 Z M 200.8 45.7 L 200.8 34.3 L 202.5 34.3 C 202.5 34.3 202.53 36.03 202.5 36 C 203 35.2 203.4 34.7 203.8 34.4 C 204.1 34.2 204.5 34 205 34 C 205.6 34 206.3 34.3 207 34.7 C 207 34.7 206.3 36.5 206.3 36.5 C 205.8 36.2 205.4 36 204.9 36 C 204.5 36 204.1 36.2 203.8 36.4 C 203.4 36.7 203.2 37 203 37.5 C 202.8 38.2 202.7 38.9 202.7 39.7 C 202.72 39.74 202.7 45.7 202.7 45.7 L 200.8 45.7 Z M 208.1 45.7 L 208.1 34.3 L 209.9 34.3 C 209.9 34.3 209.88 35.92 209.9 35.9 C 210.7 34.7 211.9 34 213.5 34 C 214.2 34 214.8 34.2 215.4 34.4 C 216 34.7 216.4 35 216.7 35.4 C 217 35.8 217.2 36.3 217.3 36.8 C 217.4 37.2 217.4 37.8 217.4 38.7 C 217.41 38.69 217.4 45.7 217.4 45.7 L 215.5 45.7 C 215.5 45.7 215.47 38.77 215.5 38.8 C 215.5 38 215.4 37.4 215.2 37 C 215.1 36.6 214.8 36.3 214.4 36.1 C 214.1 35.8 213.6 35.7 213.1 35.7 C 212.3 35.7 211.6 36 211 36.5 C 210.4 37 210.1 38 210.1 39.5 C 210.07 39.48 210.1 45.7 210.1 45.7 L 208.1 45.7 Z M 220.4 32.2 L 220.4 30 L 222.3 30 L 222.3 32.2 L 220.4 32.2 Z M 220.4 45.7 L 220.4 34.3 L 222.3 34.3 L 222.3 45.7 L 220.4 45.7 Z M 225.3 45.7 L 225.3 34.3 L 227 34.3 C 227 34.3 227 35.92 227 35.9 C 227.8 34.7 229 34 230.6 34 C 231.3 34 231.9 34.2 232.5 34.4 C 233.1 34.7 233.5 35 233.8 35.4 C 234.1 35.8 234.3 36.3 234.4 36.8 C 234.5 37.2 234.5 37.8 234.5 38.7 C 234.53 38.69 234.5 45.7 234.5 45.7 L 232.6 45.7 C 232.6 45.7 232.59 38.77 232.6 38.8 C 232.6 38 232.5 37.4 232.4 37 C 232.2 36.6 232 36.3 231.6 36.1 C 231.2 35.8 230.7 35.7 230.2 35.7 C 229.4 35.7 228.7 36 228.1 36.5 C 227.5 37 227.2 38 227.2 39.5 C 227.19 39.48 227.2 45.7 227.2 45.7 L 225.3 45.7 Z M 237.1 46.7 C 237.1 46.7 239 46.9 239 46.9 C 239.1 47.5 239.3 47.9 239.7 48.2 C 240.2 48.6 240.8 48.7 241.6 48.7 C 242.5 48.7 243.2 48.6 243.7 48.2 C 244.2 47.8 244.5 47.3 244.7 46.7 C 244.8 46.3 244.8 45.5 244.8 44.2 C 244 45.2 242.9 45.7 241.7 45.7 C 240.1 45.7 238.9 45.1 238 44 C 237.2 42.9 236.8 41.5 236.8 39.9 C 236.8 38.9 236.9 37.8 237.3 36.9 C 237.7 36 238.3 35.3 239.1 34.8 C 239.8 34.3 240.7 34 241.7 34 C 243 34 244.1 34.6 245 35.7 C 245.02 35.68 245 34.3 245 34.3 L 246.8 34.3 C 246.8 34.3 246.81 44.16 246.8 44.2 C 246.8 45.9 246.6 47.2 246.3 47.9 C 245.9 48.7 245.3 49.3 244.5 49.7 C 243.8 50.1 242.8 50.3 241.7 50.3 C 240.3 50.3 239.2 50 238.4 49.4 C 237.5 48.8 237.1 47.9 237.1 46.7 Z M 238.7 39.8 C 238.7 41.3 239 42.4 239.6 43.1 C 240.2 43.8 241 44.1 241.9 44.1 C 242.8 44.1 243.5 43.8 244.1 43.1 C 244.7 42.4 245 41.3 245 39.9 C 245 38.5 244.7 37.4 244.1 36.7 C 243.5 36 242.7 35.6 241.8 35.6 C 241 35.6 240.2 36 239.6 36.7 C 239 37.4 238.7 38.4 238.7 39.8 Z M 255.4 40.6 C 255.4 40.6 257.3 40.5 257.3 40.5 C 257.4 41.3 257.7 41.9 258 42.4 C 258.3 42.9 258.9 43.3 259.6 43.6 C 260.3 44 261.1 44.1 262 44.1 C 262.8 44.1 263.5 44 264.1 43.8 C 264.7 43.5 265.2 43.2 265.5 42.8 C 265.8 42.4 265.9 41.9 265.9 41.4 C 265.9 40.9 265.8 40.5 265.5 40.1 C 265.2 39.8 264.7 39.5 264.1 39.2 C 263.6 39 262.7 38.8 261.3 38.4 C 259.8 38.1 258.8 37.8 258.2 37.5 C 257.5 37.1 256.9 36.6 256.5 36 C 256.2 35.4 256 34.8 256 34 C 256 33.2 256.2 32.5 256.7 31.8 C 257.1 31.1 257.8 30.6 258.6 30.2 C 259.5 29.9 260.5 29.7 261.5 29.7 C 262.7 29.7 263.7 29.9 264.6 30.3 C 265.5 30.6 266.2 31.2 266.7 31.9 C 267.1 32.6 267.4 33.5 267.4 34.4 C 267.4 34.4 265.4 34.5 265.4 34.5 C 265.3 33.6 265 32.8 264.4 32.3 C 263.7 31.8 262.8 31.5 261.6 31.5 C 260.3 31.5 259.4 31.8 258.9 32.2 C 258.3 32.7 258 33.2 258 33.9 C 258 34.5 258.2 34.9 258.6 35.3 C 259 35.7 260 36 261.7 36.4 C 263.4 36.8 264.6 37.1 265.2 37.4 C 266.1 37.8 266.8 38.4 267.3 39 C 267.7 39.7 267.9 40.4 267.9 41.3 C 267.9 42.1 267.7 42.9 267.2 43.6 C 266.7 44.4 266 44.9 265.1 45.4 C 264.2 45.8 263.2 46 262.1 46 C 260.7 46 259.5 45.8 258.5 45.4 C 257.5 44.9 256.8 44.3 256.2 43.5 C 255.7 42.6 255.4 41.7 255.4 40.6 Z M 278.3 42 C 278.3 42 280.3 42.3 280.3 42.3 C 280 43.4 279.4 44.4 278.6 45 C 277.7 45.6 276.6 46 275.3 46 C 273.6 46 272.3 45.5 271.3 44.4 C 270.4 43.4 269.9 42 269.9 40.1 C 269.9 38.2 270.4 36.7 271.4 35.6 C 272.3 34.6 273.6 34 275.2 34 C 276.7 34 278 34.6 278.9 35.6 C 279.9 36.6 280.4 38.1 280.4 40 C 280.4 40.1 280.4 40.3 280.4 40.5 C 280.4 40.5 271.9 40.5 271.9 40.5 C 271.9 41.8 272.3 42.7 272.9 43.4 C 273.6 44 274.4 44.4 275.3 44.4 C 276 44.4 276.6 44.2 277.1 43.8 C 277.6 43.4 278 42.9 278.3 42 Z M 272 38.9 C 272 38.9 278.3 38.9 278.3 38.9 C 278.3 37.9 278 37.2 277.6 36.7 C 277 36 276.2 35.6 275.2 35.6 C 274.3 35.6 273.6 35.9 273 36.5 C 272.4 37.1 272 37.9 272 38.9 Z M 282.7 45.7 L 282.7 34.3 L 284.5 34.3 C 284.5 34.3 284.47 36.03 284.5 36 C 284.9 35.2 285.3 34.7 285.7 34.4 C 286.1 34.2 286.5 34 286.9 34 C 287.6 34 288.3 34.3 288.9 34.7 C 288.9 34.7 288.3 36.5 288.3 36.5 C 287.8 36.2 287.3 36 286.8 36 C 286.4 36 286 36.2 285.7 36.4 C 285.4 36.7 285.1 37 285 37.5 C 284.8 38.2 284.7 38.9 284.7 39.7 C 284.66 39.74 284.7 45.7 284.7 45.7 L 282.7 45.7 Z M 293.2 45.7 L 288.9 34.3 L 290.9 34.3 C 290.9 34.3 293.4 41.13 293.4 41.1 C 293.7 41.9 293.9 42.6 294.1 43.4 C 294.3 42.8 294.5 42.1 294.8 41.3 C 294.85 41.26 297.4 34.3 297.4 34.3 L 299.4 34.3 L 295 45.7 L 293.2 45.7 Z M 301.1 32.2 L 301.1 30 L 303 30 L 303 32.2 L 301.1 32.2 Z M 301.1 45.7 L 301.1 34.3 L 303 34.3 L 303 45.7 L 301.1 45.7 Z M 313.4 41.5 C 313.4 41.5 315.3 41.8 315.3 41.8 C 315.1 43.1 314.6 44.1 313.7 44.9 C 312.9 45.6 311.8 46 310.6 46 C 309 46 307.7 45.5 306.8 44.4 C 305.8 43.4 305.4 42 305.4 40 C 305.4 38.8 305.6 37.7 306 36.8 C 306.4 35.9 307 35.2 307.8 34.7 C 308.7 34.3 309.6 34 310.6 34 C 311.8 34 312.8 34.4 313.6 35 C 314.4 35.6 314.9 36.5 315.1 37.7 C 315.1 37.7 313.2 37.9 313.2 37.9 C 313.1 37.2 312.8 36.6 312.3 36.2 C 311.8 35.8 311.3 35.6 310.6 35.6 C 309.7 35.6 308.9 36 308.3 36.7 C 307.7 37.4 307.4 38.5 307.4 40 C 307.4 41.5 307.7 42.6 308.2 43.3 C 308.8 44 309.6 44.4 310.5 44.4 C 311.3 44.4 311.9 44.1 312.4 43.7 C 312.9 43.2 313.3 42.5 313.4 41.5 Z M 324.8 42 C 324.8 42 326.8 42.3 326.8 42.3 C 326.5 43.4 325.9 44.4 325 45 C 324.2 45.6 323.1 46 321.8 46 C 320.1 46 318.8 45.5 317.8 44.4 C 316.8 43.4 316.3 42 316.3 40.1 C 316.3 38.2 316.8 36.7 317.8 35.6 C 318.8 34.6 320.1 34 321.6 34 C 323.2 34 324.4 34.6 325.4 35.6 C 326.4 36.6 326.8 38.1 326.8 40 C 326.8 40.1 326.8 40.3 326.8 40.5 C 326.8 40.5 318.3 40.5 318.3 40.5 C 318.4 41.8 318.7 42.7 319.4 43.4 C 320 44 320.8 44.4 321.8 44.4 C 322.5 44.4 323.1 44.2 323.6 43.8 C 324.1 43.4 324.5 42.9 324.8 42 Z M 318.4 38.9 C 318.4 38.9 324.8 38.9 324.8 38.9 C 324.7 37.9 324.5 37.2 324.1 36.7 C 323.4 36 322.7 35.6 321.7 35.6 C 320.8 35.6 320 35.9 319.4 36.5 C 318.8 37.1 318.5 37.9 318.4 38.9 Z M 337.4 45.7 L 333.9 34.3 L 335.9 34.3 L 337.7 40.9 C 337.7 40.9 338.42 43.33 338.4 43.3 C 338.4 43.2 338.6 42.4 339 41 C 339.01 40.98 340.8 34.3 340.8 34.3 L 342.8 34.3 L 344.5 40.9 L 345.1 43.1 L 345.7 40.9 L 347.7 34.3 L 349.6 34.3 L 346 45.7 L 344 45.7 L 342.2 38.9 L 341.7 36.9 L 339.4 45.7 L 337.4 45.7 Z M 359 45.7 C 358.8 45.3 358.7 44.8 358.6 44.3 C 357.9 44.9 357.2 45.3 356.6 45.6 C 355.9 45.8 355.2 46 354.4 46 C 353.2 46 352.2 45.7 351.6 45 C 350.9 44.4 350.5 43.7 350.5 42.7 C 350.5 42.1 350.7 41.6 350.9 41.2 C 351.2 40.7 351.5 40.3 351.9 40.1 C 352.3 39.8 352.8 39.6 353.3 39.4 C 353.7 39.3 354.3 39.2 355 39.1 C 356.6 38.9 357.7 38.7 358.5 38.5 C 358.5 38.2 358.5 38 358.5 38 C 358.5 37.2 358.3 36.6 357.9 36.3 C 357.5 35.9 356.7 35.6 355.7 35.6 C 354.8 35.6 354.2 35.8 353.7 36.1 C 353.3 36.4 353 37 352.8 37.8 C 352.8 37.8 350.9 37.6 350.9 37.6 C 351 36.7 351.3 36.1 351.7 35.6 C 352.1 35.1 352.7 34.7 353.4 34.4 C 354.2 34.2 355 34 356 34 C 357 34 357.8 34.2 358.4 34.4 C 359 34.6 359.5 34.9 359.7 35.3 C 360 35.6 360.2 36 360.3 36.6 C 360.4 36.9 360.4 37.5 360.4 38.3 C 360.4 38.3 360.4 40.9 360.4 40.9 C 360.4 42.7 360.5 43.9 360.6 44.3 C 360.6 44.8 360.8 45.3 361 45.7 C 361.05 45.71 359 45.7 359 45.7 C 359 45.7 359.03 45.71 359 45.7 Z M 358.5 40 C 357.8 40.3 356.7 40.5 355.3 40.7 C 354.5 40.8 354 41 353.6 41.1 C 353.3 41.2 353.1 41.5 352.9 41.7 C 352.7 42 352.6 42.3 352.6 42.6 C 352.6 43.2 352.8 43.6 353.2 43.9 C 353.6 44.3 354.2 44.5 354.9 44.5 C 355.7 44.5 356.3 44.3 356.9 44 C 357.5 43.6 357.9 43.2 358.2 42.6 C 358.4 42.2 358.5 41.5 358.5 40.7 C 358.5 40.7 358.5 40 358.5 40 Z M 362.7 42.3 C 362.7 42.3 364.6 42 364.6 42 C 364.7 42.8 365 43.4 365.5 43.8 C 366 44.2 366.6 44.4 367.5 44.4 C 368.4 44.4 369.1 44.2 369.5 43.8 C 369.9 43.5 370.1 43 370.1 42.6 C 370.1 42.1 370 41.8 369.6 41.5 C 369.3 41.4 368.7 41.1 367.6 40.9 C 366.2 40.5 365.2 40.2 364.7 39.9 C 364.1 39.7 363.7 39.3 363.4 38.9 C 363.1 38.4 363 37.9 363 37.3 C 363 36.8 363.1 36.4 363.3 35.9 C 363.6 35.5 363.9 35.1 364.3 34.8 C 364.6 34.6 365 34.4 365.5 34.3 C 366 34.1 366.6 34 367.2 34 C 368.1 34 368.9 34.2 369.5 34.4 C 370.2 34.7 370.7 35 371 35.5 C 371.4 35.9 371.6 36.5 371.7 37.2 C 371.7 37.2 369.8 37.5 369.8 37.5 C 369.7 36.9 369.5 36.5 369.1 36.1 C 368.7 35.8 368.1 35.6 367.3 35.6 C 366.4 35.6 365.8 35.8 365.4 36.1 C 365 36.4 364.9 36.7 364.9 37.1 C 364.9 37.4 364.9 37.6 365.1 37.8 C 365.2 38 365.5 38.2 365.8 38.3 C 366 38.4 366.6 38.5 367.5 38.8 C 368.9 39.2 369.9 39.5 370.4 39.7 C 370.9 39.9 371.4 40.3 371.7 40.7 C 372 41.1 372.1 41.7 372.1 42.4 C 372.1 43 371.9 43.6 371.6 44.2 C 371.2 44.7 370.7 45.2 369.9 45.5 C 369.2 45.8 368.4 46 367.5 46 C 366.1 46 364.9 45.7 364.1 45 C 363.4 44.4 362.9 43.5 362.7 42.3 Z " stroke="none" fill="#fff"/>  </g></svg>