<?xml version="1.0" standalone="no"?><!DOCTYPE svg PUBLIC "-//W3C//DTD SVG 1.1//EN" "http://www.w3.org/Graphics/SVG/1.1/DTD/svg11.dtd"><svg xmlns="http://www.w3.org/2000/svg" version="1.1" width="75.2px" height="35.6px" viewBox="0 -6 75.2 35.6" style="top:-6px">  <desc>Home</desc>  <defs/>  <g id="Polygon60200">    <path d="M 10 17 L 10 1.3 L 12.1 1.3 L 12.1 7.7 L 20.3 7.7 L 20.3 1.3 L 22.4 1.3 L 22.4 17 L 20.3 17 L 20.3 9.6 L 12.1 9.6 L 12.1 17 L 10 17 Z M 24.9 11.3 C 24.9 9.2 25.5 7.6 26.7 6.6 C 27.6 5.8 28.8 5.3 30.2 5.3 C 31.8 5.3 33.1 5.8 34.1 6.9 C 35.1 7.9 35.6 9.3 35.6 11.1 C 35.6 12.6 35.4 13.8 34.9 14.6 C 34.5 15.4 33.8 16.1 33 16.6 C 32.2 17 31.2 17.3 30.2 17.3 C 28.6 17.3 27.4 16.7 26.4 15.7 C 25.4 14.7 24.9 13.2 24.9 11.3 Z M 26.9 11.3 C 26.9 12.8 27.2 13.9 27.8 14.6 C 28.5 15.3 29.3 15.7 30.2 15.7 C 31.2 15.7 32 15.3 32.6 14.6 C 33.3 13.8 33.6 12.7 33.6 11.2 C 33.6 9.8 33.3 8.8 32.6 8 C 32 7.3 31.2 6.9 30.2 6.9 C 29.3 6.9 28.5 7.3 27.8 8 C 27.2 8.7 26.9 9.8 26.9 11.3 Z M 37.9 17 L 37.9 5.6 L 39.6 5.6 C 39.6 5.6 39.58 7.19 39.6 7.2 C 39.9 6.6 40.4 6.2 41 5.8 C 41.6 5.5 42.3 5.3 43 5.3 C 43.9 5.3 44.6 5.5 45.1 5.9 C 45.7 6.2 46 6.7 46.3 7.3 C 47.2 6 48.3 5.3 49.8 5.3 C 50.9 5.3 51.8 5.6 52.4 6.3 C 53 6.9 53.3 7.9 53.3 9.2 C 53.31 9.17 53.3 17 53.3 17 L 51.4 17 C 51.4 17 51.39 9.81 51.4 9.8 C 51.4 9 51.3 8.5 51.2 8.1 C 51.1 7.8 50.8 7.5 50.5 7.3 C 50.2 7.1 49.8 7 49.4 7 C 48.6 7 47.9 7.3 47.4 7.8 C 46.8 8.3 46.6 9.2 46.6 10.4 C 46.56 10.37 46.6 17 46.6 17 L 44.6 17 C 44.6 17 44.63 9.59 44.6 9.6 C 44.6 8.7 44.5 8.1 44.2 7.7 C 43.8 7.2 43.3 7 42.6 7 C 42.1 7 41.6 7.2 41.1 7.4 C 40.6 7.7 40.3 8.1 40.1 8.7 C 39.9 9.2 39.8 10 39.8 11.1 C 39.79 11.08 39.8 17 39.8 17 L 37.9 17 Z M 64 13.3 C 64 13.3 66 13.6 66 13.6 C 65.7 14.7 65.1 15.6 64.2 16.3 C 63.4 16.9 62.3 17.3 61 17.3 C 59.3 17.3 58 16.7 57 15.7 C 56 14.7 55.5 13.2 55.5 11.4 C 55.5 9.5 56 8 57 6.9 C 58 5.9 59.3 5.3 60.9 5.3 C 62.4 5.3 63.6 5.9 64.6 6.9 C 65.6 7.9 66 9.4 66 11.3 C 66 11.4 66 11.6 66 11.8 C 66 11.8 57.5 11.8 57.5 11.8 C 57.6 13 58 14 58.6 14.7 C 59.2 15.3 60 15.7 61 15.7 C 61.7 15.7 62.3 15.5 62.8 15.1 C 63.3 14.7 63.7 14.1 64 13.3 Z M 57.6 10.2 C 57.6 10.2 64 10.2 64 10.2 C 63.9 9.2 63.7 8.5 63.3 8 C 62.7 7.3 61.9 6.9 60.9 6.9 C 60 6.9 59.2 7.2 58.6 7.8 C 58 8.4 57.7 9.2 57.6 10.2 Z " stroke="none" fill="#f28620"/>  </g></svg>