<?xml version="1.0" standalone="no"?><!DOCTYPE svg PUBLIC "-//W3C//DTD SVG 1.1//EN" "http://www.w3.org/Graphics/SVG/1.1/DTD/svg11.dtd"><svg xmlns="http://www.w3.org/2000/svg" version="1.1" width="492px" height="106.6px" viewBox="0 -16 492 106.6" style="top:-16px">  <desc>WEBINARS Deep dive into on the pulse, industry topics!</desc>  <defs/>  <g id="Polygon62783">    <path d="M 33.6 77.7 L 33.6 61.9 C 33.6 61.9 38.99 61.92 39 61.9 C 40.2 61.9 41.1 62 41.8 62.2 C 42.7 62.4 43.5 62.7 44.1 63.3 C 44.9 64 45.6 64.9 46 66 C 46.4 67.1 46.6 68.3 46.6 69.7 C 46.6 70.9 46.4 72 46.2 72.9 C 45.9 73.8 45.5 74.6 45.1 75.2 C 44.7 75.8 44.2 76.3 43.7 76.6 C 43.1 77 42.5 77.2 41.8 77.4 C 41 77.6 40.2 77.7 39.2 77.7 C 39.25 77.67 33.6 77.7 33.6 77.7 Z M 35.6 75.8 C 35.6 75.8 39.01 75.81 39 75.8 C 40 75.8 40.9 75.7 41.5 75.5 C 42 75.3 42.5 75.1 42.9 74.7 C 43.4 74.2 43.7 73.5 44 72.7 C 44.3 71.9 44.4 70.9 44.4 69.7 C 44.4 68 44.2 66.8 43.6 65.9 C 43.1 65 42.4 64.4 41.7 64.1 C 41.1 63.9 40.2 63.8 39 63.8 C 38.96 63.78 35.6 63.8 35.6 63.8 L 35.6 75.8 Z M 57 74 C 57 74 59 74.2 59 74.2 C 58.7 75.4 58.1 76.3 57.3 77 C 56.4 77.6 55.3 77.9 54 77.9 C 52.3 77.9 51 77.4 50 76.4 C 49 75.4 48.6 73.9 48.6 72.1 C 48.6 70.1 49.1 68.7 50 67.6 C 51 66.5 52.3 66 53.9 66 C 55.4 66 56.7 66.5 57.6 67.6 C 58.6 68.6 59.1 70.1 59.1 71.9 C 59.1 72.1 59.1 72.2 59.1 72.5 C 59.1 72.5 50.6 72.5 50.6 72.5 C 50.6 73.7 51 74.7 51.6 75.3 C 52.3 76 53.1 76.3 54 76.3 C 54.7 76.3 55.3 76.2 55.8 75.8 C 56.3 75.4 56.7 74.8 57 74 Z M 50.7 70.9 C 50.7 70.9 57 70.9 57 70.9 C 56.9 69.9 56.7 69.2 56.3 68.7 C 55.7 68 54.9 67.6 53.9 67.6 C 53 67.6 52.3 67.9 51.7 68.5 C 51.1 69.1 50.7 69.9 50.7 70.9 Z M 69.2 74 C 69.2 74 71.2 74.2 71.2 74.2 C 70.9 75.4 70.3 76.3 69.5 77 C 68.6 77.6 67.6 77.9 66.2 77.9 C 64.6 77.9 63.2 77.4 62.3 76.4 C 61.3 75.4 60.8 73.9 60.8 72.1 C 60.8 70.1 61.3 68.7 62.3 67.6 C 63.3 66.5 64.5 66 66.1 66 C 67.6 66 68.9 66.5 69.9 67.6 C 70.8 68.6 71.3 70.1 71.3 71.9 C 71.3 72.1 71.3 72.2 71.3 72.5 C 71.3 72.5 62.8 72.5 62.8 72.5 C 62.9 73.7 63.2 74.7 63.9 75.3 C 64.5 76 65.3 76.3 66.2 76.3 C 66.9 76.3 67.6 76.2 68.1 75.8 C 68.6 75.4 69 74.8 69.2 74 Z M 62.9 70.9 C 62.9 70.9 69.3 70.9 69.3 70.9 C 69.2 69.9 68.9 69.2 68.5 68.7 C 67.9 68 67.1 67.6 66.1 67.6 C 65.3 67.6 64.5 67.9 63.9 68.5 C 63.3 69.1 63 69.9 62.9 70.9 Z M 73.7 82 L 73.7 66.3 L 75.4 66.3 C 75.4 66.3 75.44 67.75 75.4 67.7 C 75.9 67.2 76.3 66.7 76.8 66.4 C 77.4 66.2 78 66 78.7 66 C 79.7 66 80.6 66.3 81.3 66.8 C 82.1 67.3 82.6 68 83 68.9 C 83.4 69.8 83.6 70.8 83.6 71.9 C 83.6 73.1 83.4 74.1 83 75 C 82.5 76 81.9 76.7 81.1 77.2 C 80.3 77.7 79.5 77.9 78.6 77.9 C 78 77.9 77.4 77.8 76.9 77.5 C 76.4 77.3 75.9 76.9 75.6 76.5 C 75.61 76.49 75.6 82 75.6 82 L 73.7 82 Z M 75.4 72 C 75.4 73.5 75.7 74.6 76.3 75.3 C 76.9 76 77.6 76.3 78.5 76.3 C 79.3 76.3 80.1 76 80.7 75.3 C 81.3 74.5 81.6 73.4 81.6 71.9 C 81.6 70.4 81.3 69.3 80.7 68.6 C 80.1 67.9 79.4 67.5 78.6 67.5 C 77.7 67.5 77 67.9 76.4 68.7 C 75.7 69.4 75.4 70.6 75.4 72 Z M 99.4 77.7 C 99.4 77.7 99.42 76.23 99.4 76.2 C 98.7 77.4 97.6 77.9 96.2 77.9 C 95.3 77.9 94.5 77.7 93.7 77.2 C 93 76.7 92.4 76 92 75.1 C 91.5 74.2 91.3 73.1 91.3 72 C 91.3 70.8 91.5 69.8 91.9 68.9 C 92.3 68 92.8 67.2 93.6 66.7 C 94.4 66.3 95.2 66 96.1 66 C 96.8 66 97.4 66.2 98 66.4 C 98.5 66.7 99 67.1 99.3 67.6 C 99.29 67.58 99.3 61.9 99.3 61.9 L 101.2 61.9 L 101.2 77.7 L 99.4 77.7 Z M 93.3 72 C 93.3 73.4 93.6 74.5 94.2 75.3 C 94.9 76 95.6 76.3 96.4 76.3 C 97.3 76.3 98 76 98.6 75.3 C 99.2 74.6 99.5 73.6 99.5 72.1 C 99.5 70.6 99.2 69.4 98.6 68.7 C 98 68 97.2 67.6 96.3 67.6 C 95.5 67.6 94.8 68 94.2 68.7 C 93.6 69.4 93.3 70.5 93.3 72 Z M 104.3 64.1 L 104.3 61.9 L 106.2 61.9 L 106.2 64.1 L 104.3 64.1 Z M 104.3 77.7 L 104.3 66.3 L 106.2 66.3 L 106.2 77.7 L 104.3 77.7 Z M 112.3 77.7 L 108 66.3 L 110 66.3 C 110 66.3 112.46 73.1 112.5 73.1 C 112.7 73.8 113 74.6 113.2 75.4 C 113.4 74.8 113.6 74.1 113.9 73.2 C 113.91 73.23 116.4 66.3 116.4 66.3 L 118.4 66.3 L 114.1 77.7 L 112.3 77.7 Z M 128 74 C 128 74 130 74.2 130 74.2 C 129.6 75.4 129.1 76.3 128.2 77 C 127.3 77.6 126.3 77.9 124.9 77.9 C 123.3 77.9 121.9 77.4 121 76.4 C 120 75.4 119.5 73.9 119.5 72.1 C 119.5 70.1 120 68.7 121 67.6 C 122 66.5 123.3 66 124.8 66 C 126.4 66 127.6 66.5 128.6 67.6 C 129.5 68.6 130 70.1 130 71.9 C 130 72.1 130 72.2 130 72.5 C 130 72.5 121.5 72.5 121.5 72.5 C 121.6 73.7 121.9 74.7 122.6 75.3 C 123.2 76 124 76.3 124.9 76.3 C 125.7 76.3 126.3 76.2 126.8 75.8 C 127.3 75.4 127.7 74.8 128 74 Z M 121.6 70.9 C 121.6 70.9 128 70.9 128 70.9 C 127.9 69.9 127.6 69.2 127.2 68.7 C 126.6 68 125.8 67.6 124.9 67.6 C 124 67.6 123.2 67.9 122.6 68.5 C 122 69.1 121.7 69.9 121.6 70.9 Z M 138.5 64.1 L 138.5 61.9 L 140.4 61.9 L 140.4 64.1 L 138.5 64.1 Z M 138.5 77.7 L 138.5 66.3 L 140.4 66.3 L 140.4 77.7 L 138.5 77.7 Z M 143.4 77.7 L 143.4 66.3 L 145.1 66.3 C 145.1 66.3 145.12 67.89 145.1 67.9 C 146 66.6 147.2 66 148.8 66 C 149.4 66 150.1 66.1 150.6 66.4 C 151.2 66.6 151.7 66.9 151.9 67.3 C 152.2 67.8 152.4 68.2 152.5 68.8 C 152.6 69.1 152.7 69.8 152.7 70.7 C 152.65 70.66 152.7 77.7 152.7 77.7 L 150.7 77.7 C 150.7 77.7 150.72 70.73 150.7 70.7 C 150.7 69.9 150.6 69.4 150.5 69 C 150.3 68.6 150.1 68.3 149.7 68 C 149.3 67.8 148.9 67.7 148.3 67.7 C 147.5 67.7 146.8 67.9 146.2 68.5 C 145.6 69 145.3 70 145.3 71.4 C 145.31 71.44 145.3 77.7 145.3 77.7 L 143.4 77.7 Z M 159 76 C 159.2 76 159.5 76 159.8 75.9 C 159.8 75.9 160.1 77.7 160.1 77.7 C 159.6 77.8 159.1 77.8 158.7 77.8 C 158 77.8 157.4 77.7 157 77.5 C 156.6 77.3 156.4 77 156.2 76.6 C 156 76.3 156 75.5 156 74.3 C 155.97 74.33 156 67.8 156 67.8 L 154.6 67.8 L 154.6 66.3 L 156 66.3 L 156 63.4 L 157.9 62.3 L 157.9 66.3 L 159.8 66.3 L 159.8 67.8 L 157.9 67.8 C 157.9 67.8 157.89 74.44 157.9 74.4 C 157.9 75 157.9 75.3 158 75.5 C 158.1 75.7 158.2 75.8 158.3 75.9 C 158.5 76 158.7 76 159 76 C 159 76 159 76 159 76 Z M 161 72 C 161 69.9 161.6 68.3 162.8 67.3 C 163.8 66.4 164.9 66 166.4 66 C 167.9 66 169.2 66.5 170.2 67.5 C 171.2 68.6 171.7 70 171.7 71.8 C 171.7 73.3 171.5 74.4 171 75.3 C 170.6 76.1 170 76.8 169.1 77.2 C 168.3 77.7 167.4 77.9 166.4 77.9 C 164.8 77.9 163.5 77.4 162.5 76.4 C 161.5 75.4 161 73.9 161 72 Z M 163 72 C 163 73.4 163.3 74.5 164 75.3 C 164.6 76 165.4 76.3 166.4 76.3 C 167.3 76.3 168.1 76 168.8 75.2 C 169.4 74.5 169.7 73.4 169.7 71.9 C 169.7 70.5 169.4 69.4 168.7 68.7 C 168.1 68 167.3 67.6 166.4 67.6 C 165.4 67.6 164.6 68 164 68.7 C 163.3 69.4 163 70.5 163 72 Z M 179.4 72 C 179.4 69.9 179.9 68.3 181.1 67.3 C 182.1 66.4 183.3 66 184.7 66 C 186.3 66 187.6 66.5 188.6 67.5 C 189.5 68.6 190 70 190 71.8 C 190 73.3 189.8 74.4 189.4 75.3 C 188.9 76.1 188.3 76.8 187.5 77.2 C 186.6 77.7 185.7 77.9 184.7 77.9 C 183.1 77.9 181.8 77.4 180.8 76.4 C 179.8 75.4 179.4 73.9 179.4 72 Z M 181.3 72 C 181.3 73.4 181.7 74.5 182.3 75.3 C 182.9 76 183.7 76.3 184.7 76.3 C 185.7 76.3 186.5 76 187.1 75.2 C 187.7 74.5 188.1 73.4 188.1 71.9 C 188.1 70.5 187.7 69.4 187.1 68.7 C 186.5 68 185.7 67.6 184.7 67.6 C 183.7 67.6 182.9 68 182.3 68.7 C 181.7 69.4 181.3 70.5 181.3 72 Z M 192.3 77.7 L 192.3 66.3 L 194.1 66.3 C 194.1 66.3 194.05 67.89 194.1 67.9 C 194.9 66.6 196.1 66 197.7 66 C 198.4 66 199 66.1 199.6 66.4 C 200.2 66.6 200.6 66.9 200.9 67.3 C 201.2 67.8 201.4 68.2 201.5 68.8 C 201.5 69.1 201.6 69.8 201.6 70.7 C 201.58 70.66 201.6 77.7 201.6 77.7 L 199.6 77.7 C 199.6 77.7 199.65 70.73 199.6 70.7 C 199.6 69.9 199.6 69.4 199.4 69 C 199.3 68.6 199 68.3 198.6 68 C 198.2 67.8 197.8 67.7 197.3 67.7 C 196.5 67.7 195.7 67.9 195.1 68.5 C 194.5 69 194.2 70 194.2 71.4 C 194.24 71.44 194.2 77.7 194.2 77.7 L 192.3 77.7 Z M 203.8 72.9 L 203.8 71 L 209.7 71 L 209.7 72.9 L 203.8 72.9 Z M 215.2 76 C 215.5 76 215.7 76 216.1 75.9 C 216.1 75.9 216.4 77.7 216.4 77.7 C 215.8 77.8 215.3 77.8 214.9 77.8 C 214.2 77.8 213.7 77.7 213.3 77.5 C 212.9 77.3 212.6 77 212.5 76.6 C 212.3 76.3 212.2 75.5 212.2 74.3 C 212.23 74.33 212.2 67.8 212.2 67.8 L 210.8 67.8 L 210.8 66.3 L 212.2 66.3 L 212.2 63.4 L 214.1 62.3 L 214.1 66.3 L 216.1 66.3 L 216.1 67.8 L 214.1 67.8 C 214.1 67.8 214.15 74.44 214.1 74.4 C 214.1 75 214.2 75.3 214.3 75.5 C 214.3 75.7 214.4 75.8 214.6 75.9 C 214.7 76 215 76 215.2 76 C 215.2 76 215.2 76 215.2 76 Z M 218 77.7 L 218 61.9 L 219.9 61.9 C 219.9 61.9 219.92 67.58 219.9 67.6 C 220.8 66.5 222 66 223.3 66 C 224.2 66 224.9 66.2 225.5 66.5 C 226.2 66.8 226.6 67.3 226.9 67.9 C 227.1 68.5 227.3 69.3 227.3 70.4 C 227.28 70.44 227.3 77.7 227.3 77.7 L 225.3 77.7 C 225.3 77.7 225.34 70.44 225.3 70.4 C 225.3 69.5 225.1 68.8 224.7 68.3 C 224.3 67.9 223.7 67.7 222.9 67.7 C 222.4 67.7 221.8 67.8 221.3 68.1 C 220.8 68.4 220.5 68.8 220.2 69.3 C 220 69.8 219.9 70.5 219.9 71.4 C 219.92 71.43 219.9 77.7 219.9 77.7 L 218 77.7 Z M 238 74 C 238 74 240 74.2 240 74.2 C 239.7 75.4 239.1 76.3 238.3 77 C 237.4 77.6 236.3 77.9 235 77.9 C 233.3 77.9 232 77.4 231 76.4 C 230.1 75.4 229.6 73.9 229.6 72.1 C 229.6 70.1 230.1 68.7 231.1 67.6 C 232 66.5 233.3 66 234.9 66 C 236.4 66 237.7 66.5 238.6 67.6 C 239.6 68.6 240.1 70.1 240.1 71.9 C 240.1 72.1 240.1 72.2 240.1 72.5 C 240.1 72.5 231.6 72.5 231.6 72.5 C 231.6 73.7 232 74.7 232.6 75.3 C 233.3 76 234.1 76.3 235 76.3 C 235.7 76.3 236.3 76.2 236.8 75.8 C 237.3 75.4 237.7 74.8 238 74 Z M 231.7 70.9 C 231.7 70.9 238.1 70.9 238.1 70.9 C 238 69.9 237.7 69.2 237.3 68.7 C 236.7 68 235.9 67.6 234.9 67.6 C 234 67.6 233.3 67.9 232.7 68.5 C 232.1 69.1 231.7 69.9 231.7 70.9 Z M 241.7 72.9 L 241.7 71 L 247.6 71 L 247.6 72.9 L 241.7 72.9 Z M 249.8 82 L 249.8 66.3 L 251.5 66.3 C 251.5 66.3 251.54 67.75 251.5 67.7 C 252 67.2 252.4 66.7 253 66.4 C 253.5 66.2 254.1 66 254.9 66 C 255.8 66 256.7 66.3 257.4 66.8 C 258.2 67.3 258.7 68 259.1 68.9 C 259.5 69.8 259.7 70.8 259.7 71.9 C 259.7 73.1 259.5 74.1 259.1 75 C 258.6 76 258 76.7 257.2 77.2 C 256.4 77.7 255.6 77.9 254.7 77.9 C 254.1 77.9 253.5 77.8 253 77.5 C 252.5 77.3 252 76.9 251.7 76.5 C 251.72 76.49 251.7 82 251.7 82 L 249.8 82 Z M 251.5 72 C 251.5 73.5 251.8 74.6 252.4 75.3 C 253 76 253.7 76.3 254.6 76.3 C 255.4 76.3 256.2 76 256.8 75.3 C 257.4 74.5 257.7 73.4 257.7 71.9 C 257.7 70.4 257.4 69.3 256.8 68.6 C 256.2 67.9 255.5 67.5 254.7 67.5 C 253.8 67.5 253.1 67.9 252.5 68.7 C 251.8 69.4 251.5 70.6 251.5 72 Z M 269.5 77.7 C 269.5 77.7 269.49 76 269.5 76 C 268.6 77.3 267.4 77.9 265.9 77.9 C 265.2 77.9 264.6 77.8 264 77.5 C 263.4 77.3 263 77 262.7 76.6 C 262.4 76.2 262.2 75.7 262.1 75.1 C 262 74.8 262 74.2 262 73.3 C 261.97 73.33 262 66.3 262 66.3 L 263.9 66.3 C 263.9 66.3 263.91 72.59 263.9 72.6 C 263.9 73.6 263.9 74.3 264 74.6 C 264.1 75.1 264.4 75.5 264.8 75.8 C 265.2 76.1 265.7 76.3 266.3 76.3 C 266.8 76.3 267.4 76.1 267.9 75.8 C 268.4 75.5 268.8 75.1 269 74.6 C 269.2 74.1 269.3 73.4 269.3 72.4 C 269.29 72.38 269.3 66.3 269.3 66.3 L 271.2 66.3 L 271.2 77.7 L 269.5 77.7 Z M 274.2 77.7 L 274.2 61.9 L 276.1 61.9 L 276.1 77.7 L 274.2 77.7 Z M 278.4 74.3 C 278.4 74.3 280.3 74 280.3 74 C 280.4 74.7 280.7 75.3 281.2 75.7 C 281.7 76.1 282.4 76.3 283.2 76.3 C 284.1 76.3 284.8 76.2 285.2 75.8 C 285.6 75.4 285.9 75 285.9 74.5 C 285.9 74.1 285.7 73.7 285.3 73.5 C 285 73.3 284.4 73.1 283.3 72.8 C 281.9 72.5 280.9 72.2 280.4 71.9 C 279.8 71.6 279.4 71.3 279.1 70.8 C 278.8 70.4 278.7 69.9 278.7 69.3 C 278.7 68.8 278.8 68.3 279 67.9 C 279.3 67.4 279.6 67.1 280 66.8 C 280.3 66.6 280.7 66.4 281.2 66.2 C 281.7 66.1 282.3 66 282.9 66 C 283.8 66 284.6 66.1 285.2 66.4 C 285.9 66.7 286.4 67 286.7 67.4 C 287.1 67.9 287.3 68.5 287.4 69.2 C 287.4 69.2 285.5 69.5 285.5 69.5 C 285.4 68.9 285.2 68.4 284.8 68.1 C 284.4 67.8 283.8 67.6 283 67.6 C 282.1 67.6 281.5 67.7 281.1 68 C 280.7 68.3 280.6 68.7 280.6 69.1 C 280.6 69.3 280.6 69.5 280.8 69.7 C 281 70 281.2 70.1 281.5 70.3 C 281.7 70.3 282.3 70.5 283.2 70.8 C 284.6 71.1 285.6 71.4 286.1 71.7 C 286.6 71.9 287.1 72.2 287.4 72.7 C 287.7 73.1 287.8 73.7 287.8 74.3 C 287.8 75 287.7 75.6 287.3 76.1 C 286.9 76.7 286.4 77.2 285.6 77.5 C 284.9 77.8 284.1 77.9 283.2 77.9 C 281.8 77.9 280.6 77.6 279.9 77 C 279.1 76.4 278.6 75.5 278.4 74.3 Z M 297.9 74 C 297.9 74 299.9 74.2 299.9 74.2 C 299.6 75.4 299 76.3 298.2 77 C 297.3 77.6 296.3 77.9 294.9 77.9 C 293.3 77.9 291.9 77.4 291 76.4 C 290 75.4 289.5 73.9 289.5 72.1 C 289.5 70.1 290 68.7 291 67.6 C 292 66.5 293.2 66 294.8 66 C 296.3 66 297.6 66.5 298.6 67.6 C 299.5 68.6 300 70.1 300 71.9 C 300 72.1 300 72.2 300 72.5 C 300 72.5 291.5 72.5 291.5 72.5 C 291.6 73.7 291.9 74.7 292.6 75.3 C 293.2 76 294 76.3 294.9 76.3 C 295.7 76.3 296.3 76.2 296.8 75.8 C 297.3 75.4 297.7 74.8 297.9 74 Z M 291.6 70.9 C 291.6 70.9 298 70.9 298 70.9 C 297.9 69.9 297.6 69.2 297.2 68.7 C 296.6 68 295.8 67.6 294.8 67.6 C 294 67.6 293.2 67.9 292.6 68.5 C 292 69.1 291.7 69.9 291.6 70.9 Z M 302.9 77.7 L 302.9 75.5 L 305.1 75.5 C 305.1 75.5 305.08 77.67 305.1 77.7 C 305.1 78.5 304.9 79.1 304.7 79.6 C 304.4 80.1 303.9 80.5 303.3 80.8 C 303.3 80.8 302.8 80 302.8 80 C 303.2 79.8 303.5 79.5 303.7 79.2 C 303.8 78.8 304 78.3 304 77.7 C 303.98 77.67 302.9 77.7 302.9 77.7 Z M 314.6 64.1 L 314.6 61.9 L 316.5 61.9 L 316.5 64.1 L 314.6 64.1 Z M 314.6 77.7 L 314.6 66.3 L 316.5 66.3 L 316.5 77.7 L 314.6 77.7 Z M 319.5 77.7 L 319.5 66.3 L 321.2 66.3 C 321.2 66.3 321.23 67.89 321.2 67.9 C 322.1 66.6 323.3 66 324.9 66 C 325.5 66 326.2 66.1 326.8 66.4 C 327.3 66.6 327.8 66.9 328 67.3 C 328.3 67.8 328.5 68.2 328.7 68.8 C 328.7 69.1 328.8 69.8 328.8 70.7 C 328.76 70.66 328.8 77.7 328.8 77.7 L 326.8 77.7 C 326.8 77.7 326.82 70.73 326.8 70.7 C 326.8 69.9 326.7 69.4 326.6 69 C 326.4 68.6 326.2 68.3 325.8 68 C 325.4 67.8 325 67.7 324.5 67.7 C 323.6 67.7 322.9 67.9 322.3 68.5 C 321.7 69 321.4 70 321.4 71.4 C 321.42 71.44 321.4 77.7 321.4 77.7 L 319.5 77.7 Z M 339.1 77.7 C 339.1 77.7 339.12 76.23 339.1 76.2 C 338.4 77.4 337.3 77.9 335.9 77.9 C 335 77.9 334.2 77.7 333.4 77.2 C 332.7 76.7 332.1 76 331.7 75.1 C 331.2 74.2 331 73.1 331 72 C 331 70.8 331.2 69.8 331.6 68.9 C 332 68 332.5 67.2 333.3 66.7 C 334.1 66.3 334.9 66 335.8 66 C 336.5 66 337.1 66.2 337.7 66.4 C 338.2 66.7 338.7 67.1 339 67.6 C 339 67.58 339 61.9 339 61.9 L 340.9 61.9 L 340.9 77.7 L 339.1 77.7 Z M 333 72 C 333 73.4 333.3 74.5 333.9 75.3 C 334.6 76 335.3 76.3 336.1 76.3 C 337 76.3 337.7 76 338.3 75.3 C 338.9 74.6 339.2 73.6 339.2 72.1 C 339.2 70.6 338.9 69.4 338.3 68.7 C 337.7 68 336.9 67.6 336 67.6 C 335.2 67.6 334.5 68 333.9 68.7 C 333.3 69.4 333 70.5 333 72 Z M 351.4 77.7 C 351.4 77.7 351.44 76 351.4 76 C 350.5 77.3 349.3 77.9 347.8 77.9 C 347.1 77.9 346.5 77.8 345.9 77.5 C 345.3 77.3 344.9 77 344.6 76.6 C 344.3 76.2 344.1 75.7 344 75.1 C 344 74.8 343.9 74.2 343.9 73.3 C 343.92 73.33 343.9 66.3 343.9 66.3 L 345.8 66.3 C 345.8 66.3 345.85 72.59 345.8 72.6 C 345.8 73.6 345.9 74.3 346 74.6 C 346.1 75.1 346.3 75.5 346.7 75.8 C 347.1 76.1 347.6 76.3 348.2 76.3 C 348.8 76.3 349.3 76.1 349.8 75.8 C 350.3 75.5 350.7 75.1 350.9 74.6 C 351.1 74.1 351.2 73.4 351.2 72.4 C 351.23 72.38 351.2 66.3 351.2 66.3 L 353.2 66.3 L 353.2 77.7 L 351.4 77.7 Z M 355.4 74.3 C 355.4 74.3 357.3 74 357.3 74 C 357.4 74.7 357.7 75.3 358.2 75.7 C 358.7 76.1 359.4 76.3 360.3 76.3 C 361.2 76.3 361.8 76.2 362.3 75.8 C 362.7 75.4 362.9 75 362.9 74.5 C 362.9 74.1 362.7 73.7 362.3 73.5 C 362.1 73.3 361.4 73.1 360.4 72.8 C 358.9 72.5 358 72.2 357.4 71.9 C 356.9 71.6 356.4 71.3 356.2 70.8 C 355.9 70.4 355.7 69.9 355.7 69.3 C 355.7 68.8 355.9 68.3 356.1 67.9 C 356.3 67.4 356.6 67.1 357 66.8 C 357.3 66.6 357.8 66.4 358.3 66.2 C 358.8 66.1 359.3 66 359.9 66 C 360.8 66 361.6 66.1 362.3 66.4 C 363 66.7 363.5 67 363.8 67.4 C 364.1 67.9 364.3 68.5 364.5 69.2 C 364.5 69.2 362.6 69.5 362.6 69.5 C 362.5 68.9 362.2 68.4 361.8 68.1 C 361.4 67.8 360.8 67.6 360.1 67.6 C 359.2 67.6 358.6 67.7 358.2 68 C 357.8 68.3 357.6 68.7 357.6 69.1 C 357.6 69.3 357.7 69.5 357.8 69.7 C 358 70 358.3 70.1 358.6 70.3 C 358.8 70.3 359.4 70.5 360.3 70.8 C 361.7 71.1 362.6 71.4 363.2 71.7 C 363.7 71.9 364.1 72.2 364.4 72.7 C 364.7 73.1 364.9 73.7 364.9 74.3 C 364.9 75 364.7 75.6 364.3 76.1 C 364 76.7 363.4 77.2 362.7 77.5 C 362 77.8 361.2 77.9 360.3 77.9 C 358.8 77.9 357.7 77.6 356.9 77 C 356.1 76.4 355.6 75.5 355.4 74.3 Z M 370.6 76 C 370.8 76 371.1 76 371.4 75.9 C 371.4 75.9 371.7 77.7 371.7 77.7 C 371.2 77.8 370.7 77.8 370.2 77.8 C 369.5 77.8 369 77.7 368.6 77.5 C 368.2 77.3 367.9 77 367.8 76.6 C 367.6 76.3 367.5 75.5 367.5 74.3 C 367.55 74.33 367.5 67.8 367.5 67.8 L 366.1 67.8 L 366.1 66.3 L 367.5 66.3 L 367.5 63.4 L 369.5 62.3 L 369.5 66.3 L 371.4 66.3 L 371.4 67.8 L 369.5 67.8 C 369.5 67.8 369.47 74.44 369.5 74.4 C 369.5 75 369.5 75.3 369.6 75.5 C 369.6 75.7 369.8 75.8 369.9 75.9 C 370.1 76 370.3 76 370.6 76 C 370.6 76 370.6 76 370.6 76 Z M 373.3 77.7 L 373.3 66.3 L 375 66.3 C 375 66.3 375.02 67.99 375 68 C 375.5 67.2 375.9 66.7 376.3 66.4 C 376.6 66.1 377 66 377.5 66 C 378.1 66 378.8 66.2 379.5 66.6 C 379.5 66.6 378.8 68.4 378.8 68.4 C 378.3 68.1 377.9 68 377.4 68 C 377 68 376.6 68.1 376.3 68.4 C 375.9 68.6 375.7 69 375.5 69.4 C 375.3 70.1 375.2 70.9 375.2 71.7 C 375.22 71.7 375.2 77.7 375.2 77.7 L 373.3 77.7 Z M 381.8 82.3 C 381.4 82.3 381 82.2 380.5 82.1 C 380.5 82.1 380.3 80.3 380.3 80.3 C 380.8 80.4 381.1 80.4 381.4 80.4 C 381.9 80.4 382.2 80.4 382.5 80.2 C 382.7 80.1 382.9 79.9 383.1 79.6 C 383.2 79.4 383.4 78.9 383.7 78.2 C 383.7 78.1 383.8 77.9 383.9 77.7 C 383.87 77.69 379.5 66.3 379.5 66.3 L 381.6 66.3 C 381.6 66.3 383.99 72.87 384 72.9 C 384.3 73.7 384.6 74.6 384.8 75.5 C 385 74.6 385.3 73.8 385.6 72.9 C 385.62 72.91 388.1 66.3 388.1 66.3 L 390 66.3 C 390 66.3 385.65 77.87 385.6 77.9 C 385.2 79.1 384.8 80 384.6 80.5 C 384.2 81.1 383.8 81.6 383.4 81.9 C 382.9 82.2 382.4 82.3 381.8 82.3 C 381.8 82.3 381.8 82.3 381.8 82.3 Z M 401.1 76 C 401.3 76 401.6 76 402 75.9 C 402 75.9 402.2 77.7 402.2 77.7 C 401.7 77.8 401.2 77.8 400.8 77.8 C 400.1 77.8 399.5 77.7 399.2 77.5 C 398.8 77.3 398.5 77 398.3 76.6 C 398.2 76.3 398.1 75.5 398.1 74.3 C 398.1 74.33 398.1 67.8 398.1 67.8 L 396.7 67.8 L 396.7 66.3 L 398.1 66.3 L 398.1 63.4 L 400 62.3 L 400 66.3 L 402 66.3 L 402 67.8 L 400 67.8 C 400 67.8 400.02 74.44 400 74.4 C 400 75 400.1 75.3 400.1 75.5 C 400.2 75.7 400.3 75.8 400.5 75.9 C 400.6 76 400.8 76 401.1 76 C 401.1 76 401.1 76 401.1 76 Z M 403.1 72 C 403.1 69.9 403.7 68.3 404.9 67.3 C 405.9 66.4 407.1 66 408.5 66 C 410.1 66 411.3 66.5 412.3 67.5 C 413.3 68.6 413.8 70 413.8 71.8 C 413.8 73.3 413.6 74.4 413.2 75.3 C 412.7 76.1 412.1 76.8 411.2 77.2 C 410.4 77.7 409.5 77.9 408.5 77.9 C 406.9 77.9 405.6 77.4 404.6 76.4 C 403.6 75.4 403.1 73.9 403.1 72 Z M 405.1 72 C 405.1 73.4 405.4 74.5 406.1 75.3 C 406.7 76 407.5 76.3 408.5 76.3 C 409.4 76.3 410.2 76 410.9 75.2 C 411.5 74.5 411.8 73.4 411.8 71.9 C 411.8 70.5 411.5 69.4 410.9 68.7 C 410.2 68 409.4 67.6 408.5 67.6 C 407.5 67.6 406.7 68 406.1 68.7 C 405.4 69.4 405.1 70.5 405.1 72 Z M 416.1 82 L 416.1 66.3 L 417.9 66.3 C 417.9 66.3 417.85 67.75 417.9 67.7 C 418.3 67.2 418.7 66.7 419.3 66.4 C 419.8 66.2 420.4 66 421.2 66 C 422.1 66 423 66.3 423.7 66.8 C 424.5 67.3 425 68 425.4 68.9 C 425.8 69.8 426 70.8 426 71.9 C 426 73.1 425.8 74.1 425.4 75 C 424.9 76 424.3 76.7 423.5 77.2 C 422.7 77.7 421.9 77.9 421 77.9 C 420.4 77.9 419.8 77.8 419.3 77.5 C 418.8 77.3 418.4 76.9 418 76.5 C 418.03 76.49 418 82 418 82 L 416.1 82 Z M 417.8 72 C 417.8 73.5 418.1 74.6 418.7 75.3 C 419.3 76 420 76.3 420.9 76.3 C 421.8 76.3 422.5 76 423.1 75.3 C 423.7 74.5 424 73.4 424 71.9 C 424 70.4 423.7 69.3 423.1 68.6 C 422.5 67.9 421.8 67.5 421 67.5 C 420.2 67.5 419.4 67.9 418.8 68.7 C 418.2 69.4 417.8 70.6 417.8 72 Z M 428.3 64.1 L 428.3 61.9 L 430.3 61.9 L 430.3 64.1 L 428.3 64.1 Z M 428.3 77.7 L 428.3 66.3 L 430.3 66.3 L 430.3 77.7 L 428.3 77.7 Z M 440.7 73.5 C 440.7 73.5 442.6 73.7 442.6 73.7 C 442.4 75.1 441.8 76.1 441 76.8 C 440.1 77.6 439.1 77.9 437.8 77.9 C 436.3 77.9 435 77.4 434 76.4 C 433.1 75.4 432.6 73.9 432.6 72 C 432.6 70.8 432.8 69.7 433.2 68.8 C 433.6 67.9 434.3 67.2 435.1 66.7 C 435.9 66.2 436.8 66 437.8 66 C 439.1 66 440.1 66.3 440.9 66.9 C 441.7 67.6 442.2 68.5 442.4 69.6 C 442.4 69.6 440.5 69.9 440.5 69.9 C 440.3 69.1 440 68.6 439.5 68.2 C 439.1 67.8 438.5 67.6 437.9 67.6 C 436.9 67.6 436.1 67.9 435.5 68.6 C 434.9 69.3 434.6 70.4 434.6 72 C 434.6 73.5 434.9 74.6 435.5 75.3 C 436.1 76 436.8 76.3 437.8 76.3 C 438.6 76.3 439.2 76.1 439.7 75.6 C 440.2 75.2 440.5 74.5 440.7 73.5 Z M 443.4 74.3 C 443.4 74.3 445.4 74 445.4 74 C 445.5 74.7 445.8 75.3 446.3 75.7 C 446.7 76.1 447.4 76.3 448.3 76.3 C 449.2 76.3 449.9 76.2 450.3 75.8 C 450.7 75.4 450.9 75 450.9 74.5 C 450.9 74.1 450.7 73.7 450.4 73.5 C 450.1 73.3 449.4 73.1 448.4 72.8 C 447 72.5 446 72.2 445.4 71.9 C 444.9 71.6 444.5 71.3 444.2 70.8 C 443.9 70.4 443.8 69.9 443.8 69.3 C 443.8 68.8 443.9 68.3 444.1 67.9 C 444.3 67.4 444.7 67.1 445.1 66.8 C 445.4 66.6 445.8 66.4 446.3 66.2 C 446.8 66.1 447.4 66 448 66 C 448.9 66 449.6 66.1 450.3 66.4 C 451 66.7 451.5 67 451.8 67.4 C 452.1 67.9 452.4 68.5 452.5 69.2 C 452.5 69.2 450.6 69.5 450.6 69.5 C 450.5 68.9 450.3 68.4 449.8 68.1 C 449.4 67.8 448.9 67.6 448.1 67.6 C 447.2 67.6 446.6 67.7 446.2 68 C 445.8 68.3 445.6 68.7 445.6 69.1 C 445.6 69.3 445.7 69.5 445.9 69.7 C 446 70 446.3 70.1 446.6 70.3 C 446.8 70.3 447.4 70.5 448.3 70.8 C 449.7 71.1 450.6 71.4 451.2 71.7 C 451.7 71.9 452.1 72.2 452.5 72.7 C 452.8 73.1 452.9 73.7 452.9 74.3 C 452.9 75 452.7 75.6 452.4 76.1 C 452 76.7 451.4 77.2 450.7 77.5 C 450 77.8 449.2 77.9 448.3 77.9 C 446.8 77.9 445.7 77.6 444.9 77 C 444.2 76.4 443.7 75.5 443.4 74.3 Z M 456.2 73.8 L 455.7 65.4 L 455.7 61.9 L 458.1 61.9 L 458.1 65.4 L 457.5 73.8 L 456.2 73.8 Z M 455.7 77.7 L 455.7 75.5 L 458 75.5 L 458 77.7 L 455.7 77.7 Z " stroke="none" fill="#ffffff"/>  </g>  <g id="Polygon62782">    <path d="M 179.1 4.4 L 170.9 25.1 L 170.4 25.1 L 160.5 0.3 L 162.5 0.3 L 170.6 20.7 L 178.8 0.3 L 179.4 0.3 L 187.6 20.7 L 195.8 0.3 L 197.7 0.3 L 187.8 25.1 L 187.4 25.1 L 179.1 4.4 Z M 213.9 0.3 L 213.9 1.9 L 202.4 1.9 L 202.4 11.7 L 213.6 11.7 L 213.6 13.3 L 202.4 13.3 L 202.4 23.3 L 214.2 23.3 L 214.2 24.9 L 200.5 24.9 L 200.5 0.3 L 213.9 0.3 Z M 218.2 0.3 C 218.2 0.3 223.3 0.32 223.3 0.3 C 226 0.3 228 0.9 229.4 2 C 230.8 3.1 231.5 4.7 231.5 6.7 C 231.5 9 230.3 10.9 227.9 12.1 C 231.7 12.9 233.6 15 233.6 18.4 C 233.6 20.3 232.9 21.9 231.4 23.1 C 229.9 24.3 227.9 24.9 225.4 24.9 C 225.38 24.87 218.2 24.9 218.2 24.9 L 218.2 0.3 Z M 220.1 1.9 L 220.1 11.7 C 220.1 11.7 222.72 11.69 222.7 11.7 C 227.2 11.7 229.4 10.1 229.4 6.8 C 229.4 3.5 227.2 1.9 222.7 1.9 C 222.65 1.9 220.1 1.9 220.1 1.9 Z M 220.1 13.3 L 220.1 23.3 C 220.1 23.3 225.16 23.29 225.2 23.3 C 227.3 23.3 228.9 22.8 229.9 21.9 C 231 21 231.6 19.8 231.6 18.3 C 231.6 15 229.2 13.3 224.3 13.3 C 224.34 13.29 220.1 13.3 220.1 13.3 Z M 239.1 0.3 L 239.1 24.9 L 237.2 24.9 L 237.2 0.3 L 239.1 0.3 Z M 266.8 0.3 L 266.8 24.9 L 265.3 24.9 L 246.6 3.4 L 246.6 24.9 L 244.7 24.9 L 244.7 0.3 L 246.3 0.3 L 264.9 21.8 L 264.9 0.3 L 266.8 0.3 Z M 282.2 0.1 L 293.5 24.9 L 291.6 24.9 L 287.7 16.4 L 275.7 16.4 L 271.8 24.9 L 269.8 24.9 L 281.1 0.1 L 282.2 0.1 Z M 286.9 14.8 L 281.7 3.2 L 276.4 14.8 L 286.9 14.8 Z M 296.5 0.3 C 296.5 0.3 302.81 0.32 302.8 0.3 C 305.4 0.3 307.5 0.9 308.9 2 C 310.2 3.2 310.9 4.7 310.9 6.7 C 310.9 9.5 309.4 11.5 306.3 12.6 C 307.1 13 308.2 14.3 309.5 16.4 C 309.54 16.38 315.1 24.9 315.1 24.9 L 312.8 24.9 C 312.8 24.9 308.57 18.14 308.6 18.1 C 307.1 15.9 306 14.5 305.2 13.9 C 304.4 13.4 303.3 13.1 301.7 13.1 C 301.73 13.1 298.4 13.1 298.4 13.1 L 298.4 24.9 L 296.5 24.9 L 296.5 0.3 Z M 298.4 1.9 L 298.4 11.5 C 298.4 11.5 302.49 11.51 302.5 11.5 C 304.6 11.5 306.1 11.1 307.2 10.3 C 308.3 9.4 308.9 8.2 308.9 6.7 C 308.9 5.2 308.3 4 307.2 3.2 C 306.1 2.3 304.5 1.9 302.4 1.9 C 302.42 1.9 298.4 1.9 298.4 1.9 Z M 323 0 C 324.9 0 326.8 0.5 328.7 1.5 C 328.7 1.5 328.7 3.6 328.7 3.6 C 326.6 2.4 324.7 1.8 323.2 1.8 C 321.7 1.8 320.5 2.2 319.5 3.1 C 318.5 4 318 5.1 318 6.4 C 318 7.4 318.3 8.2 318.9 9 C 319.5 9.8 320.7 10.5 322.6 11.2 C 324.4 11.9 325.8 12.5 326.6 13 C 327.5 13.4 328.2 14.1 328.8 15 C 329.4 15.9 329.7 17 329.7 18.5 C 329.7 20.3 329 21.9 327.6 23.2 C 326.3 24.5 324.6 25.2 322.6 25.2 C 320.5 25.2 318.4 24.5 316.3 23 C 316.3 23 316.3 20.8 316.3 20.8 C 318.7 22.6 320.7 23.4 322.5 23.4 C 323.9 23.4 325.2 23 326.2 22 C 327.2 21.1 327.7 19.9 327.7 18.5 C 327.7 17.5 327.4 16.6 326.7 15.7 C 326.1 14.9 324.9 14.1 323 13.4 C 321.1 12.6 319.7 12.1 318.9 11.6 C 318.1 11.2 317.4 10.5 316.8 9.7 C 316.2 8.9 316 7.8 316 6.5 C 316 4.7 316.6 3.2 318 1.9 C 319.4 0.6 321.1 0 323 0 C 323 0 323 0 323 0 Z " stroke="none" fill="#ffffff"/>  </g></svg>