<?xml version="1.0" standalone="no"?><!DOCTYPE svg PUBLIC "-//W3C//DTD SVG 1.1//EN" "http://www.w3.org/Graphics/SVG/1.1/DTD/svg11.dtd"><svg xmlns="http://www.w3.org/2000/svg" version="1.1" width="211px" height="99.5px" viewBox="0 0 211 99.5">  <desc>Our Managed Learning Service was developed in response to requests from clients who wanted more choice, flexibility a...</desc>  <defs/>  <g id="Polygon68622">    <path d="M 39.9 80.7 L 39.9 72.3 L 40.9 72.3 L 40.9 80.7 L 39.9 80.7 Z M 46.7 78.7 C 46.7 78.7 47.8 78.9 47.8 78.9 C 47.6 79.5 47.3 80 46.8 80.3 C 46.4 80.7 45.8 80.8 45.1 80.8 C 44.2 80.8 43.5 80.6 43 80 C 42.4 79.5 42.2 78.7 42.2 77.7 C 42.2 76.7 42.4 75.9 43 75.3 C 43.5 74.8 44.2 74.5 45 74.5 C 45.8 74.5 46.5 74.8 47 75.3 C 47.5 75.9 47.8 76.6 47.8 77.6 C 47.8 77.7 47.8 77.8 47.8 77.9 C 47.8 77.9 43.2 77.9 43.2 77.9 C 43.3 78.6 43.5 79.1 43.8 79.5 C 44.2 79.8 44.6 80 45.1 80 C 45.5 80 45.8 79.9 46.1 79.7 C 46.3 79.5 46.5 79.2 46.7 78.7 Z M 43.3 77.1 C 43.3 77.1 46.7 77.1 46.7 77.1 C 46.7 76.6 46.5 76.2 46.3 75.9 C 46 75.5 45.6 75.3 45 75.3 C 44.6 75.3 44.2 75.5 43.8 75.8 C 43.5 76.1 43.3 76.5 43.3 77.1 Z M 50.7 80.7 L 48.4 74.6 L 49.5 74.6 C 49.5 74.6 50.82 78.26 50.8 78.3 C 51 78.7 51.1 79.1 51.2 79.5 C 51.3 79.2 51.4 78.8 51.6 78.3 C 51.6 78.33 52.9 74.6 52.9 74.6 L 54 74.6 L 51.7 80.7 L 50.7 80.7 Z M 59.1 78.7 C 59.1 78.7 60.2 78.9 60.2 78.9 C 60 79.5 59.7 80 59.2 80.3 C 58.8 80.7 58.2 80.8 57.5 80.8 C 56.6 80.8 55.9 80.6 55.4 80 C 54.8 79.5 54.6 78.7 54.6 77.7 C 54.6 76.7 54.8 75.9 55.4 75.3 C 55.9 74.8 56.6 74.5 57.4 74.5 C 58.2 74.5 58.9 74.8 59.4 75.3 C 59.9 75.9 60.2 76.6 60.2 77.6 C 60.2 77.7 60.2 77.8 60.2 77.9 C 60.2 77.9 55.6 77.9 55.6 77.9 C 55.7 78.6 55.9 79.1 56.2 79.5 C 56.5 79.8 57 80 57.5 80 C 57.9 80 58.2 79.9 58.4 79.7 C 58.7 79.5 58.9 79.2 59.1 78.7 Z M 55.7 77.1 C 55.7 77.1 59.1 77.1 59.1 77.1 C 59.1 76.6 58.9 76.2 58.7 75.9 C 58.4 75.5 58 75.3 57.4 75.3 C 57 75.3 56.6 75.5 56.2 75.8 C 55.9 76.1 55.7 76.5 55.7 77.1 Z M 61.4 80.7 L 61.4 72.3 L 62.5 72.3 L 62.5 80.7 L 61.4 80.7 Z M 66.9 77.7 C 66.9 76.5 67.2 75.7 67.9 75.2 C 68.4 74.7 69 74.5 69.8 74.5 C 70.6 74.5 71.3 74.7 71.8 75.3 C 72.4 75.8 72.6 76.6 72.6 77.6 C 72.6 78.4 72.5 79 72.3 79.4 C 72 79.9 71.7 80.2 71.3 80.5 C 70.8 80.7 70.3 80.8 69.8 80.8 C 68.9 80.8 68.2 80.6 67.7 80 C 67.2 79.5 66.9 78.7 66.9 77.7 Z M 68 77.7 C 68 78.4 68.2 79 68.5 79.4 C 68.8 79.8 69.3 80 69.8 80 C 70.3 80 70.7 79.8 71.1 79.4 C 71.4 79 71.6 78.4 71.6 77.6 C 71.6 76.9 71.4 76.3 71.1 75.9 C 70.7 75.5 70.3 75.3 69.8 75.3 C 69.3 75.3 68.8 75.5 68.5 75.9 C 68.2 76.3 68 76.9 68 77.7 Z M 74.1 80.7 L 74.1 75.4 L 73.2 75.4 L 73.2 74.6 L 74.1 74.6 C 74.1 74.6 74.08 73.97 74.1 74 C 74.1 73.6 74.1 73.3 74.2 73.1 C 74.3 72.8 74.5 72.6 74.7 72.4 C 75 72.2 75.3 72.2 75.8 72.2 C 76.1 72.2 76.4 72.2 76.7 72.3 C 76.7 72.3 76.6 73.2 76.6 73.2 C 76.4 73.1 76.2 73.1 76 73.1 C 75.7 73.1 75.4 73.2 75.3 73.3 C 75.2 73.4 75.1 73.7 75.1 74.1 C 75.11 74.05 75.1 74.6 75.1 74.6 L 76.3 74.6 L 76.3 75.4 L 75.1 75.4 L 75.1 80.7 L 74.1 80.7 Z M 84.3 78.5 C 84.3 78.5 85.3 78.6 85.3 78.6 C 85.2 79.3 84.9 79.8 84.5 80.2 C 84 80.6 83.5 80.8 82.8 80.8 C 82 80.8 81.3 80.6 80.8 80 C 80.3 79.5 80 78.7 80 77.7 C 80 77 80.2 76.4 80.4 76 C 80.6 75.5 80.9 75.1 81.4 74.8 C 81.8 74.6 82.3 74.5 82.8 74.5 C 83.5 74.5 84 74.6 84.4 75 C 84.9 75.3 85.1 75.8 85.2 76.4 C 85.2 76.4 84.2 76.6 84.2 76.6 C 84.1 76.1 84 75.8 83.7 75.6 C 83.5 75.4 83.2 75.3 82.9 75.3 C 82.3 75.3 81.9 75.5 81.6 75.9 C 81.3 76.3 81.1 76.8 81.1 77.6 C 81.1 78.5 81.3 79.1 81.6 79.4 C 81.9 79.8 82.3 80 82.8 80 C 83.2 80 83.5 79.9 83.8 79.6 C 84.1 79.4 84.3 79 84.3 78.5 Z M 90.2 80.7 C 90.2 80.7 90.21 79.8 90.2 79.8 C 89.7 80.5 89.1 80.8 88.3 80.8 C 87.9 80.8 87.6 80.8 87.3 80.6 C 87 80.5 86.7 80.3 86.6 80.1 C 86.4 79.9 86.3 79.6 86.3 79.3 C 86.2 79.1 86.2 78.8 86.2 78.4 C 86.2 78.38 86.2 74.6 86.2 74.6 L 87.2 74.6 C 87.2 74.6 87.23 77.99 87.2 78 C 87.2 78.5 87.3 78.9 87.3 79.1 C 87.4 79.3 87.5 79.6 87.7 79.7 C 87.9 79.9 88.2 79.9 88.5 79.9 C 88.8 79.9 89.1 79.9 89.4 79.7 C 89.6 79.6 89.8 79.3 89.9 79.1 C 90 78.8 90.1 78.4 90.1 77.9 C 90.1 77.87 90.1 74.6 90.1 74.6 L 91.1 74.6 L 91.1 80.7 L 90.2 80.7 Z M 92.3 78.9 C 92.3 78.9 93.4 78.7 93.4 78.7 C 93.4 79.1 93.6 79.4 93.8 79.7 C 94.1 79.9 94.5 80 94.9 80 C 95.4 80 95.8 79.9 96 79.7 C 96.2 79.5 96.3 79.3 96.3 79 C 96.3 78.8 96.2 78.6 96 78.5 C 95.9 78.4 95.5 78.3 95 78.1 C 94.2 77.9 93.7 77.8 93.4 77.6 C 93.1 77.5 92.9 77.3 92.7 77 C 92.6 76.8 92.5 76.5 92.5 76.2 C 92.5 76 92.6 75.7 92.7 75.5 C 92.8 75.2 93 75.1 93.2 74.9 C 93.4 74.8 93.6 74.7 93.9 74.6 C 94.1 74.5 94.4 74.5 94.7 74.5 C 95.2 74.5 95.6 74.5 96 74.7 C 96.4 74.8 96.6 75 96.8 75.2 C 97 75.5 97.1 75.8 97.2 76.2 C 97.2 76.2 96.2 76.3 96.2 76.3 C 96.1 76 96 75.8 95.8 75.6 C 95.5 75.4 95.2 75.3 94.8 75.3 C 94.3 75.3 94 75.4 93.8 75.6 C 93.6 75.7 93.5 75.9 93.5 76.1 C 93.5 76.2 93.5 76.4 93.6 76.5 C 93.7 76.6 93.8 76.7 94 76.7 C 94.1 76.8 94.4 76.9 94.9 77 C 95.7 77.2 96.2 77.4 96.5 77.5 C 96.8 77.6 97 77.8 97.1 78 C 97.3 78.3 97.4 78.6 97.4 78.9 C 97.4 79.3 97.3 79.6 97.1 79.9 C 96.9 80.2 96.6 80.4 96.2 80.6 C 95.8 80.8 95.4 80.8 94.9 80.8 C 94.1 80.8 93.5 80.7 93.1 80.3 C 92.7 80 92.5 79.5 92.3 78.9 Z M 100.4 79.8 C 100.5 79.8 100.7 79.8 100.9 79.8 C 100.9 79.8 101 80.7 101 80.7 C 100.7 80.7 100.5 80.8 100.2 80.8 C 99.9 80.8 99.6 80.7 99.4 80.6 C 99.2 80.5 99 80.3 98.9 80.1 C 98.8 79.9 98.8 79.5 98.8 78.9 C 98.8 78.92 98.8 75.4 98.8 75.4 L 98 75.4 L 98 74.6 L 98.8 74.6 L 98.8 73.1 L 99.8 72.5 L 99.8 74.6 L 100.9 74.6 L 100.9 75.4 L 99.8 75.4 C 99.8 75.4 99.83 78.97 99.8 79 C 99.8 79.3 99.8 79.5 99.9 79.5 C 99.9 79.6 100 79.7 100.1 79.7 C 100.1 79.8 100.3 79.8 100.4 79.8 C 100.4 79.8 100.4 79.8 100.4 79.8 Z M 101.5 77.7 C 101.5 76.5 101.8 75.7 102.4 75.2 C 103 74.7 103.6 74.5 104.3 74.5 C 105.2 74.5 105.9 74.7 106.4 75.3 C 106.9 75.8 107.2 76.6 107.2 77.6 C 107.2 78.4 107.1 79 106.8 79.4 C 106.6 79.9 106.3 80.2 105.8 80.5 C 105.4 80.7 104.9 80.8 104.3 80.8 C 103.5 80.8 102.8 80.6 102.3 80 C 101.8 79.5 101.5 78.7 101.5 77.7 Z M 102.6 77.7 C 102.6 78.4 102.7 79 103.1 79.4 C 103.4 79.8 103.8 80 104.3 80 C 104.9 80 105.3 79.8 105.6 79.4 C 106 79 106.1 78.4 106.1 77.6 C 106.1 76.9 106 76.3 105.6 75.9 C 105.3 75.5 104.9 75.3 104.3 75.3 C 103.8 75.3 103.4 75.5 103.1 75.9 C 102.7 76.3 102.6 76.9 102.6 77.7 Z M 108.4 80.7 L 108.4 74.6 L 109.3 74.6 C 109.3 74.6 109.32 75.47 109.3 75.5 C 109.5 75.2 109.8 74.9 110.1 74.7 C 110.4 74.6 110.8 74.5 111.2 74.5 C 111.6 74.5 112 74.6 112.3 74.8 C 112.6 74.9 112.8 75.2 112.9 75.5 C 113.4 74.8 114 74.5 114.8 74.5 C 115.4 74.5 115.8 74.6 116.2 75 C 116.5 75.3 116.6 75.8 116.6 76.5 C 116.65 76.52 116.6 80.7 116.6 80.7 L 115.6 80.7 C 115.6 80.7 115.62 76.86 115.6 76.9 C 115.6 76.5 115.6 76.2 115.5 76 C 115.5 75.8 115.3 75.6 115.2 75.5 C 115 75.4 114.8 75.4 114.5 75.4 C 114.1 75.4 113.8 75.5 113.5 75.8 C 113.2 76.1 113 76.5 113 77.2 C 113.05 77.16 113 80.7 113 80.7 L 112 80.7 C 112 80.7 112.02 76.74 112 76.7 C 112 76.3 111.9 75.9 111.8 75.7 C 111.6 75.5 111.3 75.4 110.9 75.4 C 110.6 75.4 110.4 75.4 110.1 75.6 C 109.9 75.8 109.7 76 109.6 76.3 C 109.5 76.6 109.4 77 109.4 77.5 C 109.43 77.54 109.4 80.7 109.4 80.7 L 108.4 80.7 Z M 122.3 78.7 C 122.3 78.7 123.4 78.9 123.4 78.9 C 123.2 79.5 122.9 80 122.5 80.3 C 122 80.7 121.4 80.8 120.7 80.8 C 119.8 80.8 119.1 80.6 118.6 80 C 118.1 79.5 117.8 78.7 117.8 77.7 C 117.8 76.7 118.1 75.9 118.6 75.3 C 119.1 74.8 119.8 74.5 120.7 74.5 C 121.5 74.5 122.2 74.8 122.7 75.3 C 123.2 75.9 123.4 76.6 123.4 77.6 C 123.4 77.7 123.4 77.8 123.4 77.9 C 123.4 77.9 118.9 77.9 118.9 77.9 C 118.9 78.6 119.1 79.1 119.5 79.5 C 119.8 79.8 120.2 80 120.7 80 C 121.1 80 121.4 79.9 121.7 79.7 C 122 79.5 122.2 79.2 122.3 78.7 Z M 119 77.1 C 119 77.1 122.4 77.1 122.4 77.1 C 122.3 76.6 122.2 76.2 122 75.9 C 121.6 75.5 121.2 75.3 120.7 75.3 C 120.2 75.3 119.8 75.5 119.5 75.8 C 119.2 76.1 119 76.5 119 77.1 Z M 124.7 80.7 L 124.7 74.6 L 125.6 74.6 C 125.6 74.6 125.62 75.54 125.6 75.5 C 125.9 75.1 126.1 74.8 126.3 74.7 C 126.5 74.5 126.7 74.5 126.9 74.5 C 127.3 74.5 127.6 74.6 128 74.8 C 128 74.8 127.6 75.8 127.6 75.8 C 127.4 75.6 127.1 75.5 126.9 75.5 C 126.7 75.5 126.5 75.6 126.3 75.7 C 126.1 75.9 126 76.1 125.9 76.3 C 125.8 76.7 125.7 77.1 125.7 77.5 C 125.72 77.51 125.7 80.7 125.7 80.7 L 124.7 80.7 Z M 131.5 78.9 C 131.5 78.9 132.5 78.7 132.5 78.7 C 132.5 79.1 132.7 79.4 133 79.7 C 133.2 79.9 133.6 80 134.1 80 C 134.5 80 134.9 79.9 135.1 79.7 C 135.3 79.5 135.4 79.3 135.4 79 C 135.4 78.8 135.3 78.6 135.1 78.5 C 135 78.4 134.7 78.3 134.1 78.1 C 133.3 77.9 132.8 77.8 132.5 77.6 C 132.2 77.5 132 77.3 131.9 77 C 131.7 76.8 131.6 76.5 131.6 76.2 C 131.6 76 131.7 75.7 131.8 75.5 C 131.9 75.2 132.1 75.1 132.3 74.9 C 132.5 74.8 132.7 74.7 133 74.6 C 133.3 74.5 133.6 74.5 133.9 74.5 C 134.3 74.5 134.8 74.5 135.1 74.7 C 135.5 74.8 135.8 75 135.9 75.2 C 136.1 75.5 136.2 75.8 136.3 76.2 C 136.3 76.2 135.3 76.3 135.3 76.3 C 135.2 76 135.1 75.8 134.9 75.6 C 134.7 75.4 134.3 75.3 133.9 75.3 C 133.5 75.3 133.1 75.4 132.9 75.6 C 132.7 75.7 132.6 75.9 132.6 76.1 C 132.6 76.2 132.7 76.4 132.8 76.5 C 132.8 76.6 133 76.7 133.1 76.7 C 133.2 76.8 133.6 76.9 134.1 77 C 134.8 77.2 135.3 77.4 135.6 77.5 C 135.9 77.6 136.1 77.8 136.3 78 C 136.4 78.3 136.5 78.6 136.5 78.9 C 136.5 79.3 136.4 79.6 136.2 79.9 C 136 80.2 135.7 80.4 135.3 80.6 C 135 80.8 134.5 80.8 134.1 80.8 C 133.3 80.8 132.7 80.7 132.2 80.3 C 131.8 80 131.6 79.5 131.5 78.9 Z M 141.9 78.7 C 141.9 78.7 143 78.9 143 78.9 C 142.8 79.5 142.5 80 142 80.3 C 141.6 80.7 141 80.8 140.3 80.8 C 139.4 80.8 138.7 80.6 138.2 80 C 137.7 79.5 137.4 78.7 137.4 77.7 C 137.4 76.7 137.7 75.9 138.2 75.3 C 138.7 74.8 139.4 74.5 140.2 74.5 C 141 74.5 141.7 74.8 142.2 75.3 C 142.7 75.9 143 76.6 143 77.6 C 143 77.7 143 77.8 143 77.9 C 143 77.9 138.5 77.9 138.5 77.9 C 138.5 78.6 138.7 79.1 139 79.5 C 139.4 79.8 139.8 80 140.3 80 C 140.7 80 141 79.9 141.3 79.7 C 141.5 79.5 141.7 79.2 141.9 78.7 Z M 138.5 77.1 C 138.5 77.1 141.9 77.1 141.9 77.1 C 141.9 76.6 141.7 76.2 141.5 75.9 C 141.2 75.5 140.8 75.3 140.2 75.3 C 139.8 75.3 139.4 75.5 139 75.8 C 138.7 76.1 138.5 76.5 138.5 77.1 Z M 144.2 80.7 L 144.2 74.6 L 145.2 74.6 C 145.2 74.6 145.18 75.54 145.2 75.5 C 145.4 75.1 145.6 74.8 145.8 74.7 C 146 74.5 146.3 74.5 146.5 74.5 C 146.8 74.5 147.2 74.6 147.6 74.8 C 147.6 74.8 147.2 75.8 147.2 75.8 C 146.9 75.6 146.7 75.5 146.4 75.5 C 146.2 75.5 146 75.6 145.8 75.7 C 145.7 75.9 145.5 76.1 145.5 76.3 C 145.3 76.7 145.3 77.1 145.3 77.5 C 145.28 77.51 145.3 80.7 145.3 80.7 L 144.2 80.7 Z M 149.9 80.7 L 147.5 74.6 L 148.6 74.6 C 148.6 74.6 149.94 78.26 149.9 78.3 C 150.1 78.7 150.2 79.1 150.3 79.5 C 150.4 79.2 150.5 78.8 150.7 78.3 C 150.71 78.33 152.1 74.6 152.1 74.6 L 153.1 74.6 L 150.8 80.7 L 149.9 80.7 Z M 154 73.5 L 154 72.3 L 155.1 72.3 L 155.1 73.5 L 154 73.5 Z M 154 80.7 L 154 74.6 L 155.1 74.6 L 155.1 80.7 L 154 80.7 Z M 160.6 78.5 C 160.6 78.5 161.6 78.6 161.6 78.6 C 161.5 79.3 161.2 79.8 160.8 80.2 C 160.3 80.6 159.8 80.8 159.1 80.8 C 158.3 80.8 157.6 80.6 157.1 80 C 156.6 79.5 156.3 78.7 156.3 77.7 C 156.3 77 156.4 76.4 156.7 76 C 156.9 75.5 157.2 75.1 157.6 74.8 C 158.1 74.6 158.6 74.5 159.1 74.5 C 159.8 74.5 160.3 74.6 160.7 75 C 161.1 75.3 161.4 75.8 161.5 76.4 C 161.5 76.4 160.5 76.6 160.5 76.6 C 160.4 76.1 160.3 75.8 160 75.6 C 159.8 75.4 159.5 75.3 159.1 75.3 C 158.6 75.3 158.2 75.5 157.9 75.9 C 157.5 76.3 157.4 76.8 157.4 77.6 C 157.4 78.5 157.5 79.1 157.9 79.4 C 158.2 79.8 158.6 80 159.1 80 C 159.5 80 159.8 79.9 160.1 79.6 C 160.4 79.4 160.5 79 160.6 78.5 Z M 166.7 78.7 C 166.7 78.7 167.7 78.9 167.7 78.9 C 167.6 79.5 167.3 80 166.8 80.3 C 166.3 80.7 165.8 80.8 165.1 80.8 C 164.2 80.8 163.5 80.6 162.9 80 C 162.4 79.5 162.2 78.7 162.2 77.7 C 162.2 76.7 162.4 75.9 163 75.3 C 163.5 74.8 164.2 74.5 165 74.5 C 165.8 74.5 166.5 74.8 167 75.3 C 167.5 75.9 167.8 76.6 167.8 77.6 C 167.8 77.7 167.8 77.8 167.8 77.9 C 167.8 77.9 163.2 77.9 163.2 77.9 C 163.3 78.6 163.5 79.1 163.8 79.5 C 164.1 79.8 164.6 80 165.1 80 C 165.4 80 165.8 79.9 166 79.7 C 166.3 79.5 166.5 79.2 166.7 78.7 Z M 163.3 77.1 C 163.3 77.1 166.7 77.1 166.7 77.1 C 166.6 76.6 166.5 76.2 166.3 75.9 C 166 75.5 165.5 75.3 165 75.3 C 164.5 75.3 164.1 75.5 163.8 75.8 C 163.5 76.1 163.3 76.5 163.3 77.1 Z M 169.3 80.7 L 169.3 79.5 L 170.5 79.5 L 170.5 80.7 L 169.3 80.7 Z " stroke="none" fill="#fff"/>  </g>  <g id="Polygon68621">    <path d="M 16.8 64.4 C 16.8 64.4 17.8 64.5 17.8 64.5 C 17.7 65.2 17.4 65.8 17 66.2 C 16.5 66.6 16 66.8 15.3 66.8 C 14.5 66.8 13.8 66.5 13.3 65.9 C 12.8 65.4 12.5 64.6 12.5 63.6 C 12.5 62.9 12.6 62.4 12.8 61.9 C 13.1 61.4 13.4 61 13.8 60.8 C 14.3 60.5 14.8 60.4 15.3 60.4 C 16 60.4 16.5 60.6 16.9 60.9 C 17.3 61.2 17.6 61.7 17.7 62.3 C 17.7 62.3 16.7 62.5 16.7 62.5 C 16.6 62.1 16.5 61.8 16.2 61.6 C 16 61.3 15.7 61.2 15.3 61.2 C 14.8 61.2 14.4 61.4 14.1 61.8 C 13.7 62.2 13.6 62.8 13.6 63.6 C 13.6 64.4 13.7 65 14.1 65.4 C 14.4 65.7 14.8 65.9 15.3 65.9 C 15.7 65.9 16 65.8 16.3 65.5 C 16.6 65.3 16.7 64.9 16.8 64.4 Z M 18.7 66.6 L 18.7 58.2 L 19.7 58.2 C 19.7 58.2 19.73 61.23 19.7 61.2 C 20.2 60.7 20.8 60.4 21.6 60.4 C 22 60.4 22.4 60.5 22.7 60.7 C 23.1 60.8 23.3 61.1 23.4 61.4 C 23.6 61.7 23.7 62.2 23.7 62.8 C 23.66 62.76 23.7 66.6 23.7 66.6 L 22.6 66.6 C 22.6 66.6 22.63 62.76 22.6 62.8 C 22.6 62.2 22.5 61.9 22.3 61.6 C 22.1 61.4 21.8 61.3 21.3 61.3 C 21 61.3 20.8 61.4 20.5 61.5 C 20.2 61.7 20 61.9 19.9 62.2 C 19.8 62.4 19.7 62.8 19.7 63.3 C 19.73 63.29 19.7 66.6 19.7 66.6 L 18.7 66.6 Z M 24.8 63.6 C 24.8 62.4 25.2 61.6 25.8 61.1 C 26.3 60.6 26.9 60.4 27.7 60.4 C 28.5 60.4 29.2 60.7 29.7 61.2 C 30.3 61.8 30.5 62.5 30.5 63.5 C 30.5 64.3 30.4 64.9 30.2 65.3 C 30 65.8 29.6 66.1 29.2 66.4 C 28.7 66.6 28.2 66.8 27.7 66.8 C 26.8 66.8 26.2 66.5 25.6 65.9 C 25.1 65.4 24.8 64.6 24.8 63.6 Z M 25.9 63.6 C 25.9 64.4 26.1 64.9 26.4 65.3 C 26.8 65.7 27.2 65.9 27.7 65.9 C 28.2 65.9 28.6 65.7 29 65.3 C 29.3 64.9 29.5 64.3 29.5 63.5 C 29.5 62.8 29.3 62.2 29 61.8 C 28.6 61.4 28.2 61.2 27.7 61.2 C 27.2 61.2 26.8 61.4 26.4 61.8 C 26.1 62.2 25.9 62.8 25.9 63.6 Z M 31.8 59.4 L 31.8 58.2 L 32.8 58.2 L 32.8 59.4 L 31.8 59.4 Z M 31.8 66.6 L 31.8 60.5 L 32.8 60.5 L 32.8 66.6 L 31.8 66.6 Z M 38.3 64.4 C 38.3 64.4 39.3 64.5 39.3 64.5 C 39.2 65.2 39 65.8 38.5 66.2 C 38 66.6 37.5 66.8 36.8 66.8 C 36 66.8 35.3 66.5 34.8 65.9 C 34.3 65.4 34 64.6 34 63.6 C 34 62.9 34.2 62.4 34.4 61.9 C 34.6 61.4 34.9 61 35.4 60.8 C 35.8 60.5 36.3 60.4 36.8 60.4 C 37.5 60.4 38 60.6 38.4 60.9 C 38.9 61.2 39.1 61.7 39.2 62.3 C 39.2 62.3 38.2 62.5 38.2 62.5 C 38.1 62.1 38 61.8 37.7 61.6 C 37.5 61.3 37.2 61.2 36.9 61.2 C 36.3 61.2 35.9 61.4 35.6 61.8 C 35.3 62.2 35.1 62.8 35.1 63.6 C 35.1 64.4 35.3 65 35.6 65.4 C 35.9 65.7 36.3 65.9 36.8 65.9 C 37.2 65.9 37.5 65.8 37.8 65.5 C 38.1 65.3 38.3 64.9 38.3 64.4 Z M 44.4 64.7 C 44.4 64.7 45.5 64.8 45.5 64.8 C 45.3 65.4 45 65.9 44.5 66.2 C 44.1 66.6 43.5 66.8 42.8 66.8 C 41.9 66.8 41.2 66.5 40.7 65.9 C 40.1 65.4 39.9 64.6 39.9 63.6 C 39.9 62.6 40.1 61.8 40.7 61.2 C 41.2 60.7 41.9 60.4 42.7 60.4 C 43.5 60.4 44.2 60.7 44.7 61.2 C 45.2 61.8 45.5 62.6 45.5 63.6 C 45.5 63.6 45.5 63.7 45.5 63.8 C 45.5 63.8 40.9 63.8 40.9 63.8 C 41 64.5 41.2 65 41.5 65.4 C 41.9 65.7 42.3 65.9 42.8 65.9 C 43.2 65.9 43.5 65.8 43.8 65.6 C 44 65.4 44.2 65.1 44.4 64.7 Z M 41 63 C 41 63 44.4 63 44.4 63 C 44.4 62.5 44.2 62.1 44 61.8 C 43.7 61.4 43.3 61.2 42.7 61.2 C 42.3 61.2 41.9 61.4 41.5 61.7 C 41.2 62 41 62.5 41 63 Z M 47 66.6 L 47 65.4 L 48.2 65.4 C 48.2 65.4 48.2 66.62 48.2 66.6 C 48.2 67 48.1 67.4 48 67.7 C 47.8 67.9 47.6 68.1 47.2 68.3 C 47.2 68.3 47 67.8 47 67.8 C 47.2 67.7 47.3 67.6 47.4 67.4 C 47.5 67.2 47.6 67 47.6 66.6 C 47.61 66.62 47 66.6 47 66.6 Z M 53.5 66.6 L 53.5 61.3 L 52.6 61.3 L 52.6 60.5 L 53.5 60.5 C 53.5 60.5 53.55 59.94 53.5 59.9 C 53.5 59.3 53.7 58.9 53.9 58.6 C 54.2 58.2 54.6 58.1 55.2 58.1 C 55.5 58.1 55.9 58.1 56.2 58.2 C 56.2 58.2 56.1 59.1 56.1 59.1 C 55.9 59 55.7 59 55.5 59 C 55.1 59 54.9 59.1 54.8 59.2 C 54.6 59.4 54.6 59.7 54.6 60.1 C 54.58 60.14 54.6 60.5 54.6 60.5 L 55.8 60.5 L 55.8 61.3 L 54.6 61.3 L 54.6 66.6 L 53.5 66.6 Z M 56.5 66.6 L 56.5 58.2 L 57.6 58.2 L 57.6 66.6 L 56.5 66.6 Z M 63.3 64.7 C 63.3 64.7 64.4 64.8 64.4 64.8 C 64.2 65.4 63.9 65.9 63.4 66.2 C 63 66.6 62.4 66.8 61.7 66.8 C 60.8 66.8 60.1 66.5 59.6 65.9 C 59.1 65.4 58.8 64.6 58.8 63.6 C 58.8 62.6 59.1 61.8 59.6 61.2 C 60.1 60.7 60.8 60.4 61.6 60.4 C 62.5 60.4 63.1 60.7 63.6 61.2 C 64.1 61.8 64.4 62.6 64.4 63.6 C 64.4 63.6 64.4 63.7 64.4 63.8 C 64.4 63.8 59.9 63.8 59.9 63.8 C 59.9 64.5 60.1 65 60.4 65.4 C 60.8 65.7 61.2 65.9 61.7 65.9 C 62.1 65.9 62.4 65.8 62.7 65.6 C 62.9 65.4 63.1 65.1 63.3 64.7 Z M 59.9 63 C 59.9 63 63.3 63 63.3 63 C 63.3 62.5 63.1 62.1 62.9 61.8 C 62.6 61.4 62.2 61.2 61.6 61.2 C 61.2 61.2 60.8 61.4 60.5 61.7 C 60.1 62 60 62.5 59.9 63 Z M 65 66.6 L 67.2 63.5 L 65.1 60.5 L 66.4 60.5 C 66.4 60.5 67.37 61.96 67.4 62 C 67.5 62.2 67.7 62.5 67.8 62.6 C 68 62.4 68.1 62.2 68.3 62 C 68.25 61.97 69.3 60.5 69.3 60.5 L 70.5 60.5 L 68.4 63.4 L 70.7 66.6 L 69.4 66.6 L 68.2 64.7 L 67.8 64.2 L 66.2 66.6 L 65 66.6 Z M 71.5 59.4 L 71.5 58.2 L 72.6 58.2 L 72.6 59.4 L 71.5 59.4 Z M 71.5 66.6 L 71.5 60.5 L 72.6 60.5 L 72.6 66.6 L 71.5 66.6 Z M 75.1 66.6 L 74.1 66.6 L 74.1 58.2 L 75.2 58.2 C 75.2 58.2 75.16 61.22 75.2 61.2 C 75.6 60.7 76.2 60.4 76.8 60.4 C 77.2 60.4 77.6 60.5 77.9 60.6 C 78.2 60.8 78.5 61 78.7 61.3 C 78.9 61.5 79.1 61.9 79.2 62.2 C 79.3 62.6 79.4 63 79.4 63.5 C 79.4 64.5 79.2 65.3 78.6 65.9 C 78.1 66.5 77.5 66.8 76.8 66.8 C 76.1 66.8 75.5 66.5 75.1 65.9 C 75.09 65.86 75.1 66.6 75.1 66.6 Z M 75.1 63.5 C 75.1 64.3 75.2 64.8 75.4 65.1 C 75.7 65.6 76.1 65.9 76.7 65.9 C 77.1 65.9 77.5 65.7 77.9 65.3 C 78.2 64.9 78.4 64.3 78.4 63.6 C 78.4 62.8 78.2 62.2 77.9 61.8 C 77.6 61.4 77.2 61.2 76.7 61.2 C 76.3 61.2 75.9 61.4 75.6 61.8 C 75.2 62.2 75.1 62.8 75.1 63.5 Z M 80.7 59.4 L 80.7 58.2 L 81.7 58.2 L 81.7 59.4 L 80.7 59.4 Z M 80.7 66.6 L 80.7 60.5 L 81.7 60.5 L 81.7 66.6 L 80.7 66.6 Z M 83.2 66.6 L 83.2 58.2 L 84.3 58.2 L 84.3 66.6 L 83.2 66.6 Z M 85.9 59.4 L 85.9 58.2 L 86.9 58.2 L 86.9 59.4 L 85.9 59.4 Z M 85.9 66.6 L 85.9 60.5 L 86.9 60.5 L 86.9 66.6 L 85.9 66.6 Z M 90.3 65.7 C 90.4 65.7 90.5 65.7 90.7 65.7 C 90.7 65.7 90.9 66.6 90.9 66.6 C 90.6 66.7 90.3 66.7 90.1 66.7 C 89.7 66.7 89.4 66.6 89.2 66.5 C 89 66.4 88.9 66.2 88.8 66.1 C 88.7 65.9 88.7 65.5 88.7 64.8 C 88.67 64.84 88.7 61.3 88.7 61.3 L 87.9 61.3 L 87.9 60.5 L 88.7 60.5 L 88.7 59 L 89.7 58.4 L 89.7 60.5 L 90.7 60.5 L 90.7 61.3 L 89.7 61.3 C 89.7 61.3 89.7 64.89 89.7 64.9 C 89.7 65.2 89.7 65.4 89.8 65.5 C 89.8 65.5 89.8 65.6 89.9 65.7 C 90 65.7 90.1 65.7 90.3 65.7 C 90.3 65.7 90.3 65.7 90.3 65.7 Z M 92.4 69.1 C 92.2 69.1 91.9 69 91.7 69 C 91.7 69 91.6 68 91.6 68 C 91.8 68.1 92 68.1 92.2 68.1 C 92.4 68.1 92.6 68 92.7 68 C 92.9 67.9 93 67.8 93.1 67.6 C 93.1 67.5 93.2 67.3 93.4 66.9 C 93.4 66.8 93.4 66.7 93.5 66.6 C 93.47 66.63 91.2 60.5 91.2 60.5 L 92.3 60.5 C 92.3 60.5 93.54 64.06 93.5 64.1 C 93.7 64.5 93.8 65 94 65.5 C 94.1 65 94.2 64.5 94.4 64.1 C 94.4 64.08 95.7 60.5 95.7 60.5 L 96.7 60.5 C 96.7 60.5 94.42 66.72 94.4 66.7 C 94.2 67.4 94 67.8 93.8 68.1 C 93.7 68.4 93.4 68.7 93.2 68.8 C 93 69 92.7 69.1 92.4 69.1 C 92.4 69.1 92.4 69.1 92.4 69.1 Z M 105 66.6 C 104.9 66.4 104.9 66.2 104.8 65.9 C 104.5 66.2 104.1 66.4 103.7 66.6 C 103.4 66.7 103 66.8 102.6 66.8 C 101.9 66.8 101.4 66.6 101.1 66.3 C 100.7 65.9 100.5 65.5 100.5 65 C 100.5 64.7 100.6 64.4 100.7 64.2 C 100.9 64 101 63.8 101.3 63.6 C 101.5 63.5 101.7 63.3 102 63.3 C 102.2 63.2 102.5 63.2 102.9 63.1 C 103.7 63 104.4 62.9 104.8 62.8 C 104.8 62.6 104.8 62.5 104.8 62.5 C 104.8 62.1 104.7 61.8 104.5 61.6 C 104.2 61.4 103.8 61.2 103.3 61.2 C 102.8 61.2 102.5 61.3 102.2 61.5 C 102 61.7 101.8 62 101.7 62.4 C 101.7 62.4 100.7 62.3 100.7 62.3 C 100.8 61.8 100.9 61.5 101.2 61.2 C 101.4 61 101.7 60.8 102.1 60.6 C 102.5 60.5 102.9 60.4 103.4 60.4 C 104 60.4 104.4 60.5 104.7 60.6 C 105 60.7 105.3 60.9 105.4 61 C 105.6 61.2 105.7 61.5 105.7 61.7 C 105.8 61.9 105.8 62.2 105.8 62.7 C 105.8 62.7 105.8 64.1 105.8 64.1 C 105.8 65 105.8 65.6 105.9 65.9 C 105.9 66.1 106 66.4 106.1 66.6 C 106.12 66.62 105 66.6 105 66.6 C 105 66.6 105.05 66.62 105 66.6 Z M 104.8 63.6 C 104.4 63.7 103.8 63.8 103.1 64 C 102.6 64 102.3 64.1 102.2 64.2 C 102 64.2 101.9 64.3 101.8 64.5 C 101.7 64.6 101.6 64.8 101.6 65 C 101.6 65.3 101.7 65.5 101.9 65.7 C 102.1 65.9 102.4 65.9 102.8 65.9 C 103.2 65.9 103.6 65.9 103.9 65.7 C 104.2 65.5 104.4 65.3 104.6 65 C 104.7 64.7 104.8 64.4 104.8 63.9 C 104.8 63.9 104.8 63.6 104.8 63.6 Z M 107.4 66.6 L 107.4 60.5 L 108.3 60.5 C 108.3 60.5 108.32 61.4 108.3 61.4 C 108.8 60.7 109.4 60.4 110.3 60.4 C 110.6 60.4 111 60.5 111.3 60.6 C 111.6 60.7 111.8 60.9 112 61.1 C 112.1 61.3 112.2 61.6 112.3 61.9 C 112.3 62.1 112.3 62.4 112.3 62.9 C 112.34 62.88 112.3 66.6 112.3 66.6 L 111.3 66.6 C 111.3 66.6 111.31 62.92 111.3 62.9 C 111.3 62.5 111.3 62.2 111.2 62 C 111.1 61.8 111 61.6 110.8 61.5 C 110.6 61.4 110.3 61.3 110 61.3 C 109.6 61.3 109.2 61.4 108.9 61.7 C 108.6 62 108.4 62.5 108.4 63.3 C 108.43 63.29 108.4 66.6 108.4 66.6 L 107.4 66.6 Z M 117.9 66.6 C 117.9 66.6 117.87 65.85 117.9 65.9 C 117.5 66.5 116.9 66.8 116.2 66.8 C 115.7 66.8 115.2 66.6 114.8 66.4 C 114.4 66.1 114.1 65.7 113.9 65.2 C 113.7 64.8 113.5 64.2 113.5 63.6 C 113.5 63 113.7 62.4 113.9 61.9 C 114.1 61.4 114.4 61.1 114.8 60.8 C 115.2 60.5 115.6 60.4 116.1 60.4 C 116.5 60.4 116.8 60.5 117.1 60.6 C 117.4 60.8 117.6 61 117.8 61.2 C 117.8 61.23 117.8 58.2 117.8 58.2 L 118.8 58.2 L 118.8 66.6 L 117.9 66.6 Z M 114.6 63.6 C 114.6 64.4 114.8 64.9 115.1 65.3 C 115.4 65.7 115.8 65.9 116.3 65.9 C 116.7 65.9 117.1 65.7 117.4 65.4 C 117.7 65 117.9 64.4 117.9 63.7 C 117.9 62.8 117.7 62.2 117.4 61.8 C 117.1 61.4 116.7 61.2 116.2 61.2 C 115.8 61.2 115.4 61.4 115.1 61.8 C 114.8 62.2 114.6 62.8 114.6 63.6 Z M 127.9 66.6 C 127.8 66.4 127.7 66.2 127.7 65.9 C 127.3 66.2 126.9 66.4 126.6 66.6 C 126.2 66.7 125.8 66.8 125.4 66.8 C 124.8 66.8 124.3 66.6 123.9 66.3 C 123.5 65.9 123.4 65.5 123.4 65 C 123.4 64.7 123.4 64.4 123.6 64.2 C 123.7 64 123.9 63.8 124.1 63.6 C 124.3 63.5 124.6 63.3 124.8 63.3 C 125 63.2 125.3 63.2 125.8 63.1 C 126.6 63 127.2 62.9 127.6 62.8 C 127.6 62.6 127.6 62.5 127.6 62.5 C 127.6 62.1 127.5 61.8 127.3 61.6 C 127 61.4 126.6 61.2 126.1 61.2 C 125.6 61.2 125.3 61.3 125.1 61.5 C 124.8 61.7 124.7 62 124.5 62.4 C 124.5 62.4 123.5 62.3 123.5 62.3 C 123.6 61.8 123.8 61.5 124 61.2 C 124.2 61 124.5 60.8 124.9 60.6 C 125.3 60.5 125.8 60.4 126.3 60.4 C 126.8 60.4 127.2 60.5 127.5 60.6 C 127.9 60.7 128.1 60.9 128.3 61 C 128.4 61.2 128.5 61.5 128.6 61.7 C 128.6 61.9 128.6 62.2 128.6 62.7 C 128.6 62.7 128.6 64.1 128.6 64.1 C 128.6 65 128.7 65.6 128.7 65.9 C 128.7 66.1 128.8 66.4 129 66.6 C 128.96 66.62 127.9 66.6 127.9 66.6 C 127.9 66.6 127.88 66.62 127.9 66.6 Z M 127.6 63.6 C 127.2 63.7 126.7 63.8 125.9 64 C 125.5 64 125.2 64.1 125 64.2 C 124.8 64.2 124.7 64.3 124.6 64.5 C 124.5 64.6 124.5 64.8 124.5 65 C 124.5 65.3 124.6 65.5 124.8 65.7 C 125 65.9 125.3 65.9 125.7 65.9 C 126.1 65.9 126.4 65.9 126.7 65.7 C 127.1 65.5 127.3 65.3 127.4 65 C 127.5 64.7 127.6 64.4 127.6 63.9 C 127.6 63.9 127.6 63.6 127.6 63.6 Z M 130.2 66.6 L 130.2 60.5 L 131.2 60.5 C 131.2 60.5 131.16 61.4 131.2 61.4 C 131.6 60.7 132.3 60.4 133.1 60.4 C 133.5 60.4 133.8 60.5 134.1 60.6 C 134.4 60.7 134.6 60.9 134.8 61.1 C 135 61.3 135.1 61.6 135.1 61.9 C 135.2 62.1 135.2 62.4 135.2 62.9 C 135.18 62.88 135.2 66.6 135.2 66.6 L 134.1 66.6 C 134.1 66.6 134.15 62.92 134.1 62.9 C 134.1 62.5 134.1 62.2 134 62 C 133.9 61.8 133.8 61.6 133.6 61.5 C 133.4 61.4 133.2 61.3 132.9 61.3 C 132.4 61.3 132.1 61.4 131.7 61.7 C 131.4 62 131.3 62.5 131.3 63.3 C 131.26 63.29 131.3 66.6 131.3 66.6 L 130.2 66.6 Z M 144.2 64.7 C 144.2 64.7 145.2 64.8 145.2 64.8 C 145.1 65.4 144.8 65.9 144.3 66.2 C 143.9 66.6 143.3 66.8 142.6 66.8 C 141.7 66.8 141 66.5 140.5 65.9 C 139.9 65.4 139.7 64.6 139.7 63.6 C 139.7 62.6 139.9 61.8 140.5 61.2 C 141 60.7 141.7 60.4 142.5 60.4 C 143.3 60.4 144 60.7 144.5 61.2 C 145 61.8 145.3 62.6 145.3 63.6 C 145.3 63.6 145.3 63.7 145.3 63.8 C 145.3 63.8 140.7 63.8 140.7 63.8 C 140.8 64.5 141 65 141.3 65.4 C 141.6 65.7 142.1 65.9 142.6 65.9 C 143 65.9 143.3 65.8 143.5 65.6 C 143.8 65.4 144 65.1 144.2 64.7 Z M 140.8 63 C 140.8 63 144.2 63 144.2 63 C 144.1 62.5 144 62.1 143.8 61.8 C 143.5 61.4 143.1 61.2 142.5 61.2 C 142.1 61.2 141.7 61.4 141.3 61.7 C 141 62 140.8 62.5 140.8 63 Z M 145.9 66.6 L 148.1 63.5 L 146 60.5 L 147.3 60.5 C 147.3 60.5 148.24 61.96 148.2 62 C 148.4 62.2 148.6 62.5 148.7 62.6 C 148.8 62.4 149 62.2 149.1 62 C 149.13 61.97 150.2 60.5 150.2 60.5 L 151.4 60.5 L 149.3 63.4 L 151.6 66.6 L 150.3 66.6 L 149 64.7 L 148.7 64.2 L 147.1 66.6 L 145.9 66.6 Z M 156.4 64.4 C 156.4 64.4 157.4 64.5 157.4 64.5 C 157.3 65.2 157 65.8 156.5 66.2 C 156.1 66.6 155.5 66.8 154.9 66.8 C 154 66.8 153.4 66.5 152.9 65.9 C 152.3 65.4 152.1 64.6 152.1 63.6 C 152.1 62.9 152.2 62.4 152.4 61.9 C 152.6 61.4 153 61 153.4 60.8 C 153.9 60.5 154.3 60.4 154.9 60.4 C 155.5 60.4 156.1 60.6 156.5 60.9 C 156.9 61.2 157.2 61.7 157.3 62.3 C 157.3 62.3 156.3 62.5 156.3 62.5 C 156.2 62.1 156 61.8 155.8 61.6 C 155.5 61.3 155.3 61.2 154.9 61.2 C 154.4 61.2 154 61.4 153.6 61.8 C 153.3 62.2 153.2 62.8 153.2 63.6 C 153.2 64.4 153.3 65 153.6 65.4 C 153.9 65.7 154.3 65.9 154.9 65.9 C 155.3 65.9 155.6 65.8 155.9 65.5 C 156.1 65.3 156.3 64.9 156.4 64.4 Z M 162.4 64.7 C 162.4 64.7 163.5 64.8 163.5 64.8 C 163.3 65.4 163 65.9 162.6 66.2 C 162.1 66.6 161.5 66.8 160.8 66.8 C 159.9 66.8 159.2 66.5 158.7 65.9 C 158.2 65.4 157.9 64.6 157.9 63.6 C 157.9 62.6 158.2 61.8 158.7 61.2 C 159.3 60.7 159.9 60.4 160.8 60.4 C 161.6 60.4 162.3 60.7 162.8 61.2 C 163.3 61.8 163.5 62.6 163.5 63.6 C 163.5 63.6 163.5 63.7 163.5 63.8 C 163.5 63.8 159 63.8 159 63.8 C 159 64.5 159.2 65 159.6 65.4 C 159.9 65.7 160.3 65.9 160.8 65.9 C 161.2 65.9 161.5 65.8 161.8 65.6 C 162.1 65.4 162.3 65.1 162.4 64.7 Z M 159.1 63 C 159.1 63 162.5 63 162.5 63 C 162.4 62.5 162.3 62.1 162.1 61.8 C 161.7 61.4 161.3 61.2 160.8 61.2 C 160.3 61.2 159.9 61.4 159.6 61.7 C 159.3 62 159.1 62.5 159.1 63 Z M 164.8 68.9 L 164.8 60.5 L 165.7 60.5 C 165.7 60.5 165.74 61.32 165.7 61.3 C 166 61 166.2 60.8 166.5 60.6 C 166.8 60.5 167.1 60.4 167.5 60.4 C 168 60.4 168.5 60.5 168.9 60.8 C 169.3 61.1 169.6 61.4 169.8 61.9 C 170 62.4 170.1 62.9 170.1 63.5 C 170.1 64.2 170 64.7 169.7 65.2 C 169.5 65.7 169.2 66.1 168.8 66.4 C 168.3 66.6 167.9 66.8 167.4 66.8 C 167.1 66.8 166.8 66.7 166.5 66.5 C 166.2 66.4 166 66.2 165.8 66 C 165.83 65.99 165.8 68.9 165.8 68.9 L 164.8 68.9 Z M 165.7 63.6 C 165.7 64.4 165.9 65 166.2 65.3 C 166.5 65.7 166.9 65.9 167.4 65.9 C 167.8 65.9 168.2 65.7 168.5 65.3 C 168.9 64.9 169 64.3 169 63.5 C 169 62.7 168.9 62.2 168.6 61.8 C 168.2 61.4 167.9 61.2 167.4 61.2 C 167 61.2 166.6 61.4 166.2 61.8 C 165.9 62.2 165.7 62.8 165.7 63.6 Z M 173.1 65.7 C 173.2 65.7 173.4 65.7 173.6 65.7 C 173.6 65.7 173.7 66.6 173.7 66.6 C 173.4 66.7 173.2 66.7 172.9 66.7 C 172.6 66.7 172.3 66.6 172.1 66.5 C 171.9 66.4 171.7 66.2 171.6 66.1 C 171.6 65.9 171.5 65.5 171.5 64.8 C 171.52 64.84 171.5 61.3 171.5 61.3 L 170.8 61.3 L 170.8 60.5 L 171.5 60.5 L 171.5 59 L 172.5 58.4 L 172.5 60.5 L 173.6 60.5 L 173.6 61.3 L 172.5 61.3 C 172.5 61.3 172.54 64.89 172.5 64.9 C 172.5 65.2 172.6 65.4 172.6 65.5 C 172.6 65.5 172.7 65.6 172.8 65.7 C 172.9 65.7 173 65.7 173.1 65.7 C 173.1 65.7 173.1 65.7 173.1 65.7 Z M 174.6 59.4 L 174.6 58.2 L 175.6 58.2 L 175.6 59.4 L 174.6 59.4 Z M 174.6 66.6 L 174.6 60.5 L 175.6 60.5 L 175.6 66.6 L 174.6 66.6 Z M 176.8 63.6 C 176.8 62.4 177.1 61.6 177.7 61.1 C 178.3 60.6 178.9 60.4 179.7 60.4 C 180.5 60.4 181.2 60.7 181.7 61.2 C 182.2 61.8 182.5 62.5 182.5 63.5 C 182.5 64.3 182.4 64.9 182.2 65.3 C 181.9 65.8 181.6 66.1 181.1 66.4 C 180.7 66.6 180.2 66.8 179.7 66.8 C 178.8 66.8 178.1 66.5 177.6 65.9 C 177.1 65.4 176.8 64.6 176.8 63.6 Z M 177.9 63.6 C 177.9 64.4 178 64.9 178.4 65.3 C 178.7 65.7 179.1 65.9 179.7 65.9 C 180.2 65.9 180.6 65.7 180.9 65.3 C 181.3 64.9 181.5 64.3 181.5 63.5 C 181.5 62.8 181.3 62.2 180.9 61.8 C 180.6 61.4 180.2 61.2 179.7 61.2 C 179.1 61.2 178.7 61.4 178.4 61.8 C 178 62.2 177.9 62.8 177.9 63.6 Z M 183.7 66.6 L 183.7 60.5 L 184.6 60.5 C 184.6 60.5 184.65 61.4 184.6 61.4 C 185.1 60.7 185.7 60.4 186.6 60.4 C 187 60.4 187.3 60.5 187.6 60.6 C 187.9 60.7 188.1 60.9 188.3 61.1 C 188.4 61.3 188.5 61.6 188.6 61.9 C 188.6 62.1 188.7 62.4 188.7 62.9 C 188.66 62.88 188.7 66.6 188.7 66.6 L 187.6 66.6 C 187.6 66.6 187.63 62.92 187.6 62.9 C 187.6 62.5 187.6 62.2 187.5 62 C 187.4 61.8 187.3 61.6 187.1 61.5 C 186.9 61.4 186.6 61.3 186.4 61.3 C 185.9 61.3 185.5 61.4 185.2 61.7 C 184.9 62 184.8 62.5 184.8 63.3 C 184.75 63.29 184.8 66.6 184.8 66.6 L 183.7 66.6 Z M 194.4 66.6 C 194.3 66.4 194.2 66.2 194.2 65.9 C 193.8 66.2 193.5 66.4 193.1 66.6 C 192.8 66.7 192.4 66.8 192 66.8 C 191.3 66.8 190.8 66.6 190.4 66.3 C 190.1 65.9 189.9 65.5 189.9 65 C 189.9 64.7 190 64.4 190.1 64.2 C 190.2 64 190.4 63.8 190.6 63.6 C 190.9 63.5 191.1 63.3 191.4 63.3 C 191.6 63.2 191.9 63.2 192.3 63.1 C 193.1 63 193.7 62.9 194.1 62.8 C 194.1 62.6 194.1 62.5 194.1 62.5 C 194.1 62.1 194 61.8 193.8 61.6 C 193.6 61.4 193.2 61.2 192.7 61.2 C 192.2 61.2 191.8 61.3 191.6 61.5 C 191.4 61.7 191.2 62 191.1 62.4 C 191.1 62.4 190.1 62.3 190.1 62.3 C 190.2 61.8 190.3 61.5 190.5 61.2 C 190.7 61 191 60.8 191.4 60.6 C 191.8 60.5 192.3 60.4 192.8 60.4 C 193.3 60.4 193.8 60.5 194.1 60.6 C 194.4 60.7 194.6 60.9 194.8 61 C 195 61.2 195.1 61.5 195.1 61.7 C 195.2 61.9 195.2 62.2 195.2 62.7 C 195.2 62.7 195.2 64.1 195.2 64.1 C 195.2 65 195.2 65.6 195.2 65.9 C 195.3 66.1 195.4 66.4 195.5 66.6 C 195.5 66.62 194.4 66.6 194.4 66.6 C 194.4 66.6 194.42 66.62 194.4 66.6 Z M 194.1 63.6 C 193.8 63.7 193.2 63.8 192.4 64 C 192 64 191.7 64.1 191.5 64.2 C 191.4 64.2 191.2 64.3 191.1 64.5 C 191 64.6 191 64.8 191 65 C 191 65.3 191.1 65.5 191.3 65.7 C 191.5 65.9 191.8 65.9 192.2 65.9 C 192.6 65.9 193 65.9 193.3 65.7 C 193.6 65.5 193.8 65.3 194 65 C 194.1 64.7 194.1 64.4 194.1 63.9 C 194.1 63.9 194.1 63.6 194.1 63.6 Z M 196.7 66.6 L 196.7 58.2 L 197.8 58.2 L 197.8 66.6 L 196.7 66.6 Z " stroke="none" fill="#fff"/>  </g>  <g id="Polygon68620">    <path d="M 28.4 52.5 L 28.4 47.3 L 27.5 47.3 L 27.5 46.5 L 28.4 46.5 C 28.4 46.5 28.43 45.81 28.4 45.8 C 28.4 45.4 28.5 45.1 28.5 44.9 C 28.6 44.6 28.8 44.4 29.1 44.2 C 29.3 44.1 29.7 44 30.1 44 C 30.4 44 30.7 44 31.1 44.1 C 31.1 44.1 30.9 45 30.9 45 C 30.7 45 30.5 44.9 30.3 44.9 C 30 44.9 29.8 45 29.6 45.1 C 29.5 45.3 29.5 45.5 29.5 45.9 C 29.45 45.89 29.5 46.5 29.5 46.5 L 30.6 46.5 L 30.6 47.3 L 29.5 47.3 L 29.5 52.5 L 28.4 52.5 Z M 31.4 52.5 L 31.4 46.5 L 32.4 46.5 C 32.4 46.5 32.36 47.38 32.4 47.4 C 32.6 46.9 32.8 46.7 33 46.5 C 33.2 46.4 33.4 46.3 33.7 46.3 C 34 46.3 34.4 46.4 34.7 46.6 C 34.7 46.6 34.4 47.6 34.4 47.6 C 34.1 47.5 33.9 47.4 33.6 47.4 C 33.4 47.4 33.2 47.4 33 47.6 C 32.8 47.7 32.7 47.9 32.6 48.1 C 32.5 48.5 32.5 48.9 32.5 49.4 C 32.46 49.35 32.5 52.5 32.5 52.5 L 31.4 52.5 Z M 35 49.5 C 35 48.4 35.3 47.5 35.9 47 C 36.4 46.5 37.1 46.3 37.8 46.3 C 38.7 46.3 39.3 46.6 39.9 47.1 C 40.4 47.7 40.7 48.4 40.7 49.4 C 40.7 50.2 40.5 50.8 40.3 51.3 C 40.1 51.7 39.7 52.1 39.3 52.3 C 38.8 52.6 38.3 52.7 37.8 52.7 C 37 52.7 36.3 52.4 35.7 51.9 C 35.2 51.3 35 50.5 35 49.5 Z M 36 49.5 C 36 50.3 36.2 50.9 36.5 51.2 C 36.9 51.6 37.3 51.8 37.8 51.8 C 38.3 51.8 38.8 51.6 39.1 51.2 C 39.4 50.9 39.6 50.3 39.6 49.5 C 39.6 48.7 39.4 48.1 39.1 47.8 C 38.7 47.4 38.3 47.2 37.8 47.2 C 37.3 47.2 36.9 47.4 36.5 47.7 C 36.2 48.1 36 48.7 36 49.5 Z M 41.9 52.5 L 41.9 46.5 L 42.8 46.5 C 42.8 46.5 42.79 47.31 42.8 47.3 C 43 47 43.2 46.8 43.6 46.6 C 43.9 46.4 44.2 46.3 44.6 46.3 C 45.1 46.3 45.5 46.4 45.7 46.6 C 46 46.8 46.2 47 46.4 47.4 C 46.8 46.7 47.5 46.3 48.2 46.3 C 48.8 46.3 49.3 46.5 49.6 46.8 C 50 47.2 50.1 47.7 50.1 48.4 C 50.12 48.36 50.1 52.5 50.1 52.5 L 49.1 52.5 C 49.1 52.5 49.09 48.7 49.1 48.7 C 49.1 48.3 49.1 48 49 47.8 C 48.9 47.6 48.8 47.5 48.6 47.4 C 48.5 47.3 48.2 47.2 48 47.2 C 47.6 47.2 47.2 47.4 46.9 47.6 C 46.7 47.9 46.5 48.4 46.5 49 C 46.52 49 46.5 52.5 46.5 52.5 L 45.5 52.5 C 45.5 52.5 45.49 48.58 45.5 48.6 C 45.5 48.1 45.4 47.8 45.2 47.6 C 45.1 47.3 44.8 47.2 44.4 47.2 C 44.1 47.2 43.9 47.3 43.6 47.4 C 43.4 47.6 43.2 47.8 43.1 48.1 C 43 48.4 42.9 48.8 42.9 49.4 C 42.9 49.38 42.9 52.5 42.9 52.5 L 41.9 52.5 Z M 58.9 50.3 C 58.9 50.3 59.9 50.4 59.9 50.4 C 59.8 51.1 59.5 51.7 59 52.1 C 58.6 52.5 58 52.7 57.4 52.7 C 56.5 52.7 55.9 52.4 55.3 51.9 C 54.8 51.3 54.6 50.5 54.6 49.5 C 54.6 48.9 54.7 48.3 54.9 47.8 C 55.1 47.3 55.5 46.9 55.9 46.7 C 56.4 46.4 56.8 46.3 57.4 46.3 C 58 46.3 58.6 46.5 59 46.8 C 59.4 47.2 59.7 47.6 59.8 48.2 C 59.8 48.2 58.8 48.4 58.8 48.4 C 58.7 48 58.5 47.7 58.3 47.5 C 58 47.3 57.7 47.2 57.4 47.2 C 56.9 47.2 56.5 47.4 56.1 47.7 C 55.8 48.1 55.7 48.7 55.7 49.5 C 55.7 50.3 55.8 50.9 56.1 51.3 C 56.4 51.6 56.8 51.8 57.3 51.8 C 57.8 51.8 58.1 51.7 58.4 51.5 C 58.6 51.2 58.8 50.8 58.9 50.3 Z M 60.7 52.5 L 60.7 44.1 L 61.8 44.1 L 61.8 52.5 L 60.7 52.5 Z M 63.4 45.3 L 63.4 44.1 L 64.4 44.1 L 64.4 45.3 L 63.4 45.3 Z M 63.4 52.5 L 63.4 46.5 L 64.4 46.5 L 64.4 52.5 L 63.4 52.5 Z M 70.2 50.6 C 70.2 50.6 71.2 50.7 71.2 50.7 C 71 51.3 70.7 51.8 70.3 52.2 C 69.8 52.5 69.2 52.7 68.5 52.7 C 67.7 52.7 66.9 52.4 66.4 51.9 C 65.9 51.3 65.6 50.5 65.6 49.5 C 65.6 48.5 65.9 47.7 66.4 47.2 C 67 46.6 67.6 46.3 68.5 46.3 C 69.3 46.3 70 46.6 70.5 47.1 C 71 47.7 71.3 48.5 71.3 49.5 C 71.3 49.5 71.2 49.6 71.2 49.8 C 71.2 49.8 66.7 49.8 66.7 49.8 C 66.7 50.4 66.9 50.9 67.3 51.3 C 67.6 51.6 68 51.8 68.5 51.8 C 68.9 51.8 69.2 51.7 69.5 51.5 C 69.8 51.3 70 51 70.2 50.6 Z M 66.8 48.9 C 66.8 48.9 70.2 48.9 70.2 48.9 C 70.1 48.4 70 48 69.8 47.8 C 69.4 47.4 69 47.2 68.5 47.2 C 68 47.2 67.6 47.3 67.3 47.6 C 67 48 66.8 48.4 66.8 48.9 Z M 72.5 52.5 L 72.5 46.5 L 73.4 46.5 C 73.4 46.5 73.44 47.32 73.4 47.3 C 73.9 46.7 74.5 46.3 75.4 46.3 C 75.7 46.3 76.1 46.4 76.4 46.5 C 76.7 46.6 76.9 46.8 77.1 47 C 77.2 47.2 77.3 47.5 77.4 47.8 C 77.4 48 77.5 48.3 77.5 48.8 C 77.46 48.8 77.5 52.5 77.5 52.5 L 76.4 52.5 C 76.4 52.5 76.42 48.84 76.4 48.8 C 76.4 48.4 76.4 48.1 76.3 47.9 C 76.2 47.7 76.1 47.5 75.9 47.4 C 75.7 47.3 75.4 47.2 75.2 47.2 C 74.7 47.2 74.3 47.3 74 47.6 C 73.7 47.9 73.5 48.4 73.5 49.2 C 73.54 49.21 73.5 52.5 73.5 52.5 L 72.5 52.5 Z M 80.8 51.7 C 81 51.7 81.1 51.6 81.3 51.6 C 81.3 51.6 81.4 52.5 81.4 52.5 C 81.1 52.6 80.9 52.6 80.7 52.6 C 80.3 52.6 80 52.6 79.8 52.4 C 79.6 52.3 79.4 52.2 79.4 52 C 79.3 51.8 79.2 51.4 79.2 50.8 C 79.23 50.76 79.2 47.3 79.2 47.3 L 78.5 47.3 L 78.5 46.5 L 79.2 46.5 L 79.2 44.9 L 80.3 44.3 L 80.3 46.5 L 81.3 46.5 L 81.3 47.3 L 80.3 47.3 C 80.3 47.3 80.25 50.81 80.3 50.8 C 80.3 51.1 80.3 51.3 80.3 51.4 C 80.3 51.5 80.4 51.5 80.5 51.6 C 80.6 51.6 80.7 51.7 80.8 51.7 C 80.8 51.7 80.8 51.7 80.8 51.7 Z M 81.9 50.7 C 81.9 50.7 82.9 50.6 82.9 50.6 C 83 51 83.1 51.3 83.4 51.5 C 83.6 51.7 84 51.8 84.5 51.8 C 85 51.8 85.3 51.7 85.5 51.5 C 85.8 51.3 85.9 51.1 85.9 50.9 C 85.9 50.6 85.8 50.4 85.6 50.3 C 85.4 50.2 85.1 50.1 84.5 50 C 83.8 49.8 83.2 49.6 82.9 49.5 C 82.7 49.3 82.4 49.1 82.3 48.9 C 82.1 48.6 82.1 48.4 82.1 48.1 C 82.1 47.8 82.1 47.5 82.2 47.3 C 82.4 47.1 82.5 46.9 82.7 46.7 C 82.9 46.6 83.1 46.5 83.4 46.4 C 83.7 46.4 84 46.3 84.3 46.3 C 84.8 46.3 85.2 46.4 85.6 46.5 C 85.9 46.7 86.2 46.8 86.4 47.1 C 86.5 47.3 86.6 47.6 86.7 48 C 86.7 48 85.7 48.2 85.7 48.2 C 85.7 47.8 85.5 47.6 85.3 47.4 C 85.1 47.3 84.8 47.2 84.4 47.2 C 83.9 47.2 83.6 47.2 83.4 47.4 C 83.2 47.6 83.1 47.7 83.1 47.9 C 83.1 48.1 83.1 48.2 83.2 48.3 C 83.3 48.4 83.4 48.5 83.6 48.6 C 83.7 48.6 84 48.7 84.5 48.8 C 85.2 49 85.7 49.2 86 49.3 C 86.3 49.5 86.5 49.6 86.7 49.9 C 86.9 50.1 86.9 50.4 86.9 50.8 C 86.9 51.1 86.8 51.4 86.6 51.7 C 86.4 52 86.1 52.3 85.8 52.4 C 85.4 52.6 85 52.7 84.5 52.7 C 83.7 52.7 83.1 52.5 82.7 52.2 C 82.3 51.9 82 51.4 81.9 50.7 Z M 92.5 52.5 L 90.7 46.5 L 91.7 46.5 L 92.7 50 C 92.7 50 93.08 51.27 93.1 51.3 C 93.1 51.2 93.2 50.8 93.4 50 C 93.39 50.02 94.4 46.5 94.4 46.5 L 95.4 46.5 L 96.3 50 L 96.6 51.1 L 97 50 L 98 46.5 L 99 46.5 L 97.1 52.5 L 96.1 52.5 L 95.1 48.9 L 94.9 47.9 L 93.6 52.5 L 92.5 52.5 Z M 99.9 52.5 L 99.9 44.1 L 100.9 44.1 C 100.9 44.1 100.93 47.15 100.9 47.2 C 101.4 46.6 102 46.3 102.7 46.3 C 103.2 46.3 103.6 46.4 103.9 46.6 C 104.3 46.8 104.5 47 104.6 47.3 C 104.8 47.6 104.9 48.1 104.9 48.7 C 104.85 48.68 104.9 52.5 104.9 52.5 L 103.8 52.5 C 103.8 52.5 103.82 48.68 103.8 48.7 C 103.8 48.2 103.7 47.8 103.5 47.6 C 103.3 47.3 102.9 47.2 102.5 47.2 C 102.2 47.2 101.9 47.3 101.7 47.4 C 101.4 47.6 101.2 47.8 101.1 48.1 C 101 48.4 100.9 48.7 100.9 49.2 C 100.93 49.21 100.9 52.5 100.9 52.5 L 99.9 52.5 Z M 106 49.5 C 106 48.4 106.4 47.5 107 47 C 107.5 46.5 108.1 46.3 108.9 46.3 C 109.7 46.3 110.4 46.6 110.9 47.1 C 111.5 47.7 111.7 48.4 111.7 49.4 C 111.7 50.2 111.6 50.8 111.4 51.3 C 111.2 51.7 110.8 52.1 110.4 52.3 C 109.9 52.6 109.4 52.7 108.9 52.7 C 108 52.7 107.4 52.4 106.8 51.9 C 106.3 51.3 106 50.5 106 49.5 Z M 107.1 49.5 C 107.1 50.3 107.3 50.9 107.6 51.2 C 107.9 51.6 108.4 51.8 108.9 51.8 C 109.4 51.8 109.8 51.6 110.2 51.2 C 110.5 50.9 110.7 50.3 110.7 49.5 C 110.7 48.7 110.5 48.1 110.2 47.8 C 109.8 47.4 109.4 47.2 108.9 47.2 C 108.4 47.2 107.9 47.4 107.6 47.7 C 107.3 48.1 107.1 48.7 107.1 49.5 Z M 117.3 52.5 L 115.5 46.5 L 116.5 46.5 L 117.5 50 C 117.5 50 117.86 51.27 117.9 51.3 C 117.9 51.2 118 50.8 118.2 50 C 118.18 50.02 119.1 46.5 119.1 46.5 L 120.2 46.5 L 121.1 50 L 121.4 51.1 L 121.8 50 L 122.8 46.5 L 123.8 46.5 L 121.9 52.5 L 120.8 52.5 L 119.9 48.9 L 119.6 47.9 L 118.4 52.5 L 117.3 52.5 Z M 128.9 52.5 C 128.8 52.3 128.7 52.1 128.7 51.8 C 128.3 52.1 127.9 52.3 127.5 52.5 C 127.2 52.6 126.8 52.7 126.4 52.7 C 125.7 52.7 125.2 52.5 124.9 52.2 C 124.5 51.9 124.3 51.4 124.3 50.9 C 124.3 50.6 124.4 50.4 124.5 50.1 C 124.7 49.9 124.8 49.7 125.1 49.5 C 125.3 49.4 125.5 49.3 125.8 49.2 C 126 49.1 126.3 49.1 126.7 49 C 127.6 48.9 128.2 48.8 128.6 48.7 C 128.6 48.5 128.6 48.4 128.6 48.4 C 128.6 48 128.5 47.7 128.3 47.5 C 128 47.3 127.6 47.2 127.1 47.2 C 126.6 47.2 126.3 47.3 126 47.4 C 125.8 47.6 125.6 47.9 125.5 48.3 C 125.5 48.3 124.5 48.2 124.5 48.2 C 124.6 47.8 124.8 47.4 125 47.1 C 125.2 46.9 125.5 46.7 125.9 46.5 C 126.3 46.4 126.7 46.3 127.3 46.3 C 127.8 46.3 128.2 46.4 128.5 46.5 C 128.8 46.6 129.1 46.8 129.2 47 C 129.4 47.1 129.5 47.4 129.6 47.7 C 129.6 47.8 129.6 48.2 129.6 48.6 C 129.6 48.6 129.6 50 129.6 50 C 129.6 50.9 129.6 51.6 129.7 51.8 C 129.7 52.1 129.8 52.3 129.9 52.5 C 129.93 52.54 128.9 52.5 128.9 52.5 C 128.9 52.5 128.86 52.54 128.9 52.5 Z M 128.6 49.5 C 128.2 49.6 127.6 49.8 126.9 49.9 C 126.5 49.9 126.2 50 126 50.1 C 125.8 50.2 125.7 50.3 125.6 50.4 C 125.5 50.6 125.4 50.7 125.4 50.9 C 125.4 51.2 125.5 51.4 125.7 51.6 C 126 51.8 126.3 51.9 126.7 51.9 C 127.1 51.9 127.4 51.8 127.7 51.6 C 128 51.4 128.3 51.2 128.4 50.9 C 128.5 50.7 128.6 50.3 128.6 49.9 C 128.6 49.9 128.6 49.5 128.6 49.5 Z M 131.2 52.5 L 131.2 46.5 L 132.1 46.5 C 132.1 46.5 132.13 47.32 132.1 47.3 C 132.6 46.7 133.2 46.3 134.1 46.3 C 134.4 46.3 134.8 46.4 135.1 46.5 C 135.4 46.6 135.6 46.8 135.8 47 C 135.9 47.2 136 47.5 136.1 47.8 C 136.1 48 136.2 48.3 136.2 48.8 C 136.15 48.8 136.2 52.5 136.2 52.5 L 135.1 52.5 C 135.1 52.5 135.12 48.84 135.1 48.8 C 135.1 48.4 135.1 48.1 135 47.9 C 134.9 47.7 134.8 47.5 134.6 47.4 C 134.4 47.3 134.1 47.2 133.9 47.2 C 133.4 47.2 133 47.3 132.7 47.6 C 132.4 47.9 132.2 48.4 132.2 49.2 C 132.24 49.21 132.2 52.5 132.2 52.5 L 131.2 52.5 Z M 139.5 51.7 C 139.6 51.7 139.8 51.6 140 51.6 C 140 51.6 140.1 52.5 140.1 52.5 C 139.8 52.6 139.6 52.6 139.4 52.6 C 139 52.6 138.7 52.6 138.5 52.4 C 138.3 52.3 138.1 52.2 138 52 C 138 51.8 137.9 51.4 137.9 50.8 C 137.92 50.76 137.9 47.3 137.9 47.3 L 137.2 47.3 L 137.2 46.5 L 137.9 46.5 L 137.9 44.9 L 138.9 44.3 L 138.9 46.5 L 140 46.5 L 140 47.3 L 138.9 47.3 C 138.9 47.3 138.95 50.81 138.9 50.8 C 138.9 51.1 139 51.3 139 51.4 C 139 51.5 139.1 51.5 139.2 51.6 C 139.3 51.6 139.4 51.7 139.5 51.7 C 139.5 51.7 139.5 51.7 139.5 51.7 Z M 145.2 50.6 C 145.2 50.6 146.2 50.7 146.2 50.7 C 146.1 51.3 145.7 51.8 145.3 52.2 C 144.8 52.5 144.3 52.7 143.5 52.7 C 142.7 52.7 142 52.4 141.4 51.9 C 140.9 51.3 140.6 50.5 140.6 49.5 C 140.6 48.5 140.9 47.7 141.4 47.2 C 142 46.6 142.6 46.3 143.5 46.3 C 144.3 46.3 145 46.6 145.5 47.1 C 146 47.7 146.3 48.5 146.3 49.5 C 146.3 49.5 146.3 49.6 146.3 49.8 C 146.3 49.8 141.7 49.8 141.7 49.8 C 141.8 50.4 141.9 50.9 142.3 51.3 C 142.6 51.6 143 51.8 143.6 51.8 C 143.9 51.8 144.3 51.7 144.5 51.5 C 144.8 51.3 145 51 145.2 50.6 Z M 141.8 48.9 C 141.8 48.9 145.2 48.9 145.2 48.9 C 145.1 48.4 145 48 144.8 47.8 C 144.5 47.4 144 47.2 143.5 47.2 C 143 47.2 142.6 47.3 142.3 47.6 C 142 48 141.8 48.4 141.8 48.9 Z M 151.5 52.5 C 151.5 52.5 151.46 51.77 151.5 51.8 C 151.1 52.4 150.5 52.7 149.8 52.7 C 149.3 52.7 148.8 52.5 148.4 52.3 C 148 52 147.7 51.6 147.5 51.2 C 147.3 50.7 147.1 50.1 147.1 49.5 C 147.1 48.9 147.2 48.3 147.4 47.8 C 147.7 47.4 148 47 148.4 46.7 C 148.8 46.4 149.2 46.3 149.7 46.3 C 150.1 46.3 150.4 46.4 150.7 46.5 C 151 46.7 151.2 46.9 151.4 47.2 C 151.4 47.15 151.4 44.1 151.4 44.1 L 152.4 44.1 L 152.4 52.5 L 151.5 52.5 Z M 148.2 49.5 C 148.2 50.3 148.4 50.9 148.7 51.2 C 149 51.6 149.4 51.8 149.9 51.8 C 150.3 51.8 150.7 51.6 151 51.3 C 151.3 50.9 151.5 50.3 151.5 49.6 C 151.5 48.8 151.3 48.1 151 47.8 C 150.7 47.4 150.3 47.2 149.8 47.2 C 149.4 47.2 149 47.4 148.7 47.7 C 148.4 48.1 148.2 48.7 148.2 49.5 Z M 157.3 52.5 L 157.3 46.5 L 158.2 46.5 C 158.2 46.5 158.22 47.31 158.2 47.3 C 158.4 47 158.7 46.8 159 46.6 C 159.3 46.4 159.7 46.3 160.1 46.3 C 160.5 46.3 160.9 46.4 161.2 46.6 C 161.5 46.8 161.7 47 161.8 47.4 C 162.3 46.7 162.9 46.3 163.7 46.3 C 164.3 46.3 164.7 46.5 165.1 46.8 C 165.4 47.2 165.5 47.7 165.5 48.4 C 165.55 48.36 165.5 52.5 165.5 52.5 L 164.5 52.5 C 164.5 52.5 164.52 48.7 164.5 48.7 C 164.5 48.3 164.5 48 164.4 47.8 C 164.4 47.6 164.2 47.5 164.1 47.4 C 163.9 47.3 163.7 47.2 163.4 47.2 C 163 47.2 162.7 47.4 162.4 47.6 C 162.1 47.9 161.9 48.4 161.9 49 C 161.95 49 161.9 52.5 161.9 52.5 L 160.9 52.5 C 160.9 52.5 160.92 48.58 160.9 48.6 C 160.9 48.1 160.8 47.8 160.7 47.6 C 160.5 47.3 160.2 47.2 159.8 47.2 C 159.6 47.2 159.3 47.3 159 47.4 C 158.8 47.6 158.6 47.8 158.5 48.1 C 158.4 48.4 158.3 48.8 158.3 49.4 C 158.33 49.38 158.3 52.5 158.3 52.5 L 157.3 52.5 Z M 166.7 49.5 C 166.7 48.4 167 47.5 167.6 47 C 168.2 46.5 168.8 46.3 169.5 46.3 C 170.4 46.3 171.1 46.6 171.6 47.1 C 172.1 47.7 172.4 48.4 172.4 49.4 C 172.4 50.2 172.3 50.8 172 51.3 C 171.8 51.7 171.5 52.1 171 52.3 C 170.6 52.6 170.1 52.7 169.5 52.7 C 168.7 52.7 168 52.4 167.5 51.9 C 167 51.3 166.7 50.5 166.7 49.5 Z M 167.8 49.5 C 167.8 50.3 167.9 50.9 168.3 51.2 C 168.6 51.6 169 51.8 169.5 51.8 C 170.1 51.8 170.5 51.6 170.8 51.2 C 171.2 50.9 171.3 50.3 171.3 49.5 C 171.3 48.7 171.2 48.1 170.8 47.8 C 170.5 47.4 170.1 47.2 169.5 47.2 C 169 47.2 168.6 47.4 168.3 47.7 C 167.9 48.1 167.8 48.7 167.8 49.5 Z M 173.6 52.5 L 173.6 46.5 L 174.5 46.5 C 174.5 46.5 174.52 47.38 174.5 47.4 C 174.8 46.9 175 46.7 175.2 46.5 C 175.4 46.4 175.6 46.3 175.8 46.3 C 176.2 46.3 176.5 46.4 176.9 46.6 C 176.9 46.6 176.5 47.6 176.5 47.6 C 176.3 47.5 176 47.4 175.8 47.4 C 175.6 47.4 175.4 47.4 175.2 47.6 C 175 47.7 174.9 47.9 174.8 48.1 C 174.7 48.5 174.6 48.9 174.6 49.4 C 174.62 49.35 174.6 52.5 174.6 52.5 L 173.6 52.5 Z M 181.7 50.6 C 181.7 50.6 182.7 50.7 182.7 50.7 C 182.6 51.3 182.3 51.8 181.8 52.2 C 181.4 52.5 180.8 52.7 180.1 52.7 C 179.2 52.7 178.5 52.4 177.9 51.9 C 177.4 51.3 177.2 50.5 177.2 49.5 C 177.2 48.5 177.4 47.7 178 47.2 C 178.5 46.6 179.2 46.3 180 46.3 C 180.8 46.3 181.5 46.6 182 47.1 C 182.5 47.7 182.8 48.5 182.8 49.5 C 182.8 49.5 182.8 49.6 182.8 49.8 C 182.8 49.8 178.2 49.8 178.2 49.8 C 178.3 50.4 178.5 50.9 178.8 51.3 C 179.1 51.6 179.6 51.8 180.1 51.8 C 180.4 51.8 180.8 51.7 181 51.5 C 181.3 51.3 181.5 51 181.7 50.6 Z M 178.3 48.9 C 178.3 48.9 181.7 48.9 181.7 48.9 C 181.6 48.4 181.5 48 181.3 47.8 C 181 47.4 180.5 47.2 180 47.2 C 179.5 47.2 179.1 47.3 178.8 47.6 C 178.5 48 178.3 48.4 178.3 48.9 Z " stroke="none" fill="#fff"/>  </g>  <g id="Polygon68619">    <path d="M 20.4 38.5 C 20.4 38.5 20.36 37.69 20.4 37.7 C 20 38.3 19.4 38.6 18.7 38.6 C 18.2 38.6 17.7 38.5 17.3 38.2 C 16.9 37.9 16.6 37.6 16.4 37.1 C 16.2 36.6 16 36 16 35.4 C 16 34.8 16.1 34.3 16.3 33.8 C 16.6 33.3 16.9 32.9 17.3 32.6 C 17.7 32.4 18.1 32.2 18.6 32.2 C 19 32.2 19.3 32.3 19.6 32.5 C 19.9 32.6 20.1 32.8 20.3 33.1 C 20.3 33.07 20.3 30.1 20.3 30.1 L 21.3 30.1 L 21.3 38.5 L 20.4 38.5 Z M 17.1 35.4 C 17.1 36.2 17.3 36.8 17.6 37.2 C 17.9 37.6 18.3 37.7 18.8 37.7 C 19.2 37.7 19.6 37.6 19.9 37.2 C 20.2 36.8 20.4 36.3 20.4 35.5 C 20.4 34.7 20.2 34.1 19.9 33.7 C 19.6 33.3 19.2 33.1 18.7 33.1 C 18.3 33.1 17.9 33.3 17.6 33.7 C 17.3 34 17.1 34.6 17.1 35.4 Z M 27.1 36.5 C 27.1 36.5 28.2 36.6 28.2 36.6 C 28 37.3 27.7 37.7 27.2 38.1 C 26.8 38.4 26.2 38.6 25.5 38.6 C 24.6 38.6 23.9 38.3 23.4 37.8 C 22.9 37.2 22.6 36.5 22.6 35.5 C 22.6 34.4 22.9 33.6 23.4 33.1 C 23.9 32.5 24.6 32.2 25.4 32.2 C 26.3 32.2 26.9 32.5 27.4 33.1 C 27.9 33.6 28.2 34.4 28.2 35.4 C 28.2 35.5 28.2 35.6 28.2 35.7 C 28.2 35.7 23.7 35.7 23.7 35.7 C 23.7 36.3 23.9 36.9 24.2 37.2 C 24.6 37.6 25 37.7 25.5 37.7 C 25.9 37.7 26.2 37.6 26.5 37.4 C 26.7 37.3 27 36.9 27.1 36.5 Z M 23.7 34.8 C 23.7 34.8 27.1 34.8 27.1 34.8 C 27.1 34.3 26.9 33.9 26.7 33.7 C 26.4 33.3 26 33.1 25.5 33.1 C 25 33.1 24.6 33.2 24.3 33.6 C 23.9 33.9 23.8 34.3 23.7 34.8 Z M 31.2 38.5 L 28.8 32.4 L 29.9 32.4 C 29.9 32.4 31.24 36.02 31.2 36 C 31.4 36.4 31.5 36.8 31.6 37.2 C 31.7 36.9 31.8 36.5 32 36.1 C 32.01 36.09 33.4 32.4 33.4 32.4 L 34.4 32.4 L 32.1 38.5 L 31.2 38.5 Z M 39.5 36.5 C 39.5 36.5 40.6 36.6 40.6 36.6 C 40.4 37.3 40.1 37.7 39.6 38.1 C 39.2 38.4 38.6 38.6 37.9 38.6 C 37 38.6 36.3 38.3 35.8 37.8 C 35.3 37.2 35 36.5 35 35.5 C 35 34.4 35.3 33.6 35.8 33.1 C 36.3 32.5 37 32.2 37.8 32.2 C 38.6 32.2 39.3 32.5 39.8 33.1 C 40.3 33.6 40.6 34.4 40.6 35.4 C 40.6 35.5 40.6 35.6 40.6 35.7 C 40.6 35.7 36.1 35.7 36.1 35.7 C 36.1 36.3 36.3 36.9 36.6 37.2 C 37 37.6 37.4 37.7 37.9 37.7 C 38.3 37.7 38.6 37.6 38.9 37.4 C 39.1 37.3 39.3 36.9 39.5 36.5 Z M 36.1 34.8 C 36.1 34.8 39.5 34.8 39.5 34.8 C 39.5 34.3 39.3 33.9 39.1 33.7 C 38.8 33.3 38.4 33.1 37.8 33.1 C 37.4 33.1 37 33.2 36.6 33.6 C 36.3 33.9 36.1 34.3 36.1 34.8 Z M 41.8 38.5 L 41.8 30.1 L 42.9 30.1 L 42.9 38.5 L 41.8 38.5 Z M 44.1 35.4 C 44.1 34.3 44.4 33.5 45 32.9 C 45.5 32.5 46.2 32.2 46.9 32.2 C 47.8 32.2 48.5 32.5 49 33.1 C 49.5 33.6 49.8 34.4 49.8 35.3 C 49.8 36.1 49.7 36.7 49.4 37.2 C 49.2 37.6 48.9 38 48.4 38.2 C 48 38.5 47.5 38.6 46.9 38.6 C 46.1 38.6 45.4 38.3 44.9 37.8 C 44.3 37.2 44.1 36.4 44.1 35.4 Z M 45.1 35.4 C 45.1 36.2 45.3 36.8 45.7 37.2 C 46 37.6 46.4 37.7 46.9 37.7 C 47.4 37.7 47.9 37.6 48.2 37.2 C 48.6 36.8 48.7 36.2 48.7 35.4 C 48.7 34.6 48.6 34.1 48.2 33.7 C 47.9 33.3 47.4 33.1 46.9 33.1 C 46.4 33.1 46 33.3 45.7 33.7 C 45.3 34.1 45.1 34.6 45.1 35.4 Z M 51 40.8 L 51 32.4 L 51.9 32.4 C 51.9 32.4 51.93 33.16 51.9 33.2 C 52.2 32.9 52.4 32.6 52.7 32.5 C 53 32.3 53.3 32.2 53.7 32.2 C 54.2 32.2 54.7 32.4 55.1 32.6 C 55.5 32.9 55.8 33.3 56 33.8 C 56.2 34.3 56.3 34.8 56.3 35.4 C 56.3 36 56.2 36.6 55.9 37.1 C 55.7 37.5 55.4 37.9 55 38.2 C 54.5 38.5 54.1 38.6 53.6 38.6 C 53.3 38.6 53 38.5 52.7 38.4 C 52.4 38.2 52.2 38 52 37.8 C 52.02 37.83 52 40.8 52 40.8 L 51 40.8 Z M 51.9 35.4 C 51.9 36.2 52.1 36.8 52.4 37.2 C 52.7 37.6 53.1 37.7 53.6 37.7 C 54 37.7 54.4 37.6 54.7 37.2 C 55.1 36.8 55.2 36.2 55.2 35.4 C 55.2 34.6 55.1 34 54.7 33.6 C 54.4 33.2 54 33 53.6 33 C 53.2 33 52.8 33.2 52.4 33.7 C 52.1 34.1 51.9 34.7 51.9 35.4 Z M 61.7 36.5 C 61.7 36.5 62.7 36.6 62.7 36.6 C 62.6 37.3 62.3 37.7 61.8 38.1 C 61.4 38.4 60.8 38.6 60.1 38.6 C 59.2 38.6 58.5 38.3 58 37.8 C 57.4 37.2 57.2 36.5 57.2 35.5 C 57.2 34.4 57.4 33.6 58 33.1 C 58.5 32.5 59.2 32.2 60 32.2 C 60.8 32.2 61.5 32.5 62 33.1 C 62.5 33.6 62.8 34.4 62.8 35.4 C 62.8 35.5 62.8 35.6 62.8 35.7 C 62.8 35.7 58.2 35.7 58.2 35.7 C 58.3 36.3 58.5 36.9 58.8 37.2 C 59.1 37.6 59.6 37.7 60.1 37.7 C 60.5 37.7 60.8 37.6 61 37.4 C 61.3 37.3 61.5 36.9 61.7 36.5 Z M 58.3 34.8 C 58.3 34.8 61.7 34.8 61.7 34.8 C 61.6 34.3 61.5 33.9 61.3 33.7 C 61 33.3 60.6 33.1 60 33.1 C 59.6 33.1 59.2 33.2 58.8 33.6 C 58.5 33.9 58.3 34.3 58.3 34.8 Z M 68 38.5 C 68 38.5 67.99 37.69 68 37.7 C 67.6 38.3 67 38.6 66.3 38.6 C 65.8 38.6 65.4 38.5 65 38.2 C 64.5 37.9 64.2 37.6 64 37.1 C 63.8 36.6 63.7 36 63.7 35.4 C 63.7 34.8 63.8 34.3 64 33.8 C 64.2 33.3 64.5 32.9 64.9 32.6 C 65.3 32.4 65.7 32.2 66.2 32.2 C 66.6 32.2 66.9 32.3 67.2 32.5 C 67.5 32.6 67.7 32.8 67.9 33.1 C 67.92 33.07 67.9 30.1 67.9 30.1 L 68.9 30.1 L 68.9 38.5 L 68 38.5 Z M 64.7 35.4 C 64.7 36.2 64.9 36.8 65.2 37.2 C 65.6 37.6 65.9 37.7 66.4 37.7 C 66.8 37.7 67.2 37.6 67.5 37.2 C 67.9 36.8 68 36.3 68 35.5 C 68 34.7 67.8 34.1 67.5 33.7 C 67.2 33.3 66.8 33.1 66.3 33.1 C 65.9 33.1 65.5 33.3 65.2 33.7 C 64.9 34 64.7 34.6 64.7 35.4 Z M 73.8 31.2 L 73.8 30.1 L 74.9 30.1 L 74.9 31.2 L 73.8 31.2 Z M 73.8 38.5 L 73.8 32.4 L 74.9 32.4 L 74.9 38.5 L 73.8 38.5 Z M 76.4 38.5 L 76.4 32.4 L 77.4 32.4 C 77.4 32.4 77.36 33.24 77.4 33.2 C 77.8 32.6 78.5 32.2 79.3 32.2 C 79.7 32.2 80 32.3 80.3 32.4 C 80.6 32.6 80.8 32.7 81 33 C 81.2 33.2 81.3 33.4 81.3 33.7 C 81.4 33.9 81.4 34.2 81.4 34.7 C 81.38 34.72 81.4 38.5 81.4 38.5 L 80.3 38.5 C 80.3 38.5 80.35 34.76 80.3 34.8 C 80.3 34.3 80.3 34 80.2 33.8 C 80.1 33.6 80 33.4 79.8 33.3 C 79.6 33.2 79.4 33.1 79.1 33.1 C 78.6 33.1 78.3 33.3 77.9 33.5 C 77.6 33.8 77.5 34.4 77.5 35.1 C 77.47 35.13 77.5 38.5 77.5 38.5 L 76.4 38.5 Z M 86.2 38.5 L 86.2 32.4 L 87.1 32.4 C 87.1 32.4 87.14 33.3 87.1 33.3 C 87.4 32.9 87.6 32.6 87.8 32.4 C 88 32.3 88.2 32.2 88.5 32.2 C 88.8 32.2 89.2 32.3 89.5 32.6 C 89.5 32.6 89.2 33.5 89.2 33.5 C 88.9 33.4 88.7 33.3 88.4 33.3 C 88.2 33.3 88 33.4 87.8 33.5 C 87.6 33.6 87.5 33.8 87.4 34.1 C 87.3 34.4 87.2 34.8 87.2 35.3 C 87.24 35.27 87.2 38.5 87.2 38.5 L 86.2 38.5 Z M 94.3 36.5 C 94.3 36.5 95.4 36.6 95.4 36.6 C 95.2 37.3 94.9 37.7 94.4 38.1 C 94 38.4 93.4 38.6 92.7 38.6 C 91.8 38.6 91.1 38.3 90.6 37.8 C 90 37.2 89.8 36.5 89.8 35.5 C 89.8 34.4 90 33.6 90.6 33.1 C 91.1 32.5 91.8 32.2 92.6 32.2 C 93.4 32.2 94.1 32.5 94.6 33.1 C 95.1 33.6 95.4 34.4 95.4 35.4 C 95.4 35.5 95.4 35.6 95.4 35.7 C 95.4 35.7 90.9 35.7 90.9 35.7 C 90.9 36.3 91.1 36.9 91.4 37.2 C 91.8 37.6 92.2 37.7 92.7 37.7 C 93.1 37.7 93.4 37.6 93.7 37.4 C 93.9 37.3 94.1 36.9 94.3 36.5 Z M 90.9 34.8 C 90.9 34.8 94.3 34.8 94.3 34.8 C 94.3 34.3 94.1 33.9 93.9 33.7 C 93.6 33.3 93.2 33.1 92.6 33.1 C 92.2 33.1 91.8 33.2 91.4 33.6 C 91.1 33.9 90.9 34.3 90.9 34.8 Z M 96.2 36.6 C 96.2 36.6 97.3 36.5 97.3 36.5 C 97.3 36.9 97.5 37.2 97.7 37.4 C 98 37.6 98.4 37.7 98.8 37.7 C 99.3 37.7 99.7 37.7 99.9 37.5 C 100.1 37.3 100.2 37 100.2 36.8 C 100.2 36.5 100.1 36.4 99.9 36.2 C 99.8 36.1 99.4 36 98.9 35.9 C 98.1 35.7 97.6 35.5 97.3 35.4 C 97 35.2 96.8 35.1 96.6 34.8 C 96.5 34.6 96.4 34.3 96.4 34 C 96.4 33.7 96.5 33.5 96.6 33.2 C 96.7 33 96.9 32.8 97.1 32.7 C 97.3 32.5 97.5 32.4 97.8 32.4 C 98 32.3 98.3 32.2 98.7 32.2 C 99.1 32.2 99.5 32.3 99.9 32.4 C 100.3 32.6 100.5 32.8 100.7 33 C 100.9 33.2 101 33.5 101.1 33.9 C 101.1 33.9 100.1 34.1 100.1 34.1 C 100 33.8 99.9 33.5 99.7 33.3 C 99.4 33.2 99.1 33.1 98.7 33.1 C 98.3 33.1 97.9 33.2 97.7 33.3 C 97.5 33.5 97.4 33.7 97.4 33.9 C 97.4 34 97.5 34.1 97.5 34.2 C 97.6 34.3 97.8 34.4 97.9 34.5 C 98 34.5 98.3 34.6 98.8 34.8 C 99.6 35 100.1 35.1 100.4 35.2 C 100.7 35.4 100.9 35.6 101 35.8 C 101.2 36 101.3 36.3 101.3 36.7 C 101.3 37 101.2 37.3 101 37.6 C 100.8 37.9 100.5 38.2 100.1 38.3 C 99.7 38.5 99.3 38.6 98.8 38.6 C 98.1 38.6 97.4 38.4 97 38.1 C 96.6 37.8 96.4 37.3 96.2 36.6 Z M 102.5 40.8 L 102.5 32.4 L 103.5 32.4 C 103.5 32.4 103.46 33.16 103.5 33.2 C 103.7 32.9 103.9 32.6 104.2 32.5 C 104.5 32.3 104.8 32.2 105.2 32.2 C 105.7 32.2 106.2 32.4 106.6 32.6 C 107 32.9 107.3 33.3 107.5 33.8 C 107.7 34.3 107.8 34.8 107.8 35.4 C 107.8 36 107.7 36.6 107.5 37.1 C 107.2 37.5 106.9 37.9 106.5 38.2 C 106.1 38.5 105.6 38.6 105.1 38.6 C 104.8 38.6 104.5 38.5 104.2 38.4 C 104 38.2 103.7 38 103.6 37.8 C 103.55 37.83 103.6 40.8 103.6 40.8 L 102.5 40.8 Z M 103.5 35.4 C 103.5 36.2 103.6 36.8 103.9 37.2 C 104.2 37.6 104.6 37.7 105.1 37.7 C 105.5 37.7 105.9 37.6 106.3 37.2 C 106.6 36.8 106.7 36.2 106.7 35.4 C 106.7 34.6 106.6 34 106.3 33.6 C 106 33.2 105.6 33 105.1 33 C 104.7 33 104.3 33.2 104 33.7 C 103.6 34.1 103.5 34.7 103.5 35.4 Z M 108.7 35.4 C 108.7 34.3 109 33.5 109.6 32.9 C 110.1 32.5 110.8 32.2 111.5 32.2 C 112.4 32.2 113 32.5 113.6 33.1 C 114.1 33.6 114.4 34.4 114.4 35.3 C 114.4 36.1 114.2 36.7 114 37.2 C 113.8 37.6 113.4 38 113 38.2 C 112.5 38.5 112 38.6 111.5 38.6 C 110.7 38.6 110 38.3 109.4 37.8 C 108.9 37.2 108.7 36.4 108.7 35.4 Z M 109.7 35.4 C 109.7 36.2 109.9 36.8 110.2 37.2 C 110.6 37.6 111 37.7 111.5 37.7 C 112 37.7 112.5 37.6 112.8 37.2 C 113.1 36.8 113.3 36.2 113.3 35.4 C 113.3 34.6 113.1 34.1 112.8 33.7 C 112.4 33.3 112 33.1 111.5 33.1 C 111 33.1 110.6 33.3 110.2 33.7 C 109.9 34.1 109.7 34.6 109.7 35.4 Z M 115.6 38.5 L 115.6 32.4 L 116.5 32.4 C 116.5 32.4 116.5 33.24 116.5 33.2 C 116.9 32.6 117.6 32.2 118.4 32.2 C 118.8 32.2 119.1 32.3 119.4 32.4 C 119.8 32.6 120 32.7 120.1 33 C 120.3 33.2 120.4 33.4 120.5 33.7 C 120.5 33.9 120.5 34.2 120.5 34.7 C 120.52 34.72 120.5 38.5 120.5 38.5 L 119.5 38.5 C 119.5 38.5 119.48 34.76 119.5 34.8 C 119.5 34.3 119.4 34 119.4 33.8 C 119.3 33.6 119.1 33.4 118.9 33.3 C 118.7 33.2 118.5 33.1 118.2 33.1 C 117.8 33.1 117.4 33.3 117.1 33.5 C 116.8 33.8 116.6 34.4 116.6 35.1 C 116.6 35.13 116.6 38.5 116.6 38.5 L 115.6 38.5 Z M 121.7 36.6 C 121.7 36.6 122.7 36.5 122.7 36.5 C 122.8 36.9 122.9 37.2 123.2 37.4 C 123.4 37.6 123.8 37.7 124.3 37.7 C 124.8 37.7 125.1 37.7 125.3 37.5 C 125.6 37.3 125.7 37 125.7 36.8 C 125.7 36.5 125.6 36.4 125.4 36.2 C 125.2 36.1 124.9 36 124.3 35.9 C 123.6 35.7 123 35.5 122.7 35.4 C 122.5 35.2 122.2 35.1 122.1 34.8 C 121.9 34.6 121.9 34.3 121.9 34 C 121.9 33.7 121.9 33.5 122 33.2 C 122.2 33 122.3 32.8 122.5 32.7 C 122.7 32.5 122.9 32.4 123.2 32.4 C 123.5 32.3 123.8 32.2 124.1 32.2 C 124.6 32.2 125 32.3 125.4 32.4 C 125.7 32.6 126 32.8 126.2 33 C 126.3 33.2 126.4 33.5 126.5 33.9 C 126.5 33.9 125.5 34.1 125.5 34.1 C 125.5 33.8 125.3 33.5 125.1 33.3 C 124.9 33.2 124.6 33.1 124.2 33.1 C 123.7 33.1 123.4 33.2 123.2 33.3 C 123 33.5 122.9 33.7 122.9 33.9 C 122.9 34 122.9 34.1 123 34.2 C 123.1 34.3 123.2 34.4 123.4 34.5 C 123.5 34.5 123.8 34.6 124.3 34.8 C 125 35 125.5 35.1 125.8 35.2 C 126.1 35.4 126.3 35.6 126.5 35.8 C 126.7 36 126.7 36.3 126.7 36.7 C 126.7 37 126.6 37.3 126.4 37.6 C 126.2 37.9 125.9 38.2 125.6 38.3 C 125.2 38.5 124.8 38.6 124.3 38.6 C 123.5 38.6 122.9 38.4 122.5 38.1 C 122.1 37.8 121.8 37.3 121.7 36.6 Z M 132.1 36.5 C 132.1 36.5 133.2 36.6 133.2 36.6 C 133 37.3 132.7 37.7 132.3 38.1 C 131.8 38.4 131.2 38.6 130.5 38.6 C 129.6 38.6 128.9 38.3 128.4 37.8 C 127.9 37.2 127.6 36.5 127.6 35.5 C 127.6 34.4 127.9 33.6 128.4 33.1 C 128.9 32.5 129.6 32.2 130.5 32.2 C 131.3 32.2 131.9 32.5 132.5 33.1 C 133 33.6 133.2 34.4 133.2 35.4 C 133.2 35.5 133.2 35.6 133.2 35.7 C 133.2 35.7 128.7 35.7 128.7 35.7 C 128.7 36.3 128.9 36.9 129.3 37.2 C 129.6 37.6 130 37.7 130.5 37.7 C 130.9 37.7 131.2 37.6 131.5 37.4 C 131.8 37.3 132 36.9 132.1 36.5 Z M 128.7 34.8 C 128.7 34.8 132.1 34.8 132.1 34.8 C 132.1 34.3 132 33.9 131.8 33.7 C 131.4 33.3 131 33.1 130.5 33.1 C 130 33.1 129.6 33.2 129.3 33.6 C 129 33.9 128.8 34.3 128.7 34.8 Z M 139.5 37.6 C 139.7 37.6 139.8 37.6 140 37.5 C 140 37.5 140.1 38.4 140.1 38.4 C 139.9 38.5 139.6 38.5 139.4 38.5 C 139 38.5 138.7 38.5 138.5 38.4 C 138.3 38.2 138.1 38.1 138.1 37.9 C 138 37.7 137.9 37.3 137.9 36.7 C 137.94 36.68 137.9 33.2 137.9 33.2 L 137.2 33.2 L 137.2 32.4 L 137.9 32.4 L 137.9 30.9 L 139 30.2 L 139 32.4 L 140 32.4 L 140 33.2 L 139 33.2 C 139 33.2 138.96 36.73 139 36.7 C 139 37 139 37.2 139 37.3 C 139.1 37.4 139.1 37.5 139.2 37.5 C 139.3 37.6 139.4 37.6 139.5 37.6 C 139.5 37.6 139.5 37.6 139.5 37.6 Z M 140.6 35.4 C 140.6 34.3 140.9 33.5 141.6 32.9 C 142.1 32.5 142.7 32.2 143.5 32.2 C 144.3 32.2 145 32.5 145.5 33.1 C 146.1 33.6 146.3 34.4 146.3 35.3 C 146.3 36.1 146.2 36.7 146 37.2 C 145.7 37.6 145.4 38 144.9 38.2 C 144.5 38.5 144 38.6 143.5 38.6 C 142.6 38.6 141.9 38.3 141.4 37.8 C 140.9 37.2 140.6 36.4 140.6 35.4 Z M 141.7 35.4 C 141.7 36.2 141.9 36.8 142.2 37.2 C 142.5 37.6 143 37.7 143.5 37.7 C 144 37.7 144.4 37.6 144.8 37.2 C 145.1 36.8 145.3 36.2 145.3 35.4 C 145.3 34.6 145.1 34.1 144.8 33.7 C 144.4 33.3 144 33.1 143.5 33.1 C 143 33.1 142.5 33.3 142.2 33.7 C 141.9 34.1 141.7 34.6 141.7 35.4 Z M 150.8 38.5 L 150.8 32.4 L 151.7 32.4 C 151.7 32.4 151.71 33.3 151.7 33.3 C 151.9 32.9 152.2 32.6 152.4 32.4 C 152.6 32.3 152.8 32.2 153 32.2 C 153.4 32.2 153.7 32.3 154.1 32.6 C 154.1 32.6 153.7 33.5 153.7 33.5 C 153.5 33.4 153.2 33.3 153 33.3 C 152.8 33.3 152.5 33.4 152.4 33.5 C 152.2 33.6 152.1 33.8 152 34.1 C 151.9 34.4 151.8 34.8 151.8 35.3 C 151.81 35.27 151.8 38.5 151.8 38.5 L 150.8 38.5 Z M 158.9 36.5 C 158.9 36.5 159.9 36.6 159.9 36.6 C 159.8 37.3 159.5 37.7 159 38.1 C 158.5 38.4 158 38.6 157.3 38.6 C 156.4 38.6 155.7 38.3 155.1 37.8 C 154.6 37.2 154.4 36.5 154.4 35.5 C 154.4 34.4 154.6 33.6 155.1 33.1 C 155.7 32.5 156.4 32.2 157.2 32.2 C 158 32.2 158.7 32.5 159.2 33.1 C 159.7 33.6 160 34.4 160 35.4 C 160 35.5 160 35.6 160 35.7 C 160 35.7 155.4 35.7 155.4 35.7 C 155.5 36.3 155.7 36.9 156 37.2 C 156.3 37.6 156.8 37.7 157.3 37.7 C 157.6 37.7 158 37.6 158.2 37.4 C 158.5 37.3 158.7 36.9 158.9 36.5 Z M 155.5 34.8 C 155.5 34.8 158.9 34.8 158.9 34.8 C 158.8 34.3 158.7 33.9 158.5 33.7 C 158.2 33.3 157.7 33.1 157.2 33.1 C 156.7 33.1 156.3 33.2 156 33.6 C 155.7 33.9 155.5 34.3 155.5 34.8 Z M 165.1 40.8 C 165.1 40.8 165.11 37.81 165.1 37.8 C 164.9 38 164.7 38.2 164.4 38.4 C 164.1 38.5 163.8 38.6 163.5 38.6 C 162.8 38.6 162.2 38.3 161.6 37.7 C 161.1 37.2 160.9 36.4 160.9 35.4 C 160.9 34.7 161 34.2 161.2 33.7 C 161.4 33.2 161.7 32.9 162.1 32.6 C 162.5 32.4 163 32.2 163.4 32.2 C 164.2 32.2 164.8 32.6 165.2 33.2 C 165.21 33.19 165.2 32.4 165.2 32.4 L 166.1 32.4 L 166.1 40.8 L 165.1 40.8 Z M 161.9 35.4 C 161.9 36.2 162.1 36.8 162.4 37.2 C 162.7 37.6 163.1 37.7 163.6 37.7 C 164 37.7 164.4 37.6 164.7 37.2 C 165.1 36.8 165.2 36.3 165.2 35.5 C 165.2 34.7 165 34.1 164.7 33.7 C 164.4 33.3 164 33 163.5 33 C 163.1 33 162.7 33.2 162.4 33.6 C 162.1 34 161.9 34.6 161.9 35.4 Z M 171.7 38.5 C 171.7 38.5 171.74 37.56 171.7 37.6 C 171.3 38.3 170.6 38.6 169.8 38.6 C 169.5 38.6 169.1 38.5 168.8 38.4 C 168.5 38.3 168.3 38.1 168.1 37.9 C 168 37.7 167.9 37.4 167.8 37.1 C 167.8 36.9 167.7 36.6 167.7 36.1 C 167.73 36.14 167.7 32.4 167.7 32.4 L 168.8 32.4 C 168.8 32.4 168.76 35.75 168.8 35.7 C 168.8 36.3 168.8 36.6 168.8 36.8 C 168.9 37.1 169 37.3 169.2 37.5 C 169.4 37.6 169.7 37.7 170 37.7 C 170.3 37.7 170.6 37.6 170.9 37.5 C 171.2 37.3 171.3 37.1 171.5 36.8 C 171.6 36.5 171.6 36.2 171.6 35.6 C 171.63 35.63 171.6 32.4 171.6 32.4 L 172.7 32.4 L 172.7 38.5 L 171.7 38.5 Z M 178.4 36.5 C 178.4 36.5 179.5 36.6 179.5 36.6 C 179.3 37.3 179 37.7 178.6 38.1 C 178.1 38.4 177.5 38.6 176.8 38.6 C 175.9 38.6 175.2 38.3 174.7 37.8 C 174.2 37.2 173.9 36.5 173.9 35.5 C 173.9 34.4 174.2 33.6 174.7 33.1 C 175.3 32.5 175.9 32.2 176.8 32.2 C 177.6 32.2 178.3 32.5 178.8 33.1 C 179.3 33.6 179.5 34.4 179.5 35.4 C 179.5 35.5 179.5 35.6 179.5 35.7 C 179.5 35.7 175 35.7 175 35.7 C 175 36.3 175.2 36.9 175.6 37.2 C 175.9 37.6 176.3 37.7 176.8 37.7 C 177.2 37.7 177.5 37.6 177.8 37.4 C 178.1 37.3 178.3 36.9 178.4 36.5 Z M 175.1 34.8 C 175.1 34.8 178.5 34.8 178.5 34.8 C 178.4 34.3 178.3 33.9 178.1 33.7 C 177.7 33.3 177.3 33.1 176.8 33.1 C 176.3 33.1 175.9 33.2 175.6 33.6 C 175.3 33.9 175.1 34.3 175.1 34.8 Z M 180.4 36.6 C 180.4 36.6 181.4 36.5 181.4 36.5 C 181.5 36.9 181.6 37.2 181.9 37.4 C 182.2 37.6 182.5 37.7 183 37.7 C 183.5 37.7 183.8 37.7 184 37.5 C 184.3 37.3 184.4 37 184.4 36.8 C 184.4 36.5 184.3 36.4 184.1 36.2 C 183.9 36.1 183.6 36 183 35.9 C 182.3 35.7 181.7 35.5 181.5 35.4 C 181.2 35.2 180.9 35.1 180.8 34.8 C 180.6 34.6 180.6 34.3 180.6 34 C 180.6 33.7 180.6 33.5 180.7 33.2 C 180.9 33 181 32.8 181.3 32.7 C 181.4 32.5 181.6 32.4 181.9 32.4 C 182.2 32.3 182.5 32.2 182.8 32.2 C 183.3 32.2 183.7 32.3 184.1 32.4 C 184.4 32.6 184.7 32.8 184.9 33 C 185 33.2 185.2 33.5 185.2 33.9 C 185.2 33.9 184.2 34.1 184.2 34.1 C 184.2 33.8 184 33.5 183.8 33.3 C 183.6 33.2 183.3 33.1 182.9 33.1 C 182.4 33.1 182.1 33.2 181.9 33.3 C 181.7 33.5 181.6 33.7 181.6 33.9 C 181.6 34 181.6 34.1 181.7 34.2 C 181.8 34.3 181.9 34.4 182.1 34.5 C 182.2 34.5 182.5 34.6 183 34.8 C 183.7 35 184.2 35.1 184.5 35.2 C 184.8 35.4 185 35.6 185.2 35.8 C 185.4 36 185.4 36.3 185.4 36.7 C 185.4 37 185.3 37.3 185.1 37.6 C 184.9 37.9 184.7 38.2 184.3 38.3 C 183.9 38.5 183.5 38.6 183 38.6 C 182.2 38.6 181.6 38.4 181.2 38.1 C 180.8 37.8 180.5 37.3 180.4 36.6 Z M 188.5 37.6 C 188.6 37.6 188.7 37.6 188.9 37.5 C 188.9 37.5 189.1 38.4 189.1 38.4 C 188.8 38.5 188.5 38.5 188.3 38.5 C 187.9 38.5 187.6 38.5 187.4 38.4 C 187.2 38.2 187.1 38.1 187 37.9 C 186.9 37.7 186.9 37.3 186.9 36.7 C 186.86 36.68 186.9 33.2 186.9 33.2 L 186.1 33.2 L 186.1 32.4 L 186.9 32.4 L 186.9 30.9 L 187.9 30.2 L 187.9 32.4 L 188.9 32.4 L 188.9 33.2 L 187.9 33.2 C 187.9 33.2 187.88 36.73 187.9 36.7 C 187.9 37 187.9 37.2 187.9 37.3 C 188 37.4 188 37.5 188.1 37.5 C 188.2 37.6 188.3 37.6 188.5 37.6 C 188.5 37.6 188.5 37.6 188.5 37.6 Z M 189.5 36.6 C 189.5 36.6 190.5 36.5 190.5 36.5 C 190.6 36.9 190.8 37.2 191 37.4 C 191.3 37.6 191.6 37.7 192.1 37.7 C 192.6 37.7 192.9 37.7 193.2 37.5 C 193.4 37.3 193.5 37 193.5 36.8 C 193.5 36.5 193.4 36.4 193.2 36.2 C 193.1 36.1 192.7 36 192.2 35.9 C 191.4 35.7 190.9 35.5 190.6 35.4 C 190.3 35.2 190.1 35.1 189.9 34.8 C 189.8 34.6 189.7 34.3 189.7 34 C 189.7 33.7 189.8 33.5 189.9 33.2 C 190 33 190.2 32.8 190.4 32.7 C 190.5 32.5 190.8 32.4 191 32.4 C 191.3 32.3 191.6 32.2 191.9 32.2 C 192.4 32.2 192.8 32.3 193.2 32.4 C 193.5 32.6 193.8 32.8 194 33 C 194.2 33.2 194.3 33.5 194.3 33.9 C 194.3 33.9 193.3 34.1 193.3 34.1 C 193.3 33.8 193.2 33.5 192.9 33.3 C 192.7 33.2 192.4 33.1 192 33.1 C 191.5 33.1 191.2 33.2 191 33.3 C 190.8 33.5 190.7 33.7 190.7 33.9 C 190.7 34 190.7 34.1 190.8 34.2 C 190.9 34.3 191 34.4 191.2 34.5 C 191.3 34.5 191.6 34.6 192.1 34.8 C 192.8 35 193.4 35.1 193.6 35.2 C 193.9 35.4 194.2 35.6 194.3 35.8 C 194.5 36 194.6 36.3 194.6 36.7 C 194.6 37 194.5 37.3 194.3 37.6 C 194.1 37.9 193.8 38.2 193.4 38.3 C 193 38.5 192.6 38.6 192.1 38.6 C 191.3 38.6 190.7 38.4 190.3 38.1 C 189.9 37.8 189.6 37.3 189.5 36.6 Z " stroke="none" fill="#fff"/>  </g>  <g id="Polygon68618">    <path d="M 12.3 20.3 C 12.3 18.9 12.7 17.8 13.4 17 C 14.2 16.2 15.1 15.8 16.3 15.8 C 17.1 15.8 17.8 16 18.4 16.4 C 19.1 16.8 19.5 17.3 19.9 17.9 C 20.2 18.6 20.3 19.3 20.3 20.2 C 20.3 21 20.2 21.8 19.8 22.5 C 19.5 23.1 19 23.7 18.4 24 C 17.7 24.3 17.1 24.5 16.3 24.5 C 15.5 24.5 14.8 24.3 14.2 23.9 C 13.6 23.6 13.1 23 12.8 22.4 C 12.5 21.7 12.3 21 12.3 20.3 Z M 13.5 20.3 C 13.5 21.3 13.7 22.1 14.3 22.7 C 14.8 23.3 15.5 23.6 16.3 23.6 C 17.2 23.6 17.8 23.3 18.4 22.7 C 18.9 22.1 19.2 21.3 19.2 20.2 C 19.2 19.5 19.1 18.9 18.8 18.4 C 18.6 17.9 18.3 17.5 17.8 17.2 C 17.4 16.9 16.9 16.8 16.3 16.8 C 15.5 16.8 14.9 17.1 14.3 17.6 C 13.7 18.1 13.5 19 13.5 20.3 Z M 25.6 24.4 C 25.6 24.4 25.63 23.48 25.6 23.5 C 25.2 24.2 24.5 24.5 23.7 24.5 C 23.3 24.5 23 24.4 22.7 24.3 C 22.4 24.2 22.2 24 22 23.8 C 21.8 23.6 21.7 23.3 21.7 23 C 21.6 22.8 21.6 22.5 21.6 22.1 C 21.62 22.06 21.6 18.3 21.6 18.3 L 22.7 18.3 C 22.7 18.3 22.65 21.67 22.7 21.7 C 22.7 22.2 22.7 22.6 22.7 22.8 C 22.8 23 22.9 23.2 23.1 23.4 C 23.3 23.5 23.6 23.6 23.9 23.6 C 24.2 23.6 24.5 23.5 24.8 23.4 C 25 23.2 25.2 23 25.4 22.7 C 25.5 22.5 25.5 22.1 25.5 21.6 C 25.52 21.55 25.5 18.3 25.5 18.3 L 26.6 18.3 L 26.6 24.4 L 25.6 24.4 Z M 28.2 24.4 L 28.2 18.3 L 29.1 18.3 C 29.1 18.3 29.08 19.22 29.1 19.2 C 29.3 18.8 29.5 18.5 29.7 18.4 C 29.9 18.2 30.2 18.2 30.4 18.2 C 30.7 18.2 31.1 18.3 31.5 18.5 C 31.5 18.5 31.1 19.4 31.1 19.4 C 30.9 19.3 30.6 19.2 30.4 19.2 C 30.1 19.2 29.9 19.3 29.7 19.4 C 29.6 19.6 29.4 19.7 29.4 20 C 29.2 20.4 29.2 20.8 29.2 21.2 C 29.19 21.19 29.2 24.4 29.2 24.4 L 28.2 24.4 Z M 35.4 24.4 L 35.4 16 L 37.1 16 C 37.1 16 39.09 21.93 39.1 21.9 C 39.3 22.5 39.4 22.9 39.5 23.2 C 39.6 22.9 39.7 22.4 39.9 21.8 C 39.94 21.82 42 16 42 16 L 43.4 16 L 43.4 24.4 L 42.4 24.4 L 42.4 17.3 L 39.9 24.4 L 38.9 24.4 L 36.5 17.2 L 36.5 24.4 L 35.4 24.4 Z M 49.3 24.4 C 49.2 24.2 49.1 23.9 49.1 23.6 C 48.7 24 48.3 24.2 48 24.3 C 47.6 24.4 47.2 24.5 46.8 24.5 C 46.2 24.5 45.7 24.4 45.3 24 C 44.9 23.7 44.8 23.3 44.8 22.8 C 44.8 22.5 44.8 22.2 45 22 C 45.1 21.7 45.3 21.5 45.5 21.4 C 45.7 21.2 46 21.1 46.2 21 C 46.4 21 46.7 20.9 47.2 20.9 C 48 20.8 48.6 20.7 49 20.5 C 49 20.4 49 20.3 49 20.2 C 49 19.8 48.9 19.5 48.7 19.4 C 48.4 19.1 48.1 19 47.5 19 C 47 19 46.7 19.1 46.5 19.3 C 46.2 19.4 46.1 19.7 45.9 20.2 C 45.9 20.2 44.9 20 44.9 20 C 45 19.6 45.2 19.2 45.4 19 C 45.6 18.7 45.9 18.5 46.3 18.4 C 46.7 18.2 47.2 18.2 47.7 18.2 C 48.2 18.2 48.6 18.2 48.9 18.3 C 49.3 18.5 49.5 18.6 49.7 18.8 C 49.8 19 49.9 19.2 50 19.5 C 50 19.7 50 20 50 20.5 C 50 20.5 50 21.8 50 21.8 C 50 22.8 50.1 23.4 50.1 23.6 C 50.1 23.9 50.2 24.1 50.4 24.4 C 50.36 24.38 49.3 24.4 49.3 24.4 C 49.3 24.4 49.28 24.38 49.3 24.4 Z M 49 21.3 C 48.6 21.5 48.1 21.6 47.3 21.7 C 46.9 21.8 46.6 21.8 46.4 21.9 C 46.2 22 46.1 22.1 46 22.3 C 45.9 22.4 45.9 22.6 45.9 22.7 C 45.9 23 46 23.2 46.2 23.4 C 46.4 23.6 46.7 23.7 47.1 23.7 C 47.5 23.7 47.8 23.6 48.1 23.4 C 48.5 23.3 48.7 23 48.8 22.7 C 48.9 22.5 49 22.2 49 21.7 C 49 21.7 49 21.3 49 21.3 Z M 51.6 24.4 L 51.6 18.3 L 52.6 18.3 C 52.6 18.3 52.56 19.16 52.6 19.2 C 53 18.5 53.7 18.2 54.5 18.2 C 54.9 18.2 55.2 18.2 55.5 18.4 C 55.8 18.5 56 18.7 56.2 18.9 C 56.4 19.1 56.5 19.3 56.5 19.6 C 56.6 19.8 56.6 20.2 56.6 20.6 C 56.58 20.64 56.6 24.4 56.6 24.4 L 55.5 24.4 C 55.5 24.4 55.55 20.68 55.5 20.7 C 55.5 20.3 55.5 19.9 55.4 19.7 C 55.3 19.5 55.2 19.4 55 19.2 C 54.8 19.1 54.6 19 54.3 19 C 53.8 19 53.5 19.2 53.1 19.5 C 52.8 19.7 52.7 20.3 52.7 21.1 C 52.67 21.05 52.7 24.4 52.7 24.4 L 51.6 24.4 Z M 62.3 24.4 C 62.2 24.2 62.2 23.9 62.1 23.6 C 61.7 24 61.4 24.2 61 24.3 C 60.7 24.4 60.3 24.5 59.9 24.5 C 59.2 24.5 58.7 24.4 58.3 24 C 58 23.7 57.8 23.3 57.8 22.8 C 57.8 22.5 57.9 22.2 58 22 C 58.1 21.7 58.3 21.5 58.5 21.4 C 58.8 21.2 59 21.1 59.3 21 C 59.5 21 59.8 20.9 60.2 20.9 C 61 20.8 61.7 20.7 62 20.5 C 62 20.4 62 20.3 62 20.2 C 62 19.8 62 19.5 61.8 19.4 C 61.5 19.1 61.1 19 60.6 19 C 60.1 19 59.7 19.1 59.5 19.3 C 59.3 19.4 59.1 19.7 59 20.2 C 59 20.2 58 20 58 20 C 58.1 19.6 58.2 19.2 58.4 19 C 58.7 18.7 59 18.5 59.4 18.4 C 59.7 18.2 60.2 18.2 60.7 18.2 C 61.3 18.2 61.7 18.2 62 18.3 C 62.3 18.5 62.6 18.6 62.7 18.8 C 62.9 19 63 19.2 63 19.5 C 63.1 19.7 63.1 20 63.1 20.5 C 63.1 20.5 63.1 21.8 63.1 21.8 C 63.1 22.8 63.1 23.4 63.2 23.6 C 63.2 23.9 63.3 24.1 63.4 24.4 C 63.41 24.38 62.3 24.4 62.3 24.4 C 62.3 24.4 62.34 24.38 62.3 24.4 Z M 62 21.3 C 61.7 21.5 61.1 21.6 60.4 21.7 C 59.9 21.8 59.6 21.8 59.5 21.9 C 59.3 22 59.1 22.1 59.1 22.3 C 59 22.4 58.9 22.6 58.9 22.7 C 58.9 23 59 23.2 59.2 23.4 C 59.4 23.6 59.7 23.7 60.1 23.7 C 60.5 23.7 60.9 23.6 61.2 23.4 C 61.5 23.3 61.7 23 61.9 22.7 C 62 22.5 62 22.2 62 21.7 C 62 21.7 62 21.3 62 21.3 Z M 64.5 24.9 C 64.5 24.9 65.5 25 65.5 25 C 65.5 25.3 65.7 25.6 65.8 25.7 C 66.1 25.9 66.5 26 66.9 26 C 67.4 26 67.7 25.9 68 25.7 C 68.3 25.5 68.4 25.2 68.5 24.9 C 68.6 24.7 68.6 24.3 68.6 23.6 C 68.2 24.1 67.6 24.4 66.9 24.4 C 66.1 24.4 65.4 24.1 65 23.5 C 64.5 22.9 64.3 22.1 64.3 21.3 C 64.3 20.7 64.4 20.2 64.6 19.7 C 64.8 19.2 65.1 18.8 65.5 18.6 C 65.9 18.3 66.4 18.2 66.9 18.2 C 67.6 18.2 68.2 18.4 68.7 19 C 68.7 19.03 68.7 18.3 68.7 18.3 L 69.7 18.3 C 69.7 18.3 69.65 23.55 69.7 23.6 C 69.7 24.5 69.6 25.2 69.4 25.6 C 69.2 26 68.9 26.3 68.4 26.5 C 68 26.7 67.5 26.8 66.9 26.8 C 66.2 26.8 65.6 26.7 65.1 26.4 C 64.7 26 64.5 25.5 64.5 24.9 Z M 65.3 21.2 C 65.3 22 65.5 22.6 65.8 23 C 66.1 23.3 66.5 23.5 67 23.5 C 67.5 23.5 67.9 23.3 68.2 23 C 68.5 22.6 68.7 22 68.7 21.3 C 68.7 20.5 68.5 20 68.2 19.6 C 67.9 19.2 67.5 19 67 19 C 66.5 19 66.2 19.2 65.8 19.6 C 65.5 19.9 65.3 20.5 65.3 21.2 Z M 75.4 22.4 C 75.4 22.4 76.4 22.6 76.4 22.6 C 76.3 23.2 76 23.7 75.5 24 C 75.1 24.3 74.5 24.5 73.8 24.5 C 72.9 24.5 72.2 24.2 71.6 23.7 C 71.1 23.1 70.9 22.4 70.9 21.4 C 70.9 20.4 71.1 19.6 71.7 19 C 72.2 18.4 72.9 18.2 73.7 18.2 C 74.5 18.2 75.2 18.4 75.7 19 C 76.2 19.5 76.5 20.3 76.5 21.3 C 76.5 21.4 76.5 21.5 76.5 21.6 C 76.5 21.6 71.9 21.6 71.9 21.6 C 72 22.3 72.2 22.8 72.5 23.1 C 72.8 23.5 73.3 23.7 73.8 23.7 C 74.1 23.7 74.5 23.6 74.7 23.4 C 75 23.2 75.2 22.9 75.4 22.4 Z M 72 20.8 C 72 20.8 75.4 20.8 75.4 20.8 C 75.3 20.2 75.2 19.9 75 19.6 C 74.7 19.2 74.2 19 73.7 19 C 73.2 19 72.8 19.2 72.5 19.5 C 72.2 19.8 72 20.2 72 20.8 Z M 81.7 24.4 C 81.7 24.4 81.68 23.61 81.7 23.6 C 81.3 24.2 80.7 24.5 80 24.5 C 79.5 24.5 79.1 24.4 78.6 24.1 C 78.2 23.8 77.9 23.5 77.7 23 C 77.5 22.5 77.4 22 77.4 21.3 C 77.4 20.7 77.5 20.2 77.7 19.7 C 77.9 19.2 78.2 18.8 78.6 18.6 C 79 18.3 79.4 18.2 79.9 18.2 C 80.3 18.2 80.6 18.2 80.9 18.4 C 81.2 18.5 81.4 18.7 81.6 19 C 81.61 18.99 81.6 16 81.6 16 L 82.6 16 L 82.6 24.4 L 81.7 24.4 Z M 78.4 21.3 C 78.4 22.1 78.6 22.7 78.9 23.1 C 79.2 23.5 79.6 23.7 80.1 23.7 C 80.5 23.7 80.9 23.5 81.2 23.1 C 81.5 22.7 81.7 22.2 81.7 21.4 C 81.7 20.6 81.5 20 81.2 19.6 C 80.9 19.2 80.5 19 80 19 C 79.6 19 79.2 19.2 78.9 19.6 C 78.6 19.9 78.4 20.5 78.4 21.3 Z M 87.6 24.4 L 87.6 16 L 88.7 16 L 88.7 23.4 L 92.9 23.4 L 92.9 24.4 L 87.6 24.4 Z M 98.2 22.4 C 98.2 22.4 99.3 22.6 99.3 22.6 C 99.1 23.2 98.8 23.7 98.3 24 C 97.9 24.3 97.3 24.5 96.6 24.5 C 95.7 24.5 95 24.2 94.5 23.7 C 94 23.1 93.7 22.4 93.7 21.4 C 93.7 20.4 94 19.6 94.5 19 C 95 18.4 95.7 18.2 96.5 18.2 C 97.4 18.2 98 18.4 98.5 19 C 99.1 19.5 99.3 20.3 99.3 21.3 C 99.3 21.4 99.3 21.5 99.3 21.6 C 99.3 21.6 94.8 21.6 94.8 21.6 C 94.8 22.3 95 22.8 95.3 23.1 C 95.7 23.5 96.1 23.7 96.6 23.7 C 97 23.7 97.3 23.6 97.6 23.4 C 97.8 23.2 98.1 22.9 98.2 22.4 Z M 94.8 20.8 C 94.8 20.8 98.2 20.8 98.2 20.8 C 98.2 20.2 98 19.9 97.8 19.6 C 97.5 19.2 97.1 19 96.6 19 C 96.1 19 95.7 19.2 95.4 19.5 C 95 19.8 94.9 20.2 94.8 20.8 Z M 104.7 24.4 C 104.6 24.2 104.6 23.9 104.5 23.6 C 104.2 24 103.8 24.2 103.4 24.3 C 103.1 24.4 102.7 24.5 102.3 24.5 C 101.6 24.5 101.1 24.4 100.8 24 C 100.4 23.7 100.2 23.3 100.2 22.8 C 100.2 22.5 100.3 22.2 100.4 22 C 100.6 21.7 100.7 21.5 101 21.4 C 101.2 21.2 101.4 21.1 101.7 21 C 101.9 21 102.2 20.9 102.6 20.9 C 103.5 20.8 104.1 20.7 104.5 20.5 C 104.5 20.4 104.5 20.3 104.5 20.2 C 104.5 19.8 104.4 19.5 104.2 19.4 C 103.9 19.1 103.5 19 103 19 C 102.5 19 102.2 19.1 101.9 19.3 C 101.7 19.4 101.5 19.7 101.4 20.2 C 101.4 20.2 100.4 20 100.4 20 C 100.5 19.6 100.6 19.2 100.9 19 C 101.1 18.7 101.4 18.5 101.8 18.4 C 102.2 18.2 102.6 18.2 103.1 18.2 C 103.7 18.2 104.1 18.2 104.4 18.3 C 104.7 18.5 105 18.6 105.1 18.8 C 105.3 19 105.4 19.2 105.4 19.5 C 105.5 19.7 105.5 20 105.5 20.5 C 105.5 20.5 105.5 21.8 105.5 21.8 C 105.5 22.8 105.5 23.4 105.6 23.6 C 105.6 23.9 105.7 24.1 105.8 24.4 C 105.83 24.38 104.7 24.4 104.7 24.4 C 104.7 24.4 104.75 24.38 104.7 24.4 Z M 104.5 21.3 C 104.1 21.5 103.5 21.6 102.8 21.7 C 102.3 21.8 102 21.8 101.9 21.9 C 101.7 22 101.6 22.1 101.5 22.3 C 101.4 22.4 101.3 22.6 101.3 22.7 C 101.3 23 101.4 23.2 101.6 23.4 C 101.8 23.6 102.1 23.7 102.5 23.7 C 102.9 23.7 103.3 23.6 103.6 23.4 C 103.9 23.3 104.1 23 104.3 22.7 C 104.4 22.5 104.5 22.2 104.5 21.7 C 104.5 21.7 104.5 21.3 104.5 21.3 Z M 107.1 24.4 L 107.1 18.3 L 108 18.3 C 108 18.3 108.01 19.22 108 19.2 C 108.3 18.8 108.5 18.5 108.7 18.4 C 108.9 18.2 109.1 18.2 109.3 18.2 C 109.7 18.2 110 18.3 110.4 18.5 C 110.4 18.5 110 19.4 110 19.4 C 109.8 19.3 109.5 19.2 109.3 19.2 C 109.1 19.2 108.9 19.3 108.7 19.4 C 108.5 19.6 108.4 19.7 108.3 20 C 108.2 20.4 108.1 20.8 108.1 21.2 C 108.12 21.19 108.1 24.4 108.1 24.4 L 107.1 24.4 Z M 111 24.4 L 111 18.3 L 111.9 18.3 C 111.9 18.3 111.93 19.16 111.9 19.2 C 112.4 18.5 113 18.2 113.9 18.2 C 114.2 18.2 114.6 18.2 114.9 18.4 C 115.2 18.5 115.4 18.7 115.6 18.9 C 115.7 19.1 115.8 19.3 115.9 19.6 C 115.9 19.8 115.9 20.2 115.9 20.6 C 115.95 20.64 115.9 24.4 115.9 24.4 L 114.9 24.4 C 114.9 24.4 114.92 20.68 114.9 20.7 C 114.9 20.3 114.9 19.9 114.8 19.7 C 114.7 19.5 114.6 19.4 114.4 19.2 C 114.2 19.1 113.9 19 113.7 19 C 113.2 19 112.8 19.2 112.5 19.5 C 112.2 19.7 112 20.3 112 21.1 C 112.04 21.05 112 24.4 112 24.4 L 111 24.4 Z M 117.5 17.2 L 117.5 16 L 118.6 16 L 118.6 17.2 L 117.5 17.2 Z M 117.5 24.4 L 117.5 18.3 L 118.6 18.3 L 118.6 24.4 L 117.5 24.4 Z M 120.1 24.4 L 120.1 18.3 L 121.1 18.3 C 121.1 18.3 121.07 19.16 121.1 19.2 C 121.5 18.5 122.2 18.2 123 18.2 C 123.4 18.2 123.7 18.2 124 18.4 C 124.3 18.5 124.6 18.7 124.7 18.9 C 124.9 19.1 125 19.3 125 19.6 C 125.1 19.8 125.1 20.2 125.1 20.6 C 125.08 20.64 125.1 24.4 125.1 24.4 L 124.1 24.4 C 124.1 24.4 124.05 20.68 124.1 20.7 C 124.1 20.3 124 19.9 123.9 19.7 C 123.8 19.5 123.7 19.4 123.5 19.2 C 123.3 19.1 123.1 19 122.8 19 C 122.3 19 122 19.2 121.6 19.5 C 121.3 19.7 121.2 20.3 121.2 21.1 C 121.17 21.05 121.2 24.4 121.2 24.4 L 120.1 24.4 Z M 126.5 24.9 C 126.5 24.9 127.5 25 127.5 25 C 127.5 25.3 127.6 25.6 127.8 25.7 C 128.1 25.9 128.4 26 128.9 26 C 129.4 26 129.7 25.9 130 25.7 C 130.2 25.5 130.4 25.2 130.5 24.9 C 130.6 24.7 130.6 24.3 130.6 23.6 C 130.1 24.1 129.6 24.4 128.9 24.4 C 128.1 24.4 127.4 24.1 127 23.5 C 126.5 22.9 126.3 22.1 126.3 21.3 C 126.3 20.7 126.4 20.2 126.6 19.7 C 126.8 19.2 127.1 18.8 127.5 18.6 C 127.9 18.3 128.4 18.2 128.9 18.2 C 129.6 18.2 130.2 18.4 130.7 19 C 130.68 19.03 130.7 18.3 130.7 18.3 L 131.6 18.3 C 131.6 18.3 131.63 23.55 131.6 23.6 C 131.6 24.5 131.5 25.2 131.3 25.6 C 131.1 26 130.8 26.3 130.4 26.5 C 130 26.7 129.5 26.8 128.9 26.8 C 128.2 26.8 127.6 26.7 127.1 26.4 C 126.7 26 126.5 25.5 126.5 24.9 Z M 127.3 21.2 C 127.3 22 127.5 22.6 127.8 23 C 128.1 23.3 128.5 23.5 129 23.5 C 129.5 23.5 129.9 23.3 130.2 23 C 130.5 22.6 130.7 22 130.7 21.3 C 130.7 20.5 130.5 20 130.2 19.6 C 129.8 19.2 129.4 19 129 19 C 128.5 19 128.1 19.2 127.8 19.6 C 127.5 19.9 127.3 20.5 127.3 21.2 Z M 136.2 21.7 C 136.2 21.7 137.3 21.6 137.3 21.6 C 137.3 22 137.4 22.4 137.6 22.6 C 137.8 22.9 138.1 23.1 138.4 23.3 C 138.8 23.4 139.3 23.5 139.7 23.5 C 140.2 23.5 140.5 23.5 140.9 23.3 C 141.2 23.2 141.4 23 141.6 22.8 C 141.7 22.6 141.8 22.4 141.8 22.1 C 141.8 21.8 141.7 21.6 141.6 21.4 C 141.4 21.2 141.2 21 140.8 20.9 C 140.6 20.8 140.1 20.7 139.3 20.5 C 138.6 20.3 138 20.1 137.7 20 C 137.3 19.8 137 19.5 136.8 19.2 C 136.6 18.9 136.5 18.5 136.5 18.2 C 136.5 17.7 136.6 17.3 136.9 17 C 137.1 16.6 137.5 16.3 137.9 16.1 C 138.4 15.9 138.9 15.8 139.5 15.8 C 140.1 15.8 140.7 15.9 141.1 16.1 C 141.6 16.3 142 16.6 142.2 17 C 142.5 17.4 142.6 17.9 142.6 18.3 C 142.6 18.3 141.6 18.4 141.6 18.4 C 141.5 17.9 141.3 17.5 141 17.2 C 140.7 17 140.2 16.8 139.5 16.8 C 138.9 16.8 138.4 16.9 138.1 17.2 C 137.7 17.4 137.6 17.7 137.6 18.1 C 137.6 18.4 137.7 18.6 137.9 18.8 C 138.1 19 138.7 19.2 139.6 19.4 C 140.5 19.6 141.1 19.8 141.5 20 C 141.9 20.2 142.3 20.5 142.5 20.8 C 142.8 21.2 142.9 21.6 142.9 22 C 142.9 22.5 142.8 22.9 142.5 23.3 C 142.2 23.7 141.9 24 141.4 24.2 C 140.9 24.4 140.4 24.5 139.8 24.5 C 139 24.5 138.4 24.4 137.9 24.2 C 137.4 24 137 23.6 136.7 23.2 C 136.4 22.7 136.2 22.2 136.2 21.7 Z M 148.4 22.4 C 148.4 22.4 149.5 22.6 149.5 22.6 C 149.3 23.2 149 23.7 148.6 24 C 148.1 24.3 147.5 24.5 146.8 24.5 C 145.9 24.5 145.2 24.2 144.7 23.7 C 144.2 23.1 143.9 22.4 143.9 21.4 C 143.9 20.4 144.2 19.6 144.7 19 C 145.2 18.4 145.9 18.2 146.8 18.2 C 147.6 18.2 148.3 18.4 148.8 19 C 149.3 19.5 149.5 20.3 149.5 21.3 C 149.5 21.4 149.5 21.5 149.5 21.6 C 149.5 21.6 145 21.6 145 21.6 C 145 22.3 145.2 22.8 145.6 23.1 C 145.9 23.5 146.3 23.7 146.8 23.7 C 147.2 23.7 147.5 23.6 147.8 23.4 C 148.1 23.2 148.3 22.9 148.4 22.4 Z M 145.1 20.8 C 145.1 20.8 148.5 20.8 148.5 20.8 C 148.4 20.2 148.3 19.9 148.1 19.6 C 147.7 19.2 147.3 19 146.8 19 C 146.3 19 145.9 19.2 145.6 19.5 C 145.3 19.8 145.1 20.2 145.1 20.8 Z M 150.8 24.4 L 150.8 18.3 L 151.7 18.3 C 151.7 18.3 151.72 19.22 151.7 19.2 C 152 18.8 152.2 18.5 152.4 18.4 C 152.6 18.2 152.8 18.2 153 18.2 C 153.4 18.2 153.7 18.3 154.1 18.5 C 154.1 18.5 153.7 19.4 153.7 19.4 C 153.5 19.3 153.2 19.2 153 19.2 C 152.8 19.2 152.6 19.3 152.4 19.4 C 152.2 19.6 152.1 19.7 152 20 C 151.9 20.4 151.8 20.8 151.8 21.2 C 151.82 21.19 151.8 24.4 151.8 24.4 L 150.8 24.4 Z M 156.4 24.4 L 154.1 18.3 L 155.2 18.3 C 155.2 18.3 156.48 21.94 156.5 21.9 C 156.6 22.3 156.7 22.7 156.9 23.2 C 157 22.8 157.1 22.5 157.3 22 C 157.25 22.01 158.6 18.3 158.6 18.3 L 159.7 18.3 L 157.4 24.4 L 156.4 24.4 Z M 160.6 17.2 L 160.6 16 L 161.6 16 L 161.6 17.2 L 160.6 17.2 Z M 160.6 24.4 L 160.6 18.3 L 161.6 18.3 L 161.6 24.4 L 160.6 24.4 Z M 167.2 22.1 C 167.2 22.1 168.2 22.3 168.2 22.3 C 168.1 23 167.8 23.5 167.3 23.9 C 166.9 24.3 166.3 24.5 165.6 24.5 C 164.8 24.5 164.1 24.2 163.6 23.7 C 163.1 23.2 162.9 22.4 162.9 21.4 C 162.9 20.7 163 20.1 163.2 19.6 C 163.4 19.1 163.7 18.8 164.2 18.5 C 164.6 18.3 165.1 18.2 165.6 18.2 C 166.3 18.2 166.8 18.3 167.3 18.7 C 167.7 19 167.9 19.5 168.1 20.1 C 168.1 20.1 167.1 20.2 167.1 20.2 C 167 19.8 166.8 19.5 166.6 19.3 C 166.3 19.1 166 19 165.7 19 C 165.2 19 164.7 19.2 164.4 19.6 C 164.1 19.9 163.9 20.5 163.9 21.3 C 163.9 22.1 164.1 22.7 164.4 23.1 C 164.7 23.5 165.1 23.7 165.6 23.7 C 166 23.7 166.4 23.5 166.6 23.3 C 166.9 23 167.1 22.7 167.2 22.1 Z M 173.2 22.4 C 173.2 22.4 174.3 22.6 174.3 22.6 C 174.1 23.2 173.8 23.7 173.3 24 C 172.9 24.3 172.3 24.5 171.6 24.5 C 170.7 24.5 170 24.2 169.5 23.7 C 169 23.1 168.7 22.4 168.7 21.4 C 168.7 20.4 169 19.6 169.5 19 C 170 18.4 170.7 18.2 171.5 18.2 C 172.4 18.2 173 18.4 173.5 19 C 174.1 19.5 174.3 20.3 174.3 21.3 C 174.3 21.4 174.3 21.5 174.3 21.6 C 174.3 21.6 169.8 21.6 169.8 21.6 C 169.8 22.3 170 22.8 170.3 23.1 C 170.7 23.5 171.1 23.7 171.6 23.7 C 172 23.7 172.3 23.6 172.6 23.4 C 172.8 23.2 173.1 22.9 173.2 22.4 Z M 169.8 20.8 C 169.8 20.8 173.2 20.8 173.2 20.8 C 173.2 20.2 173 19.9 172.8 19.6 C 172.5 19.2 172.1 19 171.6 19 C 171.1 19 170.7 19.2 170.4 19.5 C 170 19.8 169.9 20.2 169.8 20.8 Z M 180 24.4 L 178.1 18.3 L 179.2 18.3 L 180.1 21.8 C 180.1 21.8 180.49 23.11 180.5 23.1 C 180.5 23 180.6 22.6 180.8 21.9 C 180.8 21.86 181.8 18.3 181.8 18.3 L 182.8 18.3 L 183.7 21.8 L 184 23 L 184.4 21.8 L 185.4 18.3 L 186.4 18.3 L 184.5 24.4 L 183.5 24.4 L 182.5 20.7 L 182.3 19.7 L 181 24.4 L 180 24.4 Z M 191.5 24.4 C 191.4 24.2 191.3 23.9 191.3 23.6 C 190.9 24 190.5 24.2 190.2 24.3 C 189.8 24.4 189.4 24.5 189 24.5 C 188.4 24.5 187.9 24.4 187.5 24 C 187.1 23.7 187 23.3 187 22.8 C 187 22.5 187 22.2 187.2 22 C 187.3 21.7 187.5 21.5 187.7 21.4 C 187.9 21.2 188.2 21.1 188.4 21 C 188.6 21 188.9 20.9 189.4 20.9 C 190.2 20.8 190.8 20.7 191.2 20.5 C 191.2 20.4 191.2 20.3 191.2 20.2 C 191.2 19.8 191.1 19.5 190.9 19.4 C 190.6 19.1 190.2 19 189.7 19 C 189.2 19 188.9 19.1 188.7 19.3 C 188.4 19.4 188.3 19.7 188.1 20.2 C 188.1 20.2 187.1 20 187.1 20 C 187.2 19.6 187.4 19.2 187.6 19 C 187.8 18.7 188.1 18.5 188.5 18.4 C 188.9 18.2 189.4 18.2 189.9 18.2 C 190.4 18.2 190.8 18.2 191.1 18.3 C 191.5 18.5 191.7 18.6 191.9 18.8 C 192 19 192.1 19.2 192.2 19.5 C 192.2 19.7 192.2 20 192.2 20.5 C 192.2 20.5 192.2 21.8 192.2 21.8 C 192.2 22.8 192.3 23.4 192.3 23.6 C 192.3 23.9 192.4 24.1 192.6 24.4 C 192.56 24.38 191.5 24.4 191.5 24.4 C 191.5 24.4 191.48 24.38 191.5 24.4 Z M 191.2 21.3 C 190.8 21.5 190.3 21.6 189.5 21.7 C 189.1 21.8 188.8 21.8 188.6 21.9 C 188.4 22 188.3 22.1 188.2 22.3 C 188.1 22.4 188.1 22.6 188.1 22.7 C 188.1 23 188.2 23.2 188.4 23.4 C 188.6 23.6 188.9 23.7 189.3 23.7 C 189.7 23.7 190 23.6 190.3 23.4 C 190.7 23.3 190.9 23 191 22.7 C 191.1 22.5 191.2 22.2 191.2 21.7 C 191.2 21.7 191.2 21.3 191.2 21.3 Z M 193.4 22.6 C 193.4 22.6 194.4 22.4 194.4 22.4 C 194.5 22.8 194.7 23.1 194.9 23.3 C 195.2 23.6 195.5 23.7 196 23.7 C 196.5 23.7 196.8 23.6 197.1 23.4 C 197.3 23.2 197.4 23 197.4 22.7 C 197.4 22.5 197.3 22.3 197.1 22.1 C 197 22.1 196.6 21.9 196.1 21.8 C 195.3 21.6 194.8 21.4 194.5 21.3 C 194.2 21.2 194 21 193.8 20.7 C 193.7 20.5 193.6 20.2 193.6 19.9 C 193.6 19.6 193.7 19.4 193.8 19.2 C 193.9 18.9 194.1 18.7 194.3 18.6 C 194.4 18.5 194.7 18.4 194.9 18.3 C 195.2 18.2 195.5 18.2 195.8 18.2 C 196.3 18.2 196.7 18.2 197.1 18.4 C 197.4 18.5 197.7 18.7 197.9 18.9 C 198.1 19.2 198.2 19.5 198.2 19.9 C 198.2 19.9 197.2 20 197.2 20 C 197.2 19.7 197.1 19.4 196.8 19.3 C 196.6 19.1 196.3 19 195.9 19 C 195.4 19 195.1 19.1 194.9 19.2 C 194.7 19.4 194.6 19.6 194.6 19.8 C 194.6 19.9 194.6 20 194.7 20.1 C 194.8 20.3 194.9 20.4 195.1 20.4 C 195.2 20.5 195.5 20.6 196 20.7 C 196.7 20.9 197.3 21 197.5 21.2 C 197.8 21.3 198.1 21.5 198.2 21.7 C 198.4 21.9 198.5 22.2 198.5 22.6 C 198.5 22.9 198.4 23.3 198.2 23.6 C 198 23.9 197.7 24.1 197.3 24.3 C 196.9 24.4 196.5 24.5 196 24.5 C 195.2 24.5 194.6 24.4 194.2 24 C 193.8 23.7 193.5 23.2 193.4 22.6 Z " stroke="none" fill="#fff"/>  </g></svg>