<?xml version="1.0" standalone="no"?><!DOCTYPE svg PUBLIC "-//W3C//DTD SVG 1.1//EN" "http://www.w3.org/Graphics/SVG/1.1/DTD/svg11.dtd"><svg xmlns="http://www.w3.org/2000/svg" version="1.1" width="492px" height="103.3px" viewBox="0 -16 492 103.3" style="top:-16px">  <desc>WEBINARS</desc>  <defs/>  <g id="Polygon62866">    <path d="M 179.1 4.4 L 170.9 25.1 L 170.4 25.1 L 160.5 0.3 L 162.5 0.3 L 170.6 20.7 L 178.8 0.3 L 179.4 0.3 L 187.6 20.7 L 195.8 0.3 L 197.7 0.3 L 187.8 25.1 L 187.4 25.1 L 179.1 4.4 Z M 213.9 0.3 L 213.9 1.9 L 202.4 1.9 L 202.4 11.7 L 213.6 11.7 L 213.6 13.3 L 202.4 13.3 L 202.4 23.3 L 214.2 23.3 L 214.2 24.9 L 200.5 24.9 L 200.5 0.3 L 213.9 0.3 Z M 218.2 0.3 C 218.2 0.3 223.3 0.32 223.3 0.3 C 226 0.3 228 0.9 229.4 2 C 230.8 3.1 231.5 4.7 231.5 6.7 C 231.5 9 230.3 10.9 227.9 12.1 C 231.7 12.9 233.6 15 233.6 18.4 C 233.6 20.3 232.9 21.9 231.4 23.1 C 229.9 24.3 227.9 24.9 225.4 24.9 C 225.38 24.87 218.2 24.9 218.2 24.9 L 218.2 0.3 Z M 220.1 1.9 L 220.1 11.7 C 220.1 11.7 222.72 11.69 222.7 11.7 C 227.2 11.7 229.4 10.1 229.4 6.8 C 229.4 3.5 227.2 1.9 222.7 1.9 C 222.65 1.9 220.1 1.9 220.1 1.9 Z M 220.1 13.3 L 220.1 23.3 C 220.1 23.3 225.16 23.29 225.2 23.3 C 227.3 23.3 228.9 22.8 229.9 21.9 C 231 21 231.6 19.8 231.6 18.3 C 231.6 15 229.2 13.3 224.3 13.3 C 224.34 13.29 220.1 13.3 220.1 13.3 Z M 239.1 0.3 L 239.1 24.9 L 237.2 24.9 L 237.2 0.3 L 239.1 0.3 Z M 266.8 0.3 L 266.8 24.9 L 265.3 24.9 L 246.6 3.4 L 246.6 24.9 L 244.7 24.9 L 244.7 0.3 L 246.3 0.3 L 264.9 21.8 L 264.9 0.3 L 266.8 0.3 Z M 282.2 0.1 L 293.5 24.9 L 291.6 24.9 L 287.7 16.4 L 275.7 16.4 L 271.8 24.9 L 269.8 24.9 L 281.1 0.1 L 282.2 0.1 Z M 286.9 14.8 L 281.7 3.2 L 276.4 14.8 L 286.9 14.8 Z M 296.5 0.3 C 296.5 0.3 302.81 0.32 302.8 0.3 C 305.4 0.3 307.5 0.9 308.9 2 C 310.2 3.2 310.9 4.7 310.9 6.7 C 310.9 9.5 309.4 11.5 306.3 12.6 C 307.1 13 308.2 14.3 309.5 16.4 C 309.54 16.38 315.1 24.9 315.1 24.9 L 312.8 24.9 C 312.8 24.9 308.57 18.14 308.6 18.1 C 307.1 15.9 306 14.5 305.2 13.9 C 304.4 13.4 303.3 13.1 301.7 13.1 C 301.73 13.1 298.4 13.1 298.4 13.1 L 298.4 24.9 L 296.5 24.9 L 296.5 0.3 Z M 298.4 1.9 L 298.4 11.5 C 298.4 11.5 302.49 11.51 302.5 11.5 C 304.6 11.5 306.1 11.1 307.2 10.3 C 308.3 9.4 308.9 8.2 308.9 6.7 C 308.9 5.2 308.3 4 307.2 3.2 C 306.1 2.3 304.5 1.9 302.4 1.9 C 302.42 1.9 298.4 1.9 298.4 1.9 Z M 323 0 C 324.9 0 326.8 0.5 328.7 1.5 C 328.7 1.5 328.7 3.6 328.7 3.6 C 326.6 2.4 324.7 1.8 323.2 1.8 C 321.7 1.8 320.5 2.2 319.5 3.1 C 318.5 4 318 5.1 318 6.4 C 318 7.4 318.3 8.2 318.9 9 C 319.5 9.8 320.7 10.5 322.6 11.2 C 324.4 11.9 325.8 12.5 326.6 13 C 327.5 13.4 328.2 14.1 328.8 15 C 329.4 15.9 329.7 17 329.7 18.5 C 329.7 20.3 329 21.9 327.6 23.2 C 326.3 24.5 324.6 25.2 322.6 25.2 C 320.5 25.2 318.4 24.5 316.3 23 C 316.3 23 316.3 20.8 316.3 20.8 C 318.7 22.6 320.7 23.4 322.5 23.4 C 323.9 23.4 325.2 23 326.2 22 C 327.2 21.1 327.7 19.9 327.7 18.5 C 327.7 17.5 327.4 16.6 326.7 15.7 C 326.1 14.9 324.9 14.1 323 13.4 C 321.1 12.6 319.7 12.1 318.9 11.6 C 318.1 11.2 317.4 10.5 316.8 9.7 C 316.2 8.9 316 7.8 316 6.5 C 316 4.7 316.6 3.2 318 1.9 C 319.4 0.6 321.1 0 323 0 C 323 0 323 0 323 0 Z " stroke="none" fill="#ffffff"/>  </g></svg>