<?xml version="1.0" standalone="no"?><!DOCTYPE svg PUBLIC "-//W3C//DTD SVG 1.1//EN" "http://www.w3.org/Graphics/SVG/1.1/DTD/svg11.dtd"><svg xmlns="http://www.w3.org/2000/svg" version="1.1" width="328px" height="72.1px" viewBox="0 -11 328 72.1" style="top:-11px">  <desc>News Read all the latest news and views from the team.</desc>  <defs/>  <g id="Polygon66072">    <path d="M 3.3 51.8 L 3.3 41.3 C 3.3 41.3 7.96 41.28 8 41.3 C 8.9 41.3 9.6 41.4 10.1 41.6 C 10.6 41.8 11 42.1 11.3 42.6 C 11.5 43 11.7 43.6 11.7 44.1 C 11.7 44.9 11.5 45.5 11 46 C 10.5 46.5 9.7 46.9 8.7 47 C 9.1 47.2 9.4 47.4 9.6 47.5 C 10 47.9 10.4 48.4 10.7 48.9 C 10.73 48.92 12.6 51.8 12.6 51.8 L 10.8 51.8 C 10.8 51.8 9.42 49.6 9.4 49.6 C 9 49 8.7 48.5 8.4 48.2 C 8.2 47.8 7.9 47.6 7.7 47.4 C 7.5 47.3 7.3 47.2 7.1 47.2 C 6.9 47.1 6.7 47.1 6.3 47.1 C 6.3 47.12 4.7 47.1 4.7 47.1 L 4.7 51.8 L 3.3 51.8 Z M 4.7 45.9 C 4.7 45.9 7.68 45.92 7.7 45.9 C 8.3 45.9 8.8 45.9 9.2 45.7 C 9.5 45.6 9.8 45.4 10 45.1 C 10.2 44.8 10.3 44.5 10.3 44.1 C 10.3 43.7 10.1 43.2 9.7 42.9 C 9.4 42.6 8.8 42.4 8 42.4 C 8.01 42.44 4.7 42.4 4.7 42.4 L 4.7 45.9 Z M 18.9 49.3 C 18.9 49.3 20.2 49.5 20.2 49.5 C 20 50.3 19.6 50.9 19.1 51.3 C 18.5 51.7 17.8 52 16.9 52 C 15.8 52 14.9 51.6 14.3 50.9 C 13.6 50.2 13.3 49.3 13.3 48 C 13.3 46.8 13.6 45.8 14.3 45.1 C 14.9 44.4 15.8 44 16.8 44 C 17.8 44 18.7 44.4 19.3 45 C 20 45.7 20.3 46.7 20.3 48 C 20.3 48 20.3 48.2 20.3 48.3 C 20.3 48.3 14.6 48.3 14.6 48.3 C 14.7 49.1 14.9 49.8 15.3 50.2 C 15.7 50.7 16.3 50.9 16.9 50.9 C 17.4 50.9 17.8 50.8 18.1 50.5 C 18.5 50.3 18.7 49.9 18.9 49.3 Z M 14.7 47.2 C 14.7 47.2 18.9 47.2 18.9 47.2 C 18.9 46.6 18.7 46.1 18.4 45.8 C 18 45.3 17.5 45.1 16.8 45.1 C 16.3 45.1 15.8 45.3 15.3 45.7 C 14.9 46.1 14.7 46.6 14.7 47.2 Z M 27.1 51.8 C 26.9 51.5 26.9 51.2 26.8 50.8 C 26.3 51.2 25.9 51.5 25.4 51.7 C 25 51.9 24.5 52 24 52 C 23.2 52 22.5 51.7 22.1 51.3 C 21.7 50.9 21.4 50.4 21.4 49.8 C 21.4 49.4 21.5 49.1 21.7 48.8 C 21.8 48.4 22.1 48.2 22.3 48 C 22.6 47.8 22.9 47.7 23.3 47.6 C 23.5 47.5 23.9 47.5 24.4 47.4 C 25.5 47.3 26.2 47.1 26.7 47 C 26.7 46.8 26.7 46.7 26.7 46.6 C 26.7 46.1 26.6 45.7 26.4 45.5 C 26 45.2 25.5 45.1 24.9 45.1 C 24.3 45.1 23.8 45.2 23.5 45.4 C 23.3 45.6 23 46 22.9 46.5 C 22.9 46.5 21.6 46.3 21.6 46.3 C 21.8 45.8 22 45.4 22.2 45 C 22.5 44.7 22.9 44.5 23.4 44.3 C 23.8 44.1 24.4 44 25.1 44 C 25.7 44 26.3 44.1 26.7 44.2 C 27.1 44.4 27.4 44.6 27.6 44.8 C 27.7 45 27.9 45.3 28 45.7 C 28 45.9 28 46.3 28 46.9 C 28 46.9 28 48.6 28 48.6 C 28 49.8 28 50.6 28.1 50.9 C 28.2 51.2 28.3 51.5 28.4 51.8 C 28.43 51.78 27.1 51.8 27.1 51.8 C 27.1 51.8 27.08 51.78 27.1 51.8 Z M 26.7 48 C 26.3 48.2 25.5 48.3 24.6 48.5 C 24.1 48.5 23.7 48.6 23.5 48.7 C 23.3 48.8 23.1 48.9 23 49.1 C 22.9 49.3 22.8 49.5 22.8 49.7 C 22.8 50.1 22.9 50.4 23.2 50.6 C 23.5 50.8 23.8 50.9 24.3 50.9 C 24.8 50.9 25.3 50.8 25.7 50.6 C 26 50.4 26.3 50.1 26.5 49.7 C 26.6 49.4 26.7 49 26.7 48.4 C 26.7 48.4 26.7 48 26.7 48 Z M 35 51.8 C 35 51.8 34.95 50.82 35 50.8 C 34.5 51.6 33.8 52 32.8 52 C 32.2 52 31.7 51.8 31.2 51.5 C 30.6 51.1 30.3 50.7 30 50.1 C 29.7 49.5 29.6 48.8 29.6 48 C 29.6 47.2 29.7 46.5 29.9 45.9 C 30.2 45.3 30.6 44.8 31.1 44.5 C 31.6 44.2 32.1 44 32.8 44 C 33.2 44 33.6 44.1 34 44.3 C 34.4 44.5 34.6 44.7 34.9 45.1 C 34.87 45.05 34.9 41.3 34.9 41.3 L 36.1 41.3 L 36.1 51.8 L 35 51.8 Z M 30.9 48 C 30.9 49 31.1 49.7 31.5 50.2 C 31.9 50.7 32.4 50.9 32.9 50.9 C 33.5 50.9 34 50.7 34.4 50.2 C 34.8 49.7 35 49 35 48.1 C 35 47.1 34.8 46.3 34.4 45.8 C 34 45.3 33.5 45.1 32.9 45.1 C 32.3 45.1 31.8 45.3 31.5 45.8 C 31.1 46.2 30.9 47 30.9 48 Z M 47.5 51.8 C 47.3 51.5 47.3 51.2 47.2 50.8 C 46.7 51.2 46.3 51.5 45.8 51.7 C 45.4 51.9 44.9 52 44.4 52 C 43.6 52 42.9 51.7 42.5 51.3 C 42 50.9 41.8 50.4 41.8 49.8 C 41.8 49.4 41.9 49.1 42.1 48.8 C 42.2 48.4 42.5 48.2 42.7 48 C 43 47.8 43.3 47.7 43.7 47.6 C 43.9 47.5 44.3 47.5 44.8 47.4 C 45.8 47.3 46.6 47.1 47.1 47 C 47.1 46.8 47.1 46.7 47.1 46.6 C 47.1 46.1 47 45.7 46.7 45.5 C 46.4 45.2 45.9 45.1 45.3 45.1 C 44.7 45.1 44.2 45.2 43.9 45.4 C 43.6 45.6 43.4 46 43.3 46.5 C 43.3 46.5 42 46.3 42 46.3 C 42.2 45.8 42.3 45.4 42.6 45 C 42.9 44.7 43.2 44.5 43.7 44.3 C 44.2 44.1 44.8 44 45.5 44 C 46.1 44 46.6 44.1 47 44.2 C 47.5 44.4 47.8 44.6 47.9 44.8 C 48.1 45 48.3 45.3 48.3 45.7 C 48.4 45.9 48.4 46.3 48.4 46.9 C 48.4 46.9 48.4 48.6 48.4 48.6 C 48.4 49.8 48.4 50.6 48.5 50.9 C 48.5 51.2 48.7 51.5 48.8 51.8 C 48.82 51.78 47.5 51.8 47.5 51.8 C 47.5 51.8 47.47 51.78 47.5 51.8 Z M 47.1 48 C 46.6 48.2 45.9 48.3 45 48.5 C 44.5 48.5 44.1 48.6 43.9 48.7 C 43.7 48.8 43.5 48.9 43.4 49.1 C 43.2 49.3 43.2 49.5 43.2 49.7 C 43.2 50.1 43.3 50.4 43.6 50.6 C 43.8 50.8 44.2 50.9 44.7 50.9 C 45.2 50.9 45.7 50.8 46 50.6 C 46.4 50.4 46.7 50.1 46.9 49.7 C 47 49.4 47.1 49 47.1 48.4 C 47.1 48.4 47.1 48 47.1 48 Z M 50.4 51.8 L 50.4 41.3 L 51.7 41.3 L 51.7 51.8 L 50.4 51.8 Z M 53.6 51.8 L 53.6 41.3 L 54.9 41.3 L 54.9 51.8 L 53.6 51.8 Z M 63.2 50.7 C 63.4 50.7 63.6 50.7 63.8 50.6 C 63.8 50.6 64 51.8 64 51.8 C 63.6 51.8 63.3 51.9 63 51.9 C 62.6 51.9 62.2 51.8 61.9 51.7 C 61.7 51.5 61.5 51.3 61.4 51.1 C 61.3 50.8 61.2 50.3 61.2 49.6 C 61.24 49.55 61.2 45.2 61.2 45.2 L 60.3 45.2 L 60.3 44.2 L 61.2 44.2 L 61.2 42.3 L 62.5 41.5 L 62.5 44.2 L 63.8 44.2 L 63.8 45.2 L 62.5 45.2 C 62.5 45.2 62.52 49.63 62.5 49.6 C 62.5 50 62.5 50.2 62.6 50.3 C 62.6 50.4 62.7 50.5 62.8 50.6 C 62.9 50.6 63.1 50.7 63.2 50.7 C 63.2 50.7 63.2 50.7 63.2 50.7 Z M 65.1 51.8 L 65.1 41.3 L 66.4 41.3 C 66.4 41.3 66.36 45.05 66.4 45.1 C 67 44.4 67.7 44 68.6 44 C 69.2 44 69.7 44.1 70.1 44.3 C 70.5 44.6 70.8 44.9 71 45.3 C 71.2 45.6 71.3 46.2 71.3 47 C 71.27 46.96 71.3 51.8 71.3 51.8 L 70 51.8 C 70 51.8 69.98 46.96 70 47 C 70 46.3 69.8 45.8 69.6 45.6 C 69.3 45.3 68.9 45.1 68.4 45.1 C 68 45.1 67.6 45.2 67.3 45.4 C 67 45.6 66.7 45.9 66.6 46.2 C 66.4 46.6 66.4 47 66.4 47.6 C 66.36 47.62 66.4 51.8 66.4 51.8 L 65.1 51.8 Z M 78.4 49.3 C 78.4 49.3 79.8 49.5 79.8 49.5 C 79.6 50.3 79.2 50.9 78.6 51.3 C 78 51.7 77.3 52 76.4 52 C 75.3 52 74.4 51.6 73.8 50.9 C 73.1 50.2 72.8 49.3 72.8 48 C 72.8 46.8 73.1 45.8 73.8 45.1 C 74.4 44.4 75.3 44 76.4 44 C 77.4 44 78.2 44.4 78.8 45 C 79.5 45.7 79.8 46.7 79.8 48 C 79.8 48 79.8 48.2 79.8 48.3 C 79.8 48.3 74.1 48.3 74.1 48.3 C 74.2 49.1 74.4 49.8 74.8 50.2 C 75.3 50.7 75.8 50.9 76.4 50.9 C 76.9 50.9 77.3 50.8 77.6 50.5 C 78 50.3 78.2 49.9 78.4 49.3 Z M 74.2 47.2 C 74.2 47.2 78.5 47.2 78.5 47.2 C 78.4 46.6 78.2 46.1 78 45.8 C 77.6 45.3 77 45.1 76.4 45.1 C 75.8 45.1 75.3 45.3 74.9 45.7 C 74.5 46.1 74.2 46.6 74.2 47.2 Z M 85.4 51.8 L 85.4 41.3 L 86.7 41.3 L 86.7 51.8 L 85.4 51.8 Z M 93.9 51.8 C 93.8 51.5 93.7 51.2 93.7 50.8 C 93.2 51.2 92.7 51.5 92.3 51.7 C 91.9 51.9 91.4 52 90.9 52 C 90 52 89.4 51.7 89 51.3 C 88.5 50.9 88.3 50.4 88.3 49.8 C 88.3 49.4 88.4 49.1 88.5 48.8 C 88.7 48.4 88.9 48.2 89.2 48 C 89.5 47.8 89.8 47.7 90.1 47.6 C 90.4 47.5 90.8 47.5 91.3 47.4 C 92.3 47.3 93.1 47.1 93.6 47 C 93.6 46.8 93.6 46.7 93.6 46.6 C 93.6 46.1 93.5 45.7 93.2 45.5 C 92.9 45.2 92.4 45.1 91.8 45.1 C 91.1 45.1 90.7 45.2 90.4 45.4 C 90.1 45.6 89.9 46 89.8 46.5 C 89.8 46.5 88.5 46.3 88.5 46.3 C 88.6 45.8 88.8 45.4 89.1 45 C 89.3 44.7 89.7 44.5 90.2 44.3 C 90.7 44.1 91.3 44 91.9 44 C 92.6 44 93.1 44.1 93.5 44.2 C 93.9 44.4 94.2 44.6 94.4 44.8 C 94.6 45 94.7 45.3 94.8 45.7 C 94.9 45.9 94.9 46.3 94.9 46.9 C 94.9 46.9 94.9 48.6 94.9 48.6 C 94.9 49.8 94.9 50.6 95 50.9 C 95 51.2 95.1 51.5 95.3 51.8 C 95.29 51.78 93.9 51.8 93.9 51.8 C 93.9 51.8 93.94 51.78 93.9 51.8 Z M 93.6 48 C 93.1 48.2 92.4 48.3 91.5 48.5 C 90.9 48.5 90.6 48.6 90.3 48.7 C 90.1 48.8 90 48.9 89.8 49.1 C 89.7 49.3 89.7 49.5 89.7 49.7 C 89.7 50.1 89.8 50.4 90.1 50.6 C 90.3 50.8 90.7 50.9 91.2 50.9 C 91.7 50.9 92.1 50.8 92.5 50.6 C 92.9 50.4 93.2 50.1 93.4 49.7 C 93.5 49.4 93.6 49 93.6 48.4 C 93.6 48.4 93.6 48 93.6 48 Z M 99.1 50.7 C 99.3 50.7 99.5 50.7 99.7 50.6 C 99.7 50.6 99.9 51.8 99.9 51.8 C 99.5 51.8 99.2 51.9 98.9 51.9 C 98.4 51.9 98.1 51.8 97.8 51.7 C 97.6 51.5 97.4 51.3 97.3 51.1 C 97.2 50.8 97.1 50.3 97.1 49.6 C 97.12 49.55 97.1 45.2 97.1 45.2 L 96.2 45.2 L 96.2 44.2 L 97.1 44.2 L 97.1 42.3 L 98.4 41.5 L 98.4 44.2 L 99.7 44.2 L 99.7 45.2 L 98.4 45.2 C 98.4 45.2 98.4 49.63 98.4 49.6 C 98.4 50 98.4 50.2 98.5 50.3 C 98.5 50.4 98.6 50.5 98.7 50.6 C 98.8 50.6 98.9 50.7 99.1 50.7 C 99.1 50.7 99.1 50.7 99.1 50.7 Z M 106.2 49.3 C 106.2 49.3 107.5 49.5 107.5 49.5 C 107.3 50.3 106.9 50.9 106.3 51.3 C 105.8 51.7 105 52 104.1 52 C 103 52 102.2 51.6 101.5 50.9 C 100.8 50.2 100.5 49.3 100.5 48 C 100.5 46.8 100.9 45.8 101.5 45.1 C 102.2 44.4 103 44 104.1 44 C 105.1 44 105.9 44.4 106.6 45 C 107.2 45.7 107.5 46.7 107.5 48 C 107.5 48 107.5 48.2 107.5 48.3 C 107.5 48.3 101.9 48.3 101.9 48.3 C 101.9 49.1 102.1 49.8 102.6 50.2 C 103 50.7 103.5 50.9 104.2 50.9 C 104.6 50.9 105 50.8 105.4 50.5 C 105.7 50.3 106 49.9 106.2 49.3 Z M 101.9 47.2 C 101.9 47.2 106.2 47.2 106.2 47.2 C 106.1 46.6 106 46.1 105.7 45.8 C 105.3 45.3 104.7 45.1 104.1 45.1 C 103.5 45.1 103 45.3 102.6 45.7 C 102.2 46.1 102 46.6 101.9 47.2 Z M 108.6 49.5 C 108.6 49.5 109.9 49.3 109.9 49.3 C 109.9 49.8 110.1 50.2 110.5 50.5 C 110.8 50.8 111.3 50.9 111.8 50.9 C 112.4 50.9 112.9 50.8 113.2 50.5 C 113.4 50.3 113.6 50 113.6 49.7 C 113.6 49.4 113.5 49.2 113.2 49 C 113 48.9 112.6 48.7 111.9 48.6 C 110.9 48.3 110.3 48.1 109.9 47.9 C 109.6 47.8 109.3 47.5 109.1 47.2 C 108.9 46.9 108.8 46.6 108.8 46.2 C 108.8 45.9 108.9 45.5 109 45.3 C 109.2 45 109.4 44.7 109.7 44.5 C 109.9 44.4 110.2 44.3 110.5 44.2 C 110.8 44.1 111.2 44 111.6 44 C 112.2 44 112.7 44.1 113.2 44.3 C 113.6 44.4 114 44.7 114.2 45 C 114.4 45.3 114.5 45.6 114.6 46.1 C 114.6 46.1 113.4 46.3 113.4 46.3 C 113.3 45.9 113.1 45.6 112.9 45.4 C 112.6 45.2 112.2 45.1 111.7 45.1 C 111.1 45.1 110.7 45.2 110.4 45.4 C 110.2 45.6 110.1 45.8 110.1 46 C 110.1 46.2 110.1 46.4 110.2 46.5 C 110.3 46.6 110.5 46.7 110.7 46.8 C 110.8 46.9 111.2 47 111.8 47.2 C 112.8 47.4 113.4 47.6 113.8 47.8 C 114.1 47.9 114.4 48.1 114.6 48.4 C 114.8 48.7 114.9 49.1 114.9 49.5 C 114.9 50 114.8 50.4 114.5 50.8 C 114.3 51.1 113.9 51.4 113.5 51.6 C 113 51.9 112.4 52 111.8 52 C 110.9 52 110.1 51.7 109.6 51.3 C 109.1 50.9 108.7 50.3 108.6 49.5 Z M 118.7 50.7 C 118.8 50.7 119 50.7 119.3 50.6 C 119.3 50.6 119.4 51.8 119.4 51.8 C 119.1 51.8 118.8 51.9 118.5 51.9 C 118 51.9 117.6 51.8 117.4 51.7 C 117.1 51.5 116.9 51.3 116.8 51.1 C 116.7 50.8 116.7 50.3 116.7 49.6 C 116.68 49.55 116.7 45.2 116.7 45.2 L 115.7 45.2 L 115.7 44.2 L 116.7 44.2 L 116.7 42.3 L 118 41.5 L 118 44.2 L 119.3 44.2 L 119.3 45.2 L 118 45.2 C 118 45.2 117.96 49.63 118 49.6 C 118 50 118 50.2 118 50.3 C 118.1 50.4 118.1 50.5 118.3 50.6 C 118.4 50.6 118.5 50.7 118.7 50.7 C 118.7 50.7 118.7 50.7 118.7 50.7 Z M 124.6 51.8 L 124.6 44.2 L 125.8 44.2 C 125.8 44.2 125.75 45.26 125.8 45.3 C 126.3 44.4 127.1 44 128.2 44 C 128.6 44 129.1 44.1 129.4 44.3 C 129.8 44.4 130.1 44.6 130.3 44.9 C 130.5 45.2 130.6 45.5 130.7 45.9 C 130.8 46.1 130.8 46.5 130.8 47.1 C 130.77 47.11 130.8 51.8 130.8 51.8 L 129.5 51.8 C 129.5 51.8 129.48 47.16 129.5 47.2 C 129.5 46.6 129.4 46.2 129.3 46 C 129.2 45.7 129.1 45.5 128.8 45.4 C 128.5 45.2 128.2 45.1 127.9 45.1 C 127.4 45.1 126.9 45.3 126.5 45.6 C 126.1 46 125.9 46.7 125.9 47.6 C 125.88 47.63 125.9 51.8 125.9 51.8 L 124.6 51.8 Z M 138 49.3 C 138 49.3 139.3 49.5 139.3 49.5 C 139.1 50.3 138.7 50.9 138.1 51.3 C 137.6 51.7 136.8 52 135.9 52 C 134.8 52 134 51.6 133.3 50.9 C 132.6 50.2 132.3 49.3 132.3 48 C 132.3 46.8 132.7 45.8 133.3 45.1 C 134 44.4 134.8 44 135.9 44 C 136.9 44 137.7 44.4 138.4 45 C 139 45.7 139.3 46.7 139.3 48 C 139.3 48 139.3 48.2 139.3 48.3 C 139.3 48.3 133.7 48.3 133.7 48.3 C 133.7 49.1 133.9 49.8 134.4 50.2 C 134.8 50.7 135.3 50.9 136 50.9 C 136.4 50.9 136.8 50.8 137.2 50.5 C 137.5 50.3 137.8 49.9 138 49.3 Z M 133.7 47.2 C 133.7 47.2 138 47.2 138 47.2 C 137.9 46.6 137.8 46.1 137.5 45.8 C 137.1 45.3 136.5 45.1 135.9 45.1 C 135.3 45.1 134.8 45.3 134.4 45.7 C 134 46.1 133.8 46.6 133.7 47.2 Z M 142.3 51.8 L 140 44.2 L 141.3 44.2 L 142.5 48.6 C 142.5 48.6 142.98 50.2 143 50.2 C 143 50.1 143.1 49.6 143.4 48.6 C 143.37 48.63 144.6 44.2 144.6 44.2 L 145.9 44.2 L 147 48.6 L 147.4 50 L 147.9 48.6 L 149.2 44.2 L 150.4 44.2 L 148 51.8 L 146.7 51.8 L 145.5 47.2 L 145.2 45.9 L 143.7 51.8 L 142.3 51.8 Z M 151 49.5 C 151 49.5 152.3 49.3 152.3 49.3 C 152.3 49.8 152.5 50.2 152.9 50.5 C 153.2 50.8 153.6 50.9 154.2 50.9 C 154.8 50.9 155.3 50.8 155.5 50.5 C 155.8 50.3 156 50 156 49.7 C 156 49.4 155.8 49.2 155.6 49 C 155.4 48.9 155 48.7 154.3 48.6 C 153.3 48.3 152.7 48.1 152.3 47.9 C 151.9 47.8 151.7 47.5 151.5 47.2 C 151.3 46.9 151.2 46.6 151.2 46.2 C 151.2 45.9 151.3 45.5 151.4 45.3 C 151.6 45 151.8 44.7 152.1 44.5 C 152.3 44.4 152.5 44.3 152.9 44.2 C 153.2 44.1 153.6 44 154 44 C 154.6 44 155.1 44.1 155.6 44.3 C 156 44.4 156.4 44.7 156.6 45 C 156.8 45.3 156.9 45.6 157 46.1 C 157 46.1 155.8 46.3 155.8 46.3 C 155.7 45.9 155.5 45.6 155.3 45.4 C 155 45.2 154.6 45.1 154.1 45.1 C 153.5 45.1 153.1 45.2 152.8 45.4 C 152.6 45.6 152.4 45.8 152.4 46 C 152.4 46.2 152.5 46.4 152.6 46.5 C 152.7 46.6 152.9 46.7 153.1 46.8 C 153.2 46.9 153.6 47 154.2 47.2 C 155.1 47.4 155.8 47.6 156.1 47.8 C 156.5 47.9 156.8 48.1 157 48.4 C 157.2 48.7 157.3 49.1 157.3 49.5 C 157.3 50 157.2 50.4 156.9 50.8 C 156.7 51.1 156.3 51.4 155.8 51.6 C 155.4 51.9 154.8 52 154.2 52 C 153.2 52 152.5 51.7 152 51.3 C 151.5 50.9 151.1 50.3 151 49.5 Z M 168.1 51.8 C 168 51.5 167.9 51.2 167.9 50.8 C 167.4 51.2 166.9 51.5 166.5 51.7 C 166.1 51.9 165.6 52 165.1 52 C 164.2 52 163.6 51.7 163.1 51.3 C 162.7 50.9 162.5 50.4 162.5 49.8 C 162.5 49.4 162.6 49.1 162.7 48.8 C 162.9 48.4 163.1 48.2 163.4 48 C 163.7 47.8 164 47.7 164.3 47.6 C 164.6 47.5 165 47.5 165.5 47.4 C 166.5 47.3 167.3 47.1 167.8 47 C 167.8 46.8 167.8 46.7 167.8 46.6 C 167.8 46.1 167.6 45.7 167.4 45.5 C 167.1 45.2 166.6 45.1 165.9 45.1 C 165.3 45.1 164.9 45.2 164.6 45.4 C 164.3 45.6 164.1 46 164 46.5 C 164 46.5 162.7 46.3 162.7 46.3 C 162.8 45.8 163 45.4 163.3 45 C 163.5 44.7 163.9 44.5 164.4 44.3 C 164.9 44.1 165.5 44 166.1 44 C 166.8 44 167.3 44.1 167.7 44.2 C 168.1 44.4 168.4 44.6 168.6 44.8 C 168.8 45 168.9 45.3 169 45.7 C 169 45.9 169.1 46.3 169.1 46.9 C 169.1 46.9 169.1 48.6 169.1 48.6 C 169.1 49.8 169.1 50.6 169.1 50.9 C 169.2 51.2 169.3 51.5 169.5 51.8 C 169.47 51.78 168.1 51.8 168.1 51.8 C 168.1 51.8 168.13 51.78 168.1 51.8 Z M 167.8 48 C 167.3 48.2 166.6 48.3 165.7 48.5 C 165.1 48.5 164.8 48.6 164.5 48.7 C 164.3 48.8 164.1 48.9 164 49.1 C 163.9 49.3 163.8 49.5 163.8 49.7 C 163.8 50.1 164 50.4 164.2 50.6 C 164.5 50.8 164.9 50.9 165.4 50.9 C 165.9 50.9 166.3 50.8 166.7 50.6 C 167.1 50.4 167.4 50.1 167.6 49.7 C 167.7 49.4 167.8 49 167.8 48.4 C 167.8 48.4 167.8 48 167.8 48 Z M 171.1 51.8 L 171.1 44.2 L 172.2 44.2 C 172.2 44.2 172.22 45.26 172.2 45.3 C 172.8 44.4 173.6 44 174.6 44 C 175.1 44 175.5 44.1 175.9 44.3 C 176.3 44.4 176.6 44.6 176.8 44.9 C 177 45.2 177.1 45.5 177.2 45.9 C 177.2 46.1 177.2 46.5 177.2 47.1 C 177.24 47.11 177.2 51.8 177.2 51.8 L 176 51.8 C 176 51.8 175.96 47.16 176 47.2 C 176 46.6 175.9 46.2 175.8 46 C 175.7 45.7 175.5 45.5 175.3 45.4 C 175 45.2 174.7 45.1 174.4 45.1 C 173.8 45.1 173.3 45.3 173 45.6 C 172.6 46 172.4 46.7 172.4 47.6 C 172.35 47.63 172.4 51.8 172.4 51.8 L 171.1 51.8 Z M 184.2 51.8 C 184.2 51.8 184.16 50.82 184.2 50.8 C 183.7 51.6 183 52 182 52 C 181.4 52 180.9 51.8 180.4 51.5 C 179.8 51.1 179.5 50.7 179.2 50.1 C 178.9 49.5 178.8 48.8 178.8 48 C 178.8 47.2 178.9 46.5 179.1 45.9 C 179.4 45.3 179.8 44.8 180.3 44.5 C 180.8 44.2 181.3 44 182 44 C 182.4 44 182.8 44.1 183.2 44.3 C 183.6 44.5 183.8 44.7 184.1 45.1 C 184.07 45.05 184.1 41.3 184.1 41.3 L 185.4 41.3 L 185.4 51.8 L 184.2 51.8 Z M 180.1 48 C 180.1 49 180.3 49.7 180.7 50.2 C 181.1 50.7 181.6 50.9 182.2 50.9 C 182.7 50.9 183.2 50.7 183.6 50.2 C 184 49.7 184.2 49 184.2 48.1 C 184.2 47.1 184 46.3 183.6 45.8 C 183.2 45.3 182.7 45.1 182.1 45.1 C 181.5 45.1 181 45.3 180.7 45.8 C 180.3 46.2 180.1 47 180.1 48 Z M 193.6 51.8 L 190.7 44.2 L 192 44.2 C 192 44.2 193.67 48.73 193.7 48.7 C 193.8 49.2 194 49.7 194.2 50.3 C 194.3 49.9 194.4 49.4 194.6 48.8 C 194.63 48.82 196.3 44.2 196.3 44.2 L 197.6 44.2 L 194.8 51.8 L 193.6 51.8 Z M 198.8 42.8 L 198.8 41.3 L 200.1 41.3 L 200.1 42.8 L 198.8 42.8 Z M 198.8 51.8 L 198.8 44.2 L 200.1 44.2 L 200.1 51.8 L 198.8 51.8 Z M 207.3 49.3 C 207.3 49.3 208.6 49.5 208.6 49.5 C 208.4 50.3 208 50.9 207.4 51.3 C 206.8 51.7 206.1 52 205.2 52 C 204.1 52 203.2 51.6 202.6 50.9 C 201.9 50.2 201.6 49.3 201.6 48 C 201.6 46.8 201.9 45.8 202.6 45.1 C 203.3 44.4 204.1 44 205.2 44 C 206.2 44 207 44.4 207.7 45 C 208.3 45.7 208.6 46.7 208.6 48 C 208.6 48 208.6 48.2 208.6 48.3 C 208.6 48.3 202.9 48.3 202.9 48.3 C 203 49.1 203.2 49.8 203.7 50.2 C 204.1 50.7 204.6 50.9 205.2 50.9 C 205.7 50.9 206.1 50.8 206.5 50.5 C 206.8 50.3 207.1 49.9 207.3 49.3 Z M 203 47.2 C 203 47.2 207.3 47.2 207.3 47.2 C 207.2 46.6 207 46.1 206.8 45.8 C 206.4 45.3 205.8 45.1 205.2 45.1 C 204.6 45.1 204.1 45.3 203.7 45.7 C 203.3 46.1 203.1 46.6 203 47.2 Z M 211.6 51.8 L 209.3 44.2 L 210.6 44.2 L 211.8 48.6 C 211.8 48.6 212.27 50.2 212.3 50.2 C 212.3 50.1 212.4 49.6 212.7 48.6 C 212.67 48.63 213.9 44.2 213.9 44.2 L 215.2 44.2 L 216.3 48.6 L 216.7 50 L 217.2 48.6 L 218.5 44.2 L 219.7 44.2 L 217.3 51.8 L 216 51.8 L 214.8 47.2 L 214.5 45.9 L 213 51.8 L 211.6 51.8 Z M 220.3 49.5 C 220.3 49.5 221.6 49.3 221.6 49.3 C 221.6 49.8 221.8 50.2 222.2 50.5 C 222.5 50.8 222.9 50.9 223.5 50.9 C 224.1 50.9 224.6 50.8 224.8 50.5 C 225.1 50.3 225.3 50 225.3 49.7 C 225.3 49.4 225.1 49.2 224.9 49 C 224.7 48.9 224.3 48.7 223.6 48.6 C 222.6 48.3 222 48.1 221.6 47.9 C 221.2 47.8 221 47.5 220.8 47.2 C 220.6 46.9 220.5 46.6 220.5 46.2 C 220.5 45.9 220.6 45.5 220.7 45.3 C 220.9 45 221.1 44.7 221.4 44.5 C 221.6 44.4 221.8 44.3 222.2 44.2 C 222.5 44.1 222.9 44 223.3 44 C 223.9 44 224.4 44.1 224.9 44.3 C 225.3 44.4 225.6 44.7 225.9 45 C 226.1 45.3 226.2 45.6 226.3 46.1 C 226.3 46.1 225 46.3 225 46.3 C 225 45.9 224.8 45.6 224.5 45.4 C 224.3 45.2 223.9 45.1 223.4 45.1 C 222.8 45.1 222.4 45.2 222.1 45.4 C 221.9 45.6 221.7 45.8 221.7 46 C 221.7 46.2 221.8 46.4 221.9 46.5 C 222 46.6 222.2 46.7 222.4 46.8 C 222.5 46.9 222.9 47 223.5 47.2 C 224.4 47.4 225.1 47.6 225.4 47.8 C 225.8 47.9 226.1 48.1 226.3 48.4 C 226.5 48.7 226.6 49.1 226.6 49.5 C 226.6 50 226.5 50.4 226.2 50.8 C 226 51.1 225.6 51.4 225.1 51.6 C 224.7 51.9 224.1 52 223.5 52 C 222.5 52 221.8 51.7 221.3 51.3 C 220.8 50.9 220.4 50.3 220.3 49.5 Z M 232.5 51.8 L 232.5 45.2 L 231.4 45.2 L 231.4 44.2 L 232.5 44.2 C 232.5 44.2 232.51 43.37 232.5 43.4 C 232.5 42.9 232.6 42.5 232.6 42.2 C 232.8 41.9 233 41.6 233.3 41.4 C 233.6 41.2 234.1 41.1 234.6 41.1 C 235 41.1 235.4 41.1 235.8 41.2 C 235.8 41.2 235.6 42.4 235.6 42.4 C 235.4 42.3 235.1 42.3 234.9 42.3 C 234.5 42.3 234.2 42.4 234 42.5 C 233.9 42.7 233.8 43 233.8 43.5 C 233.79 43.47 233.8 44.2 233.8 44.2 L 235.3 44.2 L 235.3 45.2 L 233.8 45.2 L 233.8 51.8 L 232.5 51.8 Z M 236.3 51.8 L 236.3 44.2 L 237.4 44.2 C 237.4 44.2 237.42 45.33 237.4 45.3 C 237.7 44.8 238 44.4 238.2 44.3 C 238.5 44.1 238.8 44 239.1 44 C 239.5 44 239.9 44.1 240.4 44.4 C 240.4 44.4 240 45.6 240 45.6 C 239.6 45.4 239.3 45.3 239 45.3 C 238.7 45.3 238.5 45.4 238.2 45.6 C 238 45.8 237.9 46 237.8 46.3 C 237.6 46.8 237.6 47.3 237.6 47.8 C 237.55 47.8 237.6 51.8 237.6 51.8 L 236.3 51.8 Z M 240.7 48 C 240.7 46.6 241.1 45.5 241.9 44.8 C 242.5 44.3 243.3 44 244.2 44 C 245.3 44 246.1 44.3 246.8 45 C 247.5 45.7 247.8 46.7 247.8 47.9 C 247.8 48.9 247.7 49.6 247.4 50.2 C 247.1 50.7 246.6 51.2 246.1 51.5 C 245.5 51.8 244.9 52 244.2 52 C 243.2 52 242.3 51.6 241.7 50.9 C 241 50.2 240.7 49.3 240.7 48 Z M 242 48 C 242 49 242.2 49.7 242.6 50.2 C 243.1 50.7 243.6 50.9 244.2 50.9 C 244.9 50.9 245.4 50.7 245.8 50.2 C 246.3 49.7 246.5 48.9 246.5 47.9 C 246.5 47 246.3 46.3 245.8 45.8 C 245.4 45.3 244.9 45.1 244.2 45.1 C 243.6 45.1 243.1 45.3 242.6 45.8 C 242.2 46.3 242 47 242 48 Z M 249.3 51.8 L 249.3 44.2 L 250.5 44.2 C 250.5 44.2 250.47 45.24 250.5 45.2 C 250.7 44.9 251 44.6 251.4 44.3 C 251.8 44.1 252.3 44 252.8 44 C 253.3 44 253.8 44.1 254.2 44.4 C 254.5 44.6 254.8 44.9 254.9 45.3 C 255.5 44.4 256.3 44 257.3 44 C 258 44 258.6 44.2 259 44.6 C 259.4 45 259.6 45.7 259.6 46.6 C 259.62 46.56 259.6 51.8 259.6 51.8 L 258.3 51.8 C 258.3 51.8 258.34 46.99 258.3 47 C 258.3 46.5 258.3 46.1 258.2 45.9 C 258.1 45.7 258 45.5 257.8 45.3 C 257.5 45.2 257.3 45.1 257 45.1 C 256.5 45.1 256 45.3 255.7 45.7 C 255.3 46 255.1 46.6 255.1 47.4 C 255.13 47.36 255.1 51.8 255.1 51.8 L 253.8 51.8 C 253.8 51.8 253.84 46.84 253.8 46.8 C 253.8 46.3 253.7 45.8 253.5 45.6 C 253.3 45.3 253 45.1 252.5 45.1 C 252.1 45.1 251.8 45.2 251.5 45.4 C 251.2 45.6 251 45.9 250.8 46.2 C 250.7 46.6 250.6 47.1 250.6 47.8 C 250.61 47.84 250.6 51.8 250.6 51.8 L 249.3 51.8 Z M 267.9 50.7 C 268 50.7 268.2 50.7 268.4 50.6 C 268.4 50.6 268.6 51.8 268.6 51.8 C 268.2 51.8 267.9 51.9 267.6 51.9 C 267.2 51.9 266.8 51.8 266.5 51.7 C 266.3 51.5 266.1 51.3 266 51.1 C 265.9 50.8 265.8 50.3 265.8 49.6 C 265.85 49.55 265.8 45.2 265.8 45.2 L 264.9 45.2 L 264.9 44.2 L 265.8 44.2 L 265.8 42.3 L 267.1 41.5 L 267.1 44.2 L 268.4 44.2 L 268.4 45.2 L 267.1 45.2 C 267.1 45.2 267.13 49.63 267.1 49.6 C 267.1 50 267.2 50.2 267.2 50.3 C 267.2 50.4 267.3 50.5 267.4 50.6 C 267.5 50.6 267.7 50.7 267.9 50.7 C 267.9 50.7 267.9 50.7 267.9 50.7 Z M 269.7 51.8 L 269.7 41.3 L 271 41.3 C 271 41.3 270.97 45.05 271 45.1 C 271.6 44.4 272.3 44 273.3 44 C 273.8 44 274.3 44.1 274.7 44.3 C 275.1 44.6 275.4 44.9 275.6 45.3 C 275.8 45.6 275.9 46.2 275.9 47 C 275.88 46.96 275.9 51.8 275.9 51.8 L 274.6 51.8 C 274.6 51.8 274.59 46.96 274.6 47 C 274.6 46.3 274.5 45.8 274.2 45.6 C 273.9 45.3 273.5 45.1 273 45.1 C 272.6 45.1 272.2 45.2 271.9 45.4 C 271.6 45.6 271.3 45.9 271.2 46.2 C 271 46.6 271 47 271 47.6 C 270.97 47.62 271 51.8 271 51.8 L 269.7 51.8 Z M 283 49.3 C 283 49.3 284.4 49.5 284.4 49.5 C 284.2 50.3 283.8 50.9 283.2 51.3 C 282.6 51.7 281.9 52 281 52 C 279.9 52 279 51.6 278.4 50.9 C 277.7 50.2 277.4 49.3 277.4 48 C 277.4 46.8 277.7 45.8 278.4 45.1 C 279.1 44.4 279.9 44 281 44 C 282 44 282.8 44.4 283.5 45 C 284.1 45.7 284.4 46.7 284.4 48 C 284.4 48 284.4 48.2 284.4 48.3 C 284.4 48.3 278.7 48.3 278.7 48.3 C 278.8 49.1 279 49.8 279.5 50.2 C 279.9 50.7 280.4 50.9 281 50.9 C 281.5 50.9 281.9 50.8 282.3 50.5 C 282.6 50.3 282.9 49.9 283 49.3 Z M 278.8 47.2 C 278.8 47.2 283.1 47.2 283.1 47.2 C 283 46.6 282.8 46.1 282.6 45.8 C 282.2 45.3 281.6 45.1 281 45.1 C 280.4 45.1 279.9 45.3 279.5 45.7 C 279.1 46.1 278.9 46.6 278.8 47.2 Z M 292.3 50.7 C 292.5 50.7 292.7 50.7 292.9 50.6 C 292.9 50.6 293.1 51.8 293.1 51.8 C 292.7 51.8 292.4 51.9 292.1 51.9 C 291.6 51.9 291.3 51.8 291 51.7 C 290.8 51.5 290.6 51.3 290.5 51.1 C 290.4 50.8 290.3 50.3 290.3 49.6 C 290.31 49.55 290.3 45.2 290.3 45.2 L 289.4 45.2 L 289.4 44.2 L 290.3 44.2 L 290.3 42.3 L 291.6 41.5 L 291.6 44.2 L 292.9 44.2 L 292.9 45.2 L 291.6 45.2 C 291.6 45.2 291.59 49.63 291.6 49.6 C 291.6 50 291.6 50.2 291.7 50.3 C 291.7 50.4 291.8 50.5 291.9 50.6 C 292 50.6 292.1 50.7 292.3 50.7 C 292.3 50.7 292.3 50.7 292.3 50.7 Z M 299.4 49.3 C 299.4 49.3 300.7 49.5 300.7 49.5 C 300.5 50.3 300.1 50.9 299.5 51.3 C 299 51.7 298.2 52 297.3 52 C 296.2 52 295.3 51.6 294.7 50.9 C 294 50.2 293.7 49.3 293.7 48 C 293.7 46.8 294 45.8 294.7 45.1 C 295.4 44.4 296.2 44 297.3 44 C 298.3 44 299.1 44.4 299.8 45 C 300.4 45.7 300.7 46.7 300.7 48 C 300.7 48 300.7 48.2 300.7 48.3 C 300.7 48.3 295.1 48.3 295.1 48.3 C 295.1 49.1 295.3 49.8 295.8 50.2 C 296.2 50.7 296.7 50.9 297.3 50.9 C 297.8 50.9 298.2 50.8 298.6 50.5 C 298.9 50.3 299.2 49.9 299.4 49.3 Z M 295.1 47.2 C 295.1 47.2 299.4 47.2 299.4 47.2 C 299.3 46.6 299.1 46.1 298.9 45.8 C 298.5 45.3 297.9 45.1 297.3 45.1 C 296.7 45.1 296.2 45.3 295.8 45.7 C 295.4 46.1 295.2 46.6 295.1 47.2 Z M 307.5 51.8 C 307.4 51.5 307.3 51.2 307.3 50.8 C 306.8 51.2 306.3 51.5 305.9 51.7 C 305.4 51.9 305 52 304.5 52 C 303.6 52 303 51.7 302.5 51.3 C 302.1 50.9 301.9 50.4 301.9 49.8 C 301.9 49.4 302 49.1 302.1 48.8 C 302.3 48.4 302.5 48.2 302.8 48 C 303.1 47.8 303.4 47.7 303.7 47.6 C 304 47.5 304.4 47.5 304.9 47.4 C 305.9 47.3 306.7 47.1 307.2 47 C 307.2 46.8 307.2 46.7 307.2 46.6 C 307.2 46.1 307 45.7 306.8 45.5 C 306.5 45.2 306 45.1 305.3 45.1 C 304.7 45.1 304.3 45.2 304 45.4 C 303.7 45.6 303.5 46 303.4 46.5 C 303.4 46.5 302.1 46.3 302.1 46.3 C 302.2 45.8 302.4 45.4 302.7 45 C 302.9 44.7 303.3 44.5 303.8 44.3 C 304.3 44.1 304.9 44 305.5 44 C 306.2 44 306.7 44.1 307.1 44.2 C 307.5 44.4 307.8 44.6 308 44.8 C 308.2 45 308.3 45.3 308.4 45.7 C 308.4 45.9 308.5 46.3 308.5 46.9 C 308.5 46.9 308.5 48.6 308.5 48.6 C 308.5 49.8 308.5 50.6 308.5 50.9 C 308.6 51.2 308.7 51.5 308.9 51.8 C 308.87 51.78 307.5 51.8 307.5 51.8 C 307.5 51.8 307.53 51.78 307.5 51.8 Z M 307.2 48 C 306.7 48.2 306 48.3 305.1 48.5 C 304.5 48.5 304.2 48.6 303.9 48.7 C 303.7 48.8 303.5 48.9 303.4 49.1 C 303.3 49.3 303.2 49.5 303.2 49.7 C 303.2 50.1 303.4 50.4 303.6 50.6 C 303.9 50.8 304.3 50.9 304.8 50.9 C 305.3 50.9 305.7 50.8 306.1 50.6 C 306.5 50.4 306.8 50.1 307 49.7 C 307.1 49.4 307.2 49 307.2 48.4 C 307.2 48.4 307.2 48 307.2 48 Z M 310.5 51.8 L 310.5 44.2 L 311.6 44.2 C 311.6 44.2 311.61 45.24 311.6 45.2 C 311.9 44.9 312.2 44.6 312.6 44.3 C 313 44.1 313.4 44 313.9 44 C 314.5 44 314.9 44.1 315.3 44.4 C 315.7 44.6 315.9 44.9 316.1 45.3 C 316.7 44.4 317.5 44 318.4 44 C 319.2 44 319.8 44.2 320.2 44.6 C 320.6 45 320.8 45.7 320.8 46.6 C 320.77 46.56 320.8 51.8 320.8 51.8 L 319.5 51.8 C 319.5 51.8 319.49 46.99 319.5 47 C 319.5 46.5 319.4 46.1 319.4 45.9 C 319.3 45.7 319.1 45.5 318.9 45.3 C 318.7 45.2 318.4 45.1 318.1 45.1 C 317.6 45.1 317.2 45.3 316.8 45.7 C 316.4 46 316.3 46.6 316.3 47.4 C 316.27 47.36 316.3 51.8 316.3 51.8 L 315 51.8 C 315 51.8 314.98 46.84 315 46.8 C 315 46.3 314.9 45.8 314.7 45.6 C 314.5 45.3 314.1 45.1 313.6 45.1 C 313.3 45.1 312.9 45.2 312.6 45.4 C 312.3 45.6 312.1 45.9 312 46.2 C 311.8 46.6 311.8 47.1 311.8 47.8 C 311.75 47.84 311.8 51.8 311.8 51.8 L 310.5 51.8 Z M 323 51.8 L 323 50.3 L 324.5 50.3 L 324.5 51.8 L 323 51.8 Z " stroke="none" fill="#ffffff"/>  </g>  <g id="Polygon66071">    <path d="M 147.5 0.2 L 147.5 16.6 L 146.4 16.6 L 134 2.3 L 134 16.6 L 132.7 16.6 L 132.7 0.2 L 133.8 0.2 L 146.2 14.5 L 146.2 0.2 L 147.5 0.2 Z M 160.2 0.2 L 160.2 1.3 L 152.5 1.3 L 152.5 7.8 L 160 7.8 L 160 8.9 L 152.5 8.9 L 152.5 15.5 L 160.4 15.5 L 160.4 16.6 L 151.3 16.6 L 151.3 0.2 L 160.2 0.2 Z M 173.5 2.9 L 168 16.7 L 167.7 16.7 L 161.1 0.2 L 162.4 0.2 L 167.8 13.8 L 173.3 0.2 L 173.7 0.2 L 179.2 13.8 L 184.6 0.2 L 185.9 0.2 L 179.3 16.7 L 179 16.7 L 173.5 2.9 Z M 191.7 0 C 192.9 0 194.2 0.3 195.4 1 C 195.4 1 195.4 2.4 195.4 2.4 C 194 1.6 192.8 1.2 191.8 1.2 C 190.8 1.2 190 1.5 189.3 2.1 C 188.6 2.7 188.3 3.4 188.3 4.3 C 188.3 4.9 188.5 5.5 188.9 6 C 189.3 6.5 190.1 7 191.3 7.5 C 192.6 7.9 193.5 8.3 194.1 8.6 C 194.6 8.9 195.1 9.4 195.5 10 C 195.9 10.6 196.1 11.4 196.1 12.3 C 196.1 13.6 195.7 14.6 194.7 15.5 C 193.8 16.4 192.7 16.8 191.4 16.8 C 190 16.8 188.6 16.3 187.2 15.4 C 187.2 15.4 187.2 13.9 187.2 13.9 C 188.8 15 190.1 15.6 191.3 15.6 C 192.3 15.6 193.1 15.3 193.7 14.7 C 194.4 14 194.7 13.3 194.7 12.4 C 194.7 11.7 194.5 11 194.1 10.5 C 193.7 9.9 192.9 9.4 191.6 8.9 C 190.3 8.4 189.4 8 188.9 7.7 C 188.4 7.4 187.9 7 187.5 6.5 C 187.1 5.9 186.9 5.2 186.9 4.3 C 186.9 3.1 187.4 2.1 188.3 1.3 C 189.2 0.4 190.4 0 191.7 0 C 191.7 0 191.7 0 191.7 0 Z " stroke="none" fill="#ffffff"/>  </g></svg>