<?xml version="1.0" standalone="no"?><!DOCTYPE svg PUBLIC "-//W3C//DTD SVG 1.1//EN" "http://www.w3.org/Graphics/SVG/1.1/DTD/svg11.dtd"><svg xmlns="http://www.w3.org/2000/svg" version="1.1" width="68.3px" height="25.1px" viewBox="0 -4 68.3 25.1" style="top:-4px">  <desc>Services</desc>  <defs/>  <g id="Polygon63818">    <path d="M 6.7 8 C 6.7 8 8 7.8 8 7.8 C 8.1 8.4 8.2 8.8 8.4 9.1 C 8.7 9.5 9 9.7 9.5 10 C 10 10.2 10.5 10.3 11.1 10.3 C 11.6 10.3 12.1 10.2 12.5 10 C 12.9 9.9 13.2 9.7 13.4 9.4 C 13.6 9.1 13.7 8.8 13.7 8.5 C 13.7 8.2 13.6 7.9 13.4 7.6 C 13.2 7.4 12.9 7.2 12.5 7 C 12.2 6.9 11.6 6.7 10.6 6.5 C 9.7 6.3 9 6 8.6 5.8 C 8.1 5.6 7.7 5.2 7.5 4.9 C 7.2 4.5 7.1 4 7.1 3.5 C 7.1 3 7.3 2.5 7.6 2.1 C 7.9 1.6 8.3 1.3 8.9 1 C 9.4 0.8 10.1 0.7 10.8 0.7 C 11.6 0.7 12.3 0.8 12.9 1 C 13.5 1.3 13.9 1.7 14.2 2.1 C 14.5 2.6 14.7 3.2 14.7 3.8 C 14.7 3.8 13.4 3.9 13.4 3.9 C 13.3 3.2 13.1 2.7 12.7 2.4 C 12.3 2 11.7 1.9 10.9 1.9 C 10 1.9 9.4 2 9 2.3 C 8.6 2.7 8.4 3 8.4 3.5 C 8.4 3.8 8.6 4.1 8.8 4.4 C 9.1 4.6 9.8 4.9 10.9 5.1 C 12.1 5.4 12.8 5.6 13.3 5.8 C 13.9 6.1 14.3 6.4 14.6 6.9 C 14.9 7.3 15.1 7.8 15.1 8.4 C 15.1 8.9 14.9 9.5 14.6 9.9 C 14.3 10.4 13.8 10.8 13.2 11.1 C 12.6 11.4 11.9 11.5 11.2 11.5 C 10.2 11.5 9.4 11.4 8.8 11.1 C 8.1 10.8 7.6 10.4 7.3 9.8 C 6.9 9.3 6.7 8.7 6.7 8 Z M 22 8.9 C 22 8.9 23.3 9 23.3 9 C 23.1 9.8 22.7 10.4 22.2 10.9 C 21.6 11.3 20.9 11.5 20 11.5 C 18.9 11.5 18 11.2 17.3 10.5 C 16.7 9.8 16.4 8.8 16.4 7.6 C 16.4 6.3 16.7 5.3 17.3 4.6 C 18 3.9 18.9 3.6 19.9 3.6 C 20.9 3.6 21.8 3.9 22.4 4.6 C 23.1 5.3 23.4 6.3 23.4 7.5 C 23.4 7.6 23.4 7.7 23.4 7.9 C 23.4 7.9 17.7 7.9 17.7 7.9 C 17.7 8.7 18 9.3 18.4 9.8 C 18.8 10.2 19.4 10.4 20 10.4 C 20.5 10.4 20.9 10.3 21.2 10.1 C 21.5 9.8 21.8 9.4 22 8.9 Z M 17.8 6.8 C 17.8 6.8 22 6.8 22 6.8 C 22 6.2 21.8 5.7 21.5 5.4 C 21.1 4.9 20.6 4.6 19.9 4.6 C 19.3 4.6 18.8 4.8 18.4 5.2 C 18 5.6 17.8 6.1 17.8 6.8 Z M 24.9 11.3 L 24.9 3.7 L 26.1 3.7 C 26.1 3.7 26.09 4.88 26.1 4.9 C 26.4 4.3 26.7 4 26.9 3.8 C 27.2 3.6 27.4 3.6 27.7 3.6 C 28.2 3.6 28.6 3.7 29.1 4 C 29.1 4 28.6 5.2 28.6 5.2 C 28.3 5 28 4.9 27.7 4.9 C 27.4 4.9 27.1 5 26.9 5.1 C 26.7 5.3 26.5 5.5 26.4 5.8 C 26.3 6.3 26.2 6.8 26.2 7.4 C 26.22 7.35 26.2 11.3 26.2 11.3 L 24.9 11.3 Z M 31.9 11.3 L 29.1 3.7 L 30.4 3.7 C 30.4 3.7 32.05 8.28 32 8.3 C 32.2 8.8 32.4 9.3 32.5 9.8 C 32.6 9.4 32.8 8.9 33 8.4 C 33.01 8.37 34.7 3.7 34.7 3.7 L 36 3.7 L 33.1 11.3 L 31.9 11.3 Z M 37.2 2.3 L 37.2 0.8 L 38.5 0.8 L 38.5 2.3 L 37.2 2.3 Z M 37.2 11.3 L 37.2 3.7 L 38.5 3.7 L 38.5 11.3 L 37.2 11.3 Z M 45.4 8.5 C 45.4 8.5 46.7 8.7 46.7 8.7 C 46.5 9.6 46.2 10.3 45.6 10.8 C 45 11.3 44.3 11.5 43.5 11.5 C 42.4 11.5 41.6 11.2 41 10.5 C 40.3 9.8 40 8.8 40 7.6 C 40 6.7 40.2 6 40.4 5.4 C 40.7 4.8 41.1 4.3 41.7 4 C 42.2 3.7 42.8 3.6 43.5 3.6 C 44.3 3.6 45 3.8 45.5 4.2 C 46 4.6 46.4 5.2 46.5 6 C 46.5 6 45.3 6.2 45.3 6.2 C 45.2 5.6 44.9 5.3 44.6 5 C 44.3 4.7 44 4.6 43.5 4.6 C 42.9 4.6 42.4 4.8 42 5.3 C 41.6 5.8 41.4 6.5 41.4 7.5 C 41.4 8.5 41.6 9.3 41.9 9.8 C 42.3 10.2 42.8 10.4 43.5 10.4 C 44 10.4 44.4 10.3 44.7 10 C 45.1 9.7 45.3 9.2 45.4 8.5 Z M 53 8.9 C 53 8.9 54.3 9 54.3 9 C 54.1 9.8 53.7 10.4 53.1 10.9 C 52.6 11.3 51.8 11.5 51 11.5 C 49.8 11.5 49 11.2 48.3 10.5 C 47.7 9.8 47.3 8.8 47.3 7.6 C 47.3 6.3 47.7 5.3 48.3 4.6 C 49 3.9 49.8 3.6 50.9 3.6 C 51.9 3.6 52.7 3.9 53.4 4.6 C 54 5.3 54.3 6.3 54.3 7.5 C 54.3 7.6 54.3 7.7 54.3 7.9 C 54.3 7.9 48.7 7.9 48.7 7.9 C 48.7 8.7 48.9 9.3 49.4 9.8 C 49.8 10.2 50.3 10.4 51 10.4 C 51.4 10.4 51.8 10.3 52.2 10.1 C 52.5 9.8 52.8 9.4 53 8.9 Z M 48.7 6.8 C 48.7 6.8 53 6.8 53 6.8 C 52.9 6.2 52.8 5.7 52.5 5.4 C 52.1 4.9 51.5 4.6 50.9 4.6 C 50.3 4.6 49.8 4.8 49.4 5.2 C 49 5.6 48.8 6.1 48.7 6.8 Z M 55.4 9.1 C 55.4 9.1 56.7 8.9 56.7 8.9 C 56.7 9.4 56.9 9.8 57.3 10 C 57.6 10.3 58.1 10.4 58.6 10.4 C 59.2 10.4 59.7 10.3 60 10.1 C 60.2 9.8 60.4 9.6 60.4 9.2 C 60.4 8.9 60.3 8.7 60 8.5 C 59.8 8.4 59.4 8.3 58.7 8.1 C 57.7 7.9 57.1 7.7 56.7 7.5 C 56.4 7.3 56.1 7.1 55.9 6.8 C 55.7 6.5 55.6 6.1 55.6 5.7 C 55.6 5.4 55.7 5.1 55.8 4.8 C 56 4.5 56.2 4.3 56.5 4.1 C 56.7 3.9 57 3.8 57.3 3.7 C 57.6 3.6 58 3.6 58.4 3.6 C 59 3.6 59.5 3.6 60 3.8 C 60.4 4 60.8 4.2 61 4.5 C 61.2 4.8 61.3 5.2 61.4 5.7 C 61.4 5.7 60.2 5.9 60.2 5.9 C 60.1 5.5 59.9 5.2 59.7 4.9 C 59.4 4.7 59 4.6 58.5 4.6 C 57.9 4.6 57.5 4.7 57.2 4.9 C 57 5.1 56.9 5.3 56.9 5.6 C 56.9 5.8 56.9 5.9 57 6 C 57.1 6.2 57.3 6.3 57.5 6.4 C 57.6 6.4 58 6.5 58.6 6.7 C 59.6 7 60.2 7.2 60.6 7.3 C 60.9 7.5 61.2 7.7 61.4 8 C 61.6 8.3 61.7 8.7 61.7 9.1 C 61.7 9.5 61.6 9.9 61.3 10.3 C 61.1 10.7 60.7 11 60.3 11.2 C 59.8 11.4 59.2 11.5 58.6 11.5 C 57.7 11.5 56.9 11.3 56.4 10.9 C 55.9 10.5 55.5 9.9 55.4 9.1 Z " stroke="none" fill="#ffffff"/>  </g></svg>