<?xml version="1.0" standalone="no"?><!DOCTYPE svg PUBLIC "-//W3C//DTD SVG 1.1//EN" "http://www.w3.org/Graphics/SVG/1.1/DTD/svg11.dtd"><svg xmlns="http://www.w3.org/2000/svg" version="1.1" width="193.3px" height="35.6px" viewBox="0 -6 193.3 35.6" style="top:-6px">  <desc>Download Centre</desc>  <defs/>  <g id="Polygon60974">    <path d="M 13.4 17 L 13.4 1.3 C 13.4 1.3 18.78 1.25 18.8 1.3 C 20 1.3 20.9 1.3 21.6 1.5 C 22.5 1.7 23.3 2.1 23.9 2.6 C 24.7 3.3 25.3 4.2 25.8 5.3 C 26.2 6.4 26.4 7.6 26.4 9 C 26.4 10.2 26.2 11.3 26 12.2 C 25.7 13.1 25.3 13.9 24.9 14.5 C 24.4 15.1 24 15.6 23.4 15.9 C 22.9 16.3 22.3 16.6 21.6 16.7 C 20.8 16.9 20 17 19 17 C 19.03 17 13.4 17 13.4 17 Z M 15.4 15.1 C 15.4 15.1 18.8 15.14 18.8 15.1 C 19.8 15.1 20.7 15 21.2 14.9 C 21.8 14.7 22.3 14.4 22.7 14 C 23.1 13.5 23.5 12.9 23.8 12 C 24.1 11.2 24.2 10.2 24.2 9 C 24.2 7.4 24 6.1 23.4 5.2 C 22.9 4.3 22.2 3.7 21.4 3.4 C 20.9 3.2 20 3.1 18.7 3.1 C 18.74 3.11 15.4 3.1 15.4 3.1 L 15.4 15.1 Z M 28.3 11.3 C 28.3 9.2 28.9 7.6 30 6.6 C 31 5.8 32.2 5.3 33.6 5.3 C 35.2 5.3 36.5 5.8 37.5 6.9 C 38.5 7.9 39 9.3 39 11.1 C 39 12.6 38.7 13.8 38.3 14.6 C 37.9 15.4 37.2 16.1 36.4 16.6 C 35.5 17 34.6 17.3 33.6 17.3 C 32 17.3 30.7 16.7 29.7 15.7 C 28.8 14.7 28.3 13.2 28.3 11.3 Z M 30.3 11.3 C 30.3 12.8 30.6 13.9 31.2 14.6 C 31.9 15.3 32.7 15.7 33.6 15.7 C 34.6 15.7 35.4 15.3 36 14.6 C 36.7 13.8 37 12.7 37 11.2 C 37 9.8 36.7 8.8 36 8 C 35.4 7.3 34.6 6.9 33.6 6.9 C 32.7 6.9 31.9 7.3 31.2 8 C 30.6 8.7 30.3 9.8 30.3 11.3 Z M 43.3 17 L 39.8 5.6 L 41.8 5.6 L 43.7 12.2 C 43.7 12.2 44.33 14.63 44.3 14.6 C 44.4 14.5 44.6 13.7 44.9 12.3 C 44.92 12.27 46.7 5.6 46.7 5.6 L 48.7 5.6 L 50.4 12.2 L 51 14.4 L 51.7 12.2 L 53.6 5.6 L 55.5 5.6 L 51.9 17 L 49.9 17 L 48.1 10.2 L 47.7 8.2 L 45.4 17 L 43.3 17 Z M 57.1 17 L 57.1 5.6 L 58.9 5.6 C 58.9 5.6 58.86 7.21 58.9 7.2 C 59.7 6 60.9 5.3 62.5 5.3 C 63.2 5.3 63.8 5.5 64.4 5.7 C 65 6 65.4 6.3 65.7 6.7 C 66 7.1 66.2 7.6 66.3 8.1 C 66.3 8.5 66.4 9.1 66.4 10 C 66.39 9.99 66.4 17 66.4 17 L 64.5 17 C 64.5 17 64.45 10.06 64.5 10.1 C 64.5 9.3 64.4 8.7 64.2 8.3 C 64.1 7.9 63.8 7.6 63.4 7.4 C 63 7.1 62.6 7 62.1 7 C 61.3 7 60.5 7.3 59.9 7.8 C 59.3 8.3 59 9.3 59 10.8 C 59.05 10.77 59 17 59 17 L 57.1 17 Z M 69.3 17 L 69.3 1.3 L 71.2 1.3 L 71.2 17 L 69.3 17 Z M 73.5 11.3 C 73.5 9.2 74.1 7.6 75.3 6.6 C 76.3 5.8 77.5 5.3 78.9 5.3 C 80.4 5.3 81.7 5.8 82.7 6.9 C 83.7 7.9 84.2 9.3 84.2 11.1 C 84.2 12.6 84 13.8 83.5 14.6 C 83.1 15.4 82.5 16.1 81.6 16.6 C 80.8 17 79.9 17.3 78.9 17.3 C 77.3 17.3 76 16.7 75 15.7 C 74 14.7 73.5 13.2 73.5 11.3 Z M 75.5 11.3 C 75.5 12.8 75.8 13.9 76.5 14.6 C 77.1 15.3 77.9 15.7 78.9 15.7 C 79.8 15.7 80.6 15.3 81.3 14.6 C 81.9 13.8 82.2 12.7 82.2 11.2 C 82.2 9.8 81.9 8.8 81.3 8 C 80.6 7.3 79.8 6.9 78.9 6.9 C 77.9 6.9 77.1 7.3 76.5 8 C 75.8 8.7 75.5 9.8 75.5 11.3 Z M 94.3 17 C 94.1 16.6 94 16.1 93.9 15.6 C 93.2 16.2 92.5 16.6 91.8 16.9 C 91.2 17.1 90.5 17.3 89.7 17.3 C 88.5 17.3 87.5 17 86.8 16.3 C 86.2 15.7 85.8 14.9 85.8 14 C 85.8 13.4 85.9 12.9 86.2 12.5 C 86.5 12 86.8 11.6 87.2 11.3 C 87.6 11.1 88.1 10.9 88.6 10.7 C 89 10.6 89.5 10.5 90.3 10.4 C 91.9 10.2 93 10 93.8 9.8 C 93.8 9.5 93.8 9.3 93.8 9.3 C 93.8 8.5 93.6 7.9 93.2 7.6 C 92.7 7.2 92 6.9 91 6.9 C 90.1 6.9 89.4 7.1 89 7.4 C 88.6 7.7 88.2 8.3 88 9.1 C 88 9.1 86.2 8.8 86.2 8.8 C 86.3 8 86.6 7.4 87 6.9 C 87.4 6.4 88 6 88.7 5.7 C 89.5 5.5 90.3 5.3 91.3 5.3 C 92.3 5.3 93.1 5.4 93.7 5.7 C 94.3 5.9 94.7 6.2 95 6.5 C 95.3 6.9 95.5 7.3 95.6 7.9 C 95.7 8.2 95.7 8.8 95.7 9.6 C 95.7 9.6 95.7 12.2 95.7 12.2 C 95.7 14 95.8 15.2 95.8 15.6 C 95.9 16.1 96.1 16.6 96.3 17 C 96.32 17 94.3 17 94.3 17 C 94.3 17 94.3 17 94.3 17 Z M 93.8 11.3 C 93.1 11.6 92 11.8 90.6 12 C 89.8 12.1 89.2 12.2 88.9 12.4 C 88.6 12.5 88.3 12.7 88.1 13 C 88 13.3 87.9 13.6 87.9 13.9 C 87.9 14.5 88.1 14.9 88.5 15.2 C 88.9 15.6 89.4 15.7 90.2 15.7 C 90.9 15.7 91.6 15.6 92.2 15.3 C 92.7 14.9 93.2 14.5 93.4 13.9 C 93.7 13.5 93.8 12.8 93.8 12 C 93.8 12 93.8 11.3 93.8 11.3 Z M 106.1 17 C 106.1 17 106.11 15.56 106.1 15.6 C 105.4 16.7 104.3 17.3 102.9 17.3 C 102 17.3 101.2 17 100.4 16.5 C 99.6 16 99.1 15.3 98.6 14.4 C 98.2 13.5 98 12.5 98 11.3 C 98 10.2 98.2 9.1 98.6 8.2 C 99 7.3 99.5 6.6 100.3 6.1 C 101 5.6 101.9 5.3 102.8 5.3 C 103.5 5.3 104.1 5.5 104.7 5.8 C 105.2 6.1 105.6 6.4 106 6.9 C 105.98 6.9 106 1.3 106 1.3 L 107.9 1.3 L 107.9 17 L 106.1 17 Z M 100 11.3 C 100 12.8 100.3 13.9 100.9 14.6 C 101.5 15.3 102.3 15.7 103.1 15.7 C 103.9 15.7 104.7 15.3 105.3 14.6 C 105.8 13.9 106.1 12.9 106.1 11.5 C 106.1 9.9 105.8 8.8 105.2 8 C 104.6 7.3 103.9 6.9 103 6.9 C 102.2 6.9 101.4 7.3 100.9 8 C 100.3 8.7 100 9.8 100 11.3 Z M 128.5 11.5 C 128.5 11.5 130.6 12 130.6 12 C 130.2 13.7 129.4 15 128.3 15.9 C 127.1 16.8 125.7 17.3 124.1 17.3 C 122.4 17.3 121 16.9 120 16.2 C 118.9 15.5 118.1 14.5 117.5 13.2 C 117 11.9 116.7 10.5 116.7 9 C 116.7 7.4 117 5.9 117.6 4.7 C 118.3 3.5 119.2 2.6 120.3 1.9 C 121.5 1.3 122.7 1 124.1 1 C 125.7 1 127 1.4 128.1 2.2 C 129.2 3 129.9 4.1 130.4 5.6 C 130.4 5.6 128.3 6.1 128.3 6.1 C 127.9 4.9 127.4 4.1 126.7 3.6 C 126 3 125.1 2.8 124.1 2.8 C 122.9 2.8 121.9 3.1 121.1 3.6 C 120.2 4.2 119.7 5 119.3 6 C 119 7 118.9 8 118.9 9 C 118.9 10.3 119 11.5 119.4 12.5 C 119.8 13.5 120.4 14.3 121.3 14.7 C 122.1 15.2 123 15.5 123.9 15.5 C 125.1 15.5 126.1 15.1 126.9 14.5 C 127.7 13.8 128.3 12.8 128.5 11.5 Z M 140.8 13.3 C 140.8 13.3 142.8 13.6 142.8 13.6 C 142.4 14.7 141.9 15.6 141 16.3 C 140.1 16.9 139.1 17.3 137.7 17.3 C 136.1 17.3 134.7 16.7 133.8 15.7 C 132.8 14.7 132.3 13.2 132.3 11.4 C 132.3 9.5 132.8 8 133.8 6.9 C 134.8 5.9 136.1 5.3 137.6 5.3 C 139.2 5.3 140.4 5.9 141.4 6.9 C 142.3 7.9 142.8 9.4 142.8 11.3 C 142.8 11.4 142.8 11.6 142.8 11.8 C 142.8 11.8 134.3 11.8 134.3 11.8 C 134.4 13 134.7 14 135.4 14.7 C 136 15.3 136.8 15.7 137.7 15.7 C 138.5 15.7 139.1 15.5 139.6 15.1 C 140.1 14.7 140.5 14.1 140.8 13.3 Z M 134.4 10.2 C 134.4 10.2 140.8 10.2 140.8 10.2 C 140.7 9.2 140.4 8.5 140 8 C 139.4 7.3 138.6 6.9 137.6 6.9 C 136.8 6.9 136 7.2 135.4 7.8 C 134.8 8.4 134.5 9.2 134.4 10.2 Z M 145.2 17 L 145.2 5.6 L 146.9 5.6 C 146.9 5.6 146.92 7.21 146.9 7.2 C 147.8 6 149 5.3 150.6 5.3 C 151.2 5.3 151.9 5.5 152.4 5.7 C 153 6 153.5 6.3 153.7 6.7 C 154 7.1 154.2 7.6 154.3 8.1 C 154.4 8.5 154.4 9.1 154.4 10 C 154.45 9.99 154.4 17 154.4 17 L 152.5 17 C 152.5 17 152.52 10.06 152.5 10.1 C 152.5 9.3 152.4 8.7 152.3 8.3 C 152.1 7.9 151.9 7.6 151.5 7.4 C 151.1 7.1 150.7 7 150.1 7 C 149.3 7 148.6 7.3 148 7.8 C 147.4 8.3 147.1 9.3 147.1 10.8 C 147.11 10.77 147.1 17 147.1 17 L 145.2 17 Z M 160.8 15.3 C 161 15.3 161.3 15.3 161.6 15.3 C 161.6 15.3 161.9 17 161.9 17 C 161.4 17.1 160.9 17.2 160.5 17.2 C 159.8 17.2 159.2 17 158.8 16.8 C 158.4 16.6 158.2 16.3 158 15.9 C 157.8 15.6 157.8 14.8 157.8 13.7 C 157.77 13.66 157.8 7.1 157.8 7.1 L 156.4 7.1 L 156.4 5.6 L 157.8 5.6 L 157.8 2.8 L 159.7 1.6 L 159.7 5.6 L 161.6 5.6 L 161.6 7.1 L 159.7 7.1 C 159.7 7.1 159.69 13.77 159.7 13.8 C 159.7 14.3 159.7 14.7 159.8 14.8 C 159.9 15 160 15.1 160.1 15.2 C 160.3 15.3 160.5 15.3 160.8 15.3 C 160.8 15.3 160.8 15.3 160.8 15.3 Z M 163.5 17 L 163.5 5.6 L 165.2 5.6 C 165.2 5.6 165.25 7.32 165.2 7.3 C 165.7 6.5 166.1 6 166.5 5.7 C 166.9 5.5 167.3 5.3 167.7 5.3 C 168.4 5.3 169 5.5 169.7 6 C 169.7 6 169 7.8 169 7.8 C 168.6 7.5 168.1 7.3 167.6 7.3 C 167.2 7.3 166.8 7.5 166.5 7.7 C 166.1 8 165.9 8.3 165.8 8.8 C 165.5 9.5 165.4 10.2 165.4 11 C 165.44 11.03 165.4 17 165.4 17 L 163.5 17 Z M 178.7 13.3 C 178.7 13.3 180.7 13.6 180.7 13.6 C 180.3 14.7 179.8 15.6 178.9 16.3 C 178.1 16.9 177 17.3 175.6 17.3 C 174 17.3 172.7 16.7 171.7 15.7 C 170.7 14.7 170.2 13.2 170.2 11.4 C 170.2 9.5 170.7 8 171.7 6.9 C 172.7 5.9 174 5.3 175.5 5.3 C 177.1 5.3 178.3 5.9 179.3 6.9 C 180.2 7.9 180.7 9.4 180.7 11.3 C 180.7 11.4 180.7 11.6 180.7 11.8 C 180.7 11.8 172.2 11.8 172.2 11.8 C 172.3 13 172.6 14 173.3 14.7 C 173.9 15.3 174.7 15.7 175.7 15.7 C 176.4 15.7 177 15.5 177.5 15.1 C 178 14.7 178.4 14.1 178.7 13.3 Z M 172.3 10.2 C 172.3 10.2 178.7 10.2 178.7 10.2 C 178.6 9.2 178.4 8.5 178 8 C 177.3 7.3 176.5 6.9 175.6 6.9 C 174.7 6.9 173.9 7.2 173.3 7.8 C 172.7 8.4 172.4 9.2 172.3 10.2 Z " stroke="none" fill="#ffffff"/>  </g></svg>