<?xml version="1.0" standalone="no"?><!DOCTYPE svg PUBLIC "-//W3C//DTD SVG 1.1//EN" "http://www.w3.org/Graphics/SVG/1.1/DTD/svg11.dtd"><svg xmlns="http://www.w3.org/2000/svg" version="1.1" width="296.1px" height="35.6px" viewBox="0 -7 296.1 35.6" style="top:-7px">  <desc>© DSW Consulting Ltd. 2024</desc>  <defs/>  <g id="Polygon63340">    <path d="M 22.6 0 C 24 0 25.3 0.3 26.6 1 C 27.9 1.7 28.9 2.7 29.6 4 C 30.4 5.3 30.7 6.7 30.7 8.1 C 30.7 9.5 30.4 10.8 29.7 12.1 C 28.9 13.4 27.9 14.4 26.7 15.1 C 25.4 15.9 24 16.2 22.6 16.2 C 21.2 16.2 19.9 15.9 18.6 15.1 C 17.3 14.4 16.3 13.4 15.6 12.1 C 14.9 10.8 14.5 9.5 14.5 8.1 C 14.5 6.7 14.9 5.3 15.6 4 C 16.3 2.7 17.3 1.7 18.6 1 C 19.9 0.3 21.3 0 22.6 0 Z M 22.6 1.3 C 21.5 1.3 20.4 1.6 19.3 2.2 C 18.2 2.8 17.4 3.6 16.8 4.7 C 16.2 5.8 15.9 6.9 15.9 8.1 C 15.9 9.3 16.2 10.4 16.8 11.5 C 17.4 12.5 18.2 13.4 19.3 14 C 20.3 14.6 21.5 14.9 22.6 14.9 C 23.8 14.9 24.9 14.6 26 14 C 27.1 13.4 27.9 12.5 28.5 11.5 C 29.1 10.4 29.4 9.3 29.4 8.1 C 29.4 6.9 29.1 5.8 28.5 4.7 C 27.9 3.6 27 2.8 25.9 2.2 C 24.9 1.6 23.8 1.3 22.6 1.3 Z M 25.2 9.4 C 25.2 9.4 26.5 9.8 26.5 9.8 C 26.3 10.7 25.9 11.4 25.2 12 C 24.5 12.5 23.6 12.8 22.6 12.8 C 21.4 12.8 20.3 12.3 19.6 11.5 C 18.8 10.7 18.4 9.6 18.4 8.1 C 18.4 7.2 18.6 6.4 18.9 5.7 C 19.3 5 19.8 4.4 20.4 4.1 C 21.1 3.7 21.9 3.6 22.7 3.6 C 23.7 3.6 24.5 3.8 25.1 4.2 C 25.7 4.7 26.2 5.3 26.4 6.1 C 26.4 6.1 25.1 6.4 25.1 6.4 C 24.9 5.9 24.6 5.5 24.2 5.2 C 23.7 4.9 23.2 4.8 22.7 4.8 C 21.9 4.8 21.2 5.1 20.6 5.6 C 20.1 6.2 19.8 7.1 19.8 8.2 C 19.8 9.3 20.1 10.1 20.6 10.7 C 21.1 11.2 21.8 11.5 22.6 11.5 C 23.2 11.5 23.8 11.3 24.3 10.9 C 24.7 10.6 25.1 10.1 25.2 9.4 Z M 38.5 16 L 38.5 0.3 C 38.5 0.3 43.92 0.27 43.9 0.3 C 45.1 0.3 46.1 0.3 46.7 0.5 C 47.6 0.7 48.4 1.1 49 1.6 C 49.9 2.3 50.5 3.2 50.9 4.3 C 51.3 5.4 51.5 6.7 51.5 8.1 C 51.5 9.3 51.4 10.3 51.1 11.2 C 50.8 12.2 50.5 12.9 50 13.5 C 49.6 14.1 49.1 14.6 48.6 15 C 48.1 15.3 47.4 15.6 46.7 15.7 C 46 15.9 45.1 16 44.2 16 C 44.18 16.02 38.5 16 38.5 16 Z M 40.6 14.2 C 40.6 14.2 43.95 14.16 43.9 14.2 C 45 14.2 45.8 14.1 46.4 13.9 C 47 13.7 47.5 13.4 47.8 13.1 C 48.3 12.6 48.7 11.9 49 11.1 C 49.2 10.2 49.4 9.2 49.4 8 C 49.4 6.4 49.1 5.1 48.6 4.2 C 48 3.3 47.4 2.8 46.6 2.4 C 46 2.2 45.1 2.1 43.9 2.1 C 43.89 2.13 40.6 2.1 40.6 2.1 L 40.6 14.2 Z M 53.7 11 C 53.7 11 55.6 10.8 55.6 10.8 C 55.7 11.6 56 12.2 56.3 12.7 C 56.6 13.2 57.2 13.6 57.9 13.9 C 58.6 14.3 59.4 14.4 60.3 14.4 C 61.1 14.4 61.8 14.3 62.4 14.1 C 63 13.8 63.5 13.5 63.8 13.1 C 64.1 12.7 64.2 12.2 64.2 11.7 C 64.2 11.2 64.1 10.8 63.8 10.4 C 63.5 10.1 63 9.8 62.4 9.5 C 61.9 9.4 61 9.1 59.6 8.7 C 58.1 8.4 57.1 8.1 56.5 7.8 C 55.8 7.4 55.2 6.9 54.8 6.3 C 54.5 5.7 54.3 5.1 54.3 4.3 C 54.3 3.5 54.5 2.8 55 2.1 C 55.4 1.4 56.1 0.9 56.9 0.5 C 57.8 0.2 58.8 0 59.8 0 C 61 0 62 0.2 62.9 0.6 C 63.8 0.9 64.5 1.5 65 2.2 C 65.4 3 65.7 3.8 65.7 4.7 C 65.7 4.7 63.7 4.9 63.7 4.9 C 63.6 3.9 63.3 3.1 62.7 2.6 C 62 2.1 61.1 1.8 59.9 1.8 C 58.6 1.8 57.7 2.1 57.2 2.5 C 56.6 3 56.3 3.5 56.3 4.2 C 56.3 4.8 56.5 5.2 56.9 5.6 C 57.3 6 58.3 6.3 60 6.7 C 61.7 7.1 62.9 7.4 63.5 7.7 C 64.4 8.1 65.1 8.7 65.6 9.3 C 66 10 66.2 10.7 66.2 11.6 C 66.2 12.4 66 13.2 65.5 13.9 C 65 14.7 64.3 15.3 63.4 15.7 C 62.5 16.1 61.5 16.3 60.4 16.3 C 59 16.3 57.8 16.1 56.8 15.7 C 55.8 15.2 55.1 14.6 54.5 13.8 C 54 13 53.7 12 53.7 11 Z M 71.8 16 L 67.6 0.3 L 69.8 0.3 C 69.8 0.3 72.17 10.59 72.2 10.6 C 72.4 11.7 72.6 12.7 72.8 13.8 C 73.2 12.1 73.5 11.2 73.5 10.9 C 73.54 10.9 76.5 0.3 76.5 0.3 L 79.1 0.3 C 79.1 0.3 81.31 8.24 81.3 8.2 C 81.9 10.2 82.3 12.1 82.5 13.8 C 82.7 12.8 83 11.7 83.3 10.4 C 83.32 10.39 85.8 0.3 85.8 0.3 L 87.9 0.3 L 83.6 16 L 81.6 16 C 81.6 16 78.24 4.02 78.2 4 C 78 3 77.8 2.4 77.7 2.2 C 77.6 2.9 77.4 3.5 77.3 4 C 77.28 4.02 73.9 16 73.9 16 L 71.8 16 Z M 107.2 10.5 C 107.2 10.5 109.3 11 109.3 11 C 108.8 12.7 108 14 106.9 14.9 C 105.8 15.8 104.4 16.3 102.7 16.3 C 101 16.3 99.7 15.9 98.6 15.2 C 97.5 14.6 96.7 13.6 96.2 12.2 C 95.6 10.9 95.3 9.5 95.3 8 C 95.3 6.4 95.7 5 96.3 3.7 C 96.9 2.5 97.8 1.6 99 1 C 100.1 0.3 101.4 0 102.8 0 C 104.3 0 105.7 0.4 106.7 1.2 C 107.8 2 108.6 3.1 109 4.6 C 109 4.6 106.9 5.1 106.9 5.1 C 106.6 3.9 106 3.1 105.3 2.6 C 104.7 2 103.8 1.8 102.7 1.8 C 101.5 1.8 100.5 2.1 99.7 2.7 C 98.9 3.2 98.3 4 98 5 C 97.6 6 97.5 7 97.5 8 C 97.5 9.4 97.7 10.5 98.1 11.5 C 98.5 12.5 99.1 13.3 99.9 13.8 C 100.7 14.3 101.6 14.5 102.6 14.5 C 103.7 14.5 104.7 14.2 105.5 13.5 C 106.3 12.8 106.9 11.8 107.2 10.5 Z M 110.9 10.3 C 110.9 8.2 111.4 6.6 112.6 5.6 C 113.6 4.8 114.8 4.4 116.2 4.4 C 117.8 4.4 119.1 4.9 120.1 5.9 C 121 6.9 121.5 8.3 121.5 10.2 C 121.5 11.6 121.3 12.8 120.9 13.6 C 120.4 14.5 119.8 15.1 119 15.6 C 118.1 16 117.2 16.3 116.2 16.3 C 114.6 16.3 113.3 15.8 112.3 14.7 C 111.4 13.7 110.9 12.2 110.9 10.3 Z M 112.8 10.3 C 112.8 11.8 113.2 12.9 113.8 13.6 C 114.4 14.3 115.2 14.7 116.2 14.7 C 117.2 14.7 118 14.3 118.6 13.6 C 119.2 12.9 119.6 11.7 119.6 10.2 C 119.6 8.8 119.2 7.8 118.6 7 C 118 6.3 117.2 6 116.2 6 C 115.2 6 114.4 6.3 113.8 7 C 113.2 7.8 112.8 8.9 112.8 10.3 Z M 123.8 16 L 123.8 4.6 L 125.6 4.6 C 125.6 4.6 125.55 6.23 125.6 6.2 C 126.4 5 127.6 4.4 129.2 4.4 C 129.9 4.4 130.5 4.5 131.1 4.7 C 131.7 5 132.1 5.3 132.4 5.7 C 132.7 6.1 132.9 6.6 133 7.1 C 133 7.5 133.1 8.1 133.1 9 C 133.08 9 133.1 16 133.1 16 L 131.2 16 C 131.2 16 131.15 9.08 131.2 9.1 C 131.2 8.3 131.1 7.7 130.9 7.3 C 130.8 6.9 130.5 6.6 130.1 6.4 C 129.7 6.1 129.3 6 128.8 6 C 128 6 127.2 6.3 126.6 6.8 C 126 7.3 125.7 8.3 125.7 9.8 C 125.75 9.79 125.7 16 125.7 16 L 123.8 16 Z M 135.3 12.6 C 135.3 12.6 137.2 12.3 137.2 12.3 C 137.3 13.1 137.6 13.7 138.1 14.1 C 138.6 14.5 139.3 14.7 140.1 14.7 C 141 14.7 141.7 14.5 142.1 14.1 C 142.5 13.8 142.8 13.4 142.8 12.9 C 142.8 12.4 142.6 12.1 142.2 11.8 C 141.9 11.7 141.3 11.4 140.2 11.2 C 138.8 10.8 137.8 10.5 137.3 10.3 C 136.7 10 136.3 9.6 136 9.2 C 135.7 8.7 135.6 8.2 135.6 7.6 C 135.6 7.1 135.7 6.7 135.9 6.2 C 136.2 5.8 136.5 5.4 136.9 5.1 C 137.2 4.9 137.6 4.7 138.1 4.6 C 138.6 4.4 139.2 4.4 139.8 4.4 C 140.7 4.4 141.5 4.5 142.2 4.7 C 142.8 5 143.3 5.3 143.7 5.8 C 144 6.2 144.2 6.8 144.3 7.6 C 144.3 7.6 142.4 7.8 142.4 7.8 C 142.3 7.2 142.1 6.8 141.7 6.4 C 141.3 6.1 140.7 5.9 139.9 5.9 C 139.1 5.9 138.4 6.1 138 6.4 C 137.7 6.7 137.5 7 137.5 7.4 C 137.5 7.7 137.5 7.9 137.7 8.1 C 137.9 8.3 138.1 8.5 138.4 8.6 C 138.6 8.7 139.2 8.8 140.2 9.1 C 141.5 9.5 142.5 9.8 143 10 C 143.6 10.2 144 10.6 144.3 11 C 144.6 11.5 144.8 12 144.8 12.7 C 144.8 13.3 144.6 13.9 144.2 14.5 C 143.8 15.1 143.3 15.5 142.6 15.8 C 141.9 16.1 141 16.3 140.2 16.3 C 138.7 16.3 137.5 16 136.8 15.4 C 136 14.7 135.5 13.8 135.3 12.6 Z M 154.5 16 C 154.5 16 154.53 14.34 154.5 14.3 C 153.6 15.6 152.4 16.3 150.9 16.3 C 150.2 16.3 149.6 16.1 149 15.9 C 148.4 15.6 148 15.3 147.7 14.9 C 147.4 14.5 147.2 14 147.1 13.5 C 147 13.1 147 12.5 147 11.7 C 147.01 11.68 147 4.6 147 4.6 L 148.9 4.6 C 148.9 4.6 148.94 10.94 148.9 10.9 C 148.9 11.9 149 12.6 149.1 13 C 149.2 13.5 149.4 13.9 149.8 14.2 C 150.2 14.5 150.7 14.6 151.3 14.6 C 151.9 14.6 152.4 14.5 152.9 14.2 C 153.4 13.9 153.8 13.5 154 12.9 C 154.2 12.4 154.3 11.7 154.3 10.7 C 154.32 10.72 154.3 4.6 154.3 4.6 L 156.3 4.6 L 156.3 16 L 154.5 16 Z M 159.2 16 L 159.2 0.3 L 161.2 0.3 L 161.2 16 L 159.2 16 Z M 167.5 14.4 C 167.8 14.4 168 14.3 168.4 14.3 C 168.4 14.3 168.7 16 168.7 16 C 168.1 16.1 167.6 16.2 167.2 16.2 C 166.5 16.2 166 16.1 165.6 15.8 C 165.2 15.6 164.9 15.3 164.8 15 C 164.6 14.6 164.5 13.8 164.5 12.7 C 164.53 12.68 164.5 6.1 164.5 6.1 L 163.1 6.1 L 163.1 4.6 L 164.5 4.6 L 164.5 1.8 L 166.5 0.6 L 166.5 4.6 L 168.4 4.6 L 168.4 6.1 L 166.5 6.1 C 166.5 6.1 166.45 12.78 166.5 12.8 C 166.5 13.3 166.5 13.7 166.6 13.8 C 166.6 14 166.7 14.1 166.9 14.2 C 167 14.3 167.3 14.4 167.5 14.4 C 167.5 14.4 167.5 14.4 167.5 14.4 Z M 170.3 2.5 L 170.3 0.3 L 172.2 0.3 L 172.2 2.5 L 170.3 2.5 Z M 170.3 16 L 170.3 4.6 L 172.2 4.6 L 172.2 16 L 170.3 16 Z M 175.2 16 L 175.2 4.6 L 176.9 4.6 C 176.9 4.6 176.91 6.23 176.9 6.2 C 177.8 5 179 4.4 180.5 4.4 C 181.2 4.4 181.9 4.5 182.4 4.7 C 183 5 183.4 5.3 183.7 5.7 C 184 6.1 184.2 6.6 184.3 7.1 C 184.4 7.5 184.4 8.1 184.4 9 C 184.44 9 184.4 16 184.4 16 L 182.5 16 C 182.5 16 182.51 9.08 182.5 9.1 C 182.5 8.3 182.4 7.7 182.3 7.3 C 182.1 6.9 181.9 6.6 181.5 6.4 C 181.1 6.1 180.7 6 180.1 6 C 179.3 6 178.6 6.3 178 6.8 C 177.4 7.3 177.1 8.3 177.1 9.8 C 177.11 9.79 177.1 16 177.1 16 L 175.2 16 Z M 187.1 17 C 187.1 17 188.9 17.2 188.9 17.2 C 189 17.8 189.2 18.2 189.6 18.5 C 190.1 18.9 190.7 19 191.6 19 C 192.4 19 193.1 18.9 193.6 18.5 C 194.1 18.2 194.4 17.6 194.6 17 C 194.7 16.6 194.8 15.8 194.8 14.5 C 193.9 15.5 192.9 16 191.6 16 C 190 16 188.8 15.5 188 14.3 C 187.1 13.2 186.7 11.8 186.7 10.2 C 186.7 9.2 186.9 8.2 187.3 7.2 C 187.7 6.3 188.2 5.6 189 5.1 C 189.7 4.6 190.6 4.4 191.6 4.4 C 193 4.4 194.1 4.9 194.9 6 C 194.94 5.98 194.9 4.6 194.9 4.6 L 196.7 4.6 C 196.7 4.6 196.72 14.47 196.7 14.5 C 196.7 16.2 196.5 17.5 196.2 18.2 C 195.8 19 195.2 19.6 194.5 20 C 193.7 20.4 192.7 20.6 191.6 20.6 C 190.2 20.6 189.1 20.3 188.3 19.7 C 187.4 19.1 187 18.2 187.1 17 Z M 188.7 10.1 C 188.7 11.6 189 12.7 189.5 13.4 C 190.1 14.1 190.9 14.4 191.8 14.4 C 192.7 14.4 193.4 14.1 194 13.4 C 194.6 12.7 194.9 11.6 194.9 10.2 C 194.9 8.8 194.6 7.7 194 7 C 193.4 6.3 192.6 6 191.7 6 C 190.9 6 190.2 6.3 189.6 7 C 189 7.7 188.7 8.7 188.7 10.1 Z M 205.9 16 L 205.9 0.3 L 208 0.3 L 208 14.2 L 215.8 14.2 L 215.8 16 L 205.9 16 Z M 221.4 14.4 C 221.6 14.4 221.9 14.3 222.2 14.3 C 222.2 14.3 222.5 16 222.5 16 C 221.9 16.1 221.5 16.2 221 16.2 C 220.3 16.2 219.8 16.1 219.4 15.8 C 219 15.6 218.7 15.3 218.6 15 C 218.4 14.6 218.3 13.8 218.3 12.7 C 218.35 12.68 218.3 6.1 218.3 6.1 L 216.9 6.1 L 216.9 4.6 L 218.3 4.6 L 218.3 1.8 L 220.3 0.6 L 220.3 4.6 L 222.2 4.6 L 222.2 6.1 L 220.3 6.1 C 220.3 6.1 220.27 12.78 220.3 12.8 C 220.3 13.3 220.3 13.7 220.4 13.8 C 220.4 14 220.5 14.1 220.7 14.2 C 220.9 14.3 221.1 14.4 221.4 14.4 C 221.4 14.4 221.4 14.4 221.4 14.4 Z M 231.5 16 C 231.5 16 231.5 14.58 231.5 14.6 C 230.8 15.7 229.7 16.3 228.3 16.3 C 227.4 16.3 226.6 16 225.8 15.5 C 225 15 224.5 14.3 224 13.4 C 223.6 12.5 223.4 11.5 223.4 10.3 C 223.4 9.2 223.6 8.2 224 7.2 C 224.4 6.3 224.9 5.6 225.7 5.1 C 226.4 4.6 227.3 4.4 228.2 4.4 C 228.9 4.4 229.5 4.5 230.1 4.8 C 230.6 5.1 231 5.5 231.4 5.9 C 231.38 5.92 231.4 0.3 231.4 0.3 L 233.3 0.3 L 233.3 16 L 231.5 16 Z M 225.4 10.3 C 225.4 11.8 225.7 12.9 226.3 13.6 C 226.9 14.3 227.7 14.7 228.5 14.7 C 229.3 14.7 230.1 14.3 230.7 13.6 C 231.2 13 231.5 11.9 231.5 10.5 C 231.5 8.9 231.2 7.8 230.6 7 C 230 6.3 229.3 6 228.4 6 C 227.6 6 226.8 6.3 226.3 7 C 225.7 7.7 225.4 8.8 225.4 10.3 Z M 236.9 16 L 236.9 13.8 L 239.1 13.8 L 239.1 16 L 236.9 16 Z M 258.2 14.2 L 258.2 16 C 258.2 16 247.78 16.02 247.8 16 C 247.8 15.6 247.8 15.1 248 14.7 C 248.3 14 248.7 13.3 249.3 12.6 C 249.9 11.9 250.7 11.1 251.8 10.2 C 253.5 8.8 254.7 7.7 255.3 6.9 C 255.9 6 256.2 5.3 256.2 4.5 C 256.2 3.8 255.9 3.1 255.4 2.6 C 254.8 2.1 254.1 1.8 253.2 1.8 C 252.3 1.8 251.5 2.1 251 2.6 C 250.4 3.2 250.1 4 250.1 5 C 250.1 5 248.1 4.8 248.1 4.8 C 248.3 3.3 248.8 2.1 249.7 1.4 C 250.6 0.6 251.8 0.2 253.3 0.2 C 254.8 0.2 256 0.6 256.8 1.5 C 257.7 2.3 258.2 3.3 258.2 4.6 C 258.2 5.2 258 5.8 257.8 6.4 C 257.5 7 257.1 7.7 256.5 8.4 C 255.9 9 254.9 10 253.5 11.1 C 252.4 12.1 251.6 12.8 251.3 13.1 C 251 13.5 250.7 13.8 250.5 14.2 C 250.46 14.16 258.2 14.2 258.2 14.2 Z M 261.8 14.7 C 260.8 13.3 260.3 11.2 260.3 8.3 C 260.3 6.4 260.5 4.9 260.8 3.8 C 261.2 2.6 261.8 1.7 262.5 1.1 C 263.3 0.5 264.3 0.2 265.4 0.2 C 266.2 0.2 267 0.4 267.6 0.7 C 268.3 1.1 268.8 1.5 269.2 2.2 C 269.6 2.8 269.9 3.6 270.2 4.5 C 270.4 5.4 270.5 6.7 270.5 8.3 C 270.5 10.1 270.3 11.6 270 12.7 C 269.6 13.9 269 14.7 268.3 15.4 C 267.5 16 266.5 16.3 265.4 16.3 C 263.9 16.3 262.7 15.7 261.8 14.7 C 261.8 14.7 261.8 14.7 261.8 14.7 Z M 263.2 2.9 C 262.6 3.9 262.2 5.7 262.2 8.3 C 262.2 10.8 262.6 12.6 263.2 13.4 C 263.8 14.3 264.5 14.7 265.4 14.7 C 266.3 14.7 267 14.3 267.6 13.4 C 268.2 12.5 268.5 10.8 268.5 8.3 C 268.5 5.7 268.2 3.9 267.6 3.1 C 267 2.2 266.3 1.8 265.4 1.8 C 264.5 1.8 263.8 2.2 263.2 2.9 C 263.2 2.9 263.2 2.9 263.2 2.9 Z M 282.7 14.2 L 282.7 16 C 282.7 16 272.25 16.02 272.2 16 C 272.2 15.6 272.3 15.1 272.5 14.7 C 272.7 14 273.2 13.3 273.7 12.6 C 274.3 11.9 275.2 11.1 276.3 10.2 C 278 8.8 279.1 7.7 279.7 6.9 C 280.3 6 280.7 5.3 280.7 4.5 C 280.7 3.8 280.4 3.1 279.8 2.6 C 279.3 2.1 278.6 1.8 277.7 1.8 C 276.8 1.8 276 2.1 275.5 2.6 C 274.9 3.2 274.6 4 274.6 5 C 274.6 5 272.6 4.8 272.6 4.8 C 272.8 3.3 273.3 2.1 274.2 1.4 C 275 0.6 276.2 0.2 277.7 0.2 C 279.2 0.2 280.4 0.6 281.3 1.5 C 282.2 2.3 282.6 3.3 282.6 4.6 C 282.6 5.2 282.5 5.8 282.3 6.4 C 282 7 281.6 7.7 281 8.4 C 280.4 9 279.4 10 278 11.1 C 276.8 12.1 276.1 12.8 275.8 13.1 C 275.4 13.5 275.2 13.8 274.9 14.2 C 274.94 14.16 282.7 14.2 282.7 14.2 Z M 290.9 16 L 290.9 12.2 L 284.1 12.2 L 284.1 10.5 L 291.3 0.3 L 292.9 0.3 L 292.9 10.5 L 295 10.5 L 295 12.2 L 292.9 12.2 L 292.9 16 L 290.9 16 Z M 290.9 10.5 L 290.9 3.4 L 286 10.5 L 290.9 10.5 Z " stroke="none" fill="#000"/>  </g></svg>