<?xml version="1.0" standalone="no"?><!DOCTYPE svg PUBLIC "-//W3C//DTD SVG 1.1//EN" "http://www.w3.org/Graphics/SVG/1.1/DTD/svg11.dtd"><svg xmlns="http://www.w3.org/2000/svg" version="1.1" width="103.1px" height="20.5px" viewBox="0 -4 103.1 20.5" style="top:-4px">  <desc>Download Centre</desc>  <defs/>  <g id="Polygon67401">    <path d="M 7.1 9.1 L 7.1 0.7 C 7.1 0.7 10.01 0.67 10 0.7 C 10.7 0.7 11.2 0.7 11.5 0.8 C 12 0.9 12.4 1.1 12.7 1.4 C 13.2 1.8 13.5 2.2 13.7 2.8 C 14 3.4 14.1 4.1 14.1 4.8 C 14.1 5.5 14 6 13.8 6.5 C 13.7 7 13.5 7.4 13.3 7.7 C 13 8.1 12.8 8.3 12.5 8.5 C 12.2 8.7 11.9 8.8 11.5 8.9 C 11.1 9 10.7 9.1 10.2 9.1 C 10.15 9.07 7.1 9.1 7.1 9.1 Z M 8.2 8.1 C 8.2 8.1 10.03 8.08 10 8.1 C 10.6 8.1 11 8 11.3 7.9 C 11.6 7.8 11.9 7.7 12.1 7.5 C 12.3 7.2 12.6 6.9 12.7 6.4 C 12.8 6 12.9 5.4 12.9 4.8 C 12.9 3.9 12.8 3.3 12.5 2.8 C 12.2 2.3 11.8 2 11.4 1.8 C 11.1 1.7 10.7 1.7 10 1.7 C 10 1.66 8.2 1.7 8.2 1.7 L 8.2 8.1 Z M 15.1 6 C 15.1 4.9 15.4 4.1 16 3.5 C 16.5 3.1 17.2 2.8 17.9 2.8 C 18.8 2.8 19.5 3.1 20 3.7 C 20.5 4.2 20.8 5 20.8 5.9 C 20.8 6.7 20.7 7.3 20.4 7.8 C 20.2 8.2 19.8 8.6 19.4 8.8 C 19 9.1 18.5 9.2 17.9 9.2 C 17.1 9.2 16.4 8.9 15.9 8.4 C 15.3 7.8 15.1 7.1 15.1 6 Z M 16.1 6 C 16.1 6.8 16.3 7.4 16.6 7.8 C 17 8.2 17.4 8.4 17.9 8.4 C 18.4 8.4 18.9 8.2 19.2 7.8 C 19.5 7.4 19.7 6.8 19.7 6 C 19.7 5.2 19.5 4.7 19.2 4.3 C 18.9 3.9 18.4 3.7 17.9 3.7 C 17.4 3.7 17 3.9 16.6 4.3 C 16.3 4.7 16.1 5.2 16.1 6 Z M 23.1 9.1 L 21.2 3 L 22.3 3 L 23.3 6.5 C 23.3 6.5 23.64 7.8 23.6 7.8 C 23.7 7.7 23.8 7.3 24 6.5 C 23.96 6.55 24.9 3 24.9 3 L 26 3 L 26.9 6.5 L 27.2 7.7 L 27.6 6.5 L 28.6 3 L 29.6 3 L 27.7 9.1 L 26.6 9.1 L 25.7 5.4 L 25.4 4.4 L 24.2 9.1 L 23.1 9.1 Z M 30.5 9.1 L 30.5 3 L 31.4 3 C 31.4 3 31.39 3.85 31.4 3.8 C 31.8 3.2 32.5 2.8 33.3 2.8 C 33.7 2.8 34 2.9 34.3 3 C 34.6 3.2 34.9 3.3 35 3.6 C 35.2 3.8 35.3 4 35.3 4.3 C 35.4 4.5 35.4 4.8 35.4 5.3 C 35.41 5.33 35.4 9.1 35.4 9.1 L 34.4 9.1 C 34.4 9.1 34.37 5.37 34.4 5.4 C 34.4 4.9 34.3 4.6 34.3 4.4 C 34.2 4.2 34 4 33.8 3.9 C 33.6 3.8 33.4 3.7 33.1 3.7 C 32.7 3.7 32.3 3.9 32 4.2 C 31.7 4.4 31.5 5 31.5 5.7 C 31.49 5.74 31.5 9.1 31.5 9.1 L 30.5 9.1 Z M 37 9.1 L 37 0.7 L 38 0.7 L 38 9.1 L 37 9.1 Z M 39.2 6 C 39.2 4.9 39.5 4.1 40.1 3.5 C 40.7 3.1 41.3 2.8 42.1 2.8 C 42.9 2.8 43.6 3.1 44.1 3.7 C 44.6 4.2 44.9 5 44.9 5.9 C 44.9 6.7 44.8 7.3 44.6 7.8 C 44.3 8.2 44 8.6 43.5 8.8 C 43.1 9.1 42.6 9.2 42.1 9.2 C 41.2 9.2 40.5 8.9 40 8.4 C 39.5 7.8 39.2 7.1 39.2 6 Z M 40.3 6 C 40.3 6.8 40.4 7.4 40.8 7.8 C 41.1 8.2 41.5 8.4 42.1 8.4 C 42.6 8.4 43 8.2 43.3 7.8 C 43.7 7.4 43.9 6.8 43.9 6 C 43.9 5.2 43.7 4.7 43.3 4.3 C 43 3.9 42.6 3.7 42.1 3.7 C 41.5 3.7 41.1 3.9 40.8 4.3 C 40.4 4.7 40.3 5.2 40.3 6 Z M 50.3 9.1 C 50.2 8.9 50.1 8.6 50.1 8.3 C 49.7 8.6 49.3 8.9 49 9 C 48.6 9.1 48.3 9.2 47.8 9.2 C 47.2 9.2 46.7 9 46.3 8.7 C 45.9 8.4 45.8 8 45.8 7.5 C 45.8 7.2 45.8 6.9 46 6.6 C 46.1 6.4 46.3 6.2 46.5 6.1 C 46.7 5.9 47 5.8 47.2 5.7 C 47.5 5.7 47.8 5.6 48.2 5.6 C 49 5.5 49.6 5.3 50 5.2 C 50 5.1 50 5 50 4.9 C 50 4.5 49.9 4.2 49.7 4 C 49.5 3.8 49.1 3.7 48.5 3.7 C 48.1 3.7 47.7 3.8 47.5 4 C 47.2 4.1 47.1 4.4 47 4.9 C 47 4.9 45.9 4.7 45.9 4.7 C 46 4.3 46.2 3.9 46.4 3.7 C 46.6 3.4 46.9 3.2 47.3 3.1 C 47.7 2.9 48.2 2.8 48.7 2.8 C 49.2 2.8 49.6 2.9 50 3 C 50.3 3.2 50.5 3.3 50.7 3.5 C 50.8 3.7 50.9 3.9 51 4.2 C 51 4.4 51 4.7 51 5.1 C 51 5.1 51 6.5 51 6.5 C 51 7.5 51.1 8.1 51.1 8.3 C 51.2 8.6 51.2 8.8 51.4 9.1 C 51.37 9.07 50.3 9.1 50.3 9.1 C 50.3 9.1 50.3 9.07 50.3 9.1 Z M 50 6 C 49.6 6.2 49.1 6.3 48.3 6.4 C 47.9 6.5 47.6 6.5 47.4 6.6 C 47.2 6.7 47.1 6.8 47 6.9 C 46.9 7.1 46.9 7.3 46.9 7.4 C 46.9 7.7 47 7.9 47.2 8.1 C 47.4 8.3 47.7 8.4 48.1 8.4 C 48.5 8.4 48.8 8.3 49.2 8.1 C 49.5 8 49.7 7.7 49.8 7.4 C 49.9 7.2 50 6.8 50 6.4 C 50 6.4 50 6 50 6 Z M 56.6 9.1 C 56.6 9.1 56.59 8.3 56.6 8.3 C 56.2 8.9 55.6 9.2 54.9 9.2 C 54.4 9.2 54 9.1 53.6 8.8 C 53.1 8.5 52.8 8.2 52.6 7.7 C 52.4 7.2 52.3 6.7 52.3 6 C 52.3 5.4 52.4 4.9 52.6 4.4 C 52.8 3.9 53.1 3.5 53.5 3.2 C 53.9 3 54.3 2.8 54.8 2.8 C 55.2 2.8 55.5 2.9 55.8 3.1 C 56.1 3.2 56.3 3.4 56.5 3.7 C 56.52 3.68 56.5 0.7 56.5 0.7 L 57.5 0.7 L 57.5 9.1 L 56.6 9.1 Z M 53.3 6 C 53.3 6.8 53.5 7.4 53.8 7.8 C 54.2 8.2 54.5 8.4 55 8.4 C 55.4 8.4 55.8 8.2 56.1 7.8 C 56.5 7.4 56.6 6.9 56.6 6.1 C 56.6 5.3 56.4 4.7 56.1 4.3 C 55.8 3.9 55.4 3.7 54.9 3.7 C 54.5 3.7 54.1 3.9 53.8 4.3 C 53.5 4.6 53.3 5.2 53.3 6 Z M 68.6 6.1 C 68.6 6.1 69.7 6.4 69.7 6.4 C 69.4 7.3 69 8 68.4 8.5 C 67.8 9 67.1 9.2 66.2 9.2 C 65.3 9.2 64.5 9 64 8.7 C 63.4 8.3 63 7.8 62.7 7.1 C 62.4 6.4 62.2 5.6 62.2 4.8 C 62.2 3.9 62.4 3.2 62.7 2.5 C 63.1 1.9 63.6 1.4 64.2 1 C 64.8 0.7 65.5 0.5 66.2 0.5 C 67 0.5 67.8 0.7 68.3 1.2 C 68.9 1.6 69.3 2.2 69.5 3 C 69.5 3 68.4 3.2 68.4 3.2 C 68.2 2.6 68 2.2 67.6 1.9 C 67.2 1.6 66.7 1.5 66.2 1.5 C 65.5 1.5 65 1.6 64.6 1.9 C 64.1 2.2 63.8 2.7 63.7 3.2 C 63.5 3.7 63.4 4.2 63.4 4.8 C 63.4 5.5 63.5 6.1 63.7 6.7 C 63.9 7.2 64.2 7.6 64.7 7.9 C 65.1 8.1 65.6 8.3 66.1 8.3 C 66.7 8.3 67.2 8.1 67.7 7.7 C 68.1 7.4 68.4 6.8 68.6 6.1 Z M 75.1 7.1 C 75.1 7.1 76.1 7.2 76.1 7.2 C 76 7.9 75.7 8.3 75.2 8.7 C 74.7 9 74.2 9.2 73.5 9.2 C 72.6 9.2 71.9 8.9 71.3 8.4 C 70.8 7.8 70.6 7.1 70.6 6.1 C 70.6 5.1 70.8 4.3 71.4 3.7 C 71.9 3.1 72.6 2.8 73.4 2.8 C 74.2 2.8 74.9 3.1 75.4 3.7 C 75.9 4.2 76.2 5 76.2 6 C 76.2 6.1 76.2 6.2 76.2 6.3 C 76.2 6.3 71.6 6.3 71.6 6.3 C 71.7 7 71.9 7.5 72.2 7.8 C 72.5 8.2 73 8.4 73.5 8.4 C 73.8 8.4 74.2 8.3 74.4 8.1 C 74.7 7.9 74.9 7.5 75.1 7.1 Z M 71.7 5.4 C 71.7 5.4 75.1 5.4 75.1 5.4 C 75 4.9 74.9 4.5 74.7 4.3 C 74.4 3.9 73.9 3.7 73.4 3.7 C 72.9 3.7 72.5 3.9 72.2 4.2 C 71.9 4.5 71.7 4.9 71.7 5.4 Z M 77.4 9.1 L 77.4 3 L 78.4 3 C 78.4 3 78.36 3.85 78.4 3.8 C 78.8 3.2 79.4 2.8 80.3 2.8 C 80.7 2.8 81 2.9 81.3 3 C 81.6 3.2 81.8 3.3 82 3.6 C 82.1 3.8 82.3 4 82.3 4.3 C 82.4 4.5 82.4 4.8 82.4 5.3 C 82.37 5.33 82.4 9.1 82.4 9.1 L 81.3 9.1 C 81.3 9.1 81.34 5.37 81.3 5.4 C 81.3 4.9 81.3 4.6 81.2 4.4 C 81.1 4.2 81 4 80.8 3.9 C 80.6 3.8 80.4 3.7 80.1 3.7 C 79.6 3.7 79.3 3.9 78.9 4.2 C 78.6 4.4 78.5 5 78.5 5.7 C 78.46 5.74 78.5 9.1 78.5 9.1 L 77.4 9.1 Z M 85.8 8.2 C 85.9 8.2 86 8.2 86.2 8.1 C 86.2 8.1 86.4 9.1 86.4 9.1 C 86.1 9.1 85.8 9.1 85.6 9.1 C 85.2 9.1 84.9 9.1 84.7 9 C 84.5 8.9 84.4 8.7 84.3 8.5 C 84.2 8.3 84.1 7.9 84.1 7.3 C 84.14 7.28 84.1 3.8 84.1 3.8 L 83.4 3.8 L 83.4 3 L 84.1 3 L 84.1 1.5 L 85.2 0.9 L 85.2 3 L 86.2 3 L 86.2 3.8 L 85.2 3.8 C 85.2 3.8 85.17 7.34 85.2 7.3 C 85.2 7.6 85.2 7.8 85.2 7.9 C 85.3 8 85.3 8.1 85.4 8.1 C 85.5 8.2 85.6 8.2 85.8 8.2 C 85.8 8.2 85.8 8.2 85.8 8.2 Z M 87.2 9.1 L 87.2 3 L 88.1 3 C 88.1 3 88.13 3.9 88.1 3.9 C 88.4 3.5 88.6 3.2 88.8 3.1 C 89 2.9 89.2 2.8 89.4 2.8 C 89.8 2.8 90.1 3 90.5 3.2 C 90.5 3.2 90.2 4.1 90.2 4.1 C 89.9 4 89.6 3.9 89.4 3.9 C 89.2 3.9 89 4 88.8 4.1 C 88.6 4.2 88.5 4.4 88.4 4.7 C 88.3 5 88.2 5.4 88.2 5.9 C 88.23 5.88 88.2 9.1 88.2 9.1 L 87.2 9.1 Z M 95.3 7.1 C 95.3 7.1 96.4 7.2 96.4 7.2 C 96.2 7.9 95.9 8.3 95.4 8.7 C 95 9 94.4 9.2 93.7 9.2 C 92.8 9.2 92.1 8.9 91.6 8.4 C 91 7.8 90.8 7.1 90.8 6.1 C 90.8 5.1 91 4.3 91.6 3.7 C 92.1 3.1 92.8 2.8 93.6 2.8 C 94.4 2.8 95.1 3.1 95.6 3.7 C 96.1 4.2 96.4 5 96.4 6 C 96.4 6.1 96.4 6.2 96.4 6.3 C 96.4 6.3 91.8 6.3 91.8 6.3 C 91.9 7 92.1 7.5 92.4 7.8 C 92.8 8.2 93.2 8.4 93.7 8.4 C 94.1 8.4 94.4 8.3 94.7 8.1 C 94.9 7.9 95.1 7.5 95.3 7.1 Z M 91.9 5.4 C 91.9 5.4 95.3 5.4 95.3 5.4 C 95.3 4.9 95.1 4.5 94.9 4.3 C 94.6 3.9 94.2 3.7 93.6 3.7 C 93.2 3.7 92.8 3.9 92.4 4.2 C 92.1 4.5 91.9 4.9 91.9 5.4 Z " stroke="none" fill="#ffffff"/>  </g></svg>