<?xml version="1.0" standalone="no"?><!DOCTYPE svg PUBLIC "-//W3C//DTD SVG 1.1//EN" "http://www.w3.org/Graphics/SVG/1.1/DTD/svg11.dtd"><svg xmlns="http://www.w3.org/2000/svg" version="1.1" width="49.1px" height="20.5px" viewBox="0 -4 49.1 20.5" style="top:-4px">  <desc>Join Us</desc>  <defs/>  <g id="Polygon67167">    <path d="M 5.3 6.7 C 5.3 6.7 6.3 6.5 6.3 6.5 C 6.4 7.2 6.5 7.6 6.7 7.9 C 6.9 8.1 7.2 8.2 7.6 8.2 C 7.9 8.2 8.1 8.2 8.3 8 C 8.5 7.9 8.7 7.7 8.7 7.5 C 8.8 7.3 8.8 6.9 8.8 6.5 C 8.84 6.45 8.8 0.7 8.8 0.7 L 10 0.7 C 10 0.7 9.96 6.39 10 6.4 C 10 7.1 9.9 7.6 9.7 8 C 9.5 8.4 9.3 8.7 8.9 8.9 C 8.5 9.1 8.1 9.2 7.6 9.2 C 6.9 9.2 6.3 9 5.9 8.6 C 5.5 8.1 5.3 7.5 5.3 6.7 Z M 11.3 6 C 11.3 4.9 11.6 4.1 12.2 3.5 C 12.7 3.1 13.4 2.8 14.1 2.8 C 14.9 2.8 15.6 3.1 16.2 3.7 C 16.7 4.2 17 5 17 5.9 C 17 6.7 16.8 7.3 16.6 7.8 C 16.4 8.2 16 8.6 15.6 8.8 C 15.1 9.1 14.6 9.2 14.1 9.2 C 13.3 9.2 12.6 8.9 12 8.4 C 11.5 7.8 11.3 7.1 11.3 6 Z M 12.3 6 C 12.3 6.8 12.5 7.4 12.8 7.8 C 13.2 8.2 13.6 8.4 14.1 8.4 C 14.6 8.4 15 8.2 15.4 7.8 C 15.7 7.4 15.9 6.8 15.9 6 C 15.9 5.2 15.7 4.7 15.4 4.3 C 15 3.9 14.6 3.7 14.1 3.7 C 13.6 3.7 13.2 3.9 12.8 4.3 C 12.5 4.7 12.3 5.2 12.3 6 Z M 18.2 1.9 L 18.2 0.7 L 19.2 0.7 L 19.2 1.9 L 18.2 1.9 Z M 18.2 9.1 L 18.2 3 L 19.2 3 L 19.2 9.1 L 18.2 9.1 Z M 20.8 9.1 L 20.8 3 L 21.7 3 C 21.7 3 21.7 3.85 21.7 3.8 C 22.1 3.2 22.8 2.8 23.6 2.8 C 24 2.8 24.3 2.9 24.6 3 C 25 3.2 25.2 3.3 25.3 3.6 C 25.5 3.8 25.6 4 25.7 4.3 C 25.7 4.5 25.7 4.8 25.7 5.3 C 25.72 5.33 25.7 9.1 25.7 9.1 L 24.7 9.1 C 24.7 9.1 24.68 5.37 24.7 5.4 C 24.7 4.9 24.6 4.6 24.6 4.4 C 24.5 4.2 24.3 4 24.1 3.9 C 23.9 3.8 23.7 3.7 23.4 3.7 C 23 3.7 22.6 3.9 22.3 4.2 C 22 4.4 21.8 5 21.8 5.7 C 21.8 5.74 21.8 9.1 21.8 9.1 L 20.8 9.1 Z M 36.2 0.7 L 37.3 0.7 C 37.3 0.7 37.31 5.52 37.3 5.5 C 37.3 6.4 37.2 7 37 7.5 C 36.8 8 36.5 8.4 36 8.7 C 35.5 9.1 34.8 9.2 34 9.2 C 33.2 9.2 32.6 9.1 32.1 8.8 C 31.6 8.5 31.2 8.1 31 7.6 C 30.8 7.1 30.7 6.4 30.7 5.5 C 30.71 5.52 30.7 0.7 30.7 0.7 L 31.8 0.7 C 31.8 0.7 31.82 5.51 31.8 5.5 C 31.8 6.2 31.9 6.8 32 7.1 C 32.2 7.5 32.4 7.7 32.7 7.9 C 33.1 8.1 33.5 8.2 33.9 8.2 C 34.7 8.2 35.3 8 35.7 7.7 C 36 7.3 36.2 6.6 36.2 5.5 C 36.2 5.51 36.2 0.7 36.2 0.7 Z M 38.6 7.3 C 38.6 7.3 39.6 7.1 39.6 7.1 C 39.7 7.5 39.9 7.8 40.1 8 C 40.4 8.2 40.7 8.4 41.2 8.4 C 41.7 8.4 42 8.3 42.3 8.1 C 42.5 7.9 42.6 7.6 42.6 7.4 C 42.6 7.2 42.5 7 42.3 6.8 C 42.2 6.7 41.8 6.6 41.3 6.5 C 40.5 6.3 40 6.1 39.7 6 C 39.4 5.9 39.2 5.7 39 5.4 C 38.9 5.2 38.8 4.9 38.8 4.6 C 38.8 4.3 38.9 4.1 39 3.8 C 39.1 3.6 39.3 3.4 39.5 3.3 C 39.6 3.2 39.9 3.1 40.1 3 C 40.4 2.9 40.7 2.8 41 2.8 C 41.5 2.8 41.9 2.9 42.3 3.1 C 42.6 3.2 42.9 3.4 43.1 3.6 C 43.3 3.8 43.4 4.2 43.4 4.6 C 43.4 4.6 42.4 4.7 42.4 4.7 C 42.4 4.4 42.3 4.1 42 4 C 41.8 3.8 41.5 3.7 41.1 3.7 C 40.6 3.7 40.3 3.8 40.1 3.9 C 39.9 4.1 39.8 4.3 39.8 4.5 C 39.8 4.6 39.8 4.7 39.9 4.8 C 40 4.9 40.1 5 40.3 5.1 C 40.4 5.2 40.7 5.2 41.2 5.4 C 41.9 5.6 42.5 5.7 42.7 5.9 C 43 6 43.3 6.2 43.4 6.4 C 43.6 6.6 43.7 6.9 43.7 7.3 C 43.7 7.6 43.6 7.9 43.4 8.3 C 43.2 8.6 42.9 8.8 42.5 9 C 42.1 9.1 41.7 9.2 41.2 9.2 C 40.4 9.2 39.8 9 39.4 8.7 C 39 8.4 38.7 7.9 38.6 7.3 Z " stroke="none" fill="#f28620"/>  </g></svg>