<?xml version="1.0" standalone="no"?><!DOCTYPE svg PUBLIC "-//W3C//DTD SVG 1.1//EN" "http://www.w3.org/Graphics/SVG/1.1/DTD/svg11.dtd"><svg xmlns="http://www.w3.org/2000/svg" version="1.1" width="121.1px" height="25.1px" viewBox="0 -4 121.1 25.1" style="top:-4px">  <desc>News and Blogs</desc>  <defs/>  <g id="Polygon64598">    <path d="M 8.7 11.3 L 8.7 0.8 L 10.1 0.8 L 15.6 9.1 L 15.6 0.8 L 16.9 0.8 L 16.9 11.3 L 15.5 11.3 L 10 3.1 L 10 11.3 L 8.7 11.3 Z M 24.3 8.9 C 24.3 8.9 25.6 9 25.6 9 C 25.4 9.8 25 10.4 24.5 10.9 C 23.9 11.3 23.2 11.5 22.3 11.5 C 21.2 11.5 20.3 11.2 19.7 10.5 C 19 9.8 18.7 8.8 18.7 7.6 C 18.7 6.3 19 5.3 19.7 4.6 C 20.3 3.9 21.2 3.6 22.2 3.6 C 23.2 3.6 24.1 3.9 24.7 4.6 C 25.4 5.3 25.7 6.3 25.7 7.5 C 25.7 7.6 25.7 7.7 25.7 7.9 C 25.7 7.9 20 7.9 20 7.9 C 20.1 8.7 20.3 9.3 20.7 9.8 C 21.1 10.2 21.7 10.4 22.3 10.4 C 22.8 10.4 23.2 10.3 23.5 10.1 C 23.9 9.8 24.1 9.4 24.3 8.9 Z M 20.1 6.8 C 20.1 6.8 24.3 6.8 24.3 6.8 C 24.3 6.2 24.1 5.7 23.8 5.4 C 23.4 4.9 22.9 4.6 22.2 4.6 C 21.7 4.6 21.2 4.8 20.8 5.2 C 20.3 5.6 20.1 6.1 20.1 6.8 Z M 28.7 11.3 L 26.3 3.7 L 27.7 3.7 L 28.9 8.1 C 28.9 8.1 29.33 9.75 29.3 9.8 C 29.4 9.7 29.5 9.1 29.7 8.2 C 29.73 8.18 30.9 3.7 30.9 3.7 L 32.3 3.7 L 33.4 8.1 L 33.8 9.6 L 34.2 8.1 L 35.5 3.7 L 36.8 3.7 L 34.4 11.3 L 33.1 11.3 L 31.8 6.8 L 31.6 5.5 L 30 11.3 L 28.7 11.3 Z M 37.3 9.1 C 37.3 9.1 38.6 8.9 38.6 8.9 C 38.7 9.4 38.9 9.8 39.2 10 C 39.5 10.3 40 10.4 40.6 10.4 C 41.2 10.4 41.6 10.3 41.9 10.1 C 42.2 9.8 42.3 9.6 42.3 9.2 C 42.3 8.9 42.2 8.7 42 8.5 C 41.8 8.4 41.3 8.3 40.6 8.1 C 39.7 7.9 39 7.7 38.7 7.5 C 38.3 7.3 38 7.1 37.8 6.8 C 37.6 6.5 37.6 6.1 37.6 5.7 C 37.6 5.4 37.6 5.1 37.8 4.8 C 37.9 4.5 38.2 4.3 38.4 4.1 C 38.6 3.9 38.9 3.8 39.2 3.7 C 39.6 3.6 40 3.6 40.4 3.6 C 41 3.6 41.5 3.6 41.9 3.8 C 42.4 4 42.7 4.2 42.9 4.5 C 43.1 4.8 43.3 5.2 43.4 5.7 C 43.4 5.7 42.1 5.9 42.1 5.9 C 42.1 5.5 41.9 5.2 41.6 4.9 C 41.3 4.7 40.9 4.6 40.4 4.6 C 39.9 4.6 39.4 4.7 39.2 4.9 C 38.9 5.1 38.8 5.3 38.8 5.6 C 38.8 5.8 38.9 5.9 39 6 C 39.1 6.2 39.2 6.3 39.5 6.4 C 39.6 6.4 40 6.5 40.6 6.7 C 41.5 7 42.1 7.2 42.5 7.3 C 42.9 7.5 43.1 7.7 43.3 8 C 43.6 8.3 43.7 8.7 43.7 9.1 C 43.7 9.5 43.5 9.9 43.3 10.3 C 43 10.7 42.7 11 42.2 11.2 C 41.7 11.4 41.2 11.5 40.6 11.5 C 39.6 11.5 38.8 11.3 38.3 10.9 C 37.8 10.5 37.5 9.9 37.3 9.1 Z M 54.5 11.3 C 54.4 11.1 54.3 10.8 54.2 10.4 C 53.7 10.8 53.3 11.1 52.8 11.3 C 52.4 11.4 51.9 11.5 51.4 11.5 C 50.6 11.5 49.9 11.3 49.5 10.9 C 49.1 10.5 48.8 10 48.8 9.3 C 48.8 9 48.9 8.6 49.1 8.3 C 49.3 8 49.5 7.8 49.7 7.6 C 50 7.4 50.3 7.2 50.7 7.1 C 50.9 7.1 51.3 7 51.8 7 C 52.9 6.8 53.6 6.7 54.1 6.5 C 54.1 6.3 54.1 6.2 54.1 6.2 C 54.1 5.6 54 5.3 53.8 5.1 C 53.4 4.8 52.9 4.6 52.3 4.6 C 51.7 4.6 51.2 4.7 50.9 4.9 C 50.7 5.2 50.4 5.5 50.3 6.1 C 50.3 6.1 49 5.9 49 5.9 C 49.2 5.4 49.4 4.9 49.6 4.6 C 49.9 4.3 50.3 4 50.8 3.8 C 51.2 3.6 51.8 3.6 52.5 3.6 C 53.1 3.6 53.7 3.6 54.1 3.8 C 54.5 3.9 54.8 4.1 55 4.4 C 55.1 4.6 55.3 4.9 55.4 5.2 C 55.4 5.5 55.4 5.9 55.4 6.4 C 55.4 6.4 55.4 8.1 55.4 8.1 C 55.4 9.3 55.4 10.1 55.5 10.4 C 55.6 10.7 55.7 11 55.8 11.3 C 55.83 11.33 54.5 11.3 54.5 11.3 C 54.5 11.3 54.48 11.33 54.5 11.3 Z M 54.1 7.5 C 53.7 7.7 52.9 7.9 52 8 C 51.5 8.1 51.1 8.2 50.9 8.3 C 50.7 8.4 50.5 8.5 50.4 8.7 C 50.3 8.9 50.2 9.1 50.2 9.3 C 50.2 9.6 50.3 9.9 50.6 10.2 C 50.9 10.4 51.2 10.5 51.7 10.5 C 52.2 10.5 52.7 10.4 53.1 10.2 C 53.4 10 53.7 9.7 53.9 9.3 C 54 9 54.1 8.6 54.1 8 C 54.1 8 54.1 7.5 54.1 7.5 Z M 57.4 11.3 L 57.4 3.7 L 58.6 3.7 C 58.6 3.7 58.58 4.81 58.6 4.8 C 59.1 4 59.9 3.6 61 3.6 C 61.5 3.6 61.9 3.6 62.3 3.8 C 62.6 4 62.9 4.2 63.1 4.5 C 63.3 4.7 63.5 5 63.5 5.4 C 63.6 5.6 63.6 6.1 63.6 6.7 C 63.6 6.66 63.6 11.3 63.6 11.3 L 62.3 11.3 C 62.3 11.3 62.31 6.71 62.3 6.7 C 62.3 6.2 62.3 5.8 62.2 5.5 C 62.1 5.3 61.9 5.1 61.6 4.9 C 61.4 4.8 61.1 4.7 60.7 4.7 C 60.2 4.7 59.7 4.8 59.3 5.2 C 58.9 5.5 58.7 6.2 58.7 7.2 C 58.71 7.18 58.7 11.3 58.7 11.3 L 57.4 11.3 Z M 70.5 11.3 C 70.5 11.3 70.51 10.37 70.5 10.4 C 70 11.1 69.3 11.5 68.4 11.5 C 67.8 11.5 67.2 11.3 66.7 11 C 66.2 10.7 65.8 10.2 65.5 9.6 C 65.3 9 65.1 8.3 65.1 7.5 C 65.1 6.8 65.2 6.1 65.5 5.5 C 65.7 4.9 66.1 4.4 66.6 4.1 C 67.1 3.7 67.7 3.6 68.3 3.6 C 68.8 3.6 69.2 3.7 69.6 3.8 C 69.9 4 70.2 4.3 70.4 4.6 C 70.43 4.6 70.4 0.8 70.4 0.8 L 71.7 0.8 L 71.7 11.3 L 70.5 11.3 Z M 66.4 7.5 C 66.4 8.5 66.6 9.2 67.1 9.7 C 67.5 10.2 67.9 10.4 68.5 10.4 C 69.1 10.4 69.5 10.2 69.9 9.8 C 70.3 9.3 70.5 8.6 70.5 7.6 C 70.5 6.6 70.3 5.8 69.9 5.4 C 69.5 4.9 69 4.6 68.4 4.6 C 67.9 4.6 67.4 4.9 67 5.3 C 66.6 5.8 66.4 6.5 66.4 7.5 Z M 77.9 11.3 L 77.9 0.8 C 77.9 0.8 81.86 0.83 81.9 0.8 C 82.7 0.8 83.3 0.9 83.8 1.2 C 84.3 1.4 84.6 1.7 84.9 2.1 C 85.2 2.6 85.3 3 85.3 3.5 C 85.3 4 85.2 4.4 85 4.8 C 84.7 5.2 84.4 5.5 83.9 5.7 C 84.5 5.9 85 6.3 85.3 6.7 C 85.7 7.1 85.8 7.7 85.8 8.3 C 85.8 8.8 85.7 9.2 85.5 9.7 C 85.3 10.1 85.1 10.4 84.8 10.6 C 84.5 10.9 84.1 11 83.6 11.2 C 83.2 11.3 82.6 11.3 81.9 11.3 C 81.92 11.33 77.9 11.3 77.9 11.3 Z M 79.3 5.2 C 79.3 5.2 81.58 5.25 81.6 5.2 C 82.2 5.2 82.6 5.2 82.9 5.1 C 83.3 5 83.5 4.8 83.7 4.6 C 83.9 4.4 84 4.1 84 3.7 C 84 3.3 83.9 3 83.7 2.8 C 83.5 2.5 83.3 2.3 83 2.2 C 82.7 2.1 82.2 2.1 81.4 2.1 C 81.4 2.07 79.3 2.1 79.3 2.1 L 79.3 5.2 Z M 79.3 10.1 C 79.3 10.1 81.92 10.09 81.9 10.1 C 82.4 10.1 82.7 10.1 82.9 10 C 83.2 10 83.5 9.9 83.7 9.8 C 83.9 9.6 84.1 9.4 84.2 9.2 C 84.3 8.9 84.4 8.6 84.4 8.3 C 84.4 7.9 84.3 7.6 84.1 7.3 C 83.9 7 83.6 6.8 83.3 6.7 C 82.9 6.5 82.4 6.5 81.7 6.5 C 81.73 6.49 79.3 6.5 79.3 6.5 L 79.3 10.1 Z M 87.6 11.3 L 87.6 0.8 L 88.9 0.8 L 88.9 11.3 L 87.6 11.3 Z M 90.4 7.5 C 90.4 6.1 90.8 5.1 91.5 4.4 C 92.2 3.8 93 3.6 93.9 3.6 C 95 3.6 95.8 3.9 96.5 4.6 C 97.2 5.3 97.5 6.2 97.5 7.4 C 97.5 8.4 97.3 9.2 97.1 9.7 C 96.8 10.3 96.3 10.7 95.8 11 C 95.2 11.4 94.6 11.5 93.9 11.5 C 92.9 11.5 92 11.2 91.4 10.5 C 90.7 9.8 90.4 8.8 90.4 7.5 Z M 91.7 7.5 C 91.7 8.5 91.9 9.2 92.3 9.7 C 92.8 10.2 93.3 10.4 93.9 10.4 C 94.6 10.4 95.1 10.2 95.5 9.7 C 96 9.2 96.2 8.5 96.2 7.5 C 96.2 6.5 96 5.8 95.5 5.3 C 95.1 4.9 94.6 4.6 93.9 4.6 C 93.3 4.6 92.8 4.9 92.3 5.3 C 91.9 5.8 91.7 6.6 91.7 7.5 Z M 98.8 12 C 98.8 12 100 12.1 100 12.1 C 100.1 12.5 100.2 12.8 100.5 13 C 100.8 13.2 101.2 13.4 101.8 13.4 C 102.4 13.4 102.8 13.2 103.2 13 C 103.5 12.8 103.7 12.4 103.8 12 C 103.9 11.7 103.9 11.2 103.9 10.3 C 103.3 11 102.6 11.3 101.8 11.3 C 100.8 11.3 99.9 11 99.4 10.2 C 98.8 9.4 98.5 8.5 98.5 7.5 C 98.5 6.8 98.6 6.1 98.9 5.5 C 99.2 4.9 99.5 4.4 100 4.1 C 100.5 3.7 101.1 3.6 101.8 3.6 C 102.7 3.6 103.4 3.9 104 4.6 C 104.03 4.64 104 3.7 104 3.7 L 105.2 3.7 C 105.2 3.7 105.22 10.3 105.2 10.3 C 105.2 11.5 105.1 12.3 104.9 12.8 C 104.6 13.3 104.2 13.7 103.7 14 C 103.2 14.3 102.5 14.4 101.8 14.4 C 100.9 14.4 100.1 14.2 99.6 13.8 C 99 13.4 98.8 12.8 98.8 12 Z M 99.8 7.4 C 99.8 8.4 100 9.1 100.4 9.6 C 100.8 10 101.3 10.3 101.9 10.3 C 102.5 10.3 103 10 103.4 9.6 C 103.8 9.1 104 8.4 104 7.4 C 104 6.5 103.8 5.8 103.4 5.3 C 103 4.9 102.5 4.6 101.9 4.6 C 101.3 4.6 100.8 4.9 100.4 5.3 C 100 5.8 99.8 6.5 99.8 7.4 Z M 106.6 9.1 C 106.6 9.1 107.9 8.9 107.9 8.9 C 108 9.4 108.2 9.8 108.5 10 C 108.8 10.3 109.3 10.4 109.9 10.4 C 110.5 10.4 110.9 10.3 111.2 10.1 C 111.5 9.8 111.6 9.6 111.6 9.2 C 111.6 8.9 111.5 8.7 111.3 8.5 C 111.1 8.4 110.6 8.3 109.9 8.1 C 109 7.9 108.3 7.7 108 7.5 C 107.6 7.3 107.3 7.1 107.1 6.8 C 107 6.5 106.9 6.1 106.9 5.7 C 106.9 5.4 106.9 5.1 107.1 4.8 C 107.3 4.5 107.5 4.3 107.7 4.1 C 107.9 3.9 108.2 3.8 108.5 3.7 C 108.9 3.6 109.3 3.6 109.7 3.6 C 110.3 3.6 110.8 3.6 111.2 3.8 C 111.7 4 112 4.2 112.2 4.5 C 112.4 4.8 112.6 5.2 112.7 5.7 C 112.7 5.7 111.4 5.9 111.4 5.9 C 111.4 5.5 111.2 5.2 110.9 4.9 C 110.6 4.7 110.3 4.6 109.8 4.6 C 109.2 4.6 108.7 4.7 108.5 4.9 C 108.2 5.1 108.1 5.3 108.1 5.6 C 108.1 5.8 108.2 5.9 108.3 6 C 108.4 6.2 108.5 6.3 108.8 6.4 C 108.9 6.4 109.3 6.5 109.9 6.7 C 110.8 7 111.4 7.2 111.8 7.3 C 112.2 7.5 112.5 7.7 112.7 8 C 112.9 8.3 113 8.7 113 9.1 C 113 9.5 112.8 9.9 112.6 10.3 C 112.3 10.7 112 11 111.5 11.2 C 111 11.4 110.5 11.5 109.9 11.5 C 108.9 11.5 108.2 11.3 107.6 10.9 C 107.1 10.5 106.8 9.9 106.6 9.1 Z " stroke="none" fill="#ffffff"/>  </g></svg>