<?xml version="1.0" standalone="no"?><!DOCTYPE svg PUBLIC "-//W3C//DTD SVG 1.1//EN" "http://www.w3.org/Graphics/SVG/1.1/DTD/svg11.dtd"><svg xmlns="http://www.w3.org/2000/svg" version="1.1" width="263.3px" height="97.5px" viewBox="0 -1 263.3 97.5" style="top:-1px">  <desc>End Point Assessment</desc>  <defs/>  <g id="Polygon64681">    <path d="M 72.2 51.2 L 79.8 67.7 L 78.5 67.7 L 75.9 62 L 67.9 62 L 65.3 67.7 L 64 67.7 L 71.5 51.2 L 72.2 51.2 Z M 75.4 61 L 71.9 53.3 L 68.4 61 L 75.4 61 Z M 85.7 51.1 C 87 51.1 88.2 51.5 89.5 52.1 C 89.5 52.1 89.5 53.5 89.5 53.5 C 88.1 52.7 86.8 52.3 85.8 52.3 C 84.8 52.3 84 52.6 83.3 53.2 C 82.7 53.8 82.4 54.5 82.4 55.4 C 82.4 56 82.5 56.6 82.9 57.1 C 83.3 57.6 84.1 58.1 85.4 58.6 C 86.6 59 87.5 59.4 88.1 59.7 C 88.7 60.1 89.2 60.5 89.6 61.1 C 90 61.7 90.2 62.5 90.2 63.4 C 90.2 64.7 89.7 65.7 88.8 66.6 C 87.9 67.5 86.7 67.9 85.4 67.9 C 84 67.9 82.6 67.4 81.2 66.5 C 81.2 66.5 81.2 65 81.2 65 C 82.8 66.1 84.2 66.7 85.3 66.7 C 86.3 66.7 87.1 66.4 87.8 65.8 C 88.5 65.2 88.8 64.4 88.8 63.5 C 88.8 62.8 88.6 62.1 88.2 61.6 C 87.8 61 86.9 60.5 85.6 60 C 84.4 59.5 83.5 59.1 82.9 58.9 C 82.4 58.6 81.9 58.1 81.6 57.6 C 81.2 57 81 56.3 81 55.5 C 81 54.3 81.4 53.2 82.4 52.4 C 83.3 51.5 84.4 51.1 85.7 51.1 C 85.7 51.1 85.7 51.1 85.7 51.1 Z M 97 51.1 C 98.2 51.1 99.5 51.5 100.7 52.1 C 100.7 52.1 100.7 53.5 100.7 53.5 C 99.3 52.7 98.1 52.3 97.1 52.3 C 96.1 52.3 95.3 52.6 94.6 53.2 C 93.9 53.8 93.6 54.5 93.6 55.4 C 93.6 56 93.8 56.6 94.2 57.1 C 94.6 57.6 95.4 58.1 96.7 58.6 C 97.9 59 98.8 59.4 99.4 59.7 C 99.9 60.1 100.4 60.5 100.8 61.1 C 101.2 61.7 101.4 62.5 101.4 63.4 C 101.4 64.7 101 65.7 100 66.6 C 99.1 67.5 98 67.9 96.7 67.9 C 95.3 67.9 93.9 67.4 92.5 66.5 C 92.5 66.5 92.5 65 92.5 65 C 94.1 66.1 95.4 66.7 96.6 66.7 C 97.6 66.7 98.4 66.4 99 65.8 C 99.7 65.2 100 64.4 100 63.5 C 100 62.8 99.8 62.1 99.4 61.6 C 99 61 98.2 60.5 96.9 60 C 95.6 59.5 94.7 59.1 94.2 58.9 C 93.7 58.6 93.2 58.1 92.8 57.6 C 92.4 57 92.2 56.3 92.2 55.5 C 92.2 54.3 92.7 53.2 93.6 52.4 C 94.5 51.5 95.7 51.1 97 51.1 C 97 51.1 97 51.1 97 51.1 Z M 113.3 51.3 L 113.3 52.4 L 105.6 52.4 L 105.6 58.9 L 113.1 58.9 L 113.1 60 L 105.6 60 L 105.6 66.6 L 113.4 66.6 L 113.4 67.7 L 104.3 67.7 L 104.3 51.3 L 113.3 51.3 Z M 120 51.1 C 121.3 51.1 122.5 51.5 123.8 52.1 C 123.8 52.1 123.8 53.5 123.8 53.5 C 122.3 52.7 121.1 52.3 120.1 52.3 C 119.1 52.3 118.3 52.6 117.6 53.2 C 117 53.8 116.6 54.5 116.6 55.4 C 116.6 56 116.8 56.6 117.2 57.1 C 117.6 57.6 118.4 58.1 119.7 58.6 C 120.9 59 121.8 59.4 122.4 59.7 C 123 60.1 123.5 60.5 123.9 61.1 C 124.2 61.7 124.4 62.5 124.4 63.4 C 124.4 64.7 124 65.7 123.1 66.6 C 122.1 67.5 121 67.9 119.7 67.9 C 118.3 67.9 116.9 67.4 115.5 66.5 C 115.5 66.5 115.5 65 115.5 65 C 117.1 66.1 118.5 66.7 119.6 66.7 C 120.6 66.7 121.4 66.4 122.1 65.8 C 122.7 65.2 123.1 64.4 123.1 63.5 C 123.1 62.8 122.9 62.1 122.5 61.6 C 122 61 121.2 60.5 119.9 60 C 118.7 59.5 117.8 59.1 117.2 58.9 C 116.7 58.6 116.2 58.1 115.8 57.6 C 115.5 57 115.3 56.3 115.3 55.5 C 115.3 54.3 115.7 53.2 116.7 52.4 C 117.6 51.5 118.7 51.1 120 51.1 C 120 51.1 120 51.1 120 51.1 Z M 131.2 51.1 C 132.5 51.1 133.8 51.5 135 52.1 C 135 52.1 135 53.5 135 53.5 C 133.6 52.7 132.4 52.3 131.4 52.3 C 130.4 52.3 129.6 52.6 128.9 53.2 C 128.2 53.8 127.9 54.5 127.9 55.4 C 127.9 56 128.1 56.6 128.5 57.1 C 128.9 57.6 129.7 58.1 130.9 58.6 C 132.2 59 133.1 59.4 133.7 59.7 C 134.2 60.1 134.7 60.5 135.1 61.1 C 135.5 61.7 135.7 62.5 135.7 63.4 C 135.7 64.7 135.2 65.7 134.3 66.6 C 133.4 67.5 132.3 67.9 131 67.9 C 129.6 67.9 128.2 67.4 126.8 66.5 C 126.8 66.5 126.8 65 126.8 65 C 128.3 66.1 129.7 66.7 130.9 66.7 C 131.9 66.7 132.7 66.4 133.3 65.8 C 134 65.2 134.3 64.4 134.3 63.5 C 134.3 62.8 134.1 62.1 133.7 61.6 C 133.3 61 132.5 60.5 131.2 60 C 129.9 59.5 129 59.1 128.5 58.9 C 127.9 58.6 127.5 58.1 127.1 57.6 C 126.7 57 126.5 56.3 126.5 55.5 C 126.5 54.3 127 53.2 127.9 52.4 C 128.8 51.5 129.9 51.1 131.2 51.1 C 131.2 51.1 131.2 51.1 131.2 51.1 Z M 146.1 58.9 L 152.3 51.3 L 153.6 51.3 L 153.6 67.7 L 152.3 67.7 L 152.3 53.2 L 146.1 60.8 L 139.8 53.2 L 139.8 67.7 L 138.5 67.7 L 138.5 51.3 L 139.8 51.3 L 146.1 58.9 Z M 166.3 51.3 L 166.3 52.4 L 158.6 52.4 L 158.6 58.9 L 166.1 58.9 L 166.1 60 L 158.6 60 L 158.6 66.6 L 166.5 66.6 L 166.5 67.7 L 157.4 67.7 L 157.4 51.3 L 166.3 51.3 Z M 183.8 51.3 L 183.8 67.7 L 182.8 67.7 L 170.3 53.4 L 170.3 67.7 L 169.1 67.7 L 169.1 51.3 L 170.1 51.3 L 182.6 65.6 L 182.6 51.3 L 183.8 51.3 Z M 199.4 51.3 L 199.4 52.4 L 193.2 52.4 L 193.2 67.7 L 191.9 67.7 L 191.9 52.4 L 185.8 52.4 L 185.8 51.3 L 199.4 51.3 Z " stroke="none" fill="#ffffff"/>  </g>  <g id="Polygon64680">    <path d="M 80.1 22.5 L 80.1 23.6 L 72.5 23.6 L 72.5 30.1 L 79.9 30.1 L 79.9 31.2 L 72.5 31.2 L 72.5 37.8 L 80.3 37.8 L 80.3 38.9 L 71.2 38.9 L 71.2 22.5 L 80.1 22.5 Z M 97.7 22.5 L 97.7 38.9 L 96.6 38.9 L 84.2 24.6 L 84.2 38.9 L 82.9 38.9 L 82.9 22.5 L 84 22.5 L 96.4 36.8 L 96.4 22.5 L 97.7 22.5 Z M 101.4 22.5 C 101.4 22.5 107.17 22.52 107.2 22.5 C 110.1 22.5 112.3 23.3 113.8 24.8 C 115.3 26.3 116.1 28.3 116.1 30.7 C 116.1 33.1 115.3 35 113.8 36.6 C 112.3 38.1 110.2 38.9 107.4 38.9 C 107.39 38.89 101.4 38.9 101.4 38.9 L 101.4 22.5 Z M 102.7 23.6 L 102.7 37.8 C 102.7 37.8 107.32 37.84 107.3 37.8 C 109.4 37.8 111.2 37.2 112.6 35.9 C 114 34.6 114.7 32.9 114.7 30.7 C 114.7 28.6 114 26.9 112.6 25.6 C 111.3 24.2 109.4 23.6 107.2 23.6 C 107.24 23.57 102.7 23.6 102.7 23.6 Z M 123.9 32.9 L 123.9 34 L 118.2 34 L 118.2 32.9 L 123.9 32.9 Z M 126.7 22.5 C 126.7 22.5 131.2 22.52 131.2 22.5 C 132.9 22.5 134.3 22.9 135.2 23.7 C 136.1 24.5 136.5 25.5 136.5 26.8 C 136.5 28.2 136.1 29.3 135.2 30.1 C 134.2 30.8 132.9 31.2 131.1 31.2 C 131.09 31.24 128 31.2 128 31.2 L 128 38.9 L 126.7 38.9 L 126.7 22.5 Z M 128 23.6 L 128 30.2 C 128 30.2 131 30.18 131 30.2 C 132.4 30.2 133.4 29.9 134.1 29.3 C 134.8 28.7 135.2 27.9 135.2 26.9 C 135.2 25.9 134.8 25.1 134.1 24.5 C 133.4 23.9 132.5 23.6 131.2 23.6 C 131.16 23.57 128 23.6 128 23.6 Z M 146.9 22.3 C 149.3 22.3 151.4 23.1 153.1 24.8 C 154.8 26.4 155.6 28.4 155.6 30.7 C 155.6 33 154.8 35 153.1 36.7 C 151.4 38.3 149.3 39.1 146.9 39.1 C 144.5 39.1 142.5 38.3 140.8 36.7 C 139.1 35 138.3 33 138.3 30.7 C 138.3 28.4 139.1 26.4 140.8 24.8 C 142.5 23.1 144.5 22.3 146.9 22.3 Z M 147 37.9 C 149 37.9 150.7 37.2 152.1 35.8 C 153.5 34.4 154.2 32.7 154.2 30.7 C 154.2 28.7 153.5 27 152.1 25.6 C 150.7 24.2 149 23.5 147 23.5 C 144.9 23.5 143.2 24.2 141.8 25.6 C 140.4 27 139.6 28.7 139.6 30.7 C 139.6 32.7 140.4 34.4 141.8 35.8 C 143.2 37.2 144.9 37.9 147 37.9 Z M 159.9 22.5 L 159.9 38.9 L 158.7 38.9 L 158.7 22.5 L 159.9 22.5 Z M 178.4 22.5 L 178.4 38.9 L 177.4 38.9 L 164.9 24.6 L 164.9 38.9 L 163.7 38.9 L 163.7 22.5 L 164.7 22.5 L 177.2 36.8 L 177.2 22.5 L 178.4 22.5 Z M 194 22.5 L 194 23.6 L 187.8 23.6 L 187.8 38.9 L 186.5 38.9 L 186.5 23.6 L 180.4 23.6 L 180.4 22.5 L 194 22.5 Z " stroke="none" fill="#ffffff"/>  </g></svg>