<?xml version="1.0" standalone="no"?><!DOCTYPE svg PUBLIC "-//W3C//DTD SVG 1.1//EN" "http://www.w3.org/Graphics/SVG/1.1/DTD/svg11.dtd"><svg xmlns="http://www.w3.org/2000/svg" version="1.1" width="58.1px" height="20.5px" viewBox="0 -4 58.1 20.5" style="top:-4px">  <desc>About Us</desc>  <defs/>  <g id="Polygon67011">    <path d="M 4.9 9.1 L 8.1 0.7 L 9.3 0.7 L 12.8 9.1 L 11.5 9.1 L 10.5 6.5 L 7 6.5 L 6.1 9.1 L 4.9 9.1 Z M 7.3 5.6 L 10.2 5.6 C 10.2 5.6 9.3 3.29 9.3 3.3 C 9 2.6 8.8 2 8.7 1.5 C 8.6 2.1 8.5 2.6 8.3 3.2 C 8.26 3.15 7.3 5.6 7.3 5.6 Z M 14.5 9.1 L 13.5 9.1 L 13.5 0.7 L 14.6 0.7 C 14.6 0.7 14.55 3.66 14.6 3.7 C 15 3.1 15.5 2.8 16.2 2.8 C 16.6 2.8 16.9 2.9 17.3 3.1 C 17.6 3.2 17.9 3.4 18.1 3.7 C 18.3 4 18.5 4.3 18.6 4.7 C 18.7 5.1 18.8 5.5 18.8 5.9 C 18.8 7 18.5 7.8 18 8.4 C 17.5 8.9 16.9 9.2 16.2 9.2 C 15.5 9.2 14.9 8.9 14.5 8.3 C 14.48 8.3 14.5 9.1 14.5 9.1 Z M 14.5 6 C 14.5 6.7 14.6 7.2 14.8 7.6 C 15.1 8.1 15.5 8.4 16.1 8.4 C 16.5 8.4 16.9 8.2 17.3 7.8 C 17.6 7.4 17.7 6.8 17.7 6 C 17.7 5.2 17.6 4.6 17.3 4.3 C 17 3.9 16.6 3.7 16.1 3.7 C 15.7 3.7 15.3 3.9 15 4.3 C 14.6 4.7 14.5 5.2 14.5 6 Z M 19.7 6 C 19.7 4.9 20 4.1 20.6 3.5 C 21.1 3.1 21.8 2.8 22.5 2.8 C 23.4 2.8 24 3.1 24.6 3.7 C 25.1 4.2 25.4 5 25.4 5.9 C 25.4 6.7 25.3 7.3 25 7.8 C 24.8 8.2 24.4 8.6 24 8.8 C 23.5 9.1 23.1 9.2 22.5 9.2 C 21.7 9.2 21 8.9 20.5 8.4 C 19.9 7.8 19.7 7.1 19.7 6 Z M 20.7 6 C 20.7 6.8 20.9 7.4 21.2 7.8 C 21.6 8.2 22 8.4 22.5 8.4 C 23 8.4 23.5 8.2 23.8 7.8 C 24.1 7.4 24.3 6.8 24.3 6 C 24.3 5.2 24.1 4.7 23.8 4.3 C 23.5 3.9 23 3.7 22.5 3.7 C 22 3.7 21.6 3.9 21.2 4.3 C 20.9 4.7 20.7 5.2 20.7 6 Z M 30.6 9.1 C 30.6 9.1 30.57 8.17 30.6 8.2 C 30.1 8.9 29.4 9.2 28.6 9.2 C 28.3 9.2 27.9 9.1 27.6 9 C 27.3 8.9 27.1 8.7 26.9 8.5 C 26.8 8.3 26.7 8 26.6 7.7 C 26.6 7.5 26.6 7.2 26.6 6.8 C 26.56 6.75 26.6 3 26.6 3 L 27.6 3 C 27.6 3 27.59 6.36 27.6 6.4 C 27.6 6.9 27.6 7.3 27.6 7.4 C 27.7 7.7 27.9 7.9 28.1 8.1 C 28.3 8.2 28.5 8.3 28.8 8.3 C 29.2 8.3 29.4 8.2 29.7 8.1 C 30 7.9 30.2 7.7 30.3 7.4 C 30.4 7.2 30.5 6.8 30.5 6.2 C 30.46 6.24 30.5 3 30.5 3 L 31.5 3 L 31.5 9.1 L 30.6 9.1 Z M 34.9 8.2 C 35 8.2 35.2 8.2 35.4 8.1 C 35.4 8.1 35.5 9.1 35.5 9.1 C 35.2 9.1 35 9.1 34.7 9.1 C 34.4 9.1 34.1 9.1 33.9 9 C 33.6 8.9 33.5 8.7 33.4 8.5 C 33.3 8.3 33.3 7.9 33.3 7.3 C 33.29 7.28 33.3 3.8 33.3 3.8 L 32.5 3.8 L 32.5 3 L 33.3 3 L 33.3 1.5 L 34.3 0.9 L 34.3 3 L 35.4 3 L 35.4 3.8 L 34.3 3.8 C 34.3 3.8 34.32 7.34 34.3 7.3 C 34.3 7.6 34.3 7.8 34.4 7.9 C 34.4 8 34.5 8.1 34.6 8.1 C 34.6 8.2 34.7 8.2 34.9 8.2 C 34.9 8.2 34.9 8.2 34.9 8.2 Z M 45.3 0.7 L 46.4 0.7 C 46.4 0.7 46.38 5.52 46.4 5.5 C 46.4 6.4 46.3 7 46.1 7.5 C 45.9 8 45.6 8.4 45.1 8.7 C 44.6 9.1 43.9 9.2 43.1 9.2 C 42.3 9.2 41.7 9.1 41.2 8.8 C 40.7 8.5 40.3 8.1 40.1 7.6 C 39.9 7.1 39.8 6.4 39.8 5.5 C 39.77 5.52 39.8 0.7 39.8 0.7 L 40.9 0.7 C 40.9 0.7 40.88 5.51 40.9 5.5 C 40.9 6.2 41 6.8 41.1 7.1 C 41.2 7.5 41.5 7.7 41.8 7.9 C 42.1 8.1 42.5 8.2 43 8.2 C 43.8 8.2 44.4 8 44.7 7.7 C 45.1 7.3 45.3 6.6 45.3 5.5 C 45.27 5.51 45.3 0.7 45.3 0.7 Z M 47.7 7.3 C 47.7 7.3 48.7 7.1 48.7 7.1 C 48.8 7.5 48.9 7.8 49.2 8 C 49.4 8.2 49.8 8.4 50.3 8.4 C 50.8 8.4 51.1 8.3 51.3 8.1 C 51.6 7.9 51.7 7.6 51.7 7.4 C 51.7 7.2 51.6 7 51.4 6.8 C 51.2 6.7 50.9 6.6 50.3 6.5 C 49.6 6.3 49 6.1 48.7 6 C 48.5 5.9 48.2 5.7 48.1 5.4 C 47.9 5.2 47.9 4.9 47.9 4.6 C 47.9 4.3 47.9 4.1 48 3.8 C 48.2 3.6 48.3 3.4 48.5 3.3 C 48.7 3.2 48.9 3.1 49.2 3 C 49.5 2.9 49.8 2.8 50.1 2.8 C 50.6 2.8 51 2.9 51.4 3.1 C 51.7 3.2 52 3.4 52.2 3.6 C 52.3 3.8 52.4 4.2 52.5 4.6 C 52.5 4.6 51.5 4.7 51.5 4.7 C 51.5 4.4 51.3 4.1 51.1 4 C 50.9 3.8 50.6 3.7 50.2 3.7 C 49.7 3.7 49.4 3.8 49.2 3.9 C 49 4.1 48.9 4.3 48.9 4.5 C 48.9 4.6 48.9 4.7 49 4.8 C 49.1 4.9 49.2 5 49.4 5.1 C 49.5 5.2 49.8 5.2 50.3 5.4 C 51 5.6 51.5 5.7 51.8 5.9 C 52.1 6 52.3 6.2 52.5 6.4 C 52.7 6.6 52.7 6.9 52.7 7.3 C 52.7 7.6 52.6 7.9 52.4 8.3 C 52.2 8.6 51.9 8.8 51.6 9 C 51.2 9.1 50.8 9.2 50.3 9.2 C 49.5 9.2 48.9 9 48.5 8.7 C 48.1 8.4 47.8 7.9 47.7 7.3 Z " stroke="none" fill="#f28620"/>  </g></svg>