<?xml version="1.0" standalone="no"?><!DOCTYPE svg PUBLIC "-//W3C//DTD SVG 1.1//EN" "http://www.w3.org/Graphics/SVG/1.1/DTD/svg11.dtd"><svg xmlns="http://www.w3.org/2000/svg" version="1.1" width="263.3px" height="124.1px" viewBox="0 0 263.3 124.1">  <desc>When capacity, resources and capabilities are stretched, we provide the people and skills you need to succeed.</desc>  <defs/>  <g id="Polygon65009">    <path d="M 102.8 89.8 C 102.8 89.8 104 89.6 104 89.6 C 104.1 90.1 104.3 90.5 104.6 90.8 C 105 91 105.4 91.2 106 91.2 C 106.6 91.2 107 91.1 107.3 90.8 C 107.6 90.6 107.8 90.3 107.8 90 C 107.8 89.7 107.6 89.5 107.4 89.3 C 107.2 89.2 106.8 89 106.1 88.8 C 105.1 88.6 104.5 88.4 104.1 88.2 C 103.7 88.1 103.5 87.8 103.3 87.5 C 103.1 87.2 103 86.9 103 86.5 C 103 86.1 103.1 85.8 103.2 85.5 C 103.4 85.3 103.6 85 103.8 84.8 C 104 84.7 104.3 84.6 104.7 84.4 C 105 84.3 105.4 84.3 105.8 84.3 C 106.4 84.3 106.9 84.4 107.4 84.6 C 107.8 84.7 108.1 85 108.4 85.3 C 108.6 85.5 108.7 85.9 108.8 86.4 C 108.8 86.4 107.5 86.6 107.5 86.6 C 107.5 86.2 107.3 85.9 107 85.7 C 106.8 85.5 106.4 85.4 105.9 85.4 C 105.3 85.4 104.9 85.5 104.6 85.6 C 104.4 85.8 104.2 86.1 104.2 86.3 C 104.2 86.5 104.3 86.7 104.4 86.8 C 104.5 86.9 104.7 87 104.9 87.1 C 105 87.2 105.4 87.3 106 87.5 C 106.9 87.7 107.6 87.9 107.9 88.1 C 108.3 88.2 108.6 88.4 108.8 88.7 C 109 89 109.1 89.4 109.1 89.8 C 109.1 90.3 109 90.7 108.7 91.1 C 108.5 91.4 108.1 91.7 107.6 91.9 C 107.1 92.1 106.6 92.2 106 92.2 C 105 92.2 104.3 92 103.8 91.6 C 103.2 91.2 102.9 90.6 102.8 89.8 Z M 115.6 92.1 C 115.6 92.1 115.6 90.96 115.6 91 C 115 91.8 114.2 92.2 113.2 92.2 C 112.7 92.2 112.3 92.2 111.9 92 C 111.5 91.8 111.3 91.6 111.1 91.3 C 110.9 91.1 110.7 90.8 110.7 90.4 C 110.6 90.1 110.6 89.7 110.6 89.2 C 110.59 89.18 110.6 84.5 110.6 84.5 L 111.9 84.5 C 111.9 84.5 111.88 88.68 111.9 88.7 C 111.9 89.4 111.9 89.8 112 90 C 112 90.4 112.2 90.7 112.5 90.8 C 112.7 91 113.1 91.1 113.4 91.1 C 113.8 91.1 114.2 91 114.5 90.8 C 114.9 90.6 115.1 90.4 115.3 90 C 115.4 89.7 115.5 89.2 115.5 88.5 C 115.46 88.54 115.5 84.5 115.5 84.5 L 116.8 84.5 L 116.8 92.1 L 115.6 92.1 Z M 123.7 89.3 C 123.7 89.3 125 89.5 125 89.5 C 124.9 90.3 124.5 91 123.9 91.5 C 123.4 92 122.7 92.2 121.8 92.2 C 120.8 92.2 120 91.9 119.3 91.2 C 118.7 90.5 118.4 89.6 118.4 88.3 C 118.4 87.5 118.5 86.8 118.8 86.1 C 119.1 85.5 119.5 85.1 120 84.8 C 120.6 84.4 121.2 84.3 121.8 84.3 C 122.7 84.3 123.3 84.5 123.9 84.9 C 124.4 85.3 124.7 85.9 124.9 86.7 C 124.9 86.7 123.6 86.9 123.6 86.9 C 123.5 86.4 123.3 86 123 85.7 C 122.7 85.5 122.3 85.4 121.9 85.4 C 121.2 85.4 120.7 85.6 120.3 86.1 C 119.9 86.5 119.7 87.3 119.7 88.3 C 119.7 89.3 119.9 90 120.3 90.5 C 120.7 91 121.2 91.2 121.8 91.2 C 122.3 91.2 122.8 91 123.1 90.7 C 123.4 90.4 123.6 89.9 123.7 89.3 Z M 131.1 89.3 C 131.1 89.3 132.3 89.5 132.3 89.5 C 132.2 90.3 131.8 91 131.3 91.5 C 130.7 92 130 92.2 129.2 92.2 C 128.1 92.2 127.3 91.9 126.7 91.2 C 126 90.5 125.7 89.6 125.7 88.3 C 125.7 87.5 125.8 86.8 126.1 86.1 C 126.4 85.5 126.8 85.1 127.4 84.8 C 127.9 84.4 128.5 84.3 129.2 84.3 C 130 84.3 130.7 84.5 131.2 84.9 C 131.7 85.3 132.1 85.9 132.2 86.7 C 132.2 86.7 131 86.9 131 86.9 C 130.8 86.4 130.6 86 130.3 85.7 C 130 85.5 129.7 85.4 129.2 85.4 C 128.6 85.4 128.1 85.6 127.6 86.1 C 127.2 86.5 127 87.3 127 88.3 C 127 89.3 127.2 90 127.6 90.5 C 128 91 128.5 91.2 129.2 91.2 C 129.7 91.2 130.1 91 130.4 90.7 C 130.8 90.4 131 89.9 131.1 89.3 Z M 138.6 89.6 C 138.6 89.6 140 89.8 140 89.8 C 139.8 90.6 139.4 91.2 138.8 91.6 C 138.2 92 137.5 92.2 136.6 92.2 C 135.5 92.2 134.6 91.9 134 91.2 C 133.3 90.5 133 89.6 133 88.3 C 133 87.1 133.3 86.1 134 85.4 C 134.7 84.6 135.5 84.3 136.6 84.3 C 137.6 84.3 138.4 84.6 139.1 85.3 C 139.7 86 140 87 140 88.3 C 140 88.3 140 88.4 140 88.6 C 140 88.6 134.3 88.6 134.3 88.6 C 134.4 89.4 134.6 90.1 135.1 90.5 C 135.5 91 136 91.2 136.6 91.2 C 137.1 91.2 137.5 91.1 137.9 90.8 C 138.2 90.6 138.4 90.2 138.6 89.6 Z M 134.4 87.5 C 134.4 87.5 138.7 87.5 138.7 87.5 C 138.6 86.9 138.4 86.4 138.2 86.1 C 137.8 85.6 137.2 85.4 136.6 85.4 C 136 85.4 135.5 85.6 135.1 85.9 C 134.7 86.3 134.5 86.9 134.4 87.5 Z M 146.8 89.6 C 146.8 89.6 148.1 89.8 148.1 89.8 C 147.9 90.6 147.5 91.2 147 91.6 C 146.4 92 145.7 92.2 144.8 92.2 C 143.7 92.2 142.8 91.9 142.1 91.2 C 141.5 90.5 141.2 89.6 141.2 88.3 C 141.2 87.1 141.5 86.1 142.2 85.4 C 142.8 84.6 143.7 84.3 144.7 84.3 C 145.7 84.3 146.6 84.6 147.2 85.3 C 147.9 86 148.2 87 148.2 88.3 C 148.2 88.3 148.2 88.4 148.2 88.6 C 148.2 88.6 142.5 88.6 142.5 88.6 C 142.5 89.4 142.8 90.1 143.2 90.5 C 143.6 91 144.2 91.2 144.8 91.2 C 145.3 91.2 145.7 91.1 146 90.8 C 146.3 90.6 146.6 90.2 146.8 89.6 Z M 142.6 87.5 C 142.6 87.5 146.8 87.5 146.8 87.5 C 146.8 86.9 146.6 86.4 146.3 86.1 C 145.9 85.6 145.4 85.4 144.7 85.4 C 144.1 85.4 143.6 85.6 143.2 85.9 C 142.8 86.3 142.6 86.9 142.6 87.5 Z M 154.7 92.1 C 154.7 92.1 154.69 91.11 154.7 91.1 C 154.2 91.9 153.5 92.2 152.6 92.2 C 152 92.2 151.4 92.1 150.9 91.7 C 150.4 91.4 150 90.9 149.7 90.3 C 149.4 89.7 149.3 89.1 149.3 88.3 C 149.3 87.5 149.4 86.8 149.7 86.2 C 149.9 85.6 150.3 85.1 150.8 84.8 C 151.3 84.5 151.9 84.3 152.5 84.3 C 153 84.3 153.4 84.4 153.7 84.6 C 154.1 84.8 154.4 85 154.6 85.3 C 154.6 85.34 154.6 81.6 154.6 81.6 L 155.9 81.6 L 155.9 92.1 L 154.7 92.1 Z M 150.6 88.3 C 150.6 89.3 150.8 90 151.2 90.5 C 151.6 90.9 152.1 91.2 152.7 91.2 C 153.2 91.2 153.7 91 154.1 90.5 C 154.5 90 154.7 89.3 154.7 88.4 C 154.7 87.3 154.5 86.6 154.1 86.1 C 153.7 85.6 153.2 85.4 152.6 85.4 C 152.1 85.4 151.6 85.6 151.2 86.1 C 150.8 86.5 150.6 87.3 150.6 88.3 Z M 158.3 92.1 L 158.3 90.6 L 159.7 90.6 L 159.7 92.1 L 158.3 92.1 Z " stroke="none" fill="#fff"/>  </g>  <g id="Polygon65008">    <path d="M 28.1 73.4 C 28.2 73.4 28.4 73.4 28.6 73.3 C 28.6 73.3 28.8 74.5 28.8 74.5 C 28.5 74.5 28.1 74.6 27.8 74.6 C 27.4 74.6 27 74.5 26.8 74.4 C 26.5 74.2 26.3 74 26.2 73.8 C 26.1 73.5 26.1 73 26.1 72.2 C 26.05 72.24 26.1 67.9 26.1 67.9 L 25.1 67.9 L 25.1 66.9 L 26.1 66.9 L 26.1 65 L 27.3 64.2 L 27.3 66.9 L 28.6 66.9 L 28.6 67.9 L 27.3 67.9 C 27.3 67.9 27.34 72.32 27.3 72.3 C 27.3 72.7 27.4 72.9 27.4 73 C 27.4 73.1 27.5 73.2 27.6 73.3 C 27.7 73.3 27.9 73.4 28.1 73.4 C 28.1 73.4 28.1 73.4 28.1 73.4 Z M 29.9 74.5 L 29.9 64 L 31.2 64 C 31.2 64 31.18 67.74 31.2 67.7 C 31.8 67 32.5 66.7 33.5 66.7 C 34 66.7 34.5 66.8 34.9 67 C 35.3 67.2 35.6 67.6 35.8 67.9 C 36 68.3 36.1 68.9 36.1 69.7 C 36.09 69.65 36.1 74.5 36.1 74.5 L 34.8 74.5 C 34.8 74.5 34.8 69.65 34.8 69.7 C 34.8 69 34.7 68.5 34.4 68.2 C 34.1 68 33.7 67.8 33.2 67.8 C 32.8 67.8 32.5 67.9 32.1 68.1 C 31.8 68.3 31.5 68.6 31.4 68.9 C 31.3 69.2 31.2 69.7 31.2 70.3 C 31.18 70.31 31.2 74.5 31.2 74.5 L 29.9 74.5 Z M 43.3 72 C 43.3 72 44.6 72.2 44.6 72.2 C 44.4 73 44 73.6 43.4 74 C 42.9 74.4 42.1 74.6 41.2 74.6 C 40.1 74.6 39.2 74.3 38.6 73.6 C 37.9 72.9 37.6 72 37.6 70.7 C 37.6 69.5 37.9 68.5 38.6 67.8 C 39.3 67 40.1 66.7 41.2 66.7 C 42.2 66.7 43 67 43.7 67.7 C 44.3 68.4 44.6 69.4 44.6 70.7 C 44.6 70.7 44.6 70.8 44.6 71 C 44.6 71 39 71 39 71 C 39 71.8 39.2 72.5 39.7 72.9 C 40.1 73.4 40.6 73.6 41.2 73.6 C 41.7 73.6 42.1 73.5 42.5 73.2 C 42.8 73 43.1 72.6 43.3 72 Z M 39 69.9 C 39 69.9 43.3 69.9 43.3 69.9 C 43.2 69.3 43 68.8 42.8 68.5 C 42.4 68 41.8 67.8 41.2 67.8 C 40.6 67.8 40.1 68 39.7 68.3 C 39.3 68.7 39.1 69.3 39 69.9 Z M 50.3 77.4 L 50.3 66.9 L 51.5 66.9 C 51.5 66.9 51.45 67.86 51.5 67.9 C 51.7 67.5 52 67.2 52.4 67 C 52.7 66.8 53.2 66.7 53.7 66.7 C 54.3 66.7 54.9 66.9 55.4 67.2 C 55.9 67.5 56.3 68 56.5 68.6 C 56.8 69.2 56.9 69.9 56.9 70.6 C 56.9 71.4 56.7 72.1 56.5 72.7 C 56.2 73.3 55.8 73.8 55.2 74.1 C 54.7 74.5 54.2 74.6 53.6 74.6 C 53.1 74.6 52.8 74.6 52.4 74.4 C 52.1 74.2 51.8 74 51.6 73.7 C 51.57 73.68 51.6 77.4 51.6 77.4 L 50.3 77.4 Z M 51.4 70.7 C 51.4 71.7 51.6 72.4 52 72.9 C 52.4 73.4 52.9 73.6 53.5 73.6 C 54.1 73.6 54.5 73.3 55 72.9 C 55.4 72.4 55.6 71.6 55.6 70.6 C 55.6 69.6 55.4 68.9 55 68.4 C 54.6 67.9 54.1 67.7 53.5 67.7 C 53 67.7 52.5 68 52.1 68.5 C 51.7 69 51.4 69.7 51.4 70.7 Z M 63.6 72 C 63.6 72 65 72.2 65 72.2 C 64.8 73 64.4 73.6 63.8 74 C 63.2 74.4 62.5 74.6 61.6 74.6 C 60.5 74.6 59.6 74.3 59 73.6 C 58.3 72.9 58 72 58 70.7 C 58 69.5 58.3 68.5 59 67.8 C 59.7 67 60.5 66.7 61.6 66.7 C 62.6 66.7 63.4 67 64.1 67.7 C 64.7 68.4 65 69.4 65 70.7 C 65 70.7 65 70.8 65 71 C 65 71 59.3 71 59.3 71 C 59.4 71.8 59.6 72.5 60 72.9 C 60.5 73.4 61 73.6 61.6 73.6 C 62.1 73.6 62.5 73.5 62.8 73.2 C 63.2 73 63.4 72.6 63.6 72 Z M 59.4 69.9 C 59.4 69.9 63.7 69.9 63.7 69.9 C 63.6 69.3 63.4 68.8 63.2 68.5 C 62.8 68 62.2 67.8 61.6 67.8 C 61 67.8 60.5 68 60.1 68.3 C 59.7 68.7 59.5 69.3 59.4 69.9 Z M 66.1 70.7 C 66.1 69.3 66.5 68.2 67.3 67.5 C 67.9 67 68.7 66.7 69.7 66.7 C 70.7 66.7 71.6 67 72.2 67.7 C 72.9 68.4 73.2 69.4 73.2 70.6 C 73.2 71.5 73.1 72.3 72.8 72.9 C 72.5 73.4 72.1 73.9 71.5 74.2 C 71 74.5 70.3 74.6 69.7 74.6 C 68.6 74.6 67.8 74.3 67.1 73.6 C 66.4 72.9 66.1 72 66.1 70.7 Z M 67.4 70.7 C 67.4 71.6 67.7 72.4 68.1 72.9 C 68.5 73.3 69 73.6 69.7 73.6 C 70.3 73.6 70.9 73.3 71.3 72.9 C 71.7 72.4 71.9 71.6 71.9 70.6 C 71.9 69.7 71.7 69 71.3 68.5 C 70.8 68 70.3 67.8 69.7 67.8 C 69 67.8 68.5 68 68.1 68.5 C 67.7 69 67.4 69.7 67.4 70.7 Z M 74.8 77.4 L 74.8 66.9 L 75.9 66.9 C 75.9 66.9 75.93 67.86 75.9 67.9 C 76.2 67.5 76.5 67.2 76.9 67 C 77.2 66.8 77.6 66.7 78.1 66.7 C 78.8 66.7 79.4 66.9 79.9 67.2 C 80.3 67.5 80.7 68 81 68.6 C 81.2 69.2 81.4 69.9 81.4 70.6 C 81.4 71.4 81.2 72.1 80.9 72.7 C 80.7 73.3 80.2 73.8 79.7 74.1 C 79.2 74.5 78.6 74.6 78 74.6 C 77.6 74.6 77.2 74.6 76.9 74.4 C 76.5 74.2 76.3 74 76 73.7 C 76.04 73.68 76 77.4 76 77.4 L 74.8 77.4 Z M 75.9 70.7 C 75.9 71.7 76.1 72.4 76.5 72.9 C 76.9 73.4 77.4 73.6 78 73.6 C 78.5 73.6 79 73.3 79.4 72.9 C 79.8 72.4 80 71.6 80 70.6 C 80 69.6 79.8 68.9 79.4 68.4 C 79 67.9 78.6 67.7 78 67.7 C 77.5 67.7 77 68 76.6 68.5 C 76.1 69 75.9 69.7 75.9 70.7 Z M 82.9 74.5 L 82.9 64 L 84.2 64 L 84.2 74.5 L 82.9 74.5 Z M 91.4 72 C 91.4 72 92.7 72.2 92.7 72.2 C 92.5 73 92.1 73.6 91.5 74 C 91 74.4 90.2 74.6 89.4 74.6 C 88.2 74.6 87.4 74.3 86.7 73.6 C 86.1 72.9 85.7 72 85.7 70.7 C 85.7 69.5 86.1 68.5 86.7 67.8 C 87.4 67 88.2 66.7 89.3 66.7 C 90.3 66.7 91.1 67 91.8 67.7 C 92.4 68.4 92.7 69.4 92.7 70.7 C 92.7 70.7 92.7 70.8 92.7 71 C 92.7 71 87.1 71 87.1 71 C 87.1 71.8 87.4 72.5 87.8 72.9 C 88.2 73.4 88.7 73.6 89.4 73.6 C 89.8 73.6 90.2 73.5 90.6 73.2 C 90.9 73 91.2 72.6 91.4 72 Z M 87.1 69.9 C 87.1 69.9 91.4 69.9 91.4 69.9 C 91.3 69.3 91.2 68.8 90.9 68.5 C 90.5 68 90 67.8 89.3 67.8 C 88.7 67.8 88.2 68 87.8 68.3 C 87.4 68.7 87.2 69.3 87.1 69.9 Z M 103.6 74.5 C 103.5 74.2 103.4 73.9 103.4 73.5 C 102.9 73.9 102.4 74.2 102 74.4 C 101.5 74.6 101.1 74.6 100.6 74.6 C 99.7 74.6 99.1 74.4 98.6 74 C 98.2 73.6 98 73.1 98 72.5 C 98 72.1 98 71.8 98.2 71.4 C 98.4 71.1 98.6 70.9 98.9 70.7 C 99.2 70.5 99.5 70.4 99.8 70.3 C 100.1 70.2 100.4 70.2 101 70.1 C 102 70 102.8 69.8 103.3 69.6 C 103.3 69.5 103.3 69.4 103.3 69.3 C 103.3 68.8 103.1 68.4 102.9 68.2 C 102.6 67.9 102.1 67.8 101.4 67.8 C 100.8 67.8 100.4 67.9 100.1 68.1 C 99.8 68.3 99.6 68.7 99.4 69.2 C 99.4 69.2 98.2 69 98.2 69 C 98.3 68.5 98.5 68.1 98.7 67.7 C 99 67.4 99.4 67.1 99.9 67 C 100.4 66.8 101 66.7 101.6 66.7 C 102.3 66.7 102.8 66.8 103.2 66.9 C 103.6 67.1 103.9 67.3 104.1 67.5 C 104.3 67.7 104.4 68 104.5 68.4 C 104.5 68.6 104.6 69 104.6 69.6 C 104.6 69.6 104.6 71.3 104.6 71.3 C 104.6 72.5 104.6 73.2 104.6 73.6 C 104.7 73.9 104.8 74.2 105 74.5 C 104.97 74.47 103.6 74.5 103.6 74.5 C 103.6 74.5 103.62 74.47 103.6 74.5 Z M 103.3 70.7 C 102.8 70.8 102.1 71 101.1 71.1 C 100.6 71.2 100.2 71.3 100 71.4 C 99.8 71.5 99.6 71.6 99.5 71.8 C 99.4 72 99.3 72.2 99.3 72.4 C 99.3 72.8 99.5 73.1 99.7 73.3 C 100 73.5 100.4 73.6 100.9 73.6 C 101.4 73.6 101.8 73.5 102.2 73.3 C 102.6 73.1 102.9 72.8 103 72.4 C 103.2 72.1 103.3 71.7 103.3 71.1 C 103.3 71.1 103.3 70.7 103.3 70.7 Z M 106.6 74.5 L 106.6 66.9 L 107.7 66.9 C 107.7 66.9 107.72 67.95 107.7 67.9 C 108.3 67.1 109.1 66.7 110.1 66.7 C 110.6 66.7 111 66.8 111.4 66.9 C 111.8 67.1 112.1 67.3 112.3 67.6 C 112.5 67.9 112.6 68.2 112.7 68.5 C 112.7 68.8 112.7 69.2 112.7 69.8 C 112.74 69.8 112.7 74.5 112.7 74.5 L 111.4 74.5 C 111.4 74.5 111.45 69.85 111.4 69.8 C 111.4 69.3 111.4 68.9 111.3 68.7 C 111.2 68.4 111 68.2 110.8 68 C 110.5 67.9 110.2 67.8 109.9 67.8 C 109.3 67.8 108.8 68 108.4 68.3 C 108 68.7 107.8 69.3 107.8 70.3 C 107.84 70.32 107.8 74.5 107.8 74.5 L 106.6 74.5 Z M 119.6 74.5 C 119.6 74.5 119.65 73.51 119.6 73.5 C 119.2 74.3 118.5 74.6 117.5 74.6 C 116.9 74.6 116.4 74.5 115.8 74.1 C 115.3 73.8 114.9 73.3 114.7 72.7 C 114.4 72.1 114.2 71.5 114.2 70.7 C 114.2 69.9 114.4 69.2 114.6 68.6 C 114.9 68 115.3 67.5 115.8 67.2 C 116.3 66.9 116.8 66.7 117.5 66.7 C 117.9 66.7 118.3 66.8 118.7 67 C 119 67.2 119.3 67.4 119.6 67.7 C 119.56 67.74 119.6 64 119.6 64 L 120.8 64 L 120.8 74.5 L 119.6 74.5 Z M 115.6 70.7 C 115.6 71.7 115.8 72.4 116.2 72.9 C 116.6 73.3 117.1 73.6 117.6 73.6 C 118.2 73.6 118.7 73.4 119.1 72.9 C 119.5 72.4 119.7 71.7 119.7 70.8 C 119.7 69.7 119.5 69 119.1 68.5 C 118.7 68 118.2 67.8 117.6 67.8 C 117 67.8 116.5 68 116.1 68.5 C 115.8 68.9 115.6 69.7 115.6 70.7 Z M 126.4 72.2 C 126.4 72.2 127.7 72 127.7 72 C 127.8 72.5 128 72.9 128.3 73.2 C 128.6 73.4 129.1 73.6 129.7 73.6 C 130.3 73.6 130.7 73.5 131 73.2 C 131.3 73 131.4 72.7 131.4 72.4 C 131.4 72.1 131.3 71.9 131 71.7 C 130.9 71.6 130.4 71.4 129.7 71.2 C 128.8 71 128.1 70.8 127.8 70.6 C 127.4 70.5 127.1 70.2 126.9 69.9 C 126.7 69.6 126.6 69.3 126.6 68.9 C 126.6 68.5 126.7 68.2 126.9 67.9 C 127 67.7 127.2 67.4 127.5 67.2 C 127.7 67.1 128 67 128.3 66.8 C 128.7 66.7 129 66.7 129.4 66.7 C 130 66.7 130.6 66.8 131 67 C 131.5 67.1 131.8 67.4 132 67.7 C 132.2 67.9 132.4 68.3 132.5 68.8 C 132.5 68.8 131.2 69 131.2 69 C 131.1 68.6 131 68.3 130.7 68.1 C 130.4 67.9 130 67.8 129.5 67.8 C 128.9 67.8 128.5 67.9 128.3 68 C 128 68.2 127.9 68.5 127.9 68.7 C 127.9 68.9 127.9 69.1 128 69.2 C 128.2 69.3 128.3 69.4 128.5 69.5 C 128.7 69.6 129 69.7 129.7 69.9 C 130.6 70.1 131.2 70.3 131.6 70.5 C 131.9 70.6 132.2 70.8 132.4 71.1 C 132.6 71.4 132.7 71.8 132.7 72.2 C 132.7 72.7 132.6 73.1 132.4 73.5 C 132.1 73.8 131.8 74.1 131.3 74.3 C 130.8 74.5 130.3 74.6 129.7 74.6 C 128.7 74.6 127.9 74.4 127.4 74 C 126.9 73.6 126.6 73 126.4 72.2 Z M 134.3 74.5 L 134.3 64 L 135.6 64 L 135.6 70 L 138.6 66.9 L 140.3 66.9 L 137.4 69.7 L 140.6 74.5 L 139 74.5 L 136.5 70.6 L 135.6 71.5 L 135.6 74.5 L 134.3 74.5 Z M 141.6 65.5 L 141.6 64 L 142.9 64 L 142.9 65.5 L 141.6 65.5 Z M 141.6 74.5 L 141.6 66.9 L 142.9 66.9 L 142.9 74.5 L 141.6 74.5 Z M 144.8 74.5 L 144.8 64 L 146.1 64 L 146.1 74.5 L 144.8 74.5 Z M 148.1 74.5 L 148.1 64 L 149.4 64 L 149.4 74.5 L 148.1 74.5 Z M 150.9 72.2 C 150.9 72.2 152.1 72 152.1 72 C 152.2 72.5 152.4 72.9 152.7 73.2 C 153.1 73.4 153.5 73.6 154.1 73.6 C 154.7 73.6 155.1 73.5 155.4 73.2 C 155.7 73 155.9 72.7 155.9 72.4 C 155.9 72.1 155.7 71.9 155.5 71.7 C 155.3 71.6 154.9 71.4 154.2 71.2 C 153.2 71 152.6 70.8 152.2 70.6 C 151.8 70.5 151.6 70.2 151.4 69.9 C 151.2 69.6 151.1 69.3 151.1 68.9 C 151.1 68.5 151.2 68.2 151.3 67.9 C 151.5 67.7 151.7 67.4 152 67.2 C 152.2 67.1 152.4 67 152.8 66.8 C 153.1 66.7 153.5 66.7 153.9 66.7 C 154.5 66.7 155 66.8 155.5 67 C 155.9 67.1 156.2 67.4 156.5 67.7 C 156.7 67.9 156.8 68.3 156.9 68.8 C 156.9 68.8 155.6 69 155.6 69 C 155.6 68.6 155.4 68.3 155.1 68.1 C 154.9 67.9 154.5 67.8 154 67.8 C 153.4 67.8 153 67.9 152.7 68 C 152.5 68.2 152.3 68.5 152.3 68.7 C 152.3 68.9 152.4 69.1 152.5 69.2 C 152.6 69.3 152.8 69.4 153 69.5 C 153.1 69.6 153.5 69.7 154.1 69.9 C 155 70.1 155.7 70.3 156 70.5 C 156.4 70.6 156.7 70.8 156.9 71.1 C 157.1 71.4 157.2 71.8 157.2 72.2 C 157.2 72.7 157.1 73.1 156.8 73.5 C 156.6 73.8 156.2 74.1 155.7 74.3 C 155.3 74.5 154.7 74.6 154.1 74.6 C 153.1 74.6 152.4 74.4 151.9 74 C 151.3 73.6 151 73 150.9 72.2 Z M 163.6 77.6 C 163.3 77.6 163 77.5 162.7 77.4 C 162.7 77.4 162.6 76.2 162.6 76.2 C 162.9 76.3 163.1 76.3 163.3 76.3 C 163.6 76.3 163.8 76.3 164 76.2 C 164.2 76.1 164.3 75.9 164.4 75.8 C 164.5 75.6 164.7 75.3 164.8 74.8 C 164.9 74.7 164.9 74.6 164.9 74.5 C 164.95 74.49 162.1 66.9 162.1 66.9 L 163.5 66.9 C 163.5 66.9 165.04 71.27 165 71.3 C 165.2 71.8 165.4 72.4 165.6 73 C 165.7 72.4 165.9 71.9 166.1 71.3 C 166.12 71.3 167.7 66.9 167.7 66.9 L 169 66.9 C 169 66.9 166.14 74.6 166.1 74.6 C 165.8 75.4 165.6 76 165.4 76.3 C 165.2 76.8 164.9 77.1 164.6 77.3 C 164.3 77.5 164 77.6 163.6 77.6 C 163.6 77.6 163.6 77.6 163.6 77.6 Z M 169.6 70.7 C 169.6 69.3 170 68.2 170.8 67.5 C 171.5 67 172.3 66.7 173.2 66.7 C 174.3 66.7 175.1 67 175.8 67.7 C 176.4 68.4 176.8 69.4 176.8 70.6 C 176.8 71.5 176.6 72.3 176.3 72.9 C 176 73.4 175.6 73.9 175.1 74.2 C 174.5 74.5 173.9 74.6 173.2 74.6 C 172.1 74.6 171.3 74.3 170.6 73.6 C 170 72.9 169.6 72 169.6 70.7 Z M 171 70.7 C 171 71.6 171.2 72.4 171.6 72.9 C 172 73.3 172.6 73.6 173.2 73.6 C 173.9 73.6 174.4 73.3 174.8 72.9 C 175.2 72.4 175.4 71.6 175.4 70.6 C 175.4 69.7 175.2 69 174.8 68.5 C 174.4 68 173.8 67.8 173.2 67.8 C 172.6 67.8 172 68 171.6 68.5 C 171.2 69 171 69.7 171 70.7 Z M 183.3 74.5 C 183.3 74.5 183.27 73.36 183.3 73.4 C 182.7 74.2 181.9 74.6 180.9 74.6 C 180.4 74.6 180 74.6 179.6 74.4 C 179.2 74.2 178.9 74 178.7 73.7 C 178.5 73.5 178.4 73.2 178.3 72.8 C 178.3 72.5 178.3 72.1 178.3 71.6 C 178.26 71.58 178.3 66.9 178.3 66.9 L 179.5 66.9 C 179.5 66.9 179.54 71.08 179.5 71.1 C 179.5 71.8 179.6 72.2 179.6 72.4 C 179.7 72.8 179.9 73.1 180.1 73.2 C 180.4 73.4 180.7 73.5 181.1 73.5 C 181.5 73.5 181.9 73.4 182.2 73.2 C 182.5 73 182.8 72.8 182.9 72.4 C 183.1 72.1 183.1 71.6 183.1 70.9 C 183.13 70.94 183.1 66.9 183.1 66.9 L 184.4 66.9 L 184.4 74.5 L 183.3 74.5 Z M 190.5 74.5 L 190.5 66.9 L 191.7 66.9 C 191.7 66.9 191.68 67.95 191.7 67.9 C 192.2 67.1 193 66.7 194.1 66.7 C 194.6 66.7 195 66.8 195.4 66.9 C 195.7 67.1 196 67.3 196.2 67.6 C 196.4 67.9 196.5 68.2 196.6 68.5 C 196.7 68.8 196.7 69.2 196.7 69.8 C 196.7 69.8 196.7 74.5 196.7 74.5 L 195.4 74.5 C 195.4 74.5 195.41 69.85 195.4 69.8 C 195.4 69.3 195.4 68.9 195.3 68.7 C 195.2 68.4 195 68.2 194.7 68 C 194.5 67.9 194.2 67.8 193.8 67.8 C 193.3 67.8 192.8 68 192.4 68.3 C 192 68.7 191.8 69.3 191.8 70.3 C 191.8 70.32 191.8 74.5 191.8 74.5 L 190.5 74.5 Z M 203.9 72 C 203.9 72 205.2 72.2 205.2 72.2 C 205 73 204.6 73.6 204 74 C 203.5 74.4 202.7 74.6 201.9 74.6 C 200.8 74.6 199.9 74.3 199.2 73.6 C 198.6 72.9 198.2 72 198.2 70.7 C 198.2 69.5 198.6 68.5 199.2 67.8 C 199.9 67 200.7 66.7 201.8 66.7 C 202.8 66.7 203.6 67 204.3 67.7 C 204.9 68.4 205.3 69.4 205.3 70.7 C 205.3 70.7 205.3 70.8 205.2 71 C 205.2 71 199.6 71 199.6 71 C 199.6 71.8 199.9 72.5 200.3 72.9 C 200.7 73.4 201.2 73.6 201.9 73.6 C 202.3 73.6 202.7 73.5 203.1 73.2 C 203.4 73 203.7 72.6 203.9 72 Z M 199.6 69.9 C 199.6 69.9 203.9 69.9 203.9 69.9 C 203.8 69.3 203.7 68.8 203.4 68.5 C 203 68 202.5 67.8 201.8 67.8 C 201.2 67.8 200.7 68 200.3 68.3 C 199.9 68.7 199.7 69.3 199.6 69.9 Z M 212 72 C 212 72 213.4 72.2 213.4 72.2 C 213.2 73 212.8 73.6 212.2 74 C 211.6 74.4 210.9 74.6 210 74.6 C 208.9 74.6 208 74.3 207.4 73.6 C 206.7 72.9 206.4 72 206.4 70.7 C 206.4 69.5 206.7 68.5 207.4 67.8 C 208 67 208.9 66.7 210 66.7 C 211 66.7 211.8 67 212.4 67.7 C 213.1 68.4 213.4 69.4 213.4 70.7 C 213.4 70.7 213.4 70.8 213.4 71 C 213.4 71 207.7 71 207.7 71 C 207.8 71.8 208 72.5 208.4 72.9 C 208.9 73.4 209.4 73.6 210 73.6 C 210.5 73.6 210.9 73.5 211.2 73.2 C 211.6 73 211.8 72.6 212 72 Z M 207.8 69.9 C 207.8 69.9 212.1 69.9 212.1 69.9 C 212 69.3 211.8 68.8 211.6 68.5 C 211.2 68 210.6 67.8 210 67.8 C 209.4 67.8 208.9 68 208.5 68.3 C 208.1 68.7 207.8 69.3 207.8 69.9 Z M 219.9 74.5 C 219.9 74.5 219.92 73.51 219.9 73.5 C 219.4 74.3 218.7 74.6 217.8 74.6 C 217.2 74.6 216.6 74.5 216.1 74.1 C 215.6 73.8 215.2 73.3 214.9 72.7 C 214.7 72.1 214.5 71.5 214.5 70.7 C 214.5 69.9 214.6 69.2 214.9 68.6 C 215.2 68 215.5 67.5 216 67.2 C 216.5 66.9 217.1 66.7 217.7 66.7 C 218.2 66.7 218.6 66.8 219 67 C 219.3 67.2 219.6 67.4 219.8 67.7 C 219.83 67.74 219.8 64 219.8 64 L 221.1 64 L 221.1 74.5 L 219.9 74.5 Z M 215.8 70.7 C 215.8 71.7 216.1 72.4 216.5 72.9 C 216.9 73.3 217.4 73.6 217.9 73.6 C 218.5 73.6 219 73.4 219.4 72.9 C 219.7 72.4 219.9 71.7 219.9 70.8 C 219.9 69.7 219.7 69 219.3 68.5 C 218.9 68 218.4 67.8 217.9 67.8 C 217.3 67.8 216.8 68 216.4 68.5 C 216 68.9 215.8 69.7 215.8 70.7 Z M 229.5 73.4 C 229.6 73.4 229.8 73.4 230 73.3 C 230 73.3 230.2 74.5 230.2 74.5 C 229.9 74.5 229.5 74.6 229.2 74.6 C 228.8 74.6 228.4 74.5 228.2 74.4 C 227.9 74.2 227.7 74 227.6 73.8 C 227.5 73.5 227.5 73 227.5 72.2 C 227.45 72.24 227.5 67.9 227.5 67.9 L 226.5 67.9 L 226.5 66.9 L 227.5 66.9 L 227.5 65 L 228.7 64.2 L 228.7 66.9 L 230 66.9 L 230 67.9 L 228.7 67.9 C 228.7 67.9 228.74 72.32 228.7 72.3 C 228.7 72.7 228.8 72.9 228.8 73 C 228.8 73.1 228.9 73.2 229 73.3 C 229.1 73.3 229.3 73.4 229.5 73.4 C 229.5 73.4 229.5 73.4 229.5 73.4 Z M 230.8 70.7 C 230.8 69.3 231.2 68.2 232 67.5 C 232.6 67 233.4 66.7 234.4 66.7 C 235.4 66.7 236.3 67 236.9 67.7 C 237.6 68.4 237.9 69.4 237.9 70.6 C 237.9 71.5 237.8 72.3 237.5 72.9 C 237.2 73.4 236.8 73.9 236.2 74.2 C 235.7 74.5 235 74.6 234.4 74.6 C 233.3 74.6 232.5 74.3 231.8 73.6 C 231.1 72.9 230.8 72 230.8 70.7 Z M 232.1 70.7 C 232.1 71.6 232.4 72.4 232.8 72.9 C 233.2 73.3 233.7 73.6 234.4 73.6 C 235 73.6 235.6 73.3 236 72.9 C 236.4 72.4 236.6 71.6 236.6 70.6 C 236.6 69.7 236.4 69 236 68.5 C 235.5 68 235 67.8 234.4 67.8 C 233.7 67.8 233.2 68 232.8 68.5 C 232.4 69 232.1 69.7 232.1 70.7 Z " stroke="none" fill="#fff"/>  </g>  <g id="Polygon65007">    <path d="M 16.9 54.1 C 16.9 54.1 18.2 54.3 18.2 54.3 C 18.1 55.1 17.7 55.8 17.1 56.3 C 16.6 56.8 15.9 57 15 57 C 14 57 13.2 56.7 12.5 56 C 11.9 55.3 11.6 54.4 11.6 53.1 C 11.6 52.3 11.7 51.6 12 50.9 C 12.3 50.3 12.7 49.9 13.2 49.6 C 13.8 49.2 14.4 49.1 15 49.1 C 15.9 49.1 16.6 49.3 17.1 49.7 C 17.6 50.1 17.9 50.7 18.1 51.5 C 18.1 51.5 16.8 51.7 16.8 51.7 C 16.7 51.2 16.5 50.8 16.2 50.5 C 15.9 50.3 15.5 50.2 15.1 50.2 C 14.5 50.2 13.9 50.4 13.5 50.9 C 13.1 51.3 12.9 52.1 12.9 53.1 C 12.9 54.1 13.1 54.8 13.5 55.3 C 13.9 55.8 14.4 56 15 56 C 15.5 56 16 55.8 16.3 55.5 C 16.6 55.2 16.8 54.7 16.9 54.1 Z M 24.5 56.9 C 24.4 56.6 24.3 56.3 24.3 55.9 C 23.8 56.3 23.3 56.6 22.9 56.8 C 22.5 57 22 57 21.5 57 C 20.6 57 20 56.8 19.5 56.4 C 19.1 56 18.9 55.5 18.9 54.9 C 18.9 54.5 19 54.2 19.1 53.8 C 19.3 53.5 19.5 53.3 19.8 53.1 C 20.1 52.9 20.4 52.8 20.7 52.7 C 21 52.6 21.4 52.6 21.9 52.5 C 22.9 52.4 23.7 52.2 24.2 52 C 24.2 51.9 24.2 51.8 24.2 51.7 C 24.2 51.2 24.1 50.8 23.8 50.6 C 23.5 50.3 23 50.2 22.3 50.2 C 21.7 50.2 21.3 50.3 21 50.5 C 20.7 50.7 20.5 51.1 20.4 51.6 C 20.4 51.6 19.1 51.4 19.1 51.4 C 19.2 50.9 19.4 50.5 19.7 50.1 C 19.9 49.8 20.3 49.5 20.8 49.4 C 21.3 49.2 21.9 49.1 22.5 49.1 C 23.2 49.1 23.7 49.2 24.1 49.3 C 24.5 49.5 24.8 49.7 25 49.9 C 25.2 50.1 25.3 50.4 25.4 50.8 C 25.4 51 25.5 51.4 25.5 52 C 25.5 52 25.5 53.7 25.5 53.7 C 25.5 54.9 25.5 55.6 25.6 56 C 25.6 56.3 25.7 56.6 25.9 56.9 C 25.88 56.87 24.5 56.9 24.5 56.9 C 24.5 56.9 24.53 56.87 24.5 56.9 Z M 24.2 53.1 C 23.7 53.2 23 53.4 22.1 53.5 C 21.5 53.6 21.2 53.7 20.9 53.8 C 20.7 53.9 20.5 54 20.4 54.2 C 20.3 54.4 20.2 54.6 20.2 54.8 C 20.2 55.2 20.4 55.5 20.6 55.7 C 20.9 55.9 21.3 56 21.8 56 C 22.3 56 22.7 55.9 23.1 55.7 C 23.5 55.5 23.8 55.2 24 54.8 C 24.1 54.5 24.2 54.1 24.2 53.5 C 24.2 53.5 24.2 53.1 24.2 53.1 Z M 27.5 59.8 L 27.5 49.3 L 28.6 49.3 C 28.6 49.3 28.64 50.26 28.6 50.3 C 28.9 49.9 29.2 49.6 29.6 49.4 C 29.9 49.2 30.4 49.1 30.8 49.1 C 31.5 49.1 32.1 49.3 32.6 49.6 C 33.1 49.9 33.4 50.4 33.7 51 C 33.9 51.6 34.1 52.3 34.1 53 C 34.1 53.8 33.9 54.5 33.7 55.1 C 33.4 55.7 33 56.2 32.4 56.5 C 31.9 56.9 31.3 57 30.8 57 C 30.3 57 29.9 57 29.6 56.8 C 29.3 56.6 29 56.4 28.8 56.1 C 28.76 56.08 28.8 59.8 28.8 59.8 L 27.5 59.8 Z M 28.6 53.1 C 28.6 54.1 28.8 54.8 29.2 55.3 C 29.6 55.8 30.1 56 30.7 56 C 31.2 56 31.7 55.7 32.1 55.3 C 32.5 54.8 32.8 54 32.8 53 C 32.8 52 32.6 51.3 32.2 50.8 C 31.8 50.3 31.3 50.1 30.7 50.1 C 30.2 50.1 29.7 50.4 29.3 50.9 C 28.8 51.4 28.6 52.1 28.6 53.1 Z M 40.8 56.9 C 40.7 56.6 40.6 56.3 40.6 55.9 C 40.1 56.3 39.7 56.6 39.2 56.8 C 38.8 57 38.3 57 37.8 57 C 37 57 36.3 56.8 35.9 56.4 C 35.4 56 35.2 55.5 35.2 54.9 C 35.2 54.5 35.3 54.2 35.4 53.8 C 35.6 53.5 35.8 53.3 36.1 53.1 C 36.4 52.9 36.7 52.8 37 52.7 C 37.3 52.6 37.7 52.6 38.2 52.5 C 39.2 52.4 40 52.2 40.5 52 C 40.5 51.9 40.5 51.8 40.5 51.7 C 40.5 51.2 40.4 50.8 40.1 50.6 C 39.8 50.3 39.3 50.2 38.7 50.2 C 38 50.2 37.6 50.3 37.3 50.5 C 37 50.7 36.8 51.1 36.7 51.6 C 36.7 51.6 35.4 51.4 35.4 51.4 C 35.5 50.9 35.7 50.5 36 50.1 C 36.2 49.8 36.6 49.5 37.1 49.4 C 37.6 49.2 38.2 49.1 38.8 49.1 C 39.5 49.1 40 49.2 40.4 49.3 C 40.8 49.5 41.1 49.7 41.3 49.9 C 41.5 50.1 41.6 50.4 41.7 50.8 C 41.8 51 41.8 51.4 41.8 52 C 41.8 52 41.8 53.7 41.8 53.7 C 41.8 54.9 41.8 55.6 41.9 56 C 41.9 56.3 42 56.6 42.2 56.9 C 42.19 56.87 40.8 56.9 40.8 56.9 C 40.8 56.9 40.85 56.87 40.8 56.9 Z M 40.5 53.1 C 40 53.2 39.3 53.4 38.4 53.5 C 37.8 53.6 37.5 53.7 37.3 53.8 C 37 53.9 36.9 54 36.7 54.2 C 36.6 54.4 36.6 54.6 36.6 54.8 C 36.6 55.2 36.7 55.5 37 55.7 C 37.2 55.9 37.6 56 38.1 56 C 38.6 56 39 55.9 39.4 55.7 C 39.8 55.5 40.1 55.2 40.3 54.8 C 40.4 54.5 40.5 54.1 40.5 53.5 C 40.5 53.5 40.5 53.1 40.5 53.1 Z M 45 56.9 L 43.8 56.9 L 43.8 46.4 L 45.1 46.4 C 45.1 46.4 45.06 50.12 45.1 50.1 C 45.6 49.4 46.3 49.1 47.1 49.1 C 47.6 49.1 48.1 49.2 48.5 49.4 C 48.9 49.6 49.2 49.8 49.5 50.2 C 49.8 50.5 50 50.9 50.1 51.4 C 50.3 51.9 50.4 52.4 50.4 53 C 50.4 54.3 50 55.3 49.4 56 C 48.8 56.7 48 57 47.1 57 C 46.2 57 45.5 56.7 45 55.9 C 44.97 55.92 45 56.9 45 56.9 Z M 45 53 C 45 53.9 45.1 54.6 45.3 55 C 45.7 55.7 46.3 56 47 56 C 47.5 56 48 55.7 48.4 55.3 C 48.8 54.8 49.1 54 49.1 53.1 C 49.1 52.1 48.9 51.3 48.5 50.9 C 48.1 50.4 47.6 50.2 47 50.2 C 46.5 50.2 46 50.4 45.6 50.9 C 45.2 51.4 45 52.1 45 53 Z M 51.9 47.9 L 51.9 46.4 L 53.2 46.4 L 53.2 47.9 L 51.9 47.9 Z M 51.9 56.9 L 51.9 49.3 L 53.2 49.3 L 53.2 56.9 L 51.9 56.9 Z M 55.2 56.9 L 55.2 46.4 L 56.5 46.4 L 56.5 56.9 L 55.2 56.9 Z M 58.5 47.9 L 58.5 46.4 L 59.8 46.4 L 59.8 47.9 L 58.5 47.9 Z M 58.5 56.9 L 58.5 49.3 L 59.8 49.3 L 59.8 56.9 L 58.5 56.9 Z M 64 55.8 C 64.1 55.8 64.3 55.8 64.5 55.7 C 64.5 55.7 64.7 56.9 64.7 56.9 C 64.4 56.9 64 57 63.7 57 C 63.3 57 62.9 56.9 62.7 56.8 C 62.4 56.6 62.2 56.4 62.1 56.2 C 62 55.9 61.9 55.4 61.9 54.6 C 61.95 54.64 61.9 50.3 61.9 50.3 L 61 50.3 L 61 49.3 L 61.9 49.3 L 61.9 47.4 L 63.2 46.6 L 63.2 49.3 L 64.5 49.3 L 64.5 50.3 L 63.2 50.3 C 63.2 50.3 63.23 54.72 63.2 54.7 C 63.2 55.1 63.3 55.3 63.3 55.4 C 63.3 55.5 63.4 55.6 63.5 55.7 C 63.6 55.7 63.8 55.8 64 55.8 C 64 55.8 64 55.8 64 55.8 Z M 65.8 47.9 L 65.8 46.4 L 67.1 46.4 L 67.1 47.9 L 65.8 47.9 Z M 65.8 56.9 L 65.8 49.3 L 67.1 49.3 L 67.1 56.9 L 65.8 56.9 Z M 74.3 54.4 C 74.3 54.4 75.6 54.6 75.6 54.6 C 75.4 55.4 75 56 74.4 56.4 C 73.8 56.8 73.1 57 72.2 57 C 71.1 57 70.2 56.7 69.6 56 C 68.9 55.3 68.6 54.4 68.6 53.1 C 68.6 51.9 68.9 50.9 69.6 50.2 C 70.3 49.4 71.1 49.1 72.2 49.1 C 73.2 49.1 74 49.4 74.7 50.1 C 75.3 50.8 75.6 51.8 75.6 53.1 C 75.6 53.1 75.6 53.2 75.6 53.4 C 75.6 53.4 69.9 53.4 69.9 53.4 C 70 54.2 70.2 54.9 70.7 55.3 C 71.1 55.8 71.6 56 72.2 56 C 72.7 56 73.1 55.9 73.5 55.6 C 73.8 55.4 74.1 55 74.3 54.4 Z M 70 52.3 C 70 52.3 74.3 52.3 74.3 52.3 C 74.2 51.7 74 51.2 73.8 50.9 C 73.4 50.4 72.8 50.2 72.2 50.2 C 71.6 50.2 71.1 50.4 70.7 50.7 C 70.3 51.1 70.1 51.7 70 52.3 Z M 76.7 54.6 C 76.7 54.6 78 54.4 78 54.4 C 78 54.9 78.2 55.3 78.6 55.6 C 78.9 55.8 79.3 56 79.9 56 C 80.5 56 81 55.9 81.3 55.6 C 81.5 55.4 81.7 55.1 81.7 54.8 C 81.7 54.5 81.6 54.3 81.3 54.1 C 81.1 54 80.7 53.8 80 53.6 C 79 53.4 78.4 53.2 78 53 C 77.7 52.9 77.4 52.6 77.2 52.3 C 77 52 76.9 51.7 76.9 51.3 C 76.9 50.9 77 50.6 77.1 50.3 C 77.3 50.1 77.5 49.8 77.8 49.6 C 78 49.5 78.2 49.4 78.6 49.2 C 78.9 49.1 79.3 49.1 79.7 49.1 C 80.3 49.1 80.8 49.2 81.3 49.4 C 81.7 49.5 82.1 49.8 82.3 50.1 C 82.5 50.3 82.6 50.7 82.7 51.2 C 82.7 51.2 81.5 51.4 81.5 51.4 C 81.4 51 81.2 50.7 81 50.5 C 80.7 50.3 80.3 50.2 79.8 50.2 C 79.2 50.2 78.8 50.3 78.5 50.4 C 78.3 50.6 78.1 50.9 78.1 51.1 C 78.1 51.3 78.2 51.5 78.3 51.6 C 78.4 51.7 78.6 51.8 78.8 51.9 C 78.9 52 79.3 52.1 79.9 52.3 C 80.9 52.5 81.5 52.7 81.8 52.9 C 82.2 53 82.5 53.2 82.7 53.5 C 82.9 53.8 83 54.2 83 54.6 C 83 55.1 82.9 55.5 82.6 55.9 C 82.4 56.2 82 56.5 81.5 56.7 C 81.1 56.9 80.5 57 79.9 57 C 79 57 78.2 56.8 77.7 56.4 C 77.2 56 76.8 55.4 76.7 54.6 Z M 93.8 56.9 C 93.7 56.6 93.6 56.3 93.6 55.9 C 93.1 56.3 92.6 56.6 92.2 56.8 C 91.8 57 91.3 57 90.8 57 C 89.9 57 89.3 56.8 88.8 56.4 C 88.4 56 88.2 55.5 88.2 54.9 C 88.2 54.5 88.3 54.2 88.4 53.8 C 88.6 53.5 88.8 53.3 89.1 53.1 C 89.4 52.9 89.7 52.8 90 52.7 C 90.3 52.6 90.7 52.6 91.2 52.5 C 92.2 52.4 93 52.2 93.5 52 C 93.5 51.9 93.5 51.8 93.5 51.7 C 93.5 51.2 93.4 50.8 93.1 50.6 C 92.8 50.3 92.3 50.2 91.6 50.2 C 91 50.2 90.6 50.3 90.3 50.5 C 90 50.7 89.8 51.1 89.7 51.6 C 89.7 51.6 88.4 51.4 88.4 51.4 C 88.5 50.9 88.7 50.5 89 50.1 C 89.2 49.8 89.6 49.5 90.1 49.4 C 90.6 49.2 91.2 49.1 91.8 49.1 C 92.5 49.1 93 49.2 93.4 49.3 C 93.8 49.5 94.1 49.7 94.3 49.9 C 94.5 50.1 94.6 50.4 94.7 50.8 C 94.7 51 94.8 51.4 94.8 52 C 94.8 52 94.8 53.7 94.8 53.7 C 94.8 54.9 94.8 55.6 94.9 56 C 94.9 56.3 95 56.6 95.2 56.9 C 95.18 56.87 93.8 56.9 93.8 56.9 C 93.8 56.9 93.83 56.87 93.8 56.9 Z M 93.5 53.1 C 93 53.2 92.3 53.4 91.4 53.5 C 90.8 53.6 90.5 53.7 90.2 53.8 C 90 53.9 89.8 54 89.7 54.2 C 89.6 54.4 89.6 54.6 89.6 54.8 C 89.6 55.2 89.7 55.5 89.9 55.7 C 90.2 55.9 90.6 56 91.1 56 C 91.6 56 92 55.9 92.4 55.7 C 92.8 55.5 93.1 55.2 93.3 54.8 C 93.4 54.5 93.5 54.1 93.5 53.5 C 93.5 53.5 93.5 53.1 93.5 53.1 Z M 96.8 56.9 L 96.8 49.3 L 97.9 49.3 C 97.9 49.3 97.91 50.42 97.9 50.4 C 98.2 49.9 98.5 49.5 98.7 49.4 C 99 49.2 99.3 49.1 99.6 49.1 C 100 49.1 100.4 49.2 100.9 49.5 C 100.9 49.5 100.4 50.7 100.4 50.7 C 100.1 50.5 99.8 50.4 99.5 50.4 C 99.2 50.4 99 50.5 98.7 50.7 C 98.5 50.9 98.4 51.1 98.3 51.4 C 98.1 51.8 98 52.3 98 52.9 C 98.04 52.89 98 56.9 98 56.9 L 96.8 56.9 Z M 106.9 54.4 C 106.9 54.4 108.2 54.6 108.2 54.6 C 108 55.4 107.6 56 107 56.4 C 106.5 56.8 105.7 57 104.8 57 C 103.7 57 102.9 56.7 102.2 56 C 101.5 55.3 101.2 54.4 101.2 53.1 C 101.2 51.9 101.6 50.9 102.2 50.2 C 102.9 49.4 103.7 49.1 104.8 49.1 C 105.8 49.1 106.6 49.4 107.3 50.1 C 107.9 50.8 108.2 51.8 108.2 53.1 C 108.2 53.1 108.2 53.2 108.2 53.4 C 108.2 53.4 102.6 53.4 102.6 53.4 C 102.6 54.2 102.8 54.9 103.3 55.3 C 103.7 55.8 104.2 56 104.9 56 C 105.3 56 105.7 55.9 106.1 55.6 C 106.4 55.4 106.7 55 106.9 54.4 Z M 102.6 52.3 C 102.6 52.3 106.9 52.3 106.9 52.3 C 106.8 51.7 106.7 51.2 106.4 50.9 C 106 50.4 105.4 50.2 104.8 50.2 C 104.2 50.2 103.7 50.4 103.3 50.7 C 102.9 51.1 102.7 51.7 102.6 52.3 Z M 113.4 54.6 C 113.4 54.6 114.6 54.4 114.6 54.4 C 114.7 54.9 114.9 55.3 115.2 55.6 C 115.6 55.8 116 56 116.6 56 C 117.2 56 117.6 55.9 117.9 55.6 C 118.2 55.4 118.4 55.1 118.4 54.8 C 118.4 54.5 118.2 54.3 118 54.1 C 117.8 54 117.4 53.8 116.7 53.6 C 115.7 53.4 115.1 53.2 114.7 53 C 114.3 52.9 114.1 52.6 113.9 52.3 C 113.7 52 113.6 51.7 113.6 51.3 C 113.6 50.9 113.7 50.6 113.8 50.3 C 114 50.1 114.2 49.8 114.5 49.6 C 114.7 49.5 114.9 49.4 115.3 49.2 C 115.6 49.1 116 49.1 116.4 49.1 C 117 49.1 117.5 49.2 118 49.4 C 118.4 49.5 118.7 49.8 119 50.1 C 119.2 50.3 119.3 50.7 119.4 51.2 C 119.4 51.2 118.1 51.4 118.1 51.4 C 118.1 51 117.9 50.7 117.6 50.5 C 117.4 50.3 117 50.2 116.5 50.2 C 115.9 50.2 115.5 50.3 115.2 50.4 C 115 50.6 114.8 50.9 114.8 51.1 C 114.8 51.3 114.9 51.5 115 51.6 C 115.1 51.7 115.3 51.8 115.5 51.9 C 115.6 52 116 52.1 116.6 52.3 C 117.5 52.5 118.2 52.7 118.5 52.9 C 118.9 53 119.2 53.2 119.4 53.5 C 119.6 53.8 119.7 54.2 119.7 54.6 C 119.7 55.1 119.6 55.5 119.3 55.9 C 119.1 56.2 118.7 56.5 118.2 56.7 C 117.8 56.9 117.2 57 116.6 57 C 115.6 57 114.9 56.8 114.4 56.4 C 113.8 56 113.5 55.4 113.4 54.6 Z M 123.5 55.8 C 123.6 55.8 123.8 55.8 124 55.7 C 124 55.7 124.2 56.9 124.2 56.9 C 123.9 56.9 123.5 57 123.2 57 C 122.8 57 122.4 56.9 122.2 56.8 C 121.9 56.6 121.7 56.4 121.6 56.2 C 121.5 55.9 121.5 55.4 121.5 54.6 C 121.45 54.64 121.5 50.3 121.5 50.3 L 120.5 50.3 L 120.5 49.3 L 121.5 49.3 L 121.5 47.4 L 122.7 46.6 L 122.7 49.3 L 124 49.3 L 124 50.3 L 122.7 50.3 C 122.7 50.3 122.74 54.72 122.7 54.7 C 122.7 55.1 122.8 55.3 122.8 55.4 C 122.8 55.5 122.9 55.6 123 55.7 C 123.1 55.7 123.3 55.8 123.5 55.8 C 123.5 55.8 123.5 55.8 123.5 55.8 Z M 125.3 56.9 L 125.3 49.3 L 126.4 49.3 C 126.4 49.3 126.44 50.42 126.4 50.4 C 126.7 49.9 127 49.5 127.3 49.4 C 127.5 49.2 127.8 49.1 128.1 49.1 C 128.5 49.1 129 49.2 129.4 49.5 C 129.4 49.5 129 50.7 129 50.7 C 128.7 50.5 128.3 50.4 128 50.4 C 127.7 50.4 127.5 50.5 127.3 50.7 C 127 50.9 126.9 51.1 126.8 51.4 C 126.6 51.8 126.6 52.3 126.6 52.9 C 126.57 52.89 126.6 56.9 126.6 56.9 L 125.3 56.9 Z M 135.4 54.4 C 135.4 54.4 136.7 54.6 136.7 54.6 C 136.5 55.4 136.1 56 135.5 56.4 C 135 56.8 134.3 57 133.4 57 C 132.3 57 131.4 56.7 130.7 56 C 130.1 55.3 129.7 54.4 129.7 53.1 C 129.7 51.9 130.1 50.9 130.7 50.2 C 131.4 49.4 132.2 49.1 133.3 49.1 C 134.3 49.1 135.1 49.4 135.8 50.1 C 136.4 50.8 136.8 51.8 136.8 53.1 C 136.8 53.1 136.8 53.2 136.8 53.4 C 136.8 53.4 131.1 53.4 131.1 53.4 C 131.1 54.2 131.4 54.9 131.8 55.3 C 132.2 55.8 132.7 56 133.4 56 C 133.9 56 134.3 55.9 134.6 55.6 C 134.9 55.4 135.2 55 135.4 54.4 Z M 131.2 52.3 C 131.2 52.3 135.4 52.3 135.4 52.3 C 135.3 51.7 135.2 51.2 134.9 50.9 C 134.5 50.4 134 50.2 133.3 50.2 C 132.7 50.2 132.2 50.4 131.8 50.7 C 131.4 51.1 131.2 51.7 131.2 52.3 Z M 140.6 55.8 C 140.7 55.8 140.9 55.8 141.1 55.7 C 141.1 55.7 141.3 56.9 141.3 56.9 C 141 56.9 140.6 57 140.4 57 C 139.9 57 139.5 56.9 139.3 56.8 C 139 56.6 138.8 56.4 138.7 56.2 C 138.6 55.9 138.6 55.4 138.6 54.6 C 138.57 54.64 138.6 50.3 138.6 50.3 L 137.6 50.3 L 137.6 49.3 L 138.6 49.3 L 138.6 47.4 L 139.9 46.6 L 139.9 49.3 L 141.1 49.3 L 141.1 50.3 L 139.9 50.3 C 139.9 50.3 139.85 54.72 139.9 54.7 C 139.9 55.1 139.9 55.3 139.9 55.4 C 140 55.5 140 55.6 140.1 55.7 C 140.2 55.7 140.4 55.8 140.6 55.8 C 140.6 55.8 140.6 55.8 140.6 55.8 Z M 147.4 54.1 C 147.4 54.1 148.6 54.3 148.6 54.3 C 148.5 55.1 148.1 55.8 147.6 56.3 C 147 56.8 146.3 57 145.5 57 C 144.4 57 143.6 56.7 143 56 C 142.3 55.3 142 54.4 142 53.1 C 142 52.3 142.2 51.6 142.4 50.9 C 142.7 50.3 143.1 49.9 143.7 49.6 C 144.2 49.2 144.8 49.1 145.5 49.1 C 146.3 49.1 147 49.3 147.5 49.7 C 148 50.1 148.4 50.7 148.5 51.5 C 148.5 51.5 147.3 51.7 147.3 51.7 C 147.1 51.2 146.9 50.8 146.6 50.5 C 146.3 50.3 146 50.2 145.5 50.2 C 144.9 50.2 144.4 50.4 143.9 50.9 C 143.5 51.3 143.3 52.1 143.3 53.1 C 143.3 54.1 143.5 54.8 143.9 55.3 C 144.3 55.8 144.8 56 145.5 56 C 146 56 146.4 55.8 146.7 55.5 C 147.1 55.2 147.3 54.7 147.4 54.1 Z M 149.7 56.9 L 149.7 46.4 L 151 46.4 C 151 46.4 151.03 50.14 151 50.1 C 151.6 49.4 152.4 49.1 153.3 49.1 C 153.9 49.1 154.4 49.2 154.8 49.4 C 155.2 49.6 155.5 50 155.7 50.3 C 155.8 50.7 155.9 51.3 155.9 52.1 C 155.94 52.05 155.9 56.9 155.9 56.9 L 154.6 56.9 C 154.6 56.9 154.65 52.05 154.6 52.1 C 154.6 51.4 154.5 50.9 154.2 50.6 C 153.9 50.4 153.6 50.2 153 50.2 C 152.7 50.2 152.3 50.3 152 50.5 C 151.6 50.7 151.4 51 151.2 51.3 C 151.1 51.6 151 52.1 151 52.7 C 151.03 52.71 151 56.9 151 56.9 L 149.7 56.9 Z M 163.1 54.4 C 163.1 54.4 164.4 54.6 164.4 54.6 C 164.2 55.4 163.8 56 163.3 56.4 C 162.7 56.8 162 57 161.1 57 C 160 57 159.1 56.7 158.4 56 C 157.8 55.3 157.5 54.4 157.5 53.1 C 157.5 51.9 157.8 50.9 158.5 50.2 C 159.1 49.4 160 49.1 161 49.1 C 162 49.1 162.9 49.4 163.5 50.1 C 164.2 50.8 164.5 51.8 164.5 53.1 C 164.5 53.1 164.5 53.2 164.5 53.4 C 164.5 53.4 158.8 53.4 158.8 53.4 C 158.8 54.2 159.1 54.9 159.5 55.3 C 159.9 55.8 160.5 56 161.1 56 C 161.6 56 162 55.9 162.3 55.6 C 162.6 55.4 162.9 55 163.1 54.4 Z M 158.9 52.3 C 158.9 52.3 163.1 52.3 163.1 52.3 C 163.1 51.7 162.9 51.2 162.6 50.9 C 162.2 50.4 161.7 50.2 161 50.2 C 160.4 50.2 159.9 50.4 159.5 50.7 C 159.1 51.1 158.9 51.7 158.9 52.3 Z M 171 56.9 C 171 56.9 170.99 55.91 171 55.9 C 170.5 56.7 169.8 57 168.9 57 C 168.3 57 167.7 56.9 167.2 56.5 C 166.7 56.2 166.3 55.7 166 55.1 C 165.7 54.5 165.6 53.9 165.6 53.1 C 165.6 52.3 165.7 51.6 166 51 C 166.2 50.4 166.6 49.9 167.1 49.6 C 167.6 49.3 168.2 49.1 168.8 49.1 C 169.3 49.1 169.7 49.2 170 49.4 C 170.4 49.6 170.7 49.8 170.9 50.1 C 170.9 50.14 170.9 46.4 170.9 46.4 L 172.2 46.4 L 172.2 56.9 L 171 56.9 Z M 166.9 53.1 C 166.9 54.1 167.1 54.8 167.5 55.3 C 167.9 55.7 168.4 56 169 56 C 169.5 56 170 55.8 170.4 55.3 C 170.8 54.8 171 54.1 171 53.2 C 171 52.1 170.8 51.4 170.4 50.9 C 170 50.4 169.5 50.2 168.9 50.2 C 168.4 50.2 167.9 50.4 167.5 50.9 C 167.1 51.3 166.9 52.1 166.9 53.1 Z M 174.5 56.9 L 174.5 55.4 L 176 55.4 C 176 55.4 176.02 56.87 176 56.9 C 176 57.4 175.9 57.8 175.7 58.2 C 175.5 58.5 175.2 58.8 174.8 58.9 C 174.8 58.9 174.5 58.4 174.5 58.4 C 174.7 58.3 174.9 58.1 175.1 57.9 C 175.2 57.6 175.3 57.3 175.3 56.9 C 175.28 56.87 174.5 56.9 174.5 56.9 Z M 183.8 56.9 L 181.4 49.3 L 182.8 49.3 L 184 53.7 C 184 53.7 184.43 55.29 184.4 55.3 C 184.5 55.2 184.6 54.7 184.8 53.7 C 184.83 53.72 186 49.3 186 49.3 L 187.4 49.3 L 188.5 53.7 L 188.9 55.1 L 189.3 53.7 L 190.6 49.3 L 191.9 49.3 L 189.5 56.9 L 188.2 56.9 L 186.9 52.3 L 186.7 51 L 185.1 56.9 L 183.8 56.9 Z M 198.2 54.4 C 198.2 54.4 199.5 54.6 199.5 54.6 C 199.3 55.4 198.9 56 198.3 56.4 C 197.8 56.8 197 57 196.1 57 C 195 57 194.2 56.7 193.5 56 C 192.9 55.3 192.5 54.4 192.5 53.1 C 192.5 51.9 192.9 50.9 193.5 50.2 C 194.2 49.4 195 49.1 196.1 49.1 C 197.1 49.1 197.9 49.4 198.6 50.1 C 199.2 50.8 199.5 51.8 199.5 53.1 C 199.5 53.1 199.5 53.2 199.5 53.4 C 199.5 53.4 193.9 53.4 193.9 53.4 C 193.9 54.2 194.1 54.9 194.6 55.3 C 195 55.8 195.5 56 196.2 56 C 196.6 56 197 55.9 197.4 55.6 C 197.7 55.4 198 55 198.2 54.4 Z M 193.9 52.3 C 193.9 52.3 198.2 52.3 198.2 52.3 C 198.1 51.7 198 51.2 197.7 50.9 C 197.3 50.4 196.7 50.2 196.1 50.2 C 195.5 50.2 195 50.4 194.6 50.7 C 194.2 51.1 194 51.7 193.9 52.3 Z M 205.2 59.8 L 205.2 49.3 L 206.4 49.3 C 206.4 49.3 206.36 50.26 206.4 50.3 C 206.6 49.9 207 49.6 207.3 49.4 C 207.6 49.2 208.1 49.1 208.6 49.1 C 209.2 49.1 209.8 49.3 210.3 49.6 C 210.8 49.9 211.2 50.4 211.4 51 C 211.7 51.6 211.8 52.3 211.8 53 C 211.8 53.8 211.6 54.5 211.4 55.1 C 211.1 55.7 210.7 56.2 210.2 56.5 C 209.6 56.9 209.1 57 208.5 57 C 208 57 207.7 57 207.3 56.8 C 207 56.6 206.7 56.4 206.5 56.1 C 206.48 56.08 206.5 59.8 206.5 59.8 L 205.2 59.8 Z M 206.4 53.1 C 206.4 54.1 206.6 54.8 206.9 55.3 C 207.3 55.8 207.8 56 208.4 56 C 209 56 209.5 55.7 209.9 55.3 C 210.3 54.8 210.5 54 210.5 53 C 210.5 52 210.3 51.3 209.9 50.8 C 209.5 50.3 209 50.1 208.4 50.1 C 207.9 50.1 207.4 50.4 207 50.9 C 206.6 51.4 206.4 52.1 206.4 53.1 Z M 213.3 56.9 L 213.3 49.3 L 214.5 49.3 C 214.5 49.3 214.49 50.42 214.5 50.4 C 214.8 49.9 215.1 49.5 215.3 49.4 C 215.6 49.2 215.8 49.1 216.1 49.1 C 216.6 49.1 217 49.2 217.5 49.5 C 217.5 49.5 217 50.7 217 50.7 C 216.7 50.5 216.4 50.4 216.1 50.4 C 215.8 50.4 215.5 50.5 215.3 50.7 C 215.1 50.9 214.9 51.1 214.8 51.4 C 214.7 51.8 214.6 52.3 214.6 52.9 C 214.62 52.89 214.6 56.9 214.6 56.9 L 213.3 56.9 Z M 217.7 53.1 C 217.7 51.7 218.1 50.6 218.9 49.9 C 219.6 49.4 220.4 49.1 221.3 49.1 C 222.4 49.1 223.2 49.4 223.9 50.1 C 224.5 50.8 224.9 51.8 224.9 53 C 224.9 53.9 224.7 54.7 224.4 55.3 C 224.1 55.8 223.7 56.3 223.2 56.6 C 222.6 56.9 222 57 221.3 57 C 220.2 57 219.4 56.7 218.7 56 C 218.1 55.3 217.7 54.4 217.7 53.1 Z M 219.1 53.1 C 219.1 54 219.3 54.8 219.7 55.3 C 220.1 55.7 220.7 56 221.3 56 C 222 56 222.5 55.7 222.9 55.3 C 223.3 54.8 223.5 54 223.5 53 C 223.5 52.1 223.3 51.4 222.9 50.9 C 222.5 50.4 221.9 50.2 221.3 50.2 C 220.7 50.2 220.1 50.4 219.7 50.9 C 219.3 51.4 219.1 52.1 219.1 53.1 Z M 228.5 56.9 L 225.6 49.3 L 227 49.3 C 227 49.3 228.6 53.82 228.6 53.8 C 228.8 54.3 228.9 54.8 229.1 55.4 C 229.2 55 229.4 54.5 229.6 53.9 C 229.56 53.91 231.3 49.3 231.3 49.3 L 232.6 49.3 L 229.7 56.9 L 228.5 56.9 Z M 233.7 47.9 L 233.7 46.4 L 235 46.4 L 235 47.9 L 233.7 47.9 Z M 233.7 56.9 L 233.7 49.3 L 235 49.3 L 235 56.9 L 233.7 56.9 Z M 241.9 56.9 C 241.9 56.9 241.91 55.91 241.9 55.9 C 241.4 56.7 240.7 57 239.8 57 C 239.2 57 238.6 56.9 238.1 56.5 C 237.6 56.2 237.2 55.7 236.9 55.1 C 236.6 54.5 236.5 53.9 236.5 53.1 C 236.5 52.3 236.6 51.6 236.9 51 C 237.1 50.4 237.5 49.9 238 49.6 C 238.5 49.3 239.1 49.1 239.7 49.1 C 240.2 49.1 240.6 49.2 241 49.4 C 241.3 49.6 241.6 49.8 241.8 50.1 C 241.82 50.14 241.8 46.4 241.8 46.4 L 243.1 46.4 L 243.1 56.9 L 241.9 56.9 Z M 237.8 53.1 C 237.8 54.1 238 54.8 238.5 55.3 C 238.9 55.7 239.3 56 239.9 56 C 240.5 56 240.9 55.8 241.3 55.3 C 241.7 54.8 241.9 54.1 241.9 53.2 C 241.9 52.1 241.7 51.4 241.3 50.9 C 240.9 50.4 240.4 50.2 239.8 50.2 C 239.3 50.2 238.8 50.4 238.4 50.9 C 238 51.3 237.8 52.1 237.8 53.1 Z M 250.3 54.4 C 250.3 54.4 251.7 54.6 251.7 54.6 C 251.5 55.4 251.1 56 250.5 56.4 C 249.9 56.8 249.2 57 248.3 57 C 247.2 57 246.3 56.7 245.7 56 C 245 55.3 244.7 54.4 244.7 53.1 C 244.7 51.9 245 50.9 245.7 50.2 C 246.4 49.4 247.2 49.1 248.3 49.1 C 249.3 49.1 250.1 49.4 250.7 50.1 C 251.4 50.8 251.7 51.8 251.7 53.1 C 251.7 53.1 251.7 53.2 251.7 53.4 C 251.7 53.4 246 53.4 246 53.4 C 246.1 54.2 246.3 54.9 246.7 55.3 C 247.2 55.8 247.7 56 248.3 56 C 248.8 56 249.2 55.9 249.5 55.6 C 249.9 55.4 250.1 55 250.3 54.4 Z M 246.1 52.3 C 246.1 52.3 250.4 52.3 250.4 52.3 C 250.3 51.7 250.1 51.2 249.9 50.9 C 249.5 50.4 248.9 50.2 248.3 50.2 C 247.7 50.2 247.2 50.4 246.8 50.7 C 246.4 51.1 246.1 51.7 246.1 52.3 Z " stroke="none" fill="#fff"/>  </g>  <g id="Polygon65006">    <path d="M 36.5 39.3 L 33.7 28.8 L 35.2 28.8 C 35.2 28.8 36.77 35.66 36.8 35.7 C 36.9 36.4 37.1 37.1 37.2 37.8 C 37.5 36.7 37.6 36 37.7 35.9 C 37.69 35.86 39.7 28.8 39.7 28.8 L 41.4 28.8 C 41.4 28.8 42.86 34.09 42.9 34.1 C 43.2 35.4 43.5 36.6 43.7 37.8 C 43.8 37.1 44 36.4 44.2 35.5 C 44.2 35.52 45.9 28.8 45.9 28.8 L 47.2 28.8 L 44.4 39.3 L 43 39.3 C 43 39.3 40.82 31.27 40.8 31.3 C 40.6 30.6 40.5 30.2 40.5 30 C 40.4 30.5 40.3 30.9 40.2 31.3 C 40.18 31.27 38 39.3 38 39.3 L 36.5 39.3 Z M 48.4 39.3 L 48.4 28.8 L 49.7 28.8 C 49.7 28.8 49.67 32.54 49.7 32.5 C 50.3 31.8 51 31.5 51.9 31.5 C 52.5 31.5 53 31.6 53.4 31.8 C 53.8 32 54.1 32.4 54.3 32.7 C 54.5 33.1 54.6 33.7 54.6 34.5 C 54.57 34.45 54.6 39.3 54.6 39.3 L 53.3 39.3 C 53.3 39.3 53.28 34.45 53.3 34.5 C 53.3 33.8 53.1 33.3 52.9 33 C 52.6 32.8 52.2 32.6 51.7 32.6 C 51.3 32.6 50.9 32.7 50.6 32.9 C 50.3 33.1 50 33.4 49.9 33.7 C 49.7 34 49.7 34.5 49.7 35.1 C 49.67 35.11 49.7 39.3 49.7 39.3 L 48.4 39.3 Z M 61.7 36.8 C 61.7 36.8 63.1 37 63.1 37 C 62.9 37.8 62.5 38.4 61.9 38.8 C 61.3 39.2 60.6 39.4 59.7 39.4 C 58.6 39.4 57.7 39.1 57.1 38.4 C 56.4 37.7 56.1 36.8 56.1 35.5 C 56.1 34.3 56.4 33.3 57.1 32.6 C 57.8 31.8 58.6 31.5 59.7 31.5 C 60.7 31.5 61.5 31.8 62.2 32.5 C 62.8 33.2 63.1 34.2 63.1 35.5 C 63.1 35.5 63.1 35.6 63.1 35.8 C 63.1 35.8 57.4 35.8 57.4 35.8 C 57.5 36.6 57.7 37.3 58.1 37.7 C 58.6 38.2 59.1 38.4 59.7 38.4 C 60.2 38.4 60.6 38.3 60.9 38 C 61.3 37.8 61.5 37.4 61.7 36.8 Z M 57.5 34.7 C 57.5 34.7 61.8 34.7 61.8 34.7 C 61.7 34.1 61.5 33.6 61.3 33.3 C 60.9 32.8 60.3 32.6 59.7 32.6 C 59.1 32.6 58.6 32.8 58.2 33.1 C 57.8 33.5 57.6 34.1 57.5 34.7 Z M 64.7 39.3 L 64.7 31.7 L 65.9 31.7 C 65.9 31.7 65.85 32.75 65.9 32.7 C 66.4 31.9 67.2 31.5 68.3 31.5 C 68.7 31.5 69.2 31.6 69.5 31.7 C 69.9 31.9 70.2 32.1 70.4 32.4 C 70.6 32.7 70.7 33 70.8 33.3 C 70.8 33.6 70.9 34 70.9 34.6 C 70.87 34.6 70.9 39.3 70.9 39.3 L 69.6 39.3 C 69.6 39.3 69.58 34.65 69.6 34.6 C 69.6 34.1 69.5 33.7 69.4 33.5 C 69.3 33.2 69.2 33 68.9 32.8 C 68.6 32.7 68.3 32.6 68 32.6 C 67.5 32.6 67 32.8 66.6 33.1 C 66.2 33.5 66 34.1 66 35.1 C 65.98 35.12 66 39.3 66 39.3 L 64.7 39.3 Z M 81.9 36.5 C 81.9 36.5 83.2 36.7 83.2 36.7 C 83 37.5 82.7 38.2 82.1 38.7 C 81.5 39.2 80.8 39.4 80 39.4 C 78.9 39.4 78.1 39.1 77.5 38.4 C 76.8 37.7 76.5 36.8 76.5 35.5 C 76.5 34.7 76.7 34 76.9 33.3 C 77.2 32.7 77.6 32.3 78.2 32 C 78.7 31.6 79.3 31.5 80 31.5 C 80.8 31.5 81.5 31.7 82 32.1 C 82.5 32.5 82.9 33.1 83 33.9 C 83 33.9 81.8 34.1 81.8 34.1 C 81.7 33.6 81.4 33.2 81.1 32.9 C 80.8 32.7 80.5 32.6 80 32.6 C 79.4 32.6 78.9 32.8 78.5 33.3 C 78.1 33.7 77.9 34.5 77.9 35.5 C 77.9 36.5 78.1 37.2 78.4 37.7 C 78.8 38.2 79.3 38.4 80 38.4 C 80.5 38.4 80.9 38.2 81.2 37.9 C 81.6 37.6 81.8 37.1 81.9 36.5 Z M 89.5 39.3 C 89.3 39 89.3 38.7 89.2 38.3 C 88.7 38.7 88.3 39 87.8 39.2 C 87.4 39.4 86.9 39.4 86.4 39.4 C 85.6 39.4 84.9 39.2 84.5 38.8 C 84 38.4 83.8 37.9 83.8 37.3 C 83.8 36.9 83.9 36.6 84.1 36.2 C 84.2 35.9 84.5 35.7 84.7 35.5 C 85 35.3 85.3 35.2 85.7 35.1 C 85.9 35 86.3 35 86.8 34.9 C 87.9 34.8 88.6 34.6 89.1 34.4 C 89.1 34.3 89.1 34.2 89.1 34.1 C 89.1 33.6 89 33.2 88.8 33 C 88.4 32.7 87.9 32.6 87.3 32.6 C 86.7 32.6 86.2 32.7 85.9 32.9 C 85.7 33.1 85.4 33.5 85.3 34 C 85.3 34 84 33.8 84 33.8 C 84.2 33.3 84.3 32.9 84.6 32.5 C 84.9 32.2 85.3 31.9 85.7 31.8 C 86.2 31.6 86.8 31.5 87.5 31.5 C 88.1 31.5 88.7 31.6 89.1 31.7 C 89.5 31.9 89.8 32.1 90 32.3 C 90.1 32.5 90.3 32.8 90.4 33.2 C 90.4 33.4 90.4 33.8 90.4 34.4 C 90.4 34.4 90.4 36.1 90.4 36.1 C 90.4 37.3 90.4 38 90.5 38.4 C 90.6 38.7 90.7 39 90.8 39.3 C 90.82 39.27 89.5 39.3 89.5 39.3 C 89.5 39.3 89.48 39.27 89.5 39.3 Z M 89.1 35.5 C 88.6 35.6 87.9 35.8 87 35.9 C 86.5 36 86.1 36.1 85.9 36.2 C 85.7 36.3 85.5 36.4 85.4 36.6 C 85.3 36.8 85.2 37 85.2 37.2 C 85.2 37.6 85.3 37.9 85.6 38.1 C 85.8 38.3 86.2 38.4 86.7 38.4 C 87.2 38.4 87.7 38.3 88.1 38.1 C 88.4 37.9 88.7 37.6 88.9 37.2 C 89 36.9 89.1 36.5 89.1 35.9 C 89.1 35.9 89.1 35.5 89.1 35.5 Z M 92.4 42.2 L 92.4 31.7 L 93.6 31.7 C 93.6 31.7 93.59 32.66 93.6 32.7 C 93.9 32.3 94.2 32 94.5 31.8 C 94.9 31.6 95.3 31.5 95.8 31.5 C 96.4 31.5 97 31.7 97.5 32 C 98 32.3 98.4 32.8 98.6 33.4 C 98.9 34 99 34.7 99 35.4 C 99 36.2 98.9 36.9 98.6 37.5 C 98.3 38.1 97.9 38.6 97.4 38.9 C 96.8 39.3 96.3 39.4 95.7 39.4 C 95.3 39.4 94.9 39.4 94.5 39.2 C 94.2 39 93.9 38.8 93.7 38.5 C 93.7 38.48 93.7 42.2 93.7 42.2 L 92.4 42.2 Z M 93.6 35.5 C 93.6 36.5 93.8 37.2 94.2 37.7 C 94.6 38.2 95.1 38.4 95.6 38.4 C 96.2 38.4 96.7 38.1 97.1 37.7 C 97.5 37.2 97.7 36.4 97.7 35.4 C 97.7 34.4 97.5 33.7 97.1 33.2 C 96.7 32.7 96.2 32.5 95.7 32.5 C 95.1 32.5 94.6 32.8 94.2 33.3 C 93.8 33.8 93.6 34.5 93.6 35.5 Z M 105.8 39.3 C 105.7 39 105.6 38.7 105.5 38.3 C 105.1 38.7 104.6 39 104.2 39.2 C 103.7 39.4 103.2 39.4 102.7 39.4 C 101.9 39.4 101.3 39.2 100.8 38.8 C 100.4 38.4 100.1 37.9 100.1 37.3 C 100.1 36.9 100.2 36.6 100.4 36.2 C 100.6 35.9 100.8 35.7 101.1 35.5 C 101.3 35.3 101.6 35.2 102 35.1 C 102.2 35 102.6 35 103.1 34.9 C 104.2 34.8 104.9 34.6 105.4 34.4 C 105.4 34.3 105.4 34.2 105.4 34.1 C 105.4 33.6 105.3 33.2 105.1 33 C 104.7 32.7 104.3 32.6 103.6 32.6 C 103 32.6 102.5 32.7 102.3 32.9 C 102 33.1 101.8 33.5 101.6 34 C 101.6 34 100.4 33.8 100.4 33.8 C 100.5 33.3 100.7 32.9 100.9 32.5 C 101.2 32.2 101.6 31.9 102.1 31.8 C 102.6 31.6 103.1 31.5 103.8 31.5 C 104.4 31.5 105 31.6 105.4 31.7 C 105.8 31.9 106.1 32.1 106.3 32.3 C 106.5 32.5 106.6 32.8 106.7 33.2 C 106.7 33.4 106.7 33.8 106.7 34.4 C 106.7 34.4 106.7 36.1 106.7 36.1 C 106.7 37.3 106.8 38 106.8 38.4 C 106.9 38.7 107 39 107.1 39.3 C 107.14 39.27 105.8 39.3 105.8 39.3 C 105.8 39.3 105.79 39.27 105.8 39.3 Z M 105.4 35.5 C 105 35.6 104.3 35.8 103.3 35.9 C 102.8 36 102.4 36.1 102.2 36.2 C 102 36.3 101.8 36.4 101.7 36.6 C 101.6 36.8 101.5 37 101.5 37.2 C 101.5 37.6 101.6 37.9 101.9 38.1 C 102.2 38.3 102.5 38.4 103 38.4 C 103.5 38.4 104 38.3 104.4 38.1 C 104.8 37.9 105 37.6 105.2 37.2 C 105.4 36.9 105.4 36.5 105.4 35.9 C 105.4 35.9 105.4 35.5 105.4 35.5 Z M 113.7 36.5 C 113.7 36.5 115 36.7 115 36.7 C 114.8 37.5 114.5 38.2 113.9 38.7 C 113.3 39.2 112.6 39.4 111.8 39.4 C 110.8 39.4 109.9 39.1 109.3 38.4 C 108.7 37.7 108.3 36.8 108.3 35.5 C 108.3 34.7 108.5 34 108.7 33.3 C 109 32.7 109.4 32.3 110 32 C 110.5 31.6 111.1 31.5 111.8 31.5 C 112.6 31.5 113.3 31.7 113.8 32.1 C 114.4 32.5 114.7 33.1 114.8 33.9 C 114.8 33.9 113.6 34.1 113.6 34.1 C 113.5 33.6 113.3 33.2 113 32.9 C 112.6 32.7 112.3 32.6 111.9 32.6 C 111.2 32.6 110.7 32.8 110.3 33.3 C 109.9 33.7 109.7 34.5 109.7 35.5 C 109.7 36.5 109.9 37.2 110.2 37.7 C 110.6 38.2 111.1 38.4 111.8 38.4 C 112.3 38.4 112.7 38.2 113 37.9 C 113.4 37.6 113.6 37.1 113.7 36.5 Z M 116.1 30.3 L 116.1 28.8 L 117.4 28.8 L 117.4 30.3 L 116.1 30.3 Z M 116.1 39.3 L 116.1 31.7 L 117.4 31.7 L 117.4 39.3 L 116.1 39.3 Z M 121.6 38.2 C 121.7 38.2 121.9 38.2 122.1 38.1 C 122.1 38.1 122.3 39.3 122.3 39.3 C 122 39.3 121.6 39.4 121.3 39.4 C 120.9 39.4 120.5 39.3 120.3 39.2 C 120 39 119.8 38.8 119.7 38.6 C 119.6 38.3 119.6 37.8 119.6 37 C 119.56 37.04 119.6 32.7 119.6 32.7 L 118.6 32.7 L 118.6 31.7 L 119.6 31.7 L 119.6 29.8 L 120.8 29 L 120.8 31.7 L 122.1 31.7 L 122.1 32.7 L 120.8 32.7 C 120.8 32.7 120.84 37.12 120.8 37.1 C 120.8 37.5 120.9 37.7 120.9 37.8 C 121 37.9 121 38 121.1 38.1 C 121.2 38.1 121.4 38.2 121.6 38.2 C 121.6 38.2 121.6 38.2 121.6 38.2 Z M 124.2 42.4 C 123.9 42.4 123.6 42.3 123.3 42.2 C 123.3 42.2 123.2 41 123.2 41 C 123.5 41.1 123.7 41.1 123.9 41.1 C 124.2 41.1 124.4 41.1 124.6 41 C 124.8 40.9 124.9 40.7 125 40.6 C 125.1 40.4 125.3 40.1 125.4 39.6 C 125.5 39.5 125.5 39.4 125.6 39.3 C 125.55 39.29 122.7 31.7 122.7 31.7 L 124.1 31.7 C 124.1 31.7 125.64 36.07 125.6 36.1 C 125.8 36.6 126 37.2 126.2 37.8 C 126.3 37.2 126.5 36.7 126.7 36.1 C 126.72 36.1 128.3 31.7 128.3 31.7 L 129.6 31.7 C 129.6 31.7 126.74 39.4 126.7 39.4 C 126.4 40.2 126.2 40.8 126 41.1 C 125.8 41.6 125.5 41.9 125.2 42.1 C 124.9 42.3 124.6 42.4 124.2 42.4 C 124.2 42.4 124.2 42.4 124.2 42.4 Z M 130 39.3 L 130 37.8 L 131.4 37.8 C 131.4 37.8 131.44 39.27 131.4 39.3 C 131.4 39.8 131.3 40.2 131.2 40.6 C 131 40.9 130.7 41.2 130.2 41.3 C 130.2 41.3 129.9 40.8 129.9 40.8 C 130.2 40.7 130.4 40.5 130.5 40.3 C 130.6 40 130.7 39.7 130.7 39.3 C 130.71 39.27 130 39.3 130 39.3 Z M 137.8 39.3 L 137.8 31.7 L 138.9 31.7 C 138.9 31.7 138.94 32.82 138.9 32.8 C 139.2 32.3 139.5 31.9 139.8 31.8 C 140 31.6 140.3 31.5 140.6 31.5 C 141 31.5 141.5 31.6 141.9 31.9 C 141.9 31.9 141.5 33.1 141.5 33.1 C 141.1 32.9 140.8 32.8 140.5 32.8 C 140.2 32.8 140 32.9 139.8 33.1 C 139.5 33.3 139.4 33.5 139.3 33.8 C 139.1 34.2 139.1 34.7 139.1 35.3 C 139.06 35.29 139.1 39.3 139.1 39.3 L 137.8 39.3 Z M 147.9 36.8 C 147.9 36.8 149.2 37 149.2 37 C 149 37.8 148.6 38.4 148 38.8 C 147.5 39.2 146.8 39.4 145.9 39.4 C 144.8 39.4 143.9 39.1 143.2 38.4 C 142.6 37.7 142.2 36.8 142.2 35.5 C 142.2 34.3 142.6 33.3 143.2 32.6 C 143.9 31.8 144.7 31.5 145.8 31.5 C 146.8 31.5 147.6 31.8 148.3 32.5 C 148.9 33.2 149.3 34.2 149.3 35.5 C 149.3 35.5 149.3 35.6 149.2 35.8 C 149.2 35.8 143.6 35.8 143.6 35.8 C 143.6 36.6 143.9 37.3 144.3 37.7 C 144.7 38.2 145.2 38.4 145.9 38.4 C 146.3 38.4 146.8 38.3 147.1 38 C 147.4 37.8 147.7 37.4 147.9 36.8 Z M 143.6 34.7 C 143.6 34.7 147.9 34.7 147.9 34.7 C 147.8 34.1 147.7 33.6 147.4 33.3 C 147 32.8 146.5 32.6 145.8 32.6 C 145.2 32.6 144.7 32.8 144.3 33.1 C 143.9 33.5 143.7 34.1 143.6 34.7 Z M 150.3 37 C 150.3 37 151.6 36.8 151.6 36.8 C 151.7 37.3 151.9 37.7 152.2 38 C 152.5 38.2 153 38.4 153.6 38.4 C 154.2 38.4 154.6 38.3 154.9 38 C 155.2 37.8 155.3 37.5 155.3 37.2 C 155.3 36.9 155.2 36.7 154.9 36.5 C 154.8 36.4 154.3 36.2 153.6 36 C 152.7 35.8 152 35.6 151.6 35.4 C 151.3 35.3 151 35 150.8 34.7 C 150.6 34.4 150.5 34.1 150.5 33.7 C 150.5 33.3 150.6 33 150.8 32.7 C 150.9 32.5 151.1 32.2 151.4 32 C 151.6 31.9 151.9 31.8 152.2 31.6 C 152.6 31.5 152.9 31.5 153.3 31.5 C 153.9 31.5 154.5 31.6 154.9 31.8 C 155.4 31.9 155.7 32.2 155.9 32.5 C 156.1 32.7 156.3 33.1 156.3 33.6 C 156.3 33.6 155.1 33.8 155.1 33.8 C 155 33.4 154.9 33.1 154.6 32.9 C 154.3 32.7 153.9 32.6 153.4 32.6 C 152.8 32.6 152.4 32.7 152.2 32.8 C 151.9 33 151.8 33.3 151.8 33.5 C 151.8 33.7 151.8 33.9 151.9 34 C 152 34.1 152.2 34.2 152.4 34.3 C 152.6 34.4 152.9 34.5 153.6 34.7 C 154.5 34.9 155.1 35.1 155.5 35.3 C 155.8 35.4 156.1 35.6 156.3 35.9 C 156.5 36.2 156.6 36.6 156.6 37 C 156.6 37.5 156.5 37.9 156.3 38.3 C 156 38.6 155.6 38.9 155.2 39.1 C 154.7 39.3 154.2 39.4 153.6 39.4 C 152.6 39.4 151.8 39.2 151.3 38.8 C 150.8 38.4 150.5 37.8 150.3 37 Z M 157.7 35.5 C 157.7 34.1 158.1 33 158.9 32.3 C 159.5 31.8 160.3 31.5 161.3 31.5 C 162.3 31.5 163.2 31.8 163.8 32.5 C 164.5 33.2 164.8 34.2 164.8 35.4 C 164.8 36.3 164.7 37.1 164.4 37.7 C 164.1 38.2 163.6 38.7 163.1 39 C 162.5 39.3 161.9 39.4 161.3 39.4 C 160.2 39.4 159.3 39.1 158.7 38.4 C 158 37.7 157.7 36.8 157.7 35.5 Z M 159 35.5 C 159 36.4 159.2 37.2 159.6 37.7 C 160.1 38.1 160.6 38.4 161.3 38.4 C 161.9 38.4 162.4 38.1 162.8 37.7 C 163.3 37.2 163.5 36.4 163.5 35.4 C 163.5 34.5 163.3 33.8 162.8 33.3 C 162.4 32.8 161.9 32.6 161.3 32.6 C 160.6 32.6 160.1 32.8 159.6 33.3 C 159.2 33.8 159 34.5 159 35.5 Z M 171.3 39.3 C 171.3 39.3 171.31 38.16 171.3 38.2 C 170.7 39 169.9 39.4 168.9 39.4 C 168.4 39.4 168 39.4 167.6 39.2 C 167.2 39 167 38.8 166.8 38.5 C 166.6 38.3 166.4 38 166.4 37.6 C 166.3 37.3 166.3 36.9 166.3 36.4 C 166.29 36.38 166.3 31.7 166.3 31.7 L 167.6 31.7 C 167.6 31.7 167.58 35.88 167.6 35.9 C 167.6 36.6 167.6 37 167.7 37.2 C 167.7 37.6 167.9 37.9 168.2 38 C 168.4 38.2 168.8 38.3 169.1 38.3 C 169.5 38.3 169.9 38.2 170.2 38 C 170.6 37.8 170.8 37.6 171 37.2 C 171.1 36.9 171.2 36.4 171.2 35.7 C 171.17 35.74 171.2 31.7 171.2 31.7 L 172.5 31.7 L 172.5 39.3 L 171.3 39.3 Z M 174.5 39.3 L 174.5 31.7 L 175.6 31.7 C 175.6 31.7 175.62 32.82 175.6 32.8 C 175.9 32.3 176.2 31.9 176.4 31.8 C 176.7 31.6 177 31.5 177.3 31.5 C 177.7 31.5 178.1 31.6 178.6 31.9 C 178.6 31.9 178.2 33.1 178.2 33.1 C 177.8 32.9 177.5 32.8 177.2 32.8 C 176.9 32.8 176.7 32.9 176.4 33.1 C 176.2 33.3 176.1 33.5 176 33.8 C 175.8 34.2 175.8 34.7 175.8 35.3 C 175.75 35.29 175.8 39.3 175.8 39.3 L 174.5 39.3 Z M 184.3 36.5 C 184.3 36.5 185.6 36.7 185.6 36.7 C 185.5 37.5 185.1 38.2 184.5 38.7 C 184 39.2 183.3 39.4 182.4 39.4 C 181.4 39.4 180.5 39.1 179.9 38.4 C 179.3 37.7 179 36.8 179 35.5 C 179 34.7 179.1 34 179.4 33.3 C 179.6 32.7 180.1 32.3 180.6 32 C 181.2 31.6 181.8 31.5 182.4 31.5 C 183.3 31.5 183.9 31.7 184.5 32.1 C 185 32.5 185.3 33.1 185.5 33.9 C 185.5 33.9 184.2 34.1 184.2 34.1 C 184.1 33.6 183.9 33.2 183.6 32.9 C 183.3 32.7 182.9 32.6 182.5 32.6 C 181.8 32.6 181.3 32.8 180.9 33.3 C 180.5 33.7 180.3 34.5 180.3 35.5 C 180.3 36.5 180.5 37.2 180.9 37.7 C 181.3 38.2 181.8 38.4 182.4 38.4 C 182.9 38.4 183.3 38.2 183.7 37.9 C 184 37.6 184.2 37.1 184.3 36.5 Z M 191.9 36.8 C 191.9 36.8 193.2 37 193.2 37 C 193 37.8 192.6 38.4 192.1 38.8 C 191.5 39.2 190.8 39.4 189.9 39.4 C 188.8 39.4 187.9 39.1 187.2 38.4 C 186.6 37.7 186.3 36.8 186.3 35.5 C 186.3 34.3 186.6 33.3 187.3 32.6 C 187.9 31.8 188.8 31.5 189.8 31.5 C 190.8 31.5 191.7 31.8 192.3 32.5 C 193 33.2 193.3 34.2 193.3 35.5 C 193.3 35.5 193.3 35.6 193.3 35.8 C 193.3 35.8 187.6 35.8 187.6 35.8 C 187.6 36.6 187.9 37.3 188.3 37.7 C 188.7 38.2 189.3 38.4 189.9 38.4 C 190.4 38.4 190.8 38.3 191.1 38 C 191.4 37.8 191.7 37.4 191.9 36.8 Z M 187.7 34.7 C 187.7 34.7 191.9 34.7 191.9 34.7 C 191.9 34.1 191.7 33.6 191.4 33.3 C 191 32.8 190.5 32.6 189.8 32.6 C 189.2 32.6 188.7 32.8 188.3 33.1 C 187.9 33.5 187.7 34.1 187.7 34.7 Z M 194.3 37 C 194.3 37 195.6 36.8 195.6 36.8 C 195.7 37.3 195.9 37.7 196.2 38 C 196.5 38.2 197 38.4 197.6 38.4 C 198.2 38.4 198.6 38.3 198.9 38 C 199.2 37.8 199.3 37.5 199.3 37.2 C 199.3 36.9 199.2 36.7 198.9 36.5 C 198.8 36.4 198.3 36.2 197.6 36 C 196.7 35.8 196 35.6 195.7 35.4 C 195.3 35.3 195 35 194.8 34.7 C 194.6 34.4 194.6 34.1 194.6 33.7 C 194.6 33.3 194.6 33 194.8 32.7 C 194.9 32.5 195.2 32.2 195.4 32 C 195.6 31.9 195.9 31.8 196.2 31.6 C 196.6 31.5 197 31.5 197.4 31.5 C 197.9 31.5 198.5 31.6 198.9 31.8 C 199.4 31.9 199.7 32.2 199.9 32.5 C 200.1 32.7 200.3 33.1 200.4 33.6 C 200.4 33.6 199.1 33.8 199.1 33.8 C 199 33.4 198.9 33.1 198.6 32.9 C 198.3 32.7 197.9 32.6 197.4 32.6 C 196.9 32.6 196.4 32.7 196.2 32.8 C 195.9 33 195.8 33.3 195.8 33.5 C 195.8 33.7 195.8 33.9 196 34 C 196.1 34.1 196.2 34.2 196.4 34.3 C 196.6 34.4 197 34.5 197.6 34.7 C 198.5 34.9 199.1 35.1 199.5 35.3 C 199.9 35.4 200.1 35.6 200.3 35.9 C 200.6 36.2 200.7 36.6 200.7 37 C 200.7 37.5 200.5 37.9 200.3 38.3 C 200 38.6 199.7 38.9 199.2 39.1 C 198.7 39.3 198.2 39.4 197.6 39.4 C 196.6 39.4 195.8 39.2 195.3 38.8 C 194.8 38.4 194.5 37.8 194.3 37 Z M 211.5 39.3 C 211.3 39 211.3 38.7 211.2 38.3 C 210.7 38.7 210.3 39 209.8 39.2 C 209.4 39.4 208.9 39.4 208.4 39.4 C 207.6 39.4 206.9 39.2 206.5 38.8 C 206 38.4 205.8 37.9 205.8 37.3 C 205.8 36.9 205.9 36.6 206.1 36.2 C 206.2 35.9 206.5 35.7 206.7 35.5 C 207 35.3 207.3 35.2 207.7 35.1 C 207.9 35 208.3 35 208.8 34.9 C 209.9 34.8 210.6 34.6 211.1 34.4 C 211.1 34.3 211.1 34.2 211.1 34.1 C 211.1 33.6 211 33.2 210.8 33 C 210.4 32.7 209.9 32.6 209.3 32.6 C 208.7 32.6 208.2 32.7 207.9 32.9 C 207.7 33.1 207.4 33.5 207.3 34 C 207.3 34 206 33.8 206 33.8 C 206.2 33.3 206.3 32.9 206.6 32.5 C 206.9 32.2 207.3 31.9 207.7 31.8 C 208.2 31.6 208.8 31.5 209.5 31.5 C 210.1 31.5 210.7 31.6 211.1 31.7 C 211.5 31.9 211.8 32.1 212 32.3 C 212.1 32.5 212.3 32.8 212.4 33.2 C 212.4 33.4 212.4 33.8 212.4 34.4 C 212.4 34.4 212.4 36.1 212.4 36.1 C 212.4 37.3 212.4 38 212.5 38.4 C 212.6 38.7 212.7 39 212.8 39.3 C 212.83 39.27 211.5 39.3 211.5 39.3 C 211.5 39.3 211.48 39.27 211.5 39.3 Z M 211.1 35.5 C 210.6 35.6 209.9 35.8 209 35.9 C 208.5 36 208.1 36.1 207.9 36.2 C 207.7 36.3 207.5 36.4 207.4 36.6 C 207.3 36.8 207.2 37 207.2 37.2 C 207.2 37.6 207.3 37.9 207.6 38.1 C 207.8 38.3 208.2 38.4 208.7 38.4 C 209.2 38.4 209.7 38.3 210.1 38.1 C 210.4 37.9 210.7 37.6 210.9 37.2 C 211 36.9 211.1 36.5 211.1 35.9 C 211.1 35.9 211.1 35.5 211.1 35.5 Z M 214.4 39.3 L 214.4 31.7 L 215.6 31.7 C 215.6 31.7 215.58 32.75 215.6 32.7 C 216.1 31.9 216.9 31.5 218 31.5 C 218.5 31.5 218.9 31.6 219.3 31.7 C 219.6 31.9 219.9 32.1 220.1 32.4 C 220.3 32.7 220.4 33 220.5 33.3 C 220.6 33.6 220.6 34 220.6 34.6 C 220.6 34.6 220.6 39.3 220.6 39.3 L 219.3 39.3 C 219.3 39.3 219.31 34.65 219.3 34.6 C 219.3 34.1 219.3 33.7 219.2 33.5 C 219.1 33.2 218.9 33 218.6 32.8 C 218.4 32.7 218.1 32.6 217.7 32.6 C 217.2 32.6 216.7 32.8 216.3 33.1 C 215.9 33.5 215.7 34.1 215.7 35.1 C 215.71 35.12 215.7 39.3 215.7 39.3 L 214.4 39.3 Z M 227.5 39.3 C 227.5 39.3 227.51 38.31 227.5 38.3 C 227 39.1 226.3 39.4 225.4 39.4 C 224.8 39.4 224.2 39.3 223.7 38.9 C 223.2 38.6 222.8 38.1 222.5 37.5 C 222.2 36.9 222.1 36.3 222.1 35.5 C 222.1 34.7 222.2 34 222.5 33.4 C 222.7 32.8 223.1 32.3 223.6 32 C 224.1 31.7 224.7 31.5 225.3 31.5 C 225.8 31.5 226.2 31.6 226.5 31.8 C 226.9 32 227.2 32.2 227.4 32.5 C 227.42 32.54 227.4 28.8 227.4 28.8 L 228.7 28.8 L 228.7 39.3 L 227.5 39.3 Z M 223.4 35.5 C 223.4 36.5 223.6 37.2 224 37.7 C 224.5 38.1 224.9 38.4 225.5 38.4 C 226.1 38.4 226.5 38.2 226.9 37.7 C 227.3 37.2 227.5 36.5 227.5 35.6 C 227.5 34.5 227.3 33.8 226.9 33.3 C 226.5 32.8 226 32.6 225.4 32.6 C 224.9 32.6 224.4 32.8 224 33.3 C 223.6 33.7 223.4 34.5 223.4 35.5 Z " stroke="none" fill="#fff"/>  </g></svg>