<?xml version="1.0" standalone="no"?><!DOCTYPE svg PUBLIC "-//W3C//DTD SVG 1.1//EN" "http://www.w3.org/Graphics/SVG/1.1/DTD/svg11.dtd"><svg xmlns="http://www.w3.org/2000/svg" version="1.1" width="569.3px" height="71.2px" viewBox="0 -1 569.3 71.2" style="top:-1px">  <desc>solutions across Various</desc>  <defs/>  <g id="Polygon65776">    <path d="M 9.7 16.7 C 11.8 16.7 13.9 17.2 16 18.4 C 16 18.4 16 20.7 16 20.7 C 13.6 19.3 11.6 18.6 9.9 18.6 C 8.2 18.6 6.9 19.1 5.8 20.1 C 4.7 21.1 4.1 22.3 4.1 23.8 C 4.1 24.9 4.4 25.8 5.1 26.7 C 5.7 27.5 7.1 28.3 9.2 29.1 C 11.3 29.9 12.8 30.5 13.7 31.1 C 14.7 31.6 15.5 32.3 16.1 33.3 C 16.8 34.3 17.1 35.6 17.1 37.2 C 17.1 39.3 16.4 41 14.8 42.5 C 13.3 43.9 11.4 44.7 9.2 44.7 C 6.9 44.7 4.6 43.9 2.2 42.3 C 2.2 42.3 2.2 39.8 2.2 39.8 C 4.9 41.7 7.1 42.7 9.1 42.7 C 10.7 42.7 12.1 42.2 13.2 41.1 C 14.3 40.1 14.8 38.8 14.8 37.3 C 14.8 36.1 14.5 35.1 13.8 34.1 C 13.1 33.2 11.7 32.3 9.6 31.5 C 7.5 30.7 6 30.1 5.1 29.6 C 4.2 29.1 3.4 28.4 2.8 27.5 C 2.2 26.5 1.8 25.4 1.8 23.9 C 1.8 21.9 2.6 20.2 4.1 18.8 C 5.7 17.4 7.5 16.7 9.7 16.7 C 9.7 16.7 9.7 16.7 9.7 16.7 Z M 35.2 16.7 C 39.3 16.7 42.7 18 45.5 20.7 C 48.3 23.5 49.7 26.8 49.7 30.7 C 49.7 34.6 48.3 37.9 45.5 40.6 C 42.7 43.3 39.3 44.7 35.2 44.7 C 31.2 44.7 27.8 43.3 25 40.6 C 22.2 37.9 20.8 34.6 20.8 30.7 C 20.8 26.8 22.2 23.5 25 20.7 C 27.8 18 31.2 16.7 35.2 16.7 Z M 35.3 42.7 C 38.7 42.7 41.6 41.5 43.9 39.2 C 46.2 36.9 47.4 34 47.4 30.7 C 47.4 27.3 46.2 24.4 43.9 22.1 C 41.6 19.8 38.7 18.6 35.3 18.6 C 31.9 18.6 29 19.8 26.6 22.1 C 24.3 24.4 23.1 27.3 23.1 30.7 C 23.1 34 24.3 36.9 26.6 39.2 C 29 41.5 31.9 42.7 35.3 42.7 Z M 57 17 L 57 42.5 L 70.5 42.5 L 70.5 44.3 L 54.9 44.3 L 54.9 17 L 57 17 Z M 93.8 17 L 95.9 17 C 95.9 17 95.86 31.9 95.9 31.9 C 95.9 36 94.8 39.1 92.7 41.3 C 90.6 43.5 87.8 44.7 84.4 44.7 C 81.1 44.7 78.3 43.6 76.2 41.4 C 74.1 39.2 73 36.2 73 32.4 C 73.03 32.39 73 17 73 17 L 75.2 17 C 75.2 17 75.16 32.31 75.2 32.3 C 75.2 35.6 76 38.1 77.7 39.9 C 79.5 41.8 81.7 42.7 84.4 42.7 C 87.2 42.7 89.4 41.8 91.2 39.9 C 92.9 38.1 93.8 35.4 93.8 32 C 93.75 32.02 93.8 17 93.8 17 Z M 121.2 17 L 121.2 18.8 L 110.9 18.8 L 110.9 44.3 L 108.8 44.3 L 108.8 18.8 L 98.6 18.8 L 98.6 17 L 121.2 17 Z M 126.6 17 L 126.6 44.3 L 124.5 44.3 L 124.5 17 L 126.6 17 Z M 146.1 16.7 C 150.1 16.7 153.6 18 156.4 20.7 C 159.2 23.5 160.6 26.8 160.6 30.7 C 160.6 34.6 159.2 37.9 156.4 40.6 C 153.6 43.3 150.1 44.7 146.1 44.7 C 142.1 44.7 138.7 43.3 135.9 40.6 C 133.1 37.9 131.7 34.6 131.7 30.7 C 131.7 26.8 133.1 23.5 135.9 20.7 C 138.7 18 142.1 16.7 146.1 16.7 Z M 146.2 42.7 C 149.6 42.7 152.4 41.5 154.8 39.2 C 157.1 36.9 158.3 34 158.3 30.7 C 158.3 27.3 157.1 24.4 154.8 22.1 C 152.4 19.8 149.6 18.6 146.2 18.6 C 142.8 18.6 139.9 19.8 137.5 22.1 C 135.1 24.4 134 27.3 134 30.7 C 134 34 135.1 36.9 137.5 39.2 C 139.9 41.5 142.8 42.7 146.2 42.7 Z M 190.3 17 L 190.3 44.3 L 188.6 44.3 L 167.8 20.5 L 167.8 44.3 L 165.7 44.3 L 165.7 17 L 167.5 17 L 188.2 40.9 L 188.2 17 L 190.3 17 Z M 203.1 16.7 C 205.2 16.7 207.3 17.2 209.4 18.4 C 209.4 18.4 209.4 20.7 209.4 20.7 C 207 19.3 205 18.6 203.3 18.6 C 201.7 18.6 200.3 19.1 199.2 20.1 C 198.1 21.1 197.5 22.3 197.5 23.8 C 197.5 24.9 197.9 25.8 198.5 26.7 C 199.2 27.5 200.5 28.3 202.6 29.1 C 204.7 29.9 206.2 30.5 207.1 31.1 C 208.1 31.6 208.9 32.3 209.6 33.3 C 210.2 34.3 210.5 35.6 210.5 37.2 C 210.5 39.3 209.8 41 208.2 42.5 C 206.7 43.9 204.8 44.7 202.6 44.7 C 200.4 44.7 198 43.9 195.6 42.3 C 195.6 42.3 195.6 39.8 195.6 39.8 C 198.3 41.7 200.6 42.7 202.5 42.7 C 204.1 42.7 205.5 42.2 206.6 41.1 C 207.7 40.1 208.3 38.8 208.3 37.3 C 208.3 36.1 207.9 35.1 207.2 34.1 C 206.5 33.2 205.1 32.3 203 31.5 C 200.9 30.7 199.4 30.1 198.5 29.6 C 197.6 29.1 196.8 28.4 196.2 27.5 C 195.6 26.5 195.3 25.4 195.3 23.9 C 195.3 21.9 196 20.2 197.6 18.8 C 199.1 17.4 200.9 16.7 203.1 16.7 C 203.1 16.7 203.1 16.7 203.1 16.7 Z M 234.8 16.8 L 247.4 44.3 L 245.2 44.3 L 240.9 34.9 L 227.6 34.9 L 223.3 44.3 L 221.1 44.3 L 233.7 16.8 L 234.8 16.8 Z M 240.1 33.1 L 234.2 20.3 L 228.4 33.1 L 240.1 33.1 Z M 261.9 16.7 C 264.9 16.7 268.1 17.4 271.5 19 C 271.5 19 271.5 21.3 271.5 21.3 C 268.2 19.5 264.9 18.6 261.7 18.6 C 258.4 18.6 255.5 19.8 253.2 22.1 C 251 24.4 249.8 27.3 249.8 30.7 C 249.8 34.2 251 37.1 253.3 39.3 C 255.6 41.6 258.5 42.7 262 42.7 C 265 42.7 268.2 41.8 271.7 39.9 C 271.7 39.9 271.7 42.1 271.7 42.1 C 268.5 43.8 265.3 44.7 262.1 44.7 C 257.9 44.7 254.5 43.3 251.7 40.7 C 248.9 38 247.5 34.7 247.5 30.7 C 247.5 26.7 249 23.4 251.8 20.7 C 254.6 18 258 16.7 261.9 16.7 C 261.9 16.7 261.9 16.7 261.9 16.7 Z M 275.8 17 C 275.8 17 282.81 17.02 282.8 17 C 285.7 17 288 17.7 289.5 18.9 C 291.1 20.2 291.9 21.9 291.9 24.1 C 291.9 27.2 290.1 29.4 286.7 30.7 C 287.6 31.1 288.8 32.5 290.3 34.9 C 290.29 34.87 296.5 44.3 296.5 44.3 L 294 44.3 C 294 44.3 289.22 36.83 289.2 36.8 C 287.6 34.3 286.4 32.8 285.5 32.1 C 284.6 31.5 283.3 31.2 281.6 31.2 C 281.62 31.22 277.9 31.2 277.9 31.2 L 277.9 44.3 L 275.8 44.3 L 275.8 17 Z M 277.9 18.8 L 277.9 29.5 C 277.9 29.5 282.46 29.46 282.5 29.5 C 284.8 29.5 286.5 29 287.7 28.1 C 289 27.1 289.6 25.8 289.6 24.1 C 289.6 22.4 289 21.1 287.7 20.2 C 286.5 19.2 284.7 18.8 282.4 18.8 C 282.38 18.78 277.9 18.8 277.9 18.8 Z M 311.4 16.7 C 315.5 16.7 318.9 18 321.7 20.7 C 324.5 23.5 325.9 26.8 325.9 30.7 C 325.9 34.6 324.5 37.9 321.7 40.6 C 318.9 43.3 315.5 44.7 311.4 44.7 C 307.4 44.7 304 43.3 301.2 40.6 C 298.4 37.9 297 34.6 297 30.7 C 297 26.8 298.4 23.5 301.2 20.7 C 304 18 307.4 16.7 311.4 16.7 Z M 311.5 42.7 C 314.9 42.7 317.8 41.5 320.1 39.2 C 322.4 36.9 323.6 34 323.6 30.7 C 323.6 27.3 322.4 24.4 320.1 22.1 C 317.8 19.8 314.9 18.6 311.5 18.6 C 308.1 18.6 305.2 19.8 302.8 22.1 C 300.5 24.4 299.3 27.3 299.3 30.7 C 299.3 34 300.5 36.9 302.8 39.2 C 305.2 41.5 308.1 42.7 311.5 42.7 Z M 337.6 16.7 C 339.7 16.7 341.8 17.2 343.9 18.4 C 343.9 18.4 343.9 20.7 343.9 20.7 C 341.5 19.3 339.5 18.6 337.8 18.6 C 336.2 18.6 334.8 19.1 333.7 20.1 C 332.6 21.1 332 22.3 332 23.8 C 332 24.9 332.4 25.8 333 26.7 C 333.7 27.5 335 28.3 337.1 29.1 C 339.2 29.9 340.7 30.5 341.6 31.1 C 342.6 31.6 343.4 32.3 344 33.3 C 344.7 34.3 345 35.6 345 37.2 C 345 39.3 344.3 41 342.7 42.5 C 341.2 43.9 339.3 44.7 337.1 44.7 C 334.8 44.7 332.5 43.9 330.1 42.3 C 330.1 42.3 330.1 39.8 330.1 39.8 C 332.8 41.7 335.1 42.7 337 42.7 C 338.6 42.7 340 42.2 341.1 41.1 C 342.2 40.1 342.8 38.8 342.8 37.3 C 342.8 36.1 342.4 35.1 341.7 34.1 C 341 33.2 339.6 32.3 337.5 31.5 C 335.4 30.7 333.9 30.1 333 29.6 C 332.1 29.1 331.3 28.4 330.7 27.5 C 330.1 26.5 329.7 25.4 329.7 23.9 C 329.7 21.9 330.5 20.2 332.1 18.8 C 333.6 17.4 335.4 16.7 337.6 16.7 C 337.6 16.7 337.6 16.7 337.6 16.7 Z M 356.4 16.7 C 358.5 16.7 360.6 17.2 362.7 18.4 C 362.7 18.4 362.7 20.7 362.7 20.7 C 360.3 19.3 358.3 18.6 356.6 18.6 C 354.9 18.6 353.6 19.1 352.5 20.1 C 351.4 21.1 350.8 22.3 350.8 23.8 C 350.8 24.9 351.1 25.8 351.8 26.7 C 352.4 27.5 353.8 28.3 355.9 29.1 C 357.9 29.9 359.4 30.5 360.4 31.1 C 361.3 31.6 362.1 32.3 362.8 33.3 C 363.5 34.3 363.8 35.6 363.8 37.2 C 363.8 39.3 363 41 361.5 42.5 C 360 43.9 358.1 44.7 355.9 44.7 C 353.6 44.7 351.3 43.9 348.9 42.3 C 348.9 42.3 348.9 39.8 348.9 39.8 C 351.5 41.7 353.8 42.7 355.8 42.7 C 357.4 42.7 358.7 42.2 359.9 41.1 C 361 40.1 361.5 38.8 361.5 37.3 C 361.5 36.1 361.2 35.1 360.5 34.1 C 359.8 33.2 358.4 32.3 356.3 31.5 C 354.2 30.7 352.7 30.1 351.8 29.6 C 350.9 29.1 350.1 28.4 349.5 27.5 C 348.8 26.5 348.5 25.4 348.5 23.9 C 348.5 21.9 349.3 20.2 350.8 18.8 C 352.4 17.4 354.2 16.7 356.4 16.7 C 356.4 16.7 356.4 16.7 356.4 16.7 Z M 394.6 17 L 383.2 44.6 L 382.6 44.6 L 371.1 17 L 373.2 17 L 382.9 40.1 L 392.5 17 L 394.6 17 Z M 406.3 16.8 L 418.9 44.3 L 416.7 44.3 L 412.3 34.9 L 399 34.9 L 394.7 44.3 L 392.5 44.3 L 405.1 16.8 L 406.3 16.8 Z M 411.5 33.1 L 405.7 20.3 L 399.8 33.1 L 411.5 33.1 Z M 422.2 17 C 422.2 17 429.16 17.02 429.2 17 C 432.1 17 434.3 17.7 435.9 18.9 C 437.4 20.2 438.2 21.9 438.2 24.1 C 438.2 27.2 436.5 29.4 433 30.7 C 433.9 31.1 435.1 32.5 436.6 34.9 C 436.64 34.87 442.8 44.3 442.8 44.3 L 440.3 44.3 C 440.3 44.3 435.56 36.83 435.6 36.8 C 434 34.3 432.7 32.8 431.9 32.1 C 431 31.5 429.7 31.2 428 31.2 C 427.97 31.22 424.3 31.2 424.3 31.2 L 424.3 44.3 L 422.2 44.3 L 422.2 17 Z M 424.3 18.8 L 424.3 29.5 C 424.3 29.5 428.81 29.46 428.8 29.5 C 431.1 29.5 432.9 29 434.1 28.1 C 435.3 27.1 435.9 25.8 435.9 24.1 C 435.9 22.4 435.3 21.1 434.1 20.2 C 432.8 19.2 431 18.8 428.7 18.8 C 428.73 18.78 424.3 18.8 424.3 18.8 Z M 447.2 17 L 447.2 44.3 L 445.1 44.3 L 445.1 17 L 447.2 17 Z M 466.7 16.7 C 470.7 16.7 474.2 18 477 20.7 C 479.8 23.5 481.2 26.8 481.2 30.7 C 481.2 34.6 479.8 37.9 477 40.6 C 474.2 43.3 470.7 44.7 466.7 44.7 C 462.7 44.7 459.3 43.3 456.5 40.6 C 453.7 37.9 452.3 34.6 452.3 30.7 C 452.3 26.8 453.7 23.5 456.5 20.7 C 459.3 18 462.7 16.7 466.7 16.7 Z M 466.8 42.7 C 470.2 42.7 473 41.5 475.4 39.2 C 477.7 36.9 478.9 34 478.9 30.7 C 478.9 27.3 477.7 24.4 475.4 22.1 C 473 19.8 470.2 18.6 466.8 18.6 C 463.4 18.6 460.5 19.8 458.1 22.1 C 455.8 24.4 454.6 27.3 454.6 30.7 C 454.6 34 455.8 36.9 458.1 39.2 C 460.5 41.5 463.4 42.7 466.8 42.7 Z M 506.5 17 L 508.6 17 C 508.6 17 508.57 31.9 508.6 31.9 C 508.6 36 507.5 39.1 505.4 41.3 C 503.3 43.5 500.5 44.7 497.1 44.7 C 493.8 44.7 491 43.6 488.9 41.4 C 486.8 39.2 485.7 36.2 485.7 32.4 C 485.74 32.39 485.7 17 485.7 17 L 487.9 17 C 487.9 17 487.87 32.31 487.9 32.3 C 487.9 35.6 488.7 38.1 490.5 39.9 C 492.2 41.8 494.4 42.7 497.1 42.7 C 499.9 42.7 502.2 41.8 503.9 39.9 C 505.6 38.1 506.5 35.4 506.5 32 C 506.46 32.02 506.5 17 506.5 17 Z M 520.8 16.7 C 522.9 16.7 525 17.2 527.1 18.4 C 527.1 18.4 527.1 20.7 527.1 20.7 C 524.7 19.3 522.7 18.6 521 18.6 C 519.4 18.6 518 19.1 516.9 20.1 C 515.8 21.1 515.2 22.3 515.2 23.8 C 515.2 24.9 515.6 25.8 516.2 26.7 C 516.9 27.5 518.2 28.3 520.3 29.1 C 522.4 29.9 523.9 30.5 524.8 31.1 C 525.8 31.6 526.6 32.3 527.2 33.3 C 527.9 34.3 528.2 35.6 528.2 37.2 C 528.2 39.3 527.5 41 525.9 42.5 C 524.4 43.9 522.5 44.7 520.3 44.7 C 518 44.7 515.7 43.9 513.3 42.3 C 513.3 42.3 513.3 39.8 513.3 39.8 C 516 41.7 518.3 42.7 520.2 42.7 C 521.8 42.7 523.2 42.2 524.3 41.1 C 525.4 40.1 526 38.8 526 37.3 C 526 36.1 525.6 35.1 524.9 34.1 C 524.2 33.2 522.8 32.3 520.7 31.5 C 518.6 30.7 517.1 30.1 516.2 29.6 C 515.3 29.1 514.5 28.4 513.9 27.5 C 513.3 26.5 512.9 25.4 512.9 23.9 C 512.9 21.9 513.7 20.2 515.3 18.8 C 516.8 17.4 518.6 16.7 520.8 16.7 C 520.8 16.7 520.8 16.7 520.8 16.7 Z " stroke="none" fill="#000"/>  </g></svg>