<?xml version="1.0" standalone="no"?><!DOCTYPE svg PUBLIC "-//W3C//DTD SVG 1.1//EN" "http://www.w3.org/Graphics/SVG/1.1/DTD/svg11.dtd"><svg xmlns="http://www.w3.org/2000/svg" version="1.1" width="158px" height="20.5px" viewBox="0 -4 158 20.5" style="top:-4px">  <desc>© DSW Consulting Ltd. 2024</desc>  <defs/>  <g id="Polygon69578">    <path d="M 12.1 0 C 12.8 0 13.5 0.2 14.2 0.6 C 14.9 0.9 15.4 1.5 15.8 2.2 C 16.2 2.9 16.4 3.6 16.4 4.3 C 16.4 5.1 16.2 5.8 15.8 6.5 C 15.4 7.2 14.9 7.7 14.2 8.1 C 13.5 8.5 12.8 8.6 12.1 8.6 C 11.3 8.6 10.6 8.5 9.9 8.1 C 9.2 7.7 8.7 7.2 8.3 6.5 C 7.9 5.8 7.7 5.1 7.7 4.3 C 7.7 3.6 7.9 2.9 8.3 2.2 C 8.7 1.5 9.2 0.9 9.9 0.6 C 10.6 0.2 11.3 0 12.1 0 Z M 12.1 0.7 C 11.5 0.7 10.9 0.9 10.3 1.2 C 9.7 1.5 9.3 1.9 8.9 2.5 C 8.6 3.1 8.5 3.7 8.5 4.3 C 8.5 4.9 8.6 5.5 8.9 6.1 C 9.3 6.7 9.7 7.1 10.3 7.5 C 10.8 7.8 11.4 7.9 12.1 7.9 C 12.7 7.9 13.3 7.8 13.9 7.5 C 14.4 7.1 14.9 6.7 15.2 6.1 C 15.5 5.5 15.7 4.9 15.7 4.3 C 15.7 3.7 15.5 3.1 15.2 2.5 C 14.9 1.9 14.4 1.5 13.8 1.2 C 13.3 0.9 12.7 0.7 12.1 0.7 Z M 13.5 5 C 13.5 5 14.2 5.2 14.2 5.2 C 14 5.7 13.8 6.1 13.4 6.4 C 13.1 6.7 12.6 6.8 12.1 6.8 C 11.4 6.8 10.9 6.6 10.4 6.1 C 10 5.7 9.8 5.1 9.8 4.3 C 9.8 3.8 9.9 3.4 10.1 3 C 10.3 2.6 10.6 2.4 10.9 2.2 C 11.3 2 11.7 1.9 12.1 1.9 C 12.6 1.9 13 2 13.4 2.3 C 13.7 2.5 13.9 2.8 14.1 3.2 C 14.1 3.2 13.4 3.4 13.4 3.4 C 13.3 3.1 13.1 2.9 12.9 2.8 C 12.7 2.6 12.4 2.5 12.1 2.5 C 11.7 2.5 11.3 2.7 11 3 C 10.7 3.3 10.6 3.8 10.6 4.4 C 10.6 4.9 10.7 5.4 11 5.7 C 11.3 6 11.6 6.1 12 6.1 C 12.4 6.1 12.7 6 12.9 5.8 C 13.2 5.6 13.4 5.4 13.5 5 Z M 20.5 8.5 L 20.5 0.1 C 20.5 0.1 23.43 0.14 23.4 0.1 C 24.1 0.1 24.6 0.2 24.9 0.3 C 25.4 0.4 25.8 0.6 26.2 0.9 C 26.6 1.2 26.9 1.7 27.1 2.3 C 27.4 2.9 27.5 3.5 27.5 4.3 C 27.5 4.9 27.4 5.5 27.3 6 C 27.1 6.5 26.9 6.9 26.7 7.2 C 26.4 7.5 26.2 7.8 25.9 8 C 25.6 8.2 25.3 8.3 24.9 8.4 C 24.5 8.5 24.1 8.5 23.6 8.5 C 23.56 8.54 20.5 8.5 20.5 8.5 Z M 21.6 7.6 C 21.6 7.6 23.44 7.55 23.4 7.6 C 24 7.6 24.4 7.5 24.7 7.4 C 25.1 7.3 25.3 7.1 25.5 7 C 25.8 6.7 26 6.3 26.1 5.9 C 26.3 5.5 26.3 4.9 26.3 4.3 C 26.3 3.4 26.2 2.7 25.9 2.3 C 25.6 1.8 25.3 1.5 24.8 1.3 C 24.5 1.2 24.1 1.1 23.4 1.1 C 23.41 1.13 21.6 1.1 21.6 1.1 L 21.6 7.6 Z M 28.6 5.8 C 28.6 5.8 29.7 5.8 29.7 5.8 C 29.7 6.2 29.8 6.5 30 6.8 C 30.2 7.1 30.5 7.3 30.9 7.4 C 31.3 7.6 31.7 7.7 32.2 7.7 C 32.6 7.7 33 7.6 33.3 7.5 C 33.6 7.4 33.8 7.2 34 7 C 34.2 6.8 34.2 6.5 34.2 6.3 C 34.2 6 34.2 5.8 34 5.6 C 33.9 5.4 33.6 5.2 33.3 5.1 C 33 5 32.5 4.9 31.8 4.7 C 31 4.5 30.5 4.3 30.1 4.1 C 29.7 3.9 29.4 3.7 29.2 3.4 C 29 3 28.9 2.7 28.9 2.3 C 28.9 1.9 29.1 1.5 29.3 1.1 C 29.6 0.8 29.9 0.5 30.4 0.3 C 30.8 0.1 31.3 0 31.9 0 C 32.5 0 33.1 0.1 33.6 0.3 C 34 0.5 34.4 0.8 34.7 1.2 C 34.9 1.6 35 2 35.1 2.5 C 35.1 2.5 34 2.6 34 2.6 C 33.9 2.1 33.7 1.7 33.4 1.4 C 33.1 1.1 32.6 1 32 1 C 31.3 1 30.8 1.1 30.5 1.3 C 30.2 1.6 30 1.9 30 2.2 C 30 2.5 30.1 2.8 30.3 3 C 30.6 3.2 31.1 3.4 32 3.6 C 32.9 3.8 33.5 4 33.9 4.1 C 34.4 4.3 34.7 4.6 35 5 C 35.2 5.3 35.3 5.7 35.3 6.2 C 35.3 6.6 35.2 7 34.9 7.4 C 34.7 7.8 34.3 8.1 33.8 8.4 C 33.3 8.6 32.8 8.7 32.2 8.7 C 31.4 8.7 30.8 8.6 30.3 8.4 C 29.8 8.1 29.4 7.8 29.1 7.4 C 28.8 6.9 28.6 6.4 28.6 5.8 Z M 38.3 8.5 L 36.1 0.1 L 37.2 0.1 C 37.2 0.1 38.49 5.65 38.5 5.6 C 38.6 6.2 38.7 6.8 38.8 7.4 C 39.1 6.5 39.2 6 39.2 5.8 C 39.22 5.82 40.8 0.1 40.8 0.1 L 42.2 0.1 C 42.2 0.1 43.36 4.39 43.4 4.4 C 43.7 5.4 43.9 6.4 44 7.4 C 44.1 6.8 44.3 6.2 44.4 5.5 C 44.44 5.54 45.8 0.1 45.8 0.1 L 46.9 0.1 L 44.6 8.5 L 43.5 8.5 C 43.5 8.5 41.73 2.14 41.7 2.1 C 41.6 1.6 41.5 1.3 41.5 1.2 C 41.4 1.5 41.3 1.9 41.2 2.1 C 41.22 2.14 39.4 8.5 39.4 8.5 L 38.3 8.5 Z M 57.2 5.6 C 57.2 5.6 58.3 5.9 58.3 5.9 C 58 6.8 57.6 7.5 57 8 C 56.4 8.4 55.7 8.7 54.8 8.7 C 53.9 8.7 53.2 8.5 52.6 8.1 C 52 7.8 51.6 7.2 51.3 6.5 C 51 5.8 50.8 5.1 50.8 4.3 C 50.8 3.4 51 2.6 51.3 2 C 51.7 1.3 52.2 0.8 52.8 0.5 C 53.4 0.2 54.1 0 54.8 0 C 55.7 0 56.4 0.2 56.9 0.6 C 57.5 1.1 57.9 1.7 58.1 2.4 C 58.1 2.4 57 2.7 57 2.7 C 56.8 2.1 56.6 1.6 56.2 1.4 C 55.8 1.1 55.3 1 54.8 1 C 54.1 1 53.6 1.1 53.2 1.4 C 52.7 1.7 52.4 2.1 52.3 2.7 C 52.1 3.2 52 3.7 52 4.3 C 52 5 52.1 5.6 52.3 6.1 C 52.5 6.7 52.8 7.1 53.3 7.3 C 53.7 7.6 54.2 7.7 54.7 7.7 C 55.3 7.7 55.9 7.6 56.3 7.2 C 56.7 6.8 57 6.3 57.2 5.6 Z M 59.1 5.5 C 59.1 4.4 59.4 3.5 60.1 3 C 60.6 2.5 61.2 2.3 62 2.3 C 62.8 2.3 63.5 2.6 64 3.1 C 64.6 3.7 64.8 4.4 64.8 5.4 C 64.8 6.2 64.7 6.8 64.5 7.3 C 64.2 7.7 63.9 8.1 63.4 8.3 C 63 8.6 62.5 8.7 62 8.7 C 61.1 8.7 60.4 8.4 59.9 7.9 C 59.4 7.3 59.1 6.5 59.1 5.5 Z M 60.2 5.5 C 60.2 6.3 60.4 6.9 60.7 7.3 C 61 7.6 61.5 7.8 62 7.8 C 62.5 7.8 62.9 7.6 63.3 7.2 C 63.6 6.9 63.8 6.3 63.8 5.5 C 63.8 4.7 63.6 4.1 63.3 3.8 C 62.9 3.4 62.5 3.2 62 3.2 C 61.5 3.2 61 3.4 60.7 3.8 C 60.4 4.1 60.2 4.7 60.2 5.5 Z M 66 8.5 L 66 2.5 L 67 2.5 C 67 2.5 66.96 3.32 67 3.3 C 67.4 2.7 68.1 2.3 68.9 2.3 C 69.3 2.3 69.6 2.4 69.9 2.5 C 70.2 2.6 70.4 2.8 70.6 3 C 70.8 3.3 70.9 3.5 70.9 3.8 C 71 4 71 4.3 71 4.8 C 70.98 4.8 71 8.5 71 8.5 L 69.9 8.5 C 69.9 8.5 69.95 4.84 69.9 4.8 C 69.9 4.4 69.9 4.1 69.8 3.9 C 69.7 3.7 69.6 3.5 69.4 3.4 C 69.2 3.3 69 3.2 68.7 3.2 C 68.2 3.2 67.9 3.4 67.5 3.6 C 67.2 3.9 67.1 4.4 67.1 5.2 C 67.07 5.22 67.1 8.5 67.1 8.5 L 66 8.5 Z M 72.1 6.7 C 72.1 6.7 73.2 6.6 73.2 6.6 C 73.2 7 73.4 7.3 73.6 7.5 C 73.9 7.7 74.3 7.8 74.7 7.8 C 75.2 7.8 75.6 7.7 75.8 7.5 C 76 7.3 76.1 7.1 76.1 6.9 C 76.1 6.6 76 6.4 75.8 6.3 C 75.7 6.2 75.3 6.1 74.8 6 C 74 5.8 73.5 5.6 73.2 5.5 C 72.9 5.3 72.7 5.1 72.5 4.9 C 72.4 4.6 72.3 4.4 72.3 4.1 C 72.3 3.8 72.4 3.6 72.5 3.3 C 72.6 3.1 72.8 2.9 73 2.7 C 73.2 2.6 73.4 2.5 73.7 2.4 C 73.9 2.4 74.2 2.3 74.6 2.3 C 75 2.3 75.5 2.4 75.8 2.5 C 76.2 2.7 76.4 2.9 76.6 3.1 C 76.8 3.3 76.9 3.6 77 4 C 77 4 76 4.2 76 4.2 C 75.9 3.9 75.8 3.6 75.6 3.4 C 75.3 3.3 75 3.2 74.6 3.2 C 74.2 3.2 73.8 3.2 73.6 3.4 C 73.4 3.6 73.3 3.7 73.3 4 C 73.3 4.1 73.4 4.2 73.4 4.3 C 73.5 4.4 73.7 4.5 73.8 4.6 C 73.9 4.6 74.2 4.7 74.7 4.9 C 75.5 5 76 5.2 76.3 5.3 C 76.6 5.5 76.8 5.6 77 5.9 C 77.1 6.1 77.2 6.4 77.2 6.8 C 77.2 7.1 77.1 7.4 76.9 7.7 C 76.7 8 76.4 8.3 76 8.4 C 75.7 8.6 75.2 8.7 74.7 8.7 C 74 8.7 73.4 8.5 72.9 8.2 C 72.5 7.9 72.3 7.4 72.1 6.7 Z M 82.4 8.5 C 82.4 8.5 82.41 7.65 82.4 7.6 C 81.9 8.3 81.3 8.7 80.5 8.7 C 80.1 8.7 79.8 8.6 79.5 8.5 C 79.2 8.3 78.9 8.2 78.8 8 C 78.6 7.7 78.5 7.5 78.5 7.2 C 78.4 7 78.4 6.7 78.4 6.2 C 78.4 6.23 78.4 2.5 78.4 2.5 L 79.4 2.5 C 79.4 2.5 79.43 5.83 79.4 5.8 C 79.4 6.4 79.5 6.7 79.5 6.9 C 79.6 7.2 79.7 7.4 79.9 7.6 C 80.1 7.7 80.4 7.8 80.7 7.8 C 81 7.8 81.3 7.7 81.6 7.6 C 81.8 7.4 82 7.2 82.1 6.9 C 82.2 6.6 82.3 6.2 82.3 5.7 C 82.31 5.72 82.3 2.5 82.3 2.5 L 83.3 2.5 L 83.3 8.5 L 82.4 8.5 Z M 84.9 8.5 L 84.9 0.1 L 86 0.1 L 86 8.5 L 84.9 8.5 Z M 89.4 7.7 C 89.5 7.7 89.6 7.6 89.8 7.6 C 89.8 7.6 90 8.5 90 8.5 C 89.7 8.6 89.4 8.6 89.2 8.6 C 88.8 8.6 88.5 8.6 88.3 8.4 C 88.1 8.3 88 8.2 87.9 8 C 87.8 7.8 87.7 7.4 87.7 6.8 C 87.75 6.76 87.7 3.3 87.7 3.3 L 87 3.3 L 87 2.5 L 87.7 2.5 L 87.7 1 L 88.8 0.3 L 88.8 2.5 L 89.8 2.5 L 89.8 3.3 L 88.8 3.3 C 88.8 3.3 88.77 6.82 88.8 6.8 C 88.8 7.1 88.8 7.3 88.8 7.4 C 88.9 7.5 88.9 7.5 89 7.6 C 89.1 7.6 89.2 7.7 89.4 7.7 C 89.4 7.7 89.4 7.7 89.4 7.7 Z M 90.8 1.3 L 90.8 0.1 L 91.9 0.1 L 91.9 1.3 L 90.8 1.3 Z M 90.8 8.5 L 90.8 2.5 L 91.9 2.5 L 91.9 8.5 L 90.8 8.5 Z M 93.4 8.5 L 93.4 2.5 L 94.4 2.5 C 94.4 2.5 94.35 3.32 94.4 3.3 C 94.8 2.7 95.4 2.3 96.3 2.3 C 96.7 2.3 97 2.4 97.3 2.5 C 97.6 2.6 97.8 2.8 98 3 C 98.1 3.3 98.3 3.5 98.3 3.8 C 98.4 4 98.4 4.3 98.4 4.8 C 98.37 4.8 98.4 8.5 98.4 8.5 L 97.3 8.5 C 97.3 8.5 97.34 4.84 97.3 4.8 C 97.3 4.4 97.3 4.1 97.2 3.9 C 97.1 3.7 97 3.5 96.8 3.4 C 96.6 3.3 96.3 3.2 96.1 3.2 C 95.6 3.2 95.3 3.4 94.9 3.6 C 94.6 3.9 94.5 4.4 94.5 5.2 C 94.46 5.22 94.5 8.5 94.5 8.5 L 93.4 8.5 Z M 99.8 9 C 99.8 9 100.8 9.2 100.8 9.2 C 100.8 9.5 100.9 9.7 101.1 9.9 C 101.4 10.1 101.7 10.2 102.2 10.2 C 102.6 10.2 103 10.1 103.3 9.9 C 103.5 9.7 103.7 9.4 103.8 9.1 C 103.8 8.9 103.9 8.4 103.9 7.7 C 103.4 8.3 102.9 8.5 102.2 8.5 C 101.3 8.5 100.7 8.2 100.2 7.6 C 99.8 7 99.6 6.3 99.6 5.5 C 99.6 4.9 99.7 4.3 99.9 3.9 C 100.1 3.4 100.4 3 100.8 2.7 C 101.2 2.5 101.7 2.3 102.2 2.3 C 102.9 2.3 103.5 2.6 104 3.2 C 103.97 3.19 104 2.5 104 2.5 L 104.9 2.5 C 104.9 2.5 104.92 7.72 104.9 7.7 C 104.9 8.7 104.8 9.3 104.6 9.7 C 104.4 10.1 104.1 10.4 103.7 10.7 C 103.3 10.9 102.8 11 102.2 11 C 101.4 11 100.9 10.8 100.4 10.5 C 100 10.2 99.7 9.7 99.8 9 Z M 100.6 5.4 C 100.6 6.2 100.8 6.8 101.1 7.1 C 101.4 7.5 101.8 7.7 102.3 7.7 C 102.8 7.7 103.2 7.5 103.5 7.1 C 103.8 6.8 104 6.2 104 5.4 C 104 4.7 103.8 4.1 103.5 3.7 C 103.1 3.4 102.7 3.2 102.3 3.2 C 101.8 3.2 101.4 3.4 101.1 3.7 C 100.8 4.1 100.6 4.7 100.6 5.4 Z M 109.8 8.5 L 109.8 0.1 L 110.9 0.1 L 110.9 7.6 L 115.1 7.6 L 115.1 8.5 L 109.8 8.5 Z M 118.1 7.7 C 118.2 7.7 118.3 7.6 118.5 7.6 C 118.5 7.6 118.7 8.5 118.7 8.5 C 118.4 8.6 118.1 8.6 117.9 8.6 C 117.5 8.6 117.2 8.6 117 8.4 C 116.8 8.3 116.7 8.2 116.6 8 C 116.5 7.8 116.5 7.4 116.5 6.8 C 116.45 6.76 116.5 3.3 116.5 3.3 L 115.7 3.3 L 115.7 2.5 L 116.5 2.5 L 116.5 1 L 117.5 0.3 L 117.5 2.5 L 118.5 2.5 L 118.5 3.3 L 117.5 3.3 C 117.5 3.3 117.48 6.82 117.5 6.8 C 117.5 7.1 117.5 7.3 117.5 7.4 C 117.6 7.5 117.6 7.5 117.7 7.6 C 117.8 7.6 117.9 7.7 118.1 7.7 C 118.1 7.7 118.1 7.7 118.1 7.7 Z M 123.5 8.5 C 123.5 8.5 123.47 7.77 123.5 7.8 C 123.1 8.4 122.5 8.7 121.8 8.7 C 121.3 8.7 120.8 8.5 120.4 8.3 C 120 8 119.7 7.6 119.5 7.2 C 119.3 6.7 119.1 6.1 119.1 5.5 C 119.1 4.9 119.3 4.3 119.5 3.9 C 119.7 3.4 120 3 120.4 2.7 C 120.8 2.5 121.2 2.3 121.7 2.3 C 122.1 2.3 122.4 2.4 122.7 2.6 C 123 2.7 123.2 2.9 123.4 3.2 C 123.4 3.16 123.4 0.1 123.4 0.1 L 124.4 0.1 L 124.4 8.5 L 123.5 8.5 Z M 120.2 5.5 C 120.2 6.3 120.4 6.9 120.7 7.3 C 121 7.6 121.4 7.8 121.9 7.8 C 122.3 7.8 122.7 7.6 123 7.3 C 123.3 6.9 123.5 6.3 123.5 5.6 C 123.5 4.8 123.3 4.1 123 3.8 C 122.7 3.4 122.3 3.2 121.8 3.2 C 121.4 3.2 121 3.4 120.7 3.7 C 120.4 4.1 120.2 4.7 120.2 5.5 Z M 126.3 8.5 L 126.3 7.4 L 127.5 7.4 L 127.5 8.5 L 126.3 8.5 Z M 137.7 7.6 L 137.7 8.5 C 137.7 8.5 132.15 8.54 132.1 8.5 C 132.1 8.3 132.2 8.1 132.3 7.8 C 132.4 7.4 132.6 7.1 132.9 6.7 C 133.3 6.3 133.7 5.9 134.3 5.4 C 135.2 4.7 135.8 4.1 136.1 3.7 C 136.5 3.2 136.6 2.8 136.6 2.4 C 136.6 2 136.5 1.7 136.2 1.4 C 135.9 1.1 135.5 1 135 1 C 134.6 1 134.2 1.1 133.9 1.4 C 133.6 1.7 133.4 2.1 133.4 2.6 C 133.4 2.6 132.3 2.5 132.3 2.5 C 132.4 1.7 132.7 1.1 133.2 0.7 C 133.6 0.3 134.3 0.1 135.1 0.1 C 135.9 0.1 136.5 0.3 137 0.8 C 137.5 1.2 137.7 1.8 137.7 2.4 C 137.7 2.8 137.6 3.1 137.5 3.4 C 137.3 3.8 137.1 4.1 136.8 4.5 C 136.5 4.8 135.9 5.3 135.2 5.9 C 134.6 6.5 134.2 6.8 134 7 C 133.8 7.2 133.7 7.4 133.6 7.6 C 133.58 7.55 137.7 7.6 137.7 7.6 Z M 139.6 7.8 C 139.1 7.1 138.8 6 138.8 4.4 C 138.8 3.4 138.9 2.6 139.1 2 C 139.3 1.4 139.6 0.9 140 0.6 C 140.4 0.3 140.9 0.1 141.5 0.1 C 142 0.1 142.4 0.2 142.7 0.4 C 143.1 0.6 143.4 0.8 143.6 1.2 C 143.8 1.5 144 1.9 144.1 2.4 C 144.2 2.9 144.3 3.6 144.3 4.4 C 144.3 5.4 144.2 6.2 144 6.8 C 143.8 7.4 143.5 7.9 143.1 8.2 C 142.7 8.5 142.2 8.7 141.5 8.7 C 140.7 8.7 140.1 8.4 139.6 7.8 C 139.6 7.8 139.6 7.8 139.6 7.8 Z M 140.4 1.6 C 140 2.1 139.9 3 139.9 4.4 C 139.9 5.8 140 6.7 140.4 7.2 C 140.7 7.6 141.1 7.8 141.5 7.8 C 142 7.8 142.4 7.6 142.7 7.2 C 143.1 6.7 143.2 5.8 143.2 4.4 C 143.2 3 143.1 2.1 142.7 1.6 C 142.4 1.2 142 1 141.5 1 C 141.1 1 140.7 1.2 140.4 1.6 C 140.4 1.6 140.4 1.6 140.4 1.6 Z M 150.8 7.6 L 150.8 8.5 C 150.8 8.5 145.2 8.54 145.2 8.5 C 145.2 8.3 145.2 8.1 145.3 7.8 C 145.5 7.4 145.7 7.1 146 6.7 C 146.3 6.3 146.8 5.9 147.3 5.4 C 148.3 4.7 148.9 4.1 149.2 3.7 C 149.5 3.2 149.7 2.8 149.7 2.4 C 149.7 2 149.5 1.7 149.2 1.4 C 148.9 1.1 148.6 1 148.1 1 C 147.6 1 147.2 1.1 146.9 1.4 C 146.6 1.7 146.5 2.1 146.5 2.6 C 146.5 2.6 145.4 2.5 145.4 2.5 C 145.5 1.7 145.7 1.1 146.2 0.7 C 146.7 0.3 147.3 0.1 148.1 0.1 C 148.9 0.1 149.6 0.3 150 0.8 C 150.5 1.2 150.7 1.8 150.7 2.4 C 150.7 2.8 150.7 3.1 150.5 3.4 C 150.4 3.8 150.2 4.1 149.8 4.5 C 149.5 4.8 149 5.3 148.3 5.9 C 147.6 6.5 147.2 6.8 147.1 7 C 146.9 7.2 146.7 7.4 146.6 7.6 C 146.63 7.55 150.8 7.6 150.8 7.6 Z M 155.2 8.5 L 155.2 6.5 L 151.5 6.5 L 151.5 5.6 L 155.4 0.1 L 156.2 0.1 L 156.2 5.6 L 157.3 5.6 L 157.3 6.5 L 156.2 6.5 L 156.2 8.5 L 155.2 8.5 Z M 155.2 5.6 L 155.2 1.8 L 152.5 5.6 L 155.2 5.6 Z " stroke="none" fill="#000"/>  </g></svg>