<?xml version="1.0" standalone="no"?><!DOCTYPE svg PUBLIC "-//W3C//DTD SVG 1.1//EN" "http://www.w3.org/Graphics/SVG/1.1/DTD/svg11.dtd"><svg xmlns="http://www.w3.org/2000/svg" version="1.1" width="395px" height="145.3px" viewBox="0 -1 395 145.3" style="top:-1px">  <desc>FREELANCE TALeNT</desc>  <defs/>  <g id="Polygon61883">    <path d="M 156 77 L 156 78.6 L 146.8 78.6 L 146.8 101.5 L 144.9 101.5 L 144.9 78.6 L 135.7 78.6 L 135.7 77 L 156 77 Z M 165.1 76.8 L 176.4 101.5 L 174.4 101.5 L 170.6 93 L 158.5 93 L 154.7 101.5 L 152.7 101.5 L 164 76.8 L 165.1 76.8 Z M 169.8 91.5 L 164.5 79.9 L 159.3 91.5 L 169.8 91.5 Z M 181.3 77 L 181.3 100 L 193.4 100 L 193.4 101.5 L 179.4 101.5 L 179.4 77 L 181.3 77 Z M 209.7 77 L 209.7 78.6 L 198.2 78.6 L 198.2 88.4 L 209.4 88.4 L 209.4 90 L 198.2 90 L 198.2 100 L 210 100 L 210 101.5 L 196.3 101.5 L 196.3 77 L 209.7 77 Z M 236 77 L 236 101.5 L 234.5 101.5 L 215.8 80.1 L 215.8 101.5 L 213.9 101.5 L 213.9 77 L 215.5 77 L 234.1 98.4 L 234.1 77 L 236 77 Z M 259.3 77 L 259.3 78.6 L 250.1 78.6 L 250.1 101.5 L 248.2 101.5 L 248.2 78.6 L 239 78.6 L 239 77 L 259.3 77 Z " stroke="none" fill="#ffffff"/>  </g>  <g id="Polygon61882">    <path d="M 121.8 33.8 L 121.8 35.4 L 111 35.4 L 111 44.7 L 120.7 44.7 L 120.7 46.3 L 111 46.3 L 111 58.3 L 109.1 58.3 L 109.1 33.8 L 121.8 33.8 Z M 124.9 33.8 C 124.9 33.8 131.22 33.78 131.2 33.8 C 133.9 33.8 135.9 34.4 137.3 35.5 C 138.7 36.6 139.4 38.2 139.4 40.1 C 139.4 43 137.8 45 134.7 46.1 C 135.5 46.5 136.6 47.7 138 49.8 C 137.95 49.85 143.5 58.3 143.5 58.3 L 141.3 58.3 C 141.3 58.3 136.98 51.61 137 51.6 C 135.6 49.4 134.4 48 133.6 47.4 C 132.8 46.8 131.7 46.6 130.1 46.6 C 130.15 46.56 126.8 46.6 126.8 46.6 L 126.8 58.3 L 124.9 58.3 L 124.9 33.8 Z M 126.8 35.4 L 126.8 45 C 126.8 45 130.91 44.98 130.9 45 C 133 45 134.6 44.6 135.7 43.7 C 136.8 42.9 137.3 41.7 137.3 40.2 C 137.3 38.6 136.7 37.5 135.6 36.6 C 134.5 35.8 132.9 35.4 130.8 35.4 C 130.83 35.36 126.8 35.4 126.8 35.4 Z M 159 33.8 L 159 35.4 L 147.5 35.4 L 147.5 45.2 L 158.7 45.2 L 158.7 46.8 L 147.5 46.8 L 147.5 56.8 L 159.3 56.8 L 159.3 58.3 L 145.6 58.3 L 145.6 33.8 L 159 33.8 Z M 176.6 33.8 L 176.6 35.4 L 165.1 35.4 L 165.1 45.2 L 176.3 45.2 L 176.3 46.8 L 165.1 46.8 L 165.1 56.8 L 176.9 56.8 L 176.9 58.3 L 163.2 58.3 L 163.2 33.8 L 176.6 33.8 Z M 182.8 33.8 L 182.8 56.8 L 194.9 56.8 L 194.9 58.3 L 180.9 58.3 L 180.9 33.8 L 182.8 33.8 Z M 207.4 33.6 L 218.8 58.3 L 216.8 58.3 L 212.9 49.8 L 200.9 49.8 L 197 58.3 L 195 58.3 L 206.4 33.6 L 207.4 33.6 Z M 212.2 48.3 L 206.9 36.7 L 201.6 48.3 L 212.2 48.3 Z M 243.9 33.8 L 243.9 58.3 L 242.3 58.3 L 223.6 36.9 L 223.6 58.3 L 221.7 58.3 L 221.7 33.8 L 223.3 33.8 L 242 55.2 L 242 33.8 L 243.9 33.8 Z M 261.3 33.5 C 264.1 33.5 267 34.1 270 35.5 C 270 35.5 270 37.6 270 37.6 C 267 36 264.1 35.2 261.2 35.2 C 258.2 35.2 255.6 36.3 253.6 38.3 C 251.5 40.4 250.5 43 250.5 46.1 C 250.5 49.2 251.5 51.8 253.6 53.9 C 255.6 55.9 258.3 56.9 261.5 56.9 C 264.1 56.9 267.1 56.1 270.2 54.4 C 270.2 54.4 270.2 56.4 270.2 56.4 C 267.3 57.9 264.4 58.7 261.5 58.7 C 257.8 58.7 254.7 57.5 252.2 55.1 C 249.7 52.7 248.4 49.7 248.4 46.1 C 248.4 42.5 249.7 39.5 252.2 37.1 C 254.8 34.7 257.8 33.5 261.3 33.5 C 261.3 33.5 261.3 33.5 261.3 33.5 Z M 287.3 33.8 L 287.3 35.4 L 275.8 35.4 L 275.8 45.2 L 287 45.2 L 287 46.8 L 275.8 46.8 L 275.8 56.8 L 287.6 56.8 L 287.6 58.3 L 273.9 58.3 L 273.9 33.8 L 287.3 33.8 Z " stroke="none" fill="#ffffff"/>  </g></svg>