<?xml version="1.0" standalone="no"?><!DOCTYPE svg PUBLIC "-//W3C//DTD SVG 1.1//EN" "http://www.w3.org/Graphics/SVG/1.1/DTD/svg11.dtd"><svg xmlns="http://www.w3.org/2000/svg" version="1.1" width="262.3px" height="56.4px" viewBox="0 -9 262.3 56.4" style="top:-9px">  <desc>WEBINARS</desc>  <defs/>  <g id="Polygon69104">    <path d="M 95.5 2.3 L 91.1 13.4 L 90.9 13.4 L 85.6 0.2 L 86.6 0.2 L 91 11 L 95.4 0.2 L 95.7 0.2 L 100.1 11 L 104.4 0.2 L 105.5 0.2 L 100.2 13.4 L 99.9 13.4 L 95.5 2.3 Z M 114.1 0.2 L 114.1 1 L 108 1 L 108 6.3 L 113.9 6.3 L 113.9 7.1 L 108 7.1 L 108 12.4 L 114.2 12.4 L 114.2 13.3 L 107 13.3 L 107 0.2 L 114.1 0.2 Z M 116.4 0.2 C 116.4 0.2 119.09 0.17 119.1 0.2 C 120.5 0.2 121.6 0.5 122.3 1.1 C 123.1 1.7 123.5 2.5 123.5 3.6 C 123.5 4.8 122.8 5.8 121.6 6.5 C 123.6 6.9 124.6 8 124.6 9.8 C 124.6 10.9 124.2 11.7 123.4 12.3 C 122.6 13 121.6 13.3 120.2 13.3 C 120.2 13.27 116.4 13.3 116.4 13.3 L 116.4 0.2 Z M 117.4 1 L 117.4 6.2 C 117.4 6.2 118.78 6.23 118.8 6.2 C 121.2 6.2 122.4 5.4 122.4 3.6 C 122.4 1.9 121.2 1 118.7 1 C 118.75 1.01 117.4 1 117.4 1 Z M 117.4 7.1 L 117.4 12.4 C 117.4 12.4 120.09 12.42 120.1 12.4 C 121.2 12.4 122.1 12.2 122.6 11.7 C 123.2 11.2 123.5 10.6 123.5 9.8 C 123.5 8 122.2 7.1 119.6 7.1 C 119.65 7.09 117.4 7.1 117.4 7.1 Z M 127.5 0.2 L 127.5 13.3 L 126.5 13.3 L 126.5 0.2 L 127.5 0.2 Z M 142.3 0.2 L 142.3 13.3 L 141.5 13.3 L 131.5 1.8 L 131.5 13.3 L 130.5 13.3 L 130.5 0.2 L 131.4 0.2 L 141.3 11.6 L 141.3 0.2 L 142.3 0.2 Z M 150.5 0.1 L 156.6 13.3 L 155.5 13.3 L 153.4 8.7 L 147 8.7 L 145 13.3 L 143.9 13.3 L 149.9 0.1 L 150.5 0.1 Z M 153 7.9 L 150.2 1.7 L 147.4 7.9 L 153 7.9 Z M 158.1 0.2 C 158.1 0.2 161.5 0.17 161.5 0.2 C 162.9 0.2 164 0.5 164.7 1.1 C 165.5 1.7 165.8 2.5 165.8 3.6 C 165.8 5.1 165 6.1 163.3 6.7 C 163.8 6.9 164.4 7.6 165.1 8.7 C 165.09 8.74 168.1 13.3 168.1 13.3 L 166.9 13.3 C 166.9 13.3 164.57 9.68 164.6 9.7 C 163.8 8.5 163.2 7.7 162.8 7.4 C 162.4 7.1 161.7 7 160.9 7 C 160.92 6.98 159.2 7 159.2 7 L 159.2 13.3 L 158.1 13.3 L 158.1 0.2 Z M 159.2 1 L 159.2 6.1 C 159.2 6.1 161.33 6.14 161.3 6.1 C 162.4 6.1 163.3 5.9 163.9 5.5 C 164.4 5 164.7 4.4 164.7 3.6 C 164.7 2.8 164.4 2.1 163.9 1.7 C 163.3 1.2 162.4 1 161.3 1 C 161.29 1.01 159.2 1 159.2 1 Z M 172.3 0 C 173.3 0 174.3 0.3 175.3 0.8 C 175.3 0.8 175.3 1.9 175.3 1.9 C 174.2 1.3 173.2 0.9 172.4 0.9 C 171.6 0.9 170.9 1.2 170.4 1.7 C 169.9 2.1 169.6 2.7 169.6 3.4 C 169.6 3.9 169.8 4.4 170.1 4.8 C 170.4 5.2 171 5.6 172 6 C 173 6.3 173.8 6.7 174.2 6.9 C 174.7 7.2 175.1 7.5 175.4 8 C 175.7 8.5 175.9 9.1 175.9 9.8 C 175.9 10.9 175.5 11.7 174.7 12.4 C 174 13.1 173.1 13.4 172 13.4 C 171 13.4 169.8 13.1 168.7 12.3 C 168.7 12.3 168.7 11.1 168.7 11.1 C 170 12 171.1 12.5 172 12.5 C 172.8 12.5 173.4 12.2 174 11.7 C 174.5 11.2 174.8 10.6 174.8 9.9 C 174.8 9.3 174.6 8.8 174.3 8.4 C 173.9 7.9 173.3 7.5 172.2 7.1 C 171.2 6.7 170.5 6.4 170.1 6.2 C 169.6 6 169.3 5.6 169 5.2 C 168.7 4.7 168.5 4.2 168.5 3.5 C 168.5 2.5 168.9 1.7 169.6 1 C 170.4 0.3 171.2 0 172.3 0 C 172.3 0 172.3 0 172.3 0 Z " stroke="none" fill="#ffffff"/>  </g></svg>