<?xml version="1.0" standalone="no"?><!DOCTYPE svg PUBLIC "-//W3C//DTD SVG 1.1//EN" "http://www.w3.org/Graphics/SVG/1.1/DTD/svg11.dtd"><svg xmlns="http://www.w3.org/2000/svg" version="1.1" width="263.3px" height="124.1px" viewBox="0 0 263.3 124.1">  <desc>Approved by both Ofqual and the ESFA, we provide independent and robust end point assessment across a growing list of...</desc>  <defs/>  <g id="Polygon64761">    <path d="M 50.6 92.1 C 50.5 91.8 50.4 91.5 50.4 91.1 C 49.9 91.5 49.4 91.8 49 92 C 48.5 92.2 48.1 92.2 47.6 92.2 C 46.7 92.2 46.1 92 45.6 91.6 C 45.2 91.2 45 90.7 45 90.1 C 45 89.7 45.1 89.4 45.2 89 C 45.4 88.7 45.6 88.5 45.9 88.3 C 46.2 88.1 46.5 88 46.8 87.9 C 47.1 87.8 47.4 87.8 48 87.7 C 49 87.6 49.8 87.4 50.3 87.2 C 50.3 87.1 50.3 87 50.3 86.9 C 50.3 86.4 50.1 86 49.9 85.8 C 49.6 85.5 49.1 85.4 48.4 85.4 C 47.8 85.4 47.4 85.5 47.1 85.7 C 46.8 85.9 46.6 86.3 46.4 86.8 C 46.4 86.8 45.2 86.6 45.2 86.6 C 45.3 86.1 45.5 85.7 45.8 85.3 C 46 85 46.4 84.7 46.9 84.6 C 47.4 84.4 48 84.3 48.6 84.3 C 49.3 84.3 49.8 84.4 50.2 84.5 C 50.6 84.7 50.9 84.9 51.1 85.1 C 51.3 85.3 51.4 85.6 51.5 86 C 51.5 86.2 51.6 86.6 51.6 87.2 C 51.6 87.2 51.6 88.9 51.6 88.9 C 51.6 90.1 51.6 90.8 51.6 91.2 C 51.7 91.5 51.8 91.8 52 92.1 C 51.97 92.07 50.6 92.1 50.6 92.1 C 50.6 92.1 50.62 92.07 50.6 92.1 Z M 50.3 88.3 C 49.8 88.4 49.1 88.6 48.2 88.7 C 47.6 88.8 47.2 88.9 47 89 C 46.8 89.1 46.6 89.2 46.5 89.4 C 46.4 89.6 46.3 89.8 46.3 90 C 46.3 90.4 46.5 90.7 46.7 90.9 C 47 91.1 47.4 91.2 47.9 91.2 C 48.4 91.2 48.8 91.1 49.2 90.9 C 49.6 90.7 49.9 90.4 50.1 90 C 50.2 89.7 50.3 89.3 50.3 88.7 C 50.3 88.7 50.3 88.3 50.3 88.3 Z M 57.4 92.7 C 57.4 92.7 58.7 92.9 58.7 92.9 C 58.7 93.3 58.9 93.6 59.1 93.7 C 59.4 94 59.8 94.1 60.4 94.1 C 61 94.1 61.5 94 61.8 93.7 C 62.1 93.5 62.3 93.2 62.4 92.7 C 62.5 92.5 62.5 91.9 62.5 91.1 C 62 91.7 61.3 92.1 60.4 92.1 C 59.4 92.1 58.6 91.7 58 90.9 C 57.4 90.2 57.1 89.3 57.1 88.2 C 57.1 87.5 57.3 86.8 57.5 86.2 C 57.8 85.6 58.2 85.1 58.7 84.8 C 59.2 84.5 59.8 84.3 60.4 84.3 C 61.3 84.3 62.1 84.7 62.7 85.4 C 62.66 85.38 62.7 84.5 62.7 84.5 L 63.8 84.5 C 63.8 84.5 63.84 91.04 63.8 91 C 63.8 92.2 63.7 93.1 63.5 93.6 C 63.2 94.1 62.9 94.4 62.3 94.7 C 61.8 95 61.2 95.2 60.4 95.2 C 59.5 95.2 58.8 95 58.2 94.5 C 57.6 94.1 57.4 93.5 57.4 92.7 Z M 58.5 88.1 C 58.5 89.1 58.7 89.9 59.1 90.3 C 59.5 90.8 60 91 60.5 91 C 61.1 91 61.6 90.8 62 90.3 C 62.4 89.9 62.6 89.2 62.6 88.2 C 62.6 87.2 62.4 86.5 62 86.1 C 61.6 85.6 61.1 85.4 60.5 85.4 C 60 85.4 59.5 85.6 59.1 86.1 C 58.7 86.5 58.5 87.2 58.5 88.1 Z M 65.8 92.1 L 65.8 84.5 L 66.9 84.5 C 66.9 84.5 66.94 85.62 66.9 85.6 C 67.2 85.1 67.5 84.7 67.8 84.6 C 68 84.4 68.3 84.3 68.6 84.3 C 69 84.3 69.5 84.4 69.9 84.7 C 69.9 84.7 69.5 85.9 69.5 85.9 C 69.2 85.7 68.8 85.6 68.5 85.6 C 68.2 85.6 68 85.7 67.8 85.9 C 67.5 86.1 67.4 86.3 67.3 86.6 C 67.1 87 67.1 87.5 67.1 88.1 C 67.07 88.09 67.1 92.1 67.1 92.1 L 65.8 92.1 Z M 70.2 88.3 C 70.2 86.9 70.6 85.8 71.4 85.1 C 72 84.6 72.8 84.3 73.8 84.3 C 74.8 84.3 75.7 84.6 76.3 85.3 C 77 86 77.3 87 77.3 88.2 C 77.3 89.1 77.2 89.9 76.9 90.5 C 76.6 91 76.2 91.5 75.6 91.8 C 75 92.1 74.4 92.2 73.8 92.2 C 72.7 92.2 71.8 91.9 71.2 91.2 C 70.5 90.5 70.2 89.6 70.2 88.3 Z M 71.5 88.3 C 71.5 89.2 71.7 90 72.2 90.5 C 72.6 90.9 73.1 91.2 73.8 91.2 C 74.4 91.2 74.9 90.9 75.4 90.5 C 75.8 90 76 89.2 76 88.2 C 76 87.3 75.8 86.6 75.4 86.1 C 74.9 85.6 74.4 85.4 73.8 85.4 C 73.1 85.4 72.6 85.6 72.2 86.1 C 71.7 86.6 71.5 87.3 71.5 88.3 Z M 80.2 92.1 L 77.9 84.5 L 79.2 84.5 L 80.5 88.9 C 80.5 88.9 80.9 90.49 80.9 90.5 C 80.9 90.4 81.1 89.9 81.3 88.9 C 81.3 88.92 82.5 84.5 82.5 84.5 L 83.8 84.5 L 85 88.9 L 85.4 90.3 L 85.8 88.9 L 87.1 84.5 L 88.3 84.5 L 86 92.1 L 84.6 92.1 L 83.4 87.5 L 83.1 86.2 L 81.6 92.1 L 80.2 92.1 Z M 89.4 83.1 L 89.4 81.6 L 90.7 81.6 L 90.7 83.1 L 89.4 83.1 Z M 89.4 92.1 L 89.4 84.5 L 90.7 84.5 L 90.7 92.1 L 89.4 92.1 Z M 92.7 92.1 L 92.7 84.5 L 93.8 84.5 C 93.8 84.5 93.84 85.55 93.8 85.5 C 94.4 84.7 95.2 84.3 96.3 84.3 C 96.7 84.3 97.1 84.4 97.5 84.5 C 97.9 84.7 98.2 84.9 98.4 85.2 C 98.6 85.5 98.7 85.8 98.8 86.1 C 98.8 86.4 98.9 86.8 98.9 87.4 C 98.86 87.4 98.9 92.1 98.9 92.1 L 97.6 92.1 C 97.6 92.1 97.57 87.45 97.6 87.4 C 97.6 86.9 97.5 86.5 97.4 86.3 C 97.3 86 97.1 85.8 96.9 85.6 C 96.6 85.5 96.3 85.4 96 85.4 C 95.4 85.4 95 85.6 94.6 85.9 C 94.2 86.3 94 86.9 94 87.9 C 93.97 87.92 94 92.1 94 92.1 L 92.7 92.1 Z M 100.6 92.7 C 100.6 92.7 101.9 92.9 101.9 92.9 C 101.9 93.3 102.1 93.6 102.3 93.7 C 102.6 94 103.1 94.1 103.6 94.1 C 104.2 94.1 104.7 94 105 93.7 C 105.3 93.5 105.5 93.2 105.6 92.7 C 105.7 92.5 105.7 91.9 105.7 91.1 C 105.2 91.7 104.5 92.1 103.6 92.1 C 102.6 92.1 101.8 91.7 101.2 90.9 C 100.6 90.2 100.3 89.3 100.3 88.2 C 100.3 87.5 100.5 86.8 100.7 86.2 C 101 85.6 101.4 85.1 101.9 84.8 C 102.4 84.5 103 84.3 103.6 84.3 C 104.5 84.3 105.3 84.7 105.9 85.4 C 105.86 85.38 105.9 84.5 105.9 84.5 L 107 84.5 C 107 84.5 107.05 91.04 107 91 C 107 92.2 106.9 93.1 106.7 93.6 C 106.4 94.1 106.1 94.4 105.5 94.7 C 105 95 104.4 95.2 103.6 95.2 C 102.7 95.2 102 95 101.4 94.5 C 100.9 94.1 100.6 93.5 100.6 92.7 Z M 101.7 88.1 C 101.7 89.1 101.9 89.9 102.3 90.3 C 102.7 90.8 103.2 91 103.8 91 C 104.3 91 104.8 90.8 105.2 90.3 C 105.6 89.9 105.8 89.2 105.8 88.2 C 105.8 87.2 105.6 86.5 105.2 86.1 C 104.8 85.6 104.3 85.4 103.7 85.4 C 103.2 85.4 102.7 85.6 102.3 86.1 C 101.9 86.5 101.7 87.2 101.7 88.1 Z M 113 92.1 L 113 81.6 L 114.3 81.6 L 114.3 92.1 L 113 92.1 Z M 116.3 83.1 L 116.3 81.6 L 117.6 81.6 L 117.6 83.1 L 116.3 83.1 Z M 116.3 92.1 L 116.3 84.5 L 117.6 84.5 L 117.6 92.1 L 116.3 92.1 Z M 119.1 89.8 C 119.1 89.8 120.3 89.6 120.3 89.6 C 120.4 90.1 120.6 90.5 120.9 90.8 C 121.3 91 121.7 91.2 122.3 91.2 C 122.9 91.2 123.3 91.1 123.6 90.8 C 123.9 90.6 124.1 90.3 124.1 90 C 124.1 89.7 123.9 89.5 123.7 89.3 C 123.5 89.2 123.1 89 122.4 88.8 C 121.4 88.6 120.8 88.4 120.4 88.2 C 120 88.1 119.8 87.8 119.6 87.5 C 119.4 87.2 119.3 86.9 119.3 86.5 C 119.3 86.1 119.4 85.8 119.5 85.5 C 119.7 85.3 119.9 85 120.2 84.8 C 120.4 84.7 120.6 84.6 121 84.4 C 121.3 84.3 121.7 84.3 122.1 84.3 C 122.7 84.3 123.2 84.4 123.7 84.6 C 124.1 84.7 124.4 85 124.7 85.3 C 124.9 85.5 125 85.9 125.1 86.4 C 125.1 86.4 123.8 86.6 123.8 86.6 C 123.8 86.2 123.6 85.9 123.3 85.7 C 123.1 85.5 122.7 85.4 122.2 85.4 C 121.6 85.4 121.2 85.5 120.9 85.6 C 120.7 85.8 120.5 86.1 120.5 86.3 C 120.5 86.5 120.6 86.7 120.7 86.8 C 120.8 86.9 121 87 121.2 87.1 C 121.3 87.2 121.7 87.3 122.3 87.5 C 123.2 87.7 123.9 87.9 124.2 88.1 C 124.6 88.2 124.9 88.4 125.1 88.7 C 125.3 89 125.4 89.4 125.4 89.8 C 125.4 90.3 125.3 90.7 125 91.1 C 124.8 91.4 124.4 91.7 123.9 91.9 C 123.5 92.1 122.9 92.2 122.3 92.2 C 121.3 92.2 120.6 92 120.1 91.6 C 119.5 91.2 119.2 90.6 119.1 89.8 Z M 129.2 91 C 129.3 91 129.5 91 129.7 90.9 C 129.7 90.9 129.9 92.1 129.9 92.1 C 129.6 92.1 129.2 92.2 128.9 92.2 C 128.5 92.2 128.1 92.1 127.9 92 C 127.6 91.8 127.4 91.6 127.3 91.4 C 127.2 91.1 127.2 90.6 127.2 89.8 C 127.16 89.84 127.2 85.5 127.2 85.5 L 126.2 85.5 L 126.2 84.5 L 127.2 84.5 L 127.2 82.6 L 128.4 81.8 L 128.4 84.5 L 129.7 84.5 L 129.7 85.5 L 128.4 85.5 C 128.4 85.5 128.44 89.92 128.4 89.9 C 128.4 90.3 128.5 90.5 128.5 90.6 C 128.6 90.7 128.6 90.8 128.7 90.9 C 128.8 90.9 129 91 129.2 91 C 129.2 91 129.2 91 129.2 91 Z M 134.6 88.3 C 134.6 86.9 135 85.8 135.8 85.1 C 136.4 84.6 137.2 84.3 138.2 84.3 C 139.2 84.3 140.1 84.6 140.7 85.3 C 141.4 86 141.7 87 141.7 88.2 C 141.7 89.1 141.6 89.9 141.3 90.5 C 141 91 140.6 91.5 140 91.8 C 139.4 92.1 138.8 92.2 138.2 92.2 C 137.1 92.2 136.2 91.9 135.6 91.2 C 134.9 90.5 134.6 89.6 134.6 88.3 Z M 135.9 88.3 C 135.9 89.2 136.1 90 136.6 90.5 C 137 90.9 137.5 91.2 138.2 91.2 C 138.8 91.2 139.3 90.9 139.8 90.5 C 140.2 90 140.4 89.2 140.4 88.2 C 140.4 87.3 140.2 86.6 139.8 86.1 C 139.3 85.6 138.8 85.4 138.2 85.4 C 137.5 85.4 137 85.6 136.6 86.1 C 136.1 86.6 135.9 87.3 135.9 88.3 Z M 143.5 92.1 L 143.5 85.5 L 142.4 85.5 L 142.4 84.5 L 143.5 84.5 C 143.5 84.5 143.54 83.66 143.5 83.7 C 143.5 83.1 143.6 82.8 143.7 82.5 C 143.8 82.2 144 81.9 144.3 81.7 C 144.6 81.5 145.1 81.4 145.6 81.4 C 146 81.4 146.4 81.4 146.8 81.5 C 146.8 81.5 146.7 82.6 146.7 82.6 C 146.4 82.6 146.1 82.6 145.9 82.6 C 145.5 82.6 145.2 82.7 145.1 82.8 C 144.9 83 144.8 83.3 144.8 83.8 C 144.82 83.76 144.8 84.5 144.8 84.5 L 146.3 84.5 L 146.3 85.5 L 144.8 85.5 L 144.8 92.1 L 143.5 92.1 Z M 150.9 89.8 C 150.9 89.8 152.1 89.6 152.1 89.6 C 152.2 90.1 152.4 90.5 152.7 90.8 C 153.1 91 153.5 91.2 154.1 91.2 C 154.7 91.2 155.1 91.1 155.4 90.8 C 155.7 90.6 155.9 90.3 155.9 90 C 155.9 89.7 155.7 89.5 155.5 89.3 C 155.3 89.2 154.9 89 154.2 88.8 C 153.2 88.6 152.6 88.4 152.2 88.2 C 151.8 88.1 151.5 87.8 151.4 87.5 C 151.2 87.2 151.1 86.9 151.1 86.5 C 151.1 86.1 151.2 85.8 151.3 85.5 C 151.5 85.3 151.7 85 151.9 84.8 C 152.1 84.7 152.4 84.6 152.8 84.4 C 153.1 84.3 153.5 84.3 153.9 84.3 C 154.5 84.3 155 84.4 155.4 84.6 C 155.9 84.7 156.2 85 156.4 85.3 C 156.7 85.5 156.8 85.9 156.9 86.4 C 156.9 86.4 155.6 86.6 155.6 86.6 C 155.6 86.2 155.4 85.9 155.1 85.7 C 154.9 85.5 154.5 85.4 154 85.4 C 153.4 85.4 153 85.5 152.7 85.6 C 152.5 85.8 152.3 86.1 152.3 86.3 C 152.3 86.5 152.4 86.7 152.5 86.8 C 152.6 86.9 152.8 87 153 87.1 C 153.1 87.2 153.5 87.3 154.1 87.5 C 155 87.7 155.7 87.9 156 88.1 C 156.4 88.2 156.7 88.4 156.9 88.7 C 157.1 89 157.2 89.4 157.2 89.8 C 157.2 90.3 157.1 90.7 156.8 91.1 C 156.6 91.4 156.2 91.7 155.7 91.9 C 155.2 92.1 154.7 92.2 154.1 92.2 C 153.1 92.2 152.4 92 151.9 91.6 C 151.3 91.2 151 90.6 150.9 89.8 Z M 161 91 C 161.1 91 161.3 91 161.5 90.9 C 161.5 90.9 161.7 92.1 161.7 92.1 C 161.3 92.1 161 92.2 160.7 92.2 C 160.3 92.2 159.9 92.1 159.7 92 C 159.4 91.8 159.2 91.6 159.1 91.4 C 159 91.1 158.9 90.6 158.9 89.8 C 158.95 89.84 158.9 85.5 158.9 85.5 L 158 85.5 L 158 84.5 L 158.9 84.5 L 158.9 82.6 L 160.2 81.8 L 160.2 84.5 L 161.5 84.5 L 161.5 85.5 L 160.2 85.5 C 160.2 85.5 160.23 89.92 160.2 89.9 C 160.2 90.3 160.3 90.5 160.3 90.6 C 160.3 90.7 160.4 90.8 160.5 90.9 C 160.6 90.9 160.8 91 161 91 C 161 91 161 91 161 91 Z M 168 92.1 C 167.9 91.8 167.8 91.5 167.7 91.1 C 167.3 91.5 166.8 91.8 166.4 92 C 165.9 92.2 165.5 92.2 164.9 92.2 C 164.1 92.2 163.5 92 163 91.6 C 162.6 91.2 162.3 90.7 162.3 90.1 C 162.3 89.7 162.4 89.4 162.6 89 C 162.8 88.7 163 88.5 163.3 88.3 C 163.5 88.1 163.9 88 164.2 87.9 C 164.5 87.8 164.8 87.8 165.3 87.7 C 166.4 87.6 167.2 87.4 167.6 87.2 C 167.6 87.1 167.6 87 167.6 86.9 C 167.6 86.4 167.5 86 167.3 85.8 C 167 85.5 166.5 85.4 165.8 85.4 C 165.2 85.4 164.8 85.5 164.5 85.7 C 164.2 85.9 164 86.3 163.8 86.8 C 163.8 86.8 162.6 86.6 162.6 86.6 C 162.7 86.1 162.9 85.7 163.1 85.3 C 163.4 85 163.8 84.7 164.3 84.6 C 164.8 84.4 165.3 84.3 166 84.3 C 166.7 84.3 167.2 84.4 167.6 84.5 C 168 84.7 168.3 84.9 168.5 85.1 C 168.7 85.3 168.8 85.6 168.9 86 C 168.9 86.2 168.9 86.6 168.9 87.2 C 168.9 87.2 168.9 88.9 168.9 88.9 C 168.9 90.1 169 90.8 169 91.2 C 169.1 91.5 169.2 91.8 169.4 92.1 C 169.35 92.07 168 92.1 168 92.1 C 168 92.1 168.01 92.07 168 92.1 Z M 167.6 88.3 C 167.2 88.4 166.5 88.6 165.5 88.7 C 165 88.8 164.6 88.9 164.4 89 C 164.2 89.1 164 89.2 163.9 89.4 C 163.8 89.6 163.7 89.8 163.7 90 C 163.7 90.4 163.9 90.7 164.1 90.9 C 164.4 91.1 164.8 91.2 165.3 91.2 C 165.8 91.2 166.2 91.1 166.6 90.9 C 167 90.7 167.3 90.4 167.4 90 C 167.6 89.7 167.6 89.3 167.6 88.7 C 167.6 88.7 167.6 88.3 167.6 88.3 Z M 170.9 92.1 L 170.9 84.5 L 172.1 84.5 C 172.1 84.5 172.1 85.55 172.1 85.5 C 172.7 84.7 173.5 84.3 174.5 84.3 C 175 84.3 175.4 84.4 175.8 84.5 C 176.2 84.7 176.5 84.9 176.7 85.2 C 176.8 85.5 177 85.8 177.1 86.1 C 177.1 86.4 177.1 86.8 177.1 87.4 C 177.12 87.4 177.1 92.1 177.1 92.1 L 175.8 92.1 C 175.8 92.1 175.83 87.45 175.8 87.4 C 175.8 86.9 175.8 86.5 175.7 86.3 C 175.6 86 175.4 85.8 175.2 85.6 C 174.9 85.5 174.6 85.4 174.3 85.4 C 173.7 85.4 173.2 85.6 172.8 85.9 C 172.4 86.3 172.2 86.9 172.2 87.9 C 172.23 87.92 172.2 92.1 172.2 92.1 L 170.9 92.1 Z M 184 92.1 C 184 92.1 184.03 91.11 184 91.1 C 183.6 91.9 182.8 92.2 181.9 92.2 C 181.3 92.2 180.7 92.1 180.2 91.7 C 179.7 91.4 179.3 90.9 179.1 90.3 C 178.8 89.7 178.6 89.1 178.6 88.3 C 178.6 87.5 178.8 86.8 179 86.2 C 179.3 85.6 179.6 85.1 180.2 84.8 C 180.7 84.5 181.2 84.3 181.9 84.3 C 182.3 84.3 182.7 84.4 183.1 84.6 C 183.4 84.8 183.7 85 183.9 85.3 C 183.95 85.34 183.9 81.6 183.9 81.6 L 185.2 81.6 L 185.2 92.1 L 184 92.1 Z M 180 88.3 C 180 89.3 180.2 90 180.6 90.5 C 181 90.9 181.5 91.2 182 91.2 C 182.6 91.2 183.1 91 183.5 90.5 C 183.9 90 184.1 89.3 184.1 88.4 C 184.1 87.3 183.9 86.6 183.5 86.1 C 183.1 85.6 182.6 85.4 182 85.4 C 181.4 85.4 180.9 85.6 180.5 86.1 C 180.2 86.5 180 87.3 180 88.3 Z M 192.5 92.1 C 192.3 91.8 192.3 91.5 192.2 91.1 C 191.7 91.5 191.3 91.8 190.8 92 C 190.4 92.2 189.9 92.2 189.4 92.2 C 188.6 92.2 187.9 92 187.5 91.6 C 187 91.2 186.8 90.7 186.8 90.1 C 186.8 89.7 186.9 89.4 187.1 89 C 187.2 88.7 187.5 88.5 187.7 88.3 C 188 88.1 188.3 88 188.7 87.9 C 188.9 87.8 189.3 87.8 189.8 87.7 C 190.9 87.6 191.6 87.4 192.1 87.2 C 192.1 87.1 192.1 87 192.1 86.9 C 192.1 86.4 192 86 191.8 85.8 C 191.4 85.5 190.9 85.4 190.3 85.4 C 189.7 85.4 189.2 85.5 188.9 85.7 C 188.7 85.9 188.4 86.3 188.3 86.8 C 188.3 86.8 187 86.6 187 86.6 C 187.2 86.1 187.3 85.7 187.6 85.3 C 187.9 85 188.3 84.7 188.7 84.6 C 189.2 84.4 189.8 84.3 190.5 84.3 C 191.1 84.3 191.6 84.4 192.1 84.5 C 192.5 84.7 192.8 84.9 193 85.1 C 193.1 85.3 193.3 85.6 193.4 86 C 193.4 86.2 193.4 86.6 193.4 87.2 C 193.4 87.2 193.4 88.9 193.4 88.9 C 193.4 90.1 193.4 90.8 193.5 91.2 C 193.6 91.5 193.7 91.8 193.8 92.1 C 193.82 92.07 192.5 92.1 192.5 92.1 C 192.5 92.1 192.48 92.07 192.5 92.1 Z M 192.1 88.3 C 191.6 88.4 190.9 88.6 190 88.7 C 189.5 88.8 189.1 88.9 188.9 89 C 188.7 89.1 188.5 89.2 188.4 89.4 C 188.3 89.6 188.2 89.8 188.2 90 C 188.2 90.4 188.3 90.7 188.6 90.9 C 188.8 91.1 189.2 91.2 189.7 91.2 C 190.2 91.2 190.7 91.1 191.1 90.9 C 191.4 90.7 191.7 90.4 191.9 90 C 192 89.7 192.1 89.3 192.1 88.7 C 192.1 88.7 192.1 88.3 192.1 88.3 Z M 195.4 92.1 L 195.4 84.5 L 196.6 84.5 C 196.6 84.5 196.56 85.62 196.6 85.6 C 196.9 85.1 197.1 84.7 197.4 84.6 C 197.6 84.4 197.9 84.3 198.2 84.3 C 198.6 84.3 199.1 84.4 199.5 84.7 C 199.5 84.7 199.1 85.9 199.1 85.9 C 198.8 85.7 198.5 85.6 198.1 85.6 C 197.9 85.6 197.6 85.7 197.4 85.9 C 197.2 86.1 197 86.3 196.9 86.6 C 196.8 87 196.7 87.5 196.7 88.1 C 196.69 88.09 196.7 92.1 196.7 92.1 L 195.4 92.1 Z M 205.2 92.1 C 205.2 92.1 205.23 91.11 205.2 91.1 C 204.8 91.9 204 92.2 203.1 92.2 C 202.5 92.2 201.9 92.1 201.4 91.7 C 200.9 91.4 200.5 90.9 200.3 90.3 C 200 89.7 199.8 89.1 199.8 88.3 C 199.8 87.5 200 86.8 200.2 86.2 C 200.5 85.6 200.8 85.1 201.4 84.8 C 201.9 84.5 202.4 84.3 203 84.3 C 203.5 84.3 203.9 84.4 204.3 84.6 C 204.6 84.8 204.9 85 205.1 85.3 C 205.15 85.34 205.1 81.6 205.1 81.6 L 206.4 81.6 L 206.4 92.1 L 205.2 92.1 Z M 201.2 88.3 C 201.2 89.3 201.4 90 201.8 90.5 C 202.2 90.9 202.7 91.2 203.2 91.2 C 203.8 91.2 204.3 91 204.7 90.5 C 205.1 90 205.3 89.3 205.3 88.4 C 205.3 87.3 205.1 86.6 204.7 86.1 C 204.3 85.6 203.8 85.4 203.2 85.4 C 202.6 85.4 202.1 85.6 201.7 86.1 C 201.3 86.5 201.2 87.3 201.2 88.3 Z M 207.9 89.8 C 207.9 89.8 209.2 89.6 209.2 89.6 C 209.3 90.1 209.5 90.5 209.8 90.8 C 210.1 91 210.6 91.2 211.2 91.2 C 211.8 91.2 212.2 91.1 212.5 90.8 C 212.8 90.6 212.9 90.3 212.9 90 C 212.9 89.7 212.8 89.5 212.6 89.3 C 212.4 89.2 211.9 89 211.2 88.8 C 210.3 88.6 209.6 88.4 209.3 88.2 C 208.9 88.1 208.6 87.8 208.4 87.5 C 208.2 87.2 208.2 86.9 208.2 86.5 C 208.2 86.1 208.2 85.8 208.4 85.5 C 208.5 85.3 208.8 85 209 84.8 C 209.2 84.7 209.5 84.6 209.8 84.4 C 210.2 84.3 210.6 84.3 211 84.3 C 211.6 84.3 212.1 84.4 212.5 84.6 C 213 84.7 213.3 85 213.5 85.3 C 213.7 85.5 213.9 85.9 214 86.4 C 214 86.4 212.7 86.6 212.7 86.6 C 212.7 86.2 212.5 85.9 212.2 85.7 C 211.9 85.5 211.5 85.4 211 85.4 C 210.5 85.4 210 85.5 209.8 85.6 C 209.5 85.8 209.4 86.1 209.4 86.3 C 209.4 86.5 209.5 86.7 209.6 86.8 C 209.7 86.9 209.8 87 210.1 87.1 C 210.2 87.2 210.6 87.3 211.2 87.5 C 212.1 87.7 212.7 87.9 213.1 88.1 C 213.5 88.2 213.7 88.4 213.9 88.7 C 214.2 89 214.3 89.4 214.3 89.8 C 214.3 90.3 214.1 90.7 213.9 91.1 C 213.6 91.4 213.3 91.7 212.8 91.9 C 212.3 92.1 211.8 92.2 211.2 92.2 C 210.2 92.2 209.4 92 208.9 91.6 C 208.4 91.2 208.1 90.6 207.9 89.8 Z M 216.2 92.1 L 216.2 90.6 L 217.6 90.6 L 217.6 92.1 L 216.2 92.1 Z " stroke="none" fill="#fff"/>  </g>  <g id="Polygon64760">    <path d="M 14.8 74.5 L 14.8 66.9 L 16 66.9 C 16 66.9 15.98 68.02 16 68 C 16.3 67.5 16.5 67.1 16.8 67 C 17.1 66.8 17.3 66.7 17.6 66.7 C 18.1 66.7 18.5 66.8 19 67.1 C 19 67.1 18.5 68.3 18.5 68.3 C 18.2 68.1 17.9 68 17.6 68 C 17.3 68 17 68.1 16.8 68.3 C 16.6 68.5 16.4 68.7 16.3 69 C 16.2 69.4 16.1 69.9 16.1 70.5 C 16.11 70.49 16.1 74.5 16.1 74.5 L 14.8 74.5 Z M 19.2 70.7 C 19.2 69.3 19.6 68.2 20.4 67.5 C 21.1 67 21.9 66.7 22.8 66.7 C 23.9 66.7 24.7 67 25.4 67.7 C 26 68.4 26.4 69.4 26.4 70.6 C 26.4 71.5 26.2 72.3 25.9 72.9 C 25.6 73.4 25.2 73.9 24.6 74.2 C 24.1 74.5 23.5 74.6 22.8 74.6 C 21.7 74.6 20.9 74.3 20.2 73.6 C 19.6 72.9 19.2 72 19.2 70.7 Z M 20.6 70.7 C 20.6 71.6 20.8 72.4 21.2 72.9 C 21.6 73.3 22.2 73.6 22.8 73.6 C 23.4 73.6 24 73.3 24.4 72.9 C 24.8 72.4 25 71.6 25 70.6 C 25 69.7 24.8 69 24.4 68.5 C 24 68 23.4 67.8 22.8 67.8 C 22.2 67.8 21.6 68 21.2 68.5 C 20.8 69 20.6 69.7 20.6 70.7 Z M 29.1 74.5 L 27.9 74.5 L 27.9 64 L 29.2 64 C 29.2 64 29.16 67.72 29.2 67.7 C 29.7 67 30.4 66.7 31.2 66.7 C 31.7 66.7 32.2 66.8 32.6 67 C 33 67.2 33.3 67.4 33.6 67.8 C 33.9 68.1 34.1 68.5 34.2 69 C 34.4 69.5 34.5 70 34.5 70.6 C 34.5 71.9 34.1 72.9 33.5 73.6 C 32.9 74.3 32.1 74.6 31.2 74.6 C 30.3 74.6 29.6 74.3 29.1 73.5 C 29.06 73.52 29.1 74.5 29.1 74.5 Z M 29.1 70.6 C 29.1 71.5 29.2 72.2 29.4 72.6 C 29.8 73.3 30.4 73.6 31.1 73.6 C 31.6 73.6 32.1 73.3 32.5 72.9 C 32.9 72.4 33.1 71.6 33.1 70.7 C 33.1 69.7 32.9 68.9 32.6 68.5 C 32.2 68 31.7 67.8 31.1 67.8 C 30.6 67.8 30.1 68 29.7 68.5 C 29.3 69 29.1 69.7 29.1 70.6 Z M 41 74.5 C 41 74.5 41.02 73.36 41 73.4 C 40.4 74.2 39.6 74.6 38.6 74.6 C 38.2 74.6 37.7 74.6 37.3 74.4 C 37 74.2 36.7 74 36.5 73.7 C 36.3 73.5 36.2 73.2 36.1 72.8 C 36 72.5 36 72.1 36 71.6 C 36 71.58 36 66.9 36 66.9 L 37.3 66.9 C 37.3 66.9 37.29 71.08 37.3 71.1 C 37.3 71.8 37.3 72.2 37.4 72.4 C 37.5 72.8 37.6 73.1 37.9 73.2 C 38.2 73.4 38.5 73.5 38.9 73.5 C 39.2 73.5 39.6 73.4 39.9 73.2 C 40.3 73 40.5 72.8 40.7 72.4 C 40.8 72.1 40.9 71.6 40.9 70.9 C 40.88 70.94 40.9 66.9 40.9 66.9 L 42.2 66.9 L 42.2 74.5 L 41 74.5 Z M 43.7 72.2 C 43.7 72.2 44.9 72 44.9 72 C 45 72.5 45.2 72.9 45.5 73.2 C 45.9 73.4 46.3 73.6 46.9 73.6 C 47.5 73.6 47.9 73.5 48.2 73.2 C 48.5 73 48.7 72.7 48.7 72.4 C 48.7 72.1 48.5 71.9 48.3 71.7 C 48.1 71.6 47.7 71.4 47 71.2 C 46 71 45.4 70.8 45 70.6 C 44.6 70.5 44.4 70.2 44.2 69.9 C 44 69.6 43.9 69.3 43.9 68.9 C 43.9 68.5 44 68.2 44.1 67.9 C 44.3 67.7 44.5 67.4 44.8 67.2 C 45 67.1 45.2 67 45.6 66.8 C 45.9 66.7 46.3 66.7 46.7 66.7 C 47.3 66.7 47.8 66.8 48.3 67 C 48.7 67.1 49 67.4 49.3 67.7 C 49.5 67.9 49.6 68.3 49.7 68.8 C 49.7 68.8 48.4 69 48.4 69 C 48.4 68.6 48.2 68.3 47.9 68.1 C 47.7 67.9 47.3 67.8 46.8 67.8 C 46.2 67.8 45.8 67.9 45.5 68 C 45.3 68.2 45.1 68.5 45.1 68.7 C 45.1 68.9 45.2 69.1 45.3 69.2 C 45.4 69.3 45.6 69.4 45.8 69.5 C 45.9 69.6 46.3 69.7 46.9 69.9 C 47.8 70.1 48.5 70.3 48.8 70.5 C 49.2 70.6 49.5 70.8 49.7 71.1 C 49.9 71.4 50 71.8 50 72.2 C 50 72.7 49.9 73.1 49.6 73.5 C 49.4 73.8 49 74.1 48.5 74.3 C 48.1 74.5 47.5 74.6 46.9 74.6 C 45.9 74.6 45.2 74.4 44.7 74 C 44.1 73.6 43.8 73 43.7 72.2 Z M 53.8 73.4 C 53.9 73.4 54.1 73.4 54.3 73.3 C 54.3 73.3 54.5 74.5 54.5 74.5 C 54.2 74.5 53.8 74.6 53.5 74.6 C 53.1 74.6 52.7 74.5 52.5 74.4 C 52.2 74.2 52 74 51.9 73.8 C 51.8 73.5 51.8 73 51.8 72.2 C 51.76 72.24 51.8 67.9 51.8 67.9 L 50.8 67.9 L 50.8 66.9 L 51.8 66.9 L 51.8 65 L 53 64.2 L 53 66.9 L 54.3 66.9 L 54.3 67.9 L 53 67.9 C 53 67.9 53.04 72.32 53 72.3 C 53 72.7 53.1 72.9 53.1 73 C 53.2 73.1 53.2 73.2 53.3 73.3 C 53.4 73.3 53.6 73.4 53.8 73.4 C 53.8 73.4 53.8 73.4 53.8 73.4 Z M 64.9 72 C 64.9 72 66.2 72.2 66.2 72.2 C 66 73 65.6 73.6 65 74 C 64.5 74.4 63.7 74.6 62.9 74.6 C 61.8 74.6 60.9 74.3 60.2 73.6 C 59.6 72.9 59.2 72 59.2 70.7 C 59.2 69.5 59.6 68.5 60.2 67.8 C 60.9 67 61.7 66.7 62.8 66.7 C 63.8 66.7 64.6 67 65.3 67.7 C 65.9 68.4 66.3 69.4 66.3 70.7 C 66.3 70.7 66.3 70.8 66.2 71 C 66.2 71 60.6 71 60.6 71 C 60.6 71.8 60.9 72.5 61.3 72.9 C 61.7 73.4 62.2 73.6 62.9 73.6 C 63.3 73.6 63.7 73.5 64.1 73.2 C 64.4 73 64.7 72.6 64.9 72 Z M 60.6 69.9 C 60.6 69.9 64.9 69.9 64.9 69.9 C 64.8 69.3 64.7 68.8 64.4 68.5 C 64 68 63.5 67.8 62.8 67.8 C 62.2 67.8 61.7 68 61.3 68.3 C 60.9 68.7 60.7 69.3 60.6 69.9 Z M 67.8 74.5 L 67.8 66.9 L 69 66.9 C 69 66.9 68.99 67.95 69 67.9 C 69.5 67.1 70.4 66.7 71.4 66.7 C 71.9 66.7 72.3 66.8 72.7 66.9 C 73.1 67.1 73.3 67.3 73.5 67.6 C 73.7 67.9 73.9 68.2 73.9 68.5 C 74 68.8 74 69.2 74 69.8 C 74.01 69.8 74 74.5 74 74.5 L 72.7 74.5 C 72.7 74.5 72.72 69.85 72.7 69.8 C 72.7 69.3 72.7 68.9 72.6 68.7 C 72.5 68.4 72.3 68.2 72 68 C 71.8 67.9 71.5 67.8 71.1 67.8 C 70.6 67.8 70.1 68 69.7 68.3 C 69.3 68.7 69.1 69.3 69.1 70.3 C 69.12 70.32 69.1 74.5 69.1 74.5 L 67.8 74.5 Z M 80.9 74.5 C 80.9 74.5 80.92 73.51 80.9 73.5 C 80.4 74.3 79.7 74.6 78.8 74.6 C 78.2 74.6 77.6 74.5 77.1 74.1 C 76.6 73.8 76.2 73.3 75.9 72.7 C 75.7 72.1 75.5 71.5 75.5 70.7 C 75.5 69.9 75.6 69.2 75.9 68.6 C 76.2 68 76.5 67.5 77 67.2 C 77.5 66.9 78.1 66.7 78.7 66.7 C 79.2 66.7 79.6 66.8 80 67 C 80.3 67.2 80.6 67.4 80.8 67.7 C 80.83 67.74 80.8 64 80.8 64 L 82.1 64 L 82.1 74.5 L 80.9 74.5 Z M 76.8 70.7 C 76.8 71.7 77.1 72.4 77.5 72.9 C 77.9 73.3 78.4 73.6 78.9 73.6 C 79.5 73.6 80 73.4 80.4 72.9 C 80.7 72.4 80.9 71.7 80.9 70.8 C 80.9 69.7 80.7 69 80.3 68.5 C 79.9 68 79.4 67.8 78.9 67.8 C 78.3 67.8 77.8 68 77.4 68.5 C 77 68.9 76.8 69.7 76.8 70.7 Z M 83.6 71.3 L 83.6 70 L 87.6 70 L 87.6 71.3 L 83.6 71.3 Z M 89 77.4 L 89 66.9 L 90.2 66.9 C 90.2 66.9 90.2 67.86 90.2 67.9 C 90.5 67.5 90.8 67.2 91.1 67 C 91.5 66.8 91.9 66.7 92.4 66.7 C 93.1 66.7 93.6 66.9 94.1 67.2 C 94.6 67.5 95 68 95.3 68.6 C 95.5 69.2 95.6 69.9 95.6 70.6 C 95.6 71.4 95.5 72.1 95.2 72.7 C 94.9 73.3 94.5 73.8 94 74.1 C 93.5 74.5 92.9 74.6 92.3 74.6 C 91.9 74.6 91.5 74.6 91.2 74.4 C 90.8 74.2 90.5 74 90.3 73.7 C 90.32 73.68 90.3 77.4 90.3 77.4 L 89 77.4 Z M 90.2 70.7 C 90.2 71.7 90.4 72.4 90.8 72.9 C 91.2 73.4 91.7 73.6 92.2 73.6 C 92.8 73.6 93.3 73.3 93.7 72.9 C 94.1 72.4 94.3 71.6 94.3 70.6 C 94.3 69.6 94.1 68.9 93.7 68.4 C 93.3 67.9 92.8 67.7 92.3 67.7 C 91.7 67.7 91.3 68 90.8 68.5 C 90.4 69 90.2 69.7 90.2 70.7 Z M 96.7 70.7 C 96.7 69.3 97.1 68.2 97.9 67.5 C 98.5 67 99.3 66.7 100.3 66.7 C 101.3 66.7 102.2 67 102.8 67.7 C 103.5 68.4 103.8 69.4 103.8 70.6 C 103.8 71.5 103.7 72.3 103.4 72.9 C 103.1 73.4 102.7 73.9 102.1 74.2 C 101.5 74.5 100.9 74.6 100.3 74.6 C 99.2 74.6 98.3 74.3 97.7 73.6 C 97 72.9 96.7 72 96.7 70.7 Z M 98 70.7 C 98 71.6 98.2 72.4 98.7 72.9 C 99.1 73.3 99.6 73.6 100.3 73.6 C 100.9 73.6 101.4 73.3 101.9 72.9 C 102.3 72.4 102.5 71.6 102.5 70.6 C 102.5 69.7 102.3 69 101.9 68.5 C 101.4 68 100.9 67.8 100.3 67.8 C 99.6 67.8 99.1 68 98.7 68.5 C 98.2 69 98 69.7 98 70.7 Z M 105.3 65.5 L 105.3 64 L 106.6 64 L 106.6 65.5 L 105.3 65.5 Z M 105.3 74.5 L 105.3 66.9 L 106.6 66.9 L 106.6 74.5 L 105.3 74.5 Z M 108.6 74.5 L 108.6 66.9 L 109.8 66.9 C 109.8 66.9 109.76 67.95 109.8 67.9 C 110.3 67.1 111.1 66.7 112.2 66.7 C 112.6 66.7 113.1 66.8 113.4 66.9 C 113.8 67.1 114.1 67.3 114.3 67.6 C 114.5 67.9 114.6 68.2 114.7 68.5 C 114.8 68.8 114.8 69.2 114.8 69.8 C 114.78 69.8 114.8 74.5 114.8 74.5 L 113.5 74.5 C 113.5 74.5 113.49 69.85 113.5 69.8 C 113.5 69.3 113.4 68.9 113.3 68.7 C 113.2 68.4 113.1 68.2 112.8 68 C 112.6 67.9 112.3 67.8 111.9 67.8 C 111.4 67.8 110.9 68 110.5 68.3 C 110.1 68.7 109.9 69.3 109.9 70.3 C 109.89 70.32 109.9 74.5 109.9 74.5 L 108.6 74.5 Z M 119 73.4 C 119.1 73.4 119.3 73.4 119.6 73.3 C 119.6 73.3 119.8 74.5 119.8 74.5 C 119.4 74.5 119.1 74.6 118.8 74.6 C 118.3 74.6 118 74.5 117.7 74.4 C 117.4 74.2 117.3 74 117.2 73.8 C 117 73.5 117 73 117 72.2 C 116.99 72.24 117 67.9 117 67.9 L 116 67.9 L 116 66.9 L 117 66.9 L 117 65 L 118.3 64.2 L 118.3 66.9 L 119.6 66.9 L 119.6 67.9 L 118.3 67.9 C 118.3 67.9 118.27 72.32 118.3 72.3 C 118.3 72.7 118.3 72.9 118.3 73 C 118.4 73.1 118.5 73.2 118.6 73.3 C 118.7 73.3 118.8 73.4 119 73.4 C 119 73.4 119 73.4 119 73.4 Z M 130.1 74.5 C 130 74.2 129.9 73.9 129.9 73.5 C 129.4 73.9 128.9 74.2 128.5 74.4 C 128 74.6 127.6 74.6 127.1 74.6 C 126.2 74.6 125.6 74.4 125.1 74 C 124.7 73.6 124.5 73.1 124.5 72.5 C 124.5 72.1 124.6 71.8 124.7 71.4 C 124.9 71.1 125.1 70.9 125.4 70.7 C 125.7 70.5 126 70.4 126.3 70.3 C 126.6 70.2 127 70.2 127.5 70.1 C 128.5 70 129.3 69.8 129.8 69.6 C 129.8 69.5 129.8 69.4 129.8 69.3 C 129.8 68.8 129.6 68.4 129.4 68.2 C 129.1 67.9 128.6 67.8 127.9 67.8 C 127.3 67.8 126.9 67.9 126.6 68.1 C 126.3 68.3 126.1 68.7 126 69.2 C 126 69.2 124.7 69 124.7 69 C 124.8 68.5 125 68.1 125.3 67.7 C 125.5 67.4 125.9 67.1 126.4 67 C 126.9 66.8 127.5 66.7 128.1 66.7 C 128.8 66.7 129.3 66.8 129.7 66.9 C 130.1 67.1 130.4 67.3 130.6 67.5 C 130.8 67.7 130.9 68 131 68.4 C 131 68.6 131.1 69 131.1 69.6 C 131.1 69.6 131.1 71.3 131.1 71.3 C 131.1 72.5 131.1 73.2 131.1 73.6 C 131.2 73.9 131.3 74.2 131.5 74.5 C 131.47 74.47 130.1 74.5 130.1 74.5 C 130.1 74.5 130.13 74.47 130.1 74.5 Z M 129.8 70.7 C 129.3 70.8 128.6 71 127.7 71.1 C 127.1 71.2 126.8 71.3 126.5 71.4 C 126.3 71.5 126.1 71.6 126 71.8 C 125.9 72 125.8 72.2 125.8 72.4 C 125.8 72.8 126 73.1 126.2 73.3 C 126.5 73.5 126.9 73.6 127.4 73.6 C 127.9 73.6 128.3 73.5 128.7 73.3 C 129.1 73.1 129.4 72.8 129.6 72.4 C 129.7 72.1 129.8 71.7 129.8 71.1 C 129.8 71.1 129.8 70.7 129.8 70.7 Z M 132.5 72.2 C 132.5 72.2 133.8 72 133.8 72 C 133.9 72.5 134.1 72.9 134.4 73.2 C 134.7 73.4 135.2 73.6 135.8 73.6 C 136.4 73.6 136.8 73.5 137.1 73.2 C 137.4 73 137.5 72.7 137.5 72.4 C 137.5 72.1 137.4 71.9 137.2 71.7 C 137 71.6 136.5 71.4 135.8 71.2 C 134.9 71 134.2 70.8 133.9 70.6 C 133.5 70.5 133.2 70.2 133 69.9 C 132.9 69.6 132.8 69.3 132.8 68.9 C 132.8 68.5 132.8 68.2 133 67.9 C 133.2 67.7 133.4 67.4 133.6 67.2 C 133.8 67.1 134.1 67 134.4 66.8 C 134.8 66.7 135.2 66.7 135.6 66.7 C 136.2 66.7 136.7 66.8 137.1 67 C 137.6 67.1 137.9 67.4 138.1 67.7 C 138.3 67.9 138.5 68.3 138.6 68.8 C 138.6 68.8 137.3 69 137.3 69 C 137.3 68.6 137.1 68.3 136.8 68.1 C 136.5 67.9 136.2 67.8 135.7 67.8 C 135.1 67.8 134.6 67.9 134.4 68 C 134.1 68.2 134 68.5 134 68.7 C 134 68.9 134.1 69.1 134.2 69.2 C 134.3 69.3 134.4 69.4 134.7 69.5 C 134.8 69.6 135.2 69.7 135.8 69.9 C 136.7 70.1 137.3 70.3 137.7 70.5 C 138.1 70.6 138.4 70.8 138.6 71.1 C 138.8 71.4 138.9 71.8 138.9 72.2 C 138.9 72.7 138.7 73.1 138.5 73.5 C 138.2 73.8 137.9 74.1 137.4 74.3 C 136.9 74.5 136.4 74.6 135.8 74.6 C 134.8 74.6 134.1 74.4 133.5 74 C 133 73.6 132.7 73 132.5 72.2 Z M 139.9 72.2 C 139.9 72.2 141.2 72 141.2 72 C 141.2 72.5 141.4 72.9 141.8 73.2 C 142.1 73.4 142.5 73.6 143.1 73.6 C 143.7 73.6 144.2 73.5 144.4 73.2 C 144.7 73 144.9 72.7 144.9 72.4 C 144.9 72.1 144.7 71.9 144.5 71.7 C 144.3 71.6 143.9 71.4 143.2 71.2 C 142.2 71 141.6 70.8 141.2 70.6 C 140.8 70.5 140.6 70.2 140.4 69.9 C 140.2 69.6 140.1 69.3 140.1 68.9 C 140.1 68.5 140.2 68.2 140.3 67.9 C 140.5 67.7 140.7 67.4 141 67.2 C 141.2 67.1 141.4 67 141.8 66.8 C 142.1 66.7 142.5 66.7 142.9 66.7 C 143.5 66.7 144 66.8 144.5 67 C 144.9 67.1 145.3 67.4 145.5 67.7 C 145.7 67.9 145.8 68.3 145.9 68.8 C 145.9 68.8 144.7 69 144.7 69 C 144.6 68.6 144.4 68.3 144.2 68.1 C 143.9 67.9 143.5 67.8 143 67.8 C 142.4 67.8 142 67.9 141.7 68 C 141.5 68.2 141.3 68.5 141.3 68.7 C 141.3 68.9 141.4 69.1 141.5 69.2 C 141.6 69.3 141.8 69.4 142 69.5 C 142.1 69.6 142.5 69.7 143.1 69.9 C 144 70.1 144.7 70.3 145 70.5 C 145.4 70.6 145.7 70.8 145.9 71.1 C 146.1 71.4 146.2 71.8 146.2 72.2 C 146.2 72.7 146.1 73.1 145.8 73.5 C 145.6 73.8 145.2 74.1 144.7 74.3 C 144.3 74.5 143.7 74.6 143.1 74.6 C 142.1 74.6 141.4 74.4 140.9 74 C 140.4 73.6 140 73 139.9 72.2 Z M 152.9 72 C 152.9 72 154.3 72.2 154.3 72.2 C 154.1 73 153.7 73.6 153.1 74 C 152.5 74.4 151.8 74.6 150.9 74.6 C 149.8 74.6 148.9 74.3 148.3 73.6 C 147.6 72.9 147.3 72 147.3 70.7 C 147.3 69.5 147.6 68.5 148.3 67.8 C 148.9 67 149.8 66.7 150.9 66.7 C 151.9 66.7 152.7 67 153.3 67.7 C 154 68.4 154.3 69.4 154.3 70.7 C 154.3 70.7 154.3 70.8 154.3 71 C 154.3 71 148.6 71 148.6 71 C 148.7 71.8 148.9 72.5 149.3 72.9 C 149.8 73.4 150.3 73.6 150.9 73.6 C 151.4 73.6 151.8 73.5 152.1 73.2 C 152.5 73 152.7 72.6 152.9 72 Z M 148.7 69.9 C 148.7 69.9 153 69.9 153 69.9 C 152.9 69.3 152.7 68.8 152.5 68.5 C 152.1 68 151.5 67.8 150.9 67.8 C 150.3 67.8 149.8 68 149.4 68.3 C 149 68.7 148.7 69.3 148.7 69.9 Z M 155.4 72.2 C 155.4 72.2 156.6 72 156.6 72 C 156.7 72.5 156.9 72.9 157.2 73.2 C 157.6 73.4 158 73.6 158.6 73.6 C 159.2 73.6 159.6 73.5 159.9 73.2 C 160.2 73 160.4 72.7 160.4 72.4 C 160.4 72.1 160.2 71.9 160 71.7 C 159.8 71.6 159.4 71.4 158.7 71.2 C 157.7 71 157.1 70.8 156.7 70.6 C 156.3 70.5 156.1 70.2 155.9 69.9 C 155.7 69.6 155.6 69.3 155.6 68.9 C 155.6 68.5 155.7 68.2 155.8 67.9 C 156 67.7 156.2 67.4 156.5 67.2 C 156.7 67.1 156.9 67 157.3 66.8 C 157.6 66.7 158 66.7 158.4 66.7 C 159 66.7 159.5 66.8 160 67 C 160.4 67.1 160.7 67.4 161 67.7 C 161.2 67.9 161.3 68.3 161.4 68.8 C 161.4 68.8 160.1 69 160.1 69 C 160.1 68.6 159.9 68.3 159.6 68.1 C 159.4 67.9 159 67.8 158.5 67.8 C 157.9 67.8 157.5 67.9 157.2 68 C 157 68.2 156.8 68.5 156.8 68.7 C 156.8 68.9 156.9 69.1 157 69.2 C 157.1 69.3 157.3 69.4 157.5 69.5 C 157.6 69.6 158 69.7 158.6 69.9 C 159.5 70.1 160.2 70.3 160.5 70.5 C 160.9 70.6 161.2 70.8 161.4 71.1 C 161.6 71.4 161.7 71.8 161.7 72.2 C 161.7 72.7 161.6 73.1 161.3 73.5 C 161.1 73.8 160.7 74.1 160.2 74.3 C 159.8 74.5 159.2 74.6 158.6 74.6 C 157.6 74.6 156.9 74.4 156.4 74 C 155.8 73.6 155.5 73 155.4 72.2 Z M 162.7 72.2 C 162.7 72.2 164 72 164 72 C 164.1 72.5 164.3 72.9 164.6 73.2 C 164.9 73.4 165.4 73.6 165.9 73.6 C 166.5 73.6 167 73.5 167.3 73.2 C 167.6 73 167.7 72.7 167.7 72.4 C 167.7 72.1 167.6 71.9 167.3 71.7 C 167.1 71.6 166.7 71.4 166 71.2 C 165.1 71 164.4 70.8 164 70.6 C 163.7 70.5 163.4 70.2 163.2 69.9 C 163 69.6 162.9 69.3 162.9 68.9 C 162.9 68.5 163 68.2 163.2 67.9 C 163.3 67.7 163.5 67.4 163.8 67.2 C 164 67.1 164.3 67 164.6 66.8 C 165 66.7 165.3 66.7 165.7 66.7 C 166.3 66.7 166.8 66.8 167.3 67 C 167.7 67.1 168.1 67.4 168.3 67.7 C 168.5 67.9 168.7 68.3 168.7 68.8 C 168.7 68.8 167.5 69 167.5 69 C 167.4 68.6 167.3 68.3 167 68.1 C 166.7 67.9 166.3 67.8 165.8 67.8 C 165.2 67.8 164.8 67.9 164.5 68 C 164.3 68.2 164.2 68.5 164.2 68.7 C 164.2 68.9 164.2 69.1 164.3 69.2 C 164.4 69.3 164.6 69.4 164.8 69.5 C 164.9 69.6 165.3 69.7 166 69.9 C 166.9 70.1 167.5 70.3 167.9 70.5 C 168.2 70.6 168.5 70.8 168.7 71.1 C 168.9 71.4 169 71.8 169 72.2 C 169 72.7 168.9 73.1 168.6 73.5 C 168.4 73.8 168 74.1 167.6 74.3 C 167.1 74.5 166.6 74.6 166 74.6 C 165 74.6 164.2 74.4 163.7 74 C 163.2 73.6 162.8 73 162.7 72.2 Z M 170.6 74.5 L 170.6 66.9 L 171.7 66.9 C 171.7 66.9 171.71 67.93 171.7 67.9 C 171.9 67.6 172.3 67.3 172.7 67 C 173.1 66.8 173.5 66.7 174 66.7 C 174.6 66.7 175 66.8 175.4 67 C 175.8 67.3 176 67.6 176.2 68 C 176.8 67.1 177.5 66.7 178.5 66.7 C 179.3 66.7 179.8 66.9 180.2 67.3 C 180.7 67.7 180.9 68.4 180.9 69.3 C 180.86 69.25 180.9 74.5 180.9 74.5 L 179.6 74.5 C 179.6 74.5 179.58 69.68 179.6 69.7 C 179.6 69.2 179.5 68.8 179.5 68.6 C 179.4 68.3 179.2 68.2 179 68 C 178.8 67.9 178.5 67.8 178.2 67.8 C 177.7 67.8 177.2 68 176.9 68.3 C 176.5 68.7 176.4 69.3 176.4 70.1 C 176.36 70.05 176.4 74.5 176.4 74.5 L 175.1 74.5 C 175.1 74.5 175.07 69.53 175.1 69.5 C 175.1 69 175 68.5 174.8 68.2 C 174.5 68 174.2 67.8 173.7 67.8 C 173.4 67.8 173 67.9 172.7 68.1 C 172.4 68.3 172.2 68.6 172.1 68.9 C 171.9 69.3 171.8 69.8 171.8 70.5 C 171.84 70.53 171.8 74.5 171.8 74.5 L 170.6 74.5 Z M 188 72 C 188 72 189.3 72.2 189.3 72.2 C 189.1 73 188.7 73.6 188.1 74 C 187.6 74.4 186.8 74.6 186 74.6 C 184.9 74.6 184 74.3 183.3 73.6 C 182.7 72.9 182.3 72 182.3 70.7 C 182.3 69.5 182.7 68.5 183.3 67.8 C 184 67 184.8 66.7 185.9 66.7 C 186.9 66.7 187.7 67 188.4 67.7 C 189 68.4 189.4 69.4 189.4 70.7 C 189.4 70.7 189.3 70.8 189.3 71 C 189.3 71 183.7 71 183.7 71 C 183.7 71.8 184 72.5 184.4 72.9 C 184.8 73.4 185.3 73.6 186 73.6 C 186.4 73.6 186.8 73.5 187.2 73.2 C 187.5 73 187.8 72.6 188 72 Z M 183.7 69.9 C 183.7 69.9 188 69.9 188 69.9 C 187.9 69.3 187.8 68.8 187.5 68.5 C 187.1 68 186.6 67.8 185.9 67.8 C 185.3 67.8 184.8 68 184.4 68.3 C 184 68.7 183.8 69.3 183.7 69.9 Z M 190.9 74.5 L 190.9 66.9 L 192.1 66.9 C 192.1 66.9 192.09 67.95 192.1 67.9 C 192.6 67.1 193.5 66.7 194.5 66.7 C 195 66.7 195.4 66.8 195.8 66.9 C 196.2 67.1 196.4 67.3 196.6 67.6 C 196.8 67.9 197 68.2 197 68.5 C 197.1 68.8 197.1 69.2 197.1 69.8 C 197.11 69.8 197.1 74.5 197.1 74.5 L 195.8 74.5 C 195.8 74.5 195.82 69.85 195.8 69.8 C 195.8 69.3 195.8 68.9 195.7 68.7 C 195.6 68.4 195.4 68.2 195.1 68 C 194.9 67.9 194.6 67.8 194.2 67.8 C 193.7 67.8 193.2 68 192.8 68.3 C 192.4 68.7 192.2 69.3 192.2 70.3 C 192.22 70.32 192.2 74.5 192.2 74.5 L 190.9 74.5 Z M 201.3 73.4 C 201.5 73.4 201.7 73.4 201.9 73.3 C 201.9 73.3 202.1 74.5 202.1 74.5 C 201.7 74.5 201.4 74.6 201.1 74.6 C 200.6 74.6 200.3 74.5 200 74.4 C 199.8 74.2 199.6 74 199.5 73.8 C 199.4 73.5 199.3 73 199.3 72.2 C 199.32 72.24 199.3 67.9 199.3 67.9 L 198.4 67.9 L 198.4 66.9 L 199.3 66.9 L 199.3 65 L 200.6 64.2 L 200.6 66.9 L 201.9 66.9 L 201.9 67.9 L 200.6 67.9 C 200.6 67.9 200.6 72.32 200.6 72.3 C 200.6 72.7 200.6 72.9 200.7 73 C 200.7 73.1 200.8 73.2 200.9 73.3 C 201 73.3 201.1 73.4 201.3 73.4 C 201.3 73.4 201.3 73.4 201.3 73.4 Z M 212.5 74.5 C 212.3 74.2 212.2 73.9 212.2 73.5 C 211.7 73.9 211.3 74.2 210.8 74.4 C 210.4 74.6 209.9 74.6 209.4 74.6 C 208.6 74.6 207.9 74.4 207.5 74 C 207 73.6 206.8 73.1 206.8 72.5 C 206.8 72.1 206.9 71.8 207.1 71.4 C 207.2 71.1 207.4 70.9 207.7 70.7 C 208 70.5 208.3 70.4 208.6 70.3 C 208.9 70.2 209.3 70.2 209.8 70.1 C 210.8 70 211.6 69.8 212.1 69.6 C 212.1 69.5 212.1 69.4 212.1 69.3 C 212.1 68.8 212 68.4 211.7 68.2 C 211.4 67.9 210.9 67.8 210.3 67.8 C 209.7 67.8 209.2 67.9 208.9 68.1 C 208.6 68.3 208.4 68.7 208.3 69.2 C 208.3 69.2 207 69 207 69 C 207.1 68.5 207.3 68.1 207.6 67.7 C 207.8 67.4 208.2 67.1 208.7 67 C 209.2 66.8 209.8 66.7 210.4 66.7 C 211.1 66.7 211.6 66.8 212 66.9 C 212.4 67.1 212.7 67.3 212.9 67.5 C 213.1 67.7 213.3 68 213.3 68.4 C 213.4 68.6 213.4 69 213.4 69.6 C 213.4 69.6 213.4 71.3 213.4 71.3 C 213.4 72.5 213.4 73.2 213.5 73.6 C 213.5 73.9 213.6 74.2 213.8 74.5 C 213.8 74.47 212.5 74.5 212.5 74.5 C 212.5 74.5 212.45 74.47 212.5 74.5 Z M 212.1 70.7 C 211.6 70.8 210.9 71 210 71.1 C 209.5 71.2 209.1 71.3 208.9 71.4 C 208.6 71.5 208.5 71.6 208.4 71.8 C 208.2 72 208.2 72.2 208.2 72.4 C 208.2 72.8 208.3 73.1 208.6 73.3 C 208.8 73.5 209.2 73.6 209.7 73.6 C 210.2 73.6 210.6 73.5 211 73.3 C 211.4 73.1 211.7 72.8 211.9 72.4 C 212 72.1 212.1 71.7 212.1 71.1 C 212.1 71.1 212.1 70.7 212.1 70.7 Z M 220.4 71.7 C 220.4 71.7 221.6 71.9 221.6 71.9 C 221.5 72.7 221.1 73.4 220.6 73.9 C 220 74.4 219.3 74.6 218.5 74.6 C 217.4 74.6 216.6 74.3 215.9 73.6 C 215.3 72.9 215 72 215 70.7 C 215 69.9 215.1 69.2 215.4 68.5 C 215.7 67.9 216.1 67.5 216.6 67.2 C 217.2 66.8 217.8 66.7 218.5 66.7 C 219.3 66.7 220 66.9 220.5 67.3 C 221 67.7 221.4 68.3 221.5 69.1 C 221.5 69.1 220.2 69.3 220.2 69.3 C 220.1 68.8 219.9 68.4 219.6 68.1 C 219.3 67.9 218.9 67.8 218.5 67.8 C 217.9 67.8 217.3 68 216.9 68.5 C 216.5 68.9 216.3 69.7 216.3 70.7 C 216.3 71.7 216.5 72.4 216.9 72.9 C 217.3 73.4 217.8 73.6 218.4 73.6 C 218.9 73.6 219.4 73.4 219.7 73.1 C 220 72.8 220.3 72.3 220.4 71.7 Z M 222.7 74.5 L 222.7 66.9 L 223.9 66.9 C 223.9 66.9 223.87 68.02 223.9 68 C 224.2 67.5 224.4 67.1 224.7 67 C 224.9 66.8 225.2 66.7 225.5 66.7 C 226 66.7 226.4 66.8 226.8 67.1 C 226.8 67.1 226.4 68.3 226.4 68.3 C 226.1 68.1 225.8 68 225.5 68 C 225.2 68 224.9 68.1 224.7 68.3 C 224.5 68.5 224.3 68.7 224.2 69 C 224.1 69.4 224 69.9 224 70.5 C 224 70.49 224 74.5 224 74.5 L 222.7 74.5 Z M 227.1 70.7 C 227.1 69.3 227.5 68.2 228.3 67.5 C 229 67 229.8 66.7 230.7 66.7 C 231.7 66.7 232.6 67 233.3 67.7 C 233.9 68.4 234.3 69.4 234.3 70.6 C 234.3 71.5 234.1 72.3 233.8 72.9 C 233.5 73.4 233.1 73.9 232.5 74.2 C 232 74.5 231.4 74.6 230.7 74.6 C 229.6 74.6 228.8 74.3 228.1 73.6 C 227.5 72.9 227.1 72 227.1 70.7 Z M 228.5 70.7 C 228.5 71.6 228.7 72.4 229.1 72.9 C 229.5 73.3 230.1 73.6 230.7 73.6 C 231.3 73.6 231.9 73.3 232.3 72.9 C 232.7 72.4 232.9 71.6 232.9 70.6 C 232.9 69.7 232.7 69 232.3 68.5 C 231.9 68 231.3 67.8 230.7 67.8 C 230.1 67.8 229.5 68 229.1 68.5 C 228.7 69 228.5 69.7 228.5 70.7 Z M 235.2 72.2 C 235.2 72.2 236.5 72 236.5 72 C 236.6 72.5 236.8 72.9 237.1 73.2 C 237.4 73.4 237.9 73.6 238.5 73.6 C 239.1 73.6 239.5 73.5 239.8 73.2 C 240.1 73 240.2 72.7 240.2 72.4 C 240.2 72.1 240.1 71.9 239.9 71.7 C 239.7 71.6 239.2 71.4 238.5 71.2 C 237.6 71 236.9 70.8 236.6 70.6 C 236.2 70.5 235.9 70.2 235.7 69.9 C 235.6 69.6 235.5 69.3 235.5 68.9 C 235.5 68.5 235.5 68.2 235.7 67.9 C 235.9 67.7 236.1 67.4 236.3 67.2 C 236.5 67.1 236.8 67 237.2 66.8 C 237.5 66.7 237.9 66.7 238.3 66.7 C 238.9 66.7 239.4 66.8 239.8 67 C 240.3 67.1 240.6 67.4 240.8 67.7 C 241.1 67.9 241.2 68.3 241.3 68.8 C 241.3 68.8 240 69 240 69 C 240 68.6 239.8 68.3 239.5 68.1 C 239.2 67.9 238.9 67.8 238.4 67.8 C 237.8 67.8 237.3 67.9 237.1 68 C 236.8 68.2 236.7 68.5 236.7 68.7 C 236.7 68.9 236.8 69.1 236.9 69.2 C 237 69.3 237.1 69.4 237.4 69.5 C 237.5 69.6 237.9 69.7 238.5 69.9 C 239.4 70.1 240 70.3 240.4 70.5 C 240.8 70.6 241.1 70.8 241.3 71.1 C 241.5 71.4 241.6 71.8 241.6 72.2 C 241.6 72.7 241.4 73.1 241.2 73.5 C 240.9 73.8 240.6 74.1 240.1 74.3 C 239.6 74.5 239.1 74.6 238.5 74.6 C 237.5 74.6 236.8 74.4 236.2 74 C 235.7 73.6 235.4 73 235.2 72.2 Z M 242.6 72.2 C 242.6 72.2 243.9 72 243.9 72 C 243.9 72.5 244.1 72.9 244.5 73.2 C 244.8 73.4 245.2 73.6 245.8 73.6 C 246.4 73.6 246.9 73.5 247.1 73.2 C 247.4 73 247.6 72.7 247.6 72.4 C 247.6 72.1 247.4 71.9 247.2 71.7 C 247 71.6 246.6 71.4 245.9 71.2 C 244.9 71 244.3 70.8 243.9 70.6 C 243.5 70.5 243.3 70.2 243.1 69.9 C 242.9 69.6 242.8 69.3 242.8 68.9 C 242.8 68.5 242.9 68.2 243 67.9 C 243.2 67.7 243.4 67.4 243.7 67.2 C 243.9 67.1 244.1 67 244.5 66.8 C 244.8 66.7 245.2 66.7 245.6 66.7 C 246.2 66.7 246.7 66.8 247.2 67 C 247.6 67.1 248 67.4 248.2 67.7 C 248.4 67.9 248.5 68.3 248.6 68.8 C 248.6 68.8 247.4 69 247.4 69 C 247.3 68.6 247.1 68.3 246.9 68.1 C 246.6 67.9 246.2 67.8 245.7 67.8 C 245.1 67.8 244.7 67.9 244.4 68 C 244.2 68.2 244 68.5 244 68.7 C 244 68.9 244.1 69.1 244.2 69.2 C 244.3 69.3 244.5 69.4 244.7 69.5 C 244.8 69.6 245.2 69.7 245.8 69.9 C 246.7 70.1 247.4 70.3 247.7 70.5 C 248.1 70.6 248.4 70.8 248.6 71.1 C 248.8 71.4 248.9 71.8 248.9 72.2 C 248.9 72.7 248.8 73.1 248.5 73.5 C 248.3 73.8 247.9 74.1 247.4 74.3 C 247 74.5 246.4 74.6 245.8 74.6 C 244.8 74.6 244.1 74.4 243.6 74 C 243.1 73.6 242.7 73 242.6 72.2 Z " stroke="none" fill="#fff"/>  </g>  <g id="Polygon64759">    <path d="M 17.9 56.9 L 17.9 46.4 L 25.4 46.4 L 25.4 47.6 L 19.2 47.6 L 19.2 50.8 L 25.1 50.8 L 25.1 52.1 L 19.2 52.1 L 19.2 55.6 L 25.7 55.6 L 25.7 56.9 L 17.9 56.9 Z M 27.1 53.5 C 27.1 53.5 28.4 53.4 28.4 53.4 C 28.5 53.9 28.7 54.3 28.9 54.7 C 29.1 55 29.5 55.3 29.9 55.5 C 30.4 55.7 31 55.8 31.5 55.8 C 32.1 55.8 32.5 55.7 33 55.6 C 33.4 55.4 33.7 55.2 33.9 54.9 C 34.1 54.6 34.2 54.3 34.2 54 C 34.2 53.7 34.1 53.4 33.9 53.2 C 33.7 52.9 33.4 52.7 32.9 52.5 C 32.6 52.4 32 52.3 31.1 52 C 30.1 51.8 29.4 51.6 29 51.4 C 28.5 51.1 28.2 50.8 27.9 50.4 C 27.7 50 27.5 49.6 27.5 49.1 C 27.5 48.6 27.7 48.1 28 47.6 C 28.3 47.1 28.7 46.8 29.3 46.6 C 29.9 46.3 30.5 46.2 31.2 46.2 C 32 46.2 32.7 46.3 33.3 46.6 C 33.9 46.8 34.3 47.2 34.7 47.7 C 35 48.2 35.2 48.7 35.2 49.3 C 35.2 49.3 33.8 49.4 33.8 49.4 C 33.8 48.8 33.5 48.3 33.1 47.9 C 32.7 47.6 32.1 47.4 31.3 47.4 C 30.5 47.4 29.8 47.6 29.5 47.9 C 29.1 48.2 28.9 48.6 28.9 49 C 28.9 49.4 29 49.7 29.3 49.9 C 29.6 50.2 30.3 50.4 31.4 50.7 C 32.5 50.9 33.3 51.2 33.7 51.3 C 34.3 51.6 34.8 52 35.1 52.4 C 35.3 52.8 35.5 53.3 35.5 53.9 C 35.5 54.5 35.3 55 35 55.5 C 34.7 56 34.2 56.4 33.6 56.6 C 33 56.9 32.4 57.1 31.6 57.1 C 30.7 57.1 29.9 56.9 29.2 56.6 C 28.6 56.4 28.1 55.9 27.7 55.4 C 27.3 54.8 27.2 54.2 27.1 53.5 Z M 37.5 56.9 L 37.5 46.4 L 44.5 46.4 L 44.5 47.6 L 38.9 47.6 L 38.9 50.9 L 43.8 50.9 L 43.8 52.1 L 38.9 52.1 L 38.9 56.9 L 37.5 56.9 Z M 44.4 56.9 L 48.4 46.4 L 49.9 46.4 L 54.2 56.9 L 52.6 56.9 L 51.4 53.7 L 47 53.7 L 45.9 56.9 L 44.4 56.9 Z M 47.4 52.6 L 51 52.6 C 51 52.6 49.88 49.65 49.9 49.7 C 49.5 48.8 49.3 48 49.1 47.5 C 49 48.1 48.8 48.8 48.6 49.5 C 48.57 49.48 47.4 52.6 47.4 52.6 Z M 55.5 56.9 L 55.5 55.4 L 57 55.4 C 57 55.4 56.97 56.87 57 56.9 C 57 57.4 56.9 57.8 56.7 58.2 C 56.5 58.5 56.2 58.8 55.8 58.9 C 55.8 58.9 55.4 58.4 55.4 58.4 C 55.7 58.3 55.9 58.1 56 57.9 C 56.1 57.6 56.2 57.3 56.2 56.9 C 56.23 56.87 55.5 56.9 55.5 56.9 Z M 64.7 56.9 L 62.4 49.3 L 63.7 49.3 L 64.9 53.7 C 64.9 53.7 65.38 55.29 65.4 55.3 C 65.4 55.2 65.5 54.7 65.8 53.7 C 65.77 53.72 67 49.3 67 49.3 L 68.3 49.3 L 69.4 53.7 L 69.8 55.1 L 70.3 53.7 L 71.6 49.3 L 72.8 49.3 L 70.4 56.9 L 69.1 56.9 L 67.9 52.3 L 67.6 51 L 66.1 56.9 L 64.7 56.9 Z M 79.1 54.4 C 79.1 54.4 80.4 54.6 80.4 54.6 C 80.2 55.4 79.8 56 79.3 56.4 C 78.7 56.8 78 57 77.1 57 C 76 57 75.1 56.7 74.5 56 C 73.8 55.3 73.5 54.4 73.5 53.1 C 73.5 51.9 73.8 50.9 74.5 50.2 C 75.1 49.4 76 49.1 77 49.1 C 78 49.1 78.9 49.4 79.5 50.1 C 80.2 50.8 80.5 51.8 80.5 53.1 C 80.5 53.1 80.5 53.2 80.5 53.4 C 80.5 53.4 74.8 53.4 74.8 53.4 C 74.9 54.2 75.1 54.9 75.5 55.3 C 75.9 55.8 76.5 56 77.1 56 C 77.6 56 78 55.9 78.3 55.6 C 78.6 55.4 78.9 55 79.1 54.4 Z M 74.9 52.3 C 74.9 52.3 79.1 52.3 79.1 52.3 C 79.1 51.7 78.9 51.2 78.6 50.9 C 78.2 50.4 77.7 50.2 77 50.2 C 76.4 50.2 75.9 50.4 75.5 50.7 C 75.1 51.1 74.9 51.7 74.9 52.3 Z M 86.1 59.8 L 86.1 49.3 L 87.3 49.3 C 87.3 49.3 87.31 50.26 87.3 50.3 C 87.6 49.9 87.9 49.6 88.2 49.4 C 88.6 49.2 89 49.1 89.5 49.1 C 90.2 49.1 90.7 49.3 91.2 49.6 C 91.7 49.9 92.1 50.4 92.4 51 C 92.6 51.6 92.7 52.3 92.7 53 C 92.7 53.8 92.6 54.5 92.3 55.1 C 92 55.7 91.6 56.2 91.1 56.5 C 90.6 56.9 90 57 89.4 57 C 89 57 88.6 57 88.3 56.8 C 87.9 56.6 87.6 56.4 87.4 56.1 C 87.42 56.08 87.4 59.8 87.4 59.8 L 86.1 59.8 Z M 87.3 53.1 C 87.3 54.1 87.5 54.8 87.9 55.3 C 88.3 55.8 88.8 56 89.3 56 C 89.9 56 90.4 55.7 90.8 55.3 C 91.2 54.8 91.4 54 91.4 53 C 91.4 52 91.2 51.3 90.8 50.8 C 90.4 50.3 89.9 50.1 89.4 50.1 C 88.8 50.1 88.4 50.4 87.9 50.9 C 87.5 51.4 87.3 52.1 87.3 53.1 Z M 94.3 56.9 L 94.3 49.3 L 95.4 49.3 C 95.4 49.3 95.44 50.42 95.4 50.4 C 95.7 49.9 96 49.5 96.3 49.4 C 96.5 49.2 96.8 49.1 97.1 49.1 C 97.5 49.1 98 49.2 98.4 49.5 C 98.4 49.5 98 50.7 98 50.7 C 97.6 50.5 97.3 50.4 97 50.4 C 96.7 50.4 96.5 50.5 96.3 50.7 C 96 50.9 95.9 51.1 95.8 51.4 C 95.6 51.8 95.6 52.3 95.6 52.9 C 95.57 52.89 95.6 56.9 95.6 56.9 L 94.3 56.9 Z M 98.7 53.1 C 98.7 51.7 99.1 50.6 99.9 49.9 C 100.5 49.4 101.3 49.1 102.3 49.1 C 103.3 49.1 104.2 49.4 104.8 50.1 C 105.5 50.8 105.8 51.8 105.8 53 C 105.8 53.9 105.7 54.7 105.4 55.3 C 105.1 55.8 104.7 56.3 104.1 56.6 C 103.5 56.9 102.9 57 102.3 57 C 101.2 57 100.3 56.7 99.7 56 C 99 55.3 98.7 54.4 98.7 53.1 Z M 100 53.1 C 100 54 100.2 54.8 100.7 55.3 C 101.1 55.7 101.6 56 102.3 56 C 102.9 56 103.4 55.7 103.9 55.3 C 104.3 54.8 104.5 54 104.5 53 C 104.5 52.1 104.3 51.4 103.9 50.9 C 103.4 50.4 102.9 50.2 102.3 50.2 C 101.6 50.2 101.1 50.4 100.7 50.9 C 100.2 51.4 100 52.1 100 53.1 Z M 109.4 56.9 L 106.6 49.3 L 107.9 49.3 C 107.9 49.3 109.54 53.82 109.5 53.8 C 109.7 54.3 109.9 54.8 110 55.4 C 110.1 55 110.3 54.5 110.5 53.9 C 110.51 53.91 112.2 49.3 112.2 49.3 L 113.5 49.3 L 110.6 56.9 L 109.4 56.9 Z M 114.7 47.9 L 114.7 46.4 L 116 46.4 L 116 47.9 L 114.7 47.9 Z M 114.7 56.9 L 114.7 49.3 L 116 49.3 L 116 56.9 L 114.7 56.9 Z M 122.9 56.9 C 122.9 56.9 122.86 55.91 122.9 55.9 C 122.4 56.7 121.7 57 120.7 57 C 120.1 57 119.6 56.9 119.1 56.5 C 118.6 56.2 118.2 55.7 117.9 55.1 C 117.6 54.5 117.5 53.9 117.5 53.1 C 117.5 52.3 117.6 51.6 117.8 51 C 118.1 50.4 118.5 49.9 119 49.6 C 119.5 49.3 120 49.1 120.7 49.1 C 121.1 49.1 121.5 49.2 121.9 49.4 C 122.3 49.6 122.5 49.8 122.8 50.1 C 122.77 50.14 122.8 46.4 122.8 46.4 L 124.1 46.4 L 124.1 56.9 L 122.9 56.9 Z M 118.8 53.1 C 118.8 54.1 119 54.8 119.4 55.3 C 119.8 55.7 120.3 56 120.9 56 C 121.4 56 121.9 55.8 122.3 55.3 C 122.7 54.8 122.9 54.1 122.9 53.2 C 122.9 52.1 122.7 51.4 122.3 50.9 C 121.9 50.4 121.4 50.2 120.8 50.2 C 120.2 50.2 119.7 50.4 119.4 50.9 C 119 51.3 118.8 52.1 118.8 53.1 Z M 131.3 54.4 C 131.3 54.4 132.6 54.6 132.6 54.6 C 132.4 55.4 132 56 131.5 56.4 C 130.9 56.8 130.2 57 129.3 57 C 128.2 57 127.3 56.7 126.6 56 C 126 55.3 125.7 54.4 125.7 53.1 C 125.7 51.9 126 50.9 126.6 50.2 C 127.3 49.4 128.2 49.1 129.2 49.1 C 130.2 49.1 131.1 49.4 131.7 50.1 C 132.3 50.8 132.7 51.8 132.7 53.1 C 132.7 53.1 132.7 53.2 132.7 53.4 C 132.7 53.4 127 53.4 127 53.4 C 127 54.2 127.3 54.9 127.7 55.3 C 128.1 55.8 128.6 56 129.3 56 C 129.8 56 130.2 55.9 130.5 55.6 C 130.8 55.4 131.1 55 131.3 54.4 Z M 127.1 52.3 C 127.1 52.3 131.3 52.3 131.3 52.3 C 131.2 51.7 131.1 51.2 130.8 50.9 C 130.4 50.4 129.9 50.2 129.2 50.2 C 128.6 50.2 128.1 50.4 127.7 50.7 C 127.3 51.1 127.1 51.7 127.1 52.3 Z M 138.3 47.9 L 138.3 46.4 L 139.6 46.4 L 139.6 47.9 L 138.3 47.9 Z M 138.3 56.9 L 138.3 49.3 L 139.6 49.3 L 139.6 56.9 L 138.3 56.9 Z M 141.6 56.9 L 141.6 49.3 L 142.7 49.3 C 142.7 49.3 142.73 50.35 142.7 50.3 C 143.3 49.5 144.1 49.1 145.2 49.1 C 145.6 49.1 146 49.2 146.4 49.3 C 146.8 49.5 147.1 49.7 147.3 50 C 147.5 50.3 147.6 50.6 147.7 50.9 C 147.7 51.2 147.8 51.6 147.8 52.2 C 147.75 52.2 147.8 56.9 147.8 56.9 L 146.5 56.9 C 146.5 56.9 146.46 52.25 146.5 52.2 C 146.5 51.7 146.4 51.3 146.3 51.1 C 146.2 50.8 146 50.6 145.8 50.4 C 145.5 50.3 145.2 50.2 144.9 50.2 C 144.3 50.2 143.9 50.4 143.5 50.7 C 143.1 51.1 142.9 51.7 142.9 52.7 C 142.86 52.72 142.9 56.9 142.9 56.9 L 141.6 56.9 Z M 154.7 56.9 C 154.7 56.9 154.66 55.91 154.7 55.9 C 154.2 56.7 153.5 57 152.5 57 C 151.9 57 151.4 56.9 150.9 56.5 C 150.4 56.2 150 55.7 149.7 55.1 C 149.4 54.5 149.3 53.9 149.3 53.1 C 149.3 52.3 149.4 51.6 149.6 51 C 149.9 50.4 150.3 49.9 150.8 49.6 C 151.3 49.3 151.9 49.1 152.5 49.1 C 152.9 49.1 153.3 49.2 153.7 49.4 C 154.1 49.6 154.4 49.8 154.6 50.1 C 154.58 50.14 154.6 46.4 154.6 46.4 L 155.9 46.4 L 155.9 56.9 L 154.7 56.9 Z M 150.6 53.1 C 150.6 54.1 150.8 54.8 151.2 55.3 C 151.6 55.7 152.1 56 152.7 56 C 153.2 56 153.7 55.8 154.1 55.3 C 154.5 54.8 154.7 54.1 154.7 53.2 C 154.7 52.1 154.5 51.4 154.1 50.9 C 153.7 50.4 153.2 50.2 152.6 50.2 C 152 50.2 151.5 50.4 151.2 50.9 C 150.8 51.3 150.6 52.1 150.6 53.1 Z M 163.1 54.4 C 163.1 54.4 164.4 54.6 164.4 54.6 C 164.2 55.4 163.8 56 163.3 56.4 C 162.7 56.8 162 57 161.1 57 C 160 57 159.1 56.7 158.4 56 C 157.8 55.3 157.5 54.4 157.5 53.1 C 157.5 51.9 157.8 50.9 158.4 50.2 C 159.1 49.4 160 49.1 161 49.1 C 162 49.1 162.9 49.4 163.5 50.1 C 164.1 50.8 164.5 51.8 164.5 53.1 C 164.5 53.1 164.5 53.2 164.5 53.4 C 164.5 53.4 158.8 53.4 158.8 53.4 C 158.8 54.2 159.1 54.9 159.5 55.3 C 159.9 55.8 160.5 56 161.1 56 C 161.6 56 162 55.9 162.3 55.6 C 162.6 55.4 162.9 55 163.1 54.4 Z M 158.9 52.3 C 158.9 52.3 163.1 52.3 163.1 52.3 C 163 51.7 162.9 51.2 162.6 50.9 C 162.2 50.4 161.7 50.2 161 50.2 C 160.4 50.2 159.9 50.4 159.5 50.7 C 159.1 51.1 158.9 51.7 158.9 52.3 Z M 166 59.8 L 166 49.3 L 167.2 49.3 C 167.2 49.3 167.22 50.26 167.2 50.3 C 167.5 49.9 167.8 49.6 168.2 49.4 C 168.5 49.2 168.9 49.1 169.4 49.1 C 170.1 49.1 170.6 49.3 171.1 49.6 C 171.6 49.9 172 50.4 172.3 51 C 172.5 51.6 172.6 52.3 172.6 53 C 172.6 53.8 172.5 54.5 172.2 55.1 C 171.9 55.7 171.5 56.2 171 56.5 C 170.5 56.9 169.9 57 169.3 57 C 168.9 57 168.5 57 168.2 56.8 C 167.8 56.6 167.6 56.4 167.3 56.1 C 167.33 56.08 167.3 59.8 167.3 59.8 L 166 59.8 Z M 167.2 53.1 C 167.2 54.1 167.4 54.8 167.8 55.3 C 168.2 55.8 168.7 56 169.2 56 C 169.8 56 170.3 55.7 170.7 55.3 C 171.1 54.8 171.3 54 171.3 53 C 171.3 52 171.1 51.3 170.7 50.8 C 170.3 50.3 169.9 50.1 169.3 50.1 C 168.8 50.1 168.3 50.4 167.8 50.9 C 167.4 51.4 167.2 52.1 167.2 53.1 Z M 179.4 54.4 C 179.4 54.4 180.7 54.6 180.7 54.6 C 180.5 55.4 180.1 56 179.6 56.4 C 179 56.8 178.3 57 177.4 57 C 176.3 57 175.4 56.7 174.7 56 C 174.1 55.3 173.8 54.4 173.8 53.1 C 173.8 51.9 174.1 50.9 174.8 50.2 C 175.4 49.4 176.3 49.1 177.3 49.1 C 178.3 49.1 179.2 49.4 179.8 50.1 C 180.5 50.8 180.8 51.8 180.8 53.1 C 180.8 53.1 180.8 53.2 180.8 53.4 C 180.8 53.4 175.1 53.4 175.1 53.4 C 175.1 54.2 175.4 54.9 175.8 55.3 C 176.2 55.8 176.8 56 177.4 56 C 177.9 56 178.3 55.9 178.6 55.6 C 178.9 55.4 179.2 55 179.4 54.4 Z M 175.2 52.3 C 175.2 52.3 179.4 52.3 179.4 52.3 C 179.4 51.7 179.2 51.2 178.9 50.9 C 178.5 50.4 178 50.2 177.3 50.2 C 176.7 50.2 176.2 50.4 175.8 50.7 C 175.4 51.1 175.2 51.7 175.2 52.3 Z M 182.4 56.9 L 182.4 49.3 L 183.5 49.3 C 183.5 49.3 183.52 50.35 183.5 50.3 C 184.1 49.5 184.9 49.1 185.9 49.1 C 186.4 49.1 186.8 49.2 187.2 49.3 C 187.6 49.5 187.9 49.7 188.1 50 C 188.3 50.3 188.4 50.6 188.5 50.9 C 188.5 51.2 188.5 51.6 188.5 52.2 C 188.54 52.2 188.5 56.9 188.5 56.9 L 187.2 56.9 C 187.2 56.9 187.25 52.25 187.2 52.2 C 187.2 51.7 187.2 51.3 187.1 51.1 C 187 50.8 186.8 50.6 186.6 50.4 C 186.3 50.3 186 50.2 185.7 50.2 C 185.1 50.2 184.6 50.4 184.2 50.7 C 183.8 51.1 183.6 51.7 183.6 52.7 C 183.64 52.72 183.6 56.9 183.6 56.9 L 182.4 56.9 Z M 195.4 56.9 C 195.4 56.9 195.45 55.91 195.4 55.9 C 195 56.7 194.3 57 193.3 57 C 192.7 57 192.2 56.9 191.6 56.5 C 191.1 56.2 190.7 55.7 190.5 55.1 C 190.2 54.5 190 53.9 190 53.1 C 190 52.3 190.2 51.6 190.4 51 C 190.7 50.4 191.1 49.9 191.6 49.6 C 192.1 49.3 192.6 49.1 193.3 49.1 C 193.7 49.1 194.1 49.2 194.5 49.4 C 194.8 49.6 195.1 49.8 195.4 50.1 C 195.36 50.14 195.4 46.4 195.4 46.4 L 196.6 46.4 L 196.6 56.9 L 195.4 56.9 Z M 191.4 53.1 C 191.4 54.1 191.6 54.8 192 55.3 C 192.4 55.7 192.9 56 193.4 56 C 194 56 194.5 55.8 194.9 55.3 C 195.3 54.8 195.5 54.1 195.5 53.2 C 195.5 52.1 195.3 51.4 194.9 50.9 C 194.5 50.4 194 50.2 193.4 50.2 C 192.8 50.2 192.3 50.4 191.9 50.9 C 191.6 51.3 191.4 52.1 191.4 53.1 Z M 203.9 54.4 C 203.9 54.4 205.2 54.6 205.2 54.6 C 205 55.4 204.6 56 204 56.4 C 203.5 56.8 202.7 57 201.9 57 C 200.8 57 199.9 56.7 199.2 56 C 198.6 55.3 198.2 54.4 198.2 53.1 C 198.2 51.9 198.6 50.9 199.2 50.2 C 199.9 49.4 200.7 49.1 201.8 49.1 C 202.8 49.1 203.6 49.4 204.3 50.1 C 204.9 50.8 205.3 51.8 205.3 53.1 C 205.3 53.1 205.2 53.2 205.2 53.4 C 205.2 53.4 199.6 53.4 199.6 53.4 C 199.6 54.2 199.9 54.9 200.3 55.3 C 200.7 55.8 201.2 56 201.9 56 C 202.3 56 202.7 55.9 203.1 55.6 C 203.4 55.4 203.7 55 203.9 54.4 Z M 199.6 52.3 C 199.6 52.3 203.9 52.3 203.9 52.3 C 203.8 51.7 203.7 51.2 203.4 50.9 C 203 50.4 202.5 50.2 201.8 50.2 C 201.2 50.2 200.7 50.4 200.3 50.7 C 199.9 51.1 199.7 51.7 199.6 52.3 Z M 206.8 56.9 L 206.8 49.3 L 208 49.3 C 208 49.3 207.99 50.35 208 50.3 C 208.5 49.5 209.4 49.1 210.4 49.1 C 210.9 49.1 211.3 49.2 211.7 49.3 C 212.1 49.5 212.3 49.7 212.5 50 C 212.7 50.3 212.9 50.6 212.9 50.9 C 213 51.2 213 51.6 213 52.2 C 213.01 52.2 213 56.9 213 56.9 L 211.7 56.9 C 211.7 56.9 211.72 52.25 211.7 52.2 C 211.7 51.7 211.7 51.3 211.6 51.1 C 211.5 50.8 211.3 50.6 211 50.4 C 210.8 50.3 210.5 50.2 210.1 50.2 C 209.6 50.2 209.1 50.4 208.7 50.7 C 208.3 51.1 208.1 51.7 208.1 52.7 C 208.12 52.72 208.1 56.9 208.1 56.9 L 206.8 56.9 Z M 217.2 55.8 C 217.4 55.8 217.6 55.8 217.8 55.7 C 217.8 55.7 218 56.9 218 56.9 C 217.6 56.9 217.3 57 217 57 C 216.5 57 216.2 56.9 215.9 56.8 C 215.7 56.6 215.5 56.4 215.4 56.2 C 215.3 55.9 215.2 55.4 215.2 54.6 C 215.22 54.64 215.2 50.3 215.2 50.3 L 214.3 50.3 L 214.3 49.3 L 215.2 49.3 L 215.2 47.4 L 216.5 46.6 L 216.5 49.3 L 217.8 49.3 L 217.8 50.3 L 216.5 50.3 C 216.5 50.3 216.5 54.72 216.5 54.7 C 216.5 55.1 216.5 55.3 216.6 55.4 C 216.6 55.5 216.7 55.6 216.8 55.7 C 216.9 55.7 217 55.8 217.2 55.8 C 217.2 55.8 217.2 55.8 217.2 55.8 Z M 228.4 56.9 C 228.2 56.6 228.1 56.3 228.1 55.9 C 227.6 56.3 227.2 56.6 226.7 56.8 C 226.3 57 225.8 57 225.3 57 C 224.5 57 223.8 56.8 223.4 56.4 C 222.9 56 222.7 55.5 222.7 54.9 C 222.7 54.5 222.8 54.2 223 53.8 C 223.1 53.5 223.3 53.3 223.6 53.1 C 223.9 52.9 224.2 52.8 224.5 52.7 C 224.8 52.6 225.2 52.6 225.7 52.5 C 226.7 52.4 227.5 52.2 228 52 C 228 51.9 228 51.8 228 51.7 C 228 51.2 227.9 50.8 227.6 50.6 C 227.3 50.3 226.8 50.2 226.2 50.2 C 225.6 50.2 225.1 50.3 224.8 50.5 C 224.5 50.7 224.3 51.1 224.2 51.6 C 224.2 51.6 222.9 51.4 222.9 51.4 C 223 50.9 223.2 50.5 223.5 50.1 C 223.7 49.8 224.1 49.5 224.6 49.4 C 225.1 49.2 225.7 49.1 226.3 49.1 C 227 49.1 227.5 49.2 227.9 49.3 C 228.3 49.5 228.6 49.7 228.8 49.9 C 229 50.1 229.2 50.4 229.2 50.8 C 229.3 51 229.3 51.4 229.3 52 C 229.3 52 229.3 53.7 229.3 53.7 C 229.3 54.9 229.3 55.6 229.4 56 C 229.4 56.3 229.5 56.6 229.7 56.9 C 229.7 56.87 228.4 56.9 228.4 56.9 C 228.4 56.9 228.35 56.87 228.4 56.9 Z M 228 53.1 C 227.5 53.2 226.8 53.4 225.9 53.5 C 225.4 53.6 225 53.7 224.8 53.8 C 224.5 53.9 224.4 54 224.2 54.2 C 224.1 54.4 224.1 54.6 224.1 54.8 C 224.1 55.2 224.2 55.5 224.5 55.7 C 224.7 55.9 225.1 56 225.6 56 C 226.1 56 226.5 55.9 226.9 55.7 C 227.3 55.5 227.6 55.2 227.8 54.8 C 227.9 54.5 228 54.1 228 53.5 C 228 53.5 228 53.1 228 53.1 Z M 231.3 56.9 L 231.3 49.3 L 232.4 49.3 C 232.4 49.3 232.45 50.35 232.4 50.3 C 233 49.5 233.8 49.1 234.9 49.1 C 235.3 49.1 235.7 49.2 236.1 49.3 C 236.5 49.5 236.8 49.7 237 50 C 237.2 50.3 237.3 50.6 237.4 50.9 C 237.4 51.2 237.5 51.6 237.5 52.2 C 237.47 52.2 237.5 56.9 237.5 56.9 L 236.2 56.9 C 236.2 56.9 236.18 52.25 236.2 52.2 C 236.2 51.7 236.1 51.3 236 51.1 C 235.9 50.8 235.8 50.6 235.5 50.4 C 235.2 50.3 234.9 50.2 234.6 50.2 C 234 50.2 233.6 50.4 233.2 50.7 C 232.8 51.1 232.6 51.7 232.6 52.7 C 232.58 52.72 232.6 56.9 232.6 56.9 L 231.3 56.9 Z M 244.4 56.9 C 244.4 56.9 244.38 55.91 244.4 55.9 C 243.9 56.7 243.2 57 242.3 57 C 241.6 57 241.1 56.9 240.6 56.5 C 240.1 56.2 239.7 55.7 239.4 55.1 C 239.1 54.5 239 53.9 239 53.1 C 239 52.3 239.1 51.6 239.4 51 C 239.6 50.4 240 49.9 240.5 49.6 C 241 49.3 241.6 49.1 242.2 49.1 C 242.7 49.1 243.1 49.2 243.4 49.4 C 243.8 49.6 244.1 49.8 244.3 50.1 C 244.29 50.14 244.3 46.4 244.3 46.4 L 245.6 46.4 L 245.6 56.9 L 244.4 56.9 Z M 240.3 53.1 C 240.3 54.1 240.5 54.8 240.9 55.3 C 241.3 55.7 241.8 56 242.4 56 C 242.9 56 243.4 55.8 243.8 55.3 C 244.2 54.8 244.4 54.1 244.4 53.2 C 244.4 52.1 244.2 51.4 243.8 50.9 C 243.4 50.4 242.9 50.2 242.3 50.2 C 241.7 50.2 241.3 50.4 240.9 50.9 C 240.5 51.3 240.3 52.1 240.3 53.1 Z " stroke="none" fill="#fff"/>  </g>  <g id="Polygon64758">    <path d="M 24 39.3 L 28 28.8 L 29.5 28.8 L 33.8 39.3 L 32.3 39.3 L 31 36.1 L 26.6 36.1 L 25.5 39.3 L 24 39.3 Z M 27 35 L 30.6 35 C 30.6 35 29.51 32.05 29.5 32.1 C 29.2 31.2 28.9 30.4 28.8 29.9 C 28.6 30.5 28.4 31.2 28.2 31.9 C 28.19 31.88 27 35 27 35 Z M 34.8 42.2 L 34.8 31.7 L 36 31.7 C 36 31.7 35.96 32.66 36 32.7 C 36.2 32.3 36.5 32 36.9 31.8 C 37.2 31.6 37.7 31.5 38.2 31.5 C 38.8 31.5 39.4 31.7 39.9 32 C 40.4 32.3 40.8 32.8 41 33.4 C 41.3 34 41.4 34.7 41.4 35.4 C 41.4 36.2 41.2 36.9 41 37.5 C 40.7 38.1 40.3 38.6 39.7 38.9 C 39.2 39.3 38.7 39.4 38.1 39.4 C 37.6 39.4 37.3 39.4 36.9 39.2 C 36.6 39 36.3 38.8 36.1 38.5 C 36.07 38.48 36.1 42.2 36.1 42.2 L 34.8 42.2 Z M 36 35.5 C 36 36.5 36.1 37.2 36.5 37.7 C 36.9 38.2 37.4 38.4 38 38.4 C 38.6 38.4 39 38.1 39.5 37.7 C 39.9 37.2 40.1 36.4 40.1 35.4 C 40.1 34.4 39.9 33.7 39.5 33.2 C 39.1 32.7 38.6 32.5 38 32.5 C 37.5 32.5 37 32.8 36.6 33.3 C 36.2 33.8 36 34.5 36 35.5 Z M 42.9 42.2 L 42.9 31.7 L 44.1 31.7 C 44.1 31.7 44.11 32.66 44.1 32.7 C 44.4 32.3 44.7 32 45.1 31.8 C 45.4 31.6 45.8 31.5 46.3 31.5 C 47 31.5 47.5 31.7 48 32 C 48.5 32.3 48.9 32.8 49.2 33.4 C 49.4 34 49.5 34.7 49.5 35.4 C 49.5 36.2 49.4 36.9 49.1 37.5 C 48.8 38.1 48.4 38.6 47.9 38.9 C 47.4 39.3 46.8 39.4 46.2 39.4 C 45.8 39.4 45.4 39.4 45.1 39.2 C 44.7 39 44.4 38.8 44.2 38.5 C 44.23 38.48 44.2 42.2 44.2 42.2 L 42.9 42.2 Z M 44.1 35.5 C 44.1 36.5 44.3 37.2 44.7 37.7 C 45.1 38.2 45.6 38.4 46.1 38.4 C 46.7 38.4 47.2 38.1 47.6 37.7 C 48 37.2 48.2 36.4 48.2 35.4 C 48.2 34.4 48 33.7 47.6 33.2 C 47.2 32.7 46.8 32.5 46.2 32.5 C 45.6 32.5 45.2 32.8 44.7 33.3 C 44.3 33.8 44.1 34.5 44.1 35.5 Z M 51.1 39.3 L 51.1 31.7 L 52.2 31.7 C 52.2 31.7 52.24 32.82 52.2 32.8 C 52.5 32.3 52.8 31.9 53.1 31.8 C 53.3 31.6 53.6 31.5 53.9 31.5 C 54.3 31.5 54.8 31.6 55.2 31.9 C 55.2 31.9 54.8 33.1 54.8 33.1 C 54.5 32.9 54.1 32.8 53.8 32.8 C 53.5 32.8 53.3 32.9 53.1 33.1 C 52.8 33.3 52.7 33.5 52.6 33.8 C 52.4 34.2 52.4 34.7 52.4 35.3 C 52.37 35.29 52.4 39.3 52.4 39.3 L 51.1 39.3 Z M 55.5 35.5 C 55.5 34.1 55.9 33 56.7 32.3 C 57.3 31.8 58.1 31.5 59.1 31.5 C 60.1 31.5 61 31.8 61.6 32.5 C 62.3 33.2 62.6 34.2 62.6 35.4 C 62.6 36.3 62.5 37.1 62.2 37.7 C 61.9 38.2 61.5 38.7 60.9 39 C 60.3 39.3 59.7 39.4 59.1 39.4 C 58 39.4 57.1 39.1 56.5 38.4 C 55.8 37.7 55.5 36.8 55.5 35.5 Z M 56.8 35.5 C 56.8 36.4 57 37.2 57.5 37.7 C 57.9 38.1 58.4 38.4 59.1 38.4 C 59.7 38.4 60.2 38.1 60.7 37.7 C 61.1 37.2 61.3 36.4 61.3 35.4 C 61.3 34.5 61.1 33.8 60.7 33.3 C 60.2 32.8 59.7 32.6 59.1 32.6 C 58.4 32.6 57.9 32.8 57.5 33.3 C 57 33.8 56.8 34.5 56.8 35.5 Z M 66.3 39.3 L 63.4 31.7 L 64.7 31.7 C 64.7 31.7 66.35 36.22 66.4 36.2 C 66.5 36.7 66.7 37.2 66.8 37.8 C 67 37.4 67.1 36.9 67.3 36.3 C 67.32 36.31 69 31.7 69 31.7 L 70.3 31.7 L 67.5 39.3 L 66.3 39.3 Z M 76.7 36.8 C 76.7 36.8 78 37 78 37 C 77.8 37.8 77.4 38.4 76.8 38.8 C 76.3 39.2 75.5 39.4 74.7 39.4 C 73.6 39.4 72.7 39.1 72 38.4 C 71.4 37.7 71 36.8 71 35.5 C 71 34.3 71.4 33.3 72 32.6 C 72.7 31.8 73.5 31.5 74.6 31.5 C 75.6 31.5 76.4 31.8 77.1 32.5 C 77.7 33.2 78.1 34.2 78.1 35.5 C 78.1 35.5 78.1 35.6 78 35.8 C 78 35.8 72.4 35.8 72.4 35.8 C 72.4 36.6 72.7 37.3 73.1 37.7 C 73.5 38.2 74 38.4 74.7 38.4 C 75.1 38.4 75.5 38.3 75.9 38 C 76.2 37.8 76.5 37.4 76.7 36.8 Z M 72.4 34.7 C 72.4 34.7 76.7 34.7 76.7 34.7 C 76.6 34.1 76.5 33.6 76.2 33.3 C 75.8 32.8 75.3 32.6 74.6 32.6 C 74 32.6 73.5 32.8 73.1 33.1 C 72.7 33.5 72.5 34.1 72.4 34.7 Z M 84.6 39.3 C 84.6 39.3 84.56 38.31 84.6 38.3 C 84.1 39.1 83.4 39.4 82.4 39.4 C 81.8 39.4 81.3 39.3 80.8 38.9 C 80.3 38.6 79.9 38.1 79.6 37.5 C 79.3 36.9 79.2 36.3 79.2 35.5 C 79.2 34.7 79.3 34 79.5 33.4 C 79.8 32.8 80.2 32.3 80.7 32 C 81.2 31.7 81.8 31.5 82.4 31.5 C 82.8 31.5 83.2 31.6 83.6 31.8 C 84 32 84.3 32.2 84.5 32.5 C 84.48 32.54 84.5 28.8 84.5 28.8 L 85.8 28.8 L 85.8 39.3 L 84.6 39.3 Z M 80.5 35.5 C 80.5 36.5 80.7 37.2 81.1 37.7 C 81.5 38.1 82 38.4 82.6 38.4 C 83.1 38.4 83.6 38.2 84 37.7 C 84.4 37.2 84.6 36.5 84.6 35.6 C 84.6 34.5 84.4 33.8 84 33.3 C 83.6 32.8 83.1 32.6 82.5 32.6 C 81.9 32.6 81.4 32.8 81.1 33.3 C 80.7 33.7 80.5 34.5 80.5 35.5 Z M 93 39.3 L 91.9 39.3 L 91.9 28.8 L 93.1 28.8 C 93.1 28.8 93.14 32.52 93.1 32.5 C 93.7 31.8 94.4 31.5 95.2 31.5 C 95.7 31.5 96.1 31.6 96.6 31.8 C 97 32 97.3 32.2 97.6 32.6 C 97.9 32.9 98.1 33.3 98.2 33.8 C 98.4 34.3 98.4 34.8 98.4 35.4 C 98.4 36.7 98.1 37.7 97.5 38.4 C 96.8 39.1 96.1 39.4 95.2 39.4 C 94.3 39.4 93.6 39.1 93 38.3 C 93.05 38.32 93 39.3 93 39.3 Z M 93 35.4 C 93 36.3 93.2 37 93.4 37.4 C 93.8 38.1 94.4 38.4 95.1 38.4 C 95.6 38.4 96.1 38.1 96.5 37.7 C 96.9 37.2 97.1 36.4 97.1 35.5 C 97.1 34.5 96.9 33.7 96.5 33.3 C 96.1 32.8 95.7 32.6 95.1 32.6 C 94.5 32.6 94.1 32.8 93.7 33.3 C 93.2 33.8 93 34.5 93 35.4 Z M 100.8 42.4 C 100.5 42.4 100.3 42.3 100 42.2 C 100 42.2 99.8 41 99.8 41 C 100.1 41.1 100.3 41.1 100.6 41.1 C 100.8 41.1 101.1 41.1 101.2 41 C 101.4 40.9 101.6 40.7 101.7 40.6 C 101.7 40.4 101.9 40.1 102.1 39.6 C 102.1 39.5 102.1 39.4 102.2 39.3 C 102.17 39.29 99.3 31.7 99.3 31.7 L 100.7 31.7 C 100.7 31.7 102.26 36.07 102.3 36.1 C 102.5 36.6 102.6 37.2 102.8 37.8 C 103 37.2 103.1 36.7 103.3 36.1 C 103.34 36.1 105 31.7 105 31.7 L 106.3 31.7 C 106.3 31.7 103.36 39.4 103.4 39.4 C 103.1 40.2 102.8 40.8 102.6 41.1 C 102.4 41.6 102.1 41.9 101.8 42.1 C 101.6 42.3 101.2 42.4 100.8 42.4 C 100.8 42.4 100.8 42.4 100.8 42.4 Z M 112.6 39.3 L 111.4 39.3 L 111.4 28.8 L 112.7 28.8 C 112.7 28.8 112.71 32.52 112.7 32.5 C 113.3 31.8 113.9 31.5 114.8 31.5 C 115.3 31.5 115.7 31.6 116.1 31.8 C 116.5 32 116.9 32.2 117.2 32.6 C 117.4 32.9 117.6 33.3 117.8 33.8 C 117.9 34.3 118 34.8 118 35.4 C 118 36.7 117.7 37.7 117 38.4 C 116.4 39.1 115.6 39.4 114.7 39.4 C 113.8 39.4 113.1 39.1 112.6 38.3 C 112.61 38.32 112.6 39.3 112.6 39.3 Z M 112.6 35.4 C 112.6 36.3 112.7 37 113 37.4 C 113.4 38.1 113.9 38.4 114.6 38.4 C 115.2 38.4 115.7 38.1 116.1 37.7 C 116.5 37.2 116.7 36.4 116.7 35.5 C 116.7 34.5 116.5 33.7 116.1 33.3 C 115.7 32.8 115.2 32.6 114.7 32.6 C 114.1 32.6 113.6 32.8 113.2 33.3 C 112.8 33.8 112.6 34.5 112.6 35.4 Z M 119.1 35.5 C 119.1 34.1 119.5 33 120.3 32.3 C 120.9 31.8 121.7 31.5 122.7 31.5 C 123.7 31.5 124.6 31.8 125.2 32.5 C 125.9 33.2 126.2 34.2 126.2 35.4 C 126.2 36.3 126.1 37.1 125.8 37.7 C 125.5 38.2 125.1 38.7 124.5 39 C 123.9 39.3 123.3 39.4 122.7 39.4 C 121.6 39.4 120.7 39.1 120.1 38.4 C 119.4 37.7 119.1 36.8 119.1 35.5 Z M 120.4 35.5 C 120.4 36.4 120.6 37.2 121.1 37.7 C 121.5 38.1 122 38.4 122.7 38.4 C 123.3 38.4 123.8 38.1 124.3 37.7 C 124.7 37.2 124.9 36.4 124.9 35.4 C 124.9 34.5 124.7 33.8 124.3 33.3 C 123.8 32.8 123.3 32.6 122.7 32.6 C 122 32.6 121.5 32.8 121.1 33.3 C 120.6 33.8 120.4 34.5 120.4 35.5 Z M 130 38.2 C 130.1 38.2 130.3 38.2 130.6 38.1 C 130.6 38.1 130.7 39.3 130.7 39.3 C 130.4 39.3 130.1 39.4 129.8 39.4 C 129.3 39.4 128.9 39.3 128.7 39.2 C 128.4 39 128.2 38.8 128.1 38.6 C 128 38.3 128 37.8 128 37 C 127.97 37.04 128 32.7 128 32.7 L 127 32.7 L 127 31.7 L 128 31.7 L 128 29.8 L 129.3 29 L 129.3 31.7 L 130.6 31.7 L 130.6 32.7 L 129.3 32.7 C 129.3 32.7 129.26 37.12 129.3 37.1 C 129.3 37.5 129.3 37.7 129.3 37.8 C 129.4 37.9 129.4 38 129.5 38.1 C 129.6 38.1 129.8 38.2 130 38.2 C 130 38.2 130 38.2 130 38.2 Z M 131.8 39.3 L 131.8 28.8 L 133.1 28.8 C 133.1 28.8 133.1 32.54 133.1 32.5 C 133.7 31.8 134.5 31.5 135.4 31.5 C 135.9 31.5 136.4 31.6 136.8 31.8 C 137.3 32 137.6 32.4 137.7 32.7 C 137.9 33.1 138 33.7 138 34.5 C 138.01 34.45 138 39.3 138 39.3 L 136.7 39.3 C 136.7 39.3 136.72 34.45 136.7 34.5 C 136.7 33.8 136.6 33.3 136.3 33 C 136 32.8 135.6 32.6 135.1 32.6 C 134.7 32.6 134.4 32.7 134 32.9 C 133.7 33.1 133.5 33.4 133.3 33.7 C 133.2 34 133.1 34.5 133.1 35.1 C 133.1 35.11 133.1 39.3 133.1 39.3 L 131.8 39.3 Z M 143.8 34.2 C 143.8 32.4 144.3 31.1 145.2 30.1 C 146.1 29.1 147.3 28.6 148.8 28.6 C 149.8 28.6 150.7 28.8 151.4 29.3 C 152.2 29.7 152.8 30.4 153.2 31.2 C 153.6 32 153.8 33 153.8 34 C 153.8 35.1 153.6 36.1 153.2 36.9 C 152.8 37.7 152.1 38.4 151.4 38.8 C 150.6 39.2 149.7 39.5 148.8 39.5 C 147.8 39.5 146.9 39.2 146.2 38.7 C 145.4 38.3 144.8 37.6 144.4 36.8 C 144 36 143.8 35.1 143.8 34.2 Z M 145.2 34.2 C 145.2 35.4 145.6 36.4 146.2 37.2 C 146.9 37.9 147.8 38.3 148.8 38.3 C 149.8 38.3 150.7 37.9 151.4 37.2 C 152.1 36.4 152.4 35.4 152.4 34 C 152.4 33.2 152.3 32.4 152 31.8 C 151.7 31.2 151.3 30.7 150.7 30.3 C 150.1 30 149.5 29.8 148.8 29.8 C 147.8 29.8 147 30.1 146.3 30.8 C 145.6 31.5 145.2 32.6 145.2 34.2 Z M 155.8 39.3 L 155.8 32.7 L 154.6 32.7 L 154.6 31.7 L 155.8 31.7 C 155.8 31.7 155.76 30.86 155.8 30.9 C 155.8 30.3 155.8 30 155.9 29.7 C 156 29.4 156.2 29.1 156.6 28.9 C 156.9 28.7 157.3 28.6 157.9 28.6 C 158.2 28.6 158.6 28.6 159.1 28.7 C 159.1 28.7 158.9 29.8 158.9 29.8 C 158.6 29.8 158.4 29.8 158.1 29.8 C 157.7 29.8 157.4 29.9 157.3 30 C 157.1 30.2 157 30.5 157 31 C 157.04 30.96 157 31.7 157 31.7 L 158.5 31.7 L 158.5 32.7 L 157 32.7 L 157 39.3 L 155.8 39.3 Z M 164.4 42.2 C 164.4 42.2 164.38 38.46 164.4 38.5 C 164.2 38.7 163.9 39 163.5 39.2 C 163.2 39.4 162.8 39.4 162.4 39.4 C 161.5 39.4 160.7 39.1 160.1 38.4 C 159.4 37.6 159.1 36.7 159.1 35.4 C 159.1 34.6 159.2 33.9 159.5 33.3 C 159.7 32.7 160.1 32.3 160.6 32 C 161.1 31.7 161.7 31.5 162.3 31.5 C 163.2 31.5 164 31.9 164.5 32.7 C 164.51 32.68 164.5 31.7 164.5 31.7 L 165.7 31.7 L 165.7 42.2 L 164.4 42.2 Z M 160.4 35.4 C 160.4 36.4 160.6 37.2 161 37.7 C 161.4 38.1 161.9 38.4 162.5 38.4 C 163 38.4 163.5 38.2 163.9 37.7 C 164.3 37.2 164.5 36.5 164.5 35.6 C 164.5 34.6 164.3 33.8 163.9 33.3 C 163.5 32.8 163 32.5 162.4 32.5 C 161.8 32.5 161.4 32.7 161 33.2 C 160.6 33.7 160.4 34.4 160.4 35.4 Z M 172.7 39.3 C 172.7 39.3 172.67 38.16 172.7 38.2 C 172.1 39 171.3 39.4 170.3 39.4 C 169.8 39.4 169.4 39.4 169 39.2 C 168.6 39 168.3 38.8 168.1 38.5 C 167.9 38.3 167.8 38 167.7 37.6 C 167.7 37.3 167.7 36.9 167.7 36.4 C 167.66 36.38 167.7 31.7 167.7 31.7 L 168.9 31.7 C 168.9 31.7 168.95 35.88 168.9 35.9 C 168.9 36.6 169 37 169 37.2 C 169.1 37.6 169.3 37.9 169.5 38 C 169.8 38.2 170.1 38.3 170.5 38.3 C 170.9 38.3 171.3 38.2 171.6 38 C 171.9 37.8 172.2 37.6 172.3 37.2 C 172.5 36.9 172.5 36.4 172.5 35.7 C 172.53 35.74 172.5 31.7 172.5 31.7 L 173.8 31.7 L 173.8 39.3 L 172.7 39.3 Z M 181.1 39.3 C 180.9 39 180.8 38.7 180.8 38.3 C 180.3 38.7 179.9 39 179.4 39.2 C 179 39.4 178.5 39.4 178 39.4 C 177.2 39.4 176.5 39.2 176.1 38.8 C 175.6 38.4 175.4 37.9 175.4 37.3 C 175.4 36.9 175.5 36.6 175.7 36.2 C 175.8 35.9 176.1 35.7 176.3 35.5 C 176.6 35.3 176.9 35.2 177.3 35.1 C 177.5 35 177.9 35 178.4 34.9 C 179.4 34.8 180.2 34.6 180.7 34.4 C 180.7 34.3 180.7 34.2 180.7 34.1 C 180.7 33.6 180.6 33.2 180.3 33 C 180 32.7 179.5 32.6 178.9 32.6 C 178.3 32.6 177.8 32.7 177.5 32.9 C 177.2 33.1 177 33.5 176.9 34 C 176.9 34 175.6 33.8 175.6 33.8 C 175.7 33.3 175.9 32.9 176.2 32.5 C 176.5 32.2 176.8 31.9 177.3 31.8 C 177.8 31.6 178.4 31.5 179.1 31.5 C 179.7 31.5 180.2 31.6 180.6 31.7 C 181 31.9 181.3 32.1 181.5 32.3 C 181.7 32.5 181.9 32.8 181.9 33.2 C 182 33.4 182 33.8 182 34.4 C 182 34.4 182 36.1 182 36.1 C 182 37.3 182 38 182.1 38.4 C 182.1 38.7 182.2 39 182.4 39.3 C 182.41 39.27 181.1 39.3 181.1 39.3 C 181.1 39.3 181.06 39.27 181.1 39.3 Z M 180.7 35.5 C 180.2 35.6 179.5 35.8 178.6 35.9 C 178.1 36 177.7 36.1 177.5 36.2 C 177.2 36.3 177.1 36.4 177 36.6 C 176.8 36.8 176.8 37 176.8 37.2 C 176.8 37.6 176.9 37.9 177.2 38.1 C 177.4 38.3 177.8 38.4 178.3 38.4 C 178.8 38.4 179.3 38.3 179.6 38.1 C 180 37.9 180.3 37.6 180.5 37.2 C 180.6 36.9 180.7 36.5 180.7 35.9 C 180.7 35.9 180.7 35.5 180.7 35.5 Z M 184 39.3 L 184 28.8 L 185.3 28.8 L 185.3 39.3 L 184 39.3 Z M 196.6 39.3 C 196.4 39 196.3 38.7 196.3 38.3 C 195.8 38.7 195.4 39 194.9 39.2 C 194.5 39.4 194 39.4 193.5 39.4 C 192.7 39.4 192 39.2 191.6 38.8 C 191.1 38.4 190.9 37.9 190.9 37.3 C 190.9 36.9 191 36.6 191.1 36.2 C 191.3 35.9 191.5 35.7 191.8 35.5 C 192.1 35.3 192.4 35.2 192.7 35.1 C 193 35 193.4 35 193.9 34.9 C 194.9 34.8 195.7 34.6 196.2 34.4 C 196.2 34.3 196.2 34.2 196.2 34.1 C 196.2 33.6 196.1 33.2 195.8 33 C 195.5 32.7 195 32.6 194.4 32.6 C 193.8 32.6 193.3 32.7 193 32.9 C 192.7 33.1 192.5 33.5 192.4 34 C 192.4 34 191.1 33.8 191.1 33.8 C 191.2 33.3 191.4 32.9 191.7 32.5 C 191.9 32.2 192.3 31.9 192.8 31.8 C 193.3 31.6 193.9 31.5 194.5 31.5 C 195.2 31.5 195.7 31.6 196.1 31.7 C 196.5 31.9 196.8 32.1 197 32.3 C 197.2 32.5 197.4 32.8 197.4 33.2 C 197.5 33.4 197.5 33.8 197.5 34.4 C 197.5 34.4 197.5 36.1 197.5 36.1 C 197.5 37.3 197.5 38 197.6 38.4 C 197.6 38.7 197.7 39 197.9 39.3 C 197.9 39.27 196.6 39.3 196.6 39.3 C 196.6 39.3 196.55 39.27 196.6 39.3 Z M 196.2 35.5 C 195.7 35.6 195 35.8 194.1 35.9 C 193.6 36 193.2 36.1 193 36.2 C 192.7 36.3 192.6 36.4 192.4 36.6 C 192.3 36.8 192.3 37 192.3 37.2 C 192.3 37.6 192.4 37.9 192.7 38.1 C 192.9 38.3 193.3 38.4 193.8 38.4 C 194.3 38.4 194.7 38.3 195.1 38.1 C 195.5 37.9 195.8 37.6 196 37.2 C 196.1 36.9 196.2 36.5 196.2 35.9 C 196.2 35.9 196.2 35.5 196.2 35.5 Z M 199.5 39.3 L 199.5 31.7 L 200.6 31.7 C 200.6 31.7 200.65 32.75 200.6 32.7 C 201.2 31.9 202 31.5 203.1 31.5 C 203.5 31.5 203.9 31.6 204.3 31.7 C 204.7 31.9 205 32.1 205.2 32.4 C 205.4 32.7 205.5 33 205.6 33.3 C 205.6 33.6 205.7 34 205.7 34.6 C 205.67 34.6 205.7 39.3 205.7 39.3 L 204.4 39.3 C 204.4 39.3 204.38 34.65 204.4 34.6 C 204.4 34.1 204.3 33.7 204.2 33.5 C 204.1 33.2 204 33 203.7 32.8 C 203.4 32.7 203.1 32.6 202.8 32.6 C 202.2 32.6 201.8 32.8 201.4 33.1 C 201 33.5 200.8 34.1 200.8 35.1 C 200.78 35.12 200.8 39.3 200.8 39.3 L 199.5 39.3 Z M 212.6 39.3 C 212.6 39.3 212.58 38.31 212.6 38.3 C 212.1 39.1 211.4 39.4 210.5 39.4 C 209.8 39.4 209.3 39.3 208.8 38.9 C 208.3 38.6 207.9 38.1 207.6 37.5 C 207.3 36.9 207.2 36.3 207.2 35.5 C 207.2 34.7 207.3 34 207.6 33.4 C 207.8 32.8 208.2 32.3 208.7 32 C 209.2 31.7 209.8 31.5 210.4 31.5 C 210.9 31.5 211.3 31.6 211.6 31.8 C 212 32 212.3 32.2 212.5 32.5 C 212.49 32.54 212.5 28.8 212.5 28.8 L 213.8 28.8 L 213.8 39.3 L 212.6 39.3 Z M 208.5 35.5 C 208.5 36.5 208.7 37.2 209.1 37.7 C 209.5 38.1 210 38.4 210.6 38.4 C 211.1 38.4 211.6 38.2 212 37.7 C 212.4 37.2 212.6 36.5 212.6 35.6 C 212.6 34.5 212.4 33.8 212 33.3 C 211.6 32.8 211.1 32.6 210.5 32.6 C 209.9 32.6 209.5 32.8 209.1 33.3 C 208.7 33.7 208.5 34.5 208.5 35.5 Z M 222.1 38.2 C 222.3 38.2 222.5 38.2 222.7 38.1 C 222.7 38.1 222.9 39.3 222.9 39.3 C 222.5 39.3 222.2 39.4 221.9 39.4 C 221.4 39.4 221.1 39.3 220.8 39.2 C 220.6 39 220.4 38.8 220.3 38.6 C 220.2 38.3 220.1 37.8 220.1 37 C 220.11 37.04 220.1 32.7 220.1 32.7 L 219.2 32.7 L 219.2 31.7 L 220.1 31.7 L 220.1 29.8 L 221.4 29 L 221.4 31.7 L 222.7 31.7 L 222.7 32.7 L 221.4 32.7 C 221.4 32.7 221.4 37.12 221.4 37.1 C 221.4 37.5 221.4 37.7 221.5 37.8 C 221.5 37.9 221.6 38 221.7 38.1 C 221.8 38.1 221.9 38.2 222.1 38.2 C 222.1 38.2 222.1 38.2 222.1 38.2 Z M 224 39.3 L 224 28.8 L 225.2 28.8 C 225.2 28.8 225.24 32.54 225.2 32.5 C 225.8 31.8 226.6 31.5 227.5 31.5 C 228.1 31.5 228.6 31.6 229 31.8 C 229.4 32 229.7 32.4 229.9 32.7 C 230.1 33.1 230.1 33.7 230.1 34.5 C 230.15 34.45 230.1 39.3 230.1 39.3 L 228.9 39.3 C 228.9 39.3 228.86 34.45 228.9 34.5 C 228.9 33.8 228.7 33.3 228.4 33 C 228.2 32.8 227.8 32.6 227.3 32.6 C 226.9 32.6 226.5 32.7 226.2 32.9 C 225.8 33.1 225.6 33.4 225.5 33.7 C 225.3 34 225.2 34.5 225.2 35.1 C 225.24 35.11 225.2 39.3 225.2 39.3 L 224 39.3 Z M 237.3 36.8 C 237.3 36.8 238.6 37 238.6 37 C 238.4 37.8 238 38.4 237.5 38.8 C 236.9 39.2 236.2 39.4 235.3 39.4 C 234.2 39.4 233.3 39.1 232.7 38.4 C 232 37.7 231.7 36.8 231.7 35.5 C 231.7 34.3 232 33.3 232.7 32.6 C 233.3 31.8 234.2 31.5 235.2 31.5 C 236.2 31.5 237.1 31.8 237.7 32.5 C 238.4 33.2 238.7 34.2 238.7 35.5 C 238.7 35.5 238.7 35.6 238.7 35.8 C 238.7 35.8 233 35.8 233 35.8 C 233.1 36.6 233.3 37.3 233.7 37.7 C 234.1 38.2 234.7 38.4 235.3 38.4 C 235.8 38.4 236.2 38.3 236.5 38 C 236.9 37.8 237.1 37.4 237.3 36.8 Z M 233.1 34.7 C 233.1 34.7 237.3 34.7 237.3 34.7 C 237.3 34.1 237.1 33.6 236.8 33.3 C 236.4 32.8 235.9 32.6 235.2 32.6 C 234.7 32.6 234.2 32.8 233.8 33.1 C 233.3 33.5 233.1 34.1 233.1 34.7 Z " stroke="none" fill="#fff"/>  </g></svg>