<?xml version="1.0" standalone="no"?><!DOCTYPE svg PUBLIC "-//W3C//DTD SVG 1.1//EN" "http://www.w3.org/Graphics/SVG/1.1/DTD/svg11.dtd"><svg xmlns="http://www.w3.org/2000/svg" version="1.1" width="433px" height="71.2px" viewBox="0 -1 433 71.2" style="top:-1px">  <desc>Providing training,</desc>  <defs/>  <g id="Polygon65670">    <path d="M 3.1 17 C 3.1 17 10.64 17.02 10.6 17 C 13.5 17 15.7 17.7 17.3 19 C 18.8 20.2 19.6 22 19.6 24.2 C 19.6 26.5 18.8 28.3 17.2 29.6 C 15.7 30.9 13.4 31.5 10.4 31.5 C 10.45 31.55 5.2 31.5 5.2 31.5 L 5.2 44.3 L 3.1 44.3 L 3.1 17 Z M 5.2 18.8 L 5.2 29.8 C 5.2 29.8 10.31 29.79 10.3 29.8 C 12.6 29.8 14.3 29.3 15.5 28.3 C 16.7 27.4 17.3 26 17.3 24.3 C 17.3 22.6 16.7 21.3 15.5 20.3 C 14.4 19.3 12.7 18.8 10.6 18.8 C 10.57 18.78 5.2 18.8 5.2 18.8 Z M 23.6 17 C 23.6 17 30.55 17.02 30.5 17 C 33.5 17 35.7 17.7 37.3 18.9 C 38.8 20.2 39.6 21.9 39.6 24.1 C 39.6 27.2 37.9 29.4 34.4 30.7 C 35.3 31.1 36.5 32.5 38 34.9 C 38.03 34.87 44.2 44.3 44.2 44.3 L 41.7 44.3 C 41.7 44.3 36.95 36.83 36.9 36.8 C 35.4 34.3 34.1 32.8 33.2 32.1 C 32.4 31.5 31.1 31.2 29.4 31.2 C 29.35 31.22 25.7 31.2 25.7 31.2 L 25.7 44.3 L 23.6 44.3 L 23.6 17 Z M 25.7 18.8 L 25.7 29.5 C 25.7 29.5 30.2 29.46 30.2 29.5 C 32.5 29.5 34.3 29 35.5 28.1 C 36.7 27.1 37.3 25.8 37.3 24.1 C 37.3 22.4 36.7 21.1 35.4 20.2 C 34.2 19.2 32.4 18.8 30.1 18.8 C 30.12 18.78 25.7 18.8 25.7 18.8 Z M 59.2 16.7 C 63.2 16.7 66.6 18 69.4 20.7 C 72.2 23.5 73.6 26.8 73.6 30.7 C 73.6 34.6 72.2 37.9 69.4 40.6 C 66.6 43.3 63.2 44.7 59.2 44.7 C 55.1 44.7 51.7 43.3 48.9 40.6 C 46.1 37.9 44.7 34.6 44.7 30.7 C 44.7 26.8 46.1 23.5 48.9 20.7 C 51.7 18 55.1 16.7 59.2 16.7 Z M 59.2 42.7 C 62.6 42.7 65.5 41.5 67.8 39.2 C 70.2 36.9 71.3 34 71.3 30.7 C 71.3 27.3 70.2 24.4 67.8 22.1 C 65.5 19.8 62.6 18.6 59.2 18.6 C 55.8 18.6 52.9 19.8 50.6 22.1 C 48.2 24.4 47 27.3 47 30.7 C 47 34 48.2 36.9 50.6 39.2 C 52.9 41.5 55.8 42.7 59.2 42.7 Z M 97.7 17 L 86.3 44.6 L 85.6 44.6 L 74.2 17 L 76.3 17 L 86 40.1 L 95.6 17 L 97.7 17 Z M 103 17 L 103 44.3 L 100.9 44.3 L 100.9 17 L 103 17 Z M 109.3 17 C 109.3 17 118.85 17.02 118.8 17 C 123.7 17 127.4 18.3 129.9 20.8 C 132.5 23.4 133.7 26.6 133.7 30.7 C 133.7 34.6 132.5 37.9 130 40.4 C 127.4 43 123.9 44.3 119.2 44.3 C 119.22 44.3 109.3 44.3 109.3 44.3 L 109.3 17 Z M 111.4 18.8 L 111.4 42.5 C 111.4 42.5 119.1 42.55 119.1 42.5 C 122.6 42.5 125.6 41.5 127.9 39.3 C 130.3 37.1 131.4 34.3 131.4 30.7 C 131.4 27.2 130.3 24.3 128 22.1 C 125.7 19.9 122.6 18.8 119 18.8 C 118.96 18.78 111.4 18.8 111.4 18.8 Z M 141 17 L 141 44.3 L 138.9 44.3 L 138.9 17 L 141 17 Z M 171.8 17 L 171.8 44.3 L 170 44.3 L 149.3 20.5 L 149.3 44.3 L 147.2 44.3 L 147.2 17 L 149 17 L 169.7 40.9 L 169.7 17 L 171.8 17 Z M 191.5 16.7 C 194.4 16.7 197.5 17.4 200.9 19 C 200.9 19 200.9 21.4 200.9 21.4 C 197.7 19.5 194.4 18.6 191.2 18.6 C 187.8 18.6 184.9 19.8 182.6 22.1 C 180.3 24.3 179.2 27.2 179.2 30.7 C 179.2 34.1 180.3 37 182.6 39.3 C 184.8 41.6 187.9 42.7 191.8 42.7 C 194.6 42.7 197.1 42.1 199.3 41 C 199.3 41.02 199.3 33.7 199.3 33.7 L 193.5 33.7 L 193.5 31.9 L 201.4 31.9 C 201.4 31.9 201.43 42.35 201.4 42.4 C 198.2 43.9 195 44.7 191.7 44.7 C 187.5 44.7 184 43.3 181.1 40.6 C 178.3 37.9 176.9 34.6 176.9 30.6 C 176.9 26.6 178.3 23.3 181.1 20.6 C 183.8 18 187.3 16.7 191.5 16.7 C 191.5 16.7 191.5 16.7 191.5 16.7 Z M 231.9 17 L 231.9 18.8 L 221.7 18.8 L 221.7 44.3 L 219.6 44.3 L 219.6 18.8 L 209.3 18.8 L 209.3 17 L 231.9 17 Z M 235.3 17 C 235.3 17 242.27 17.02 242.3 17 C 245.2 17 247.4 17.7 249 18.9 C 250.5 20.2 251.3 21.9 251.3 24.1 C 251.3 27.2 249.6 29.4 246.1 30.7 C 247 31.1 248.2 32.5 249.7 34.9 C 249.75 34.87 255.9 44.3 255.9 44.3 L 253.4 44.3 C 253.4 44.3 248.67 36.83 248.7 36.8 C 247.1 34.3 245.8 32.8 245 32.1 C 244.1 31.5 242.8 31.2 241.1 31.2 C 241.07 31.22 237.4 31.2 237.4 31.2 L 237.4 44.3 L 235.3 44.3 L 235.3 17 Z M 237.4 18.8 L 237.4 29.5 C 237.4 29.5 241.91 29.46 241.9 29.5 C 244.2 29.5 246 29 247.2 28.1 C 248.4 27.1 249 25.8 249 24.1 C 249 22.4 248.4 21.1 247.2 20.2 C 245.9 19.2 244.2 18.8 241.8 18.8 C 241.84 18.78 237.4 18.8 237.4 18.8 Z M 269 16.8 L 281.6 44.3 L 279.4 44.3 L 275.1 34.9 L 261.7 34.9 L 257.4 44.3 L 255.2 44.3 L 267.8 16.8 L 269 16.8 Z M 274.2 33.1 L 268.4 20.3 L 262.5 33.1 L 274.2 33.1 Z M 287 17 L 287 44.3 L 284.8 44.3 L 284.8 17 L 287 17 Z M 317.8 17 L 317.8 44.3 L 316 44.3 L 295.3 20.5 L 295.3 44.3 L 293.2 44.3 L 293.2 17 L 295 17 L 315.6 40.9 L 315.6 17 L 317.8 17 Z M 326.1 17 L 326.1 44.3 L 324 44.3 L 324 17 L 326.1 17 Z M 356.9 17 L 356.9 44.3 L 355.2 44.3 L 334.4 20.5 L 334.4 44.3 L 332.3 44.3 L 332.3 17 L 334.1 17 L 354.8 40.9 L 354.8 17 L 356.9 17 Z M 376.7 16.7 C 379.5 16.7 382.7 17.4 386 19 C 386 19 386 21.4 386 21.4 C 382.8 19.5 379.6 18.6 376.4 18.6 C 372.9 18.6 370 19.8 367.8 22.1 C 365.5 24.3 364.3 27.2 364.3 30.7 C 364.3 34.1 365.4 37 367.7 39.3 C 370 41.6 373.1 42.7 377 42.7 C 379.8 42.7 382.3 42.1 384.4 41 C 384.43 41.02 384.4 33.7 384.4 33.7 L 378.7 33.7 L 378.7 31.9 L 386.6 31.9 C 386.6 31.9 386.56 42.35 386.6 42.4 C 383.3 43.9 380.1 44.7 376.9 44.7 C 372.6 44.7 369.1 43.3 366.3 40.6 C 363.4 37.9 362 34.6 362 30.6 C 362 26.6 363.4 23.3 366.2 20.6 C 369 18 372.5 16.7 376.7 16.7 C 376.7 16.7 376.7 16.7 376.7 16.7 Z M 393.7 40.4 C 393.7 40.4 393.65 43.46 393.7 43.5 C 393.7 45.8 392.8 47.7 391.1 49 C 391.1 49 391.1 47.6 391.1 47.6 C 391.6 46.8 391.9 45.7 391.9 44.3 C 391.89 44.3 391.1 44.3 391.1 44.3 L 391.1 40.4 L 393.7 40.4 Z " stroke="none" fill="#000"/>  </g></svg>