<?xml version="1.0" standalone="no"?><!DOCTYPE svg PUBLIC "-//W3C//DTD SVG 1.1//EN" "http://www.w3.org/Graphics/SVG/1.1/DTD/svg11.dtd"><svg xmlns="http://www.w3.org/2000/svg" version="1.1" width="395px" height="145.3px" viewBox="0 -1 395 145.3" style="top:-1px">  <desc>End Point Assessment</desc>  <defs/>  <g id="Polygon61601">    <path d="M 108.3 76.8 L 119.7 101.5 L 117.7 101.5 L 113.8 93 L 101.8 93 L 97.9 101.5 L 96 101.5 L 107.3 76.8 L 108.3 76.8 Z M 113.1 91.5 L 107.8 79.9 L 102.5 91.5 L 113.1 91.5 Z M 128.5 76.7 C 130.5 76.7 132.3 77.2 134.2 78.2 C 134.2 78.2 134.2 80.3 134.2 80.3 C 132.1 79 130.3 78.4 128.7 78.4 C 127.2 78.4 126 78.9 125 79.8 C 124 80.7 123.5 81.8 123.5 83.1 C 123.5 84 123.8 84.9 124.4 85.7 C 125 86.4 126.2 87.2 128.1 87.9 C 129.9 88.6 131.3 89.1 132.2 89.6 C 133 90.1 133.7 90.8 134.3 91.7 C 134.9 92.5 135.2 93.7 135.2 95.1 C 135.2 97 134.5 98.6 133.2 99.9 C 131.8 101.2 130.1 101.9 128.1 101.9 C 126.1 101.9 124 101.1 121.8 99.7 C 121.8 99.7 121.8 97.5 121.8 97.5 C 124.2 99.2 126.2 100.1 128 100.1 C 129.4 100.1 130.7 99.6 131.7 98.7 C 132.7 97.7 133.2 96.6 133.2 95.2 C 133.2 94.2 132.9 93.2 132.3 92.4 C 131.6 91.5 130.4 90.8 128.5 90 C 126.6 89.3 125.2 88.7 124.4 88.3 C 123.6 87.8 122.9 87.2 122.3 86.4 C 121.8 85.5 121.5 84.5 121.5 83.2 C 121.5 81.4 122.2 79.8 123.5 78.6 C 124.9 77.3 126.6 76.7 128.5 76.7 C 128.5 76.7 128.5 76.7 128.5 76.7 Z M 145.4 76.7 C 147.3 76.7 149.2 77.2 151.1 78.2 C 151.1 78.2 151.1 80.3 151.1 80.3 C 149 79 147.1 78.4 145.6 78.4 C 144.1 78.4 142.9 78.9 141.9 79.8 C 140.9 80.7 140.4 81.8 140.4 83.1 C 140.4 84 140.7 84.9 141.3 85.7 C 141.9 86.4 143.1 87.2 145 87.9 C 146.8 88.6 148.2 89.1 149.1 89.6 C 149.9 90.1 150.6 90.8 151.2 91.7 C 151.8 92.5 152.1 93.7 152.1 95.1 C 152.1 97 151.4 98.6 150.1 99.9 C 148.7 101.2 147 101.9 145 101.9 C 143 101.9 140.9 101.1 138.7 99.7 C 138.7 99.7 138.7 97.5 138.7 97.5 C 141.1 99.2 143.1 100.1 144.9 100.1 C 146.3 100.1 147.6 99.6 148.6 98.7 C 149.6 97.7 150.1 96.6 150.1 95.2 C 150.1 94.2 149.8 93.2 149.1 92.4 C 148.5 91.5 147.3 90.8 145.4 90 C 143.5 89.3 142.1 88.7 141.3 88.3 C 140.5 87.8 139.8 87.2 139.2 86.4 C 138.7 85.5 138.4 84.5 138.4 83.2 C 138.4 81.4 139.1 79.8 140.4 78.6 C 141.8 77.3 143.5 76.7 145.4 76.7 C 145.4 76.7 145.4 76.7 145.4 76.7 Z M 169.9 77 L 169.9 78.6 L 158.4 78.6 L 158.4 88.4 L 169.6 88.4 L 169.6 90 L 158.4 90 L 158.4 100 L 170.2 100 L 170.2 101.5 L 156.5 101.5 L 156.5 77 L 169.9 77 Z M 180 76.7 C 181.9 76.7 183.8 77.2 185.7 78.2 C 185.7 78.2 185.7 80.3 185.7 80.3 C 183.5 79 181.7 78.4 180.2 78.4 C 178.7 78.4 177.4 78.9 176.5 79.8 C 175.5 80.7 175 81.8 175 83.1 C 175 84 175.3 84.9 175.8 85.7 C 176.4 86.4 177.7 87.2 179.5 87.9 C 181.4 88.6 182.7 89.1 183.6 89.6 C 184.5 90.1 185.2 90.8 185.8 91.7 C 186.4 92.5 186.7 93.7 186.7 95.1 C 186.7 97 186 98.6 184.6 99.9 C 183.2 101.2 181.5 101.9 179.5 101.9 C 177.5 101.9 175.4 101.1 173.2 99.7 C 173.2 99.7 173.2 97.5 173.2 97.5 C 175.6 99.2 177.7 100.1 179.4 100.1 C 180.9 100.1 182.1 99.6 183.1 98.7 C 184.1 97.7 184.6 96.6 184.6 95.2 C 184.6 94.2 184.3 93.2 183.7 92.4 C 183.1 91.5 181.8 90.8 179.9 90 C 178 89.3 176.7 88.7 175.8 88.3 C 175 87.8 174.3 87.2 173.8 86.4 C 173.2 85.5 172.9 84.5 172.9 83.2 C 172.9 81.4 173.6 79.8 175 78.6 C 176.4 77.3 178 76.7 180 76.7 C 180 76.7 180 76.7 180 76.7 Z M 196.9 76.7 C 198.8 76.7 200.7 77.2 202.5 78.2 C 202.5 78.2 202.5 80.3 202.5 80.3 C 200.4 79 198.6 78.4 197 78.4 C 195.6 78.4 194.3 78.9 193.3 79.8 C 192.4 80.7 191.9 81.8 191.9 83.1 C 191.9 84 192.2 84.9 192.7 85.7 C 193.3 86.4 194.5 87.2 196.4 87.9 C 198.3 88.6 199.6 89.1 200.5 89.6 C 201.3 90.1 202.1 90.8 202.7 91.7 C 203.3 92.5 203.6 93.7 203.6 95.1 C 203.6 97 202.9 98.6 201.5 99.9 C 200.1 101.2 198.4 101.9 196.4 101.9 C 194.4 101.9 192.3 101.1 190.1 99.7 C 190.1 99.7 190.1 97.5 190.1 97.5 C 192.5 99.2 194.6 100.1 196.3 100.1 C 197.8 100.1 199 99.6 200 98.7 C 201 97.7 201.5 96.6 201.5 95.2 C 201.5 94.2 201.2 93.2 200.6 92.4 C 200 91.5 198.7 90.8 196.8 90 C 194.9 89.3 193.5 88.7 192.7 88.3 C 191.9 87.8 191.2 87.2 190.7 86.4 C 190.1 85.5 189.8 84.5 189.8 83.2 C 189.8 81.4 190.5 79.8 191.9 78.6 C 193.3 77.3 194.9 76.7 196.9 76.7 C 196.9 76.7 196.9 76.7 196.9 76.7 Z M 219.1 88.4 L 228.4 77 L 230.4 77 L 230.4 101.5 L 228.4 101.5 L 228.4 79.8 L 219.1 91.2 L 209.7 79.8 L 209.7 101.5 L 207.8 101.5 L 207.8 77 L 209.7 77 L 219.1 88.4 Z M 249.4 77 L 249.4 78.6 L 237.9 78.6 L 237.9 88.4 L 249.1 88.4 L 249.1 90 L 237.9 90 L 237.9 100 L 249.7 100 L 249.7 101.5 L 236 101.5 L 236 77 L 249.4 77 Z M 275.7 77 L 275.7 101.5 L 274.2 101.5 L 255.5 80.1 L 255.5 101.5 L 253.6 101.5 L 253.6 77 L 255.2 77 L 273.8 98.4 L 273.8 77 L 275.7 77 Z M 299 77 L 299 78.6 L 289.8 78.6 L 289.8 101.5 L 287.9 101.5 L 287.9 78.6 L 278.7 78.6 L 278.7 77 L 299 77 Z " stroke="none" fill="#ffffff"/>  </g>  <g id="Polygon61600">    <path d="M 120.2 33.8 L 120.2 35.4 L 108.7 35.4 L 108.7 45.2 L 119.9 45.2 L 119.9 46.8 L 108.7 46.8 L 108.7 56.8 L 120.5 56.8 L 120.5 58.3 L 106.8 58.3 L 106.8 33.8 L 120.2 33.8 Z M 146.5 33.8 L 146.5 58.3 L 144.9 58.3 L 126.3 36.9 L 126.3 58.3 L 124.4 58.3 L 124.4 33.8 L 126 33.8 L 144.6 55.2 L 144.6 33.8 L 146.5 33.8 Z M 152.2 33.8 C 152.2 33.8 160.75 33.78 160.8 33.8 C 165.1 33.8 168.4 34.9 170.7 37.2 C 173 39.5 174.1 42.4 174.1 46.1 C 174.1 49.6 173 52.6 170.7 54.9 C 168.5 57.2 165.3 58.3 161.1 58.3 C 161.09 58.34 152.2 58.3 152.2 58.3 L 152.2 33.8 Z M 154.1 35.4 L 154.1 56.8 C 154.1 56.8 160.98 56.75 161 56.8 C 164.2 56.8 166.8 55.8 168.9 53.8 C 171 51.9 172.1 49.3 172.1 46.1 C 172.1 42.9 171 40.3 169 38.4 C 166.9 36.4 164.2 35.4 160.9 35.4 C 160.86 35.36 154.1 35.4 154.1 35.4 Z M 185.9 49.4 L 185.9 51.1 L 177.3 51.1 L 177.3 49.4 L 185.9 49.4 Z M 190 33.8 C 190 33.8 196.81 33.78 196.8 33.8 C 199.4 33.8 201.4 34.4 202.8 35.5 C 204.1 36.7 204.8 38.3 204.8 40.3 C 204.8 42.3 204.1 43.9 202.7 45.1 C 201.3 46.3 199.3 46.9 196.6 46.9 C 196.63 46.86 191.9 46.9 191.9 46.9 L 191.9 58.3 L 190 58.3 L 190 33.8 Z M 191.9 35.4 L 191.9 45.3 C 191.9 45.3 196.51 45.28 196.5 45.3 C 198.6 45.3 200.1 44.8 201.2 44 C 202.2 43.1 202.8 41.9 202.8 40.3 C 202.8 38.8 202.3 37.6 201.2 36.7 C 200.2 35.8 198.7 35.4 196.7 35.4 C 196.74 35.36 191.9 35.4 191.9 35.4 Z M 220.4 33.5 C 224 33.5 227.1 34.7 229.6 37.1 C 232.1 39.6 233.4 42.6 233.4 46.1 C 233.4 49.6 232.1 52.5 229.6 55 C 227.1 57.4 224 58.7 220.4 58.7 C 216.8 58.7 213.7 57.4 211.2 55 C 208.7 52.5 207.4 49.6 207.4 46.1 C 207.4 42.6 208.7 39.6 211.2 37.1 C 213.7 34.7 216.8 33.5 220.4 33.5 Z M 220.4 56.9 C 223.5 56.9 226.1 55.8 228.2 53.8 C 230.3 51.7 231.3 49.1 231.3 46.1 C 231.3 43 230.3 40.5 228.2 38.4 C 226.1 36.3 223.5 35.2 220.4 35.2 C 217.4 35.2 214.8 36.3 212.7 38.4 C 210.5 40.5 209.5 43 209.5 46.1 C 209.5 49.1 210.5 51.7 212.7 53.8 C 214.8 55.8 217.4 56.9 220.4 56.9 Z M 239.9 33.8 L 239.9 58.3 L 238 58.3 L 238 33.8 L 239.9 33.8 Z M 267.6 33.8 L 267.6 58.3 L 266.1 58.3 L 247.4 36.9 L 247.4 58.3 L 245.5 58.3 L 245.5 33.8 L 247.1 33.8 L 265.7 55.2 L 265.7 33.8 L 267.6 33.8 Z M 290.9 33.8 L 290.9 35.4 L 281.7 35.4 L 281.7 58.3 L 279.8 58.3 L 279.8 35.4 L 270.6 35.4 L 270.6 33.8 L 290.9 33.8 Z " stroke="none" fill="#ffffff"/>  </g></svg>