<?xml version="1.0" standalone="no"?><!DOCTYPE svg PUBLIC "-//W3C//DTD SVG 1.1//EN" "http://www.w3.org/Graphics/SVG/1.1/DTD/svg11.dtd"><svg xmlns="http://www.w3.org/2000/svg" version="1.1" width="199px" height="71.2px" viewBox="0 -1 199 71.2" style="top:-1px">  <desc>sectors</desc>  <defs/>  <g id="Polygon65829">    <path d="M 9.7 16.7 C 11.8 16.7 13.9 17.2 16 18.4 C 16 18.4 16 20.7 16 20.7 C 13.6 19.3 11.6 18.6 9.9 18.6 C 8.2 18.6 6.9 19.1 5.8 20.1 C 4.7 21.1 4.1 22.3 4.1 23.8 C 4.1 24.9 4.4 25.8 5.1 26.7 C 5.7 27.5 7.1 28.3 9.2 29.1 C 11.3 29.9 12.8 30.5 13.7 31.1 C 14.7 31.6 15.5 32.3 16.1 33.3 C 16.8 34.3 17.1 35.6 17.1 37.2 C 17.1 39.3 16.4 41 14.8 42.5 C 13.3 43.9 11.4 44.7 9.2 44.7 C 6.9 44.7 4.6 43.9 2.2 42.3 C 2.2 42.3 2.2 39.8 2.2 39.8 C 4.9 41.7 7.1 42.7 9.1 42.7 C 10.7 42.7 12.1 42.2 13.2 41.1 C 14.3 40.1 14.8 38.8 14.8 37.3 C 14.8 36.1 14.5 35.1 13.8 34.1 C 13.1 33.2 11.7 32.3 9.6 31.5 C 7.5 30.7 6 30.1 5.1 29.6 C 4.2 29.1 3.4 28.4 2.8 27.5 C 2.2 26.5 1.8 25.4 1.8 23.9 C 1.8 21.9 2.6 20.2 4.1 18.8 C 5.7 17.4 7.5 16.7 9.7 16.7 C 9.7 16.7 9.7 16.7 9.7 16.7 Z M 36.9 17 L 36.9 18.8 L 24.1 18.8 L 24.1 29.7 L 36.5 29.7 L 36.5 31.5 L 24.1 31.5 L 24.1 42.5 L 37.2 42.5 L 37.2 44.3 L 22 44.3 L 22 17 L 36.9 17 Z M 54.7 16.7 C 57.7 16.7 60.9 17.4 64.3 19 C 64.3 19 64.3 21.3 64.3 21.3 C 61 19.5 57.7 18.6 54.5 18.6 C 51.1 18.6 48.3 19.8 46 22.1 C 43.8 24.4 42.6 27.3 42.6 30.7 C 42.6 34.2 43.8 37.1 46.1 39.3 C 48.3 41.6 51.3 42.7 54.8 42.7 C 57.8 42.7 61 41.8 64.5 39.9 C 64.5 39.9 64.5 42.1 64.5 42.1 C 61.3 43.8 58.1 44.7 54.9 44.7 C 50.7 44.7 47.2 43.3 44.5 40.7 C 41.7 38 40.3 34.7 40.3 30.7 C 40.3 26.7 41.7 23.4 44.6 20.7 C 47.4 18 50.8 16.7 54.7 16.7 C 54.7 16.7 54.7 16.7 54.7 16.7 Z M 88.2 17 L 88.2 18.8 L 78 18.8 L 78 44.3 L 75.8 44.3 L 75.8 18.8 L 65.6 18.8 L 65.6 17 L 88.2 17 Z M 101.8 16.7 C 105.9 16.7 109.3 18 112.1 20.7 C 114.9 23.5 116.3 26.8 116.3 30.7 C 116.3 34.6 114.9 37.9 112.1 40.6 C 109.3 43.3 105.9 44.7 101.8 44.7 C 97.8 44.7 94.4 43.3 91.6 40.6 C 88.8 37.9 87.4 34.6 87.4 30.7 C 87.4 26.8 88.8 23.5 91.6 20.7 C 94.4 18 97.8 16.7 101.8 16.7 Z M 101.9 42.7 C 105.3 42.7 108.2 41.5 110.5 39.2 C 112.8 36.9 114 34 114 30.7 C 114 27.3 112.8 24.4 110.5 22.1 C 108.2 19.8 105.3 18.6 101.9 18.6 C 98.5 18.6 95.6 19.8 93.2 22.1 C 90.9 24.4 89.7 27.3 89.7 30.7 C 89.7 34 90.9 36.9 93.2 39.2 C 95.6 41.5 98.5 42.7 101.9 42.7 Z M 121.5 17 C 121.5 17 128.46 17.02 128.5 17 C 131.4 17 133.6 17.7 135.2 18.9 C 136.7 20.2 137.5 21.9 137.5 24.1 C 137.5 27.2 135.8 29.4 132.3 30.7 C 133.2 31.1 134.4 32.5 135.9 34.9 C 135.94 34.87 142.1 44.3 142.1 44.3 L 139.6 44.3 C 139.6 44.3 134.86 36.83 134.9 36.8 C 133.3 34.3 132 32.8 131.1 32.1 C 130.3 31.5 129 31.2 127.3 31.2 C 127.26 31.22 123.6 31.2 123.6 31.2 L 123.6 44.3 L 121.5 44.3 L 121.5 17 Z M 123.6 18.8 L 123.6 29.5 C 123.6 29.5 128.11 29.46 128.1 29.5 C 130.4 29.5 132.2 29 133.4 28.1 C 134.6 27.1 135.2 25.8 135.2 24.1 C 135.2 22.4 134.6 21.1 133.4 20.2 C 132.1 19.2 130.3 18.8 128 18.8 C 128.03 18.78 123.6 18.8 123.6 18.8 Z M 150.9 16.7 C 153 16.7 155.1 17.2 157.2 18.4 C 157.2 18.4 157.2 20.7 157.2 20.7 C 154.9 19.3 152.8 18.6 151.1 18.6 C 149.5 18.6 148.1 19.1 147 20.1 C 145.9 21.1 145.4 22.3 145.4 23.8 C 145.4 24.9 145.7 25.8 146.3 26.7 C 147 27.5 148.3 28.3 150.4 29.1 C 152.5 29.9 154 30.5 154.9 31.1 C 155.9 31.6 156.7 32.3 157.4 33.3 C 158 34.3 158.4 35.6 158.4 37.2 C 158.4 39.3 157.6 41 156.1 42.5 C 154.5 43.9 152.6 44.7 150.4 44.7 C 148.2 44.7 145.8 43.9 143.4 42.3 C 143.4 42.3 143.4 39.8 143.4 39.8 C 146.1 41.7 148.4 42.7 150.3 42.7 C 151.9 42.7 153.3 42.2 154.4 41.1 C 155.5 40.1 156.1 38.8 156.1 37.3 C 156.1 36.1 155.7 35.1 155 34.1 C 154.3 33.2 152.9 32.3 150.8 31.5 C 148.7 30.7 147.2 30.1 146.3 29.6 C 145.4 29.1 144.6 28.4 144 27.5 C 143.4 26.5 143.1 25.4 143.1 23.9 C 143.1 21.9 143.8 20.2 145.4 18.8 C 146.9 17.4 148.8 16.7 150.9 16.7 C 150.9 16.7 150.9 16.7 150.9 16.7 Z " stroke="none" fill="#000"/>  </g></svg>