<?xml version="1.0" standalone="no"?><!DOCTYPE svg PUBLIC "-//W3C//DTD SVG 1.1//EN" "http://www.w3.org/Graphics/SVG/1.1/DTD/svg11.dtd"><svg xmlns="http://www.w3.org/2000/svg" version="1.1" width="395px" height="185.6px" viewBox="0 0 395 185.6">  <desc>Delivering quality training and consultancy services to help develop programmes which are engaging, effective and res...</desc>  <defs/>  <g id="Polygon62068">    <path d="M 135.2 145.6 C 135.2 143.5 135.8 141.9 137 140.9 C 138 140.1 139.2 139.6 140.6 139.6 C 142.2 139.6 143.4 140.2 144.4 141.2 C 145.4 142.2 145.9 143.6 145.9 145.4 C 145.9 146.9 145.7 148.1 145.3 148.9 C 144.8 149.7 144.2 150.4 143.3 150.9 C 142.5 151.3 141.6 151.6 140.6 151.6 C 139 151.6 137.7 151.1 136.7 150 C 135.7 149 135.2 147.5 135.2 145.6 Z M 137.2 145.6 C 137.2 147.1 137.5 148.2 138.2 148.9 C 138.8 149.6 139.6 150 140.6 150 C 141.6 150 142.4 149.6 143 148.9 C 143.6 148.2 143.9 147 143.9 145.5 C 143.9 144.1 143.6 143.1 143 142.3 C 142.3 141.6 141.5 141.2 140.6 141.2 C 139.6 141.2 138.8 141.6 138.2 142.3 C 137.5 143.1 137.2 144.1 137.2 145.6 Z M 148.2 151.3 L 148.2 139.9 L 149.9 139.9 C 149.9 139.9 149.92 141.63 149.9 141.6 C 150.4 140.8 150.8 140.3 151.1 140 C 151.5 139.8 151.9 139.6 152.4 139.6 C 153 139.6 153.7 139.9 154.4 140.3 C 154.4 140.3 153.7 142.1 153.7 142.1 C 153.2 141.8 152.8 141.6 152.3 141.6 C 151.9 141.6 151.5 141.8 151.2 142 C 150.8 142.3 150.6 142.6 150.4 143.1 C 150.2 143.8 150.1 144.5 150.1 145.3 C 150.11 145.34 150.1 151.3 150.1 151.3 L 148.2 151.3 Z M 155.2 152.3 C 155.2 152.3 157.1 152.5 157.1 152.5 C 157.1 153.1 157.3 153.5 157.7 153.8 C 158.2 154.2 158.8 154.3 159.7 154.3 C 160.6 154.3 161.3 154.2 161.7 153.8 C 162.2 153.4 162.6 152.9 162.7 152.3 C 162.8 151.9 162.9 151.1 162.9 149.8 C 162 150.8 161 151.3 159.7 151.3 C 158.1 151.3 156.9 150.7 156.1 149.6 C 155.2 148.5 154.8 147.1 154.8 145.5 C 154.8 144.5 155 143.4 155.4 142.5 C 155.8 141.6 156.3 140.9 157.1 140.4 C 157.8 139.9 158.7 139.6 159.7 139.6 C 161.1 139.6 162.2 140.2 163.1 141.3 C 163.06 141.28 163.1 139.9 163.1 139.9 L 164.8 139.9 C 164.8 139.9 164.84 149.76 164.8 149.8 C 164.8 151.5 164.7 152.8 164.3 153.5 C 163.9 154.3 163.4 154.9 162.6 155.3 C 161.8 155.7 160.8 155.9 159.7 155.9 C 158.3 155.9 157.2 155.6 156.4 155 C 155.5 154.4 155.1 153.5 155.2 152.3 Z M 156.8 145.4 C 156.8 146.9 157.1 148 157.7 148.7 C 158.3 149.4 159 149.7 159.9 149.7 C 160.8 149.7 161.5 149.4 162.1 148.7 C 162.7 148 163 146.9 163 145.5 C 163 144.1 162.7 143 162.1 142.3 C 161.5 141.6 160.7 141.2 159.9 141.2 C 159 141.2 158.3 141.6 157.7 142.3 C 157.1 143 156.8 144 156.8 145.4 Z M 175.6 151.3 C 175.4 150.9 175.3 150.4 175.2 149.9 C 174.5 150.5 173.8 150.9 173.1 151.2 C 172.5 151.4 171.8 151.6 171 151.6 C 169.8 151.6 168.8 151.3 168.1 150.6 C 167.4 150 167.1 149.3 167.1 148.3 C 167.1 147.7 167.2 147.2 167.5 146.8 C 167.7 146.3 168.1 145.9 168.5 145.7 C 168.9 145.4 169.4 145.2 169.9 145 C 170.3 144.9 170.8 144.8 171.6 144.7 C 173.2 144.5 174.3 144.3 175 144.1 C 175.1 143.8 175.1 143.6 175.1 143.6 C 175.1 142.8 174.9 142.2 174.5 141.9 C 174 141.5 173.3 141.2 172.3 141.2 C 171.4 141.2 170.7 141.4 170.3 141.7 C 169.9 142 169.5 142.6 169.3 143.4 C 169.3 143.4 167.4 143.2 167.4 143.2 C 167.6 142.3 167.9 141.7 168.3 141.2 C 168.7 140.7 169.2 140.3 170 140 C 170.7 139.8 171.6 139.6 172.6 139.6 C 173.6 139.6 174.3 139.8 175 140 C 175.6 140.2 176 140.5 176.3 140.9 C 176.6 141.2 176.8 141.6 176.9 142.2 C 177 142.5 177 143.1 177 143.9 C 177 143.9 177 146.5 177 146.5 C 177 148.3 177 149.5 177.1 149.9 C 177.2 150.4 177.4 150.9 177.6 151.3 C 177.61 151.31 175.6 151.3 175.6 151.3 C 175.6 151.3 175.59 151.31 175.6 151.3 Z M 175 145.6 C 174.3 145.9 173.3 146.1 171.9 146.3 C 171.1 146.4 170.5 146.6 170.2 146.7 C 169.9 146.8 169.6 147.1 169.4 147.3 C 169.3 147.6 169.2 147.9 169.2 148.2 C 169.2 148.8 169.4 149.2 169.8 149.5 C 170.1 149.9 170.7 150.1 171.5 150.1 C 172.2 150.1 172.9 149.9 173.5 149.6 C 174 149.2 174.5 148.8 174.7 148.2 C 174.9 147.8 175 147.1 175 146.3 C 175 146.3 175 145.6 175 145.6 Z M 180 151.3 L 180 139.9 L 181.7 139.9 C 181.7 139.9 181.74 141.52 181.7 141.5 C 182.6 140.3 183.8 139.6 185.4 139.6 C 186.1 139.6 186.7 139.8 187.3 140 C 187.8 140.3 188.3 140.6 188.6 141 C 188.8 141.4 189 141.9 189.2 142.4 C 189.2 142.8 189.3 143.4 189.3 144.3 C 189.27 144.29 189.3 151.3 189.3 151.3 L 187.3 151.3 C 187.3 151.3 187.33 144.37 187.3 144.4 C 187.3 143.6 187.3 143 187.1 142.6 C 187 142.2 186.7 141.9 186.3 141.7 C 185.9 141.4 185.5 141.3 185 141.3 C 184.1 141.3 183.4 141.6 182.8 142.1 C 182.2 142.6 181.9 143.6 181.9 145.1 C 181.93 145.08 181.9 151.3 181.9 151.3 L 180 151.3 Z M 192.2 137.8 L 192.2 135.6 L 194.2 135.6 L 194.2 137.8 L 192.2 137.8 Z M 192.2 151.3 L 192.2 139.9 L 194.2 139.9 L 194.2 151.3 L 192.2 151.3 Z M 196.3 147.9 C 196.3 147.9 198.3 147.6 198.3 147.6 C 198.4 148.4 198.7 149 199.2 149.4 C 199.6 149.8 200.3 150 201.2 150 C 202.1 150 202.8 149.8 203.2 149.4 C 203.6 149.1 203.8 148.6 203.8 148.2 C 203.8 147.7 203.6 147.4 203.3 147.1 C 203 147 202.3 146.7 201.3 146.5 C 199.9 146.1 198.9 145.8 198.3 145.5 C 197.8 145.3 197.4 144.9 197.1 144.5 C 196.8 144 196.7 143.5 196.7 142.9 C 196.7 142.4 196.8 142 197 141.5 C 197.2 141.1 197.6 140.7 198 140.4 C 198.3 140.2 198.7 140 199.2 139.9 C 199.7 139.7 200.3 139.6 200.9 139.6 C 201.8 139.6 202.5 139.8 203.2 140 C 203.9 140.3 204.4 140.6 204.7 141.1 C 205 141.5 205.3 142.1 205.4 142.8 C 205.4 142.8 203.5 143.1 203.5 143.1 C 203.4 142.5 203.2 142.1 202.8 141.7 C 202.3 141.4 201.8 141.2 201 141.2 C 200.1 141.2 199.5 141.4 199.1 141.7 C 198.7 142 198.5 142.3 198.5 142.7 C 198.5 143 198.6 143.2 198.8 143.4 C 198.9 143.6 199.2 143.8 199.5 143.9 C 199.7 144 200.3 144.1 201.2 144.4 C 202.6 144.8 203.5 145.1 204.1 145.3 C 204.6 145.5 205 145.9 205.4 146.3 C 205.7 146.7 205.8 147.3 205.8 148 C 205.8 148.6 205.6 149.2 205.3 149.8 C 204.9 150.3 204.3 150.8 203.6 151.1 C 202.9 151.4 202.1 151.6 201.2 151.6 C 199.7 151.6 198.6 151.3 197.8 150.6 C 197.1 150 196.6 149.1 196.3 147.9 Z M 215.9 151.3 C 215.7 150.9 215.6 150.4 215.6 149.9 C 214.8 150.5 214.2 150.9 213.5 151.2 C 212.8 151.4 212.1 151.6 211.4 151.6 C 210.1 151.6 209.1 151.3 208.5 150.6 C 207.8 150 207.5 149.3 207.5 148.3 C 207.5 147.7 207.6 147.2 207.8 146.8 C 208.1 146.3 208.4 145.9 208.8 145.7 C 209.3 145.4 209.7 145.2 210.2 145 C 210.6 144.9 211.2 144.8 212 144.7 C 213.5 144.5 214.7 144.3 215.4 144.1 C 215.4 143.8 215.4 143.6 215.4 143.6 C 215.4 142.8 215.2 142.2 214.9 141.9 C 214.4 141.5 213.6 141.2 212.7 141.2 C 211.8 141.2 211.1 141.4 210.6 141.7 C 210.2 142 209.9 142.6 209.7 143.4 C 209.7 143.4 207.8 143.2 207.8 143.2 C 208 142.3 208.3 141.7 208.6 141.2 C 209 140.7 209.6 140.3 210.4 140 C 211.1 139.8 212 139.6 212.9 139.6 C 213.9 139.6 214.7 139.8 215.3 140 C 215.9 140.2 216.4 140.5 216.7 140.9 C 216.9 141.2 217.1 141.6 217.3 142.2 C 217.3 142.5 217.4 143.1 217.4 143.9 C 217.4 143.9 217.4 146.5 217.4 146.5 C 217.4 148.3 217.4 149.5 217.5 149.9 C 217.6 150.4 217.7 150.9 218 151.3 C 217.97 151.31 215.9 151.3 215.9 151.3 C 215.9 151.3 215.95 151.31 215.9 151.3 Z M 215.4 145.6 C 214.7 145.9 213.6 146.1 212.2 146.3 C 211.4 146.4 210.9 146.6 210.6 146.7 C 210.2 146.8 210 147.1 209.8 147.3 C 209.6 147.6 209.5 147.9 209.5 148.2 C 209.5 148.8 209.7 149.2 210.1 149.5 C 210.5 149.9 211.1 150.1 211.8 150.1 C 212.6 150.1 213.2 149.9 213.8 149.6 C 214.4 149.2 214.8 148.8 215.1 148.2 C 215.3 147.8 215.4 147.1 215.4 146.3 C 215.4 146.3 215.4 145.6 215.4 145.6 Z M 223.7 149.7 C 223.9 149.7 224.2 149.6 224.6 149.6 C 224.6 149.6 224.9 151.3 224.9 151.3 C 224.3 151.4 223.8 151.5 223.4 151.5 C 222.7 151.5 222.1 151.3 221.8 151.1 C 221.4 150.9 221.1 150.6 220.9 150.3 C 220.8 149.9 220.7 149.1 220.7 148 C 220.71 147.97 220.7 141.4 220.7 141.4 L 219.3 141.4 L 219.3 139.9 L 220.7 139.9 L 220.7 137.1 L 222.6 135.9 L 222.6 139.9 L 224.6 139.9 L 224.6 141.4 L 222.6 141.4 C 222.6 141.4 222.63 148.07 222.6 148.1 C 222.6 148.6 222.7 149 222.7 149.1 C 222.8 149.3 222.9 149.4 223.1 149.5 C 223.2 149.6 223.4 149.7 223.7 149.7 C 223.7 149.7 223.7 149.7 223.7 149.7 Z M 226.5 137.8 L 226.5 135.6 L 228.4 135.6 L 228.4 137.8 L 226.5 137.8 Z M 226.5 151.3 L 226.5 139.9 L 228.4 139.9 L 228.4 151.3 L 226.5 151.3 Z M 230.6 145.6 C 230.6 143.5 231.2 141.9 232.4 140.9 C 233.4 140.1 234.6 139.6 236 139.6 C 237.6 139.6 238.8 140.2 239.8 141.2 C 240.8 142.2 241.3 143.6 241.3 145.4 C 241.3 146.9 241.1 148.1 240.7 148.9 C 240.2 149.7 239.6 150.4 238.7 150.9 C 237.9 151.3 237 151.6 236 151.6 C 234.4 151.6 233.1 151.1 232.1 150 C 231.1 149 230.6 147.5 230.6 145.6 Z M 232.6 145.6 C 232.6 147.1 232.9 148.2 233.6 148.9 C 234.2 149.6 235 150 236 150 C 236.9 150 237.7 149.6 238.4 148.9 C 239 148.2 239.3 147 239.3 145.5 C 239.3 144.1 239 143.1 238.4 142.3 C 237.7 141.6 236.9 141.2 236 141.2 C 235 141.2 234.2 141.6 233.6 142.3 C 232.9 143.1 232.6 144.1 232.6 145.6 Z M 243.6 151.3 L 243.6 139.9 L 245.3 139.9 C 245.3 139.9 245.33 141.52 245.3 141.5 C 246.2 140.3 247.4 139.6 249 139.6 C 249.6 139.6 250.3 139.8 250.9 140 C 251.4 140.3 251.9 140.6 252.2 141 C 252.4 141.4 252.6 141.9 252.8 142.4 C 252.8 142.8 252.9 143.4 252.9 144.3 C 252.86 144.29 252.9 151.3 252.9 151.3 L 250.9 151.3 C 250.9 151.3 250.93 144.37 250.9 144.4 C 250.9 143.6 250.9 143 250.7 142.6 C 250.6 142.2 250.3 141.9 249.9 141.7 C 249.5 141.4 249.1 141.3 248.6 141.3 C 247.7 141.3 247 141.6 246.4 142.1 C 245.8 142.6 245.5 143.6 245.5 145.1 C 245.52 145.08 245.5 151.3 245.5 151.3 L 243.6 151.3 Z M 256.4 151.3 L 256.4 149.1 L 258.6 149.1 L 258.6 151.3 L 256.4 151.3 Z " stroke="none" fill="#fff"/>  </g>  <g id="Polygon62067">    <path d="M 51.6 121.2 C 51.6 121.2 53.6 121.5 53.6 121.5 C 53.3 122.6 52.7 123.6 51.9 124.2 C 51 124.8 50 125.2 48.6 125.2 C 47 125.2 45.6 124.7 44.7 123.6 C 43.7 122.6 43.2 121.2 43.2 119.3 C 43.2 117.4 43.7 115.9 44.7 114.8 C 45.7 113.8 46.9 113.2 48.5 113.2 C 50 113.2 51.3 113.8 52.3 114.8 C 53.2 115.8 53.7 117.3 53.7 119.2 C 53.7 119.3 53.7 119.5 53.7 119.7 C 53.7 119.7 45.2 119.7 45.2 119.7 C 45.3 121 45.6 121.9 46.3 122.6 C 46.9 123.2 47.7 123.6 48.6 123.6 C 49.3 123.6 50 123.4 50.5 123 C 51 122.6 51.4 122.1 51.6 121.2 Z M 45.3 118.1 C 45.3 118.1 51.7 118.1 51.7 118.1 C 51.6 117.1 51.3 116.4 50.9 115.9 C 50.3 115.2 49.5 114.8 48.5 114.8 C 47.7 114.8 46.9 115.1 46.3 115.7 C 45.7 116.3 45.4 117.1 45.3 118.1 Z M 56.5 124.9 L 56.5 115 L 54.8 115 L 54.8 113.5 L 56.5 113.5 C 56.5 113.5 56.54 112.29 56.5 112.3 C 56.5 111.5 56.6 111 56.7 110.6 C 56.9 110.1 57.3 109.7 57.7 109.4 C 58.2 109 58.8 108.9 59.7 108.9 C 60.2 108.9 60.8 109 61.5 109.1 C 61.5 109.1 61.2 110.8 61.2 110.8 C 60.8 110.7 60.4 110.7 60.1 110.7 C 59.5 110.7 59.1 110.8 58.8 111 C 58.6 111.3 58.5 111.8 58.5 112.4 C 58.46 112.45 58.5 113.5 58.5 113.5 L 60.7 113.5 L 60.7 115 L 58.5 115 L 58.5 124.9 L 56.5 124.9 Z M 62.3 124.9 L 62.3 115 L 60.5 115 L 60.5 113.5 L 62.3 113.5 C 62.3 113.5 62.25 112.29 62.3 112.3 C 62.3 111.5 62.3 111 62.5 110.6 C 62.6 110.1 63 109.7 63.4 109.4 C 63.9 109 64.6 108.9 65.4 108.9 C 66 108.9 66.6 109 67.2 109.1 C 67.2 109.1 66.9 110.8 66.9 110.8 C 66.5 110.7 66.1 110.7 65.8 110.7 C 65.2 110.7 64.8 110.8 64.5 111 C 64.3 111.3 64.2 111.8 64.2 112.4 C 64.17 112.45 64.2 113.5 64.2 113.5 L 66.4 113.5 L 66.4 115 L 64.2 115 L 64.2 124.9 L 62.3 124.9 Z M 75.7 121.2 C 75.7 121.2 77.7 121.5 77.7 121.5 C 77.4 122.6 76.8 123.6 76 124.2 C 75.1 124.8 74 125.2 72.7 125.2 C 71 125.2 69.7 124.7 68.7 123.6 C 67.7 122.6 67.3 121.2 67.3 119.3 C 67.3 117.4 67.8 115.9 68.7 114.8 C 69.7 113.8 71 113.2 72.6 113.2 C 74.1 113.2 75.4 113.8 76.3 114.8 C 77.3 115.8 77.8 117.3 77.8 119.2 C 77.8 119.3 77.8 119.5 77.8 119.7 C 77.8 119.7 69.3 119.7 69.3 119.7 C 69.3 121 69.7 121.9 70.3 122.6 C 71 123.2 71.8 123.6 72.7 123.6 C 73.4 123.6 74 123.4 74.5 123 C 75 122.6 75.4 122.1 75.7 121.2 Z M 69.4 118.1 C 69.4 118.1 75.7 118.1 75.7 118.1 C 75.6 117.1 75.4 116.4 75 115.9 C 74.4 115.2 73.6 114.8 72.6 114.8 C 71.7 114.8 71 115.1 70.4 115.7 C 69.8 116.3 69.4 117.1 69.4 118.1 Z M 87.6 120.7 C 87.6 120.7 89.5 121 89.5 121 C 89.3 122.3 88.7 123.3 87.9 124.1 C 87 124.8 86 125.2 84.7 125.2 C 83.2 125.2 81.9 124.7 81 123.6 C 80 122.6 79.5 121.2 79.5 119.2 C 79.5 118 79.7 116.9 80.2 116 C 80.6 115.1 81.2 114.4 82 113.9 C 82.9 113.5 83.8 113.2 84.7 113.2 C 86 113.2 87 113.6 87.8 114.2 C 88.6 114.8 89.1 115.7 89.3 116.9 C 89.3 116.9 87.4 117.1 87.4 117.1 C 87.2 116.4 86.9 115.8 86.5 115.4 C 86 115 85.5 114.8 84.8 114.8 C 83.8 114.8 83.1 115.2 82.4 115.9 C 81.8 116.6 81.5 117.7 81.5 119.2 C 81.5 120.7 81.8 121.8 82.4 122.5 C 83 123.2 83.8 123.6 84.7 123.6 C 85.5 123.6 86.1 123.3 86.6 122.9 C 87.1 122.4 87.4 121.7 87.6 120.7 Z M 94.5 123.3 C 94.7 123.3 95 123.2 95.4 123.2 C 95.4 123.2 95.6 124.9 95.6 124.9 C 95.1 125 94.6 125.1 94.2 125.1 C 93.5 125.1 92.9 124.9 92.5 124.7 C 92.2 124.5 91.9 124.2 91.7 123.9 C 91.6 123.5 91.5 122.7 91.5 121.6 C 91.49 121.57 91.5 115 91.5 115 L 90.1 115 L 90.1 113.5 L 91.5 113.5 L 91.5 110.7 L 93.4 109.5 L 93.4 113.5 L 95.4 113.5 L 95.4 115 L 93.4 115 C 93.4 115 93.41 121.67 93.4 121.7 C 93.4 122.2 93.4 122.6 93.5 122.7 C 93.6 122.9 93.7 123 93.8 123.1 C 94 123.2 94.2 123.3 94.5 123.3 C 94.5 123.3 94.5 123.3 94.5 123.3 Z M 97.3 111.4 L 97.3 109.2 L 99.2 109.2 L 99.2 111.4 L 97.3 111.4 Z M 97.3 124.9 L 97.3 113.5 L 99.2 113.5 L 99.2 124.9 L 97.3 124.9 Z M 105.3 124.9 L 101 113.5 L 103 113.5 C 103 113.5 105.46 120.33 105.5 120.3 C 105.7 121.1 106 121.8 106.2 122.6 C 106.4 122 106.6 121.3 106.9 120.5 C 106.91 120.46 109.4 113.5 109.4 113.5 L 111.4 113.5 L 107.1 124.9 L 105.3 124.9 Z M 120.9 121.2 C 120.9 121.2 122.9 121.5 122.9 121.5 C 122.6 122.6 122 123.6 121.2 124.2 C 120.3 124.8 119.3 125.2 117.9 125.2 C 116.3 125.2 114.9 124.7 114 123.6 C 113 122.6 112.5 121.2 112.5 119.3 C 112.5 117.4 113 115.9 114 114.8 C 115 113.8 116.2 113.2 117.8 113.2 C 119.3 113.2 120.6 113.8 121.6 114.8 C 122.5 115.8 123 117.3 123 119.2 C 123 119.3 123 119.5 123 119.7 C 123 119.7 114.5 119.7 114.5 119.7 C 114.6 121 114.9 121.9 115.6 122.6 C 116.2 123.2 117 123.6 117.9 123.6 C 118.6 123.6 119.3 123.4 119.8 123 C 120.3 122.6 120.7 122.1 120.9 121.2 Z M 114.6 118.1 C 114.6 118.1 121 118.1 121 118.1 C 120.9 117.1 120.6 116.4 120.2 115.9 C 119.6 115.2 118.8 114.8 117.8 114.8 C 117 114.8 116.2 115.1 115.6 115.7 C 115 116.3 114.7 117.1 114.6 118.1 Z M 139.3 124.9 C 139.1 124.5 139 124 138.9 123.5 C 138.2 124.1 137.5 124.5 136.9 124.8 C 136.2 125 135.5 125.2 134.7 125.2 C 133.5 125.2 132.5 124.9 131.8 124.2 C 131.2 123.6 130.8 122.9 130.8 121.9 C 130.8 121.3 131 120.8 131.2 120.4 C 131.5 119.9 131.8 119.5 132.2 119.3 C 132.6 119 133.1 118.8 133.6 118.6 C 134 118.5 134.6 118.4 135.3 118.3 C 136.9 118.1 138 117.9 138.8 117.7 C 138.8 117.4 138.8 117.2 138.8 117.2 C 138.8 116.4 138.6 115.8 138.2 115.5 C 137.7 115.1 137 114.8 136 114.8 C 135.1 114.8 134.4 115 134 115.3 C 133.6 115.6 133.3 116.2 133.1 117 C 133.1 117 131.2 116.8 131.2 116.8 C 131.3 115.9 131.6 115.3 132 114.8 C 132.4 114.3 133 113.9 133.7 113.6 C 134.5 113.4 135.3 113.2 136.3 113.2 C 137.3 113.2 138.1 113.4 138.7 113.6 C 139.3 113.8 139.7 114.1 140 114.5 C 140.3 114.8 140.5 115.2 140.6 115.8 C 140.7 116.1 140.7 116.7 140.7 117.5 C 140.7 117.5 140.7 120.1 140.7 120.1 C 140.7 121.9 140.8 123.1 140.8 123.5 C 140.9 124 141.1 124.5 141.3 124.9 C 141.33 124.91 139.3 124.9 139.3 124.9 C 139.3 124.9 139.31 124.91 139.3 124.9 Z M 138.8 119.2 C 138.1 119.5 137 119.7 135.6 119.9 C 134.8 120 134.3 120.2 133.9 120.3 C 133.6 120.4 133.3 120.7 133.2 120.9 C 133 121.2 132.9 121.5 132.9 121.8 C 132.9 122.4 133.1 122.8 133.5 123.1 C 133.9 123.5 134.4 123.7 135.2 123.7 C 135.9 123.7 136.6 123.5 137.2 123.2 C 137.8 122.8 138.2 122.4 138.5 121.8 C 138.7 121.4 138.8 120.7 138.8 119.9 C 138.8 119.9 138.8 119.2 138.8 119.2 Z M 143.7 124.9 L 143.7 113.5 L 145.5 113.5 C 145.5 113.5 145.46 115.12 145.5 115.1 C 146.3 113.9 147.5 113.2 149.1 113.2 C 149.8 113.2 150.4 113.4 151 113.6 C 151.6 113.9 152 114.2 152.3 114.6 C 152.6 115 152.8 115.5 152.9 116 C 153 116.4 153 117 153 117.9 C 152.99 117.89 153 124.9 153 124.9 L 151.1 124.9 C 151.1 124.9 151.06 117.97 151.1 118 C 151.1 117.2 151 116.6 150.8 116.2 C 150.7 115.8 150.4 115.5 150 115.3 C 149.6 115 149.2 114.9 148.7 114.9 C 147.9 114.9 147.1 115.2 146.5 115.7 C 146 116.2 145.7 117.2 145.7 118.7 C 145.65 118.68 145.7 124.9 145.7 124.9 L 143.7 124.9 Z M 163.4 124.9 C 163.4 124.9 163.36 123.47 163.4 123.5 C 162.6 124.6 161.6 125.2 160.2 125.2 C 159.3 125.2 158.4 124.9 157.7 124.4 C 156.9 123.9 156.3 123.2 155.9 122.3 C 155.5 121.4 155.3 120.4 155.3 119.2 C 155.3 118.1 155.4 117 155.8 116.1 C 156.2 115.2 156.8 114.5 157.5 114 C 158.3 113.5 159.1 113.2 160.1 113.2 C 160.8 113.2 161.4 113.4 161.9 113.7 C 162.5 114 162.9 114.3 163.2 114.8 C 163.23 114.81 163.2 109.2 163.2 109.2 L 165.1 109.2 L 165.1 124.9 L 163.4 124.9 Z M 157.2 119.2 C 157.2 120.7 157.6 121.8 158.2 122.5 C 158.8 123.2 159.5 123.6 160.3 123.6 C 161.2 123.6 161.9 123.2 162.5 122.5 C 163.1 121.8 163.4 120.8 163.4 119.4 C 163.4 117.8 163.1 116.7 162.5 115.9 C 161.9 115.2 161.1 114.8 160.3 114.8 C 159.4 114.8 158.7 115.2 158.1 115.9 C 157.5 116.6 157.2 117.7 157.2 119.2 Z M 174.3 124.9 L 174.3 113.5 L 176 113.5 C 176 113.5 176.02 115.23 176 115.2 C 176.5 114.4 176.9 113.9 177.3 113.6 C 177.6 113.4 178 113.2 178.5 113.2 C 179.1 113.2 179.8 113.5 180.5 113.9 C 180.5 113.9 179.8 115.7 179.8 115.7 C 179.3 115.4 178.9 115.2 178.4 115.2 C 178 115.2 177.6 115.4 177.3 115.6 C 176.9 115.9 176.7 116.2 176.5 116.7 C 176.3 117.4 176.2 118.1 176.2 118.9 C 176.21 118.94 176.2 124.9 176.2 124.9 L 174.3 124.9 Z M 189.4 121.2 C 189.4 121.2 191.4 121.5 191.4 121.5 C 191.1 122.6 190.5 123.6 189.7 124.2 C 188.8 124.8 187.7 125.2 186.4 125.2 C 184.8 125.2 183.4 124.7 182.5 123.6 C 181.5 122.6 181 121.2 181 119.3 C 181 117.4 181.5 115.9 182.5 114.8 C 183.5 113.8 184.7 113.2 186.3 113.2 C 187.8 113.2 189.1 113.8 190.1 114.8 C 191 115.8 191.5 117.3 191.5 119.2 C 191.5 119.3 191.5 119.5 191.5 119.7 C 191.5 119.7 183 119.7 183 119.7 C 183.1 121 183.4 121.9 184 122.6 C 184.7 123.2 185.5 123.6 186.4 123.6 C 187.1 123.6 187.7 123.4 188.2 123 C 188.7 122.6 189.1 122.1 189.4 121.2 Z M 183.1 118.1 C 183.1 118.1 189.5 118.1 189.5 118.1 C 189.4 117.1 189.1 116.4 188.7 115.9 C 188.1 115.2 187.3 114.8 186.3 114.8 C 185.4 114.8 184.7 115.1 184.1 115.7 C 183.5 116.3 183.2 117.1 183.1 118.1 Z M 193.1 121.5 C 193.1 121.5 195 121.2 195 121.2 C 195.1 122 195.4 122.6 195.9 123 C 196.4 123.4 197.1 123.6 198 123.6 C 198.8 123.6 199.5 123.4 199.9 123 C 200.4 122.7 200.6 122.2 200.6 121.8 C 200.6 121.3 200.4 121 200 120.7 C 199.7 120.6 199.1 120.3 198 120.1 C 196.6 119.7 195.6 119.4 195.1 119.1 C 194.5 118.9 194.1 118.5 193.8 118.1 C 193.6 117.6 193.4 117.1 193.4 116.5 C 193.4 116 193.5 115.6 193.8 115.1 C 194 114.7 194.3 114.3 194.7 114 C 195 113.8 195.4 113.6 195.9 113.5 C 196.5 113.3 197 113.2 197.6 113.2 C 198.5 113.2 199.3 113.4 200 113.6 C 200.6 113.9 201.1 114.2 201.5 114.7 C 201.8 115.1 202 115.7 202.1 116.4 C 202.1 116.4 200.2 116.7 200.2 116.7 C 200.2 116.1 199.9 115.7 199.5 115.3 C 199.1 115 198.5 114.8 197.8 114.8 C 196.9 114.8 196.2 115 195.9 115.3 C 195.5 115.6 195.3 115.9 195.3 116.3 C 195.3 116.6 195.4 116.8 195.5 117 C 195.7 117.2 195.9 117.4 196.3 117.5 C 196.5 117.6 197 117.7 198 118 C 199.3 118.4 200.3 118.7 200.8 118.9 C 201.4 119.1 201.8 119.5 202.1 119.9 C 202.4 120.3 202.6 120.9 202.6 121.6 C 202.6 122.2 202.4 122.8 202 123.4 C 201.6 123.9 201.1 124.4 200.4 124.7 C 199.7 125 198.9 125.2 198 125.2 C 196.5 125.2 195.4 124.9 194.6 124.2 C 193.8 123.6 193.3 122.7 193.1 121.5 Z M 204.1 119.2 C 204.1 117.1 204.7 115.5 205.9 114.5 C 206.9 113.7 208.1 113.2 209.5 113.2 C 211.1 113.2 212.3 113.8 213.3 114.8 C 214.3 115.8 214.8 117.2 214.8 119 C 214.8 120.5 214.6 121.7 214.2 122.5 C 213.7 123.3 213.1 124 212.2 124.5 C 211.4 124.9 210.5 125.2 209.5 125.2 C 207.9 125.2 206.6 124.7 205.6 123.6 C 204.6 122.6 204.1 121.1 204.1 119.2 Z M 206.1 119.2 C 206.1 120.7 206.4 121.8 207.1 122.5 C 207.7 123.2 208.5 123.6 209.5 123.6 C 210.5 123.6 211.3 123.2 211.9 122.5 C 212.5 121.8 212.8 120.6 212.8 119.1 C 212.8 117.7 212.5 116.7 211.9 115.9 C 211.2 115.2 210.4 114.8 209.5 114.8 C 208.5 114.8 207.7 115.2 207.1 115.9 C 206.4 116.7 206.1 117.7 206.1 119.2 Z M 217.1 124.9 L 217.1 113.5 L 218.8 113.5 C 218.8 113.5 218.84 115.12 218.8 115.1 C 219.7 113.9 220.9 113.2 222.5 113.2 C 223.2 113.2 223.8 113.4 224.4 113.6 C 224.9 113.9 225.4 114.2 225.7 114.6 C 225.9 115 226.1 115.5 226.3 116 C 226.3 116.4 226.4 117 226.4 117.9 C 226.37 117.89 226.4 124.9 226.4 124.9 L 224.4 124.9 C 224.4 124.9 224.44 117.97 224.4 118 C 224.4 117.2 224.4 116.6 224.2 116.2 C 224.1 115.8 223.8 115.5 223.4 115.3 C 223 115 222.6 114.9 222.1 114.9 C 221.2 114.9 220.5 115.2 219.9 115.7 C 219.3 116.2 219 117.2 219 118.7 C 219.03 118.68 219 124.9 219 124.9 L 217.1 124.9 Z M 237.2 124.9 C 237 124.5 236.8 124 236.8 123.5 C 236.1 124.1 235.4 124.5 234.7 124.8 C 234 125 233.3 125.2 232.6 125.2 C 231.3 125.2 230.4 124.9 229.7 124.2 C 229 123.6 228.7 122.9 228.7 121.9 C 228.7 121.3 228.8 120.8 229.1 120.4 C 229.3 119.9 229.6 119.5 230.1 119.3 C 230.5 119 230.9 118.8 231.5 118.6 C 231.8 118.5 232.4 118.4 233.2 118.3 C 234.7 118.1 235.9 117.9 236.6 117.7 C 236.6 117.4 236.6 117.2 236.6 117.2 C 236.6 116.4 236.4 115.8 236.1 115.5 C 235.6 115.1 234.9 114.8 233.9 114.8 C 233 114.8 232.3 115 231.9 115.3 C 231.4 115.6 231.1 116.2 230.9 117 C 230.9 117 229 116.8 229 116.8 C 229.2 115.9 229.5 115.3 229.9 114.8 C 230.3 114.3 230.8 113.9 231.6 113.6 C 232.3 113.4 233.2 113.2 234.2 113.2 C 235.1 113.2 235.9 113.4 236.5 113.6 C 237.1 113.8 237.6 114.1 237.9 114.5 C 238.2 114.8 238.4 115.2 238.5 115.8 C 238.5 116.1 238.6 116.7 238.6 117.5 C 238.6 117.5 238.6 120.1 238.6 120.1 C 238.6 121.9 238.6 123.1 238.7 123.5 C 238.8 124 238.9 124.5 239.2 124.9 C 239.19 124.91 237.2 124.9 237.2 124.9 C 237.2 124.9 237.17 124.91 237.2 124.9 Z M 236.6 119.2 C 235.9 119.5 234.9 119.7 233.5 119.9 C 232.7 120 232.1 120.2 231.8 120.3 C 231.4 120.4 231.2 120.7 231 120.9 C 230.8 121.2 230.7 121.5 230.7 121.8 C 230.7 122.4 230.9 122.8 231.3 123.1 C 231.7 123.5 232.3 123.7 233 123.7 C 233.8 123.7 234.4 123.5 235 123.2 C 235.6 122.8 236 122.4 236.3 121.8 C 236.5 121.4 236.6 120.7 236.6 119.9 C 236.6 119.9 236.6 119.2 236.6 119.2 Z M 244.9 123.3 C 245.2 123.3 245.4 123.2 245.8 123.2 C 245.8 123.2 246.1 124.9 246.1 124.9 C 245.5 125 245 125.1 244.6 125.1 C 243.9 125.1 243.4 124.9 243 124.7 C 242.6 124.5 242.3 124.2 242.2 123.9 C 242 123.5 241.9 122.7 241.9 121.6 C 241.92 121.57 241.9 115 241.9 115 L 240.5 115 L 240.5 113.5 L 241.9 113.5 L 241.9 110.7 L 243.8 109.5 L 243.8 113.5 L 245.8 113.5 L 245.8 115 L 243.8 115 C 243.8 115 243.85 121.67 243.8 121.7 C 243.8 122.2 243.9 122.6 243.9 122.7 C 244 122.9 244.1 123 244.3 123.1 C 244.4 123.2 244.7 123.3 244.9 123.3 C 244.9 123.3 244.9 123.3 244.9 123.3 Z M 255.5 121.2 C 255.5 121.2 257.5 121.5 257.5 121.5 C 257.2 122.6 256.6 123.6 255.7 124.2 C 254.9 124.8 253.8 125.2 252.5 125.2 C 250.8 125.2 249.5 124.7 248.5 123.6 C 247.5 122.6 247 121.2 247 119.3 C 247 117.4 247.5 115.9 248.5 114.8 C 249.5 113.8 250.8 113.2 252.4 113.2 C 253.9 113.2 255.1 113.8 256.1 114.8 C 257.1 115.8 257.6 117.3 257.6 119.2 C 257.6 119.3 257.6 119.5 257.5 119.7 C 257.5 119.7 249 119.7 249 119.7 C 249.1 121 249.5 121.9 250.1 122.6 C 250.7 123.2 251.5 123.6 252.5 123.6 C 253.2 123.6 253.8 123.4 254.3 123 C 254.8 122.6 255.2 122.1 255.5 121.2 Z M 249.1 118.1 C 249.1 118.1 255.5 118.1 255.5 118.1 C 255.4 117.1 255.2 116.4 254.8 115.9 C 254.2 115.2 253.4 114.8 252.4 114.8 C 251.5 114.8 250.8 115.1 250.1 115.7 C 249.5 116.3 249.2 117.1 249.1 118.1 Z M 268.1 124.9 L 264.6 113.5 L 266.6 113.5 L 268.5 120.1 C 268.5 120.1 269.13 122.53 269.1 122.5 C 269.2 122.4 269.4 121.6 269.7 120.2 C 269.73 120.18 271.5 113.5 271.5 113.5 L 273.5 113.5 L 275.2 120.1 L 275.8 122.3 L 276.5 120.1 L 278.4 113.5 L 280.3 113.5 L 276.7 124.9 L 274.7 124.9 L 272.9 118.1 L 272.5 116.1 L 270.2 124.9 L 268.1 124.9 Z M 281.9 111.4 L 281.9 109.2 L 283.9 109.2 L 283.9 111.4 L 281.9 111.4 Z M 281.9 124.9 L 281.9 113.5 L 283.9 113.5 L 283.9 124.9 L 281.9 124.9 Z M 290.2 123.3 C 290.4 123.3 290.7 123.2 291 123.2 C 291 123.2 291.3 124.9 291.3 124.9 C 290.8 125 290.3 125.1 289.8 125.1 C 289.1 125.1 288.6 124.9 288.2 124.7 C 287.8 124.5 287.6 124.2 287.4 123.9 C 287.2 123.5 287.2 122.7 287.2 121.6 C 287.16 121.57 287.2 115 287.2 115 L 285.7 115 L 285.7 113.5 L 287.2 113.5 L 287.2 110.7 L 289.1 109.5 L 289.1 113.5 L 291 113.5 L 291 115 L 289.1 115 C 289.1 115 289.08 121.67 289.1 121.7 C 289.1 122.2 289.1 122.6 289.2 122.7 C 289.3 122.9 289.4 123 289.5 123.1 C 289.7 123.2 289.9 123.3 290.2 123.3 C 290.2 123.3 290.2 123.3 290.2 123.3 Z M 292.9 124.9 L 292.9 109.2 L 294.9 109.2 C 294.9 109.2 294.85 114.81 294.9 114.8 C 295.8 113.8 296.9 113.2 298.3 113.2 C 299.1 113.2 299.8 113.4 300.5 113.7 C 301.1 114.1 301.5 114.5 301.8 115.1 C 302.1 115.7 302.2 116.6 302.2 117.7 C 302.21 117.68 302.2 124.9 302.2 124.9 L 300.3 124.9 C 300.3 124.9 300.28 117.68 300.3 117.7 C 300.3 116.7 300.1 116 299.6 115.6 C 299.2 115.1 298.6 114.9 297.9 114.9 C 297.3 114.9 296.8 115.1 296.3 115.4 C 295.7 115.7 295.4 116.1 295.2 116.6 C 295 117.1 294.9 117.8 294.9 118.7 C 294.85 118.67 294.9 124.9 294.9 124.9 L 292.9 124.9 Z M 312.4 129.5 C 312.1 129.5 311.6 129.5 311.2 129.3 C 311.2 129.3 311 127.5 311 127.5 C 311.4 127.6 311.8 127.7 312.1 127.7 C 312.5 127.7 312.8 127.6 313.1 127.4 C 313.4 127.3 313.6 127.1 313.7 126.8 C 313.9 126.6 314.1 126.2 314.3 125.4 C 314.4 125.3 314.4 125.1 314.5 124.9 C 314.5 124.93 310.2 113.5 310.2 113.5 L 312.3 113.5 C 312.3 113.5 314.63 120.11 314.6 120.1 C 314.9 120.9 315.2 121.8 315.5 122.7 C 315.7 121.9 315.9 121 316.2 120.1 C 316.25 120.15 318.7 113.5 318.7 113.5 L 320.6 113.5 C 320.6 113.5 316.28 125.1 316.3 125.1 C 315.8 126.4 315.5 127.2 315.2 127.7 C 314.9 128.3 314.5 128.8 314 129.1 C 313.6 129.4 313 129.5 312.4 129.5 C 312.4 129.5 312.4 129.5 312.4 129.5 Z M 321.5 119.2 C 321.5 117.1 322.1 115.5 323.3 114.5 C 324.3 113.7 325.5 113.2 326.9 113.2 C 328.5 113.2 329.7 113.8 330.7 114.8 C 331.7 115.8 332.2 117.2 332.2 119 C 332.2 120.5 332 121.7 331.6 122.5 C 331.1 123.3 330.5 124 329.7 124.5 C 328.8 124.9 327.9 125.2 326.9 125.2 C 325.3 125.2 324 124.7 323 123.6 C 322 122.6 321.5 121.1 321.5 119.2 Z M 323.5 119.2 C 323.5 120.7 323.9 121.8 324.5 122.5 C 325.1 123.2 325.9 123.6 326.9 123.6 C 327.9 123.6 328.7 123.2 329.3 122.5 C 329.9 121.8 330.2 120.6 330.2 119.1 C 330.2 117.7 329.9 116.7 329.3 115.9 C 328.6 115.2 327.8 114.8 326.9 114.8 C 325.9 114.8 325.1 115.2 324.5 115.9 C 323.9 116.7 323.5 117.7 323.5 119.2 Z M 342 124.9 C 342 124.9 341.98 123.23 342 123.2 C 341.1 124.5 339.9 125.2 338.4 125.2 C 337.7 125.2 337.1 125 336.5 124.8 C 335.9 124.5 335.5 124.2 335.2 123.8 C 334.9 123.4 334.7 122.9 334.6 122.4 C 334.5 122 334.5 121.4 334.5 120.6 C 334.46 120.57 334.5 113.5 334.5 113.5 L 336.4 113.5 C 336.4 113.5 336.39 119.83 336.4 119.8 C 336.4 120.8 336.4 121.5 336.5 121.9 C 336.6 122.4 336.9 122.8 337.3 123.1 C 337.7 123.4 338.2 123.5 338.7 123.5 C 339.3 123.5 339.9 123.4 340.4 123.1 C 340.9 122.8 341.2 122.4 341.5 121.8 C 341.7 121.3 341.8 120.6 341.8 119.6 C 341.77 119.61 341.8 113.5 341.8 113.5 L 343.7 113.5 L 343.7 124.9 L 342 124.9 Z M 346.7 124.9 L 346.7 113.5 L 348.5 113.5 C 348.5 113.5 348.45 115.23 348.5 115.2 C 348.9 114.4 349.3 113.9 349.7 113.6 C 350.1 113.4 350.5 113.2 350.9 113.2 C 351.6 113.2 352.2 113.5 352.9 113.9 C 352.9 113.9 352.2 115.7 352.2 115.7 C 351.8 115.4 351.3 115.2 350.8 115.2 C 350.4 115.2 350 115.4 349.7 115.6 C 349.4 115.9 349.1 116.2 349 116.7 C 348.8 117.4 348.6 118.1 348.6 118.9 C 348.65 118.94 348.6 124.9 348.6 124.9 L 346.7 124.9 Z " stroke="none" fill="#fff"/>  </g>  <g id="Polygon62066">    <path d="M 35.7 102.9 L 35.7 87.1 L 37.5 87.1 C 37.5 87.1 37.46 88.58 37.5 88.6 C 37.9 88 38.3 87.6 38.9 87.3 C 39.4 87 40 86.8 40.8 86.8 C 41.7 86.8 42.6 87.1 43.3 87.6 C 44.1 88.1 44.7 88.8 45 89.7 C 45.4 90.6 45.6 91.6 45.6 92.7 C 45.6 93.9 45.4 94.9 45 95.9 C 44.6 96.8 43.9 97.5 43.1 98 C 42.3 98.5 41.5 98.8 40.6 98.8 C 40 98.8 39.4 98.6 38.9 98.4 C 38.4 98.1 38 97.7 37.6 97.3 C 37.63 97.33 37.6 102.9 37.6 102.9 L 35.7 102.9 Z M 37.4 92.9 C 37.4 94.3 37.7 95.4 38.3 96.1 C 38.9 96.8 39.7 97.2 40.5 97.2 C 41.4 97.2 42.1 96.8 42.7 96.1 C 43.3 95.4 43.6 94.2 43.6 92.7 C 43.6 91.3 43.3 90.2 42.7 89.4 C 42.1 88.7 41.4 88.4 40.6 88.4 C 39.8 88.4 39 88.7 38.4 89.5 C 37.8 90.3 37.4 91.4 37.4 92.9 Z M 47.9 98.5 L 47.9 87.1 L 49.6 87.1 C 49.6 87.1 49.65 88.83 49.6 88.8 C 50.1 88 50.5 87.5 50.9 87.2 C 51.3 87 51.7 86.8 52.1 86.8 C 52.8 86.8 53.4 87.1 54.1 87.5 C 54.1 87.5 53.4 89.3 53.4 89.3 C 53 89 52.5 88.8 52 88.8 C 51.6 88.8 51.2 89 50.9 89.2 C 50.5 89.5 50.3 89.8 50.2 90.3 C 50 91 49.8 91.7 49.8 92.5 C 49.84 92.54 49.8 98.5 49.8 98.5 L 47.9 98.5 Z M 54.5 92.8 C 54.5 90.7 55.1 89.1 56.3 88.1 C 57.3 87.3 58.5 86.8 59.9 86.8 C 61.5 86.8 62.7 87.4 63.7 88.4 C 64.7 89.4 65.2 90.8 65.2 92.6 C 65.2 94.1 65 95.3 64.6 96.1 C 64.1 96.9 63.5 97.6 62.6 98.1 C 61.8 98.5 60.9 98.8 59.9 98.8 C 58.3 98.8 57 98.3 56 97.2 C 55 96.2 54.5 94.7 54.5 92.8 Z M 56.5 92.8 C 56.5 94.3 56.8 95.4 57.5 96.1 C 58.1 96.8 58.9 97.2 59.9 97.2 C 60.8 97.2 61.6 96.8 62.3 96.1 C 62.9 95.4 63.2 94.2 63.2 92.7 C 63.2 91.3 62.9 90.3 62.3 89.5 C 61.6 88.8 60.8 88.4 59.9 88.4 C 58.9 88.4 58.1 88.8 57.5 89.5 C 56.8 90.3 56.5 91.3 56.5 92.8 Z M 67.1 99.5 C 67.1 99.5 69 99.7 69 99.7 C 69.1 100.3 69.3 100.7 69.7 101 C 70.2 101.4 70.8 101.5 71.6 101.5 C 72.5 101.5 73.2 101.4 73.7 101 C 74.2 100.6 74.5 100.1 74.7 99.5 C 74.8 99.1 74.8 98.3 74.8 97 C 74 98 72.9 98.5 71.7 98.5 C 70.1 98.5 68.9 97.9 68 96.8 C 67.2 95.7 66.8 94.3 66.8 92.7 C 66.8 91.7 66.9 90.6 67.3 89.7 C 67.7 88.8 68.3 88.1 69.1 87.6 C 69.8 87.1 70.7 86.8 71.7 86.8 C 73 86.8 74.1 87.4 75 88.5 C 75.02 88.48 75 87.1 75 87.1 L 76.8 87.1 C 76.8 87.1 76.81 96.96 76.8 97 C 76.8 98.7 76.6 100 76.3 100.7 C 75.9 101.5 75.3 102.1 74.5 102.5 C 73.8 102.9 72.8 103.1 71.6 103.1 C 70.3 103.1 69.2 102.8 68.4 102.2 C 67.5 101.6 67.1 100.7 67.1 99.5 Z M 68.7 92.6 C 68.7 94.1 69 95.2 69.6 95.9 C 70.2 96.6 71 96.9 71.9 96.9 C 72.8 96.9 73.5 96.6 74.1 95.9 C 74.7 95.2 75 94.1 75 92.7 C 75 91.3 74.7 90.2 74.1 89.5 C 73.5 88.8 72.7 88.4 71.8 88.4 C 71 88.4 70.2 88.8 69.6 89.5 C 69 90.2 68.7 91.2 68.7 92.6 Z M 79.7 98.5 L 79.7 87.1 L 81.4 87.1 C 81.4 87.1 81.45 88.83 81.4 88.8 C 81.9 88 82.3 87.5 82.7 87.2 C 83.1 87 83.5 86.8 83.9 86.8 C 84.6 86.8 85.2 87.1 85.9 87.5 C 85.9 87.5 85.2 89.3 85.2 89.3 C 84.8 89 84.3 88.8 83.8 88.8 C 83.4 88.8 83 89 82.7 89.2 C 82.3 89.5 82.1 89.8 82 90.3 C 81.7 91 81.6 91.7 81.6 92.5 C 81.64 92.54 81.6 98.5 81.6 98.5 L 79.7 98.5 Z M 94.9 98.5 C 94.7 98.1 94.6 97.6 94.5 97.1 C 93.8 97.7 93.1 98.1 92.4 98.4 C 91.8 98.6 91.1 98.8 90.3 98.8 C 89 98.8 88.1 98.5 87.4 97.8 C 86.7 97.2 86.4 96.5 86.4 95.5 C 86.4 94.9 86.5 94.4 86.8 94 C 87 93.5 87.4 93.1 87.8 92.9 C 88.2 92.6 88.7 92.4 89.2 92.2 C 89.5 92.1 90.1 92 90.9 91.9 C 92.5 91.7 93.6 91.5 94.3 91.3 C 94.3 91 94.3 90.8 94.3 90.8 C 94.3 90 94.2 89.4 93.8 89.1 C 93.3 88.7 92.6 88.4 91.6 88.4 C 90.7 88.4 90 88.6 89.6 88.9 C 89.2 89.2 88.8 89.8 88.6 90.6 C 88.6 90.6 86.7 90.4 86.7 90.4 C 86.9 89.5 87.2 88.9 87.6 88.4 C 88 87.9 88.5 87.5 89.3 87.2 C 90 87 90.9 86.8 91.9 86.8 C 92.9 86.8 93.6 87 94.3 87.2 C 94.9 87.4 95.3 87.7 95.6 88.1 C 95.9 88.4 96.1 88.8 96.2 89.4 C 96.3 89.7 96.3 90.3 96.3 91.1 C 96.3 91.1 96.3 93.7 96.3 93.7 C 96.3 95.5 96.3 96.7 96.4 97.1 C 96.5 97.6 96.7 98.1 96.9 98.5 C 96.9 98.51 94.9 98.5 94.9 98.5 C 94.9 98.5 94.89 98.51 94.9 98.5 Z M 94.3 92.8 C 93.6 93.1 92.6 93.3 91.2 93.5 C 90.4 93.6 89.8 93.8 89.5 93.9 C 89.2 94 88.9 94.3 88.7 94.5 C 88.6 94.8 88.5 95.1 88.5 95.4 C 88.5 96 88.7 96.4 89 96.7 C 89.4 97.1 90 97.3 90.8 97.3 C 91.5 97.3 92.2 97.1 92.7 96.8 C 93.3 96.4 93.8 96 94 95.4 C 94.2 95 94.3 94.3 94.3 93.5 C 94.3 93.5 94.3 92.8 94.3 92.8 Z M 99.3 98.5 L 99.3 87.1 L 101 87.1 C 101 87.1 101.02 88.7 101 88.7 C 101.4 88.1 101.9 87.7 102.4 87.4 C 103 87 103.7 86.8 104.5 86.8 C 105.3 86.8 106 87 106.6 87.4 C 107.1 87.7 107.5 88.2 107.7 88.8 C 108.6 87.5 109.8 86.8 111.2 86.8 C 112.4 86.8 113.2 87.2 113.8 87.8 C 114.4 88.4 114.7 89.4 114.7 90.7 C 114.75 90.68 114.7 98.5 114.7 98.5 L 112.8 98.5 C 112.8 98.5 112.82 91.32 112.8 91.3 C 112.8 90.5 112.8 90 112.6 89.7 C 112.5 89.3 112.3 89 112 88.8 C 111.6 88.6 111.2 88.5 110.8 88.5 C 110 88.5 109.3 88.8 108.8 89.3 C 108.3 89.9 108 90.7 108 91.9 C 108 91.88 108 98.5 108 98.5 L 106.1 98.5 C 106.1 98.5 106.07 91.1 106.1 91.1 C 106.1 90.2 105.9 89.6 105.6 89.2 C 105.3 88.7 104.8 88.5 104 88.5 C 103.5 88.5 103 88.7 102.5 88.9 C 102.1 89.2 101.7 89.7 101.5 90.2 C 101.3 90.8 101.2 91.6 101.2 92.6 C 101.22 92.59 101.2 98.5 101.2 98.5 L 99.3 98.5 Z M 117.6 98.5 L 117.6 87.1 L 119.3 87.1 C 119.3 87.1 119.35 88.7 119.3 88.7 C 119.7 88.1 120.2 87.7 120.8 87.4 C 121.4 87 122 86.8 122.8 86.8 C 123.6 86.8 124.3 87 124.9 87.4 C 125.4 87.7 125.8 88.2 126 88.8 C 126.9 87.5 128.1 86.8 129.6 86.8 C 130.7 86.8 131.6 87.2 132.2 87.8 C 132.8 88.4 133.1 89.4 133.1 90.7 C 133.07 90.68 133.1 98.5 133.1 98.5 L 131.2 98.5 C 131.2 98.5 131.15 91.32 131.2 91.3 C 131.2 90.5 131.1 90 131 89.7 C 130.8 89.3 130.6 89 130.3 88.8 C 130 88.6 129.6 88.5 129.1 88.5 C 128.3 88.5 127.7 88.8 127.1 89.3 C 126.6 89.9 126.3 90.7 126.3 91.9 C 126.33 91.88 126.3 98.5 126.3 98.5 L 124.4 98.5 C 124.4 98.5 124.39 91.1 124.4 91.1 C 124.4 90.2 124.2 89.6 123.9 89.2 C 123.6 88.7 123.1 88.5 122.4 88.5 C 121.8 88.5 121.3 88.7 120.9 88.9 C 120.4 89.2 120.1 89.7 119.9 90.2 C 119.7 90.8 119.5 91.6 119.5 92.6 C 119.55 92.59 119.5 98.5 119.5 98.5 L 117.6 98.5 Z M 143.8 94.8 C 143.8 94.8 145.7 95.1 145.7 95.1 C 145.4 96.2 144.9 97.2 144 97.8 C 143.1 98.4 142.1 98.8 140.7 98.8 C 139.1 98.8 137.7 98.3 136.8 97.2 C 135.8 96.2 135.3 94.8 135.3 92.9 C 135.3 91 135.8 89.5 136.8 88.4 C 137.8 87.4 139 86.8 140.6 86.8 C 142.2 86.8 143.4 87.4 144.4 88.4 C 145.3 89.4 145.8 90.9 145.8 92.8 C 145.8 92.9 145.8 93.1 145.8 93.3 C 145.8 93.3 137.3 93.3 137.3 93.3 C 137.4 94.6 137.7 95.5 138.4 96.2 C 139 96.8 139.8 97.2 140.7 97.2 C 141.5 97.2 142.1 97 142.6 96.6 C 143.1 96.2 143.5 95.7 143.8 94.8 Z M 137.4 91.7 C 137.4 91.7 143.8 91.7 143.8 91.7 C 143.7 90.7 143.4 90 143 89.5 C 142.4 88.8 141.6 88.4 140.6 88.4 C 139.8 88.4 139 88.7 138.4 89.3 C 137.8 89.9 137.5 90.7 137.4 91.7 Z M 147.4 95.1 C 147.4 95.1 149.3 94.8 149.3 94.8 C 149.4 95.6 149.7 96.2 150.2 96.6 C 150.7 97 151.4 97.2 152.3 97.2 C 153.2 97.2 153.8 97 154.2 96.6 C 154.7 96.3 154.9 95.8 154.9 95.4 C 154.9 94.9 154.7 94.6 154.3 94.3 C 154.1 94.2 153.4 93.9 152.3 93.7 C 150.9 93.3 149.9 93 149.4 92.7 C 148.8 92.5 148.4 92.1 148.2 91.7 C 147.9 91.2 147.7 90.7 147.7 90.1 C 147.7 89.6 147.8 89.2 148.1 88.7 C 148.3 88.3 148.6 87.9 149 87.6 C 149.3 87.4 149.7 87.2 150.3 87.1 C 150.8 86.9 151.3 86.8 151.9 86.8 C 152.8 86.8 153.6 87 154.3 87.2 C 155 87.5 155.5 87.8 155.8 88.3 C 156.1 88.7 156.3 89.3 156.4 90 C 156.4 90 154.6 90.3 154.6 90.3 C 154.5 89.7 154.2 89.3 153.8 88.9 C 153.4 88.6 152.8 88.4 152.1 88.4 C 151.2 88.4 150.5 88.6 150.2 88.9 C 149.8 89.2 149.6 89.5 149.6 89.9 C 149.6 90.2 149.7 90.4 149.8 90.6 C 150 90.8 150.2 91 150.6 91.1 C 150.8 91.2 151.3 91.3 152.3 91.6 C 153.6 92 154.6 92.3 155.1 92.5 C 155.7 92.7 156.1 93.1 156.4 93.5 C 156.7 93.9 156.9 94.5 156.9 95.2 C 156.9 95.8 156.7 96.4 156.3 97 C 155.9 97.5 155.4 98 154.7 98.3 C 154 98.6 153.2 98.8 152.3 98.8 C 150.8 98.8 149.7 98.5 148.9 97.8 C 148.1 97.2 147.6 96.3 147.4 95.1 Z M 167.4 98.5 L 163.9 87.1 L 165.9 87.1 L 167.7 93.7 C 167.7 93.7 168.39 96.13 168.4 96.1 C 168.4 96 168.6 95.2 169 93.8 C 168.98 93.78 170.8 87.1 170.8 87.1 L 172.8 87.1 L 174.5 93.7 L 175.1 95.9 L 175.7 93.7 L 177.7 87.1 L 179.6 87.1 L 176 98.5 L 174 98.5 L 172.2 91.7 L 171.7 89.7 L 169.4 98.5 L 167.4 98.5 Z M 181.2 98.5 L 181.2 82.8 L 183.1 82.8 C 183.1 82.8 183.11 88.41 183.1 88.4 C 184 87.4 185.2 86.8 186.5 86.8 C 187.4 86.8 188.1 87 188.7 87.3 C 189.4 87.7 189.8 88.1 190.1 88.7 C 190.3 89.3 190.5 90.2 190.5 91.3 C 190.47 91.28 190.5 98.5 190.5 98.5 L 188.5 98.5 C 188.5 98.5 188.54 91.28 188.5 91.3 C 188.5 90.3 188.3 89.6 187.9 89.2 C 187.5 88.7 186.9 88.5 186.1 88.5 C 185.6 88.5 185 88.7 184.5 89 C 184 89.3 183.6 89.7 183.4 90.2 C 183.2 90.7 183.1 91.4 183.1 92.3 C 183.11 92.27 183.1 98.5 183.1 98.5 L 181.2 98.5 Z M 193.4 85 L 193.4 82.8 L 195.4 82.8 L 195.4 85 L 193.4 85 Z M 193.4 98.5 L 193.4 87.1 L 195.4 87.1 L 195.4 98.5 L 193.4 98.5 Z M 205.7 94.3 C 205.7 94.3 207.6 94.6 207.6 94.6 C 207.4 95.9 206.9 96.9 206.1 97.7 C 205.2 98.4 204.1 98.8 202.9 98.8 C 201.3 98.8 200.1 98.3 199.1 97.2 C 198.2 96.2 197.7 94.8 197.7 92.8 C 197.7 91.6 197.9 90.5 198.3 89.6 C 198.7 88.7 199.4 88 200.2 87.5 C 201 87.1 201.9 86.8 202.9 86.8 C 204.1 86.8 205.2 87.2 205.9 87.8 C 206.7 88.4 207.2 89.3 207.5 90.5 C 207.5 90.5 205.6 90.7 205.6 90.7 C 205.4 90 205.1 89.4 204.6 89 C 204.2 88.6 203.6 88.4 203 88.4 C 202 88.4 201.2 88.8 200.6 89.5 C 200 90.2 199.7 91.3 199.7 92.8 C 199.7 94.3 200 95.4 200.6 96.1 C 201.2 96.8 201.9 97.2 202.9 97.2 C 203.6 97.2 204.3 96.9 204.8 96.5 C 205.3 96 205.6 95.3 205.7 94.3 Z M 209.3 98.5 L 209.3 82.8 L 211.2 82.8 C 211.2 82.8 211.23 88.41 211.2 88.4 C 212.1 87.4 213.3 86.8 214.6 86.8 C 215.5 86.8 216.2 87 216.9 87.3 C 217.5 87.7 217.9 88.1 218.2 88.7 C 218.5 89.3 218.6 90.2 218.6 91.3 C 218.59 91.28 218.6 98.5 218.6 98.5 L 216.7 98.5 C 216.7 98.5 216.66 91.28 216.7 91.3 C 216.7 90.3 216.4 89.6 216 89.2 C 215.6 88.7 215 88.5 214.3 88.5 C 213.7 88.5 213.1 88.7 212.6 89 C 212.1 89.3 211.8 89.7 211.6 90.2 C 211.3 90.7 211.2 91.4 211.2 92.3 C 211.23 92.27 211.2 98.5 211.2 98.5 L 209.3 98.5 Z M 235.5 98.5 C 235.3 98.1 235.1 97.6 235.1 97.1 C 234.4 97.7 233.7 98.1 233 98.4 C 232.4 98.6 231.7 98.8 230.9 98.8 C 229.6 98.8 228.7 98.5 228 97.8 C 227.3 97.2 227 96.5 227 95.5 C 227 94.9 227.1 94.4 227.4 94 C 227.6 93.5 228 93.1 228.4 92.9 C 228.8 92.6 229.2 92.4 229.8 92.2 C 230.1 92.1 230.7 92 231.5 91.9 C 233 91.7 234.2 91.5 234.9 91.3 C 234.9 91 234.9 90.8 234.9 90.8 C 234.9 90 234.8 89.4 234.4 89.1 C 233.9 88.7 233.2 88.4 232.2 88.4 C 231.3 88.4 230.6 88.6 230.2 88.9 C 229.7 89.2 229.4 89.8 229.2 90.6 C 229.2 90.6 227.3 90.4 227.3 90.4 C 227.5 89.5 227.8 88.9 228.2 88.4 C 228.6 87.9 229.1 87.5 229.9 87.2 C 230.6 87 231.5 86.8 232.5 86.8 C 233.4 86.8 234.2 87 234.8 87.2 C 235.5 87.4 235.9 87.7 236.2 88.1 C 236.5 88.4 236.7 88.8 236.8 89.4 C 236.9 89.7 236.9 90.3 236.9 91.1 C 236.9 91.1 236.9 93.7 236.9 93.7 C 236.9 95.5 236.9 96.7 237 97.1 C 237.1 97.6 237.3 98.1 237.5 98.5 C 237.5 98.51 235.5 98.5 235.5 98.5 C 235.5 98.5 235.48 98.51 235.5 98.5 Z M 234.9 92.8 C 234.2 93.1 233.2 93.3 231.8 93.5 C 231 93.6 230.4 93.8 230.1 93.9 C 229.8 94 229.5 94.3 229.3 94.5 C 229.1 94.8 229.1 95.1 229.1 95.4 C 229.1 96 229.3 96.4 229.6 96.7 C 230 97.1 230.6 97.3 231.4 97.3 C 232.1 97.3 232.8 97.1 233.3 96.8 C 233.9 96.4 234.3 96 234.6 95.4 C 234.8 95 234.9 94.3 234.9 93.5 C 234.9 93.5 234.9 92.8 234.9 92.8 Z M 239.9 98.5 L 239.9 87.1 L 241.6 87.1 C 241.6 87.1 241.6 88.83 241.6 88.8 C 242 88 242.5 87.5 242.8 87.2 C 243.2 87 243.6 86.8 244.1 86.8 C 244.7 86.8 245.4 87.1 246.1 87.5 C 246.1 87.5 245.4 89.3 245.4 89.3 C 244.9 89 244.4 88.8 244 88.8 C 243.6 88.8 243.2 89 242.8 89.2 C 242.5 89.5 242.3 89.8 242.1 90.3 C 241.9 91 241.8 91.7 241.8 92.5 C 241.8 92.54 241.8 98.5 241.8 98.5 L 239.9 98.5 Z M 255 94.8 C 255 94.8 257 95.1 257 95.1 C 256.7 96.2 256.1 97.2 255.3 97.8 C 254.4 98.4 253.3 98.8 252 98.8 C 250.3 98.8 249 98.3 248 97.2 C 247.1 96.2 246.6 94.8 246.6 92.9 C 246.6 91 247.1 89.5 248 88.4 C 249 87.4 250.3 86.8 251.9 86.8 C 253.4 86.8 254.7 87.4 255.6 88.4 C 256.6 89.4 257.1 90.9 257.1 92.8 C 257.1 92.9 257.1 93.1 257.1 93.3 C 257.1 93.3 248.6 93.3 248.6 93.3 C 248.6 94.6 249 95.5 249.6 96.2 C 250.3 96.8 251.1 97.2 252 97.2 C 252.7 97.2 253.3 97 253.8 96.6 C 254.3 96.2 254.7 95.7 255 94.8 Z M 248.7 91.7 C 248.7 91.7 255 91.7 255 91.7 C 255 90.7 254.7 90 254.3 89.5 C 253.7 88.8 252.9 88.4 251.9 88.4 C 251 88.4 250.3 88.7 249.7 89.3 C 249.1 89.9 248.7 90.7 248.7 91.7 Z M 273.4 94.8 C 273.4 94.8 275.4 95.1 275.4 95.1 C 275 96.2 274.5 97.2 273.6 97.8 C 272.8 98.4 271.7 98.8 270.3 98.8 C 268.7 98.8 267.4 98.3 266.4 97.2 C 265.4 96.2 264.9 94.8 264.9 92.9 C 264.9 91 265.4 89.5 266.4 88.4 C 267.4 87.4 268.7 86.8 270.2 86.8 C 271.8 86.8 273 87.4 274 88.4 C 274.9 89.4 275.4 90.9 275.4 92.8 C 275.4 92.9 275.4 93.1 275.4 93.3 C 275.4 93.3 266.9 93.3 266.9 93.3 C 267 94.6 267.3 95.5 268 96.2 C 268.6 96.8 269.4 97.2 270.4 97.2 C 271.1 97.2 271.7 97 272.2 96.6 C 272.7 96.2 273.1 95.7 273.4 94.8 Z M 267 91.7 C 267 91.7 273.4 91.7 273.4 91.7 C 273.3 90.7 273.1 90 272.7 89.5 C 272 88.8 271.2 88.4 270.3 88.4 C 269.4 88.4 268.6 88.7 268 89.3 C 267.4 89.9 267.1 90.7 267 91.7 Z M 277.8 98.5 L 277.8 87.1 L 279.5 87.1 C 279.5 87.1 279.53 88.72 279.5 88.7 C 280.4 87.5 281.6 86.8 283.2 86.8 C 283.9 86.8 284.5 87 285.1 87.2 C 285.6 87.5 286.1 87.8 286.4 88.2 C 286.6 88.6 286.8 89.1 287 89.6 C 287 90 287.1 90.6 287.1 91.5 C 287.06 91.49 287.1 98.5 287.1 98.5 L 285.1 98.5 C 285.1 98.5 285.13 91.57 285.1 91.6 C 285.1 90.8 285.1 90.2 284.9 89.8 C 284.8 89.4 284.5 89.1 284.1 88.9 C 283.7 88.6 283.3 88.5 282.8 88.5 C 281.9 88.5 281.2 88.8 280.6 89.3 C 280 89.8 279.7 90.8 279.7 92.3 C 279.73 92.28 279.7 98.5 279.7 98.5 L 277.8 98.5 Z M 289.7 99.5 C 289.7 99.5 291.6 99.7 291.6 99.7 C 291.6 100.3 291.9 100.7 292.2 101 C 292.7 101.4 293.3 101.5 294.2 101.5 C 295.1 101.5 295.8 101.4 296.2 101 C 296.7 100.6 297.1 100.1 297.2 99.5 C 297.3 99.1 297.4 98.3 297.4 97 C 296.5 98 295.5 98.5 294.2 98.5 C 292.6 98.5 291.4 97.9 290.6 96.8 C 289.7 95.7 289.3 94.3 289.3 92.7 C 289.3 91.7 289.5 90.6 289.9 89.7 C 290.3 88.8 290.8 88.1 291.6 87.6 C 292.3 87.1 293.2 86.8 294.2 86.8 C 295.6 86.8 296.7 87.4 297.6 88.5 C 297.56 88.48 297.6 87.1 297.6 87.1 L 299.3 87.1 C 299.3 87.1 299.34 96.96 299.3 97 C 299.3 98.7 299.2 100 298.8 100.7 C 298.4 101.5 297.9 102.1 297.1 102.5 C 296.3 102.9 295.3 103.1 294.2 103.1 C 292.8 103.1 291.7 102.8 290.9 102.2 C 290 101.6 289.6 100.7 289.7 99.5 Z M 291.3 92.6 C 291.3 94.1 291.6 95.2 292.2 95.9 C 292.8 96.6 293.5 96.9 294.4 96.9 C 295.3 96.9 296 96.6 296.6 95.9 C 297.2 95.2 297.5 94.1 297.5 92.7 C 297.5 91.3 297.2 90.2 296.6 89.5 C 296 88.8 295.2 88.4 294.4 88.4 C 293.5 88.4 292.8 88.8 292.2 89.5 C 291.6 90.2 291.3 91.2 291.3 92.6 Z M 310.1 98.5 C 309.9 98.1 309.8 97.6 309.7 97.1 C 309 97.7 308.3 98.1 307.6 98.4 C 307 98.6 306.3 98.8 305.5 98.8 C 304.3 98.8 303.3 98.5 302.6 97.8 C 301.9 97.2 301.6 96.5 301.6 95.5 C 301.6 94.9 301.7 94.4 302 94 C 302.2 93.5 302.6 93.1 303 92.9 C 303.4 92.6 303.9 92.4 304.4 92.2 C 304.8 92.1 305.3 92 306.1 91.9 C 307.7 91.7 308.8 91.5 309.5 91.3 C 309.6 91 309.6 90.8 309.6 90.8 C 309.6 90 309.4 89.4 309 89.1 C 308.5 88.7 307.8 88.4 306.8 88.4 C 305.9 88.4 305.2 88.6 304.8 88.9 C 304.4 89.2 304 89.8 303.8 90.6 C 303.8 90.6 301.9 90.4 301.9 90.4 C 302.1 89.5 302.4 88.9 302.8 88.4 C 303.2 87.9 303.8 87.5 304.5 87.2 C 305.2 87 306.1 86.8 307.1 86.8 C 308.1 86.8 308.9 87 309.5 87.2 C 310.1 87.4 310.5 87.7 310.8 88.1 C 311.1 88.4 311.3 88.8 311.4 89.4 C 311.5 89.7 311.5 90.3 311.5 91.1 C 311.5 91.1 311.5 93.7 311.5 93.7 C 311.5 95.5 311.5 96.7 311.6 97.1 C 311.7 97.6 311.9 98.1 312.1 98.5 C 312.11 98.51 310.1 98.5 310.1 98.5 C 310.1 98.5 310.09 98.51 310.1 98.5 Z M 309.5 92.8 C 308.8 93.1 307.8 93.3 306.4 93.5 C 305.6 93.6 305 93.8 304.7 93.9 C 304.4 94 304.1 94.3 303.9 94.5 C 303.8 94.8 303.7 95.1 303.7 95.4 C 303.7 96 303.9 96.4 304.3 96.7 C 304.6 97.1 305.2 97.3 306 97.3 C 306.7 97.3 307.4 97.1 308 96.8 C 308.5 96.4 309 96 309.2 95.4 C 309.4 95 309.5 94.3 309.5 93.5 C 309.5 93.5 309.5 92.8 309.5 92.8 Z M 314.1 99.5 C 314.1 99.5 316 99.7 316 99.7 C 316.1 100.3 316.3 100.7 316.7 101 C 317.2 101.4 317.8 101.5 318.6 101.5 C 319.5 101.5 320.2 101.4 320.7 101 C 321.2 100.6 321.5 100.1 321.7 99.5 C 321.8 99.1 321.9 98.3 321.8 97 C 321 98 319.9 98.5 318.7 98.5 C 317.1 98.5 315.9 97.9 315 96.8 C 314.2 95.7 313.8 94.3 313.8 92.7 C 313.8 91.7 314 90.6 314.3 89.7 C 314.7 88.8 315.3 88.1 316.1 87.6 C 316.8 87.1 317.7 86.8 318.7 86.8 C 320 86.8 321.2 87.4 322 88.5 C 322.03 88.48 322 87.1 322 87.1 L 323.8 87.1 C 323.8 87.1 323.81 96.96 323.8 97 C 323.8 98.7 323.6 100 323.3 100.7 C 322.9 101.5 322.3 102.1 321.6 102.5 C 320.8 102.9 319.8 103.1 318.7 103.1 C 317.3 103.1 316.2 102.8 315.4 102.2 C 314.5 101.6 314.1 100.7 314.1 99.5 Z M 315.7 92.6 C 315.7 94.1 316 95.2 316.6 95.9 C 317.2 96.6 318 96.9 318.9 96.9 C 319.8 96.9 320.5 96.6 321.1 95.9 C 321.7 95.2 322 94.1 322 92.7 C 322 91.3 321.7 90.2 321.1 89.5 C 320.5 88.8 319.7 88.4 318.8 88.4 C 318 88.4 317.2 88.8 316.6 89.5 C 316 90.2 315.7 91.2 315.7 92.6 Z M 326.7 85 L 326.7 82.8 L 328.7 82.8 L 328.7 85 L 326.7 85 Z M 326.7 98.5 L 326.7 87.1 L 328.7 87.1 L 328.7 98.5 L 326.7 98.5 Z M 331.6 98.5 L 331.6 87.1 L 333.4 87.1 C 333.4 87.1 333.36 88.72 333.4 88.7 C 334.2 87.5 335.4 86.8 337 86.8 C 337.7 86.8 338.3 87 338.9 87.2 C 339.5 87.5 339.9 87.8 340.2 88.2 C 340.5 88.6 340.7 89.1 340.8 89.6 C 340.9 90 340.9 90.6 340.9 91.5 C 340.89 91.49 340.9 98.5 340.9 98.5 L 339 98.5 C 339 98.5 338.96 91.57 339 91.6 C 339 90.8 338.9 90.2 338.7 89.8 C 338.6 89.4 338.3 89.1 337.9 88.9 C 337.5 88.6 337.1 88.5 336.6 88.5 C 335.8 88.5 335.1 88.8 334.5 89.3 C 333.9 89.8 333.6 90.8 333.6 92.3 C 333.56 92.28 333.6 98.5 333.6 98.5 L 331.6 98.5 Z M 343.5 99.5 C 343.5 99.5 345.4 99.7 345.4 99.7 C 345.5 100.3 345.7 100.7 346 101 C 346.5 101.4 347.2 101.5 348 101.5 C 348.9 101.5 349.6 101.4 350.1 101 C 350.6 100.6 350.9 100.1 351.1 99.5 C 351.2 99.1 351.2 98.3 351.2 97 C 350.4 98 349.3 98.5 348 98.5 C 346.5 98.5 345.3 97.9 344.4 96.8 C 343.5 95.7 343.1 94.3 343.1 92.7 C 343.1 91.7 343.3 90.6 343.7 89.7 C 344.1 88.8 344.7 88.1 345.4 87.6 C 346.2 87.1 347 86.8 348.1 86.8 C 349.4 86.8 350.5 87.4 351.4 88.5 C 351.39 88.48 351.4 87.1 351.4 87.1 L 353.2 87.1 C 353.2 87.1 353.17 96.96 353.2 97 C 353.2 98.7 353 100 352.6 100.7 C 352.3 101.5 351.7 102.1 350.9 102.5 C 350.1 102.9 349.2 103.1 348 103.1 C 346.7 103.1 345.6 102.8 344.7 102.2 C 343.9 101.6 343.5 100.7 343.5 99.5 Z M 345.1 92.6 C 345.1 94.1 345.4 95.2 346 95.9 C 346.6 96.6 347.3 96.9 348.2 96.9 C 349.1 96.9 349.9 96.6 350.5 95.9 C 351.1 95.2 351.4 94.1 351.4 92.7 C 351.4 91.3 351.1 90.2 350.4 89.5 C 349.8 88.8 349.1 88.4 348.2 88.4 C 347.3 88.4 346.6 88.8 346 89.5 C 345.4 90.2 345.1 91.2 345.1 92.6 Z M 356.6 98.5 L 356.6 96.3 L 358.8 96.3 C 358.8 96.3 358.8 98.51 358.8 98.5 C 358.8 99.3 358.7 100 358.4 100.5 C 358.1 101 357.6 101.4 357 101.6 C 357 101.6 356.5 100.8 356.5 100.8 C 356.9 100.6 357.2 100.4 357.4 100 C 357.6 99.7 357.7 99.2 357.7 98.5 C 357.69 98.51 356.6 98.5 356.6 98.5 Z " stroke="none" fill="#fff"/>  </g>  <g id="Polygon62065">    <path d="M 27.2 67.9 C 27.2 67.9 29.1 68.2 29.1 68.2 C 28.9 69.5 28.4 70.5 27.5 71.3 C 26.7 72 25.6 72.4 24.4 72.4 C 22.8 72.4 21.6 71.9 20.6 70.8 C 19.7 69.8 19.2 68.4 19.2 66.4 C 19.2 65.2 19.4 64.1 19.8 63.2 C 20.2 62.3 20.8 61.6 21.7 61.1 C 22.5 60.7 23.4 60.4 24.4 60.4 C 25.6 60.4 26.7 60.8 27.4 61.4 C 28.2 62 28.7 62.9 29 64.1 C 29 64.1 27.1 64.3 27.1 64.3 C 26.9 63.6 26.6 63 26.1 62.6 C 25.7 62.2 25.1 62 24.5 62 C 23.5 62 22.7 62.4 22.1 63.1 C 21.5 63.8 21.2 64.9 21.2 66.4 C 21.2 67.9 21.5 69 22.1 69.7 C 22.7 70.4 23.4 70.8 24.4 70.8 C 25.1 70.8 25.8 70.5 26.3 70.1 C 26.8 69.6 27.1 68.9 27.2 67.9 Z M 30.1 66.4 C 30.1 64.3 30.7 62.7 31.8 61.7 C 32.8 60.9 34 60.4 35.4 60.4 C 37 60.4 38.3 61 39.3 62 C 40.3 63 40.8 64.4 40.8 66.2 C 40.8 67.7 40.5 68.9 40.1 69.7 C 39.7 70.5 39 71.2 38.2 71.7 C 37.3 72.1 36.4 72.4 35.4 72.4 C 33.8 72.4 32.5 71.9 31.5 70.8 C 30.6 69.8 30.1 68.3 30.1 66.4 Z M 32.1 66.4 C 32.1 67.9 32.4 69 33 69.7 C 33.7 70.4 34.5 70.8 35.4 70.8 C 36.4 70.8 37.2 70.4 37.8 69.7 C 38.5 69 38.8 67.8 38.8 66.3 C 38.8 64.9 38.5 63.9 37.8 63.1 C 37.2 62.4 36.4 62 35.4 62 C 34.5 62 33.7 62.4 33 63.1 C 32.4 63.9 32.1 64.9 32.1 66.4 Z M 43 72.1 L 43 60.7 L 44.8 60.7 C 44.8 60.7 44.77 62.32 44.8 62.3 C 45.6 61.1 46.8 60.4 48.4 60.4 C 49.1 60.4 49.7 60.6 50.3 60.8 C 50.9 61.1 51.3 61.4 51.6 61.8 C 51.9 62.2 52.1 62.7 52.2 63.2 C 52.3 63.6 52.3 64.2 52.3 65.1 C 52.3 65.09 52.3 72.1 52.3 72.1 L 50.4 72.1 C 50.4 72.1 50.36 65.17 50.4 65.2 C 50.4 64.4 50.3 63.8 50.1 63.4 C 50 63 49.7 62.7 49.3 62.5 C 49 62.2 48.5 62.1 48 62.1 C 47.2 62.1 46.5 62.4 45.9 62.9 C 45.3 63.4 45 64.4 45 65.9 C 44.96 65.88 45 72.1 45 72.1 L 43 72.1 Z M 54.5 68.7 C 54.5 68.7 56.4 68.4 56.4 68.4 C 56.5 69.2 56.8 69.8 57.3 70.2 C 57.8 70.6 58.5 70.8 59.4 70.8 C 60.2 70.8 60.9 70.6 61.3 70.2 C 61.8 69.9 62 69.4 62 69 C 62 68.5 61.8 68.2 61.4 67.9 C 61.1 67.8 60.5 67.5 59.4 67.3 C 58 66.9 57 66.6 56.5 66.3 C 55.9 66.1 55.5 65.7 55.2 65.3 C 55 64.8 54.8 64.3 54.8 63.7 C 54.8 63.2 54.9 62.8 55.2 62.3 C 55.4 61.9 55.7 61.5 56.1 61.2 C 56.4 61 56.8 60.8 57.3 60.7 C 57.9 60.5 58.4 60.4 59 60.4 C 59.9 60.4 60.7 60.6 61.4 60.8 C 62 61.1 62.5 61.4 62.9 61.9 C 63.2 62.3 63.4 62.9 63.5 63.6 C 63.5 63.6 61.6 63.9 61.6 63.9 C 61.6 63.3 61.3 62.9 60.9 62.5 C 60.5 62.2 59.9 62 59.2 62 C 58.3 62 57.6 62.2 57.3 62.5 C 56.9 62.8 56.7 63.1 56.7 63.5 C 56.7 63.8 56.8 64 56.9 64.2 C 57.1 64.4 57.3 64.6 57.7 64.7 C 57.9 64.8 58.4 64.9 59.4 65.2 C 60.7 65.6 61.7 65.9 62.2 66.1 C 62.8 66.3 63.2 66.7 63.5 67.1 C 63.8 67.5 64 68.1 64 68.8 C 64 69.4 63.8 70 63.4 70.6 C 63 71.1 62.5 71.6 61.8 71.9 C 61.1 72.2 60.3 72.4 59.4 72.4 C 57.9 72.4 56.8 72.1 56 71.4 C 55.2 70.8 54.7 69.9 54.5 68.7 Z M 73.7 72.1 C 73.7 72.1 73.74 70.43 73.7 70.4 C 72.9 71.7 71.6 72.4 70.1 72.4 C 69.4 72.4 68.8 72.2 68.2 72 C 67.7 71.7 67.2 71.4 66.9 71 C 66.7 70.6 66.5 70.1 66.3 69.6 C 66.3 69.2 66.2 68.6 66.2 67.8 C 66.22 67.77 66.2 60.7 66.2 60.7 L 68.2 60.7 C 68.2 60.7 68.15 67.03 68.2 67 C 68.2 68 68.2 68.7 68.3 69.1 C 68.4 69.6 68.7 70 69 70.3 C 69.4 70.6 69.9 70.7 70.5 70.7 C 71.1 70.7 71.6 70.6 72.1 70.3 C 72.6 70 73 69.6 73.2 69 C 73.4 68.5 73.5 67.8 73.5 66.8 C 73.54 66.81 73.5 60.7 73.5 60.7 L 75.5 60.7 L 75.5 72.1 L 73.7 72.1 Z M 78.5 72.1 L 78.5 56.4 L 80.4 56.4 L 80.4 72.1 L 78.5 72.1 Z M 86.8 70.5 C 87 70.5 87.3 70.4 87.6 70.4 C 87.6 70.4 87.9 72.1 87.9 72.1 C 87.3 72.2 86.9 72.3 86.4 72.3 C 85.7 72.3 85.2 72.1 84.8 71.9 C 84.4 71.7 84.1 71.4 84 71.1 C 83.8 70.7 83.7 69.9 83.7 68.8 C 83.74 68.77 83.7 62.2 83.7 62.2 L 82.3 62.2 L 82.3 60.7 L 83.7 60.7 L 83.7 57.9 L 85.7 56.7 L 85.7 60.7 L 87.6 60.7 L 87.6 62.2 L 85.7 62.2 C 85.7 62.2 85.66 68.87 85.7 68.9 C 85.7 69.4 85.7 69.8 85.8 69.9 C 85.8 70.1 85.9 70.2 86.1 70.3 C 86.3 70.4 86.5 70.5 86.8 70.5 C 86.8 70.5 86.8 70.5 86.8 70.5 Z M 97.3 72.1 C 97.1 71.7 97 71.2 96.9 70.7 C 96.2 71.3 95.5 71.7 94.9 72 C 94.2 72.2 93.5 72.4 92.7 72.4 C 91.5 72.4 90.5 72.1 89.9 71.4 C 89.2 70.8 88.8 70.1 88.8 69.1 C 88.8 68.5 89 68 89.2 67.6 C 89.5 67.1 89.8 66.7 90.2 66.5 C 90.6 66.2 91.1 66 91.6 65.8 C 92 65.7 92.6 65.6 93.3 65.5 C 94.9 65.3 96 65.1 96.8 64.9 C 96.8 64.6 96.8 64.4 96.8 64.4 C 96.8 63.6 96.6 63 96.2 62.7 C 95.8 62.3 95 62 94 62 C 93.1 62 92.5 62.2 92 62.5 C 91.6 62.8 91.3 63.4 91.1 64.2 C 91.1 64.2 89.2 64 89.2 64 C 89.3 63.1 89.6 62.5 90 62 C 90.4 61.5 91 61.1 91.7 60.8 C 92.5 60.6 93.3 60.4 94.3 60.4 C 95.3 60.4 96.1 60.6 96.7 60.8 C 97.3 61 97.8 61.3 98 61.7 C 98.3 62 98.5 62.4 98.6 63 C 98.7 63.3 98.7 63.9 98.7 64.7 C 98.7 64.7 98.7 67.3 98.7 67.3 C 98.7 69.1 98.8 70.3 98.9 70.7 C 98.9 71.2 99.1 71.7 99.3 72.1 C 99.35 72.11 97.3 72.1 97.3 72.1 C 97.3 72.1 97.33 72.11 97.3 72.1 Z M 96.8 66.4 C 96.1 66.7 95 66.9 93.6 67.1 C 92.8 67.2 92.3 67.4 91.9 67.5 C 91.6 67.6 91.4 67.9 91.2 68.1 C 91 68.4 90.9 68.7 90.9 69 C 90.9 69.6 91.1 70 91.5 70.3 C 91.9 70.7 92.5 70.9 93.2 70.9 C 93.9 70.9 94.6 70.7 95.2 70.4 C 95.8 70 96.2 69.6 96.5 69 C 96.7 68.6 96.8 67.9 96.8 67.1 C 96.8 67.1 96.8 66.4 96.8 66.4 Z M 101.7 72.1 L 101.7 60.7 L 103.5 60.7 C 103.5 60.7 103.47 62.32 103.5 62.3 C 104.3 61.1 105.5 60.4 107.1 60.4 C 107.8 60.4 108.4 60.6 109 60.8 C 109.6 61.1 110 61.4 110.3 61.8 C 110.6 62.2 110.8 62.7 110.9 63.2 C 111 63.6 111 64.2 111 65.1 C 111 65.09 111 72.1 111 72.1 L 109.1 72.1 C 109.1 72.1 109.07 65.17 109.1 65.2 C 109.1 64.4 109 63.8 108.8 63.4 C 108.7 63 108.4 62.7 108 62.5 C 107.7 62.2 107.2 62.1 106.7 62.1 C 105.9 62.1 105.2 62.4 104.6 62.9 C 104 63.4 103.7 64.4 103.7 65.9 C 103.67 65.88 103.7 72.1 103.7 72.1 L 101.7 72.1 Z M 121.4 67.9 C 121.4 67.9 123.3 68.2 123.3 68.2 C 123.1 69.5 122.6 70.5 121.7 71.3 C 120.9 72 119.8 72.4 118.6 72.4 C 117 72.4 115.8 71.9 114.8 70.8 C 113.9 69.8 113.4 68.4 113.4 66.4 C 113.4 65.2 113.6 64.1 114 63.2 C 114.4 62.3 115 61.6 115.9 61.1 C 116.7 60.7 117.6 60.4 118.6 60.4 C 119.8 60.4 120.8 60.8 121.6 61.4 C 122.4 62 122.9 62.9 123.1 64.1 C 123.1 64.1 121.3 64.3 121.3 64.3 C 121.1 63.6 120.8 63 120.3 62.6 C 119.8 62.2 119.3 62 118.7 62 C 117.7 62 116.9 62.4 116.3 63.1 C 115.7 63.8 115.4 64.9 115.4 66.4 C 115.4 67.9 115.7 69 116.2 69.7 C 116.8 70.4 117.6 70.8 118.5 70.8 C 119.3 70.8 119.9 70.5 120.4 70.1 C 121 69.6 121.3 68.9 121.4 67.9 Z M 126.1 76.7 C 125.8 76.7 125.3 76.7 124.9 76.5 C 124.9 76.5 124.7 74.7 124.7 74.7 C 125.1 74.8 125.5 74.9 125.8 74.9 C 126.2 74.9 126.5 74.8 126.8 74.6 C 127.1 74.5 127.3 74.3 127.4 74 C 127.6 73.8 127.8 73.4 128 72.6 C 128.1 72.5 128.1 72.3 128.2 72.1 C 128.2 72.13 123.9 60.7 123.9 60.7 L 126 60.7 C 126 60.7 128.33 67.31 128.3 67.3 C 128.6 68.1 128.9 69 129.2 69.9 C 129.4 69.1 129.6 68.2 130 67.3 C 129.95 67.35 132.4 60.7 132.4 60.7 L 134.3 60.7 C 134.3 60.7 129.99 72.3 130 72.3 C 129.5 73.6 129.2 74.4 128.9 74.9 C 128.6 75.5 128.2 76 127.7 76.3 C 127.3 76.6 126.7 76.7 126.1 76.7 C 126.1 76.7 126.1 76.7 126.1 76.7 Z M 141.3 68.7 C 141.3 68.7 143.2 68.4 143.2 68.4 C 143.3 69.2 143.6 69.8 144.1 70.2 C 144.6 70.6 145.3 70.8 146.2 70.8 C 147.1 70.8 147.7 70.6 148.2 70.2 C 148.6 69.9 148.8 69.4 148.8 69 C 148.8 68.5 148.6 68.2 148.2 67.9 C 148 67.8 147.3 67.5 146.2 67.3 C 144.8 66.9 143.8 66.6 143.3 66.3 C 142.8 66.1 142.3 65.7 142.1 65.3 C 141.8 64.8 141.6 64.3 141.6 63.7 C 141.6 63.2 141.7 62.8 142 62.3 C 142.2 61.9 142.5 61.5 142.9 61.2 C 143.2 61 143.6 60.8 144.2 60.7 C 144.7 60.5 145.2 60.4 145.8 60.4 C 146.7 60.4 147.5 60.6 148.2 60.8 C 148.9 61.1 149.4 61.4 149.7 61.9 C 150 62.3 150.2 62.9 150.4 63.6 C 150.4 63.6 148.5 63.9 148.5 63.9 C 148.4 63.3 148.1 62.9 147.7 62.5 C 147.3 62.2 146.7 62 146 62 C 145.1 62 144.4 62.2 144.1 62.5 C 143.7 62.8 143.5 63.1 143.5 63.5 C 143.5 63.8 143.6 64 143.7 64.2 C 143.9 64.4 144.1 64.6 144.5 64.7 C 144.7 64.8 145.2 64.9 146.2 65.2 C 147.6 65.6 148.5 65.9 149 66.1 C 149.6 66.3 150 66.7 150.3 67.1 C 150.6 67.5 150.8 68.1 150.8 68.8 C 150.8 69.4 150.6 70 150.2 70.6 C 149.8 71.1 149.3 71.6 148.6 71.9 C 147.9 72.2 147.1 72.4 146.2 72.4 C 144.7 72.4 143.6 72.1 142.8 71.4 C 142 70.8 141.5 69.9 141.3 68.7 Z M 160.9 68.4 C 160.9 68.4 162.9 68.7 162.9 68.7 C 162.6 69.8 162 70.8 161.1 71.4 C 160.3 72 159.2 72.4 157.9 72.4 C 156.2 72.4 154.9 71.9 153.9 70.8 C 152.9 69.8 152.4 68.4 152.4 66.5 C 152.4 64.6 152.9 63.1 153.9 62 C 154.9 61 156.2 60.4 157.8 60.4 C 159.3 60.4 160.5 61 161.5 62 C 162.5 63 163 64.5 163 66.4 C 163 66.5 162.9 66.7 162.9 66.9 C 162.9 66.9 154.4 66.9 154.4 66.9 C 154.5 68.2 154.9 69.1 155.5 69.8 C 156.1 70.4 156.9 70.8 157.9 70.8 C 158.6 70.8 159.2 70.6 159.7 70.2 C 160.2 69.8 160.6 69.3 160.9 68.4 Z M 154.5 65.3 C 154.5 65.3 160.9 65.3 160.9 65.3 C 160.8 64.3 160.6 63.6 160.2 63.1 C 159.6 62.4 158.8 62 157.8 62 C 156.9 62 156.2 62.3 155.5 62.9 C 154.9 63.5 154.6 64.3 154.5 65.3 Z M 165.3 72.1 L 165.3 60.7 L 167 60.7 C 167 60.7 167.04 62.43 167 62.4 C 167.5 61.6 167.9 61.1 168.3 60.8 C 168.6 60.6 169.1 60.4 169.5 60.4 C 170.2 60.4 170.8 60.7 171.5 61.1 C 171.5 61.1 170.8 62.9 170.8 62.9 C 170.4 62.6 169.9 62.4 169.4 62.4 C 169 62.4 168.6 62.6 168.3 62.8 C 167.9 63.1 167.7 63.4 167.6 63.9 C 167.3 64.6 167.2 65.3 167.2 66.1 C 167.23 66.14 167.2 72.1 167.2 72.1 L 165.3 72.1 Z M 175.8 72.1 L 171.5 60.7 L 173.5 60.7 C 173.5 60.7 175.96 67.53 176 67.5 C 176.2 68.3 176.5 69 176.7 69.8 C 176.9 69.2 177.1 68.5 177.4 67.7 C 177.41 67.66 179.9 60.7 179.9 60.7 L 181.9 60.7 L 177.6 72.1 L 175.8 72.1 Z M 183.7 58.6 L 183.7 56.4 L 185.6 56.4 L 185.6 58.6 L 183.7 58.6 Z M 183.7 72.1 L 183.7 60.7 L 185.6 60.7 L 185.6 72.1 L 183.7 72.1 Z M 196 67.9 C 196 67.9 197.9 68.2 197.9 68.2 C 197.7 69.5 197.1 70.5 196.3 71.3 C 195.4 72 194.4 72.4 193.1 72.4 C 191.6 72.4 190.3 71.9 189.4 70.8 C 188.4 69.8 187.9 68.4 187.9 66.4 C 187.9 65.2 188.1 64.1 188.6 63.2 C 189 62.3 189.6 61.6 190.4 61.1 C 191.2 60.7 192.2 60.4 193.1 60.4 C 194.4 60.4 195.4 60.8 196.2 61.4 C 197 62 197.5 62.9 197.7 64.1 C 197.7 64.1 195.8 64.3 195.8 64.3 C 195.6 63.6 195.3 63 194.9 62.6 C 194.4 62.2 193.9 62 193.2 62 C 192.2 62 191.4 62.4 190.8 63.1 C 190.2 63.8 189.9 64.9 189.9 66.4 C 189.9 67.9 190.2 69 190.8 69.7 C 191.4 70.4 192.2 70.8 193.1 70.8 C 193.9 70.8 194.5 70.5 195 70.1 C 195.5 69.6 195.8 68.9 196 67.9 Z M 207.3 68.4 C 207.3 68.4 209.3 68.7 209.3 68.7 C 209 69.8 208.4 70.8 207.6 71.4 C 206.7 72 205.6 72.4 204.3 72.4 C 202.7 72.4 201.3 71.9 200.4 70.8 C 199.4 69.8 198.9 68.4 198.9 66.5 C 198.9 64.6 199.4 63.1 200.4 62 C 201.4 61 202.6 60.4 204.2 60.4 C 205.7 60.4 207 61 208 62 C 208.9 63 209.4 64.5 209.4 66.4 C 209.4 66.5 209.4 66.7 209.4 66.9 C 209.4 66.9 200.9 66.9 200.9 66.9 C 201 68.2 201.3 69.1 201.9 69.8 C 202.6 70.4 203.4 70.8 204.3 70.8 C 205 70.8 205.6 70.6 206.1 70.2 C 206.6 69.8 207 69.3 207.3 68.4 Z M 201 65.3 C 201 65.3 207.4 65.3 207.4 65.3 C 207.3 64.3 207 63.6 206.6 63.1 C 206 62.4 205.2 62 204.2 62 C 203.3 62 202.6 62.3 202 62.9 C 201.4 63.5 201.1 64.3 201 65.3 Z M 211 68.7 C 211 68.7 212.9 68.4 212.9 68.4 C 213 69.2 213.3 69.8 213.8 70.2 C 214.3 70.6 215 70.8 215.9 70.8 C 216.7 70.8 217.4 70.6 217.8 70.2 C 218.3 69.9 218.5 69.4 218.5 69 C 218.5 68.5 218.3 68.2 217.9 67.9 C 217.6 67.8 217 67.5 215.9 67.3 C 214.5 66.9 213.5 66.6 213 66.3 C 212.4 66.1 212 65.7 211.7 65.3 C 211.5 64.8 211.3 64.3 211.3 63.7 C 211.3 63.2 211.4 62.8 211.7 62.3 C 211.9 61.9 212.2 61.5 212.6 61.2 C 212.9 61 213.3 60.8 213.8 60.7 C 214.4 60.5 214.9 60.4 215.5 60.4 C 216.4 60.4 217.2 60.6 217.9 60.8 C 218.5 61.1 219 61.4 219.4 61.9 C 219.7 62.3 219.9 62.9 220 63.6 C 220 63.6 218.1 63.9 218.1 63.9 C 218.1 63.3 217.8 62.9 217.4 62.5 C 217 62.2 216.4 62 215.7 62 C 214.8 62 214.1 62.2 213.8 62.5 C 213.4 62.8 213.2 63.1 213.2 63.5 C 213.2 63.8 213.3 64 213.4 64.2 C 213.6 64.4 213.8 64.6 214.2 64.7 C 214.4 64.8 214.9 64.9 215.9 65.2 C 217.2 65.6 218.2 65.9 218.7 66.1 C 219.3 66.3 219.7 66.7 220 67.1 C 220.3 67.5 220.5 68.1 220.5 68.8 C 220.5 69.4 220.3 70 219.9 70.6 C 219.5 71.1 219 71.6 218.3 71.9 C 217.6 72.2 216.8 72.4 215.9 72.4 C 214.4 72.4 213.3 72.1 212.5 71.4 C 211.7 70.8 211.2 69.9 211 68.7 Z M 232.3 70.5 C 232.5 70.5 232.7 70.4 233.1 70.4 C 233.1 70.4 233.4 72.1 233.4 72.1 C 232.8 72.2 232.3 72.3 231.9 72.3 C 231.2 72.3 230.7 72.1 230.3 71.9 C 229.9 71.7 229.6 71.4 229.5 71.1 C 229.3 70.7 229.2 69.9 229.2 68.8 C 229.23 68.77 229.2 62.2 229.2 62.2 L 227.8 62.2 L 227.8 60.7 L 229.2 60.7 L 229.2 57.9 L 231.2 56.7 L 231.2 60.7 L 233.1 60.7 L 233.1 62.2 L 231.2 62.2 C 231.2 62.2 231.16 68.87 231.2 68.9 C 231.2 69.4 231.2 69.8 231.3 69.9 C 231.3 70.1 231.4 70.2 231.6 70.3 C 231.7 70.4 232 70.5 232.3 70.5 C 232.3 70.5 232.3 70.5 232.3 70.5 Z M 234.3 66.4 C 234.3 64.3 234.9 62.7 236 61.7 C 237 60.9 238.2 60.4 239.6 60.4 C 241.2 60.4 242.5 61 243.5 62 C 244.5 63 245 64.4 245 66.2 C 245 67.7 244.7 68.9 244.3 69.7 C 243.9 70.5 243.2 71.2 242.4 71.7 C 241.5 72.1 240.6 72.4 239.6 72.4 C 238 72.4 236.7 71.9 235.7 70.8 C 234.8 69.8 234.3 68.3 234.3 66.4 Z M 236.3 66.4 C 236.3 67.9 236.6 69 237.2 69.7 C 237.9 70.4 238.7 70.8 239.6 70.8 C 240.6 70.8 241.4 70.4 242 69.7 C 242.7 69 243 67.8 243 66.3 C 243 64.9 242.7 63.9 242 63.1 C 241.4 62.4 240.6 62 239.6 62 C 238.7 62 237.9 62.4 237.2 63.1 C 236.6 63.9 236.3 64.9 236.3 66.4 Z M 253.3 72.1 L 253.3 56.4 L 255.3 56.4 C 255.3 56.4 255.27 62.01 255.3 62 C 256.2 61 257.3 60.4 258.7 60.4 C 259.5 60.4 260.3 60.6 260.9 60.9 C 261.5 61.3 262 61.7 262.2 62.3 C 262.5 62.9 262.6 63.8 262.6 64.9 C 262.63 64.88 262.6 72.1 262.6 72.1 L 260.7 72.1 C 260.7 72.1 260.7 64.88 260.7 64.9 C 260.7 63.9 260.5 63.2 260.1 62.8 C 259.6 62.3 259.1 62.1 258.3 62.1 C 257.7 62.1 257.2 62.3 256.7 62.6 C 256.2 62.9 255.8 63.3 255.6 63.8 C 255.4 64.3 255.3 65 255.3 65.9 C 255.27 65.87 255.3 72.1 255.3 72.1 L 253.3 72.1 Z M 273.4 68.4 C 273.4 68.4 275.4 68.7 275.4 68.7 C 275.1 69.8 274.5 70.8 273.6 71.4 C 272.8 72 271.7 72.4 270.4 72.4 C 268.7 72.4 267.4 71.9 266.4 70.8 C 265.4 69.8 264.9 68.4 264.9 66.5 C 264.9 64.6 265.4 63.1 266.4 62 C 267.4 61 268.7 60.4 270.3 60.4 C 271.8 60.4 273 61 274 62 C 275 63 275.4 64.5 275.4 66.4 C 275.4 66.5 275.4 66.7 275.4 66.9 C 275.4 66.9 266.9 66.9 266.9 66.9 C 267 68.2 267.4 69.1 268 69.8 C 268.6 70.4 269.4 70.8 270.4 70.8 C 271.1 70.8 271.7 70.6 272.2 70.2 C 272.7 69.8 273.1 69.3 273.4 68.4 Z M 267 65.3 C 267 65.3 273.4 65.3 273.4 65.3 C 273.3 64.3 273.1 63.6 272.7 63.1 C 272.1 62.4 271.3 62 270.3 62 C 269.4 62 268.6 62.3 268 62.9 C 267.4 63.5 267.1 64.3 267 65.3 Z M 277.8 72.1 L 277.8 56.4 L 279.7 56.4 L 279.7 72.1 L 277.8 72.1 Z M 282.7 76.5 L 282.7 60.7 L 284.5 60.7 C 284.5 60.7 284.46 62.18 284.5 62.2 C 284.9 61.6 285.3 61.2 285.9 60.9 C 286.4 60.6 287 60.4 287.8 60.4 C 288.7 60.4 289.6 60.7 290.3 61.2 C 291.1 61.7 291.7 62.4 292 63.3 C 292.4 64.2 292.6 65.2 292.6 66.3 C 292.6 67.5 292.4 68.5 292 69.5 C 291.6 70.4 290.9 71.1 290.1 71.6 C 289.3 72.1 288.5 72.4 287.6 72.4 C 287 72.4 286.4 72.2 285.9 72 C 285.4 71.7 285 71.3 284.6 70.9 C 284.63 70.93 284.6 76.5 284.6 76.5 L 282.7 76.5 Z M 284.4 66.5 C 284.4 67.9 284.7 69 285.3 69.7 C 285.9 70.4 286.7 70.8 287.5 70.8 C 288.4 70.8 289.1 70.4 289.7 69.7 C 290.3 69 290.6 67.8 290.6 66.3 C 290.6 64.9 290.3 63.8 289.7 63 C 289.1 62.3 288.4 62 287.6 62 C 286.8 62 286 62.3 285.4 63.1 C 284.8 63.9 284.4 65 284.4 66.5 Z M 308.4 72.1 C 308.4 72.1 308.45 70.67 308.4 70.7 C 307.7 71.8 306.7 72.4 305.3 72.4 C 304.3 72.4 303.5 72.1 302.7 71.6 C 302 71.1 301.4 70.4 301 69.5 C 300.6 68.6 300.3 67.6 300.3 66.4 C 300.3 65.3 300.5 64.2 300.9 63.3 C 301.3 62.4 301.9 61.7 302.6 61.2 C 303.4 60.7 304.2 60.4 305.2 60.4 C 305.9 60.4 306.5 60.6 307 60.9 C 307.5 61.2 308 61.5 308.3 62 C 308.32 62.01 308.3 56.4 308.3 56.4 L 310.2 56.4 L 310.2 72.1 L 308.4 72.1 Z M 302.3 66.4 C 302.3 67.9 302.6 69 303.3 69.7 C 303.9 70.4 304.6 70.8 305.4 70.8 C 306.3 70.8 307 70.4 307.6 69.7 C 308.2 69 308.5 68 308.5 66.6 C 308.5 65 308.2 63.9 307.6 63.1 C 307 62.4 306.2 62 305.4 62 C 304.5 62 303.8 62.4 303.2 63.1 C 302.6 63.8 302.3 64.9 302.3 66.4 Z M 321.1 68.4 C 321.1 68.4 323.1 68.7 323.1 68.7 C 322.8 69.8 322.2 70.8 321.3 71.4 C 320.5 72 319.4 72.4 318.1 72.4 C 316.4 72.4 315.1 71.9 314.1 70.8 C 313.1 69.8 312.6 68.4 312.6 66.5 C 312.6 64.6 313.1 63.1 314.1 62 C 315.1 61 316.4 60.4 318 60.4 C 319.5 60.4 320.7 61 321.7 62 C 322.7 63 323.2 64.5 323.2 66.4 C 323.2 66.5 323.1 66.7 323.1 66.9 C 323.1 66.9 314.6 66.9 314.6 66.9 C 314.7 68.2 315.1 69.1 315.7 69.8 C 316.3 70.4 317.1 70.8 318.1 70.8 C 318.8 70.8 319.4 70.6 319.9 70.2 C 320.4 69.8 320.8 69.3 321.1 68.4 Z M 314.7 65.3 C 314.7 65.3 321.1 65.3 321.1 65.3 C 321 64.3 320.8 63.6 320.4 63.1 C 319.8 62.4 319 62 318 62 C 317.1 62 316.3 62.3 315.7 62.9 C 315.1 63.5 314.8 64.3 314.7 65.3 Z M 328.7 72.1 L 324.3 60.7 L 326.4 60.7 C 326.4 60.7 328.83 67.53 328.8 67.5 C 329.1 68.3 329.3 69 329.6 69.8 C 329.7 69.2 330 68.5 330.3 67.7 C 330.28 67.66 332.8 60.7 332.8 60.7 L 334.8 60.7 L 330.5 72.1 L 328.7 72.1 Z M 344.3 68.4 C 344.3 68.4 346.3 68.7 346.3 68.7 C 346 69.8 345.4 70.8 344.6 71.4 C 343.7 72 342.6 72.4 341.3 72.4 C 339.6 72.4 338.3 71.9 337.3 70.8 C 336.4 69.8 335.9 68.4 335.9 66.5 C 335.9 64.6 336.4 63.1 337.4 62 C 338.3 61 339.6 60.4 341.2 60.4 C 342.7 60.4 344 61 344.9 62 C 345.9 63 346.4 64.5 346.4 66.4 C 346.4 66.5 346.4 66.7 346.4 66.9 C 346.4 66.9 337.9 66.9 337.9 66.9 C 337.9 68.2 338.3 69.1 338.9 69.8 C 339.6 70.4 340.4 70.8 341.3 70.8 C 342 70.8 342.6 70.6 343.1 70.2 C 343.6 69.8 344 69.3 344.3 68.4 Z M 338 65.3 C 338 65.3 344.3 65.3 344.3 65.3 C 344.3 64.3 344 63.6 343.6 63.1 C 343 62.4 342.2 62 341.2 62 C 340.3 62 339.6 62.3 339 62.9 C 338.4 63.5 338 64.3 338 65.3 Z M 348.7 72.1 L 348.7 56.4 L 350.6 56.4 L 350.6 72.1 L 348.7 72.1 Z M 352.9 66.4 C 352.9 64.3 353.5 62.7 354.7 61.7 C 355.7 60.9 356.9 60.4 358.3 60.4 C 359.8 60.4 361.1 61 362.1 62 C 363.1 63 363.6 64.4 363.6 66.2 C 363.6 67.7 363.4 68.9 362.9 69.7 C 362.5 70.5 361.9 71.2 361 71.7 C 360.2 72.1 359.3 72.4 358.3 72.4 C 356.7 72.4 355.4 71.9 354.4 70.8 C 353.4 69.8 352.9 68.3 352.9 66.4 Z M 354.9 66.4 C 354.9 67.9 355.2 69 355.9 69.7 C 356.5 70.4 357.3 70.8 358.3 70.8 C 359.2 70.8 360 70.4 360.7 69.7 C 361.3 69 361.6 67.8 361.6 66.3 C 361.6 64.9 361.3 63.9 360.7 63.1 C 360 62.4 359.2 62 358.3 62 C 357.3 62 356.5 62.4 355.9 63.1 C 355.2 63.9 354.9 64.9 354.9 66.4 Z M 365.9 76.5 L 365.9 60.7 L 367.6 60.7 C 367.6 60.7 367.63 62.18 367.6 62.2 C 368.1 61.6 368.5 61.2 369 60.9 C 369.6 60.6 370.2 60.4 370.9 60.4 C 371.9 60.4 372.8 60.7 373.5 61.2 C 374.3 61.7 374.8 62.4 375.2 63.3 C 375.6 64.2 375.8 65.2 375.8 66.3 C 375.8 67.5 375.6 68.5 375.1 69.5 C 374.7 70.4 374.1 71.1 373.3 71.6 C 372.5 72.1 371.7 72.4 370.8 72.4 C 370.2 72.4 369.6 72.2 369.1 72 C 368.6 71.7 368.1 71.3 367.8 70.9 C 367.81 70.93 367.8 76.5 367.8 76.5 L 365.9 76.5 Z M 367.6 66.5 C 367.6 67.9 367.9 69 368.5 69.7 C 369.1 70.4 369.8 70.8 370.7 70.8 C 371.5 70.8 372.3 70.4 372.9 69.7 C 373.5 69 373.8 67.8 373.8 66.3 C 373.8 64.9 373.5 63.8 372.9 63 C 372.3 62.3 371.6 62 370.8 62 C 369.9 62 369.2 62.3 368.6 63.1 C 367.9 63.9 367.6 65 367.6 66.5 Z " stroke="none" fill="#fff"/>  </g>  <g id="Polygon62064">    <path d="M 54.9 45.7 L 54.9 30 C 54.9 30 60.32 29.96 60.3 30 C 61.5 30 62.5 30 63.1 30.2 C 64 30.4 64.8 30.8 65.4 31.3 C 66.3 32 66.9 32.9 67.3 34 C 67.7 35.1 67.9 36.3 67.9 37.7 C 67.9 38.9 67.8 40 67.5 40.9 C 67.2 41.9 66.9 42.6 66.4 43.2 C 66 43.8 65.5 44.3 65 44.7 C 64.5 45 63.8 45.3 63.1 45.4 C 62.4 45.6 61.5 45.7 60.6 45.7 C 60.57 45.71 54.9 45.7 54.9 45.7 Z M 57 43.8 C 57 43.8 60.34 43.85 60.3 43.8 C 61.4 43.8 62.2 43.8 62.8 43.6 C 63.4 43.4 63.8 43.1 64.2 42.7 C 64.7 42.2 65.1 41.6 65.3 40.8 C 65.6 39.9 65.8 38.9 65.8 37.7 C 65.8 36.1 65.5 34.8 65 33.9 C 64.4 33 63.8 32.4 63 32.1 C 62.4 31.9 61.5 31.8 60.3 31.8 C 60.28 31.82 57 31.8 57 31.8 L 57 43.8 Z M 78.3 42 C 78.3 42 80.3 42.3 80.3 42.3 C 80 43.4 79.4 44.4 78.6 45 C 77.7 45.6 76.6 46 75.3 46 C 73.7 46 72.3 45.5 71.4 44.4 C 70.4 43.4 69.9 42 69.9 40.1 C 69.9 38.2 70.4 36.7 71.4 35.6 C 72.4 34.6 73.6 34 75.2 34 C 76.7 34 78 34.6 79 35.6 C 79.9 36.6 80.4 38.1 80.4 40 C 80.4 40.1 80.4 40.3 80.4 40.5 C 80.4 40.5 71.9 40.5 71.9 40.5 C 72 41.8 72.3 42.7 72.9 43.4 C 73.6 44 74.4 44.4 75.3 44.4 C 76 44.4 76.6 44.2 77.1 43.8 C 77.7 43.4 78 42.9 78.3 42 Z M 72 38.9 C 72 38.9 78.4 38.9 78.4 38.9 C 78.3 37.9 78 37.2 77.6 36.7 C 77 36 76.2 35.6 75.2 35.6 C 74.3 35.6 73.6 35.9 73 36.5 C 72.4 37.1 72.1 37.9 72 38.9 Z M 82.7 45.7 L 82.7 30 L 84.7 30 L 84.7 45.7 L 82.7 45.7 Z M 87.7 32.2 L 87.7 30 L 89.6 30 L 89.6 32.2 L 87.7 32.2 Z M 87.7 45.7 L 87.7 34.3 L 89.6 34.3 L 89.6 45.7 L 87.7 45.7 Z M 95.7 45.7 L 91.4 34.3 L 93.4 34.3 C 93.4 34.3 95.86 41.13 95.9 41.1 C 96.1 41.9 96.4 42.6 96.6 43.4 C 96.8 42.8 97 42.1 97.3 41.3 C 97.31 41.26 99.8 34.3 99.8 34.3 L 101.8 34.3 L 97.5 45.7 L 95.7 45.7 Z M 111.4 42 C 111.4 42 113.4 42.3 113.4 42.3 C 113 43.4 112.5 44.4 111.6 45 C 110.7 45.6 109.7 46 108.3 46 C 106.7 46 105.3 45.5 104.4 44.4 C 103.4 43.4 102.9 42 102.9 40.1 C 102.9 38.2 103.4 36.7 104.4 35.6 C 105.4 34.6 106.7 34 108.2 34 C 109.8 34 111 34.6 112 35.6 C 112.9 36.6 113.4 38.1 113.4 40 C 113.4 40.1 113.4 40.3 113.4 40.5 C 113.4 40.5 104.9 40.5 104.9 40.5 C 105 41.8 105.3 42.7 106 43.4 C 106.6 44 107.4 44.4 108.3 44.4 C 109.1 44.4 109.7 44.2 110.2 43.8 C 110.7 43.4 111.1 42.9 111.4 42 Z M 105 38.9 C 105 38.9 111.4 38.9 111.4 38.9 C 111.3 37.9 111 37.2 110.6 36.7 C 110 36 109.2 35.6 108.2 35.6 C 107.4 35.6 106.6 35.9 106 36.5 C 105.4 37.1 105.1 37.9 105 38.9 Z M 115.8 45.7 L 115.8 34.3 L 117.5 34.3 C 117.5 34.3 117.5 36.03 117.5 36 C 117.9 35.2 118.4 34.7 118.7 34.4 C 119.1 34.2 119.5 34 120 34 C 120.6 34 121.3 34.3 122 34.7 C 122 34.7 121.3 36.5 121.3 36.5 C 120.8 36.2 120.3 36 119.9 36 C 119.4 36 119.1 36.2 118.7 36.4 C 118.4 36.7 118.2 37 118 37.5 C 117.8 38.2 117.7 38.9 117.7 39.7 C 117.69 39.74 117.7 45.7 117.7 45.7 L 115.8 45.7 Z M 123.1 32.2 L 123.1 30 L 125 30 L 125 32.2 L 123.1 32.2 Z M 123.1 45.7 L 123.1 34.3 L 125 34.3 L 125 45.7 L 123.1 45.7 Z M 128 45.7 L 128 34.3 L 129.7 34.3 C 129.7 34.3 129.73 35.92 129.7 35.9 C 130.6 34.7 131.8 34 133.4 34 C 134.1 34 134.7 34.2 135.3 34.4 C 135.8 34.7 136.3 35 136.6 35.4 C 136.8 35.8 137 36.3 137.2 36.8 C 137.2 37.2 137.3 37.8 137.3 38.7 C 137.26 38.69 137.3 45.7 137.3 45.7 L 135.3 45.7 C 135.3 45.7 135.33 38.77 135.3 38.8 C 135.3 38 135.3 37.4 135.1 37 C 135 36.6 134.7 36.3 134.3 36.1 C 133.9 35.8 133.5 35.7 133 35.7 C 132.1 35.7 131.4 36 130.8 36.5 C 130.2 37 129.9 38 129.9 39.5 C 129.93 39.48 129.9 45.7 129.9 45.7 L 128 45.7 Z M 139.9 46.7 C 139.9 46.7 141.8 46.9 141.8 46.9 C 141.8 47.5 142.1 47.9 142.4 48.2 C 142.9 48.6 143.5 48.7 144.4 48.7 C 145.3 48.7 146 48.6 146.4 48.2 C 146.9 47.8 147.3 47.3 147.4 46.7 C 147.5 46.3 147.6 45.5 147.6 44.2 C 146.7 45.2 145.7 45.7 144.4 45.7 C 142.8 45.7 141.6 45.1 140.8 44 C 139.9 42.9 139.5 41.5 139.5 39.9 C 139.5 38.9 139.7 37.8 140.1 36.9 C 140.5 36 141 35.3 141.8 34.8 C 142.5 34.3 143.4 34 144.4 34 C 145.8 34 146.9 34.6 147.8 35.7 C 147.76 35.68 147.8 34.3 147.8 34.3 L 149.5 34.3 C 149.5 34.3 149.54 44.16 149.5 44.2 C 149.5 45.9 149.4 47.2 149 47.9 C 148.6 48.7 148.1 49.3 147.3 49.7 C 146.5 50.1 145.5 50.3 144.4 50.3 C 143 50.3 141.9 50 141.1 49.4 C 140.2 48.8 139.8 47.9 139.9 46.7 Z M 141.5 39.8 C 141.5 41.3 141.8 42.4 142.4 43.1 C 143 43.8 143.7 44.1 144.6 44.1 C 145.5 44.1 146.2 43.8 146.8 43.1 C 147.4 42.4 147.7 41.3 147.7 39.9 C 147.7 38.5 147.4 37.4 146.8 36.7 C 146.2 36 145.4 35.6 144.6 35.6 C 143.7 35.6 143 36 142.4 36.7 C 141.8 37.4 141.5 38.4 141.5 39.8 Z M 165.8 50.1 C 165.8 50.1 165.85 44.49 165.8 44.5 C 165.5 44.9 165.1 45.3 164.6 45.5 C 164 45.8 163.5 46 162.9 46 C 161.5 46 160.3 45.4 159.4 44.3 C 158.4 43.3 157.9 41.8 157.9 39.9 C 157.9 38.8 158.1 37.7 158.5 36.8 C 158.9 35.9 159.5 35.2 160.2 34.7 C 161 34.3 161.8 34 162.7 34 C 164.1 34 165.2 34.6 166 35.8 C 166.04 35.83 166 34.3 166 34.3 L 167.8 34.3 L 167.8 50.1 L 165.8 50.1 Z M 159.9 40 C 159.9 41.4 160.2 42.5 160.8 43.3 C 161.4 44 162.2 44.4 163 44.4 C 163.8 44.4 164.6 44 165.1 43.3 C 165.7 42.6 166 41.6 166 40.1 C 166 38.6 165.7 37.5 165.1 36.7 C 164.5 36 163.7 35.6 162.9 35.6 C 162.1 35.6 161.3 35.9 160.8 36.6 C 160.2 37.3 159.9 38.5 159.9 40 Z M 178.3 45.7 C 178.3 45.7 178.29 44.03 178.3 44 C 177.4 45.3 176.2 46 174.7 46 C 174 46 173.4 45.8 172.8 45.6 C 172.2 45.3 171.8 45 171.5 44.6 C 171.2 44.2 171 43.7 170.9 43.2 C 170.8 42.8 170.8 42.2 170.8 41.4 C 170.77 41.37 170.8 34.3 170.8 34.3 L 172.7 34.3 C 172.7 34.3 172.7 40.63 172.7 40.6 C 172.7 41.6 172.7 42.3 172.8 42.7 C 172.9 43.2 173.2 43.6 173.6 43.9 C 174 44.2 174.5 44.3 175.1 44.3 C 175.6 44.3 176.2 44.2 176.7 43.9 C 177.2 43.6 177.6 43.2 177.8 42.6 C 178 42.1 178.1 41.4 178.1 40.4 C 178.08 40.41 178.1 34.3 178.1 34.3 L 180 34.3 L 180 45.7 L 178.3 45.7 Z M 190.9 45.7 C 190.7 45.3 190.5 44.8 190.5 44.3 C 189.8 44.9 189.1 45.3 188.4 45.6 C 187.8 45.8 187 46 186.3 46 C 185 46 184.1 45.7 183.4 45 C 182.7 44.4 182.4 43.7 182.4 42.7 C 182.4 42.1 182.5 41.6 182.8 41.2 C 183 40.7 183.4 40.3 183.8 40.1 C 184.2 39.8 184.6 39.6 185.2 39.4 C 185.5 39.3 186.1 39.2 186.9 39.1 C 188.4 38.9 189.6 38.7 190.3 38.5 C 190.3 38.2 190.3 38 190.3 38 C 190.3 37.2 190.2 36.6 189.8 36.3 C 189.3 35.9 188.6 35.6 187.6 35.6 C 186.7 35.6 186 35.8 185.6 36.1 C 185.1 36.4 184.8 37 184.6 37.8 C 184.6 37.8 182.7 37.6 182.7 37.6 C 182.9 36.7 183.2 36.1 183.6 35.6 C 184 35.1 184.5 34.7 185.3 34.4 C 186 34.2 186.9 34 187.9 34 C 188.8 34 189.6 34.2 190.2 34.4 C 190.9 34.6 191.3 34.9 191.6 35.3 C 191.9 35.6 192.1 36 192.2 36.6 C 192.3 36.9 192.3 37.5 192.3 38.3 C 192.3 38.3 192.3 40.9 192.3 40.9 C 192.3 42.7 192.3 43.9 192.4 44.3 C 192.5 44.8 192.7 45.3 192.9 45.7 C 192.9 45.71 190.9 45.7 190.9 45.7 C 190.9 45.7 190.88 45.71 190.9 45.7 Z M 190.3 40 C 189.6 40.3 188.6 40.5 187.2 40.7 C 186.4 40.8 185.8 41 185.5 41.1 C 185.2 41.2 184.9 41.5 184.7 41.7 C 184.5 42 184.5 42.3 184.5 42.6 C 184.5 43.2 184.6 43.6 185 43.9 C 185.4 44.3 186 44.5 186.8 44.5 C 187.5 44.5 188.2 44.3 188.7 44 C 189.3 43.6 189.7 43.2 190 42.6 C 190.2 42.2 190.3 41.5 190.3 40.7 C 190.3 40.7 190.3 40 190.3 40 Z M 195.2 45.7 L 195.2 30 L 197.2 30 L 197.2 45.7 L 195.2 45.7 Z M 200.2 32.2 L 200.2 30 L 202.1 30 L 202.1 32.2 L 200.2 32.2 Z M 200.2 45.7 L 200.2 34.3 L 202.1 34.3 L 202.1 45.7 L 200.2 45.7 Z M 208.4 44.1 C 208.6 44.1 208.9 44 209.3 44 C 209.3 44 209.6 45.7 209.6 45.7 C 209 45.8 208.5 45.9 208.1 45.9 C 207.4 45.9 206.9 45.7 206.5 45.5 C 206.1 45.3 205.8 45 205.6 44.7 C 205.5 44.3 205.4 43.5 205.4 42.4 C 205.41 42.37 205.4 35.8 205.4 35.8 L 204 35.8 L 204 34.3 L 205.4 34.3 L 205.4 31.5 L 207.3 30.3 L 207.3 34.3 L 209.3 34.3 L 209.3 35.8 L 207.3 35.8 C 207.3 35.8 207.33 42.47 207.3 42.5 C 207.3 43 207.4 43.4 207.4 43.5 C 207.5 43.7 207.6 43.8 207.8 43.9 C 207.9 44 208.1 44.1 208.4 44.1 C 208.4 44.1 208.4 44.1 208.4 44.1 Z M 212.3 50.3 C 212 50.3 211.5 50.3 211.1 50.1 C 211.1 50.1 210.9 48.3 210.9 48.3 C 211.3 48.4 211.7 48.5 212 48.5 C 212.4 48.5 212.7 48.4 213 48.2 C 213.3 48.1 213.5 47.9 213.6 47.6 C 213.8 47.4 214 47 214.2 46.2 C 214.3 46.1 214.3 45.9 214.4 45.7 C 214.4 45.73 210.1 34.3 210.1 34.3 L 212.2 34.3 C 212.2 34.3 214.53 40.91 214.5 40.9 C 214.8 41.7 215.1 42.6 215.4 43.5 C 215.6 42.7 215.8 41.8 216.2 40.9 C 216.15 40.95 218.6 34.3 218.6 34.3 L 220.5 34.3 C 220.5 34.3 216.19 45.9 216.2 45.9 C 215.7 47.2 215.4 48 215.1 48.5 C 214.8 49.1 214.4 49.6 213.9 49.9 C 213.5 50.2 212.9 50.3 212.3 50.3 C 212.3 50.3 212.3 50.3 212.3 50.3 Z M 231.7 44.1 C 231.9 44.1 232.2 44 232.5 44 C 232.5 44 232.8 45.7 232.8 45.7 C 232.2 45.8 231.8 45.9 231.3 45.9 C 230.6 45.9 230.1 45.7 229.7 45.5 C 229.3 45.3 229 45 228.9 44.7 C 228.7 44.3 228.6 43.5 228.6 42.4 C 228.64 42.37 228.6 35.8 228.6 35.8 L 227.2 35.8 L 227.2 34.3 L 228.6 34.3 L 228.6 31.5 L 230.6 30.3 L 230.6 34.3 L 232.5 34.3 L 232.5 35.8 L 230.6 35.8 C 230.6 35.8 230.56 42.47 230.6 42.5 C 230.6 43 230.6 43.4 230.7 43.5 C 230.7 43.7 230.8 43.8 231 43.9 C 231.1 44 231.4 44.1 231.7 44.1 C 231.7 44.1 231.7 44.1 231.7 44.1 Z M 234.4 45.7 L 234.4 34.3 L 236.1 34.3 C 236.1 34.3 236.11 36.03 236.1 36 C 236.6 35.2 237 34.7 237.3 34.4 C 237.7 34.2 238.1 34 238.6 34 C 239.2 34 239.9 34.3 240.6 34.7 C 240.6 34.7 239.9 36.5 239.9 36.5 C 239.4 36.2 239 36 238.5 36 C 238.1 36 237.7 36.2 237.3 36.4 C 237 36.7 236.8 37 236.6 37.5 C 236.4 38.2 236.3 38.9 236.3 39.7 C 236.31 39.74 236.3 45.7 236.3 45.7 L 234.4 45.7 Z M 249.6 45.7 C 249.4 45.3 249.2 44.8 249.2 44.3 C 248.4 44.9 247.8 45.3 247.1 45.6 C 246.4 45.8 245.7 46 245 46 C 243.7 46 242.7 45.7 242.1 45 C 241.4 44.4 241.1 43.7 241.1 42.7 C 241.1 42.1 241.2 41.6 241.4 41.2 C 241.7 40.7 242 40.3 242.4 40.1 C 242.9 39.8 243.3 39.6 243.8 39.4 C 244.2 39.3 244.8 39.2 245.6 39.1 C 247.1 38.9 248.3 38.7 249 38.5 C 249 38.2 249 38 249 38 C 249 37.2 248.8 36.6 248.5 36.3 C 248 35.9 247.2 35.6 246.3 35.6 C 245.4 35.6 244.7 35.8 244.3 36.1 C 243.8 36.4 243.5 37 243.3 37.8 C 243.3 37.8 241.4 37.6 241.4 37.6 C 241.6 36.7 241.9 36.1 242.2 35.6 C 242.6 35.1 243.2 34.7 244 34.4 C 244.7 34.2 245.6 34 246.5 34 C 247.5 34 248.3 34.2 248.9 34.4 C 249.5 34.6 250 34.9 250.3 35.3 C 250.5 35.6 250.7 36 250.9 36.6 C 250.9 36.9 251 37.5 251 38.3 C 251 38.3 251 40.9 251 40.9 C 251 42.7 251 43.9 251.1 44.3 C 251.2 44.8 251.3 45.3 251.6 45.7 C 251.57 45.71 249.6 45.7 249.6 45.7 C 249.6 45.7 249.55 45.71 249.6 45.7 Z M 249 40 C 248.3 40.3 247.2 40.5 245.8 40.7 C 245.1 40.8 244.5 41 244.2 41.1 C 243.8 41.2 243.6 41.5 243.4 41.7 C 243.2 42 243.1 42.3 243.1 42.6 C 243.1 43.2 243.3 43.6 243.7 43.9 C 244.1 44.3 244.7 44.5 245.4 44.5 C 246.2 44.5 246.8 44.3 247.4 44 C 248 43.6 248.4 43.2 248.7 42.6 C 248.9 42.2 249 41.5 249 40.7 C 249 40.7 249 40 249 40 Z M 254 32.2 L 254 30 L 255.9 30 L 255.9 32.2 L 254 32.2 Z M 254 45.7 L 254 34.3 L 255.9 34.3 L 255.9 45.7 L 254 45.7 Z M 258.8 45.7 L 258.8 34.3 L 260.6 34.3 C 260.6 34.3 260.58 35.92 260.6 35.9 C 261.4 34.7 262.6 34 264.2 34 C 264.9 34 265.5 34.2 266.1 34.4 C 266.7 34.7 267.1 35 267.4 35.4 C 267.7 35.8 267.9 36.3 268 36.8 C 268.1 37.2 268.1 37.8 268.1 38.7 C 268.11 38.69 268.1 45.7 268.1 45.7 L 266.2 45.7 C 266.2 45.7 266.18 38.77 266.2 38.8 C 266.2 38 266.1 37.4 266 37 C 265.8 36.6 265.5 36.3 265.2 36.1 C 264.8 35.8 264.3 35.7 263.8 35.7 C 263 35.7 262.3 36 261.7 36.5 C 261.1 37 260.8 38 260.8 39.5 C 260.78 39.48 260.8 45.7 260.8 45.7 L 258.8 45.7 Z M 271.1 32.2 L 271.1 30 L 273 30 L 273 32.2 L 271.1 32.2 Z M 271.1 45.7 L 271.1 34.3 L 273 34.3 L 273 45.7 L 271.1 45.7 Z M 276 45.7 L 276 34.3 L 277.7 34.3 C 277.7 34.3 277.71 35.92 277.7 35.9 C 278.5 34.7 279.8 34 281.3 34 C 282 34 282.7 34.2 283.2 34.4 C 283.8 34.7 284.2 35 284.5 35.4 C 284.8 35.8 285 36.3 285.1 36.8 C 285.2 37.2 285.2 37.8 285.2 38.7 C 285.24 38.69 285.2 45.7 285.2 45.7 L 283.3 45.7 C 283.3 45.7 283.3 38.77 283.3 38.8 C 283.3 38 283.2 37.4 283.1 37 C 282.9 36.6 282.7 36.3 282.3 36.1 C 281.9 35.8 281.4 35.7 280.9 35.7 C 280.1 35.7 279.4 36 278.8 36.5 C 278.2 37 277.9 38 277.9 39.5 C 277.9 39.48 277.9 45.7 277.9 45.7 L 276 45.7 Z M 287.8 46.7 C 287.8 46.7 289.7 46.9 289.7 46.9 C 289.8 47.5 290 47.9 290.4 48.2 C 290.9 48.6 291.5 48.7 292.3 48.7 C 293.2 48.7 293.9 48.6 294.4 48.2 C 294.9 47.8 295.2 47.3 295.4 46.7 C 295.5 46.3 295.6 45.5 295.5 44.2 C 294.7 45.2 293.7 45.7 292.4 45.7 C 290.8 45.7 289.6 45.1 288.7 44 C 287.9 42.9 287.5 41.5 287.5 39.9 C 287.5 38.9 287.7 37.8 288.1 36.9 C 288.4 36 289 35.3 289.8 34.8 C 290.5 34.3 291.4 34 292.4 34 C 293.7 34 294.9 34.6 295.7 35.7 C 295.73 35.68 295.7 34.3 295.7 34.3 L 297.5 34.3 C 297.5 34.3 297.52 44.16 297.5 44.2 C 297.5 45.9 297.3 47.2 297 47.9 C 296.6 48.7 296 49.3 295.3 49.7 C 294.5 50.1 293.5 50.3 292.4 50.3 C 291 50.3 289.9 50 289.1 49.4 C 288.2 48.8 287.8 47.9 287.8 46.7 Z M 289.4 39.8 C 289.4 41.3 289.7 42.4 290.3 43.1 C 290.9 43.8 291.7 44.1 292.6 44.1 C 293.5 44.1 294.2 43.8 294.8 43.1 C 295.4 42.4 295.7 41.3 295.7 39.9 C 295.7 38.5 295.4 37.4 294.8 36.7 C 294.2 36 293.4 35.6 292.5 35.6 C 291.7 35.6 291 36 290.4 36.7 C 289.7 37.4 289.4 38.4 289.4 39.8 Z M 314.4 45.7 C 314.2 45.3 314.1 44.8 314 44.3 C 313.3 44.9 312.6 45.3 311.9 45.6 C 311.3 45.8 310.6 46 309.8 46 C 308.5 46 307.6 45.7 306.9 45 C 306.2 44.4 305.9 43.7 305.9 42.7 C 305.9 42.1 306 41.6 306.3 41.2 C 306.5 40.7 306.9 40.3 307.3 40.1 C 307.7 39.8 308.1 39.6 308.7 39.4 C 309 39.3 309.6 39.2 310.4 39.1 C 311.9 38.9 313.1 38.7 313.8 38.5 C 313.8 38.2 313.8 38 313.8 38 C 313.8 37.2 313.7 36.6 313.3 36.3 C 312.8 35.9 312.1 35.6 311.1 35.6 C 310.2 35.6 309.5 35.8 309.1 36.1 C 308.6 36.4 308.3 37 308.1 37.8 C 308.1 37.8 306.2 37.6 306.2 37.6 C 306.4 36.7 306.7 36.1 307.1 35.6 C 307.5 35.1 308 34.7 308.8 34.4 C 309.5 34.2 310.4 34 311.4 34 C 312.3 34 313.1 34.2 313.7 34.4 C 314.4 34.6 314.8 34.9 315.1 35.3 C 315.4 35.6 315.6 36 315.7 36.6 C 315.8 36.9 315.8 37.5 315.8 38.3 C 315.8 38.3 315.8 40.9 315.8 40.9 C 315.8 42.7 315.8 43.9 315.9 44.3 C 316 44.8 316.2 45.3 316.4 45.7 C 316.4 45.71 314.4 45.7 314.4 45.7 C 314.4 45.7 314.38 45.71 314.4 45.7 Z M 313.8 40 C 313.1 40.3 312.1 40.5 310.7 40.7 C 309.9 40.8 309.3 41 309 41.1 C 308.7 41.2 308.4 41.5 308.2 41.7 C 308 42 308 42.3 308 42.6 C 308 43.2 308.2 43.6 308.5 43.9 C 308.9 44.3 309.5 44.5 310.3 44.5 C 311 44.5 311.7 44.3 312.2 44 C 312.8 43.6 313.2 43.2 313.5 42.6 C 313.7 42.2 313.8 41.5 313.8 40.7 C 313.8 40.7 313.8 40 313.8 40 Z M 318.8 45.7 L 318.8 34.3 L 320.5 34.3 C 320.5 34.3 320.52 35.92 320.5 35.9 C 321.4 34.7 322.6 34 324.2 34 C 324.8 34 325.5 34.2 326.1 34.4 C 326.6 34.7 327.1 35 327.3 35.4 C 327.6 35.8 327.8 36.3 327.9 36.8 C 328 37.2 328.1 37.8 328.1 38.7 C 328.06 38.69 328.1 45.7 328.1 45.7 L 326.1 45.7 C 326.1 45.7 326.12 38.77 326.1 38.8 C 326.1 38 326 37.4 325.9 37 C 325.7 36.6 325.5 36.3 325.1 36.1 C 324.7 35.8 324.3 35.7 323.7 35.7 C 322.9 35.7 322.2 36 321.6 36.5 C 321 37 320.7 38 320.7 39.5 C 320.72 39.48 320.7 45.7 320.7 45.7 L 318.8 45.7 Z M 338.4 45.7 C 338.4 45.7 338.42 44.27 338.4 44.3 C 337.7 45.4 336.6 46 335.2 46 C 334.3 46 333.5 45.7 332.7 45.2 C 332 44.7 331.4 44 331 43.1 C 330.5 42.2 330.3 41.2 330.3 40 C 330.3 38.9 330.5 37.8 330.9 36.9 C 331.3 36 331.8 35.3 332.6 34.8 C 333.4 34.3 334.2 34 335.1 34 C 335.8 34 336.4 34.2 337 34.5 C 337.5 34.8 338 35.1 338.3 35.6 C 338.29 35.61 338.3 30 338.3 30 L 340.2 30 L 340.2 45.7 L 338.4 45.7 Z M 332.3 40 C 332.3 41.5 332.6 42.6 333.2 43.3 C 333.8 44 334.6 44.4 335.4 44.4 C 336.3 44.4 337 44 337.6 43.3 C 338.2 42.6 338.5 41.6 338.5 40.2 C 338.5 38.6 338.2 37.5 337.6 36.7 C 336.9 36 336.2 35.6 335.3 35.6 C 334.5 35.6 333.8 36 333.2 36.7 C 332.6 37.4 332.3 38.5 332.3 40 Z " stroke="none" fill="#fff"/>  </g></svg>