<?xml version="1.0" standalone="no"?><!DOCTYPE svg PUBLIC "-//W3C//DTD SVG 1.1//EN" "http://www.w3.org/Graphics/SVG/1.1/DTD/svg11.dtd"><svg xmlns="http://www.w3.org/2000/svg" version="1.1" width="854px" height="106.8px" viewBox="0 -1 854 106.8" style="top:-1px">  <desc>solutions across Various</desc>  <defs/>  <g id="Polygon62646">    <path d="M 14.5 25 C 17.7 25 20.9 25.9 24 27.6 C 24 27.6 24 31.1 24 31.1 C 20.4 29 17.4 27.9 14.8 27.9 C 12.4 27.9 10.3 28.7 8.7 30.2 C 7 31.7 6.2 33.5 6.2 35.7 C 6.2 37.3 6.7 38.7 7.6 40 C 8.6 41.3 10.7 42.5 13.8 43.7 C 16.9 44.8 19.1 45.8 20.6 46.6 C 22 47.4 23.2 48.5 24.2 50 C 25.2 51.5 25.7 53.4 25.7 55.8 C 25.7 58.9 24.5 61.6 22.2 63.7 C 19.9 65.9 17.1 67 13.8 67 C 10.4 67 6.9 65.8 3.3 63.4 C 3.3 63.4 3.3 59.7 3.3 59.7 C 7.3 62.6 10.7 64.1 13.6 64.1 C 16 64.1 18.1 63.3 19.8 61.7 C 21.4 60.1 22.3 58.2 22.3 55.9 C 22.3 54.2 21.7 52.6 20.7 51.2 C 19.7 49.8 17.6 48.5 14.4 47.3 C 11.3 46.1 9 45.1 7.6 44.4 C 6.3 43.6 5.1 42.6 4.2 41.2 C 3.2 39.8 2.8 38 2.8 35.9 C 2.8 32.9 3.9 30.3 6.2 28.2 C 8.5 26.1 11.3 25 14.5 25 C 14.5 25 14.5 25 14.5 25 Z M 52.8 25 C 58.9 25 64 27 68.2 31.1 C 72.4 35.2 74.5 40.1 74.5 46 C 74.5 51.8 72.4 56.8 68.2 60.9 C 64 64.9 58.9 67 52.8 67 C 46.8 67 41.7 64.9 37.5 60.9 C 33.3 56.8 31.2 51.8 31.2 46 C 31.2 40.1 33.3 35.2 37.5 31.1 C 41.7 27 46.8 25 52.8 25 Z M 52.9 64.1 C 58 64.1 62.3 62.3 65.8 58.8 C 69.4 55.3 71.1 51.1 71.1 46 C 71.1 40.9 69.4 36.6 65.8 33.2 C 62.3 29.7 58 27.9 52.9 27.9 C 47.8 27.9 43.5 29.7 39.9 33.2 C 36.4 36.6 34.6 40.9 34.6 46 C 34.6 51.1 36.4 55.3 39.9 58.8 C 43.5 62.3 47.8 64.1 52.9 64.1 Z M 85.5 25.5 L 85.5 63.8 L 105.7 63.8 L 105.7 66.5 L 82.3 66.5 L 82.3 25.5 L 85.5 25.5 Z M 140.6 25.5 L 143.8 25.5 C 143.8 25.5 143.79 47.85 143.8 47.9 C 143.8 54 142.2 58.7 139 62 C 135.8 65.3 131.7 67 126.7 67 C 121.6 67 117.5 65.3 114.3 62.1 C 111.1 58.8 109.5 54.3 109.5 48.6 C 109.54 48.58 109.5 25.5 109.5 25.5 L 112.7 25.5 C 112.7 25.5 112.73 48.47 112.7 48.5 C 112.7 53.3 114 57.2 116.6 59.9 C 119.2 62.7 122.5 64.1 126.7 64.1 C 130.8 64.1 134.2 62.7 136.7 59.9 C 139.3 57.1 140.6 53.1 140.6 48 C 140.63 48.03 140.6 25.5 140.6 25.5 Z M 181.7 25.5 L 181.7 28.2 L 166.4 28.2 L 166.4 66.5 L 163.2 66.5 L 163.2 28.2 L 147.8 28.2 L 147.8 25.5 L 181.7 25.5 Z M 189.8 25.5 L 189.8 66.5 L 186.7 66.5 L 186.7 25.5 L 189.8 25.5 Z M 219.1 25 C 225.2 25 230.3 27 234.5 31.1 C 238.7 35.2 240.8 40.1 240.8 46 C 240.8 51.8 238.7 56.8 234.5 60.9 C 230.3 64.9 225.2 67 219.1 67 C 213.1 67 208 64.9 203.8 60.9 C 199.6 56.8 197.5 51.8 197.5 46 C 197.5 40.1 199.6 35.2 203.8 31.1 C 208 27 213.1 25 219.1 25 Z M 219.3 64.1 C 224.4 64.1 228.7 62.3 232.2 58.8 C 235.7 55.3 237.4 51.1 237.4 46 C 237.4 40.9 235.7 36.6 232.2 33.2 C 228.7 29.7 224.4 27.9 219.3 27.9 C 214.1 27.9 209.8 29.7 206.3 33.2 C 202.7 36.6 200.9 40.9 200.9 46 C 200.9 51.1 202.7 55.3 206.3 58.8 C 209.8 62.3 214.1 64.1 219.3 64.1 Z M 285.4 25.5 L 285.4 66.5 L 282.8 66.5 L 251.7 30.7 L 251.7 66.5 L 248.6 66.5 L 248.6 25.5 L 251.2 25.5 L 282.3 61.3 L 282.3 25.5 L 285.4 25.5 Z M 304.7 25 C 307.8 25 311 25.9 314.1 27.6 C 314.1 27.6 314.1 31.1 314.1 31.1 C 310.6 29 307.5 27.9 305 27.9 C 302.5 27.9 300.4 28.7 298.8 30.2 C 297.1 31.7 296.3 33.5 296.3 35.7 C 296.3 37.3 296.8 38.7 297.8 40 C 298.7 41.3 300.8 42.5 303.9 43.7 C 307 44.8 309.3 45.8 310.7 46.6 C 312.1 47.4 313.3 48.5 314.3 50 C 315.3 51.5 315.8 53.4 315.8 55.8 C 315.8 58.9 314.7 61.6 312.4 63.7 C 310.1 65.9 307.2 67 303.9 67 C 300.5 67 297 65.8 293.4 63.4 C 293.4 63.4 293.4 59.7 293.4 59.7 C 297.4 62.6 300.8 64.1 303.8 64.1 C 306.2 64.1 308.2 63.3 309.9 61.7 C 311.6 60.1 312.4 58.2 312.4 55.9 C 312.4 54.2 311.9 52.6 310.8 51.2 C 309.8 49.8 307.7 48.5 304.5 47.3 C 301.4 46.1 299.1 45.1 297.8 44.4 C 296.4 43.6 295.3 42.6 294.3 41.2 C 293.4 39.8 292.9 38 292.9 35.9 C 292.9 32.9 294 30.3 296.3 28.2 C 298.6 26.1 301.4 25 304.7 25 C 304.7 25 304.7 25 304.7 25 Z M 352.2 25.2 L 371.2 66.5 L 367.8 66.5 L 361.4 52.3 L 341.4 52.3 L 334.9 66.5 L 331.6 66.5 L 350.5 25.2 L 352.2 25.2 Z M 360.2 49.7 L 351.3 30.4 L 342.6 49.7 L 360.2 49.7 Z M 392.8 25 C 397.4 25 402.2 26.1 407.2 28.4 C 407.2 28.4 407.2 31.9 407.2 31.9 C 402.2 29.2 397.4 27.9 392.6 27.9 C 387.5 27.9 383.3 29.7 379.9 33.1 C 376.4 36.6 374.7 40.9 374.7 46.1 C 374.7 51.3 376.5 55.6 379.9 59 C 383.3 62.4 387.7 64.1 393 64.1 C 397.5 64.1 402.4 62.7 407.6 59.9 C 407.6 59.9 407.6 63.1 407.6 63.1 C 402.8 65.7 397.9 67 393.1 67 C 386.9 67 381.7 65 377.5 61 C 373.4 57 371.3 52 371.3 46.1 C 371.3 40.1 373.4 35.1 377.7 31 C 381.9 27 387 25 392.8 25 C 392.8 25 392.8 25 392.8 25 Z M 413.7 25.5 C 413.7 25.5 424.22 25.53 424.2 25.5 C 428.6 25.5 432 26.5 434.3 28.4 C 436.6 30.3 437.8 32.9 437.8 36.1 C 437.8 40.8 435.2 44.2 430 46.1 C 431.3 46.7 433.2 48.8 435.4 52.3 C 435.44 52.3 444.7 66.5 444.7 66.5 L 441 66.5 C 441 66.5 433.82 55.24 433.8 55.2 C 431.4 51.5 429.6 49.1 428.3 48.2 C 426.9 47.3 425 46.8 422.4 46.8 C 422.43 46.83 416.9 46.8 416.9 46.8 L 416.9 66.5 L 413.7 66.5 L 413.7 25.5 Z M 416.9 28.2 L 416.9 44.2 C 416.9 44.2 423.69 44.19 423.7 44.2 C 427.1 44.2 429.8 43.5 431.6 42.1 C 433.4 40.7 434.4 38.7 434.4 36.2 C 434.4 33.6 433.4 31.7 431.6 30.3 C 429.7 28.9 427.1 28.2 423.6 28.2 C 423.57 28.16 416.9 28.2 416.9 28.2 Z M 467.1 25 C 473.2 25 478.3 27 482.5 31.1 C 486.7 35.2 488.8 40.1 488.8 46 C 488.8 51.8 486.7 56.8 482.5 60.9 C 478.3 64.9 473.2 67 467.1 67 C 461.1 67 456 64.9 451.8 60.9 C 447.6 56.8 445.5 51.8 445.5 46 C 445.5 40.1 447.6 35.2 451.8 31.1 C 456 27 461.1 25 467.1 25 Z M 467.3 64.1 C 472.4 64.1 476.7 62.3 480.2 58.8 C 483.7 55.3 485.4 51.1 485.4 46 C 485.4 40.9 483.7 36.6 480.2 33.2 C 476.7 29.7 472.4 27.9 467.3 27.9 C 462.1 27.9 457.8 29.7 454.3 33.2 C 450.7 36.6 448.9 40.9 448.9 46 C 448.9 51.1 450.7 55.3 454.3 58.8 C 457.8 62.3 462.1 64.1 467.3 64.1 Z M 506.4 25 C 509.6 25 512.7 25.9 515.9 27.6 C 515.9 27.6 515.9 31.1 515.9 31.1 C 512.3 29 509.2 27.9 506.7 27.9 C 504.2 27.9 502.2 28.7 500.5 30.2 C 498.9 31.7 498 33.5 498 35.7 C 498 37.3 498.5 38.7 499.5 40 C 500.5 41.3 502.5 42.5 505.6 43.7 C 508.7 44.8 511 45.8 512.4 46.6 C 513.9 47.4 515.1 48.5 516.1 50 C 517.1 51.5 517.6 53.4 517.6 55.8 C 517.6 58.9 516.4 61.6 514.1 63.7 C 511.8 65.9 509 67 505.7 67 C 502.3 67 498.8 65.8 495.2 63.4 C 495.2 63.4 495.2 59.7 495.2 59.7 C 499.1 62.6 502.6 64.1 505.5 64.1 C 507.9 64.1 510 63.3 511.6 61.7 C 513.3 60.1 514.1 58.2 514.1 55.9 C 514.1 54.2 513.6 52.6 512.6 51.2 C 511.5 49.8 509.4 48.5 506.3 47.3 C 503.1 46.1 500.9 45.1 499.5 44.4 C 498.1 43.6 497 42.6 496 41.2 C 495.1 39.8 494.6 38 494.6 35.9 C 494.6 32.9 495.8 30.3 498.1 28.2 C 500.4 26.1 503.2 25 506.4 25 C 506.4 25 506.4 25 506.4 25 Z M 534.6 25 C 537.7 25 540.9 25.9 544 27.6 C 544 27.6 544 31.1 544 31.1 C 540.5 29 537.4 27.9 534.8 27.9 C 532.4 27.9 530.3 28.7 528.7 30.2 C 527 31.7 526.2 33.5 526.2 35.7 C 526.2 37.3 526.7 38.7 527.7 40 C 528.6 41.3 530.7 42.5 533.8 43.7 C 536.9 44.8 539.2 45.8 540.6 46.6 C 542 47.4 543.2 48.5 544.2 50 C 545.2 51.5 545.7 53.4 545.7 55.8 C 545.7 58.9 544.6 61.6 542.3 63.7 C 540 65.9 537.1 67 533.8 67 C 530.4 67 526.9 65.8 523.3 63.4 C 523.3 63.4 523.3 59.7 523.3 59.7 C 527.3 62.6 530.7 64.1 533.6 64.1 C 536.1 64.1 538.1 63.3 539.8 61.7 C 541.5 60.1 542.3 58.2 542.3 55.9 C 542.3 54.2 541.8 52.6 540.7 51.2 C 539.7 49.8 537.6 48.5 534.4 47.3 C 531.3 46.1 529 45.1 527.7 44.4 C 526.3 43.6 525.1 42.6 524.2 41.2 C 523.2 39.8 522.8 38 522.8 35.9 C 522.8 32.9 523.9 30.3 526.2 28.2 C 528.5 26.1 531.3 25 534.6 25 C 534.6 25 534.6 25 534.6 25 Z M 591.9 25.5 L 574.8 66.9 L 573.8 66.9 L 556.6 25.5 L 559.8 25.5 L 574.3 60.2 L 588.7 25.5 L 591.9 25.5 Z M 609.4 25.2 L 628.3 66.5 L 625 66.5 L 618.5 52.3 L 598.5 52.3 L 592 66.5 L 588.7 66.5 L 607.6 25.2 L 609.4 25.2 Z M 617.3 49.7 L 608.5 30.4 L 599.7 49.7 L 617.3 49.7 Z M 633.3 25.5 C 633.3 25.5 643.74 25.53 643.7 25.5 C 648.1 25.5 651.5 26.5 653.8 28.4 C 656.1 30.3 657.3 32.9 657.3 36.1 C 657.3 40.8 654.7 44.2 649.5 46.1 C 650.9 46.7 652.7 48.8 655 52.3 C 654.96 52.3 664.2 66.5 664.2 66.5 L 660.5 66.5 C 660.5 66.5 653.34 55.24 653.3 55.2 C 651 51.5 649.1 49.1 647.8 48.2 C 646.5 47.3 644.5 46.8 642 46.8 C 641.95 46.83 636.4 46.8 636.4 46.8 L 636.4 66.5 L 633.3 66.5 L 633.3 25.5 Z M 636.4 28.2 L 636.4 44.2 C 636.4 44.2 643.21 44.19 643.2 44.2 C 646.7 44.2 649.3 43.5 651.1 42.1 C 653 40.7 653.9 38.7 653.9 36.2 C 653.9 33.6 652.9 31.7 651.1 30.3 C 649.2 28.9 646.6 28.2 643.1 28.2 C 643.1 28.16 636.4 28.2 636.4 28.2 Z M 670.8 25.5 L 670.8 66.5 L 667.6 66.5 L 667.6 25.5 L 670.8 25.5 Z M 700 25 C 706.1 25 711.2 27 715.4 31.1 C 719.7 35.2 721.8 40.1 721.8 46 C 721.8 51.8 719.7 56.8 715.4 60.9 C 711.2 64.9 706.1 67 700 67 C 694 67 688.9 64.9 684.7 60.9 C 680.5 56.8 678.4 51.8 678.4 46 C 678.4 40.1 680.5 35.2 684.7 31.1 C 688.9 27 694 25 700 25 Z M 700.2 64.1 C 705.3 64.1 709.6 62.3 713.1 58.8 C 716.6 55.3 718.3 51.1 718.3 46 C 718.3 40.9 716.6 36.6 713.1 33.2 C 709.6 29.7 705.3 27.9 700.2 27.9 C 695 27.9 690.7 29.7 687.2 33.2 C 683.6 36.6 681.9 40.9 681.9 46 C 681.9 51.1 683.6 55.3 687.2 58.8 C 690.7 62.3 695 64.1 700.2 64.1 Z M 759.7 25.5 L 762.9 25.5 C 762.9 25.5 762.86 47.85 762.9 47.9 C 762.9 54 761.3 58.7 758.1 62 C 754.9 65.3 750.8 67 745.7 67 C 740.7 67 736.6 65.3 733.4 62.1 C 730.2 58.8 728.6 54.3 728.6 48.6 C 728.61 48.58 728.6 25.5 728.6 25.5 L 731.8 25.5 C 731.8 25.5 731.81 48.47 731.8 48.5 C 731.8 53.3 733.1 57.2 735.7 59.9 C 738.3 62.7 741.6 64.1 745.7 64.1 C 749.9 64.1 753.2 62.7 755.8 59.9 C 758.4 57.1 759.7 53.1 759.7 48 C 759.7 48.03 759.7 25.5 759.7 25.5 Z M 781.2 25 C 784.4 25 787.5 25.9 790.7 27.6 C 790.7 27.6 790.7 31.1 790.7 31.1 C 787.1 29 784.1 27.9 781.5 27.9 C 779 27.9 777 28.7 775.3 30.2 C 773.7 31.7 772.9 33.5 772.9 35.7 C 772.9 37.3 773.3 38.7 774.3 40 C 775.3 41.3 777.3 42.5 780.4 43.7 C 783.5 44.8 785.8 45.8 787.2 46.6 C 788.7 47.4 789.9 48.5 790.9 50 C 791.9 51.5 792.4 53.4 792.4 55.8 C 792.4 58.9 791.2 61.6 788.9 63.7 C 786.6 65.9 783.8 67 780.5 67 C 777.1 67 773.6 65.8 770 63.4 C 770 63.4 770 59.7 770 59.7 C 773.9 62.6 777.4 64.1 780.3 64.1 C 782.7 64.1 784.8 63.3 786.4 61.7 C 788.1 60.1 788.9 58.2 788.9 55.9 C 788.9 54.2 788.4 52.6 787.4 51.2 C 786.3 49.8 784.2 48.5 781.1 47.3 C 777.9 46.1 775.7 45.1 774.3 44.4 C 772.9 43.6 771.8 42.6 770.8 41.2 C 769.9 39.8 769.4 38 769.4 35.9 C 769.4 32.9 770.6 30.3 772.9 28.2 C 775.2 26.1 778 25 781.2 25 C 781.2 25 781.2 25 781.2 25 Z " stroke="none" fill="#000"/>  </g></svg>