<?xml version="1.0" standalone="no"?><!DOCTYPE svg PUBLIC "-//W3C//DTD SVG 1.1//EN" "http://www.w3.org/Graphics/SVG/1.1/DTD/svg11.dtd"><svg xmlns="http://www.w3.org/2000/svg" version="1.1" width="298px" height="106.8px" viewBox="0 -1 298 106.8" style="top:-1px">  <desc>sectors</desc>  <defs/>  <g id="Polygon62702">    <path d="M 14.5 25 C 17.7 25 20.9 25.9 24 27.6 C 24 27.6 24 31.1 24 31.1 C 20.4 29 17.4 27.9 14.8 27.9 C 12.4 27.9 10.3 28.7 8.7 30.2 C 7 31.7 6.2 33.5 6.2 35.7 C 6.2 37.3 6.7 38.7 7.6 40 C 8.6 41.3 10.7 42.5 13.8 43.7 C 16.9 44.8 19.1 45.8 20.6 46.6 C 22 47.4 23.2 48.5 24.2 50 C 25.2 51.5 25.7 53.4 25.7 55.8 C 25.7 58.9 24.5 61.6 22.2 63.7 C 19.9 65.9 17.1 67 13.8 67 C 10.4 67 6.9 65.8 3.3 63.4 C 3.3 63.4 3.3 59.7 3.3 59.7 C 7.3 62.6 10.7 64.1 13.6 64.1 C 16 64.1 18.1 63.3 19.8 61.7 C 21.4 60.1 22.3 58.2 22.3 55.9 C 22.3 54.2 21.7 52.6 20.7 51.2 C 19.7 49.8 17.6 48.5 14.4 47.3 C 11.3 46.1 9 45.1 7.6 44.4 C 6.3 43.6 5.1 42.6 4.2 41.2 C 3.2 39.8 2.8 38 2.8 35.9 C 2.8 32.9 3.9 30.3 6.2 28.2 C 8.5 26.1 11.3 25 14.5 25 C 14.5 25 14.5 25 14.5 25 Z M 55.3 25.5 L 55.3 28.2 L 36.1 28.2 L 36.1 44.5 L 54.8 44.5 L 54.8 47.2 L 36.1 47.2 L 36.1 63.8 L 55.8 63.8 L 55.8 66.5 L 33 66.5 L 33 25.5 L 55.3 25.5 Z M 82 25 C 86.6 25 91.4 26.1 96.4 28.4 C 96.4 28.4 96.4 31.9 96.4 31.9 C 91.4 29.2 86.6 27.9 81.8 27.9 C 76.7 27.9 72.5 29.7 69.1 33.1 C 65.6 36.6 63.9 40.9 63.9 46.1 C 63.9 51.3 65.6 55.6 69.1 59 C 72.5 62.4 76.9 64.1 82.2 64.1 C 86.7 64.1 91.5 62.7 96.8 59.9 C 96.8 59.9 96.8 63.1 96.8 63.1 C 92 65.7 87.1 67 82.3 67 C 76.1 67 70.9 65 66.7 61 C 62.6 57 60.5 52 60.5 46.1 C 60.5 40.1 62.6 35.1 66.9 31 C 71.1 27 76.1 25 82 25 C 82 25 82 25 82 25 Z M 132.3 25.5 L 132.3 28.2 L 117 28.2 L 117 66.5 L 113.8 66.5 L 113.8 28.2 L 98.4 28.2 L 98.4 25.5 L 132.3 25.5 Z M 152.7 25 C 158.8 25 163.9 27 168.1 31.1 C 172.3 35.2 174.4 40.1 174.4 46 C 174.4 51.8 172.3 56.8 168.1 60.9 C 163.9 64.9 158.8 67 152.7 67 C 146.7 67 141.6 64.9 137.4 60.9 C 133.2 56.8 131.1 51.8 131.1 46 C 131.1 40.1 133.2 35.2 137.4 31.1 C 141.6 27 146.7 25 152.7 25 Z M 152.8 64.1 C 157.9 64.1 162.2 62.3 165.7 58.8 C 169.3 55.3 171 51.1 171 46 C 171 40.9 169.3 36.6 165.7 33.2 C 162.2 29.7 157.9 27.9 152.8 27.9 C 147.7 27.9 143.4 29.7 139.8 33.2 C 136.3 36.6 134.5 40.9 134.5 46 C 134.5 51.1 136.3 55.3 139.8 58.8 C 143.4 62.3 147.7 64.1 152.8 64.1 Z M 182.2 25.5 C 182.2 25.5 192.69 25.53 192.7 25.5 C 197.1 25.5 200.4 26.5 202.8 28.4 C 205.1 30.3 206.3 32.9 206.3 36.1 C 206.3 40.8 203.7 44.2 198.5 46.1 C 199.8 46.7 201.6 48.8 203.9 52.3 C 203.91 52.3 213.2 66.5 213.2 66.5 L 209.4 66.5 C 209.4 66.5 202.29 55.24 202.3 55.2 C 199.9 51.5 198.1 49.1 196.7 48.2 C 195.4 47.3 193.5 46.8 190.9 46.8 C 190.9 46.83 185.4 46.8 185.4 46.8 L 185.4 66.5 L 182.2 66.5 L 182.2 25.5 Z M 185.4 28.2 L 185.4 44.2 C 185.4 44.2 192.16 44.19 192.2 44.2 C 195.6 44.2 198.3 43.5 200.1 42.1 C 201.9 40.7 202.8 38.7 202.8 36.2 C 202.8 33.6 201.9 31.7 200 30.3 C 198.2 28.9 195.5 28.2 192 28.2 C 192.04 28.16 185.4 28.2 185.4 28.2 Z M 226.4 25 C 229.6 25 232.7 25.9 235.8 27.6 C 235.8 27.6 235.8 31.1 235.8 31.1 C 232.3 29 229.2 27.9 226.7 27.9 C 224.2 27.9 222.2 28.7 220.5 30.2 C 218.9 31.7 218 33.5 218 35.7 C 218 37.3 218.5 38.7 219.5 40 C 220.5 41.3 222.5 42.5 225.6 43.7 C 228.7 44.8 231 45.8 232.4 46.6 C 233.8 47.4 235 48.5 236 50 C 237 51.5 237.5 53.4 237.5 55.8 C 237.5 58.9 236.4 61.6 234.1 63.7 C 231.8 65.9 229 67 225.6 67 C 222.2 67 218.7 65.8 215.2 63.4 C 215.2 63.4 215.2 59.7 215.2 59.7 C 219.1 62.6 222.6 64.1 225.5 64.1 C 227.9 64.1 229.9 63.3 231.6 61.7 C 233.3 60.1 234.1 58.2 234.1 55.9 C 234.1 54.2 233.6 52.6 232.6 51.2 C 231.5 49.8 229.4 48.5 226.3 47.3 C 223.1 46.1 220.8 45.1 219.5 44.4 C 218.1 43.6 217 42.6 216 41.2 C 215.1 39.8 214.6 38 214.6 35.9 C 214.6 32.9 215.8 30.3 218.1 28.2 C 220.4 26.1 223.1 25 226.4 25 C 226.4 25 226.4 25 226.4 25 Z " stroke="none" fill="#000"/>  </g></svg>