<?xml version="1.0" standalone="no"?><!DOCTYPE svg PUBLIC "-//W3C//DTD SVG 1.1//EN" "http://www.w3.org/Graphics/SVG/1.1/DTD/svg11.dtd"><svg xmlns="http://www.w3.org/2000/svg" version="1.1" width="211px" height="99.5px" viewBox="0 0 211 99.5">  <desc>When capacity, resources and capabilities are stretched, we provide the people and skills you need to succeed.</desc>  <defs/>  <g id="Polygon68124">    <path d="M 82.2 71.8 C 82.2 71.8 83.2 71.7 83.2 71.7 C 83.3 72.1 83.4 72.4 83.7 72.6 C 84 72.8 84.3 72.9 84.8 72.9 C 85.3 72.9 85.6 72.9 85.9 72.7 C 86.1 72.5 86.2 72.2 86.2 72 C 86.2 71.7 86.1 71.6 85.9 71.4 C 85.8 71.3 85.4 71.2 84.8 71.1 C 84.1 70.9 83.6 70.7 83.3 70.6 C 83 70.4 82.8 70.3 82.6 70 C 82.5 69.8 82.4 69.5 82.4 69.2 C 82.4 68.9 82.4 68.7 82.6 68.4 C 82.7 68.2 82.9 68 83.1 67.9 C 83.2 67.7 83.5 67.6 83.7 67.6 C 84 67.5 84.3 67.4 84.6 67.4 C 85.1 67.4 85.5 67.5 85.9 67.6 C 86.2 67.8 86.5 68 86.7 68.2 C 86.9 68.4 87 68.7 87 69.1 C 87 69.1 86 69.3 86 69.3 C 86 69 85.9 68.7 85.6 68.5 C 85.4 68.4 85.1 68.3 84.7 68.3 C 84.2 68.3 83.9 68.4 83.7 68.5 C 83.5 68.7 83.4 68.9 83.4 69.1 C 83.4 69.2 83.4 69.3 83.5 69.4 C 83.6 69.5 83.7 69.6 83.9 69.7 C 84 69.7 84.3 69.8 84.8 70 C 85.5 70.2 86.1 70.3 86.3 70.4 C 86.6 70.6 86.9 70.8 87 71 C 87.2 71.2 87.3 71.5 87.3 71.9 C 87.3 72.2 87.2 72.5 87 72.8 C 86.8 73.1 86.5 73.4 86.1 73.5 C 85.7 73.7 85.3 73.8 84.8 73.8 C 84 73.8 83.4 73.6 83 73.3 C 82.6 73 82.3 72.5 82.2 71.8 Z M 92.5 73.7 C 92.5 73.7 92.48 72.76 92.5 72.8 C 92 73.5 91.4 73.8 90.5 73.8 C 90.2 73.8 89.9 73.7 89.5 73.6 C 89.2 73.5 89 73.3 88.9 73.1 C 88.7 72.9 88.6 72.6 88.5 72.3 C 88.5 72.1 88.5 71.8 88.5 71.3 C 88.47 71.34 88.5 67.6 88.5 67.6 L 89.5 67.6 C 89.5 67.6 89.5 70.95 89.5 70.9 C 89.5 71.5 89.5 71.8 89.6 72 C 89.6 72.3 89.8 72.5 90 72.7 C 90.2 72.8 90.4 72.9 90.8 72.9 C 91.1 72.9 91.4 72.8 91.6 72.7 C 91.9 72.5 92.1 72.3 92.2 72 C 92.3 71.7 92.4 71.4 92.4 70.8 C 92.37 70.83 92.4 67.6 92.4 67.6 L 93.4 67.6 L 93.4 73.7 L 92.5 73.7 Z M 99 71.4 C 99 71.4 100 71.6 100 71.6 C 99.9 72.3 99.6 72.8 99.2 73.2 C 98.7 73.6 98.1 73.8 97.5 73.8 C 96.6 73.8 96 73.5 95.5 73 C 95 72.4 94.7 71.7 94.7 70.6 C 94.7 70 94.8 69.4 95 68.9 C 95.2 68.4 95.6 68.1 96 67.8 C 96.5 67.6 97 67.4 97.5 67.4 C 98.1 67.4 98.7 67.6 99.1 67.9 C 99.5 68.3 99.8 68.7 99.9 69.4 C 99.9 69.4 98.9 69.5 98.9 69.5 C 98.8 69.1 98.6 68.8 98.4 68.6 C 98.2 68.4 97.9 68.3 97.5 68.3 C 97 68.3 96.6 68.5 96.2 68.8 C 95.9 69.2 95.8 69.8 95.8 70.6 C 95.8 71.4 95.9 72 96.2 72.4 C 96.5 72.8 97 72.9 97.5 72.9 C 97.9 72.9 98.2 72.8 98.5 72.6 C 98.7 72.3 98.9 71.9 99 71.4 Z M 104.9 71.4 C 104.9 71.4 105.9 71.6 105.9 71.6 C 105.8 72.3 105.5 72.8 105 73.2 C 104.6 73.6 104 73.8 103.3 73.8 C 102.5 73.8 101.8 73.5 101.3 73 C 100.8 72.4 100.6 71.7 100.6 70.6 C 100.6 70 100.7 69.4 100.9 68.9 C 101.1 68.4 101.4 68.1 101.9 67.8 C 102.3 67.6 102.8 67.4 103.3 67.4 C 104 67.4 104.5 67.6 105 67.9 C 105.4 68.3 105.7 68.7 105.8 69.4 C 105.8 69.4 104.8 69.5 104.8 69.5 C 104.7 69.1 104.5 68.8 104.3 68.6 C 104 68.4 103.7 68.3 103.4 68.3 C 102.9 68.3 102.4 68.5 102.1 68.8 C 101.8 69.2 101.6 69.8 101.6 70.6 C 101.6 71.4 101.8 72 102.1 72.4 C 102.4 72.8 102.8 72.9 103.3 72.9 C 103.7 72.9 104.1 72.8 104.3 72.6 C 104.6 72.3 104.8 71.9 104.9 71.4 Z M 110.9 71.7 C 110.9 71.7 112 71.8 112 71.8 C 111.8 72.5 111.5 72.9 111 73.3 C 110.6 73.6 110 73.8 109.3 73.8 C 108.4 73.8 107.7 73.5 107.2 73 C 106.7 72.4 106.4 71.7 106.4 70.7 C 106.4 69.6 106.7 68.8 107.2 68.3 C 107.7 67.7 108.4 67.4 109.2 67.4 C 110.1 67.4 110.7 67.7 111.2 68.3 C 111.8 68.8 112 69.6 112 70.6 C 112 70.7 112 70.8 112 70.9 C 112 70.9 107.5 70.9 107.5 70.9 C 107.5 71.5 107.7 72.1 108 72.4 C 108.4 72.8 108.8 72.9 109.3 72.9 C 109.7 72.9 110 72.8 110.3 72.6 C 110.5 72.5 110.8 72.1 110.9 71.7 Z M 107.5 70 C 107.5 70 110.9 70 110.9 70 C 110.9 69.5 110.8 69.1 110.5 68.9 C 110.2 68.5 109.8 68.3 109.3 68.3 C 108.8 68.3 108.4 68.4 108.1 68.8 C 107.7 69.1 107.6 69.5 107.5 70 Z M 117.4 71.7 C 117.4 71.7 118.5 71.8 118.5 71.8 C 118.3 72.5 118 72.9 117.6 73.3 C 117.1 73.6 116.5 73.8 115.8 73.8 C 114.9 73.8 114.2 73.5 113.7 73 C 113.2 72.4 112.9 71.7 112.9 70.7 C 112.9 69.6 113.2 68.8 113.7 68.3 C 114.3 67.7 114.9 67.4 115.8 67.4 C 116.6 67.4 117.3 67.7 117.8 68.3 C 118.3 68.8 118.5 69.6 118.5 70.6 C 118.5 70.7 118.5 70.8 118.5 70.9 C 118.5 70.9 114 70.9 114 70.9 C 114 71.5 114.2 72.1 114.6 72.4 C 114.9 72.8 115.3 72.9 115.8 72.9 C 116.2 72.9 116.5 72.8 116.8 72.6 C 117.1 72.5 117.3 72.1 117.4 71.7 Z M 114.1 70 C 114.1 70 117.5 70 117.5 70 C 117.4 69.5 117.3 69.1 117.1 68.9 C 116.7 68.5 116.3 68.3 115.8 68.3 C 115.3 68.3 114.9 68.4 114.6 68.8 C 114.3 69.1 114.1 69.5 114.1 70 Z M 123.7 73.7 C 123.7 73.7 123.75 72.89 123.7 72.9 C 123.4 73.5 122.8 73.8 122 73.8 C 121.6 73.8 121.1 73.7 120.7 73.4 C 120.3 73.1 120 72.8 119.8 72.3 C 119.5 71.8 119.4 71.2 119.4 70.6 C 119.4 70 119.5 69.5 119.7 69 C 119.9 68.5 120.2 68.1 120.6 67.8 C 121 67.6 121.5 67.4 122 67.4 C 122.4 67.4 122.7 67.5 123 67.7 C 123.3 67.8 123.5 68 123.7 68.3 C 123.68 68.27 123.7 65.3 123.7 65.3 L 124.7 65.3 L 124.7 73.7 L 123.7 73.7 Z M 120.5 70.6 C 120.5 71.4 120.7 72 121 72.4 C 121.3 72.8 121.7 72.9 122.1 72.9 C 122.6 72.9 123 72.8 123.3 72.4 C 123.6 72 123.8 71.5 123.8 70.7 C 123.8 69.9 123.6 69.3 123.3 68.9 C 123 68.5 122.6 68.3 122.1 68.3 C 121.6 68.3 121.3 68.5 121 68.9 C 120.6 69.2 120.5 69.8 120.5 70.6 Z M 126.6 73.7 L 126.6 72.5 L 127.8 72.5 L 127.8 73.7 L 126.6 73.7 Z " stroke="none" fill="#fff"/>  </g>  <g id="Polygon68123">    <path d="M 22.5 58.7 C 22.6 58.7 22.7 58.7 22.9 58.7 C 22.9 58.7 23.1 59.6 23.1 59.6 C 22.8 59.6 22.5 59.7 22.3 59.7 C 21.9 59.7 21.6 59.6 21.4 59.5 C 21.2 59.4 21.1 59.2 21 59 C 20.9 58.8 20.8 58.4 20.8 57.8 C 20.84 57.8 20.8 54.3 20.8 54.3 L 20.1 54.3 L 20.1 53.5 L 20.8 53.5 L 20.8 52 L 21.9 51.4 L 21.9 53.5 L 22.9 53.5 L 22.9 54.3 L 21.9 54.3 C 21.9 54.3 21.87 57.85 21.9 57.9 C 21.9 58.1 21.9 58.3 21.9 58.4 C 22 58.5 22 58.6 22.1 58.6 C 22.2 58.7 22.3 58.7 22.5 58.7 C 22.5 58.7 22.5 58.7 22.5 58.7 Z M 23.9 59.6 L 23.9 51.2 L 24.9 51.2 C 24.9 51.2 24.94 54.19 24.9 54.2 C 25.4 53.6 26 53.4 26.8 53.4 C 27.2 53.4 27.6 53.4 27.9 53.6 C 28.3 53.8 28.5 54 28.7 54.4 C 28.8 54.7 28.9 55.1 28.9 55.7 C 28.87 55.72 28.9 59.6 28.9 59.6 L 27.8 59.6 C 27.8 59.6 27.84 55.72 27.8 55.7 C 27.8 55.2 27.7 54.8 27.5 54.6 C 27.3 54.4 27 54.2 26.6 54.2 C 26.2 54.2 26 54.3 25.7 54.5 C 25.4 54.6 25.2 54.9 25.1 55.1 C 25 55.4 24.9 55.8 24.9 56.2 C 24.94 56.25 24.9 59.6 24.9 59.6 L 23.9 59.6 Z M 34.6 57.6 C 34.6 57.6 35.7 57.8 35.7 57.8 C 35.5 58.4 35.2 58.9 34.7 59.2 C 34.3 59.5 33.7 59.7 33 59.7 C 32.1 59.7 31.4 59.4 30.9 58.9 C 30.4 58.3 30.1 57.6 30.1 56.6 C 30.1 55.6 30.4 54.8 30.9 54.2 C 31.4 53.6 32.1 53.4 32.9 53.4 C 33.8 53.4 34.4 53.6 34.9 54.2 C 35.4 54.7 35.7 55.5 35.7 56.5 C 35.7 56.6 35.7 56.7 35.7 56.8 C 35.7 56.8 31.2 56.8 31.2 56.8 C 31.2 57.5 31.4 58 31.7 58.3 C 32.1 58.7 32.5 58.9 33 58.9 C 33.4 58.9 33.7 58.8 34 58.6 C 34.2 58.4 34.4 58.1 34.6 57.6 Z M 31.2 56 C 31.2 56 34.6 56 34.6 56 C 34.6 55.4 34.4 55.1 34.2 54.8 C 33.9 54.4 33.5 54.2 32.9 54.2 C 32.5 54.2 32.1 54.4 31.8 54.7 C 31.4 55 31.3 55.4 31.2 56 Z M 40.2 61.9 L 40.2 53.5 L 41.2 53.5 C 41.2 53.5 41.16 54.28 41.2 54.3 C 41.4 54 41.6 53.7 41.9 53.6 C 42.2 53.4 42.5 53.4 42.9 53.4 C 43.4 53.4 43.9 53.5 44.3 53.8 C 44.7 54 45 54.4 45.2 54.9 C 45.4 55.4 45.5 55.9 45.5 56.5 C 45.5 57.1 45.4 57.7 45.2 58.2 C 44.9 58.7 44.6 59.1 44.2 59.3 C 43.8 59.6 43.3 59.7 42.9 59.7 C 42.5 59.7 42.2 59.6 41.9 59.5 C 41.7 59.4 41.4 59.2 41.3 58.9 C 41.26 58.95 41.3 61.9 41.3 61.9 L 40.2 61.9 Z M 41.2 56.6 C 41.2 57.4 41.3 57.9 41.6 58.3 C 42 58.7 42.3 58.9 42.8 58.9 C 43.2 58.9 43.6 58.7 44 58.3 C 44.3 57.9 44.5 57.3 44.5 56.5 C 44.5 55.7 44.3 55.1 44 54.7 C 43.7 54.4 43.3 54.2 42.8 54.2 C 42.4 54.2 42 54.4 41.7 54.8 C 41.3 55.2 41.2 55.8 41.2 56.6 Z M 50.9 57.6 C 50.9 57.6 52 57.8 52 57.8 C 51.8 58.4 51.5 58.9 51 59.2 C 50.6 59.5 50 59.7 49.3 59.7 C 48.4 59.7 47.7 59.4 47.2 58.9 C 46.7 58.3 46.4 57.6 46.4 56.6 C 46.4 55.6 46.7 54.8 47.2 54.2 C 47.7 53.6 48.4 53.4 49.2 53.4 C 50.1 53.4 50.7 53.6 51.2 54.2 C 51.8 54.7 52 55.5 52 56.5 C 52 56.6 52 56.7 52 56.8 C 52 56.8 47.5 56.8 47.5 56.8 C 47.5 57.5 47.7 58 48 58.3 C 48.4 58.7 48.8 58.9 49.3 58.9 C 49.7 58.9 50 58.8 50.3 58.6 C 50.5 58.4 50.8 58.1 50.9 57.6 Z M 47.5 56 C 47.5 56 50.9 56 50.9 56 C 50.9 55.4 50.8 55.1 50.5 54.8 C 50.2 54.4 49.8 54.2 49.3 54.2 C 48.8 54.2 48.4 54.4 48.1 54.7 C 47.7 55 47.6 55.4 47.5 56 Z M 52.9 56.5 C 52.9 55.4 53.2 54.6 53.8 54 C 54.4 53.6 55 53.4 55.7 53.4 C 56.6 53.4 57.3 53.6 57.8 54.2 C 58.3 54.7 58.6 55.5 58.6 56.4 C 58.6 57.2 58.5 57.8 58.2 58.3 C 58 58.7 57.7 59.1 57.2 59.3 C 56.8 59.6 56.3 59.7 55.7 59.7 C 54.9 59.7 54.2 59.4 53.7 58.9 C 53.2 58.3 52.9 57.6 52.9 56.5 Z M 54 56.5 C 54 57.3 54.1 57.9 54.5 58.3 C 54.8 58.7 55.2 58.9 55.7 58.9 C 56.3 58.9 56.7 58.7 57 58.3 C 57.4 57.9 57.5 57.3 57.5 56.5 C 57.5 55.7 57.4 55.2 57 54.8 C 56.7 54.4 56.3 54.2 55.7 54.2 C 55.2 54.2 54.8 54.4 54.5 54.8 C 54.1 55.2 54 55.8 54 56.5 Z M 59.8 61.9 L 59.8 53.5 L 60.7 53.5 C 60.7 53.5 60.74 54.28 60.7 54.3 C 61 54 61.2 53.7 61.5 53.6 C 61.8 53.4 62.1 53.4 62.5 53.4 C 63 53.4 63.5 53.5 63.9 53.8 C 64.3 54 64.6 54.4 64.8 54.9 C 65 55.4 65.1 55.9 65.1 56.5 C 65.1 57.1 65 57.7 64.7 58.2 C 64.5 58.7 64.2 59.1 63.8 59.3 C 63.3 59.6 62.9 59.7 62.4 59.7 C 62.1 59.7 61.8 59.6 61.5 59.5 C 61.2 59.4 61 59.2 60.8 58.9 C 60.83 58.95 60.8 61.9 60.8 61.9 L 59.8 61.9 Z M 60.7 56.6 C 60.7 57.4 60.9 57.9 61.2 58.3 C 61.5 58.7 61.9 58.9 62.4 58.9 C 62.8 58.9 63.2 58.7 63.5 58.3 C 63.9 57.9 64 57.3 64 56.5 C 64 55.7 63.9 55.1 63.6 54.7 C 63.2 54.4 62.9 54.2 62.4 54.2 C 62 54.2 61.6 54.4 61.2 54.8 C 60.9 55.2 60.7 55.8 60.7 56.6 Z M 66.3 59.6 L 66.3 51.2 L 67.3 51.2 L 67.3 59.6 L 66.3 59.6 Z M 73.1 57.6 C 73.1 57.6 74.2 57.8 74.2 57.8 C 74 58.4 73.7 58.9 73.2 59.2 C 72.8 59.5 72.2 59.7 71.5 59.7 C 70.6 59.7 69.9 59.4 69.4 58.9 C 68.9 58.3 68.6 57.6 68.6 56.6 C 68.6 55.6 68.9 54.8 69.4 54.2 C 69.9 53.6 70.6 53.4 71.4 53.4 C 72.2 53.4 72.9 53.6 73.4 54.2 C 73.9 54.7 74.2 55.5 74.2 56.5 C 74.2 56.6 74.2 56.7 74.2 56.8 C 74.2 56.8 69.7 56.8 69.7 56.8 C 69.7 57.5 69.9 58 70.2 58.3 C 70.6 58.7 71 58.9 71.5 58.9 C 71.9 58.9 72.2 58.8 72.5 58.6 C 72.7 58.4 72.9 58.1 73.1 57.6 Z M 69.7 56 C 69.7 56 73.1 56 73.1 56 C 73.1 55.4 72.9 55.1 72.7 54.8 C 72.4 54.4 72 54.2 71.4 54.2 C 71 54.2 70.6 54.4 70.2 54.7 C 69.9 55 69.7 55.4 69.7 56 Z M 82.9 59.6 C 82.8 59.4 82.7 59.1 82.7 58.8 C 82.3 59.2 81.9 59.4 81.6 59.5 C 81.2 59.6 80.9 59.7 80.4 59.7 C 79.8 59.7 79.3 59.6 78.9 59.2 C 78.5 58.9 78.4 58.5 78.4 58 C 78.4 57.7 78.4 57.4 78.6 57.2 C 78.7 56.9 78.9 56.7 79.1 56.6 C 79.3 56.4 79.6 56.3 79.8 56.2 C 80 56.2 80.4 56.1 80.8 56.1 C 81.6 56 82.2 55.9 82.6 55.7 C 82.6 55.6 82.6 55.5 82.6 55.4 C 82.6 55 82.5 54.7 82.3 54.6 C 82.1 54.3 81.7 54.2 81.1 54.2 C 80.7 54.2 80.3 54.3 80.1 54.5 C 79.8 54.6 79.7 54.9 79.6 55.4 C 79.6 55.4 78.5 55.2 78.5 55.2 C 78.6 54.8 78.8 54.4 79 54.2 C 79.2 53.9 79.5 53.7 79.9 53.6 C 80.3 53.4 80.8 53.4 81.3 53.4 C 81.8 53.4 82.2 53.4 82.6 53.5 C 82.9 53.7 83.1 53.8 83.3 54 C 83.4 54.2 83.5 54.4 83.6 54.7 C 83.6 54.9 83.6 55.2 83.6 55.7 C 83.6 55.7 83.6 57 83.6 57 C 83.6 58 83.7 58.6 83.7 58.8 C 83.8 59.1 83.8 59.3 84 59.6 C 83.97 59.58 82.9 59.6 82.9 59.6 C 82.9 59.6 82.9 59.58 82.9 59.6 Z M 82.6 56.5 C 82.2 56.7 81.7 56.8 80.9 56.9 C 80.5 57 80.2 57 80 57.1 C 79.8 57.2 79.7 57.3 79.6 57.5 C 79.5 57.6 79.5 57.8 79.5 57.9 C 79.5 58.2 79.6 58.4 79.8 58.6 C 80 58.8 80.3 58.9 80.7 58.9 C 81.1 58.9 81.4 58.8 81.8 58.6 C 82.1 58.5 82.3 58.2 82.4 57.9 C 82.5 57.7 82.6 57.4 82.6 56.9 C 82.6 56.9 82.6 56.5 82.6 56.5 Z M 85.2 59.6 L 85.2 53.5 L 86.2 53.5 C 86.2 53.5 86.17 54.36 86.2 54.4 C 86.6 53.7 87.3 53.4 88.1 53.4 C 88.5 53.4 88.8 53.4 89.1 53.6 C 89.4 53.7 89.7 53.9 89.8 54.1 C 90 54.3 90.1 54.5 90.1 54.8 C 90.2 55 90.2 55.4 90.2 55.8 C 90.19 55.84 90.2 59.6 90.2 59.6 L 89.2 59.6 C 89.2 59.6 89.16 55.88 89.2 55.9 C 89.2 55.5 89.1 55.1 89 54.9 C 89 54.7 88.8 54.6 88.6 54.4 C 88.4 54.3 88.2 54.2 87.9 54.2 C 87.5 54.2 87.1 54.4 86.8 54.7 C 86.4 54.9 86.3 55.5 86.3 56.3 C 86.28 56.25 86.3 59.6 86.3 59.6 L 85.2 59.6 Z M 95.7 59.6 C 95.7 59.6 95.72 58.81 95.7 58.8 C 95.3 59.4 94.8 59.7 94 59.7 C 93.5 59.7 93.1 59.6 92.7 59.3 C 92.3 59 92 58.7 91.7 58.2 C 91.5 57.7 91.4 57.2 91.4 56.5 C 91.4 55.9 91.5 55.4 91.7 54.9 C 91.9 54.4 92.2 54 92.6 53.8 C 93 53.5 93.5 53.4 94 53.4 C 94.3 53.4 94.7 53.4 94.9 53.6 C 95.2 53.7 95.5 53.9 95.6 54.2 C 95.65 54.19 95.6 51.2 95.6 51.2 L 96.7 51.2 L 96.7 59.6 L 95.7 59.6 Z M 92.5 56.5 C 92.5 57.3 92.6 57.9 92.9 58.3 C 93.3 58.7 93.7 58.9 94.1 58.9 C 94.6 58.9 94.9 58.7 95.3 58.3 C 95.6 57.9 95.7 57.4 95.7 56.6 C 95.7 55.8 95.6 55.2 95.3 54.8 C 94.9 54.4 94.5 54.2 94.1 54.2 C 93.6 54.2 93.2 54.4 92.9 54.8 C 92.6 55.1 92.5 55.7 92.5 56.5 Z M 101.1 57.8 C 101.1 57.8 102.2 57.6 102.2 57.6 C 102.2 58 102.4 58.3 102.6 58.5 C 102.9 58.8 103.3 58.9 103.7 58.9 C 104.2 58.9 104.6 58.8 104.8 58.6 C 105 58.4 105.1 58.2 105.1 57.9 C 105.1 57.7 105 57.5 104.8 57.3 C 104.7 57.3 104.3 57.1 103.8 57 C 103 56.8 102.5 56.6 102.2 56.5 C 101.9 56.4 101.7 56.2 101.5 55.9 C 101.4 55.7 101.3 55.4 101.3 55.1 C 101.3 54.8 101.4 54.6 101.5 54.4 C 101.6 54.1 101.8 53.9 102 53.8 C 102.2 53.7 102.4 53.6 102.7 53.5 C 102.9 53.4 103.2 53.4 103.6 53.4 C 104 53.4 104.5 53.4 104.8 53.6 C 105.2 53.7 105.4 53.9 105.6 54.1 C 105.8 54.4 105.9 54.7 106 55.1 C 106 55.1 105 55.2 105 55.2 C 104.9 54.9 104.8 54.6 104.6 54.5 C 104.3 54.3 104 54.2 103.6 54.2 C 103.2 54.2 102.8 54.3 102.6 54.4 C 102.4 54.6 102.3 54.8 102.3 55 C 102.3 55.1 102.4 55.2 102.4 55.3 C 102.5 55.5 102.7 55.6 102.8 55.6 C 102.9 55.7 103.2 55.8 103.7 55.9 C 104.5 56.1 105 56.2 105.3 56.4 C 105.6 56.5 105.8 56.7 105.9 56.9 C 106.1 57.1 106.2 57.4 106.2 57.8 C 106.2 58.1 106.1 58.5 105.9 58.8 C 105.7 59.1 105.4 59.3 105 59.5 C 104.6 59.6 104.2 59.7 103.7 59.7 C 103 59.7 102.4 59.6 101.9 59.2 C 101.5 58.9 101.3 58.4 101.1 57.8 Z M 107.4 59.6 L 107.4 51.2 L 108.5 51.2 L 108.5 56 L 110.9 53.5 L 112.2 53.5 L 109.9 55.8 L 112.5 59.6 L 111.2 59.6 L 109.2 56.5 L 108.5 57.2 L 108.5 59.6 L 107.4 59.6 Z M 113.3 52.4 L 113.3 51.2 L 114.3 51.2 L 114.3 52.4 L 113.3 52.4 Z M 113.3 59.6 L 113.3 53.5 L 114.3 53.5 L 114.3 59.6 L 113.3 59.6 Z M 115.9 59.6 L 115.9 51.2 L 116.9 51.2 L 116.9 59.6 L 115.9 59.6 Z M 118.5 59.6 L 118.5 51.2 L 119.5 51.2 L 119.5 59.6 L 118.5 59.6 Z M 120.7 57.8 C 120.7 57.8 121.7 57.6 121.7 57.6 C 121.8 58 121.9 58.3 122.2 58.5 C 122.5 58.8 122.8 58.9 123.3 58.9 C 123.8 58.9 124.1 58.8 124.3 58.6 C 124.6 58.4 124.7 58.2 124.7 57.9 C 124.7 57.7 124.6 57.5 124.4 57.3 C 124.2 57.3 123.9 57.1 123.3 57 C 122.6 56.8 122.1 56.6 121.8 56.5 C 121.5 56.4 121.2 56.2 121.1 55.9 C 120.9 55.7 120.9 55.4 120.9 55.1 C 120.9 54.8 120.9 54.6 121.1 54.4 C 121.2 54.1 121.3 53.9 121.6 53.8 C 121.7 53.7 121.9 53.6 122.2 53.5 C 122.5 53.4 122.8 53.4 123.1 53.4 C 123.6 53.4 124 53.4 124.4 53.6 C 124.7 53.7 125 53.9 125.2 54.1 C 125.3 54.4 125.5 54.7 125.5 55.1 C 125.5 55.1 124.5 55.2 124.5 55.2 C 124.5 54.9 124.3 54.6 124.1 54.5 C 123.9 54.3 123.6 54.2 123.2 54.2 C 122.7 54.2 122.4 54.3 122.2 54.4 C 122 54.6 121.9 54.8 121.9 55 C 121.9 55.1 121.9 55.2 122 55.3 C 122.1 55.5 122.2 55.6 122.4 55.6 C 122.5 55.7 122.8 55.8 123.3 55.9 C 124 56.1 124.5 56.2 124.8 56.4 C 125.1 56.5 125.3 56.7 125.5 56.9 C 125.7 57.1 125.7 57.4 125.7 57.8 C 125.7 58.1 125.6 58.5 125.4 58.8 C 125.2 59.1 125 59.3 124.6 59.5 C 124.2 59.6 123.8 59.7 123.3 59.7 C 122.5 59.7 121.9 59.6 121.5 59.2 C 121.1 58.9 120.8 58.4 120.7 57.8 Z M 130.9 62 C 130.7 62 130.4 62 130.2 61.9 C 130.2 61.9 130.1 61 130.1 61 C 130.3 61 130.5 61 130.7 61 C 130.9 61 131.1 61 131.2 60.9 C 131.4 60.9 131.5 60.7 131.6 60.6 C 131.6 60.5 131.7 60.2 131.9 59.8 C 131.9 59.8 131.9 59.7 132 59.6 C 131.96 59.59 129.7 53.5 129.7 53.5 L 130.8 53.5 C 130.8 53.5 132.03 57.02 132 57 C 132.2 57.5 132.3 57.9 132.5 58.4 C 132.6 58 132.7 57.5 132.9 57 C 132.89 57.04 134.2 53.5 134.2 53.5 L 135.2 53.5 C 135.2 53.5 132.91 59.68 132.9 59.7 C 132.7 60.3 132.5 60.8 132.3 61.1 C 132.1 61.4 131.9 61.7 131.7 61.8 C 131.5 62 131.2 62 130.9 62 C 130.9 62 130.9 62 130.9 62 Z M 135.7 56.5 C 135.7 55.4 136 54.6 136.7 54 C 137.2 53.6 137.8 53.4 138.6 53.4 C 139.4 53.4 140.1 53.6 140.6 54.2 C 141.2 54.7 141.4 55.5 141.4 56.4 C 141.4 57.2 141.3 57.8 141.1 58.3 C 140.8 58.7 140.5 59.1 140 59.3 C 139.6 59.6 139.1 59.7 138.6 59.7 C 137.7 59.7 137 59.4 136.5 58.9 C 136 58.3 135.7 57.6 135.7 56.5 Z M 136.8 56.5 C 136.8 57.3 136.9 57.9 137.3 58.3 C 137.6 58.7 138.1 58.9 138.6 58.9 C 139.1 58.9 139.5 58.7 139.8 58.3 C 140.2 57.9 140.4 57.3 140.4 56.5 C 140.4 55.7 140.2 55.2 139.8 54.8 C 139.5 54.4 139.1 54.2 138.6 54.2 C 138.1 54.2 137.6 54.4 137.3 54.8 C 136.9 55.2 136.8 55.8 136.8 56.5 Z M 146.6 59.6 C 146.6 59.6 146.61 58.68 146.6 58.7 C 146.1 59.4 145.5 59.7 144.7 59.7 C 144.3 59.7 144 59.6 143.7 59.5 C 143.4 59.4 143.1 59.2 143 59 C 142.8 58.8 142.7 58.5 142.7 58.2 C 142.6 58 142.6 57.7 142.6 57.3 C 142.6 57.26 142.6 53.5 142.6 53.5 L 143.6 53.5 C 143.6 53.5 143.64 56.87 143.6 56.9 C 143.6 57.4 143.7 57.8 143.7 58 C 143.8 58.2 143.9 58.4 144.1 58.6 C 144.3 58.7 144.6 58.8 144.9 58.8 C 145.2 58.8 145.5 58.7 145.8 58.6 C 146 58.4 146.2 58.2 146.3 57.9 C 146.4 57.7 146.5 57.3 146.5 56.8 C 146.51 56.75 146.5 53.5 146.5 53.5 L 147.5 53.5 L 147.5 59.6 L 146.6 59.6 Z M 152.4 59.6 L 152.4 53.5 L 153.3 53.5 C 153.3 53.5 153.34 54.36 153.3 54.4 C 153.8 53.7 154.4 53.4 155.3 53.4 C 155.6 53.4 156 53.4 156.3 53.6 C 156.6 53.7 156.8 53.9 157 54.1 C 157.1 54.3 157.2 54.5 157.3 54.8 C 157.3 55 157.4 55.4 157.4 55.8 C 157.36 55.84 157.4 59.6 157.4 59.6 L 156.3 59.6 C 156.3 59.6 156.33 55.88 156.3 55.9 C 156.3 55.5 156.3 55.1 156.2 54.9 C 156.1 54.7 156 54.6 155.8 54.4 C 155.6 54.3 155.3 54.2 155.1 54.2 C 154.6 54.2 154.2 54.4 153.9 54.7 C 153.6 54.9 153.4 55.5 153.4 56.3 C 153.44 56.25 153.4 59.6 153.4 59.6 L 152.4 59.6 Z M 163.1 57.6 C 163.1 57.6 164.2 57.8 164.2 57.8 C 164 58.4 163.7 58.9 163.2 59.2 C 162.8 59.5 162.2 59.7 161.5 59.7 C 160.6 59.7 159.9 59.4 159.4 58.9 C 158.9 58.3 158.6 57.6 158.6 56.6 C 158.6 55.6 158.9 54.8 159.4 54.2 C 159.9 53.6 160.6 53.4 161.4 53.4 C 162.2 53.4 162.9 53.6 163.4 54.2 C 163.9 54.7 164.2 55.5 164.2 56.5 C 164.2 56.6 164.2 56.7 164.2 56.8 C 164.2 56.8 159.7 56.8 159.7 56.8 C 159.7 57.5 159.9 58 160.2 58.3 C 160.6 58.7 161 58.9 161.5 58.9 C 161.9 58.9 162.2 58.8 162.5 58.6 C 162.7 58.4 162.9 58.1 163.1 57.6 Z M 159.7 56 C 159.7 56 163.1 56 163.1 56 C 163.1 55.4 162.9 55.1 162.7 54.8 C 162.4 54.4 162 54.2 161.4 54.2 C 161 54.2 160.6 54.4 160.3 54.7 C 159.9 55 159.8 55.4 159.7 56 Z M 169.6 57.6 C 169.6 57.6 170.7 57.8 170.7 57.8 C 170.5 58.4 170.2 58.9 169.8 59.2 C 169.3 59.5 168.7 59.7 168 59.7 C 167.1 59.7 166.4 59.4 165.9 58.9 C 165.4 58.3 165.1 57.6 165.1 56.6 C 165.1 55.6 165.4 54.8 165.9 54.2 C 166.4 53.6 167.1 53.4 168 53.4 C 168.8 53.4 169.4 53.6 170 54.2 C 170.5 54.7 170.7 55.5 170.7 56.5 C 170.7 56.6 170.7 56.7 170.7 56.8 C 170.7 56.8 166.2 56.8 166.2 56.8 C 166.2 57.5 166.4 58 166.8 58.3 C 167.1 58.7 167.5 58.9 168 58.9 C 168.4 58.9 168.7 58.8 169 58.6 C 169.3 58.4 169.5 58.1 169.6 57.6 Z M 166.2 56 C 166.2 56 169.6 56 169.6 56 C 169.6 55.4 169.5 55.1 169.3 54.8 C 168.9 54.4 168.5 54.2 168 54.2 C 167.5 54.2 167.1 54.4 166.8 54.7 C 166.5 55 166.3 55.4 166.2 56 Z M 175.9 59.6 C 175.9 59.6 175.94 58.81 175.9 58.8 C 175.6 59.4 175 59.7 174.2 59.7 C 173.7 59.7 173.3 59.6 172.9 59.3 C 172.5 59 172.2 58.7 172 58.2 C 171.7 57.7 171.6 57.2 171.6 56.5 C 171.6 55.9 171.7 55.4 171.9 54.9 C 172.1 54.4 172.4 54 172.8 53.8 C 173.2 53.5 173.7 53.4 174.2 53.4 C 174.6 53.4 174.9 53.4 175.2 53.6 C 175.5 53.7 175.7 53.9 175.9 54.2 C 175.87 54.19 175.9 51.2 175.9 51.2 L 176.9 51.2 L 176.9 59.6 L 175.9 59.6 Z M 172.7 56.5 C 172.7 57.3 172.8 57.9 173.2 58.3 C 173.5 58.7 173.9 58.9 174.3 58.9 C 174.8 58.9 175.2 58.7 175.5 58.3 C 175.8 57.9 176 57.4 176 56.6 C 176 55.8 175.8 55.2 175.5 54.8 C 175.2 54.4 174.8 54.2 174.3 54.2 C 173.8 54.2 173.4 54.4 173.1 54.8 C 172.8 55.1 172.7 55.7 172.7 56.5 Z M 183.6 58.7 C 183.7 58.7 183.8 58.7 184 58.7 C 184 58.7 184.2 59.6 184.2 59.6 C 183.9 59.6 183.6 59.7 183.4 59.7 C 183 59.7 182.7 59.6 182.5 59.5 C 182.3 59.4 182.2 59.2 182.1 59 C 182 58.8 182 58.4 182 57.8 C 181.96 57.8 182 54.3 182 54.3 L 181.2 54.3 L 181.2 53.5 L 182 53.5 L 182 52 L 183 51.4 L 183 53.5 L 184 53.5 L 184 54.3 L 183 54.3 C 183 54.3 182.99 57.85 183 57.9 C 183 58.1 183 58.3 183 58.4 C 183.1 58.5 183.1 58.6 183.2 58.6 C 183.3 58.7 183.4 58.7 183.6 58.7 C 183.6 58.7 183.6 58.7 183.6 58.7 Z M 184.7 56.5 C 184.7 55.4 185 54.6 185.6 54 C 186.1 53.6 186.8 53.4 187.5 53.4 C 188.3 53.4 189 53.6 189.6 54.2 C 190.1 54.7 190.4 55.5 190.4 56.4 C 190.4 57.2 190.2 57.8 190 58.3 C 189.8 58.7 189.4 59.1 189 59.3 C 188.5 59.6 188 59.7 187.5 59.7 C 186.7 59.7 186 59.4 185.4 58.9 C 184.9 58.3 184.7 57.6 184.7 56.5 Z M 185.7 56.5 C 185.7 57.3 185.9 57.9 186.2 58.3 C 186.6 58.7 187 58.9 187.5 58.9 C 188 58.9 188.4 58.7 188.8 58.3 C 189.1 57.9 189.3 57.3 189.3 56.5 C 189.3 55.7 189.1 55.2 188.8 54.8 C 188.4 54.4 188 54.2 187.5 54.2 C 187 54.2 186.6 54.4 186.2 54.8 C 185.9 55.2 185.7 55.8 185.7 56.5 Z " stroke="none" fill="#fff"/>  </g>  <g id="Polygon68122">    <path d="M 13.6 43.3 C 13.6 43.3 14.6 43.4 14.6 43.4 C 14.5 44.1 14.2 44.6 13.7 45 C 13.3 45.4 12.7 45.6 12 45.6 C 11.2 45.6 10.5 45.4 10 44.8 C 9.5 44.3 9.3 43.5 9.3 42.5 C 9.3 41.8 9.4 41.2 9.6 40.8 C 9.8 40.3 10.1 39.9 10.6 39.6 C 11 39.4 11.5 39.3 12 39.3 C 12.7 39.3 13.2 39.4 13.7 39.8 C 14.1 40.1 14.4 40.6 14.5 41.2 C 14.5 41.2 13.5 41.4 13.5 41.4 C 13.4 40.9 13.2 40.6 13 40.4 C 12.7 40.2 12.4 40.1 12.1 40.1 C 11.6 40.1 11.1 40.3 10.8 40.7 C 10.5 41.1 10.3 41.6 10.3 42.4 C 10.3 43.3 10.5 43.9 10.8 44.2 C 11.1 44.6 11.5 44.8 12 44.8 C 12.4 44.8 12.8 44.7 13 44.4 C 13.3 44.2 13.5 43.8 13.6 43.3 Z M 19.6 45.5 C 19.5 45.3 19.4 45 19.4 44.7 C 19 45.1 18.7 45.3 18.3 45.4 C 18 45.6 17.6 45.6 17.2 45.6 C 16.5 45.6 16 45.5 15.6 45.1 C 15.3 44.8 15.1 44.4 15.1 43.9 C 15.1 43.6 15.2 43.3 15.3 43.1 C 15.4 42.8 15.6 42.6 15.8 42.5 C 16.1 42.3 16.3 42.2 16.6 42.1 C 16.8 42.1 17.1 42 17.5 42 C 18.3 41.9 18.9 41.8 19.3 41.6 C 19.3 41.5 19.3 41.4 19.3 41.4 C 19.3 40.9 19.2 40.7 19 40.5 C 18.8 40.2 18.4 40.1 17.9 40.1 C 17.4 40.1 17 40.2 16.8 40.4 C 16.6 40.6 16.4 40.9 16.3 41.3 C 16.3 41.3 15.3 41.1 15.3 41.1 C 15.4 40.7 15.5 40.4 15.7 40.1 C 15.9 39.8 16.2 39.6 16.6 39.5 C 17 39.3 17.5 39.3 18 39.3 C 18.5 39.3 19 39.3 19.3 39.5 C 19.6 39.6 19.9 39.7 20 39.9 C 20.2 40.1 20.3 40.3 20.3 40.6 C 20.4 40.8 20.4 41.1 20.4 41.6 C 20.4 41.6 20.4 42.9 20.4 42.9 C 20.4 43.9 20.4 44.5 20.4 44.8 C 20.5 45 20.6 45.3 20.7 45.5 C 20.7 45.5 19.6 45.5 19.6 45.5 C 19.6 45.5 19.63 45.5 19.6 45.5 Z M 19.3 42.4 C 19 42.6 18.4 42.7 17.6 42.8 C 17.2 42.9 16.9 43 16.7 43 C 16.6 43.1 16.4 43.2 16.3 43.4 C 16.2 43.5 16.2 43.7 16.2 43.9 C 16.2 44.1 16.3 44.4 16.5 44.6 C 16.7 44.7 17 44.8 17.4 44.8 C 17.8 44.8 18.2 44.7 18.5 44.6 C 18.8 44.4 19 44.2 19.2 43.9 C 19.3 43.6 19.3 43.3 19.3 42.8 C 19.3 42.8 19.3 42.4 19.3 42.4 Z M 22 47.8 L 22 39.4 L 22.9 39.4 C 22.9 39.4 22.91 40.2 22.9 40.2 C 23.1 39.9 23.4 39.7 23.7 39.5 C 23.9 39.4 24.3 39.3 24.7 39.3 C 25.2 39.3 25.7 39.4 26.1 39.7 C 26.5 39.9 26.8 40.3 27 40.8 C 27.2 41.3 27.3 41.8 27.3 42.4 C 27.3 43 27.1 43.6 26.9 44.1 C 26.7 44.6 26.4 45 25.9 45.2 C 25.5 45.5 25.1 45.6 24.6 45.6 C 24.3 45.6 24 45.6 23.7 45.4 C 23.4 45.3 23.2 45.1 23 44.9 C 23.01 44.87 23 47.8 23 47.8 L 22 47.8 Z M 22.9 42.5 C 22.9 43.3 23.1 43.9 23.4 44.2 C 23.7 44.6 24.1 44.8 24.5 44.8 C 25 44.8 25.4 44.6 25.7 44.2 C 26 43.8 26.2 43.2 26.2 42.4 C 26.2 41.6 26 41 25.7 40.7 C 25.4 40.3 25 40.1 24.6 40.1 C 24.1 40.1 23.8 40.3 23.4 40.7 C 23.1 41.1 22.9 41.7 22.9 42.5 Z M 32.7 45.5 C 32.6 45.3 32.5 45 32.5 44.7 C 32.1 45.1 31.7 45.3 31.4 45.4 C 31 45.6 30.6 45.6 30.2 45.6 C 29.6 45.6 29 45.5 28.7 45.1 C 28.3 44.8 28.2 44.4 28.2 43.9 C 28.2 43.6 28.2 43.3 28.4 43.1 C 28.5 42.8 28.7 42.6 28.9 42.5 C 29.1 42.3 29.4 42.2 29.6 42.1 C 29.8 42.1 30.1 42 30.5 42 C 31.4 41.9 32 41.8 32.4 41.6 C 32.4 41.5 32.4 41.4 32.4 41.4 C 32.4 40.9 32.3 40.7 32.1 40.5 C 31.8 40.2 31.4 40.1 30.9 40.1 C 30.4 40.1 30.1 40.2 29.8 40.4 C 29.6 40.6 29.4 40.9 29.3 41.3 C 29.3 41.3 28.3 41.1 28.3 41.1 C 28.4 40.7 28.6 40.4 28.8 40.1 C 29 39.8 29.3 39.6 29.7 39.5 C 30.1 39.3 30.5 39.3 31.1 39.3 C 31.6 39.3 32 39.3 32.3 39.5 C 32.7 39.6 32.9 39.7 33.1 39.9 C 33.2 40.1 33.3 40.3 33.4 40.6 C 33.4 40.8 33.4 41.1 33.4 41.6 C 33.4 41.6 33.4 42.9 33.4 42.9 C 33.4 43.9 33.4 44.5 33.5 44.8 C 33.5 45 33.6 45.3 33.8 45.5 C 33.75 45.5 32.7 45.5 32.7 45.5 C 32.7 45.5 32.68 45.5 32.7 45.5 Z M 32.4 42.4 C 32 42.6 31.4 42.7 30.7 42.8 C 30.3 42.9 30 43 29.8 43 C 29.6 43.1 29.5 43.2 29.4 43.4 C 29.3 43.5 29.3 43.7 29.3 43.9 C 29.3 44.1 29.4 44.4 29.6 44.6 C 29.8 44.7 30.1 44.8 30.5 44.8 C 30.9 44.8 31.2 44.7 31.5 44.6 C 31.8 44.4 32.1 44.2 32.2 43.9 C 32.3 43.6 32.4 43.3 32.4 42.8 C 32.4 42.8 32.4 42.4 32.4 42.4 Z M 36 45.5 L 35 45.5 L 35 37.1 L 36.1 37.1 C 36.1 37.1 36.05 40.1 36.1 40.1 C 36.5 39.5 37 39.3 37.7 39.3 C 38.1 39.3 38.4 39.4 38.8 39.5 C 39.1 39.7 39.4 39.9 39.6 40.1 C 39.8 40.4 40 40.7 40.1 41.1 C 40.2 41.5 40.3 41.9 40.3 42.4 C 40.3 43.4 40 44.2 39.5 44.8 C 39 45.4 38.4 45.6 37.7 45.6 C 36.9 45.6 36.4 45.3 36 44.7 C 35.98 44.74 36 45.5 36 45.5 Z M 36 42.4 C 36 43.1 36.1 43.7 36.3 44 C 36.6 44.5 37 44.8 37.6 44.8 C 38 44.8 38.4 44.6 38.7 44.2 C 39.1 43.8 39.2 43.2 39.2 42.4 C 39.2 41.7 39.1 41.1 38.8 40.7 C 38.5 40.3 38.1 40.1 37.6 40.1 C 37.2 40.1 36.8 40.3 36.5 40.7 C 36.1 41.1 36 41.7 36 42.4 Z M 41.6 38.3 L 41.6 37.1 L 42.6 37.1 L 42.6 38.3 L 41.6 38.3 Z M 41.6 45.5 L 41.6 39.4 L 42.6 39.4 L 42.6 45.5 L 41.6 45.5 Z M 44.1 45.5 L 44.1 37.1 L 45.2 37.1 L 45.2 45.5 L 44.1 45.5 Z M 46.8 38.3 L 46.8 37.1 L 47.8 37.1 L 47.8 38.3 L 46.8 38.3 Z M 46.8 45.5 L 46.8 39.4 L 47.8 39.4 L 47.8 45.5 L 46.8 45.5 Z M 51.2 44.6 C 51.3 44.6 51.4 44.6 51.6 44.6 C 51.6 44.6 51.8 45.5 51.8 45.5 C 51.5 45.5 51.2 45.6 51 45.6 C 50.6 45.6 50.3 45.5 50.1 45.4 C 49.9 45.3 49.8 45.1 49.7 44.9 C 49.6 44.7 49.6 44.3 49.6 43.7 C 49.56 43.72 49.6 40.2 49.6 40.2 L 48.8 40.2 L 48.8 39.4 L 49.6 39.4 L 49.6 37.9 L 50.6 37.3 L 50.6 39.4 L 51.6 39.4 L 51.6 40.2 L 50.6 40.2 C 50.6 40.2 50.59 43.77 50.6 43.8 C 50.6 44.1 50.6 44.3 50.6 44.3 C 50.7 44.4 50.7 44.5 50.8 44.5 C 50.9 44.6 51 44.6 51.2 44.6 C 51.2 44.6 51.2 44.6 51.2 44.6 Z M 52.6 38.3 L 52.6 37.1 L 53.7 37.1 L 53.7 38.3 L 52.6 38.3 Z M 52.6 45.5 L 52.6 39.4 L 53.7 39.4 L 53.7 45.5 L 52.6 45.5 Z M 59.4 43.5 C 59.4 43.5 60.5 43.7 60.5 43.7 C 60.3 44.3 60 44.8 59.5 45.1 C 59.1 45.5 58.5 45.6 57.8 45.6 C 56.9 45.6 56.2 45.4 55.7 44.8 C 55.2 44.3 54.9 43.5 54.9 42.5 C 54.9 41.5 55.2 40.7 55.7 40.1 C 56.2 39.6 56.9 39.3 57.7 39.3 C 58.5 39.3 59.2 39.6 59.7 40.1 C 60.2 40.7 60.5 41.4 60.5 42.4 C 60.5 42.5 60.5 42.6 60.5 42.7 C 60.5 42.7 56 42.7 56 42.7 C 56 43.4 56.2 43.9 56.5 44.3 C 56.9 44.6 57.3 44.8 57.8 44.8 C 58.2 44.8 58.5 44.7 58.8 44.5 C 59 44.3 59.2 44 59.4 43.5 Z M 56 41.9 C 56 41.9 59.4 41.9 59.4 41.9 C 59.4 41.4 59.2 41 59 40.7 C 58.7 40.3 58.3 40.1 57.7 40.1 C 57.3 40.1 56.9 40.3 56.6 40.6 C 56.2 40.9 56.1 41.3 56 41.9 Z M 61.4 43.7 C 61.4 43.7 62.4 43.5 62.4 43.5 C 62.4 43.9 62.6 44.2 62.8 44.5 C 63.1 44.7 63.5 44.8 63.9 44.8 C 64.4 44.8 64.8 44.7 65 44.5 C 65.2 44.3 65.3 44.1 65.3 43.8 C 65.3 43.6 65.2 43.4 65 43.3 C 64.9 43.2 64.5 43.1 64 42.9 C 63.2 42.7 62.7 42.6 62.4 42.4 C 62.1 42.3 61.9 42.1 61.7 41.8 C 61.6 41.6 61.5 41.3 61.5 41 C 61.5 40.8 61.6 40.5 61.7 40.3 C 61.8 40 62 39.9 62.2 39.7 C 62.4 39.6 62.6 39.5 62.9 39.4 C 63.1 39.3 63.4 39.3 63.8 39.3 C 64.2 39.3 64.7 39.3 65 39.5 C 65.4 39.6 65.6 39.8 65.8 40 C 66 40.3 66.1 40.6 66.2 41 C 66.2 41 65.2 41.1 65.2 41.1 C 65.1 40.8 65 40.6 64.8 40.4 C 64.5 40.2 64.2 40.1 63.8 40.1 C 63.4 40.1 63 40.2 62.8 40.4 C 62.6 40.5 62.5 40.7 62.5 40.9 C 62.5 41 62.6 41.2 62.6 41.3 C 62.7 41.4 62.9 41.5 63 41.5 C 63.1 41.6 63.4 41.7 64 41.8 C 64.7 42 65.2 42.2 65.5 42.3 C 65.8 42.4 66 42.6 66.2 42.8 C 66.3 43.1 66.4 43.4 66.4 43.7 C 66.4 44.1 66.3 44.4 66.1 44.7 C 65.9 45 65.6 45.2 65.2 45.4 C 64.9 45.6 64.4 45.6 64 45.6 C 63.2 45.6 62.6 45.5 62.1 45.1 C 61.7 44.8 61.5 44.3 61.4 43.7 Z M 75.1 45.5 C 75 45.3 74.9 45 74.9 44.7 C 74.5 45.1 74.1 45.3 73.8 45.4 C 73.4 45.6 73 45.6 72.6 45.6 C 72 45.6 71.4 45.5 71.1 45.1 C 70.7 44.8 70.5 44.4 70.5 43.9 C 70.5 43.6 70.6 43.3 70.7 43.1 C 70.9 42.8 71.1 42.6 71.3 42.5 C 71.5 42.3 71.7 42.2 72 42.1 C 72.2 42.1 72.5 42 72.9 42 C 73.8 41.9 74.4 41.8 74.8 41.6 C 74.8 41.5 74.8 41.4 74.8 41.4 C 74.8 40.9 74.7 40.7 74.5 40.5 C 74.2 40.2 73.8 40.1 73.3 40.1 C 72.8 40.1 72.5 40.2 72.2 40.4 C 72 40.6 71.8 40.9 71.7 41.3 C 71.7 41.3 70.7 41.1 70.7 41.1 C 70.8 40.7 71 40.4 71.2 40.1 C 71.4 39.8 71.7 39.6 72.1 39.5 C 72.5 39.3 72.9 39.3 73.5 39.3 C 74 39.3 74.4 39.3 74.7 39.5 C 75.1 39.6 75.3 39.7 75.4 39.9 C 75.6 40.1 75.7 40.3 75.8 40.6 C 75.8 40.8 75.8 41.1 75.8 41.6 C 75.8 41.6 75.8 42.9 75.8 42.9 C 75.8 43.9 75.8 44.5 75.9 44.8 C 75.9 45 76 45.3 76.1 45.5 C 76.14 45.5 75.1 45.5 75.1 45.5 C 75.1 45.5 75.07 45.5 75.1 45.5 Z M 74.8 42.4 C 74.4 42.6 73.8 42.7 73.1 42.8 C 72.7 42.9 72.4 43 72.2 43 C 72 43.1 71.9 43.2 71.8 43.4 C 71.7 43.5 71.6 43.7 71.6 43.9 C 71.6 44.1 71.7 44.4 72 44.6 C 72.2 44.7 72.5 44.8 72.9 44.8 C 73.3 44.8 73.6 44.7 73.9 44.6 C 74.2 44.4 74.5 44.2 74.6 43.9 C 74.7 43.6 74.8 43.3 74.8 42.8 C 74.8 42.8 74.8 42.4 74.8 42.4 Z M 77.4 45.5 L 77.4 39.4 L 78.3 39.4 C 78.3 39.4 78.33 40.34 78.3 40.3 C 78.6 39.9 78.8 39.6 79 39.5 C 79.2 39.3 79.4 39.3 79.6 39.3 C 80 39.3 80.4 39.4 80.7 39.6 C 80.7 39.6 80.4 40.6 80.4 40.6 C 80.1 40.4 79.9 40.3 79.6 40.3 C 79.4 40.3 79.2 40.4 79 40.5 C 78.8 40.7 78.7 40.9 78.6 41.1 C 78.5 41.5 78.4 41.9 78.4 42.3 C 78.43 42.31 78.4 45.5 78.4 45.5 L 77.4 45.5 Z M 85.5 43.5 C 85.5 43.5 86.6 43.7 86.6 43.7 C 86.4 44.3 86.1 44.8 85.6 45.1 C 85.2 45.5 84.6 45.6 83.9 45.6 C 83 45.6 82.3 45.4 81.8 44.8 C 81.2 44.3 81 43.5 81 42.5 C 81 41.5 81.2 40.7 81.8 40.1 C 82.3 39.6 83 39.3 83.8 39.3 C 84.6 39.3 85.3 39.6 85.8 40.1 C 86.3 40.7 86.6 41.4 86.6 42.4 C 86.6 42.5 86.6 42.6 86.6 42.7 C 86.6 42.7 82 42.7 82 42.7 C 82.1 43.4 82.3 43.9 82.6 44.3 C 83 44.6 83.4 44.8 83.9 44.8 C 84.3 44.8 84.6 44.7 84.9 44.5 C 85.1 44.3 85.3 44 85.5 43.5 Z M 82.1 41.9 C 82.1 41.9 85.5 41.9 85.5 41.9 C 85.5 41.4 85.3 41 85.1 40.7 C 84.8 40.3 84.4 40.1 83.8 40.1 C 83.4 40.1 83 40.3 82.6 40.6 C 82.3 40.9 82.1 41.3 82.1 41.9 Z M 90.7 43.7 C 90.7 43.7 91.7 43.5 91.7 43.5 C 91.8 43.9 91.9 44.2 92.2 44.5 C 92.5 44.7 92.8 44.8 93.3 44.8 C 93.8 44.8 94.1 44.7 94.3 44.5 C 94.6 44.3 94.7 44.1 94.7 43.8 C 94.7 43.6 94.6 43.4 94.4 43.3 C 94.2 43.2 93.9 43.1 93.3 42.9 C 92.6 42.7 92.1 42.6 91.8 42.4 C 91.5 42.3 91.2 42.1 91.1 41.8 C 90.9 41.6 90.9 41.3 90.9 41 C 90.9 40.8 90.9 40.5 91.1 40.3 C 91.2 40 91.3 39.9 91.6 39.7 C 91.7 39.6 91.9 39.5 92.2 39.4 C 92.5 39.3 92.8 39.3 93.1 39.3 C 93.6 39.3 94 39.3 94.4 39.5 C 94.7 39.6 95 39.8 95.2 40 C 95.3 40.3 95.5 40.6 95.5 41 C 95.5 41 94.5 41.1 94.5 41.1 C 94.5 40.8 94.3 40.6 94.1 40.4 C 93.9 40.2 93.6 40.1 93.2 40.1 C 92.7 40.1 92.4 40.2 92.2 40.4 C 92 40.5 91.9 40.7 91.9 40.9 C 91.9 41 91.9 41.2 92 41.3 C 92.1 41.4 92.2 41.5 92.4 41.5 C 92.5 41.6 92.8 41.7 93.3 41.8 C 94 42 94.5 42.2 94.8 42.3 C 95.1 42.4 95.3 42.6 95.5 42.8 C 95.7 43.1 95.7 43.4 95.7 43.7 C 95.7 44.1 95.6 44.4 95.4 44.7 C 95.2 45 95 45.2 94.6 45.4 C 94.2 45.6 93.8 45.6 93.3 45.6 C 92.5 45.6 91.9 45.5 91.5 45.1 C 91.1 44.8 90.8 44.3 90.7 43.7 Z M 98.8 44.6 C 98.9 44.6 99 44.6 99.2 44.6 C 99.2 44.6 99.4 45.5 99.4 45.5 C 99.1 45.5 98.8 45.6 98.6 45.6 C 98.2 45.6 97.9 45.5 97.7 45.4 C 97.5 45.3 97.4 45.1 97.3 44.9 C 97.2 44.7 97.2 44.3 97.2 43.7 C 97.16 43.72 97.2 40.2 97.2 40.2 L 96.4 40.2 L 96.4 39.4 L 97.2 39.4 L 97.2 37.9 L 98.2 37.3 L 98.2 39.4 L 99.2 39.4 L 99.2 40.2 L 98.2 40.2 C 98.2 40.2 98.19 43.77 98.2 43.8 C 98.2 44.1 98.2 44.3 98.2 44.3 C 98.3 44.4 98.3 44.5 98.4 44.5 C 98.5 44.6 98.6 44.6 98.8 44.6 C 98.8 44.6 98.8 44.6 98.8 44.6 Z M 100.2 45.5 L 100.2 39.4 L 101.2 39.4 C 101.2 39.4 101.15 40.34 101.2 40.3 C 101.4 39.9 101.6 39.6 101.8 39.5 C 102 39.3 102.2 39.3 102.5 39.3 C 102.8 39.3 103.2 39.4 103.5 39.6 C 103.5 39.6 103.2 40.6 103.2 40.6 C 102.9 40.4 102.7 40.3 102.4 40.3 C 102.2 40.3 102 40.4 101.8 40.5 C 101.6 40.7 101.5 40.9 101.4 41.1 C 101.3 41.5 101.3 41.9 101.3 42.3 C 101.25 42.31 101.3 45.5 101.3 45.5 L 100.2 45.5 Z M 108.3 43.5 C 108.3 43.5 109.4 43.7 109.4 43.7 C 109.2 44.3 108.9 44.8 108.4 45.1 C 108 45.5 107.4 45.6 106.7 45.6 C 105.8 45.6 105.1 45.4 104.6 44.8 C 104.1 44.3 103.8 43.5 103.8 42.5 C 103.8 41.5 104.1 40.7 104.6 40.1 C 105.1 39.6 105.8 39.3 106.6 39.3 C 107.5 39.3 108.1 39.6 108.6 40.1 C 109.1 40.7 109.4 41.4 109.4 42.4 C 109.4 42.5 109.4 42.6 109.4 42.7 C 109.4 42.7 104.9 42.7 104.9 42.7 C 104.9 43.4 105.1 43.9 105.4 44.3 C 105.8 44.6 106.2 44.8 106.7 44.8 C 107.1 44.8 107.4 44.7 107.7 44.5 C 107.9 44.3 108.2 44 108.3 43.5 Z M 104.9 41.9 C 104.9 41.9 108.3 41.9 108.3 41.9 C 108.3 41.4 108.1 41 107.9 40.7 C 107.6 40.3 107.2 40.1 106.7 40.1 C 106.2 40.1 105.8 40.3 105.5 40.6 C 105.1 40.9 105 41.3 104.9 41.9 Z M 112.5 44.6 C 112.6 44.6 112.7 44.6 112.9 44.6 C 112.9 44.6 113.1 45.5 113.1 45.5 C 112.8 45.5 112.5 45.6 112.3 45.6 C 111.9 45.6 111.6 45.5 111.4 45.4 C 111.2 45.3 111.1 45.1 111 44.9 C 110.9 44.7 110.9 44.3 110.9 43.7 C 110.86 43.72 110.9 40.2 110.9 40.2 L 110.1 40.2 L 110.1 39.4 L 110.9 39.4 L 110.9 37.9 L 111.9 37.3 L 111.9 39.4 L 112.9 39.4 L 112.9 40.2 L 111.9 40.2 C 111.9 40.2 111.88 43.77 111.9 43.8 C 111.9 44.1 111.9 44.3 111.9 44.3 C 112 44.4 112 44.5 112.1 44.5 C 112.2 44.6 112.3 44.6 112.5 44.6 C 112.5 44.6 112.5 44.6 112.5 44.6 Z M 117.9 43.3 C 117.9 43.3 118.9 43.4 118.9 43.4 C 118.8 44.1 118.5 44.6 118.1 45 C 117.6 45.4 117 45.6 116.4 45.6 C 115.5 45.6 114.9 45.4 114.4 44.8 C 113.9 44.3 113.6 43.5 113.6 42.5 C 113.6 41.8 113.7 41.2 113.9 40.8 C 114.2 40.3 114.5 39.9 114.9 39.6 C 115.4 39.4 115.9 39.3 116.4 39.3 C 117 39.3 117.6 39.4 118 39.8 C 118.4 40.1 118.7 40.6 118.8 41.2 C 118.8 41.2 117.8 41.4 117.8 41.4 C 117.7 40.9 117.5 40.6 117.3 40.4 C 117.1 40.2 116.8 40.1 116.4 40.1 C 115.9 40.1 115.5 40.3 115.2 40.7 C 114.8 41.1 114.7 41.6 114.7 42.4 C 114.7 43.3 114.8 43.9 115.1 44.2 C 115.5 44.6 115.9 44.8 116.4 44.8 C 116.8 44.8 117.1 44.7 117.4 44.4 C 117.7 44.2 117.8 43.8 117.9 43.3 Z M 119.8 45.5 L 119.8 37.1 L 120.8 37.1 C 120.8 37.1 120.82 40.11 120.8 40.1 C 121.3 39.6 121.9 39.3 122.6 39.3 C 123.1 39.3 123.5 39.4 123.8 39.5 C 124.2 39.7 124.4 40 124.5 40.3 C 124.7 40.6 124.7 41 124.7 41.6 C 124.75 41.64 124.7 45.5 124.7 45.5 L 123.7 45.5 C 123.7 45.5 123.72 41.64 123.7 41.6 C 123.7 41.1 123.6 40.8 123.4 40.5 C 123.2 40.3 122.8 40.2 122.4 40.2 C 122.1 40.2 121.8 40.2 121.6 40.4 C 121.3 40.6 121.1 40.8 121 41 C 120.9 41.3 120.8 41.7 120.8 42.2 C 120.82 42.17 120.8 45.5 120.8 45.5 L 119.8 45.5 Z M 130.5 43.5 C 130.5 43.5 131.5 43.7 131.5 43.7 C 131.4 44.3 131.1 44.8 130.6 45.1 C 130.2 45.5 129.6 45.6 128.9 45.6 C 128 45.6 127.3 45.4 126.8 44.8 C 126.2 44.3 126 43.5 126 42.5 C 126 41.5 126.2 40.7 126.8 40.1 C 127.3 39.6 128 39.3 128.8 39.3 C 129.6 39.3 130.3 39.6 130.8 40.1 C 131.3 40.7 131.6 41.4 131.6 42.4 C 131.6 42.5 131.6 42.6 131.6 42.7 C 131.6 42.7 127 42.7 127 42.7 C 127.1 43.4 127.3 43.9 127.6 44.3 C 127.9 44.6 128.4 44.8 128.9 44.8 C 129.3 44.8 129.6 44.7 129.8 44.5 C 130.1 44.3 130.3 44 130.5 43.5 Z M 127.1 41.9 C 127.1 41.9 130.5 41.9 130.5 41.9 C 130.4 41.4 130.3 41 130.1 40.7 C 129.8 40.3 129.4 40.1 128.8 40.1 C 128.4 40.1 128 40.3 127.6 40.6 C 127.3 40.9 127.1 41.3 127.1 41.9 Z M 136.8 45.5 C 136.8 45.5 136.79 44.73 136.8 44.7 C 136.4 45.3 135.8 45.6 135.1 45.6 C 134.6 45.6 134.2 45.5 133.8 45.2 C 133.3 45 133 44.6 132.8 44.1 C 132.6 43.6 132.5 43.1 132.5 42.5 C 132.5 41.9 132.6 41.3 132.8 40.8 C 133 40.3 133.3 39.9 133.7 39.7 C 134.1 39.4 134.5 39.3 135 39.3 C 135.4 39.3 135.7 39.4 136 39.5 C 136.3 39.7 136.5 39.9 136.7 40.1 C 136.72 40.11 136.7 37.1 136.7 37.1 L 137.7 37.1 L 137.7 45.5 L 136.8 45.5 Z M 133.5 42.5 C 133.5 43.2 133.7 43.8 134 44.2 C 134.4 44.6 134.7 44.8 135.2 44.8 C 135.6 44.8 136 44.6 136.3 44.2 C 136.7 43.9 136.8 43.3 136.8 42.5 C 136.8 41.7 136.6 41.1 136.3 40.7 C 136 40.3 135.6 40.1 135.1 40.1 C 134.7 40.1 134.3 40.3 134 40.7 C 133.7 41.1 133.5 41.7 133.5 42.5 Z M 139.6 45.5 L 139.6 44.3 L 140.8 44.3 C 140.8 44.3 140.81 45.5 140.8 45.5 C 140.8 45.9 140.7 46.3 140.6 46.5 C 140.4 46.8 140.2 47 139.9 47.2 C 139.9 47.2 139.6 46.7 139.6 46.7 C 139.8 46.6 139.9 46.5 140.1 46.3 C 140.2 46.1 140.2 45.8 140.2 45.5 C 140.22 45.5 139.6 45.5 139.6 45.5 Z M 147 45.5 L 145.2 39.4 L 146.2 39.4 L 147.2 42.9 C 147.2 42.9 147.55 44.23 147.5 44.2 C 147.6 44.2 147.7 43.7 147.9 43 C 147.86 42.98 148.8 39.4 148.8 39.4 L 149.9 39.4 L 150.8 42.9 L 151.1 44.1 L 151.5 42.9 L 152.5 39.4 L 153.5 39.4 L 151.6 45.5 L 150.5 45.5 L 149.6 41.9 L 149.3 40.8 L 148.1 45.5 L 147 45.5 Z M 158.5 43.5 C 158.5 43.5 159.6 43.7 159.6 43.7 C 159.4 44.3 159.1 44.8 158.7 45.1 C 158.2 45.5 157.6 45.6 156.9 45.6 C 156 45.6 155.3 45.4 154.8 44.8 C 154.3 44.3 154 43.5 154 42.5 C 154 41.5 154.3 40.7 154.8 40.1 C 155.3 39.6 156 39.3 156.9 39.3 C 157.7 39.3 158.3 39.6 158.9 40.1 C 159.4 40.7 159.6 41.4 159.6 42.4 C 159.6 42.5 159.6 42.6 159.6 42.7 C 159.6 42.7 155.1 42.7 155.1 42.7 C 155.1 43.4 155.3 43.9 155.7 44.3 C 156 44.6 156.4 44.8 156.9 44.8 C 157.3 44.8 157.6 44.7 157.9 44.5 C 158.2 44.3 158.4 44 158.5 43.5 Z M 155.1 41.9 C 155.1 41.9 158.5 41.9 158.5 41.9 C 158.5 41.4 158.4 41 158.2 40.7 C 157.8 40.3 157.4 40.1 156.9 40.1 C 156.4 40.1 156 40.3 155.7 40.6 C 155.4 40.9 155.2 41.3 155.1 41.9 Z M 164.1 47.8 L 164.1 39.4 L 165.1 39.4 C 165.1 39.4 165.09 40.2 165.1 40.2 C 165.3 39.9 165.6 39.7 165.8 39.5 C 166.1 39.4 166.5 39.3 166.9 39.3 C 167.4 39.3 167.8 39.4 168.2 39.7 C 168.6 39.9 168.9 40.3 169.1 40.8 C 169.3 41.3 169.4 41.8 169.4 42.4 C 169.4 43 169.3 43.6 169.1 44.1 C 168.9 44.6 168.5 45 168.1 45.2 C 167.7 45.5 167.2 45.6 166.8 45.6 C 166.4 45.6 166.1 45.6 165.9 45.4 C 165.6 45.3 165.4 45.1 165.2 44.9 C 165.18 44.87 165.2 47.8 165.2 47.8 L 164.1 47.8 Z M 165.1 42.5 C 165.1 43.3 165.2 43.9 165.6 44.2 C 165.9 44.6 166.3 44.8 166.7 44.8 C 167.2 44.8 167.6 44.6 167.9 44.2 C 168.2 43.8 168.4 43.2 168.4 42.4 C 168.4 41.6 168.2 41 167.9 40.7 C 167.6 40.3 167.2 40.1 166.8 40.1 C 166.3 40.1 165.9 40.3 165.6 40.7 C 165.3 41.1 165.1 41.7 165.1 42.5 Z M 170.7 45.5 L 170.7 39.4 L 171.6 39.4 C 171.6 39.4 171.59 40.34 171.6 40.3 C 171.8 39.9 172 39.6 172.2 39.5 C 172.4 39.3 172.7 39.3 172.9 39.3 C 173.3 39.3 173.6 39.4 174 39.6 C 174 39.6 173.6 40.6 173.6 40.6 C 173.4 40.4 173.1 40.3 172.9 40.3 C 172.6 40.3 172.4 40.4 172.2 40.5 C 172.1 40.7 171.9 40.9 171.9 41.1 C 171.8 41.5 171.7 41.9 171.7 42.3 C 171.69 42.31 171.7 45.5 171.7 45.5 L 170.7 45.5 Z M 174.2 42.5 C 174.2 41.3 174.5 40.5 175.1 40 C 175.7 39.5 176.3 39.3 177.1 39.3 C 177.9 39.3 178.6 39.5 179.1 40.1 C 179.6 40.6 179.9 41.4 179.9 42.4 C 179.9 43.2 179.8 43.8 179.5 44.2 C 179.3 44.7 179 45 178.5 45.3 C 178.1 45.5 177.6 45.6 177.1 45.6 C 176.2 45.6 175.5 45.4 175 44.8 C 174.5 44.3 174.2 43.5 174.2 42.5 Z M 175.3 42.5 C 175.3 43.2 175.4 43.8 175.8 44.2 C 176.1 44.6 176.5 44.8 177.1 44.8 C 177.6 44.8 178 44.6 178.3 44.2 C 178.7 43.8 178.8 43.2 178.8 42.4 C 178.8 41.7 178.7 41.1 178.3 40.7 C 178 40.3 177.6 40.1 177.1 40.1 C 176.5 40.1 176.1 40.3 175.8 40.7 C 175.4 41.1 175.3 41.7 175.3 42.5 Z M 182.8 45.5 L 180.5 39.4 L 181.6 39.4 C 181.6 39.4 182.88 43.06 182.9 43.1 C 183 43.5 183.1 43.9 183.3 44.3 C 183.4 44 183.5 43.6 183.7 43.1 C 183.65 43.13 185 39.4 185 39.4 L 186.1 39.4 L 183.8 45.5 L 182.8 45.5 Z M 187 38.3 L 187 37.1 L 188 37.1 L 188 38.3 L 187 38.3 Z M 187 45.5 L 187 39.4 L 188 39.4 L 188 45.5 L 187 45.5 Z M 193.5 45.5 C 193.5 45.5 193.53 44.73 193.5 44.7 C 193.1 45.3 192.6 45.6 191.8 45.6 C 191.3 45.6 190.9 45.5 190.5 45.2 C 190.1 45 189.8 44.6 189.5 44.1 C 189.3 43.6 189.2 43.1 189.2 42.5 C 189.2 41.9 189.3 41.3 189.5 40.8 C 189.7 40.3 190 39.9 190.4 39.7 C 190.8 39.4 191.3 39.3 191.8 39.3 C 192.1 39.3 192.5 39.4 192.8 39.5 C 193 39.7 193.3 39.9 193.5 40.1 C 193.46 40.11 193.5 37.1 193.5 37.1 L 194.5 37.1 L 194.5 45.5 L 193.5 45.5 Z M 190.3 42.5 C 190.3 43.2 190.4 43.8 190.8 44.2 C 191.1 44.6 191.5 44.8 191.9 44.8 C 192.4 44.8 192.8 44.6 193.1 44.2 C 193.4 43.9 193.5 43.3 193.5 42.5 C 193.5 41.7 193.4 41.1 193.1 40.7 C 192.7 40.3 192.3 40.1 191.9 40.1 C 191.4 40.1 191 40.3 190.7 40.7 C 190.4 41.1 190.3 41.7 190.3 42.5 Z M 200.3 43.5 C 200.3 43.5 201.3 43.7 201.3 43.7 C 201.2 44.3 200.9 44.8 200.4 45.1 C 199.9 45.5 199.4 45.6 198.7 45.6 C 197.8 45.6 197.1 45.4 196.5 44.8 C 196 44.3 195.8 43.5 195.8 42.5 C 195.8 41.5 196 40.7 196.6 40.1 C 197.1 39.6 197.8 39.3 198.6 39.3 C 199.4 39.3 200.1 39.6 200.6 40.1 C 201.1 40.7 201.4 41.4 201.4 42.4 C 201.4 42.5 201.4 42.6 201.4 42.7 C 201.4 42.7 196.8 42.7 196.8 42.7 C 196.9 43.4 197.1 43.9 197.4 44.3 C 197.7 44.6 198.2 44.8 198.7 44.8 C 199 44.8 199.4 44.7 199.6 44.5 C 199.9 44.3 200.1 44 200.3 43.5 Z M 196.9 41.9 C 196.9 41.9 200.3 41.9 200.3 41.9 C 200.2 41.4 200.1 41 199.9 40.7 C 199.6 40.3 199.1 40.1 198.6 40.1 C 198.1 40.1 197.7 40.3 197.4 40.6 C 197.1 40.9 196.9 41.3 196.9 41.9 Z " stroke="none" fill="#fff"/>  </g>  <g id="Polygon68121">    <path d="M 29.2 31.4 L 27 23 L 28.1 23 C 28.1 23 29.42 28.52 29.4 28.5 C 29.6 29.1 29.7 29.7 29.8 30.2 C 30 29.3 30.1 28.8 30.1 28.7 C 30.15 28.69 31.7 23 31.7 23 L 33.1 23 C 33.1 23 34.29 27.27 34.3 27.3 C 34.6 28.3 34.8 29.3 34.9 30.2 C 35.1 29.7 35.2 29.1 35.4 28.4 C 35.36 28.42 36.7 23 36.7 23 L 37.8 23 L 35.5 31.4 L 34.4 31.4 C 34.4 31.4 32.65 25.02 32.7 25 C 32.5 24.5 32.4 24.2 32.4 24 C 32.3 24.4 32.2 24.7 32.1 25 C 32.14 25.02 30.4 31.4 30.4 31.4 L 29.2 31.4 Z M 38.7 31.4 L 38.7 23 L 39.7 23 C 39.7 23 39.73 26.03 39.7 26 C 40.2 25.5 40.8 25.2 41.6 25.2 C 42 25.2 42.4 25.3 42.7 25.5 C 43.1 25.6 43.3 25.9 43.4 26.2 C 43.6 26.5 43.7 27 43.7 27.6 C 43.66 27.56 43.7 31.4 43.7 31.4 L 42.6 31.4 C 42.6 31.4 42.63 27.56 42.6 27.6 C 42.6 27 42.5 26.7 42.3 26.4 C 42.1 26.2 41.8 26.1 41.3 26.1 C 41 26.1 40.8 26.2 40.5 26.3 C 40.2 26.5 40 26.7 39.9 27 C 39.8 27.2 39.7 27.6 39.7 28.1 C 39.73 28.09 39.7 31.4 39.7 31.4 L 38.7 31.4 Z M 49.4 29.5 C 49.4 29.5 50.5 29.6 50.5 29.6 C 50.3 30.2 50 30.7 49.5 31 C 49.1 31.4 48.5 31.6 47.8 31.6 C 46.9 31.6 46.2 31.3 45.7 30.7 C 45.1 30.2 44.9 29.4 44.9 28.4 C 44.9 27.4 45.1 26.6 45.7 26 C 46.2 25.5 46.9 25.2 47.7 25.2 C 48.5 25.2 49.2 25.5 49.7 26 C 50.2 26.6 50.5 27.4 50.5 28.4 C 50.5 28.4 50.5 28.5 50.5 28.6 C 50.5 28.6 46 28.6 46 28.6 C 46 29.3 46.2 29.8 46.5 30.2 C 46.9 30.5 47.3 30.7 47.8 30.7 C 48.2 30.7 48.5 30.6 48.8 30.4 C 49 30.2 49.2 29.9 49.4 29.5 Z M 46 27.8 C 46 27.8 49.4 27.8 49.4 27.8 C 49.4 27.3 49.2 26.9 49 26.6 C 48.7 26.2 48.3 26 47.7 26 C 47.3 26 46.9 26.2 46.5 26.5 C 46.2 26.8 46 27.3 46 27.8 Z M 51.8 31.4 L 51.8 25.3 L 52.7 25.3 C 52.7 25.3 52.68 26.2 52.7 26.2 C 53.1 25.5 53.8 25.2 54.6 25.2 C 55 25.2 55.3 25.3 55.6 25.4 C 55.9 25.5 56.2 25.7 56.3 25.9 C 56.5 26.1 56.6 26.4 56.6 26.7 C 56.7 26.9 56.7 27.2 56.7 27.7 C 56.7 27.68 56.7 31.4 56.7 31.4 L 55.7 31.4 C 55.7 31.4 55.67 27.72 55.7 27.7 C 55.7 27.3 55.6 27 55.5 26.8 C 55.5 26.6 55.3 26.4 55.1 26.3 C 54.9 26.2 54.7 26.1 54.4 26.1 C 54 26.1 53.6 26.2 53.3 26.5 C 52.9 26.8 52.8 27.3 52.8 28.1 C 52.79 28.09 52.8 31.4 52.8 31.4 L 51.8 31.4 Z M 65.5 29.2 C 65.5 29.2 66.5 29.3 66.5 29.3 C 66.4 30 66.1 30.6 65.7 31 C 65.2 31.4 64.7 31.6 64 31.6 C 63.2 31.6 62.5 31.3 62 30.7 C 61.5 30.2 61.2 29.4 61.2 28.4 C 61.2 27.7 61.3 27.2 61.6 26.7 C 61.8 26.2 62.1 25.8 62.5 25.6 C 63 25.3 63.5 25.2 64 25.2 C 64.7 25.2 65.2 25.4 65.6 25.7 C 66 26 66.3 26.5 66.4 27.1 C 66.4 27.1 65.4 27.3 65.4 27.3 C 65.3 26.9 65.2 26.6 64.9 26.4 C 64.7 26.1 64.4 26 64 26 C 63.5 26 63.1 26.2 62.8 26.6 C 62.4 27 62.3 27.6 62.3 28.4 C 62.3 29.2 62.4 29.8 62.8 30.2 C 63.1 30.5 63.5 30.7 64 30.7 C 64.4 30.7 64.7 30.6 65 30.3 C 65.3 30.1 65.4 29.7 65.5 29.2 Z M 71.6 31.4 C 71.5 31.2 71.4 31 71.4 30.7 C 71 31 70.6 31.2 70.3 31.4 C 69.9 31.5 69.5 31.6 69.1 31.6 C 68.5 31.6 68 31.4 67.6 31.1 C 67.2 30.7 67.1 30.3 67.1 29.8 C 67.1 29.5 67.1 29.2 67.3 29 C 67.4 28.8 67.6 28.6 67.8 28.4 C 68 28.3 68.3 28.1 68.5 28.1 C 68.7 28 69 28 69.5 27.9 C 70.3 27.8 70.9 27.7 71.3 27.6 C 71.3 27.4 71.3 27.3 71.3 27.3 C 71.3 26.9 71.2 26.6 71 26.4 C 70.7 26.2 70.3 26 69.8 26 C 69.3 26 69 26.1 68.8 26.3 C 68.5 26.5 68.4 26.8 68.2 27.2 C 68.2 27.2 67.2 27.1 67.2 27.1 C 67.3 26.6 67.5 26.3 67.7 26 C 67.9 25.8 68.2 25.6 68.6 25.4 C 69 25.3 69.5 25.2 70 25.2 C 70.5 25.2 70.9 25.3 71.2 25.4 C 71.6 25.5 71.8 25.7 72 25.8 C 72.1 26 72.2 26.3 72.3 26.5 C 72.3 26.7 72.3 27 72.3 27.5 C 72.3 27.5 72.3 28.9 72.3 28.9 C 72.3 29.8 72.4 30.4 72.4 30.7 C 72.4 30.9 72.5 31.2 72.7 31.4 C 72.66 31.42 71.6 31.4 71.6 31.4 C 71.6 31.4 71.58 31.42 71.6 31.4 Z M 71.3 28.4 C 70.9 28.5 70.4 28.6 69.6 28.8 C 69.2 28.8 68.9 28.9 68.7 29 C 68.5 29 68.4 29.1 68.3 29.3 C 68.2 29.4 68.2 29.6 68.2 29.8 C 68.2 30.1 68.3 30.3 68.5 30.5 C 68.7 30.7 69 30.7 69.4 30.7 C 69.8 30.7 70.1 30.7 70.4 30.5 C 70.8 30.3 71 30.1 71.1 29.8 C 71.2 29.5 71.3 29.2 71.3 28.7 C 71.3 28.7 71.3 28.4 71.3 28.4 Z M 73.9 33.7 L 73.9 25.3 L 74.9 25.3 C 74.9 25.3 74.87 26.12 74.9 26.1 C 75.1 25.8 75.3 25.6 75.6 25.4 C 75.9 25.3 76.2 25.2 76.6 25.2 C 77.2 25.2 77.6 25.3 78 25.6 C 78.4 25.9 78.7 26.2 78.9 26.7 C 79.1 27.2 79.2 27.7 79.2 28.3 C 79.2 29 79.1 29.5 78.9 30 C 78.7 30.5 78.3 30.9 77.9 31.2 C 77.5 31.4 77 31.6 76.6 31.6 C 76.2 31.6 75.9 31.5 75.6 31.3 C 75.4 31.2 75.1 31 75 30.8 C 74.96 30.79 75 33.7 75 33.7 L 73.9 33.7 Z M 74.9 28.4 C 74.9 29.2 75 29.8 75.3 30.1 C 75.7 30.5 76 30.7 76.5 30.7 C 77 30.7 77.3 30.5 77.7 30.1 C 78 29.7 78.2 29.1 78.2 28.3 C 78.2 27.5 78 27 77.7 26.6 C 77.4 26.2 77 26 76.5 26 C 76.1 26 75.7 26.2 75.4 26.6 C 75 27 74.9 27.6 74.9 28.4 Z M 84.6 31.4 C 84.5 31.2 84.5 31 84.4 30.7 C 84 31 83.7 31.2 83.3 31.4 C 83 31.5 82.6 31.6 82.2 31.6 C 81.5 31.6 81 31.4 80.6 31.1 C 80.3 30.7 80.1 30.3 80.1 29.8 C 80.1 29.5 80.2 29.2 80.3 29 C 80.4 28.8 80.6 28.6 80.8 28.4 C 81.1 28.3 81.3 28.1 81.6 28.1 C 81.8 28 82.1 28 82.5 27.9 C 83.3 27.8 83.9 27.7 84.3 27.6 C 84.3 27.4 84.3 27.3 84.3 27.3 C 84.3 26.9 84.3 26.6 84.1 26.4 C 83.8 26.2 83.4 26 82.9 26 C 82.4 26 82 26.1 81.8 26.3 C 81.6 26.5 81.4 26.8 81.3 27.2 C 81.3 27.2 80.3 27.1 80.3 27.1 C 80.4 26.6 80.5 26.3 80.7 26 C 80.9 25.8 81.3 25.6 81.6 25.4 C 82 25.3 82.5 25.2 83 25.2 C 83.5 25.2 84 25.3 84.3 25.4 C 84.6 25.5 84.9 25.7 85 25.8 C 85.2 26 85.3 26.3 85.3 26.5 C 85.4 26.7 85.4 27 85.4 27.5 C 85.4 27.5 85.4 28.9 85.4 28.9 C 85.4 29.8 85.4 30.4 85.5 30.7 C 85.5 30.9 85.6 31.2 85.7 31.4 C 85.71 31.42 84.6 31.4 84.6 31.4 C 84.6 31.4 84.63 31.42 84.6 31.4 Z M 84.3 28.4 C 84 28.5 83.4 28.6 82.7 28.8 C 82.2 28.8 81.9 28.9 81.8 29 C 81.6 29 81.4 29.1 81.4 29.3 C 81.3 29.4 81.2 29.6 81.2 29.8 C 81.2 30.1 81.3 30.3 81.5 30.5 C 81.7 30.7 82 30.7 82.4 30.7 C 82.8 30.7 83.2 30.7 83.5 30.5 C 83.8 30.3 84 30.1 84.2 29.8 C 84.3 29.5 84.3 29.2 84.3 28.7 C 84.3 28.7 84.3 28.4 84.3 28.4 Z M 91 29.2 C 91 29.2 92 29.3 92 29.3 C 91.9 30 91.6 30.6 91.1 31 C 90.7 31.4 90.1 31.6 89.4 31.6 C 88.6 31.6 87.9 31.3 87.4 30.7 C 86.9 30.2 86.7 29.4 86.7 28.4 C 86.7 27.7 86.8 27.2 87 26.7 C 87.2 26.2 87.5 25.8 88 25.6 C 88.4 25.3 88.9 25.2 89.4 25.2 C 90.1 25.2 90.6 25.4 91.1 25.7 C 91.5 26 91.8 26.5 91.9 27.1 C 91.9 27.1 90.9 27.3 90.9 27.3 C 90.8 26.9 90.6 26.6 90.4 26.4 C 90.1 26.1 89.8 26 89.5 26 C 89 26 88.5 26.2 88.2 26.6 C 87.9 27 87.7 27.6 87.7 28.4 C 87.7 29.2 87.9 29.8 88.2 30.2 C 88.5 30.5 88.9 30.7 89.4 30.7 C 89.8 30.7 90.2 30.6 90.4 30.3 C 90.7 30.1 90.9 29.7 91 29.2 Z M 92.9 24.2 L 92.9 23 L 93.9 23 L 93.9 24.2 L 92.9 24.2 Z M 92.9 31.4 L 92.9 25.3 L 93.9 25.3 L 93.9 31.4 L 92.9 31.4 Z M 97.3 30.5 C 97.4 30.5 97.5 30.5 97.7 30.5 C 97.7 30.5 97.9 31.4 97.9 31.4 C 97.6 31.5 97.3 31.5 97.1 31.5 C 96.7 31.5 96.4 31.4 96.2 31.3 C 96 31.2 95.9 31 95.8 30.9 C 95.7 30.7 95.6 30.3 95.6 29.6 C 95.65 29.64 95.6 26.1 95.6 26.1 L 94.9 26.1 L 94.9 25.3 L 95.6 25.3 L 95.6 23.8 L 96.7 23.2 L 96.7 25.3 L 97.7 25.3 L 97.7 26.1 L 96.7 26.1 C 96.7 26.1 96.67 29.69 96.7 29.7 C 96.7 30 96.7 30.2 96.7 30.3 C 96.8 30.3 96.8 30.4 96.9 30.5 C 97 30.5 97.1 30.5 97.3 30.5 C 97.3 30.5 97.3 30.5 97.3 30.5 Z M 99.3 33.9 C 99.1 33.9 98.9 33.8 98.7 33.8 C 98.7 33.8 98.6 32.8 98.6 32.8 C 98.8 32.9 99 32.9 99.1 32.9 C 99.4 32.9 99.6 32.8 99.7 32.8 C 99.8 32.7 99.9 32.6 100 32.4 C 100.1 32.3 100.2 32.1 100.3 31.7 C 100.4 31.6 100.4 31.5 100.4 31.4 C 100.44 31.43 98.1 25.3 98.1 25.3 L 99.2 25.3 C 99.2 25.3 100.51 28.86 100.5 28.9 C 100.7 29.3 100.8 29.8 101 30.3 C 101.1 29.8 101.2 29.3 101.4 28.9 C 101.37 28.88 102.7 25.3 102.7 25.3 L 103.7 25.3 C 103.7 25.3 101.39 31.52 101.4 31.5 C 101.1 32.2 101 32.6 100.8 32.9 C 100.6 33.2 100.4 33.5 100.2 33.6 C 99.9 33.8 99.7 33.9 99.3 33.9 C 99.3 33.9 99.3 33.9 99.3 33.9 Z M 104 31.4 L 104 30.2 L 105.2 30.2 C 105.2 30.2 105.16 31.42 105.2 31.4 C 105.2 31.8 105.1 32.2 104.9 32.5 C 104.8 32.7 104.5 32.9 104.2 33.1 C 104.2 33.1 103.9 32.6 103.9 32.6 C 104.1 32.5 104.3 32.4 104.4 32.2 C 104.5 32 104.6 31.8 104.6 31.4 C 104.57 31.42 104 31.4 104 31.4 Z M 110.2 31.4 L 110.2 25.3 L 111.1 25.3 C 111.1 25.3 111.15 26.26 111.1 26.3 C 111.4 25.8 111.6 25.5 111.8 25.4 C 112 25.3 112.2 25.2 112.5 25.2 C 112.8 25.2 113.2 25.3 113.5 25.5 C 113.5 25.5 113.2 26.5 113.2 26.5 C 112.9 26.3 112.7 26.3 112.4 26.3 C 112.2 26.3 112 26.3 111.8 26.5 C 111.6 26.6 111.5 26.8 111.4 27 C 111.3 27.4 111.3 27.8 111.3 28.2 C 111.25 28.23 111.3 31.4 111.3 31.4 L 110.2 31.4 Z M 118.3 29.5 C 118.3 29.5 119.4 29.6 119.4 29.6 C 119.2 30.2 118.9 30.7 118.4 31 C 118 31.4 117.4 31.6 116.7 31.6 C 115.8 31.6 115.1 31.3 114.6 30.7 C 114.1 30.2 113.8 29.4 113.8 28.4 C 113.8 27.4 114.1 26.6 114.6 26 C 115.1 25.5 115.8 25.2 116.6 25.2 C 117.5 25.2 118.1 25.5 118.6 26 C 119.1 26.6 119.4 27.4 119.4 28.4 C 119.4 28.4 119.4 28.5 119.4 28.6 C 119.4 28.6 114.9 28.6 114.9 28.6 C 114.9 29.3 115.1 29.8 115.4 30.2 C 115.8 30.5 116.2 30.7 116.7 30.7 C 117.1 30.7 117.4 30.6 117.7 30.4 C 117.9 30.2 118.1 29.9 118.3 29.5 Z M 114.9 27.8 C 114.9 27.8 118.3 27.8 118.3 27.8 C 118.3 27.3 118.1 26.9 117.9 26.6 C 117.6 26.2 117.2 26 116.6 26 C 116.2 26 115.8 26.2 115.5 26.5 C 115.1 26.8 115 27.3 114.9 27.8 Z M 120.3 29.6 C 120.3 29.6 121.3 29.4 121.3 29.4 C 121.3 29.8 121.5 30.2 121.8 30.4 C 122 30.6 122.4 30.7 122.8 30.7 C 123.3 30.7 123.7 30.6 123.9 30.4 C 124.1 30.2 124.2 30 124.2 29.7 C 124.2 29.5 124.1 29.3 123.9 29.2 C 123.8 29.1 123.4 29 122.9 28.8 C 122.1 28.6 121.6 28.5 121.3 28.3 C 121 28.2 120.8 28 120.7 27.8 C 120.5 27.5 120.4 27.2 120.4 26.9 C 120.4 26.7 120.5 26.4 120.6 26.2 C 120.7 26 120.9 25.8 121.1 25.6 C 121.3 25.5 121.5 25.4 121.8 25.3 C 122.1 25.2 122.3 25.2 122.7 25.2 C 123.1 25.2 123.6 25.3 123.9 25.4 C 124.3 25.5 124.5 25.7 124.7 26 C 124.9 26.2 125 26.5 125.1 26.9 C 125.1 26.9 124.1 27 124.1 27 C 124 26.7 123.9 26.5 123.7 26.3 C 123.4 26.1 123.1 26 122.7 26 C 122.3 26 121.9 26.1 121.7 26.3 C 121.5 26.4 121.4 26.6 121.4 26.8 C 121.4 27 121.5 27.1 121.5 27.2 C 121.6 27.3 121.8 27.4 121.9 27.5 C 122 27.5 122.3 27.6 122.9 27.7 C 123.6 27.9 124.1 28.1 124.4 28.2 C 124.7 28.3 124.9 28.5 125.1 28.7 C 125.2 29 125.3 29.3 125.3 29.6 C 125.3 30 125.2 30.3 125 30.6 C 124.8 30.9 124.5 31.1 124.1 31.3 C 123.8 31.5 123.3 31.6 122.9 31.6 C 122.1 31.6 121.5 31.4 121 31.1 C 120.6 30.7 120.4 30.2 120.3 29.6 Z M 126.1 28.4 C 126.1 27.2 126.5 26.4 127.1 25.9 C 127.6 25.4 128.2 25.2 129 25.2 C 129.8 25.2 130.5 25.5 131.1 26 C 131.6 26.6 131.8 27.3 131.8 28.3 C 131.8 29.1 131.7 29.7 131.5 30.1 C 131.3 30.6 130.9 30.9 130.5 31.2 C 130 31.4 129.5 31.6 129 31.6 C 128.1 31.6 127.5 31.3 126.9 30.7 C 126.4 30.2 126.1 29.4 126.1 28.4 Z M 127.2 28.4 C 127.2 29.2 127.4 29.7 127.7 30.1 C 128.1 30.5 128.5 30.7 129 30.7 C 129.5 30.7 129.9 30.5 130.3 30.1 C 130.6 29.7 130.8 29.1 130.8 28.3 C 130.8 27.6 130.6 27 130.3 26.6 C 129.9 26.2 129.5 26 129 26 C 128.5 26 128.1 26.2 127.7 26.6 C 127.4 27 127.2 27.6 127.2 28.4 Z M 137 31.4 C 137 31.4 137.04 30.52 137 30.5 C 136.6 31.2 135.9 31.6 135.1 31.6 C 134.8 31.6 134.4 31.5 134.1 31.3 C 133.8 31.2 133.6 31 133.4 30.8 C 133.3 30.6 133.2 30.4 133.1 30.1 C 133.1 29.9 133 29.5 133 29.1 C 133.03 29.1 133 25.3 133 25.3 L 134.1 25.3 C 134.1 25.3 134.07 28.71 134.1 28.7 C 134.1 29.2 134.1 29.6 134.1 29.8 C 134.2 30.1 134.3 30.3 134.5 30.4 C 134.8 30.6 135 30.7 135.3 30.7 C 135.6 30.7 135.9 30.6 136.2 30.4 C 136.5 30.3 136.7 30.1 136.8 29.8 C 136.9 29.5 136.9 29.1 136.9 28.6 C 136.94 28.59 136.9 25.3 136.9 25.3 L 138 25.3 L 138 31.4 L 137 31.4 Z M 139.6 31.4 L 139.6 25.3 L 140.5 25.3 C 140.5 25.3 140.5 26.26 140.5 26.3 C 140.7 25.8 141 25.5 141.2 25.4 C 141.4 25.3 141.6 25.2 141.8 25.2 C 142.2 25.2 142.5 25.3 142.9 25.5 C 142.9 25.5 142.5 26.5 142.5 26.5 C 142.3 26.3 142 26.3 141.8 26.3 C 141.5 26.3 141.3 26.3 141.2 26.5 C 141 26.6 140.9 26.8 140.8 27 C 140.7 27.4 140.6 27.8 140.6 28.2 C 140.6 28.23 140.6 31.4 140.6 31.4 L 139.6 31.4 Z M 147.5 29.2 C 147.5 29.2 148.5 29.3 148.5 29.3 C 148.4 30 148.1 30.6 147.6 31 C 147.2 31.4 146.6 31.6 145.9 31.6 C 145.1 31.6 144.4 31.3 143.9 30.7 C 143.4 30.2 143.2 29.4 143.2 28.4 C 143.2 27.7 143.3 27.2 143.5 26.7 C 143.7 26.2 144.1 25.8 144.5 25.6 C 144.9 25.3 145.4 25.2 145.9 25.2 C 146.6 25.2 147.1 25.4 147.6 25.7 C 148 26 148.3 26.5 148.4 27.1 C 148.4 27.1 147.4 27.3 147.4 27.3 C 147.3 26.9 147.1 26.6 146.9 26.4 C 146.6 26.1 146.3 26 146 26 C 145.5 26 145 26.2 144.7 26.6 C 144.4 27 144.2 27.6 144.2 28.4 C 144.2 29.2 144.4 29.8 144.7 30.2 C 145 30.5 145.4 30.7 145.9 30.7 C 146.3 30.7 146.7 30.6 146.9 30.3 C 147.2 30.1 147.4 29.7 147.5 29.2 Z M 153.5 29.5 C 153.5 29.5 154.6 29.6 154.6 29.6 C 154.4 30.2 154.1 30.7 153.7 31 C 153.2 31.4 152.6 31.6 151.9 31.6 C 151 31.6 150.3 31.3 149.8 30.7 C 149.3 30.2 149 29.4 149 28.4 C 149 27.4 149.3 26.6 149.8 26 C 150.3 25.5 151 25.2 151.9 25.2 C 152.7 25.2 153.3 25.5 153.8 26 C 154.4 26.6 154.6 27.4 154.6 28.4 C 154.6 28.4 154.6 28.5 154.6 28.6 C 154.6 28.6 150.1 28.6 150.1 28.6 C 150.1 29.3 150.3 29.8 150.6 30.2 C 151 30.5 151.4 30.7 151.9 30.7 C 152.3 30.7 152.6 30.6 152.9 30.4 C 153.2 30.2 153.4 29.9 153.5 29.5 Z M 150.1 27.8 C 150.1 27.8 153.5 27.8 153.5 27.8 C 153.5 27.3 153.4 26.9 153.1 26.6 C 152.8 26.2 152.4 26 151.9 26 C 151.4 26 151 26.2 150.7 26.5 C 150.3 26.8 150.2 27.3 150.1 27.8 Z M 155.5 29.6 C 155.5 29.6 156.5 29.4 156.5 29.4 C 156.5 29.8 156.7 30.2 157 30.4 C 157.2 30.6 157.6 30.7 158.1 30.7 C 158.5 30.7 158.9 30.6 159.1 30.4 C 159.3 30.2 159.5 30 159.5 29.7 C 159.5 29.5 159.4 29.3 159.2 29.2 C 159 29.1 158.7 29 158.1 28.8 C 157.3 28.6 156.8 28.5 156.5 28.3 C 156.2 28.2 156 28 155.9 27.8 C 155.7 27.5 155.6 27.2 155.6 26.9 C 155.6 26.7 155.7 26.4 155.8 26.2 C 156 26 156.1 25.8 156.3 25.6 C 156.5 25.5 156.7 25.4 157 25.3 C 157.3 25.2 157.6 25.2 157.9 25.2 C 158.4 25.2 158.8 25.3 159.1 25.4 C 159.5 25.5 159.8 25.7 159.9 26 C 160.1 26.2 160.2 26.5 160.3 26.9 C 160.3 26.9 159.3 27 159.3 27 C 159.2 26.7 159.1 26.5 158.9 26.3 C 158.7 26.1 158.4 26 158 26 C 157.5 26 157.1 26.1 156.9 26.3 C 156.7 26.4 156.6 26.6 156.6 26.8 C 156.6 27 156.7 27.1 156.8 27.2 C 156.8 27.3 157 27.4 157.2 27.5 C 157.3 27.5 157.6 27.6 158.1 27.7 C 158.8 27.9 159.3 28.1 159.6 28.2 C 159.9 28.3 160.1 28.5 160.3 28.7 C 160.4 29 160.5 29.3 160.5 29.6 C 160.5 30 160.4 30.3 160.2 30.6 C 160 30.9 159.7 31.1 159.4 31.3 C 159 31.5 158.5 31.6 158.1 31.6 C 157.3 31.6 156.7 31.4 156.3 31.1 C 155.8 30.7 155.6 30.2 155.5 29.6 Z M 169.2 31.4 C 169.1 31.2 169 31 169 30.7 C 168.6 31 168.2 31.2 167.9 31.4 C 167.5 31.5 167.1 31.6 166.7 31.6 C 166.1 31.6 165.6 31.4 165.2 31.1 C 164.8 30.7 164.7 30.3 164.7 29.8 C 164.7 29.5 164.7 29.2 164.9 29 C 165 28.8 165.2 28.6 165.4 28.4 C 165.6 28.3 165.9 28.1 166.1 28.1 C 166.3 28 166.6 28 167.1 27.9 C 167.9 27.8 168.5 27.7 168.9 27.6 C 168.9 27.4 168.9 27.3 168.9 27.3 C 168.9 26.9 168.8 26.6 168.6 26.4 C 168.3 26.2 168 26 167.4 26 C 166.9 26 166.6 26.1 166.4 26.3 C 166.1 26.5 166 26.8 165.8 27.2 C 165.8 27.2 164.8 27.1 164.8 27.1 C 164.9 26.6 165.1 26.3 165.3 26 C 165.5 25.8 165.8 25.6 166.2 25.4 C 166.6 25.3 167.1 25.2 167.6 25.2 C 168.1 25.2 168.5 25.3 168.8 25.4 C 169.2 25.5 169.4 25.7 169.6 25.8 C 169.7 26 169.8 26.3 169.9 26.5 C 169.9 26.7 169.9 27 169.9 27.5 C 169.9 27.5 169.9 28.9 169.9 28.9 C 169.9 29.8 170 30.4 170 30.7 C 170 30.9 170.1 31.2 170.3 31.4 C 170.26 31.42 169.2 31.4 169.2 31.4 C 169.2 31.4 169.18 31.42 169.2 31.4 Z M 168.9 28.4 C 168.5 28.5 168 28.6 167.2 28.8 C 166.8 28.8 166.5 28.9 166.3 29 C 166.1 29 166 29.1 165.9 29.3 C 165.8 29.4 165.8 29.6 165.8 29.8 C 165.8 30.1 165.9 30.3 166.1 30.5 C 166.3 30.7 166.6 30.7 167 30.7 C 167.4 30.7 167.7 30.7 168 30.5 C 168.4 30.3 168.6 30.1 168.7 29.8 C 168.8 29.5 168.9 29.2 168.9 28.7 C 168.9 28.7 168.9 28.4 168.9 28.4 Z M 171.5 31.4 L 171.5 25.3 L 172.5 25.3 C 172.5 25.3 172.46 26.2 172.5 26.2 C 172.9 25.5 173.6 25.2 174.4 25.2 C 174.8 25.2 175.1 25.3 175.4 25.4 C 175.7 25.5 175.9 25.7 176.1 25.9 C 176.3 26.1 176.4 26.4 176.4 26.7 C 176.5 26.9 176.5 27.2 176.5 27.7 C 176.48 27.68 176.5 31.4 176.5 31.4 L 175.4 31.4 C 175.4 31.4 175.45 27.72 175.4 27.7 C 175.4 27.3 175.4 27 175.3 26.8 C 175.2 26.6 175.1 26.4 174.9 26.3 C 174.7 26.2 174.5 26.1 174.2 26.1 C 173.7 26.1 173.4 26.2 173 26.5 C 172.7 26.8 172.6 27.3 172.6 28.1 C 172.57 28.09 172.6 31.4 172.6 31.4 L 171.5 31.4 Z M 182 31.4 C 182 31.4 182.01 30.65 182 30.7 C 181.6 31.3 181.1 31.6 180.3 31.6 C 179.8 31.6 179.4 31.4 179 31.2 C 178.6 30.9 178.2 30.5 178 30 C 177.8 29.6 177.7 29 177.7 28.4 C 177.7 27.8 177.8 27.2 178 26.7 C 178.2 26.2 178.5 25.9 178.9 25.6 C 179.3 25.3 179.8 25.2 180.3 25.2 C 180.6 25.2 181 25.3 181.2 25.4 C 181.5 25.6 181.8 25.8 181.9 26 C 181.94 26.03 181.9 23 181.9 23 L 183 23 L 183 31.4 L 182 31.4 Z M 178.7 28.4 C 178.7 29.2 178.9 29.7 179.2 30.1 C 179.6 30.5 180 30.7 180.4 30.7 C 180.9 30.7 181.2 30.5 181.6 30.2 C 181.9 29.8 182 29.2 182 28.5 C 182 27.6 181.9 27 181.5 26.6 C 181.2 26.2 180.8 26 180.4 26 C 179.9 26 179.5 26.2 179.2 26.6 C 178.9 27 178.7 27.6 178.7 28.4 Z " stroke="none" fill="#fff"/>  </g></svg>