<?xml version="1.0" standalone="no"?><!DOCTYPE svg PUBLIC "-//W3C//DTD SVG 1.1//EN" "http://www.w3.org/Graphics/SVG/1.1/DTD/svg11.dtd"><svg xmlns="http://www.w3.org/2000/svg" version="1.1" width="296.1px" height="273.6px" viewBox="0 -7 296.1 273.6" style="top:-7px">  <desc>DSW House Unit 3, Hayfield Business Park Field Lane Auckley Doncaster DN9 3FL 01302 760 008 info@dswlearning.co.uk</desc>  <defs/>  <g id="Polygon63286">    <path d="M 1.5 240.1 L 1.5 237.9 L 3.4 237.9 L 3.4 240.1 L 1.5 240.1 Z M 1.5 253.6 L 1.5 242.2 L 3.4 242.2 L 3.4 253.6 L 1.5 253.6 Z M 6.3 253.6 L 6.3 242.2 L 8.1 242.2 C 8.1 242.2 8.08 243.83 8.1 243.8 C 8.9 242.6 10.1 242 11.7 242 C 12.4 242 13 242.1 13.6 242.3 C 14.2 242.6 14.6 242.9 14.9 243.3 C 15.2 243.7 15.4 244.2 15.5 244.7 C 15.6 245.1 15.6 245.7 15.6 246.6 C 15.61 246.6 15.6 253.6 15.6 253.6 L 13.7 253.6 C 13.7 253.6 13.67 246.68 13.7 246.7 C 13.7 245.9 13.6 245.3 13.4 244.9 C 13.3 244.5 13 244.2 12.6 244 C 12.3 243.7 11.8 243.6 11.3 243.6 C 10.5 243.6 9.8 243.9 9.2 244.4 C 8.6 244.9 8.3 245.9 8.3 247.4 C 8.27 247.39 8.3 253.6 8.3 253.6 L 6.3 253.6 Z M 19 253.6 L 19 243.7 L 17.3 243.7 L 17.3 242.2 L 19 242.2 C 19 242.2 19.04 240.99 19 241 C 19 240.2 19.1 239.7 19.2 239.3 C 19.4 238.8 19.8 238.4 20.2 238.1 C 20.7 237.8 21.3 237.6 22.2 237.6 C 22.7 237.6 23.3 237.7 24 237.8 C 24 237.8 23.7 239.5 23.7 239.5 C 23.3 239.4 22.9 239.4 22.6 239.4 C 22 239.4 21.6 239.5 21.3 239.7 C 21.1 240 21 240.5 21 241.2 C 20.96 241.16 21 242.2 21 242.2 L 23.2 242.2 L 23.2 243.7 L 21 243.7 L 21 253.6 L 19 253.6 Z M 24 247.9 C 24 245.8 24.6 244.2 25.7 243.2 C 26.7 242.4 27.9 242 29.3 242 C 30.9 242 32.2 242.5 33.2 243.5 C 34.2 244.5 34.7 245.9 34.7 247.8 C 34.7 249.2 34.4 250.4 34 251.2 C 33.6 252.1 32.9 252.7 32.1 253.2 C 31.2 253.6 30.3 253.9 29.3 253.9 C 27.7 253.9 26.4 253.4 25.4 252.3 C 24.5 251.3 24 249.8 24 247.9 Z M 26 247.9 C 26 249.4 26.3 250.5 26.9 251.2 C 27.5 251.9 28.3 252.3 29.3 252.3 C 30.3 252.3 31.1 251.9 31.7 251.2 C 32.3 250.5 32.7 249.3 32.7 247.8 C 32.7 246.4 32.3 245.4 31.7 244.6 C 31.1 243.9 30.3 243.6 29.3 243.6 C 28.3 243.6 27.5 243.9 26.9 244.6 C 26.3 245.4 26 246.5 26 247.9 Z M 48.1 252.8 C 48.1 252.6 48 252.3 47.9 251.9 C 47.5 252.4 47 252.8 46.4 253.2 C 45.8 253.5 45.2 253.6 44.6 253.6 C 44 253.6 43.4 253.5 42.8 253.1 C 42.2 252.7 41.7 252.1 41.3 251.4 C 40.9 250.6 40.8 249.7 40.8 248.8 C 40.8 247.7 41 246.5 41.6 245.4 C 42.2 244.3 42.9 243.4 43.8 242.8 C 44.7 242.3 45.5 242 46.3 242 C 47 242 47.5 242.1 48.1 242.5 C 48.7 242.8 49.2 243.3 49.6 243.9 C 49.58 243.95 49.9 242.3 49.9 242.3 L 51.9 242.3 C 51.9 242.3 50.32 249.49 50.3 249.5 C 50.1 250.5 50 251 50 251.2 C 50 251.3 50.1 251.5 50.2 251.7 C 50.4 251.8 50.5 251.9 50.7 251.9 C 51.1 251.9 51.6 251.6 52.2 251.2 C 53.1 250.6 53.7 249.9 54.2 248.9 C 54.7 247.9 54.9 246.9 54.9 245.9 C 54.9 244.7 54.6 243.6 54 242.6 C 53.4 241.5 52.4 240.7 51.2 240.1 C 50 239.5 48.7 239.1 47.2 239.1 C 45.5 239.1 44 239.5 42.6 240.3 C 41.2 241.1 40.2 242.2 39.4 243.7 C 38.6 245.2 38.3 246.7 38.3 248.4 C 38.3 250.2 38.6 251.7 39.4 252.9 C 40.2 254.2 41.3 255.1 42.7 255.7 C 44.1 256.4 45.7 256.7 47.5 256.7 C 49.4 256.7 51 256.3 52.2 255.7 C 53.5 255.1 54.4 254.3 55.1 253.4 C 55.1 253.4 57 253.4 57 253.4 C 56.6 254.2 56 254.9 55.1 255.7 C 54.2 256.5 53.2 257.1 52 257.6 C 50.7 258 49.3 258.2 47.5 258.2 C 45.9 258.2 44.5 258 43.1 257.6 C 41.8 257.2 40.6 256.6 39.7 255.8 C 38.8 255 38 254 37.6 253 C 37 251.6 36.7 250.1 36.7 248.6 C 36.7 246.8 37 245.2 37.7 243.6 C 38.6 241.6 39.9 240.2 41.5 239.1 C 43.1 238.1 45 237.6 47.3 237.6 C 49.1 237.6 50.7 237.9 52.1 238.7 C 53.5 239.4 54.6 240.5 55.4 241.9 C 56.1 243.2 56.5 244.5 56.5 246 C 56.5 248 55.8 249.9 54.3 251.5 C 53 252.9 51.6 253.7 50 253.7 C 49.5 253.7 49.1 253.6 48.8 253.4 C 48.5 253.3 48.3 253.1 48.1 252.8 C 48.1 252.8 48.1 252.8 48.1 252.8 Z M 42.7 249 C 42.7 249.9 43 250.7 43.4 251.2 C 43.9 251.8 44.4 252.1 45 252.1 C 45.4 252.1 45.9 251.9 46.3 251.7 C 46.8 251.5 47.2 251.1 47.6 250.6 C 48 250.2 48.3 249.6 48.6 248.8 C 48.8 248.1 49 247.4 49 246.6 C 49 245.7 48.7 244.9 48.2 244.4 C 47.8 243.8 47.2 243.6 46.5 243.6 C 46 243.6 45.6 243.7 45.2 243.9 C 44.8 244.2 44.4 244.5 44 245 C 43.6 245.6 43.3 246.2 43.1 246.9 C 42.9 247.7 42.7 248.3 42.7 249 Z M 66.7 253.6 C 66.7 253.6 66.66 252.18 66.7 252.2 C 65.9 253.3 64.9 253.9 63.5 253.9 C 62.6 253.9 61.7 253.6 61 253.1 C 60.2 252.6 59.6 251.9 59.2 251 C 58.8 250.1 58.6 249.1 58.6 247.9 C 58.6 246.8 58.7 245.8 59.1 244.8 C 59.5 243.9 60.1 243.2 60.8 242.7 C 61.6 242.2 62.4 242 63.4 242 C 64.1 242 64.7 242.1 65.2 242.4 C 65.8 242.7 66.2 243.1 66.5 243.5 C 66.53 243.52 66.5 237.9 66.5 237.9 L 68.4 237.9 L 68.4 253.6 L 66.7 253.6 Z M 60.5 247.9 C 60.5 249.4 60.9 250.5 61.5 251.2 C 62.1 251.9 62.8 252.3 63.6 252.3 C 64.5 252.3 65.2 251.9 65.8 251.2 C 66.4 250.6 66.7 249.5 66.7 248.1 C 66.7 246.5 66.4 245.4 65.8 244.6 C 65.2 243.9 64.4 243.6 63.6 243.6 C 62.7 243.6 62 243.9 61.4 244.6 C 60.8 245.3 60.5 246.4 60.5 247.9 Z M 70.7 250.2 C 70.7 250.2 72.6 249.9 72.6 249.9 C 72.7 250.7 73 251.3 73.5 251.7 C 74 252.1 74.7 252.3 75.6 252.3 C 76.5 252.3 77.1 252.1 77.6 251.7 C 78 251.4 78.2 251 78.2 250.5 C 78.2 250 78 249.7 77.6 249.4 C 77.4 249.3 76.7 249 75.7 248.8 C 74.2 248.4 73.3 248.1 72.7 247.9 C 72.2 247.6 71.7 247.2 71.5 246.8 C 71.2 246.3 71 245.8 71 245.2 C 71 244.7 71.2 244.3 71.4 243.8 C 71.6 243.4 71.9 243 72.3 242.7 C 72.6 242.5 73 242.3 73.6 242.2 C 74.1 242 74.6 242 75.2 242 C 76.1 242 76.9 242.1 77.6 242.3 C 78.3 242.6 78.8 242.9 79.1 243.4 C 79.4 243.8 79.6 244.4 79.8 245.2 C 79.8 245.2 77.9 245.4 77.9 245.4 C 77.8 244.8 77.5 244.4 77.1 244 C 76.7 243.7 76.1 243.5 75.4 243.5 C 74.5 243.5 73.9 243.7 73.5 244 C 73.1 244.3 72.9 244.6 72.9 245 C 72.9 245.3 73 245.5 73.1 245.7 C 73.3 245.9 73.5 246.1 73.9 246.2 C 74.1 246.3 74.6 246.4 75.6 246.7 C 77 247.1 77.9 247.4 78.5 247.6 C 79 247.8 79.4 248.2 79.7 248.6 C 80 249.1 80.2 249.6 80.2 250.3 C 80.2 250.9 80 251.5 79.6 252.1 C 79.3 252.7 78.7 253.1 78 253.4 C 77.3 253.7 76.5 253.9 75.6 253.9 C 74.1 253.9 73 253.6 72.2 253 C 71.4 252.3 70.9 251.4 70.7 250.2 Z M 84.6 253.6 L 81.1 242.2 L 83.1 242.2 L 84.9 248.8 C 84.9 248.8 85.59 251.24 85.6 251.2 C 85.6 251.1 85.8 250.3 86.2 248.9 C 86.18 248.89 88 242.2 88 242.2 L 90 242.2 L 91.7 248.8 L 92.3 251 L 92.9 248.8 L 94.9 242.2 L 96.8 242.2 L 93.2 253.6 L 91.2 253.6 L 89.4 246.8 L 88.9 244.8 L 86.6 253.6 L 84.6 253.6 Z M 98.3 253.6 L 98.3 237.9 L 100.3 237.9 L 100.3 253.6 L 98.3 253.6 Z M 111.1 249.9 C 111.1 249.9 113.1 250.2 113.1 250.2 C 112.8 251.4 112.2 252.3 111.3 252.9 C 110.5 253.6 109.4 253.9 108.1 253.9 C 106.4 253.9 105.1 253.4 104.1 252.3 C 103.1 251.3 102.6 249.9 102.6 248 C 102.6 246.1 103.1 244.6 104.1 243.5 C 105.1 242.5 106.4 242 107.9 242 C 109.5 242 110.7 242.5 111.7 243.5 C 112.7 244.5 113.1 246 113.1 247.9 C 113.1 248 113.1 248.2 113.1 248.4 C 113.1 248.4 104.6 248.4 104.6 248.4 C 104.7 249.7 105 250.6 105.7 251.3 C 106.3 252 107.1 252.3 108.1 252.3 C 108.8 252.3 109.4 252.1 109.9 251.7 C 110.4 251.4 110.8 250.8 111.1 249.9 Z M 104.7 246.8 C 104.7 246.8 111.1 246.8 111.1 246.8 C 111 245.9 110.8 245.1 110.4 244.7 C 109.7 243.9 109 243.5 108 243.5 C 107.1 243.5 106.3 243.8 105.7 244.4 C 105.1 245 104.8 245.8 104.7 246.8 Z M 123.3 253.6 C 123.1 253.2 123 252.7 122.9 252.2 C 122.2 252.8 121.5 253.2 120.9 253.5 C 120.2 253.7 119.5 253.9 118.7 253.9 C 117.5 253.9 116.5 253.6 115.9 253 C 115.2 252.3 114.8 251.6 114.8 250.6 C 114.8 250.1 115 249.5 115.2 249.1 C 115.5 248.6 115.8 248.2 116.2 248 C 116.6 247.7 117.1 247.5 117.6 247.3 C 118 247.2 118.6 247.1 119.3 247 C 120.9 246.9 122 246.6 122.8 246.4 C 122.8 246.1 122.8 245.9 122.8 245.9 C 122.8 245.1 122.6 244.5 122.2 244.2 C 121.8 243.8 121 243.6 120 243.6 C 119.1 243.6 118.5 243.7 118 244 C 117.6 244.3 117.3 244.9 117.1 245.7 C 117.1 245.7 115.2 245.5 115.2 245.5 C 115.3 244.7 115.6 244 116 243.5 C 116.4 243 117 242.6 117.7 242.4 C 118.5 242.1 119.3 242 120.3 242 C 121.3 242 122.1 242.1 122.7 242.3 C 123.3 242.5 123.8 242.8 124 243.2 C 124.3 243.5 124.5 243.9 124.6 244.5 C 124.7 244.8 124.7 245.4 124.7 246.3 C 124.7 246.3 124.7 248.8 124.7 248.8 C 124.7 250.6 124.8 251.8 124.9 252.2 C 124.9 252.7 125.1 253.2 125.4 253.6 C 125.35 253.62 123.3 253.6 123.3 253.6 C 123.3 253.6 123.33 253.62 123.3 253.6 Z M 122.8 247.9 C 122.1 248.2 121 248.4 119.6 248.6 C 118.8 248.7 118.3 248.9 117.9 249 C 117.6 249.2 117.4 249.4 117.2 249.6 C 117 249.9 116.9 250.2 116.9 250.6 C 116.9 251.1 117.1 251.5 117.5 251.8 C 117.9 252.2 118.5 252.4 119.2 252.4 C 120 252.4 120.6 252.2 121.2 251.9 C 121.8 251.5 122.2 251.1 122.5 250.5 C 122.7 250.1 122.8 249.5 122.8 248.6 C 122.8 248.6 122.8 247.9 122.8 247.9 Z M 127.7 253.6 L 127.7 242.2 L 129.5 242.2 C 129.5 242.2 129.45 243.94 129.5 243.9 C 129.9 243.1 130.3 242.6 130.7 242.3 C 131.1 242.1 131.5 242 131.9 242 C 132.6 242 133.2 242.2 133.9 242.6 C 133.9 242.6 133.2 244.4 133.2 244.4 C 132.8 244.1 132.3 243.9 131.8 243.9 C 131.4 243.9 131 244.1 130.7 244.3 C 130.4 244.6 130.1 244.9 130 245.4 C 129.8 246.1 129.6 246.8 129.6 247.6 C 129.65 247.64 129.6 253.6 129.6 253.6 L 127.7 253.6 Z M 135.1 253.6 L 135.1 242.2 L 136.8 242.2 C 136.8 242.2 136.8 243.83 136.8 243.8 C 137.6 242.6 138.8 242 140.4 242 C 141.1 242 141.8 242.1 142.3 242.3 C 142.9 242.6 143.3 242.9 143.6 243.3 C 143.9 243.7 144.1 244.2 144.2 244.7 C 144.3 245.1 144.3 245.7 144.3 246.6 C 144.33 246.6 144.3 253.6 144.3 253.6 L 142.4 253.6 C 142.4 253.6 142.4 246.68 142.4 246.7 C 142.4 245.9 142.3 245.3 142.2 244.9 C 142 244.5 141.8 244.2 141.4 244 C 141 243.7 140.5 243.6 140 243.6 C 139.2 243.6 138.5 243.9 137.9 244.4 C 137.3 244.9 137 245.9 137 247.4 C 137 247.39 137 253.6 137 253.6 L 135.1 253.6 Z M 147.3 240.1 L 147.3 237.9 L 149.2 237.9 L 149.2 240.1 L 147.3 240.1 Z M 147.3 253.6 L 147.3 242.2 L 149.2 242.2 L 149.2 253.6 L 147.3 253.6 Z M 152.2 253.6 L 152.2 242.2 L 153.9 242.2 C 153.9 242.2 153.92 243.83 153.9 243.8 C 154.8 242.6 156 242 157.6 242 C 158.2 242 158.9 242.1 159.5 242.3 C 160 242.6 160.5 242.9 160.7 243.3 C 161 243.7 161.2 244.2 161.3 244.7 C 161.4 245.1 161.5 245.7 161.5 246.6 C 161.46 246.6 161.5 253.6 161.5 253.6 L 159.5 253.6 C 159.5 253.6 159.52 246.68 159.5 246.7 C 159.5 245.9 159.4 245.3 159.3 244.9 C 159.1 244.5 158.9 244.2 158.5 244 C 158.1 243.7 157.7 243.6 157.1 243.6 C 156.3 243.6 155.6 243.9 155 244.4 C 154.4 244.9 154.1 245.9 154.1 247.4 C 154.12 247.39 154.1 253.6 154.1 253.6 L 152.2 253.6 Z M 164.1 254.6 C 164.1 254.6 165.9 254.8 165.9 254.8 C 166 255.4 166.2 255.8 166.6 256.1 C 167.1 256.5 167.7 256.6 168.6 256.6 C 169.5 256.6 170.2 256.5 170.6 256.1 C 171.1 255.8 171.5 255.2 171.6 254.6 C 171.7 254.2 171.8 253.4 171.8 252.1 C 170.9 253.1 169.9 253.6 168.6 253.6 C 167 253.6 165.8 253.1 165 251.9 C 164.1 250.8 163.7 249.4 163.7 247.8 C 163.7 246.8 163.9 245.8 164.3 244.8 C 164.7 243.9 165.2 243.2 166 242.7 C 166.7 242.2 167.6 242 168.6 242 C 170 242 171.1 242.5 172 243.6 C 171.95 243.58 172 242.2 172 242.2 L 173.7 242.2 C 173.7 242.2 173.73 252.07 173.7 252.1 C 173.7 253.8 173.6 255.1 173.2 255.8 C 172.8 256.6 172.3 257.2 171.5 257.6 C 170.7 258 169.7 258.2 168.6 258.2 C 167.2 258.2 166.1 257.9 165.3 257.3 C 164.4 256.7 164 255.8 164.1 254.6 Z M 165.7 247.7 C 165.7 249.2 166 250.3 166.6 251 C 167.2 251.7 167.9 252 168.8 252 C 169.7 252 170.4 251.7 171 251 C 171.6 250.3 171.9 249.2 171.9 247.8 C 171.9 246.4 171.6 245.3 171 244.6 C 170.4 243.9 169.6 243.6 168.8 243.6 C 167.9 243.6 167.2 243.9 166.6 244.6 C 166 245.3 165.7 246.3 165.7 247.7 Z M 177.2 253.6 L 177.2 251.4 L 179.4 251.4 L 179.4 253.6 L 177.2 253.6 Z M 190.2 249.4 C 190.2 249.4 192.1 249.7 192.1 249.7 C 191.9 251 191.4 252 190.5 252.8 C 189.7 253.5 188.6 253.9 187.4 253.9 C 185.8 253.9 184.5 253.4 183.6 252.3 C 182.7 251.3 182.2 249.9 182.2 248 C 182.2 246.7 182.4 245.6 182.8 244.7 C 183.2 243.8 183.8 243.1 184.7 242.6 C 185.5 242.2 186.4 242 187.4 242 C 188.6 242 189.6 242.3 190.4 242.9 C 191.2 243.5 191.7 244.4 191.9 245.6 C 191.9 245.6 190.1 245.8 190.1 245.8 C 189.9 245.1 189.6 244.5 189.1 244.1 C 188.6 243.7 188.1 243.5 187.5 243.5 C 186.5 243.5 185.7 243.9 185.1 244.6 C 184.5 245.3 184.2 246.4 184.2 247.9 C 184.2 249.4 184.5 250.5 185 251.2 C 185.6 251.9 186.4 252.3 187.3 252.3 C 188.1 252.3 188.7 252.1 189.2 251.6 C 189.8 251.1 190.1 250.4 190.2 249.4 Z M 193 247.9 C 193 245.8 193.6 244.2 194.8 243.2 C 195.8 242.4 197 242 198.4 242 C 200 242 201.2 242.5 202.2 243.5 C 203.2 244.5 203.7 245.9 203.7 247.8 C 203.7 249.2 203.5 250.4 203.1 251.2 C 202.6 252.1 202 252.7 201.2 253.2 C 200.3 253.6 199.4 253.9 198.4 253.9 C 196.8 253.9 195.5 253.4 194.5 252.3 C 193.5 251.3 193 249.8 193 247.9 Z M 195 247.9 C 195 249.4 195.4 250.5 196 251.2 C 196.6 251.9 197.4 252.3 198.4 252.3 C 199.4 252.3 200.2 251.9 200.8 251.2 C 201.4 250.5 201.7 249.3 201.7 247.8 C 201.7 246.4 201.4 245.4 200.8 244.6 C 200.1 243.9 199.3 243.6 198.4 243.6 C 197.4 243.6 196.6 243.9 196 244.6 C 195.4 245.4 195 246.5 195 247.9 Z M 206.6 253.6 L 206.6 251.4 L 208.8 251.4 L 208.8 253.6 L 206.6 253.6 Z M 219.6 253.6 C 219.6 253.6 219.59 251.94 219.6 251.9 C 218.7 253.2 217.5 253.9 216 253.9 C 215.3 253.9 214.7 253.7 214.1 253.5 C 213.5 253.2 213.1 252.9 212.8 252.5 C 212.5 252.1 212.3 251.6 212.2 251.1 C 212.1 250.7 212.1 250.1 212.1 249.3 C 212.07 249.28 212.1 242.2 212.1 242.2 L 214 242.2 C 214 242.2 214.01 248.54 214 248.5 C 214 249.5 214 250.2 214.1 250.6 C 214.2 251.1 214.5 251.5 214.9 251.8 C 215.3 252.1 215.8 252.2 216.4 252.2 C 216.9 252.2 217.5 252.1 218 251.8 C 218.5 251.5 218.9 251.1 219.1 250.5 C 219.3 250 219.4 249.3 219.4 248.3 C 219.39 248.32 219.4 242.2 219.4 242.2 L 221.3 242.2 L 221.3 253.6 L 219.6 253.6 Z M 224.4 253.6 L 224.4 237.9 L 226.3 237.9 L 226.3 246.8 L 230.9 242.2 L 233.4 242.2 L 229 246.4 L 233.8 253.6 L 231.4 253.6 L 227.7 247.8 L 226.3 249.1 L 226.3 253.6 L 224.4 253.6 Z " stroke="none" fill="#000"/>  </g>  <g id="Polygon63285">    <path d="M 2.5 199.5 C 1.4 198.1 0.9 196 0.9 193 C 0.9 191.2 1.1 189.7 1.5 188.6 C 1.9 187.4 2.4 186.5 3.2 185.9 C 4 185.3 4.9 185 6 185 C 6.9 185 7.6 185.2 8.3 185.5 C 8.9 185.9 9.4 186.3 9.9 187 C 10.3 187.6 10.6 188.4 10.8 189.3 C 11.1 190.2 11.2 191.5 11.2 193 C 11.2 194.9 11 196.4 10.6 197.5 C 10.2 198.7 9.7 199.5 8.9 200.2 C 8.2 200.8 7.2 201.1 6 201.1 C 4.5 201.1 3.3 200.5 2.5 199.5 C 2.5 199.5 2.5 199.5 2.5 199.5 Z M 3.9 187.7 C 3.2 188.7 2.9 190.5 2.9 193 C 2.9 195.6 3.2 197.4 3.8 198.2 C 4.4 199.1 5.2 199.5 6 199.5 C 6.9 199.5 7.7 199.1 8.3 198.2 C 8.9 197.3 9.2 195.6 9.2 193 C 9.2 190.5 8.9 188.7 8.3 187.9 C 7.7 187 6.9 186.6 6 186.6 C 5.1 186.6 4.4 187 3.9 187.7 C 3.9 187.7 3.9 187.7 3.9 187.7 Z M 20.4 200.8 L 18.5 200.8 C 18.5 200.8 18.5 188.5 18.5 188.5 C 18 188.9 17.4 189.4 16.7 189.8 C 15.9 190.3 15.2 190.6 14.6 190.8 C 14.6 190.8 14.6 189 14.6 189 C 15.7 188.4 16.7 187.8 17.5 187.1 C 18.3 186.4 18.8 185.7 19.2 185 C 19.19 185 20.4 185 20.4 185 L 20.4 200.8 Z M 25.4 196.7 C 25.4 196.7 27.3 196.4 27.3 196.4 C 27.6 197.5 27.9 198.3 28.5 198.8 C 29 199.3 29.6 199.5 30.4 199.5 C 31.3 199.5 32.1 199.2 32.7 198.5 C 33.3 197.9 33.7 197.1 33.7 196.2 C 33.7 195.3 33.4 194.6 32.8 194 C 32.2 193.4 31.5 193.1 30.6 193.1 C 30.2 193.1 29.8 193.2 29.2 193.4 C 29.2 193.4 29.4 191.7 29.4 191.7 C 29.6 191.7 29.7 191.7 29.7 191.7 C 30.6 191.7 31.3 191.5 32 191 C 32.6 190.6 32.9 189.9 32.9 189.1 C 32.9 188.3 32.7 187.8 32.2 187.3 C 31.7 186.8 31.1 186.6 30.4 186.6 C 29.6 186.6 29 186.8 28.5 187.3 C 28 187.8 27.7 188.5 27.5 189.4 C 27.5 189.4 25.6 189.1 25.6 189.1 C 25.8 187.8 26.4 186.8 27.2 186.1 C 28 185.4 29.1 185 30.3 185 C 31.2 185 32 185.2 32.7 185.6 C 33.4 185.9 34 186.4 34.4 187.1 C 34.7 187.7 34.9 188.4 34.9 189.1 C 34.9 189.8 34.8 190.4 34.4 191 C 34 191.5 33.5 192 32.8 192.3 C 33.7 192.5 34.4 192.9 34.9 193.6 C 35.4 194.3 35.7 195.1 35.7 196.2 C 35.7 197.5 35.2 198.7 34.2 199.7 C 33.2 200.6 31.9 201.1 30.4 201.1 C 29 201.1 27.9 200.7 27 199.9 C 26 199 25.5 198 25.4 196.7 Z M 39.2 199.5 C 38.1 198.1 37.6 196 37.6 193 C 37.6 191.2 37.8 189.7 38.2 188.6 C 38.6 187.4 39.1 186.5 39.9 185.9 C 40.7 185.3 41.6 185 42.8 185 C 43.6 185 44.3 185.2 45 185.5 C 45.6 185.9 46.1 186.3 46.6 187 C 47 187.6 47.3 188.4 47.5 189.3 C 47.8 190.2 47.9 191.5 47.9 193 C 47.9 194.9 47.7 196.4 47.3 197.5 C 46.9 198.7 46.4 199.5 45.6 200.2 C 44.9 200.8 43.9 201.1 42.8 201.1 C 41.2 201.1 40 200.5 39.2 199.5 C 39.2 199.5 39.2 199.5 39.2 199.5 Z M 40.6 187.7 C 39.9 188.7 39.6 190.5 39.6 193 C 39.6 195.6 39.9 197.4 40.5 198.2 C 41.1 199.1 41.9 199.5 42.8 199.5 C 43.6 199.5 44.4 199.1 45 198.2 C 45.6 197.3 45.9 195.6 45.9 193 C 45.9 190.5 45.6 188.7 45 187.9 C 44.4 187 43.6 186.6 42.7 186.6 C 41.8 186.6 41.1 187 40.6 187.7 C 40.6 187.7 40.6 187.7 40.6 187.7 Z M 60 199 L 60 200.8 C 60 200.8 49.61 200.82 49.6 200.8 C 49.6 200.4 49.7 199.9 49.8 199.5 C 50.1 198.8 50.5 198.1 51.1 197.4 C 51.7 196.7 52.5 195.9 53.6 195 C 55.3 193.6 56.5 192.5 57.1 191.7 C 57.7 190.8 58 190.1 58 189.3 C 58 188.6 57.7 187.9 57.2 187.4 C 56.6 186.9 55.9 186.6 55 186.6 C 54.1 186.6 53.4 186.9 52.8 187.4 C 52.3 188 52 188.8 52 189.8 C 52 189.8 50 189.6 50 189.6 C 50.1 188.1 50.6 186.9 51.5 186.2 C 52.4 185.4 53.6 185 55.1 185 C 56.6 185 57.8 185.4 58.7 186.3 C 59.6 187.1 60 188.1 60 189.4 C 60 190 59.9 190.6 59.6 191.2 C 59.4 191.8 58.9 192.5 58.3 193.2 C 57.7 193.8 56.7 194.8 55.3 195.9 C 54.2 196.9 53.4 197.6 53.1 197.9 C 52.8 198.3 52.5 198.6 52.3 199 C 52.29 198.96 60 199 60 199 Z M 68.3 187.1 L 68.3 185.3 L 78.5 185.3 C 78.5 185.3 78.53 186.78 78.5 186.8 C 77.5 187.8 76.5 189.3 75.5 191 C 74.6 192.8 73.8 194.6 73.3 196.5 C 72.9 197.8 72.6 199.2 72.5 200.8 C 72.5 200.8 70.5 200.8 70.5 200.8 C 70.6 199.6 70.8 198.1 71.3 196.3 C 71.7 194.6 72.4 192.9 73.3 191.3 C 74.1 189.6 75.1 188.2 76 187.1 C 76.04 187.13 68.3 187.1 68.3 187.1 Z M 90.5 188.9 C 90.5 188.9 88.5 189.1 88.5 189.1 C 88.4 188.3 88.1 187.8 87.8 187.4 C 87.3 186.9 86.7 186.6 85.9 186.6 C 85.3 186.6 84.7 186.8 84.3 187.1 C 83.7 187.6 83.2 188.2 82.8 189.1 C 82.5 189.9 82.3 191.1 82.3 192.7 C 82.7 192 83.3 191.5 84 191.1 C 84.7 190.8 85.4 190.6 86.1 190.6 C 87.4 190.6 88.5 191.1 89.4 192 C 90.3 193 90.8 194.2 90.8 195.7 C 90.8 196.7 90.5 197.6 90.1 198.5 C 89.7 199.3 89.1 200 88.4 200.4 C 87.6 200.9 86.8 201.1 85.8 201.1 C 84.2 201.1 82.9 200.5 81.9 199.3 C 80.9 198.1 80.4 196.2 80.4 193.4 C 80.4 190.4 80.9 188.2 82 186.8 C 83 185.6 84.3 185 86 185 C 87.2 185 88.3 185.4 89 186 C 89.8 186.7 90.3 187.7 90.5 188.9 Z M 82.6 195.7 C 82.6 196.4 82.7 197 83 197.6 C 83.3 198.2 83.7 198.7 84.2 199 C 84.7 199.3 85.2 199.5 85.8 199.5 C 86.6 199.5 87.3 199.2 87.9 198.5 C 88.5 197.8 88.8 197 88.8 195.8 C 88.8 194.7 88.5 193.9 87.9 193.2 C 87.3 192.6 86.6 192.3 85.7 192.3 C 84.8 192.3 84.1 192.6 83.5 193.2 C 82.9 193.9 82.6 194.7 82.6 195.7 Z M 94.2 199.5 C 93.2 198.1 92.7 196 92.7 193 C 92.7 191.2 92.9 189.7 93.2 188.6 C 93.6 187.4 94.2 186.5 95 185.9 C 95.7 185.3 96.7 185 97.8 185 C 98.7 185 99.4 185.2 100 185.5 C 100.7 185.9 101.2 186.3 101.6 187 C 102 187.6 102.4 188.4 102.6 189.3 C 102.8 190.2 102.9 191.5 102.9 193 C 102.9 194.9 102.8 196.4 102.4 197.5 C 102 198.7 101.4 199.5 100.7 200.2 C 99.9 200.8 99 201.1 97.8 201.1 C 96.3 201.1 95.1 200.5 94.2 199.5 C 94.2 199.5 94.2 199.5 94.2 199.5 Z M 95.7 187.7 C 95 188.7 94.7 190.5 94.7 193 C 94.7 195.6 95 197.4 95.6 198.2 C 96.2 199.1 96.9 199.5 97.8 199.5 C 98.7 199.5 99.4 199.1 100 198.2 C 100.7 197.3 101 195.6 101 193 C 101 190.5 100.7 188.7 100 187.9 C 99.4 187 98.7 186.6 97.8 186.6 C 96.9 186.6 96.2 187 95.7 187.7 C 95.7 187.7 95.7 187.7 95.7 187.7 Z M 112.6 199.5 C 111.5 198.1 111 196 111 193 C 111 191.2 111.2 189.7 111.6 188.6 C 112 187.4 112.5 186.5 113.3 185.9 C 114.1 185.3 115 185 116.2 185 C 117 185 117.7 185.2 118.4 185.5 C 119 185.9 119.5 186.3 120 187 C 120.4 187.6 120.7 188.4 120.9 189.3 C 121.2 190.2 121.3 191.5 121.3 193 C 121.3 194.9 121.1 196.4 120.7 197.5 C 120.3 198.7 119.8 199.5 119 200.2 C 118.3 200.8 117.3 201.1 116.2 201.1 C 114.6 201.1 113.4 200.5 112.6 199.5 C 112.6 199.5 112.6 199.5 112.6 199.5 Z M 114 187.7 C 113.3 188.7 113 190.5 113 193 C 113 195.6 113.3 197.4 113.9 198.2 C 114.5 199.1 115.3 199.5 116.2 199.5 C 117 199.5 117.8 199.1 118.4 198.2 C 119 197.3 119.3 195.6 119.3 193 C 119.3 190.5 119 188.7 118.4 187.9 C 117.8 187 117 186.6 116.1 186.6 C 115.2 186.6 114.5 187 114 187.7 C 114 187.7 114 187.7 114 187.7 Z M 124.8 199.5 C 123.8 198.1 123.3 196 123.3 193 C 123.3 191.2 123.4 189.7 123.8 188.6 C 124.2 187.4 124.8 186.5 125.5 185.9 C 126.3 185.3 127.2 185 128.4 185 C 129.2 185 130 185.2 130.6 185.5 C 131.3 185.9 131.8 186.3 132.2 187 C 132.6 187.6 132.9 188.4 133.2 189.3 C 133.4 190.2 133.5 191.5 133.5 193 C 133.5 194.9 133.3 196.4 133 197.5 C 132.6 198.7 132 199.5 131.3 200.2 C 130.5 200.8 129.5 201.1 128.4 201.1 C 126.9 201.1 125.7 200.5 124.8 199.5 C 124.8 199.5 124.8 199.5 124.8 199.5 Z M 126.2 187.7 C 125.6 188.7 125.2 190.5 125.2 193 C 125.2 195.6 125.5 197.4 126.2 198.2 C 126.8 199.1 127.5 199.5 128.4 199.5 C 129.3 199.5 130 199.1 130.6 198.2 C 131.2 197.3 131.5 195.6 131.5 193 C 131.5 190.5 131.2 188.7 130.6 187.9 C 130 187 129.3 186.6 128.4 186.6 C 127.5 186.6 126.8 187 126.2 187.7 C 126.2 187.7 126.2 187.7 126.2 187.7 Z M 138.5 192.3 C 137.7 192 137.1 191.6 136.7 191 C 136.3 190.5 136.1 189.8 136.1 189.1 C 136.1 187.9 136.5 187 137.3 186.2 C 138.2 185.4 139.3 185 140.6 185 C 142 185 143.1 185.4 143.9 186.2 C 144.8 187 145.2 188 145.2 189.1 C 145.2 189.8 145 190.5 144.6 191 C 144.2 191.6 143.7 192 142.9 192.3 C 143.8 192.6 144.6 193.1 145.1 193.8 C 145.6 194.5 145.8 195.3 145.8 196.3 C 145.8 197.7 145.4 198.8 144.4 199.7 C 143.5 200.6 142.2 201.1 140.7 201.1 C 139.1 201.1 137.9 200.6 136.9 199.7 C 135.9 198.8 135.5 197.6 135.5 196.3 C 135.5 195.2 135.7 194.4 136.2 193.7 C 136.8 193 137.5 192.5 138.5 192.3 Z M 138.1 189 C 138.1 189.7 138.3 190.4 138.8 190.8 C 139.3 191.3 139.9 191.5 140.7 191.5 C 141.4 191.5 142 191.3 142.5 190.8 C 143 190.4 143.2 189.8 143.2 189.1 C 143.2 188.4 143 187.8 142.5 187.3 C 142 186.8 141.4 186.6 140.6 186.6 C 139.9 186.6 139.3 186.8 138.8 187.3 C 138.3 187.8 138.1 188.3 138.1 189 Z M 137.5 196.3 C 137.5 196.8 137.6 197.4 137.8 197.9 C 138.1 198.4 138.5 198.8 139 199.1 C 139.5 199.4 140.1 199.5 140.7 199.5 C 141.6 199.5 142.4 199.2 143 198.6 C 143.6 198 143.9 197.3 143.9 196.3 C 143.9 195.4 143.6 194.6 142.9 194 C 142.3 193.4 141.5 193.1 140.6 193.1 C 139.7 193.1 139 193.4 138.4 194 C 137.8 194.6 137.5 195.4 137.5 196.3 Z " stroke="none" fill="#000"/>  </g>  <g id="Polygon63284">    <path d="M 1.7 148 L 1.7 132.3 C 1.7 132.3 7.12 132.27 7.1 132.3 C 8.3 132.3 9.3 132.3 9.9 132.5 C 10.8 132.7 11.6 133.1 12.2 133.6 C 13.1 134.3 13.7 135.2 14.1 136.3 C 14.5 137.4 14.7 138.7 14.7 140.1 C 14.7 141.3 14.6 142.3 14.3 143.2 C 14 144.2 13.7 144.9 13.2 145.5 C 12.8 146.1 12.3 146.6 11.8 147 C 11.3 147.3 10.6 147.6 9.9 147.7 C 9.2 147.9 8.3 148 7.4 148 C 7.38 148.02 1.7 148 1.7 148 Z M 3.8 146.2 C 3.8 146.2 7.14 146.16 7.1 146.2 C 8.2 146.2 9 146.1 9.6 145.9 C 10.2 145.7 10.6 145.4 11 145.1 C 11.5 144.6 11.9 143.9 12.2 143.1 C 12.4 142.2 12.6 141.2 12.6 140 C 12.6 138.4 12.3 137.1 11.8 136.2 C 11.2 135.3 10.6 134.8 9.8 134.4 C 9.2 134.2 8.3 134.1 7.1 134.1 C 7.09 134.13 3.8 134.1 3.8 134.1 L 3.8 146.2 Z M 17.6 148 L 17.6 132.3 L 19.7 132.3 L 28 144.6 L 28 132.3 L 30 132.3 L 30 148 L 27.8 148 L 19.6 135.6 L 19.6 148 L 17.6 148 Z M 33 144.4 C 33 144.4 34.8 144.2 34.8 144.2 C 35 145.1 35.3 145.7 35.7 146.1 C 36.2 146.5 36.8 146.7 37.4 146.7 C 38 146.7 38.6 146.6 39 146.3 C 39.5 146 39.8 145.7 40.1 145.2 C 40.4 144.7 40.6 144.1 40.8 143.4 C 41 142.6 41.1 141.8 41.1 141 C 41.1 140.9 41.1 140.8 41.1 140.6 C 40.7 141.2 40.2 141.7 39.5 142.1 C 38.9 142.5 38.1 142.7 37.4 142.7 C 36 142.7 34.9 142.2 34 141.3 C 33.1 140.3 32.7 139.1 32.7 137.5 C 32.7 135.9 33.2 134.6 34.1 133.7 C 35 132.7 36.2 132.2 37.6 132.2 C 38.7 132.2 39.6 132.5 40.4 133 C 41.3 133.6 41.9 134.4 42.4 135.4 C 42.8 136.4 43 137.9 43 139.8 C 43 141.8 42.8 143.4 42.4 144.6 C 42 145.8 41.3 146.7 40.4 147.4 C 39.6 148 38.6 148.3 37.4 148.3 C 36.2 148.3 35.2 147.9 34.4 147.3 C 33.6 146.6 33.1 145.6 33 144.4 Z M 40.9 137.4 C 40.9 136.3 40.6 135.4 40 134.8 C 39.4 134.1 38.7 133.8 37.9 133.8 C 37 133.8 36.3 134.2 35.6 134.9 C 35 135.6 34.7 136.5 34.7 137.6 C 34.7 138.6 35 139.4 35.6 140 C 36.2 140.7 36.9 141 37.8 141 C 38.7 141 39.5 140.7 40 140 C 40.6 139.4 40.9 138.5 40.9 137.4 Z M 51 143.9 C 51 143.9 53 143.6 53 143.6 C 53.2 144.7 53.6 145.5 54.1 146 C 54.6 146.5 55.3 146.7 56.1 146.7 C 57 146.7 57.7 146.4 58.4 145.8 C 59 145.1 59.3 144.3 59.3 143.4 C 59.3 142.5 59 141.8 58.4 141.2 C 57.9 140.6 57.1 140.3 56.2 140.3 C 55.9 140.3 55.4 140.4 54.9 140.6 C 54.9 140.6 55.1 138.9 55.1 138.9 C 55.2 138.9 55.3 138.9 55.4 138.9 C 56.2 138.9 57 138.7 57.6 138.2 C 58.3 137.8 58.6 137.1 58.6 136.3 C 58.6 135.5 58.4 135 57.9 134.5 C 57.4 134 56.8 133.8 56 133.8 C 55.3 133.8 54.6 134 54.1 134.5 C 53.6 135 53.3 135.7 53.2 136.6 C 53.2 136.6 51.2 136.3 51.2 136.3 C 51.5 135 52 134 52.9 133.3 C 53.7 132.6 54.7 132.2 56 132.2 C 56.8 132.2 57.6 132.4 58.4 132.8 C 59.1 133.1 59.6 133.6 60 134.3 C 60.4 134.9 60.6 135.6 60.6 136.3 C 60.6 137 60.4 137.6 60 138.2 C 59.7 138.7 59.1 139.2 58.4 139.5 C 59.3 139.7 60.1 140.1 60.6 140.8 C 61.1 141.5 61.4 142.3 61.4 143.4 C 61.4 144.7 60.9 145.9 59.9 146.9 C 58.9 147.8 57.6 148.3 56.1 148.3 C 54.7 148.3 53.5 147.9 52.6 147.1 C 51.7 146.2 51.2 145.2 51 143.9 Z M 64.2 148 L 64.2 132.3 L 74.8 132.3 L 74.8 134.1 L 66.2 134.1 L 66.2 139 L 73.6 139 L 73.6 140.9 L 66.2 140.9 L 66.2 148 L 64.2 148 Z M 77.4 148 L 77.4 132.3 L 79.5 132.3 L 79.5 146.2 L 87.2 146.2 L 87.2 148 L 77.4 148 Z " stroke="none" fill="#000"/>  </g>  <g id="Polygon63283">    <path d="M 1.7 121.6 L 1.7 105.9 C 1.7 105.9 7.12 105.87 7.1 105.9 C 8.3 105.9 9.3 105.9 9.9 106.1 C 10.8 106.3 11.6 106.7 12.2 107.2 C 13.1 107.9 13.7 108.8 14.1 109.9 C 14.5 111 14.7 112.3 14.7 113.7 C 14.7 114.9 14.6 115.9 14.3 116.8 C 14 117.8 13.7 118.5 13.2 119.1 C 12.8 119.7 12.3 120.2 11.8 120.6 C 11.3 120.9 10.6 121.2 9.9 121.3 C 9.2 121.5 8.3 121.6 7.4 121.6 C 7.38 121.62 1.7 121.6 1.7 121.6 Z M 3.8 119.8 C 3.8 119.8 7.14 119.76 7.1 119.8 C 8.2 119.8 9 119.7 9.6 119.5 C 10.2 119.3 10.6 119 11 118.7 C 11.5 118.2 11.9 117.5 12.2 116.7 C 12.4 115.8 12.6 114.8 12.6 113.6 C 12.6 112 12.3 110.7 11.8 109.8 C 11.2 108.9 10.6 108.3 9.8 108 C 9.2 107.8 8.3 107.7 7.1 107.7 C 7.09 107.73 3.8 107.7 3.8 107.7 L 3.8 119.8 Z M 16.6 115.9 C 16.6 113.8 17.2 112.2 18.4 111.2 C 19.4 110.4 20.6 110 22 110 C 23.5 110 24.8 110.5 25.8 111.5 C 26.8 112.5 27.3 113.9 27.3 115.8 C 27.3 117.2 27.1 118.4 26.6 119.2 C 26.2 120.1 25.6 120.7 24.7 121.2 C 23.9 121.6 23 121.9 22 121.9 C 20.4 121.9 19.1 121.4 18.1 120.3 C 17.1 119.3 16.6 117.8 16.6 115.9 Z M 18.6 115.9 C 18.6 117.4 18.9 118.5 19.6 119.2 C 20.2 119.9 21 120.3 22 120.3 C 22.9 120.3 23.7 119.9 24.4 119.2 C 25 118.5 25.3 117.3 25.3 115.8 C 25.3 114.4 25 113.4 24.4 112.6 C 23.7 111.9 22.9 111.6 22 111.6 C 21 111.6 20.2 111.9 19.6 112.6 C 18.9 113.4 18.6 114.5 18.6 115.9 Z M 29.6 121.6 L 29.6 110.2 L 31.3 110.2 C 31.3 110.2 31.31 111.83 31.3 111.8 C 32.2 110.6 33.4 110 34.9 110 C 35.6 110 36.3 110.1 36.8 110.3 C 37.4 110.6 37.8 110.9 38.1 111.3 C 38.4 111.7 38.6 112.2 38.7 112.7 C 38.8 113.1 38.8 113.7 38.8 114.6 C 38.84 114.6 38.8 121.6 38.8 121.6 L 36.9 121.6 C 36.9 121.6 36.91 114.68 36.9 114.7 C 36.9 113.9 36.8 113.3 36.7 112.9 C 36.5 112.5 36.3 112.2 35.9 112 C 35.5 111.7 35.1 111.6 34.5 111.6 C 33.7 111.6 33 111.9 32.4 112.4 C 31.8 112.9 31.5 113.9 31.5 115.4 C 31.51 115.39 31.5 121.6 31.5 121.6 L 29.6 121.6 Z M 49.3 117.4 C 49.3 117.4 51.2 117.7 51.2 117.7 C 50.9 119 50.4 120 49.6 120.8 C 48.7 121.5 47.7 121.9 46.4 121.9 C 44.8 121.9 43.6 121.4 42.6 120.3 C 41.7 119.3 41.2 117.9 41.2 116 C 41.2 114.7 41.4 113.6 41.8 112.7 C 42.2 111.8 42.9 111.1 43.7 110.6 C 44.5 110.2 45.4 110 46.4 110 C 47.7 110 48.7 110.3 49.5 110.9 C 50.2 111.5 50.7 112.4 51 113.6 C 51 113.6 49.1 113.8 49.1 113.8 C 48.9 113.1 48.6 112.5 48.1 112.1 C 47.7 111.7 47.1 111.5 46.5 111.5 C 45.5 111.5 44.7 111.9 44.1 112.6 C 43.5 113.3 43.2 114.4 43.2 115.9 C 43.2 117.4 43.5 118.5 44.1 119.2 C 44.7 119.9 45.4 120.3 46.4 120.3 C 47.1 120.3 47.8 120.1 48.3 119.6 C 48.8 119.1 49.1 118.4 49.3 117.4 Z M 60.6 121.6 C 60.4 121.2 60.3 120.7 60.3 120.2 C 59.5 120.8 58.8 121.2 58.2 121.5 C 57.5 121.7 56.8 121.9 56.1 121.9 C 54.8 121.9 53.8 121.6 53.2 121 C 52.5 120.3 52.2 119.6 52.2 118.6 C 52.2 118.1 52.3 117.5 52.5 117.1 C 52.8 116.6 53.1 116.2 53.5 116 C 53.9 115.7 54.4 115.5 54.9 115.3 C 55.3 115.2 55.9 115.1 56.6 115 C 58.2 114.9 59.4 114.6 60.1 114.4 C 60.1 114.1 60.1 113.9 60.1 113.9 C 60.1 113.1 59.9 112.5 59.6 112.2 C 59.1 111.8 58.3 111.6 57.4 111.6 C 56.4 111.6 55.8 111.7 55.3 112 C 54.9 112.3 54.6 112.9 54.4 113.7 C 54.4 113.7 52.5 113.5 52.5 113.5 C 52.7 112.7 52.9 112 53.3 111.5 C 53.7 111 54.3 110.6 55 110.4 C 55.8 110.1 56.7 110 57.6 110 C 58.6 110 59.4 110.1 60 110.3 C 60.6 110.5 61.1 110.8 61.3 111.2 C 61.6 111.5 61.8 111.9 62 112.5 C 62 112.8 62 113.4 62 114.3 C 62 114.3 62 116.8 62 116.8 C 62 118.6 62.1 119.8 62.2 120.2 C 62.3 120.7 62.4 121.2 62.7 121.6 C 62.66 121.62 60.6 121.6 60.6 121.6 C 60.6 121.6 60.64 121.62 60.6 121.6 Z M 60.1 115.9 C 59.4 116.2 58.3 116.4 56.9 116.6 C 56.1 116.7 55.6 116.9 55.2 117 C 54.9 117.2 54.7 117.4 54.5 117.6 C 54.3 117.9 54.2 118.2 54.2 118.6 C 54.2 119.1 54.4 119.5 54.8 119.8 C 55.2 120.2 55.8 120.4 56.5 120.4 C 57.3 120.4 57.9 120.2 58.5 119.9 C 59.1 119.5 59.5 119.1 59.8 118.5 C 60 118.1 60.1 117.5 60.1 116.6 C 60.1 116.6 60.1 115.9 60.1 115.9 Z M 64.3 118.2 C 64.3 118.2 66.2 117.9 66.2 117.9 C 66.3 118.7 66.6 119.3 67.1 119.7 C 67.6 120.1 68.3 120.3 69.1 120.3 C 70 120.3 70.7 120.1 71.1 119.7 C 71.5 119.4 71.8 119 71.8 118.5 C 71.8 118 71.6 117.7 71.2 117.4 C 70.9 117.3 70.3 117 69.2 116.8 C 67.8 116.4 66.8 116.1 66.3 115.9 C 65.7 115.6 65.3 115.2 65 114.8 C 64.7 114.3 64.6 113.8 64.6 113.2 C 64.6 112.7 64.7 112.3 64.9 111.8 C 65.2 111.4 65.5 111 65.9 110.7 C 66.2 110.5 66.6 110.3 67.1 110.2 C 67.6 110 68.2 110 68.8 110 C 69.7 110 70.5 110.1 71.2 110.3 C 71.8 110.6 72.3 110.9 72.6 111.4 C 73 111.8 73.2 112.4 73.3 113.2 C 73.3 113.2 71.4 113.4 71.4 113.4 C 71.3 112.8 71.1 112.4 70.7 112 C 70.3 111.7 69.7 111.5 68.9 111.5 C 68 111.5 67.4 111.7 67 112 C 66.7 112.3 66.5 112.6 66.5 113 C 66.5 113.3 66.5 113.5 66.7 113.7 C 66.9 113.9 67.1 114.1 67.4 114.2 C 67.6 114.3 68.2 114.4 69.1 114.7 C 70.5 115.1 71.5 115.4 72 115.6 C 72.6 115.8 73 116.2 73.3 116.6 C 73.6 117.1 73.7 117.6 73.7 118.3 C 73.7 118.9 73.6 119.5 73.2 120.1 C 72.8 120.7 72.3 121.1 71.6 121.4 C 70.8 121.7 70 121.9 69.1 121.9 C 67.7 121.9 66.5 121.6 65.8 121 C 65 120.3 64.5 119.4 64.3 118.2 Z M 79.4 120 C 79.6 120 79.9 119.9 80.3 119.9 C 80.3 119.9 80.5 121.6 80.5 121.6 C 80 121.7 79.5 121.8 79.1 121.8 C 78.4 121.8 77.8 121.7 77.5 121.4 C 77.1 121.2 76.8 120.9 76.6 120.6 C 76.5 120.2 76.4 119.4 76.4 118.3 C 76.4 118.28 76.4 111.7 76.4 111.7 L 75 111.7 L 75 110.2 L 76.4 110.2 L 76.4 107.4 L 78.3 106.2 L 78.3 110.2 L 80.3 110.2 L 80.3 111.7 L 78.3 111.7 C 78.3 111.7 78.32 118.38 78.3 118.4 C 78.3 118.9 78.4 119.3 78.4 119.4 C 78.5 119.6 78.6 119.7 78.8 119.8 C 78.9 119.9 79.1 120 79.4 120 C 79.4 120 79.4 120 79.4 120 Z M 90 117.9 C 90 117.9 92 118.2 92 118.2 C 91.6 119.4 91.1 120.3 90.2 120.9 C 89.4 121.6 88.3 121.9 86.9 121.9 C 85.3 121.9 84 121.4 83 120.3 C 82 119.3 81.5 117.9 81.5 116 C 81.5 114.1 82 112.6 83 111.5 C 84 110.5 85.3 110 86.8 110 C 88.4 110 89.6 110.5 90.6 111.5 C 91.5 112.5 92 114 92 115.9 C 92 116 92 116.2 92 116.4 C 92 116.4 83.5 116.4 83.5 116.4 C 83.6 117.7 83.9 118.6 84.6 119.3 C 85.2 120 86 120.3 87 120.3 C 87.7 120.3 88.3 120.1 88.8 119.7 C 89.3 119.4 89.7 118.8 90 117.9 Z M 83.6 114.8 C 83.6 114.8 90 114.8 90 114.8 C 89.9 113.9 89.7 113.1 89.3 112.7 C 88.6 111.9 87.8 111.5 86.9 111.5 C 86 111.5 85.2 111.8 84.6 112.4 C 84 113 83.7 113.8 83.6 114.8 Z M 94.4 121.6 L 94.4 110.2 L 96.1 110.2 C 96.1 110.2 96.11 111.94 96.1 111.9 C 96.6 111.1 97 110.6 97.3 110.3 C 97.7 110.1 98.1 110 98.6 110 C 99.2 110 99.9 110.2 100.6 110.6 C 100.6 110.6 99.9 112.4 99.9 112.4 C 99.4 112.1 99 111.9 98.5 111.9 C 98.1 111.9 97.7 112.1 97.3 112.3 C 97 112.6 96.8 112.9 96.6 113.4 C 96.4 114.1 96.3 114.8 96.3 115.6 C 96.3 115.64 96.3 121.6 96.3 121.6 L 94.4 121.6 Z " stroke="none" fill="#000"/>  </g>  <g id="Polygon63282">    <path d="M 0 95.2 L 6 79.5 L 8.3 79.5 L 14.7 95.2 L 12.3 95.2 L 10.5 90.4 L 3.9 90.4 L 2.2 95.2 L 0 95.2 Z M 4.5 88.7 L 9.9 88.7 C 9.9 88.7 8.21 84.39 8.2 84.4 C 7.7 83.1 7.3 82 7.1 81.1 C 6.9 82.1 6.6 83.1 6.2 84.1 C 6.24 84.13 4.5 88.7 4.5 88.7 Z M 23.6 95.2 C 23.6 95.2 23.6 93.54 23.6 93.5 C 22.7 94.8 21.5 95.5 20 95.5 C 19.3 95.5 18.7 95.3 18.1 95.1 C 17.5 94.8 17.1 94.5 16.8 94.1 C 16.5 93.7 16.3 93.2 16.2 92.7 C 16.1 92.3 16.1 91.7 16.1 90.9 C 16.08 90.88 16.1 83.8 16.1 83.8 L 18 83.8 C 18 83.8 18.01 90.14 18 90.1 C 18 91.1 18.1 91.8 18.1 92.2 C 18.3 92.7 18.5 93.1 18.9 93.4 C 19.3 93.7 19.8 93.8 20.4 93.8 C 20.9 93.8 21.5 93.7 22 93.4 C 22.5 93.1 22.9 92.7 23.1 92.1 C 23.3 91.6 23.4 90.9 23.4 89.9 C 23.4 89.92 23.4 83.8 23.4 83.8 L 25.3 83.8 L 25.3 95.2 L 23.6 95.2 Z M 35.8 91 C 35.8 91 37.7 91.3 37.7 91.3 C 37.5 92.6 37 93.6 36.1 94.4 C 35.3 95.1 34.2 95.5 33 95.5 C 31.4 95.5 30.1 95 29.2 93.9 C 28.2 92.9 27.8 91.5 27.8 89.6 C 27.8 88.3 28 87.2 28.4 86.3 C 28.8 85.4 29.4 84.7 30.2 84.2 C 31.1 83.8 32 83.6 33 83.6 C 34.2 83.6 35.2 83.9 36 84.5 C 36.8 85.1 37.3 86 37.5 87.2 C 37.5 87.2 35.6 87.5 35.6 87.5 C 35.5 86.7 35.1 86.1 34.7 85.7 C 34.2 85.3 33.7 85.1 33 85.1 C 32.1 85.1 31.3 85.5 30.7 86.2 C 30.1 86.9 29.8 88 29.8 89.5 C 29.8 91 30 92.1 30.6 92.8 C 31.2 93.5 32 93.9 32.9 93.9 C 33.7 93.9 34.3 93.7 34.8 93.2 C 35.3 92.7 35.7 92 35.8 91 Z M 39.4 95.2 L 39.4 79.5 L 41.3 79.5 L 41.3 88.4 L 45.9 83.8 L 48.4 83.8 L 44 88 L 48.8 95.2 L 46.4 95.2 L 42.7 89.4 L 41.3 90.7 L 41.3 95.2 L 39.4 95.2 Z M 50.3 95.2 L 50.3 79.5 L 52.3 79.5 L 52.3 95.2 L 50.3 95.2 Z M 63.1 91.5 C 63.1 91.5 65.1 91.8 65.1 91.8 C 64.7 93 64.2 93.9 63.3 94.5 C 62.5 95.2 61.4 95.5 60 95.5 C 58.4 95.5 57 95 56.1 93.9 C 55.1 92.9 54.6 91.5 54.6 89.6 C 54.6 87.7 55.1 86.2 56.1 85.1 C 57.1 84.1 58.4 83.6 59.9 83.6 C 61.5 83.6 62.7 84.1 63.7 85.1 C 64.6 86.1 65.1 87.6 65.1 89.5 C 65.1 89.6 65.1 89.8 65.1 90 C 65.1 90 56.6 90 56.6 90 C 56.7 91.3 57 92.2 57.7 92.9 C 58.3 93.6 59.1 93.9 60 93.9 C 60.8 93.9 61.4 93.7 61.9 93.3 C 62.4 93 62.8 92.4 63.1 91.5 Z M 56.7 88.4 C 56.7 88.4 63.1 88.4 63.1 88.4 C 63 87.5 62.7 86.7 62.3 86.3 C 61.7 85.5 60.9 85.1 60 85.1 C 59.1 85.1 58.3 85.4 57.7 86 C 57.1 86.6 56.8 87.4 56.7 88.4 Z M 68.6 99.8 C 68.3 99.8 67.9 99.8 67.4 99.6 C 67.4 99.6 67.2 97.8 67.2 97.8 C 67.6 97.9 68 98 68.3 98 C 68.7 98 69.1 97.9 69.3 97.8 C 69.6 97.6 69.8 97.4 70 97.2 C 70.1 97 70.3 96.5 70.5 95.7 C 70.6 95.6 70.6 95.4 70.7 95.2 C 70.72 95.24 66.4 83.8 66.4 83.8 L 68.5 83.8 C 68.5 83.8 70.84 90.41 70.8 90.4 C 71.2 91.3 71.4 92.1 71.7 93.1 C 71.9 92.2 72.2 91.3 72.5 90.5 C 72.47 90.46 74.9 83.8 74.9 83.8 L 76.8 83.8 C 76.8 83.8 72.5 95.41 72.5 95.4 C 72 96.7 71.7 97.5 71.4 98 C 71.1 98.6 70.7 99.1 70.2 99.4 C 69.8 99.7 69.3 99.8 68.6 99.8 C 68.6 99.8 68.6 99.8 68.6 99.8 Z " stroke="none" fill="#000"/>  </g>  <g id="Polygon63281">    <path d="M 1.8 68.8 L 1.8 53.1 L 12.4 53.1 L 12.4 54.9 L 3.9 54.9 L 3.9 59.8 L 11.3 59.8 L 11.3 61.7 L 3.9 61.7 L 3.9 68.8 L 1.8 68.8 Z M 14.9 55.3 L 14.9 53.1 L 16.8 53.1 L 16.8 55.3 L 14.9 55.3 Z M 14.9 68.8 L 14.9 57.4 L 16.8 57.4 L 16.8 68.8 L 14.9 68.8 Z M 27.6 65.1 C 27.6 65.1 29.6 65.4 29.6 65.4 C 29.3 66.6 28.7 67.5 27.8 68.1 C 27 68.8 25.9 69.1 24.6 69.1 C 22.9 69.1 21.6 68.6 20.6 67.5 C 19.6 66.5 19.1 65.1 19.1 63.2 C 19.1 61.3 19.6 59.8 20.6 58.7 C 21.6 57.7 22.9 57.2 24.5 57.2 C 26 57.2 27.2 57.7 28.2 58.7 C 29.2 59.7 29.6 61.2 29.6 63.1 C 29.6 63.2 29.6 63.4 29.6 63.6 C 29.6 63.6 21.1 63.6 21.1 63.6 C 21.2 64.9 21.6 65.8 22.2 66.5 C 22.8 67.2 23.6 67.5 24.6 67.5 C 25.3 67.5 25.9 67.3 26.4 66.9 C 26.9 66.6 27.3 66 27.6 65.1 Z M 21.2 62 C 21.2 62 27.6 62 27.6 62 C 27.5 61.1 27.3 60.3 26.9 59.9 C 26.3 59.1 25.5 58.7 24.5 58.7 C 23.6 58.7 22.8 59 22.2 59.6 C 21.6 60.2 21.3 61 21.2 62 Z M 32 68.8 L 32 53.1 L 33.9 53.1 L 33.9 68.8 L 32 68.8 Z M 44.3 68.8 C 44.3 68.8 44.3 67.38 44.3 67.4 C 43.6 68.5 42.5 69.1 41.1 69.1 C 40.2 69.1 39.4 68.8 38.6 68.3 C 37.8 67.8 37.2 67.1 36.8 66.2 C 36.4 65.3 36.2 64.3 36.2 63.1 C 36.2 62 36.4 61 36.8 60 C 37.2 59.1 37.7 58.4 38.5 57.9 C 39.2 57.4 40.1 57.2 41 57.2 C 41.7 57.2 42.3 57.3 42.9 57.6 C 43.4 57.9 43.8 58.3 44.2 58.7 C 44.17 58.72 44.2 53.1 44.2 53.1 L 46.1 53.1 L 46.1 68.8 L 44.3 68.8 Z M 38.2 63.1 C 38.2 64.6 38.5 65.7 39.1 66.4 C 39.7 67.1 40.5 67.5 41.3 67.5 C 42.1 67.5 42.9 67.1 43.4 66.4 C 44 65.8 44.3 64.7 44.3 63.3 C 44.3 61.7 44 60.6 43.4 59.8 C 42.8 59.1 42.1 58.8 41.2 58.8 C 40.3 58.8 39.6 59.1 39.1 59.8 C 38.5 60.5 38.2 61.6 38.2 63.1 Z M 55.4 68.8 L 55.4 53.1 L 57.5 53.1 L 57.5 67 L 65.2 67 L 65.2 68.8 L 55.4 68.8 Z M 75.3 68.8 C 75.1 68.4 75 67.9 74.9 67.4 C 74.2 68 73.5 68.4 72.9 68.7 C 72.2 68.9 71.5 69.1 70.7 69.1 C 69.5 69.1 68.5 68.8 67.8 68.2 C 67.2 67.5 66.8 66.8 66.8 65.8 C 66.8 65.3 67 64.7 67.2 64.3 C 67.5 63.8 67.8 63.4 68.2 63.2 C 68.6 62.9 69.1 62.7 69.6 62.5 C 70 62.4 70.6 62.3 71.3 62.2 C 72.9 62.1 74 61.8 74.8 61.6 C 74.8 61.3 74.8 61.1 74.8 61.1 C 74.8 60.3 74.6 59.7 74.2 59.4 C 73.7 59 73 58.8 72 58.8 C 71.1 58.8 70.4 58.9 70 59.2 C 69.6 59.5 69.3 60.1 69.1 60.9 C 69.1 60.9 67.2 60.7 67.2 60.7 C 67.3 59.9 67.6 59.2 68 58.7 C 68.4 58.2 69 57.8 69.7 57.6 C 70.5 57.3 71.3 57.2 72.3 57.2 C 73.3 57.2 74.1 57.3 74.7 57.5 C 75.3 57.7 75.7 58 76 58.4 C 76.3 58.7 76.5 59.1 76.6 59.7 C 76.7 60 76.7 60.6 76.7 61.5 C 76.7 61.5 76.7 64 76.7 64 C 76.7 65.8 76.8 67 76.8 67.4 C 76.9 67.9 77.1 68.4 77.3 68.8 C 77.33 68.82 75.3 68.8 75.3 68.8 C 75.3 68.8 75.31 68.82 75.3 68.8 Z M 74.8 63.1 C 74.1 63.4 73 63.6 71.6 63.8 C 70.8 63.9 70.3 64.1 69.9 64.2 C 69.6 64.4 69.3 64.6 69.2 64.8 C 69 65.1 68.9 65.4 68.9 65.8 C 68.9 66.3 69.1 66.7 69.5 67 C 69.9 67.4 70.4 67.6 71.2 67.6 C 71.9 67.6 72.6 67.4 73.2 67.1 C 73.8 66.7 74.2 66.3 74.5 65.7 C 74.7 65.3 74.8 64.7 74.8 63.8 C 74.8 63.8 74.8 63.1 74.8 63.1 Z M 79.7 68.8 L 79.7 57.4 L 81.5 57.4 C 81.5 57.4 81.46 59.03 81.5 59 C 82.3 57.8 83.5 57.2 85.1 57.2 C 85.8 57.2 86.4 57.3 87 57.5 C 87.6 57.8 88 58.1 88.3 58.5 C 88.6 58.9 88.8 59.4 88.9 59.9 C 89 60.3 89 60.9 89 61.8 C 88.99 61.8 89 68.8 89 68.8 L 87.1 68.8 C 87.1 68.8 87.05 61.88 87.1 61.9 C 87.1 61.1 87 60.5 86.8 60.1 C 86.7 59.7 86.4 59.4 86 59.2 C 85.6 58.9 85.2 58.8 84.7 58.8 C 83.9 58.8 83.1 59.1 82.5 59.6 C 82 60.1 81.7 61.1 81.7 62.6 C 81.65 62.59 81.7 68.8 81.7 68.8 L 79.7 68.8 Z M 99.8 65.1 C 99.8 65.1 101.8 65.4 101.8 65.4 C 101.4 66.6 100.9 67.5 100 68.1 C 99.2 68.8 98.1 69.1 96.7 69.1 C 95.1 69.1 93.8 68.6 92.8 67.5 C 91.8 66.5 91.3 65.1 91.3 63.2 C 91.3 61.3 91.8 59.8 92.8 58.7 C 93.8 57.7 95.1 57.2 96.6 57.2 C 98.2 57.2 99.4 57.7 100.4 58.7 C 101.3 59.7 101.8 61.2 101.8 63.1 C 101.8 63.2 101.8 63.4 101.8 63.6 C 101.8 63.6 93.3 63.6 93.3 63.6 C 93.4 64.9 93.7 65.8 94.4 66.5 C 95 67.2 95.8 67.5 96.8 67.5 C 97.5 67.5 98.1 67.3 98.6 66.9 C 99.1 66.6 99.5 66 99.8 65.1 Z M 93.4 62 C 93.4 62 99.8 62 99.8 62 C 99.7 61.1 99.5 60.3 99.1 59.9 C 98.4 59.1 97.6 58.7 96.7 58.7 C 95.8 58.7 95 59 94.4 59.6 C 93.8 60.2 93.5 61 93.4 62 Z " stroke="none" fill="#000"/>  </g>  <g id="Polygon63280">    <path d="M 12 26.7 L 14.1 26.7 C 14.1 26.7 14.12 35.77 14.1 35.8 C 14.1 37.3 13.9 38.6 13.6 39.5 C 13.2 40.5 12.6 41.2 11.6 41.8 C 10.7 42.4 9.5 42.7 8 42.7 C 6.5 42.7 5.3 42.4 4.3 41.9 C 3.4 41.4 2.7 40.7 2.3 39.7 C 1.9 38.8 1.7 37.4 1.7 35.8 C 1.73 35.77 1.7 26.7 1.7 26.7 L 3.8 26.7 C 3.8 26.7 3.81 35.76 3.8 35.8 C 3.8 37.1 3.9 38.1 4.2 38.8 C 4.4 39.4 4.9 39.9 5.5 40.3 C 6.1 40.6 6.9 40.8 7.8 40.8 C 9.3 40.8 10.4 40.5 11.1 39.8 C 11.7 39.1 12 37.7 12 35.8 C 12.03 35.76 12 26.7 12 26.7 Z M 17.3 42.4 L 17.3 31 L 19.1 31 C 19.1 31 19.08 32.63 19.1 32.6 C 19.9 31.4 21.1 30.8 22.7 30.8 C 23.4 30.8 24 30.9 24.6 31.1 C 25.2 31.4 25.6 31.7 25.9 32.1 C 26.2 32.5 26.4 33 26.5 33.5 C 26.6 33.9 26.6 34.5 26.6 35.4 C 26.61 35.4 26.6 42.4 26.6 42.4 L 24.7 42.4 C 24.7 42.4 24.67 35.48 24.7 35.5 C 24.7 34.7 24.6 34.1 24.4 33.7 C 24.3 33.3 24 33 23.6 32.8 C 23.3 32.5 22.8 32.4 22.3 32.4 C 21.5 32.4 20.8 32.7 20.2 33.2 C 19.6 33.7 19.3 34.7 19.3 36.2 C 19.27 36.19 19.3 42.4 19.3 42.4 L 17.3 42.4 Z M 29.6 28.9 L 29.6 26.7 L 31.5 26.7 L 31.5 28.9 L 29.6 28.9 Z M 29.6 42.4 L 29.6 31 L 31.5 31 L 31.5 42.4 L 29.6 42.4 Z M 37.8 40.8 C 38 40.8 38.3 40.7 38.7 40.7 C 38.7 40.7 39 42.4 39 42.4 C 38.4 42.5 37.9 42.6 37.5 42.6 C 36.8 42.6 36.3 42.5 35.9 42.2 C 35.5 42 35.2 41.7 35.1 41.4 C 34.9 41 34.8 40.2 34.8 39.1 C 34.82 39.08 34.8 32.5 34.8 32.5 L 33.4 32.5 L 33.4 31 L 34.8 31 L 34.8 28.2 L 36.7 27 L 36.7 31 L 38.7 31 L 38.7 32.5 L 36.7 32.5 C 36.7 32.5 36.74 39.18 36.7 39.2 C 36.7 39.7 36.8 40.1 36.8 40.2 C 36.9 40.4 37 40.5 37.2 40.6 C 37.3 40.7 37.5 40.8 37.8 40.8 C 37.8 40.8 37.8 40.8 37.8 40.8 Z M 46.2 38.3 C 46.2 38.3 48.1 38 48.1 38 C 48.3 39.1 48.7 39.9 49.2 40.4 C 49.8 40.9 50.4 41.1 51.2 41.1 C 52.1 41.1 52.9 40.8 53.5 40.2 C 54.1 39.5 54.4 38.7 54.4 37.8 C 54.4 36.9 54.1 36.2 53.5 35.6 C 53 35 52.2 34.7 51.3 34.7 C 51 34.7 50.5 34.8 50 35 C 50 35 50.2 33.3 50.2 33.3 C 50.3 33.3 50.4 33.3 50.5 33.3 C 51.3 33.3 52.1 33.1 52.7 32.6 C 53.4 32.2 53.7 31.5 53.7 30.7 C 53.7 29.9 53.5 29.4 53 28.9 C 52.5 28.4 51.9 28.2 51.1 28.2 C 50.4 28.2 49.8 28.4 49.3 28.9 C 48.8 29.4 48.4 30.1 48.3 31 C 48.3 31 46.4 30.7 46.4 30.7 C 46.6 29.4 47.1 28.4 48 27.7 C 48.8 27 49.8 26.6 51.1 26.6 C 51.9 26.6 52.7 26.8 53.5 27.2 C 54.2 27.5 54.7 28 55.1 28.7 C 55.5 29.3 55.7 30 55.7 30.7 C 55.7 31.4 55.5 32 55.2 32.6 C 54.8 33.1 54.2 33.6 53.5 33.9 C 54.5 34.1 55.2 34.5 55.7 35.2 C 56.2 35.9 56.5 36.7 56.5 37.8 C 56.5 39.1 56 40.3 55 41.3 C 54 42.2 52.7 42.7 51.2 42.7 C 49.8 42.7 48.6 42.3 47.7 41.5 C 46.8 40.6 46.3 39.6 46.2 38.3 Z M 59.4 42.4 L 59.4 40.2 L 61.6 40.2 C 61.6 40.2 61.63 42.42 61.6 42.4 C 61.6 43.2 61.5 43.9 61.2 44.4 C 60.9 44.9 60.5 45.3 59.8 45.5 C 59.8 45.5 59.3 44.7 59.3 44.7 C 59.7 44.5 60 44.3 60.2 43.9 C 60.4 43.6 60.5 43.1 60.5 42.4 C 60.52 42.42 59.4 42.4 59.4 42.4 Z M 71.5 42.4 L 71.5 26.7 L 73.5 26.7 L 73.5 33.1 L 81.7 33.1 L 81.7 26.7 L 83.8 26.7 L 83.8 42.4 L 81.7 42.4 L 81.7 35 L 73.5 35 L 73.5 42.4 L 71.5 42.4 Z M 94.9 42.4 C 94.7 42 94.5 41.5 94.5 41 C 93.8 41.6 93.1 42 92.4 42.3 C 91.7 42.5 91 42.7 90.3 42.7 C 89 42.7 88.1 42.4 87.4 41.8 C 86.7 41.1 86.4 40.4 86.4 39.4 C 86.4 38.9 86.5 38.3 86.8 37.9 C 87 37.4 87.3 37 87.8 36.8 C 88.2 36.5 88.6 36.3 89.1 36.1 C 89.5 36 90.1 35.9 90.9 35.8 C 92.4 35.7 93.6 35.4 94.3 35.2 C 94.3 34.9 94.3 34.7 94.3 34.7 C 94.3 33.9 94.1 33.3 93.8 33 C 93.3 32.6 92.6 32.4 91.6 32.4 C 90.7 32.4 90 32.5 89.6 32.8 C 89.1 33.1 88.8 33.7 88.6 34.5 C 88.6 34.5 86.7 34.3 86.7 34.3 C 86.9 33.5 87.2 32.8 87.6 32.3 C 88 31.8 88.5 31.4 89.3 31.2 C 90 30.9 90.9 30.8 91.9 30.8 C 92.8 30.8 93.6 30.9 94.2 31.1 C 94.8 31.3 95.3 31.6 95.6 32 C 95.9 32.3 96.1 32.7 96.2 33.3 C 96.2 33.6 96.3 34.2 96.3 35.1 C 96.3 35.1 96.3 37.6 96.3 37.6 C 96.3 39.4 96.3 40.6 96.4 41 C 96.5 41.5 96.6 42 96.9 42.4 C 96.88 42.42 94.9 42.4 94.9 42.4 C 94.9 42.4 94.86 42.42 94.9 42.4 Z M 94.3 36.7 C 93.6 37 92.6 37.2 91.2 37.4 C 90.4 37.5 89.8 37.7 89.5 37.8 C 89.1 38 88.9 38.2 88.7 38.4 C 88.5 38.7 88.4 39 88.4 39.4 C 88.4 39.9 88.6 40.3 89 40.6 C 89.4 41 90 41.2 90.7 41.2 C 91.5 41.2 92.1 41 92.7 40.7 C 93.3 40.3 93.7 39.9 94 39.3 C 94.2 38.9 94.3 38.3 94.3 37.4 C 94.3 37.4 94.3 36.7 94.3 36.7 Z M 100.4 47 C 100.1 47 99.6 47 99.2 46.8 C 99.2 46.8 99 45 99 45 C 99.4 45.1 99.8 45.2 100.1 45.2 C 100.5 45.2 100.8 45.1 101.1 45 C 101.4 44.8 101.6 44.6 101.7 44.4 C 101.9 44.2 102.1 43.7 102.3 42.9 C 102.4 42.8 102.4 42.6 102.5 42.4 C 102.5 42.44 98.2 31 98.2 31 L 100.3 31 C 100.3 31 102.63 37.61 102.6 37.6 C 102.9 38.5 103.2 39.3 103.5 40.3 C 103.7 39.4 103.9 38.5 104.3 37.7 C 104.25 37.66 106.7 31 106.7 31 L 108.6 31 C 108.6 31 104.29 42.61 104.3 42.6 C 103.8 43.9 103.5 44.7 103.2 45.2 C 102.9 45.8 102.5 46.3 102 46.6 C 101.6 46.9 101 47 100.4 47 C 100.4 47 100.4 47 100.4 47 Z M 110.8 42.4 L 110.8 32.5 L 109.1 32.5 L 109.1 31 L 110.8 31 C 110.8 31 110.78 29.9 110.8 29.9 C 110.8 28.8 111 27.9 111.5 27.3 C 112 26.7 112.8 26.4 113.8 26.4 C 114.5 26.4 115.2 26.5 115.8 26.6 C 115.8 26.6 115.5 28.3 115.5 28.3 C 115.1 28.2 114.8 28.2 114.4 28.2 C 113.8 28.2 113.3 28.3 113.1 28.6 C 112.8 28.8 112.7 29.4 112.7 30.3 C 112.72 30.27 112.7 31 112.7 31 L 114.9 31 L 114.9 32.5 L 112.7 32.5 L 112.7 42.4 L 110.8 42.4 Z M 116.4 28.9 L 116.4 26.7 L 118.3 26.7 L 118.3 28.9 L 116.4 28.9 Z M 116.4 42.4 L 116.4 31 L 118.3 31 L 118.3 42.4 L 116.4 42.4 Z M 129.1 38.7 C 129.1 38.7 131.1 39 131.1 39 C 130.8 40.2 130.2 41.1 129.3 41.7 C 128.5 42.4 127.4 42.7 126.1 42.7 C 124.4 42.7 123.1 42.2 122.1 41.1 C 121.1 40.1 120.6 38.7 120.6 36.8 C 120.6 34.9 121.1 33.4 122.1 32.3 C 123.1 31.3 124.4 30.8 126 30.8 C 127.5 30.8 128.7 31.3 129.7 32.3 C 130.7 33.3 131.1 34.8 131.1 36.7 C 131.1 36.8 131.1 37 131.1 37.2 C 131.1 37.2 122.6 37.2 122.6 37.2 C 122.7 38.5 123 39.4 123.7 40.1 C 124.3 40.8 125.1 41.1 126.1 41.1 C 126.8 41.1 127.4 40.9 127.9 40.5 C 128.4 40.2 128.8 39.6 129.1 38.7 Z M 122.7 35.6 C 122.7 35.6 129.1 35.6 129.1 35.6 C 129 34.7 128.8 33.9 128.4 33.5 C 127.8 32.7 127 32.3 126 32.3 C 125.1 32.3 124.3 32.6 123.7 33.2 C 123.1 33.8 122.8 34.6 122.7 35.6 Z M 133.5 42.4 L 133.5 26.7 L 135.4 26.7 L 135.4 42.4 L 133.5 42.4 Z M 145.8 42.4 C 145.8 42.4 145.79 40.98 145.8 41 C 145.1 42.1 144 42.7 142.6 42.7 C 141.7 42.7 140.9 42.4 140.1 41.9 C 139.3 41.4 138.7 40.7 138.3 39.8 C 137.9 38.9 137.7 37.9 137.7 36.7 C 137.7 35.6 137.9 34.6 138.3 33.6 C 138.6 32.7 139.2 32 140 31.5 C 140.7 31 141.6 30.8 142.5 30.8 C 143.2 30.8 143.8 30.9 144.4 31.2 C 144.9 31.5 145.3 31.9 145.7 32.3 C 145.66 32.32 145.7 26.7 145.7 26.7 L 147.6 26.7 L 147.6 42.4 L 145.8 42.4 Z M 139.7 36.7 C 139.7 38.2 140 39.3 140.6 40 C 141.2 40.7 141.9 41.1 142.8 41.1 C 143.6 41.1 144.3 40.7 144.9 40 C 145.5 39.4 145.8 38.3 145.8 36.9 C 145.8 35.3 145.5 34.2 144.9 33.4 C 144.3 32.7 143.6 32.4 142.7 32.4 C 141.8 32.4 141.1 32.7 140.5 33.4 C 140 34.1 139.7 35.2 139.7 36.7 Z M 156.9 42.4 L 156.9 26.7 C 156.9 26.7 162.81 26.67 162.8 26.7 C 164 26.7 165 26.8 165.7 27.1 C 166.4 27.5 167 28 167.4 28.6 C 167.8 29.3 168 30 168 30.7 C 168 31.4 167.8 32 167.5 32.6 C 167.1 33.2 166.6 33.7 165.8 34 C 166.8 34.3 167.5 34.8 168 35.5 C 168.5 36.1 168.8 36.9 168.8 37.9 C 168.8 38.6 168.6 39.3 168.3 39.9 C 168 40.5 167.6 41 167.2 41.4 C 166.7 41.7 166.1 42 165.4 42.2 C 164.8 42.3 163.9 42.4 162.9 42.4 C 162.91 42.42 156.9 42.4 156.9 42.4 Z M 159 33.3 C 159 33.3 162.39 33.29 162.4 33.3 C 163.3 33.3 164 33.2 164.4 33.1 C 164.9 32.9 165.3 32.7 165.6 32.3 C 165.8 32 166 31.5 166 30.9 C 166 30.4 165.9 30 165.6 29.6 C 165.4 29.2 165 28.9 164.5 28.7 C 164.1 28.6 163.3 28.5 162.1 28.5 C 162.13 28.53 159 28.5 159 28.5 L 159 33.3 Z M 159 40.6 C 159 40.6 162.91 40.56 162.9 40.6 C 163.6 40.6 164.1 40.5 164.3 40.5 C 164.8 40.4 165.2 40.3 165.5 40.1 C 165.8 39.9 166.1 39.6 166.3 39.2 C 166.5 38.8 166.6 38.4 166.6 37.9 C 166.6 37.3 166.5 36.8 166.2 36.3 C 165.9 35.9 165.5 35.6 164.9 35.4 C 164.4 35.2 163.6 35.1 162.6 35.1 C 162.63 35.14 159 35.1 159 35.1 L 159 40.6 Z M 178.9 42.4 C 178.9 42.4 178.89 40.74 178.9 40.7 C 178 42 176.8 42.7 175.3 42.7 C 174.6 42.7 174 42.5 173.4 42.3 C 172.8 42 172.4 41.7 172.1 41.3 C 171.8 40.9 171.6 40.4 171.5 39.9 C 171.4 39.5 171.4 38.9 171.4 38.1 C 171.37 38.08 171.4 31 171.4 31 L 173.3 31 C 173.3 31 173.3 37.34 173.3 37.3 C 173.3 38.3 173.3 39 173.4 39.4 C 173.5 39.9 173.8 40.3 174.2 40.6 C 174.6 40.9 175.1 41 175.7 41 C 176.2 41 176.8 40.9 177.3 40.6 C 177.8 40.3 178.2 39.9 178.4 39.3 C 178.6 38.8 178.7 38.1 178.7 37.1 C 178.69 37.12 178.7 31 178.7 31 L 180.6 31 L 180.6 42.4 L 178.9 42.4 Z M 182.9 39 C 182.9 39 184.8 38.7 184.8 38.7 C 184.9 39.5 185.2 40.1 185.7 40.5 C 186.2 40.9 186.9 41.1 187.7 41.1 C 188.6 41.1 189.3 40.9 189.7 40.5 C 190.1 40.2 190.4 39.8 190.4 39.3 C 190.4 38.8 190.2 38.5 189.8 38.2 C 189.5 38.1 188.9 37.8 187.8 37.6 C 186.4 37.2 185.4 36.9 184.9 36.7 C 184.3 36.4 183.9 36 183.6 35.6 C 183.3 35.1 183.2 34.6 183.2 34 C 183.2 33.5 183.3 33.1 183.5 32.6 C 183.8 32.2 184.1 31.8 184.5 31.5 C 184.8 31.3 185.2 31.1 185.7 31 C 186.2 30.8 186.8 30.8 187.4 30.8 C 188.3 30.8 189.1 30.9 189.8 31.1 C 190.4 31.4 190.9 31.7 191.3 32.2 C 191.6 32.6 191.8 33.2 191.9 34 C 191.9 34 190 34.2 190 34.2 C 189.9 33.6 189.7 33.2 189.3 32.8 C 188.9 32.5 188.3 32.3 187.5 32.3 C 186.6 32.3 186 32.5 185.6 32.8 C 185.3 33.1 185.1 33.4 185.1 33.8 C 185.1 34.1 185.1 34.3 185.3 34.5 C 185.5 34.7 185.7 34.9 186 35 C 186.2 35.1 186.8 35.2 187.8 35.5 C 189.1 35.9 190.1 36.2 190.6 36.4 C 191.2 36.6 191.6 37 191.9 37.4 C 192.2 37.9 192.3 38.4 192.3 39.1 C 192.3 39.7 192.2 40.3 191.8 40.9 C 191.4 41.5 190.9 41.9 190.2 42.2 C 189.4 42.5 188.6 42.7 187.8 42.7 C 186.3 42.7 185.1 42.4 184.4 41.8 C 183.6 41.1 183.1 40.2 182.9 39 Z M 194.7 28.9 L 194.7 26.7 L 196.6 26.7 L 196.6 28.9 L 194.7 28.9 Z M 194.7 42.4 L 194.7 31 L 196.6 31 L 196.6 42.4 L 194.7 42.4 Z M 199.5 42.4 L 199.5 31 L 201.3 31 C 201.3 31 201.28 32.63 201.3 32.6 C 202.1 31.4 203.3 30.8 204.9 30.8 C 205.6 30.8 206.2 30.9 206.8 31.1 C 207.4 31.4 207.8 31.7 208.1 32.1 C 208.4 32.5 208.6 33 208.7 33.5 C 208.8 33.9 208.8 34.5 208.8 35.4 C 208.81 35.4 208.8 42.4 208.8 42.4 L 206.9 42.4 C 206.9 42.4 206.87 35.48 206.9 35.5 C 206.9 34.7 206.8 34.1 206.6 33.7 C 206.5 33.3 206.2 33 205.8 32.8 C 205.5 32.5 205 32.4 204.5 32.4 C 203.7 32.4 203 32.7 202.4 33.2 C 201.8 33.7 201.5 34.7 201.5 36.2 C 201.47 36.19 201.5 42.4 201.5 42.4 L 199.5 42.4 Z M 219.6 38.7 C 219.6 38.7 221.6 39 221.6 39 C 221.3 40.2 220.7 41.1 219.8 41.7 C 219 42.4 217.9 42.7 216.6 42.7 C 214.9 42.7 213.6 42.2 212.6 41.1 C 211.6 40.1 211.1 38.7 211.1 36.8 C 211.1 34.9 211.6 33.4 212.6 32.3 C 213.6 31.3 214.9 30.8 216.5 30.8 C 218 30.8 219.2 31.3 220.2 32.3 C 221.2 33.3 221.6 34.8 221.6 36.7 C 221.6 36.8 221.6 37 221.6 37.2 C 221.6 37.2 213.1 37.2 213.1 37.2 C 213.2 38.5 213.6 39.4 214.2 40.1 C 214.8 40.8 215.6 41.1 216.6 41.1 C 217.3 41.1 217.9 40.9 218.4 40.5 C 218.9 40.2 219.3 39.6 219.6 38.7 Z M 213.2 35.6 C 213.2 35.6 219.6 35.6 219.6 35.6 C 219.5 34.7 219.3 33.9 218.9 33.5 C 218.3 32.7 217.5 32.3 216.5 32.3 C 215.6 32.3 214.8 32.6 214.2 33.2 C 213.6 33.8 213.3 34.6 213.2 35.6 Z M 223.2 39 C 223.2 39 225.1 38.7 225.1 38.7 C 225.3 39.5 225.6 40.1 226 40.5 C 226.5 40.9 227.2 41.1 228.1 41.1 C 229 41.1 229.6 40.9 230.1 40.5 C 230.5 40.2 230.7 39.8 230.7 39.3 C 230.7 38.8 230.5 38.5 230.2 38.2 C 229.9 38.1 229.2 37.8 228.2 37.6 C 226.8 37.2 225.8 36.9 225.2 36.7 C 224.7 36.4 224.3 36 224 35.6 C 223.7 35.1 223.6 34.6 223.6 34 C 223.6 33.5 223.7 33.1 223.9 32.6 C 224.1 32.2 224.5 31.8 224.9 31.5 C 225.2 31.3 225.6 31.1 226.1 31 C 226.6 30.8 227.2 30.8 227.8 30.8 C 228.7 30.8 229.4 30.9 230.1 31.1 C 230.8 31.4 231.3 31.7 231.6 32.2 C 231.9 32.6 232.2 33.2 232.3 34 C 232.3 34 230.4 34.2 230.4 34.2 C 230.3 33.6 230.1 33.2 229.6 32.8 C 229.2 32.5 228.6 32.3 227.9 32.3 C 227 32.3 226.4 32.5 226 32.8 C 225.6 33.1 225.4 33.4 225.4 33.8 C 225.4 34.1 225.5 34.3 225.7 34.5 C 225.8 34.7 226.1 34.9 226.4 35 C 226.6 35.1 227.2 35.2 228.1 35.5 C 229.5 35.9 230.4 36.2 231 36.4 C 231.5 36.6 231.9 37 232.2 37.4 C 232.6 37.9 232.7 38.4 232.7 39.1 C 232.7 39.7 232.5 40.3 232.1 40.9 C 231.8 41.5 231.2 41.9 230.5 42.2 C 229.8 42.5 229 42.7 228.1 42.7 C 226.6 42.7 225.5 42.4 224.7 41.8 C 223.9 41.1 223.4 40.2 223.2 39 Z M 234.2 39 C 234.2 39 236.1 38.7 236.1 38.7 C 236.3 39.5 236.6 40.1 237 40.5 C 237.5 40.9 238.2 41.1 239.1 41.1 C 240 41.1 240.6 40.9 241.1 40.5 C 241.5 40.2 241.7 39.8 241.7 39.3 C 241.7 38.8 241.5 38.5 241.2 38.2 C 240.9 38.1 240.2 37.8 239.2 37.6 C 237.8 37.2 236.8 36.9 236.2 36.7 C 235.7 36.4 235.3 36 235 35.6 C 234.7 35.1 234.6 34.6 234.6 34 C 234.6 33.5 234.7 33.1 234.9 32.6 C 235.1 32.2 235.5 31.8 235.9 31.5 C 236.2 31.3 236.6 31.1 237.1 31 C 237.6 30.8 238.2 30.8 238.8 30.8 C 239.7 30.8 240.4 30.9 241.1 31.1 C 241.8 31.4 242.3 31.7 242.6 32.2 C 242.9 32.6 243.2 33.2 243.3 34 C 243.3 34 241.4 34.2 241.4 34.2 C 241.3 33.6 241.1 33.2 240.6 32.8 C 240.2 32.5 239.6 32.3 238.9 32.3 C 238 32.3 237.4 32.5 237 32.8 C 236.6 33.1 236.4 33.4 236.4 33.8 C 236.4 34.1 236.5 34.3 236.7 34.5 C 236.8 34.7 237.1 34.9 237.4 35 C 237.6 35.1 238.2 35.2 239.1 35.5 C 240.5 35.9 241.4 36.2 242 36.4 C 242.5 36.6 242.9 37 243.2 37.4 C 243.6 37.9 243.7 38.4 243.7 39.1 C 243.7 39.7 243.5 40.3 243.1 40.9 C 242.8 41.5 242.2 41.9 241.5 42.2 C 240.8 42.5 240 42.7 239.1 42.7 C 237.6 42.7 236.5 42.4 235.7 41.8 C 234.9 41.1 234.4 40.2 234.2 39 Z M 252.4 42.4 L 252.4 26.7 C 252.4 26.7 258.31 26.67 258.3 26.7 C 259.4 26.7 260.2 26.7 260.7 26.8 C 261.5 26.9 262.1 27.2 262.6 27.6 C 263.2 27.9 263.6 28.4 263.9 29.1 C 264.2 29.7 264.4 30.4 264.4 31.2 C 264.4 32.6 264 33.7 263.1 34.6 C 262.3 35.6 260.7 36 258.5 36 C 258.49 36.01 254.5 36 254.5 36 L 254.5 42.4 L 252.4 42.4 Z M 254.5 34.2 C 254.5 34.2 258.52 34.16 258.5 34.2 C 259.9 34.2 260.8 33.9 261.4 33.4 C 262 32.9 262.2 32.2 262.2 31.3 C 262.2 30.6 262.1 30.1 261.7 29.6 C 261.4 29.1 261 28.8 260.4 28.7 C 260.1 28.6 259.4 28.5 258.5 28.5 C 258.48 28.53 254.5 28.5 254.5 28.5 L 254.5 34.2 Z M 274.6 42.4 C 274.4 42 274.3 41.5 274.2 41 C 273.5 41.6 272.8 42 272.2 42.3 C 271.5 42.5 270.8 42.7 270 42.7 C 268.8 42.7 267.8 42.4 267.1 41.8 C 266.5 41.1 266.1 40.4 266.1 39.4 C 266.1 38.9 266.3 38.3 266.5 37.9 C 266.8 37.4 267.1 37 267.5 36.8 C 267.9 36.5 268.4 36.3 268.9 36.1 C 269.3 36 269.9 35.9 270.6 35.8 C 272.2 35.7 273.3 35.4 274.1 35.2 C 274.1 34.9 274.1 34.7 274.1 34.7 C 274.1 33.9 273.9 33.3 273.5 33 C 273 32.6 272.3 32.4 271.3 32.4 C 270.4 32.4 269.8 32.5 269.3 32.8 C 268.9 33.1 268.6 33.7 268.4 34.5 C 268.4 34.5 266.5 34.3 266.5 34.3 C 266.6 33.5 266.9 32.8 267.3 32.3 C 267.7 31.8 268.3 31.4 269 31.2 C 269.8 30.9 270.6 30.8 271.6 30.8 C 272.6 30.8 273.4 30.9 274 31.1 C 274.6 31.3 275 31.6 275.3 32 C 275.6 32.3 275.8 32.7 275.9 33.3 C 276 33.6 276 34.2 276 35.1 C 276 35.1 276 37.6 276 37.6 C 276 39.4 276.1 40.6 276.2 41 C 276.2 41.5 276.4 42 276.6 42.4 C 276.64 42.42 274.6 42.4 274.6 42.4 C 274.6 42.4 274.62 42.42 274.6 42.4 Z M 274.1 36.7 C 273.4 37 272.3 37.2 270.9 37.4 C 270.1 37.5 269.6 37.7 269.2 37.8 C 268.9 38 268.6 38.2 268.5 38.4 C 268.3 38.7 268.2 39 268.2 39.4 C 268.2 39.9 268.4 40.3 268.8 40.6 C 269.2 41 269.7 41.2 270.5 41.2 C 271.2 41.2 271.9 41 272.5 40.7 C 273.1 40.3 273.5 39.9 273.8 39.3 C 274 38.9 274.1 38.3 274.1 37.4 C 274.1 37.4 274.1 36.7 274.1 36.7 Z M 279 42.4 L 279 31 L 280.7 31 C 280.7 31 280.75 32.74 280.7 32.7 C 281.2 31.9 281.6 31.4 282 31.1 C 282.4 30.9 282.8 30.8 283.2 30.8 C 283.9 30.8 284.5 31 285.2 31.4 C 285.2 31.4 284.5 33.2 284.5 33.2 C 284.1 32.9 283.6 32.7 283.1 32.7 C 282.7 32.7 282.3 32.9 282 33.1 C 281.6 33.4 281.4 33.7 281.3 34.2 C 281 34.9 280.9 35.6 280.9 36.4 C 280.94 36.44 280.9 42.4 280.9 42.4 L 279 42.4 Z M 286.4 42.4 L 286.4 26.7 L 288.3 26.7 L 288.3 35.6 L 292.9 31 L 295.4 31 L 291 35.2 L 295.8 42.4 L 293.4 42.4 L 289.7 36.6 L 288.3 37.9 L 288.3 42.4 L 286.4 42.4 Z " stroke="none" fill="#000"/>  </g>  <g id="Polygon63279">    <path d="M 1.7 16 L 1.7 0.3 C 1.7 0.3 7.12 0.27 7.1 0.3 C 8.3 0.3 9.3 0.3 9.9 0.5 C 10.8 0.7 11.6 1.1 12.2 1.6 C 13.1 2.3 13.7 3.2 14.1 4.3 C 14.5 5.4 14.7 6.7 14.7 8.1 C 14.7 9.3 14.6 10.3 14.3 11.2 C 14 12.2 13.7 12.9 13.2 13.5 C 12.8 14.1 12.3 14.6 11.8 15 C 11.3 15.3 10.6 15.6 9.9 15.7 C 9.2 15.9 8.3 16 7.4 16 C 7.38 16.02 1.7 16 1.7 16 Z M 3.8 14.2 C 3.8 14.2 7.14 14.16 7.1 14.2 C 8.2 14.2 9 14.1 9.6 13.9 C 10.2 13.7 10.6 13.4 11 13.1 C 11.5 12.6 11.9 11.9 12.2 11.1 C 12.4 10.2 12.6 9.2 12.6 8 C 12.6 6.4 12.3 5.1 11.8 4.2 C 11.2 3.3 10.6 2.8 9.8 2.4 C 9.2 2.2 8.3 2.1 7.1 2.1 C 7.09 2.13 3.8 2.1 3.8 2.1 L 3.8 14.2 Z M 16.9 11 C 16.9 11 18.8 10.8 18.8 10.8 C 18.9 11.6 19.2 12.2 19.5 12.7 C 19.8 13.2 20.4 13.6 21.1 13.9 C 21.8 14.3 22.6 14.4 23.5 14.4 C 24.3 14.4 25 14.3 25.6 14.1 C 26.2 13.8 26.7 13.5 27 13.1 C 27.3 12.7 27.4 12.2 27.4 11.7 C 27.4 11.2 27.3 10.8 27 10.4 C 26.7 10.1 26.2 9.8 25.6 9.5 C 25.1 9.4 24.2 9.1 22.8 8.7 C 21.3 8.4 20.3 8.1 19.7 7.8 C 19 7.4 18.4 6.9 18 6.3 C 17.7 5.7 17.5 5.1 17.5 4.3 C 17.5 3.5 17.7 2.8 18.2 2.1 C 18.6 1.4 19.3 0.9 20.1 0.5 C 21 0.2 22 0 23 0 C 24.2 0 25.2 0.2 26.1 0.6 C 27 0.9 27.7 1.5 28.2 2.2 C 28.6 3 28.9 3.8 28.9 4.7 C 28.9 4.7 26.9 4.9 26.9 4.9 C 26.8 3.9 26.5 3.1 25.9 2.6 C 25.2 2.1 24.3 1.8 23.1 1.8 C 21.8 1.8 20.9 2.1 20.4 2.5 C 19.8 3 19.5 3.5 19.5 4.2 C 19.5 4.8 19.7 5.2 20.1 5.6 C 20.5 6 21.5 6.3 23.2 6.7 C 24.9 7.1 26.1 7.4 26.7 7.7 C 27.6 8.1 28.3 8.7 28.8 9.3 C 29.2 10 29.4 10.7 29.4 11.6 C 29.4 12.4 29.2 13.2 28.7 13.9 C 28.2 14.7 27.5 15.3 26.6 15.7 C 25.7 16.1 24.7 16.3 23.6 16.3 C 22.2 16.3 21 16.1 20 15.7 C 19 15.2 18.3 14.6 17.7 13.8 C 17.2 13 16.9 12 16.9 11 Z M 35 16 L 30.8 0.3 L 33 0.3 C 33 0.3 35.36 10.59 35.4 10.6 C 35.6 11.7 35.8 12.7 36 13.8 C 36.4 12.1 36.7 11.2 36.7 10.9 C 36.74 10.9 39.7 0.3 39.7 0.3 L 42.2 0.3 C 42.2 0.3 44.5 8.24 44.5 8.2 C 45.1 10.2 45.5 12.1 45.7 13.8 C 45.9 12.8 46.2 11.7 46.5 10.4 C 46.51 10.39 49 0.3 49 0.3 L 51.1 0.3 L 46.8 16 L 44.8 16 C 44.8 16 41.43 4.02 41.4 4 C 41.2 3 41 2.4 40.9 2.2 C 40.8 2.9 40.6 3.5 40.5 4 C 40.48 4.02 37.1 16 37.1 16 L 35 16 Z M 59.2 16 L 59.2 0.3 L 61.3 0.3 L 61.3 6.7 L 69.5 6.7 L 69.5 0.3 L 71.6 0.3 L 71.6 16 L 69.5 16 L 69.5 8.6 L 61.3 8.6 L 61.3 16 L 59.2 16 Z M 74.1 10.3 C 74.1 8.2 74.6 6.6 75.8 5.6 C 76.8 4.8 78 4.4 79.4 4.4 C 81 4.4 82.3 4.9 83.3 5.9 C 84.2 6.9 84.7 8.3 84.7 10.2 C 84.7 11.6 84.5 12.8 84.1 13.6 C 83.6 14.5 83 15.1 82.2 15.6 C 81.3 16 80.4 16.3 79.4 16.3 C 77.8 16.3 76.5 15.8 75.5 14.7 C 74.5 13.7 74.1 12.2 74.1 10.3 Z M 76 10.3 C 76 11.8 76.4 12.9 77 13.6 C 77.6 14.3 78.4 14.7 79.4 14.7 C 80.4 14.7 81.2 14.3 81.8 13.6 C 82.4 12.9 82.8 11.7 82.8 10.2 C 82.8 8.8 82.4 7.8 81.8 7 C 81.2 6.3 80.4 6 79.4 6 C 78.4 6 77.6 6.3 77 7 C 76.4 7.8 76 8.9 76 10.3 Z M 94.5 16 C 94.5 16 94.49 14.34 94.5 14.3 C 93.6 15.6 92.4 16.3 90.9 16.3 C 90.2 16.3 89.6 16.1 89 15.9 C 88.4 15.6 88 15.3 87.7 14.9 C 87.4 14.5 87.2 14 87.1 13.5 C 87 13.1 87 12.5 87 11.7 C 86.97 11.68 87 4.6 87 4.6 L 88.9 4.6 C 88.9 4.6 88.9 10.94 88.9 10.9 C 88.9 11.9 88.9 12.6 89 13 C 89.1 13.5 89.4 13.9 89.8 14.2 C 90.2 14.5 90.7 14.6 91.3 14.6 C 91.8 14.6 92.4 14.5 92.9 14.2 C 93.4 13.9 93.8 13.5 94 12.9 C 94.2 12.4 94.3 11.7 94.3 10.7 C 94.28 10.72 94.3 4.6 94.3 4.6 L 96.2 4.6 L 96.2 16 L 94.5 16 Z M 98.5 12.6 C 98.5 12.6 100.4 12.3 100.4 12.3 C 100.5 13.1 100.8 13.7 101.3 14.1 C 101.8 14.5 102.5 14.7 103.3 14.7 C 104.2 14.7 104.9 14.5 105.3 14.1 C 105.7 13.8 106 13.4 106 12.9 C 106 12.4 105.8 12.1 105.4 11.8 C 105.1 11.7 104.5 11.4 103.4 11.2 C 102 10.8 101 10.5 100.5 10.3 C 99.9 10 99.5 9.6 99.2 9.2 C 98.9 8.7 98.8 8.2 98.8 7.6 C 98.8 7.1 98.9 6.7 99.1 6.2 C 99.4 5.8 99.7 5.4 100.1 5.1 C 100.4 4.9 100.8 4.7 101.3 4.6 C 101.8 4.4 102.4 4.4 103 4.4 C 103.9 4.4 104.7 4.5 105.4 4.7 C 106 5 106.5 5.3 106.9 5.8 C 107.2 6.2 107.4 6.8 107.5 7.6 C 107.5 7.6 105.6 7.8 105.6 7.8 C 105.5 7.2 105.3 6.8 104.9 6.4 C 104.5 6.1 103.9 5.9 103.1 5.9 C 102.2 5.9 101.6 6.1 101.2 6.4 C 100.9 6.7 100.7 7 100.7 7.4 C 100.7 7.7 100.7 7.9 100.9 8.1 C 101.1 8.3 101.3 8.5 101.6 8.6 C 101.8 8.7 102.4 8.8 103.4 9.1 C 104.7 9.5 105.7 9.8 106.2 10 C 106.8 10.2 107.2 10.6 107.5 11 C 107.8 11.5 107.9 12 107.9 12.7 C 107.9 13.3 107.8 13.9 107.4 14.5 C 107 15.1 106.5 15.5 105.8 15.8 C 105 16.1 104.2 16.3 103.4 16.3 C 101.9 16.3 100.7 16 100 15.4 C 99.2 14.7 98.7 13.8 98.5 12.6 Z M 118.1 12.3 C 118.1 12.3 120.1 12.6 120.1 12.6 C 119.7 13.8 119.2 14.7 118.3 15.3 C 117.5 16 116.4 16.3 115 16.3 C 113.4 16.3 112 15.8 111.1 14.7 C 110.1 13.7 109.6 12.3 109.6 10.4 C 109.6 8.5 110.1 7 111.1 5.9 C 112.1 4.9 113.4 4.4 114.9 4.4 C 116.5 4.4 117.7 4.9 118.7 5.9 C 119.6 6.9 120.1 8.4 120.1 10.3 C 120.1 10.4 120.1 10.6 120.1 10.8 C 120.1 10.8 111.6 10.8 111.6 10.8 C 111.7 12.1 112 13 112.7 13.7 C 113.3 14.4 114.1 14.7 115 14.7 C 115.8 14.7 116.4 14.5 116.9 14.1 C 117.4 13.8 117.8 13.2 118.1 12.3 Z M 111.7 9.2 C 111.7 9.2 118.1 9.2 118.1 9.2 C 118 8.3 117.7 7.5 117.3 7.1 C 116.7 6.3 115.9 5.9 115 5.9 C 114.1 5.9 113.3 6.2 112.7 6.8 C 112.1 7.4 111.8 8.2 111.7 9.2 Z " stroke="none" fill="#000"/>  </g></svg>