<?xml version="1.0" standalone="no"?><!DOCTYPE svg PUBLIC "-//W3C//DTD SVG 1.1//EN" "http://www.w3.org/Graphics/SVG/1.1/DTD/svg11.dtd"><svg xmlns="http://www.w3.org/2000/svg" version="1.1" width="263.3px" height="97.5px" viewBox="0 -1 263.3 97.5" style="top:-1px">  <desc>TRAINING Solutions</desc>  <defs/>  <g id="Polygon65177">    <path d="M 73.8 51.1 C 75.1 51.1 76.4 51.5 77.6 52.1 C 77.6 52.1 77.6 53.5 77.6 53.5 C 76.2 52.7 75 52.3 73.9 52.3 C 73 52.3 72.1 52.6 71.5 53.2 C 70.8 53.8 70.5 54.5 70.5 55.4 C 70.5 56 70.7 56.6 71.1 57.1 C 71.5 57.6 72.3 58.1 73.5 58.6 C 74.8 59 75.7 59.4 76.2 59.7 C 76.8 60.1 77.3 60.5 77.7 61.1 C 78.1 61.7 78.3 62.5 78.3 63.4 C 78.3 64.7 77.8 65.7 76.9 66.6 C 76 67.5 74.9 67.9 73.5 67.9 C 72.2 67.9 70.8 67.4 69.3 66.5 C 69.3 66.5 69.3 65 69.3 65 C 70.9 66.1 72.3 66.7 73.5 66.7 C 74.4 66.7 75.2 66.4 75.9 65.8 C 76.6 65.2 76.9 64.4 76.9 63.5 C 76.9 62.8 76.7 62.1 76.3 61.6 C 75.9 61 75 60.5 73.8 60 C 72.5 59.5 71.6 59.1 71.1 58.9 C 70.5 58.6 70.1 58.1 69.7 57.6 C 69.3 57 69.1 56.3 69.1 55.5 C 69.1 54.3 69.6 53.2 70.5 52.4 C 71.4 51.5 72.5 51.1 73.8 51.1 C 73.8 51.1 73.8 51.1 73.8 51.1 Z M 89.1 51.1 C 91.6 51.1 93.6 51.9 95.3 53.6 C 97 55.2 97.8 57.2 97.8 59.5 C 97.8 61.8 97 63.8 95.3 65.5 C 93.6 67.1 91.6 67.9 89.1 67.9 C 86.7 67.9 84.7 67.1 83 65.5 C 81.3 63.8 80.5 61.8 80.5 59.5 C 80.5 57.2 81.3 55.2 83 53.6 C 84.7 51.9 86.7 51.1 89.1 51.1 Z M 89.2 66.7 C 91.2 66.7 92.9 66 94.3 64.6 C 95.8 63.2 96.5 61.5 96.5 59.5 C 96.5 57.5 95.8 55.8 94.3 54.4 C 92.9 53 91.2 52.3 89.2 52.3 C 87.1 52.3 85.4 53 84 54.4 C 82.6 55.8 81.9 57.5 81.9 59.5 C 81.9 61.5 82.6 63.2 84 64.6 C 85.4 66 87.1 66.7 89.2 66.7 Z M 102.2 51.3 L 102.2 66.6 L 110.3 66.6 L 110.3 67.7 L 100.9 67.7 L 100.9 51.3 L 102.2 51.3 Z M 124.3 51.3 L 125.5 51.3 C 125.5 51.3 125.53 60.25 125.5 60.2 C 125.5 62.7 124.9 64.6 123.6 65.9 C 122.3 67.2 120.7 67.9 118.7 67.9 C 116.7 67.9 115 67.2 113.7 65.9 C 112.5 64.6 111.8 62.8 111.8 60.5 C 111.83 60.54 111.8 51.3 111.8 51.3 L 113.1 51.3 C 113.1 51.3 113.1 60.5 113.1 60.5 C 113.1 62.4 113.6 64 114.7 65.1 C 115.7 66.2 117 66.7 118.7 66.7 C 120.3 66.7 121.7 66.2 122.7 65.1 C 123.7 63.9 124.3 62.4 124.3 60.3 C 124.26 60.32 124.3 51.3 124.3 51.3 Z M 140.7 51.3 L 140.7 52.4 L 134.6 52.4 L 134.6 67.7 L 133.3 67.7 L 133.3 52.4 L 127.1 52.4 L 127.1 51.3 L 140.7 51.3 Z M 143.9 51.3 L 143.9 67.7 L 142.7 67.7 L 142.7 51.3 L 143.9 51.3 Z M 155.7 51.1 C 158.1 51.1 160.1 51.9 161.8 53.6 C 163.5 55.2 164.4 57.2 164.4 59.5 C 164.4 61.8 163.5 63.8 161.8 65.5 C 160.1 67.1 158.1 67.9 155.7 67.9 C 153.3 67.9 151.2 67.1 149.5 65.5 C 147.9 63.8 147 61.8 147 59.5 C 147 57.2 147.9 55.2 149.5 53.6 C 151.2 51.9 153.3 51.1 155.7 51.1 Z M 155.7 66.7 C 157.8 66.7 159.5 66 160.9 64.6 C 162.3 63.2 163 61.5 163 59.5 C 163 57.5 162.3 55.8 160.9 54.4 C 159.5 53 157.8 52.3 155.7 52.3 C 153.7 52.3 151.9 53 150.5 54.4 C 149.1 55.8 148.4 57.5 148.4 59.5 C 148.4 61.5 149.1 63.2 150.5 64.6 C 151.9 66 153.7 66.7 155.7 66.7 Z M 182.2 51.3 L 182.2 67.7 L 181.1 67.7 L 168.7 53.4 L 168.7 67.7 L 167.4 67.7 L 167.4 51.3 L 168.5 51.3 L 180.9 65.6 L 180.9 51.3 L 182.2 51.3 Z M 189.9 51.1 C 191.1 51.1 192.4 51.5 193.7 52.1 C 193.7 52.1 193.7 53.5 193.7 53.5 C 192.2 52.7 191 52.3 190 52.3 C 189 52.3 188.2 52.6 187.5 53.2 C 186.9 53.8 186.5 54.5 186.5 55.4 C 186.5 56 186.7 56.6 187.1 57.1 C 187.5 57.6 188.3 58.1 189.6 58.6 C 190.8 59 191.7 59.4 192.3 59.7 C 192.9 60.1 193.3 60.5 193.7 61.1 C 194.1 61.7 194.3 62.5 194.3 63.4 C 194.3 64.7 193.9 65.7 193 66.6 C 192 67.5 190.9 67.9 189.6 67.9 C 188.2 67.9 186.8 67.4 185.4 66.5 C 185.4 66.5 185.4 65 185.4 65 C 187 66.1 188.3 66.7 189.5 66.7 C 190.5 66.7 191.3 66.4 192 65.8 C 192.6 65.2 193 64.4 193 63.5 C 193 62.8 192.8 62.1 192.3 61.6 C 191.9 61 191.1 60.5 189.8 60 C 188.6 59.5 187.7 59.1 187.1 58.9 C 186.6 58.6 186.1 58.1 185.7 57.6 C 185.4 57 185.2 56.3 185.2 55.5 C 185.2 54.3 185.6 53.2 186.5 52.4 C 187.5 51.5 188.6 51.1 189.9 51.1 C 189.9 51.1 189.9 51.1 189.9 51.1 Z " stroke="none" fill="#ffffff"/>  </g>  <g id="Polygon65176">    <path d="M 91.4 22.5 L 91.4 23.6 L 85.3 23.6 L 85.3 38.9 L 84 38.9 L 84 23.6 L 77.9 23.6 L 77.9 22.5 L 91.4 22.5 Z M 93.4 22.5 C 93.4 22.5 97.63 22.52 97.6 22.5 C 99.4 22.5 100.7 22.9 101.7 23.7 C 102.6 24.4 103.1 25.5 103.1 26.8 C 103.1 28.6 102 30 99.9 30.7 C 100.5 31 101.2 31.8 102.1 33.2 C 102.12 33.23 105.8 38.9 105.8 38.9 L 104.3 38.9 C 104.3 38.9 101.47 34.4 101.5 34.4 C 100.5 32.9 99.8 32 99.2 31.6 C 98.7 31.2 97.9 31 96.9 31 C 96.91 31.04 94.7 31 94.7 31 L 94.7 38.9 L 93.4 38.9 L 93.4 22.5 Z M 94.7 23.6 L 94.7 30 C 94.7 30 97.42 29.98 97.4 30 C 98.8 30 99.9 29.7 100.6 29.1 C 101.3 28.6 101.7 27.8 101.7 26.8 C 101.7 25.8 101.3 25 100.6 24.4 C 99.8 23.9 98.8 23.6 97.4 23.6 C 97.37 23.57 94.7 23.6 94.7 23.6 Z M 113.7 22.4 L 121.2 38.9 L 119.9 38.9 L 117.3 33.2 L 109.3 33.2 L 106.7 38.9 L 105.4 38.9 L 113 22.4 L 113.7 22.4 Z M 116.8 32.2 L 113.3 24.5 L 109.8 32.2 L 116.8 32.2 Z M 124.4 22.5 L 124.4 38.9 L 123.2 38.9 L 123.2 22.5 L 124.4 22.5 Z M 142.9 22.5 L 142.9 38.9 L 141.9 38.9 L 129.4 24.6 L 129.4 38.9 L 128.2 38.9 L 128.2 22.5 L 129.2 22.5 L 141.7 36.8 L 141.7 22.5 L 142.9 22.5 Z M 147.9 22.5 L 147.9 38.9 L 146.7 38.9 L 146.7 22.5 L 147.9 22.5 Z M 166.4 22.5 L 166.4 38.9 L 165.4 38.9 L 152.9 24.6 L 152.9 38.9 L 151.7 38.9 L 151.7 22.5 L 152.7 22.5 L 165.2 36.8 L 165.2 22.5 L 166.4 22.5 Z M 178.3 22.3 C 180 22.3 181.9 22.8 183.9 23.7 C 183.9 23.7 183.9 25.1 183.9 25.1 C 182 24 180 23.5 178.1 23.5 C 176 23.5 174.3 24.2 172.9 25.5 C 171.5 26.9 170.9 28.6 170.9 30.7 C 170.9 32.8 171.5 34.5 172.9 35.9 C 174.3 37.2 176.1 37.9 178.4 37.9 C 180.1 37.9 181.6 37.6 182.9 36.9 C 182.93 36.92 182.9 32.5 182.9 32.5 L 179.5 32.5 L 179.5 31.4 L 184.2 31.4 C 184.2 31.4 184.21 37.72 184.2 37.7 C 182.3 38.6 180.3 39.1 178.4 39.1 C 175.9 39.1 173.7 38.3 172 36.7 C 170.3 35.1 169.5 33.1 169.5 30.7 C 169.5 28.3 170.3 26.3 172 24.7 C 173.7 23.1 175.8 22.3 178.3 22.3 C 178.3 22.3 178.3 22.3 178.3 22.3 Z " stroke="none" fill="#ffffff"/>  </g></svg>