<?xml version="1.0" standalone="no"?><!DOCTYPE svg PUBLIC "-//W3C//DTD SVG 1.1//EN" "http://www.w3.org/Graphics/SVG/1.1/DTD/svg11.dtd"><svg xmlns="http://www.w3.org/2000/svg" version="1.1" width="262.3px" height="56.4px" viewBox="0 -9 262.3 56.4" style="top:-9px">  <desc>News</desc>  <defs/>  <g id="Polygon69270">    <path d="M 118 0.2 L 118 13.3 L 117.1 13.3 L 107.2 1.8 L 107.2 13.3 L 106.2 13.3 L 106.2 0.2 L 107 0.2 L 117 11.6 L 117 0.2 L 118 0.2 Z M 128.2 0.2 L 128.2 1 L 122 1 L 122 6.3 L 128 6.3 L 128 7.1 L 122 7.1 L 122 12.4 L 128.3 12.4 L 128.3 13.3 L 121 13.3 L 121 0.2 L 128.2 0.2 Z M 138.8 2.3 L 134.4 13.4 L 134.1 13.4 L 128.9 0.2 L 129.9 0.2 L 134.2 11 L 138.6 0.2 L 138.9 0.2 L 143.3 11 L 147.7 0.2 L 148.7 0.2 L 143.4 13.4 L 143.2 13.4 L 138.8 2.3 Z M 153.3 0 C 154.3 0 155.4 0.3 156.4 0.8 C 156.4 0.8 156.4 1.9 156.4 1.9 C 155.2 1.3 154.2 0.9 153.4 0.9 C 152.6 0.9 152 1.2 151.4 1.7 C 150.9 2.1 150.7 2.7 150.7 3.4 C 150.7 3.9 150.8 4.4 151.1 4.8 C 151.4 5.2 152.1 5.6 153.1 6 C 154.1 6.3 154.8 6.7 155.3 6.9 C 155.7 7.2 156.1 7.5 156.4 8 C 156.7 8.5 156.9 9.1 156.9 9.8 C 156.9 10.9 156.5 11.7 155.8 12.4 C 155.1 13.1 154.2 13.4 153.1 13.4 C 152 13.4 150.9 13.1 149.7 12.3 C 149.7 12.3 149.7 11.1 149.7 11.1 C 151 12 152.1 12.5 153 12.5 C 153.8 12.5 154.5 12.2 155 11.7 C 155.5 11.2 155.8 10.6 155.8 9.9 C 155.8 9.3 155.6 8.8 155.3 8.4 C 155 7.9 154.3 7.5 153.3 7.1 C 152.3 6.7 151.6 6.4 151.1 6.2 C 150.7 6 150.3 5.6 150 5.2 C 149.7 4.7 149.6 4.2 149.6 3.5 C 149.6 2.5 149.9 1.7 150.7 1 C 151.4 0.3 152.3 0 153.3 0 C 153.3 0 153.3 0 153.3 0 Z " stroke="none" fill="#ffffff"/>  </g></svg>