<?xml version="1.0" standalone="no"?><!DOCTYPE svg PUBLIC "-//W3C//DTD SVG 1.1//EN" "http://www.w3.org/Graphics/SVG/1.1/DTD/svg11.dtd"><svg xmlns="http://www.w3.org/2000/svg" version="1.1" width="109px" height="35.6px" viewBox="0 -6 109 35.6" style="top:-6px">  <desc>About Us</desc>  <defs/>  <g id="Polygon60544">    <path d="M 9.2 17 L 15.3 1.3 L 17.5 1.3 L 23.9 17 L 21.6 17 L 19.7 12.2 L 13.1 12.2 L 11.4 17 L 9.2 17 Z M 13.8 10.5 L 19.1 10.5 C 19.1 10.5 17.45 6.17 17.4 6.2 C 16.9 4.8 16.6 3.8 16.3 2.9 C 16.1 3.9 15.8 4.9 15.5 5.9 C 15.48 5.91 13.8 10.5 13.8 10.5 Z M 27.1 17 L 25.4 17 L 25.4 1.3 L 27.3 1.3 C 27.3 1.3 27.29 6.87 27.3 6.9 C 28.1 5.8 29.1 5.3 30.4 5.3 C 31.1 5.3 31.8 5.5 32.4 5.8 C 33 6 33.5 6.4 34 7 C 34.4 7.5 34.7 8.1 34.9 8.8 C 35.1 9.5 35.2 10.3 35.2 11.1 C 35.2 13.1 34.8 14.6 33.8 15.7 C 32.8 16.7 31.7 17.3 30.3 17.3 C 29 17.3 27.9 16.7 27.1 15.6 C 27.15 15.57 27.1 17 27.1 17 Z M 27.1 11.2 C 27.1 12.6 27.3 13.6 27.7 14.2 C 28.3 15.2 29.1 15.7 30.2 15.7 C 31 15.7 31.7 15.3 32.3 14.6 C 33 13.8 33.3 12.7 33.3 11.3 C 33.3 9.8 33 8.7 32.4 8 C 31.8 7.3 31.1 6.9 30.2 6.9 C 29.4 6.9 28.7 7.3 28 8 C 27.4 8.8 27.1 9.8 27.1 11.2 Z M 36.9 11.3 C 36.9 9.2 37.5 7.6 38.6 6.6 C 39.6 5.8 40.8 5.3 42.2 5.3 C 43.8 5.3 45.1 5.8 46.1 6.9 C 47.1 7.9 47.6 9.3 47.6 11.1 C 47.6 12.6 47.3 13.8 46.9 14.6 C 46.5 15.4 45.8 16.1 45 16.6 C 44.1 17 43.2 17.3 42.2 17.3 C 40.6 17.3 39.3 16.7 38.4 15.7 C 37.4 14.7 36.9 13.2 36.9 11.3 Z M 38.9 11.3 C 38.9 12.8 39.2 13.9 39.8 14.6 C 40.5 15.3 41.3 15.7 42.2 15.7 C 43.2 15.7 44 15.3 44.6 14.6 C 45.3 13.8 45.6 12.7 45.6 11.2 C 45.6 9.8 45.3 8.8 44.6 8 C 44 7.3 43.2 6.9 42.2 6.9 C 41.3 6.9 40.5 7.3 39.8 8 C 39.2 8.7 38.9 9.8 38.9 11.3 Z M 57.3 17 C 57.3 17 57.31 15.32 57.3 15.3 C 56.4 16.6 55.2 17.3 53.7 17.3 C 53 17.3 52.4 17.1 51.8 16.9 C 51.2 16.6 50.8 16.3 50.5 15.9 C 50.2 15.5 50 15 49.9 14.5 C 49.8 14.1 49.8 13.5 49.8 12.7 C 49.79 12.66 49.8 5.6 49.8 5.6 L 51.7 5.6 C 51.7 5.6 51.72 11.92 51.7 11.9 C 51.7 12.9 51.8 13.6 51.8 14 C 52 14.5 52.2 14.9 52.6 15.2 C 53 15.4 53.5 15.6 54.1 15.6 C 54.7 15.6 55.2 15.4 55.7 15.1 C 56.2 14.8 56.6 14.4 56.8 13.9 C 57 13.4 57.1 12.7 57.1 11.7 C 57.11 11.7 57.1 5.6 57.1 5.6 L 59 5.6 L 59 17 L 57.3 17 Z M 65.4 15.3 C 65.7 15.3 65.9 15.3 66.3 15.3 C 66.3 15.3 66.6 17 66.6 17 C 66 17.1 65.5 17.2 65.1 17.2 C 64.4 17.2 63.9 17 63.5 16.8 C 63.1 16.6 62.8 16.3 62.7 15.9 C 62.5 15.6 62.4 14.8 62.4 13.7 C 62.42 13.66 62.4 7.1 62.4 7.1 L 61 7.1 L 61 5.6 L 62.4 5.6 L 62.4 2.8 L 64.3 1.6 L 64.3 5.6 L 66.3 5.6 L 66.3 7.1 L 64.3 7.1 C 64.3 7.1 64.35 13.77 64.3 13.8 C 64.3 14.3 64.4 14.7 64.4 14.8 C 64.5 15 64.6 15.1 64.8 15.2 C 64.9 15.3 65.2 15.3 65.4 15.3 C 65.4 15.3 65.4 15.3 65.4 15.3 Z M 84.9 1.3 L 87 1.3 C 87 1.3 86.96 10.35 87 10.4 C 87 11.9 86.8 13.2 86.4 14.1 C 86.1 15.1 85.4 15.8 84.5 16.4 C 83.5 17 82.3 17.3 80.8 17.3 C 79.3 17.3 78.1 17 77.2 16.5 C 76.2 16 75.6 15.3 75.2 14.3 C 74.8 13.3 74.6 12 74.6 10.4 C 74.57 10.35 74.6 1.3 74.6 1.3 L 76.7 1.3 C 76.7 1.3 76.66 10.34 76.7 10.3 C 76.7 11.7 76.8 12.7 77 13.4 C 77.3 14 77.7 14.5 78.3 14.9 C 79 15.2 79.7 15.4 80.6 15.4 C 82.2 15.4 83.2 15 83.9 14.3 C 84.5 13.7 84.9 12.3 84.9 10.3 C 84.87 10.34 84.9 1.3 84.9 1.3 Z M 89.4 13.6 C 89.4 13.6 91.3 13.3 91.3 13.3 C 91.4 14.1 91.7 14.6 92.2 15.1 C 92.7 15.5 93.4 15.7 94.3 15.7 C 95.2 15.7 95.8 15.5 96.3 15.1 C 96.7 14.8 96.9 14.3 96.9 13.9 C 96.9 13.4 96.7 13.1 96.3 12.8 C 96.1 12.6 95.4 12.4 94.3 12.2 C 92.9 11.8 91.9 11.5 91.4 11.2 C 90.9 11 90.4 10.6 90.2 10.2 C 89.9 9.7 89.7 9.2 89.7 8.6 C 89.7 8.1 89.8 7.6 90.1 7.2 C 90.3 6.8 90.6 6.4 91 6.1 C 91.3 5.9 91.7 5.7 92.3 5.6 C 92.8 5.4 93.3 5.3 93.9 5.3 C 94.8 5.3 95.6 5.5 96.3 5.7 C 97 6 97.5 6.3 97.8 6.8 C 98.1 7.2 98.3 7.8 98.5 8.5 C 98.5 8.5 96.6 8.8 96.6 8.8 C 96.5 8.2 96.2 7.7 95.8 7.4 C 95.4 7.1 94.8 6.9 94.1 6.9 C 93.2 6.9 92.5 7.1 92.2 7.4 C 91.8 7.7 91.6 8 91.6 8.4 C 91.6 8.6 91.7 8.9 91.8 9.1 C 92 9.3 92.2 9.5 92.6 9.6 C 92.8 9.7 93.3 9.8 94.3 10.1 C 95.7 10.4 96.6 10.7 97.1 11 C 97.7 11.2 98.1 11.6 98.4 12 C 98.7 12.4 98.9 13 98.9 13.6 C 98.9 14.3 98.7 14.9 98.3 15.5 C 97.9 16 97.4 16.5 96.7 16.8 C 96 17.1 95.2 17.3 94.3 17.3 C 92.8 17.3 91.7 16.9 90.9 16.3 C 90.1 15.7 89.6 14.8 89.4 13.6 Z " stroke="none" fill="#f28620"/>  </g></svg>