<?xml version="1.0" standalone="no"?><!DOCTYPE svg PUBLIC "-//W3C//DTD SVG 1.1//EN" "http://www.w3.org/Graphics/SVG/1.1/DTD/svg11.dtd"><svg xmlns="http://www.w3.org/2000/svg" version="1.1" width="102.5px" height="35.6px" viewBox="0 -6 102.5 35.6" style="top:-6px">  <desc>Services</desc>  <defs/>  <g id="Polygon60458">    <path d="M 10.1 11.9 C 10.1 11.9 12 11.8 12 11.8 C 12.1 12.6 12.3 13.2 12.7 13.7 C 13 14.2 13.5 14.6 14.3 14.9 C 15 15.2 15.8 15.4 16.7 15.4 C 17.5 15.4 18.2 15.3 18.8 15 C 19.4 14.8 19.8 14.5 20.1 14.1 C 20.4 13.7 20.6 13.2 20.6 12.7 C 20.6 12.2 20.4 11.8 20.1 11.4 C 19.9 11.1 19.4 10.8 18.7 10.5 C 18.3 10.3 17.4 10.1 15.9 9.7 C 14.5 9.4 13.5 9.1 12.9 8.8 C 12.1 8.4 11.6 7.9 11.2 7.3 C 10.8 6.7 10.7 6 10.7 5.3 C 10.7 4.5 10.9 3.8 11.3 3.1 C 11.8 2.4 12.4 1.9 13.3 1.5 C 14.2 1.2 15.1 1 16.2 1 C 17.4 1 18.4 1.2 19.3 1.5 C 20.2 1.9 20.9 2.5 21.3 3.2 C 21.8 3.9 22.1 4.8 22.1 5.7 C 22.1 5.7 20.1 5.8 20.1 5.8 C 20 4.8 19.6 4.1 19 3.6 C 18.4 3.1 17.5 2.8 16.3 2.8 C 15 2.8 14.1 3.1 13.5 3.5 C 12.9 4 12.7 4.5 12.7 5.2 C 12.7 5.7 12.9 6.2 13.3 6.6 C 13.7 6.9 14.7 7.3 16.4 7.7 C 18.1 8.1 19.3 8.4 19.9 8.7 C 20.8 9.1 21.5 9.7 21.9 10.3 C 22.4 11 22.6 11.7 22.6 12.6 C 22.6 13.4 22.3 14.2 21.9 14.9 C 21.4 15.7 20.7 16.2 19.8 16.7 C 18.9 17.1 17.9 17.3 16.8 17.3 C 15.3 17.3 14.1 17.1 13.2 16.6 C 12.2 16.2 11.5 15.6 10.9 14.8 C 10.4 13.9 10.1 13 10.1 11.9 Z M 33 13.3 C 33 13.3 35 13.6 35 13.6 C 34.7 14.7 34.1 15.6 33.2 16.3 C 32.4 16.9 31.3 17.3 30 17.3 C 28.3 17.3 27 16.7 26 15.7 C 25 14.7 24.5 13.2 24.5 11.4 C 24.5 9.5 25 8 26 6.9 C 27 5.9 28.3 5.3 29.9 5.3 C 31.4 5.3 32.6 5.9 33.6 6.9 C 34.6 7.9 35.1 9.4 35.1 11.3 C 35.1 11.4 35.1 11.6 35 11.8 C 35 11.8 26.5 11.8 26.5 11.8 C 26.6 13 27 14 27.6 14.7 C 28.2 15.3 29 15.7 30 15.7 C 30.7 15.7 31.3 15.5 31.8 15.1 C 32.3 14.7 32.7 14.1 33 13.3 Z M 26.6 10.2 C 26.6 10.2 33 10.2 33 10.2 C 32.9 9.2 32.7 8.5 32.3 8 C 31.7 7.3 30.9 6.9 29.9 6.9 C 29 6.9 28.3 7.2 27.7 7.8 C 27 8.4 26.7 9.2 26.6 10.2 Z M 37.4 17 L 37.4 5.6 L 39.1 5.6 C 39.1 5.6 39.14 7.32 39.1 7.3 C 39.6 6.5 40 6 40.4 5.7 C 40.7 5.5 41.2 5.3 41.6 5.3 C 42.3 5.3 42.9 5.5 43.6 6 C 43.6 6 42.9 7.8 42.9 7.8 C 42.5 7.5 42 7.3 41.5 7.3 C 41.1 7.3 40.7 7.5 40.4 7.7 C 40 8 39.8 8.3 39.7 8.8 C 39.4 9.5 39.3 10.2 39.3 11 C 39.33 11.03 39.3 17 39.3 17 L 37.4 17 Z M 47.9 17 L 43.6 5.6 L 45.6 5.6 C 45.6 5.6 48.07 12.42 48.1 12.4 C 48.3 13.2 48.6 13.9 48.8 14.7 C 49 14.1 49.2 13.4 49.5 12.6 C 49.52 12.55 52.1 5.6 52.1 5.6 L 54 5.6 L 49.7 17 L 47.9 17 Z M 55.8 3.5 L 55.8 1.3 L 57.7 1.3 L 57.7 3.5 L 55.8 3.5 Z M 55.8 17 L 55.8 5.6 L 57.7 5.6 L 57.7 17 L 55.8 17 Z M 68.1 12.8 C 68.1 12.8 70 13.1 70 13.1 C 69.8 14.4 69.2 15.4 68.4 16.1 C 67.5 16.9 66.5 17.3 65.2 17.3 C 63.7 17.3 62.4 16.7 61.5 15.7 C 60.5 14.7 60 13.2 60 11.3 C 60 10.1 60.2 9 60.7 8.1 C 61.1 7.2 61.7 6.5 62.5 6 C 63.4 5.6 64.3 5.3 65.2 5.3 C 66.5 5.3 67.5 5.6 68.3 6.3 C 69.1 6.9 69.6 7.8 69.8 8.9 C 69.8 8.9 67.9 9.2 67.9 9.2 C 67.7 8.5 67.4 7.9 67 7.5 C 66.5 7.1 66 6.9 65.3 6.9 C 64.3 6.9 63.6 7.3 62.9 8 C 62.3 8.7 62 9.8 62 11.3 C 62 12.8 62.3 13.9 62.9 14.6 C 63.5 15.3 64.3 15.7 65.2 15.7 C 66 15.7 66.6 15.4 67.1 15 C 67.6 14.5 67.9 13.8 68.1 12.8 Z M 79.4 13.3 C 79.4 13.3 81.4 13.6 81.4 13.6 C 81.1 14.7 80.5 15.6 79.7 16.3 C 78.8 16.9 77.8 17.3 76.4 17.3 C 74.8 17.3 73.4 16.7 72.5 15.7 C 71.5 14.7 71 13.2 71 11.4 C 71 9.5 71.5 8 72.5 6.9 C 73.5 5.9 74.7 5.3 76.3 5.3 C 77.8 5.3 79.1 5.9 80.1 6.9 C 81 7.9 81.5 9.4 81.5 11.3 C 81.5 11.4 81.5 11.6 81.5 11.8 C 81.5 11.8 73 11.8 73 11.8 C 73.1 13 73.4 14 74.1 14.7 C 74.7 15.3 75.5 15.7 76.4 15.7 C 77.1 15.7 77.8 15.5 78.3 15.1 C 78.8 14.7 79.2 14.1 79.4 13.3 Z M 73.1 10.2 C 73.1 10.2 79.5 10.2 79.5 10.2 C 79.4 9.2 79.1 8.5 78.7 8 C 78.1 7.3 77.3 6.9 76.3 6.9 C 75.5 6.9 74.7 7.2 74.1 7.8 C 73.5 8.4 73.2 9.2 73.1 10.2 Z M 83.1 13.6 C 83.1 13.6 85 13.3 85 13.3 C 85.1 14.1 85.4 14.6 85.9 15.1 C 86.4 15.5 87.1 15.7 88 15.7 C 88.9 15.7 89.5 15.5 89.9 15.1 C 90.4 14.8 90.6 14.3 90.6 13.9 C 90.6 13.4 90.4 13.1 90 12.8 C 89.8 12.6 89.1 12.4 88 12.2 C 86.6 11.8 85.6 11.5 85.1 11.2 C 84.5 11 84.1 10.6 83.8 10.2 C 83.6 9.7 83.4 9.2 83.4 8.6 C 83.4 8.1 83.5 7.6 83.8 7.2 C 84 6.8 84.3 6.4 84.7 6.1 C 85 5.9 85.4 5.7 85.9 5.6 C 86.5 5.4 87 5.3 87.6 5.3 C 88.5 5.3 89.3 5.5 90 5.7 C 90.7 6 91.2 6.3 91.5 6.8 C 91.8 7.2 92 7.8 92.1 8.5 C 92.1 8.5 90.3 8.8 90.3 8.8 C 90.2 8.2 89.9 7.7 89.5 7.4 C 89.1 7.1 88.5 6.9 87.8 6.9 C 86.9 6.9 86.2 7.1 85.9 7.4 C 85.5 7.7 85.3 8 85.3 8.4 C 85.3 8.6 85.4 8.9 85.5 9.1 C 85.7 9.3 85.9 9.5 86.3 9.6 C 86.5 9.7 87 9.8 88 10.1 C 89.3 10.4 90.3 10.7 90.8 11 C 91.4 11.2 91.8 11.6 92.1 12 C 92.4 12.4 92.6 13 92.6 13.6 C 92.6 14.3 92.4 14.9 92 15.5 C 91.6 16 91.1 16.5 90.4 16.8 C 89.7 17.1 88.9 17.3 88 17.3 C 86.5 17.3 85.4 16.9 84.6 16.3 C 83.8 15.7 83.3 14.8 83.1 13.6 Z " stroke="none" fill="#ffffff"/>  </g></svg>