<?xml version="1.0" standalone="no"?><!DOCTYPE svg PUBLIC "-//W3C//DTD SVG 1.1//EN" "http://www.w3.org/Graphics/SVG/1.1/DTD/svg11.dtd"><svg xmlns="http://www.w3.org/2000/svg" version="1.1" width="159px" height="57.4px" viewBox="0 -1 159 57.4" style="top:-1px">  <desc>sectors</desc>  <defs/>  <g id="Polygon68944">    <path d="M 7.8 13.3 C 9.4 13.3 11.1 13.8 12.8 14.7 C 12.8 14.7 12.8 16.6 12.8 16.6 C 10.9 15.5 9.3 14.9 7.9 14.9 C 6.6 14.9 5.5 15.3 4.6 16.1 C 3.7 16.9 3.3 17.9 3.3 19.1 C 3.3 19.9 3.6 20.7 4.1 21.3 C 4.6 22 5.7 22.7 7.3 23.3 C 9 23.9 10.2 24.4 11 24.8 C 11.7 25.3 12.4 25.9 12.9 26.7 C 13.4 27.5 13.7 28.5 13.7 29.7 C 13.7 31.4 13.1 32.8 11.9 34 C 10.6 35.1 9.1 35.7 7.4 35.7 C 5.5 35.7 3.7 35.1 1.8 33.8 C 1.8 33.8 1.8 31.8 1.8 31.8 C 3.9 33.4 5.7 34.2 7.3 34.2 C 8.6 34.2 9.6 33.7 10.5 32.9 C 11.4 32.1 11.9 31 11.9 29.8 C 11.9 28.9 11.6 28.1 11 27.3 C 10.5 26.6 9.4 25.9 7.7 25.2 C 6 24.6 4.8 24.1 4.1 23.7 C 3.3 23.3 2.7 22.7 2.2 22 C 1.7 21.2 1.5 20.3 1.5 19.1 C 1.5 17.5 2.1 16.2 3.3 15 C 4.5 13.9 6 13.3 7.8 13.3 C 7.8 13.3 7.8 13.3 7.8 13.3 Z M 29.5 13.6 L 29.5 15 L 19.3 15 L 19.3 23.8 L 29.2 23.8 L 29.2 25.2 L 19.3 25.2 L 19.3 34 L 29.7 34 L 29.7 35.4 L 17.6 35.4 L 17.6 13.6 L 29.5 13.6 Z M 43.7 13.3 C 46.2 13.3 48.8 13.9 51.4 15.2 C 51.4 15.2 51.4 17 51.4 17 C 48.8 15.6 46.2 14.9 43.6 14.9 C 40.9 14.9 38.7 15.8 36.8 17.7 C 35 19.5 34.1 21.8 34.1 24.6 C 34.1 27.4 35 29.7 36.8 31.5 C 38.7 33.3 41 34.2 43.9 34.2 C 46.2 34.2 48.8 33.4 51.6 31.9 C 51.6 31.9 51.6 33.7 51.6 33.7 C 49 35 46.5 35.7 43.9 35.7 C 40.6 35.7 37.8 34.7 35.6 32.5 C 33.4 30.4 32.3 27.7 32.3 24.6 C 32.3 21.4 33.4 18.7 35.7 16.6 C 37.9 14.4 40.6 13.3 43.7 13.3 C 43.7 13.3 43.7 13.3 43.7 13.3 Z M 70.6 13.6 L 70.6 15 L 62.4 15 L 62.4 35.4 L 60.7 35.4 L 60.7 15 L 52.5 15 L 52.5 13.6 L 70.6 13.6 Z M 81.5 13.3 C 84.7 13.3 87.4 14.4 89.7 16.6 C 91.9 18.8 93 21.4 93 24.5 C 93 27.7 91.9 30.3 89.7 32.5 C 87.4 34.6 84.7 35.7 81.5 35.7 C 78.2 35.7 75.5 34.6 73.3 32.5 C 71 30.3 69.9 27.7 69.9 24.5 C 69.9 21.4 71 18.8 73.3 16.6 C 75.5 14.4 78.2 13.3 81.5 13.3 Z M 81.5 34.2 C 84.2 34.2 86.5 33.2 88.4 31.4 C 90.3 29.5 91.2 27.2 91.2 24.5 C 91.2 21.8 90.3 19.5 88.4 17.7 C 86.5 15.8 84.2 14.9 81.5 14.9 C 78.8 14.9 76.5 15.8 74.6 17.7 C 72.7 19.5 71.8 21.8 71.8 24.5 C 71.8 27.2 72.7 29.5 74.6 31.4 C 76.5 33.2 78.8 34.2 81.5 34.2 Z M 97.2 13.6 C 97.2 13.6 102.77 13.61 102.8 13.6 C 105.1 13.6 106.9 14.1 108.1 15.1 C 109.4 16.2 110 17.5 110 19.3 C 110 21.8 108.6 23.5 105.8 24.6 C 106.6 24.9 107.5 26 108.8 27.9 C 108.75 27.9 113.7 35.4 113.7 35.4 L 111.7 35.4 C 111.7 35.4 107.89 29.46 107.9 29.5 C 106.6 27.5 105.6 26.2 104.9 25.7 C 104.2 25.2 103.2 25 101.8 25 C 101.81 24.97 98.9 25 98.9 25 L 98.9 35.4 L 97.2 35.4 L 97.2 13.6 Z M 98.9 15 L 98.9 23.6 C 98.9 23.6 102.48 23.57 102.5 23.6 C 104.3 23.6 105.7 23.2 106.7 22.5 C 107.7 21.7 108.2 20.7 108.2 19.3 C 108.2 17.9 107.7 16.9 106.7 16.1 C 105.7 15.4 104.3 15 102.4 15 C 102.42 15.02 98.9 15 98.9 15 Z M 120.7 13.3 C 122.4 13.3 124.1 13.8 125.8 14.7 C 125.8 14.7 125.8 16.6 125.8 16.6 C 123.9 15.5 122.3 14.9 120.9 14.9 C 119.6 14.9 118.5 15.3 117.6 16.1 C 116.7 16.9 116.3 17.9 116.3 19.1 C 116.3 19.9 116.5 20.7 117.1 21.3 C 117.6 22 118.7 22.7 120.3 23.3 C 122 23.9 123.2 24.4 124 24.8 C 124.7 25.3 125.4 25.9 125.9 26.7 C 126.4 27.5 126.7 28.5 126.7 29.7 C 126.7 31.4 126.1 32.8 124.8 34 C 123.6 35.1 122.1 35.7 120.3 35.7 C 118.5 35.7 116.7 35.1 114.8 33.8 C 114.8 33.8 114.8 31.8 114.8 31.8 C 116.9 33.4 118.7 34.2 120.3 34.2 C 121.5 34.2 122.6 33.7 123.5 32.9 C 124.4 32.1 124.9 31 124.9 29.8 C 124.9 28.9 124.6 28.1 124 27.3 C 123.5 26.6 122.4 25.9 120.7 25.2 C 119 24.6 117.8 24.1 117.1 23.7 C 116.3 23.3 115.7 22.7 115.2 22 C 114.7 21.2 114.5 20.3 114.5 19.1 C 114.5 17.5 115.1 16.2 116.3 15 C 117.5 13.9 119 13.3 120.7 13.3 C 120.7 13.3 120.7 13.3 120.7 13.3 Z " stroke="none" fill="#000"/>  </g></svg>