<?xml version="1.0" standalone="no"?><!DOCTYPE svg PUBLIC "-//W3C//DTD SVG 1.1//EN" "http://www.w3.org/Graphics/SVG/1.1/DTD/svg11.dtd"><svg xmlns="http://www.w3.org/2000/svg" version="1.1" width="395px" height="145.3px" viewBox="0 -1 395 145.3" style="top:-1px">  <desc>Managed Services</desc>  <defs/>  <g id="Polygon62264">    <path d="M 135.3 76.7 C 137.2 76.7 139.1 77.2 141 78.2 C 141 78.2 141 80.3 141 80.3 C 138.8 79 137 78.4 135.4 78.4 C 134 78.4 132.7 78.9 131.7 79.8 C 130.8 80.7 130.3 81.8 130.3 83.1 C 130.3 84 130.6 84.9 131.1 85.7 C 131.7 86.4 133 87.2 134.8 87.9 C 136.7 88.6 138 89.1 138.9 89.6 C 139.7 90.1 140.5 90.8 141.1 91.7 C 141.7 92.5 142 93.7 142 95.1 C 142 97 141.3 98.6 139.9 99.9 C 138.5 101.2 136.8 101.9 134.8 101.9 C 132.8 101.9 130.7 101.1 128.5 99.7 C 128.5 99.7 128.5 97.5 128.5 97.5 C 130.9 99.2 133 100.1 134.7 100.1 C 136.2 100.1 137.4 99.6 138.4 98.7 C 139.4 97.7 139.9 96.6 139.9 95.2 C 139.9 94.2 139.6 93.2 139 92.4 C 138.4 91.5 137.1 90.8 135.2 90 C 133.3 89.3 132 88.7 131.1 88.3 C 130.3 87.8 129.6 87.2 129.1 86.4 C 128.5 85.5 128.2 84.5 128.2 83.2 C 128.2 81.4 128.9 79.8 130.3 78.6 C 131.7 77.3 133.3 76.7 135.3 76.7 C 135.3 76.7 135.3 76.7 135.3 76.7 Z M 159.7 77 L 159.7 78.6 L 148.2 78.6 L 148.2 88.4 L 159.4 88.4 L 159.4 90 L 148.2 90 L 148.2 100 L 160 100 L 160 101.5 L 146.3 101.5 L 146.3 77 L 159.7 77 Z M 163.9 77 C 163.9 77 170.24 76.98 170.2 77 C 172.9 77 174.9 77.6 176.3 78.7 C 177.7 79.8 178.4 81.4 178.4 83.3 C 178.4 86.2 176.8 88.2 173.7 89.3 C 174.5 89.7 175.6 90.9 177 93 C 176.97 93.05 182.5 101.5 182.5 101.5 L 180.3 101.5 C 180.3 101.5 176 94.81 176 94.8 C 174.6 92.6 173.5 91.2 172.7 90.6 C 171.9 90 170.7 89.8 169.2 89.8 C 169.16 89.76 165.8 89.8 165.8 89.8 L 165.8 101.5 L 163.9 101.5 L 163.9 77 Z M 165.8 78.6 L 165.8 88.2 C 165.8 88.2 169.92 88.18 169.9 88.2 C 172 88.2 173.6 87.8 174.7 86.9 C 175.8 86.1 176.3 84.9 176.3 83.4 C 176.3 81.8 175.8 80.7 174.6 79.8 C 173.5 79 171.9 78.6 169.8 78.6 C 169.85 78.56 165.8 78.6 165.8 78.6 Z M 201.9 77 L 191.7 101.8 L 191.1 101.8 L 180.8 77 L 182.7 77 L 191.4 97.8 L 200 77 L 201.9 77 Z M 206.8 77 L 206.8 101.5 L 204.9 101.5 L 204.9 77 L 206.8 77 Z M 224.2 76.7 C 227 76.7 229.8 77.3 232.8 78.7 C 232.8 78.7 232.8 80.8 232.8 80.8 C 229.9 79.2 226.9 78.4 224.1 78.4 C 221 78.4 218.5 79.5 216.4 81.5 C 214.4 83.6 213.4 86.2 213.4 89.3 C 213.4 92.4 214.4 95 216.4 97.1 C 218.5 99.1 221.1 100.1 224.3 100.1 C 227 100.1 229.9 99.3 233.1 97.6 C 233.1 97.6 233.1 99.6 233.1 99.6 C 230.2 101.1 227.3 101.9 224.4 101.9 C 220.6 101.9 217.5 100.7 215 98.3 C 212.5 95.9 211.3 92.9 211.3 89.3 C 211.3 85.7 212.6 82.7 215.1 80.3 C 217.7 77.9 220.7 76.7 224.2 76.7 C 224.2 76.7 224.2 76.7 224.2 76.7 Z M 250.2 77 L 250.2 78.6 L 238.7 78.6 L 238.7 88.4 L 249.9 88.4 L 249.9 90 L 238.7 90 L 238.7 100 L 250.5 100 L 250.5 101.5 L 236.8 101.5 L 236.8 77 L 250.2 77 Z M 260.3 76.7 C 262.2 76.7 264.1 77.2 265.9 78.2 C 265.9 78.2 265.9 80.3 265.9 80.3 C 263.8 79 262 78.4 260.4 78.4 C 259 78.4 257.7 78.9 256.7 79.8 C 255.8 80.7 255.3 81.8 255.3 83.1 C 255.3 84 255.6 84.9 256.1 85.7 C 256.7 86.4 258 87.2 259.8 87.9 C 261.7 88.6 263 89.1 263.9 89.6 C 264.7 90.1 265.5 90.8 266.1 91.7 C 266.7 92.5 267 93.7 267 95.1 C 267 97 266.3 98.6 264.9 99.9 C 263.5 101.2 261.8 101.9 259.8 101.9 C 257.8 101.9 255.7 101.1 253.5 99.7 C 253.5 99.7 253.5 97.5 253.5 97.5 C 255.9 99.2 258 100.1 259.7 100.1 C 261.2 100.1 262.4 99.6 263.4 98.7 C 264.4 97.7 264.9 96.6 264.9 95.2 C 264.9 94.2 264.6 93.2 264 92.4 C 263.4 91.5 262.1 90.8 260.2 90 C 258.3 89.3 256.9 88.7 256.1 88.3 C 255.3 87.8 254.6 87.2 254.1 86.4 C 253.5 85.5 253.2 84.5 253.2 83.2 C 253.2 81.4 253.9 79.8 255.3 78.6 C 256.7 77.3 258.3 76.7 260.3 76.7 C 260.3 76.7 260.3 76.7 260.3 76.7 Z " stroke="none" fill="#ffffff"/>  </g>  <g id="Polygon62263">    <path d="M 125.4 45.2 L 134.7 33.8 L 136.7 33.8 L 136.7 58.3 L 134.8 58.3 L 134.8 36.6 L 125.4 48 L 116 36.6 L 116 58.3 L 114.1 58.3 L 114.1 33.8 L 116 33.8 L 125.4 45.2 Z M 152 33.6 L 163.4 58.3 L 161.4 58.3 L 157.5 49.8 L 145.5 49.8 L 141.6 58.3 L 139.6 58.3 L 151 33.6 L 152 33.6 Z M 156.8 48.3 L 151.5 36.7 L 146.2 48.3 L 156.8 48.3 Z M 188.4 33.8 L 188.4 58.3 L 186.9 58.3 L 168.2 36.9 L 168.2 58.3 L 166.3 58.3 L 166.3 33.8 L 167.9 33.8 L 186.5 55.2 L 186.5 33.8 L 188.4 33.8 Z M 203.8 33.6 L 215.1 58.3 L 213.1 58.3 L 209.2 49.8 L 197.2 49.8 L 193.4 58.3 L 191.4 58.3 L 202.7 33.6 L 203.8 33.6 Z M 208.5 48.3 L 203.2 36.7 L 198 48.3 L 208.5 48.3 Z M 228.4 33.5 C 231 33.5 233.8 34.2 236.8 35.6 C 236.8 35.6 236.8 37.7 236.8 37.7 C 233.9 36 231 35.2 228.1 35.2 C 225 35.2 222.5 36.3 220.4 38.3 C 218.3 40.4 217.3 43 217.3 46.1 C 217.3 49.2 218.3 51.8 220.4 53.8 C 222.4 55.9 225.2 56.9 228.7 56.9 C 231.2 56.9 233.5 56.4 235.4 55.4 C 235.41 55.38 235.4 48.8 235.4 48.8 L 230.2 48.8 L 230.2 47.2 L 237.3 47.2 C 237.3 47.2 237.32 56.58 237.3 56.6 C 234.4 58 231.5 58.7 228.6 58.7 C 224.8 58.7 221.6 57.4 219.1 55 C 216.5 52.6 215.2 49.6 215.2 46 C 215.2 42.4 216.5 39.4 219 37 C 221.5 34.7 224.6 33.5 228.4 33.5 C 228.4 33.5 228.4 33.5 228.4 33.5 Z M 255.6 33.8 L 255.6 35.4 L 244.1 35.4 L 244.1 45.2 L 255.3 45.2 L 255.3 46.8 L 244.1 46.8 L 244.1 56.8 L 255.9 56.8 L 255.9 58.3 L 242.2 58.3 L 242.2 33.8 L 255.6 33.8 Z M 259.8 33.8 C 259.8 33.8 268.44 33.78 268.4 33.8 C 272.8 33.8 276.1 34.9 278.4 37.2 C 280.7 39.5 281.8 42.4 281.8 46.1 C 281.8 49.6 280.7 52.6 278.4 54.9 C 276.2 57.2 272.9 58.3 268.8 58.3 C 268.77 58.34 259.8 58.3 259.8 58.3 L 259.8 33.8 Z M 261.7 35.4 L 261.7 56.8 C 261.7 56.8 268.67 56.75 268.7 56.8 C 271.8 56.8 274.5 55.8 276.6 53.8 C 278.7 51.9 279.8 49.3 279.8 46.1 C 279.8 42.9 278.7 40.3 276.6 38.4 C 274.6 36.4 271.9 35.4 268.5 35.4 C 268.54 35.36 261.7 35.4 261.7 35.4 Z " stroke="none" fill="#ffffff"/>  </g></svg>