<?xml version="1.0" standalone="no"?><!DOCTYPE svg PUBLIC "-//W3C//DTD SVG 1.1//EN" "http://www.w3.org/Graphics/SVG/1.1/DTD/svg11.dtd"><svg xmlns="http://www.w3.org/2000/svg" version="1.1" width="92.1px" height="35.6px" viewBox="0 -6 92.1 35.6" style="top:-6px">  <desc>Join Us</desc>  <defs/>  <g id="Polygon60716">    <path d="M 10 12.5 C 10 12.5 11.9 12.3 11.9 12.3 C 11.9 13.5 12.2 14.3 12.6 14.7 C 13 15.2 13.5 15.4 14.2 15.4 C 14.8 15.4 15.2 15.3 15.6 15.1 C 16 14.8 16.2 14.5 16.4 14.1 C 16.5 13.7 16.6 13 16.6 12.1 C 16.58 12.1 16.6 1.3 16.6 1.3 L 18.7 1.3 C 18.7 1.3 18.67 11.98 18.7 12 C 18.7 13.3 18.5 14.3 18.2 15 C 17.9 15.8 17.4 16.3 16.7 16.7 C 16 17.1 15.2 17.3 14.2 17.3 C 12.9 17.3 11.8 16.9 11.1 16.1 C 10.3 15.3 10 14.1 10 12.5 Z M 21.1 11.3 C 21.1 9.2 21.7 7.6 22.9 6.6 C 23.8 5.8 25 5.3 26.5 5.3 C 28 5.3 29.3 5.8 30.3 6.9 C 31.3 7.9 31.8 9.3 31.8 11.1 C 31.8 12.6 31.6 13.8 31.1 14.6 C 30.7 15.4 30.1 16.1 29.2 16.6 C 28.4 17 27.4 17.3 26.5 17.3 C 24.9 17.3 23.6 16.7 22.6 15.7 C 21.6 14.7 21.1 13.2 21.1 11.3 Z M 23.1 11.3 C 23.1 12.8 23.4 13.9 24 14.6 C 24.7 15.3 25.5 15.7 26.5 15.7 C 27.4 15.7 28.2 15.3 28.8 14.6 C 29.5 13.8 29.8 12.7 29.8 11.2 C 29.8 9.8 29.5 8.8 28.8 8 C 28.2 7.3 27.4 6.9 26.5 6.9 C 25.5 6.9 24.7 7.3 24 8 C 23.4 8.7 23.1 9.8 23.1 11.3 Z M 34.1 3.5 L 34.1 1.3 L 36 1.3 L 36 3.5 L 34.1 3.5 Z M 34.1 17 L 34.1 5.6 L 36 5.6 L 36 17 L 34.1 17 Z M 38.9 17 L 38.9 5.6 L 40.7 5.6 C 40.7 5.6 40.69 7.21 40.7 7.2 C 41.5 6 42.7 5.3 44.3 5.3 C 45 5.3 45.6 5.5 46.2 5.7 C 46.8 6 47.2 6.3 47.5 6.7 C 47.8 7.1 48 7.6 48.1 8.1 C 48.2 8.5 48.2 9.1 48.2 10 C 48.22 9.99 48.2 17 48.2 17 L 46.3 17 C 46.3 17 46.28 10.06 46.3 10.1 C 46.3 9.3 46.2 8.7 46.1 8.3 C 45.9 7.9 45.6 7.6 45.3 7.4 C 44.9 7.1 44.4 7 43.9 7 C 43.1 7 42.4 7.3 41.8 7.8 C 41.2 8.3 40.9 9.3 40.9 10.8 C 40.88 10.77 40.9 17 40.9 17 L 38.9 17 Z M 67.9 1.3 L 70 1.3 C 70 1.3 69.96 10.35 70 10.4 C 70 11.9 69.8 13.2 69.4 14.1 C 69.1 15.1 68.4 15.8 67.5 16.4 C 66.5 17 65.3 17.3 63.8 17.3 C 62.3 17.3 61.1 17 60.2 16.5 C 59.2 16 58.6 15.3 58.2 14.3 C 57.8 13.3 57.6 12 57.6 10.4 C 57.57 10.35 57.6 1.3 57.6 1.3 L 59.7 1.3 C 59.7 1.3 59.66 10.34 59.7 10.3 C 59.7 11.7 59.8 12.7 60 13.4 C 60.3 14 60.7 14.5 61.3 14.9 C 62 15.2 62.7 15.4 63.6 15.4 C 65.2 15.4 66.2 15 66.9 14.3 C 67.5 13.7 67.9 12.3 67.9 10.3 C 67.88 10.34 67.9 1.3 67.9 1.3 Z M 72.4 13.6 C 72.4 13.6 74.3 13.3 74.3 13.3 C 74.4 14.1 74.7 14.6 75.2 15.1 C 75.7 15.5 76.4 15.7 77.3 15.7 C 78.2 15.7 78.8 15.5 79.3 15.1 C 79.7 14.8 79.9 14.3 79.9 13.9 C 79.9 13.4 79.7 13.1 79.3 12.8 C 79.1 12.6 78.4 12.4 77.4 12.2 C 75.9 11.8 74.9 11.5 74.4 11.2 C 73.9 11 73.4 10.6 73.2 10.2 C 72.9 9.7 72.7 9.2 72.7 8.6 C 72.7 8.1 72.8 7.6 73.1 7.2 C 73.3 6.8 73.6 6.4 74 6.1 C 74.3 5.9 74.7 5.7 75.3 5.6 C 75.8 5.4 76.3 5.3 76.9 5.3 C 77.8 5.3 78.6 5.5 79.3 5.7 C 80 6 80.5 6.3 80.8 6.8 C 81.1 7.2 81.3 7.8 81.5 8.5 C 81.5 8.5 79.6 8.8 79.6 8.8 C 79.5 8.2 79.2 7.7 78.8 7.4 C 78.4 7.1 77.8 6.9 77.1 6.9 C 76.2 6.9 75.5 7.1 75.2 7.4 C 74.8 7.7 74.6 8 74.6 8.4 C 74.6 8.6 74.7 8.9 74.8 9.1 C 75 9.3 75.2 9.5 75.6 9.6 C 75.8 9.7 76.3 9.8 77.3 10.1 C 78.7 10.4 79.6 10.7 80.1 11 C 80.7 11.2 81.1 11.6 81.4 12 C 81.7 12.4 81.9 13 81.9 13.6 C 81.9 14.3 81.7 14.9 81.3 15.5 C 80.9 16 80.4 16.5 79.7 16.8 C 79 17.1 78.2 17.3 77.3 17.3 C 75.8 17.3 74.7 16.9 73.9 16.3 C 73.1 15.7 72.6 14.8 72.4 13.6 Z " stroke="none" fill="#f28620"/>  </g></svg>