<?xml version="1.0" standalone="no"?><!DOCTYPE svg PUBLIC "-//W3C//DTD SVG 1.1//EN" "http://www.w3.org/Graphics/SVG/1.1/DTD/svg11.dtd"><svg xmlns="http://www.w3.org/2000/svg" version="1.1" width="395px" height="185.6px" viewBox="0 0 395 185.6">  <desc>Approved by both Ofqual and the ESFA, we provide independent and robust end point assessment across a growing list of...</desc>  <defs/>  <g id="Polygon61503">    <path d="M 75.9 138.1 C 75.7 137.7 75.6 137.2 75.5 136.7 C 74.8 137.3 74.1 137.7 73.5 138 C 72.8 138.2 72.1 138.4 71.3 138.4 C 70.1 138.4 69.1 138.1 68.5 137.4 C 67.8 136.8 67.4 136.1 67.4 135.1 C 67.4 134.5 67.6 134 67.8 133.6 C 68.1 133.1 68.4 132.7 68.8 132.5 C 69.2 132.2 69.7 132 70.2 131.8 C 70.6 131.7 71.2 131.6 71.9 131.5 C 73.5 131.3 74.7 131.1 75.4 130.9 C 75.4 130.6 75.4 130.4 75.4 130.4 C 75.4 129.6 75.2 129 74.9 128.7 C 74.4 128.3 73.6 128 72.6 128 C 71.7 128 71.1 128.2 70.6 128.5 C 70.2 128.8 69.9 129.4 69.7 130.2 C 69.7 130.2 67.8 130 67.8 130 C 68 129.1 68.2 128.5 68.6 128 C 69 127.5 69.6 127.1 70.3 126.8 C 71.1 126.6 71.9 126.4 72.9 126.4 C 73.9 126.4 74.7 126.6 75.3 126.8 C 75.9 127 76.4 127.3 76.6 127.7 C 76.9 128 77.1 128.4 77.2 129 C 77.3 129.3 77.3 129.9 77.3 130.7 C 77.3 130.7 77.3 133.3 77.3 133.3 C 77.3 135.1 77.4 136.3 77.5 136.7 C 77.5 137.2 77.7 137.7 78 138.1 C 77.96 138.11 75.9 138.1 75.9 138.1 C 75.9 138.1 75.94 138.11 75.9 138.1 Z M 75.4 132.4 C 74.7 132.7 73.6 132.9 72.2 133.1 C 71.4 133.2 70.9 133.4 70.5 133.5 C 70.2 133.6 70 133.9 69.8 134.1 C 69.6 134.4 69.5 134.7 69.5 135 C 69.5 135.6 69.7 136 70.1 136.3 C 70.5 136.7 71.1 136.9 71.8 136.9 C 72.6 136.9 73.2 136.7 73.8 136.4 C 74.4 136 74.8 135.6 75.1 135 C 75.3 134.6 75.4 133.9 75.4 133.1 C 75.4 133.1 75.4 132.4 75.4 132.4 Z M 86.1 139.1 C 86.1 139.1 88 139.3 88 139.3 C 88.1 139.9 88.3 140.3 88.6 140.6 C 89.1 141 89.8 141.1 90.6 141.1 C 91.5 141.1 92.2 141 92.7 140.6 C 93.2 140.2 93.5 139.7 93.7 139.1 C 93.8 138.7 93.8 137.9 93.8 136.6 C 93 137.6 91.9 138.1 90.6 138.1 C 89.1 138.1 87.9 137.5 87 136.4 C 86.1 135.3 85.7 133.9 85.7 132.3 C 85.7 131.3 85.9 130.2 86.3 129.3 C 86.7 128.4 87.3 127.7 88 127.2 C 88.8 126.7 89.6 126.4 90.7 126.4 C 92 126.4 93.1 127 94 128.1 C 93.98 128.08 94 126.7 94 126.7 L 95.8 126.7 C 95.8 126.7 95.77 136.56 95.8 136.6 C 95.8 138.3 95.6 139.6 95.2 140.3 C 94.9 141.1 94.3 141.7 93.5 142.1 C 92.7 142.5 91.8 142.7 90.6 142.7 C 89.2 142.7 88.1 142.4 87.3 141.8 C 86.5 141.2 86.1 140.3 86.1 139.1 Z M 87.7 132.2 C 87.7 133.7 88 134.8 88.6 135.5 C 89.2 136.2 89.9 136.5 90.8 136.5 C 91.7 136.5 92.5 136.2 93.1 135.5 C 93.7 134.8 94 133.7 94 132.3 C 94 130.9 93.7 129.8 93 129.1 C 92.4 128.4 91.7 128 90.8 128 C 89.9 128 89.2 128.4 88.6 129.1 C 88 129.8 87.7 130.8 87.7 132.2 Z M 98.7 138.1 L 98.7 126.7 L 100.4 126.7 C 100.4 126.7 100.41 128.43 100.4 128.4 C 100.9 127.6 101.3 127.1 101.6 126.8 C 102 126.6 102.4 126.4 102.9 126.4 C 103.5 126.4 104.2 126.7 104.9 127.1 C 104.9 127.1 104.2 128.9 104.2 128.9 C 103.7 128.6 103.3 128.4 102.8 128.4 C 102.4 128.4 102 128.6 101.6 128.8 C 101.3 129.1 101.1 129.4 100.9 129.9 C 100.7 130.6 100.6 131.3 100.6 132.1 C 100.6 132.14 100.6 138.1 100.6 138.1 L 98.7 138.1 Z M 105.3 132.4 C 105.3 130.3 105.9 128.7 107.1 127.7 C 108 126.9 109.2 126.4 110.6 126.4 C 112.2 126.4 113.5 127 114.5 128 C 115.5 129 116 130.4 116 132.2 C 116 133.7 115.8 134.9 115.3 135.7 C 114.9 136.5 114.2 137.2 113.4 137.7 C 112.6 138.1 111.6 138.4 110.6 138.4 C 109 138.4 107.8 137.9 106.8 136.8 C 105.8 135.8 105.3 134.3 105.3 132.4 Z M 107.3 132.4 C 107.3 133.9 107.6 135 108.2 135.7 C 108.9 136.4 109.7 136.8 110.6 136.8 C 111.6 136.8 112.4 136.4 113 135.7 C 113.7 135 114 133.8 114 132.3 C 114 130.9 113.7 129.9 113 129.1 C 112.4 128.4 111.6 128 110.6 128 C 109.7 128 108.9 128.4 108.2 129.1 C 107.6 129.9 107.3 130.9 107.3 132.4 Z M 120.4 138.1 L 116.9 126.7 L 118.9 126.7 L 120.7 133.3 C 120.7 133.3 121.35 135.73 121.4 135.7 C 121.4 135.6 121.6 134.8 121.9 133.4 C 121.94 133.38 123.8 126.7 123.8 126.7 L 125.7 126.7 L 127.5 133.3 L 128 135.5 L 128.7 133.3 L 130.6 126.7 L 132.5 126.7 L 128.9 138.1 L 126.9 138.1 L 125.1 131.3 L 124.7 129.3 L 122.4 138.1 L 120.4 138.1 Z M 134.1 124.6 L 134.1 122.4 L 136.1 122.4 L 136.1 124.6 L 134.1 124.6 Z M 134.1 138.1 L 134.1 126.7 L 136.1 126.7 L 136.1 138.1 L 134.1 138.1 Z M 139 138.1 L 139 126.7 L 140.8 126.7 C 140.8 126.7 140.77 128.32 140.8 128.3 C 141.6 127.1 142.8 126.4 144.4 126.4 C 145.1 126.4 145.7 126.6 146.3 126.8 C 146.9 127.1 147.3 127.4 147.6 127.8 C 147.9 128.2 148.1 128.7 148.2 129.2 C 148.3 129.6 148.3 130.2 148.3 131.1 C 148.3 131.09 148.3 138.1 148.3 138.1 L 146.4 138.1 C 146.4 138.1 146.36 131.17 146.4 131.2 C 146.4 130.4 146.3 129.8 146.1 129.4 C 146 129 145.7 128.7 145.3 128.5 C 145 128.2 144.5 128.1 144 128.1 C 143.2 128.1 142.5 128.4 141.9 128.9 C 141.3 129.4 141 130.4 141 131.9 C 140.96 131.88 141 138.1 141 138.1 L 139 138.1 Z M 150.9 139.1 C 150.9 139.1 152.8 139.3 152.8 139.3 C 152.9 139.9 153.1 140.3 153.4 140.6 C 153.9 141 154.6 141.1 155.4 141.1 C 156.3 141.1 157 141 157.5 140.6 C 158 140.2 158.3 139.7 158.5 139.1 C 158.6 138.7 158.6 137.9 158.6 136.6 C 157.8 137.6 156.7 138.1 155.4 138.1 C 153.9 138.1 152.7 137.5 151.8 136.4 C 150.9 135.3 150.5 133.9 150.5 132.3 C 150.5 131.3 150.7 130.2 151.1 129.3 C 151.5 128.4 152.1 127.7 152.8 127.2 C 153.6 126.7 154.5 126.4 155.5 126.4 C 156.8 126.4 157.9 127 158.8 128.1 C 158.79 128.08 158.8 126.7 158.8 126.7 L 160.6 126.7 C 160.6 126.7 160.57 136.56 160.6 136.6 C 160.6 138.3 160.4 139.6 160 140.3 C 159.7 141.1 159.1 141.7 158.3 142.1 C 157.5 142.5 156.6 142.7 155.4 142.7 C 154.1 142.7 153 142.4 152.1 141.8 C 151.3 141.2 150.9 140.3 150.9 139.1 Z M 152.5 132.2 C 152.5 133.7 152.8 134.8 153.4 135.5 C 154 136.2 154.7 136.5 155.6 136.5 C 156.5 136.5 157.3 136.2 157.9 135.5 C 158.5 134.8 158.8 133.7 158.8 132.3 C 158.8 130.9 158.5 129.8 157.8 129.1 C 157.2 128.4 156.5 128 155.6 128 C 154.7 128 154 128.4 153.4 129.1 C 152.8 129.8 152.5 130.8 152.5 132.2 Z M 169.6 138.1 L 169.6 122.4 L 171.5 122.4 L 171.5 138.1 L 169.6 138.1 Z M 174.5 124.6 L 174.5 122.4 L 176.4 122.4 L 176.4 124.6 L 174.5 124.6 Z M 174.5 138.1 L 174.5 126.7 L 176.4 126.7 L 176.4 138.1 L 174.5 138.1 Z M 178.6 134.7 C 178.6 134.7 180.5 134.4 180.5 134.4 C 180.6 135.2 180.9 135.8 181.4 136.2 C 181.9 136.6 182.6 136.8 183.5 136.8 C 184.4 136.8 185 136.6 185.5 136.2 C 185.9 135.9 186.1 135.4 186.1 135 C 186.1 134.5 185.9 134.2 185.5 133.9 C 185.3 133.8 184.6 133.5 183.6 133.3 C 182.1 132.9 181.2 132.6 180.6 132.3 C 180.1 132.1 179.6 131.7 179.4 131.3 C 179.1 130.8 178.9 130.3 178.9 129.7 C 178.9 129.2 179 128.8 179.3 128.3 C 179.5 127.9 179.8 127.5 180.2 127.2 C 180.5 127 180.9 126.8 181.5 126.7 C 182 126.5 182.5 126.4 183.1 126.4 C 184 126.4 184.8 126.6 185.5 126.8 C 186.2 127.1 186.7 127.4 187 127.9 C 187.3 128.3 187.5 128.9 187.7 129.6 C 187.7 129.6 185.8 129.9 185.8 129.9 C 185.7 129.3 185.4 128.9 185 128.5 C 184.6 128.2 184 128 183.3 128 C 182.4 128 181.8 128.2 181.4 128.5 C 181 128.8 180.8 129.1 180.8 129.5 C 180.8 129.8 180.9 130 181 130.2 C 181.2 130.4 181.4 130.6 181.8 130.7 C 182 130.8 182.5 130.9 183.5 131.2 C 184.9 131.6 185.8 131.9 186.3 132.1 C 186.9 132.3 187.3 132.7 187.6 133.1 C 187.9 133.5 188.1 134.1 188.1 134.8 C 188.1 135.4 187.9 136 187.5 136.6 C 187.1 137.1 186.6 137.6 185.9 137.9 C 185.2 138.2 184.4 138.4 183.5 138.4 C 182 138.4 180.9 138.1 180.1 137.4 C 179.3 136.8 178.8 135.9 178.6 134.7 Z M 193.8 136.5 C 194 136.5 194.3 136.4 194.6 136.4 C 194.6 136.4 194.9 138.1 194.9 138.1 C 194.3 138.2 193.9 138.3 193.4 138.3 C 192.7 138.3 192.2 138.1 191.8 137.9 C 191.4 137.7 191.1 137.4 191 137.1 C 190.8 136.7 190.7 135.9 190.7 134.8 C 190.74 134.77 190.7 128.2 190.7 128.2 L 189.3 128.2 L 189.3 126.7 L 190.7 126.7 L 190.7 123.9 L 192.7 122.7 L 192.7 126.7 L 194.6 126.7 L 194.6 128.2 L 192.7 128.2 C 192.7 128.2 192.66 134.87 192.7 134.9 C 192.7 135.4 192.7 135.8 192.8 135.9 C 192.8 136.1 192.9 136.2 193.1 136.3 C 193.2 136.4 193.5 136.5 193.8 136.5 C 193.8 136.5 193.8 136.5 193.8 136.5 Z M 201.9 132.4 C 201.9 130.3 202.5 128.7 203.6 127.7 C 204.6 126.9 205.8 126.4 207.2 126.4 C 208.8 126.4 210.1 127 211.1 128 C 212.1 129 212.6 130.4 212.6 132.2 C 212.6 133.7 212.4 134.9 211.9 135.7 C 211.5 136.5 210.8 137.2 210 137.7 C 209.2 138.1 208.2 138.4 207.2 138.4 C 205.6 138.4 204.3 137.9 203.4 136.8 C 202.4 135.8 201.9 134.3 201.9 132.4 Z M 203.9 132.4 C 203.9 133.9 204.2 135 204.8 135.7 C 205.5 136.4 206.3 136.8 207.2 136.8 C 208.2 136.8 209 136.4 209.6 135.7 C 210.3 135 210.6 133.8 210.6 132.3 C 210.6 130.9 210.3 129.9 209.6 129.1 C 209 128.4 208.2 128 207.2 128 C 206.3 128 205.5 128.4 204.8 129.1 C 204.2 129.9 203.9 130.9 203.9 132.4 Z M 215.3 138.1 L 215.3 128.2 L 213.6 128.2 L 213.6 126.7 L 215.3 126.7 C 215.3 126.7 215.31 125.49 215.3 125.5 C 215.3 124.7 215.4 124.2 215.5 123.8 C 215.7 123.3 216 122.9 216.5 122.6 C 217 122.2 217.6 122.1 218.5 122.1 C 219 122.1 219.6 122.2 220.3 122.3 C 220.3 122.3 220 124 220 124 C 219.6 123.9 219.2 123.9 218.8 123.9 C 218.3 123.9 217.8 124 217.6 124.2 C 217.3 124.5 217.2 125 217.2 125.6 C 217.23 125.65 217.2 126.7 217.2 126.7 L 219.5 126.7 L 219.5 128.2 L 217.2 128.2 L 217.2 138.1 L 215.3 138.1 Z M 226.3 134.7 C 226.3 134.7 228.2 134.4 228.2 134.4 C 228.3 135.2 228.6 135.8 229.1 136.2 C 229.6 136.6 230.3 136.8 231.2 136.8 C 232 136.8 232.7 136.6 233.1 136.2 C 233.6 135.9 233.8 135.4 233.8 135 C 233.8 134.5 233.6 134.2 233.2 133.9 C 232.9 133.8 232.3 133.5 231.2 133.3 C 229.8 132.9 228.8 132.6 228.3 132.3 C 227.7 132.1 227.3 131.7 227 131.3 C 226.8 130.8 226.6 130.3 226.6 129.7 C 226.6 129.2 226.7 128.8 227 128.3 C 227.2 127.9 227.5 127.5 227.9 127.2 C 228.2 127 228.6 126.8 229.1 126.7 C 229.7 126.5 230.2 126.4 230.8 126.4 C 231.7 126.4 232.5 126.6 233.2 126.8 C 233.9 127.1 234.4 127.4 234.7 127.9 C 235 128.3 235.2 128.9 235.3 129.6 C 235.3 129.6 233.4 129.9 233.4 129.9 C 233.4 129.3 233.1 128.9 232.7 128.5 C 232.3 128.2 231.7 128 231 128 C 230.1 128 229.4 128.2 229.1 128.5 C 228.7 128.8 228.5 129.1 228.5 129.5 C 228.5 129.8 228.6 130 228.7 130.2 C 228.9 130.4 229.1 130.6 229.5 130.7 C 229.7 130.8 230.2 130.9 231.2 131.2 C 232.5 131.6 233.5 131.9 234 132.1 C 234.6 132.3 235 132.7 235.3 133.1 C 235.6 133.5 235.8 134.1 235.8 134.8 C 235.8 135.4 235.6 136 235.2 136.6 C 234.8 137.1 234.3 137.6 233.6 137.9 C 232.9 138.2 232.1 138.4 231.2 138.4 C 229.7 138.4 228.6 138.1 227.8 137.4 C 227 136.8 226.5 135.9 226.3 134.7 Z M 241.4 136.5 C 241.7 136.5 241.9 136.4 242.3 136.4 C 242.3 136.4 242.6 138.1 242.6 138.1 C 242 138.2 241.5 138.3 241.1 138.3 C 240.4 138.3 239.9 138.1 239.5 137.9 C 239.1 137.7 238.8 137.4 238.7 137.1 C 238.5 136.7 238.4 135.9 238.4 134.8 C 238.42 134.77 238.4 128.2 238.4 128.2 L 237 128.2 L 237 126.7 L 238.4 126.7 L 238.4 123.9 L 240.3 122.7 L 240.3 126.7 L 242.3 126.7 L 242.3 128.2 L 240.3 128.2 C 240.3 128.2 240.35 134.87 240.3 134.9 C 240.3 135.4 240.4 135.8 240.4 135.9 C 240.5 136.1 240.6 136.2 240.8 136.3 C 240.9 136.4 241.2 136.5 241.4 136.5 C 241.4 136.5 241.4 136.5 241.4 136.5 Z M 252 138.1 C 251.8 137.7 251.7 137.2 251.6 136.7 C 250.9 137.3 250.2 137.7 249.6 138 C 248.9 138.2 248.2 138.4 247.4 138.4 C 246.2 138.4 245.2 138.1 244.5 137.4 C 243.9 136.8 243.5 136.1 243.5 135.1 C 243.5 134.5 243.7 134 243.9 133.6 C 244.2 133.1 244.5 132.7 244.9 132.5 C 245.3 132.2 245.8 132 246.3 131.8 C 246.7 131.7 247.2 131.6 248 131.5 C 249.6 131.3 250.7 131.1 251.5 130.9 C 251.5 130.6 251.5 130.4 251.5 130.4 C 251.5 129.6 251.3 129 250.9 128.7 C 250.4 128.3 249.7 128 248.7 128 C 247.8 128 247.1 128.2 246.7 128.5 C 246.3 128.8 246 129.4 245.7 130.2 C 245.7 130.2 243.9 130 243.9 130 C 244 129.1 244.3 128.5 244.7 128 C 245.1 127.5 245.7 127.1 246.4 126.8 C 247.2 126.6 248 126.4 249 126.4 C 250 126.4 250.8 126.6 251.4 126.8 C 252 127 252.4 127.3 252.7 127.7 C 253 128 253.2 128.4 253.3 129 C 253.4 129.3 253.4 129.9 253.4 130.7 C 253.4 130.7 253.4 133.3 253.4 133.3 C 253.4 135.1 253.5 136.3 253.5 136.7 C 253.6 137.2 253.8 137.7 254 138.1 C 254.03 138.11 252 138.1 252 138.1 C 252 138.1 252.01 138.11 252 138.1 Z M 251.5 132.4 C 250.8 132.7 249.7 132.9 248.3 133.1 C 247.5 133.2 246.9 133.4 246.6 133.5 C 246.3 133.6 246 133.9 245.9 134.1 C 245.7 134.4 245.6 134.7 245.6 135 C 245.6 135.6 245.8 136 246.2 136.3 C 246.6 136.7 247.1 136.9 247.9 136.9 C 248.6 136.9 249.3 136.7 249.9 136.4 C 250.5 136 250.9 135.6 251.2 135 C 251.4 134.6 251.5 133.9 251.5 133.1 C 251.5 133.1 251.5 132.4 251.5 132.4 Z M 256.4 138.1 L 256.4 126.7 L 258.2 126.7 C 258.2 126.7 258.16 128.32 258.2 128.3 C 259 127.1 260.2 126.4 261.8 126.4 C 262.5 126.4 263.1 126.6 263.7 126.8 C 264.3 127.1 264.7 127.4 265 127.8 C 265.3 128.2 265.5 128.7 265.6 129.2 C 265.7 129.6 265.7 130.2 265.7 131.1 C 265.69 131.09 265.7 138.1 265.7 138.1 L 263.8 138.1 C 263.8 138.1 263.75 131.17 263.8 131.2 C 263.8 130.4 263.7 129.8 263.5 129.4 C 263.4 129 263.1 128.7 262.7 128.5 C 262.3 128.2 261.9 128.1 261.4 128.1 C 260.6 128.1 259.8 128.4 259.2 128.9 C 258.6 129.4 258.3 130.4 258.3 131.9 C 258.35 131.88 258.3 138.1 258.3 138.1 L 256.4 138.1 Z M 276.1 138.1 C 276.1 138.1 276.05 136.67 276.1 136.7 C 275.3 137.8 274.3 138.4 272.9 138.4 C 272 138.4 271.1 138.1 270.4 137.6 C 269.6 137.1 269 136.4 268.6 135.5 C 268.2 134.6 268 133.6 268 132.4 C 268 131.3 268.1 130.2 268.5 129.3 C 268.9 128.4 269.5 127.7 270.2 127.2 C 271 126.7 271.8 126.4 272.8 126.4 C 273.5 126.4 274.1 126.6 274.6 126.9 C 275.1 127.2 275.6 127.5 275.9 128 C 275.92 128.01 275.9 122.4 275.9 122.4 L 277.8 122.4 L 277.8 138.1 L 276.1 138.1 Z M 269.9 132.4 C 269.9 133.9 270.2 135 270.9 135.7 C 271.5 136.4 272.2 136.8 273 136.8 C 273.9 136.8 274.6 136.4 275.2 135.7 C 275.8 135 276.1 134 276.1 132.6 C 276.1 131 275.8 129.9 275.2 129.1 C 274.6 128.4 273.8 128 273 128 C 272.1 128 271.4 128.4 270.8 129.1 C 270.2 129.8 269.9 130.9 269.9 132.4 Z M 288.7 138.1 C 288.5 137.7 288.4 137.2 288.3 136.7 C 287.6 137.3 286.9 137.7 286.3 138 C 285.6 138.2 284.9 138.4 284.1 138.4 C 282.9 138.4 281.9 138.1 281.2 137.4 C 280.6 136.8 280.2 136.1 280.2 135.1 C 280.2 134.5 280.4 134 280.6 133.6 C 280.9 133.1 281.2 132.7 281.6 132.5 C 282 132.2 282.5 132 283 131.8 C 283.4 131.7 284 131.6 284.7 131.5 C 286.3 131.3 287.4 131.1 288.2 130.9 C 288.2 130.6 288.2 130.4 288.2 130.4 C 288.2 129.6 288 129 287.6 128.7 C 287.1 128.3 286.4 128 285.4 128 C 284.5 128 283.8 128.2 283.4 128.5 C 283 128.8 282.7 129.4 282.5 130.2 C 282.5 130.2 280.6 130 280.6 130 C 280.7 129.1 281 128.5 281.4 128 C 281.8 127.5 282.4 127.1 283.1 126.8 C 283.9 126.6 284.7 126.4 285.7 126.4 C 286.7 126.4 287.5 126.6 288.1 126.8 C 288.7 127 289.1 127.3 289.4 127.7 C 289.7 128 289.9 128.4 290 129 C 290.1 129.3 290.1 129.9 290.1 130.7 C 290.1 130.7 290.1 133.3 290.1 133.3 C 290.1 135.1 290.2 136.3 290.2 136.7 C 290.3 137.2 290.5 137.7 290.7 138.1 C 290.74 138.11 288.7 138.1 288.7 138.1 C 288.7 138.1 288.72 138.11 288.7 138.1 Z M 288.2 132.4 C 287.5 132.7 286.4 132.9 285 133.1 C 284.2 133.2 283.7 133.4 283.3 133.5 C 283 133.6 282.7 133.9 282.6 134.1 C 282.4 134.4 282.3 134.7 282.3 135 C 282.3 135.6 282.5 136 282.9 136.3 C 283.3 136.7 283.8 136.9 284.6 136.9 C 285.3 136.9 286 136.7 286.6 136.4 C 287.2 136 287.6 135.6 287.9 135 C 288.1 134.6 288.2 133.9 288.2 133.1 C 288.2 133.1 288.2 132.4 288.2 132.4 Z M 293.1 138.1 L 293.1 126.7 L 294.8 126.7 C 294.8 126.7 294.84 128.43 294.8 128.4 C 295.3 127.6 295.7 127.1 296.1 126.8 C 296.4 126.6 296.9 126.4 297.3 126.4 C 298 126.4 298.6 126.7 299.3 127.1 C 299.3 127.1 298.6 128.9 298.6 128.9 C 298.2 128.6 297.7 128.4 297.2 128.4 C 296.8 128.4 296.4 128.6 296.1 128.8 C 295.7 129.1 295.5 129.4 295.4 129.9 C 295.1 130.6 295 131.3 295 132.1 C 295.03 132.14 295 138.1 295 138.1 L 293.1 138.1 Z M 307.8 138.1 C 307.8 138.1 307.85 136.67 307.8 136.7 C 307.1 137.8 306.1 138.4 304.7 138.4 C 303.7 138.4 302.9 138.1 302.2 137.6 C 301.4 137.1 300.8 136.4 300.4 135.5 C 300 134.6 299.7 133.6 299.7 132.4 C 299.7 131.3 299.9 130.2 300.3 129.3 C 300.7 128.4 301.3 127.7 302 127.2 C 302.8 126.7 303.6 126.4 304.6 126.4 C 305.3 126.4 305.9 126.6 306.4 126.9 C 306.9 127.2 307.4 127.5 307.7 128 C 307.72 128.01 307.7 122.4 307.7 122.4 L 309.6 122.4 L 309.6 138.1 L 307.8 138.1 Z M 301.7 132.4 C 301.7 133.9 302 135 302.7 135.7 C 303.3 136.4 304 136.8 304.8 136.8 C 305.7 136.8 306.4 136.4 307 135.7 C 307.6 135 307.9 134 307.9 132.6 C 307.9 131 307.6 129.9 307 129.1 C 306.4 128.4 305.6 128 304.8 128 C 303.9 128 303.2 128.4 302.6 129.1 C 302 129.8 301.7 130.9 301.7 132.4 Z M 311.9 134.7 C 311.9 134.7 313.8 134.4 313.8 134.4 C 313.9 135.2 314.2 135.8 314.7 136.2 C 315.2 136.6 315.9 136.8 316.8 136.8 C 317.7 136.8 318.3 136.6 318.8 136.2 C 319.2 135.9 319.4 135.4 319.4 135 C 319.4 134.5 319.2 134.2 318.8 133.9 C 318.6 133.8 317.9 133.5 316.9 133.3 C 315.4 132.9 314.5 132.6 313.9 132.3 C 313.4 132.1 312.9 131.7 312.7 131.3 C 312.4 130.8 312.2 130.3 312.2 129.7 C 312.2 129.2 312.3 128.8 312.6 128.3 C 312.8 127.9 313.1 127.5 313.5 127.2 C 313.8 127 314.2 126.8 314.8 126.7 C 315.3 126.5 315.8 126.4 316.4 126.4 C 317.3 126.4 318.1 126.6 318.8 126.8 C 319.5 127.1 320 127.4 320.3 127.9 C 320.6 128.3 320.8 128.9 321 129.6 C 321 129.6 319.1 129.9 319.1 129.9 C 319 129.3 318.7 128.9 318.3 128.5 C 317.9 128.2 317.3 128 316.6 128 C 315.7 128 315 128.2 314.7 128.5 C 314.3 128.8 314.1 129.1 314.1 129.5 C 314.1 129.8 314.2 130 314.3 130.2 C 314.5 130.4 314.7 130.6 315.1 130.7 C 315.3 130.8 315.8 130.9 316.8 131.2 C 318.2 131.6 319.1 131.9 319.6 132.1 C 320.2 132.3 320.6 132.7 320.9 133.1 C 321.2 133.5 321.4 134.1 321.4 134.8 C 321.4 135.4 321.2 136 320.8 136.6 C 320.4 137.1 319.9 137.6 319.2 137.9 C 318.5 138.2 317.7 138.4 316.8 138.4 C 315.3 138.4 314.2 138.1 313.4 137.4 C 312.6 136.8 312.1 135.9 311.9 134.7 Z M 324.2 138.1 L 324.2 135.9 L 326.4 135.9 L 326.4 138.1 L 324.2 138.1 Z " stroke="none" fill="#fff"/>  </g>  <g id="Polygon61502">    <path d="M 22.2 111.7 L 22.2 100.3 L 24 100.3 C 24 100.3 23.97 102.03 24 102 C 24.4 101.2 24.8 100.7 25.2 100.4 C 25.6 100.2 26 100 26.4 100 C 27.1 100 27.8 100.3 28.4 100.7 C 28.4 100.7 27.8 102.5 27.8 102.5 C 27.3 102.2 26.8 102 26.3 102 C 25.9 102 25.5 102.2 25.2 102.4 C 24.9 102.7 24.6 103 24.5 103.5 C 24.3 104.2 24.2 104.9 24.2 105.7 C 24.16 105.74 24.2 111.7 24.2 111.7 L 22.2 111.7 Z M 28.9 106 C 28.9 103.9 29.4 102.3 30.6 101.3 C 31.6 100.5 32.8 100 34.2 100 C 35.8 100 37.1 100.6 38.1 101.6 C 39 102.6 39.5 104 39.5 105.8 C 39.5 107.3 39.3 108.5 38.9 109.3 C 38.4 110.1 37.8 110.8 37 111.3 C 36.1 111.7 35.2 112 34.2 112 C 32.6 112 31.3 111.5 30.3 110.4 C 29.4 109.4 28.9 107.9 28.9 106 Z M 30.8 106 C 30.8 107.5 31.2 108.6 31.8 109.3 C 32.4 110 33.2 110.4 34.2 110.4 C 35.2 110.4 36 110 36.6 109.3 C 37.2 108.6 37.6 107.4 37.6 105.9 C 37.6 104.5 37.2 103.5 36.6 102.7 C 36 102 35.2 101.6 34.2 101.6 C 33.2 101.6 32.4 102 31.8 102.7 C 31.2 103.5 30.8 104.5 30.8 106 Z M 43.6 111.7 L 41.8 111.7 L 41.8 96 L 43.7 96 C 43.7 96 43.74 101.58 43.7 101.6 C 44.6 100.6 45.6 100 46.9 100 C 47.6 100 48.2 100.2 48.9 100.5 C 49.5 100.7 50 101.1 50.4 101.7 C 50.8 102.2 51.1 102.8 51.4 103.5 C 51.6 104.2 51.7 105 51.7 105.8 C 51.7 107.8 51.2 109.3 50.2 110.4 C 49.3 111.4 48.1 112 46.8 112 C 45.4 112 44.4 111.4 43.6 110.3 C 43.6 110.28 43.6 111.7 43.6 111.7 Z M 43.6 105.9 C 43.6 107.3 43.8 108.3 44.1 108.9 C 44.7 109.9 45.6 110.4 46.6 110.4 C 47.4 110.4 48.2 110 48.8 109.3 C 49.4 108.5 49.7 107.4 49.7 106 C 49.7 104.5 49.4 103.4 48.8 102.7 C 48.2 102 47.5 101.6 46.7 101.6 C 45.8 101.6 45.1 102 44.5 102.7 C 43.9 103.5 43.6 104.5 43.6 105.9 Z M 61.5 111.7 C 61.5 111.7 61.53 110.03 61.5 110 C 60.6 111.3 59.4 112 57.9 112 C 57.2 112 56.6 111.8 56 111.6 C 55.4 111.3 55 111 54.7 110.6 C 54.4 110.2 54.2 109.7 54.1 109.2 C 54 108.8 54 108.2 54 107.4 C 54.01 107.37 54 100.3 54 100.3 L 55.9 100.3 C 55.9 100.3 55.94 106.63 55.9 106.6 C 55.9 107.6 56 108.3 56.1 108.7 C 56.2 109.2 56.4 109.6 56.8 109.9 C 57.2 110.2 57.7 110.3 58.3 110.3 C 58.9 110.3 59.4 110.2 59.9 109.9 C 60.4 109.6 60.8 109.2 61 108.6 C 61.2 108.1 61.3 107.4 61.3 106.4 C 61.32 106.41 61.3 100.3 61.3 100.3 L 63.3 100.3 L 63.3 111.7 L 61.5 111.7 Z M 65.5 108.3 C 65.5 108.3 67.4 108 67.4 108 C 67.5 108.8 67.8 109.4 68.3 109.8 C 68.8 110.2 69.5 110.4 70.4 110.4 C 71.3 110.4 71.9 110.2 72.4 109.8 C 72.8 109.5 73 109 73 108.6 C 73 108.1 72.8 107.8 72.4 107.5 C 72.2 107.4 71.5 107.1 70.5 106.9 C 69 106.5 68.1 106.2 67.5 105.9 C 67 105.7 66.5 105.3 66.3 104.9 C 66 104.4 65.8 103.9 65.8 103.3 C 65.8 102.8 65.9 102.4 66.2 101.9 C 66.4 101.5 66.7 101.1 67.1 100.8 C 67.4 100.6 67.8 100.4 68.4 100.3 C 68.9 100.1 69.4 100 70 100 C 70.9 100 71.7 100.2 72.4 100.4 C 73.1 100.7 73.6 101 73.9 101.5 C 74.2 101.9 74.4 102.5 74.6 103.2 C 74.6 103.2 72.7 103.5 72.7 103.5 C 72.6 102.9 72.3 102.5 71.9 102.1 C 71.5 101.8 70.9 101.6 70.2 101.6 C 69.3 101.6 68.7 101.8 68.3 102.1 C 67.9 102.4 67.7 102.7 67.7 103.1 C 67.7 103.4 67.8 103.6 67.9 103.8 C 68.1 104 68.3 104.2 68.7 104.3 C 68.9 104.4 69.4 104.5 70.4 104.8 C 71.8 105.2 72.7 105.5 73.3 105.7 C 73.8 105.9 74.2 106.3 74.5 106.7 C 74.8 107.1 75 107.7 75 108.4 C 75 109 74.8 109.6 74.4 110.2 C 74 110.7 73.5 111.2 72.8 111.5 C 72.1 111.8 71.3 112 70.4 112 C 68.9 112 67.8 111.7 67 111 C 66.2 110.4 65.7 109.5 65.5 108.3 Z M 80.7 110.1 C 80.9 110.1 81.2 110 81.5 110 C 81.5 110 81.8 111.7 81.8 111.7 C 81.2 111.8 80.8 111.9 80.3 111.9 C 79.6 111.9 79.1 111.7 78.7 111.5 C 78.3 111.3 78 111 77.9 110.7 C 77.7 110.3 77.6 109.5 77.6 108.4 C 77.64 108.37 77.6 101.8 77.6 101.8 L 76.2 101.8 L 76.2 100.3 L 77.6 100.3 L 77.6 97.5 L 79.6 96.3 L 79.6 100.3 L 81.5 100.3 L 81.5 101.8 L 79.6 101.8 C 79.6 101.8 79.56 108.47 79.6 108.5 C 79.6 109 79.6 109.4 79.7 109.5 C 79.7 109.7 79.8 109.8 80 109.9 C 80.2 110 80.4 110.1 80.7 110.1 C 80.7 110.1 80.7 110.1 80.7 110.1 Z M 97.3 108 C 97.3 108 99.3 108.3 99.3 108.3 C 99 109.4 98.4 110.4 97.6 111 C 96.7 111.6 95.6 112 94.3 112 C 92.6 112 91.3 111.5 90.3 110.4 C 89.4 109.4 88.9 108 88.9 106.1 C 88.9 104.2 89.4 102.7 90.3 101.6 C 91.3 100.6 92.6 100 94.2 100 C 95.7 100 97 100.6 97.9 101.6 C 98.9 102.6 99.4 104.1 99.4 106 C 99.4 106.1 99.4 106.3 99.4 106.5 C 99.4 106.5 90.9 106.5 90.9 106.5 C 90.9 107.8 91.3 108.7 91.9 109.4 C 92.6 110 93.4 110.4 94.3 110.4 C 95 110.4 95.6 110.2 96.1 109.8 C 96.6 109.4 97 108.9 97.3 108 Z M 91 104.9 C 91 104.9 97.3 104.9 97.3 104.9 C 97.3 103.9 97 103.2 96.6 102.7 C 96 102 95.2 101.6 94.2 101.6 C 93.3 101.6 92.6 101.9 92 102.5 C 91.4 103.1 91 103.9 91 104.9 Z M 101.7 111.7 L 101.7 100.3 L 103.5 100.3 C 103.5 100.3 103.48 101.92 103.5 101.9 C 104.3 100.7 105.5 100 107.1 100 C 107.8 100 108.4 100.2 109 100.4 C 109.6 100.7 110 101 110.3 101.4 C 110.6 101.8 110.8 102.3 110.9 102.8 C 111 103.2 111 103.8 111 104.7 C 111.01 104.69 111 111.7 111 111.7 L 109.1 111.7 C 109.1 111.7 109.08 104.77 109.1 104.8 C 109.1 104 109 103.4 108.9 103 C 108.7 102.6 108.4 102.3 108.1 102.1 C 107.7 101.8 107.2 101.7 106.7 101.7 C 105.9 101.7 105.2 102 104.6 102.5 C 104 103 103.7 104 103.7 105.5 C 103.68 105.48 103.7 111.7 103.7 111.7 L 101.7 111.7 Z M 121.4 111.7 C 121.4 111.7 121.38 110.27 121.4 110.3 C 120.7 111.4 119.6 112 118.2 112 C 117.3 112 116.4 111.7 115.7 111.2 C 114.9 110.7 114.3 110 113.9 109.1 C 113.5 108.2 113.3 107.2 113.3 106 C 113.3 104.9 113.5 103.8 113.9 102.9 C 114.2 102 114.8 101.3 115.6 100.8 C 116.3 100.3 117.2 100 118.1 100 C 118.8 100 119.4 100.2 119.9 100.5 C 120.5 100.8 120.9 101.1 121.3 101.6 C 121.25 101.61 121.3 96 121.3 96 L 123.2 96 L 123.2 111.7 L 121.4 111.7 Z M 115.3 106 C 115.3 107.5 115.6 108.6 116.2 109.3 C 116.8 110 117.5 110.4 118.4 110.4 C 119.2 110.4 119.9 110 120.5 109.3 C 121.1 108.6 121.4 107.6 121.4 106.2 C 121.4 104.6 121.1 103.5 120.5 102.7 C 119.9 102 119.2 101.6 118.3 101.6 C 117.4 101.6 116.7 102 116.1 102.7 C 115.6 103.4 115.3 104.5 115.3 106 Z M 125.5 107 L 125.5 105 L 131.4 105 L 131.4 107 L 125.5 107 Z M 133.5 116.1 L 133.5 100.3 L 135.3 100.3 C 135.3 100.3 135.3 101.78 135.3 101.8 C 135.7 101.2 136.2 100.8 136.7 100.5 C 137.2 100.2 137.9 100 138.6 100 C 139.6 100 140.4 100.3 141.2 100.8 C 141.9 101.3 142.5 102 142.9 102.9 C 143.3 103.8 143.4 104.8 143.4 105.9 C 143.4 107.1 143.2 108.1 142.8 109.1 C 142.4 110 141.8 110.7 141 111.2 C 140.2 111.7 139.4 112 138.5 112 C 137.8 112 137.2 111.8 136.7 111.6 C 136.2 111.3 135.8 110.9 135.5 110.5 C 135.47 110.53 135.5 116.1 135.5 116.1 L 133.5 116.1 Z M 135.3 106.1 C 135.3 107.5 135.6 108.6 136.2 109.3 C 136.8 110 137.5 110.4 138.3 110.4 C 139.2 110.4 139.9 110 140.6 109.3 C 141.2 108.6 141.5 107.4 141.5 105.9 C 141.5 104.5 141.2 103.4 140.6 102.6 C 140 101.9 139.3 101.6 138.4 101.6 C 137.6 101.6 136.9 101.9 136.2 102.7 C 135.6 103.5 135.3 104.6 135.3 106.1 Z M 145.1 106 C 145.1 103.9 145.6 102.3 146.8 101.3 C 147.8 100.5 149 100 150.4 100 C 152 100 153.3 100.6 154.3 101.6 C 155.2 102.6 155.7 104 155.7 105.8 C 155.7 107.3 155.5 108.5 155.1 109.3 C 154.6 110.1 154 110.8 153.2 111.3 C 152.3 111.7 151.4 112 150.4 112 C 148.8 112 147.5 111.5 146.5 110.4 C 145.5 109.4 145.1 107.9 145.1 106 Z M 147 106 C 147 107.5 147.4 108.6 148 109.3 C 148.6 110 149.4 110.4 150.4 110.4 C 151.4 110.4 152.2 110 152.8 109.3 C 153.4 108.6 153.8 107.4 153.8 105.9 C 153.8 104.5 153.4 103.5 152.8 102.7 C 152.2 102 151.4 101.6 150.4 101.6 C 149.4 101.6 148.6 102 148 102.7 C 147.4 103.5 147 104.5 147 106 Z M 158 98.2 L 158 96 L 160 96 L 160 98.2 L 158 98.2 Z M 158 111.7 L 158 100.3 L 160 100.3 L 160 111.7 L 158 111.7 Z M 162.9 111.7 L 162.9 100.3 L 164.6 100.3 C 164.6 100.3 164.64 101.92 164.6 101.9 C 165.5 100.7 166.7 100 168.3 100 C 169 100 169.6 100.2 170.2 100.4 C 170.7 100.7 171.2 101 171.5 101.4 C 171.7 101.8 171.9 102.3 172.1 102.8 C 172.1 103.2 172.2 103.8 172.2 104.7 C 172.17 104.69 172.2 111.7 172.2 111.7 L 170.2 111.7 C 170.2 111.7 170.24 104.77 170.2 104.8 C 170.2 104 170.2 103.4 170 103 C 169.9 102.6 169.6 102.3 169.2 102.1 C 168.8 101.8 168.4 101.7 167.9 101.7 C 167 101.7 166.3 102 165.7 102.5 C 165.1 103 164.8 104 164.8 105.5 C 164.83 105.48 164.8 111.7 164.8 111.7 L 162.9 111.7 Z M 178.5 110.1 C 178.7 110.1 179 110 179.4 110 C 179.4 110 179.6 111.7 179.6 111.7 C 179.1 111.8 178.6 111.9 178.2 111.9 C 177.5 111.9 176.9 111.7 176.5 111.5 C 176.2 111.3 175.9 111 175.7 110.7 C 175.6 110.3 175.5 109.5 175.5 108.4 C 175.49 108.37 175.5 101.8 175.5 101.8 L 174.1 101.8 L 174.1 100.3 L 175.5 100.3 L 175.5 97.5 L 177.4 96.3 L 177.4 100.3 L 179.4 100.3 L 179.4 101.8 L 177.4 101.8 C 177.4 101.8 177.41 108.47 177.4 108.5 C 177.4 109 177.4 109.4 177.5 109.5 C 177.6 109.7 177.7 109.8 177.8 109.9 C 178 110 178.2 110.1 178.5 110.1 C 178.5 110.1 178.5 110.1 178.5 110.1 Z M 195.2 111.7 C 195 111.3 194.9 110.8 194.8 110.3 C 194.1 110.9 193.4 111.3 192.7 111.6 C 192.1 111.8 191.4 112 190.6 112 C 189.4 112 188.4 111.7 187.7 111 C 187 110.4 186.7 109.7 186.7 108.7 C 186.7 108.1 186.8 107.6 187.1 107.2 C 187.3 106.7 187.7 106.3 188.1 106.1 C 188.5 105.8 189 105.6 189.5 105.4 C 189.9 105.3 190.4 105.2 191.2 105.1 C 192.8 104.9 193.9 104.7 194.6 104.5 C 194.6 104.2 194.7 104 194.7 104 C 194.7 103.2 194.5 102.6 194.1 102.3 C 193.6 101.9 192.9 101.6 191.9 101.6 C 191 101.6 190.3 101.8 189.9 102.1 C 189.5 102.4 189.1 103 188.9 103.8 C 188.9 103.8 187 103.6 187 103.6 C 187.2 102.7 187.5 102.1 187.9 101.6 C 188.3 101.1 188.8 100.7 189.6 100.4 C 190.3 100.2 191.2 100 192.2 100 C 193.2 100 193.9 100.2 194.6 100.4 C 195.2 100.6 195.6 100.9 195.9 101.3 C 196.2 101.6 196.4 102 196.5 102.6 C 196.6 102.9 196.6 103.5 196.6 104.3 C 196.6 104.3 196.6 106.9 196.6 106.9 C 196.6 108.7 196.6 109.9 196.7 110.3 C 196.8 110.8 197 111.3 197.2 111.7 C 197.21 111.71 195.2 111.7 195.2 111.7 C 195.2 111.7 195.19 111.71 195.2 111.7 Z M 194.6 106 C 193.9 106.3 192.9 106.5 191.5 106.7 C 190.7 106.8 190.1 107 189.8 107.1 C 189.5 107.2 189.2 107.5 189 107.7 C 188.9 108 188.8 108.3 188.8 108.6 C 188.8 109.2 189 109.6 189.4 109.9 C 189.7 110.3 190.3 110.5 191.1 110.5 C 191.8 110.5 192.5 110.3 193.1 110 C 193.6 109.6 194.1 109.2 194.3 108.6 C 194.5 108.2 194.6 107.5 194.6 106.7 C 194.6 106.7 194.6 106 194.6 106 Z M 198.8 108.3 C 198.8 108.3 200.7 108 200.7 108 C 200.8 108.8 201.1 109.4 201.6 109.8 C 202.1 110.2 202.8 110.4 203.7 110.4 C 204.6 110.4 205.2 110.2 205.7 109.8 C 206.1 109.5 206.3 109 206.3 108.6 C 206.3 108.1 206.1 107.8 205.7 107.5 C 205.5 107.4 204.8 107.1 203.8 106.9 C 202.3 106.5 201.4 106.2 200.8 105.9 C 200.3 105.7 199.9 105.3 199.6 104.9 C 199.3 104.4 199.1 103.9 199.1 103.3 C 199.1 102.8 199.3 102.4 199.5 101.9 C 199.7 101.5 200 101.1 200.4 100.8 C 200.7 100.6 201.2 100.4 201.7 100.3 C 202.2 100.1 202.7 100 203.3 100 C 204.2 100 205 100.2 205.7 100.4 C 206.4 100.7 206.9 101 207.2 101.5 C 207.5 101.9 207.7 102.5 207.9 103.2 C 207.9 103.2 206 103.5 206 103.5 C 205.9 102.9 205.6 102.5 205.2 102.1 C 204.8 101.8 204.2 101.6 203.5 101.6 C 202.6 101.6 202 101.8 201.6 102.1 C 201.2 102.4 201 102.7 201 103.1 C 201 103.4 201.1 103.6 201.2 103.8 C 201.4 104 201.7 104.2 202 104.3 C 202.2 104.4 202.8 104.5 203.7 104.8 C 205.1 105.2 206 105.5 206.6 105.7 C 207.1 105.9 207.5 106.3 207.8 106.7 C 208.1 107.1 208.3 107.7 208.3 108.4 C 208.3 109 208.1 109.6 207.7 110.2 C 207.4 110.7 206.8 111.2 206.1 111.5 C 205.4 111.8 204.6 112 203.7 112 C 202.2 112 201.1 111.7 200.3 111 C 199.5 110.4 199 109.5 198.8 108.3 Z M 209.8 108.3 C 209.8 108.3 211.7 108 211.7 108 C 211.8 108.8 212.1 109.4 212.6 109.8 C 213.1 110.2 213.8 110.4 214.7 110.4 C 215.6 110.4 216.2 110.2 216.7 109.8 C 217.1 109.5 217.3 109 217.3 108.6 C 217.3 108.1 217.1 107.8 216.7 107.5 C 216.5 107.4 215.8 107.1 214.8 106.9 C 213.3 106.5 212.4 106.2 211.8 105.9 C 211.3 105.7 210.9 105.3 210.6 104.9 C 210.3 104.4 210.1 103.9 210.1 103.3 C 210.1 102.8 210.3 102.4 210.5 101.9 C 210.7 101.5 211 101.1 211.4 100.8 C 211.7 100.6 212.2 100.4 212.7 100.3 C 213.2 100.1 213.7 100 214.3 100 C 215.2 100 216 100.2 216.7 100.4 C 217.4 100.7 217.9 101 218.2 101.5 C 218.5 101.9 218.7 102.5 218.9 103.2 C 218.9 103.2 217 103.5 217 103.5 C 216.9 102.9 216.6 102.5 216.2 102.1 C 215.8 101.8 215.2 101.6 214.5 101.6 C 213.6 101.6 213 101.8 212.6 102.1 C 212.2 102.4 212 102.7 212 103.1 C 212 103.4 212.1 103.6 212.2 103.8 C 212.4 104 212.7 104.2 213 104.3 C 213.2 104.4 213.8 104.5 214.7 104.8 C 216.1 105.2 217 105.5 217.6 105.7 C 218.1 105.9 218.5 106.3 218.8 106.7 C 219.1 107.1 219.3 107.7 219.3 108.4 C 219.3 109 219.1 109.6 218.7 110.2 C 218.4 110.7 217.8 111.2 217.1 111.5 C 216.4 111.8 215.6 112 214.7 112 C 213.2 112 212.1 111.7 211.3 111 C 210.5 110.4 210 109.5 209.8 108.3 Z M 229.4 108 C 229.4 108 231.4 108.3 231.4 108.3 C 231.1 109.4 230.5 110.4 229.7 111 C 228.8 111.6 227.7 112 226.4 112 C 224.7 112 223.4 111.5 222.4 110.4 C 221.4 109.4 221 108 221 106.1 C 221 104.2 221.4 102.7 222.4 101.6 C 223.4 100.6 224.7 100 226.3 100 C 227.8 100 229 100.6 230 101.6 C 231 102.6 231.5 104.1 231.5 106 C 231.5 106.1 231.5 106.3 231.5 106.5 C 231.5 106.5 222.9 106.5 222.9 106.5 C 223 107.8 223.4 108.7 224 109.4 C 224.6 110 225.4 110.4 226.4 110.4 C 227.1 110.4 227.7 110.2 228.2 109.8 C 228.7 109.4 229.1 108.9 229.4 108 Z M 223.1 104.9 C 223.1 104.9 229.4 104.9 229.4 104.9 C 229.3 103.9 229.1 103.2 228.7 102.7 C 228.1 102 227.3 101.6 226.3 101.6 C 225.4 101.6 224.7 101.9 224.1 102.5 C 223.5 103.1 223.1 103.9 223.1 104.9 Z M 233.1 108.3 C 233.1 108.3 235 108 235 108 C 235.1 108.8 235.4 109.4 235.9 109.8 C 236.4 110.2 237 110.4 237.9 110.4 C 238.8 110.4 239.5 110.2 239.9 109.8 C 240.3 109.5 240.5 109 240.5 108.6 C 240.5 108.1 240.4 107.8 240 107.5 C 239.7 107.4 239.1 107.1 238 106.9 C 236.6 106.5 235.6 106.2 235 105.9 C 234.5 105.7 234.1 105.3 233.8 104.9 C 233.5 104.4 233.4 103.9 233.4 103.3 C 233.4 102.8 233.5 102.4 233.7 101.9 C 234 101.5 234.3 101.1 234.7 100.8 C 235 100.6 235.4 100.4 235.9 100.3 C 236.4 100.1 237 100 237.6 100 C 238.5 100 239.3 100.2 239.9 100.4 C 240.6 100.7 241.1 101 241.4 101.5 C 241.8 101.9 242 102.5 242.1 103.2 C 242.1 103.2 240.2 103.5 240.2 103.5 C 240.1 102.9 239.9 102.5 239.5 102.1 C 239.1 101.8 238.5 101.6 237.7 101.6 C 236.8 101.6 236.2 101.8 235.8 102.1 C 235.4 102.4 235.2 102.7 235.2 103.1 C 235.2 103.4 235.3 103.6 235.5 103.8 C 235.6 104 235.9 104.2 236.2 104.3 C 236.4 104.4 237 104.5 237.9 104.8 C 239.3 105.2 240.3 105.5 240.8 105.7 C 241.3 105.9 241.8 106.3 242.1 106.7 C 242.4 107.1 242.5 107.7 242.5 108.4 C 242.5 109 242.3 109.6 242 110.2 C 241.6 110.7 241 111.2 240.3 111.5 C 239.6 111.8 238.8 112 237.9 112 C 236.5 112 235.3 111.7 234.5 111 C 233.8 110.4 233.3 109.5 233.1 108.3 Z M 244.1 108.3 C 244.1 108.3 246 108 246 108 C 246.1 108.8 246.4 109.4 246.9 109.8 C 247.4 110.2 248 110.4 248.9 110.4 C 249.8 110.4 250.5 110.2 250.9 109.8 C 251.3 109.5 251.5 109 251.5 108.6 C 251.5 108.1 251.4 107.8 251 107.5 C 250.7 107.4 250.1 107.1 249 106.9 C 247.6 106.5 246.6 106.2 246 105.9 C 245.5 105.7 245.1 105.3 244.8 104.9 C 244.5 104.4 244.4 103.9 244.4 103.3 C 244.4 102.8 244.5 102.4 244.7 101.9 C 245 101.5 245.3 101.1 245.7 100.8 C 246 100.6 246.4 100.4 246.9 100.3 C 247.4 100.1 248 100 248.6 100 C 249.5 100 250.3 100.2 250.9 100.4 C 251.6 100.7 252.1 101 252.4 101.5 C 252.8 101.9 253 102.5 253.1 103.2 C 253.1 103.2 251.2 103.5 251.2 103.5 C 251.1 102.9 250.9 102.5 250.5 102.1 C 250.1 101.8 249.5 101.6 248.7 101.6 C 247.8 101.6 247.2 101.8 246.8 102.1 C 246.4 102.4 246.2 102.7 246.2 103.1 C 246.2 103.4 246.3 103.6 246.5 103.8 C 246.6 104 246.9 104.2 247.2 104.3 C 247.4 104.4 248 104.5 248.9 104.8 C 250.3 105.2 251.3 105.5 251.8 105.7 C 252.3 105.9 252.8 106.3 253.1 106.7 C 253.4 107.1 253.5 107.7 253.5 108.4 C 253.5 109 253.3 109.6 253 110.2 C 252.6 110.7 252 111.2 251.3 111.5 C 250.6 111.8 249.8 112 248.9 112 C 247.5 112 246.3 111.7 245.5 111 C 244.8 110.4 244.3 109.5 244.1 108.3 Z M 255.8 111.7 L 255.8 100.3 L 257.6 100.3 C 257.6 100.3 257.56 101.9 257.6 101.9 C 257.9 101.3 258.4 100.9 259 100.6 C 259.6 100.2 260.3 100 261 100 C 261.9 100 262.6 100.2 263.1 100.6 C 263.6 100.9 264 101.4 264.2 102 C 265.1 100.7 266.3 100 267.8 100 C 268.9 100 269.8 100.4 270.4 101 C 271 101.6 271.3 102.6 271.3 103.9 C 271.29 103.88 271.3 111.7 271.3 111.7 L 269.4 111.7 C 269.4 111.7 269.37 104.52 269.4 104.5 C 269.4 103.7 269.3 103.2 269.2 102.9 C 269.1 102.5 268.8 102.2 268.5 102 C 268.2 101.8 267.8 101.7 267.3 101.7 C 266.5 101.7 265.9 102 265.3 102.5 C 264.8 103.1 264.5 103.9 264.5 105.1 C 264.54 105.08 264.5 111.7 264.5 111.7 L 262.6 111.7 C 262.6 111.7 262.61 104.3 262.6 104.3 C 262.6 103.4 262.5 102.8 262.1 102.4 C 261.8 101.9 261.3 101.7 260.6 101.7 C 260 101.7 259.5 101.9 259.1 102.1 C 258.6 102.4 258.3 102.9 258.1 103.4 C 257.9 104 257.8 104.8 257.8 105.8 C 257.76 105.79 257.8 111.7 257.8 111.7 L 255.8 111.7 Z M 282 108 C 282 108 284 108.3 284 108.3 C 283.6 109.4 283.1 110.4 282.2 111 C 281.4 111.6 280.3 112 278.9 112 C 277.3 112 276 111.5 275 110.4 C 274 109.4 273.5 108 273.5 106.1 C 273.5 104.2 274 102.7 275 101.6 C 276 100.6 277.3 100 278.8 100 C 280.4 100 281.6 100.6 282.6 101.6 C 283.5 102.6 284 104.1 284 106 C 284 106.1 284 106.3 284 106.5 C 284 106.5 275.5 106.5 275.5 106.5 C 275.6 107.8 275.9 108.7 276.6 109.4 C 277.2 110 278 110.4 279 110.4 C 279.7 110.4 280.3 110.2 280.8 109.8 C 281.3 109.4 281.7 108.9 282 108 Z M 275.6 104.9 C 275.6 104.9 282 104.9 282 104.9 C 281.9 103.9 281.7 103.2 281.3 102.7 C 280.6 102 279.8 101.6 278.9 101.6 C 278 101.6 277.2 101.9 276.6 102.5 C 276 103.1 275.7 103.9 275.6 104.9 Z M 286.4 111.7 L 286.4 100.3 L 288.1 100.3 C 288.1 100.3 288.13 101.92 288.1 101.9 C 289 100.7 290.2 100 291.8 100 C 292.5 100 293.1 100.2 293.7 100.4 C 294.2 100.7 294.7 101 295 101.4 C 295.2 101.8 295.4 102.3 295.6 102.8 C 295.6 103.2 295.7 103.8 295.7 104.7 C 295.66 104.69 295.7 111.7 295.7 111.7 L 293.7 111.7 C 293.7 111.7 293.73 104.77 293.7 104.8 C 293.7 104 293.7 103.4 293.5 103 C 293.4 102.6 293.1 102.3 292.7 102.1 C 292.3 101.8 291.9 101.7 291.4 101.7 C 290.5 101.7 289.8 102 289.2 102.5 C 288.6 103 288.3 104 288.3 105.5 C 288.33 105.48 288.3 111.7 288.3 111.7 L 286.4 111.7 Z M 302 110.1 C 302.2 110.1 302.5 110 302.8 110 C 302.8 110 303.1 111.7 303.1 111.7 C 302.6 111.8 302.1 111.9 301.7 111.9 C 301 111.9 300.4 111.7 300 111.5 C 299.6 111.3 299.4 111 299.2 110.7 C 299.1 110.3 299 109.5 299 108.4 C 298.98 108.37 299 101.8 299 101.8 L 297.6 101.8 L 297.6 100.3 L 299 100.3 L 299 97.5 L 300.9 96.3 L 300.9 100.3 L 302.8 100.3 L 302.8 101.8 L 300.9 101.8 C 300.9 101.8 300.9 108.47 300.9 108.5 C 300.9 109 300.9 109.4 301 109.5 C 301.1 109.7 301.2 109.8 301.3 109.9 C 301.5 110 301.7 110.1 302 110.1 C 302 110.1 302 110.1 302 110.1 Z M 318.7 111.7 C 318.5 111.3 318.4 110.8 318.3 110.3 C 317.6 110.9 316.9 111.3 316.2 111.6 C 315.6 111.8 314.9 112 314.1 112 C 312.8 112 311.9 111.7 311.2 111 C 310.5 110.4 310.2 109.7 310.2 108.7 C 310.2 108.1 310.3 107.6 310.6 107.2 C 310.8 106.7 311.2 106.3 311.6 106.1 C 312 105.8 312.5 105.6 313 105.4 C 313.3 105.3 313.9 105.2 314.7 105.1 C 316.2 104.9 317.4 104.7 318.1 104.5 C 318.1 104.2 318.1 104 318.1 104 C 318.1 103.2 318 102.6 317.6 102.3 C 317.1 101.9 316.4 101.6 315.4 101.6 C 314.5 101.6 313.8 101.8 313.4 102.1 C 312.9 102.4 312.6 103 312.4 103.8 C 312.4 103.8 310.5 103.6 310.5 103.6 C 310.7 102.7 311 102.1 311.4 101.6 C 311.8 101.1 312.3 100.7 313.1 100.4 C 313.8 100.2 314.7 100 315.7 100 C 316.6 100 317.4 100.2 318 100.4 C 318.7 100.6 319.1 100.9 319.4 101.3 C 319.7 101.6 319.9 102 320 102.6 C 320.1 102.9 320.1 103.5 320.1 104.3 C 320.1 104.3 320.1 106.9 320.1 106.9 C 320.1 108.7 320.1 109.9 320.2 110.3 C 320.3 110.8 320.5 111.3 320.7 111.7 C 320.7 111.71 318.7 111.7 318.7 111.7 C 318.7 111.7 318.68 111.71 318.7 111.7 Z M 318.1 106 C 317.4 106.3 316.4 106.5 315 106.7 C 314.2 106.8 313.6 107 313.3 107.1 C 313 107.2 312.7 107.5 312.5 107.7 C 312.3 108 312.3 108.3 312.3 108.6 C 312.3 109.2 312.5 109.6 312.8 109.9 C 313.2 110.3 313.8 110.5 314.6 110.5 C 315.3 110.5 316 110.3 316.5 110 C 317.1 109.6 317.6 109.2 317.8 108.6 C 318 108.2 318.1 107.5 318.1 106.7 C 318.1 106.7 318.1 106 318.1 106 Z M 330.5 107.5 C 330.5 107.5 332.4 107.8 332.4 107.8 C 332.2 109.1 331.7 110.1 330.8 110.9 C 330 111.6 328.9 112 327.7 112 C 326.1 112 324.9 111.5 323.9 110.4 C 323 109.4 322.5 108 322.5 106 C 322.5 104.8 322.7 103.7 323.1 102.8 C 323.5 101.9 324.1 101.2 325 100.7 C 325.8 100.3 326.7 100 327.7 100 C 328.9 100 329.9 100.4 330.7 101 C 331.5 101.6 332 102.5 332.3 103.7 C 332.3 103.7 330.4 103.9 330.4 103.9 C 330.2 103.2 329.9 102.6 329.4 102.2 C 329 101.8 328.4 101.6 327.8 101.6 C 326.8 101.6 326 102 325.4 102.7 C 324.8 103.4 324.5 104.5 324.5 106 C 324.5 107.5 324.8 108.6 325.4 109.3 C 326 110 326.7 110.4 327.7 110.4 C 328.4 110.4 329.1 110.1 329.6 109.7 C 330.1 109.2 330.4 108.5 330.5 107.5 Z M 334.1 111.7 L 334.1 100.3 L 335.8 100.3 C 335.8 100.3 335.81 102.03 335.8 102 C 336.2 101.2 336.7 100.7 337 100.4 C 337.4 100.2 337.8 100 338.3 100 C 338.9 100 339.6 100.3 340.3 100.7 C 340.3 100.7 339.6 102.5 339.6 102.5 C 339.1 102.2 338.7 102 338.2 102 C 337.8 102 337.4 102.2 337 102.4 C 336.7 102.7 336.5 103 336.3 103.5 C 336.1 104.2 336 104.9 336 105.7 C 336 105.74 336 111.7 336 111.7 L 334.1 111.7 Z M 340.7 106 C 340.7 103.9 341.3 102.3 342.5 101.3 C 343.4 100.5 344.6 100 346 100 C 347.6 100 348.9 100.6 349.9 101.6 C 350.9 102.6 351.4 104 351.4 105.8 C 351.4 107.3 351.2 108.5 350.7 109.3 C 350.3 110.1 349.6 110.8 348.8 111.3 C 348 111.7 347 112 346 112 C 344.4 112 343.2 111.5 342.2 110.4 C 341.2 109.4 340.7 107.9 340.7 106 Z M 342.7 106 C 342.7 107.5 343 108.6 343.6 109.3 C 344.3 110 345.1 110.4 346 110.4 C 347 110.4 347.8 110 348.4 109.3 C 349.1 108.6 349.4 107.4 349.4 105.9 C 349.4 104.5 349.1 103.5 348.4 102.7 C 347.8 102 347 101.6 346 101.6 C 345.1 101.6 344.3 102 343.6 102.7 C 343 103.5 342.7 104.5 342.7 106 Z M 352.9 108.3 C 352.9 108.3 354.8 108 354.8 108 C 354.9 108.8 355.2 109.4 355.7 109.8 C 356.2 110.2 356.9 110.4 357.7 110.4 C 358.6 110.4 359.3 110.2 359.7 109.8 C 360.1 109.5 360.4 109 360.4 108.6 C 360.4 108.1 360.2 107.8 359.8 107.5 C 359.5 107.4 358.9 107.1 357.8 106.9 C 356.4 106.5 355.4 106.2 354.9 105.9 C 354.3 105.7 353.9 105.3 353.6 104.9 C 353.3 104.4 353.2 103.9 353.2 103.3 C 353.2 102.8 353.3 102.4 353.5 101.9 C 353.8 101.5 354.1 101.1 354.5 100.8 C 354.8 100.6 355.2 100.4 355.7 100.3 C 356.2 100.1 356.8 100 357.4 100 C 358.3 100 359.1 100.2 359.8 100.4 C 360.4 100.7 360.9 101 361.3 101.5 C 361.6 101.9 361.8 102.5 361.9 103.2 C 361.9 103.2 360 103.5 360 103.5 C 359.9 102.9 359.7 102.5 359.3 102.1 C 358.9 101.8 358.3 101.6 357.5 101.6 C 356.6 101.6 356 101.8 355.6 102.1 C 355.3 102.4 355.1 102.7 355.1 103.1 C 355.1 103.4 355.1 103.6 355.3 103.8 C 355.5 104 355.7 104.2 356 104.3 C 356.2 104.4 356.8 104.5 357.8 104.8 C 359.1 105.2 360.1 105.5 360.6 105.7 C 361.2 105.9 361.6 106.3 361.9 106.7 C 362.2 107.1 362.3 107.7 362.3 108.4 C 362.3 109 362.2 109.6 361.8 110.2 C 361.4 110.7 360.9 111.2 360.2 111.5 C 359.4 111.8 358.6 112 357.8 112 C 356.3 112 355.1 111.7 354.4 111 C 353.6 110.4 353.1 109.5 352.9 108.3 Z M 363.9 108.3 C 363.9 108.3 365.8 108 365.8 108 C 365.9 108.8 366.2 109.4 366.7 109.8 C 367.2 110.2 367.9 110.4 368.7 110.4 C 369.6 110.4 370.3 110.2 370.7 109.8 C 371.1 109.5 371.4 109 371.4 108.6 C 371.4 108.1 371.2 107.8 370.8 107.5 C 370.5 107.4 369.9 107.1 368.8 106.9 C 367.4 106.5 366.4 106.2 365.9 105.9 C 365.3 105.7 364.9 105.3 364.6 104.9 C 364.3 104.4 364.2 103.9 364.2 103.3 C 364.2 102.8 364.3 102.4 364.5 101.9 C 364.8 101.5 365.1 101.1 365.5 100.8 C 365.8 100.6 366.2 100.4 366.7 100.3 C 367.2 100.1 367.8 100 368.4 100 C 369.3 100 370.1 100.2 370.8 100.4 C 371.4 100.7 371.9 101 372.3 101.5 C 372.6 101.9 372.8 102.5 372.9 103.2 C 372.9 103.2 371 103.5 371 103.5 C 370.9 102.9 370.7 102.5 370.3 102.1 C 369.9 101.8 369.3 101.6 368.5 101.6 C 367.6 101.6 367 101.8 366.6 102.1 C 366.3 102.4 366.1 102.7 366.1 103.1 C 366.1 103.4 366.1 103.6 366.3 103.8 C 366.5 104 366.7 104.2 367 104.3 C 367.2 104.4 367.8 104.5 368.8 104.8 C 370.1 105.2 371.1 105.5 371.6 105.7 C 372.2 105.9 372.6 106.3 372.9 106.7 C 373.2 107.1 373.3 107.7 373.3 108.4 C 373.3 109 373.2 109.6 372.8 110.2 C 372.4 110.7 371.9 111.2 371.2 111.5 C 370.4 111.8 369.6 112 368.8 112 C 367.3 112 366.1 111.7 365.4 111 C 364.6 110.4 364.1 109.5 363.9 108.3 Z " stroke="none" fill="#fff"/>  </g>  <g id="Polygon61501">    <path d="M 26.8 85.3 L 26.8 69.6 L 38.2 69.6 L 38.2 71.4 L 28.9 71.4 L 28.9 76.2 L 37.6 76.2 L 37.6 78.1 L 28.9 78.1 L 28.9 83.4 L 38.5 83.4 L 38.5 85.3 L 26.8 85.3 Z M 40.7 80.2 C 40.7 80.2 42.7 80.1 42.7 80.1 C 42.8 80.9 43 81.5 43.3 82 C 43.7 82.5 44.2 82.9 44.9 83.2 C 45.6 83.6 46.4 83.7 47.3 83.7 C 48.1 83.7 48.8 83.6 49.4 83.4 C 50 83.1 50.5 82.8 50.8 82.4 C 51.1 82 51.2 81.5 51.2 81 C 51.2 80.5 51.1 80.1 50.8 79.7 C 50.5 79.4 50 79.1 49.4 78.8 C 49 78.6 48 78.4 46.6 78 C 45.1 77.7 44.1 77.4 43.5 77.1 C 42.8 76.7 42.2 76.2 41.9 75.6 C 41.5 75 41.3 74.4 41.3 73.6 C 41.3 72.8 41.5 72.1 42 71.4 C 42.4 70.7 43.1 70.2 44 69.8 C 44.8 69.5 45.8 69.3 46.9 69.3 C 48 69.3 49 69.5 49.9 69.9 C 50.8 70.2 51.5 70.8 52 71.5 C 52.5 72.2 52.7 73.1 52.8 74 C 52.8 74 50.8 74.1 50.8 74.1 C 50.7 73.2 50.3 72.4 49.7 71.9 C 49.1 71.4 48.1 71.1 46.9 71.1 C 45.7 71.1 44.8 71.4 44.2 71.8 C 43.6 72.3 43.3 72.8 43.3 73.5 C 43.3 74.1 43.5 74.5 43.9 74.9 C 44.3 75.3 45.4 75.6 47.1 76 C 48.8 76.4 49.9 76.7 50.6 77 C 51.5 77.4 52.2 78 52.6 78.6 C 53 79.3 53.2 80 53.2 80.9 C 53.2 81.7 53 82.5 52.5 83.2 C 52 84 51.4 84.5 50.5 85 C 49.6 85.4 48.5 85.6 47.4 85.6 C 46 85.6 44.8 85.4 43.8 85 C 42.9 84.5 42.1 83.9 41.6 83.1 C 41 82.2 40.7 81.3 40.7 80.2 Z M 56.2 85.3 L 56.2 69.6 L 66.8 69.6 L 66.8 71.4 L 58.3 71.4 L 58.3 76.3 L 65.7 76.3 L 65.7 78.2 L 58.3 78.2 L 58.3 85.3 L 56.2 85.3 Z M 66.6 85.3 L 72.6 69.6 L 74.9 69.6 L 81.3 85.3 L 78.9 85.3 L 77.1 80.5 L 70.5 80.5 L 68.8 85.3 L 66.6 85.3 Z M 71.1 78.8 L 76.5 78.8 C 76.5 78.8 74.82 74.48 74.8 74.5 C 74.3 73.2 74 72.1 73.7 71.2 C 73.5 72.2 73.2 73.2 72.9 74.2 C 72.86 74.22 71.1 78.8 71.1 78.8 Z M 83.2 85.3 L 83.2 83.1 L 85.4 83.1 C 85.4 83.1 85.45 85.31 85.4 85.3 C 85.4 86.1 85.3 86.8 85 87.3 C 84.7 87.8 84.3 88.2 83.7 88.4 C 83.7 88.4 83.1 87.6 83.1 87.6 C 83.5 87.4 83.8 87.2 84 86.8 C 84.2 86.5 84.3 86 84.3 85.3 C 84.34 85.31 83.2 85.3 83.2 85.3 Z M 97.1 85.3 L 93.6 73.9 L 95.6 73.9 L 97.4 80.5 C 97.4 80.5 98.07 82.93 98.1 82.9 C 98.1 82.8 98.3 82 98.7 80.6 C 98.66 80.58 100.5 73.9 100.5 73.9 L 102.5 73.9 L 104.2 80.5 L 104.7 82.7 L 105.4 80.5 L 107.4 73.9 L 109.2 73.9 L 105.7 85.3 L 103.7 85.3 L 101.8 78.5 L 101.4 76.5 L 99.1 85.3 L 97.1 85.3 Z M 118.7 81.6 C 118.7 81.6 120.7 81.9 120.7 81.9 C 120.3 83 119.8 84 118.9 84.6 C 118.1 85.2 117 85.6 115.6 85.6 C 114 85.6 112.7 85.1 111.7 84 C 110.7 83 110.2 81.6 110.2 79.7 C 110.2 77.8 110.7 76.3 111.7 75.2 C 112.7 74.2 114 73.6 115.5 73.6 C 117.1 73.6 118.3 74.2 119.3 75.2 C 120.2 76.2 120.7 77.7 120.7 79.6 C 120.7 79.7 120.7 79.9 120.7 80.1 C 120.7 80.1 112.2 80.1 112.2 80.1 C 112.3 81.4 112.6 82.3 113.3 83 C 113.9 83.6 114.7 84 115.7 84 C 116.4 84 117 83.8 117.5 83.4 C 118 83 118.4 82.5 118.7 81.6 Z M 112.3 78.5 C 112.3 78.5 118.7 78.5 118.7 78.5 C 118.6 77.5 118.4 76.8 118 76.3 C 117.3 75.6 116.5 75.2 115.6 75.2 C 114.7 75.2 113.9 75.5 113.3 76.1 C 112.7 76.7 112.4 77.5 112.3 78.5 Z M 129.2 89.7 L 129.2 73.9 L 131 73.9 C 131 73.9 130.96 75.38 131 75.4 C 131.4 74.8 131.8 74.4 132.4 74.1 C 132.9 73.8 133.5 73.6 134.3 73.6 C 135.2 73.6 136.1 73.9 136.8 74.4 C 137.6 74.9 138.2 75.6 138.5 76.5 C 138.9 77.4 139.1 78.4 139.1 79.5 C 139.1 80.7 138.9 81.7 138.5 82.7 C 138.1 83.6 137.4 84.3 136.7 84.8 C 135.9 85.3 135 85.6 134.1 85.6 C 133.5 85.6 132.9 85.4 132.4 85.2 C 131.9 84.9 131.5 84.5 131.1 84.1 C 131.13 84.13 131.1 89.7 131.1 89.7 L 129.2 89.7 Z M 131 79.7 C 131 81.1 131.2 82.2 131.8 82.9 C 132.4 83.6 133.2 84 134 84 C 134.9 84 135.6 83.6 136.2 82.9 C 136.8 82.2 137.1 81 137.1 79.5 C 137.1 78.1 136.8 77 136.2 76.2 C 135.6 75.5 134.9 75.2 134.1 75.2 C 133.3 75.2 132.5 75.5 131.9 76.3 C 131.3 77.1 131 78.2 131 79.7 Z M 141.4 85.3 L 141.4 73.9 L 143.2 73.9 C 143.2 73.9 143.16 75.63 143.2 75.6 C 143.6 74.8 144 74.3 144.4 74 C 144.8 73.8 145.2 73.6 145.6 73.6 C 146.3 73.6 146.9 73.9 147.6 74.3 C 147.6 74.3 146.9 76.1 146.9 76.1 C 146.5 75.8 146 75.6 145.5 75.6 C 145.1 75.6 144.7 75.8 144.4 76 C 144.1 76.3 143.8 76.6 143.7 77.1 C 143.5 77.8 143.3 78.5 143.3 79.3 C 143.35 79.34 143.3 85.3 143.3 85.3 L 141.4 85.3 Z M 148 79.6 C 148 77.5 148.6 75.9 149.8 74.9 C 150.8 74.1 152 73.6 153.4 73.6 C 155 73.6 156.2 74.2 157.2 75.2 C 158.2 76.2 158.7 77.6 158.7 79.4 C 158.7 80.9 158.5 82.1 158.1 82.9 C 157.6 83.7 157 84.4 156.1 84.9 C 155.3 85.3 154.4 85.6 153.4 85.6 C 151.8 85.6 150.5 85.1 149.5 84 C 148.5 83 148 81.5 148 79.6 Z M 150 79.6 C 150 81.1 150.3 82.2 151 82.9 C 151.6 83.6 152.4 84 153.4 84 C 154.4 84 155.2 83.6 155.8 82.9 C 156.4 82.2 156.7 81 156.7 79.5 C 156.7 78.1 156.4 77.1 155.8 76.3 C 155.1 75.6 154.3 75.2 153.4 75.2 C 152.4 75.2 151.6 75.6 151 76.3 C 150.3 77.1 150 78.1 150 79.6 Z M 164.2 85.3 L 159.8 73.9 L 161.9 73.9 C 161.9 73.9 164.32 80.73 164.3 80.7 C 164.6 81.5 164.8 82.2 165 83 C 165.2 82.4 165.5 81.7 165.8 80.9 C 165.77 80.86 168.3 73.9 168.3 73.9 L 170.3 73.9 L 166 85.3 L 164.2 85.3 Z M 172 71.8 L 172 69.6 L 173.9 69.6 L 173.9 71.8 L 172 71.8 Z M 172 85.3 L 172 73.9 L 173.9 73.9 L 173.9 85.3 L 172 85.3 Z M 184.3 85.3 C 184.3 85.3 184.29 83.87 184.3 83.9 C 183.6 85 182.5 85.6 181.1 85.6 C 180.2 85.6 179.4 85.3 178.6 84.8 C 177.8 84.3 177.2 83.6 176.8 82.7 C 176.4 81.8 176.2 80.8 176.2 79.6 C 176.2 78.5 176.4 77.4 176.8 76.5 C 177.1 75.6 177.7 74.9 178.5 74.4 C 179.2 73.9 180.1 73.6 181 73.6 C 181.7 73.6 182.3 73.8 182.8 74.1 C 183.4 74.4 183.8 74.7 184.2 75.2 C 184.16 75.21 184.2 69.6 184.2 69.6 L 186.1 69.6 L 186.1 85.3 L 184.3 85.3 Z M 178.2 79.6 C 178.2 81.1 178.5 82.2 179.1 82.9 C 179.7 83.6 180.4 84 181.3 84 C 182.1 84 182.8 83.6 183.4 82.9 C 184 82.2 184.3 81.2 184.3 79.8 C 184.3 78.2 184 77.1 183.4 76.3 C 182.8 75.6 182.1 75.2 181.2 75.2 C 180.3 75.2 179.6 75.6 179 76.3 C 178.5 77 178.2 78.1 178.2 79.6 Z M 196.9 81.6 C 196.9 81.6 198.9 81.9 198.9 81.9 C 198.6 83 198 84 197.2 84.6 C 196.3 85.2 195.2 85.6 193.9 85.6 C 192.2 85.6 190.9 85.1 189.9 84 C 189 83 188.5 81.6 188.5 79.7 C 188.5 77.8 189 76.3 190 75.2 C 190.9 74.2 192.2 73.6 193.8 73.6 C 195.3 73.6 196.6 74.2 197.5 75.2 C 198.5 76.2 199 77.7 199 79.6 C 199 79.7 199 79.9 199 80.1 C 199 80.1 190.5 80.1 190.5 80.1 C 190.5 81.4 190.9 82.3 191.5 83 C 192.2 83.6 193 84 193.9 84 C 194.6 84 195.2 83.8 195.7 83.4 C 196.2 83 196.6 82.5 196.9 81.6 Z M 190.6 78.5 C 190.6 78.5 197 78.5 197 78.5 C 196.9 77.5 196.6 76.8 196.2 76.3 C 195.6 75.6 194.8 75.2 193.8 75.2 C 192.9 75.2 192.2 75.5 191.6 76.1 C 191 76.7 190.6 77.5 190.6 78.5 Z M 207.5 71.8 L 207.5 69.6 L 209.4 69.6 L 209.4 71.8 L 207.5 71.8 Z M 207.5 85.3 L 207.5 73.9 L 209.4 73.9 L 209.4 85.3 L 207.5 85.3 Z M 212.4 85.3 L 212.4 73.9 L 214.1 73.9 C 214.1 73.9 214.1 75.52 214.1 75.5 C 214.9 74.3 216.1 73.6 217.7 73.6 C 218.4 73.6 219 73.8 219.6 74 C 220.2 74.3 220.6 74.6 220.9 75 C 221.2 75.4 221.4 75.9 221.5 76.4 C 221.6 76.8 221.6 77.4 221.6 78.3 C 221.63 78.29 221.6 85.3 221.6 85.3 L 219.7 85.3 C 219.7 85.3 219.69 78.37 219.7 78.4 C 219.7 77.6 219.6 77 219.5 76.6 C 219.3 76.2 219.1 75.9 218.7 75.7 C 218.3 75.4 217.8 75.3 217.3 75.3 C 216.5 75.3 215.8 75.6 215.2 76.1 C 214.6 76.6 214.3 77.6 214.3 79.1 C 214.29 79.08 214.3 85.3 214.3 85.3 L 212.4 85.3 Z M 232 85.3 C 232 85.3 231.99 83.87 232 83.9 C 231.3 85 230.2 85.6 228.8 85.6 C 227.9 85.6 227.1 85.3 226.3 84.8 C 225.5 84.3 224.9 83.6 224.5 82.7 C 224.1 81.8 223.9 80.8 223.9 79.6 C 223.9 78.5 224.1 77.4 224.5 76.5 C 224.8 75.6 225.4 74.9 226.2 74.4 C 226.9 73.9 227.8 73.6 228.7 73.6 C 229.4 73.6 230 73.8 230.6 74.1 C 231.1 74.4 231.5 74.7 231.9 75.2 C 231.86 75.21 231.9 69.6 231.9 69.6 L 233.8 69.6 L 233.8 85.3 L 232 85.3 Z M 225.9 79.6 C 225.9 81.1 226.2 82.2 226.8 82.9 C 227.4 83.6 228.1 84 229 84 C 229.8 84 230.5 83.6 231.1 82.9 C 231.7 82.2 232 81.2 232 79.8 C 232 78.2 231.7 77.1 231.1 76.3 C 230.5 75.6 229.8 75.2 228.9 75.2 C 228 75.2 227.3 75.6 226.7 76.3 C 226.2 77 225.9 78.1 225.9 79.6 Z M 244.6 81.6 C 244.6 81.6 246.6 81.9 246.6 81.9 C 246.3 83 245.7 84 244.9 84.6 C 244 85.2 242.9 85.6 241.6 85.6 C 239.9 85.6 238.6 85.1 237.6 84 C 236.7 83 236.2 81.6 236.2 79.7 C 236.2 77.8 236.7 76.3 237.7 75.2 C 238.7 74.2 239.9 73.6 241.5 73.6 C 243 73.6 244.3 74.2 245.2 75.2 C 246.2 76.2 246.7 77.7 246.7 79.6 C 246.7 79.7 246.7 79.9 246.7 80.1 C 246.7 80.1 238.2 80.1 238.2 80.1 C 238.3 81.4 238.6 82.3 239.2 83 C 239.9 83.6 240.7 84 241.6 84 C 242.3 84 242.9 83.8 243.4 83.4 C 243.9 83 244.3 82.5 244.6 81.6 Z M 238.3 78.5 C 238.3 78.5 244.7 78.5 244.7 78.5 C 244.6 77.5 244.3 76.8 243.9 76.3 C 243.3 75.6 242.5 75.2 241.5 75.2 C 240.6 75.2 239.9 75.5 239.3 76.1 C 238.7 76.7 238.4 77.5 238.3 78.5 Z M 249.1 89.7 L 249.1 73.9 L 250.8 73.9 C 250.8 73.9 250.82 75.38 250.8 75.4 C 251.2 74.8 251.7 74.4 252.2 74.1 C 252.8 73.8 253.4 73.6 254.1 73.6 C 255.1 73.6 256 73.9 256.7 74.4 C 257.5 74.9 258 75.6 258.4 76.5 C 258.8 77.4 259 78.4 259 79.5 C 259 80.7 258.8 81.7 258.3 82.7 C 257.9 83.6 257.3 84.3 256.5 84.8 C 255.7 85.3 254.9 85.6 254 85.6 C 253.3 85.6 252.8 85.4 252.3 85.2 C 251.7 84.9 251.3 84.5 251 84.1 C 251 84.13 251 89.7 251 89.7 L 249.1 89.7 Z M 250.8 79.7 C 250.8 81.1 251.1 82.2 251.7 82.9 C 252.3 83.6 253 84 253.9 84 C 254.7 84 255.5 83.6 256.1 82.9 C 256.7 82.2 257 81 257 79.5 C 257 78.1 256.7 77 256.1 76.2 C 255.5 75.5 254.8 75.2 254 75.2 C 253.1 75.2 252.4 75.5 251.8 76.3 C 251.1 77.1 250.8 78.2 250.8 79.7 Z M 269.1 81.6 C 269.1 81.6 271.1 81.9 271.1 81.9 C 270.8 83 270.2 84 269.4 84.6 C 268.5 85.2 267.4 85.6 266.1 85.6 C 264.4 85.6 263.1 85.1 262.1 84 C 261.1 83 260.7 81.6 260.7 79.7 C 260.7 77.8 261.1 76.3 262.1 75.2 C 263.1 74.2 264.4 73.6 266 73.6 C 267.5 73.6 268.8 74.2 269.7 75.2 C 270.7 76.2 271.2 77.7 271.2 79.6 C 271.2 79.7 271.2 79.9 271.2 80.1 C 271.2 80.1 262.7 80.1 262.7 80.1 C 262.7 81.4 263.1 82.3 263.7 83 C 264.4 83.6 265.1 84 266.1 84 C 266.8 84 267.4 83.8 267.9 83.4 C 268.4 83 268.8 82.5 269.1 81.6 Z M 262.8 78.5 C 262.8 78.5 269.1 78.5 269.1 78.5 C 269 77.5 268.8 76.8 268.4 76.3 C 267.8 75.6 267 75.2 266 75.2 C 265.1 75.2 264.4 75.5 263.8 76.1 C 263.2 76.7 262.8 77.5 262.8 78.5 Z M 273.5 85.3 L 273.5 73.9 L 275.3 73.9 C 275.3 73.9 275.27 75.52 275.3 75.5 C 276.1 74.3 277.3 73.6 278.9 73.6 C 279.6 73.6 280.2 73.8 280.8 74 C 281.4 74.3 281.8 74.6 282.1 75 C 282.4 75.4 282.6 75.9 282.7 76.4 C 282.8 76.8 282.8 77.4 282.8 78.3 C 282.8 78.29 282.8 85.3 282.8 85.3 L 280.9 85.3 C 280.9 85.3 280.87 78.37 280.9 78.4 C 280.9 77.6 280.8 77 280.6 76.6 C 280.5 76.2 280.2 75.9 279.8 75.7 C 279.5 75.4 279 75.3 278.5 75.3 C 277.7 75.3 277 75.6 276.4 76.1 C 275.8 76.6 275.5 77.6 275.5 79.1 C 275.47 79.08 275.5 85.3 275.5 85.3 L 273.5 85.3 Z M 293.2 85.3 C 293.2 85.3 293.17 83.87 293.2 83.9 C 292.4 85 291.4 85.6 290 85.6 C 289.1 85.6 288.2 85.3 287.5 84.8 C 286.7 84.3 286.1 83.6 285.7 82.7 C 285.3 81.8 285.1 80.8 285.1 79.6 C 285.1 78.5 285.3 77.4 285.6 76.5 C 286 75.6 286.6 74.9 287.3 74.4 C 288.1 73.9 289 73.6 289.9 73.6 C 290.6 73.6 291.2 73.8 291.7 74.1 C 292.3 74.4 292.7 74.7 293 75.2 C 293.04 75.21 293 69.6 293 69.6 L 295 69.6 L 295 85.3 L 293.2 85.3 Z M 287.1 79.6 C 287.1 81.1 287.4 82.2 288 82.9 C 288.6 83.6 289.3 84 290.2 84 C 291 84 291.7 83.6 292.3 82.9 C 292.9 82.2 293.2 81.2 293.2 79.8 C 293.2 78.2 292.9 77.1 292.3 76.3 C 291.7 75.6 291 75.2 290.1 75.2 C 289.2 75.2 288.5 75.6 287.9 76.3 C 287.3 77 287.1 78.1 287.1 79.6 Z M 305.8 81.6 C 305.8 81.6 307.8 81.9 307.8 81.9 C 307.5 83 306.9 84 306.1 84.6 C 305.2 85.2 304.1 85.6 302.8 85.6 C 301.1 85.6 299.8 85.1 298.8 84 C 297.8 83 297.4 81.6 297.4 79.7 C 297.4 77.8 297.9 76.3 298.8 75.2 C 299.8 74.2 301.1 73.6 302.7 73.6 C 304.2 73.6 305.5 74.2 306.4 75.2 C 307.4 76.2 307.9 77.7 307.9 79.6 C 307.9 79.7 307.9 79.9 307.9 80.1 C 307.9 80.1 299.4 80.1 299.4 80.1 C 299.4 81.4 299.8 82.3 300.4 83 C 301.1 83.6 301.9 84 302.8 84 C 303.5 84 304.1 83.8 304.6 83.4 C 305.1 83 305.5 82.5 305.8 81.6 Z M 299.5 78.5 C 299.5 78.5 305.8 78.5 305.8 78.5 C 305.7 77.5 305.5 76.8 305.1 76.3 C 304.5 75.6 303.7 75.2 302.7 75.2 C 301.8 75.2 301.1 75.5 300.5 76.1 C 299.9 76.7 299.5 77.5 299.5 78.5 Z M 310.2 85.3 L 310.2 73.9 L 312 73.9 C 312 73.9 311.98 75.52 312 75.5 C 312.8 74.3 314 73.6 315.6 73.6 C 316.3 73.6 316.9 73.8 317.5 74 C 318.1 74.3 318.5 74.6 318.8 75 C 319.1 75.4 319.3 75.9 319.4 76.4 C 319.5 76.8 319.5 77.4 319.5 78.3 C 319.51 78.29 319.5 85.3 319.5 85.3 L 317.6 85.3 C 317.6 85.3 317.58 78.37 317.6 78.4 C 317.6 77.6 317.5 77 317.4 76.6 C 317.2 76.2 316.9 75.9 316.6 75.7 C 316.2 75.4 315.7 75.3 315.2 75.3 C 314.4 75.3 313.7 75.6 313.1 76.1 C 312.5 76.6 312.2 77.6 312.2 79.1 C 312.17 79.08 312.2 85.3 312.2 85.3 L 310.2 85.3 Z M 325.8 83.7 C 326.1 83.7 326.3 83.6 326.7 83.6 C 326.7 83.6 327 85.3 327 85.3 C 326.4 85.4 325.9 85.5 325.5 85.5 C 324.8 85.5 324.3 85.3 323.9 85.1 C 323.5 84.9 323.2 84.6 323.1 84.3 C 322.9 83.9 322.8 83.1 322.8 82 C 322.83 81.97 322.8 75.4 322.8 75.4 L 321.4 75.4 L 321.4 73.9 L 322.8 73.9 L 322.8 71.1 L 324.8 69.9 L 324.8 73.9 L 326.7 73.9 L 326.7 75.4 L 324.8 75.4 C 324.8 75.4 324.75 82.07 324.8 82.1 C 324.8 82.6 324.8 83 324.9 83.1 C 324.9 83.3 325 83.4 325.2 83.5 C 325.3 83.6 325.6 83.7 325.8 83.7 C 325.8 83.7 325.8 83.7 325.8 83.7 Z M 342.5 85.3 C 342.3 84.9 342.2 84.4 342.1 83.9 C 341.4 84.5 340.7 84.9 340.1 85.2 C 339.4 85.4 338.7 85.6 337.9 85.6 C 336.7 85.6 335.7 85.3 335.1 84.6 C 334.4 84 334 83.3 334 82.3 C 334 81.7 334.2 81.2 334.4 80.8 C 334.7 80.3 335 79.9 335.4 79.7 C 335.8 79.4 336.3 79.2 336.8 79 C 337.2 78.9 337.8 78.8 338.5 78.7 C 340.1 78.5 341.2 78.3 342 78.1 C 342 77.8 342 77.6 342 77.6 C 342 76.8 341.8 76.2 341.4 75.9 C 341 75.5 340.2 75.2 339.2 75.2 C 338.3 75.2 337.7 75.4 337.2 75.7 C 336.8 76 336.5 76.6 336.3 77.4 C 336.3 77.4 334.4 77.2 334.4 77.2 C 334.5 76.3 334.8 75.7 335.2 75.2 C 335.6 74.7 336.2 74.3 336.9 74 C 337.7 73.8 338.5 73.6 339.5 73.6 C 340.5 73.6 341.3 73.8 341.9 74 C 342.5 74.2 343 74.5 343.2 74.9 C 343.5 75.2 343.7 75.6 343.8 76.2 C 343.9 76.5 343.9 77.1 343.9 77.9 C 343.9 77.9 343.9 80.5 343.9 80.5 C 343.9 82.3 344 83.5 344.1 83.9 C 344.1 84.4 344.3 84.9 344.5 85.3 C 344.55 85.31 342.5 85.3 342.5 85.3 C 342.5 85.3 342.53 85.31 342.5 85.3 Z M 342 79.6 C 341.3 79.9 340.2 80.1 338.8 80.3 C 338 80.4 337.5 80.6 337.1 80.7 C 336.8 80.8 336.6 81.1 336.4 81.3 C 336.2 81.6 336.1 81.9 336.1 82.2 C 336.1 82.8 336.3 83.2 336.7 83.5 C 337.1 83.9 337.7 84.1 338.4 84.1 C 339.2 84.1 339.8 83.9 340.4 83.6 C 341 83.2 341.4 82.8 341.7 82.2 C 341.9 81.8 342 81.1 342 80.3 C 342 80.3 342 79.6 342 79.6 Z M 346.9 85.3 L 346.9 73.9 L 348.7 73.9 C 348.7 73.9 348.67 75.52 348.7 75.5 C 349.5 74.3 350.7 73.6 352.3 73.6 C 353 73.6 353.6 73.8 354.2 74 C 354.8 74.3 355.2 74.6 355.5 75 C 355.8 75.4 356 75.9 356.1 76.4 C 356.2 76.8 356.2 77.4 356.2 78.3 C 356.21 78.29 356.2 85.3 356.2 85.3 L 354.3 85.3 C 354.3 85.3 354.27 78.37 354.3 78.4 C 354.3 77.6 354.2 77 354 76.6 C 353.9 76.2 353.6 75.9 353.2 75.7 C 352.9 75.4 352.4 75.3 351.9 75.3 C 351.1 75.3 350.4 75.6 349.8 76.1 C 349.2 76.6 348.9 77.6 348.9 79.1 C 348.87 79.08 348.9 85.3 348.9 85.3 L 346.9 85.3 Z M 366.6 85.3 C 366.6 85.3 366.57 83.87 366.6 83.9 C 365.8 85 364.8 85.6 363.4 85.6 C 362.5 85.6 361.6 85.3 360.9 84.8 C 360.1 84.3 359.5 83.6 359.1 82.7 C 358.7 81.8 358.5 80.8 358.5 79.6 C 358.5 78.5 358.7 77.4 359 76.5 C 359.4 75.6 360 74.9 360.7 74.4 C 361.5 73.9 362.4 73.6 363.3 73.6 C 364 73.6 364.6 73.8 365.1 74.1 C 365.7 74.4 366.1 74.7 366.4 75.2 C 366.44 75.21 366.4 69.6 366.4 69.6 L 368.4 69.6 L 368.4 85.3 L 366.6 85.3 Z M 360.5 79.6 C 360.5 81.1 360.8 82.2 361.4 82.9 C 362 83.6 362.7 84 363.6 84 C 364.4 84 365.1 83.6 365.7 82.9 C 366.3 82.2 366.6 81.2 366.6 79.8 C 366.6 78.2 366.3 77.1 365.7 76.3 C 365.1 75.6 364.4 75.2 363.5 75.2 C 362.6 75.2 361.9 75.6 361.3 76.3 C 360.7 77 360.5 78.1 360.5 79.6 Z " stroke="none" fill="#fff"/>  </g>  <g id="Polygon61500">    <path d="M 36 58.9 L 42.1 43.2 L 44.3 43.2 L 50.8 58.9 L 48.4 58.9 L 46.5 54.1 L 40 54.1 L 38.2 58.9 L 36 58.9 Z M 40.6 52.4 L 45.9 52.4 C 45.9 52.4 44.26 48.08 44.3 48.1 C 43.8 46.8 43.4 45.7 43.1 44.8 C 42.9 45.8 42.7 46.8 42.3 47.8 C 42.29 47.82 40.6 52.4 40.6 52.4 Z M 52.2 63.3 L 52.2 47.5 L 53.9 47.5 C 53.9 47.5 53.94 48.98 53.9 49 C 54.4 48.4 54.8 48 55.3 47.7 C 55.9 47.4 56.5 47.2 57.2 47.2 C 58.2 47.2 59.1 47.5 59.8 48 C 60.6 48.5 61.1 49.2 61.5 50.1 C 61.9 51 62.1 52 62.1 53.1 C 62.1 54.3 61.9 55.3 61.5 56.3 C 61 57.2 60.4 57.9 59.6 58.4 C 58.8 58.9 58 59.2 57.1 59.2 C 56.5 59.2 55.9 59 55.4 58.8 C 54.9 58.5 54.4 58.1 54.1 57.7 C 54.11 57.73 54.1 63.3 54.1 63.3 L 52.2 63.3 Z M 53.9 53.3 C 53.9 54.7 54.2 55.8 54.8 56.5 C 55.4 57.2 56.1 57.6 57 57.6 C 57.8 57.6 58.6 57.2 59.2 56.5 C 59.8 55.8 60.1 54.6 60.1 53.1 C 60.1 51.7 59.8 50.6 59.2 49.8 C 58.6 49.1 57.9 48.8 57.1 48.8 C 56.2 48.8 55.5 49.1 54.9 49.9 C 54.2 50.7 53.9 51.8 53.9 53.3 Z M 64.4 63.3 L 64.4 47.5 L 66.2 47.5 C 66.2 47.5 66.17 48.98 66.2 49 C 66.6 48.4 67.1 48 67.6 47.7 C 68.1 47.4 68.7 47.2 69.5 47.2 C 70.5 47.2 71.3 47.5 72.1 48 C 72.8 48.5 73.4 49.2 73.7 50.1 C 74.1 51 74.3 52 74.3 53.1 C 74.3 54.3 74.1 55.3 73.7 56.3 C 73.3 57.2 72.7 57.9 71.9 58.4 C 71.1 58.9 70.2 59.2 69.3 59.2 C 68.7 59.2 68.1 59 67.6 58.8 C 67.1 58.5 66.7 58.1 66.3 57.7 C 66.34 57.73 66.3 63.3 66.3 63.3 L 64.4 63.3 Z M 66.2 53.3 C 66.2 54.7 66.5 55.8 67.1 56.5 C 67.6 57.2 68.4 57.6 69.2 57.6 C 70.1 57.6 70.8 57.2 71.4 56.5 C 72 55.8 72.3 54.6 72.3 53.1 C 72.3 51.7 72 50.6 71.4 49.8 C 70.8 49.1 70.1 48.8 69.3 48.8 C 68.5 48.8 67.7 49.1 67.1 49.9 C 66.5 50.7 66.2 51.8 66.2 53.3 Z M 76.6 58.9 L 76.6 47.5 L 78.4 47.5 C 78.4 47.5 78.36 49.23 78.4 49.2 C 78.8 48.4 79.2 47.9 79.6 47.6 C 80 47.4 80.4 47.2 80.8 47.2 C 81.5 47.2 82.1 47.5 82.8 47.9 C 82.8 47.9 82.2 49.7 82.2 49.7 C 81.7 49.4 81.2 49.2 80.7 49.2 C 80.3 49.2 79.9 49.4 79.6 49.6 C 79.3 49.9 79 50.2 78.9 50.7 C 78.7 51.4 78.6 52.1 78.6 52.9 C 78.56 52.94 78.6 58.9 78.6 58.9 L 76.6 58.9 Z M 83.3 53.2 C 83.3 51.1 83.8 49.5 85 48.5 C 86 47.7 87.2 47.2 88.6 47.2 C 90.2 47.2 91.5 47.8 92.4 48.8 C 93.4 49.8 93.9 51.2 93.9 53 C 93.9 54.5 93.7 55.7 93.3 56.5 C 92.8 57.3 92.2 58 91.4 58.5 C 90.5 58.9 89.6 59.2 88.6 59.2 C 87 59.2 85.7 58.7 84.7 57.6 C 83.7 56.6 83.3 55.1 83.3 53.2 Z M 85.2 53.2 C 85.2 54.7 85.6 55.8 86.2 56.5 C 86.8 57.2 87.6 57.6 88.6 57.6 C 89.6 57.6 90.4 57.2 91 56.5 C 91.6 55.8 92 54.6 92 53.1 C 92 51.7 91.6 50.7 91 49.9 C 90.4 49.2 89.6 48.8 88.6 48.8 C 87.6 48.8 86.8 49.2 86.2 49.9 C 85.6 50.7 85.2 51.7 85.2 53.2 Z M 99.4 58.9 L 95 47.5 L 97.1 47.5 C 97.1 47.5 99.53 54.33 99.5 54.3 C 99.8 55.1 100 55.8 100.3 56.6 C 100.4 56 100.7 55.3 101 54.5 C 100.98 54.46 103.5 47.5 103.5 47.5 L 105.5 47.5 L 101.2 58.9 L 99.4 58.9 Z M 115 55.2 C 115 55.2 117 55.5 117 55.5 C 116.7 56.6 116.1 57.6 115.3 58.2 C 114.4 58.8 113.3 59.2 112 59.2 C 110.3 59.2 109 58.7 108 57.6 C 107.1 56.6 106.6 55.2 106.6 53.3 C 106.6 51.4 107.1 49.9 108 48.8 C 109 47.8 110.3 47.2 111.9 47.2 C 113.4 47.2 114.7 47.8 115.6 48.8 C 116.6 49.8 117.1 51.3 117.1 53.2 C 117.1 53.3 117.1 53.5 117.1 53.7 C 117.1 53.7 108.6 53.7 108.6 53.7 C 108.6 55 109 55.9 109.6 56.6 C 110.3 57.2 111.1 57.6 112 57.6 C 112.7 57.6 113.3 57.4 113.8 57 C 114.3 56.6 114.7 56.1 115 55.2 Z M 108.7 52.1 C 108.7 52.1 115 52.1 115 52.1 C 115 51.1 114.7 50.4 114.3 49.9 C 113.7 49.2 112.9 48.8 111.9 48.8 C 111 48.8 110.3 49.1 109.7 49.7 C 109.1 50.3 108.7 51.1 108.7 52.1 Z M 126.8 58.9 C 126.8 58.9 126.84 57.47 126.8 57.5 C 126.1 58.6 125.1 59.2 123.7 59.2 C 122.7 59.2 121.9 58.9 121.1 58.4 C 120.4 57.9 119.8 57.2 119.4 56.3 C 119 55.4 118.7 54.4 118.7 53.2 C 118.7 52.1 118.9 51 119.3 50.1 C 119.7 49.2 120.3 48.5 121 48 C 121.8 47.5 122.6 47.2 123.6 47.2 C 124.3 47.2 124.9 47.4 125.4 47.7 C 125.9 48 126.4 48.3 126.7 48.8 C 126.71 48.81 126.7 43.2 126.7 43.2 L 128.6 43.2 L 128.6 58.9 L 126.8 58.9 Z M 120.7 53.2 C 120.7 54.7 121 55.8 121.7 56.5 C 122.3 57.2 123 57.6 123.8 57.6 C 124.7 57.6 125.4 57.2 126 56.5 C 126.6 55.8 126.9 54.8 126.9 53.4 C 126.9 51.8 126.6 50.7 126 49.9 C 125.4 49.2 124.6 48.8 123.7 48.8 C 122.9 48.8 122.2 49.2 121.6 49.9 C 121 50.6 120.7 51.7 120.7 53.2 Z M 139.6 58.9 L 137.8 58.9 L 137.8 43.2 L 139.7 43.2 C 139.7 43.2 139.71 48.78 139.7 48.8 C 140.5 47.8 141.6 47.2 142.8 47.2 C 143.5 47.2 144.2 47.4 144.8 47.7 C 145.5 47.9 146 48.3 146.4 48.9 C 146.8 49.4 147.1 50 147.3 50.7 C 147.6 51.4 147.7 52.2 147.7 53 C 147.7 55 147.2 56.5 146.2 57.6 C 145.3 58.6 144.1 59.2 142.7 59.2 C 141.4 59.2 140.3 58.6 139.6 57.5 C 139.57 57.48 139.6 58.9 139.6 58.9 Z M 139.6 53.1 C 139.6 54.5 139.7 55.5 140.1 56.1 C 140.7 57.1 141.5 57.6 142.6 57.6 C 143.4 57.6 144.2 57.2 144.8 56.5 C 145.4 55.7 145.7 54.6 145.7 53.2 C 145.7 51.7 145.4 50.6 144.8 49.9 C 144.2 49.2 143.5 48.8 142.7 48.8 C 141.8 48.8 141.1 49.2 140.5 49.9 C 139.9 50.7 139.6 51.7 139.6 53.1 Z M 151.2 63.5 C 150.8 63.5 150.4 63.5 149.9 63.3 C 149.9 63.3 149.7 61.5 149.7 61.5 C 150.1 61.6 150.5 61.7 150.8 61.7 C 151.3 61.7 151.6 61.6 151.9 61.4 C 152.1 61.3 152.3 61.1 152.5 60.8 C 152.6 60.6 152.8 60.2 153.1 59.4 C 153.1 59.3 153.2 59.1 153.3 58.9 C 153.26 58.93 148.9 47.5 148.9 47.5 L 151 47.5 C 151 47.5 153.39 54.11 153.4 54.1 C 153.7 54.9 154 55.8 154.2 56.7 C 154.4 55.9 154.7 55 155 54.1 C 155.01 54.15 157.4 47.5 157.4 47.5 L 159.4 47.5 C 159.4 47.5 155.04 59.1 155 59.1 C 154.6 60.4 154.2 61.2 154 61.7 C 153.6 62.3 153.2 62.8 152.8 63.1 C 152.3 63.4 151.8 63.5 151.2 63.5 C 151.2 63.5 151.2 63.5 151.2 63.5 Z M 168.9 58.9 L 167.1 58.9 L 167.1 43.2 L 169.1 43.2 C 169.1 43.2 169.06 48.78 169.1 48.8 C 169.9 47.8 170.9 47.2 172.2 47.2 C 172.9 47.2 173.6 47.4 174.2 47.7 C 174.8 47.9 175.3 48.3 175.7 48.9 C 176.1 49.4 176.4 50 176.7 50.7 C 176.9 51.4 177 52.2 177 53 C 177 55 176.5 56.5 175.6 57.6 C 174.6 58.6 173.4 59.2 172.1 59.2 C 170.7 59.2 169.7 58.6 168.9 57.5 C 168.92 57.48 168.9 58.9 168.9 58.9 Z M 168.9 53.1 C 168.9 54.5 169.1 55.5 169.5 56.1 C 170.1 57.1 170.9 57.6 171.9 57.6 C 172.8 57.6 173.5 57.2 174.1 56.5 C 174.7 55.7 175 54.6 175 53.2 C 175 51.7 174.7 50.6 174.2 49.9 C 173.6 49.2 172.9 48.8 172 48.8 C 171.2 48.8 170.4 49.2 169.8 49.9 C 169.2 50.7 168.9 51.7 168.9 53.1 Z M 178.7 53.2 C 178.7 51.1 179.2 49.5 180.4 48.5 C 181.4 47.7 182.6 47.2 184 47.2 C 185.6 47.2 186.9 47.8 187.8 48.8 C 188.8 49.8 189.3 51.2 189.3 53 C 189.3 54.5 189.1 55.7 188.7 56.5 C 188.2 57.3 187.6 58 186.8 58.5 C 185.9 58.9 185 59.2 184 59.2 C 182.4 59.2 181.1 58.7 180.1 57.6 C 179.1 56.6 178.7 55.1 178.7 53.2 Z M 180.6 53.2 C 180.6 54.7 181 55.8 181.6 56.5 C 182.2 57.2 183 57.6 184 57.6 C 185 57.6 185.8 57.2 186.4 56.5 C 187 55.8 187.4 54.6 187.4 53.1 C 187.4 51.7 187 50.7 186.4 49.9 C 185.8 49.2 185 48.8 184 48.8 C 183 48.8 182.2 49.2 181.6 49.9 C 181 50.7 180.6 51.7 180.6 53.2 Z M 195 57.3 C 195.2 57.3 195.5 57.2 195.8 57.2 C 195.8 57.2 196.1 58.9 196.1 58.9 C 195.6 59 195.1 59.1 194.6 59.1 C 193.9 59.1 193.4 58.9 193 58.7 C 192.6 58.5 192.4 58.2 192.2 57.9 C 192 57.5 192 56.7 192 55.6 C 191.96 55.57 192 49 192 49 L 190.5 49 L 190.5 47.5 L 192 47.5 L 192 44.7 L 193.9 43.5 L 193.9 47.5 L 195.8 47.5 L 195.8 49 L 193.9 49 C 193.9 49 193.89 55.67 193.9 55.7 C 193.9 56.2 193.9 56.6 194 56.7 C 194.1 56.9 194.2 57 194.3 57.1 C 194.5 57.2 194.7 57.3 195 57.3 C 195 57.3 195 57.3 195 57.3 Z M 197.7 58.9 L 197.7 43.2 L 199.7 43.2 C 199.7 43.2 199.65 48.81 199.7 48.8 C 200.6 47.8 201.7 47.2 203.1 47.2 C 203.9 47.2 204.6 47.4 205.3 47.7 C 205.9 48.1 206.3 48.5 206.6 49.1 C 206.9 49.7 207 50.6 207 51.7 C 207.01 51.68 207 58.9 207 58.9 L 205.1 58.9 C 205.1 58.9 205.08 51.68 205.1 51.7 C 205.1 50.7 204.9 50 204.5 49.6 C 204 49.1 203.4 48.9 202.7 48.9 C 202.1 48.9 201.6 49.1 201.1 49.4 C 200.6 49.7 200.2 50.1 200 50.6 C 199.8 51.1 199.7 51.8 199.7 52.7 C 199.65 52.67 199.7 58.9 199.7 58.9 L 197.7 58.9 Z M 215.7 51.2 C 215.7 48.6 216.4 46.6 217.8 45.1 C 219.2 43.6 221 42.9 223.2 42.9 C 224.7 42.9 226 43.2 227.2 43.9 C 228.3 44.6 229.2 45.6 229.8 46.8 C 230.4 48.1 230.7 49.5 230.7 51.1 C 230.7 52.7 230.4 54.1 229.8 55.3 C 229.1 56.6 228.2 57.6 227 58.2 C 225.9 58.9 224.6 59.2 223.2 59.2 C 221.7 59.2 220.4 58.8 219.2 58.1 C 218.1 57.4 217.2 56.4 216.6 55.2 C 216 53.9 215.7 52.6 215.7 51.2 Z M 217.8 51.3 C 217.8 53.2 218.3 54.7 219.4 55.8 C 220.4 56.8 221.7 57.4 223.2 57.4 C 224.8 57.4 226.1 56.8 227.1 55.7 C 228.1 54.6 228.6 53.1 228.6 51 C 228.6 49.8 228.4 48.6 227.9 47.7 C 227.5 46.7 226.9 46 226 45.5 C 225.2 44.9 224.3 44.7 223.2 44.7 C 221.8 44.7 220.5 45.2 219.4 46.2 C 218.4 47.2 217.8 48.9 217.8 51.3 Z M 233.6 58.9 L 233.6 49 L 231.9 49 L 231.9 47.5 L 233.6 47.5 C 233.6 47.5 233.64 46.29 233.6 46.3 C 233.6 45.5 233.7 45 233.8 44.6 C 234 44.1 234.4 43.7 234.8 43.4 C 235.3 43 236 42.9 236.8 42.9 C 237.3 42.9 237.9 43 238.6 43.1 C 238.6 43.1 238.3 44.8 238.3 44.8 C 237.9 44.7 237.5 44.7 237.2 44.7 C 236.6 44.7 236.2 44.8 235.9 45 C 235.7 45.3 235.6 45.8 235.6 46.4 C 235.56 46.45 235.6 47.5 235.6 47.5 L 237.8 47.5 L 237.8 49 L 235.6 49 L 235.6 58.9 L 233.6 58.9 Z M 246.6 63.3 C 246.6 63.3 246.56 57.69 246.6 57.7 C 246.3 58.1 245.8 58.5 245.3 58.7 C 244.8 59 244.2 59.2 243.6 59.2 C 242.2 59.2 241.1 58.6 240.1 57.5 C 239.1 56.5 238.6 55 238.6 53.1 C 238.6 52 238.8 50.9 239.2 50 C 239.6 49.1 240.2 48.4 240.9 47.9 C 241.7 47.5 242.5 47.2 243.4 47.2 C 244.8 47.2 245.9 47.8 246.8 49 C 246.76 49.03 246.8 47.5 246.8 47.5 L 248.5 47.5 L 248.5 63.3 L 246.6 63.3 Z M 240.6 53.2 C 240.6 54.6 240.9 55.7 241.5 56.5 C 242.1 57.2 242.9 57.6 243.7 57.6 C 244.6 57.6 245.3 57.2 245.9 56.5 C 246.5 55.8 246.8 54.8 246.8 53.3 C 246.8 51.8 246.4 50.7 245.8 49.9 C 245.2 49.2 244.5 48.8 243.6 48.8 C 242.8 48.8 242.1 49.1 241.5 49.8 C 240.9 50.5 240.6 51.7 240.6 53.2 Z M 259 58.9 C 259 58.9 259 57.23 259 57.2 C 258.1 58.5 256.9 59.2 255.4 59.2 C 254.7 59.2 254.1 59 253.5 58.8 C 252.9 58.5 252.5 58.2 252.2 57.8 C 251.9 57.4 251.7 56.9 251.6 56.4 C 251.5 56 251.5 55.4 251.5 54.6 C 251.48 54.57 251.5 47.5 251.5 47.5 L 253.4 47.5 C 253.4 47.5 253.42 53.83 253.4 53.8 C 253.4 54.8 253.5 55.5 253.5 55.9 C 253.7 56.4 253.9 56.8 254.3 57.1 C 254.7 57.4 255.2 57.5 255.8 57.5 C 256.4 57.5 256.9 57.4 257.4 57.1 C 257.9 56.8 258.3 56.4 258.5 55.8 C 258.7 55.3 258.8 54.6 258.8 53.6 C 258.8 53.61 258.8 47.5 258.8 47.5 L 260.7 47.5 L 260.7 58.9 L 259 58.9 Z M 271.6 58.9 C 271.4 58.5 271.3 58 271.2 57.5 C 270.5 58.1 269.8 58.5 269.1 58.8 C 268.5 59 267.8 59.2 267 59.2 C 265.8 59.2 264.8 58.9 264.1 58.2 C 263.4 57.6 263.1 56.9 263.1 55.9 C 263.1 55.3 263.2 54.8 263.5 54.4 C 263.7 53.9 264.1 53.5 264.5 53.3 C 264.9 53 265.4 52.8 265.9 52.6 C 266.3 52.5 266.8 52.4 267.6 52.3 C 269.2 52.1 270.3 51.9 271 51.7 C 271.1 51.4 271.1 51.2 271.1 51.2 C 271.1 50.4 270.9 49.8 270.5 49.5 C 270 49.1 269.3 48.8 268.3 48.8 C 267.4 48.8 266.7 49 266.3 49.3 C 265.9 49.6 265.5 50.2 265.3 51 C 265.3 51 263.4 50.8 263.4 50.8 C 263.6 49.9 263.9 49.3 264.3 48.8 C 264.7 48.3 265.3 47.9 266 47.6 C 266.7 47.4 267.6 47.2 268.6 47.2 C 269.6 47.2 270.4 47.4 271 47.6 C 271.6 47.8 272 48.1 272.3 48.5 C 272.6 48.8 272.8 49.2 272.9 49.8 C 273 50.1 273 50.7 273 51.5 C 273 51.5 273 54.1 273 54.1 C 273 55.9 273 57.1 273.1 57.5 C 273.2 58 273.4 58.5 273.6 58.9 C 273.61 58.91 271.6 58.9 271.6 58.9 C 271.6 58.9 271.59 58.91 271.6 58.9 Z M 271 53.2 C 270.3 53.5 269.3 53.7 267.9 53.9 C 267.1 54 266.5 54.2 266.2 54.3 C 265.9 54.4 265.6 54.7 265.4 54.9 C 265.3 55.2 265.2 55.5 265.2 55.8 C 265.2 56.4 265.4 56.8 265.8 57.1 C 266.1 57.5 266.7 57.7 267.5 57.7 C 268.2 57.7 268.9 57.5 269.5 57.2 C 270 56.8 270.5 56.4 270.7 55.8 C 270.9 55.4 271 54.7 271 53.9 C 271 53.9 271 53.2 271 53.2 Z M 276 58.9 L 276 43.2 L 277.9 43.2 L 277.9 58.9 L 276 58.9 Z M 294.8 58.9 C 294.6 58.5 294.5 58 294.4 57.5 C 293.7 58.1 293 58.5 292.4 58.8 C 291.7 59 291 59.2 290.2 59.2 C 289 59.2 288 58.9 287.4 58.2 C 286.7 57.6 286.3 56.9 286.3 55.9 C 286.3 55.3 286.5 54.8 286.7 54.4 C 287 53.9 287.3 53.5 287.7 53.3 C 288.1 53 288.6 52.8 289.1 52.6 C 289.5 52.5 290.1 52.4 290.8 52.3 C 292.4 52.1 293.5 51.9 294.3 51.7 C 294.3 51.4 294.3 51.2 294.3 51.2 C 294.3 50.4 294.1 49.8 293.7 49.5 C 293.3 49.1 292.5 48.8 291.5 48.8 C 290.6 48.8 290 49 289.5 49.3 C 289.1 49.6 288.8 50.2 288.6 51 C 288.6 51 286.7 50.8 286.7 50.8 C 286.8 49.9 287.1 49.3 287.5 48.8 C 287.9 48.3 288.5 47.9 289.2 47.6 C 290 47.4 290.8 47.2 291.8 47.2 C 292.8 47.2 293.6 47.4 294.2 47.6 C 294.8 47.8 295.3 48.1 295.5 48.5 C 295.8 48.8 296 49.2 296.1 49.8 C 296.2 50.1 296.2 50.7 296.2 51.5 C 296.2 51.5 296.2 54.1 296.2 54.1 C 296.2 55.9 296.3 57.1 296.4 57.5 C 296.4 58 296.6 58.5 296.8 58.9 C 296.85 58.91 294.8 58.9 294.8 58.9 C 294.8 58.9 294.83 58.91 294.8 58.9 Z M 294.3 53.2 C 293.6 53.5 292.5 53.7 291.1 53.9 C 290.3 54 289.8 54.2 289.4 54.3 C 289.1 54.4 288.9 54.7 288.7 54.9 C 288.5 55.2 288.4 55.5 288.4 55.8 C 288.4 56.4 288.6 56.8 289 57.1 C 289.4 57.5 290 57.7 290.7 57.7 C 291.4 57.7 292.1 57.5 292.7 57.2 C 293.3 56.8 293.7 56.4 294 55.8 C 294.2 55.4 294.3 54.7 294.3 53.9 C 294.3 53.9 294.3 53.2 294.3 53.2 Z M 299.2 58.9 L 299.2 47.5 L 301 47.5 C 301 47.5 300.97 49.12 301 49.1 C 301.8 47.9 303 47.2 304.6 47.2 C 305.3 47.2 305.9 47.4 306.5 47.6 C 307.1 47.9 307.5 48.2 307.8 48.6 C 308.1 49 308.3 49.5 308.4 50 C 308.5 50.4 308.5 51 308.5 51.9 C 308.5 51.89 308.5 58.9 308.5 58.9 L 306.6 58.9 C 306.6 58.9 306.57 51.97 306.6 52 C 306.6 51.2 306.5 50.6 306.3 50.2 C 306.2 49.8 305.9 49.5 305.5 49.3 C 305.2 49 304.7 48.9 304.2 48.9 C 303.4 48.9 302.7 49.2 302.1 49.7 C 301.5 50.2 301.2 51.2 301.2 52.7 C 301.17 52.68 301.2 58.9 301.2 58.9 L 299.2 58.9 Z M 318.9 58.9 C 318.9 58.9 318.87 57.47 318.9 57.5 C 318.1 58.6 317.1 59.2 315.7 59.2 C 314.8 59.2 313.9 58.9 313.2 58.4 C 312.4 57.9 311.8 57.2 311.4 56.3 C 311 55.4 310.8 54.4 310.8 53.2 C 310.8 52.1 311 51 311.3 50.1 C 311.7 49.2 312.3 48.5 313 48 C 313.8 47.5 314.7 47.2 315.6 47.2 C 316.3 47.2 316.9 47.4 317.4 47.7 C 318 48 318.4 48.3 318.7 48.8 C 318.74 48.81 318.7 43.2 318.7 43.2 L 320.7 43.2 L 320.7 58.9 L 318.9 58.9 Z M 312.8 53.2 C 312.8 54.7 313.1 55.8 313.7 56.5 C 314.3 57.2 315 57.6 315.9 57.6 C 316.7 57.6 317.4 57.2 318 56.5 C 318.6 55.8 318.9 54.8 318.9 53.4 C 318.9 51.8 318.6 50.7 318 49.9 C 317.4 49.2 316.7 48.8 315.8 48.8 C 314.9 48.8 314.2 49.2 313.6 49.9 C 313 50.6 312.8 51.7 312.8 53.2 Z M 333.2 57.3 C 333.4 57.3 333.7 57.2 334 57.2 C 334 57.2 334.3 58.9 334.3 58.9 C 333.8 59 333.3 59.1 332.9 59.1 C 332.2 59.1 331.6 58.9 331.2 58.7 C 330.8 58.5 330.6 58.2 330.4 57.9 C 330.3 57.5 330.2 56.7 330.2 55.6 C 330.17 55.57 330.2 49 330.2 49 L 328.8 49 L 328.8 47.5 L 330.2 47.5 L 330.2 44.7 L 332.1 43.5 L 332.1 47.5 L 334 47.5 L 334 49 L 332.1 49 C 332.1 49 332.09 55.67 332.1 55.7 C 332.1 56.2 332.1 56.6 332.2 56.7 C 332.3 56.9 332.4 57 332.5 57.1 C 332.7 57.2 332.9 57.3 333.2 57.3 C 333.2 57.3 333.2 57.3 333.2 57.3 Z M 335.9 58.9 L 335.9 43.2 L 337.9 43.2 C 337.9 43.2 337.86 48.81 337.9 48.8 C 338.8 47.8 339.9 47.2 341.3 47.2 C 342.1 47.2 342.9 47.4 343.5 47.7 C 344.1 48.1 344.5 48.5 344.8 49.1 C 345.1 49.7 345.2 50.6 345.2 51.7 C 345.22 51.68 345.2 58.9 345.2 58.9 L 343.3 58.9 C 343.3 58.9 343.29 51.68 343.3 51.7 C 343.3 50.7 343.1 50 342.7 49.6 C 342.2 49.1 341.6 48.9 340.9 48.9 C 340.3 48.9 339.8 49.1 339.3 49.4 C 338.8 49.7 338.4 50.1 338.2 50.6 C 338 51.1 337.9 51.8 337.9 52.7 C 337.86 52.67 337.9 58.9 337.9 58.9 L 335.9 58.9 Z M 356 55.2 C 356 55.2 358 55.5 358 55.5 C 357.7 56.6 357.1 57.6 356.2 58.2 C 355.4 58.8 354.3 59.2 353 59.2 C 351.3 59.2 350 58.7 349 57.6 C 348 56.6 347.5 55.2 347.5 53.3 C 347.5 51.4 348 49.9 349 48.8 C 350 47.8 351.3 47.2 352.8 47.2 C 354.4 47.2 355.6 47.8 356.6 48.8 C 357.6 49.8 358 51.3 358 53.2 C 358 53.3 358 53.5 358 53.7 C 358 53.7 349.5 53.7 349.5 53.7 C 349.6 55 349.9 55.9 350.6 56.6 C 351.2 57.2 352 57.6 353 57.6 C 353.7 57.6 354.3 57.4 354.8 57 C 355.3 56.6 355.7 56.1 356 55.2 Z M 349.6 52.1 C 349.6 52.1 356 52.1 356 52.1 C 355.9 51.1 355.7 50.4 355.3 49.9 C 354.6 49.2 353.9 48.8 352.9 48.8 C 352 48.8 351.2 49.1 350.6 49.7 C 350 50.3 349.7 51.1 349.6 52.1 Z " stroke="none" fill="#fff"/>  </g></svg>