<?xml version="1.0" standalone="no"?><!DOCTYPE svg PUBLIC "-//W3C//DTD SVG 1.1//EN" "http://www.w3.org/Graphics/SVG/1.1/DTD/svg11.dtd"><svg xmlns="http://www.w3.org/2000/svg" version="1.1" width="455.5px" height="57.4px" viewBox="0 -1 455.5 57.4" style="top:-1px">  <desc>solutions across Various</desc>  <defs/>  <g id="Polygon68891">    <path d="M 7.8 13.3 C 9.4 13.3 11.1 13.8 12.8 14.7 C 12.8 14.7 12.8 16.6 12.8 16.6 C 10.9 15.5 9.3 14.9 7.9 14.9 C 6.6 14.9 5.5 15.3 4.6 16.1 C 3.7 16.9 3.3 17.9 3.3 19.1 C 3.3 19.9 3.6 20.7 4.1 21.3 C 4.6 22 5.7 22.7 7.3 23.3 C 9 23.9 10.2 24.4 11 24.8 C 11.7 25.3 12.4 25.9 12.9 26.7 C 13.4 27.5 13.7 28.5 13.7 29.7 C 13.7 31.4 13.1 32.8 11.9 34 C 10.6 35.1 9.1 35.7 7.4 35.7 C 5.5 35.7 3.7 35.1 1.8 33.8 C 1.8 33.8 1.8 31.8 1.8 31.8 C 3.9 33.4 5.7 34.2 7.3 34.2 C 8.6 34.2 9.6 33.7 10.5 32.9 C 11.4 32.1 11.9 31 11.9 29.8 C 11.9 28.9 11.6 28.1 11 27.3 C 10.5 26.6 9.4 25.9 7.7 25.2 C 6 24.6 4.8 24.1 4.1 23.7 C 3.3 23.3 2.7 22.7 2.2 22 C 1.7 21.2 1.5 20.3 1.5 19.1 C 1.5 17.5 2.1 16.2 3.3 15 C 4.5 13.9 6 13.3 7.8 13.3 C 7.8 13.3 7.8 13.3 7.8 13.3 Z M 28.2 13.3 C 31.4 13.3 34.1 14.4 36.4 16.6 C 38.6 18.8 39.8 21.4 39.8 24.5 C 39.8 27.7 38.6 30.3 36.4 32.5 C 34.1 34.6 31.4 35.7 28.2 35.7 C 25 35.7 22.2 34.6 20 32.5 C 17.8 30.3 16.6 27.7 16.6 24.5 C 16.6 21.4 17.8 18.8 20 16.6 C 22.2 14.4 25 13.3 28.2 13.3 Z M 28.2 34.2 C 31 34.2 33.2 33.2 35.1 31.4 C 37 29.5 37.9 27.2 37.9 24.5 C 37.9 21.8 37 19.5 35.1 17.7 C 33.2 15.8 31 14.9 28.2 14.9 C 25.5 14.9 23.2 15.8 21.3 17.7 C 19.4 19.5 18.5 21.8 18.5 24.5 C 18.5 27.2 19.4 29.5 21.3 31.4 C 23.2 33.2 25.5 34.2 28.2 34.2 Z M 45.6 13.6 L 45.6 34 L 56.4 34 L 56.4 35.4 L 43.9 35.4 L 43.9 13.6 L 45.6 13.6 Z M 75 13.6 L 76.7 13.6 C 76.7 13.6 76.69 25.52 76.7 25.5 C 76.7 28.8 75.8 31.3 74.1 33.1 C 72.4 34.8 70.2 35.7 67.5 35.7 C 64.9 35.7 62.7 34.8 61 33.1 C 59.3 31.3 58.4 29 58.4 25.9 C 58.42 25.91 58.4 13.6 58.4 13.6 L 60.1 13.6 C 60.1 13.6 60.13 25.85 60.1 25.8 C 60.1 28.5 60.8 30.5 62.2 32 C 63.6 33.4 65.4 34.2 67.5 34.2 C 69.8 34.2 71.5 33.4 72.9 31.9 C 74.3 30.5 75 28.3 75 25.6 C 75 25.61 75 13.6 75 13.6 Z M 96.9 13.6 L 96.9 15 L 88.7 15 L 88.7 35.4 L 87 35.4 L 87 15 L 78.8 15 L 78.8 13.6 L 96.9 13.6 Z M 101.3 13.6 L 101.3 35.4 L 99.6 35.4 L 99.6 13.6 L 101.3 13.6 Z M 116.9 13.3 C 120.1 13.3 122.8 14.4 125.1 16.6 C 127.3 18.8 128.5 21.4 128.5 24.5 C 128.5 27.7 127.3 30.3 125.1 32.5 C 122.8 34.6 120.1 35.7 116.9 35.7 C 113.7 35.7 110.9 34.6 108.7 32.5 C 106.5 30.3 105.3 27.7 105.3 24.5 C 105.3 21.4 106.5 18.8 108.7 16.6 C 110.9 14.4 113.7 13.3 116.9 13.3 Z M 116.9 34.2 C 119.7 34.2 122 33.2 123.8 31.4 C 125.7 29.5 126.6 27.2 126.6 24.5 C 126.6 21.8 125.7 19.5 123.8 17.7 C 122 15.8 119.7 14.9 116.9 14.9 C 114.2 14.9 111.9 15.8 110 17.7 C 108.1 19.5 107.2 21.8 107.2 24.5 C 107.2 27.2 108.1 29.5 110 31.4 C 111.9 33.2 114.2 34.2 116.9 34.2 Z M 152.2 13.6 L 152.2 35.4 L 150.8 35.4 L 134.3 16.4 L 134.3 35.4 L 132.6 35.4 L 132.6 13.6 L 134 13.6 L 150.5 32.7 L 150.5 13.6 L 152.2 13.6 Z M 162.5 13.3 C 164.2 13.3 165.9 13.8 167.5 14.7 C 167.5 14.7 167.5 16.6 167.5 16.6 C 165.6 15.5 164 14.9 162.6 14.9 C 161.3 14.9 160.2 15.3 159.4 16.1 C 158.5 16.9 158 17.9 158 19.1 C 158 19.9 158.3 20.7 158.8 21.3 C 159.3 22 160.4 22.7 162.1 23.3 C 163.7 23.9 164.9 24.4 165.7 24.8 C 166.5 25.3 167.1 25.9 167.6 26.7 C 168.2 27.5 168.4 28.5 168.4 29.7 C 168.4 31.4 167.8 32.8 166.6 34 C 165.4 35.1 163.9 35.7 162.1 35.7 C 160.3 35.7 158.4 35.1 156.5 33.8 C 156.5 33.8 156.5 31.8 156.5 31.8 C 158.6 33.4 160.4 34.2 162 34.2 C 163.3 34.2 164.4 33.7 165.3 32.9 C 166.2 32.1 166.6 31 166.6 29.8 C 166.6 28.9 166.3 28.1 165.8 27.3 C 165.2 26.6 164.1 25.9 162.4 25.2 C 160.7 24.6 159.5 24.1 158.8 23.7 C 158.1 23.3 157.5 22.7 157 22 C 156.5 21.2 156.2 20.3 156.2 19.1 C 156.2 17.5 156.8 16.2 158 15 C 159.3 13.9 160.8 13.3 162.5 13.3 C 162.5 13.3 162.5 13.3 162.5 13.3 Z M 187.9 13.5 L 198 35.4 L 196.2 35.4 L 192.7 27.9 L 182.1 27.9 L 178.6 35.4 L 176.8 35.4 L 186.9 13.5 L 187.9 13.5 Z M 192.1 26.5 L 187.4 16.2 L 182.7 26.5 L 192.1 26.5 Z M 209.5 13.3 C 212 13.3 214.5 13.9 217.2 15.2 C 217.2 15.2 217.2 17 217.2 17 C 214.5 15.6 211.9 14.9 209.4 14.9 C 206.7 14.9 204.4 15.8 202.6 17.7 C 200.8 19.5 199.9 21.8 199.9 24.6 C 199.9 27.4 200.8 29.7 202.6 31.5 C 204.4 33.3 206.8 34.2 209.6 34.2 C 212 34.2 214.6 33.4 217.4 31.9 C 217.4 31.9 217.4 33.7 217.4 33.7 C 214.8 35 212.2 35.7 209.7 35.7 C 206.3 35.7 203.6 34.7 201.4 32.5 C 199.1 30.4 198 27.7 198 24.6 C 198 21.4 199.2 18.7 201.4 16.6 C 203.7 14.4 206.4 13.3 209.5 13.3 C 209.5 13.3 209.5 13.3 209.5 13.3 Z M 220.7 13.6 C 220.7 13.6 226.25 13.61 226.3 13.6 C 228.6 13.6 230.4 14.1 231.6 15.1 C 232.9 16.2 233.5 17.5 233.5 19.3 C 233.5 21.8 232.1 23.5 229.3 24.6 C 230 24.9 231 26 232.2 27.9 C 232.23 27.9 237.2 35.4 237.2 35.4 L 235.2 35.4 C 235.2 35.4 231.37 29.46 231.4 29.5 C 230.1 27.5 229.1 26.2 228.4 25.7 C 227.7 25.2 226.7 25 225.3 25 C 225.3 24.97 222.3 25 222.3 25 L 222.3 35.4 L 220.7 35.4 L 220.7 13.6 Z M 222.3 15 L 222.3 23.6 C 222.3 23.6 225.97 23.57 226 23.6 C 227.8 23.6 229.2 23.2 230.2 22.5 C 231.2 21.7 231.7 20.7 231.7 19.3 C 231.7 17.9 231.2 16.9 230.2 16.1 C 229.2 15.4 227.8 15 225.9 15 C 225.91 15.02 222.3 15 222.3 15 Z M 249.1 13.3 C 252.4 13.3 255.1 14.4 257.4 16.6 C 259.6 18.8 260.7 21.4 260.7 24.5 C 260.7 27.7 259.6 30.3 257.4 32.5 C 255.1 34.6 252.4 35.7 249.1 35.7 C 245.9 35.7 243.2 34.6 241 32.5 C 238.7 30.3 237.6 27.7 237.6 24.5 C 237.6 21.4 238.7 18.8 241 16.6 C 243.2 14.4 245.9 13.3 249.1 13.3 Z M 249.2 34.2 C 251.9 34.2 254.2 33.2 256.1 31.4 C 258 29.5 258.9 27.2 258.9 24.5 C 258.9 21.8 258 19.5 256.1 17.7 C 254.2 15.8 251.9 14.9 249.2 14.9 C 246.5 14.9 244.2 15.8 242.3 17.7 C 240.4 19.5 239.4 21.8 239.4 24.5 C 239.4 27.2 240.4 29.5 242.3 31.4 C 244.2 33.2 246.5 34.2 249.2 34.2 Z M 270.1 13.3 C 271.8 13.3 273.5 13.8 275.1 14.7 C 275.1 14.7 275.1 16.6 275.1 16.6 C 273.2 15.5 271.6 14.9 270.2 14.9 C 268.9 14.9 267.8 15.3 266.9 16.1 C 266.1 16.9 265.6 17.9 265.6 19.1 C 265.6 19.9 265.9 20.7 266.4 21.3 C 266.9 22 268 22.7 269.7 23.3 C 271.3 23.9 272.5 24.4 273.3 24.8 C 274.1 25.3 274.7 25.9 275.2 26.7 C 275.8 27.5 276 28.5 276 29.7 C 276 31.4 275.4 32.8 274.2 34 C 273 35.1 271.5 35.7 269.7 35.7 C 267.9 35.7 266 35.1 264.1 33.8 C 264.1 33.8 264.1 31.8 264.1 31.8 C 266.2 33.4 268 34.2 269.6 34.2 C 270.9 34.2 272 33.7 272.9 32.9 C 273.8 32.1 274.2 31 274.2 29.8 C 274.2 28.9 273.9 28.1 273.4 27.3 C 272.8 26.6 271.7 25.9 270 25.2 C 268.3 24.6 267.1 24.1 266.4 23.7 C 265.7 23.3 265.1 22.7 264.6 22 C 264 21.2 263.8 20.3 263.8 19.1 C 263.8 17.5 264.4 16.2 265.6 15 C 266.9 13.9 268.3 13.3 270.1 13.3 C 270.1 13.3 270.1 13.3 270.1 13.3 Z M 285.1 13.3 C 286.8 13.3 288.5 13.8 290.1 14.7 C 290.1 14.7 290.1 16.6 290.1 16.6 C 288.2 15.5 286.6 14.9 285.3 14.9 C 283.9 14.9 282.8 15.3 282 16.1 C 281.1 16.9 280.6 17.9 280.6 19.1 C 280.6 19.9 280.9 20.7 281.4 21.3 C 281.9 22 283 22.7 284.7 23.3 C 286.3 23.9 287.6 24.4 288.3 24.8 C 289.1 25.3 289.7 25.9 290.3 26.7 C 290.8 27.5 291 28.5 291 29.7 C 291 31.4 290.4 32.8 289.2 34 C 288 35.1 286.5 35.7 284.7 35.7 C 282.9 35.7 281 35.1 279.1 33.8 C 279.1 33.8 279.1 31.8 279.1 31.8 C 281.2 33.4 283.1 34.2 284.6 34.2 C 285.9 34.2 287 33.7 287.9 32.9 C 288.8 32.1 289.2 31 289.2 29.8 C 289.2 28.9 288.9 28.1 288.4 27.3 C 287.8 26.6 286.7 25.9 285 25.2 C 283.3 24.6 282.1 24.1 281.4 23.7 C 280.7 23.3 280.1 22.7 279.6 22 C 279.1 21.2 278.8 20.3 278.8 19.1 C 278.8 17.5 279.4 16.2 280.7 15 C 281.9 13.9 283.4 13.3 285.1 13.3 C 285.1 13.3 285.1 13.3 285.1 13.3 Z M 315.7 13.6 L 306.5 35.7 L 306 35.7 L 296.9 13.6 L 298.6 13.6 L 306.3 32.1 L 314 13.6 L 315.7 13.6 Z M 325 13.5 L 335.1 35.4 L 333.3 35.4 L 329.9 27.9 L 319.2 27.9 L 315.8 35.4 L 314 35.4 L 324.1 13.5 L 325 13.5 Z M 329.2 26.5 L 324.5 16.2 L 319.8 26.5 L 329.2 26.5 Z M 337.7 13.6 C 337.7 13.6 343.33 13.61 343.3 13.6 C 345.7 13.6 347.5 14.1 348.7 15.1 C 349.9 16.2 350.6 17.5 350.6 19.3 C 350.6 21.8 349.2 23.5 346.4 24.6 C 347.1 24.9 348.1 26 349.3 27.9 C 349.31 27.9 354.3 35.4 354.3 35.4 L 352.3 35.4 C 352.3 35.4 348.45 29.46 348.5 29.5 C 347.2 27.5 346.2 26.2 345.5 25.7 C 344.8 25.2 343.7 25 342.4 25 C 342.37 24.97 339.4 25 339.4 25 L 339.4 35.4 L 337.7 35.4 L 337.7 13.6 Z M 339.4 15 L 339.4 23.6 C 339.4 23.6 343.05 23.57 343 23.6 C 344.9 23.6 346.3 23.2 347.3 22.5 C 348.2 21.7 348.7 20.7 348.7 19.3 C 348.7 17.9 348.2 16.9 347.3 16.1 C 346.3 15.4 344.8 15 343 15 C 342.98 15.02 339.4 15 339.4 15 Z M 357.7 13.6 L 357.7 35.4 L 356 35.4 L 356 13.6 L 357.7 13.6 Z M 373.4 13.3 C 376.6 13.3 379.3 14.4 381.6 16.6 C 383.8 18.8 384.9 21.4 384.9 24.5 C 384.9 27.7 383.8 30.3 381.6 32.5 C 379.3 34.6 376.6 35.7 373.4 35.7 C 370.1 35.7 367.4 34.6 365.2 32.5 C 362.9 30.3 361.8 27.7 361.8 24.5 C 361.8 21.4 362.9 18.8 365.2 16.6 C 367.4 14.4 370.1 13.3 373.4 13.3 Z M 373.4 34.2 C 376.1 34.2 378.4 33.2 380.3 31.4 C 382.2 29.5 383.1 27.2 383.1 24.5 C 383.1 21.8 382.2 19.5 380.3 17.7 C 378.4 15.8 376.1 14.9 373.4 14.9 C 370.7 14.9 368.4 15.8 366.5 17.7 C 364.6 19.5 363.7 21.8 363.7 24.5 C 363.7 27.2 364.6 29.5 366.5 31.4 C 368.4 33.2 370.7 34.2 373.4 34.2 Z M 405.2 13.6 L 406.9 13.6 C 406.9 13.6 406.86 25.52 406.9 25.5 C 406.9 28.8 406 31.3 404.3 33.1 C 402.6 34.8 400.4 35.7 397.7 35.7 C 395 35.7 392.8 34.8 391.1 33.1 C 389.4 31.3 388.6 29 388.6 25.9 C 388.59 25.91 388.6 13.6 388.6 13.6 L 390.3 13.6 C 390.3 13.6 390.3 25.85 390.3 25.8 C 390.3 28.5 391 30.5 392.4 32 C 393.7 33.4 395.5 34.2 397.7 34.2 C 399.9 34.2 401.7 33.4 403.1 31.9 C 404.5 30.5 405.2 28.3 405.2 25.6 C 405.17 25.61 405.2 13.6 405.2 13.6 Z M 416.6 13.3 C 418.3 13.3 420 13.8 421.7 14.7 C 421.7 14.7 421.7 16.6 421.7 16.6 C 419.8 15.5 418.2 14.9 416.8 14.9 C 415.5 14.9 414.4 15.3 413.5 16.1 C 412.6 16.9 412.2 17.9 412.2 19.1 C 412.2 19.9 412.4 20.7 413 21.3 C 413.5 22 414.6 22.7 416.2 23.3 C 417.9 23.9 419.1 24.4 419.9 24.8 C 420.6 25.3 421.3 25.9 421.8 26.7 C 422.3 27.5 422.6 28.5 422.6 29.7 C 422.6 31.4 422 32.8 420.8 34 C 419.5 35.1 418 35.7 416.3 35.7 C 414.4 35.7 412.6 35.1 410.7 33.8 C 410.7 33.8 410.7 31.8 410.7 31.8 C 412.8 33.4 414.6 34.2 416.2 34.2 C 417.4 34.2 418.5 33.7 419.4 32.9 C 420.3 32.1 420.8 31 420.8 29.8 C 420.8 28.9 420.5 28.1 419.9 27.3 C 419.4 26.6 418.3 25.9 416.6 25.2 C 414.9 24.6 413.7 24.1 413 23.7 C 412.2 23.3 411.6 22.7 411.1 22 C 410.6 21.2 410.4 20.3 410.4 19.1 C 410.4 17.5 411 16.2 412.2 15 C 413.4 13.9 414.9 13.3 416.6 13.3 C 416.6 13.3 416.6 13.3 416.6 13.3 Z " stroke="none" fill="#000"/>  </g></svg>