<?xml version="1.0" standalone="no"?><!DOCTYPE svg PUBLIC "-//W3C//DTD SVG 1.1//EN" "http://www.w3.org/Graphics/SVG/1.1/DTD/svg11.dtd"><svg xmlns="http://www.w3.org/2000/svg" version="1.1" width="86px" height="25.1px" viewBox="0 -4 86 25.1" style="top:-4px">  <desc>Contact Us</desc>  <defs/>  <g id="Polygon64442">    <path d="M 15.2 7.7 C 15.2 7.7 16.5 8 16.5 8 C 16.3 9.1 15.7 10 15 10.6 C 14.2 11.2 13.3 11.5 12.2 11.5 C 11.1 11.5 10.1 11.3 9.4 10.8 C 8.7 10.4 8.2 9.7 7.8 8.8 C 7.5 7.9 7.3 7 7.3 6 C 7.3 4.9 7.5 4 7.9 3.1 C 8.3 2.3 8.9 1.7 9.7 1.3 C 10.4 0.9 11.3 0.7 12.2 0.7 C 13.3 0.7 14.2 0.9 14.9 1.5 C 15.6 2 16.1 2.7 16.4 3.7 C 16.4 3.7 15 4 15 4 C 14.8 3.3 14.4 2.7 13.9 2.4 C 13.5 2 12.9 1.8 12.2 1.8 C 11.4 1.8 10.7 2 10.2 2.4 C 9.6 2.8 9.2 3.3 9 4 C 8.8 4.6 8.7 5.3 8.7 6 C 8.7 6.9 8.8 7.7 9.1 8.3 C 9.4 9 9.8 9.5 10.3 9.8 C 10.9 10.2 11.4 10.3 12.1 10.3 C 12.9 10.3 13.5 10.1 14.1 9.7 C 14.6 9.2 15 8.5 15.2 7.7 Z M 17.6 7.5 C 17.6 6.1 18 5.1 18.8 4.4 C 19.4 3.8 20.2 3.6 21.2 3.6 C 22.2 3.6 23.1 3.9 23.7 4.6 C 24.4 5.3 24.7 6.2 24.7 7.4 C 24.7 8.4 24.6 9.2 24.3 9.7 C 24 10.3 23.6 10.7 23 11 C 22.5 11.4 21.8 11.5 21.2 11.5 C 20.1 11.5 19.3 11.2 18.6 10.5 C 17.9 9.8 17.6 8.8 17.6 7.5 Z M 18.9 7.5 C 18.9 8.5 19.2 9.2 19.6 9.7 C 20 10.2 20.5 10.4 21.2 10.4 C 21.8 10.4 22.4 10.2 22.8 9.7 C 23.2 9.2 23.4 8.5 23.4 7.5 C 23.4 6.5 23.2 5.8 22.8 5.3 C 22.3 4.9 21.8 4.6 21.2 4.6 C 20.5 4.6 20 4.9 19.6 5.3 C 19.2 5.8 18.9 6.6 18.9 7.5 Z M 26.3 11.3 L 26.3 3.7 L 27.4 3.7 C 27.4 3.7 27.41 4.81 27.4 4.8 C 28 4 28.8 3.6 29.8 3.6 C 30.3 3.6 30.7 3.6 31.1 3.8 C 31.5 4 31.8 4.2 32 4.5 C 32.2 4.7 32.3 5 32.4 5.4 C 32.4 5.6 32.4 6.1 32.4 6.7 C 32.43 6.66 32.4 11.3 32.4 11.3 L 31.1 11.3 C 31.1 11.3 31.14 6.71 31.1 6.7 C 31.1 6.2 31.1 5.8 31 5.5 C 30.9 5.3 30.7 5.1 30.5 4.9 C 30.2 4.8 29.9 4.7 29.6 4.7 C 29 4.7 28.5 4.8 28.1 5.2 C 27.7 5.5 27.5 6.2 27.5 7.2 C 27.54 7.18 27.5 11.3 27.5 11.3 L 26.3 11.3 Z M 36.7 10.2 C 36.8 10.2 37 10.2 37.2 10.2 C 37.2 10.2 37.4 11.3 37.4 11.3 C 37 11.4 36.7 11.4 36.4 11.4 C 36 11.4 35.6 11.4 35.3 11.2 C 35.1 11.1 34.9 10.9 34.8 10.6 C 34.7 10.4 34.6 9.9 34.6 9.1 C 34.65 9.11 34.6 4.7 34.6 4.7 L 33.7 4.7 L 33.7 3.7 L 34.6 3.7 L 34.6 1.8 L 35.9 1.1 L 35.9 3.7 L 37.2 3.7 L 37.2 4.7 L 35.9 4.7 C 35.9 4.7 35.93 9.18 35.9 9.2 C 35.9 9.5 36 9.8 36 9.9 C 36 10 36.1 10.1 36.2 10.1 C 36.3 10.2 36.5 10.2 36.7 10.2 C 36.7 10.2 36.7 10.2 36.7 10.2 Z M 43.7 11.3 C 43.6 11.1 43.5 10.8 43.4 10.4 C 43 10.8 42.5 11.1 42.1 11.3 C 41.6 11.4 41.2 11.5 40.6 11.5 C 39.8 11.5 39.2 11.3 38.7 10.9 C 38.3 10.5 38 10 38 9.3 C 38 9 38.1 8.6 38.3 8.3 C 38.5 8 38.7 7.8 39 7.6 C 39.2 7.4 39.6 7.2 39.9 7.1 C 40.1 7.1 40.5 7 41 7 C 42.1 6.8 42.8 6.7 43.3 6.5 C 43.3 6.3 43.3 6.2 43.3 6.2 C 43.3 5.6 43.2 5.3 43 5.1 C 42.7 4.8 42.2 4.6 41.5 4.6 C 40.9 4.6 40.5 4.7 40.2 4.9 C 39.9 5.2 39.7 5.5 39.5 6.1 C 39.5 6.1 38.3 5.9 38.3 5.9 C 38.4 5.4 38.6 4.9 38.8 4.6 C 39.1 4.3 39.5 4 40 3.8 C 40.5 3.6 41 3.6 41.7 3.6 C 42.3 3.6 42.9 3.6 43.3 3.8 C 43.7 3.9 44 4.1 44.2 4.4 C 44.4 4.6 44.5 4.9 44.6 5.2 C 44.6 5.5 44.6 5.9 44.6 6.4 C 44.6 6.4 44.6 8.1 44.6 8.1 C 44.6 9.3 44.7 10.1 44.7 10.4 C 44.8 10.7 44.9 11 45.1 11.3 C 45.05 11.33 43.7 11.3 43.7 11.3 C 43.7 11.3 43.7 11.33 43.7 11.3 Z M 43.3 7.5 C 42.9 7.7 42.2 7.9 41.2 8 C 40.7 8.1 40.3 8.2 40.1 8.3 C 39.9 8.4 39.7 8.5 39.6 8.7 C 39.5 8.9 39.4 9.1 39.4 9.3 C 39.4 9.6 39.6 9.9 39.8 10.2 C 40.1 10.4 40.5 10.5 41 10.5 C 41.5 10.5 41.9 10.4 42.3 10.2 C 42.7 10 43 9.7 43.1 9.3 C 43.3 9 43.3 8.6 43.3 8 C 43.3 8 43.3 7.5 43.3 7.5 Z M 51.6 8.5 C 51.6 8.5 52.9 8.7 52.9 8.7 C 52.7 9.6 52.4 10.3 51.8 10.8 C 51.2 11.3 50.5 11.5 49.7 11.5 C 48.7 11.5 47.8 11.2 47.2 10.5 C 46.6 9.8 46.2 8.8 46.2 7.6 C 46.2 6.7 46.4 6 46.7 5.4 C 46.9 4.8 47.3 4.3 47.9 4 C 48.5 3.7 49.1 3.6 49.7 3.6 C 50.5 3.6 51.2 3.8 51.7 4.2 C 52.3 4.6 52.6 5.2 52.7 6 C 52.7 6 51.5 6.2 51.5 6.2 C 51.4 5.6 51.2 5.3 50.9 5 C 50.6 4.7 50.2 4.6 49.8 4.6 C 49.1 4.6 48.6 4.8 48.2 5.3 C 47.8 5.8 47.6 6.5 47.6 7.5 C 47.6 8.5 47.8 9.3 48.2 9.8 C 48.6 10.2 49.1 10.4 49.7 10.4 C 50.2 10.4 50.6 10.3 51 10 C 51.3 9.7 51.5 9.2 51.6 8.5 Z M 56.2 10.2 C 56.4 10.2 56.6 10.2 56.8 10.2 C 56.8 10.2 57 11.3 57 11.3 C 56.6 11.4 56.3 11.4 56 11.4 C 55.5 11.4 55.2 11.4 54.9 11.2 C 54.7 11.1 54.5 10.9 54.4 10.6 C 54.3 10.4 54.2 9.9 54.2 9.1 C 54.21 9.11 54.2 4.7 54.2 4.7 L 53.3 4.7 L 53.3 3.7 L 54.2 3.7 L 54.2 1.8 L 55.5 1.1 L 55.5 3.7 L 56.8 3.7 L 56.8 4.7 L 55.5 4.7 C 55.5 4.7 55.49 9.18 55.5 9.2 C 55.5 9.5 55.5 9.8 55.6 9.9 C 55.6 10 55.7 10.1 55.8 10.1 C 55.9 10.2 56 10.2 56.2 10.2 C 56.2 10.2 56.2 10.2 56.2 10.2 Z M 69.2 0.8 L 70.6 0.8 C 70.6 0.8 70.57 6.9 70.6 6.9 C 70.6 8 70.4 8.8 70.2 9.4 C 70 10 69.5 10.5 68.9 10.9 C 68.3 11.3 67.5 11.5 66.5 11.5 C 65.5 11.5 64.7 11.3 64.1 11 C 63.4 10.7 63 10.2 62.7 9.5 C 62.4 8.9 62.3 8 62.3 6.9 C 62.31 6.9 62.3 0.8 62.3 0.8 L 63.7 0.8 C 63.7 0.8 63.7 6.89 63.7 6.9 C 63.7 7.8 63.8 8.5 64 8.9 C 64.1 9.3 64.4 9.7 64.8 9.9 C 65.2 10.1 65.7 10.3 66.3 10.3 C 67.4 10.3 68.1 10 68.5 9.6 C 69 9.1 69.2 8.2 69.2 6.9 C 69.18 6.89 69.2 0.8 69.2 0.8 Z M 72.2 9.1 C 72.2 9.1 73.5 8.9 73.5 8.9 C 73.5 9.4 73.7 9.8 74.1 10 C 74.4 10.3 74.9 10.4 75.4 10.4 C 76 10.4 76.5 10.3 76.8 10.1 C 77 9.8 77.2 9.6 77.2 9.2 C 77.2 8.9 77.1 8.7 76.8 8.5 C 76.6 8.4 76.2 8.3 75.5 8.1 C 74.5 7.9 73.9 7.7 73.5 7.5 C 73.2 7.3 72.9 7.1 72.7 6.8 C 72.5 6.5 72.4 6.1 72.4 5.7 C 72.4 5.4 72.5 5.1 72.6 4.8 C 72.8 4.5 73 4.3 73.3 4.1 C 73.5 3.9 73.8 3.8 74.1 3.7 C 74.4 3.6 74.8 3.6 75.2 3.6 C 75.8 3.6 76.3 3.6 76.8 3.8 C 77.2 4 77.6 4.2 77.8 4.5 C 78 4.8 78.1 5.2 78.2 5.7 C 78.2 5.7 77 5.9 77 5.9 C 76.9 5.5 76.7 5.2 76.5 4.9 C 76.2 4.7 75.8 4.6 75.3 4.6 C 74.7 4.6 74.3 4.7 74 4.9 C 73.8 5.1 73.7 5.3 73.7 5.6 C 73.7 5.8 73.7 5.9 73.8 6 C 73.9 6.2 74.1 6.3 74.3 6.4 C 74.4 6.4 74.8 6.5 75.5 6.7 C 76.4 7 77 7.2 77.4 7.3 C 77.7 7.5 78 7.7 78.2 8 C 78.4 8.3 78.5 8.7 78.5 9.1 C 78.5 9.5 78.4 9.9 78.1 10.3 C 77.9 10.7 77.5 11 77.1 11.2 C 76.6 11.4 76 11.5 75.5 11.5 C 74.5 11.5 73.7 11.3 73.2 10.9 C 72.7 10.5 72.3 9.9 72.2 9.1 Z " stroke="none" fill="#ffffff"/>  </g></svg>