<?xml version="1.0" standalone="no"?><!DOCTYPE svg PUBLIC "-//W3C//DTD SVG 1.1//EN" "http://www.w3.org/Graphics/SVG/1.1/DTD/svg11.dtd"><svg xmlns="http://www.w3.org/2000/svg" version="1.1" width="263.3px" height="124.1px" viewBox="0 0 263.3 124.1">  <desc>Delivering quality training and consultancy services to help develop programmes which are engaging, effective and res...</desc>  <defs/>  <g id="Polygon65258">    <path d="M 90.2 97.1 C 90.2 95.7 90.6 94.6 91.3 93.9 C 92 93.4 92.8 93.1 93.7 93.1 C 94.8 93.1 95.6 93.4 96.3 94.1 C 97 94.8 97.3 95.8 97.3 97 C 97.3 97.9 97.1 98.7 96.8 99.3 C 96.6 99.8 96.1 100.3 95.6 100.6 C 95 100.9 94.4 101 93.7 101 C 92.7 101 91.8 100.7 91.1 100 C 90.5 99.3 90.2 98.4 90.2 97.1 Z M 91.5 97.1 C 91.5 98 91.7 98.8 92.1 99.3 C 92.5 99.7 93.1 100 93.7 100 C 94.4 100 94.9 99.7 95.3 99.3 C 95.8 98.8 96 98 96 97 C 96 96.1 95.7 95.4 95.3 94.9 C 94.9 94.4 94.4 94.2 93.7 94.2 C 93.1 94.2 92.5 94.4 92.1 94.9 C 91.7 95.4 91.5 96.1 91.5 97.1 Z M 98.8 100.9 L 98.8 93.3 L 99.9 93.3 C 99.9 93.3 99.95 94.42 99.9 94.4 C 100.2 93.9 100.5 93.5 100.8 93.4 C 101 93.2 101.3 93.1 101.6 93.1 C 102 93.1 102.5 93.2 102.9 93.5 C 102.9 93.5 102.5 94.7 102.5 94.7 C 102.2 94.5 101.8 94.4 101.5 94.4 C 101.2 94.4 101 94.5 100.8 94.7 C 100.5 94.9 100.4 95.1 100.3 95.4 C 100.1 95.8 100.1 96.3 100.1 96.9 C 100.07 96.89 100.1 100.9 100.1 100.9 L 98.8 100.9 Z M 103.4 101.5 C 103.4 101.5 104.7 101.7 104.7 101.7 C 104.8 102.1 104.9 102.4 105.1 102.5 C 105.5 102.8 105.9 102.9 106.4 102.9 C 107 102.9 107.5 102.8 107.8 102.5 C 108.2 102.3 108.4 102 108.5 101.5 C 108.6 101.3 108.6 100.7 108.6 99.9 C 108 100.5 107.3 100.9 106.5 100.9 C 105.4 100.9 104.6 100.5 104 99.7 C 103.5 99 103.2 98.1 103.2 97 C 103.2 96.3 103.3 95.6 103.6 95 C 103.8 94.4 104.2 93.9 104.7 93.6 C 105.2 93.3 105.8 93.1 106.5 93.1 C 107.4 93.1 108.1 93.5 108.7 94.2 C 108.7 94.18 108.7 93.3 108.7 93.3 L 109.9 93.3 C 109.9 93.3 109.89 99.84 109.9 99.8 C 109.9 101 109.8 101.9 109.5 102.4 C 109.3 102.9 108.9 103.2 108.4 103.5 C 107.9 103.8 107.2 104 106.5 104 C 105.5 104 104.8 103.8 104.3 103.3 C 103.7 102.9 103.4 102.3 103.4 101.5 Z M 104.5 96.9 C 104.5 97.9 104.7 98.7 105.1 99.1 C 105.5 99.6 106 99.8 106.6 99.8 C 107.2 99.8 107.7 99.6 108.1 99.1 C 108.5 98.7 108.7 98 108.7 97 C 108.7 96 108.5 95.3 108.1 94.9 C 107.7 94.4 107.2 94.2 106.6 94.2 C 106 94.2 105.5 94.4 105.1 94.9 C 104.7 95.3 104.5 96 104.5 96.9 Z M 117.1 100.9 C 116.9 100.6 116.8 100.3 116.8 99.9 C 116.3 100.3 115.9 100.6 115.4 100.8 C 115 101 114.5 101 114 101 C 113.2 101 112.5 100.8 112.1 100.4 C 111.6 100 111.4 99.5 111.4 98.9 C 111.4 98.5 111.5 98.2 111.7 97.8 C 111.8 97.5 112 97.3 112.3 97.1 C 112.6 96.9 112.9 96.8 113.3 96.7 C 113.5 96.6 113.9 96.6 114.4 96.5 C 115.4 96.4 116.2 96.2 116.7 96 C 116.7 95.9 116.7 95.8 116.7 95.7 C 116.7 95.2 116.6 94.8 116.3 94.6 C 116 94.3 115.5 94.2 114.9 94.2 C 114.3 94.2 113.8 94.3 113.5 94.5 C 113.2 94.7 113 95.1 112.9 95.6 C 112.9 95.6 111.6 95.4 111.6 95.4 C 111.7 94.9 111.9 94.5 112.2 94.1 C 112.5 93.8 112.8 93.5 113.3 93.4 C 113.8 93.2 114.4 93.1 115.1 93.1 C 115.7 93.1 116.2 93.2 116.6 93.3 C 117 93.5 117.3 93.7 117.5 93.9 C 117.7 94.1 117.9 94.4 117.9 94.8 C 118 95 118 95.4 118 96 C 118 96 118 97.7 118 97.7 C 118 98.9 118 99.6 118.1 100 C 118.1 100.3 118.2 100.6 118.4 100.9 C 118.41 100.87 117.1 100.9 117.1 100.9 C 117.1 100.9 117.06 100.87 117.1 100.9 Z M 116.7 97.1 C 116.2 97.2 115.5 97.4 114.6 97.5 C 114.1 97.6 113.7 97.7 113.5 97.8 C 113.2 97.9 113.1 98 113 98.2 C 112.8 98.4 112.8 98.6 112.8 98.8 C 112.8 99.2 112.9 99.5 113.2 99.7 C 113.4 99.9 113.8 100 114.3 100 C 114.8 100 115.2 99.9 115.6 99.7 C 116 99.5 116.3 99.2 116.5 98.8 C 116.6 98.5 116.7 98.1 116.7 97.5 C 116.7 97.5 116.7 97.1 116.7 97.1 Z M 120 100.9 L 120 93.3 L 121.2 93.3 C 121.2 93.3 121.16 94.35 121.2 94.3 C 121.7 93.5 122.5 93.1 123.6 93.1 C 124 93.1 124.5 93.2 124.8 93.3 C 125.2 93.5 125.5 93.7 125.7 94 C 125.9 94.3 126 94.6 126.1 94.9 C 126.2 95.2 126.2 95.6 126.2 96.2 C 126.18 96.2 126.2 100.9 126.2 100.9 L 124.9 100.9 C 124.9 100.9 124.89 96.25 124.9 96.2 C 124.9 95.7 124.8 95.3 124.7 95.1 C 124.6 94.8 124.5 94.6 124.2 94.4 C 123.9 94.3 123.6 94.2 123.3 94.2 C 122.8 94.2 122.3 94.4 121.9 94.7 C 121.5 95.1 121.3 95.7 121.3 96.7 C 121.29 96.72 121.3 100.9 121.3 100.9 L 120 100.9 Z M 128.2 91.9 L 128.2 90.4 L 129.5 90.4 L 129.5 91.9 L 128.2 91.9 Z M 128.2 100.9 L 128.2 93.3 L 129.5 93.3 L 129.5 100.9 L 128.2 100.9 Z M 130.9 98.6 C 130.9 98.6 132.2 98.4 132.2 98.4 C 132.2 98.9 132.4 99.3 132.8 99.6 C 133.1 99.8 133.6 100 134.1 100 C 134.7 100 135.2 99.9 135.5 99.6 C 135.7 99.4 135.9 99.1 135.9 98.8 C 135.9 98.5 135.8 98.3 135.5 98.1 C 135.3 98 134.9 97.8 134.2 97.6 C 133.2 97.4 132.6 97.2 132.2 97 C 131.9 96.9 131.6 96.6 131.4 96.3 C 131.2 96 131.1 95.7 131.1 95.3 C 131.1 94.9 131.2 94.6 131.3 94.3 C 131.5 94.1 131.7 93.8 132 93.6 C 132.2 93.5 132.5 93.4 132.8 93.2 C 133.1 93.1 133.5 93.1 133.9 93.1 C 134.5 93.1 135 93.2 135.5 93.4 C 135.9 93.5 136.3 93.8 136.5 94.1 C 136.7 94.3 136.8 94.7 136.9 95.2 C 136.9 95.2 135.7 95.4 135.7 95.4 C 135.6 95 135.4 94.7 135.2 94.5 C 134.9 94.3 134.5 94.2 134 94.2 C 133.4 94.2 133 94.3 132.7 94.4 C 132.5 94.6 132.4 94.9 132.4 95.1 C 132.4 95.3 132.4 95.5 132.5 95.6 C 132.6 95.7 132.8 95.8 133 95.9 C 133.1 96 133.5 96.1 134.1 96.3 C 135.1 96.5 135.7 96.7 136.1 96.9 C 136.4 97 136.7 97.2 136.9 97.5 C 137.1 97.8 137.2 98.2 137.2 98.6 C 137.2 99.1 137.1 99.5 136.8 99.9 C 136.6 100.2 136.2 100.5 135.8 100.7 C 135.3 100.9 134.7 101 134.1 101 C 133.2 101 132.4 100.8 131.9 100.4 C 131.4 100 131 99.4 130.9 98.6 Z M 144 100.9 C 143.8 100.6 143.7 100.3 143.7 99.9 C 143.2 100.3 142.8 100.6 142.3 100.8 C 141.9 101 141.4 101 140.9 101 C 140.1 101 139.4 100.8 139 100.4 C 138.5 100 138.3 99.5 138.3 98.9 C 138.3 98.5 138.4 98.2 138.6 97.8 C 138.7 97.5 139 97.3 139.2 97.1 C 139.5 96.9 139.8 96.8 140.2 96.7 C 140.4 96.6 140.8 96.6 141.3 96.5 C 142.3 96.4 143.1 96.2 143.6 96 C 143.6 95.9 143.6 95.8 143.6 95.7 C 143.6 95.2 143.5 94.8 143.2 94.6 C 142.9 94.3 142.4 94.2 141.8 94.2 C 141.2 94.2 140.7 94.3 140.4 94.5 C 140.1 94.7 139.9 95.1 139.8 95.6 C 139.8 95.6 138.5 95.4 138.5 95.4 C 138.6 94.9 138.8 94.5 139.1 94.1 C 139.4 93.8 139.7 93.5 140.2 93.4 C 140.7 93.2 141.3 93.1 142 93.1 C 142.6 93.1 143.1 93.2 143.5 93.3 C 143.9 93.5 144.2 93.7 144.4 93.9 C 144.6 94.1 144.8 94.4 144.8 94.8 C 144.9 95 144.9 95.4 144.9 96 C 144.9 96 144.9 97.7 144.9 97.7 C 144.9 98.9 144.9 99.6 145 100 C 145 100.3 145.2 100.6 145.3 100.9 C 145.31 100.87 144 100.9 144 100.9 C 144 100.9 143.97 100.87 144 100.9 Z M 143.6 97.1 C 143.1 97.2 142.4 97.4 141.5 97.5 C 141 97.6 140.6 97.7 140.4 97.8 C 140.2 97.9 140 98 139.9 98.2 C 139.7 98.4 139.7 98.6 139.7 98.8 C 139.7 99.2 139.8 99.5 140.1 99.7 C 140.3 99.9 140.7 100 141.2 100 C 141.7 100 142.2 99.9 142.5 99.7 C 142.9 99.5 143.2 99.2 143.4 98.8 C 143.5 98.5 143.6 98.1 143.6 97.5 C 143.6 97.5 143.6 97.1 143.6 97.1 Z M 149.2 99.8 C 149.3 99.8 149.5 99.8 149.7 99.7 C 149.7 99.7 149.9 100.9 149.9 100.9 C 149.5 100.9 149.2 101 148.9 101 C 148.5 101 148.1 100.9 147.8 100.8 C 147.6 100.6 147.4 100.4 147.3 100.2 C 147.2 99.9 147.1 99.4 147.1 98.6 C 147.14 98.64 147.1 94.3 147.1 94.3 L 146.2 94.3 L 146.2 93.3 L 147.1 93.3 L 147.1 91.4 L 148.4 90.6 L 148.4 93.3 L 149.7 93.3 L 149.7 94.3 L 148.4 94.3 C 148.4 94.3 148.42 98.72 148.4 98.7 C 148.4 99.1 148.4 99.3 148.5 99.4 C 148.5 99.5 148.6 99.6 148.7 99.7 C 148.8 99.7 149 99.8 149.2 99.8 C 149.2 99.8 149.2 99.8 149.2 99.8 Z M 151 91.9 L 151 90.4 L 152.3 90.4 L 152.3 91.9 L 151 91.9 Z M 151 100.9 L 151 93.3 L 152.3 93.3 L 152.3 100.9 L 151 100.9 Z M 153.8 97.1 C 153.8 95.7 154.1 94.6 154.9 93.9 C 155.6 93.4 156.4 93.1 157.3 93.1 C 158.4 93.1 159.2 93.4 159.9 94.1 C 160.5 94.8 160.9 95.8 160.9 97 C 160.9 97.9 160.7 98.7 160.4 99.3 C 160.1 99.8 159.7 100.3 159.2 100.6 C 158.6 100.9 158 101 157.3 101 C 156.3 101 155.4 100.7 154.7 100 C 154.1 99.3 153.8 98.4 153.8 97.1 Z M 155.1 97.1 C 155.1 98 155.3 98.8 155.7 99.3 C 156.1 99.7 156.7 100 157.3 100 C 158 100 158.5 99.7 158.9 99.3 C 159.3 98.8 159.6 98 159.6 97 C 159.6 96.1 159.3 95.4 158.9 94.9 C 158.5 94.4 158 94.2 157.3 94.2 C 156.7 94.2 156.1 94.4 155.7 94.9 C 155.3 95.4 155.1 96.1 155.1 97.1 Z M 162.4 100.9 L 162.4 93.3 L 163.6 93.3 C 163.6 93.3 163.55 94.35 163.6 94.3 C 164.1 93.5 164.9 93.1 166 93.1 C 166.4 93.1 166.9 93.2 167.2 93.3 C 167.6 93.5 167.9 93.7 168.1 94 C 168.3 94.3 168.4 94.6 168.5 94.9 C 168.5 95.2 168.6 95.6 168.6 96.2 C 168.57 96.2 168.6 100.9 168.6 100.9 L 167.3 100.9 C 167.3 100.9 167.28 96.25 167.3 96.2 C 167.3 95.7 167.2 95.3 167.1 95.1 C 167 94.8 166.9 94.6 166.6 94.4 C 166.3 94.3 166 94.2 165.7 94.2 C 165.2 94.2 164.7 94.4 164.3 94.7 C 163.9 95.1 163.7 95.7 163.7 96.7 C 163.68 96.72 163.7 100.9 163.7 100.9 L 162.4 100.9 Z M 170.9 100.9 L 170.9 99.4 L 172.4 99.4 L 172.4 100.9 L 170.9 100.9 Z " stroke="none" fill="#fff"/>  </g>  <g id="Polygon65257">    <path d="M 34.4 80.8 C 34.4 80.8 35.8 81 35.8 81 C 35.6 81.8 35.2 82.4 34.6 82.8 C 34 83.2 33.3 83.4 32.4 83.4 C 31.3 83.4 30.4 83.1 29.8 82.4 C 29.1 81.7 28.8 80.8 28.8 79.5 C 28.8 78.3 29.1 77.3 29.8 76.6 C 30.4 75.8 31.3 75.5 32.3 75.5 C 33.4 75.5 34.2 75.8 34.8 76.5 C 35.5 77.2 35.8 78.2 35.8 79.5 C 35.8 79.5 35.8 79.6 35.8 79.8 C 35.8 79.8 30.1 79.8 30.1 79.8 C 30.2 80.6 30.4 81.3 30.8 81.7 C 31.3 82.2 31.8 82.4 32.4 82.4 C 32.9 82.4 33.3 82.3 33.6 82 C 34 81.8 34.2 81.4 34.4 80.8 Z M 30.2 78.7 C 30.2 78.7 34.4 78.7 34.4 78.7 C 34.4 78.1 34.2 77.6 34 77.3 C 33.5 76.8 33 76.6 32.4 76.6 C 31.8 76.6 31.3 76.8 30.9 77.1 C 30.5 77.5 30.2 78.1 30.2 78.7 Z M 37.7 83.3 L 37.7 76.7 L 36.6 76.7 L 36.6 75.7 L 37.7 75.7 C 37.7 75.7 37.69 74.86 37.7 74.9 C 37.7 74.3 37.7 74 37.8 73.7 C 38 73.4 38.2 73.1 38.5 72.9 C 38.8 72.7 39.2 72.6 39.8 72.6 C 40.2 72.6 40.6 72.6 41 72.7 C 41 72.7 40.8 73.8 40.8 73.8 C 40.5 73.8 40.3 73.8 40 73.8 C 39.7 73.8 39.4 73.9 39.2 74 C 39.1 74.2 39 74.5 39 75 C 38.97 74.96 39 75.7 39 75.7 L 40.5 75.7 L 40.5 76.7 L 39 76.7 L 39 83.3 L 37.7 83.3 Z M 41.5 83.3 L 41.5 76.7 L 40.4 76.7 L 40.4 75.7 L 41.5 75.7 C 41.5 75.7 41.5 74.86 41.5 74.9 C 41.5 74.3 41.5 74 41.6 73.7 C 41.8 73.4 42 73.1 42.3 72.9 C 42.6 72.7 43 72.6 43.6 72.6 C 44 72.6 44.4 72.6 44.8 72.7 C 44.8 72.7 44.6 73.8 44.6 73.8 C 44.3 73.8 44.1 73.8 43.9 73.8 C 43.5 73.8 43.2 73.9 43 74 C 42.9 74.2 42.8 74.5 42.8 75 C 42.78 74.96 42.8 75.7 42.8 75.7 L 44.3 75.7 L 44.3 76.7 L 42.8 76.7 L 42.8 83.3 L 41.5 83.3 Z M 50.5 80.8 C 50.5 80.8 51.8 81 51.8 81 C 51.6 81.8 51.2 82.4 50.6 82.8 C 50.1 83.2 49.3 83.4 48.5 83.4 C 47.3 83.4 46.5 83.1 45.8 82.4 C 45.2 81.7 44.8 80.8 44.8 79.5 C 44.8 78.3 45.2 77.3 45.8 76.6 C 46.5 75.8 47.3 75.5 48.4 75.5 C 49.4 75.5 50.2 75.8 50.9 76.5 C 51.5 77.2 51.8 78.2 51.8 79.5 C 51.8 79.5 51.8 79.6 51.8 79.8 C 51.8 79.8 46.2 79.8 46.2 79.8 C 46.2 80.6 46.5 81.3 46.9 81.7 C 47.3 82.2 47.8 82.4 48.5 82.4 C 48.9 82.4 49.3 82.3 49.7 82 C 50 81.8 50.3 81.4 50.5 80.8 Z M 46.2 78.7 C 46.2 78.7 50.5 78.7 50.5 78.7 C 50.4 78.1 50.3 77.6 50 77.3 C 49.6 76.8 49.1 76.6 48.4 76.6 C 47.8 76.6 47.3 76.8 46.9 77.1 C 46.5 77.5 46.3 78.1 46.2 78.7 Z M 58.4 80.5 C 58.4 80.5 59.7 80.7 59.7 80.7 C 59.5 81.5 59.2 82.2 58.6 82.7 C 58 83.2 57.3 83.4 56.5 83.4 C 55.4 83.4 54.6 83.1 54 82.4 C 53.3 81.7 53 80.8 53 79.5 C 53 78.7 53.2 78 53.4 77.3 C 53.7 76.7 54.1 76.3 54.7 76 C 55.2 75.6 55.8 75.5 56.5 75.5 C 57.3 75.5 58 75.7 58.5 76.1 C 59 76.5 59.4 77.1 59.5 77.9 C 59.5 77.9 58.3 78.1 58.3 78.1 C 58.2 77.6 57.9 77.2 57.6 76.9 C 57.3 76.7 57 76.6 56.5 76.6 C 55.9 76.6 55.4 76.8 55 77.3 C 54.6 77.7 54.4 78.5 54.4 79.5 C 54.4 80.5 54.6 81.2 54.9 81.7 C 55.3 82.2 55.8 82.4 56.5 82.4 C 57 82.4 57.4 82.2 57.7 81.9 C 58.1 81.6 58.3 81.1 58.4 80.5 Z M 63 82.2 C 63.1 82.2 63.3 82.2 63.6 82.1 C 63.6 82.1 63.8 83.3 63.8 83.3 C 63.4 83.3 63.1 83.4 62.8 83.4 C 62.3 83.4 62 83.3 61.7 83.2 C 61.4 83 61.3 82.8 61.2 82.6 C 61 82.3 61 81.8 61 81 C 60.99 81.04 61 76.7 61 76.7 L 60 76.7 L 60 75.7 L 61 75.7 L 61 73.8 L 62.3 73 L 62.3 75.7 L 63.6 75.7 L 63.6 76.7 L 62.3 76.7 C 62.3 76.7 62.28 81.12 62.3 81.1 C 62.3 81.5 62.3 81.7 62.3 81.8 C 62.4 81.9 62.5 82 62.6 82.1 C 62.7 82.1 62.8 82.2 63 82.2 C 63 82.2 63 82.2 63 82.2 Z M 64.8 74.3 L 64.8 72.8 L 66.1 72.8 L 66.1 74.3 L 64.8 74.3 Z M 64.8 83.3 L 64.8 75.7 L 66.1 75.7 L 66.1 83.3 L 64.8 83.3 Z M 70.2 83.3 L 67.3 75.7 L 68.7 75.7 C 68.7 75.7 70.3 80.22 70.3 80.2 C 70.5 80.7 70.6 81.2 70.8 81.8 C 70.9 81.4 71.1 80.9 71.3 80.3 C 71.27 80.31 73 75.7 73 75.7 L 74.3 75.7 L 71.4 83.3 L 70.2 83.3 Z M 80.6 80.8 C 80.6 80.8 82 81 82 81 C 81.8 81.8 81.4 82.4 80.8 82.8 C 80.2 83.2 79.5 83.4 78.6 83.4 C 77.5 83.4 76.6 83.1 76 82.4 C 75.3 81.7 75 80.8 75 79.5 C 75 78.3 75.3 77.3 76 76.6 C 76.6 75.8 77.5 75.5 78.5 75.5 C 79.6 75.5 80.4 75.8 81 76.5 C 81.7 77.2 82 78.2 82 79.5 C 82 79.5 82 79.6 82 79.8 C 82 79.8 76.3 79.8 76.3 79.8 C 76.4 80.6 76.6 81.3 77 81.7 C 77.5 82.2 78 82.4 78.6 82.4 C 79.1 82.4 79.5 82.3 79.8 82 C 80.2 81.8 80.4 81.4 80.6 80.8 Z M 76.4 78.7 C 76.4 78.7 80.6 78.7 80.6 78.7 C 80.6 78.1 80.4 77.6 80.2 77.3 C 79.7 76.8 79.2 76.6 78.6 76.6 C 78 76.6 77.5 76.8 77.1 77.1 C 76.7 77.5 76.4 78.1 76.4 78.7 Z M 92.9 83.3 C 92.7 83 92.7 82.7 92.6 82.3 C 92.1 82.7 91.7 83 91.2 83.2 C 90.8 83.4 90.3 83.4 89.8 83.4 C 89 83.4 88.3 83.2 87.9 82.8 C 87.4 82.4 87.2 81.9 87.2 81.3 C 87.2 80.9 87.3 80.6 87.5 80.2 C 87.6 79.9 87.9 79.7 88.1 79.5 C 88.4 79.3 88.7 79.2 89.1 79.1 C 89.3 79 89.7 79 90.2 78.9 C 91.3 78.8 92 78.6 92.5 78.4 C 92.5 78.3 92.5 78.2 92.5 78.1 C 92.5 77.6 92.4 77.2 92.2 77 C 91.8 76.7 91.3 76.6 90.7 76.6 C 90.1 76.6 89.6 76.7 89.3 76.9 C 89.1 77.1 88.8 77.5 88.7 78 C 88.7 78 87.4 77.8 87.4 77.8 C 87.6 77.3 87.7 76.9 88 76.5 C 88.3 76.2 88.6 75.9 89.1 75.8 C 89.6 75.6 90.2 75.5 90.9 75.5 C 91.5 75.5 92 75.6 92.5 75.7 C 92.9 75.9 93.2 76.1 93.3 76.3 C 93.5 76.5 93.7 76.8 93.8 77.2 C 93.8 77.4 93.8 77.8 93.8 78.4 C 93.8 78.4 93.8 80.1 93.8 80.1 C 93.8 81.3 93.8 82 93.9 82.4 C 94 82.7 94.1 83 94.2 83.3 C 94.22 83.27 92.9 83.3 92.9 83.3 C 92.9 83.3 92.88 83.27 92.9 83.3 Z M 92.5 79.5 C 92 79.6 91.3 79.8 90.4 79.9 C 89.9 80 89.5 80.1 89.3 80.2 C 89.1 80.3 88.9 80.4 88.8 80.6 C 88.7 80.8 88.6 81 88.6 81.2 C 88.6 81.6 88.7 81.9 89 82.1 C 89.2 82.3 89.6 82.4 90.1 82.4 C 90.6 82.4 91.1 82.3 91.5 82.1 C 91.8 81.9 92.1 81.6 92.3 81.2 C 92.4 80.9 92.5 80.5 92.5 79.9 C 92.5 79.9 92.5 79.5 92.5 79.5 Z M 95.8 83.3 L 95.8 75.7 L 97 75.7 C 97 75.7 96.97 76.75 97 76.7 C 97.5 75.9 98.3 75.5 99.4 75.5 C 99.9 75.5 100.3 75.6 100.7 75.7 C 101 75.9 101.3 76.1 101.5 76.4 C 101.7 76.7 101.8 77 101.9 77.3 C 102 77.6 102 78 102 78.6 C 101.99 78.6 102 83.3 102 83.3 L 100.7 83.3 C 100.7 83.3 100.7 78.65 100.7 78.6 C 100.7 78.1 100.7 77.7 100.6 77.5 C 100.5 77.2 100.3 77 100 76.8 C 99.8 76.7 99.5 76.6 99.1 76.6 C 98.6 76.6 98.1 76.8 97.7 77.1 C 97.3 77.5 97.1 78.1 97.1 79.1 C 97.1 79.12 97.1 83.3 97.1 83.3 L 95.8 83.3 Z M 108.9 83.3 C 108.9 83.3 108.9 82.31 108.9 82.3 C 108.4 83.1 107.7 83.4 106.8 83.4 C 106.2 83.4 105.6 83.3 105.1 82.9 C 104.6 82.6 104.2 82.1 103.9 81.5 C 103.6 80.9 103.5 80.3 103.5 79.5 C 103.5 78.7 103.6 78 103.9 77.4 C 104.1 76.8 104.5 76.3 105 76 C 105.5 75.7 106.1 75.5 106.7 75.5 C 107.2 75.5 107.6 75.6 107.9 75.8 C 108.3 76 108.6 76.2 108.8 76.5 C 108.82 76.54 108.8 72.8 108.8 72.8 L 110.1 72.8 L 110.1 83.3 L 108.9 83.3 Z M 104.8 79.5 C 104.8 80.5 105 81.2 105.4 81.7 C 105.9 82.1 106.3 82.4 106.9 82.4 C 107.5 82.4 107.9 82.2 108.3 81.7 C 108.7 81.2 108.9 80.5 108.9 79.6 C 108.9 78.5 108.7 77.8 108.3 77.3 C 107.9 76.8 107.4 76.6 106.8 76.6 C 106.3 76.6 105.8 76.8 105.4 77.3 C 105 77.7 104.8 78.5 104.8 79.5 Z M 116.2 83.3 L 116.2 75.7 L 117.3 75.7 C 117.3 75.7 117.35 76.82 117.3 76.8 C 117.6 76.3 117.9 75.9 118.2 75.8 C 118.4 75.6 118.7 75.5 119 75.5 C 119.4 75.5 119.9 75.6 120.3 75.9 C 120.3 75.9 119.9 77.1 119.9 77.1 C 119.6 76.9 119.2 76.8 118.9 76.8 C 118.6 76.8 118.4 76.9 118.2 77.1 C 117.9 77.3 117.8 77.5 117.7 77.8 C 117.5 78.2 117.5 78.7 117.5 79.3 C 117.48 79.29 117.5 83.3 117.5 83.3 L 116.2 83.3 Z M 126.3 80.8 C 126.3 80.8 127.6 81 127.6 81 C 127.4 81.8 127 82.4 126.5 82.8 C 125.9 83.2 125.2 83.4 124.3 83.4 C 123.2 83.4 122.3 83.1 121.6 82.4 C 121 81.7 120.7 80.8 120.7 79.5 C 120.7 78.3 121 77.3 121.6 76.6 C 122.3 75.8 123.2 75.5 124.2 75.5 C 125.2 75.5 126.1 75.8 126.7 76.5 C 127.3 77.2 127.7 78.2 127.7 79.5 C 127.7 79.5 127.7 79.6 127.7 79.8 C 127.7 79.8 122 79.8 122 79.8 C 122 80.6 122.3 81.3 122.7 81.7 C 123.1 82.2 123.7 82.4 124.3 82.4 C 124.8 82.4 125.2 82.3 125.5 82 C 125.8 81.8 126.1 81.4 126.3 80.8 Z M 122.1 78.7 C 122.1 78.7 126.3 78.7 126.3 78.7 C 126.2 78.1 126.1 77.6 125.8 77.3 C 125.4 76.8 124.9 76.6 124.2 76.6 C 123.6 76.6 123.1 76.8 122.7 77.1 C 122.3 77.5 122.1 78.1 122.1 78.7 Z M 128.7 81 C 128.7 81 130 80.8 130 80.8 C 130.1 81.3 130.3 81.7 130.6 82 C 130.9 82.2 131.4 82.4 132 82.4 C 132.6 82.4 133 82.3 133.3 82 C 133.6 81.8 133.7 81.5 133.7 81.2 C 133.7 80.9 133.6 80.7 133.3 80.5 C 133.2 80.4 132.7 80.2 132 80 C 131.1 79.8 130.4 79.6 130.1 79.4 C 129.7 79.3 129.4 79 129.2 78.7 C 129 78.4 128.9 78.1 128.9 77.7 C 128.9 77.3 129 77 129.2 76.7 C 129.3 76.5 129.5 76.2 129.8 76 C 130 75.9 130.3 75.8 130.6 75.6 C 131 75.5 131.3 75.5 131.7 75.5 C 132.3 75.5 132.9 75.6 133.3 75.8 C 133.8 75.9 134.1 76.2 134.3 76.5 C 134.5 76.7 134.7 77.1 134.8 77.6 C 134.8 77.6 133.5 77.8 133.5 77.8 C 133.4 77.4 133.3 77.1 133 76.9 C 132.7 76.7 132.3 76.6 131.8 76.6 C 131.2 76.6 130.8 76.7 130.6 76.8 C 130.3 77 130.2 77.3 130.2 77.5 C 130.2 77.7 130.2 77.9 130.3 78 C 130.5 78.1 130.6 78.2 130.8 78.3 C 131 78.4 131.3 78.5 132 78.7 C 132.9 78.9 133.5 79.1 133.9 79.3 C 134.2 79.4 134.5 79.6 134.7 79.9 C 134.9 80.2 135 80.6 135 81 C 135 81.5 134.9 81.9 134.7 82.3 C 134.4 82.6 134.1 82.9 133.6 83.1 C 133.1 83.3 132.6 83.4 132 83.4 C 131 83.4 130.2 83.2 129.7 82.8 C 129.2 82.4 128.9 81.8 128.7 81 Z M 136.1 79.5 C 136.1 78.1 136.5 77 137.3 76.3 C 137.9 75.8 138.7 75.5 139.7 75.5 C 140.7 75.5 141.6 75.8 142.2 76.5 C 142.9 77.2 143.2 78.2 143.2 79.4 C 143.2 80.3 143.1 81.1 142.8 81.7 C 142.5 82.2 142.1 82.7 141.5 83 C 140.9 83.3 140.3 83.4 139.7 83.4 C 138.6 83.4 137.7 83.1 137.1 82.4 C 136.4 81.7 136.1 80.8 136.1 79.5 Z M 137.4 79.5 C 137.4 80.4 137.6 81.2 138.1 81.7 C 138.5 82.1 139 82.4 139.7 82.4 C 140.3 82.4 140.8 82.1 141.3 81.7 C 141.7 81.2 141.9 80.4 141.9 79.4 C 141.9 78.5 141.7 77.8 141.3 77.3 C 140.8 76.8 140.3 76.6 139.7 76.6 C 139 76.6 138.5 76.8 138.1 77.3 C 137.6 77.8 137.4 78.5 137.4 79.5 Z M 144.7 83.3 L 144.7 75.7 L 145.9 75.7 C 145.9 75.7 145.89 76.75 145.9 76.7 C 146.5 75.9 147.3 75.5 148.3 75.5 C 148.8 75.5 149.2 75.6 149.6 75.7 C 150 75.9 150.2 76.1 150.4 76.4 C 150.6 76.7 150.8 77 150.8 77.3 C 150.9 77.6 150.9 78 150.9 78.6 C 150.91 78.6 150.9 83.3 150.9 83.3 L 149.6 83.3 C 149.6 83.3 149.62 78.65 149.6 78.6 C 149.6 78.1 149.6 77.7 149.5 77.5 C 149.4 77.2 149.2 77 148.9 76.8 C 148.7 76.7 148.4 76.6 148 76.6 C 147.5 76.6 147 76.8 146.6 77.1 C 146.2 77.5 146 78.1 146 79.1 C 146.02 79.12 146 83.3 146 83.3 L 144.7 83.3 Z M 158.1 83.3 C 158 83 157.9 82.7 157.9 82.3 C 157.4 82.7 156.9 83 156.5 83.2 C 156 83.4 155.6 83.4 155.1 83.4 C 154.2 83.4 153.6 83.2 153.1 82.8 C 152.7 82.4 152.5 81.9 152.5 81.3 C 152.5 80.9 152.5 80.6 152.7 80.2 C 152.9 79.9 153.1 79.7 153.4 79.5 C 153.6 79.3 154 79.2 154.3 79.1 C 154.6 79 154.9 79 155.4 78.9 C 156.5 78.8 157.3 78.6 157.7 78.4 C 157.7 78.3 157.8 78.2 157.8 78.1 C 157.8 77.6 157.6 77.2 157.4 77 C 157.1 76.7 156.6 76.6 155.9 76.6 C 155.3 76.6 154.9 76.7 154.6 76.9 C 154.3 77.1 154.1 77.5 153.9 78 C 153.9 78 152.7 77.8 152.7 77.8 C 152.8 77.3 153 76.9 153.2 76.5 C 153.5 76.2 153.9 75.9 154.4 75.8 C 154.9 75.6 155.5 75.5 156.1 75.5 C 156.8 75.5 157.3 75.6 157.7 75.7 C 158.1 75.9 158.4 76.1 158.6 76.3 C 158.8 76.5 158.9 76.8 159 77.2 C 159 77.4 159 77.8 159 78.4 C 159 78.4 159 80.1 159 80.1 C 159 81.3 159.1 82 159.1 82.4 C 159.2 82.7 159.3 83 159.5 83.3 C 159.46 83.27 158.1 83.3 158.1 83.3 C 158.1 83.3 158.11 83.27 158.1 83.3 Z M 157.7 79.5 C 157.3 79.6 156.6 79.8 155.6 79.9 C 155.1 80 154.7 80.1 154.5 80.2 C 154.3 80.3 154.1 80.4 154 80.6 C 153.9 80.8 153.8 81 153.8 81.2 C 153.8 81.6 154 81.9 154.2 82.1 C 154.5 82.3 154.9 82.4 155.4 82.4 C 155.9 82.4 156.3 82.3 156.7 82.1 C 157.1 81.9 157.4 81.6 157.5 81.2 C 157.7 80.9 157.7 80.5 157.7 79.9 C 157.7 79.9 157.7 79.5 157.7 79.5 Z M 163.3 82.2 C 163.4 82.2 163.6 82.2 163.9 82.1 C 163.9 82.1 164 83.3 164 83.3 C 163.7 83.3 163.4 83.4 163.1 83.4 C 162.6 83.4 162.2 83.3 162 83.2 C 161.7 83 161.5 82.8 161.4 82.6 C 161.3 82.3 161.3 81.8 161.3 81 C 161.28 81.04 161.3 76.7 161.3 76.7 L 160.3 76.7 L 160.3 75.7 L 161.3 75.7 L 161.3 73.8 L 162.6 73 L 162.6 75.7 L 163.9 75.7 L 163.9 76.7 L 162.6 76.7 C 162.6 76.7 162.56 81.12 162.6 81.1 C 162.6 81.5 162.6 81.7 162.6 81.8 C 162.7 81.9 162.8 82 162.9 82.1 C 163 82.1 163.1 82.2 163.3 82.2 C 163.3 82.2 163.3 82.2 163.3 82.2 Z M 170.3 80.8 C 170.3 80.8 171.7 81 171.7 81 C 171.4 81.8 171.1 82.4 170.5 82.8 C 169.9 83.2 169.2 83.4 168.3 83.4 C 167.2 83.4 166.3 83.1 165.7 82.4 C 165 81.7 164.7 80.8 164.7 79.5 C 164.7 78.3 165 77.3 165.7 76.6 C 166.3 75.8 167.2 75.5 168.2 75.5 C 169.3 75.5 170.1 75.8 170.7 76.5 C 171.4 77.2 171.7 78.2 171.7 79.5 C 171.7 79.5 171.7 79.6 171.7 79.8 C 171.7 79.8 166 79.8 166 79.8 C 166.1 80.6 166.3 81.3 166.7 81.7 C 167.2 82.2 167.7 82.4 168.3 82.4 C 168.8 82.4 169.2 82.3 169.5 82 C 169.9 81.8 170.1 81.4 170.3 80.8 Z M 166.1 78.7 C 166.1 78.7 170.3 78.7 170.3 78.7 C 170.3 78.1 170.1 77.6 169.9 77.3 C 169.4 76.8 168.9 76.6 168.3 76.6 C 167.7 76.6 167.2 76.8 166.8 77.1 C 166.4 77.5 166.1 78.1 166.1 78.7 Z M 178.8 83.3 L 176.4 75.7 L 177.8 75.7 L 179 80.1 C 179 80.1 179.42 81.69 179.4 81.7 C 179.4 81.6 179.6 81.1 179.8 80.1 C 179.82 80.12 181 75.7 181 75.7 L 182.4 75.7 L 183.5 80.1 L 183.9 81.5 L 184.3 80.1 L 185.6 75.7 L 186.9 75.7 L 184.5 83.3 L 183.1 83.3 L 181.9 78.7 L 181.6 77.4 L 180.1 83.3 L 178.8 83.3 Z M 188 74.3 L 188 72.8 L 189.2 72.8 L 189.2 74.3 L 188 74.3 Z M 188 83.3 L 188 75.7 L 189.2 75.7 L 189.2 83.3 L 188 83.3 Z M 193.5 82.2 C 193.6 82.2 193.8 82.2 194 82.1 C 194 82.1 194.2 83.3 194.2 83.3 C 193.8 83.3 193.5 83.4 193.2 83.4 C 192.8 83.4 192.4 83.3 192.1 83.2 C 191.9 83 191.7 82.8 191.6 82.6 C 191.5 82.3 191.4 81.8 191.4 81 C 191.44 81.04 191.4 76.7 191.4 76.7 L 190.5 76.7 L 190.5 75.7 L 191.4 75.7 L 191.4 73.8 L 192.7 73 L 192.7 75.7 L 194 75.7 L 194 76.7 L 192.7 76.7 C 192.7 76.7 192.72 81.12 192.7 81.1 C 192.7 81.5 192.7 81.7 192.8 81.8 C 192.8 81.9 192.9 82 193 82.1 C 193.1 82.1 193.3 82.2 193.5 82.2 C 193.5 82.2 193.5 82.2 193.5 82.2 Z M 195.3 83.3 L 195.3 72.8 L 196.6 72.8 C 196.6 72.8 196.57 76.54 196.6 76.5 C 197.2 75.8 197.9 75.5 198.8 75.5 C 199.4 75.5 199.9 75.6 200.3 75.8 C 200.7 76 201 76.4 201.2 76.7 C 201.4 77.1 201.5 77.7 201.5 78.5 C 201.47 78.45 201.5 83.3 201.5 83.3 L 200.2 83.3 C 200.2 83.3 200.18 78.45 200.2 78.5 C 200.2 77.8 200 77.3 199.8 77 C 199.5 76.8 199.1 76.6 198.6 76.6 C 198.2 76.6 197.8 76.7 197.5 76.9 C 197.2 77.1 196.9 77.4 196.8 77.7 C 196.6 78 196.6 78.5 196.6 79.1 C 196.57 79.11 196.6 83.3 196.6 83.3 L 195.3 83.3 Z M 208.3 86.4 C 208 86.4 207.8 86.3 207.5 86.2 C 207.5 86.2 207.3 85 207.3 85 C 207.6 85.1 207.8 85.1 208 85.1 C 208.3 85.1 208.6 85.1 208.7 85 C 208.9 84.9 209 84.7 209.2 84.6 C 209.2 84.4 209.4 84.1 209.6 83.6 C 209.6 83.5 209.6 83.4 209.7 83.3 C 209.67 83.29 206.8 75.7 206.8 75.7 L 208.2 75.7 C 208.2 75.7 209.75 80.07 209.8 80.1 C 210 80.6 210.1 81.2 210.3 81.8 C 210.5 81.2 210.6 80.7 210.8 80.1 C 210.83 80.1 212.5 75.7 212.5 75.7 L 213.7 75.7 C 213.7 75.7 210.85 83.4 210.9 83.4 C 210.5 84.2 210.3 84.8 210.1 85.1 C 209.9 85.6 209.6 85.9 209.3 86.1 C 209 86.3 208.7 86.4 208.3 86.4 C 208.3 86.4 208.3 86.4 208.3 86.4 Z M 214.4 79.5 C 214.4 78.1 214.8 77 215.5 76.3 C 216.2 75.8 217 75.5 217.9 75.5 C 219 75.5 219.8 75.8 220.5 76.5 C 221.2 77.2 221.5 78.2 221.5 79.4 C 221.5 80.3 221.3 81.1 221 81.7 C 220.8 82.2 220.3 82.7 219.8 83 C 219.2 83.3 218.6 83.4 217.9 83.4 C 216.9 83.4 216 83.1 215.3 82.4 C 214.7 81.7 214.4 80.8 214.4 79.5 Z M 215.7 79.5 C 215.7 80.4 215.9 81.2 216.3 81.7 C 216.8 82.1 217.3 82.4 217.9 82.4 C 218.6 82.4 219.1 82.1 219.5 81.7 C 220 81.2 220.2 80.4 220.2 79.4 C 220.2 78.5 220 77.8 219.5 77.3 C 219.1 76.8 218.6 76.6 217.9 76.6 C 217.3 76.6 216.8 76.8 216.3 77.3 C 215.9 77.8 215.7 78.5 215.7 79.5 Z M 228 83.3 C 228 83.3 227.98 82.16 228 82.2 C 227.4 83 226.6 83.4 225.6 83.4 C 225.1 83.4 224.7 83.4 224.3 83.2 C 223.9 83 223.6 82.8 223.4 82.5 C 223.3 82.3 223.1 82 223.1 81.6 C 223 81.3 223 80.9 223 80.4 C 222.97 80.38 223 75.7 223 75.7 L 224.3 75.7 C 224.3 75.7 224.26 79.88 224.3 79.9 C 224.3 80.6 224.3 81 224.3 81.2 C 224.4 81.6 224.6 81.9 224.9 82 C 225.1 82.2 225.4 82.3 225.8 82.3 C 226.2 82.3 226.6 82.2 226.9 82 C 227.3 81.8 227.5 81.6 227.6 81.2 C 227.8 80.9 227.8 80.4 227.8 79.7 C 227.85 79.74 227.8 75.7 227.8 75.7 L 229.1 75.7 L 229.1 83.3 L 228 83.3 Z M 231.1 83.3 L 231.1 75.7 L 232.3 75.7 C 232.3 75.7 232.3 76.82 232.3 76.8 C 232.6 76.3 232.9 75.9 233.1 75.8 C 233.4 75.6 233.6 75.5 234 75.5 C 234.4 75.5 234.8 75.6 235.3 75.9 C 235.3 75.9 234.8 77.1 234.8 77.1 C 234.5 76.9 234.2 76.8 233.9 76.8 C 233.6 76.8 233.4 76.9 233.1 77.1 C 232.9 77.3 232.7 77.5 232.6 77.8 C 232.5 78.2 232.4 78.7 232.4 79.3 C 232.43 79.29 232.4 83.3 232.4 83.3 L 231.1 83.3 Z " stroke="none" fill="#fff"/>  </g>  <g id="Polygon65256">    <path d="M 23.8 68.6 L 23.8 58.1 L 25 58.1 C 25 58.1 24.97 59.06 25 59.1 C 25.2 58.7 25.6 58.4 25.9 58.2 C 26.3 58 26.7 57.9 27.2 57.9 C 27.8 57.9 28.4 58.1 28.9 58.4 C 29.4 58.7 29.8 59.2 30 59.8 C 30.3 60.4 30.4 61.1 30.4 61.8 C 30.4 62.6 30.3 63.3 30 63.9 C 29.7 64.5 29.3 65 28.8 65.3 C 28.2 65.7 27.7 65.8 27.1 65.8 C 26.7 65.8 26.3 65.8 25.9 65.6 C 25.6 65.4 25.3 65.2 25.1 64.9 C 25.09 64.88 25.1 68.6 25.1 68.6 L 23.8 68.6 Z M 25 61.9 C 25 62.9 25.2 63.6 25.6 64.1 C 26 64.6 26.4 64.8 27 64.8 C 27.6 64.8 28.1 64.5 28.5 64.1 C 28.9 63.6 29.1 62.8 29.1 61.8 C 29.1 60.8 28.9 60.1 28.5 59.6 C 28.1 59.1 27.6 58.9 27.1 58.9 C 26.5 58.9 26 59.2 25.6 59.7 C 25.2 60.2 25 60.9 25 61.9 Z M 31.9 65.7 L 31.9 58.1 L 33.1 58.1 C 33.1 58.1 33.1 59.22 33.1 59.2 C 33.4 58.7 33.7 58.3 33.9 58.2 C 34.2 58 34.4 57.9 34.7 57.9 C 35.2 57.9 35.6 58 36.1 58.3 C 36.1 58.3 35.6 59.5 35.6 59.5 C 35.3 59.3 35 59.2 34.7 59.2 C 34.4 59.2 34.1 59.3 33.9 59.5 C 33.7 59.7 33.5 59.9 33.4 60.2 C 33.3 60.6 33.2 61.1 33.2 61.7 C 33.23 61.69 33.2 65.7 33.2 65.7 L 31.9 65.7 Z M 36.4 61.9 C 36.4 60.5 36.7 59.4 37.5 58.7 C 38.2 58.2 39 57.9 39.9 57.9 C 41 57.9 41.8 58.2 42.5 58.9 C 43.2 59.6 43.5 60.6 43.5 61.8 C 43.5 62.7 43.3 63.5 43 64.1 C 42.8 64.6 42.3 65.1 41.8 65.4 C 41.2 65.7 40.6 65.8 39.9 65.8 C 38.9 65.8 38 65.5 37.3 64.8 C 36.7 64.1 36.4 63.2 36.4 61.9 Z M 37.7 61.9 C 37.7 62.8 37.9 63.6 38.3 64.1 C 38.7 64.5 39.3 64.8 39.9 64.8 C 40.6 64.8 41.1 64.5 41.5 64.1 C 41.9 63.6 42.2 62.8 42.2 61.8 C 42.2 60.9 41.9 60.2 41.5 59.7 C 41.1 59.2 40.6 59 39.9 59 C 39.3 59 38.7 59.2 38.3 59.7 C 37.9 60.2 37.7 60.9 37.7 61.9 Z M 44.8 66.3 C 44.8 66.3 46 66.5 46 66.5 C 46.1 66.9 46.2 67.2 46.4 67.3 C 46.8 67.6 47.2 67.7 47.8 67.7 C 48.4 67.7 48.8 67.6 49.1 67.3 C 49.5 67.1 49.7 66.8 49.8 66.3 C 49.9 66.1 49.9 65.5 49.9 64.7 C 49.3 65.3 48.6 65.7 47.8 65.7 C 46.7 65.7 45.9 65.3 45.4 64.5 C 44.8 63.8 44.5 62.9 44.5 61.8 C 44.5 61.1 44.6 60.4 44.9 59.8 C 45.2 59.2 45.5 58.7 46 58.4 C 46.5 58.1 47.1 57.9 47.8 57.9 C 48.7 57.9 49.4 58.3 50 59 C 50.02 58.98 50 58.1 50 58.1 L 51.2 58.1 C 51.2 58.1 51.2 64.64 51.2 64.6 C 51.2 65.8 51.1 66.7 50.8 67.2 C 50.6 67.7 50.2 68 49.7 68.3 C 49.2 68.6 48.5 68.8 47.8 68.8 C 46.9 68.8 46.1 68.6 45.6 68.1 C 45 67.7 44.7 67.1 44.8 66.3 Z M 45.8 61.7 C 45.8 62.7 46 63.5 46.4 63.9 C 46.8 64.4 47.3 64.6 47.9 64.6 C 48.5 64.6 49 64.4 49.4 63.9 C 49.8 63.5 50 62.8 50 61.8 C 50 60.8 49.8 60.1 49.4 59.7 C 49 59.2 48.5 59 47.9 59 C 47.3 59 46.8 59.2 46.4 59.7 C 46 60.1 45.8 60.8 45.8 61.7 Z M 53.1 65.7 L 53.1 58.1 L 54.3 58.1 C 54.3 58.1 54.3 59.22 54.3 59.2 C 54.6 58.7 54.9 58.3 55.1 58.2 C 55.4 58 55.6 57.9 55.9 57.9 C 56.4 57.9 56.8 58 57.3 58.3 C 57.3 58.3 56.8 59.5 56.8 59.5 C 56.5 59.3 56.2 59.2 55.9 59.2 C 55.6 59.2 55.3 59.3 55.1 59.5 C 54.9 59.7 54.7 59.9 54.6 60.2 C 54.5 60.6 54.4 61.1 54.4 61.7 C 54.43 61.69 54.4 65.7 54.4 65.7 L 53.1 65.7 Z M 63.3 65.7 C 63.1 65.4 63 65.1 63 64.7 C 62.5 65.1 62.1 65.4 61.6 65.6 C 61.2 65.8 60.7 65.8 60.2 65.8 C 59.4 65.8 58.7 65.6 58.3 65.2 C 57.8 64.8 57.6 64.3 57.6 63.7 C 57.6 63.3 57.7 63 57.9 62.6 C 58 62.3 58.2 62.1 58.5 61.9 C 58.8 61.7 59.1 61.6 59.4 61.5 C 59.7 61.4 60.1 61.4 60.6 61.3 C 61.6 61.2 62.4 61 62.9 60.8 C 62.9 60.7 62.9 60.6 62.9 60.5 C 62.9 60 62.8 59.6 62.5 59.4 C 62.2 59.1 61.7 59 61.1 59 C 60.5 59 60 59.1 59.7 59.3 C 59.4 59.5 59.2 59.9 59.1 60.4 C 59.1 60.4 57.8 60.2 57.8 60.2 C 57.9 59.7 58.1 59.3 58.4 58.9 C 58.6 58.6 59 58.3 59.5 58.2 C 60 58 60.6 57.9 61.3 57.9 C 61.9 57.9 62.4 58 62.8 58.1 C 63.2 58.3 63.5 58.5 63.7 58.7 C 63.9 58.9 64.1 59.2 64.1 59.6 C 64.2 59.8 64.2 60.2 64.2 60.8 C 64.2 60.8 64.2 62.5 64.2 62.5 C 64.2 63.7 64.2 64.4 64.3 64.8 C 64.3 65.1 64.4 65.4 64.6 65.7 C 64.6 65.67 63.3 65.7 63.3 65.7 C 63.3 65.7 63.26 65.67 63.3 65.7 Z M 62.9 61.9 C 62.4 62 61.7 62.2 60.8 62.3 C 60.3 62.4 59.9 62.5 59.7 62.6 C 59.4 62.7 59.3 62.8 59.2 63 C 59 63.2 59 63.4 59 63.6 C 59 64 59.1 64.3 59.4 64.5 C 59.6 64.7 60 64.8 60.5 64.8 C 61 64.8 61.4 64.7 61.8 64.5 C 62.2 64.3 62.5 64 62.7 63.6 C 62.8 63.3 62.9 62.9 62.9 62.3 C 62.9 62.3 62.9 61.9 62.9 61.9 Z M 66.2 65.7 L 66.2 58.1 L 67.3 58.1 C 67.3 58.1 67.35 59.13 67.3 59.1 C 67.6 58.8 67.9 58.5 68.3 58.2 C 68.7 58 69.1 57.9 69.7 57.9 C 70.2 57.9 70.7 58 71 58.2 C 71.4 58.5 71.7 58.8 71.8 59.2 C 72.4 58.3 73.2 57.9 74.1 57.9 C 74.9 57.9 75.5 58.1 75.9 58.5 C 76.3 58.9 76.5 59.6 76.5 60.5 C 76.5 60.45 76.5 65.7 76.5 65.7 L 75.2 65.7 C 75.2 65.7 75.22 60.88 75.2 60.9 C 75.2 60.4 75.2 60 75.1 59.8 C 75 59.5 74.9 59.4 74.6 59.2 C 74.4 59.1 74.2 59 73.9 59 C 73.3 59 72.9 59.2 72.5 59.5 C 72.2 59.9 72 60.5 72 61.3 C 72 61.25 72 65.7 72 65.7 L 70.7 65.7 C 70.7 65.7 70.71 60.73 70.7 60.7 C 70.7 60.2 70.6 59.7 70.4 59.4 C 70.2 59.2 69.8 59 69.4 59 C 69 59 68.7 59.1 68.4 59.3 C 68.1 59.5 67.8 59.8 67.7 60.1 C 67.6 60.5 67.5 61 67.5 61.7 C 67.48 61.73 67.5 65.7 67.5 65.7 L 66.2 65.7 Z M 78.4 65.7 L 78.4 58.1 L 79.6 58.1 C 79.6 58.1 79.56 59.13 79.6 59.1 C 79.8 58.8 80.1 58.5 80.5 58.2 C 80.9 58 81.4 57.9 81.9 57.9 C 82.4 57.9 82.9 58 83.3 58.2 C 83.6 58.5 83.9 58.8 84 59.2 C 84.6 58.3 85.4 57.9 86.4 57.9 C 87.1 57.9 87.7 58.1 88.1 58.5 C 88.5 58.9 88.7 59.6 88.7 60.5 C 88.72 60.45 88.7 65.7 88.7 65.7 L 87.4 65.7 C 87.4 65.7 87.43 60.88 87.4 60.9 C 87.4 60.4 87.4 60 87.3 59.8 C 87.2 59.5 87.1 59.4 86.9 59.2 C 86.6 59.1 86.4 59 86.1 59 C 85.5 59 85.1 59.2 84.7 59.5 C 84.4 59.9 84.2 60.5 84.2 61.3 C 84.22 61.25 84.2 65.7 84.2 65.7 L 82.9 65.7 C 82.9 65.7 82.93 60.73 82.9 60.7 C 82.9 60.2 82.8 59.7 82.6 59.4 C 82.4 59.2 82.1 59 81.6 59 C 81.2 59 80.9 59.1 80.6 59.3 C 80.3 59.5 80 59.8 79.9 60.1 C 79.8 60.5 79.7 61 79.7 61.7 C 79.7 61.73 79.7 65.7 79.7 65.7 L 78.4 65.7 Z M 95.8 63.2 C 95.8 63.2 97.2 63.4 97.2 63.4 C 97 64.2 96.6 64.8 96 65.2 C 95.4 65.6 94.7 65.8 93.8 65.8 C 92.7 65.8 91.8 65.5 91.2 64.8 C 90.5 64.1 90.2 63.2 90.2 61.9 C 90.2 60.7 90.5 59.7 91.2 59 C 91.8 58.2 92.7 57.9 93.8 57.9 C 94.8 57.9 95.6 58.2 96.2 58.9 C 96.9 59.6 97.2 60.6 97.2 61.9 C 97.2 61.9 97.2 62 97.2 62.2 C 97.2 62.2 91.5 62.2 91.5 62.2 C 91.6 63 91.8 63.7 92.2 64.1 C 92.7 64.6 93.2 64.8 93.8 64.8 C 94.3 64.8 94.7 64.7 95 64.4 C 95.4 64.2 95.6 63.8 95.8 63.2 Z M 91.6 61.1 C 91.6 61.1 95.8 61.1 95.8 61.1 C 95.8 60.5 95.6 60 95.4 59.7 C 95 59.2 94.4 59 93.8 59 C 93.2 59 92.7 59.2 92.3 59.5 C 91.9 59.9 91.6 60.5 91.6 61.1 Z M 98.3 63.4 C 98.3 63.4 99.5 63.2 99.5 63.2 C 99.6 63.7 99.8 64.1 100.1 64.4 C 100.5 64.6 100.9 64.8 101.5 64.8 C 102.1 64.8 102.5 64.7 102.8 64.4 C 103.1 64.2 103.3 63.9 103.3 63.6 C 103.3 63.3 103.1 63.1 102.9 62.9 C 102.7 62.8 102.3 62.6 101.6 62.4 C 100.6 62.2 100 62 99.6 61.8 C 99.2 61.7 99 61.4 98.8 61.1 C 98.6 60.8 98.5 60.5 98.5 60.1 C 98.5 59.7 98.6 59.4 98.7 59.1 C 98.9 58.9 99.1 58.6 99.4 58.4 C 99.6 58.3 99.8 58.2 100.2 58 C 100.5 57.9 100.9 57.9 101.3 57.9 C 101.9 57.9 102.4 58 102.9 58.2 C 103.3 58.3 103.6 58.6 103.9 58.9 C 104.1 59.1 104.2 59.5 104.3 60 C 104.3 60 103 60.2 103 60.2 C 103 59.8 102.8 59.5 102.5 59.3 C 102.3 59.1 101.9 59 101.4 59 C 100.8 59 100.4 59.1 100.1 59.2 C 99.9 59.4 99.7 59.7 99.7 59.9 C 99.7 60.1 99.8 60.3 99.9 60.4 C 100 60.5 100.2 60.6 100.4 60.7 C 100.5 60.8 100.9 60.9 101.5 61.1 C 102.4 61.3 103.1 61.5 103.4 61.7 C 103.8 61.8 104.1 62 104.3 62.3 C 104.5 62.6 104.6 63 104.6 63.4 C 104.6 63.9 104.5 64.3 104.2 64.7 C 104 65 103.6 65.3 103.1 65.5 C 102.7 65.7 102.1 65.8 101.5 65.8 C 100.5 65.8 99.8 65.6 99.3 65.2 C 98.7 64.8 98.4 64.2 98.3 63.4 Z M 111.6 65.7 L 109.3 58.1 L 110.6 58.1 L 111.8 62.5 C 111.8 62.5 112.26 64.09 112.3 64.1 C 112.3 64 112.4 63.5 112.7 62.5 C 112.66 62.52 113.9 58.1 113.9 58.1 L 115.2 58.1 L 116.3 62.5 L 116.7 63.9 L 117.1 62.5 L 118.5 58.1 L 119.7 58.1 L 117.3 65.7 L 116 65.7 L 114.8 61.1 L 114.5 59.8 L 112.9 65.7 L 111.6 65.7 Z M 120.8 65.7 L 120.8 55.2 L 122.1 55.2 C 122.1 55.2 122.07 58.94 122.1 58.9 C 122.7 58.2 123.4 57.9 124.4 57.9 C 124.9 57.9 125.4 58 125.8 58.2 C 126.2 58.4 126.5 58.8 126.7 59.1 C 126.9 59.5 127 60.1 127 60.9 C 126.98 60.85 127 65.7 127 65.7 L 125.7 65.7 C 125.7 65.7 125.69 60.85 125.7 60.9 C 125.7 60.2 125.6 59.7 125.3 59.4 C 125 59.2 124.6 59 124.1 59 C 123.7 59 123.3 59.1 123 59.3 C 122.7 59.5 122.4 59.8 122.3 60.1 C 122.1 60.4 122.1 60.9 122.1 61.5 C 122.07 61.51 122.1 65.7 122.1 65.7 L 120.8 65.7 Z M 128.9 56.7 L 128.9 55.2 L 130.2 55.2 L 130.2 56.7 L 128.9 56.7 Z M 128.9 65.7 L 128.9 58.1 L 130.2 58.1 L 130.2 65.7 L 128.9 65.7 Z M 137.2 62.9 C 137.2 62.9 138.4 63.1 138.4 63.1 C 138.3 63.9 137.9 64.6 137.4 65.1 C 136.8 65.6 136.1 65.8 135.3 65.8 C 134.2 65.8 133.4 65.5 132.8 64.8 C 132.1 64.1 131.8 63.2 131.8 61.9 C 131.8 61.1 131.9 60.4 132.2 59.7 C 132.5 59.1 132.9 58.7 133.5 58.4 C 134 58 134.6 57.9 135.3 57.9 C 136.1 57.9 136.8 58.1 137.3 58.5 C 137.8 58.9 138.2 59.5 138.3 60.3 C 138.3 60.3 137.1 60.5 137.1 60.5 C 136.9 60 136.7 59.6 136.4 59.3 C 136.1 59.1 135.8 59 135.3 59 C 134.7 59 134.1 59.2 133.7 59.7 C 133.3 60.1 133.1 60.9 133.1 61.9 C 133.1 62.9 133.3 63.6 133.7 64.1 C 134.1 64.6 134.6 64.8 135.3 64.8 C 135.8 64.8 136.2 64.6 136.5 64.3 C 136.9 64 137.1 63.5 137.2 62.9 Z M 139.5 65.7 L 139.5 55.2 L 140.8 55.2 C 140.8 55.2 140.82 58.94 140.8 58.9 C 141.4 58.2 142.2 57.9 143.1 57.9 C 143.7 57.9 144.2 58 144.6 58.2 C 145 58.4 145.3 58.8 145.5 59.1 C 145.6 59.5 145.7 60.1 145.7 60.9 C 145.73 60.85 145.7 65.7 145.7 65.7 L 144.4 65.7 C 144.4 65.7 144.44 60.85 144.4 60.9 C 144.4 60.2 144.3 59.7 144 59.4 C 143.7 59.2 143.3 59 142.8 59 C 142.5 59 142.1 59.1 141.8 59.3 C 141.4 59.5 141.2 59.8 141 60.1 C 140.9 60.4 140.8 60.9 140.8 61.5 C 140.82 61.51 140.8 65.7 140.8 65.7 L 139.5 65.7 Z M 157 65.7 C 156.9 65.4 156.8 65.1 156.7 64.7 C 156.3 65.1 155.8 65.4 155.3 65.6 C 154.9 65.8 154.4 65.8 153.9 65.8 C 153.1 65.8 152.5 65.6 152 65.2 C 151.6 64.8 151.3 64.3 151.3 63.7 C 151.3 63.3 151.4 63 151.6 62.6 C 151.8 62.3 152 62.1 152.2 61.9 C 152.5 61.7 152.8 61.6 153.2 61.5 C 153.4 61.4 153.8 61.4 154.3 61.3 C 155.4 61.2 156.1 61 156.6 60.8 C 156.6 60.7 156.6 60.6 156.6 60.5 C 156.6 60 156.5 59.6 156.3 59.4 C 155.9 59.1 155.4 59 154.8 59 C 154.2 59 153.7 59.1 153.5 59.3 C 153.2 59.5 152.9 59.9 152.8 60.4 C 152.8 60.4 151.6 60.2 151.6 60.2 C 151.7 59.7 151.9 59.3 152.1 58.9 C 152.4 58.6 152.8 58.3 153.3 58.2 C 153.8 58 154.3 57.9 155 57.9 C 155.6 57.9 156.2 58 156.6 58.1 C 157 58.3 157.3 58.5 157.5 58.7 C 157.6 58.9 157.8 59.2 157.9 59.6 C 157.9 59.8 157.9 60.2 157.9 60.8 C 157.9 60.8 157.9 62.5 157.9 62.5 C 157.9 63.7 158 64.4 158 64.8 C 158.1 65.1 158.2 65.4 158.3 65.7 C 158.33 65.67 157 65.7 157 65.7 C 157 65.7 156.99 65.67 157 65.7 Z M 156.6 61.9 C 156.2 62 155.5 62.2 154.5 62.3 C 154 62.4 153.6 62.5 153.4 62.6 C 153.2 62.7 153 62.8 152.9 63 C 152.8 63.2 152.7 63.4 152.7 63.6 C 152.7 64 152.8 64.3 153.1 64.5 C 153.4 64.7 153.7 64.8 154.2 64.8 C 154.7 64.8 155.2 64.7 155.6 64.5 C 155.9 64.3 156.2 64 156.4 63.6 C 156.6 63.3 156.6 62.9 156.6 62.3 C 156.6 62.3 156.6 61.9 156.6 61.9 Z M 159.9 65.7 L 159.9 58.1 L 161.1 58.1 C 161.1 58.1 161.07 59.22 161.1 59.2 C 161.4 58.7 161.6 58.3 161.9 58.2 C 162.1 58 162.4 57.9 162.7 57.9 C 163.1 57.9 163.6 58 164 58.3 C 164 58.3 163.6 59.5 163.6 59.5 C 163.3 59.3 163 59.2 162.7 59.2 C 162.4 59.2 162.1 59.3 161.9 59.5 C 161.7 59.7 161.5 59.9 161.4 60.2 C 161.3 60.6 161.2 61.1 161.2 61.7 C 161.2 61.69 161.2 65.7 161.2 65.7 L 159.9 65.7 Z M 170 63.2 C 170 63.2 171.3 63.4 171.3 63.4 C 171.1 64.2 170.7 64.8 170.2 65.2 C 169.6 65.6 168.9 65.8 168 65.8 C 166.9 65.8 166 65.5 165.4 64.8 C 164.7 64.1 164.4 63.2 164.4 61.9 C 164.4 60.7 164.7 59.7 165.4 59 C 166 58.2 166.9 57.9 167.9 57.9 C 168.9 57.9 169.8 58.2 170.4 58.9 C 171.1 59.6 171.4 60.6 171.4 61.9 C 171.4 61.9 171.4 62 171.4 62.2 C 171.4 62.2 165.7 62.2 165.7 62.2 C 165.8 63 166 63.7 166.4 64.1 C 166.8 64.6 167.4 64.8 168 64.8 C 168.5 64.8 168.9 64.7 169.2 64.4 C 169.6 64.2 169.8 63.8 170 63.2 Z M 165.8 61.1 C 165.8 61.1 170 61.1 170 61.1 C 170 60.5 169.8 60 169.5 59.7 C 169.1 59.2 168.6 59 167.9 59 C 167.4 59 166.9 59.2 166.4 59.5 C 166 59.9 165.8 60.5 165.8 61.1 Z M 182.2 63.2 C 182.2 63.2 183.6 63.4 183.6 63.4 C 183.4 64.2 183 64.8 182.4 65.2 C 181.8 65.6 181.1 65.8 180.2 65.8 C 179.1 65.8 178.2 65.5 177.6 64.8 C 176.9 64.1 176.6 63.2 176.6 61.9 C 176.6 60.7 176.9 59.7 177.6 59 C 178.3 58.2 179.1 57.9 180.2 57.9 C 181.2 57.9 182 58.2 182.7 58.9 C 183.3 59.6 183.6 60.6 183.6 61.9 C 183.6 61.9 183.6 62 183.6 62.2 C 183.6 62.2 177.9 62.2 177.9 62.2 C 178 63 178.2 63.7 178.6 64.1 C 179.1 64.6 179.6 64.8 180.2 64.8 C 180.7 64.8 181.1 64.7 181.4 64.4 C 181.8 64.2 182 63.8 182.2 63.2 Z M 178 61.1 C 178 61.1 182.3 61.1 182.3 61.1 C 182.2 60.5 182 60 181.8 59.7 C 181.4 59.2 180.8 59 180.2 59 C 179.6 59 179.1 59.2 178.7 59.5 C 178.3 59.9 178.1 60.5 178 61.1 Z M 185.2 65.7 L 185.2 58.1 L 186.4 58.1 C 186.4 58.1 186.36 59.15 186.4 59.1 C 186.9 58.3 187.7 57.9 188.8 57.9 C 189.2 57.9 189.7 58 190 58.1 C 190.4 58.3 190.7 58.5 190.9 58.8 C 191.1 59.1 191.2 59.4 191.3 59.7 C 191.4 60 191.4 60.4 191.4 61 C 191.38 61 191.4 65.7 191.4 65.7 L 190.1 65.7 C 190.1 65.7 190.09 61.05 190.1 61 C 190.1 60.5 190 60.1 189.9 59.9 C 189.8 59.6 189.7 59.4 189.4 59.2 C 189.1 59.1 188.8 59 188.5 59 C 188 59 187.5 59.2 187.1 59.5 C 186.7 59.9 186.5 60.5 186.5 61.5 C 186.48 61.52 186.5 65.7 186.5 65.7 L 185.2 65.7 Z M 193.1 66.3 C 193.1 66.3 194.4 66.5 194.4 66.5 C 194.4 66.9 194.6 67.2 194.8 67.3 C 195.1 67.6 195.6 67.7 196.1 67.7 C 196.7 67.7 197.2 67.6 197.5 67.3 C 197.8 67.1 198 66.8 198.2 66.3 C 198.2 66.1 198.3 65.5 198.3 64.7 C 197.7 65.3 197 65.7 196.1 65.7 C 195.1 65.7 194.3 65.3 193.7 64.5 C 193.1 63.8 192.9 62.9 192.9 61.8 C 192.9 61.1 193 60.4 193.3 59.8 C 193.5 59.2 193.9 58.7 194.4 58.4 C 194.9 58.1 195.5 57.9 196.2 57.9 C 197 57.9 197.8 58.3 198.4 59 C 198.37 58.98 198.4 58.1 198.4 58.1 L 199.6 58.1 C 199.6 58.1 199.56 64.64 199.6 64.6 C 199.6 65.8 199.4 66.7 199.2 67.2 C 199 67.7 198.6 68 198.1 68.3 C 197.5 68.6 196.9 68.8 196.1 68.8 C 195.2 68.8 194.5 68.6 193.9 68.1 C 193.4 67.7 193.1 67.1 193.1 66.3 Z M 194.2 61.7 C 194.2 62.7 194.4 63.5 194.8 63.9 C 195.2 64.4 195.7 64.6 196.3 64.6 C 196.9 64.6 197.4 64.4 197.8 63.9 C 198.2 63.5 198.4 62.8 198.4 61.8 C 198.4 60.8 198.2 60.1 197.7 59.7 C 197.3 59.2 196.8 59 196.2 59 C 195.7 59 195.2 59.2 194.8 59.7 C 194.4 60.1 194.2 60.8 194.2 61.7 Z M 206.7 65.7 C 206.6 65.4 206.5 65.1 206.5 64.7 C 206 65.1 205.5 65.4 205.1 65.6 C 204.7 65.8 204.2 65.8 203.7 65.8 C 202.8 65.8 202.2 65.6 201.7 65.2 C 201.3 64.8 201.1 64.3 201.1 63.7 C 201.1 63.3 201.2 63 201.3 62.6 C 201.5 62.3 201.7 62.1 202 61.9 C 202.3 61.7 202.6 61.6 202.9 61.5 C 203.2 61.4 203.6 61.4 204.1 61.3 C 205.1 61.2 205.9 61 206.4 60.8 C 206.4 60.7 206.4 60.6 206.4 60.5 C 206.4 60 206.2 59.6 206 59.4 C 205.7 59.1 205.2 59 204.5 59 C 203.9 59 203.5 59.1 203.2 59.3 C 202.9 59.5 202.7 59.9 202.6 60.4 C 202.6 60.4 201.3 60.2 201.3 60.2 C 201.4 59.7 201.6 59.3 201.9 58.9 C 202.1 58.6 202.5 58.3 203 58.2 C 203.5 58 204.1 57.9 204.7 57.9 C 205.4 57.9 205.9 58 206.3 58.1 C 206.7 58.3 207 58.5 207.2 58.7 C 207.4 58.9 207.5 59.2 207.6 59.6 C 207.6 59.8 207.7 60.2 207.7 60.8 C 207.7 60.8 207.7 62.5 207.7 62.5 C 207.7 63.7 207.7 64.4 207.7 64.8 C 207.8 65.1 207.9 65.4 208.1 65.7 C 208.08 65.67 206.7 65.7 206.7 65.7 C 206.7 65.7 206.73 65.67 206.7 65.7 Z M 206.4 61.9 C 205.9 62 205.2 62.2 204.3 62.3 C 203.7 62.4 203.4 62.5 203.1 62.6 C 202.9 62.7 202.7 62.8 202.6 63 C 202.5 63.2 202.4 63.4 202.4 63.6 C 202.4 64 202.6 64.3 202.8 64.5 C 203.1 64.7 203.5 64.8 204 64.8 C 204.5 64.8 204.9 64.7 205.3 64.5 C 205.7 64.3 206 64 206.2 63.6 C 206.3 63.3 206.4 62.9 206.4 62.3 C 206.4 62.3 206.4 61.9 206.4 61.9 Z M 209.4 66.3 C 209.4 66.3 210.7 66.5 210.7 66.5 C 210.7 66.9 210.9 67.2 211.1 67.3 C 211.4 67.6 211.9 67.7 212.4 67.7 C 213 67.7 213.5 67.6 213.8 67.3 C 214.1 67.1 214.4 66.8 214.5 66.3 C 214.5 66.1 214.6 65.5 214.6 64.7 C 214 65.3 213.3 65.7 212.5 65.7 C 211.4 65.7 210.6 65.3 210 64.5 C 209.5 63.8 209.2 62.9 209.2 61.8 C 209.2 61.1 209.3 60.4 209.6 59.8 C 209.8 59.2 210.2 58.7 210.7 58.4 C 211.2 58.1 211.8 57.9 212.5 57.9 C 213.4 57.9 214.1 58.3 214.7 59 C 214.69 58.98 214.7 58.1 214.7 58.1 L 215.9 58.1 C 215.9 58.1 215.87 64.64 215.9 64.6 C 215.9 65.8 215.8 66.7 215.5 67.2 C 215.3 67.7 214.9 68 214.4 68.3 C 213.8 68.6 213.2 68.8 212.4 68.8 C 211.5 68.8 210.8 68.6 210.2 68.1 C 209.7 67.7 209.4 67.1 209.4 66.3 Z M 210.5 61.7 C 210.5 62.7 210.7 63.5 211.1 63.9 C 211.5 64.4 212 64.6 212.6 64.6 C 213.2 64.6 213.7 64.4 214.1 63.9 C 214.5 63.5 214.7 62.8 214.7 61.8 C 214.7 60.8 214.5 60.1 214.1 59.7 C 213.6 59.2 213.1 59 212.6 59 C 212 59 211.5 59.2 211.1 59.7 C 210.7 60.1 210.5 60.8 210.5 61.7 Z M 217.8 56.7 L 217.8 55.2 L 219.1 55.2 L 219.1 56.7 L 217.8 56.7 Z M 217.8 65.7 L 217.8 58.1 L 219.1 58.1 L 219.1 65.7 L 217.8 65.7 Z M 221.1 65.7 L 221.1 58.1 L 222.2 58.1 C 222.2 58.1 222.24 59.15 222.2 59.1 C 222.8 58.3 223.6 57.9 224.7 57.9 C 225.1 57.9 225.5 58 225.9 58.1 C 226.3 58.3 226.6 58.5 226.8 58.8 C 227 59.1 227.1 59.4 227.2 59.7 C 227.2 60 227.3 60.4 227.3 61 C 227.26 61 227.3 65.7 227.3 65.7 L 226 65.7 C 226 65.7 225.97 61.05 226 61 C 226 60.5 225.9 60.1 225.8 59.9 C 225.7 59.6 225.5 59.4 225.3 59.2 C 225 59.1 224.7 59 224.4 59 C 223.8 59 223.4 59.2 223 59.5 C 222.6 59.9 222.4 60.5 222.4 61.5 C 222.37 61.52 222.4 65.7 222.4 65.7 L 221.1 65.7 Z M 229 66.3 C 229 66.3 230.3 66.5 230.3 66.5 C 230.3 66.9 230.5 67.2 230.7 67.3 C 231 67.6 231.4 67.7 232 67.7 C 232.6 67.7 233.1 67.6 233.4 67.3 C 233.7 67.1 233.9 66.8 234 66.3 C 234.1 66.1 234.1 65.5 234.1 64.7 C 233.6 65.3 232.9 65.7 232 65.7 C 231 65.7 230.2 65.3 229.6 64.5 C 229 63.8 228.7 62.9 228.7 61.8 C 228.7 61.1 228.9 60.4 229.1 59.8 C 229.4 59.2 229.8 58.7 230.3 58.4 C 230.8 58.1 231.4 57.9 232 57.9 C 232.9 57.9 233.7 58.3 234.3 59 C 234.26 58.98 234.3 58.1 234.3 58.1 L 235.4 58.1 C 235.4 58.1 235.45 64.64 235.4 64.6 C 235.4 65.8 235.3 66.7 235.1 67.2 C 234.8 67.7 234.5 68 233.9 68.3 C 233.4 68.6 232.8 68.8 232 68.8 C 231.1 68.8 230.4 68.6 229.8 68.1 C 229.3 67.7 229 67.1 229 66.3 Z M 230.1 61.7 C 230.1 62.7 230.3 63.5 230.7 63.9 C 231.1 64.4 231.6 64.6 232.2 64.6 C 232.7 64.6 233.2 64.4 233.6 63.9 C 234 63.5 234.2 62.8 234.2 61.8 C 234.2 60.8 234 60.1 233.6 59.7 C 233.2 59.2 232.7 59 232.1 59 C 231.6 59 231.1 59.2 230.7 59.7 C 230.3 60.1 230.1 60.8 230.1 61.7 Z M 237.7 65.7 L 237.7 64.2 L 239.2 64.2 C 239.2 64.2 239.2 65.67 239.2 65.7 C 239.2 66.2 239.1 66.6 238.9 67 C 238.7 67.3 238.4 67.6 238 67.7 C 238 67.7 237.6 67.2 237.6 67.2 C 237.9 67.1 238.1 66.9 238.2 66.7 C 238.4 66.4 238.4 66.1 238.5 65.7 C 238.46 65.67 237.7 65.7 237.7 65.7 Z " stroke="none" fill="#fff"/>  </g>  <g id="Polygon65255">    <path d="M 18.2 45.3 C 18.2 45.3 19.4 45.5 19.4 45.5 C 19.3 46.3 18.9 47 18.4 47.5 C 17.8 48 17.1 48.2 16.3 48.2 C 15.2 48.2 14.4 47.9 13.7 47.2 C 13.1 46.5 12.8 45.6 12.8 44.3 C 12.8 43.5 12.9 42.8 13.2 42.1 C 13.5 41.5 13.9 41.1 14.5 40.8 C 15 40.4 15.6 40.3 16.3 40.3 C 17.1 40.3 17.8 40.5 18.3 40.9 C 18.8 41.3 19.2 41.9 19.3 42.7 C 19.3 42.7 18.1 42.9 18.1 42.9 C 17.9 42.4 17.7 42 17.4 41.7 C 17.1 41.5 16.7 41.4 16.3 41.4 C 15.7 41.4 15.1 41.6 14.7 42.1 C 14.3 42.5 14.1 43.3 14.1 44.3 C 14.1 45.3 14.3 46 14.7 46.5 C 15.1 47 15.6 47.2 16.2 47.2 C 16.8 47.2 17.2 47 17.5 46.7 C 17.9 46.4 18.1 45.9 18.2 45.3 Z M 20 44.3 C 20 42.9 20.4 41.8 21.2 41.1 C 21.9 40.6 22.7 40.3 23.6 40.3 C 24.7 40.3 25.5 40.6 26.2 41.3 C 26.8 42 27.2 43 27.2 44.2 C 27.2 45.1 27 45.9 26.7 46.5 C 26.4 47 26 47.5 25.5 47.8 C 24.9 48.1 24.3 48.2 23.6 48.2 C 22.6 48.2 21.7 47.9 21 47.2 C 20.4 46.5 20 45.6 20 44.3 Z M 21.4 44.3 C 21.4 45.2 21.6 46 22 46.5 C 22.4 46.9 23 47.2 23.6 47.2 C 24.3 47.2 24.8 46.9 25.2 46.5 C 25.6 46 25.8 45.2 25.8 44.2 C 25.8 43.3 25.6 42.6 25.2 42.1 C 24.8 41.6 24.2 41.4 23.6 41.4 C 23 41.4 22.4 41.6 22 42.1 C 21.6 42.6 21.4 43.3 21.4 44.3 Z M 28.7 48.1 L 28.7 40.5 L 29.8 40.5 C 29.8 40.5 29.85 41.55 29.8 41.5 C 30.4 40.7 31.2 40.3 32.3 40.3 C 32.7 40.3 33.1 40.4 33.5 40.5 C 33.9 40.7 34.2 40.9 34.4 41.2 C 34.6 41.5 34.7 41.8 34.8 42.1 C 34.8 42.4 34.9 42.8 34.9 43.4 C 34.87 43.4 34.9 48.1 34.9 48.1 L 33.6 48.1 C 33.6 48.1 33.58 43.45 33.6 43.4 C 33.6 42.9 33.5 42.5 33.4 42.3 C 33.3 42 33.1 41.8 32.9 41.6 C 32.6 41.5 32.3 41.4 32 41.4 C 31.4 41.4 31 41.6 30.6 41.9 C 30.2 42.3 30 42.9 30 43.9 C 29.97 43.92 30 48.1 30 48.1 L 28.7 48.1 Z M 36.3 45.8 C 36.3 45.8 37.6 45.6 37.6 45.6 C 37.7 46.1 37.9 46.5 38.2 46.8 C 38.5 47 39 47.2 39.6 47.2 C 40.2 47.2 40.6 47.1 40.9 46.8 C 41.2 46.6 41.3 46.3 41.3 46 C 41.3 45.7 41.2 45.5 40.9 45.3 C 40.8 45.2 40.3 45 39.6 44.8 C 38.7 44.6 38 44.4 37.7 44.2 C 37.3 44.1 37 43.8 36.8 43.5 C 36.6 43.2 36.5 42.9 36.5 42.5 C 36.5 42.1 36.6 41.8 36.8 41.5 C 36.9 41.3 37.1 41 37.4 40.8 C 37.6 40.7 37.9 40.6 38.2 40.4 C 38.6 40.3 38.9 40.3 39.3 40.3 C 39.9 40.3 40.5 40.4 40.9 40.6 C 41.4 40.7 41.7 41 41.9 41.3 C 42.1 41.5 42.3 41.9 42.4 42.4 C 42.4 42.4 41.1 42.6 41.1 42.6 C 41 42.2 40.9 41.9 40.6 41.7 C 40.3 41.5 39.9 41.4 39.4 41.4 C 38.8 41.4 38.4 41.5 38.2 41.6 C 37.9 41.8 37.8 42.1 37.8 42.3 C 37.8 42.5 37.8 42.7 37.9 42.8 C 38 42.9 38.2 43 38.4 43.1 C 38.6 43.2 38.9 43.3 39.6 43.5 C 40.5 43.7 41.1 43.9 41.5 44.1 C 41.8 44.2 42.1 44.4 42.3 44.7 C 42.5 45 42.6 45.4 42.6 45.8 C 42.6 46.3 42.5 46.7 42.3 47.1 C 42 47.4 41.7 47.7 41.2 47.9 C 40.7 48.1 40.2 48.2 39.6 48.2 C 38.6 48.2 37.8 48 37.3 47.6 C 36.8 47.2 36.5 46.6 36.3 45.8 Z M 49.2 48.1 C 49.2 48.1 49.16 46.96 49.2 47 C 48.6 47.8 47.8 48.2 46.7 48.2 C 46.3 48.2 45.9 48.2 45.5 48 C 45.1 47.8 44.8 47.6 44.6 47.3 C 44.4 47.1 44.3 46.8 44.2 46.4 C 44.2 46.1 44.1 45.7 44.1 45.2 C 44.15 45.18 44.1 40.5 44.1 40.5 L 45.4 40.5 C 45.4 40.5 45.44 44.68 45.4 44.7 C 45.4 45.4 45.5 45.8 45.5 46 C 45.6 46.4 45.8 46.7 46 46.8 C 46.3 47 46.6 47.1 47 47.1 C 47.4 47.1 47.8 47 48.1 46.8 C 48.4 46.6 48.7 46.4 48.8 46 C 49 45.7 49 45.2 49 44.5 C 49.02 44.54 49 40.5 49 40.5 L 50.3 40.5 L 50.3 48.1 L 49.2 48.1 Z M 52.3 48.1 L 52.3 37.6 L 53.6 37.6 L 53.6 48.1 L 52.3 48.1 Z M 57.8 47 C 58 47 58.2 47 58.4 46.9 C 58.4 46.9 58.6 48.1 58.6 48.1 C 58.2 48.1 57.9 48.2 57.6 48.2 C 57.1 48.2 56.8 48.1 56.5 48 C 56.3 47.8 56.1 47.6 56 47.4 C 55.9 47.1 55.8 46.6 55.8 45.8 C 55.83 45.84 55.8 41.5 55.8 41.5 L 54.9 41.5 L 54.9 40.5 L 55.8 40.5 L 55.8 38.6 L 57.1 37.8 L 57.1 40.5 L 58.4 40.5 L 58.4 41.5 L 57.1 41.5 C 57.1 41.5 57.11 45.92 57.1 45.9 C 57.1 46.3 57.1 46.5 57.2 46.6 C 57.2 46.7 57.3 46.8 57.4 46.9 C 57.5 46.9 57.6 47 57.8 47 C 57.8 47 57.8 47 57.8 47 Z M 64.9 48.1 C 64.8 47.8 64.7 47.5 64.6 47.1 C 64.2 47.5 63.7 47.8 63.2 48 C 62.8 48.2 62.3 48.2 61.8 48.2 C 61 48.2 60.4 48 59.9 47.6 C 59.5 47.2 59.2 46.7 59.2 46.1 C 59.2 45.7 59.3 45.4 59.5 45 C 59.7 44.7 59.9 44.5 60.1 44.3 C 60.4 44.1 60.7 44 61.1 43.9 C 61.3 43.8 61.7 43.8 62.2 43.7 C 63.3 43.6 64 43.4 64.5 43.2 C 64.5 43.1 64.5 43 64.5 42.9 C 64.5 42.4 64.4 42 64.2 41.8 C 63.8 41.5 63.3 41.4 62.7 41.4 C 62.1 41.4 61.6 41.5 61.4 41.7 C 61.1 41.9 60.8 42.3 60.7 42.8 C 60.7 42.8 59.5 42.6 59.5 42.6 C 59.6 42.1 59.8 41.7 60 41.3 C 60.3 41 60.7 40.7 61.2 40.6 C 61.7 40.4 62.2 40.3 62.9 40.3 C 63.5 40.3 64.1 40.4 64.5 40.5 C 64.9 40.7 65.2 40.9 65.4 41.1 C 65.5 41.3 65.7 41.6 65.8 42 C 65.8 42.2 65.8 42.6 65.8 43.2 C 65.8 43.2 65.8 44.9 65.8 44.9 C 65.8 46.1 65.9 46.8 65.9 47.2 C 66 47.5 66.1 47.8 66.2 48.1 C 66.23 48.07 64.9 48.1 64.9 48.1 C 64.9 48.1 64.89 48.07 64.9 48.1 Z M 64.5 44.3 C 64.1 44.4 63.4 44.6 62.4 44.7 C 61.9 44.8 61.5 44.9 61.3 45 C 61.1 45.1 60.9 45.2 60.8 45.4 C 60.7 45.6 60.6 45.8 60.6 46 C 60.6 46.4 60.7 46.7 61 46.9 C 61.3 47.1 61.6 47.2 62.1 47.2 C 62.6 47.2 63.1 47.1 63.5 46.9 C 63.8 46.7 64.1 46.4 64.3 46 C 64.5 45.7 64.5 45.3 64.5 44.7 C 64.5 44.7 64.5 44.3 64.5 44.3 Z M 67.8 48.1 L 67.8 40.5 L 69 40.5 C 69 40.5 68.98 41.55 69 41.5 C 69.5 40.7 70.3 40.3 71.4 40.3 C 71.9 40.3 72.3 40.4 72.7 40.5 C 73.1 40.7 73.3 40.9 73.5 41.2 C 73.7 41.5 73.9 41.8 73.9 42.1 C 74 42.4 74 42.8 74 43.4 C 74 43.4 74 48.1 74 48.1 L 72.7 48.1 C 72.7 48.1 72.71 43.45 72.7 43.4 C 72.7 42.9 72.7 42.5 72.6 42.3 C 72.5 42 72.3 41.8 72 41.6 C 71.8 41.5 71.5 41.4 71.1 41.4 C 70.6 41.4 70.1 41.6 69.7 41.9 C 69.3 42.3 69.1 42.9 69.1 43.9 C 69.11 43.92 69.1 48.1 69.1 48.1 L 67.8 48.1 Z M 80.9 45.3 C 80.9 45.3 82.2 45.5 82.2 45.5 C 82.1 46.3 81.7 47 81.1 47.5 C 80.6 48 79.9 48.2 79 48.2 C 78 48.2 77.2 47.9 76.5 47.2 C 75.9 46.5 75.6 45.6 75.6 44.3 C 75.6 43.5 75.7 42.8 76 42.1 C 76.3 41.5 76.7 41.1 77.2 40.8 C 77.8 40.4 78.4 40.3 79.1 40.3 C 79.9 40.3 80.6 40.5 81.1 40.9 C 81.6 41.3 81.9 41.9 82.1 42.7 C 82.1 42.7 80.8 42.9 80.8 42.9 C 80.7 42.4 80.5 42 80.2 41.7 C 79.9 41.5 79.5 41.4 79.1 41.4 C 78.5 41.4 77.9 41.6 77.5 42.1 C 77.1 42.5 76.9 43.3 76.9 44.3 C 76.9 45.3 77.1 46 77.5 46.5 C 77.9 47 78.4 47.2 79 47.2 C 79.5 47.2 80 47 80.3 46.7 C 80.6 46.4 80.9 45.9 80.9 45.3 Z M 84.1 51.2 C 83.8 51.2 83.6 51.1 83.3 51 C 83.3 51 83.1 49.8 83.1 49.8 C 83.4 49.9 83.6 49.9 83.8 49.9 C 84.1 49.9 84.4 49.9 84.5 49.8 C 84.7 49.7 84.8 49.5 85 49.4 C 85 49.2 85.2 48.9 85.4 48.4 C 85.4 48.3 85.4 48.2 85.5 48.1 C 85.47 48.09 82.6 40.5 82.6 40.5 L 84 40.5 C 84 40.5 85.55 44.87 85.6 44.9 C 85.8 45.4 85.9 46 86.1 46.6 C 86.3 46 86.4 45.5 86.6 44.9 C 86.64 44.9 88.3 40.5 88.3 40.5 L 89.6 40.5 C 89.6 40.5 86.66 48.2 86.7 48.2 C 86.3 49 86.1 49.6 85.9 49.9 C 85.7 50.4 85.4 50.7 85.1 50.9 C 84.8 51.1 84.5 51.2 84.1 51.2 C 84.1 51.2 84.1 51.2 84.1 51.2 Z M 94.2 45.8 C 94.2 45.8 95.5 45.6 95.5 45.6 C 95.6 46.1 95.8 46.5 96.1 46.8 C 96.4 47 96.9 47.2 97.4 47.2 C 98 47.2 98.5 47.1 98.8 46.8 C 99.1 46.6 99.2 46.3 99.2 46 C 99.2 45.7 99.1 45.5 98.8 45.3 C 98.6 45.2 98.2 45 97.5 44.8 C 96.6 44.6 95.9 44.4 95.5 44.2 C 95.2 44.1 94.9 43.8 94.7 43.5 C 94.5 43.2 94.4 42.9 94.4 42.5 C 94.4 42.1 94.5 41.8 94.7 41.5 C 94.8 41.3 95 41 95.3 40.8 C 95.5 40.7 95.8 40.6 96.1 40.4 C 96.5 40.3 96.8 40.3 97.2 40.3 C 97.8 40.3 98.3 40.4 98.8 40.6 C 99.2 40.7 99.6 41 99.8 41.3 C 100 41.5 100.2 41.9 100.2 42.4 C 100.2 42.4 99 42.6 99 42.6 C 98.9 42.2 98.8 41.9 98.5 41.7 C 98.2 41.5 97.8 41.4 97.3 41.4 C 96.7 41.4 96.3 41.5 96 41.6 C 95.8 41.8 95.7 42.1 95.7 42.3 C 95.7 42.5 95.7 42.7 95.8 42.8 C 95.9 42.9 96.1 43 96.3 43.1 C 96.4 43.2 96.8 43.3 97.5 43.5 C 98.4 43.7 99 43.9 99.4 44.1 C 99.7 44.2 100 44.4 100.2 44.7 C 100.4 45 100.5 45.4 100.5 45.8 C 100.5 46.3 100.4 46.7 100.1 47.1 C 99.9 47.4 99.5 47.7 99.1 47.9 C 98.6 48.1 98.1 48.2 97.5 48.2 C 96.5 48.2 95.7 48 95.2 47.6 C 94.7 47.2 94.3 46.6 94.2 45.8 Z M 107.3 45.6 C 107.3 45.6 108.6 45.8 108.6 45.8 C 108.4 46.6 108 47.2 107.4 47.6 C 106.9 48 106.1 48.2 105.2 48.2 C 104.1 48.2 103.3 47.9 102.6 47.2 C 102 46.5 101.6 45.6 101.6 44.3 C 101.6 43.1 102 42.1 102.6 41.4 C 103.3 40.6 104.1 40.3 105.2 40.3 C 106.2 40.3 107 40.6 107.7 41.3 C 108.3 42 108.6 43 108.6 44.3 C 108.6 44.3 108.6 44.4 108.6 44.6 C 108.6 44.6 103 44.6 103 44.6 C 103 45.4 103.2 46.1 103.7 46.5 C 104.1 47 104.6 47.2 105.3 47.2 C 105.7 47.2 106.1 47.1 106.5 46.8 C 106.8 46.6 107.1 46.2 107.3 45.6 Z M 103 43.5 C 103 43.5 107.3 43.5 107.3 43.5 C 107.2 42.9 107.1 42.4 106.8 42.1 C 106.4 41.6 105.8 41.4 105.2 41.4 C 104.6 41.4 104.1 41.6 103.7 41.9 C 103.3 42.3 103.1 42.9 103 43.5 Z M 110.2 48.1 L 110.2 40.5 L 111.4 40.5 C 111.4 40.5 111.36 41.62 111.4 41.6 C 111.7 41.1 111.9 40.7 112.2 40.6 C 112.4 40.4 112.7 40.3 113 40.3 C 113.4 40.3 113.9 40.4 114.3 40.7 C 114.3 40.7 113.9 41.9 113.9 41.9 C 113.6 41.7 113.3 41.6 112.9 41.6 C 112.7 41.6 112.4 41.7 112.2 41.9 C 112 42.1 111.8 42.3 111.7 42.6 C 111.6 43 111.5 43.5 111.5 44.1 C 111.49 44.09 111.5 48.1 111.5 48.1 L 110.2 48.1 Z M 117.2 48.1 L 114.3 40.5 L 115.7 40.5 C 115.7 40.5 117.31 45.02 117.3 45 C 117.5 45.5 117.6 46 117.8 46.6 C 117.9 46.2 118.1 45.7 118.3 45.1 C 118.27 45.11 120 40.5 120 40.5 L 121.3 40.5 L 118.4 48.1 L 117.2 48.1 Z M 122.4 39.1 L 122.4 37.6 L 123.7 37.6 L 123.7 39.1 L 122.4 39.1 Z M 122.4 48.1 L 122.4 40.5 L 123.7 40.5 L 123.7 48.1 L 122.4 48.1 Z M 130.6 45.3 C 130.6 45.3 131.9 45.5 131.9 45.5 C 131.8 46.3 131.4 47 130.9 47.5 C 130.3 48 129.6 48.2 128.8 48.2 C 127.7 48.2 126.9 47.9 126.2 47.2 C 125.6 46.5 125.3 45.6 125.3 44.3 C 125.3 43.5 125.4 42.8 125.7 42.1 C 126 41.5 126.4 41.1 126.9 40.8 C 127.5 40.4 128.1 40.3 128.8 40.3 C 129.6 40.3 130.3 40.5 130.8 40.9 C 131.3 41.3 131.6 41.9 131.8 42.7 C 131.8 42.7 130.5 42.9 130.5 42.9 C 130.4 42.4 130.2 42 129.9 41.7 C 129.6 41.5 129.2 41.4 128.8 41.4 C 128.2 41.4 127.6 41.6 127.2 42.1 C 126.8 42.5 126.6 43.3 126.6 44.3 C 126.6 45.3 126.8 46 127.2 46.5 C 127.6 47 128.1 47.2 128.7 47.2 C 129.2 47.2 129.7 47 130 46.7 C 130.3 46.4 130.6 45.9 130.6 45.3 Z M 138.2 45.6 C 138.2 45.6 139.6 45.8 139.6 45.8 C 139.3 46.6 139 47.2 138.4 47.6 C 137.8 48 137.1 48.2 136.2 48.2 C 135.1 48.2 134.2 47.9 133.6 47.2 C 132.9 46.5 132.6 45.6 132.6 44.3 C 132.6 43.1 132.9 42.1 133.6 41.4 C 134.2 40.6 135.1 40.3 136.1 40.3 C 137.2 40.3 138 40.6 138.6 41.3 C 139.3 42 139.6 43 139.6 44.3 C 139.6 44.3 139.6 44.4 139.6 44.6 C 139.6 44.6 133.9 44.6 133.9 44.6 C 134 45.4 134.2 46.1 134.6 46.5 C 135.1 47 135.6 47.2 136.2 47.2 C 136.7 47.2 137.1 47.1 137.4 46.8 C 137.8 46.6 138 46.2 138.2 45.6 Z M 134 43.5 C 134 43.5 138.2 43.5 138.2 43.5 C 138.2 42.9 138 42.4 137.8 42.1 C 137.3 41.6 136.8 41.4 136.2 41.4 C 135.6 41.4 135.1 41.6 134.7 41.9 C 134.3 42.3 134 42.9 134 43.5 Z M 140.7 45.8 C 140.7 45.8 141.9 45.6 141.9 45.6 C 142 46.1 142.2 46.5 142.5 46.8 C 142.9 47 143.3 47.2 143.9 47.2 C 144.5 47.2 144.9 47.1 145.2 46.8 C 145.5 46.6 145.7 46.3 145.7 46 C 145.7 45.7 145.5 45.5 145.3 45.3 C 145.1 45.2 144.7 45 144 44.8 C 143 44.6 142.4 44.4 142 44.2 C 141.6 44.1 141.3 43.8 141.2 43.5 C 141 43.2 140.9 42.9 140.9 42.5 C 140.9 42.1 141 41.8 141.1 41.5 C 141.3 41.3 141.5 41 141.7 40.8 C 141.9 40.7 142.2 40.6 142.6 40.4 C 142.9 40.3 143.3 40.3 143.7 40.3 C 144.3 40.3 144.8 40.4 145.2 40.6 C 145.7 40.7 146 41 146.2 41.3 C 146.5 41.5 146.6 41.9 146.7 42.4 C 146.7 42.4 145.4 42.6 145.4 42.6 C 145.4 42.2 145.2 41.9 144.9 41.7 C 144.7 41.5 144.3 41.4 143.8 41.4 C 143.2 41.4 142.8 41.5 142.5 41.6 C 142.2 41.8 142.1 42.1 142.1 42.3 C 142.1 42.5 142.2 42.7 142.3 42.8 C 142.4 42.9 142.5 43 142.8 43.1 C 142.9 43.2 143.3 43.3 143.9 43.5 C 144.8 43.7 145.5 43.9 145.8 44.1 C 146.2 44.2 146.5 44.4 146.7 44.7 C 146.9 45 147 45.4 147 45.8 C 147 46.3 146.9 46.7 146.6 47.1 C 146.4 47.4 146 47.7 145.5 47.9 C 145 48.1 144.5 48.2 143.9 48.2 C 142.9 48.2 142.2 48 141.7 47.6 C 141.1 47.2 140.8 46.6 140.7 45.8 Z M 154.8 47 C 155 47 155.2 47 155.4 46.9 C 155.4 46.9 155.6 48.1 155.6 48.1 C 155.2 48.1 154.9 48.2 154.6 48.2 C 154.1 48.2 153.8 48.1 153.5 48 C 153.3 47.8 153.1 47.6 153 47.4 C 152.9 47.1 152.8 46.6 152.8 45.8 C 152.82 45.84 152.8 41.5 152.8 41.5 L 151.9 41.5 L 151.9 40.5 L 152.8 40.5 L 152.8 38.6 L 154.1 37.8 L 154.1 40.5 L 155.4 40.5 L 155.4 41.5 L 154.1 41.5 C 154.1 41.5 154.1 45.92 154.1 45.9 C 154.1 46.3 154.1 46.5 154.2 46.6 C 154.2 46.7 154.3 46.8 154.4 46.9 C 154.5 46.9 154.6 47 154.8 47 C 154.8 47 154.8 47 154.8 47 Z M 156.2 44.3 C 156.2 42.9 156.6 41.8 157.4 41.1 C 158 40.6 158.8 40.3 159.7 40.3 C 160.8 40.3 161.6 40.6 162.3 41.3 C 163 42 163.3 43 163.3 44.2 C 163.3 45.1 163.2 45.9 162.9 46.5 C 162.6 47 162.1 47.5 161.6 47.8 C 161 48.1 160.4 48.2 159.7 48.2 C 158.7 48.2 157.8 47.9 157.2 47.2 C 156.5 46.5 156.2 45.6 156.2 44.3 Z M 157.5 44.3 C 157.5 45.2 157.7 46 158.1 46.5 C 158.6 46.9 159.1 47.2 159.7 47.2 C 160.4 47.2 160.9 46.9 161.3 46.5 C 161.8 46 162 45.2 162 44.2 C 162 43.3 161.8 42.6 161.3 42.1 C 160.9 41.6 160.4 41.4 159.7 41.4 C 159.1 41.4 158.6 41.6 158.1 42.1 C 157.7 42.6 157.5 43.3 157.5 44.3 Z M 168.9 48.1 L 168.9 37.6 L 170.2 37.6 C 170.2 37.6 170.18 41.34 170.2 41.3 C 170.8 40.6 171.5 40.3 172.5 40.3 C 173 40.3 173.5 40.4 173.9 40.6 C 174.3 40.8 174.6 41.2 174.8 41.5 C 175 41.9 175.1 42.5 175.1 43.3 C 175.09 43.25 175.1 48.1 175.1 48.1 L 173.8 48.1 C 173.8 48.1 173.8 43.25 173.8 43.3 C 173.8 42.6 173.7 42.1 173.4 41.8 C 173.1 41.6 172.7 41.4 172.2 41.4 C 171.8 41.4 171.5 41.5 171.1 41.7 C 170.8 41.9 170.5 42.2 170.4 42.5 C 170.3 42.8 170.2 43.3 170.2 43.9 C 170.18 43.91 170.2 48.1 170.2 48.1 L 168.9 48.1 Z M 182.3 45.6 C 182.3 45.6 183.6 45.8 183.6 45.8 C 183.4 46.6 183 47.2 182.4 47.6 C 181.9 48 181.1 48.2 180.2 48.2 C 179.1 48.2 178.2 47.9 177.6 47.2 C 176.9 46.5 176.6 45.6 176.6 44.3 C 176.6 43.1 176.9 42.1 177.6 41.4 C 178.3 40.6 179.1 40.3 180.2 40.3 C 181.2 40.3 182 40.6 182.7 41.3 C 183.3 42 183.6 43 183.6 44.3 C 183.6 44.3 183.6 44.4 183.6 44.6 C 183.6 44.6 178 44.6 178 44.6 C 178 45.4 178.2 46.1 178.7 46.5 C 179.1 47 179.6 47.2 180.2 47.2 C 180.7 47.2 181.1 47.1 181.5 46.8 C 181.8 46.6 182.1 46.2 182.3 45.6 Z M 178 43.5 C 178 43.5 182.3 43.5 182.3 43.5 C 182.2 42.9 182 42.4 181.8 42.1 C 181.4 41.6 180.8 41.4 180.2 41.4 C 179.6 41.4 179.1 41.6 178.7 41.9 C 178.3 42.3 178.1 42.9 178 43.5 Z M 185.2 48.1 L 185.2 37.6 L 186.5 37.6 L 186.5 48.1 L 185.2 48.1 Z M 188.5 51 L 188.5 40.5 L 189.6 40.5 C 189.6 40.5 189.64 41.46 189.6 41.5 C 189.9 41.1 190.2 40.8 190.6 40.6 C 190.9 40.4 191.3 40.3 191.8 40.3 C 192.5 40.3 193.1 40.5 193.6 40.8 C 194.1 41.1 194.4 41.6 194.7 42.2 C 194.9 42.8 195.1 43.5 195.1 44.2 C 195.1 45 194.9 45.7 194.6 46.3 C 194.4 46.9 194 47.4 193.4 47.7 C 192.9 48.1 192.3 48.2 191.8 48.2 C 191.3 48.2 190.9 48.2 190.6 48 C 190.3 47.8 190 47.6 189.8 47.3 C 189.75 47.28 189.8 51 189.8 51 L 188.5 51 Z M 189.6 44.3 C 189.6 45.3 189.8 46 190.2 46.5 C 190.6 47 191.1 47.2 191.7 47.2 C 192.2 47.2 192.7 46.9 193.1 46.5 C 193.5 46 193.7 45.2 193.7 44.2 C 193.7 43.2 193.5 42.5 193.2 42 C 192.8 41.5 192.3 41.3 191.7 41.3 C 191.2 41.3 190.7 41.6 190.3 42.1 C 189.8 42.6 189.6 43.3 189.6 44.3 Z M 205.6 48.1 C 205.6 48.1 205.63 47.11 205.6 47.1 C 205.1 47.9 204.4 48.2 203.5 48.2 C 202.9 48.2 202.3 48.1 201.8 47.7 C 201.3 47.4 200.9 46.9 200.6 46.3 C 200.4 45.7 200.2 45.1 200.2 44.3 C 200.2 43.5 200.4 42.8 200.6 42.2 C 200.9 41.6 201.2 41.1 201.7 40.8 C 202.3 40.5 202.8 40.3 203.4 40.3 C 203.9 40.3 204.3 40.4 204.7 40.6 C 205 40.8 205.3 41 205.5 41.3 C 205.54 41.34 205.5 37.6 205.5 37.6 L 206.8 37.6 L 206.8 48.1 L 205.6 48.1 Z M 201.6 44.3 C 201.6 45.3 201.8 46 202.2 46.5 C 202.6 46.9 203.1 47.2 203.6 47.2 C 204.2 47.2 204.7 47 205.1 46.5 C 205.5 46 205.7 45.3 205.7 44.4 C 205.7 43.3 205.5 42.6 205.1 42.1 C 204.6 41.6 204.2 41.4 203.6 41.4 C 203 41.4 202.5 41.6 202.1 42.1 C 201.7 42.5 201.6 43.3 201.6 44.3 Z M 214.1 45.6 C 214.1 45.6 215.4 45.8 215.4 45.8 C 215.2 46.6 214.8 47.2 214.2 47.6 C 213.7 48 212.9 48.2 212 48.2 C 210.9 48.2 210.1 47.9 209.4 47.2 C 208.7 46.5 208.4 45.6 208.4 44.3 C 208.4 43.1 208.8 42.1 209.4 41.4 C 210.1 40.6 210.9 40.3 212 40.3 C 213 40.3 213.8 40.6 214.5 41.3 C 215.1 42 215.4 43 215.4 44.3 C 215.4 44.3 215.4 44.4 215.4 44.6 C 215.4 44.6 209.8 44.6 209.8 44.6 C 209.8 45.4 210 46.1 210.5 46.5 C 210.9 47 211.4 47.2 212.1 47.2 C 212.5 47.2 212.9 47.1 213.3 46.8 C 213.6 46.6 213.9 46.2 214.1 45.6 Z M 209.8 43.5 C 209.8 43.5 214.1 43.5 214.1 43.5 C 214 42.9 213.9 42.4 213.6 42.1 C 213.2 41.6 212.6 41.4 212 41.4 C 211.4 41.4 210.9 41.6 210.5 41.9 C 210.1 42.3 209.9 42.9 209.8 43.5 Z M 219.1 48.1 L 216.2 40.5 L 217.6 40.5 C 217.6 40.5 219.22 45.02 219.2 45 C 219.4 45.5 219.6 46 219.7 46.6 C 219.8 46.2 220 45.7 220.2 45.1 C 220.19 45.11 221.9 40.5 221.9 40.5 L 223.2 40.5 L 220.3 48.1 L 219.1 48.1 Z M 229.5 45.6 C 229.5 45.6 230.9 45.8 230.9 45.8 C 230.7 46.6 230.3 47.2 229.7 47.6 C 229.1 48 228.4 48.2 227.5 48.2 C 226.4 48.2 225.5 47.9 224.9 47.2 C 224.2 46.5 223.9 45.6 223.9 44.3 C 223.9 43.1 224.2 42.1 224.9 41.4 C 225.6 40.6 226.4 40.3 227.5 40.3 C 228.5 40.3 229.3 40.6 230 41.3 C 230.6 42 230.9 43 230.9 44.3 C 230.9 44.3 230.9 44.4 230.9 44.6 C 230.9 44.6 225.2 44.6 225.2 44.6 C 225.3 45.4 225.5 46.1 226 46.5 C 226.4 47 226.9 47.2 227.5 47.2 C 228 47.2 228.4 47.1 228.8 46.8 C 229.1 46.6 229.4 46.2 229.5 45.6 Z M 225.3 43.5 C 225.3 43.5 229.6 43.5 229.6 43.5 C 229.5 42.9 229.3 42.4 229.1 42.1 C 228.7 41.6 228.1 41.4 227.5 41.4 C 226.9 41.4 226.4 41.6 226 41.9 C 225.6 42.3 225.4 42.9 225.3 43.5 Z M 232.5 48.1 L 232.5 37.6 L 233.8 37.6 L 233.8 48.1 L 232.5 48.1 Z M 235.3 44.3 C 235.3 42.9 235.7 41.8 236.5 41.1 C 237.1 40.6 237.9 40.3 238.8 40.3 C 239.9 40.3 240.7 40.6 241.4 41.3 C 242.1 42 242.4 43 242.4 44.2 C 242.4 45.1 242.3 45.9 242 46.5 C 241.7 47 241.2 47.5 240.7 47.8 C 240.1 48.1 239.5 48.2 238.8 48.2 C 237.8 48.2 236.9 47.9 236.3 47.2 C 235.6 46.5 235.3 45.6 235.3 44.3 Z M 236.6 44.3 C 236.6 45.2 236.8 46 237.2 46.5 C 237.7 46.9 238.2 47.2 238.8 47.2 C 239.5 47.2 240 46.9 240.4 46.5 C 240.9 46 241.1 45.2 241.1 44.2 C 241.1 43.3 240.9 42.6 240.4 42.1 C 240 41.6 239.5 41.4 238.8 41.4 C 238.2 41.4 237.7 41.6 237.2 42.1 C 236.8 42.6 236.6 43.3 236.6 44.3 Z M 243.9 51 L 243.9 40.5 L 245.1 40.5 C 245.1 40.5 245.09 41.46 245.1 41.5 C 245.4 41.1 245.7 40.8 246 40.6 C 246.4 40.4 246.8 40.3 247.3 40.3 C 247.9 40.3 248.5 40.5 249 40.8 C 249.5 41.1 249.9 41.6 250.1 42.2 C 250.4 42.8 250.5 43.5 250.5 44.2 C 250.5 45 250.4 45.7 250.1 46.3 C 249.8 46.9 249.4 47.4 248.9 47.7 C 248.3 48.1 247.8 48.2 247.2 48.2 C 246.8 48.2 246.4 48.2 246 48 C 245.7 47.8 245.4 47.6 245.2 47.3 C 245.2 47.28 245.2 51 245.2 51 L 243.9 51 Z M 245.1 44.3 C 245.1 45.3 245.3 46 245.7 46.5 C 246.1 47 246.6 47.2 247.1 47.2 C 247.7 47.2 248.2 46.9 248.6 46.5 C 249 46 249.2 45.2 249.2 44.2 C 249.2 43.2 249 42.5 248.6 42 C 248.2 41.5 247.7 41.3 247.2 41.3 C 246.6 41.3 246.1 41.6 245.7 42.1 C 245.3 42.6 245.1 43.3 245.1 44.3 Z " stroke="none" fill="#fff"/>  </g>  <g id="Polygon65254">    <path d="M 36.6 30.5 L 36.6 20 C 36.6 20 40.21 19.97 40.2 20 C 41 20 41.7 20 42.1 20.1 C 42.7 20.3 43.2 20.5 43.6 20.9 C 44.2 21.3 44.6 21.9 44.9 22.7 C 45.1 23.4 45.3 24.2 45.3 25.2 C 45.3 26 45.2 26.7 45 27.3 C 44.8 27.9 44.6 28.4 44.3 28.8 C 44 29.2 43.7 29.5 43.3 29.8 C 43 30 42.6 30.2 42.1 30.3 C 41.6 30.4 41 30.5 40.4 30.5 C 40.38 30.47 36.6 30.5 36.6 30.5 Z M 38 29.2 C 38 29.2 40.23 29.23 40.2 29.2 C 40.9 29.2 41.5 29.2 41.9 29 C 42.2 28.9 42.6 28.7 42.8 28.5 C 43.1 28.2 43.4 27.7 43.6 27.2 C 43.8 26.6 43.8 25.9 43.8 25.1 C 43.8 24 43.7 23.2 43.3 22.6 C 42.9 22 42.5 21.6 42 21.4 C 41.6 21.3 41 21.2 40.2 21.2 C 40.19 21.21 38 21.2 38 21.2 L 38 29.2 Z M 52.2 28 C 52.2 28 53.6 28.2 53.6 28.2 C 53.4 29 53 29.6 52.4 30 C 51.8 30.4 51.1 30.6 50.2 30.6 C 49.1 30.6 48.2 30.3 47.6 29.6 C 46.9 28.9 46.6 28 46.6 26.7 C 46.6 25.5 46.9 24.5 47.6 23.8 C 48.2 23 49.1 22.7 50.1 22.7 C 51.2 22.7 52 23 52.6 23.7 C 53.3 24.4 53.6 25.4 53.6 26.7 C 53.6 26.7 53.6 26.8 53.6 27 C 53.6 27 47.9 27 47.9 27 C 48 27.8 48.2 28.5 48.6 28.9 C 49.1 29.4 49.6 29.6 50.2 29.6 C 50.7 29.6 51.1 29.5 51.4 29.2 C 51.8 29 52 28.6 52.2 28 Z M 48 25.9 C 48 25.9 52.2 25.9 52.2 25.9 C 52.2 25.3 52 24.8 51.8 24.5 C 51.3 24 50.8 23.8 50.2 23.8 C 49.6 23.8 49.1 24 48.7 24.3 C 48.3 24.7 48 25.3 48 25.9 Z M 55.2 30.5 L 55.2 20 L 56.4 20 L 56.4 30.5 L 55.2 30.5 Z M 58.4 21.5 L 58.4 20 L 59.7 20 L 59.7 21.5 L 58.4 21.5 Z M 58.4 30.5 L 58.4 22.9 L 59.7 22.9 L 59.7 30.5 L 58.4 30.5 Z M 63.8 30.5 L 60.9 22.9 L 62.3 22.9 C 62.3 22.9 63.91 27.42 63.9 27.4 C 64.1 27.9 64.2 28.4 64.4 29 C 64.5 28.6 64.7 28.1 64.9 27.5 C 64.88 27.51 66.6 22.9 66.6 22.9 L 67.9 22.9 L 65 30.5 L 63.8 30.5 Z M 74.2 28 C 74.2 28 75.6 28.2 75.6 28.2 C 75.4 29 75 29.6 74.4 30 C 73.8 30.4 73.1 30.6 72.2 30.6 C 71.1 30.6 70.2 30.3 69.6 29.6 C 68.9 28.9 68.6 28 68.6 26.7 C 68.6 25.5 68.9 24.5 69.6 23.8 C 70.2 23 71.1 22.7 72.2 22.7 C 73.2 22.7 74 23 74.6 23.7 C 75.3 24.4 75.6 25.4 75.6 26.7 C 75.6 26.7 75.6 26.8 75.6 27 C 75.6 27 69.9 27 69.9 27 C 70 27.8 70.2 28.5 70.6 28.9 C 71.1 29.4 71.6 29.6 72.2 29.6 C 72.7 29.6 73.1 29.5 73.4 29.2 C 73.8 29 74 28.6 74.2 28 Z M 70 25.9 C 70 25.9 74.2 25.9 74.2 25.9 C 74.2 25.3 74 24.8 73.8 24.5 C 73.4 24 72.8 23.8 72.2 23.8 C 71.6 23.8 71.1 24 70.7 24.3 C 70.3 24.7 70 25.3 70 25.9 Z M 77.2 30.5 L 77.2 22.9 L 78.3 22.9 C 78.3 22.9 78.33 24.02 78.3 24 C 78.6 23.5 78.9 23.1 79.2 23 C 79.4 22.8 79.7 22.7 80 22.7 C 80.4 22.7 80.9 22.8 81.3 23.1 C 81.3 23.1 80.9 24.3 80.9 24.3 C 80.5 24.1 80.2 24 79.9 24 C 79.6 24 79.4 24.1 79.2 24.3 C 78.9 24.5 78.8 24.7 78.7 25 C 78.5 25.4 78.5 25.9 78.5 26.5 C 78.46 26.49 78.5 30.5 78.5 30.5 L 77.2 30.5 Z M 82.1 21.5 L 82.1 20 L 83.4 20 L 83.4 21.5 L 82.1 21.5 Z M 82.1 30.5 L 82.1 22.9 L 83.4 22.9 L 83.4 30.5 L 82.1 30.5 Z M 85.3 30.5 L 85.3 22.9 L 86.5 22.9 C 86.5 22.9 86.49 23.95 86.5 23.9 C 87 23.1 87.9 22.7 88.9 22.7 C 89.4 22.7 89.8 22.8 90.2 22.9 C 90.6 23.1 90.8 23.3 91 23.6 C 91.2 23.9 91.4 24.2 91.4 24.5 C 91.5 24.8 91.5 25.2 91.5 25.8 C 91.51 25.8 91.5 30.5 91.5 30.5 L 90.2 30.5 C 90.2 30.5 90.22 25.85 90.2 25.8 C 90.2 25.3 90.2 24.9 90.1 24.7 C 90 24.4 89.8 24.2 89.5 24 C 89.3 23.9 89 23.8 88.6 23.8 C 88.1 23.8 87.6 24 87.2 24.3 C 86.8 24.7 86.6 25.3 86.6 26.3 C 86.62 26.32 86.6 30.5 86.6 30.5 L 85.3 30.5 Z M 93.2 31.1 C 93.2 31.1 94.5 31.3 94.5 31.3 C 94.6 31.7 94.7 32 94.9 32.1 C 95.3 32.4 95.7 32.5 96.2 32.5 C 96.8 32.5 97.3 32.4 97.6 32.1 C 98 31.9 98.2 31.6 98.3 31.1 C 98.4 30.9 98.4 30.3 98.4 29.5 C 97.8 30.1 97.1 30.5 96.3 30.5 C 95.2 30.5 94.4 30.1 93.9 29.3 C 93.3 28.6 93 27.7 93 26.6 C 93 25.9 93.1 25.2 93.4 24.6 C 93.6 24 94 23.5 94.5 23.2 C 95 22.9 95.6 22.7 96.3 22.7 C 97.2 22.7 97.9 23.1 98.5 23.8 C 98.51 23.78 98.5 22.9 98.5 22.9 L 99.7 22.9 C 99.7 22.9 99.69 29.44 99.7 29.4 C 99.7 30.6 99.6 31.5 99.3 32 C 99.1 32.5 98.7 32.8 98.2 33.1 C 97.7 33.4 97 33.6 96.3 33.6 C 95.3 33.6 94.6 33.4 94.1 32.9 C 93.5 32.5 93.2 31.9 93.2 31.1 Z M 94.3 26.5 C 94.3 27.5 94.5 28.3 94.9 28.7 C 95.3 29.2 95.8 29.4 96.4 29.4 C 97 29.4 97.5 29.2 97.9 28.7 C 98.3 28.3 98.5 27.6 98.5 26.6 C 98.5 25.6 98.3 24.9 97.9 24.5 C 97.5 24 97 23.8 96.4 23.8 C 95.8 23.8 95.3 24 94.9 24.5 C 94.5 24.9 94.3 25.6 94.3 26.5 Z M 110.6 33.4 C 110.6 33.4 110.57 29.66 110.6 29.7 C 110.4 29.9 110.1 30.2 109.7 30.4 C 109.4 30.6 109 30.6 108.6 30.6 C 107.7 30.6 106.9 30.3 106.2 29.6 C 105.6 28.8 105.3 27.9 105.3 26.6 C 105.3 25.8 105.4 25.1 105.7 24.5 C 105.9 23.9 106.3 23.5 106.8 23.2 C 107.3 22.9 107.9 22.7 108.5 22.7 C 109.4 22.7 110.2 23.1 110.7 23.9 C 110.69 23.88 110.7 22.9 110.7 22.9 L 111.9 22.9 L 111.9 33.4 L 110.6 33.4 Z M 106.6 26.6 C 106.6 27.6 106.8 28.4 107.2 28.9 C 107.6 29.3 108.1 29.6 108.7 29.6 C 109.2 29.6 109.7 29.4 110.1 28.9 C 110.5 28.4 110.7 27.7 110.7 26.8 C 110.7 25.8 110.5 25 110.1 24.5 C 109.6 24 109.2 23.7 108.6 23.7 C 108 23.7 107.6 23.9 107.2 24.4 C 106.8 24.9 106.6 25.6 106.6 26.6 Z M 118.9 30.5 C 118.9 30.5 118.86 29.36 118.9 29.4 C 118.3 30.2 117.5 30.6 116.4 30.6 C 116 30.6 115.6 30.6 115.2 30.4 C 114.8 30.2 114.5 30 114.3 29.7 C 114.1 29.5 114 29.2 113.9 28.8 C 113.9 28.5 113.8 28.1 113.8 27.6 C 113.85 27.58 113.8 22.9 113.8 22.9 L 115.1 22.9 C 115.1 22.9 115.13 27.08 115.1 27.1 C 115.1 27.8 115.2 28.2 115.2 28.4 C 115.3 28.8 115.5 29.1 115.7 29.2 C 116 29.4 116.3 29.5 116.7 29.5 C 117.1 29.5 117.5 29.4 117.8 29.2 C 118.1 29 118.4 28.8 118.5 28.4 C 118.7 28.1 118.7 27.6 118.7 26.9 C 118.72 26.94 118.7 22.9 118.7 22.9 L 120 22.9 L 120 30.5 L 118.9 30.5 Z M 127.3 30.5 C 127.1 30.2 127 29.9 127 29.5 C 126.5 29.9 126.1 30.2 125.6 30.4 C 125.2 30.6 124.7 30.6 124.2 30.6 C 123.4 30.6 122.7 30.4 122.3 30 C 121.8 29.6 121.6 29.1 121.6 28.5 C 121.6 28.1 121.7 27.8 121.8 27.4 C 122 27.1 122.2 26.9 122.5 26.7 C 122.8 26.5 123.1 26.4 123.4 26.3 C 123.7 26.2 124.1 26.2 124.6 26.1 C 125.6 26 126.4 25.8 126.9 25.6 C 126.9 25.5 126.9 25.4 126.9 25.3 C 126.9 24.8 126.8 24.4 126.5 24.2 C 126.2 23.9 125.7 23.8 125.1 23.8 C 124.5 23.8 124 23.9 123.7 24.1 C 123.4 24.3 123.2 24.7 123.1 25.2 C 123.1 25.2 121.8 25 121.8 25 C 121.9 24.5 122.1 24.1 122.4 23.7 C 122.6 23.4 123 23.1 123.5 23 C 124 22.8 124.6 22.7 125.2 22.7 C 125.9 22.7 126.4 22.8 126.8 22.9 C 127.2 23.1 127.5 23.3 127.7 23.5 C 127.9 23.7 128 24 128.1 24.4 C 128.2 24.6 128.2 25 128.2 25.6 C 128.2 25.6 128.2 27.3 128.2 27.3 C 128.2 28.5 128.2 29.2 128.3 29.6 C 128.3 29.9 128.4 30.2 128.6 30.5 C 128.6 30.47 127.3 30.5 127.3 30.5 C 127.3 30.5 127.25 30.47 127.3 30.5 Z M 126.9 26.7 C 126.4 26.8 125.7 27 124.8 27.1 C 124.3 27.2 123.9 27.3 123.7 27.4 C 123.4 27.5 123.3 27.6 123.1 27.8 C 123 28 123 28.2 123 28.4 C 123 28.8 123.1 29.1 123.4 29.3 C 123.6 29.5 124 29.6 124.5 29.6 C 125 29.6 125.4 29.5 125.8 29.3 C 126.2 29.1 126.5 28.8 126.7 28.4 C 126.8 28.1 126.9 27.7 126.9 27.1 C 126.9 27.1 126.9 26.7 126.9 26.7 Z M 130.2 30.5 L 130.2 20 L 131.4 20 L 131.4 30.5 L 130.2 30.5 Z M 133.5 21.5 L 133.5 20 L 134.7 20 L 134.7 21.5 L 133.5 21.5 Z M 133.5 30.5 L 133.5 22.9 L 134.7 22.9 L 134.7 30.5 L 133.5 30.5 Z M 139 29.4 C 139.1 29.4 139.3 29.4 139.5 29.3 C 139.5 29.3 139.7 30.5 139.7 30.5 C 139.3 30.5 139 30.6 138.7 30.6 C 138.3 30.6 137.9 30.5 137.6 30.4 C 137.4 30.2 137.2 30 137.1 29.8 C 137 29.5 136.9 29 136.9 28.2 C 136.94 28.24 136.9 23.9 136.9 23.9 L 136 23.9 L 136 22.9 L 136.9 22.9 L 136.9 21 L 138.2 20.2 L 138.2 22.9 L 139.5 22.9 L 139.5 23.9 L 138.2 23.9 C 138.2 23.9 138.22 28.32 138.2 28.3 C 138.2 28.7 138.2 28.9 138.3 29 C 138.3 29.1 138.4 29.2 138.5 29.3 C 138.6 29.3 138.8 29.4 139 29.4 C 139 29.4 139 29.4 139 29.4 Z M 141.6 33.6 C 141.3 33.6 141 33.5 140.7 33.4 C 140.7 33.4 140.6 32.2 140.6 32.2 C 140.9 32.3 141.1 32.3 141.3 32.3 C 141.6 32.3 141.8 32.3 142 32.2 C 142.2 32.1 142.3 31.9 142.4 31.8 C 142.5 31.6 142.6 31.3 142.8 30.8 C 142.8 30.7 142.9 30.6 142.9 30.5 C 142.94 30.49 140 22.9 140 22.9 L 141.4 22.9 C 141.4 22.9 143.02 27.27 143 27.3 C 143.2 27.8 143.4 28.4 143.6 29 C 143.7 28.4 143.9 27.9 144.1 27.3 C 144.1 27.3 145.7 22.9 145.7 22.9 L 147 22.9 C 147 22.9 144.12 30.6 144.1 30.6 C 143.8 31.4 143.6 32 143.4 32.3 C 143.2 32.8 142.9 33.1 142.6 33.3 C 142.3 33.5 142 33.6 141.6 33.6 C 141.6 33.6 141.6 33.6 141.6 33.6 Z M 154.4 29.4 C 154.6 29.4 154.8 29.4 155 29.3 C 155 29.3 155.2 30.5 155.2 30.5 C 154.8 30.5 154.5 30.6 154.2 30.6 C 153.7 30.6 153.4 30.5 153.1 30.4 C 152.9 30.2 152.7 30 152.6 29.8 C 152.5 29.5 152.4 29 152.4 28.2 C 152.42 28.24 152.4 23.9 152.4 23.9 L 151.5 23.9 L 151.5 22.9 L 152.4 22.9 L 152.4 21 L 153.7 20.2 L 153.7 22.9 L 155 22.9 L 155 23.9 L 153.7 23.9 C 153.7 23.9 153.71 28.32 153.7 28.3 C 153.7 28.7 153.7 28.9 153.8 29 C 153.8 29.1 153.9 29.2 154 29.3 C 154.1 29.3 154.2 29.4 154.4 29.4 C 154.4 29.4 154.4 29.4 154.4 29.4 Z M 156.2 30.5 L 156.2 22.9 L 157.4 22.9 C 157.4 22.9 157.41 24.02 157.4 24 C 157.7 23.5 158 23.1 158.2 23 C 158.5 22.8 158.8 22.7 159.1 22.7 C 159.5 22.7 159.9 22.8 160.4 23.1 C 160.4 23.1 159.9 24.3 159.9 24.3 C 159.6 24.1 159.3 24 159 24 C 158.7 24 158.5 24.1 158.2 24.3 C 158 24.5 157.8 24.7 157.8 25 C 157.6 25.4 157.5 25.9 157.5 26.5 C 157.54 26.49 157.5 30.5 157.5 30.5 L 156.2 30.5 Z M 166.4 30.5 C 166.2 30.2 166.1 29.9 166.1 29.5 C 165.6 29.9 165.2 30.2 164.7 30.4 C 164.3 30.6 163.8 30.6 163.3 30.6 C 162.5 30.6 161.8 30.4 161.4 30 C 160.9 29.6 160.7 29.1 160.7 28.5 C 160.7 28.1 160.8 27.8 161 27.4 C 161.1 27.1 161.4 26.9 161.6 26.7 C 161.9 26.5 162.2 26.4 162.6 26.3 C 162.8 26.2 163.2 26.2 163.7 26.1 C 164.7 26 165.5 25.8 166 25.6 C 166 25.5 166 25.4 166 25.3 C 166 24.8 165.9 24.4 165.6 24.2 C 165.3 23.9 164.8 23.8 164.2 23.8 C 163.6 23.8 163.1 23.9 162.8 24.1 C 162.5 24.3 162.3 24.7 162.2 25.2 C 162.2 25.2 160.9 25 160.9 25 C 161 24.5 161.2 24.1 161.5 23.7 C 161.8 23.4 162.1 23.1 162.6 23 C 163.1 22.8 163.7 22.7 164.4 22.7 C 165 22.7 165.5 22.8 165.9 22.9 C 166.4 23.1 166.6 23.3 166.8 23.5 C 167 23.7 167.2 24 167.2 24.4 C 167.3 24.6 167.3 25 167.3 25.6 C 167.3 25.6 167.3 27.3 167.3 27.3 C 167.3 28.5 167.3 29.2 167.4 29.6 C 167.4 29.9 167.6 30.2 167.7 30.5 C 167.71 30.47 166.4 30.5 166.4 30.5 C 166.4 30.5 166.37 30.47 166.4 30.5 Z M 166 26.7 C 165.5 26.8 164.8 27 163.9 27.1 C 163.4 27.2 163 27.3 162.8 27.4 C 162.6 27.5 162.4 27.6 162.3 27.8 C 162.1 28 162.1 28.2 162.1 28.4 C 162.1 28.8 162.2 29.1 162.5 29.3 C 162.7 29.5 163.1 29.6 163.6 29.6 C 164.1 29.6 164.6 29.5 164.9 29.3 C 165.3 29.1 165.6 28.8 165.8 28.4 C 165.9 28.1 166 27.7 166 27.1 C 166 27.1 166 26.7 166 26.7 Z M 169.3 21.5 L 169.3 20 L 170.6 20 L 170.6 21.5 L 169.3 21.5 Z M 169.3 30.5 L 169.3 22.9 L 170.6 22.9 L 170.6 30.5 L 169.3 30.5 Z M 172.6 30.5 L 172.6 22.9 L 173.7 22.9 C 173.7 22.9 173.72 23.95 173.7 23.9 C 174.3 23.1 175.1 22.7 176.1 22.7 C 176.6 22.7 177 22.8 177.4 22.9 C 177.8 23.1 178.1 23.3 178.3 23.6 C 178.5 23.9 178.6 24.2 178.7 24.5 C 178.7 24.8 178.7 25.2 178.7 25.8 C 178.74 25.8 178.7 30.5 178.7 30.5 L 177.5 30.5 C 177.5 30.5 177.45 25.85 177.5 25.8 C 177.5 25.3 177.4 24.9 177.3 24.7 C 177.2 24.4 177 24.2 176.8 24 C 176.5 23.9 176.2 23.8 175.9 23.8 C 175.3 23.8 174.8 24 174.4 24.3 C 174.1 24.7 173.9 25.3 173.9 26.3 C 173.85 26.32 173.9 30.5 173.9 30.5 L 172.6 30.5 Z M 180.7 21.5 L 180.7 20 L 182 20 L 182 21.5 L 180.7 21.5 Z M 180.7 30.5 L 180.7 22.9 L 182 22.9 L 182 30.5 L 180.7 30.5 Z M 184 30.5 L 184 22.9 L 185.1 22.9 C 185.1 22.9 185.14 23.95 185.1 23.9 C 185.7 23.1 186.5 22.7 187.6 22.7 C 188 22.7 188.4 22.8 188.8 22.9 C 189.2 23.1 189.5 23.3 189.7 23.6 C 189.9 23.9 190 24.2 190.1 24.5 C 190.1 24.8 190.2 25.2 190.2 25.8 C 190.16 25.8 190.2 30.5 190.2 30.5 L 188.9 30.5 C 188.9 30.5 188.87 25.85 188.9 25.8 C 188.9 25.3 188.8 24.9 188.7 24.7 C 188.6 24.4 188.4 24.2 188.2 24 C 187.9 23.9 187.6 23.8 187.3 23.8 C 186.7 23.8 186.3 24 185.9 24.3 C 185.5 24.7 185.3 25.3 185.3 26.3 C 185.27 26.32 185.3 30.5 185.3 30.5 L 184 30.5 Z M 191.9 31.1 C 191.9 31.1 193.2 31.3 193.2 31.3 C 193.2 31.7 193.3 32 193.6 32.1 C 193.9 32.4 194.3 32.5 194.9 32.5 C 195.5 32.5 196 32.4 196.3 32.1 C 196.6 31.9 196.8 31.6 196.9 31.1 C 197 30.9 197 30.3 197 29.5 C 196.5 30.1 195.8 30.5 194.9 30.5 C 193.9 30.5 193.1 30.1 192.5 29.3 C 191.9 28.6 191.6 27.7 191.6 26.6 C 191.6 25.9 191.8 25.2 192 24.6 C 192.3 24 192.7 23.5 193.2 23.2 C 193.7 22.9 194.3 22.7 194.9 22.7 C 195.8 22.7 196.6 23.1 197.2 23.8 C 197.15 23.78 197.2 22.9 197.2 22.9 L 198.3 22.9 C 198.3 22.9 198.34 29.44 198.3 29.4 C 198.3 30.6 198.2 31.5 198 32 C 197.7 32.5 197.4 32.8 196.8 33.1 C 196.3 33.4 195.7 33.6 194.9 33.6 C 194 33.6 193.3 33.4 192.7 32.9 C 192.1 32.5 191.9 31.9 191.9 31.1 Z M 193 26.5 C 193 27.5 193.2 28.3 193.6 28.7 C 194 29.2 194.5 29.4 195 29.4 C 195.6 29.4 196.1 29.2 196.5 28.7 C 196.9 28.3 197.1 27.6 197.1 26.6 C 197.1 25.6 196.9 24.9 196.5 24.5 C 196.1 24 195.6 23.8 195 23.8 C 194.5 23.8 194 24 193.6 24.5 C 193.2 24.9 193 25.6 193 26.5 Z M 209.6 30.5 C 209.5 30.2 209.4 29.9 209.3 29.5 C 208.9 29.9 208.4 30.2 208 30.4 C 207.5 30.6 207 30.6 206.5 30.6 C 205.7 30.6 205.1 30.4 204.6 30 C 204.2 29.6 203.9 29.1 203.9 28.5 C 203.9 28.1 204 27.8 204.2 27.4 C 204.4 27.1 204.6 26.9 204.8 26.7 C 205.1 26.5 205.4 26.4 205.8 26.3 C 206 26.2 206.4 26.2 206.9 26.1 C 208 26 208.7 25.8 209.2 25.6 C 209.2 25.5 209.2 25.4 209.2 25.3 C 209.2 24.8 209.1 24.4 208.9 24.2 C 208.5 23.9 208 23.8 207.4 23.8 C 206.8 23.8 206.3 23.9 206.1 24.1 C 205.8 24.3 205.6 24.7 205.4 25.2 C 205.4 25.2 204.2 25 204.2 25 C 204.3 24.5 204.5 24.1 204.7 23.7 C 205 23.4 205.4 23.1 205.9 23 C 206.4 22.8 206.9 22.7 207.6 22.7 C 208.2 22.7 208.8 22.8 209.2 22.9 C 209.6 23.1 209.9 23.3 210.1 23.5 C 210.3 23.7 210.4 24 210.5 24.4 C 210.5 24.6 210.5 25 210.5 25.6 C 210.5 25.6 210.5 27.3 210.5 27.3 C 210.5 28.5 210.6 29.2 210.6 29.6 C 210.7 29.9 210.8 30.2 210.9 30.5 C 210.93 30.47 209.6 30.5 209.6 30.5 C 209.6 30.5 209.59 30.47 209.6 30.5 Z M 209.2 26.7 C 208.8 26.8 208.1 27 207.1 27.1 C 206.6 27.2 206.2 27.3 206 27.4 C 205.8 27.5 205.6 27.6 205.5 27.8 C 205.4 28 205.3 28.2 205.3 28.4 C 205.3 28.8 205.4 29.1 205.7 29.3 C 206 29.5 206.3 29.6 206.8 29.6 C 207.3 29.6 207.8 29.5 208.2 29.3 C 208.5 29.1 208.8 28.8 209 28.4 C 209.2 28.1 209.2 27.7 209.2 27.1 C 209.2 27.1 209.2 26.7 209.2 26.7 Z M 212.5 30.5 L 212.5 22.9 L 213.7 22.9 C 213.7 22.9 213.68 23.95 213.7 23.9 C 214.2 23.1 215 22.7 216.1 22.7 C 216.6 22.7 217 22.8 217.4 22.9 C 217.8 23.1 218 23.3 218.2 23.6 C 218.4 23.9 218.6 24.2 218.6 24.5 C 218.7 24.8 218.7 25.2 218.7 25.8 C 218.7 25.8 218.7 30.5 218.7 30.5 L 217.4 30.5 C 217.4 30.5 217.41 25.85 217.4 25.8 C 217.4 25.3 217.4 24.9 217.3 24.7 C 217.2 24.4 217 24.2 216.7 24 C 216.5 23.9 216.2 23.8 215.8 23.8 C 215.3 23.8 214.8 24 214.4 24.3 C 214 24.7 213.8 25.3 213.8 26.3 C 213.81 26.32 213.8 30.5 213.8 30.5 L 212.5 30.5 Z M 225.6 30.5 C 225.6 30.5 225.61 29.51 225.6 29.5 C 225.1 30.3 224.4 30.6 223.5 30.6 C 222.9 30.6 222.3 30.5 221.8 30.1 C 221.3 29.8 220.9 29.3 220.6 28.7 C 220.4 28.1 220.2 27.5 220.2 26.7 C 220.2 25.9 220.3 25.2 220.6 24.6 C 220.8 24 221.2 23.5 221.7 23.2 C 222.2 22.9 222.8 22.7 223.4 22.7 C 223.9 22.7 224.3 22.8 224.7 23 C 225 23.2 225.3 23.4 225.5 23.7 C 225.53 23.74 225.5 20 225.5 20 L 226.8 20 L 226.8 30.5 L 225.6 30.5 Z M 221.5 26.7 C 221.5 27.7 221.7 28.4 222.2 28.9 C 222.6 29.3 223.1 29.6 223.6 29.6 C 224.2 29.6 224.7 29.4 225 28.9 C 225.4 28.4 225.6 27.7 225.6 26.8 C 225.6 25.7 225.4 25 225 24.5 C 224.6 24 224.1 23.8 223.6 23.8 C 223 23.8 222.5 24 222.1 24.5 C 221.7 24.9 221.5 25.7 221.5 26.7 Z " stroke="none" fill="#fff"/>  </g></svg>