<?xml version="1.0" standalone="no"?><!DOCTYPE svg PUBLIC "-//W3C//DTD SVG 1.1//EN" "http://www.w3.org/Graphics/SVG/1.1/DTD/svg11.dtd"><svg xmlns="http://www.w3.org/2000/svg" version="1.1" width="328px" height="72.1px" viewBox="0 -11 328 72.1" style="top:-11px">  <desc>WEBINARS Deep dive into on the pulse, industry topics!</desc>  <defs/>  <g id="Polygon65906">    <path d="M 22.4 51.8 L 22.4 41.3 C 22.4 41.3 25.99 41.28 26 41.3 C 26.8 41.3 27.4 41.3 27.9 41.4 C 28.5 41.6 29 41.8 29.4 42.2 C 30 42.7 30.4 43.3 30.6 44 C 30.9 44.7 31.1 45.5 31.1 46.5 C 31.1 47.3 31 48 30.8 48.6 C 30.6 49.2 30.4 49.7 30.1 50.1 C 29.8 50.5 29.4 50.8 29.1 51.1 C 28.8 51.3 28.3 51.5 27.9 51.6 C 27.4 51.7 26.8 51.8 26.2 51.8 C 26.16 51.78 22.4 51.8 22.4 51.8 Z M 23.8 50.5 C 23.8 50.5 26.01 50.54 26 50.5 C 26.7 50.5 27.2 50.5 27.6 50.3 C 28 50.2 28.3 50 28.6 49.8 C 28.9 49.5 29.2 49 29.3 48.5 C 29.5 47.9 29.6 47.2 29.6 46.5 C 29.6 45.4 29.4 44.5 29.1 43.9 C 28.7 43.3 28.3 42.9 27.8 42.7 C 27.4 42.6 26.8 42.5 26 42.5 C 25.97 42.52 23.8 42.5 23.8 42.5 L 23.8 50.5 Z M 38 49.3 C 38 49.3 39.3 49.5 39.3 49.5 C 39.1 50.3 38.7 50.9 38.2 51.3 C 37.6 51.7 36.9 52 36 52 C 34.9 52 34 51.6 33.4 50.9 C 32.7 50.2 32.4 49.3 32.4 48 C 32.4 46.8 32.7 45.8 33.4 45.1 C 34 44.4 34.9 44 35.9 44 C 36.9 44 37.8 44.4 38.4 45 C 39.1 45.7 39.4 46.7 39.4 48 C 39.4 48 39.4 48.2 39.4 48.3 C 39.4 48.3 33.7 48.3 33.7 48.3 C 33.8 49.1 34 49.8 34.4 50.2 C 34.8 50.7 35.4 50.9 36 50.9 C 36.5 50.9 36.9 50.8 37.2 50.5 C 37.5 50.3 37.8 49.9 38 49.3 Z M 33.8 47.2 C 33.8 47.2 38 47.2 38 47.2 C 38 46.6 37.8 46.1 37.5 45.8 C 37.1 45.3 36.6 45.1 35.9 45.1 C 35.3 45.1 34.8 45.3 34.4 45.7 C 34 46.1 33.8 46.6 33.8 47.2 Z M 46.2 49.3 C 46.2 49.3 47.5 49.5 47.5 49.5 C 47.3 50.3 46.9 50.9 46.3 51.3 C 45.8 51.7 45 52 44.2 52 C 43 52 42.2 51.6 41.5 50.9 C 40.9 50.2 40.5 49.3 40.5 48 C 40.5 46.8 40.9 45.8 41.5 45.1 C 42.2 44.4 43 44 44.1 44 C 45.1 44 45.9 44.4 46.6 45 C 47.2 45.7 47.5 46.7 47.5 48 C 47.5 48 47.5 48.2 47.5 48.3 C 47.5 48.3 41.9 48.3 41.9 48.3 C 41.9 49.1 42.1 49.8 42.6 50.2 C 43 50.7 43.5 50.9 44.2 50.9 C 44.6 50.9 45 50.8 45.4 50.5 C 45.7 50.3 46 49.9 46.2 49.3 Z M 41.9 47.2 C 41.9 47.2 46.2 47.2 46.2 47.2 C 46.1 46.6 46 46.1 45.7 45.8 C 45.3 45.3 44.8 45.1 44.1 45.1 C 43.5 45.1 43 45.3 42.6 45.7 C 42.2 46.1 42 46.6 41.9 47.2 Z M 49.1 54.7 L 49.1 44.2 L 50.3 44.2 C 50.3 44.2 50.29 45.16 50.3 45.2 C 50.6 44.8 50.9 44.5 51.2 44.3 C 51.6 44.1 52 44 52.5 44 C 53.1 44 53.7 44.2 54.2 44.5 C 54.7 44.8 55.1 45.3 55.3 45.9 C 55.6 46.5 55.7 47.2 55.7 47.9 C 55.7 48.7 55.6 49.4 55.3 50 C 55 50.6 54.6 51.1 54.1 51.5 C 53.6 51.8 53 52 52.4 52 C 52 52 51.6 51.9 51.2 51.7 C 50.9 51.5 50.6 51.3 50.4 51 C 50.41 50.99 50.4 54.7 50.4 54.7 L 49.1 54.7 Z M 50.3 48 C 50.3 49 50.5 49.7 50.9 50.2 C 51.3 50.7 51.8 50.9 52.3 50.9 C 52.9 50.9 53.4 50.7 53.8 50.2 C 54.2 49.7 54.4 48.9 54.4 47.9 C 54.4 46.9 54.2 46.2 53.8 45.7 C 53.4 45.3 52.9 45 52.4 45 C 51.8 45 51.3 45.3 50.9 45.8 C 50.5 46.3 50.3 47 50.3 48 Z M 66.3 51.8 C 66.3 51.8 66.28 50.82 66.3 50.8 C 65.8 51.6 65.1 52 64.2 52 C 63.5 52 63 51.8 62.5 51.5 C 62 51.1 61.6 50.7 61.3 50.1 C 61 49.5 60.9 48.8 60.9 48 C 60.9 47.2 61 46.5 61.3 45.9 C 61.5 45.3 61.9 44.8 62.4 44.5 C 62.9 44.2 63.5 44 64.1 44 C 64.6 44 65 44.1 65.3 44.3 C 65.7 44.5 66 44.7 66.2 45.1 C 66.2 45.05 66.2 41.3 66.2 41.3 L 67.5 41.3 L 67.5 51.8 L 66.3 51.8 Z M 62.2 48 C 62.2 49 62.4 49.7 62.8 50.2 C 63.2 50.7 63.7 50.9 64.3 50.9 C 64.8 50.9 65.3 50.7 65.7 50.2 C 66.1 49.7 66.3 49 66.3 48.1 C 66.3 47.1 66.1 46.3 65.7 45.8 C 65.3 45.3 64.8 45.1 64.2 45.1 C 63.6 45.1 63.2 45.3 62.8 45.8 C 62.4 46.2 62.2 47 62.2 48 Z M 69.5 42.8 L 69.5 41.3 L 70.8 41.3 L 70.8 42.8 L 69.5 42.8 Z M 69.5 51.8 L 69.5 44.2 L 70.8 44.2 L 70.8 51.8 L 69.5 51.8 Z M 74.9 51.8 L 72 44.2 L 73.3 44.2 C 73.3 44.2 74.98 48.73 75 48.7 C 75.2 49.2 75.3 49.7 75.5 50.3 C 75.6 49.9 75.7 49.4 75.9 48.8 C 75.94 48.82 77.6 44.2 77.6 44.2 L 79 44.2 L 76.1 51.8 L 74.9 51.8 Z M 85.3 49.3 C 85.3 49.3 86.6 49.5 86.6 49.5 C 86.4 50.3 86 50.9 85.5 51.3 C 84.9 51.7 84.2 52 83.3 52 C 82.2 52 81.3 51.6 80.6 50.9 C 80 50.2 79.7 49.3 79.7 48 C 79.7 46.8 80 45.8 80.7 45.1 C 81.3 44.4 82.2 44 83.2 44 C 84.2 44 85.1 44.4 85.7 45 C 86.4 45.7 86.7 46.7 86.7 48 C 86.7 48 86.7 48.2 86.7 48.3 C 86.7 48.3 81 48.3 81 48.3 C 81 49.1 81.3 49.8 81.7 50.2 C 82.1 50.7 82.7 50.9 83.3 50.9 C 83.8 50.9 84.2 50.8 84.5 50.5 C 84.8 50.3 85.1 49.9 85.3 49.3 Z M 81.1 47.2 C 81.1 47.2 85.3 47.2 85.3 47.2 C 85.3 46.6 85.1 46.1 84.8 45.8 C 84.4 45.3 83.9 45.1 83.2 45.1 C 82.6 45.1 82.1 45.3 81.7 45.7 C 81.3 46.1 81.1 46.6 81.1 47.2 Z M 92.3 42.8 L 92.3 41.3 L 93.6 41.3 L 93.6 42.8 L 92.3 42.8 Z M 92.3 51.8 L 92.3 44.2 L 93.6 44.2 L 93.6 51.8 L 92.3 51.8 Z M 95.6 51.8 L 95.6 44.2 L 96.7 44.2 C 96.7 44.2 96.75 45.26 96.7 45.3 C 97.3 44.4 98.1 44 99.2 44 C 99.6 44 100 44.1 100.4 44.3 C 100.8 44.4 101.1 44.6 101.3 44.9 C 101.5 45.2 101.6 45.5 101.7 45.9 C 101.7 46.1 101.8 46.5 101.8 47.1 C 101.77 47.11 101.8 51.8 101.8 51.8 L 100.5 51.8 C 100.5 51.8 100.48 47.16 100.5 47.2 C 100.5 46.6 100.4 46.2 100.3 46 C 100.2 45.7 100 45.5 99.8 45.4 C 99.5 45.2 99.2 45.1 98.9 45.1 C 98.3 45.1 97.9 45.3 97.5 45.6 C 97.1 46 96.9 46.7 96.9 47.6 C 96.88 47.63 96.9 51.8 96.9 51.8 L 95.6 51.8 Z M 106 50.7 C 106.1 50.7 106.3 50.7 106.6 50.6 C 106.6 50.6 106.7 51.8 106.7 51.8 C 106.4 51.8 106.1 51.9 105.8 51.9 C 105.3 51.9 104.9 51.8 104.7 51.7 C 104.4 51.5 104.2 51.3 104.1 51.1 C 104 50.8 104 50.3 104 49.6 C 103.98 49.55 104 45.2 104 45.2 L 103 45.2 L 103 44.2 L 104 44.2 L 104 42.3 L 105.3 41.5 L 105.3 44.2 L 106.6 44.2 L 106.6 45.2 L 105.3 45.2 C 105.3 45.2 105.26 49.63 105.3 49.6 C 105.3 50 105.3 50.2 105.3 50.3 C 105.4 50.4 105.4 50.5 105.6 50.6 C 105.7 50.6 105.8 50.7 106 50.7 C 106 50.7 106 50.7 106 50.7 Z M 107.3 48 C 107.3 46.6 107.7 45.5 108.5 44.8 C 109.2 44.3 110 44 110.9 44 C 112 44 112.8 44.3 113.5 45 C 114.1 45.7 114.5 46.7 114.5 47.9 C 114.5 48.9 114.3 49.6 114 50.2 C 113.7 50.7 113.3 51.2 112.7 51.5 C 112.2 51.8 111.6 52 110.9 52 C 109.8 52 109 51.6 108.3 50.9 C 107.7 50.2 107.3 49.3 107.3 48 Z M 108.7 48 C 108.7 49 108.9 49.7 109.3 50.2 C 109.7 50.7 110.3 50.9 110.9 50.9 C 111.5 50.9 112.1 50.7 112.5 50.2 C 112.9 49.7 113.1 48.9 113.1 47.9 C 113.1 47 112.9 46.3 112.5 45.8 C 112.1 45.3 111.5 45.1 110.9 45.1 C 110.3 45.1 109.7 45.3 109.3 45.8 C 108.9 46.3 108.7 47 108.7 48 Z M 119.6 48 C 119.6 46.6 120 45.5 120.7 44.8 C 121.4 44.3 122.2 44 123.1 44 C 124.2 44 125 44.3 125.7 45 C 126.4 45.7 126.7 46.7 126.7 47.9 C 126.7 48.9 126.5 49.6 126.3 50.2 C 126 50.7 125.5 51.2 125 51.5 C 124.4 51.8 123.8 52 123.1 52 C 122.1 52 121.2 51.6 120.6 50.9 C 119.9 50.2 119.6 49.3 119.6 48 Z M 120.9 48 C 120.9 49 121.1 49.7 121.5 50.2 C 122 50.7 122.5 50.9 123.1 50.9 C 123.8 50.9 124.3 50.7 124.7 50.2 C 125.2 49.7 125.4 48.9 125.4 47.9 C 125.4 47 125.2 46.3 124.7 45.8 C 124.3 45.3 123.8 45.1 123.1 45.1 C 122.5 45.1 122 45.3 121.5 45.8 C 121.1 46.3 120.9 47 120.9 48 Z M 128.2 51.8 L 128.2 44.2 L 129.4 44.2 C 129.4 44.2 129.37 45.26 129.4 45.3 C 129.9 44.4 130.7 44 131.8 44 C 132.2 44 132.7 44.1 133.1 44.3 C 133.4 44.4 133.7 44.6 133.9 44.9 C 134.1 45.2 134.2 45.5 134.3 45.9 C 134.4 46.1 134.4 46.5 134.4 47.1 C 134.39 47.11 134.4 51.8 134.4 51.8 L 133.1 51.8 C 133.1 51.8 133.1 47.16 133.1 47.2 C 133.1 46.6 133 46.2 132.9 46 C 132.8 45.7 132.7 45.5 132.4 45.4 C 132.2 45.2 131.9 45.1 131.5 45.1 C 131 45.1 130.5 45.3 130.1 45.6 C 129.7 46 129.5 46.7 129.5 47.6 C 129.5 47.63 129.5 51.8 129.5 51.8 L 128.2 51.8 Z M 135.9 48.6 L 135.9 47.3 L 139.8 47.3 L 139.8 48.6 L 135.9 48.6 Z M 143.5 50.7 C 143.6 50.7 143.8 50.7 144.1 50.6 C 144.1 50.6 144.2 51.8 144.2 51.8 C 143.9 51.8 143.6 51.9 143.3 51.9 C 142.8 51.9 142.4 51.8 142.2 51.7 C 141.9 51.5 141.7 51.3 141.6 51.1 C 141.5 50.8 141.5 50.3 141.5 49.6 C 141.48 49.55 141.5 45.2 141.5 45.2 L 140.5 45.2 L 140.5 44.2 L 141.5 44.2 L 141.5 42.3 L 142.8 41.5 L 142.8 44.2 L 144.1 44.2 L 144.1 45.2 L 142.8 45.2 C 142.8 45.2 142.77 49.63 142.8 49.6 C 142.8 50 142.8 50.2 142.8 50.3 C 142.9 50.4 143 50.5 143.1 50.6 C 143.2 50.6 143.3 50.7 143.5 50.7 C 143.5 50.7 143.5 50.7 143.5 50.7 Z M 145.3 51.8 L 145.3 41.3 L 146.6 41.3 C 146.6 41.3 146.61 45.05 146.6 45.1 C 147.2 44.4 148 44 148.9 44 C 149.5 44 149.9 44.1 150.4 44.3 C 150.8 44.6 151.1 44.9 151.2 45.3 C 151.4 45.6 151.5 46.2 151.5 47 C 151.52 46.96 151.5 51.8 151.5 51.8 L 150.2 51.8 C 150.2 51.8 150.23 46.96 150.2 47 C 150.2 46.3 150.1 45.8 149.8 45.6 C 149.5 45.3 149.1 45.1 148.6 45.1 C 148.2 45.1 147.9 45.2 147.5 45.4 C 147.2 45.6 147 45.9 146.8 46.2 C 146.7 46.6 146.6 47 146.6 47.6 C 146.61 47.62 146.6 51.8 146.6 51.8 L 145.3 51.8 Z M 158.7 49.3 C 158.7 49.3 160 49.5 160 49.5 C 159.8 50.3 159.4 50.9 158.9 51.3 C 158.3 51.7 157.6 52 156.7 52 C 155.6 52 154.7 51.6 154 50.9 C 153.4 50.2 153.1 49.3 153.1 48 C 153.1 46.8 153.4 45.8 154 45.1 C 154.7 44.4 155.6 44 156.6 44 C 157.6 44 158.5 44.4 159.1 45 C 159.7 45.7 160.1 46.7 160.1 48 C 160.1 48 160.1 48.2 160.1 48.3 C 160.1 48.3 154.4 48.3 154.4 48.3 C 154.4 49.1 154.7 49.8 155.1 50.2 C 155.5 50.7 156 50.9 156.7 50.9 C 157.2 50.9 157.6 50.8 157.9 50.5 C 158.2 50.3 158.5 49.9 158.7 49.3 Z M 154.5 47.2 C 154.5 47.2 158.7 47.2 158.7 47.2 C 158.6 46.6 158.5 46.1 158.2 45.8 C 157.8 45.3 157.3 45.1 156.6 45.1 C 156 45.1 155.5 45.3 155.1 45.7 C 154.7 46.1 154.5 46.6 154.5 47.2 Z M 161.1 48.6 L 161.1 47.3 L 165.1 47.3 L 165.1 48.6 L 161.1 48.6 Z M 166.5 54.7 L 166.5 44.2 L 167.7 44.2 C 167.7 44.2 167.7 45.16 167.7 45.2 C 168 44.8 168.3 44.5 168.6 44.3 C 169 44.1 169.4 44 169.9 44 C 170.6 44 171.1 44.2 171.6 44.5 C 172.1 44.8 172.5 45.3 172.7 45.9 C 173 46.5 173.1 47.2 173.1 47.9 C 173.1 48.7 173 49.4 172.7 50 C 172.4 50.6 172 51.1 171.5 51.5 C 171 51.8 170.4 52 169.8 52 C 169.4 52 169 51.9 168.7 51.7 C 168.3 51.5 168 51.3 167.8 51 C 167.81 50.99 167.8 54.7 167.8 54.7 L 166.5 54.7 Z M 167.7 48 C 167.7 49 167.9 49.7 168.3 50.2 C 168.7 50.7 169.2 50.9 169.7 50.9 C 170.3 50.9 170.8 50.7 171.2 50.2 C 171.6 49.7 171.8 48.9 171.8 47.9 C 171.8 46.9 171.6 46.2 171.2 45.7 C 170.8 45.3 170.3 45 169.8 45 C 169.2 45 168.7 45.3 168.3 45.8 C 167.9 46.3 167.7 47 167.7 48 Z M 179.7 51.8 C 179.7 51.8 179.66 50.66 179.7 50.7 C 179.1 51.5 178.3 52 177.2 52 C 176.8 52 176.4 51.9 176 51.7 C 175.6 51.5 175.3 51.3 175.1 51 C 174.9 50.8 174.8 50.5 174.7 50.1 C 174.7 49.8 174.6 49.4 174.6 48.9 C 174.65 48.89 174.6 44.2 174.6 44.2 L 175.9 44.2 C 175.9 44.2 175.94 48.39 175.9 48.4 C 175.9 49.1 176 49.5 176 49.8 C 176.1 50.1 176.3 50.4 176.5 50.6 C 176.8 50.7 177.1 50.8 177.5 50.8 C 177.9 50.8 178.3 50.7 178.6 50.5 C 178.9 50.3 179.2 50.1 179.3 49.7 C 179.5 49.4 179.5 48.9 179.5 48.3 C 179.53 48.25 179.5 44.2 179.5 44.2 L 180.8 44.2 L 180.8 51.8 L 179.7 51.8 Z M 182.8 51.8 L 182.8 41.3 L 184.1 41.3 L 184.1 51.8 L 182.8 51.8 Z M 185.6 49.5 C 185.6 49.5 186.9 49.3 186.9 49.3 C 186.9 49.8 187.1 50.2 187.5 50.5 C 187.8 50.8 188.2 50.9 188.8 50.9 C 189.4 50.9 189.9 50.8 190.1 50.5 C 190.4 50.3 190.6 50 190.6 49.7 C 190.6 49.4 190.4 49.2 190.2 49 C 190 48.9 189.6 48.7 188.9 48.6 C 187.9 48.3 187.3 48.1 186.9 47.9 C 186.5 47.8 186.3 47.5 186.1 47.2 C 185.9 46.9 185.8 46.6 185.8 46.2 C 185.8 45.9 185.9 45.5 186 45.3 C 186.2 45 186.4 44.7 186.7 44.5 C 186.9 44.4 187.1 44.3 187.5 44.2 C 187.8 44.1 188.2 44 188.6 44 C 189.2 44 189.7 44.1 190.2 44.3 C 190.6 44.4 190.9 44.7 191.2 45 C 191.4 45.3 191.5 45.6 191.6 46.1 C 191.6 46.1 190.3 46.3 190.3 46.3 C 190.3 45.9 190.1 45.6 189.8 45.4 C 189.6 45.2 189.2 45.1 188.7 45.1 C 188.1 45.1 187.7 45.2 187.4 45.4 C 187.2 45.6 187 45.8 187 46 C 187 46.2 187.1 46.4 187.2 46.5 C 187.3 46.6 187.5 46.7 187.7 46.8 C 187.8 46.9 188.2 47 188.8 47.2 C 189.7 47.4 190.4 47.6 190.7 47.8 C 191.1 47.9 191.4 48.1 191.6 48.4 C 191.8 48.7 191.9 49.1 191.9 49.5 C 191.9 50 191.8 50.4 191.5 50.8 C 191.3 51.1 190.9 51.4 190.4 51.6 C 190 51.9 189.4 52 188.8 52 C 187.8 52 187.1 51.7 186.6 51.3 C 186.1 50.9 185.7 50.3 185.6 49.5 Z M 198.6 49.3 C 198.6 49.3 200 49.5 200 49.5 C 199.8 50.3 199.4 50.9 198.8 51.3 C 198.2 51.7 197.5 52 196.6 52 C 195.5 52 194.6 51.6 194 50.9 C 193.3 50.2 193 49.3 193 48 C 193 46.8 193.3 45.8 194 45.1 C 194.6 44.4 195.5 44 196.5 44 C 197.6 44 198.4 44.4 199 45 C 199.7 45.7 200 46.7 200 48 C 200 48 200 48.2 200 48.3 C 200 48.3 194.3 48.3 194.3 48.3 C 194.4 49.1 194.6 49.8 195 50.2 C 195.5 50.7 196 50.9 196.6 50.9 C 197.1 50.9 197.5 50.8 197.8 50.5 C 198.2 50.3 198.4 49.9 198.6 49.3 Z M 194.4 47.2 C 194.4 47.2 198.6 47.2 198.6 47.2 C 198.6 46.6 198.4 46.1 198.2 45.8 C 197.7 45.3 197.2 45.1 196.6 45.1 C 196 45.1 195.5 45.3 195.1 45.7 C 194.7 46.1 194.4 46.6 194.4 47.2 Z M 201.9 51.8 L 201.9 50.3 L 203.4 50.3 C 203.4 50.3 203.39 51.78 203.4 51.8 C 203.4 52.3 203.3 52.8 203.1 53.1 C 202.9 53.4 202.6 53.7 202.2 53.9 C 202.2 53.9 201.8 53.3 201.8 53.3 C 202.1 53.2 202.3 53 202.4 52.8 C 202.6 52.5 202.6 52.2 202.7 51.8 C 202.65 51.78 201.9 51.8 201.9 51.8 Z M 209.7 42.8 L 209.7 41.3 L 211 41.3 L 211 42.8 L 209.7 42.8 Z M 209.7 51.8 L 209.7 44.2 L 211 44.2 L 211 51.8 L 209.7 51.8 Z M 213 51.8 L 213 44.2 L 214.2 44.2 C 214.2 44.2 214.15 45.26 214.2 45.3 C 214.7 44.4 215.5 44 216.6 44 C 217 44 217.5 44.1 217.8 44.3 C 218.2 44.4 218.5 44.6 218.7 44.9 C 218.9 45.2 219 45.5 219.1 45.9 C 219.1 46.1 219.2 46.5 219.2 47.1 C 219.17 47.11 219.2 51.8 219.2 51.8 L 217.9 51.8 C 217.9 51.8 217.88 47.16 217.9 47.2 C 217.9 46.6 217.8 46.2 217.7 46 C 217.6 45.7 217.5 45.5 217.2 45.4 C 216.9 45.2 216.6 45.1 216.3 45.1 C 215.8 45.1 215.3 45.3 214.9 45.6 C 214.5 46 214.3 46.7 214.3 47.6 C 214.28 47.63 214.3 51.8 214.3 51.8 L 213 51.8 Z M 226.1 51.8 C 226.1 51.8 226.08 50.82 226.1 50.8 C 225.6 51.6 224.9 52 224 52 C 223.3 52 222.8 51.8 222.3 51.5 C 221.8 51.1 221.4 50.7 221.1 50.1 C 220.8 49.5 220.7 48.8 220.7 48 C 220.7 47.2 220.8 46.5 221.1 45.9 C 221.3 45.3 221.7 44.8 222.2 44.5 C 222.7 44.2 223.3 44 223.9 44 C 224.4 44 224.8 44.1 225.1 44.3 C 225.5 44.5 225.8 44.7 226 45.1 C 226 45.05 226 41.3 226 41.3 L 227.3 41.3 L 227.3 51.8 L 226.1 51.8 Z M 222 48 C 222 49 222.2 49.7 222.6 50.2 C 223 50.7 223.5 50.9 224.1 50.9 C 224.6 50.9 225.1 50.7 225.5 50.2 C 225.9 49.7 226.1 49 226.1 48.1 C 226.1 47.1 225.9 46.3 225.5 45.8 C 225.1 45.3 224.6 45.1 224 45.1 C 223.4 45.1 223 45.3 222.6 45.8 C 222.2 46.2 222 47 222 48 Z M 234.3 51.8 C 234.3 51.8 234.29 50.66 234.3 50.7 C 233.7 51.5 232.9 52 231.9 52 C 231.4 52 231 51.9 230.6 51.7 C 230.2 51.5 229.9 51.3 229.8 51 C 229.6 50.8 229.4 50.5 229.4 50.1 C 229.3 49.8 229.3 49.4 229.3 48.9 C 229.28 48.89 229.3 44.2 229.3 44.2 L 230.6 44.2 C 230.6 44.2 230.57 48.39 230.6 48.4 C 230.6 49.1 230.6 49.5 230.6 49.8 C 230.7 50.1 230.9 50.4 231.2 50.6 C 231.4 50.7 231.7 50.8 232.1 50.8 C 232.5 50.8 232.9 50.7 233.2 50.5 C 233.6 50.3 233.8 50.1 233.9 49.7 C 234.1 49.4 234.2 48.9 234.2 48.3 C 234.15 48.25 234.2 44.2 234.2 44.2 L 235.4 44.2 L 235.4 51.8 L 234.3 51.8 Z M 236.9 49.5 C 236.9 49.5 238.2 49.3 238.2 49.3 C 238.3 49.8 238.5 50.2 238.8 50.5 C 239.1 50.8 239.6 50.9 240.2 50.9 C 240.8 50.9 241.2 50.8 241.5 50.5 C 241.8 50.3 241.9 50 241.9 49.7 C 241.9 49.4 241.8 49.2 241.6 49 C 241.4 48.9 240.9 48.7 240.2 48.6 C 239.3 48.3 238.6 48.1 238.3 47.9 C 237.9 47.8 237.6 47.5 237.4 47.2 C 237.3 46.9 237.2 46.6 237.2 46.2 C 237.2 45.9 237.2 45.5 237.4 45.3 C 237.5 45 237.8 44.7 238 44.5 C 238.2 44.4 238.5 44.3 238.8 44.2 C 239.2 44.1 239.6 44 240 44 C 240.6 44 241.1 44.1 241.5 44.3 C 242 44.4 242.3 44.7 242.5 45 C 242.7 45.3 242.9 45.6 243 46.1 C 243 46.1 241.7 46.3 241.7 46.3 C 241.7 45.9 241.5 45.6 241.2 45.4 C 240.9 45.2 240.6 45.1 240.1 45.1 C 239.5 45.1 239 45.2 238.8 45.4 C 238.5 45.6 238.4 45.8 238.4 46 C 238.4 46.2 238.5 46.4 238.6 46.5 C 238.7 46.6 238.8 46.7 239.1 46.8 C 239.2 46.9 239.6 47 240.2 47.2 C 241.1 47.4 241.7 47.6 242.1 47.8 C 242.5 47.9 242.8 48.1 243 48.4 C 243.2 48.7 243.3 49.1 243.3 49.5 C 243.3 50 243.1 50.4 242.9 50.8 C 242.6 51.1 242.3 51.4 241.8 51.6 C 241.3 51.9 240.8 52 240.2 52 C 239.2 52 238.5 51.7 237.9 51.3 C 237.4 50.9 237.1 50.3 236.9 49.5 Z M 247 50.7 C 247.2 50.7 247.4 50.7 247.6 50.6 C 247.6 50.6 247.8 51.8 247.8 51.8 C 247.4 51.8 247.1 51.9 246.8 51.9 C 246.4 51.9 246 51.8 245.7 51.7 C 245.5 51.5 245.3 51.3 245.2 51.1 C 245.1 50.8 245 50.3 245 49.6 C 245.03 49.55 245 45.2 245 45.2 L 244.1 45.2 L 244.1 44.2 L 245 44.2 L 245 42.3 L 246.3 41.5 L 246.3 44.2 L 247.6 44.2 L 247.6 45.2 L 246.3 45.2 C 246.3 45.2 246.31 49.63 246.3 49.6 C 246.3 50 246.3 50.2 246.4 50.3 C 246.4 50.4 246.5 50.5 246.6 50.6 C 246.7 50.6 246.9 50.7 247 50.7 C 247 50.7 247 50.7 247 50.7 Z M 248.9 51.8 L 248.9 44.2 L 250 44.2 C 250 44.2 250.02 45.33 250 45.3 C 250.3 44.8 250.6 44.4 250.8 44.3 C 251.1 44.1 251.4 44 251.7 44 C 252.1 44 252.5 44.1 253 44.4 C 253 44.4 252.5 45.6 252.5 45.6 C 252.2 45.4 251.9 45.3 251.6 45.3 C 251.3 45.3 251.1 45.4 250.8 45.6 C 250.6 45.8 250.5 46 250.4 46.3 C 250.2 46.8 250.1 47.3 250.1 47.8 C 250.15 47.8 250.1 51.8 250.1 51.8 L 248.9 51.8 Z M 254.5 54.9 C 254.3 54.9 254 54.8 253.7 54.7 C 253.7 54.7 253.6 53.5 253.6 53.5 C 253.8 53.6 254.1 53.6 254.3 53.6 C 254.6 53.6 254.8 53.6 255 53.5 C 255.2 53.4 255.3 53.2 255.4 53.1 C 255.5 52.9 255.6 52.6 255.8 52.1 C 255.8 52 255.9 51.9 255.9 51.8 C 255.91 51.8 253 44.2 253 44.2 L 254.4 44.2 C 254.4 44.2 256 48.58 256 48.6 C 256.2 49.1 256.4 49.7 256.5 50.3 C 256.7 49.8 256.9 49.2 257.1 48.6 C 257.08 48.61 258.7 44.2 258.7 44.2 L 260 44.2 C 260 44.2 257.1 51.91 257.1 51.9 C 256.8 52.7 256.5 53.3 256.4 53.6 C 256.1 54.1 255.9 54.4 255.6 54.6 C 255.3 54.8 254.9 54.9 254.5 54.9 C 254.5 54.9 254.5 54.9 254.5 54.9 Z M 267.4 50.7 C 267.6 50.7 267.7 50.7 268 50.6 C 268 50.6 268.2 51.8 268.2 51.8 C 267.8 51.8 267.5 51.9 267.2 51.9 C 266.7 51.9 266.4 51.8 266.1 51.7 C 265.8 51.5 265.7 51.3 265.6 51.1 C 265.5 50.8 265.4 50.3 265.4 49.6 C 265.4 49.55 265.4 45.2 265.4 45.2 L 264.5 45.2 L 264.5 44.2 L 265.4 44.2 L 265.4 42.3 L 266.7 41.5 L 266.7 44.2 L 268 44.2 L 268 45.2 L 266.7 45.2 C 266.7 45.2 266.68 49.63 266.7 49.6 C 266.7 50 266.7 50.2 266.7 50.3 C 266.8 50.4 266.9 50.5 267 50.6 C 267.1 50.6 267.2 50.7 267.4 50.7 C 267.4 50.7 267.4 50.7 267.4 50.7 Z M 268.8 48 C 268.8 46.6 269.1 45.5 269.9 44.8 C 270.6 44.3 271.4 44 272.3 44 C 273.4 44 274.2 44.3 274.9 45 C 275.6 45.7 275.9 46.7 275.9 47.9 C 275.9 48.9 275.7 49.6 275.4 50.2 C 275.1 50.7 274.7 51.2 274.2 51.5 C 273.6 51.8 273 52 272.3 52 C 271.3 52 270.4 51.6 269.7 50.9 C 269.1 50.2 268.8 49.3 268.8 48 Z M 270.1 48 C 270.1 49 270.3 49.7 270.7 50.2 C 271.1 50.7 271.7 50.9 272.3 50.9 C 273 50.9 273.5 50.7 273.9 50.2 C 274.3 49.7 274.6 48.9 274.6 47.9 C 274.6 47 274.3 46.3 273.9 45.8 C 273.5 45.3 273 45.1 272.3 45.1 C 271.7 45.1 271.1 45.3 270.7 45.8 C 270.3 46.3 270.1 47 270.1 48 Z M 277.4 54.7 L 277.4 44.2 L 278.6 44.2 C 278.6 44.2 278.57 45.16 278.6 45.2 C 278.8 44.8 279.2 44.5 279.5 44.3 C 279.9 44.1 280.3 44 280.8 44 C 281.4 44 282 44.2 282.5 44.5 C 283 44.8 283.4 45.3 283.6 45.9 C 283.9 46.5 284 47.2 284 47.9 C 284 48.7 283.9 49.4 283.6 50 C 283.3 50.6 282.9 51.1 282.4 51.5 C 281.8 51.8 281.3 52 280.7 52 C 280.3 52 279.9 51.9 279.5 51.7 C 279.2 51.5 278.9 51.3 278.7 51 C 278.68 50.99 278.7 54.7 278.7 54.7 L 277.4 54.7 Z M 278.6 48 C 278.6 49 278.8 49.7 279.2 50.2 C 279.6 50.7 280 50.9 280.6 50.9 C 281.2 50.9 281.7 50.7 282.1 50.2 C 282.5 49.7 282.7 48.9 282.7 47.9 C 282.7 46.9 282.5 46.2 282.1 45.7 C 281.7 45.3 281.2 45 280.7 45 C 280.1 45 279.6 45.3 279.2 45.8 C 278.8 46.3 278.6 47 278.6 48 Z M 285.6 42.8 L 285.6 41.3 L 286.8 41.3 L 286.8 42.8 L 285.6 42.8 Z M 285.6 51.8 L 285.6 44.2 L 286.8 44.2 L 286.8 51.8 L 285.6 51.8 Z M 293.8 49 C 293.8 49 295 49.2 295 49.2 C 294.9 50 294.5 50.7 294 51.2 C 293.4 51.7 292.7 52 291.9 52 C 290.8 52 290 51.6 289.4 50.9 C 288.7 50.3 288.4 49.3 288.4 48 C 288.4 47.2 288.6 46.5 288.8 45.9 C 289.1 45.2 289.5 44.8 290.1 44.5 C 290.6 44.2 291.2 44 291.9 44 C 292.7 44 293.4 44.2 293.9 44.6 C 294.4 45 294.8 45.6 294.9 46.4 C 294.9 46.4 293.7 46.6 293.7 46.6 C 293.5 46.1 293.3 45.7 293 45.5 C 292.7 45.2 292.4 45.1 291.9 45.1 C 291.3 45.1 290.8 45.3 290.3 45.8 C 289.9 46.2 289.7 47 289.7 48 C 289.7 49 289.9 49.7 290.3 50.2 C 290.7 50.7 291.2 50.9 291.9 50.9 C 292.4 50.9 292.8 50.7 293.1 50.4 C 293.5 50.1 293.7 49.6 293.8 49 Z M 295.6 49.5 C 295.6 49.5 296.9 49.3 296.9 49.3 C 297 49.8 297.2 50.2 297.5 50.5 C 297.8 50.8 298.3 50.9 298.9 50.9 C 299.5 50.9 299.9 50.8 300.2 50.5 C 300.5 50.3 300.6 50 300.6 49.7 C 300.6 49.4 300.5 49.2 300.2 49 C 300.1 48.9 299.6 48.7 298.9 48.6 C 298 48.3 297.3 48.1 297 47.9 C 296.6 47.8 296.3 47.5 296.1 47.2 C 295.9 46.9 295.8 46.6 295.8 46.2 C 295.8 45.9 295.9 45.5 296.1 45.3 C 296.2 45 296.4 44.7 296.7 44.5 C 296.9 44.4 297.2 44.3 297.5 44.2 C 297.9 44.1 298.2 44 298.6 44 C 299.2 44 299.8 44.1 300.2 44.3 C 300.7 44.4 301 44.7 301.2 45 C 301.4 45.3 301.6 45.6 301.7 46.1 C 301.7 46.1 300.4 46.3 300.4 46.3 C 300.3 45.9 300.2 45.6 299.9 45.4 C 299.6 45.2 299.2 45.1 298.7 45.1 C 298.1 45.1 297.7 45.2 297.5 45.4 C 297.2 45.6 297.1 45.8 297.1 46 C 297.1 46.2 297.1 46.4 297.2 46.5 C 297.4 46.6 297.5 46.7 297.7 46.8 C 297.9 46.9 298.2 47 298.9 47.2 C 299.8 47.4 300.4 47.6 300.8 47.8 C 301.1 47.9 301.4 48.1 301.6 48.4 C 301.8 48.7 301.9 49.1 301.9 49.5 C 301.9 50 301.8 50.4 301.6 50.8 C 301.3 51.1 301 51.4 300.5 51.6 C 300 51.9 299.5 52 298.9 52 C 297.9 52 297.1 51.7 296.6 51.3 C 296.1 50.9 295.8 50.3 295.6 49.5 Z M 304.2 49.2 L 303.8 43.6 L 303.8 41.3 L 305.4 41.3 L 305.4 43.6 L 305 49.2 L 304.2 49.2 Z M 303.8 51.8 L 303.8 50.3 L 305.3 50.3 L 305.3 51.8 L 303.8 51.8 Z " stroke="none" fill="#ffffff"/>  </g>  <g id="Polygon65905">    <path d="M 119.4 2.9 L 113.9 16.7 L 113.6 16.7 L 107 0.2 L 108.3 0.2 L 113.7 13.8 L 119.2 0.2 L 119.6 0.2 L 125.1 13.8 L 130.5 0.2 L 131.8 0.2 L 125.2 16.7 L 124.9 16.7 L 119.4 2.9 Z M 142.6 0.2 L 142.6 1.3 L 135 1.3 L 135 7.8 L 142.4 7.8 L 142.4 8.9 L 135 8.9 L 135 15.5 L 142.8 15.5 L 142.8 16.6 L 133.7 16.6 L 133.7 0.2 L 142.6 0.2 Z M 145.5 0.2 C 145.5 0.2 148.87 0.21 148.9 0.2 C 150.7 0.2 152 0.6 152.9 1.3 C 153.9 2.1 154.3 3.1 154.3 4.4 C 154.3 6 153.5 7.2 152 8.1 C 154.5 8.6 155.7 10 155.7 12.2 C 155.7 13.6 155.3 14.6 154.3 15.4 C 153.3 16.2 151.9 16.6 150.3 16.6 C 150.25 16.58 145.5 16.6 145.5 16.6 L 145.5 0.2 Z M 146.7 1.3 L 146.7 7.8 C 146.7 7.8 148.48 7.79 148.5 7.8 C 151.5 7.8 152.9 6.7 152.9 4.5 C 152.9 2.4 151.4 1.3 148.4 1.3 C 148.43 1.27 146.7 1.3 146.7 1.3 Z M 146.7 8.9 L 146.7 15.5 C 146.7 15.5 150.11 15.53 150.1 15.5 C 151.5 15.5 152.6 15.2 153.3 14.6 C 154 14 154.4 13.2 154.4 12.2 C 154.4 10 152.8 8.9 149.6 8.9 C 149.56 8.86 146.7 8.9 146.7 8.9 Z M 159.4 0.2 L 159.4 16.6 L 158.1 16.6 L 158.1 0.2 L 159.4 0.2 Z M 177.9 0.2 L 177.9 16.6 L 176.9 16.6 L 164.4 2.3 L 164.4 16.6 L 163.1 16.6 L 163.1 0.2 L 164.2 0.2 L 176.6 14.5 L 176.6 0.2 L 177.9 0.2 Z M 188.1 0.1 L 195.7 16.6 L 194.4 16.6 L 191.8 10.9 L 183.8 10.9 L 181.2 16.6 L 179.9 16.6 L 187.4 0.1 L 188.1 0.1 Z M 191.3 9.9 L 187.8 2.2 L 184.3 9.9 L 191.3 9.9 Z M 197.7 0.2 C 197.7 0.2 201.87 0.21 201.9 0.2 C 203.6 0.2 205 0.6 205.9 1.4 C 206.8 2.1 207.3 3.1 207.3 4.4 C 207.3 6.3 206.3 7.7 204.2 8.4 C 204.7 8.7 205.4 9.5 206.4 10.9 C 206.36 10.92 210.1 16.6 210.1 16.6 L 208.6 16.6 C 208.6 16.6 205.71 12.1 205.7 12.1 C 204.8 10.6 204 9.7 203.5 9.3 C 203 8.9 202.2 8.7 201.2 8.7 C 201.16 8.73 198.9 8.7 198.9 8.7 L 198.9 16.6 L 197.7 16.6 L 197.7 0.2 Z M 198.9 1.3 L 198.9 7.7 C 198.9 7.7 201.66 7.68 201.7 7.7 C 203 7.7 204.1 7.4 204.8 6.8 C 205.6 6.3 205.9 5.5 205.9 4.5 C 205.9 3.5 205.6 2.7 204.8 2.1 C 204.1 1.5 203 1.3 201.6 1.3 C 201.61 1.27 198.9 1.3 198.9 1.3 Z M 215.3 0 C 216.6 0 217.9 0.3 219.1 1 C 219.1 1 219.1 2.4 219.1 2.4 C 217.7 1.6 216.5 1.2 215.5 1.2 C 214.5 1.2 213.7 1.5 213 2.1 C 212.3 2.7 212 3.4 212 4.3 C 212 4.9 212.2 5.5 212.6 6 C 213 6.5 213.8 7 215 7.5 C 216.3 7.9 217.2 8.3 217.8 8.6 C 218.3 8.9 218.8 9.4 219.2 10 C 219.6 10.6 219.8 11.4 219.8 12.3 C 219.8 13.6 219.4 14.6 218.4 15.5 C 217.5 16.4 216.4 16.8 215.1 16.8 C 213.7 16.8 212.3 16.3 210.9 15.4 C 210.9 15.4 210.9 13.9 210.9 13.9 C 212.4 15 213.8 15.6 215 15.6 C 216 15.6 216.8 15.3 217.4 14.7 C 218.1 14 218.4 13.3 218.4 12.4 C 218.4 11.7 218.2 11 217.8 10.5 C 217.4 9.9 216.6 9.4 215.3 8.9 C 214 8.4 213.1 8 212.6 7.7 C 212 7.4 211.6 7 211.2 6.5 C 210.8 5.9 210.6 5.2 210.6 4.3 C 210.6 3.1 211.1 2.1 212 1.3 C 212.9 0.4 214.1 0 215.3 0 C 215.3 0 215.3 0 215.3 0 Z " stroke="none" fill="#ffffff"/>  </g></svg>