<?xml version="1.0" standalone="no"?><!DOCTYPE svg PUBLIC "-//W3C//DTD SVG 1.1//EN" "http://www.w3.org/Graphics/SVG/1.1/DTD/svg11.dtd"><svg xmlns="http://www.w3.org/2000/svg" version="1.1" width="328px" height="69.5px" viewBox="0 -11 328 69.5" style="top:-11px">  <desc>YouTube</desc>  <defs/>  <g id="Polygon66321">    <path d="M 126.2 0.2 L 119.8 7.8 L 119.8 16.6 L 118.5 16.6 L 118.5 7.8 L 112.2 0.2 L 113.7 0.2 L 119.2 6.7 L 124.6 0.2 L 126.2 0.2 Z M 134 0 C 136.4 0 138.5 0.8 140.1 2.4 C 141.8 4.1 142.7 6.1 142.7 8.4 C 142.7 10.7 141.8 12.7 140.1 14.3 C 138.5 16 136.4 16.8 134 16.8 C 131.6 16.8 129.5 16 127.9 14.3 C 126.2 12.7 125.3 10.7 125.3 8.4 C 125.3 6.1 126.2 4.1 127.9 2.4 C 129.5 0.8 131.6 0 134 0 Z M 134 15.6 C 136.1 15.6 137.8 14.9 139.2 13.5 C 140.6 12.1 141.3 10.4 141.3 8.4 C 141.3 6.4 140.6 4.7 139.2 3.3 C 137.8 1.9 136.1 1.2 134 1.2 C 132 1.2 130.3 1.9 128.8 3.3 C 127.4 4.7 126.7 6.4 126.7 8.4 C 126.7 10.4 127.4 12.1 128.8 13.5 C 130.3 14.9 132 15.6 134 15.6 Z M 157.8 0.2 L 159.1 0.2 C 159.1 0.2 159.12 9.14 159.1 9.1 C 159.1 11.6 158.5 13.5 157.2 14.8 C 155.9 16.1 154.3 16.8 152.3 16.8 C 150.2 16.8 148.6 16.1 147.3 14.8 C 146.1 13.5 145.4 11.7 145.4 9.4 C 145.42 9.43 145.4 0.2 145.4 0.2 L 146.7 0.2 C 146.7 0.2 146.69 9.39 146.7 9.4 C 146.7 11.3 147.2 12.9 148.2 14 C 149.3 15.1 150.6 15.6 152.3 15.6 C 153.9 15.6 155.3 15.1 156.3 14 C 157.3 12.8 157.8 11.3 157.8 9.2 C 157.85 9.21 157.8 0.2 157.8 0.2 Z M 174.3 0.2 L 174.3 1.3 L 168.2 1.3 L 168.2 16.6 L 166.9 16.6 L 166.9 1.3 L 160.7 1.3 L 160.7 0.2 L 174.3 0.2 Z M 188.4 0.2 L 189.6 0.2 C 189.6 0.2 189.63 9.14 189.6 9.1 C 189.6 11.6 189 13.5 187.7 14.8 C 186.4 16.1 184.8 16.8 182.8 16.8 C 180.8 16.8 179.1 16.1 177.8 14.8 C 176.6 13.5 175.9 11.7 175.9 9.4 C 175.93 9.43 175.9 0.2 175.9 0.2 L 177.2 0.2 C 177.2 0.2 177.21 9.39 177.2 9.4 C 177.2 11.3 177.7 12.9 178.8 14 C 179.8 15.1 181.1 15.6 182.8 15.6 C 184.4 15.6 185.8 15.1 186.8 14 C 187.8 12.8 188.4 11.3 188.4 9.2 C 188.37 9.21 188.4 0.2 188.4 0.2 Z M 193.1 0.2 C 193.1 0.2 196.49 0.21 196.5 0.2 C 198.3 0.2 199.6 0.6 200.6 1.3 C 201.5 2.1 201.9 3.1 201.9 4.4 C 201.9 6 201.2 7.2 199.6 8.1 C 202.1 8.6 203.4 10 203.4 12.2 C 203.4 13.6 202.9 14.6 201.9 15.4 C 200.9 16.2 199.6 16.6 197.9 16.6 C 197.87 16.58 193.1 16.6 193.1 16.6 L 193.1 0.2 Z M 194.3 1.3 L 194.3 7.8 C 194.3 7.8 196.1 7.79 196.1 7.8 C 199.1 7.8 200.6 6.7 200.6 4.5 C 200.6 2.4 199.1 1.3 196.1 1.3 C 196.05 1.27 194.3 1.3 194.3 1.3 Z M 194.3 8.9 L 194.3 15.5 C 194.3 15.5 197.73 15.53 197.7 15.5 C 199.1 15.5 200.2 15.2 200.9 14.6 C 201.6 14 202 13.2 202 12.2 C 202 10 200.4 8.9 197.2 8.9 C 197.18 8.86 194.3 8.9 194.3 8.9 Z M 214.7 0.2 L 214.7 1.3 L 207.1 1.3 L 207.1 7.8 L 214.5 7.8 L 214.5 8.9 L 207.1 8.9 L 207.1 15.5 L 214.9 15.5 L 214.9 16.6 L 205.8 16.6 L 205.8 0.2 L 214.7 0.2 Z " stroke="none" fill="#ffffff"/>  </g></svg>