<?xml version="1.0" standalone="no"?><!DOCTYPE svg PUBLIC "-//W3C//DTD SVG 1.1//EN" "http://www.w3.org/Graphics/SVG/1.1/DTD/svg11.dtd"><svg xmlns="http://www.w3.org/2000/svg" version="1.1" width="395px" height="145.3px" viewBox="0 -1 395 145.3" style="top:-1px">  <desc>TRAINING Solutions</desc>  <defs/>  <g id="Polygon61981">    <path d="M 110.7 76.7 C 112.6 76.7 114.5 77.2 116.4 78.2 C 116.4 78.2 116.4 80.3 116.4 80.3 C 114.3 79 112.4 78.4 110.9 78.4 C 109.4 78.4 108.2 78.9 107.2 79.8 C 106.2 80.7 105.7 81.8 105.7 83.1 C 105.7 84 106 84.9 106.6 85.7 C 107.2 86.4 108.4 87.2 110.3 87.9 C 112.1 88.6 113.5 89.1 114.4 89.6 C 115.2 90.1 115.9 90.8 116.5 91.7 C 117.1 92.5 117.4 93.7 117.4 95.1 C 117.4 97 116.7 98.6 115.4 99.9 C 114 101.2 112.3 101.9 110.3 101.9 C 108.3 101.9 106.2 101.1 104 99.7 C 104 99.7 104 97.5 104 97.5 C 106.4 99.2 108.4 100.1 110.2 100.1 C 111.6 100.1 112.9 99.6 113.9 98.7 C 114.9 97.7 115.4 96.6 115.4 95.2 C 115.4 94.2 115.1 93.2 114.4 92.4 C 113.8 91.5 112.6 90.8 110.7 90 C 108.8 89.3 107.4 88.7 106.6 88.3 C 105.8 87.8 105.1 87.2 104.5 86.4 C 104 85.5 103.7 84.5 103.7 83.2 C 103.7 81.4 104.4 79.8 105.7 78.6 C 107.1 77.3 108.8 76.7 110.7 76.7 C 110.7 76.7 110.7 76.7 110.7 76.7 Z M 133.7 76.7 C 137.3 76.7 140.4 77.9 142.9 80.3 C 145.5 82.8 146.7 85.8 146.7 89.3 C 146.7 92.8 145.5 95.7 142.9 98.2 C 140.4 100.6 137.3 101.9 133.7 101.9 C 130.1 101.9 127 100.6 124.5 98.2 C 122 95.7 120.7 92.8 120.7 89.3 C 120.7 85.8 122 82.8 124.5 80.3 C 127 77.9 130.1 76.7 133.7 76.7 Z M 133.8 100.1 C 136.8 100.1 139.4 99 141.5 97 C 143.6 94.9 144.7 92.3 144.7 89.3 C 144.7 86.2 143.6 83.7 141.5 81.6 C 139.4 79.5 136.8 78.4 133.8 78.4 C 130.7 78.4 128.1 79.5 126 81.6 C 123.9 83.7 122.8 86.2 122.8 89.3 C 122.8 92.3 123.9 94.9 126 97 C 128.1 99 130.7 100.1 133.8 100.1 Z M 153.3 77 L 153.3 100 L 165.4 100 L 165.4 101.5 L 151.4 101.5 L 151.4 77 L 153.3 77 Z M 186.4 77 L 188.3 77 C 188.3 77 188.29 90.37 188.3 90.4 C 188.3 94 187.3 96.9 185.4 98.9 C 183.5 100.9 181 101.9 178 101.9 C 175 101.9 172.5 100.9 170.6 98.9 C 168.7 96.9 167.7 94.2 167.7 90.8 C 167.74 90.81 167.7 77 167.7 77 L 169.7 77 C 169.7 77 169.66 90.74 169.7 90.7 C 169.7 93.7 170.4 96 172 97.6 C 173.5 99.3 175.5 100.1 178 100.1 C 180.5 100.1 182.5 99.3 184.1 97.6 C 185.6 95.9 186.4 93.6 186.4 90.5 C 186.39 90.48 186.4 77 186.4 77 Z M 211.1 77 L 211.1 78.6 L 201.8 78.6 L 201.8 101.5 L 199.9 101.5 L 199.9 78.6 L 190.7 78.6 L 190.7 77 L 211.1 77 Z M 215.9 77 L 215.9 101.5 L 214 101.5 L 214 77 L 215.9 77 Z M 233.5 76.7 C 237.1 76.7 240.2 77.9 242.7 80.3 C 245.3 82.8 246.5 85.8 246.5 89.3 C 246.5 92.8 245.3 95.7 242.7 98.2 C 240.2 100.6 237.1 101.9 233.5 101.9 C 229.9 101.9 226.8 100.6 224.3 98.2 C 221.8 95.7 220.5 92.8 220.5 89.3 C 220.5 85.8 221.8 82.8 224.3 80.3 C 226.8 77.9 229.9 76.7 233.5 76.7 Z M 233.6 100.1 C 236.6 100.1 239.2 99 241.3 97 C 243.4 94.9 244.5 92.3 244.5 89.3 C 244.5 86.2 243.4 83.7 241.3 81.6 C 239.2 79.5 236.6 78.4 233.6 78.4 C 230.5 78.4 227.9 79.5 225.8 81.6 C 223.6 83.7 222.6 86.2 222.6 89.3 C 222.6 92.3 223.6 94.9 225.8 97 C 227.9 99 230.5 100.1 233.6 100.1 Z M 273.3 77 L 273.3 101.5 L 271.7 101.5 L 253 80.1 L 253 101.5 L 251.1 101.5 L 251.1 77 L 252.8 77 L 271.4 98.4 L 271.4 77 L 273.3 77 Z M 284.8 76.7 C 286.7 76.7 288.6 77.2 290.5 78.2 C 290.5 78.2 290.5 80.3 290.5 80.3 C 288.4 79 286.5 78.4 285 78.4 C 283.5 78.4 282.3 78.9 281.3 79.8 C 280.3 80.7 279.8 81.8 279.8 83.1 C 279.8 84 280.1 84.9 280.7 85.7 C 281.3 86.4 282.5 87.2 284.4 87.9 C 286.2 88.6 287.6 89.1 288.4 89.6 C 289.3 90.1 290 90.8 290.6 91.7 C 291.2 92.5 291.5 93.7 291.5 95.1 C 291.5 97 290.8 98.6 289.4 99.9 C 288.1 101.2 286.4 101.9 284.4 101.9 C 282.3 101.9 280.2 101.1 278.1 99.7 C 278.1 99.7 278.1 97.5 278.1 97.5 C 280.5 99.2 282.5 100.1 284.3 100.1 C 285.7 100.1 286.9 99.6 287.9 98.7 C 289 97.7 289.5 96.6 289.5 95.2 C 289.5 94.2 289.1 93.2 288.5 92.4 C 287.9 91.5 286.6 90.8 284.7 90 C 282.8 89.3 281.5 88.7 280.7 88.3 C 279.9 87.8 279.2 87.2 278.6 86.4 C 278 85.5 277.7 84.5 277.7 83.2 C 277.7 81.4 278.4 79.8 279.8 78.6 C 281.2 77.3 282.9 76.7 284.8 76.7 C 284.8 76.7 284.8 76.7 284.8 76.7 Z " stroke="none" fill="#ffffff"/>  </g>  <g id="Polygon61980">    <path d="M 137.1 33.8 L 137.1 35.4 L 127.9 35.4 L 127.9 58.3 L 126 58.3 L 126 35.4 L 116.8 35.4 L 116.8 33.8 L 137.1 33.8 Z M 140.2 33.8 C 140.2 33.8 146.44 33.78 146.4 33.8 C 149.1 33.8 151.1 34.4 152.5 35.5 C 153.9 36.6 154.6 38.2 154.6 40.1 C 154.6 43 153 45 149.9 46.1 C 150.7 46.5 151.8 47.7 153.2 49.8 C 153.18 49.85 158.7 58.3 158.7 58.3 L 156.5 58.3 C 156.5 58.3 152.21 51.61 152.2 51.6 C 150.8 49.4 149.7 48 148.9 47.4 C 148.1 46.8 146.9 46.6 145.4 46.6 C 145.37 46.56 142 46.6 142 46.6 L 142 58.3 L 140.2 58.3 L 140.2 33.8 Z M 142 35.4 L 142 45 C 142 45 146.13 44.98 146.1 45 C 148.2 45 149.8 44.6 150.9 43.7 C 152 42.9 152.5 41.7 152.5 40.2 C 152.5 38.6 152 37.5 150.9 36.6 C 149.7 35.8 148.1 35.4 146.1 35.4 C 146.06 35.36 142 35.4 142 35.4 Z M 170.5 33.6 L 181.8 58.3 L 179.8 58.3 L 176 49.8 L 163.9 49.8 L 160.1 58.3 L 158.1 58.3 L 169.4 33.6 L 170.5 33.6 Z M 175.2 48.3 L 169.9 36.7 L 164.7 48.3 L 175.2 48.3 Z M 186.7 33.8 L 186.7 58.3 L 184.8 58.3 L 184.8 33.8 L 186.7 33.8 Z M 214.4 33.8 L 214.4 58.3 L 212.8 58.3 L 194.2 36.9 L 194.2 58.3 L 192.3 58.3 L 192.3 33.8 L 193.9 33.8 L 212.5 55.2 L 212.5 33.8 L 214.4 33.8 Z M 221.9 33.8 L 221.9 58.3 L 220 58.3 L 220 33.8 L 221.9 33.8 Z M 249.6 33.8 L 249.6 58.3 L 248.1 58.3 L 229.4 36.9 L 229.4 58.3 L 227.5 58.3 L 227.5 33.8 L 229.1 33.8 L 247.7 55.2 L 247.7 33.8 L 249.6 33.8 Z M 267.4 33.5 C 270 33.5 272.8 34.2 275.8 35.6 C 275.8 35.6 275.8 37.7 275.8 37.7 C 272.9 36 270 35.2 267.1 35.2 C 264 35.2 261.4 36.3 259.4 38.3 C 257.3 40.4 256.3 43 256.3 46.1 C 256.3 49.2 257.3 51.8 259.3 53.8 C 261.4 55.9 264.2 56.9 267.7 56.9 C 270.2 56.9 272.4 56.4 274.4 55.4 C 274.4 55.38 274.4 48.8 274.4 48.8 L 269.2 48.8 L 269.2 47.2 L 276.3 47.2 C 276.3 47.2 276.31 56.58 276.3 56.6 C 273.4 58 270.5 58.7 267.6 58.7 C 263.8 58.7 260.6 57.4 258.1 55 C 255.5 52.6 254.2 49.6 254.2 46 C 254.2 42.4 255.5 39.4 258 37 C 260.5 34.7 263.6 33.5 267.4 33.5 C 267.4 33.5 267.4 33.5 267.4 33.5 Z " stroke="none" fill="#ffffff"/>  </g></svg>