<?xml version="1.0" standalone="no"?><!DOCTYPE svg PUBLIC "-//W3C//DTD SVG 1.1//EN" "http://www.w3.org/Graphics/SVG/1.1/DTD/svg11.dtd"><svg xmlns="http://www.w3.org/2000/svg" version="1.1" width="328px" height="69.5px" viewBox="0 -11 328 69.5" style="top:-11px">  <desc>WEBINARS</desc>  <defs/>  <g id="Polygon65989">    <path d="M 119.4 2.9 L 113.9 16.7 L 113.6 16.7 L 107 0.2 L 108.3 0.2 L 113.7 13.8 L 119.2 0.2 L 119.6 0.2 L 125.1 13.8 L 130.5 0.2 L 131.8 0.2 L 125.2 16.7 L 124.9 16.7 L 119.4 2.9 Z M 142.6 0.2 L 142.6 1.3 L 135 1.3 L 135 7.8 L 142.4 7.8 L 142.4 8.9 L 135 8.9 L 135 15.5 L 142.8 15.5 L 142.8 16.6 L 133.7 16.6 L 133.7 0.2 L 142.6 0.2 Z M 145.5 0.2 C 145.5 0.2 148.87 0.21 148.9 0.2 C 150.7 0.2 152 0.6 152.9 1.3 C 153.9 2.1 154.3 3.1 154.3 4.4 C 154.3 6 153.5 7.2 152 8.1 C 154.5 8.6 155.7 10 155.7 12.2 C 155.7 13.6 155.3 14.6 154.3 15.4 C 153.3 16.2 151.9 16.6 150.3 16.6 C 150.25 16.58 145.5 16.6 145.5 16.6 L 145.5 0.2 Z M 146.7 1.3 L 146.7 7.8 C 146.7 7.8 148.48 7.79 148.5 7.8 C 151.5 7.8 152.9 6.7 152.9 4.5 C 152.9 2.4 151.4 1.3 148.4 1.3 C 148.43 1.27 146.7 1.3 146.7 1.3 Z M 146.7 8.9 L 146.7 15.5 C 146.7 15.5 150.11 15.53 150.1 15.5 C 151.5 15.5 152.6 15.2 153.3 14.6 C 154 14 154.4 13.2 154.4 12.2 C 154.4 10 152.8 8.9 149.6 8.9 C 149.56 8.86 146.7 8.9 146.7 8.9 Z M 159.4 0.2 L 159.4 16.6 L 158.1 16.6 L 158.1 0.2 L 159.4 0.2 Z M 177.9 0.2 L 177.9 16.6 L 176.9 16.6 L 164.4 2.3 L 164.4 16.6 L 163.1 16.6 L 163.1 0.2 L 164.2 0.2 L 176.6 14.5 L 176.6 0.2 L 177.9 0.2 Z M 188.1 0.1 L 195.7 16.6 L 194.4 16.6 L 191.8 10.9 L 183.8 10.9 L 181.2 16.6 L 179.9 16.6 L 187.4 0.1 L 188.1 0.1 Z M 191.3 9.9 L 187.8 2.2 L 184.3 9.9 L 191.3 9.9 Z M 197.7 0.2 C 197.7 0.2 201.87 0.21 201.9 0.2 C 203.6 0.2 205 0.6 205.9 1.4 C 206.8 2.1 207.3 3.1 207.3 4.4 C 207.3 6.3 206.3 7.7 204.2 8.4 C 204.7 8.7 205.4 9.5 206.4 10.9 C 206.36 10.92 210.1 16.6 210.1 16.6 L 208.6 16.6 C 208.6 16.6 205.71 12.1 205.7 12.1 C 204.8 10.6 204 9.7 203.5 9.3 C 203 8.9 202.2 8.7 201.2 8.7 C 201.16 8.73 198.9 8.7 198.9 8.7 L 198.9 16.6 L 197.7 16.6 L 197.7 0.2 Z M 198.9 1.3 L 198.9 7.7 C 198.9 7.7 201.66 7.68 201.7 7.7 C 203 7.7 204.1 7.4 204.8 6.8 C 205.6 6.3 205.9 5.5 205.9 4.5 C 205.9 3.5 205.6 2.7 204.8 2.1 C 204.1 1.5 203 1.3 201.6 1.3 C 201.61 1.27 198.9 1.3 198.9 1.3 Z M 215.3 0 C 216.6 0 217.9 0.3 219.1 1 C 219.1 1 219.1 2.4 219.1 2.4 C 217.7 1.6 216.5 1.2 215.5 1.2 C 214.5 1.2 213.7 1.5 213 2.1 C 212.3 2.7 212 3.4 212 4.3 C 212 4.9 212.2 5.5 212.6 6 C 213 6.5 213.8 7 215 7.5 C 216.3 7.9 217.2 8.3 217.8 8.6 C 218.3 8.9 218.8 9.4 219.2 10 C 219.6 10.6 219.8 11.4 219.8 12.3 C 219.8 13.6 219.4 14.6 218.4 15.5 C 217.5 16.4 216.4 16.8 215.1 16.8 C 213.7 16.8 212.3 16.3 210.9 15.4 C 210.9 15.4 210.9 13.9 210.9 13.9 C 212.4 15 213.8 15.6 215 15.6 C 216 15.6 216.8 15.3 217.4 14.7 C 218.1 14 218.4 13.3 218.4 12.4 C 218.4 11.7 218.2 11 217.8 10.5 C 217.4 9.9 216.6 9.4 215.3 8.9 C 214 8.4 213.1 8 212.6 7.7 C 212 7.4 211.6 7 211.2 6.5 C 210.8 5.9 210.6 5.2 210.6 4.3 C 210.6 3.1 211.1 2.1 212 1.3 C 212.9 0.4 214.1 0 215.3 0 C 215.3 0 215.3 0 215.3 0 Z " stroke="none" fill="#ffffff"/>  </g></svg>