<?xml version="1.0" standalone="no"?><!DOCTYPE svg PUBLIC "-//W3C//DTD SVG 1.1//EN" "http://www.w3.org/Graphics/SVG/1.1/DTD/svg11.dtd"><svg xmlns="http://www.w3.org/2000/svg" version="1.1" width="197.4px" height="183.1px" viewBox="0 -5 197.4 183.1" style="top:-5px">  <desc>DSW House Unit 3, Hayfield Business Park Field Lane Auckley Doncaster DN9 3FL 01302 760 008 info@dswlearning.co.uk</desc>  <defs/>  <g id="Polygon66409">    <path d="M 1 160.1 L 1 158.6 L 2.3 158.6 L 2.3 160.1 L 1 160.1 Z M 1 169.1 L 1 161.5 L 2.3 161.5 L 2.3 169.1 L 1 169.1 Z M 4.2 169.1 L 4.2 161.5 L 5.4 161.5 C 5.4 161.5 5.39 162.55 5.4 162.6 C 5.9 161.7 6.8 161.3 7.8 161.3 C 8.3 161.3 8.7 161.4 9.1 161.5 C 9.5 161.7 9.7 161.9 9.9 162.2 C 10.1 162.5 10.3 162.8 10.3 163.1 C 10.4 163.4 10.4 163.8 10.4 164.4 C 10.41 164.4 10.4 169.1 10.4 169.1 L 9.1 169.1 C 9.1 169.1 9.12 164.45 9.1 164.5 C 9.1 163.9 9.1 163.5 9 163.3 C 8.9 163 8.7 162.8 8.4 162.7 C 8.2 162.5 7.9 162.4 7.5 162.4 C 7 162.4 6.5 162.6 6.1 162.9 C 5.7 163.3 5.5 164 5.5 164.9 C 5.51 164.92 5.5 169.1 5.5 169.1 L 4.2 169.1 Z M 12.7 169.1 L 12.7 162.5 L 11.6 162.5 L 11.6 161.5 L 12.7 161.5 C 12.7 161.5 12.69 160.66 12.7 160.7 C 12.7 160.2 12.7 159.8 12.8 159.5 C 13 159.2 13.2 158.9 13.5 158.7 C 13.8 158.5 14.2 158.4 14.8 158.4 C 15.2 158.4 15.6 158.4 16 158.5 C 16 158.5 15.8 159.7 15.8 159.7 C 15.5 159.6 15.3 159.6 15 159.6 C 14.7 159.6 14.4 159.7 14.2 159.8 C 14.1 160 14 160.3 14 160.8 C 13.97 160.77 14 161.5 14 161.5 L 15.5 161.5 L 15.5 162.5 L 14 162.5 L 14 169.1 L 12.7 169.1 Z M 16 165.3 C 16 163.9 16.4 162.8 17.2 162.1 C 17.8 161.6 18.6 161.3 19.5 161.3 C 20.6 161.3 21.4 161.6 22.1 162.3 C 22.8 163 23.1 164 23.1 165.2 C 23.1 166.1 23 166.9 22.7 167.5 C 22.4 168 21.9 168.5 21.4 168.8 C 20.8 169.1 20.2 169.2 19.5 169.2 C 18.5 169.2 17.6 168.9 17 168.2 C 16.3 167.5 16 166.6 16 165.3 Z M 17.3 165.3 C 17.3 166.2 17.5 167 17.9 167.5 C 18.4 167.9 18.9 168.2 19.5 168.2 C 20.2 168.2 20.7 167.9 21.1 167.5 C 21.6 167 21.8 166.2 21.8 165.2 C 21.8 164.3 21.6 163.6 21.1 163.1 C 20.7 162.6 20.2 162.4 19.5 162.4 C 18.9 162.4 18.4 162.6 17.9 163.1 C 17.5 163.6 17.3 164.3 17.3 165.3 Z M 32.1 168.5 C 32 168.4 32 168.2 32 167.9 C 31.7 168.3 31.3 168.6 30.9 168.8 C 30.5 169 30.1 169.1 29.8 169.1 C 29.3 169.1 28.9 169 28.5 168.7 C 28.1 168.5 27.8 168.1 27.5 167.6 C 27.3 167.1 27.2 166.5 27.2 165.9 C 27.2 165.1 27.4 164.4 27.8 163.6 C 28.1 162.8 28.6 162.3 29.2 161.9 C 29.8 161.5 30.3 161.3 30.9 161.3 C 31.3 161.3 31.7 161.4 32.1 161.6 C 32.5 161.9 32.8 162.2 33.1 162.6 C 33.05 162.63 33.3 161.5 33.3 161.5 L 34.6 161.5 C 34.6 161.5 33.54 166.33 33.5 166.3 C 33.4 167 33.3 167.4 33.3 167.4 C 33.3 167.6 33.4 167.7 33.5 167.8 C 33.6 167.9 33.7 167.9 33.8 167.9 C 34.1 167.9 34.4 167.8 34.8 167.5 C 35.4 167.1 35.8 166.6 36.1 165.9 C 36.4 165.3 36.6 164.6 36.6 164 C 36.6 163.2 36.4 162.4 36 161.7 C 35.6 161 35 160.5 34.2 160.1 C 33.3 159.6 32.5 159.4 31.5 159.4 C 30.4 159.4 29.3 159.7 28.4 160.2 C 27.5 160.7 26.8 161.5 26.3 162.5 C 25.8 163.4 25.5 164.5 25.5 165.6 C 25.5 166.8 25.8 167.8 26.3 168.6 C 26.8 169.5 27.5 170.1 28.5 170.5 C 29.4 170.9 30.5 171.1 31.7 171.1 C 32.9 171.1 34 170.9 34.8 170.5 C 35.7 170.1 36.3 169.5 36.7 168.9 C 36.7 168.9 38 168.9 38 168.9 C 37.8 169.4 37.3 170 36.8 170.5 C 36.2 171 35.5 171.4 34.6 171.7 C 33.8 172 32.8 172.2 31.7 172.2 C 30.6 172.2 29.7 172 28.8 171.8 C 27.9 171.5 27.1 171.1 26.5 170.5 C 25.8 170 25.4 169.4 25 168.6 C 24.6 167.7 24.4 166.8 24.4 165.7 C 24.4 164.6 24.7 163.4 25.2 162.4 C 25.7 161.1 26.6 160.1 27.6 159.4 C 28.7 158.7 30 158.4 31.5 158.4 C 32.7 158.4 33.8 158.6 34.7 159.1 C 35.7 159.6 36.4 160.3 37 161.3 C 37.4 162.1 37.7 163 37.7 164 C 37.7 165.4 37.2 166.6 36.2 167.7 C 35.3 168.6 34.4 169.1 33.3 169.1 C 33 169.1 32.7 169.1 32.5 169 C 32.3 168.9 32.2 168.7 32.1 168.5 C 32.1 168.5 32.1 168.5 32.1 168.5 Z M 28.5 166 C 28.5 166.6 28.7 167.1 29 167.5 C 29.3 167.9 29.6 168 30 168 C 30.3 168 30.6 168 30.9 167.8 C 31.2 167.6 31.5 167.4 31.7 167.1 C 32 166.8 32.2 166.4 32.4 165.9 C 32.6 165.4 32.6 164.9 32.6 164.4 C 32.6 163.8 32.5 163.3 32.2 162.9 C 31.8 162.6 31.4 162.4 31 162.4 C 30.7 162.4 30.4 162.5 30.1 162.6 C 29.8 162.8 29.6 163 29.3 163.4 C 29.1 163.7 28.9 164.1 28.7 164.6 C 28.6 165.1 28.5 165.6 28.5 166 Z M 44.4 169.1 C 44.4 169.1 44.44 168.12 44.4 168.1 C 44 168.9 43.2 169.2 42.3 169.2 C 41.7 169.2 41.1 169.1 40.6 168.7 C 40.1 168.4 39.7 167.9 39.5 167.3 C 39.2 166.7 39 166.1 39 165.3 C 39 164.5 39.2 163.8 39.4 163.2 C 39.7 162.6 40 162.1 40.6 161.8 C 41.1 161.5 41.6 161.3 42.3 161.3 C 42.7 161.3 43.1 161.4 43.5 161.6 C 43.8 161.8 44.1 162 44.4 162.3 C 44.35 162.35 44.4 158.6 44.4 158.6 L 45.6 158.6 L 45.6 169.1 L 44.4 169.1 Z M 40.4 165.3 C 40.4 166.3 40.6 167 41 167.5 C 41.4 167.9 41.9 168.2 42.4 168.2 C 43 168.2 43.5 168 43.9 167.5 C 44.3 167 44.5 166.3 44.5 165.4 C 44.5 164.3 44.3 163.6 43.9 163.1 C 43.5 162.6 43 162.4 42.4 162.4 C 41.8 162.4 41.3 162.6 40.9 163.1 C 40.6 163.5 40.4 164.3 40.4 165.3 Z M 47.1 166.8 C 47.1 166.8 48.4 166.6 48.4 166.6 C 48.5 167.1 48.7 167.5 49 167.8 C 49.3 168.1 49.8 168.2 50.4 168.2 C 51 168.2 51.4 168.1 51.7 167.8 C 52 167.6 52.1 167.3 52.1 167 C 52.1 166.7 52 166.5 51.8 166.3 C 51.6 166.2 51.1 166 50.4 165.9 C 49.5 165.6 48.8 165.4 48.5 165.2 C 48.1 165.1 47.8 164.8 47.6 164.5 C 47.5 164.2 47.4 163.9 47.4 163.5 C 47.4 163.2 47.4 162.8 47.6 162.6 C 47.7 162.3 48 162 48.2 161.8 C 48.4 161.7 48.7 161.6 49 161.5 C 49.4 161.4 49.8 161.3 50.2 161.3 C 50.8 161.3 51.3 161.4 51.7 161.6 C 52.2 161.7 52.5 162 52.7 162.3 C 52.9 162.6 53.1 162.9 53.2 163.4 C 53.2 163.4 51.9 163.6 51.9 163.6 C 51.9 163.2 51.7 162.9 51.4 162.7 C 51.1 162.5 50.8 162.4 50.3 162.4 C 49.7 162.4 49.2 162.5 49 162.7 C 48.7 162.8 48.6 163.1 48.6 163.3 C 48.6 163.5 48.7 163.7 48.8 163.8 C 48.9 163.9 49 164 49.3 164.1 C 49.4 164.2 49.8 164.3 50.4 164.5 C 51.3 164.7 51.9 164.9 52.3 165.1 C 52.7 165.2 52.9 165.4 53.2 165.7 C 53.4 166 53.5 166.4 53.5 166.8 C 53.5 167.3 53.3 167.7 53.1 168.1 C 52.8 168.4 52.5 168.7 52 168.9 C 51.5 169.1 51 169.2 50.4 169.2 C 49.4 169.2 48.7 169 48.1 168.6 C 47.6 168.2 47.3 167.6 47.1 166.8 Z M 56.4 169.1 L 54.1 161.5 L 55.4 161.5 L 56.6 165.9 C 56.6 165.9 57.06 167.5 57.1 167.5 C 57.1 167.4 57.2 166.9 57.5 165.9 C 57.46 165.93 58.7 161.5 58.7 161.5 L 60 161.5 L 61.1 165.9 L 61.5 167.3 L 61.9 165.9 L 63.2 161.5 L 64.5 161.5 L 62.1 169.1 L 60.8 169.1 L 59.6 164.5 L 59.3 163.2 L 57.7 169.1 L 56.4 169.1 Z M 65.6 169.1 L 65.6 158.6 L 66.8 158.6 L 66.8 169.1 L 65.6 169.1 Z M 74 166.6 C 74 166.6 75.4 166.8 75.4 166.8 C 75.2 167.6 74.8 168.2 74.2 168.6 C 73.6 169 72.9 169.2 72 169.2 C 70.9 169.2 70 168.9 69.4 168.2 C 68.7 167.5 68.4 166.6 68.4 165.3 C 68.4 164.1 68.7 163.1 69.4 162.4 C 70.1 161.7 70.9 161.3 72 161.3 C 73 161.3 73.8 161.6 74.5 162.3 C 75.1 163 75.4 164 75.4 165.3 C 75.4 165.3 75.4 165.5 75.4 165.6 C 75.4 165.6 69.7 165.6 69.7 165.6 C 69.8 166.4 70 167.1 70.5 167.5 C 70.9 168 71.4 168.2 72 168.2 C 72.5 168.2 72.9 168.1 73.3 167.8 C 73.6 167.6 73.9 167.2 74 166.6 Z M 69.8 164.5 C 69.8 164.5 74.1 164.5 74.1 164.5 C 74 163.9 73.8 163.4 73.6 163.1 C 73.2 162.6 72.6 162.4 72 162.4 C 71.4 162.4 70.9 162.6 70.5 163 C 70.1 163.4 69.9 163.9 69.8 164.5 Z M 82.2 169.1 C 82.1 168.8 82 168.5 82 168.1 C 81.5 168.5 81 168.8 80.6 169 C 80.1 169.2 79.7 169.2 79.2 169.2 C 78.3 169.2 77.7 169 77.2 168.6 C 76.8 168.2 76.6 167.7 76.6 167.1 C 76.6 166.7 76.6 166.4 76.8 166.1 C 77 165.7 77.2 165.5 77.5 165.3 C 77.8 165.1 78.1 165 78.4 164.9 C 78.7 164.8 79 164.8 79.6 164.7 C 80.6 164.6 81.4 164.4 81.9 164.3 C 81.9 164.1 81.9 164 81.9 163.9 C 81.9 163.4 81.7 163 81.5 162.8 C 81.2 162.5 80.7 162.4 80 162.4 C 79.4 162.4 79 162.5 78.7 162.7 C 78.4 162.9 78.2 163.3 78 163.8 C 78 163.8 76.8 163.6 76.8 163.6 C 76.9 163.1 77.1 162.7 77.4 162.3 C 77.6 162 78 161.7 78.5 161.6 C 79 161.4 79.6 161.3 80.2 161.3 C 80.9 161.3 81.4 161.4 81.8 161.5 C 82.2 161.7 82.5 161.9 82.7 162.1 C 82.9 162.3 83 162.6 83.1 163 C 83.1 163.2 83.2 163.6 83.2 164.2 C 83.2 164.2 83.2 165.9 83.2 165.9 C 83.2 167.1 83.2 167.8 83.2 168.2 C 83.3 168.5 83.4 168.8 83.6 169.1 C 83.57 169.08 82.2 169.1 82.2 169.1 C 82.2 169.1 82.22 169.08 82.2 169.1 Z M 81.9 165.3 C 81.4 165.5 80.7 165.6 79.7 165.7 C 79.2 165.8 78.8 165.9 78.6 166 C 78.4 166.1 78.2 166.2 78.1 166.4 C 78 166.6 77.9 166.8 77.9 167 C 77.9 167.4 78.1 167.7 78.3 167.9 C 78.6 168.1 79 168.2 79.5 168.2 C 80 168.2 80.4 168.1 80.8 167.9 C 81.2 167.7 81.5 167.4 81.6 167 C 81.8 166.7 81.9 166.3 81.9 165.7 C 81.9 165.7 81.9 165.3 81.9 165.3 Z M 85.1 169.1 L 85.1 161.5 L 86.3 161.5 C 86.3 161.5 86.3 162.63 86.3 162.6 C 86.6 162.1 86.9 161.7 87.1 161.6 C 87.4 161.4 87.6 161.3 87.9 161.3 C 88.4 161.3 88.8 161.4 89.3 161.7 C 89.3 161.7 88.8 162.9 88.8 162.9 C 88.5 162.7 88.2 162.6 87.9 162.6 C 87.6 162.6 87.4 162.7 87.1 162.9 C 86.9 163.1 86.7 163.3 86.6 163.6 C 86.5 164.1 86.4 164.6 86.4 165.1 C 86.43 165.1 86.4 169.1 86.4 169.1 L 85.1 169.1 Z M 90 169.1 L 90 161.5 L 91.2 161.5 C 91.2 161.5 91.2 162.55 91.2 162.6 C 91.8 161.7 92.6 161.3 93.6 161.3 C 94.1 161.3 94.5 161.4 94.9 161.5 C 95.3 161.7 95.6 161.9 95.7 162.2 C 95.9 162.5 96.1 162.8 96.1 163.1 C 96.2 163.4 96.2 163.8 96.2 164.4 C 96.22 164.4 96.2 169.1 96.2 169.1 L 94.9 169.1 C 94.9 169.1 94.93 164.45 94.9 164.5 C 94.9 163.9 94.9 163.5 94.8 163.3 C 94.7 163 94.5 162.8 94.2 162.7 C 94 162.5 93.7 162.4 93.3 162.4 C 92.8 162.4 92.3 162.6 91.9 162.9 C 91.5 163.3 91.3 164 91.3 164.9 C 91.33 164.92 91.3 169.1 91.3 169.1 L 90 169.1 Z M 98.2 160.1 L 98.2 158.6 L 99.5 158.6 L 99.5 160.1 L 98.2 160.1 Z M 98.2 169.1 L 98.2 161.5 L 99.5 161.5 L 99.5 169.1 L 98.2 169.1 Z M 101.5 169.1 L 101.5 161.5 L 102.6 161.5 C 102.6 161.5 102.62 162.55 102.6 162.6 C 103.2 161.7 104 161.3 105 161.3 C 105.5 161.3 105.9 161.4 106.3 161.5 C 106.7 161.7 107 161.9 107.2 162.2 C 107.4 162.5 107.5 162.8 107.6 163.1 C 107.6 163.4 107.6 163.8 107.6 164.4 C 107.64 164.4 107.6 169.1 107.6 169.1 L 106.3 169.1 C 106.3 169.1 106.35 164.45 106.3 164.5 C 106.3 163.9 106.3 163.5 106.2 163.3 C 106.1 163 105.9 162.8 105.7 162.7 C 105.4 162.5 105.1 162.4 104.8 162.4 C 104.2 162.4 103.7 162.6 103.3 162.9 C 102.9 163.3 102.7 164 102.7 164.9 C 102.75 164.92 102.7 169.1 102.7 169.1 L 101.5 169.1 Z M 109.4 169.7 C 109.4 169.7 110.6 169.9 110.6 169.9 C 110.7 170.3 110.8 170.6 111.1 170.7 C 111.4 171 111.8 171.1 112.4 171.1 C 113 171.1 113.4 171 113.8 170.7 C 114.1 170.5 114.3 170.2 114.4 169.7 C 114.5 169.5 114.5 168.9 114.5 168.1 C 113.9 168.7 113.2 169.1 112.4 169.1 C 111.4 169.1 110.6 168.7 110 167.9 C 109.4 167.2 109.1 166.3 109.1 165.2 C 109.1 164.5 109.3 163.8 109.5 163.2 C 109.8 162.6 110.2 162.1 110.7 161.8 C 111.2 161.5 111.7 161.3 112.4 161.3 C 113.3 161.3 114.1 161.7 114.6 162.4 C 114.63 162.39 114.6 161.5 114.6 161.5 L 115.8 161.5 C 115.8 161.5 115.82 168.05 115.8 168 C 115.8 169.2 115.7 170.1 115.5 170.6 C 115.2 171.1 114.8 171.4 114.3 171.7 C 113.8 172 113.1 172.2 112.4 172.2 C 111.5 172.2 110.7 172 110.2 171.6 C 109.6 171.1 109.4 170.5 109.4 169.7 Z M 110.4 165.1 C 110.4 166.1 110.6 166.9 111 167.3 C 111.4 167.8 111.9 168 112.5 168 C 113.1 168 113.6 167.8 114 167.3 C 114.4 166.9 114.6 166.2 114.6 165.2 C 114.6 164.3 114.4 163.5 114 163.1 C 113.6 162.6 113.1 162.4 112.5 162.4 C 111.9 162.4 111.4 162.6 111 163.1 C 110.6 163.5 110.4 164.2 110.4 165.1 Z M 118.1 169.1 L 118.1 167.6 L 119.6 167.6 L 119.6 169.1 L 118.1 169.1 Z M 126.8 166.3 C 126.8 166.3 128.1 166.5 128.1 166.5 C 127.9 167.3 127.6 168 127 168.5 C 126.4 169 125.7 169.2 124.9 169.2 C 123.9 169.2 123 168.9 122.4 168.2 C 121.8 167.5 121.5 166.6 121.5 165.3 C 121.5 164.5 121.6 163.8 121.9 163.1 C 122.1 162.5 122.5 162.1 123.1 161.8 C 123.7 161.5 124.3 161.3 124.9 161.3 C 125.7 161.3 126.4 161.5 126.9 161.9 C 127.5 162.3 127.8 162.9 128 163.7 C 128 163.7 126.7 163.9 126.7 163.9 C 126.6 163.4 126.4 163 126.1 162.7 C 125.8 162.5 125.4 162.4 125 162.4 C 124.3 162.4 123.8 162.6 123.4 163.1 C 123 163.5 122.8 164.3 122.8 165.3 C 122.8 166.3 123 167 123.4 167.5 C 123.8 168 124.3 168.2 124.9 168.2 C 125.4 168.2 125.8 168 126.2 167.7 C 126.5 167.4 126.7 166.9 126.8 166.3 Z M 128.7 165.3 C 128.7 163.9 129.1 162.8 129.9 162.1 C 130.5 161.6 131.3 161.3 132.3 161.3 C 133.3 161.3 134.2 161.6 134.8 162.3 C 135.5 163 135.8 164 135.8 165.2 C 135.8 166.1 135.7 166.9 135.4 167.5 C 135.1 168 134.7 168.5 134.1 168.8 C 133.5 169.1 132.9 169.2 132.3 169.2 C 131.2 169.2 130.3 168.9 129.7 168.2 C 129 167.5 128.7 166.6 128.7 165.3 Z M 130 165.3 C 130 166.2 130.2 167 130.7 167.5 C 131.1 167.9 131.6 168.2 132.3 168.2 C 132.9 168.2 133.4 167.9 133.9 167.5 C 134.3 167 134.5 166.2 134.5 165.2 C 134.5 164.3 134.3 163.6 133.9 163.1 C 133.4 162.6 132.9 162.4 132.3 162.4 C 131.6 162.4 131.1 162.6 130.7 163.1 C 130.2 163.6 130 164.3 130 165.3 Z M 137.7 169.1 L 137.7 167.6 L 139.2 167.6 L 139.2 169.1 L 137.7 169.1 Z M 146.4 169.1 C 146.4 169.1 146.39 167.96 146.4 168 C 145.8 168.8 145 169.2 144 169.2 C 143.5 169.2 143.1 169.2 142.7 169 C 142.3 168.8 142 168.6 141.9 168.3 C 141.7 168.1 141.5 167.8 141.5 167.4 C 141.4 167.1 141.4 166.7 141.4 166.2 C 141.38 166.18 141.4 161.5 141.4 161.5 L 142.7 161.5 C 142.7 161.5 142.67 165.69 142.7 165.7 C 142.7 166.4 142.7 166.8 142.7 167.1 C 142.8 167.4 143 167.7 143.3 167.8 C 143.5 168 143.9 168.1 144.2 168.1 C 144.6 168.1 145 168 145.3 167.8 C 145.7 167.6 145.9 167.4 146 167 C 146.2 166.7 146.3 166.2 146.3 165.5 C 146.26 165.55 146.3 161.5 146.3 161.5 L 147.5 161.5 L 147.5 169.1 L 146.4 169.1 Z M 149.6 169.1 L 149.6 158.6 L 150.9 158.6 L 150.9 164.6 L 153.9 161.5 L 155.6 161.5 L 152.7 164.3 L 155.9 169.1 L 154.3 169.1 L 151.8 165.2 L 150.9 166.1 L 150.9 169.1 L 149.6 169.1 Z " stroke="none" fill="#000"/>  </g>  <g id="Polygon66408">    <path d="M 1.6 133 C 1 132.1 0.6 130.7 0.6 128.7 C 0.6 127.5 0.7 126.5 1 125.7 C 1.2 124.9 1.6 124.4 2.1 124 C 2.6 123.5 3.3 123.3 4 123.3 C 4.6 123.3 5.1 123.4 5.5 123.7 C 5.9 123.9 6.3 124.2 6.6 124.7 C 6.8 125.1 7.1 125.6 7.2 126.2 C 7.4 126.8 7.5 127.7 7.5 128.7 C 7.5 129.9 7.3 130.9 7.1 131.7 C 6.8 132.4 6.4 133 5.9 133.4 C 5.4 133.9 4.8 134.1 4 134.1 C 3 134.1 2.2 133.7 1.6 133 C 1.6 133 1.6 133 1.6 133 Z M 2.6 125.2 C 2.2 125.8 1.9 127 1.9 128.7 C 1.9 130.4 2.1 131.6 2.5 132.1 C 2.9 132.7 3.4 133 4 133 C 4.6 133 5.1 132.7 5.5 132.1 C 5.9 131.6 6.1 130.4 6.1 128.7 C 6.1 127 5.9 125.8 5.5 125.3 C 5.1 124.7 4.6 124.4 4 124.4 C 3.4 124.4 3 124.7 2.6 125.2 C 2.6 125.2 2.6 125.2 2.6 125.2 Z M 13.6 133.9 L 12.3 133.9 C 12.3 133.9 12.33 125.66 12.3 125.7 C 12 126 11.6 126.3 11.1 126.6 C 10.6 126.8 10.2 127.1 9.8 127.2 C 9.8 127.2 9.8 126 9.8 126 C 10.5 125.6 11.1 125.2 11.6 124.7 C 12.2 124.3 12.6 123.8 12.8 123.3 C 12.79 123.34 13.6 123.3 13.6 123.3 L 13.6 133.9 Z M 16.9 131.1 C 16.9 131.1 18.2 130.9 18.2 130.9 C 18.4 131.7 18.6 132.2 19 132.5 C 19.3 132.8 19.8 133 20.3 133 C 20.9 133 21.4 132.8 21.8 132.4 C 22.2 131.9 22.4 131.4 22.4 130.8 C 22.4 130.2 22.2 129.7 21.9 129.3 C 21.5 129 21 128.8 20.4 128.8 C 20.1 128.8 19.8 128.8 19.5 128.9 C 19.5 128.9 19.6 127.8 19.6 127.8 C 19.7 127.8 19.8 127.8 19.8 127.8 C 20.4 127.8 20.9 127.6 21.3 127.4 C 21.7 127.1 22 126.6 22 126 C 22 125.6 21.8 125.2 21.5 124.9 C 21.2 124.6 20.8 124.4 20.2 124.4 C 19.7 124.4 19.3 124.6 19 124.9 C 18.7 125.2 18.4 125.7 18.3 126.3 C 18.3 126.3 17.1 126.1 17.1 126.1 C 17.2 125.2 17.6 124.5 18.1 124 C 18.7 123.6 19.4 123.3 20.2 123.3 C 20.8 123.3 21.3 123.5 21.8 123.7 C 22.3 124 22.7 124.3 22.9 124.7 C 23.2 125.1 23.3 125.6 23.3 126.1 C 23.3 126.5 23.2 126.9 22.9 127.3 C 22.7 127.7 22.3 128 21.8 128.2 C 22.5 128.3 22.9 128.6 23.3 129.1 C 23.6 129.5 23.8 130.1 23.8 130.8 C 23.8 131.7 23.5 132.5 22.8 133.1 C 22.1 133.7 21.3 134.1 20.3 134.1 C 19.3 134.1 18.6 133.8 18 133.2 C 17.4 132.7 17 132 16.9 131.1 Z M 26.1 133 C 25.4 132.1 25.1 130.7 25.1 128.7 C 25.1 127.5 25.2 126.5 25.5 125.7 C 25.7 124.9 26.1 124.4 26.6 124 C 27.1 123.5 27.7 123.3 28.5 123.3 C 29.1 123.3 29.6 123.4 30 123.7 C 30.4 123.9 30.8 124.2 31 124.7 C 31.3 125.1 31.5 125.6 31.7 126.2 C 31.8 126.8 31.9 127.7 31.9 128.7 C 31.9 129.9 31.8 130.9 31.5 131.7 C 31.3 132.4 30.9 133 30.4 133.4 C 29.9 133.9 29.3 134.1 28.5 134.1 C 27.5 134.1 26.7 133.7 26.1 133 C 26.1 133 26.1 133 26.1 133 Z M 27.1 125.2 C 26.6 125.8 26.4 127 26.4 128.7 C 26.4 130.4 26.6 131.6 27 132.1 C 27.4 132.7 27.9 133 28.5 133 C 29.1 133 29.6 132.7 30 132.1 C 30.4 131.6 30.6 130.4 30.6 128.7 C 30.6 127 30.4 125.8 30 125.3 C 29.6 124.7 29.1 124.4 28.5 124.4 C 27.9 124.4 27.4 124.7 27.1 125.2 C 27.1 125.2 27.1 125.2 27.1 125.2 Z M 40 132.6 L 40 133.9 C 40 133.9 33.07 133.88 33.1 133.9 C 33.1 133.6 33.1 133.3 33.2 133 C 33.4 132.5 33.7 132 34.1 131.6 C 34.5 131.1 35 130.6 35.8 130 C 36.9 129.1 37.7 128.3 38.1 127.8 C 38.5 127.2 38.7 126.7 38.7 126.2 C 38.7 125.7 38.5 125.3 38.1 124.9 C 37.8 124.6 37.3 124.4 36.7 124.4 C 36.1 124.4 35.6 124.6 35.2 125 C 34.8 125.3 34.6 125.8 34.6 126.5 C 34.6 126.5 33.3 126.4 33.3 126.4 C 33.4 125.4 33.7 124.6 34.3 124.1 C 34.9 123.6 35.7 123.3 36.7 123.3 C 37.7 123.3 38.5 123.6 39.1 124.2 C 39.7 124.7 40 125.4 40 126.3 C 40 126.7 39.9 127.1 39.7 127.5 C 39.6 127.9 39.3 128.3 38.9 128.8 C 38.5 129.2 37.8 129.8 36.9 130.6 C 36.1 131.3 35.6 131.7 35.4 131.9 C 35.2 132.2 35 132.4 34.9 132.6 C 34.86 132.64 40 132.6 40 132.6 Z M 45.6 124.8 L 45.6 123.5 L 52.4 123.5 C 52.4 123.5 52.35 124.52 52.4 124.5 C 51.7 125.2 51 126.2 50.4 127.4 C 49.7 128.5 49.2 129.7 48.8 131 C 48.6 131.9 48.4 132.8 48.3 133.9 C 48.3 133.9 47 133.9 47 133.9 C 47 133.1 47.2 132.1 47.5 130.9 C 47.8 129.7 48.3 128.6 48.8 127.5 C 49.4 126.4 50 125.5 50.7 124.8 C 50.7 124.75 45.6 124.8 45.6 124.8 Z M 60.3 125.9 C 60.3 125.9 59 126.1 59 126.1 C 58.9 125.5 58.8 125.2 58.5 124.9 C 58.2 124.6 57.8 124.4 57.3 124.4 C 56.8 124.4 56.5 124.5 56.2 124.7 C 55.8 125 55.4 125.5 55.2 126 C 55 126.6 54.9 127.4 54.8 128.5 C 55.2 128 55.5 127.6 56 127.4 C 56.4 127.2 56.9 127.1 57.4 127.1 C 58.3 127.1 59 127.4 59.6 128 C 60.2 128.6 60.5 129.5 60.5 130.5 C 60.5 131.1 60.4 131.7 60.1 132.3 C 59.8 132.9 59.4 133.3 58.9 133.6 C 58.4 133.9 57.8 134.1 57.2 134.1 C 56.1 134.1 55.3 133.7 54.6 132.9 C 53.9 132.1 53.6 130.8 53.6 129 C 53.6 126.9 53.9 125.5 54.7 124.5 C 55.3 123.7 56.2 123.3 57.3 123.3 C 58.2 123.3 58.8 123.6 59.4 124 C 59.9 124.5 60.2 125.1 60.3 125.9 Z M 55.1 130.5 C 55.1 130.9 55.1 131.3 55.3 131.8 C 55.5 132.2 55.8 132.5 56.1 132.7 C 56.5 132.9 56.8 133 57.2 133 C 57.7 133 58.2 132.8 58.6 132.3 C 59 131.9 59.2 131.3 59.2 130.5 C 59.2 129.8 59 129.3 58.6 128.8 C 58.2 128.4 57.7 128.2 57.1 128.2 C 56.6 128.2 56.1 128.4 55.7 128.8 C 55.3 129.3 55.1 129.8 55.1 130.5 Z M 62.8 133 C 62.1 132.1 61.8 130.7 61.8 128.7 C 61.8 127.5 61.9 126.5 62.2 125.7 C 62.4 124.9 62.8 124.4 63.3 124 C 63.8 123.5 64.4 123.3 65.2 123.3 C 65.8 123.3 66.3 123.4 66.7 123.7 C 67.1 123.9 67.5 124.2 67.7 124.7 C 68 125.1 68.2 125.6 68.4 126.2 C 68.5 126.8 68.6 127.7 68.6 128.7 C 68.6 129.9 68.5 130.9 68.2 131.7 C 68 132.4 67.6 133 67.1 133.4 C 66.6 133.9 66 134.1 65.2 134.1 C 64.2 134.1 63.4 133.7 62.8 133 C 62.8 133 62.8 133 62.8 133 Z M 63.8 125.2 C 63.3 125.8 63.1 127 63.1 128.7 C 63.1 130.4 63.3 131.6 63.7 132.1 C 64.1 132.7 64.6 133 65.2 133 C 65.8 133 66.3 132.7 66.7 132.1 C 67.1 131.6 67.3 130.4 67.3 128.7 C 67.3 127 67.1 125.8 66.7 125.3 C 66.3 124.7 65.8 124.4 65.2 124.4 C 64.6 124.4 64.1 124.7 63.8 125.2 C 63.8 125.2 63.8 125.2 63.8 125.2 Z M 75.1 133 C 74.4 132.1 74 130.7 74 128.7 C 74 127.5 74.1 126.5 74.4 125.7 C 74.7 124.9 75 124.4 75.5 124 C 76 123.5 76.7 123.3 77.4 123.3 C 78 123.3 78.5 123.4 78.9 123.7 C 79.3 123.9 79.7 124.2 80 124.7 C 80.2 125.1 80.5 125.6 80.6 126.2 C 80.8 126.8 80.9 127.7 80.9 128.7 C 80.9 129.9 80.7 130.9 80.5 131.7 C 80.2 132.4 79.8 133 79.3 133.4 C 78.8 133.9 78.2 134.1 77.4 134.1 C 76.4 134.1 75.6 133.7 75.1 133 C 75.1 133 75.1 133 75.1 133 Z M 76 125.2 C 75.6 125.8 75.3 127 75.3 128.7 C 75.3 130.4 75.5 131.6 75.9 132.1 C 76.3 132.7 76.8 133 77.4 133 C 78 133 78.5 132.7 78.9 132.1 C 79.3 131.6 79.5 130.4 79.5 128.7 C 79.5 127 79.3 125.8 78.9 125.3 C 78.5 124.7 78 124.4 77.4 124.4 C 76.8 124.4 76.4 124.7 76 125.2 C 76 125.2 76 125.2 76 125.2 Z M 83.2 133 C 82.5 132.1 82.2 130.7 82.2 128.7 C 82.2 127.5 82.3 126.5 82.6 125.7 C 82.8 124.9 83.2 124.4 83.7 124 C 84.2 123.5 84.8 123.3 85.6 123.3 C 86.2 123.3 86.7 123.4 87.1 123.7 C 87.5 123.9 87.9 124.2 88.1 124.7 C 88.4 125.1 88.6 125.6 88.8 126.2 C 88.9 126.8 89 127.7 89 128.7 C 89 129.9 88.9 130.9 88.6 131.7 C 88.4 132.4 88 133 87.5 133.4 C 87 133.9 86.4 134.1 85.6 134.1 C 84.6 134.1 83.8 133.7 83.2 133 C 83.2 133 83.2 133 83.2 133 Z M 84.2 125.2 C 83.7 125.8 83.5 127 83.5 128.7 C 83.5 130.4 83.7 131.6 84.1 132.1 C 84.5 132.7 85 133 85.6 133 C 86.2 133 86.7 132.7 87.1 132.1 C 87.5 131.6 87.7 130.4 87.7 128.7 C 87.7 127 87.5 125.8 87.1 125.3 C 86.7 124.7 86.2 124.4 85.6 124.4 C 85 124.4 84.5 124.7 84.2 125.2 C 84.2 125.2 84.2 125.2 84.2 125.2 Z M 92.3 128.2 C 91.8 128 91.4 127.7 91.1 127.3 C 90.9 127 90.7 126.5 90.7 126 C 90.7 125.3 91 124.6 91.6 124.1 C 92.1 123.6 92.8 123.3 93.8 123.3 C 94.7 123.3 95.4 123.6 96 124.1 C 96.5 124.7 96.8 125.3 96.8 126.1 C 96.8 126.6 96.7 127 96.4 127.4 C 96.2 127.7 95.8 128 95.3 128.2 C 95.9 128.4 96.4 128.7 96.7 129.2 C 97.1 129.7 97.2 130.2 97.2 130.9 C 97.2 131.8 96.9 132.5 96.3 133.1 C 95.6 133.8 94.8 134.1 93.8 134.1 C 92.7 134.1 91.9 133.8 91.3 133.1 C 90.6 132.5 90.3 131.8 90.3 130.8 C 90.3 130.2 90.5 129.6 90.8 129.1 C 91.2 128.7 91.7 128.4 92.3 128.2 Z M 92.1 126 C 92.1 126.5 92.2 126.9 92.5 127.2 C 92.9 127.5 93.3 127.7 93.8 127.7 C 94.3 127.7 94.7 127.5 95 127.2 C 95.3 126.9 95.5 126.5 95.5 126.1 C 95.5 125.6 95.3 125.2 95 124.9 C 94.7 124.6 94.3 124.4 93.8 124.4 C 93.3 124.4 92.9 124.6 92.5 124.9 C 92.2 125.2 92.1 125.6 92.1 126 Z M 91.6 130.8 C 91.6 131.2 91.7 131.6 91.9 131.9 C 92.1 132.3 92.3 132.5 92.7 132.7 C 93 132.9 93.4 133 93.8 133 C 94.4 133 94.9 132.8 95.3 132.4 C 95.7 132 95.9 131.5 95.9 130.9 C 95.9 130.3 95.7 129.8 95.3 129.4 C 94.9 128.9 94.4 128.7 93.7 128.7 C 93.1 128.7 92.6 128.9 92.2 129.3 C 91.8 129.7 91.6 130.2 91.6 130.8 Z " stroke="none" fill="#000"/>  </g>  <g id="Polygon66407">    <path d="M 1.1 98.7 L 1.1 88.2 C 1.1 88.2 4.75 88.18 4.7 88.2 C 5.6 88.2 6.2 88.2 6.6 88.3 C 7.2 88.5 7.7 88.7 8.2 89.1 C 8.7 89.5 9.1 90.1 9.4 90.9 C 9.7 91.6 9.8 92.4 9.8 93.4 C 9.8 94.2 9.7 94.9 9.5 95.5 C 9.3 96.1 9.1 96.6 8.8 97 C 8.5 97.4 8.2 97.7 7.9 98 C 7.5 98.2 7.1 98.4 6.6 98.5 C 6.1 98.6 5.6 98.7 4.9 98.7 C 4.92 98.68 1.1 98.7 1.1 98.7 Z M 2.5 97.4 C 2.5 97.4 4.76 97.44 4.8 97.4 C 5.5 97.4 6 97.4 6.4 97.2 C 6.8 97.1 7.1 96.9 7.3 96.7 C 7.7 96.4 7.9 95.9 8.1 95.4 C 8.3 94.8 8.4 94.1 8.4 93.3 C 8.4 92.3 8.2 91.4 7.8 90.8 C 7.5 90.2 7 89.8 6.5 89.6 C 6.2 89.5 5.6 89.4 4.7 89.4 C 4.73 89.42 2.5 89.4 2.5 89.4 L 2.5 97.4 Z M 11.7 98.7 L 11.7 88.2 L 13.1 88.2 L 18.6 96.4 L 18.6 88.2 L 20 88.2 L 20 98.7 L 18.6 98.7 L 13 90.4 L 13 98.7 L 11.7 98.7 Z M 22 96.2 C 22 96.2 23.2 96.1 23.2 96.1 C 23.3 96.7 23.5 97.1 23.8 97.4 C 24.1 97.7 24.5 97.8 25 97.8 C 25.4 97.8 25.7 97.7 26 97.5 C 26.3 97.3 26.5 97.1 26.7 96.8 C 26.9 96.5 27.1 96.1 27.2 95.6 C 27.3 95.1 27.4 94.5 27.4 94 C 27.4 93.9 27.4 93.9 27.4 93.7 C 27.1 94.1 26.8 94.5 26.4 94.7 C 25.9 95 25.4 95.1 24.9 95.1 C 24 95.1 23.3 94.8 22.7 94.2 C 22.1 93.5 21.8 92.7 21.8 91.7 C 21.8 90.6 22.1 89.8 22.7 89.1 C 23.4 88.5 24.1 88.1 25.1 88.1 C 25.8 88.1 26.4 88.3 27 88.7 C 27.5 89.1 28 89.6 28.3 90.3 C 28.5 90.9 28.7 91.9 28.7 93.2 C 28.7 94.6 28.6 95.6 28.3 96.4 C 28 97.2 27.5 97.8 27 98.2 C 26.4 98.6 25.7 98.9 24.9 98.9 C 24.1 98.9 23.4 98.6 22.9 98.2 C 22.4 97.7 22.1 97.1 22 96.2 Z M 27.3 91.6 C 27.3 90.9 27.1 90.3 26.7 89.9 C 26.3 89.4 25.8 89.2 25.3 89.2 C 24.7 89.2 24.2 89.4 23.8 89.9 C 23.3 90.4 23.1 91 23.1 91.7 C 23.1 92.4 23.3 92.9 23.7 93.4 C 24.1 93.8 24.6 94 25.2 94 C 25.8 94 26.3 93.8 26.7 93.4 C 27.1 92.9 27.3 92.4 27.3 91.6 Z M 34 95.9 C 34 95.9 35.3 95.7 35.3 95.7 C 35.5 96.5 35.7 97 36.1 97.3 C 36.4 97.6 36.9 97.8 37.4 97.8 C 38 97.8 38.5 97.6 38.9 97.2 C 39.3 96.7 39.5 96.2 39.5 95.6 C 39.5 95 39.3 94.5 39 94.1 C 38.6 93.8 38.1 93.6 37.5 93.6 C 37.2 93.6 36.9 93.6 36.6 93.7 C 36.6 93.7 36.7 92.6 36.7 92.6 C 36.8 92.6 36.9 92.6 36.9 92.6 C 37.5 92.6 38 92.4 38.4 92.2 C 38.8 91.9 39.1 91.4 39.1 90.8 C 39.1 90.4 38.9 90 38.6 89.7 C 38.3 89.4 37.9 89.2 37.3 89.2 C 36.8 89.2 36.4 89.4 36.1 89.7 C 35.8 90 35.5 90.5 35.4 91.1 C 35.4 91.1 34.2 90.9 34.2 90.9 C 34.3 90 34.7 89.3 35.2 88.8 C 35.8 88.4 36.5 88.1 37.3 88.1 C 37.9 88.1 38.4 88.3 38.9 88.5 C 39.4 88.8 39.8 89.1 40 89.5 C 40.3 89.9 40.4 90.4 40.4 90.9 C 40.4 91.3 40.3 91.7 40 92.1 C 39.8 92.5 39.4 92.8 38.9 93 C 39.6 93.1 40 93.4 40.4 93.9 C 40.7 94.3 40.9 94.9 40.9 95.6 C 40.9 96.5 40.6 97.3 39.9 97.9 C 39.2 98.5 38.4 98.9 37.4 98.9 C 36.4 98.9 35.7 98.6 35.1 98 C 34.5 97.5 34.1 96.8 34 95.9 Z M 42.8 98.7 L 42.8 88.2 L 49.9 88.2 L 49.9 89.4 L 44.2 89.4 L 44.2 92.7 L 49.1 92.7 L 49.1 93.9 L 44.2 93.9 L 44.2 98.7 L 42.8 98.7 Z M 51.6 98.7 L 51.6 88.2 L 53 88.2 L 53 97.4 L 58.2 97.4 L 58.2 98.7 L 51.6 98.7 Z " stroke="none" fill="#000"/>  </g>  <g id="Polygon66406">    <path d="M 1.1 81.1 L 1.1 70.6 C 1.1 70.6 4.75 70.58 4.7 70.6 C 5.6 70.6 6.2 70.6 6.6 70.7 C 7.2 70.9 7.7 71.1 8.2 71.5 C 8.7 71.9 9.1 72.5 9.4 73.3 C 9.7 74 9.8 74.8 9.8 75.8 C 9.8 76.6 9.7 77.3 9.5 77.9 C 9.3 78.5 9.1 79 8.8 79.4 C 8.5 79.8 8.2 80.1 7.9 80.4 C 7.5 80.6 7.1 80.8 6.6 80.9 C 6.1 81 5.6 81.1 4.9 81.1 C 4.92 81.08 1.1 81.1 1.1 81.1 Z M 2.5 79.8 C 2.5 79.8 4.76 79.84 4.8 79.8 C 5.5 79.8 6 79.8 6.4 79.6 C 6.8 79.5 7.1 79.3 7.3 79.1 C 7.7 78.8 7.9 78.3 8.1 77.8 C 8.3 77.2 8.4 76.5 8.4 75.7 C 8.4 74.7 8.2 73.8 7.8 73.2 C 7.5 72.6 7 72.2 6.5 72 C 6.2 71.9 5.6 71.8 4.7 71.8 C 4.73 71.82 2.5 71.8 2.5 71.8 L 2.5 79.8 Z M 11.1 77.3 C 11.1 75.9 11.5 74.8 12.3 74.1 C 12.9 73.6 13.7 73.3 14.6 73.3 C 15.7 73.3 16.5 73.6 17.2 74.3 C 17.9 75 18.2 76 18.2 77.2 C 18.2 78.1 18.1 78.9 17.8 79.5 C 17.5 80 17 80.5 16.5 80.8 C 15.9 81.1 15.3 81.2 14.6 81.2 C 13.6 81.2 12.7 80.9 12.1 80.2 C 11.4 79.5 11.1 78.6 11.1 77.3 Z M 12.4 77.3 C 12.4 78.2 12.6 79 13 79.5 C 13.5 79.9 14 80.2 14.6 80.2 C 15.3 80.2 15.8 79.9 16.2 79.5 C 16.7 79 16.9 78.2 16.9 77.2 C 16.9 76.3 16.7 75.6 16.2 75.1 C 15.8 74.6 15.3 74.4 14.6 74.4 C 14 74.4 13.5 74.6 13 75.1 C 12.6 75.6 12.4 76.3 12.4 77.3 Z M 19.7 81.1 L 19.7 73.5 L 20.9 73.5 C 20.9 73.5 20.88 74.55 20.9 74.6 C 21.4 73.7 22.2 73.3 23.3 73.3 C 23.8 73.3 24.2 73.4 24.6 73.5 C 24.9 73.7 25.2 73.9 25.4 74.2 C 25.6 74.5 25.7 74.8 25.8 75.1 C 25.9 75.4 25.9 75.8 25.9 76.4 C 25.9 76.4 25.9 81.1 25.9 81.1 L 24.6 81.1 C 24.6 81.1 24.61 76.45 24.6 76.5 C 24.6 75.9 24.6 75.5 24.5 75.3 C 24.4 75 24.2 74.8 23.9 74.7 C 23.7 74.5 23.4 74.4 23 74.4 C 22.5 74.4 22 74.6 21.6 74.9 C 21.2 75.3 21 76 21 76.9 C 21 76.92 21 81.1 21 81.1 L 19.7 81.1 Z M 32.8 78.3 C 32.8 78.3 34.1 78.5 34.1 78.5 C 34 79.3 33.6 80 33 80.5 C 32.5 81 31.8 81.2 30.9 81.2 C 29.9 81.2 29.1 80.9 28.4 80.2 C 27.8 79.5 27.5 78.6 27.5 77.3 C 27.5 76.5 27.6 75.8 27.9 75.1 C 28.2 74.5 28.6 74.1 29.1 73.8 C 29.7 73.5 30.3 73.3 30.9 73.3 C 31.8 73.3 32.4 73.5 33 73.9 C 33.5 74.3 33.8 74.9 34 75.7 C 34 75.7 32.7 75.9 32.7 75.9 C 32.6 75.4 32.4 75 32.1 74.7 C 31.8 74.5 31.4 74.4 31 74.4 C 30.3 74.4 29.8 74.6 29.4 75.1 C 29 75.5 28.8 76.3 28.8 77.3 C 28.8 78.3 29 79 29.4 79.5 C 29.8 80 30.3 80.2 30.9 80.2 C 31.4 80.2 31.9 80 32.2 79.7 C 32.5 79.4 32.7 78.9 32.8 78.3 Z M 40.4 81.1 C 40.3 80.8 40.2 80.5 40.2 80.1 C 39.7 80.5 39.2 80.8 38.8 81 C 38.3 81.2 37.9 81.2 37.4 81.2 C 36.5 81.2 35.9 81 35.4 80.6 C 35 80.2 34.8 79.7 34.8 79.1 C 34.8 78.7 34.9 78.4 35 78.1 C 35.2 77.7 35.4 77.5 35.7 77.3 C 36 77.1 36.3 77 36.6 76.9 C 36.9 76.8 37.3 76.8 37.8 76.7 C 38.8 76.6 39.6 76.4 40.1 76.3 C 40.1 76.1 40.1 76 40.1 75.9 C 40.1 75.4 39.9 75 39.7 74.8 C 39.4 74.5 38.9 74.4 38.2 74.4 C 37.6 74.4 37.2 74.5 36.9 74.7 C 36.6 74.9 36.4 75.3 36.3 75.8 C 36.3 75.8 35 75.6 35 75.6 C 35.1 75.1 35.3 74.7 35.6 74.3 C 35.8 74 36.2 73.7 36.7 73.6 C 37.2 73.4 37.8 73.3 38.4 73.3 C 39.1 73.3 39.6 73.4 40 73.5 C 40.4 73.7 40.7 73.9 40.9 74.1 C 41.1 74.3 41.2 74.6 41.3 75 C 41.3 75.2 41.4 75.6 41.4 76.2 C 41.4 76.2 41.4 77.9 41.4 77.9 C 41.4 79.1 41.4 79.8 41.4 80.2 C 41.5 80.5 41.6 80.8 41.8 81.1 C 41.77 81.08 40.4 81.1 40.4 81.1 C 40.4 81.1 40.43 81.08 40.4 81.1 Z M 40.1 77.3 C 39.6 77.5 38.9 77.6 38 77.7 C 37.4 77.8 37.1 77.9 36.8 78 C 36.6 78.1 36.4 78.2 36.3 78.4 C 36.2 78.6 36.1 78.8 36.1 79 C 36.1 79.4 36.3 79.7 36.5 79.9 C 36.8 80.1 37.2 80.2 37.7 80.2 C 38.2 80.2 38.6 80.1 39 79.9 C 39.4 79.7 39.7 79.4 39.9 79 C 40 78.7 40.1 78.3 40.1 77.7 C 40.1 77.7 40.1 77.3 40.1 77.3 Z M 42.8 78.8 C 42.8 78.8 44.1 78.6 44.1 78.6 C 44.2 79.1 44.4 79.5 44.7 79.8 C 45 80.1 45.5 80.2 46.1 80.2 C 46.7 80.2 47.1 80.1 47.4 79.8 C 47.7 79.6 47.8 79.3 47.8 79 C 47.8 78.7 47.7 78.5 47.5 78.3 C 47.3 78.2 46.8 78 46.1 77.9 C 45.2 77.6 44.5 77.4 44.2 77.2 C 43.8 77.1 43.5 76.8 43.3 76.5 C 43.2 76.2 43.1 75.9 43.1 75.5 C 43.1 75.2 43.1 74.8 43.3 74.6 C 43.4 74.3 43.7 74 43.9 73.8 C 44.1 73.7 44.4 73.6 44.7 73.5 C 45.1 73.4 45.5 73.3 45.9 73.3 C 46.5 73.3 47 73.4 47.4 73.6 C 47.9 73.7 48.2 74 48.4 74.3 C 48.6 74.6 48.8 74.9 48.9 75.4 C 48.9 75.4 47.6 75.6 47.6 75.6 C 47.6 75.2 47.4 74.9 47.1 74.7 C 46.8 74.5 46.5 74.4 46 74.4 C 45.4 74.4 44.9 74.5 44.7 74.7 C 44.4 74.8 44.3 75.1 44.3 75.3 C 44.3 75.5 44.4 75.7 44.5 75.8 C 44.6 75.9 44.7 76 45 76.1 C 45.1 76.2 45.5 76.3 46.1 76.5 C 47 76.7 47.6 76.9 48 77.1 C 48.4 77.2 48.7 77.4 48.9 77.7 C 49.1 78 49.2 78.4 49.2 78.8 C 49.2 79.3 49 79.7 48.8 80.1 C 48.5 80.4 48.2 80.7 47.7 80.9 C 47.2 81.1 46.7 81.2 46.1 81.2 C 45.1 81.2 44.4 81 43.8 80.6 C 43.3 80.2 43 79.6 42.8 78.8 Z M 52.9 80 C 53.1 80 53.3 80 53.5 79.9 C 53.5 79.9 53.7 81.1 53.7 81.1 C 53.3 81.1 53 81.2 52.7 81.2 C 52.3 81.2 51.9 81.1 51.6 81 C 51.4 80.8 51.2 80.6 51.1 80.4 C 51 80.1 50.9 79.6 50.9 78.9 C 50.93 78.85 50.9 74.5 50.9 74.5 L 50 74.5 L 50 73.5 L 50.9 73.5 L 50.9 71.6 L 52.2 70.8 L 52.2 73.5 L 53.5 73.5 L 53.5 74.5 L 52.2 74.5 C 52.2 74.5 52.21 78.92 52.2 78.9 C 52.2 79.3 52.2 79.5 52.3 79.6 C 52.3 79.7 52.4 79.8 52.5 79.9 C 52.6 79.9 52.8 80 52.9 80 C 52.9 80 52.9 80 52.9 80 Z M 60 78.6 C 60 78.6 61.3 78.8 61.3 78.8 C 61.1 79.6 60.7 80.2 60.1 80.6 C 59.6 81 58.8 81.2 58 81.2 C 56.9 81.2 56 80.9 55.3 80.2 C 54.7 79.5 54.3 78.6 54.3 77.3 C 54.3 76.1 54.7 75.1 55.3 74.4 C 56 73.7 56.8 73.3 57.9 73.3 C 58.9 73.3 59.7 73.6 60.4 74.3 C 61 75 61.4 76 61.4 77.3 C 61.4 77.3 61.3 77.5 61.3 77.6 C 61.3 77.6 55.7 77.6 55.7 77.6 C 55.7 78.4 56 79.1 56.4 79.5 C 56.8 80 57.3 80.2 58 80.2 C 58.4 80.2 58.8 80.1 59.2 79.8 C 59.5 79.6 59.8 79.2 60 78.6 Z M 55.7 76.5 C 55.7 76.5 60 76.5 60 76.5 C 59.9 75.9 59.8 75.4 59.5 75.1 C 59.1 74.6 58.6 74.4 57.9 74.4 C 57.3 74.4 56.8 74.6 56.4 75 C 56 75.4 55.8 75.9 55.7 76.5 Z M 62.9 81.1 L 62.9 73.5 L 64.1 73.5 C 64.1 73.5 64.07 74.63 64.1 74.6 C 64.4 74.1 64.6 73.7 64.9 73.6 C 65.1 73.4 65.4 73.3 65.7 73.3 C 66.2 73.3 66.6 73.4 67 73.7 C 67 73.7 66.6 74.9 66.6 74.9 C 66.3 74.7 66 74.6 65.7 74.6 C 65.4 74.6 65.1 74.7 64.9 74.9 C 64.7 75.1 64.5 75.3 64.4 75.6 C 64.3 76.1 64.2 76.6 64.2 77.1 C 64.2 77.1 64.2 81.1 64.2 81.1 L 62.9 81.1 Z " stroke="none" fill="#000"/>  </g>  <g id="Polygon66405">    <path d="M 0 63.5 L 4 53 L 5.5 53 L 9.8 63.5 L 8.2 63.5 L 7 60.3 L 2.6 60.3 L 1.5 63.5 L 0 63.5 Z M 3 59.2 L 6.6 59.2 C 6.6 59.2 5.47 56.26 5.5 56.3 C 5.1 55.4 4.9 54.7 4.7 54.1 C 4.6 54.8 4.4 55.4 4.2 56.1 C 4.16 56.09 3 59.2 3 59.2 Z M 15.7 63.5 C 15.7 63.5 15.73 62.36 15.7 62.4 C 15.1 63.2 14.3 63.6 13.3 63.6 C 12.9 63.6 12.5 63.6 12.1 63.4 C 11.7 63.2 11.4 63 11.2 62.7 C 11 62.5 10.9 62.2 10.8 61.8 C 10.7 61.5 10.7 61.1 10.7 60.6 C 10.72 60.58 10.7 55.9 10.7 55.9 L 12 55.9 C 12 55.9 12.01 60.09 12 60.1 C 12 60.8 12 61.2 12.1 61.5 C 12.2 61.8 12.3 62.1 12.6 62.2 C 12.9 62.4 13.2 62.5 13.6 62.5 C 14 62.5 14.3 62.4 14.7 62.2 C 15 62 15.2 61.8 15.4 61.4 C 15.5 61.1 15.6 60.6 15.6 59.9 C 15.6 59.95 15.6 55.9 15.6 55.9 L 16.9 55.9 L 16.9 63.5 L 15.7 63.5 Z M 23.9 60.7 C 23.9 60.7 25.1 60.9 25.1 60.9 C 25 61.7 24.6 62.4 24.1 62.9 C 23.5 63.4 22.8 63.6 22 63.6 C 20.9 63.6 20.1 63.3 19.5 62.6 C 18.8 61.9 18.5 61 18.5 59.7 C 18.5 58.9 18.6 58.2 18.9 57.5 C 19.2 56.9 19.6 56.5 20.2 56.2 C 20.7 55.9 21.3 55.7 22 55.7 C 22.8 55.7 23.5 55.9 24 56.3 C 24.5 56.7 24.9 57.3 25 58.1 C 25 58.1 23.8 58.3 23.8 58.3 C 23.6 57.8 23.4 57.4 23.1 57.1 C 22.8 56.9 22.5 56.8 22 56.8 C 21.4 56.8 20.9 57 20.4 57.5 C 20 57.9 19.8 58.7 19.8 59.7 C 19.8 60.7 20 61.4 20.4 61.9 C 20.8 62.4 21.3 62.6 22 62.6 C 22.5 62.6 22.9 62.4 23.2 62.1 C 23.6 61.8 23.8 61.3 23.9 60.7 Z M 26.2 63.5 L 26.2 53 L 27.5 53 L 27.5 59 L 30.6 55.9 L 32.3 55.9 L 29.3 58.7 L 32.5 63.5 L 31 63.5 L 28.4 59.6 L 27.5 60.5 L 27.5 63.5 L 26.2 63.5 Z M 33.5 63.5 L 33.5 53 L 34.8 53 L 34.8 63.5 L 33.5 63.5 Z M 42 61 C 42 61 43.4 61.2 43.4 61.2 C 43.2 62 42.8 62.6 42.2 63 C 41.6 63.4 40.9 63.6 40 63.6 C 38.9 63.6 38 63.3 37.4 62.6 C 36.7 61.9 36.4 61 36.4 59.7 C 36.4 58.5 36.7 57.5 37.4 56.8 C 38 56.1 38.9 55.7 40 55.7 C 41 55.7 41.8 56 42.4 56.7 C 43.1 57.4 43.4 58.4 43.4 59.7 C 43.4 59.7 43.4 59.9 43.4 60 C 43.4 60 37.7 60 37.7 60 C 37.8 60.8 38 61.5 38.4 61.9 C 38.9 62.4 39.4 62.6 40 62.6 C 40.5 62.6 40.9 62.5 41.2 62.2 C 41.6 62 41.8 61.6 42 61 Z M 37.8 58.9 C 37.8 58.9 42.1 58.9 42.1 58.9 C 42 58.3 41.8 57.8 41.6 57.5 C 41.2 57 40.6 56.8 40 56.8 C 39.4 56.8 38.9 57 38.5 57.4 C 38.1 57.8 37.8 58.3 37.8 58.9 Z M 45.8 66.6 C 45.5 66.6 45.2 66.5 44.9 66.4 C 44.9 66.4 44.8 65.2 44.8 65.2 C 45.1 65.3 45.3 65.3 45.5 65.3 C 45.8 65.3 46 65.3 46.2 65.2 C 46.4 65.1 46.5 64.9 46.6 64.8 C 46.7 64.6 46.8 64.3 47 63.8 C 47.1 63.7 47.1 63.6 47.1 63.5 C 47.14 63.49 44.3 55.9 44.3 55.9 L 45.6 55.9 C 45.6 55.9 47.23 60.28 47.2 60.3 C 47.4 60.8 47.6 61.4 47.8 62 C 47.9 61.4 48.1 60.9 48.3 60.3 C 48.31 60.31 49.9 55.9 49.9 55.9 L 51.2 55.9 C 51.2 55.9 48.33 63.61 48.3 63.6 C 48 64.4 47.8 65 47.6 65.3 C 47.4 65.8 47.1 66.1 46.8 66.3 C 46.5 66.5 46.2 66.6 45.8 66.6 C 45.8 66.6 45.8 66.6 45.8 66.6 Z " stroke="none" fill="#000"/>  </g>  <g id="Polygon66404">    <path d="M 1.2 45.9 L 1.2 35.4 L 8.3 35.4 L 8.3 36.6 L 2.6 36.6 L 2.6 39.9 L 7.5 39.9 L 7.5 41.1 L 2.6 41.1 L 2.6 45.9 L 1.2 45.9 Z M 9.9 36.9 L 9.9 35.4 L 11.2 35.4 L 11.2 36.9 L 9.9 36.9 Z M 9.9 45.9 L 9.9 38.3 L 11.2 38.3 L 11.2 45.9 L 9.9 45.9 Z M 18.4 43.4 C 18.4 43.4 19.7 43.6 19.7 43.6 C 19.5 44.4 19.1 45 18.6 45.4 C 18 45.8 17.3 46 16.4 46 C 15.3 46 14.4 45.7 13.7 45 C 13.1 44.3 12.8 43.4 12.8 42.1 C 12.8 40.9 13.1 39.9 13.7 39.2 C 14.4 38.5 15.3 38.1 16.3 38.1 C 17.3 38.1 18.2 38.4 18.8 39.1 C 19.4 39.8 19.8 40.8 19.8 42.1 C 19.8 42.1 19.8 42.3 19.8 42.4 C 19.8 42.4 14.1 42.4 14.1 42.4 C 14.1 43.2 14.4 43.9 14.8 44.3 C 15.2 44.8 15.8 45 16.4 45 C 16.9 45 17.3 44.9 17.6 44.6 C 17.9 44.4 18.2 44 18.4 43.4 Z M 14.2 41.3 C 14.2 41.3 18.4 41.3 18.4 41.3 C 18.3 40.7 18.2 40.2 17.9 39.9 C 17.5 39.4 17 39.2 16.3 39.2 C 15.7 39.2 15.2 39.4 14.8 39.8 C 14.4 40.2 14.2 40.7 14.2 41.3 Z M 21.3 45.9 L 21.3 35.4 L 22.6 35.4 L 22.6 45.9 L 21.3 45.9 Z M 29.5 45.9 C 29.5 45.9 29.53 44.92 29.5 44.9 C 29.1 45.7 28.3 46 27.4 46 C 26.8 46 26.2 45.9 25.7 45.5 C 25.2 45.2 24.8 44.7 24.6 44.1 C 24.3 43.5 24.1 42.9 24.1 42.1 C 24.1 41.3 24.3 40.6 24.5 40 C 24.8 39.4 25.1 38.9 25.7 38.6 C 26.2 38.3 26.7 38.1 27.3 38.1 C 27.8 38.1 28.2 38.2 28.6 38.4 C 28.9 38.6 29.2 38.8 29.4 39.1 C 29.45 39.15 29.4 35.4 29.4 35.4 L 30.7 35.4 L 30.7 45.9 L 29.5 45.9 Z M 25.5 42.1 C 25.5 43.1 25.7 43.8 26.1 44.3 C 26.5 44.7 27 45 27.5 45 C 28.1 45 28.6 44.8 29 44.3 C 29.4 43.8 29.6 43.1 29.6 42.2 C 29.6 41.1 29.4 40.4 29 39.9 C 28.6 39.4 28.1 39.2 27.5 39.2 C 26.9 39.2 26.4 39.4 26 39.9 C 25.7 40.3 25.5 41.1 25.5 42.1 Z M 36.9 45.9 L 36.9 35.4 L 38.3 35.4 L 38.3 44.6 L 43.5 44.6 L 43.5 45.9 L 36.9 45.9 Z M 50.2 45.9 C 50.1 45.6 50 45.3 50 44.9 C 49.5 45.3 49 45.6 48.6 45.8 C 48.1 46 47.7 46 47.2 46 C 46.3 46 45.7 45.8 45.2 45.4 C 44.8 45 44.6 44.5 44.6 43.9 C 44.6 43.5 44.6 43.2 44.8 42.9 C 45 42.5 45.2 42.3 45.5 42.1 C 45.7 41.9 46.1 41.8 46.4 41.7 C 46.7 41.6 47 41.6 47.5 41.5 C 48.6 41.4 49.4 41.2 49.8 41.1 C 49.8 40.9 49.9 40.8 49.9 40.7 C 49.9 40.2 49.7 39.8 49.5 39.6 C 49.2 39.3 48.7 39.2 48 39.2 C 47.4 39.2 47 39.3 46.7 39.5 C 46.4 39.7 46.2 40.1 46 40.6 C 46 40.6 44.8 40.4 44.8 40.4 C 44.9 39.9 45.1 39.5 45.3 39.1 C 45.6 38.8 46 38.5 46.5 38.4 C 47 38.2 47.5 38.1 48.2 38.1 C 48.9 38.1 49.4 38.2 49.8 38.3 C 50.2 38.5 50.5 38.7 50.7 38.9 C 50.9 39.1 51 39.4 51.1 39.8 C 51.1 40 51.1 40.4 51.1 41 C 51.1 41 51.1 42.7 51.1 42.7 C 51.1 43.9 51.2 44.6 51.2 45 C 51.3 45.3 51.4 45.6 51.6 45.9 C 51.56 45.88 50.2 45.9 50.2 45.9 C 50.2 45.9 50.21 45.88 50.2 45.9 Z M 49.8 42.1 C 49.4 42.3 48.7 42.4 47.7 42.5 C 47.2 42.6 46.8 42.7 46.6 42.8 C 46.4 42.9 46.2 43 46.1 43.2 C 46 43.4 45.9 43.6 45.9 43.8 C 45.9 44.2 46.1 44.5 46.3 44.7 C 46.6 44.9 47 45 47.5 45 C 48 45 48.4 44.9 48.8 44.7 C 49.2 44.5 49.5 44.2 49.6 43.8 C 49.8 43.5 49.8 43.1 49.8 42.5 C 49.8 42.5 49.8 42.1 49.8 42.1 Z M 53.1 45.9 L 53.1 38.3 L 54.3 38.3 C 54.3 38.3 54.31 39.35 54.3 39.4 C 54.9 38.5 55.7 38.1 56.7 38.1 C 57.2 38.1 57.6 38.2 58 38.3 C 58.4 38.5 58.7 38.7 58.9 39 C 59 39.3 59.2 39.6 59.3 39.9 C 59.3 40.2 59.3 40.6 59.3 41.2 C 59.33 41.2 59.3 45.9 59.3 45.9 L 58 45.9 C 58 45.9 58.04 41.25 58 41.3 C 58 40.7 58 40.3 57.9 40.1 C 57.8 39.8 57.6 39.6 57.4 39.5 C 57.1 39.3 56.8 39.2 56.5 39.2 C 55.9 39.2 55.4 39.4 55 39.7 C 54.6 40.1 54.4 40.8 54.4 41.7 C 54.43 41.72 54.4 45.9 54.4 45.9 L 53.1 45.9 Z M 66.5 43.4 C 66.5 43.4 67.8 43.6 67.8 43.6 C 67.6 44.4 67.2 45 66.7 45.4 C 66.1 45.8 65.4 46 64.5 46 C 63.4 46 62.5 45.7 61.8 45 C 61.2 44.3 60.9 43.4 60.9 42.1 C 60.9 40.9 61.2 39.9 61.9 39.2 C 62.5 38.5 63.4 38.1 64.4 38.1 C 65.4 38.1 66.3 38.4 66.9 39.1 C 67.6 39.8 67.9 40.8 67.9 42.1 C 67.9 42.1 67.9 42.3 67.9 42.4 C 67.9 42.4 62.2 42.4 62.2 42.4 C 62.3 43.2 62.5 43.9 62.9 44.3 C 63.3 44.8 63.9 45 64.5 45 C 65 45 65.4 44.9 65.7 44.6 C 66 44.4 66.3 44 66.5 43.4 Z M 62.3 41.3 C 62.3 41.3 66.5 41.3 66.5 41.3 C 66.5 40.7 66.3 40.2 66 39.9 C 65.6 39.4 65.1 39.2 64.4 39.2 C 63.8 39.2 63.3 39.4 62.9 39.8 C 62.5 40.2 62.3 40.7 62.3 41.3 Z " stroke="none" fill="#000"/>  </g>  <g id="Polygon66403">    <path d="M 8 17.8 L 9.4 17.8 C 9.4 17.8 9.41 23.84 9.4 23.8 C 9.4 24.9 9.3 25.7 9.1 26.4 C 8.8 27 8.4 27.5 7.8 27.9 C 7.1 28.3 6.3 28.5 5.3 28.5 C 4.3 28.5 3.5 28.3 2.9 27.9 C 2.3 27.6 1.8 27.1 1.6 26.5 C 1.3 25.8 1.2 25 1.2 23.8 C 1.15 23.84 1.2 17.8 1.2 17.8 L 2.5 17.8 C 2.5 17.8 2.54 23.84 2.5 23.8 C 2.5 24.7 2.6 25.4 2.8 25.9 C 3 26.3 3.3 26.6 3.7 26.9 C 4.1 27.1 4.6 27.2 5.2 27.2 C 6.2 27.2 6.9 27 7.4 26.5 C 7.8 26 8 25.2 8 23.8 C 8.02 23.84 8 17.8 8 17.8 Z M 11.6 28.3 L 11.6 20.7 L 12.7 20.7 C 12.7 20.7 12.72 21.75 12.7 21.8 C 13.3 20.9 14.1 20.5 15.1 20.5 C 15.6 20.5 16 20.6 16.4 20.7 C 16.8 20.9 17.1 21.1 17.3 21.4 C 17.5 21.7 17.6 22 17.7 22.3 C 17.7 22.6 17.7 23 17.7 23.6 C 17.74 23.6 17.7 28.3 17.7 28.3 L 16.4 28.3 C 16.4 28.3 16.45 23.65 16.4 23.7 C 16.4 23.1 16.4 22.7 16.3 22.5 C 16.2 22.2 16 22 15.8 21.9 C 15.5 21.7 15.2 21.6 14.9 21.6 C 14.3 21.6 13.8 21.8 13.4 22.1 C 13 22.5 12.8 23.2 12.8 24.1 C 12.85 24.12 12.8 28.3 12.8 28.3 L 11.6 28.3 Z M 19.7 19.3 L 19.7 17.8 L 21 17.8 L 21 19.3 L 19.7 19.3 Z M 19.7 28.3 L 19.7 20.7 L 21 20.7 L 21 28.3 L 19.7 28.3 Z M 25.2 27.2 C 25.4 27.2 25.6 27.2 25.8 27.1 C 25.8 27.1 26 28.3 26 28.3 C 25.6 28.3 25.3 28.4 25 28.4 C 24.5 28.4 24.2 28.3 23.9 28.2 C 23.7 28 23.5 27.8 23.4 27.6 C 23.3 27.3 23.2 26.8 23.2 26.1 C 23.21 26.05 23.2 21.7 23.2 21.7 L 22.3 21.7 L 22.3 20.7 L 23.2 20.7 L 23.2 18.8 L 24.5 18 L 24.5 20.7 L 25.8 20.7 L 25.8 21.7 L 24.5 21.7 C 24.5 21.7 24.49 26.12 24.5 26.1 C 24.5 26.5 24.5 26.7 24.6 26.8 C 24.6 26.9 24.7 27 24.8 27.1 C 24.9 27.1 25 27.2 25.2 27.2 C 25.2 27.2 25.2 27.2 25.2 27.2 Z M 30.8 25.5 C 30.8 25.5 32.1 25.3 32.1 25.3 C 32.2 26.1 32.5 26.6 32.8 26.9 C 33.2 27.2 33.6 27.4 34.1 27.4 C 34.7 27.4 35.2 27.2 35.7 26.8 C 36.1 26.3 36.3 25.8 36.3 25.2 C 36.3 24.6 36.1 24.1 35.7 23.7 C 35.3 23.4 34.8 23.2 34.2 23.2 C 34 23.2 33.7 23.2 33.3 23.3 C 33.3 23.3 33.5 22.2 33.5 22.2 C 33.5 22.2 33.6 22.2 33.7 22.2 C 34.2 22.2 34.7 22 35.1 21.8 C 35.6 21.5 35.8 21 35.8 20.4 C 35.8 20 35.6 19.6 35.3 19.3 C 35 19 34.6 18.8 34.1 18.8 C 33.6 18.8 33.2 19 32.8 19.3 C 32.5 19.6 32.3 20.1 32.2 20.7 C 32.2 20.7 30.9 20.5 30.9 20.5 C 31.1 19.6 31.4 18.9 32 18.4 C 32.5 18 33.2 17.7 34.1 17.7 C 34.6 17.7 35.2 17.9 35.6 18.1 C 36.1 18.4 36.5 18.7 36.7 19.1 C 37 19.5 37.1 20 37.1 20.5 C 37.1 20.9 37 21.3 36.8 21.7 C 36.5 22.1 36.2 22.4 35.7 22.6 C 36.3 22.7 36.8 23 37.1 23.5 C 37.5 23.9 37.6 24.5 37.6 25.2 C 37.6 26.1 37.3 26.9 36.6 27.5 C 36 28.1 35.1 28.5 34.1 28.5 C 33.2 28.5 32.4 28.2 31.8 27.6 C 31.2 27.1 30.9 26.4 30.8 25.5 Z M 39.6 28.3 L 39.6 26.8 L 41.1 26.8 C 41.1 26.8 41.09 28.28 41.1 28.3 C 41.1 28.8 41 29.3 40.8 29.6 C 40.6 29.9 40.3 30.2 39.9 30.4 C 39.9 30.4 39.5 29.8 39.5 29.8 C 39.8 29.7 40 29.5 40.1 29.3 C 40.3 29 40.3 28.7 40.3 28.3 C 40.35 28.28 39.6 28.3 39.6 28.3 Z M 47.6 28.3 L 47.6 17.8 L 49 17.8 L 49 22.1 L 54.5 22.1 L 54.5 17.8 L 55.9 17.8 L 55.9 28.3 L 54.5 28.3 L 54.5 23.3 L 49 23.3 L 49 28.3 L 47.6 28.3 Z M 63.2 28.3 C 63.1 28 63 27.7 63 27.3 C 62.5 27.7 62 28 61.6 28.2 C 61.2 28.4 60.7 28.4 60.2 28.4 C 59.3 28.4 58.7 28.2 58.3 27.8 C 57.8 27.4 57.6 26.9 57.6 26.3 C 57.6 25.9 57.7 25.6 57.8 25.3 C 58 24.9 58.2 24.7 58.5 24.5 C 58.8 24.3 59.1 24.2 59.4 24.1 C 59.7 24 60.1 24 60.6 23.9 C 61.6 23.8 62.4 23.6 62.9 23.5 C 62.9 23.3 62.9 23.2 62.9 23.1 C 62.9 22.6 62.8 22.2 62.5 22 C 62.2 21.7 61.7 21.6 61.1 21.6 C 60.4 21.6 60 21.7 59.7 21.9 C 59.4 22.1 59.2 22.5 59.1 23 C 59.1 23 57.8 22.8 57.8 22.8 C 57.9 22.3 58.1 21.9 58.4 21.5 C 58.6 21.2 59 20.9 59.5 20.8 C 60 20.6 60.6 20.5 61.2 20.5 C 61.9 20.5 62.4 20.6 62.8 20.7 C 63.2 20.9 63.5 21.1 63.7 21.3 C 63.9 21.5 64 21.8 64.1 22.2 C 64.2 22.4 64.2 22.8 64.2 23.4 C 64.2 23.4 64.2 25.1 64.2 25.1 C 64.2 26.3 64.2 27 64.3 27.4 C 64.3 27.7 64.4 28 64.6 28.3 C 64.59 28.28 63.2 28.3 63.2 28.3 C 63.2 28.3 63.24 28.28 63.2 28.3 Z M 62.9 24.5 C 62.4 24.7 61.7 24.8 60.8 24.9 C 60.2 25 59.9 25.1 59.6 25.2 C 59.4 25.3 59.3 25.4 59.1 25.6 C 59 25.8 59 26 59 26.2 C 59 26.6 59.1 26.9 59.4 27.1 C 59.6 27.3 60 27.4 60.5 27.4 C 61 27.4 61.4 27.3 61.8 27.1 C 62.2 26.9 62.5 26.6 62.7 26.2 C 62.8 25.9 62.9 25.5 62.9 24.9 C 62.9 24.9 62.9 24.5 62.9 24.5 Z M 67 31.4 C 66.7 31.4 66.4 31.3 66.1 31.2 C 66.1 31.2 66 30 66 30 C 66.3 30.1 66.5 30.1 66.7 30.1 C 67 30.1 67.2 30.1 67.4 30 C 67.6 29.9 67.7 29.7 67.8 29.6 C 67.9 29.4 68 29.1 68.2 28.6 C 68.2 28.5 68.3 28.4 68.3 28.3 C 68.33 28.29 65.4 20.7 65.4 20.7 L 66.8 20.7 C 66.8 20.7 68.42 25.08 68.4 25.1 C 68.6 25.6 68.8 26.2 69 26.8 C 69.1 26.2 69.3 25.7 69.5 25.1 C 69.5 25.11 71.1 20.7 71.1 20.7 L 72.4 20.7 C 72.4 20.7 69.52 28.41 69.5 28.4 C 69.2 29.2 69 29.8 68.8 30.1 C 68.6 30.6 68.3 30.9 68 31.1 C 67.7 31.3 67.4 31.4 67 31.4 C 67 31.4 67 31.4 67 31.4 Z M 73.9 28.3 L 73.9 21.7 L 72.7 21.7 L 72.7 20.7 L 73.9 20.7 C 73.9 20.7 73.86 19.93 73.9 19.9 C 73.9 19.2 74 18.6 74.3 18.2 C 74.7 17.8 75.2 17.6 75.9 17.6 C 76.4 17.6 76.8 17.7 77.2 17.8 C 77.2 17.8 77 18.9 77 18.9 C 76.7 18.8 76.5 18.8 76.3 18.8 C 75.9 18.8 75.6 18.9 75.4 19.1 C 75.2 19.2 75.1 19.6 75.1 20.2 C 75.15 20.18 75.1 20.7 75.1 20.7 L 76.6 20.7 L 76.6 21.7 L 75.1 21.7 L 75.1 28.3 L 73.9 28.3 Z M 77.6 19.3 L 77.6 17.8 L 78.9 17.8 L 78.9 19.3 L 77.6 19.3 Z M 77.6 28.3 L 77.6 20.7 L 78.9 20.7 L 78.9 28.3 L 77.6 28.3 Z M 86.1 25.8 C 86.1 25.8 87.4 26 87.4 26 C 87.2 26.8 86.8 27.4 86.2 27.8 C 85.6 28.2 84.9 28.4 84 28.4 C 82.9 28.4 82 28.1 81.4 27.4 C 80.7 26.7 80.4 25.8 80.4 24.5 C 80.4 23.3 80.7 22.3 81.4 21.6 C 82.1 20.9 82.9 20.5 84 20.5 C 85 20.5 85.8 20.8 86.5 21.5 C 87.1 22.2 87.4 23.2 87.4 24.5 C 87.4 24.5 87.4 24.7 87.4 24.8 C 87.4 24.8 81.7 24.8 81.7 24.8 C 81.8 25.6 82 26.3 82.5 26.7 C 82.9 27.2 83.4 27.4 84 27.4 C 84.5 27.4 84.9 27.3 85.3 27 C 85.6 26.8 85.9 26.4 86.1 25.8 Z M 81.8 23.7 C 81.8 23.7 86.1 23.7 86.1 23.7 C 86 23.1 85.8 22.6 85.6 22.3 C 85.2 21.8 84.6 21.6 84 21.6 C 83.4 21.6 82.9 21.8 82.5 22.2 C 82.1 22.6 81.9 23.1 81.8 23.7 Z M 89 28.3 L 89 17.8 L 90.3 17.8 L 90.3 28.3 L 89 28.3 Z M 97.2 28.3 C 97.2 28.3 97.2 27.32 97.2 27.3 C 96.7 28.1 96 28.4 95.1 28.4 C 94.5 28.4 93.9 28.3 93.4 27.9 C 92.9 27.6 92.5 27.1 92.2 26.5 C 91.9 25.9 91.8 25.3 91.8 24.5 C 91.8 23.7 91.9 23 92.2 22.4 C 92.4 21.8 92.8 21.3 93.3 21 C 93.8 20.7 94.4 20.5 95 20.5 C 95.5 20.5 95.9 20.6 96.2 20.8 C 96.6 21 96.9 21.2 97.1 21.5 C 97.11 21.55 97.1 17.8 97.1 17.8 L 98.4 17.8 L 98.4 28.3 L 97.2 28.3 Z M 93.1 24.5 C 93.1 25.5 93.3 26.2 93.7 26.7 C 94.1 27.1 94.6 27.4 95.2 27.4 C 95.8 27.4 96.2 27.2 96.6 26.7 C 97 26.2 97.2 25.5 97.2 24.6 C 97.2 23.5 97 22.8 96.6 22.3 C 96.2 21.8 95.7 21.6 95.1 21.6 C 94.6 21.6 94.1 21.8 93.7 22.3 C 93.3 22.7 93.1 23.5 93.1 24.5 Z M 104.6 28.3 L 104.6 17.8 C 104.6 17.8 108.54 17.78 108.5 17.8 C 109.3 17.8 110 17.9 110.5 18.1 C 111 18.3 111.3 18.6 111.6 19.1 C 111.9 19.5 112 20 112 20.5 C 112 20.9 111.9 21.3 111.7 21.7 C 111.4 22.1 111 22.4 110.6 22.7 C 111.2 22.9 111.7 23.2 112 23.6 C 112.4 24.1 112.5 24.6 112.5 25.2 C 112.5 25.7 112.4 26.2 112.2 26.6 C 112 27 111.8 27.4 111.4 27.6 C 111.1 27.8 110.8 28 110.3 28.1 C 109.8 28.2 109.3 28.3 108.6 28.3 C 108.6 28.28 104.6 28.3 104.6 28.3 Z M 106 22.2 C 106 22.2 108.26 22.19 108.3 22.2 C 108.9 22.2 109.3 22.1 109.6 22.1 C 109.9 22 110.2 21.8 110.4 21.5 C 110.6 21.3 110.7 21 110.7 20.6 C 110.7 20.3 110.6 20 110.4 19.7 C 110.2 19.4 110 19.3 109.7 19.2 C 109.4 19.1 108.8 19 108.1 19 C 108.09 19.02 106 19 106 19 L 106 22.2 Z M 106 27 C 106 27 108.6 27.04 108.6 27 C 109.1 27 109.4 27 109.5 27 C 109.9 26.9 110.1 26.8 110.4 26.7 C 110.6 26.6 110.7 26.4 110.9 26.1 C 111 25.9 111.1 25.6 111.1 25.2 C 111.1 24.8 111 24.5 110.8 24.2 C 110.6 23.9 110.3 23.7 110 23.6 C 109.6 23.5 109.1 23.4 108.4 23.4 C 108.42 23.43 106 23.4 106 23.4 L 106 27 Z M 119.3 28.3 C 119.3 28.3 119.26 27.16 119.3 27.2 C 118.7 28 117.9 28.4 116.8 28.4 C 116.4 28.4 116 28.4 115.6 28.2 C 115.2 28 114.9 27.8 114.7 27.5 C 114.5 27.3 114.4 27 114.3 26.6 C 114.3 26.3 114.2 25.9 114.2 25.4 C 114.25 25.38 114.2 20.7 114.2 20.7 L 115.5 20.7 C 115.5 20.7 115.54 24.89 115.5 24.9 C 115.5 25.6 115.6 26 115.6 26.3 C 115.7 26.6 115.9 26.9 116.1 27 C 116.4 27.2 116.7 27.3 117.1 27.3 C 117.5 27.3 117.9 27.2 118.2 27 C 118.5 26.8 118.8 26.6 118.9 26.2 C 119.1 25.9 119.1 25.4 119.1 24.7 C 119.12 24.75 119.1 20.7 119.1 20.7 L 120.4 20.7 L 120.4 28.3 L 119.3 28.3 Z M 121.9 26 C 121.9 26 123.2 25.8 123.2 25.8 C 123.3 26.3 123.5 26.7 123.8 27 C 124.1 27.3 124.6 27.4 125.2 27.4 C 125.8 27.4 126.2 27.3 126.5 27 C 126.8 26.8 126.9 26.5 126.9 26.2 C 126.9 25.9 126.8 25.7 126.5 25.5 C 126.4 25.4 125.9 25.2 125.2 25.1 C 124.3 24.8 123.6 24.6 123.2 24.4 C 122.9 24.3 122.6 24 122.4 23.7 C 122.2 23.4 122.1 23.1 122.1 22.7 C 122.1 22.4 122.2 22 122.4 21.8 C 122.5 21.5 122.7 21.2 123 21 C 123.2 20.9 123.5 20.8 123.8 20.7 C 124.2 20.6 124.5 20.5 124.9 20.5 C 125.5 20.5 126.1 20.6 126.5 20.8 C 127 20.9 127.3 21.2 127.5 21.5 C 127.7 21.8 127.9 22.1 127.9 22.6 C 127.9 22.6 126.7 22.8 126.7 22.8 C 126.6 22.4 126.5 22.1 126.2 21.9 C 125.9 21.7 125.5 21.6 125 21.6 C 124.4 21.6 124 21.7 123.8 21.9 C 123.5 22 123.4 22.3 123.4 22.5 C 123.4 22.7 123.4 22.9 123.5 23 C 123.6 23.1 123.8 23.2 124 23.3 C 124.2 23.4 124.5 23.5 125.2 23.7 C 126.1 23.9 126.7 24.1 127.1 24.3 C 127.4 24.4 127.7 24.6 127.9 24.9 C 128.1 25.2 128.2 25.6 128.2 26 C 128.2 26.5 128.1 26.9 127.9 27.3 C 127.6 27.6 127.2 27.9 126.8 28.1 C 126.3 28.3 125.8 28.4 125.2 28.4 C 124.2 28.4 123.4 28.2 122.9 27.8 C 122.4 27.4 122.1 26.8 121.9 26 Z M 129.8 19.3 L 129.8 17.8 L 131.1 17.8 L 131.1 19.3 L 129.8 19.3 Z M 129.8 28.3 L 129.8 20.7 L 131.1 20.7 L 131.1 28.3 L 129.8 28.3 Z M 133 28.3 L 133 20.7 L 134.2 20.7 C 134.2 20.7 134.18 21.75 134.2 21.8 C 134.7 20.9 135.5 20.5 136.6 20.5 C 137.1 20.5 137.5 20.6 137.9 20.7 C 138.3 20.9 138.5 21.1 138.7 21.4 C 138.9 21.7 139.1 22 139.1 22.3 C 139.2 22.6 139.2 23 139.2 23.6 C 139.2 23.6 139.2 28.3 139.2 28.3 L 137.9 28.3 C 137.9 28.3 137.92 23.65 137.9 23.7 C 137.9 23.1 137.9 22.7 137.8 22.5 C 137.7 22.2 137.5 22 137.2 21.9 C 137 21.7 136.7 21.6 136.3 21.6 C 135.8 21.6 135.3 21.8 134.9 22.1 C 134.5 22.5 134.3 23.2 134.3 24.1 C 134.31 24.12 134.3 28.3 134.3 28.3 L 133 28.3 Z M 146.4 25.8 C 146.4 25.8 147.7 26 147.7 26 C 147.5 26.8 147.1 27.4 146.6 27.8 C 146 28.2 145.3 28.4 144.4 28.4 C 143.3 28.4 142.4 28.1 141.7 27.4 C 141.1 26.7 140.8 25.8 140.8 24.5 C 140.8 23.3 141.1 22.3 141.7 21.6 C 142.4 20.9 143.3 20.5 144.3 20.5 C 145.3 20.5 146.2 20.8 146.8 21.5 C 147.4 22.2 147.8 23.2 147.8 24.5 C 147.8 24.5 147.8 24.7 147.8 24.8 C 147.8 24.8 142.1 24.8 142.1 24.8 C 142.1 25.6 142.4 26.3 142.8 26.7 C 143.2 27.2 143.7 27.4 144.4 27.4 C 144.9 27.4 145.3 27.3 145.6 27 C 145.9 26.8 146.2 26.4 146.4 25.8 Z M 142.2 23.7 C 142.2 23.7 146.4 23.7 146.4 23.7 C 146.3 23.1 146.2 22.6 145.9 22.3 C 145.5 21.8 145 21.6 144.3 21.6 C 143.7 21.6 143.2 21.8 142.8 22.2 C 142.4 22.6 142.2 23.1 142.2 23.7 Z M 148.8 26 C 148.8 26 150.1 25.8 150.1 25.8 C 150.2 26.3 150.4 26.7 150.7 27 C 151 27.3 151.5 27.4 152.1 27.4 C 152.7 27.4 153.1 27.3 153.4 27 C 153.7 26.8 153.8 26.5 153.8 26.2 C 153.8 25.9 153.7 25.7 153.4 25.5 C 153.3 25.4 152.8 25.2 152.1 25.1 C 151.2 24.8 150.5 24.6 150.2 24.4 C 149.8 24.3 149.5 24 149.3 23.7 C 149.1 23.4 149 23.1 149 22.7 C 149 22.4 149.1 22 149.3 21.8 C 149.4 21.5 149.6 21.2 149.9 21 C 150.1 20.9 150.4 20.8 150.7 20.7 C 151.1 20.6 151.4 20.5 151.8 20.5 C 152.4 20.5 153 20.6 153.4 20.8 C 153.9 20.9 154.2 21.2 154.4 21.5 C 154.6 21.8 154.8 22.1 154.9 22.6 C 154.9 22.6 153.6 22.8 153.6 22.8 C 153.5 22.4 153.4 22.1 153.1 21.9 C 152.8 21.7 152.4 21.6 151.9 21.6 C 151.3 21.6 150.9 21.7 150.7 21.9 C 150.4 22 150.3 22.3 150.3 22.5 C 150.3 22.7 150.3 22.9 150.4 23 C 150.5 23.1 150.7 23.2 150.9 23.3 C 151.1 23.4 151.4 23.5 152.1 23.7 C 153 23.9 153.6 24.1 154 24.3 C 154.3 24.4 154.6 24.6 154.8 24.9 C 155 25.2 155.1 25.6 155.1 26 C 155.1 26.5 155 26.9 154.8 27.3 C 154.5 27.6 154.2 27.9 153.7 28.1 C 153.2 28.3 152.7 28.4 152.1 28.4 C 151.1 28.4 150.3 28.2 149.8 27.8 C 149.3 27.4 149 26.8 148.8 26 Z M 156.2 26 C 156.2 26 157.4 25.8 157.4 25.8 C 157.5 26.3 157.7 26.7 158 27 C 158.4 27.3 158.8 27.4 159.4 27.4 C 160 27.4 160.4 27.3 160.7 27 C 161 26.8 161.1 26.5 161.1 26.2 C 161.1 25.9 161 25.7 160.8 25.5 C 160.6 25.4 160.2 25.2 159.4 25.1 C 158.5 24.8 157.8 24.6 157.5 24.4 C 157.1 24.3 156.8 24 156.7 23.7 C 156.5 23.4 156.4 23.1 156.4 22.7 C 156.4 22.4 156.4 22 156.6 21.8 C 156.8 21.5 157 21.2 157.2 21 C 157.4 20.9 157.7 20.8 158.1 20.7 C 158.4 20.6 158.8 20.5 159.2 20.5 C 159.8 20.5 160.3 20.6 160.7 20.8 C 161.2 20.9 161.5 21.2 161.7 21.5 C 162 21.8 162.1 22.1 162.2 22.6 C 162.2 22.6 160.9 22.8 160.9 22.8 C 160.9 22.4 160.7 22.1 160.4 21.9 C 160.2 21.7 159.8 21.6 159.3 21.6 C 158.7 21.6 158.2 21.7 158 21.9 C 157.7 22 157.6 22.3 157.6 22.5 C 157.6 22.7 157.7 22.9 157.8 23 C 157.9 23.1 158 23.2 158.3 23.3 C 158.4 23.4 158.8 23.5 159.4 23.7 C 160.3 23.9 161 24.1 161.3 24.3 C 161.7 24.4 162 24.6 162.2 24.9 C 162.4 25.2 162.5 25.6 162.5 26 C 162.5 26.5 162.3 26.9 162.1 27.3 C 161.8 27.6 161.5 27.9 161 28.1 C 160.5 28.3 160 28.4 159.4 28.4 C 158.4 28.4 157.7 28.2 157.1 27.8 C 156.6 27.4 156.3 26.8 156.2 26 Z M 168.2 28.3 L 168.2 17.8 C 168.2 17.8 172.2 17.78 172.2 17.8 C 172.9 17.8 173.4 17.8 173.8 17.9 C 174.3 18 174.7 18.1 175.1 18.4 C 175.4 18.6 175.7 18.9 175.9 19.4 C 176.2 19.8 176.3 20.3 176.3 20.8 C 176.3 21.7 176 22.5 175.4 23.1 C 174.8 23.7 173.8 24 172.3 24 C 172.33 24.01 169.6 24 169.6 24 L 169.6 28.3 L 168.2 28.3 Z M 169.6 22.8 C 169.6 22.8 172.35 22.77 172.3 22.8 C 173.2 22.8 173.9 22.6 174.3 22.3 C 174.6 21.9 174.8 21.5 174.8 20.9 C 174.8 20.4 174.7 20 174.5 19.7 C 174.3 19.4 174 19.2 173.6 19.1 C 173.4 19 172.9 19 172.3 19 C 172.32 19.02 169.6 19 169.6 19 L 169.6 22.8 Z M 183.1 28.3 C 182.9 28 182.9 27.7 182.8 27.3 C 182.3 27.7 181.9 28 181.4 28.2 C 181 28.4 180.5 28.4 180 28.4 C 179.2 28.4 178.5 28.2 178.1 27.8 C 177.6 27.4 177.4 26.9 177.4 26.3 C 177.4 25.9 177.5 25.6 177.7 25.3 C 177.8 24.9 178.1 24.7 178.3 24.5 C 178.6 24.3 178.9 24.2 179.3 24.1 C 179.5 24 179.9 24 180.4 23.9 C 181.5 23.8 182.2 23.6 182.7 23.5 C 182.7 23.3 182.7 23.2 182.7 23.1 C 182.7 22.6 182.6 22.2 182.4 22 C 182 21.7 181.5 21.6 180.9 21.6 C 180.3 21.6 179.8 21.7 179.5 21.9 C 179.3 22.1 179 22.5 178.9 23 C 178.9 23 177.6 22.8 177.6 22.8 C 177.8 22.3 178 21.9 178.2 21.5 C 178.5 21.2 178.9 20.9 179.4 20.8 C 179.8 20.6 180.4 20.5 181.1 20.5 C 181.7 20.5 182.3 20.6 182.7 20.7 C 183.1 20.9 183.4 21.1 183.6 21.3 C 183.7 21.5 183.9 21.8 184 22.2 C 184 22.4 184 22.8 184 23.4 C 184 23.4 184 25.1 184 25.1 C 184 26.3 184 27 184.1 27.4 C 184.2 27.7 184.3 28 184.4 28.3 C 184.43 28.28 183.1 28.3 183.1 28.3 C 183.1 28.3 183.08 28.28 183.1 28.3 Z M 182.7 24.5 C 182.2 24.7 181.5 24.8 180.6 24.9 C 180.1 25 179.7 25.1 179.5 25.2 C 179.3 25.3 179.1 25.4 179 25.6 C 178.9 25.8 178.8 26 178.8 26.2 C 178.8 26.6 178.9 26.9 179.2 27.1 C 179.5 27.3 179.8 27.4 180.3 27.4 C 180.8 27.4 181.3 27.3 181.7 27.1 C 182 26.9 182.3 26.6 182.5 26.2 C 182.6 25.9 182.7 25.5 182.7 24.9 C 182.7 24.9 182.7 24.5 182.7 24.5 Z M 186 28.3 L 186 20.7 L 187.2 20.7 C 187.2 20.7 187.16 21.83 187.2 21.8 C 187.5 21.3 187.7 20.9 188 20.8 C 188.2 20.6 188.5 20.5 188.8 20.5 C 189.2 20.5 189.7 20.6 190.1 20.9 C 190.1 20.9 189.7 22.1 189.7 22.1 C 189.4 21.9 189.1 21.8 188.7 21.8 C 188.5 21.8 188.2 21.9 188 22.1 C 187.8 22.3 187.6 22.5 187.5 22.8 C 187.4 23.3 187.3 23.8 187.3 24.3 C 187.29 24.3 187.3 28.3 187.3 28.3 L 186 28.3 Z M 190.9 28.3 L 190.9 17.8 L 192.2 17.8 L 192.2 23.8 L 195.2 20.7 L 196.9 20.7 L 194 23.5 L 197.2 28.3 L 195.6 28.3 L 193.1 24.4 L 192.2 25.3 L 192.2 28.3 L 190.9 28.3 Z " stroke="none" fill="#000"/>  </g>  <g id="Polygon66402">    <path d="M 1.1 10.7 L 1.1 0.2 C 1.1 0.2 4.75 0.18 4.7 0.2 C 5.6 0.2 6.2 0.2 6.6 0.3 C 7.2 0.5 7.7 0.7 8.2 1.1 C 8.7 1.5 9.1 2.1 9.4 2.9 C 9.7 3.6 9.8 4.4 9.8 5.4 C 9.8 6.2 9.7 6.9 9.5 7.5 C 9.3 8.1 9.1 8.6 8.8 9 C 8.5 9.4 8.2 9.7 7.9 10 C 7.5 10.2 7.1 10.4 6.6 10.5 C 6.1 10.6 5.6 10.7 4.9 10.7 C 4.92 10.68 1.1 10.7 1.1 10.7 Z M 2.5 9.4 C 2.5 9.4 4.76 9.44 4.8 9.4 C 5.5 9.4 6 9.4 6.4 9.2 C 6.8 9.1 7.1 8.9 7.3 8.7 C 7.7 8.4 7.9 7.9 8.1 7.4 C 8.3 6.8 8.4 6.1 8.4 5.3 C 8.4 4.3 8.2 3.4 7.8 2.8 C 7.5 2.2 7 1.8 6.5 1.6 C 6.2 1.5 5.6 1.4 4.7 1.4 C 4.73 1.42 2.5 1.4 2.5 1.4 L 2.5 9.4 Z M 11.3 7.3 C 11.3 7.3 12.6 7.2 12.6 7.2 C 12.6 7.7 12.8 8.1 13 8.5 C 13.2 8.8 13.6 9.1 14.1 9.3 C 14.5 9.5 15.1 9.6 15.7 9.6 C 16.2 9.6 16.7 9.5 17.1 9.4 C 17.5 9.2 17.8 9 18 8.7 C 18.2 8.5 18.3 8.2 18.3 7.8 C 18.3 7.5 18.2 7.2 18 7 C 17.8 6.7 17.5 6.5 17 6.3 C 16.8 6.2 16.1 6.1 15.2 5.8 C 14.2 5.6 13.5 5.4 13.1 5.2 C 12.6 4.9 12.3 4.6 12 4.2 C 11.8 3.8 11.7 3.4 11.7 2.9 C 11.7 2.4 11.8 1.9 12.1 1.4 C 12.4 0.9 12.8 0.6 13.4 0.4 C 14 0.1 14.6 0 15.3 0 C 16.1 0 16.8 0.1 17.4 0.4 C 18 0.6 18.5 1 18.8 1.5 C 19.1 2 19.3 2.5 19.3 3.1 C 19.3 3.1 18 3.2 18 3.2 C 17.9 2.6 17.6 2.1 17.2 1.7 C 16.8 1.4 16.2 1.2 15.4 1.2 C 14.6 1.2 14 1.4 13.6 1.7 C 13.2 2 13 2.4 13 2.8 C 13 3.2 13.1 3.5 13.4 3.7 C 13.7 4 14.4 4.2 15.5 4.5 C 16.6 4.7 17.4 5 17.8 5.1 C 18.4 5.4 18.9 5.8 19.2 6.2 C 19.5 6.7 19.6 7.1 19.6 7.7 C 19.6 8.3 19.4 8.8 19.1 9.3 C 18.8 9.8 18.3 10.2 17.7 10.4 C 17.2 10.7 16.5 10.9 15.7 10.9 C 14.8 10.9 14 10.7 13.3 10.4 C 12.7 10.2 12.2 9.7 11.8 9.2 C 11.5 8.6 11.3 8 11.3 7.3 Z M 23.3 10.7 L 20.6 0.2 L 22 0.2 C 22 0.2 23.58 7.06 23.6 7.1 C 23.7 7.8 23.9 8.5 24 9.2 C 24.3 8.1 24.4 7.4 24.5 7.3 C 24.49 7.27 26.5 0.2 26.5 0.2 L 28.2 0.2 C 28.2 0.2 29.67 5.49 29.7 5.5 C 30 6.8 30.3 8 30.5 9.2 C 30.6 8.5 30.8 7.8 31 6.9 C 31.01 6.93 32.7 0.2 32.7 0.2 L 34.1 0.2 L 31.2 10.7 L 29.8 10.7 C 29.8 10.7 27.62 2.68 27.6 2.7 C 27.4 2 27.3 1.6 27.3 1.4 C 27.2 1.9 27.1 2.3 27 2.7 C 26.98 2.68 24.8 10.7 24.8 10.7 L 23.3 10.7 Z M 39.5 10.7 L 39.5 0.2 L 40.9 0.2 L 40.9 4.5 L 46.3 4.5 L 46.3 0.2 L 47.7 0.2 L 47.7 10.7 L 46.3 10.7 L 46.3 5.7 L 40.9 5.7 L 40.9 10.7 L 39.5 10.7 Z M 49.4 6.9 C 49.4 5.5 49.8 4.4 50.5 3.7 C 51.2 3.2 52 2.9 52.9 2.9 C 54 2.9 54.8 3.2 55.5 3.9 C 56.2 4.6 56.5 5.6 56.5 6.8 C 56.5 7.7 56.3 8.5 56.1 9.1 C 55.8 9.6 55.3 10.1 54.8 10.4 C 54.2 10.7 53.6 10.8 52.9 10.8 C 51.9 10.8 51 10.5 50.4 9.8 C 49.7 9.1 49.4 8.2 49.4 6.9 Z M 50.7 6.9 C 50.7 7.8 50.9 8.6 51.3 9.1 C 51.8 9.5 52.3 9.8 52.9 9.8 C 53.6 9.8 54.1 9.5 54.5 9.1 C 55 8.6 55.2 7.8 55.2 6.8 C 55.2 5.9 55 5.2 54.5 4.7 C 54.1 4.2 53.6 4 52.9 4 C 52.3 4 51.8 4.2 51.3 4.7 C 50.9 5.2 50.7 5.9 50.7 6.9 Z M 63 10.7 C 63 10.7 62.99 9.56 63 9.6 C 62.4 10.4 61.6 10.8 60.6 10.8 C 60.1 10.8 59.7 10.8 59.3 10.6 C 58.9 10.4 58.6 10.2 58.5 9.9 C 58.3 9.7 58.1 9.4 58.1 9 C 58 8.7 58 8.3 58 7.8 C 57.98 7.78 58 3.1 58 3.1 L 59.3 3.1 C 59.3 3.1 59.27 7.29 59.3 7.3 C 59.3 8 59.3 8.4 59.3 8.7 C 59.4 9 59.6 9.3 59.9 9.4 C 60.1 9.6 60.4 9.7 60.8 9.7 C 61.2 9.7 61.6 9.6 61.9 9.4 C 62.3 9.2 62.5 9 62.6 8.6 C 62.8 8.3 62.9 7.8 62.9 7.1 C 62.86 7.15 62.9 3.1 62.9 3.1 L 64.1 3.1 L 64.1 10.7 L 63 10.7 Z M 65.6 8.4 C 65.6 8.4 66.9 8.2 66.9 8.2 C 67 8.7 67.2 9.1 67.5 9.4 C 67.8 9.7 68.3 9.8 68.9 9.8 C 69.5 9.8 69.9 9.7 70.2 9.4 C 70.5 9.2 70.6 8.9 70.6 8.6 C 70.6 8.3 70.5 8.1 70.3 7.9 C 70.1 7.8 69.6 7.6 68.9 7.5 C 68 7.2 67.3 7 67 6.8 C 66.6 6.7 66.3 6.4 66.1 6.1 C 66 5.8 65.9 5.5 65.9 5.1 C 65.9 4.8 65.9 4.4 66.1 4.2 C 66.3 3.9 66.5 3.6 66.7 3.4 C 66.9 3.3 67.2 3.2 67.6 3.1 C 67.9 3 68.3 2.9 68.7 2.9 C 69.3 2.9 69.8 3 70.2 3.2 C 70.7 3.3 71 3.6 71.2 3.9 C 71.4 4.2 71.6 4.5 71.7 5 C 71.7 5 70.4 5.2 70.4 5.2 C 70.4 4.8 70.2 4.5 69.9 4.3 C 69.6 4.1 69.3 4 68.8 4 C 68.2 4 67.7 4.1 67.5 4.3 C 67.2 4.4 67.1 4.7 67.1 4.9 C 67.1 5.1 67.2 5.3 67.3 5.4 C 67.4 5.5 67.5 5.6 67.8 5.7 C 67.9 5.8 68.3 5.9 68.9 6.1 C 69.8 6.3 70.4 6.5 70.8 6.7 C 71.2 6.8 71.5 7 71.7 7.3 C 71.9 7.6 72 8 72 8.4 C 72 8.9 71.8 9.3 71.6 9.7 C 71.3 10 71 10.3 70.5 10.5 C 70 10.7 69.5 10.8 68.9 10.8 C 67.9 10.8 67.2 10.6 66.6 10.2 C 66.1 9.8 65.8 9.2 65.6 8.4 Z M 78.7 8.2 C 78.7 8.2 80 8.4 80 8.4 C 79.8 9.2 79.4 9.8 78.9 10.2 C 78.3 10.6 77.6 10.8 76.7 10.8 C 75.6 10.8 74.7 10.5 74 9.8 C 73.4 9.1 73.1 8.2 73.1 6.9 C 73.1 5.7 73.4 4.7 74.1 4 C 74.7 3.3 75.6 2.9 76.6 2.9 C 77.6 2.9 78.5 3.2 79.1 3.9 C 79.8 4.6 80.1 5.6 80.1 6.9 C 80.1 6.9 80.1 7.1 80.1 7.2 C 80.1 7.2 74.4 7.2 74.4 7.2 C 74.4 8 74.7 8.7 75.1 9.1 C 75.5 9.6 76.1 9.8 76.7 9.8 C 77.2 9.8 77.6 9.7 77.9 9.4 C 78.2 9.2 78.5 8.8 78.7 8.2 Z M 74.5 6.1 C 74.5 6.1 78.7 6.1 78.7 6.1 C 78.7 5.5 78.5 5 78.2 4.7 C 77.8 4.2 77.3 4 76.6 4 C 76 4 75.5 4.2 75.1 4.6 C 74.7 5 74.5 5.5 74.5 6.1 Z " stroke="none" fill="#000"/>  </g></svg>