<?xml version="1.0" standalone="no"?><!DOCTYPE svg PUBLIC "-//W3C//DTD SVG 1.1//EN" "http://www.w3.org/Graphics/SVG/1.1/DTD/svg11.dtd"><svg xmlns="http://www.w3.org/2000/svg" version="1.1" width="211px" height="78.4px" viewBox="0 -1 211 78.4" style="top:-1px">  <desc>TRAINING Solutions</desc>  <defs/>  <g id="Polygon68292">    <path d="M 59.1 40.9 C 60.1 40.9 61.1 41.2 62.1 41.7 C 62.1 41.7 62.1 42.8 62.1 42.8 C 60.9 42.2 60 41.8 59.2 41.8 C 58.4 41.8 57.7 42.1 57.2 42.5 C 56.7 43 56.4 43.6 56.4 44.3 C 56.4 44.8 56.5 45.3 56.9 45.7 C 57.2 46.1 57.8 46.5 58.8 46.9 C 59.8 47.2 60.5 47.5 61 47.8 C 61.4 48 61.8 48.4 62.2 48.9 C 62.5 49.4 62.6 50 62.6 50.7 C 62.6 51.7 62.3 52.6 61.5 53.3 C 60.8 54 59.9 54.3 58.8 54.3 C 57.7 54.3 56.6 53.9 55.5 53.2 C 55.5 53.2 55.5 52 55.5 52 C 56.7 52.9 57.8 53.4 58.8 53.4 C 59.5 53.4 60.2 53.1 60.7 52.6 C 61.3 52.1 61.5 51.5 61.5 50.8 C 61.5 50.2 61.4 49.7 61 49.3 C 60.7 48.8 60 48.4 59 48 C 58 47.6 57.3 47.3 56.9 47.1 C 56.4 46.8 56 46.5 55.7 46.1 C 55.4 45.6 55.3 45.1 55.3 44.4 C 55.3 43.4 55.7 42.6 56.4 41.9 C 57.1 41.2 58 40.9 59.1 40.9 C 59.1 40.9 59.1 40.9 59.1 40.9 Z M 71.3 40.9 C 73.2 40.9 74.9 41.5 76.2 42.8 C 77.6 44.1 78.3 45.7 78.3 47.6 C 78.3 49.5 77.6 51.1 76.2 52.4 C 74.9 53.7 73.2 54.3 71.3 54.3 C 69.4 54.3 67.7 53.7 66.4 52.4 C 65.1 51.1 64.4 49.5 64.4 47.6 C 64.4 45.7 65.1 44.1 66.4 42.8 C 67.7 41.5 69.4 40.9 71.3 40.9 Z M 71.3 53.4 C 73 53.4 74.4 52.8 75.5 51.7 C 76.6 50.6 77.2 49.2 77.2 47.6 C 77.2 46 76.6 44.6 75.5 43.5 C 74.4 42.4 73 41.8 71.3 41.8 C 69.7 41.8 68.3 42.4 67.2 43.5 C 66.1 44.6 65.5 46 65.5 47.6 C 65.5 49.2 66.1 50.6 67.2 51.7 C 68.3 52.8 69.7 53.4 71.3 53.4 Z M 81.8 41.1 L 81.8 53.3 L 88.2 53.3 L 88.2 54.2 L 80.7 54.2 L 80.7 41.1 L 81.8 41.1 Z M 99.4 41.1 L 100.4 41.1 C 100.4 41.1 100.42 48.2 100.4 48.2 C 100.4 50.2 99.9 51.7 98.9 52.7 C 97.9 53.8 96.6 54.3 94.9 54.3 C 93.3 54.3 92 53.8 91 52.7 C 90 51.7 89.5 50.3 89.5 48.4 C 89.46 48.43 89.5 41.1 89.5 41.1 L 90.5 41.1 C 90.5 41.1 90.48 48.4 90.5 48.4 C 90.5 50 90.9 51.2 91.7 52.1 C 92.6 52.9 93.6 53.4 94.9 53.4 C 96.3 53.4 97.3 52.9 98.2 52 C 99 51.2 99.4 49.9 99.4 48.3 C 99.41 48.26 99.4 41.1 99.4 41.1 Z M 112.6 41.1 L 112.6 41.9 L 107.6 41.9 L 107.6 54.2 L 106.6 54.2 L 106.6 41.9 L 101.7 41.9 L 101.7 41.1 L 112.6 41.1 Z M 115.2 41.1 L 115.2 54.2 L 114.1 54.2 L 114.1 41.1 L 115.2 41.1 Z M 124.5 40.9 C 126.5 40.9 128.1 41.5 129.5 42.8 C 130.8 44.1 131.5 45.7 131.5 47.6 C 131.5 49.5 130.8 51.1 129.5 52.4 C 128.1 53.7 126.5 54.3 124.5 54.3 C 122.6 54.3 121 53.7 119.6 52.4 C 118.3 51.1 117.6 49.5 117.6 47.6 C 117.6 45.7 118.3 44.1 119.6 42.8 C 121 41.5 122.6 40.9 124.5 40.9 Z M 124.6 53.4 C 126.2 53.4 127.6 52.8 128.7 51.7 C 129.8 50.6 130.4 49.2 130.4 47.6 C 130.4 46 129.8 44.6 128.7 43.5 C 127.6 42.4 126.2 41.8 124.6 41.8 C 122.9 41.8 121.5 42.4 120.4 43.5 C 119.3 44.6 118.7 46 118.7 47.6 C 118.7 49.2 119.3 50.6 120.4 51.7 C 121.5 52.8 122.9 53.4 124.6 53.4 Z M 145.7 41.1 L 145.7 54.2 L 144.9 54.2 L 135 42.7 L 135 54.2 L 133.9 54.2 L 133.9 41.1 L 134.8 41.1 L 144.7 52.5 L 144.7 41.1 L 145.7 41.1 Z M 151.9 40.9 C 152.9 40.9 153.9 41.2 154.9 41.7 C 154.9 41.7 154.9 42.8 154.9 42.8 C 153.8 42.2 152.8 41.8 152 41.8 C 151.2 41.8 150.5 42.1 150 42.5 C 149.5 43 149.2 43.6 149.2 44.3 C 149.2 44.8 149.4 45.3 149.7 45.7 C 150 46.1 150.7 46.5 151.7 46.9 C 152.6 47.2 153.4 47.5 153.8 47.8 C 154.3 48 154.7 48.4 155 48.9 C 155.3 49.4 155.5 50 155.5 50.7 C 155.5 51.7 155.1 52.6 154.4 53.3 C 153.6 54 152.7 54.3 151.7 54.3 C 150.6 54.3 149.5 53.9 148.3 53.2 C 148.3 53.2 148.3 52 148.3 52 C 149.6 52.9 150.7 53.4 151.6 53.4 C 152.4 53.4 153 53.1 153.6 52.6 C 154.1 52.1 154.4 51.5 154.4 50.8 C 154.4 50.2 154.2 49.7 153.9 49.3 C 153.5 48.8 152.9 48.4 151.9 48 C 150.9 47.6 150.1 47.3 149.7 47.1 C 149.3 46.8 148.9 46.5 148.6 46.1 C 148.3 45.6 148.1 45.1 148.1 44.4 C 148.1 43.4 148.5 42.6 149.2 41.9 C 150 41.2 150.9 40.9 151.9 40.9 C 151.9 40.9 151.9 40.9 151.9 40.9 Z " stroke="none" fill="#ffffff"/>  </g>  <g id="Polygon68291">    <path d="M 73.1 18 L 73.1 18.9 L 68.2 18.9 L 68.2 31.1 L 67.2 31.1 L 67.2 18.9 L 62.3 18.9 L 62.3 18 L 73.1 18 Z M 74.7 18 C 74.7 18 78.1 18.02 78.1 18 C 79.5 18 80.6 18.3 81.3 18.9 C 82.1 19.5 82.4 20.4 82.4 21.4 C 82.4 22.9 81.6 24 80 24.6 C 80.4 24.8 81 25.5 81.7 26.6 C 81.69 26.58 84.7 31.1 84.7 31.1 L 83.5 31.1 C 83.5 31.1 81.18 27.52 81.2 27.5 C 80.4 26.3 79.8 25.6 79.4 25.3 C 79 25 78.3 24.8 77.5 24.8 C 77.53 24.83 75.8 24.8 75.8 24.8 L 75.8 31.1 L 74.7 31.1 L 74.7 18 Z M 75.8 18.9 L 75.8 24 C 75.8 24 77.93 23.99 77.9 24 C 79 24 79.9 23.8 80.5 23.3 C 81.1 22.9 81.3 22.2 81.3 21.4 C 81.3 20.6 81.1 20 80.5 19.5 C 79.9 19.1 79 18.9 77.9 18.9 C 77.9 18.86 75.8 18.9 75.8 18.9 Z M 90.9 17.9 L 97 31.1 L 95.9 31.1 L 93.8 26.6 L 87.4 26.6 L 85.4 31.1 L 84.3 31.1 L 90.4 17.9 L 90.9 17.9 Z M 93.5 25.7 L 90.6 19.6 L 87.8 25.7 L 93.5 25.7 Z M 99.6 18 L 99.6 31.1 L 98.5 31.1 L 98.5 18 L 99.6 18 Z M 114.3 18 L 114.3 31.1 L 113.5 31.1 L 103.5 19.7 L 103.5 31.1 L 102.5 31.1 L 102.5 18 L 103.4 18 L 113.3 29.5 L 113.3 18 L 114.3 18 Z M 118.4 18 L 118.4 31.1 L 117.3 31.1 L 117.3 18 L 118.4 18 Z M 133.1 18 L 133.1 31.1 L 132.3 31.1 L 122.3 19.7 L 122.3 31.1 L 121.3 31.1 L 121.3 18 L 122.2 18 L 132.1 29.5 L 132.1 18 L 133.1 18 Z M 142.6 17.8 C 144 17.8 145.5 18.2 147.1 19 C 147.1 19 147.1 20.1 147.1 20.1 C 145.6 19.2 144 18.8 142.5 18.8 C 140.8 18.8 139.4 19.3 138.3 20.4 C 137.2 21.5 136.7 22.9 136.7 24.6 C 136.7 26.2 137.2 27.6 138.3 28.7 C 139.4 29.8 140.9 30.3 142.8 30.3 C 144.1 30.3 145.3 30.1 146.3 29.5 C 146.34 29.54 146.3 26 146.3 26 L 143.6 26 L 143.6 25.2 L 147.4 25.2 C 147.4 25.2 147.37 30.18 147.4 30.2 C 145.8 30.9 144.3 31.3 142.7 31.3 C 140.7 31.3 139 30.6 137.6 29.4 C 136.3 28.1 135.6 26.5 135.6 24.5 C 135.6 22.6 136.3 21 137.6 19.8 C 138.9 18.5 140.6 17.8 142.6 17.8 C 142.6 17.8 142.6 17.8 142.6 17.8 Z " stroke="none" fill="#ffffff"/>  </g></svg>