<?xml version="1.0" standalone="no"?><!DOCTYPE svg PUBLIC "-//W3C//DTD SVG 1.1//EN" "http://www.w3.org/Graphics/SVG/1.1/DTD/svg11.dtd"><svg xmlns="http://www.w3.org/2000/svg" version="1.1" width="499.3px" height="71.2px" viewBox="0 -1 499.3 71.2" style="top:-1px">  <desc>assessment &amp; learning</desc>  <defs/>  <g id="Polygon65723">    <path d="M 13.9 16.8 L 26.5 44.3 L 24.3 44.3 L 20 34.9 L 6.7 34.9 L 2.4 44.3 L 0.2 44.3 L 12.8 16.8 L 13.9 16.8 Z M 19.2 33.1 L 13.3 20.3 L 7.5 33.1 L 19.2 33.1 Z M 36.4 16.7 C 38.5 16.7 40.6 17.2 42.7 18.4 C 42.7 18.4 42.7 20.7 42.7 20.7 C 40.3 19.3 38.3 18.6 36.6 18.6 C 34.9 18.6 33.6 19.1 32.5 20.1 C 31.4 21.1 30.8 22.3 30.8 23.8 C 30.8 24.9 31.1 25.8 31.8 26.7 C 32.4 27.5 33.8 28.3 35.9 29.1 C 37.9 29.9 39.4 30.5 40.4 31.1 C 41.3 31.6 42.1 32.3 42.8 33.3 C 43.5 34.3 43.8 35.6 43.8 37.2 C 43.8 39.3 43 41 41.5 42.5 C 40 43.9 38.1 44.7 35.9 44.7 C 33.6 44.7 31.3 43.9 28.9 42.3 C 28.9 42.3 28.9 39.8 28.9 39.8 C 31.5 41.7 33.8 42.7 35.8 42.7 C 37.4 42.7 38.7 42.2 39.9 41.1 C 41 40.1 41.5 38.8 41.5 37.3 C 41.5 36.1 41.2 35.1 40.5 34.1 C 39.8 33.2 38.4 32.3 36.3 31.5 C 34.2 30.7 32.7 30.1 31.8 29.6 C 30.9 29.1 30.1 28.4 29.5 27.5 C 28.8 26.5 28.5 25.4 28.5 23.9 C 28.5 21.9 29.3 20.2 30.8 18.8 C 32.4 17.4 34.2 16.7 36.4 16.7 C 36.4 16.7 36.4 16.7 36.4 16.7 Z M 55.1 16.7 C 57.3 16.7 59.4 17.2 61.4 18.4 C 61.4 18.4 61.4 20.7 61.4 20.7 C 59.1 19.3 57 18.6 55.3 18.6 C 53.7 18.6 52.3 19.1 51.2 20.1 C 50.1 21.1 49.6 22.3 49.6 23.8 C 49.6 24.9 49.9 25.8 50.5 26.7 C 51.2 27.5 52.6 28.3 54.6 29.1 C 56.7 29.9 58.2 30.5 59.2 31.1 C 60.1 31.6 60.9 32.3 61.6 33.3 C 62.2 34.3 62.6 35.6 62.6 37.2 C 62.6 39.3 61.8 41 60.3 42.5 C 58.7 43.9 56.9 44.7 54.6 44.7 C 52.4 44.7 50.1 43.9 47.7 42.3 C 47.7 42.3 47.7 39.8 47.7 39.8 C 50.3 41.7 52.6 42.7 54.5 42.7 C 56.1 42.7 57.5 42.2 58.6 41.1 C 59.7 40.1 60.3 38.8 60.3 37.3 C 60.3 36.1 59.9 35.1 59.3 34.1 C 58.6 33.2 57.2 32.3 55.1 31.5 C 53 30.7 51.4 30.1 50.5 29.6 C 49.6 29.1 48.9 28.4 48.2 27.5 C 47.6 26.5 47.3 25.4 47.3 23.9 C 47.3 21.9 48.1 20.2 49.6 18.8 C 51.1 17.4 53 16.7 55.1 16.7 C 55.1 16.7 55.1 16.7 55.1 16.7 Z M 82.3 17 L 82.3 18.8 L 69.5 18.8 L 69.5 29.7 L 82 29.7 L 82 31.5 L 69.5 31.5 L 69.5 42.5 L 82.6 42.5 L 82.6 44.3 L 67.4 44.3 L 67.4 17 L 82.3 17 Z M 93.5 16.7 C 95.6 16.7 97.7 17.2 99.8 18.4 C 99.8 18.4 99.8 20.7 99.8 20.7 C 97.5 19.3 95.4 18.6 93.7 18.6 C 92.1 18.6 90.7 19.1 89.6 20.1 C 88.5 21.1 87.9 22.3 87.9 23.8 C 87.9 24.9 88.3 25.8 88.9 26.7 C 89.6 27.5 90.9 28.3 93 29.1 C 95.1 29.9 96.6 30.5 97.5 31.1 C 98.5 31.6 99.3 32.3 100 33.3 C 100.6 34.3 101 35.6 101 37.2 C 101 39.3 100.2 41 98.7 42.5 C 97.1 43.9 95.2 44.7 93 44.7 C 90.8 44.7 88.4 43.9 86 42.3 C 86 42.3 86 39.8 86 39.8 C 88.7 41.7 91 42.7 92.9 42.7 C 94.5 42.7 95.9 42.2 97 41.1 C 98.1 40.1 98.7 38.8 98.7 37.3 C 98.7 36.1 98.3 35.1 97.6 34.1 C 96.9 33.2 95.5 32.3 93.4 31.5 C 91.3 30.7 89.8 30.1 88.9 29.6 C 88 29.1 87.2 28.4 86.6 27.5 C 86 26.5 85.7 25.4 85.7 23.9 C 85.7 21.9 86.4 20.2 88 18.8 C 89.5 17.4 91.4 16.7 93.5 16.7 C 93.5 16.7 93.5 16.7 93.5 16.7 Z M 112.3 16.7 C 114.4 16.7 116.5 17.2 118.6 18.4 C 118.6 18.4 118.6 20.7 118.6 20.7 C 116.2 19.3 114.2 18.6 112.5 18.6 C 110.8 18.6 109.5 19.1 108.4 20.1 C 107.3 21.1 106.7 22.3 106.7 23.8 C 106.7 24.9 107 25.8 107.7 26.7 C 108.3 27.5 109.7 28.3 111.8 29.1 C 113.8 29.9 115.4 30.5 116.3 31.1 C 117.3 31.6 118.1 32.3 118.7 33.3 C 119.4 34.3 119.7 35.6 119.7 37.2 C 119.7 39.3 119 41 117.4 42.5 C 115.9 43.9 114 44.7 111.8 44.7 C 109.5 44.7 107.2 43.9 104.8 42.3 C 104.8 42.3 104.8 39.8 104.8 39.8 C 107.4 41.7 109.7 42.7 111.7 42.7 C 113.3 42.7 114.7 42.2 115.8 41.1 C 116.9 40.1 117.4 38.8 117.4 37.3 C 117.4 36.1 117.1 35.1 116.4 34.1 C 115.7 33.2 114.3 32.3 112.2 31.5 C 110.1 30.7 108.6 30.1 107.7 29.6 C 106.8 29.1 106 28.4 105.4 27.5 C 104.7 26.5 104.4 25.4 104.4 23.9 C 104.4 21.9 105.2 20.2 106.7 18.8 C 108.3 17.4 110.1 16.7 112.3 16.7 C 112.3 16.7 112.3 16.7 112.3 16.7 Z M 137 29.7 L 147.4 17 L 149.5 17 L 149.5 44.3 L 147.4 44.3 L 147.4 20.1 L 137 32.9 L 126.6 20.1 L 126.6 44.3 L 124.5 44.3 L 124.5 17 L 126.6 17 L 137 29.7 Z M 170.7 17 L 170.7 18.8 L 157.9 18.8 L 157.9 29.7 L 170.4 29.7 L 170.4 31.5 L 157.9 31.5 L 157.9 42.5 L 171 42.5 L 171 44.3 L 155.8 44.3 L 155.8 17 L 170.7 17 Z M 199.9 17 L 199.9 44.3 L 198.2 44.3 L 177.4 20.5 L 177.4 44.3 L 175.3 44.3 L 175.3 17 L 177.1 17 L 197.8 40.9 L 197.8 17 L 199.9 17 Z M 225.8 17 L 225.8 18.8 L 215.6 18.8 L 215.6 44.3 L 213.4 44.3 L 213.4 18.8 L 203.2 18.8 L 203.2 17 L 225.8 17 Z M 254.4 36.9 C 255.6 35 256.6 33 257.4 30.7 C 257.4 30.7 259.6 30.7 259.6 30.7 C 258.8 33.4 257.5 35.9 255.9 38.4 C 255.88 38.44 261.4 44.3 261.4 44.3 L 258.7 44.3 C 258.7 44.3 254.64 40.03 254.6 40 C 252 43.1 248.8 44.7 245.3 44.7 C 243.1 44.7 241.4 44.1 240.1 42.9 C 238.8 41.7 238.1 40.1 238.1 38.2 C 238.1 34.6 240.4 31.8 244.9 29.9 C 242.6 27.5 241.5 25.4 241.5 23.5 C 241.5 21.8 242.1 20.4 243.4 19.3 C 244.6 18.1 246.1 17.5 248 17.5 C 249.7 17.5 251.1 18.1 252.2 19.2 C 253.4 20.2 253.9 21.6 253.9 23.2 C 253.9 26.1 252 28.5 248.2 30.4 C 248.24 30.4 254.4 36.9 254.4 36.9 C 254.4 36.9 254.4 36.88 254.4 36.9 Z M 243.5 23.4 C 243.5 25.1 244.6 26.9 246.9 28.9 C 250.3 27.5 252 25.7 252 23.4 C 252 22.3 251.6 21.4 250.8 20.6 C 250 19.9 249 19.5 247.9 19.5 C 246.6 19.5 245.6 19.9 244.8 20.6 C 243.9 21.4 243.5 22.3 243.5 23.4 C 243.5 23.4 243.5 23.4 243.5 23.4 Z M 245.7 42.7 C 248.4 42.7 250.9 41.3 253.2 38.5 C 253.2 38.5 246.3 31.3 246.3 31.3 C 244.3 32.2 242.8 33.2 241.8 34.2 C 240.9 35.2 240.4 36.4 240.4 37.9 C 240.4 39.4 240.9 40.6 241.8 41.4 C 242.7 42.3 244 42.7 245.7 42.7 C 245.7 42.7 245.7 42.7 245.7 42.7 Z M 278.1 17 L 278.1 42.5 L 291.6 42.5 L 291.6 44.3 L 276 44.3 L 276 17 L 278.1 17 Z M 309.7 17 L 309.7 18.8 L 296.9 18.8 L 296.9 29.7 L 309.3 29.7 L 309.3 31.5 L 296.9 31.5 L 296.9 42.5 L 310 42.5 L 310 44.3 L 294.8 44.3 L 294.8 17 L 309.7 17 Z M 325.1 16.8 L 337.7 44.3 L 335.5 44.3 L 331.2 34.9 L 317.9 34.9 L 313.6 44.3 L 311.3 44.3 L 324 16.8 L 325.1 16.8 Z M 330.4 33.1 L 324.5 20.3 L 318.7 33.1 L 330.4 33.1 Z M 341 17 C 341 17 348.03 17.02 348 17 C 351 17 353.2 17.7 354.7 18.9 C 356.3 20.2 357.1 21.9 357.1 24.1 C 357.1 27.2 355.3 29.4 351.9 30.7 C 352.8 31.1 354 32.5 355.5 34.9 C 355.51 34.87 361.7 44.3 361.7 44.3 L 359.2 44.3 C 359.2 44.3 354.43 36.83 354.4 36.8 C 352.8 34.3 351.6 32.8 350.7 32.1 C 349.8 31.5 348.5 31.2 346.8 31.2 C 346.83 31.22 343.1 31.2 343.1 31.2 L 343.1 44.3 L 341 44.3 L 341 17 Z M 343.1 18.8 L 343.1 29.5 C 343.1 29.5 347.68 29.46 347.7 29.5 C 350 29.5 351.7 29 353 28.1 C 354.2 27.1 354.8 25.8 354.8 24.1 C 354.8 22.4 354.2 21.1 352.9 20.2 C 351.7 19.2 349.9 18.8 347.6 18.8 C 347.6 18.78 343.1 18.8 343.1 18.8 Z M 388.5 17 L 388.5 44.3 L 386.8 44.3 L 366 20.5 L 366 44.3 L 363.9 44.3 L 363.9 17 L 365.7 17 L 386.4 40.9 L 386.4 17 L 388.5 17 Z M 396.9 17 L 396.9 44.3 L 394.8 44.3 L 394.8 17 L 396.9 17 Z M 427.7 17 L 427.7 44.3 L 425.9 44.3 L 405.2 20.5 L 405.2 44.3 L 403.1 44.3 L 403.1 17 L 404.9 17 L 425.6 40.9 L 425.6 17 L 427.7 17 Z M 447.4 16.7 C 450.3 16.7 453.4 17.4 456.8 19 C 456.8 19 456.8 21.4 456.8 21.4 C 453.6 19.5 450.3 18.6 447.1 18.6 C 443.7 18.6 440.8 19.8 438.5 22.1 C 436.2 24.3 435.1 27.2 435.1 30.7 C 435.1 34.1 436.2 37 438.5 39.3 C 440.7 41.6 443.8 42.7 447.7 42.7 C 450.5 42.7 453 42.1 455.2 41 C 455.2 41.02 455.2 33.7 455.2 33.7 L 449.4 33.7 L 449.4 31.9 L 457.3 31.9 C 457.3 31.9 457.32 42.35 457.3 42.4 C 454.1 43.9 450.9 44.7 447.6 44.7 C 443.4 44.7 439.9 43.3 437 40.6 C 434.2 37.9 432.8 34.6 432.8 30.6 C 432.8 26.6 434.2 23.3 437 20.6 C 439.7 18 443.2 16.7 447.4 16.7 C 447.4 16.7 447.4 16.7 447.4 16.7 Z " stroke="none" fill="#000"/>  </g></svg>