<?xml version="1.0" standalone="no"?><!DOCTYPE svg PUBLIC "-//W3C//DTD SVG 1.1//EN" "http://www.w3.org/Graphics/SVG/1.1/DTD/svg11.dtd"><svg xmlns="http://www.w3.org/2000/svg" version="1.1" width="263.3px" height="124.1px" viewBox="0 0 263.3 124.1">  <desc>Our Managed Learning Service was developed in response to requests from clients who wanted more choice, flexibility a...</desc>  <defs/>  <g id="Polygon65507">    <path d="M 49.9 100.9 L 49.9 90.4 L 51.2 90.4 L 51.2 100.9 L 49.9 100.9 Z M 58.4 98.4 C 58.4 98.4 59.7 98.6 59.7 98.6 C 59.5 99.4 59.1 100 58.5 100.4 C 58 100.8 57.2 101 56.4 101 C 55.2 101 54.4 100.7 53.7 100 C 53.1 99.3 52.7 98.4 52.7 97.1 C 52.7 95.9 53.1 94.9 53.7 94.2 C 54.4 93.4 55.2 93.1 56.3 93.1 C 57.3 93.1 58.1 93.4 58.8 94.1 C 59.4 94.8 59.7 95.8 59.7 97.1 C 59.7 97.1 59.7 97.2 59.7 97.4 C 59.7 97.4 54.1 97.4 54.1 97.4 C 54.1 98.2 54.3 98.9 54.8 99.3 C 55.2 99.8 55.7 100 56.4 100 C 56.8 100 57.2 99.9 57.6 99.6 C 57.9 99.4 58.2 99 58.4 98.4 Z M 54.1 96.3 C 54.1 96.3 58.4 96.3 58.4 96.3 C 58.3 95.7 58.2 95.2 57.9 94.9 C 57.5 94.4 57 94.2 56.3 94.2 C 55.7 94.2 55.2 94.4 54.8 94.7 C 54.4 95.1 54.2 95.7 54.1 96.3 Z M 63.4 100.9 L 60.5 93.3 L 61.9 93.3 C 61.9 93.3 63.53 97.82 63.5 97.8 C 63.7 98.3 63.9 98.8 64 99.4 C 64.1 99 64.3 98.5 64.5 97.9 C 64.5 97.91 66.2 93.3 66.2 93.3 L 67.5 93.3 L 64.6 100.9 L 63.4 100.9 Z M 73.9 98.4 C 73.9 98.4 75.2 98.6 75.2 98.6 C 75 99.4 74.6 100 74 100.4 C 73.5 100.8 72.7 101 71.8 101 C 70.7 101 69.8 100.7 69.2 100 C 68.5 99.3 68.2 98.4 68.2 97.1 C 68.2 95.9 68.5 94.9 69.2 94.2 C 69.9 93.4 70.7 93.1 71.8 93.1 C 72.8 93.1 73.6 93.4 74.3 94.1 C 74.9 94.8 75.2 95.8 75.2 97.1 C 75.2 97.1 75.2 97.2 75.2 97.4 C 75.2 97.4 69.6 97.4 69.6 97.4 C 69.6 98.2 69.8 98.9 70.3 99.3 C 70.7 99.8 71.2 100 71.9 100 C 72.3 100 72.7 99.9 73.1 99.6 C 73.4 99.4 73.7 99 73.9 98.4 Z M 69.6 96.3 C 69.6 96.3 73.9 96.3 73.9 96.3 C 73.8 95.7 73.7 95.2 73.4 94.9 C 73 94.4 72.4 94.2 71.8 94.2 C 71.2 94.2 70.7 94.4 70.3 94.7 C 69.9 95.1 69.7 95.7 69.6 96.3 Z M 76.8 100.9 L 76.8 90.4 L 78.1 90.4 L 78.1 100.9 L 76.8 100.9 Z M 83.7 97.1 C 83.7 95.7 84.1 94.6 84.8 93.9 C 85.5 93.4 86.3 93.1 87.2 93.1 C 88.3 93.1 89.1 93.4 89.8 94.1 C 90.5 94.8 90.8 95.8 90.8 97 C 90.8 97.9 90.6 98.7 90.3 99.3 C 90.1 99.8 89.6 100.3 89.1 100.6 C 88.5 100.9 87.9 101 87.2 101 C 86.2 101 85.3 100.7 84.6 100 C 84 99.3 83.7 98.4 83.7 97.1 Z M 85 97.1 C 85 98 85.2 98.8 85.6 99.3 C 86 99.7 86.6 100 87.2 100 C 87.9 100 88.4 99.7 88.8 99.3 C 89.2 98.8 89.5 98 89.5 97 C 89.5 96.1 89.2 95.4 88.8 94.9 C 88.4 94.4 87.9 94.2 87.2 94.2 C 86.6 94.2 86 94.4 85.6 94.9 C 85.2 95.4 85 96.1 85 97.1 Z M 92.6 100.9 L 92.6 94.3 L 91.5 94.3 L 91.5 93.3 L 92.6 93.3 C 92.6 93.3 92.6 92.46 92.6 92.5 C 92.6 91.9 92.6 91.6 92.7 91.3 C 92.9 91 93.1 90.7 93.4 90.5 C 93.7 90.3 94.1 90.2 94.7 90.2 C 95.1 90.2 95.5 90.2 95.9 90.3 C 95.9 90.3 95.7 91.4 95.7 91.4 C 95.5 91.4 95.2 91.4 95 91.4 C 94.6 91.4 94.3 91.5 94.1 91.6 C 94 91.8 93.9 92.1 93.9 92.6 C 93.89 92.56 93.9 93.3 93.9 93.3 L 95.4 93.3 L 95.4 94.3 L 93.9 94.3 L 93.9 100.9 L 92.6 100.9 Z M 105.4 98.1 C 105.4 98.1 106.7 98.3 106.7 98.3 C 106.5 99.1 106.2 99.8 105.6 100.3 C 105 100.8 104.3 101 103.5 101 C 102.5 101 101.6 100.7 101 100 C 100.4 99.3 100.1 98.4 100.1 97.1 C 100.1 96.3 100.2 95.6 100.5 94.9 C 100.7 94.3 101.1 93.9 101.7 93.6 C 102.3 93.2 102.9 93.1 103.5 93.1 C 104.3 93.1 105 93.3 105.5 93.7 C 106.1 94.1 106.4 94.7 106.6 95.5 C 106.6 95.5 105.3 95.7 105.3 95.7 C 105.2 95.2 105 94.8 104.7 94.5 C 104.4 94.3 104 94.2 103.6 94.2 C 102.9 94.2 102.4 94.4 102 94.9 C 101.6 95.3 101.4 96.1 101.4 97.1 C 101.4 98.1 101.6 98.8 102 99.3 C 102.4 99.8 102.9 100 103.5 100 C 104 100 104.4 99.8 104.8 99.5 C 105.1 99.2 105.3 98.7 105.4 98.1 Z M 112.8 100.9 C 112.8 100.9 112.76 99.76 112.8 99.8 C 112.2 100.6 111.4 101 110.4 101 C 109.9 101 109.5 101 109.1 100.8 C 108.7 100.6 108.4 100.4 108.2 100.1 C 108 99.9 107.9 99.6 107.8 99.2 C 107.8 98.9 107.8 98.5 107.8 98 C 107.75 97.98 107.8 93.3 107.8 93.3 L 109 93.3 C 109 93.3 109.04 97.48 109 97.5 C 109 98.2 109.1 98.6 109.1 98.8 C 109.2 99.2 109.4 99.5 109.6 99.6 C 109.9 99.8 110.2 99.9 110.6 99.9 C 111 99.9 111.4 99.8 111.7 99.6 C 112 99.4 112.3 99.2 112.4 98.8 C 112.6 98.5 112.6 98 112.6 97.3 C 112.63 97.34 112.6 93.3 112.6 93.3 L 113.9 93.3 L 113.9 100.9 L 112.8 100.9 Z M 115.4 98.6 C 115.4 98.6 116.7 98.4 116.7 98.4 C 116.8 98.9 117 99.3 117.3 99.6 C 117.6 99.8 118.1 100 118.7 100 C 119.3 100 119.7 99.9 120 99.6 C 120.3 99.4 120.4 99.1 120.4 98.8 C 120.4 98.5 120.3 98.3 120 98.1 C 119.9 98 119.4 97.8 118.7 97.6 C 117.8 97.4 117.1 97.2 116.7 97 C 116.4 96.9 116.1 96.6 115.9 96.3 C 115.7 96 115.6 95.7 115.6 95.3 C 115.6 94.9 115.7 94.6 115.9 94.3 C 116 94.1 116.2 93.8 116.5 93.6 C 116.7 93.5 117 93.4 117.3 93.2 C 117.7 93.1 118 93.1 118.4 93.1 C 119 93.1 119.6 93.2 120 93.4 C 120.5 93.5 120.8 93.8 121 94.1 C 121.2 94.3 121.4 94.7 121.5 95.2 C 121.5 95.2 120.2 95.4 120.2 95.4 C 120.1 95 120 94.7 119.7 94.5 C 119.4 94.3 119 94.2 118.5 94.2 C 117.9 94.2 117.5 94.3 117.3 94.4 C 117 94.6 116.9 94.9 116.9 95.1 C 116.9 95.3 116.9 95.5 117 95.6 C 117.1 95.7 117.3 95.8 117.5 95.9 C 117.7 96 118 96.1 118.7 96.3 C 119.6 96.5 120.2 96.7 120.6 96.9 C 120.9 97 121.2 97.2 121.4 97.5 C 121.6 97.8 121.7 98.2 121.7 98.6 C 121.7 99.1 121.6 99.5 121.4 99.9 C 121.1 100.2 120.7 100.5 120.3 100.7 C 119.8 100.9 119.3 101 118.7 101 C 117.7 101 116.9 100.8 116.4 100.4 C 115.9 100 115.6 99.4 115.4 98.6 Z M 125.5 99.8 C 125.7 99.8 125.9 99.8 126.1 99.7 C 126.1 99.7 126.3 100.9 126.3 100.9 C 125.9 100.9 125.6 101 125.3 101 C 124.8 101 124.5 100.9 124.2 100.8 C 124 100.6 123.8 100.4 123.7 100.2 C 123.6 99.9 123.5 99.4 123.5 98.6 C 123.51 98.64 123.5 94.3 123.5 94.3 L 122.6 94.3 L 122.6 93.3 L 123.5 93.3 L 123.5 91.4 L 124.8 90.6 L 124.8 93.3 L 126.1 93.3 L 126.1 94.3 L 124.8 94.3 C 124.8 94.3 124.79 98.72 124.8 98.7 C 124.8 99.1 124.8 99.3 124.9 99.4 C 124.9 99.5 125 99.6 125.1 99.7 C 125.2 99.7 125.3 99.8 125.5 99.8 C 125.5 99.8 125.5 99.8 125.5 99.8 Z M 126.9 97.1 C 126.9 95.7 127.3 94.6 128 93.9 C 128.7 93.4 129.5 93.1 130.4 93.1 C 131.5 93.1 132.3 93.4 133 94.1 C 133.7 94.8 134 95.8 134 97 C 134 97.9 133.8 98.7 133.6 99.3 C 133.3 99.8 132.8 100.3 132.3 100.6 C 131.7 100.9 131.1 101 130.4 101 C 129.4 101 128.5 100.7 127.8 100 C 127.2 99.3 126.9 98.4 126.9 97.1 Z M 128.2 97.1 C 128.2 98 128.4 98.8 128.8 99.3 C 129.3 99.7 129.8 100 130.4 100 C 131.1 100 131.6 99.7 132 99.3 C 132.5 98.8 132.7 98 132.7 97 C 132.7 96.1 132.5 95.4 132 94.9 C 131.6 94.4 131.1 94.2 130.4 94.2 C 129.8 94.2 129.3 94.4 128.8 94.9 C 128.4 95.4 128.2 96.1 128.2 97.1 Z M 135.5 100.9 L 135.5 93.3 L 136.7 93.3 C 136.7 93.3 136.65 94.33 136.7 94.3 C 136.9 94 137.2 93.7 137.6 93.4 C 138 93.2 138.5 93.1 139 93.1 C 139.5 93.1 140 93.2 140.3 93.4 C 140.7 93.7 141 94 141.1 94.4 C 141.7 93.5 142.5 93.1 143.5 93.1 C 144.2 93.1 144.8 93.3 145.2 93.7 C 145.6 94.1 145.8 94.8 145.8 95.7 C 145.81 95.65 145.8 100.9 145.8 100.9 L 144.5 100.9 C 144.5 100.9 144.53 96.08 144.5 96.1 C 144.5 95.6 144.5 95.2 144.4 95 C 144.3 94.7 144.2 94.6 143.9 94.4 C 143.7 94.3 143.5 94.2 143.2 94.2 C 142.6 94.2 142.2 94.4 141.8 94.7 C 141.5 95.1 141.3 95.7 141.3 96.5 C 141.31 96.45 141.3 100.9 141.3 100.9 L 140 100.9 C 140 100.9 140.02 95.93 140 95.9 C 140 95.4 139.9 94.9 139.7 94.6 C 139.5 94.4 139.2 94.2 138.7 94.2 C 138.3 94.2 138 94.3 137.7 94.5 C 137.4 94.7 137.1 95 137 95.3 C 136.9 95.7 136.8 96.2 136.8 96.9 C 136.79 96.93 136.8 100.9 136.8 100.9 L 135.5 100.9 Z M 152.9 98.4 C 152.9 98.4 154.3 98.6 154.3 98.6 C 154 99.4 153.7 100 153.1 100.4 C 152.5 100.8 151.8 101 150.9 101 C 149.8 101 148.9 100.7 148.3 100 C 147.6 99.3 147.3 98.4 147.3 97.1 C 147.3 95.9 147.6 94.9 148.3 94.2 C 148.9 93.4 149.8 93.1 150.8 93.1 C 151.9 93.1 152.7 93.4 153.3 94.1 C 154 94.8 154.3 95.8 154.3 97.1 C 154.3 97.1 154.3 97.2 154.3 97.4 C 154.3 97.4 148.6 97.4 148.6 97.4 C 148.7 98.2 148.9 98.9 149.3 99.3 C 149.8 99.8 150.3 100 150.9 100 C 151.4 100 151.8 99.9 152.1 99.6 C 152.5 99.4 152.7 99 152.9 98.4 Z M 148.7 96.3 C 148.7 96.3 152.9 96.3 152.9 96.3 C 152.9 95.7 152.7 95.2 152.5 94.9 C 152 94.4 151.5 94.2 150.9 94.2 C 150.3 94.2 149.8 94.4 149.4 94.7 C 149 95.1 148.7 95.7 148.7 96.3 Z M 155.9 100.9 L 155.9 93.3 L 157 93.3 C 157 93.3 157.02 94.42 157 94.4 C 157.3 93.9 157.6 93.5 157.8 93.4 C 158.1 93.2 158.4 93.1 158.7 93.1 C 159.1 93.1 159.5 93.2 160 93.5 C 160 93.5 159.5 94.7 159.5 94.7 C 159.2 94.5 158.9 94.4 158.6 94.4 C 158.3 94.4 158.1 94.5 157.8 94.7 C 157.6 94.9 157.5 95.1 157.4 95.4 C 157.2 95.8 157.2 96.3 157.2 96.9 C 157.15 96.89 157.2 100.9 157.2 100.9 L 155.9 100.9 Z M 164.3 98.6 C 164.3 98.6 165.6 98.4 165.6 98.4 C 165.7 98.9 165.9 99.3 166.2 99.6 C 166.5 99.8 167 100 167.6 100 C 168.2 100 168.6 99.9 168.9 99.6 C 169.2 99.4 169.3 99.1 169.3 98.8 C 169.3 98.5 169.2 98.3 168.9 98.1 C 168.8 98 168.3 97.8 167.6 97.6 C 166.7 97.4 166 97.2 165.6 97 C 165.3 96.9 165 96.6 164.8 96.3 C 164.6 96 164.5 95.7 164.5 95.3 C 164.5 94.9 164.6 94.6 164.8 94.3 C 164.9 94.1 165.1 93.8 165.4 93.6 C 165.6 93.5 165.9 93.4 166.2 93.2 C 166.6 93.1 166.9 93.1 167.3 93.1 C 167.9 93.1 168.5 93.2 168.9 93.4 C 169.4 93.5 169.7 93.8 169.9 94.1 C 170.1 94.3 170.3 94.7 170.3 95.2 C 170.3 95.2 169.1 95.4 169.1 95.4 C 169 95 168.9 94.7 168.6 94.5 C 168.3 94.3 167.9 94.2 167.4 94.2 C 166.8 94.2 166.4 94.3 166.2 94.4 C 165.9 94.6 165.8 94.9 165.8 95.1 C 165.8 95.3 165.8 95.5 165.9 95.6 C 166 95.7 166.2 95.8 166.4 95.9 C 166.6 96 166.9 96.1 167.6 96.3 C 168.5 96.5 169.1 96.7 169.5 96.9 C 169.8 97 170.1 97.2 170.3 97.5 C 170.5 97.8 170.6 98.2 170.6 98.6 C 170.6 99.1 170.5 99.5 170.3 99.9 C 170 100.2 169.6 100.5 169.2 100.7 C 168.7 100.9 168.2 101 167.6 101 C 166.6 101 165.8 100.8 165.3 100.4 C 164.8 100 164.5 99.4 164.3 98.6 Z M 177.4 98.4 C 177.4 98.4 178.7 98.6 178.7 98.6 C 178.5 99.4 178.1 100 177.5 100.4 C 177 100.8 176.2 101 175.4 101 C 174.2 101 173.4 100.7 172.7 100 C 172.1 99.3 171.7 98.4 171.7 97.1 C 171.7 95.9 172.1 94.9 172.7 94.2 C 173.4 93.4 174.2 93.1 175.3 93.1 C 176.3 93.1 177.1 93.4 177.8 94.1 C 178.4 94.8 178.7 95.8 178.7 97.1 C 178.7 97.1 178.7 97.2 178.7 97.4 C 178.7 97.4 173.1 97.4 173.1 97.4 C 173.1 98.2 173.4 98.9 173.8 99.3 C 174.2 99.8 174.7 100 175.4 100 C 175.8 100 176.2 99.9 176.6 99.6 C 176.9 99.4 177.2 99 177.4 98.4 Z M 173.1 96.3 C 173.1 96.3 177.4 96.3 177.4 96.3 C 177.3 95.7 177.2 95.2 176.9 94.9 C 176.5 94.4 176 94.2 175.3 94.2 C 174.7 94.2 174.2 94.4 173.8 94.7 C 173.4 95.1 173.2 95.7 173.1 96.3 Z M 180.3 100.9 L 180.3 93.3 L 181.5 93.3 C 181.5 93.3 181.47 94.42 181.5 94.4 C 181.8 93.9 182 93.5 182.3 93.4 C 182.5 93.2 182.8 93.1 183.1 93.1 C 183.6 93.1 184 93.2 184.4 93.5 C 184.4 93.5 184 94.7 184 94.7 C 183.7 94.5 183.4 94.4 183.1 94.4 C 182.8 94.4 182.5 94.5 182.3 94.7 C 182.1 94.9 181.9 95.1 181.8 95.4 C 181.7 95.8 181.6 96.3 181.6 96.9 C 181.6 96.89 181.6 100.9 181.6 100.9 L 180.3 100.9 Z M 187.3 100.9 L 184.4 93.3 L 185.8 93.3 C 185.8 93.3 187.42 97.82 187.4 97.8 C 187.6 98.3 187.8 98.8 187.9 99.4 C 188 99 188.2 98.5 188.4 97.9 C 188.39 97.91 190.1 93.3 190.1 93.3 L 191.4 93.3 L 188.5 100.9 L 187.3 100.9 Z M 192.5 91.9 L 192.5 90.4 L 193.8 90.4 L 193.8 91.9 L 192.5 91.9 Z M 192.5 100.9 L 192.5 93.3 L 193.8 93.3 L 193.8 100.9 L 192.5 100.9 Z M 200.8 98.1 C 200.8 98.1 202 98.3 202 98.3 C 201.9 99.1 201.5 99.8 201 100.3 C 200.4 100.8 199.7 101 198.9 101 C 197.8 101 197 100.7 196.4 100 C 195.7 99.3 195.4 98.4 195.4 97.1 C 195.4 96.3 195.5 95.6 195.8 94.9 C 196.1 94.3 196.5 93.9 197.1 93.6 C 197.6 93.2 198.2 93.1 198.9 93.1 C 199.7 93.1 200.4 93.3 200.9 93.7 C 201.4 94.1 201.8 94.7 201.9 95.5 C 201.9 95.5 200.7 95.7 200.7 95.7 C 200.5 95.2 200.3 94.8 200 94.5 C 199.7 94.3 199.4 94.2 198.9 94.2 C 198.3 94.2 197.7 94.4 197.3 94.9 C 196.9 95.3 196.7 96.1 196.7 97.1 C 196.7 98.1 196.9 98.8 197.3 99.3 C 197.7 99.8 198.2 100 198.9 100 C 199.4 100 199.8 99.8 200.1 99.5 C 200.5 99.2 200.7 98.7 200.8 98.1 Z M 208.3 98.4 C 208.3 98.4 209.7 98.6 209.7 98.6 C 209.5 99.4 209.1 100 208.5 100.4 C 207.9 100.8 207.2 101 206.3 101 C 205.2 101 204.3 100.7 203.7 100 C 203 99.3 202.7 98.4 202.7 97.1 C 202.7 95.9 203 94.9 203.7 94.2 C 204.4 93.4 205.2 93.1 206.3 93.1 C 207.3 93.1 208.1 93.4 208.7 94.1 C 209.4 94.8 209.7 95.8 209.7 97.1 C 209.7 97.1 209.7 97.2 209.7 97.4 C 209.7 97.4 204 97.4 204 97.4 C 204.1 98.2 204.3 98.9 204.7 99.3 C 205.2 99.8 205.7 100 206.3 100 C 206.8 100 207.2 99.9 207.5 99.6 C 207.9 99.4 208.1 99 208.3 98.4 Z M 204.1 96.3 C 204.1 96.3 208.4 96.3 208.4 96.3 C 208.3 95.7 208.1 95.2 207.9 94.9 C 207.5 94.4 206.9 94.2 206.3 94.2 C 205.7 94.2 205.2 94.4 204.8 94.7 C 204.4 95.1 204.2 95.7 204.1 96.3 Z M 211.7 100.9 L 211.7 99.4 L 213.1 99.4 L 213.1 100.9 L 211.7 100.9 Z " stroke="none" fill="#fff"/>  </g>  <g id="Polygon65506">    <path d="M 21 80.5 C 21 80.5 22.3 80.7 22.3 80.7 C 22.1 81.5 21.8 82.2 21.2 82.7 C 20.6 83.2 19.9 83.4 19.1 83.4 C 18.1 83.4 17.2 83.1 16.6 82.4 C 16 81.7 15.7 80.8 15.7 79.5 C 15.7 78.7 15.8 78 16.1 77.3 C 16.3 76.7 16.7 76.3 17.3 76 C 17.9 75.6 18.5 75.5 19.1 75.5 C 19.9 75.5 20.6 75.7 21.1 76.1 C 21.7 76.5 22 77.1 22.2 77.9 C 22.2 77.9 20.9 78.1 20.9 78.1 C 20.8 77.6 20.6 77.2 20.3 76.9 C 20 76.7 19.6 76.6 19.2 76.6 C 18.5 76.6 18 76.8 17.6 77.3 C 17.2 77.7 17 78.5 17 79.5 C 17 80.5 17.2 81.2 17.6 81.7 C 18 82.2 18.5 82.4 19.1 82.4 C 19.6 82.4 20 82.2 20.4 81.9 C 20.7 81.6 20.9 81.1 21 80.5 Z M 23.4 83.3 L 23.4 72.8 L 24.7 72.8 C 24.7 72.8 24.67 76.54 24.7 76.5 C 25.3 75.8 26 75.5 26.9 75.5 C 27.5 75.5 28 75.6 28.4 75.8 C 28.8 76 29.1 76.4 29.3 76.7 C 29.5 77.1 29.6 77.7 29.6 78.5 C 29.57 78.45 29.6 83.3 29.6 83.3 L 28.3 83.3 C 28.3 83.3 28.28 78.45 28.3 78.5 C 28.3 77.8 28.1 77.3 27.9 77 C 27.6 76.8 27.2 76.6 26.7 76.6 C 26.3 76.6 25.9 76.7 25.6 76.9 C 25.3 77.1 25 77.4 24.9 77.7 C 24.7 78 24.7 78.5 24.7 79.1 C 24.67 79.11 24.7 83.3 24.7 83.3 L 23.4 83.3 Z M 31.1 79.5 C 31.1 78.1 31.4 77 32.2 76.3 C 32.9 75.8 33.7 75.5 34.6 75.5 C 35.7 75.5 36.5 75.8 37.2 76.5 C 37.8 77.2 38.2 78.2 38.2 79.4 C 38.2 80.3 38 81.1 37.7 81.7 C 37.4 82.2 37 82.7 36.5 83 C 35.9 83.3 35.3 83.4 34.6 83.4 C 33.6 83.4 32.7 83.1 32 82.4 C 31.4 81.7 31.1 80.8 31.1 79.5 Z M 32.4 79.5 C 32.4 80.4 32.6 81.2 33 81.7 C 33.4 82.1 34 82.4 34.6 82.4 C 35.3 82.4 35.8 82.1 36.2 81.7 C 36.6 81.2 36.9 80.4 36.9 79.4 C 36.9 78.5 36.6 77.8 36.2 77.3 C 35.8 76.8 35.3 76.6 34.6 76.6 C 34 76.6 33.4 76.8 33 77.3 C 32.6 77.8 32.4 78.5 32.4 79.5 Z M 39.7 74.3 L 39.7 72.8 L 41 72.8 L 41 74.3 L 39.7 74.3 Z M 39.7 83.3 L 39.7 75.7 L 41 75.7 L 41 83.3 L 39.7 83.3 Z M 47.9 80.5 C 47.9 80.5 49.2 80.7 49.2 80.7 C 49 81.5 48.7 82.2 48.1 82.7 C 47.5 83.2 46.8 83.4 46 83.4 C 45 83.4 44.1 83.1 43.5 82.4 C 42.9 81.7 42.6 80.8 42.6 79.5 C 42.6 78.7 42.7 78 43 77.3 C 43.2 76.7 43.7 76.3 44.2 76 C 44.8 75.6 45.4 75.5 46 75.5 C 46.8 75.5 47.5 75.7 48 76.1 C 48.6 76.5 48.9 77.1 49.1 77.9 C 49.1 77.9 47.8 78.1 47.8 78.1 C 47.7 77.6 47.5 77.2 47.2 76.9 C 46.9 76.7 46.5 76.6 46.1 76.6 C 45.4 76.6 44.9 76.8 44.5 77.3 C 44.1 77.7 43.9 78.5 43.9 79.5 C 43.9 80.5 44.1 81.2 44.5 81.7 C 44.9 82.2 45.4 82.4 46 82.4 C 46.5 82.4 46.9 82.2 47.3 81.9 C 47.6 81.6 47.8 81.1 47.9 80.5 Z M 55.5 80.8 C 55.5 80.8 56.8 81 56.8 81 C 56.6 81.8 56.2 82.4 55.7 82.8 C 55.1 83.2 54.4 83.4 53.5 83.4 C 52.4 83.4 51.5 83.1 50.8 82.4 C 50.2 81.7 49.9 80.8 49.9 79.5 C 49.9 78.3 50.2 77.3 50.8 76.6 C 51.5 75.8 52.4 75.5 53.4 75.5 C 54.4 75.5 55.3 75.8 55.9 76.5 C 56.5 77.2 56.9 78.2 56.9 79.5 C 56.9 79.5 56.9 79.6 56.9 79.8 C 56.9 79.8 51.2 79.8 51.2 79.8 C 51.2 80.6 51.5 81.3 51.9 81.7 C 52.3 82.2 52.9 82.4 53.5 82.4 C 54 82.4 54.4 82.3 54.7 82 C 55 81.8 55.3 81.4 55.5 80.8 Z M 51.3 78.7 C 51.3 78.7 55.5 78.7 55.5 78.7 C 55.4 78.1 55.3 77.6 55 77.3 C 54.6 76.8 54.1 76.6 53.4 76.6 C 52.8 76.6 52.3 76.8 51.9 77.1 C 51.5 77.5 51.3 78.1 51.3 78.7 Z M 58.8 83.3 L 58.8 81.8 L 60.2 81.8 C 60.2 81.8 60.25 83.27 60.2 83.3 C 60.2 83.8 60.2 84.2 60 84.6 C 59.8 84.9 59.5 85.2 59 85.3 C 59 85.3 58.7 84.8 58.7 84.8 C 59 84.7 59.2 84.5 59.3 84.3 C 59.4 84 59.5 83.7 59.5 83.3 C 59.51 83.27 58.8 83.3 58.8 83.3 Z M 66.9 83.3 L 66.9 76.7 L 65.8 76.7 L 65.8 75.7 L 66.9 75.7 C 66.9 75.7 66.93 74.93 66.9 74.9 C 66.9 74.2 67.1 73.6 67.4 73.2 C 67.7 72.8 68.3 72.6 69 72.6 C 69.4 72.6 69.9 72.6 70.3 72.8 C 70.3 72.8 70.1 73.8 70.1 73.8 C 69.8 73.8 69.6 73.8 69.4 73.8 C 68.9 73.8 68.6 73.9 68.5 74 C 68.3 74.2 68.2 74.6 68.2 75.2 C 68.22 75.17 68.2 75.7 68.2 75.7 L 69.7 75.7 L 69.7 76.7 L 68.2 76.7 L 68.2 83.3 L 66.9 83.3 Z M 70.7 83.3 L 70.7 72.8 L 71.9 72.8 L 71.9 83.3 L 70.7 83.3 Z M 79.1 80.8 C 79.1 80.8 80.5 81 80.5 81 C 80.3 81.8 79.9 82.4 79.3 82.8 C 78.7 83.2 78 83.4 77.1 83.4 C 76 83.4 75.1 83.1 74.5 82.4 C 73.8 81.7 73.5 80.8 73.5 79.5 C 73.5 78.3 73.8 77.3 74.5 76.6 C 75.1 75.8 76 75.5 77 75.5 C 78.1 75.5 78.9 75.8 79.5 76.5 C 80.2 77.2 80.5 78.2 80.5 79.5 C 80.5 79.5 80.5 79.6 80.5 79.8 C 80.5 79.8 74.8 79.8 74.8 79.8 C 74.9 80.6 75.1 81.3 75.5 81.7 C 76 82.2 76.5 82.4 77.1 82.4 C 77.6 82.4 78 82.3 78.3 82 C 78.7 81.8 78.9 81.4 79.1 80.8 Z M 74.9 78.7 C 74.9 78.7 79.1 78.7 79.1 78.7 C 79.1 78.1 78.9 77.6 78.7 77.3 C 78.2 76.8 77.7 76.6 77.1 76.6 C 76.5 76.6 76 76.8 75.6 77.1 C 75.2 77.5 74.9 78.1 74.9 78.7 Z M 81.2 83.3 L 84 79.3 L 81.4 75.7 L 83 75.7 C 83 75.7 84.21 77.45 84.2 77.4 C 84.4 77.8 84.6 78.1 84.7 78.3 C 84.9 78 85.1 77.7 85.3 77.5 C 85.32 77.46 86.6 75.7 86.6 75.7 L 88.1 75.7 L 85.5 79.2 L 88.3 83.3 L 86.8 83.3 L 85.2 80.9 L 84.8 80.3 L 82.8 83.3 L 81.2 83.3 Z M 89.4 74.3 L 89.4 72.8 L 90.7 72.8 L 90.7 74.3 L 89.4 74.3 Z M 89.4 83.3 L 89.4 75.7 L 90.7 75.7 L 90.7 83.3 L 89.4 83.3 Z M 93.9 83.3 L 92.7 83.3 L 92.7 72.8 L 94 72.8 C 94 72.8 93.95 76.52 94 76.5 C 94.5 75.8 95.2 75.5 96 75.5 C 96.5 75.5 96.9 75.6 97.4 75.8 C 97.8 76 98.1 76.2 98.4 76.6 C 98.7 76.9 98.9 77.3 99 77.8 C 99.2 78.3 99.3 78.8 99.3 79.4 C 99.3 80.7 98.9 81.7 98.3 82.4 C 97.6 83.1 96.9 83.4 96 83.4 C 95.1 83.4 94.4 83.1 93.9 82.3 C 93.86 82.32 93.9 83.3 93.9 83.3 Z M 93.8 79.4 C 93.8 80.3 94 81 94.2 81.4 C 94.6 82.1 95.2 82.4 95.9 82.4 C 96.4 82.4 96.9 82.1 97.3 81.7 C 97.7 81.2 97.9 80.4 97.9 79.5 C 97.9 78.5 97.7 77.7 97.4 77.3 C 97 76.8 96.5 76.6 95.9 76.6 C 95.4 76.6 94.9 76.8 94.5 77.3 C 94.1 77.8 93.8 78.5 93.8 79.4 Z M 100.8 74.3 L 100.8 72.8 L 102.1 72.8 L 102.1 74.3 L 100.8 74.3 Z M 100.8 83.3 L 100.8 75.7 L 102.1 75.7 L 102.1 83.3 L 100.8 83.3 Z M 104.1 83.3 L 104.1 72.8 L 105.3 72.8 L 105.3 83.3 L 104.1 83.3 Z M 107.4 74.3 L 107.4 72.8 L 108.6 72.8 L 108.6 74.3 L 107.4 74.3 Z M 107.4 83.3 L 107.4 75.7 L 108.6 75.7 L 108.6 83.3 L 107.4 83.3 Z M 112.9 82.2 C 113 82.2 113.2 82.2 113.4 82.1 C 113.4 82.1 113.6 83.3 113.6 83.3 C 113.2 83.3 112.9 83.4 112.6 83.4 C 112.2 83.4 111.8 83.3 111.5 83.2 C 111.3 83 111.1 82.8 111 82.6 C 110.9 82.3 110.8 81.8 110.8 81 C 110.84 81.04 110.8 76.7 110.8 76.7 L 109.9 76.7 L 109.9 75.7 L 110.8 75.7 L 110.8 73.8 L 112.1 73 L 112.1 75.7 L 113.4 75.7 L 113.4 76.7 L 112.1 76.7 C 112.1 76.7 112.12 81.12 112.1 81.1 C 112.1 81.5 112.1 81.7 112.2 81.8 C 112.2 81.9 112.3 82 112.4 82.1 C 112.5 82.1 112.7 82.2 112.9 82.2 C 112.9 82.2 112.9 82.2 112.9 82.2 Z M 115.5 86.4 C 115.2 86.4 114.9 86.3 114.6 86.2 C 114.6 86.2 114.5 85 114.5 85 C 114.8 85.1 115 85.1 115.2 85.1 C 115.5 85.1 115.7 85.1 115.9 85 C 116.1 84.9 116.2 84.7 116.3 84.6 C 116.4 84.4 116.5 84.1 116.7 83.6 C 116.7 83.5 116.8 83.4 116.8 83.3 C 116.84 83.29 113.9 75.7 113.9 75.7 L 115.3 75.7 C 115.3 75.7 116.92 80.07 116.9 80.1 C 117.1 80.6 117.3 81.2 117.5 81.8 C 117.6 81.2 117.8 80.7 118 80.1 C 118 80.1 119.6 75.7 119.6 75.7 L 120.9 75.7 C 120.9 75.7 118.02 83.4 118 83.4 C 117.7 84.2 117.5 84.8 117.3 85.1 C 117.1 85.6 116.8 85.9 116.5 86.1 C 116.2 86.3 115.9 86.4 115.5 86.4 C 115.5 86.4 115.5 86.4 115.5 86.4 Z M 131.3 83.3 C 131.2 83 131.1 82.7 131.1 82.3 C 130.6 82.7 130.1 83 129.7 83.2 C 129.2 83.4 128.8 83.4 128.3 83.4 C 127.4 83.4 126.8 83.2 126.3 82.8 C 125.9 82.4 125.7 81.9 125.7 81.3 C 125.7 80.9 125.7 80.6 125.9 80.2 C 126.1 79.9 126.3 79.7 126.6 79.5 C 126.8 79.3 127.2 79.2 127.5 79.1 C 127.8 79 128.1 79 128.6 78.9 C 129.7 78.8 130.5 78.6 130.9 78.4 C 130.9 78.3 131 78.2 131 78.1 C 131 77.6 130.8 77.2 130.6 77 C 130.3 76.7 129.8 76.6 129.1 76.6 C 128.5 76.6 128.1 76.7 127.8 76.9 C 127.5 77.1 127.3 77.5 127.1 78 C 127.1 78 125.9 77.8 125.9 77.8 C 126 77.3 126.2 76.9 126.4 76.5 C 126.7 76.2 127.1 75.9 127.6 75.8 C 128.1 75.6 128.6 75.5 129.3 75.5 C 130 75.5 130.5 75.6 130.9 75.7 C 131.3 75.9 131.6 76.1 131.8 76.3 C 132 76.5 132.1 76.8 132.2 77.2 C 132.2 77.4 132.2 77.8 132.2 78.4 C 132.2 78.4 132.2 80.1 132.2 80.1 C 132.2 81.3 132.3 82 132.3 82.4 C 132.4 82.7 132.5 83 132.7 83.3 C 132.65 83.27 131.3 83.3 131.3 83.3 C 131.3 83.3 131.31 83.27 131.3 83.3 Z M 130.9 79.5 C 130.5 79.6 129.8 79.8 128.8 79.9 C 128.3 80 127.9 80.1 127.7 80.2 C 127.5 80.3 127.3 80.4 127.2 80.6 C 127.1 80.8 127 81 127 81.2 C 127 81.6 127.2 81.9 127.4 82.1 C 127.7 82.3 128.1 82.4 128.6 82.4 C 129.1 82.4 129.5 82.3 129.9 82.1 C 130.3 81.9 130.6 81.6 130.7 81.2 C 130.9 80.9 130.9 80.5 130.9 79.9 C 130.9 79.9 130.9 79.5 130.9 79.5 Z M 134.2 83.3 L 134.2 75.7 L 135.4 75.7 C 135.4 75.7 135.4 76.75 135.4 76.7 C 136 75.9 136.8 75.5 137.8 75.5 C 138.3 75.5 138.7 75.6 139.1 75.7 C 139.5 75.9 139.8 76.1 140 76.4 C 140.1 76.7 140.3 77 140.4 77.3 C 140.4 77.6 140.4 78 140.4 78.6 C 140.43 78.6 140.4 83.3 140.4 83.3 L 139.1 83.3 C 139.1 83.3 139.14 78.65 139.1 78.6 C 139.1 78.1 139.1 77.7 139 77.5 C 138.9 77.2 138.7 77 138.5 76.8 C 138.2 76.7 137.9 76.6 137.6 76.6 C 137 76.6 136.5 76.8 136.1 77.1 C 135.7 77.5 135.5 78.1 135.5 79.1 C 135.53 79.12 135.5 83.3 135.5 83.3 L 134.2 83.3 Z M 147.3 83.3 C 147.3 83.3 147.34 82.31 147.3 82.3 C 146.9 83.1 146.1 83.4 145.2 83.4 C 144.6 83.4 144 83.3 143.5 82.9 C 143 82.6 142.6 82.1 142.4 81.5 C 142.1 80.9 141.9 80.3 141.9 79.5 C 141.9 78.7 142.1 78 142.3 77.4 C 142.6 76.8 142.9 76.3 143.5 76 C 144 75.7 144.5 75.5 145.2 75.5 C 145.6 75.5 146 75.6 146.4 75.8 C 146.7 76 147 76.2 147.2 76.5 C 147.25 76.54 147.2 72.8 147.2 72.8 L 148.5 72.8 L 148.5 83.3 L 147.3 83.3 Z M 143.3 79.5 C 143.3 80.5 143.5 81.2 143.9 81.7 C 144.3 82.1 144.8 82.4 145.3 82.4 C 145.9 82.4 146.4 82.2 146.8 81.7 C 147.2 81.2 147.4 80.5 147.4 79.6 C 147.4 78.5 147.2 77.8 146.8 77.3 C 146.4 76.8 145.9 76.6 145.3 76.6 C 144.7 76.6 144.2 76.8 143.8 77.3 C 143.5 77.7 143.3 78.5 143.3 79.5 Z M 159.9 83.3 C 159.7 83 159.6 82.7 159.6 82.3 C 159.1 82.7 158.7 83 158.2 83.2 C 157.8 83.4 157.3 83.4 156.8 83.4 C 156 83.4 155.3 83.2 154.9 82.8 C 154.4 82.4 154.2 81.9 154.2 81.3 C 154.2 80.9 154.3 80.6 154.5 80.2 C 154.6 79.9 154.8 79.7 155.1 79.5 C 155.4 79.3 155.7 79.2 156 79.1 C 156.3 79 156.7 79 157.2 78.9 C 158.2 78.8 159 78.6 159.5 78.4 C 159.5 78.3 159.5 78.2 159.5 78.1 C 159.5 77.6 159.4 77.2 159.1 77 C 158.8 76.7 158.3 76.6 157.7 76.6 C 157.1 76.6 156.6 76.7 156.3 76.9 C 156 77.1 155.8 77.5 155.7 78 C 155.7 78 154.4 77.8 154.4 77.8 C 154.5 77.3 154.7 76.9 155 76.5 C 155.2 76.2 155.6 75.9 156.1 75.8 C 156.6 75.6 157.2 75.5 157.8 75.5 C 158.5 75.5 159 75.6 159.4 75.7 C 159.8 75.9 160.1 76.1 160.3 76.3 C 160.5 76.5 160.7 76.8 160.7 77.2 C 160.8 77.4 160.8 77.8 160.8 78.4 C 160.8 78.4 160.8 80.1 160.8 80.1 C 160.8 81.3 160.8 82 160.9 82.4 C 160.9 82.7 161 83 161.2 83.3 C 161.2 83.27 159.9 83.3 159.9 83.3 C 159.9 83.3 159.85 83.27 159.9 83.3 Z M 159.5 79.5 C 159 79.6 158.3 79.8 157.4 79.9 C 156.9 80 156.5 80.1 156.3 80.2 C 156 80.3 155.9 80.4 155.8 80.6 C 155.6 80.8 155.6 81 155.6 81.2 C 155.6 81.6 155.7 81.9 156 82.1 C 156.2 82.3 156.6 82.4 157.1 82.4 C 157.6 82.4 158 82.3 158.4 82.1 C 158.8 81.9 159.1 81.6 159.3 81.2 C 159.4 80.9 159.5 80.5 159.5 79.9 C 159.5 79.9 159.5 79.5 159.5 79.5 Z M 162.8 83.3 L 162.8 75.7 L 164 75.7 C 164 75.7 163.95 76.75 164 76.7 C 164.5 75.9 165.3 75.5 166.4 75.5 C 166.8 75.5 167.3 75.6 167.6 75.7 C 168 75.9 168.3 76.1 168.5 76.4 C 168.7 76.7 168.8 77 168.9 77.3 C 168.9 77.6 169 78 169 78.6 C 168.97 78.6 169 83.3 169 83.3 L 167.7 83.3 C 167.7 83.3 167.68 78.65 167.7 78.6 C 167.7 78.1 167.6 77.7 167.5 77.5 C 167.4 77.2 167.3 77 167 76.8 C 166.7 76.7 166.4 76.6 166.1 76.6 C 165.5 76.6 165.1 76.8 164.7 77.1 C 164.3 77.5 164.1 78.1 164.1 79.1 C 164.08 79.12 164.1 83.3 164.1 83.3 L 162.8 83.3 Z M 180.2 80.8 C 180.2 80.8 181.6 81 181.6 81 C 181.4 81.8 181 82.4 180.4 82.8 C 179.8 83.2 179.1 83.4 178.2 83.4 C 177.1 83.4 176.2 83.1 175.6 82.4 C 174.9 81.7 174.6 80.8 174.6 79.5 C 174.6 78.3 174.9 77.3 175.6 76.6 C 176.2 75.8 177.1 75.5 178.1 75.5 C 179.2 75.5 180 75.8 180.6 76.5 C 181.3 77.2 181.6 78.2 181.6 79.5 C 181.6 79.5 181.6 79.6 181.6 79.8 C 181.6 79.8 175.9 79.8 175.9 79.8 C 176 80.6 176.2 81.3 176.6 81.7 C 177.1 82.2 177.6 82.4 178.2 82.4 C 178.7 82.4 179.1 82.3 179.4 82 C 179.8 81.8 180 81.4 180.2 80.8 Z M 176 78.7 C 176 78.7 180.2 78.7 180.2 78.7 C 180.2 78.1 180 77.6 179.8 77.3 C 179.3 76.8 178.8 76.6 178.2 76.6 C 177.6 76.6 177.1 76.8 176.7 77.1 C 176.3 77.5 176 78.1 176 78.7 Z M 182.3 83.3 L 185.1 79.3 L 182.5 75.7 L 184.1 75.7 C 184.1 75.7 185.31 77.45 185.3 77.4 C 185.5 77.8 185.7 78.1 185.8 78.3 C 186 78 186.2 77.7 186.4 77.5 C 186.42 77.46 187.7 75.7 187.7 75.7 L 189.2 75.7 L 186.6 79.2 L 189.4 83.3 L 187.9 83.3 L 186.3 80.9 L 185.9 80.3 L 183.9 83.3 L 182.3 83.3 Z M 195.5 80.5 C 195.5 80.5 196.7 80.7 196.7 80.7 C 196.6 81.5 196.2 82.2 195.7 82.7 C 195.1 83.2 194.4 83.4 193.6 83.4 C 192.5 83.4 191.7 83.1 191.1 82.4 C 190.4 81.7 190.1 80.8 190.1 79.5 C 190.1 78.7 190.3 78 190.5 77.3 C 190.8 76.7 191.2 76.3 191.8 76 C 192.3 75.6 192.9 75.5 193.6 75.5 C 194.4 75.5 195.1 75.7 195.6 76.1 C 196.1 76.5 196.5 77.1 196.6 77.9 C 196.6 77.9 195.4 78.1 195.4 78.1 C 195.2 77.6 195 77.2 194.7 76.9 C 194.4 76.7 194.1 76.6 193.6 76.6 C 193 76.6 192.5 76.8 192.1 77.3 C 191.6 77.7 191.4 78.5 191.4 79.5 C 191.4 80.5 191.6 81.2 192 81.7 C 192.4 82.2 192.9 82.4 193.6 82.4 C 194.1 82.4 194.5 82.2 194.8 81.9 C 195.2 81.6 195.4 81.1 195.5 80.5 Z M 203.1 80.8 C 203.1 80.8 204.4 81 204.4 81 C 204.2 81.8 203.8 82.4 203.2 82.8 C 202.6 83.2 201.9 83.4 201 83.4 C 199.9 83.4 199 83.1 198.4 82.4 C 197.7 81.7 197.4 80.8 197.4 79.5 C 197.4 78.3 197.7 77.3 198.4 76.6 C 199.1 75.8 199.9 75.5 201 75.5 C 202 75.5 202.8 75.8 203.5 76.5 C 204.1 77.2 204.4 78.2 204.4 79.5 C 204.4 79.5 204.4 79.6 204.4 79.8 C 204.4 79.8 198.7 79.8 198.7 79.8 C 198.8 80.6 199 81.3 199.5 81.7 C 199.9 82.2 200.4 82.4 201 82.4 C 201.5 82.4 201.9 82.3 202.3 82 C 202.6 81.8 202.9 81.4 203.1 80.8 Z M 198.8 78.7 C 198.8 78.7 203.1 78.7 203.1 78.7 C 203 78.1 202.8 77.6 202.6 77.3 C 202.2 76.8 201.6 76.6 201 76.6 C 200.4 76.6 199.9 76.8 199.5 77.1 C 199.1 77.5 198.9 78.1 198.8 78.7 Z M 206 86.2 L 206 75.7 L 207.2 75.7 C 207.2 75.7 207.18 76.66 207.2 76.7 C 207.5 76.3 207.8 76 208.1 75.8 C 208.5 75.6 208.9 75.5 209.4 75.5 C 210 75.5 210.6 75.7 211.1 76 C 211.6 76.3 212 76.8 212.2 77.4 C 212.5 78 212.6 78.7 212.6 79.4 C 212.6 80.2 212.5 80.9 212.2 81.5 C 211.9 82.1 211.5 82.6 211 82.9 C 210.4 83.3 209.9 83.4 209.3 83.4 C 208.9 83.4 208.5 83.4 208.1 83.2 C 207.8 83 207.5 82.8 207.3 82.5 C 207.29 82.48 207.3 86.2 207.3 86.2 L 206 86.2 Z M 207.2 79.5 C 207.2 80.5 207.4 81.2 207.8 81.7 C 208.2 82.2 208.6 82.4 209.2 82.4 C 209.8 82.4 210.3 82.1 210.7 81.7 C 211.1 81.2 211.3 80.4 211.3 79.4 C 211.3 78.4 211.1 77.7 210.7 77.2 C 210.3 76.7 209.8 76.5 209.3 76.5 C 208.7 76.5 208.2 76.8 207.8 77.3 C 207.4 77.8 207.2 78.5 207.2 79.5 Z M 216.4 82.2 C 216.6 82.2 216.7 82.2 217 82.1 C 217 82.1 217.2 83.3 217.2 83.3 C 216.8 83.3 216.5 83.4 216.2 83.4 C 215.7 83.4 215.4 83.3 215.1 83.2 C 214.8 83 214.7 82.8 214.6 82.6 C 214.4 82.3 214.4 81.8 214.4 81 C 214.4 81.04 214.4 76.7 214.4 76.7 L 213.5 76.7 L 213.5 75.7 L 214.4 75.7 L 214.4 73.8 L 215.7 73 L 215.7 75.7 L 217 75.7 L 217 76.7 L 215.7 76.7 C 215.7 76.7 215.68 81.12 215.7 81.1 C 215.7 81.5 215.7 81.7 215.7 81.8 C 215.8 81.9 215.9 82 216 82.1 C 216.1 82.1 216.2 82.2 216.4 82.2 C 216.4 82.2 216.4 82.2 216.4 82.2 Z M 218.2 74.3 L 218.2 72.8 L 219.5 72.8 L 219.5 74.3 L 218.2 74.3 Z M 218.2 83.3 L 218.2 75.7 L 219.5 75.7 L 219.5 83.3 L 218.2 83.3 Z M 221 79.5 C 221 78.1 221.4 77 222.2 76.3 C 222.8 75.8 223.6 75.5 224.6 75.5 C 225.6 75.5 226.5 75.8 227.1 76.5 C 227.8 77.2 228.1 78.2 228.1 79.4 C 228.1 80.3 228 81.1 227.7 81.7 C 227.4 82.2 227 82.7 226.4 83 C 225.9 83.3 225.2 83.4 224.6 83.4 C 223.5 83.4 222.7 83.1 222 82.4 C 221.3 81.7 221 80.8 221 79.5 Z M 222.3 79.5 C 222.3 80.4 222.6 81.2 223 81.7 C 223.4 82.1 223.9 82.4 224.6 82.4 C 225.2 82.4 225.8 82.1 226.2 81.7 C 226.6 81.2 226.8 80.4 226.8 79.4 C 226.8 78.5 226.6 77.8 226.2 77.3 C 225.7 76.8 225.2 76.6 224.6 76.6 C 223.9 76.6 223.4 76.8 223 77.3 C 222.6 77.8 222.3 78.5 222.3 79.5 Z M 229.6 83.3 L 229.6 75.7 L 230.8 75.7 C 230.8 75.7 230.81 76.75 230.8 76.7 C 231.4 75.9 232.2 75.5 233.2 75.5 C 233.7 75.5 234.1 75.6 234.5 75.7 C 234.9 75.9 235.2 76.1 235.4 76.4 C 235.5 76.7 235.7 77 235.8 77.3 C 235.8 77.6 235.8 78 235.8 78.6 C 235.83 78.6 235.8 83.3 235.8 83.3 L 234.5 83.3 C 234.5 83.3 234.54 78.65 234.5 78.6 C 234.5 78.1 234.5 77.7 234.4 77.5 C 234.3 77.2 234.1 77 233.9 76.8 C 233.6 76.7 233.3 76.6 233 76.6 C 232.4 76.6 231.9 76.8 231.5 77.1 C 231.1 77.5 230.9 78.1 230.9 79.1 C 230.94 79.12 230.9 83.3 230.9 83.3 L 229.6 83.3 Z M 243 83.3 C 242.9 83 242.8 82.7 242.8 82.3 C 242.3 82.7 241.8 83 241.4 83.2 C 240.9 83.4 240.5 83.4 240 83.4 C 239.1 83.4 238.5 83.2 238 82.8 C 237.6 82.4 237.4 81.9 237.4 81.3 C 237.4 80.9 237.5 80.6 237.6 80.2 C 237.8 79.9 238 79.7 238.3 79.5 C 238.6 79.3 238.9 79.2 239.2 79.1 C 239.5 79 239.9 79 240.4 78.9 C 241.4 78.8 242.2 78.6 242.7 78.4 C 242.7 78.3 242.7 78.2 242.7 78.1 C 242.7 77.6 242.5 77.2 242.3 77 C 242 76.7 241.5 76.6 240.8 76.6 C 240.2 76.6 239.8 76.7 239.5 76.9 C 239.2 77.1 239 77.5 238.9 78 C 238.9 78 237.6 77.8 237.6 77.8 C 237.7 77.3 237.9 76.9 238.2 76.5 C 238.4 76.2 238.8 75.9 239.3 75.8 C 239.8 75.6 240.4 75.5 241 75.5 C 241.7 75.5 242.2 75.6 242.6 75.7 C 243 75.9 243.3 76.1 243.5 76.3 C 243.7 76.5 243.8 76.8 243.9 77.2 C 243.9 77.4 244 77.8 244 78.4 C 244 78.4 244 80.1 244 80.1 C 244 81.3 244 82 244 82.4 C 244.1 82.7 244.2 83 244.4 83.3 C 244.37 83.27 243 83.3 243 83.3 C 243 83.3 243.03 83.27 243 83.3 Z M 242.7 79.5 C 242.2 79.6 241.5 79.8 240.6 79.9 C 240 80 239.7 80.1 239.4 80.2 C 239.2 80.3 239 80.4 238.9 80.6 C 238.8 80.8 238.7 81 238.7 81.2 C 238.7 81.6 238.9 81.9 239.1 82.1 C 239.4 82.3 239.8 82.4 240.3 82.4 C 240.8 82.4 241.2 82.3 241.6 82.1 C 242 81.9 242.3 81.6 242.5 81.2 C 242.6 80.9 242.7 80.5 242.7 79.9 C 242.7 79.9 242.7 79.5 242.7 79.5 Z M 245.9 83.3 L 245.9 72.8 L 247.2 72.8 L 247.2 83.3 L 245.9 83.3 Z " stroke="none" fill="#fff"/>  </g>  <g id="Polygon65505">    <path d="M 35.5 65.7 L 35.5 59.1 L 34.4 59.1 L 34.4 58.1 L 35.5 58.1 C 35.5 58.1 35.53 57.26 35.5 57.3 C 35.5 56.7 35.6 56.4 35.7 56.1 C 35.8 55.8 36 55.5 36.3 55.3 C 36.6 55.1 37.1 55 37.6 55 C 38 55 38.4 55 38.8 55.1 C 38.8 55.1 38.6 56.2 38.6 56.2 C 38.4 56.2 38.1 56.2 37.9 56.2 C 37.5 56.2 37.2 56.3 37.1 56.4 C 36.9 56.6 36.8 56.9 36.8 57.4 C 36.81 57.36 36.8 58.1 36.8 58.1 L 38.3 58.1 L 38.3 59.1 L 36.8 59.1 L 36.8 65.7 L 35.5 65.7 Z M 39.3 65.7 L 39.3 58.1 L 40.4 58.1 C 40.4 58.1 40.44 59.22 40.4 59.2 C 40.7 58.7 41 58.3 41.3 58.2 C 41.5 58 41.8 57.9 42.1 57.9 C 42.5 57.9 43 58 43.4 58.3 C 43.4 58.3 43 59.5 43 59.5 C 42.7 59.3 42.3 59.2 42 59.2 C 41.7 59.2 41.5 59.3 41.3 59.5 C 41 59.7 40.9 59.9 40.8 60.2 C 40.6 60.6 40.6 61.1 40.6 61.7 C 40.57 61.69 40.6 65.7 40.6 65.7 L 39.3 65.7 Z M 43.7 61.9 C 43.7 60.5 44.1 59.4 44.9 58.7 C 45.5 58.2 46.3 57.9 47.3 57.9 C 48.3 57.9 49.2 58.2 49.8 58.9 C 50.5 59.6 50.8 60.6 50.8 61.8 C 50.8 62.7 50.7 63.5 50.4 64.1 C 50.1 64.6 49.7 65.1 49.1 65.4 C 48.5 65.7 47.9 65.8 47.3 65.8 C 46.2 65.8 45.3 65.5 44.7 64.8 C 44 64.1 43.7 63.2 43.7 61.9 Z M 45 61.9 C 45 62.8 45.2 63.6 45.7 64.1 C 46.1 64.5 46.6 64.8 47.3 64.8 C 47.9 64.8 48.4 64.5 48.9 64.1 C 49.3 63.6 49.5 62.8 49.5 61.8 C 49.5 60.9 49.3 60.2 48.9 59.7 C 48.4 59.2 47.9 59 47.3 59 C 46.6 59 46.1 59.2 45.7 59.7 C 45.2 60.2 45 60.9 45 61.9 Z M 52.3 65.7 L 52.3 58.1 L 53.5 58.1 C 53.5 58.1 53.49 59.13 53.5 59.1 C 53.7 58.8 54 58.5 54.4 58.2 C 54.8 58 55.3 57.9 55.8 57.9 C 56.4 57.9 56.8 58 57.2 58.2 C 57.5 58.5 57.8 58.8 57.9 59.2 C 58.5 58.3 59.3 57.9 60.3 57.9 C 61 57.9 61.6 58.1 62 58.5 C 62.4 58.9 62.6 59.6 62.6 60.5 C 62.64 60.45 62.6 65.7 62.6 65.7 L 61.4 65.7 C 61.4 65.7 61.36 60.88 61.4 60.9 C 61.4 60.4 61.3 60 61.2 59.8 C 61.2 59.5 61 59.4 60.8 59.2 C 60.6 59.1 60.3 59 60 59 C 59.5 59 59 59.2 58.7 59.5 C 58.3 59.9 58.1 60.5 58.1 61.3 C 58.15 61.25 58.1 65.7 58.1 65.7 L 56.9 65.7 C 56.9 65.7 56.86 60.73 56.9 60.7 C 56.9 60.2 56.8 59.7 56.5 59.4 C 56.3 59.2 56 59 55.5 59 C 55.1 59 54.8 59.1 54.5 59.3 C 54.2 59.5 54 59.8 53.8 60.1 C 53.7 60.5 53.6 61 53.6 61.7 C 53.63 61.73 53.6 65.7 53.6 65.7 L 52.3 65.7 Z M 73.6 62.9 C 73.6 62.9 74.9 63.1 74.9 63.1 C 74.7 63.9 74.4 64.6 73.8 65.1 C 73.2 65.6 72.5 65.8 71.7 65.8 C 70.7 65.8 69.8 65.5 69.2 64.8 C 68.6 64.1 68.2 63.2 68.2 61.9 C 68.2 61.1 68.4 60.4 68.6 59.7 C 68.9 59.1 69.3 58.7 69.9 58.4 C 70.4 58 71 57.9 71.7 57.9 C 72.5 57.9 73.2 58.1 73.7 58.5 C 74.3 58.9 74.6 59.5 74.7 60.3 C 74.7 60.3 73.5 60.5 73.5 60.5 C 73.4 60 73.2 59.6 72.9 59.3 C 72.6 59.1 72.2 59 71.8 59 C 71.1 59 70.6 59.2 70.2 59.7 C 69.8 60.1 69.6 60.9 69.6 61.9 C 69.6 62.9 69.8 63.6 70.1 64.1 C 70.5 64.6 71.1 64.8 71.7 64.8 C 72.2 64.8 72.6 64.6 72.9 64.3 C 73.3 64 73.5 63.5 73.6 62.9 Z M 75.9 65.7 L 75.9 55.2 L 77.2 55.2 L 77.2 65.7 L 75.9 65.7 Z M 79.2 56.7 L 79.2 55.2 L 80.5 55.2 L 80.5 56.7 L 79.2 56.7 Z M 79.2 65.7 L 79.2 58.1 L 80.5 58.1 L 80.5 65.7 L 79.2 65.7 Z M 87.7 63.2 C 87.7 63.2 89 63.4 89 63.4 C 88.8 64.2 88.4 64.8 87.9 65.2 C 87.3 65.6 86.6 65.8 85.7 65.8 C 84.6 65.8 83.7 65.5 83 64.8 C 82.4 64.1 82.1 63.2 82.1 61.9 C 82.1 60.7 82.4 59.7 83 59 C 83.7 58.2 84.6 57.9 85.6 57.9 C 86.6 57.9 87.5 58.2 88.1 58.9 C 88.7 59.6 89.1 60.6 89.1 61.9 C 89.1 61.9 89.1 62 89.1 62.2 C 89.1 62.2 83.4 62.2 83.4 62.2 C 83.4 63 83.7 63.7 84.1 64.1 C 84.5 64.6 85 64.8 85.7 64.8 C 86.2 64.8 86.6 64.7 86.9 64.4 C 87.2 64.2 87.5 63.8 87.7 63.2 Z M 83.5 61.1 C 83.5 61.1 87.7 61.1 87.7 61.1 C 87.6 60.5 87.5 60 87.2 59.7 C 86.8 59.2 86.3 59 85.6 59 C 85 59 84.5 59.2 84.1 59.5 C 83.7 59.9 83.5 60.5 83.5 61.1 Z M 90.6 65.7 L 90.6 58.1 L 91.8 58.1 C 91.8 58.1 91.8 59.15 91.8 59.1 C 92.4 58.3 93.2 57.9 94.2 57.9 C 94.7 57.9 95.1 58 95.5 58.1 C 95.9 58.3 96.2 58.5 96.3 58.8 C 96.5 59.1 96.7 59.4 96.7 59.7 C 96.8 60 96.8 60.4 96.8 61 C 96.82 61 96.8 65.7 96.8 65.7 L 95.5 65.7 C 95.5 65.7 95.53 61.05 95.5 61 C 95.5 60.5 95.5 60.1 95.4 59.9 C 95.3 59.6 95.1 59.4 94.8 59.2 C 94.6 59.1 94.3 59 93.9 59 C 93.4 59 92.9 59.2 92.5 59.5 C 92.1 59.9 91.9 60.5 91.9 61.5 C 91.93 61.52 91.9 65.7 91.9 65.7 L 90.6 65.7 Z M 101 64.6 C 101.2 64.6 101.4 64.6 101.6 64.5 C 101.6 64.5 101.8 65.7 101.8 65.7 C 101.4 65.7 101.1 65.8 100.8 65.8 C 100.4 65.8 100 65.7 99.7 65.6 C 99.5 65.4 99.3 65.2 99.2 65 C 99.1 64.7 99 64.2 99 63.4 C 99.03 63.44 99 59.1 99 59.1 L 98.1 59.1 L 98.1 58.1 L 99 58.1 L 99 56.2 L 100.3 55.4 L 100.3 58.1 L 101.6 58.1 L 101.6 59.1 L 100.3 59.1 C 100.3 59.1 100.31 63.52 100.3 63.5 C 100.3 63.9 100.3 64.1 100.4 64.2 C 100.4 64.3 100.5 64.4 100.6 64.5 C 100.7 64.5 100.9 64.6 101 64.6 C 101 64.6 101 64.6 101 64.6 Z M 102.4 63.4 C 102.4 63.4 103.6 63.2 103.6 63.2 C 103.7 63.7 103.9 64.1 104.2 64.4 C 104.6 64.6 105 64.8 105.6 64.8 C 106.2 64.8 106.6 64.7 106.9 64.4 C 107.2 64.2 107.3 63.9 107.3 63.6 C 107.3 63.3 107.2 63.1 107 62.9 C 106.8 62.8 106.4 62.6 105.6 62.4 C 104.7 62.2 104 62 103.7 61.8 C 103.3 61.7 103 61.4 102.9 61.1 C 102.7 60.8 102.6 60.5 102.6 60.1 C 102.6 59.7 102.6 59.4 102.8 59.1 C 103 58.9 103.2 58.6 103.4 58.4 C 103.6 58.3 103.9 58.2 104.3 58 C 104.6 57.9 105 57.9 105.4 57.9 C 106 57.9 106.5 58 106.9 58.2 C 107.4 58.3 107.7 58.6 107.9 58.9 C 108.2 59.1 108.3 59.5 108.4 60 C 108.4 60 107.1 60.2 107.1 60.2 C 107.1 59.8 106.9 59.5 106.6 59.3 C 106.4 59.1 106 59 105.5 59 C 104.9 59 104.4 59.1 104.2 59.2 C 103.9 59.4 103.8 59.7 103.8 59.9 C 103.8 60.1 103.9 60.3 104 60.4 C 104.1 60.5 104.2 60.6 104.5 60.7 C 104.6 60.8 105 60.9 105.6 61.1 C 106.5 61.3 107.2 61.5 107.5 61.7 C 107.9 61.8 108.2 62 108.4 62.3 C 108.6 62.6 108.7 63 108.7 63.4 C 108.7 63.9 108.5 64.3 108.3 64.7 C 108 65 107.7 65.3 107.2 65.5 C 106.7 65.7 106.2 65.8 105.6 65.8 C 104.6 65.8 103.9 65.6 103.3 65.2 C 102.8 64.8 102.5 64.2 102.4 63.4 Z M 115.7 65.7 L 113.4 58.1 L 114.7 58.1 L 115.9 62.5 C 115.9 62.5 116.35 64.09 116.3 64.1 C 116.4 64 116.5 63.5 116.7 62.5 C 116.74 62.52 118 58.1 118 58.1 L 119.3 58.1 L 120.4 62.5 L 120.8 63.9 L 121.2 62.5 L 122.5 58.1 L 123.8 58.1 L 121.4 65.7 L 120.1 65.7 L 118.9 61.1 L 118.6 59.8 L 117 65.7 L 115.7 65.7 Z M 124.9 65.7 L 124.9 55.2 L 126.2 55.2 C 126.2 55.2 126.16 58.94 126.2 58.9 C 126.8 58.2 127.5 57.9 128.4 57.9 C 129 57.9 129.5 58 129.9 58.2 C 130.3 58.4 130.6 58.8 130.8 59.1 C 131 59.5 131.1 60.1 131.1 60.9 C 131.07 60.85 131.1 65.7 131.1 65.7 L 129.8 65.7 C 129.8 65.7 129.78 60.85 129.8 60.9 C 129.8 60.2 129.6 59.7 129.4 59.4 C 129.1 59.2 128.7 59 128.2 59 C 127.8 59 127.4 59.1 127.1 59.3 C 126.8 59.5 126.5 59.8 126.4 60.1 C 126.2 60.4 126.2 60.9 126.2 61.5 C 126.16 61.51 126.2 65.7 126.2 65.7 L 124.9 65.7 Z M 132.5 61.9 C 132.5 60.5 132.9 59.4 133.7 58.7 C 134.4 58.2 135.2 57.9 136.1 57.9 C 137.2 57.9 138 58.2 138.7 58.9 C 139.3 59.6 139.7 60.6 139.7 61.8 C 139.7 62.7 139.5 63.5 139.2 64.1 C 138.9 64.6 138.5 65.1 138 65.4 C 137.4 65.7 136.8 65.8 136.1 65.8 C 135 65.8 134.2 65.5 133.5 64.8 C 132.9 64.1 132.5 63.2 132.5 61.9 Z M 133.9 61.9 C 133.9 62.8 134.1 63.6 134.5 64.1 C 134.9 64.5 135.5 64.8 136.1 64.8 C 136.8 64.8 137.3 64.5 137.7 64.1 C 138.1 63.6 138.3 62.8 138.3 61.8 C 138.3 60.9 138.1 60.2 137.7 59.7 C 137.3 59.2 136.7 59 136.1 59 C 135.5 59 134.9 59.2 134.5 59.7 C 134.1 60.2 133.9 60.9 133.9 61.9 Z M 146.7 65.7 L 144.3 58.1 L 145.7 58.1 L 146.9 62.5 C 146.9 62.5 147.33 64.09 147.3 64.1 C 147.3 64 147.5 63.5 147.7 62.5 C 147.72 62.52 148.9 58.1 148.9 58.1 L 150.3 58.1 L 151.4 62.5 L 151.8 63.9 L 152.2 62.5 L 153.5 58.1 L 154.8 58.1 L 152.4 65.7 L 151.1 65.7 L 149.8 61.1 L 149.5 59.8 L 148 65.7 L 146.7 65.7 Z M 161.1 65.7 C 160.9 65.4 160.9 65.1 160.8 64.7 C 160.3 65.1 159.9 65.4 159.4 65.6 C 159 65.8 158.5 65.8 158 65.8 C 157.2 65.8 156.5 65.6 156.1 65.2 C 155.6 64.8 155.4 64.3 155.4 63.7 C 155.4 63.3 155.5 63 155.7 62.6 C 155.8 62.3 156.1 62.1 156.3 61.9 C 156.6 61.7 156.9 61.6 157.3 61.5 C 157.5 61.4 157.9 61.4 158.4 61.3 C 159.4 61.2 160.2 61 160.7 60.8 C 160.7 60.7 160.7 60.6 160.7 60.5 C 160.7 60 160.6 59.6 160.3 59.4 C 160 59.1 159.5 59 158.9 59 C 158.3 59 157.8 59.1 157.5 59.3 C 157.2 59.5 157 59.9 156.9 60.4 C 156.9 60.4 155.6 60.2 155.6 60.2 C 155.8 59.7 155.9 59.3 156.2 58.9 C 156.5 58.6 156.8 58.3 157.3 58.2 C 157.8 58 158.4 57.9 159.1 57.9 C 159.7 57.9 160.2 58 160.6 58.1 C 161.1 58.3 161.4 58.5 161.5 58.7 C 161.7 58.9 161.9 59.2 161.9 59.6 C 162 59.8 162 60.2 162 60.8 C 162 60.8 162 62.5 162 62.5 C 162 63.7 162 64.4 162.1 64.8 C 162.1 65.1 162.3 65.4 162.4 65.7 C 162.42 65.67 161.1 65.7 161.1 65.7 C 161.1 65.7 161.07 65.67 161.1 65.7 Z M 160.7 61.9 C 160.2 62 159.5 62.2 158.6 62.3 C 158.1 62.4 157.7 62.5 157.5 62.6 C 157.3 62.7 157.1 62.8 157 63 C 156.8 63.2 156.8 63.4 156.8 63.6 C 156.8 64 156.9 64.3 157.2 64.5 C 157.4 64.7 157.8 64.8 158.3 64.8 C 158.8 64.8 159.3 64.7 159.6 64.5 C 160 64.3 160.3 64 160.5 63.6 C 160.6 63.3 160.7 62.9 160.7 62.3 C 160.7 62.3 160.7 61.9 160.7 61.9 Z M 164 65.7 L 164 58.1 L 165.2 58.1 C 165.2 58.1 165.17 59.15 165.2 59.1 C 165.7 58.3 166.5 57.9 167.6 57.9 C 168 57.9 168.5 58 168.9 58.1 C 169.2 58.3 169.5 58.5 169.7 58.8 C 169.9 59.1 170 59.4 170.1 59.7 C 170.2 60 170.2 60.4 170.2 61 C 170.19 61 170.2 65.7 170.2 65.7 L 168.9 65.7 C 168.9 65.7 168.9 61.05 168.9 61 C 168.9 60.5 168.8 60.1 168.7 59.9 C 168.6 59.6 168.5 59.4 168.2 59.2 C 168 59.1 167.7 59 167.3 59 C 166.8 59 166.3 59.2 165.9 59.5 C 165.5 59.9 165.3 60.5 165.3 61.5 C 165.3 61.52 165.3 65.7 165.3 65.7 L 164 65.7 Z M 174.4 64.6 C 174.6 64.6 174.7 64.6 175 64.5 C 175 64.5 175.2 65.7 175.2 65.7 C 174.8 65.7 174.5 65.8 174.2 65.8 C 173.7 65.8 173.4 65.7 173.1 65.6 C 172.8 65.4 172.7 65.2 172.6 65 C 172.5 64.7 172.4 64.2 172.4 63.4 C 172.4 63.44 172.4 59.1 172.4 59.1 L 171.5 59.1 L 171.5 58.1 L 172.4 58.1 L 172.4 56.2 L 173.7 55.4 L 173.7 58.1 L 175 58.1 L 175 59.1 L 173.7 59.1 C 173.7 59.1 173.68 63.52 173.7 63.5 C 173.7 63.9 173.7 64.1 173.8 64.2 C 173.8 64.3 173.9 64.4 174 64.5 C 174.1 64.5 174.2 64.6 174.4 64.6 C 174.4 64.6 174.4 64.6 174.4 64.6 Z M 181.4 63.2 C 181.4 63.2 182.8 63.4 182.8 63.4 C 182.6 64.2 182.2 64.8 181.6 65.2 C 181 65.6 180.3 65.8 179.4 65.8 C 178.3 65.8 177.4 65.5 176.8 64.8 C 176.1 64.1 175.8 63.2 175.8 61.9 C 175.8 60.7 176.1 59.7 176.8 59 C 177.5 58.2 178.3 57.9 179.4 57.9 C 180.4 57.9 181.2 58.2 181.9 58.9 C 182.5 59.6 182.8 60.6 182.8 61.9 C 182.8 61.9 182.8 62 182.8 62.2 C 182.8 62.2 177.1 62.2 177.1 62.2 C 177.2 63 177.4 63.7 177.9 64.1 C 178.3 64.6 178.8 64.8 179.4 64.8 C 179.9 64.8 180.3 64.7 180.7 64.4 C 181 64.2 181.3 63.8 181.4 63.2 Z M 177.2 61.1 C 177.2 61.1 181.5 61.1 181.5 61.1 C 181.4 60.5 181.2 60 181 59.7 C 180.6 59.2 180 59 179.4 59 C 178.8 59 178.3 59.2 177.9 59.5 C 177.5 59.9 177.3 60.5 177.2 61.1 Z M 189.3 65.7 C 189.3 65.7 189.33 64.71 189.3 64.7 C 188.8 65.5 188.1 65.8 187.2 65.8 C 186.6 65.8 186 65.7 185.5 65.3 C 185 65 184.6 64.5 184.3 63.9 C 184.1 63.3 183.9 62.7 183.9 61.9 C 183.9 61.1 184.1 60.4 184.3 59.8 C 184.6 59.2 184.9 58.7 185.4 58.4 C 186 58.1 186.5 57.9 187.1 57.9 C 187.6 57.9 188 58 188.4 58.2 C 188.7 58.4 189 58.6 189.2 58.9 C 189.24 58.94 189.2 55.2 189.2 55.2 L 190.5 55.2 L 190.5 65.7 L 189.3 65.7 Z M 185.3 61.9 C 185.3 62.9 185.5 63.6 185.9 64.1 C 186.3 64.5 186.8 64.8 187.3 64.8 C 187.9 64.8 188.4 64.6 188.8 64.1 C 189.2 63.6 189.4 62.9 189.4 62 C 189.4 60.9 189.2 60.2 188.8 59.7 C 188.3 59.2 187.9 59 187.3 59 C 186.7 59 186.2 59.2 185.8 59.7 C 185.4 60.1 185.3 60.9 185.3 61.9 Z M 196.6 65.7 L 196.6 58.1 L 197.8 58.1 C 197.8 58.1 197.78 59.13 197.8 59.1 C 198 58.8 198.3 58.5 198.7 58.2 C 199.1 58 199.6 57.9 200.1 57.9 C 200.7 57.9 201.1 58 201.5 58.2 C 201.8 58.5 202.1 58.8 202.2 59.2 C 202.8 58.3 203.6 57.9 204.6 57.9 C 205.3 57.9 205.9 58.1 206.3 58.5 C 206.7 58.9 206.9 59.6 206.9 60.5 C 206.93 60.45 206.9 65.7 206.9 65.7 L 205.7 65.7 C 205.7 65.7 205.65 60.88 205.7 60.9 C 205.7 60.4 205.6 60 205.5 59.8 C 205.4 59.5 205.3 59.4 205.1 59.2 C 204.9 59.1 204.6 59 204.3 59 C 203.8 59 203.3 59.2 203 59.5 C 202.6 59.9 202.4 60.5 202.4 61.3 C 202.44 61.25 202.4 65.7 202.4 65.7 L 201.1 65.7 C 201.1 65.7 201.15 60.73 201.1 60.7 C 201.1 60.2 201 59.7 200.8 59.4 C 200.6 59.2 200.3 59 199.8 59 C 199.4 59 199.1 59.1 198.8 59.3 C 198.5 59.5 198.3 59.8 198.1 60.1 C 198 60.5 197.9 61 197.9 61.7 C 197.92 61.73 197.9 65.7 197.9 65.7 L 196.6 65.7 Z M 208.4 61.9 C 208.4 60.5 208.8 59.4 209.5 58.7 C 210.2 58.2 211 57.9 211.9 57.9 C 213 57.9 213.8 58.2 214.5 58.9 C 215.2 59.6 215.5 60.6 215.5 61.8 C 215.5 62.7 215.3 63.5 215.1 64.1 C 214.8 64.6 214.3 65.1 213.8 65.4 C 213.2 65.7 212.6 65.8 211.9 65.8 C 210.9 65.8 210 65.5 209.4 64.8 C 208.7 64.1 208.4 63.2 208.4 61.9 Z M 209.7 61.9 C 209.7 62.8 209.9 63.6 210.3 64.1 C 210.8 64.5 211.3 64.8 211.9 64.8 C 212.6 64.8 213.1 64.5 213.5 64.1 C 214 63.6 214.2 62.8 214.2 61.8 C 214.2 60.9 214 60.2 213.5 59.7 C 213.1 59.2 212.6 59 211.9 59 C 211.3 59 210.8 59.2 210.3 59.7 C 209.9 60.2 209.7 60.9 209.7 61.9 Z M 217 65.7 L 217 58.1 L 218.1 58.1 C 218.1 58.1 218.15 59.22 218.1 59.2 C 218.4 58.7 218.7 58.3 219 58.2 C 219.2 58 219.5 57.9 219.8 57.9 C 220.2 57.9 220.7 58 221.1 58.3 C 221.1 58.3 220.7 59.5 220.7 59.5 C 220.4 59.3 220 59.2 219.7 59.2 C 219.4 59.2 219.2 59.3 219 59.5 C 218.7 59.7 218.6 59.9 218.5 60.2 C 218.3 60.6 218.3 61.1 218.3 61.7 C 218.28 61.69 218.3 65.7 218.3 65.7 L 217 65.7 Z M 227.1 63.2 C 227.1 63.2 228.4 63.4 228.4 63.4 C 228.2 64.2 227.8 64.8 227.3 65.2 C 226.7 65.6 226 65.8 225.1 65.8 C 224 65.8 223.1 65.5 222.4 64.8 C 221.8 64.1 221.5 63.2 221.5 61.9 C 221.5 60.7 221.8 59.7 222.4 59 C 223.1 58.2 224 57.9 225 57.9 C 226 57.9 226.9 58.2 227.5 58.9 C 228.1 59.6 228.5 60.6 228.5 61.9 C 228.5 61.9 228.5 62 228.5 62.2 C 228.5 62.2 222.8 62.2 222.8 62.2 C 222.8 63 223.1 63.7 223.5 64.1 C 223.9 64.6 224.5 64.8 225.1 64.8 C 225.6 64.8 226 64.7 226.3 64.4 C 226.6 64.2 226.9 63.8 227.1 63.2 Z M 222.9 61.1 C 222.9 61.1 227.1 61.1 227.1 61.1 C 227.1 60.5 226.9 60 226.6 59.7 C 226.2 59.2 225.7 59 225 59 C 224.4 59 223.9 59.2 223.5 59.5 C 223.1 59.9 222.9 60.5 222.9 61.1 Z " stroke="none" fill="#fff"/>  </g>  <g id="Polygon65504">    <path d="M 25.5 48.1 C 25.5 48.1 25.46 47.11 25.5 47.1 C 25 47.9 24.3 48.2 23.3 48.2 C 22.7 48.2 22.2 48.1 21.7 47.7 C 21.1 47.4 20.8 46.9 20.5 46.3 C 20.2 45.7 20.1 45.1 20.1 44.3 C 20.1 43.5 20.2 42.8 20.4 42.2 C 20.7 41.6 21.1 41.1 21.6 40.8 C 22.1 40.5 22.6 40.3 23.3 40.3 C 23.7 40.3 24.1 40.4 24.5 40.6 C 24.9 40.8 25.1 41 25.4 41.3 C 25.37 41.34 25.4 37.6 25.4 37.6 L 26.7 37.6 L 26.7 48.1 L 25.5 48.1 Z M 21.4 44.3 C 21.4 45.3 21.6 46 22 46.5 C 22.4 46.9 22.9 47.2 23.5 47.2 C 24 47.2 24.5 47 24.9 46.5 C 25.3 46 25.5 45.3 25.5 44.4 C 25.5 43.3 25.3 42.6 24.9 42.1 C 24.5 41.6 24 41.4 23.4 41.4 C 22.8 41.4 22.3 41.6 22 42.1 C 21.6 42.5 21.4 43.3 21.4 44.3 Z M 33.9 45.6 C 33.9 45.6 35.2 45.8 35.2 45.8 C 35 46.6 34.6 47.2 34 47.6 C 33.5 48 32.8 48.2 31.9 48.2 C 30.8 48.2 29.9 47.9 29.2 47.2 C 28.6 46.5 28.2 45.6 28.2 44.3 C 28.2 43.1 28.6 42.1 29.2 41.4 C 29.9 40.6 30.7 40.3 31.8 40.3 C 32.8 40.3 33.6 40.6 34.3 41.3 C 34.9 42 35.3 43 35.3 44.3 C 35.3 44.3 35.3 44.4 35.3 44.6 C 35.3 44.6 29.6 44.6 29.6 44.6 C 29.6 45.4 29.9 46.1 30.3 46.5 C 30.7 47 31.2 47.2 31.9 47.2 C 32.4 47.2 32.8 47.1 33.1 46.8 C 33.4 46.6 33.7 46.2 33.9 45.6 Z M 29.7 43.5 C 29.7 43.5 33.9 43.5 33.9 43.5 C 33.8 42.9 33.7 42.4 33.4 42.1 C 33 41.6 32.5 41.4 31.8 41.4 C 31.2 41.4 30.7 41.6 30.3 41.9 C 29.9 42.3 29.7 42.9 29.7 43.5 Z M 38.9 48.1 L 36.1 40.5 L 37.4 40.5 C 37.4 40.5 39.05 45.02 39 45 C 39.2 45.5 39.4 46 39.5 46.6 C 39.6 46.2 39.8 45.7 40 45.1 C 40.01 45.11 41.7 40.5 41.7 40.5 L 43 40.5 L 40.2 48.1 L 38.9 48.1 Z M 49.4 45.6 C 49.4 45.6 50.7 45.8 50.7 45.8 C 50.5 46.6 50.1 47.2 49.5 47.6 C 49 48 48.2 48.2 47.4 48.2 C 46.2 48.2 45.4 47.9 44.7 47.2 C 44.1 46.5 43.7 45.6 43.7 44.3 C 43.7 43.1 44.1 42.1 44.7 41.4 C 45.4 40.6 46.2 40.3 47.3 40.3 C 48.3 40.3 49.1 40.6 49.8 41.3 C 50.4 42 50.7 43 50.7 44.3 C 50.7 44.3 50.7 44.4 50.7 44.6 C 50.7 44.6 45.1 44.6 45.1 44.6 C 45.1 45.4 45.4 46.1 45.8 46.5 C 46.2 47 46.7 47.2 47.4 47.2 C 47.8 47.2 48.2 47.1 48.6 46.8 C 48.9 46.6 49.2 46.2 49.4 45.6 Z M 45.1 43.5 C 45.1 43.5 49.4 43.5 49.4 43.5 C 49.3 42.9 49.2 42.4 48.9 42.1 C 48.5 41.6 48 41.4 47.3 41.4 C 46.7 41.4 46.2 41.6 45.8 41.9 C 45.4 42.3 45.2 42.9 45.1 43.5 Z M 52.3 48.1 L 52.3 37.6 L 53.6 37.6 L 53.6 48.1 L 52.3 48.1 Z M 55.1 44.3 C 55.1 42.9 55.5 41.8 56.3 41.1 C 56.9 40.6 57.7 40.3 58.7 40.3 C 59.7 40.3 60.6 40.6 61.2 41.3 C 61.9 42 62.2 43 62.2 44.2 C 62.2 45.1 62.1 45.9 61.8 46.5 C 61.5 47 61.1 47.5 60.5 47.8 C 59.9 48.1 59.3 48.2 58.7 48.2 C 57.6 48.2 56.7 47.9 56.1 47.2 C 55.4 46.5 55.1 45.6 55.1 44.3 Z M 56.4 44.3 C 56.4 45.2 56.6 46 57.1 46.5 C 57.5 46.9 58 47.2 58.7 47.2 C 59.3 47.2 59.8 46.9 60.3 46.5 C 60.7 46 60.9 45.2 60.9 44.2 C 60.9 43.3 60.7 42.6 60.3 42.1 C 59.8 41.6 59.3 41.4 58.7 41.4 C 58 41.4 57.5 41.6 57.1 42.1 C 56.6 42.6 56.4 43.3 56.4 44.3 Z M 63.7 51 L 63.7 40.5 L 64.9 40.5 C 64.9 40.5 64.91 41.46 64.9 41.5 C 65.2 41.1 65.5 40.8 65.9 40.6 C 66.2 40.4 66.6 40.3 67.1 40.3 C 67.8 40.3 68.3 40.5 68.8 40.8 C 69.3 41.1 69.7 41.6 70 42.2 C 70.2 42.8 70.3 43.5 70.3 44.2 C 70.3 45 70.2 45.7 69.9 46.3 C 69.6 46.9 69.2 47.4 68.7 47.7 C 68.2 48.1 67.6 48.2 67 48.2 C 66.6 48.2 66.2 48.2 65.9 48 C 65.5 47.8 65.2 47.6 65 47.3 C 65.03 47.28 65 51 65 51 L 63.7 51 Z M 64.9 44.3 C 64.9 45.3 65.1 46 65.5 46.5 C 65.9 47 66.4 47.2 66.9 47.2 C 67.5 47.2 68 46.9 68.4 46.5 C 68.8 46 69 45.2 69 44.2 C 69 43.2 68.8 42.5 68.4 42 C 68 41.5 67.6 41.3 67 41.3 C 66.4 41.3 66 41.6 65.5 42.1 C 65.1 42.6 64.9 43.3 64.9 44.3 Z M 77.1 45.6 C 77.1 45.6 78.4 45.8 78.4 45.8 C 78.2 46.6 77.8 47.2 77.3 47.6 C 76.7 48 76 48.2 75.1 48.2 C 74 48.2 73.1 47.9 72.4 47.2 C 71.8 46.5 71.5 45.6 71.5 44.3 C 71.5 43.1 71.8 42.1 72.5 41.4 C 73.1 40.6 74 40.3 75 40.3 C 76 40.3 76.9 40.6 77.5 41.3 C 78.2 42 78.5 43 78.5 44.3 C 78.5 44.3 78.5 44.4 78.5 44.6 C 78.5 44.6 72.8 44.6 72.8 44.6 C 72.8 45.4 73.1 46.1 73.5 46.5 C 73.9 47 74.5 47.2 75.1 47.2 C 75.6 47.2 76 47.1 76.3 46.8 C 76.6 46.6 76.9 46.2 77.1 45.6 Z M 72.9 43.5 C 72.9 43.5 77.1 43.5 77.1 43.5 C 77.1 42.9 76.9 42.4 76.6 42.1 C 76.2 41.6 75.7 41.4 75 41.4 C 74.4 41.4 73.9 41.6 73.5 41.9 C 73.1 42.3 72.9 42.9 72.9 43.5 Z M 85 48.1 C 85 48.1 84.99 47.11 85 47.1 C 84.5 47.9 83.8 48.2 82.9 48.2 C 82.3 48.2 81.7 48.1 81.2 47.7 C 80.7 47.4 80.3 46.9 80 46.3 C 79.7 45.7 79.6 45.1 79.6 44.3 C 79.6 43.5 79.7 42.8 80 42.2 C 80.2 41.6 80.6 41.1 81.1 40.8 C 81.6 40.5 82.2 40.3 82.8 40.3 C 83.3 40.3 83.7 40.4 84 40.6 C 84.4 40.8 84.7 41 84.9 41.3 C 84.9 41.34 84.9 37.6 84.9 37.6 L 86.2 37.6 L 86.2 48.1 L 85 48.1 Z M 80.9 44.3 C 80.9 45.3 81.1 46 81.5 46.5 C 81.9 46.9 82.4 47.2 83 47.2 C 83.5 47.2 84 47 84.4 46.5 C 84.8 46 85 45.3 85 44.4 C 85 43.3 84.8 42.6 84.4 42.1 C 84 41.6 83.5 41.4 82.9 41.4 C 82.4 41.4 81.9 41.6 81.5 42.1 C 81.1 42.5 80.9 43.3 80.9 44.3 Z M 92.3 39.1 L 92.3 37.6 L 93.6 37.6 L 93.6 39.1 L 92.3 39.1 Z M 92.3 48.1 L 92.3 40.5 L 93.6 40.5 L 93.6 48.1 L 92.3 48.1 Z M 95.5 48.1 L 95.5 40.5 L 96.7 40.5 C 96.7 40.5 96.7 41.55 96.7 41.5 C 97.3 40.7 98.1 40.3 99.1 40.3 C 99.6 40.3 100 40.4 100.4 40.5 C 100.8 40.7 101.1 40.9 101.3 41.2 C 101.4 41.5 101.6 41.8 101.7 42.1 C 101.7 42.4 101.7 42.8 101.7 43.4 C 101.72 43.4 101.7 48.1 101.7 48.1 L 100.4 48.1 C 100.4 48.1 100.44 43.45 100.4 43.4 C 100.4 42.9 100.4 42.5 100.3 42.3 C 100.2 42 100 41.8 99.8 41.6 C 99.5 41.5 99.2 41.4 98.9 41.4 C 98.3 41.4 97.8 41.6 97.4 41.9 C 97 42.3 96.8 42.9 96.8 43.9 C 96.83 43.92 96.8 48.1 96.8 48.1 L 95.5 48.1 Z M 107.8 48.1 L 107.8 40.5 L 108.9 40.5 C 108.9 40.5 108.92 41.62 108.9 41.6 C 109.2 41.1 109.5 40.7 109.7 40.6 C 110 40.4 110.3 40.3 110.6 40.3 C 111 40.3 111.4 40.4 111.9 40.7 C 111.9 40.7 111.4 41.9 111.4 41.9 C 111.1 41.7 110.8 41.6 110.5 41.6 C 110.2 41.6 110 41.7 109.7 41.9 C 109.5 42.1 109.4 42.3 109.3 42.6 C 109.1 43 109.1 43.5 109.1 44.1 C 109.05 44.09 109.1 48.1 109.1 48.1 L 107.8 48.1 Z M 117.9 45.6 C 117.9 45.6 119.2 45.8 119.2 45.8 C 119 46.6 118.6 47.2 118 47.6 C 117.5 48 116.7 48.2 115.9 48.2 C 114.7 48.2 113.9 47.9 113.2 47.2 C 112.6 46.5 112.2 45.6 112.2 44.3 C 112.2 43.1 112.6 42.1 113.2 41.4 C 113.9 40.6 114.7 40.3 115.8 40.3 C 116.8 40.3 117.6 40.6 118.3 41.3 C 118.9 42 119.2 43 119.2 44.3 C 119.2 44.3 119.2 44.4 119.2 44.6 C 119.2 44.6 113.6 44.6 113.6 44.6 C 113.6 45.4 113.8 46.1 114.3 46.5 C 114.7 47 115.2 47.2 115.9 47.2 C 116.3 47.2 116.7 47.1 117.1 46.8 C 117.4 46.6 117.7 46.2 117.9 45.6 Z M 113.6 43.5 C 113.6 43.5 117.9 43.5 117.9 43.5 C 117.8 42.9 117.7 42.4 117.4 42.1 C 117 41.6 116.5 41.4 115.8 41.4 C 115.2 41.4 114.7 41.6 114.3 41.9 C 113.9 42.3 113.7 42.9 113.6 43.5 Z M 120.3 45.8 C 120.3 45.8 121.6 45.6 121.6 45.6 C 121.6 46.1 121.8 46.5 122.2 46.8 C 122.5 47 123 47.2 123.5 47.2 C 124.1 47.2 124.6 47.1 124.9 46.8 C 125.1 46.6 125.3 46.3 125.3 46 C 125.3 45.7 125.2 45.5 124.9 45.3 C 124.7 45.2 124.3 45 123.6 44.8 C 122.7 44.6 122 44.4 121.6 44.2 C 121.3 44.1 121 43.8 120.8 43.5 C 120.6 43.2 120.5 42.9 120.5 42.5 C 120.5 42.1 120.6 41.8 120.7 41.5 C 120.9 41.3 121.1 41 121.4 40.8 C 121.6 40.7 121.9 40.6 122.2 40.4 C 122.5 40.3 122.9 40.3 123.3 40.3 C 123.9 40.3 124.4 40.4 124.9 40.6 C 125.3 40.7 125.7 41 125.9 41.3 C 126.1 41.5 126.3 41.9 126.3 42.4 C 126.3 42.4 125.1 42.6 125.1 42.6 C 125 42.2 124.8 41.9 124.6 41.7 C 124.3 41.5 123.9 41.4 123.4 41.4 C 122.8 41.4 122.4 41.5 122.1 41.6 C 121.9 41.8 121.8 42.1 121.8 42.3 C 121.8 42.5 121.8 42.7 121.9 42.8 C 122 42.9 122.2 43 122.4 43.1 C 122.5 43.2 122.9 43.3 123.6 43.5 C 124.5 43.7 125.1 43.9 125.5 44.1 C 125.8 44.2 126.1 44.4 126.3 44.7 C 126.5 45 126.6 45.4 126.6 45.8 C 126.6 46.3 126.5 46.7 126.2 47.1 C 126 47.4 125.6 47.7 125.2 47.9 C 124.7 48.1 124.1 48.2 123.6 48.2 C 122.6 48.2 121.8 48 121.3 47.6 C 120.8 47.2 120.4 46.6 120.3 45.8 Z M 128.2 51 L 128.2 40.5 L 129.3 40.5 C 129.3 40.5 129.32 41.46 129.3 41.5 C 129.6 41.1 129.9 40.8 130.3 40.6 C 130.6 40.4 131 40.3 131.5 40.3 C 132.2 40.3 132.8 40.5 133.2 40.8 C 133.7 41.1 134.1 41.6 134.4 42.2 C 134.6 42.8 134.8 43.5 134.8 44.2 C 134.8 45 134.6 45.7 134.3 46.3 C 134.1 46.9 133.6 47.4 133.1 47.7 C 132.6 48.1 132 48.2 131.4 48.2 C 131 48.2 130.6 48.2 130.3 48 C 129.9 47.8 129.7 47.6 129.4 47.3 C 129.44 47.28 129.4 51 129.4 51 L 128.2 51 Z M 129.3 44.3 C 129.3 45.3 129.5 46 129.9 46.5 C 130.3 47 130.8 47.2 131.4 47.2 C 131.9 47.2 132.4 46.9 132.8 46.5 C 133.2 46 133.4 45.2 133.4 44.2 C 133.4 43.2 133.2 42.5 132.8 42 C 132.4 41.5 132 41.3 131.4 41.3 C 130.9 41.3 130.4 41.6 130 42.1 C 129.5 42.6 129.3 43.3 129.3 44.3 Z M 135.8 44.3 C 135.8 42.9 136.2 41.8 137 41.1 C 137.7 40.6 138.5 40.3 139.4 40.3 C 140.4 40.3 141.3 40.6 142 41.3 C 142.6 42 143 43 143 44.2 C 143 45.1 142.8 45.9 142.5 46.5 C 142.2 47 141.8 47.5 141.2 47.8 C 140.7 48.1 140.1 48.2 139.4 48.2 C 138.3 48.2 137.5 47.9 136.8 47.2 C 136.2 46.5 135.8 45.6 135.8 44.3 Z M 137.2 44.3 C 137.2 45.2 137.4 46 137.8 46.5 C 138.2 46.9 138.7 47.2 139.4 47.2 C 140 47.2 140.6 46.9 141 46.5 C 141.4 46 141.6 45.2 141.6 44.2 C 141.6 43.3 141.4 42.6 141 42.1 C 140.6 41.6 140 41.4 139.4 41.4 C 138.7 41.4 138.2 41.6 137.8 42.1 C 137.4 42.6 137.2 43.3 137.2 44.3 Z M 144.5 48.1 L 144.5 40.5 L 145.6 40.5 C 145.6 40.5 145.62 41.55 145.6 41.5 C 146.2 40.7 147 40.3 148 40.3 C 148.5 40.3 148.9 40.4 149.3 40.5 C 149.7 40.7 150 40.9 150.2 41.2 C 150.4 41.5 150.5 41.8 150.6 42.1 C 150.6 42.4 150.6 42.8 150.6 43.4 C 150.64 43.4 150.6 48.1 150.6 48.1 L 149.4 48.1 C 149.4 48.1 149.36 43.45 149.4 43.4 C 149.4 42.9 149.3 42.5 149.2 42.3 C 149.1 42 148.9 41.8 148.7 41.6 C 148.4 41.5 148.1 41.4 147.8 41.4 C 147.2 41.4 146.7 41.6 146.4 41.9 C 146 42.3 145.8 42.9 145.8 43.9 C 145.75 43.92 145.8 48.1 145.8 48.1 L 144.5 48.1 Z M 152.1 45.8 C 152.1 45.8 153.4 45.6 153.4 45.6 C 153.5 46.1 153.7 46.5 154 46.8 C 154.3 47 154.8 47.2 155.3 47.2 C 155.9 47.2 156.4 47.1 156.7 46.8 C 157 46.6 157.1 46.3 157.1 46 C 157.1 45.7 157 45.5 156.7 45.3 C 156.5 45.2 156.1 45 155.4 44.8 C 154.5 44.6 153.8 44.4 153.4 44.2 C 153.1 44.1 152.8 43.8 152.6 43.5 C 152.4 43.2 152.3 42.9 152.3 42.5 C 152.3 42.1 152.4 41.8 152.6 41.5 C 152.7 41.3 152.9 41 153.2 40.8 C 153.4 40.7 153.7 40.6 154 40.4 C 154.4 40.3 154.7 40.3 155.1 40.3 C 155.7 40.3 156.2 40.4 156.7 40.6 C 157.1 40.7 157.5 41 157.7 41.3 C 157.9 41.5 158.1 41.9 158.1 42.4 C 158.1 42.4 156.9 42.6 156.9 42.6 C 156.8 42.2 156.7 41.9 156.4 41.7 C 156.1 41.5 155.7 41.4 155.2 41.4 C 154.6 41.4 154.2 41.5 153.9 41.6 C 153.7 41.8 153.6 42.1 153.6 42.3 C 153.6 42.5 153.6 42.7 153.7 42.8 C 153.8 42.9 154 43 154.2 43.1 C 154.3 43.2 154.7 43.3 155.4 43.5 C 156.3 43.7 156.9 43.9 157.3 44.1 C 157.6 44.2 157.9 44.4 158.1 44.7 C 158.3 45 158.4 45.4 158.4 45.8 C 158.4 46.3 158.3 46.7 158 47.1 C 157.8 47.4 157.4 47.7 157 47.9 C 156.5 48.1 156 48.2 155.4 48.2 C 154.4 48.2 153.6 48 153.1 47.6 C 152.6 47.2 152.2 46.6 152.1 45.8 Z M 165.2 45.6 C 165.2 45.6 166.5 45.8 166.5 45.8 C 166.3 46.6 165.9 47.2 165.3 47.6 C 164.8 48 164 48.2 163.1 48.2 C 162 48.2 161.2 47.9 160.5 47.2 C 159.9 46.5 159.5 45.6 159.5 44.3 C 159.5 43.1 159.9 42.1 160.5 41.4 C 161.2 40.6 162 40.3 163.1 40.3 C 164.1 40.3 164.9 40.6 165.6 41.3 C 166.2 42 166.5 43 166.5 44.3 C 166.5 44.3 166.5 44.4 166.5 44.6 C 166.5 44.6 160.9 44.6 160.9 44.6 C 160.9 45.4 161.1 46.1 161.6 46.5 C 162 47 162.5 47.2 163.2 47.2 C 163.6 47.2 164 47.1 164.4 46.8 C 164.7 46.6 165 46.2 165.2 45.6 Z M 160.9 43.5 C 160.9 43.5 165.2 43.5 165.2 43.5 C 165.1 42.9 165 42.4 164.7 42.1 C 164.3 41.6 163.7 41.4 163.1 41.4 C 162.5 41.4 162 41.6 161.6 41.9 C 161.2 42.3 161 42.9 160.9 43.5 Z M 174.4 47 C 174.6 47 174.8 47 175 46.9 C 175 46.9 175.2 48.1 175.2 48.1 C 174.8 48.1 174.5 48.2 174.2 48.2 C 173.7 48.2 173.4 48.1 173.1 48 C 172.9 47.8 172.7 47.6 172.6 47.4 C 172.5 47.1 172.4 46.6 172.4 45.8 C 172.42 45.84 172.4 41.5 172.4 41.5 L 171.5 41.5 L 171.5 40.5 L 172.4 40.5 L 172.4 38.6 L 173.7 37.8 L 173.7 40.5 L 175 40.5 L 175 41.5 L 173.7 41.5 C 173.7 41.5 173.7 45.92 173.7 45.9 C 173.7 46.3 173.7 46.5 173.8 46.6 C 173.8 46.7 173.9 46.8 174 46.9 C 174.1 46.9 174.2 47 174.4 47 C 174.4 47 174.4 47 174.4 47 Z M 175.8 44.3 C 175.8 42.9 176.2 41.8 177 41.1 C 177.6 40.6 178.4 40.3 179.3 40.3 C 180.4 40.3 181.2 40.6 181.9 41.3 C 182.6 42 182.9 43 182.9 44.2 C 182.9 45.1 182.8 45.9 182.5 46.5 C 182.2 47 181.7 47.5 181.2 47.8 C 180.6 48.1 180 48.2 179.3 48.2 C 178.3 48.2 177.4 47.9 176.8 47.2 C 176.1 46.5 175.8 45.6 175.8 44.3 Z M 177.1 44.3 C 177.1 45.2 177.3 46 177.7 46.5 C 178.2 46.9 178.7 47.2 179.3 47.2 C 180 47.2 180.5 46.9 180.9 46.5 C 181.4 46 181.6 45.2 181.6 44.2 C 181.6 43.3 181.4 42.6 180.9 42.1 C 180.5 41.6 180 41.4 179.3 41.4 C 178.7 41.4 178.2 41.6 177.7 42.1 C 177.3 42.6 177.1 43.3 177.1 44.3 Z M 188.5 48.1 L 188.5 40.5 L 189.6 40.5 C 189.6 40.5 189.64 41.62 189.6 41.6 C 189.9 41.1 190.2 40.7 190.5 40.6 C 190.7 40.4 191 40.3 191.3 40.3 C 191.7 40.3 192.2 40.4 192.6 40.7 C 192.6 40.7 192.2 41.9 192.2 41.9 C 191.9 41.7 191.5 41.6 191.2 41.6 C 190.9 41.6 190.7 41.7 190.5 41.9 C 190.2 42.1 190.1 42.3 190 42.6 C 189.8 43 189.8 43.5 189.8 44.1 C 189.77 44.09 189.8 48.1 189.8 48.1 L 188.5 48.1 Z M 198.6 45.6 C 198.6 45.6 199.9 45.8 199.9 45.8 C 199.7 46.6 199.3 47.2 198.7 47.6 C 198.2 48 197.5 48.2 196.6 48.2 C 195.5 48.2 194.6 47.9 193.9 47.2 C 193.3 46.5 192.9 45.6 192.9 44.3 C 192.9 43.1 193.3 42.1 193.9 41.4 C 194.6 40.6 195.4 40.3 196.5 40.3 C 197.5 40.3 198.3 40.6 199 41.3 C 199.6 42 200 43 200 44.3 C 200 44.3 200 44.4 200 44.6 C 200 44.6 194.3 44.6 194.3 44.6 C 194.3 45.4 194.6 46.1 195 46.5 C 195.4 47 195.9 47.2 196.6 47.2 C 197.1 47.2 197.5 47.1 197.8 46.8 C 198.1 46.6 198.4 46.2 198.6 45.6 Z M 194.4 43.5 C 194.4 43.5 198.6 43.5 198.6 43.5 C 198.5 42.9 198.4 42.4 198.1 42.1 C 197.7 41.6 197.2 41.4 196.5 41.4 C 195.9 41.4 195.4 41.6 195 41.9 C 194.6 42.3 194.4 42.9 194.4 43.5 Z M 206.4 51 C 206.4 51 206.38 47.26 206.4 47.3 C 206.2 47.5 205.9 47.8 205.5 48 C 205.2 48.2 204.8 48.2 204.4 48.2 C 203.5 48.2 202.7 47.9 202.1 47.2 C 201.4 46.4 201.1 45.5 201.1 44.2 C 201.1 43.4 201.2 42.7 201.5 42.1 C 201.7 41.5 202.1 41.1 202.6 40.8 C 203.1 40.5 203.7 40.3 204.3 40.3 C 205.2 40.3 206 40.7 206.5 41.5 C 206.51 41.48 206.5 40.5 206.5 40.5 L 207.7 40.5 L 207.7 51 L 206.4 51 Z M 202.4 44.2 C 202.4 45.2 202.6 46 203 46.5 C 203.4 46.9 203.9 47.2 204.5 47.2 C 205 47.2 205.5 47 205.9 46.5 C 206.3 46 206.5 45.3 206.5 44.4 C 206.5 43.4 206.3 42.6 205.9 42.1 C 205.5 41.6 205 41.3 204.4 41.3 C 203.9 41.3 203.4 41.5 203 42 C 202.6 42.5 202.4 43.2 202.4 44.2 Z M 214.7 48.1 C 214.7 48.1 214.68 46.96 214.7 47 C 214.1 47.8 213.3 48.2 212.3 48.2 C 211.8 48.2 211.4 48.2 211 48 C 210.6 47.8 210.3 47.6 210.1 47.3 C 209.9 47.1 209.8 46.8 209.7 46.4 C 209.7 46.1 209.7 45.7 209.7 45.2 C 209.66 45.18 209.7 40.5 209.7 40.5 L 211 40.5 C 211 40.5 210.95 44.68 211 44.7 C 211 45.4 211 45.8 211 46 C 211.1 46.4 211.3 46.7 211.5 46.8 C 211.8 47 212.1 47.1 212.5 47.1 C 212.9 47.1 213.3 47 213.6 46.8 C 213.9 46.6 214.2 46.4 214.3 46 C 214.5 45.7 214.5 45.2 214.5 44.5 C 214.54 44.54 214.5 40.5 214.5 40.5 L 215.8 40.5 L 215.8 48.1 L 214.7 48.1 Z M 223.1 45.6 C 223.1 45.6 224.4 45.8 224.4 45.8 C 224.2 46.6 223.8 47.2 223.2 47.6 C 222.7 48 221.9 48.2 221 48.2 C 219.9 48.2 219 47.9 218.4 47.2 C 217.7 46.5 217.4 45.6 217.4 44.3 C 217.4 43.1 217.7 42.1 218.4 41.4 C 219.1 40.6 219.9 40.3 221 40.3 C 222 40.3 222.8 40.6 223.5 41.3 C 224.1 42 224.4 43 224.4 44.3 C 224.4 44.3 224.4 44.4 224.4 44.6 C 224.4 44.6 218.7 44.6 218.7 44.6 C 218.8 45.4 219 46.1 219.5 46.5 C 219.9 47 220.4 47.2 221 47.2 C 221.5 47.2 221.9 47.1 222.3 46.8 C 222.6 46.6 222.9 46.2 223.1 45.6 Z M 218.8 43.5 C 218.8 43.5 223.1 43.5 223.1 43.5 C 223 42.9 222.8 42.4 222.6 42.1 C 222.2 41.6 221.6 41.4 221 41.4 C 220.4 41.4 219.9 41.6 219.5 41.9 C 219.1 42.3 218.9 42.9 218.8 43.5 Z M 225.5 45.8 C 225.5 45.8 226.8 45.6 226.8 45.6 C 226.8 46.1 227 46.5 227.4 46.8 C 227.7 47 228.1 47.2 228.7 47.2 C 229.3 47.2 229.8 47.1 230.1 46.8 C 230.3 46.6 230.5 46.3 230.5 46 C 230.5 45.7 230.4 45.5 230.1 45.3 C 229.9 45.2 229.5 45 228.8 44.8 C 227.8 44.6 227.2 44.4 226.8 44.2 C 226.5 44.1 226.2 43.8 226 43.5 C 225.8 43.2 225.7 42.9 225.7 42.5 C 225.7 42.1 225.8 41.8 225.9 41.5 C 226.1 41.3 226.3 41 226.6 40.8 C 226.8 40.7 227 40.6 227.4 40.4 C 227.7 40.3 228.1 40.3 228.5 40.3 C 229.1 40.3 229.6 40.4 230.1 40.6 C 230.5 40.7 230.9 41 231.1 41.3 C 231.3 41.5 231.4 41.9 231.5 42.4 C 231.5 42.4 230.3 42.6 230.3 42.6 C 230.2 42.2 230 41.9 229.8 41.7 C 229.5 41.5 229.1 41.4 228.6 41.4 C 228 41.4 227.6 41.5 227.3 41.6 C 227.1 41.8 226.9 42.1 226.9 42.3 C 226.9 42.5 227 42.7 227.1 42.8 C 227.2 42.9 227.4 43 227.6 43.1 C 227.7 43.2 228.1 43.3 228.7 43.5 C 229.7 43.7 230.3 43.9 230.6 44.1 C 231 44.2 231.3 44.4 231.5 44.7 C 231.7 45 231.8 45.4 231.8 45.8 C 231.8 46.3 231.7 46.7 231.4 47.1 C 231.2 47.4 230.8 47.7 230.3 47.9 C 229.9 48.1 229.3 48.2 228.7 48.2 C 227.8 48.2 227 48 226.5 47.6 C 226 47.2 225.6 46.6 225.5 45.8 Z M 235.6 47 C 235.7 47 235.9 47 236.2 46.9 C 236.2 46.9 236.3 48.1 236.3 48.1 C 236 48.1 235.7 48.2 235.4 48.2 C 234.9 48.2 234.5 48.1 234.3 48 C 234 47.8 233.8 47.6 233.7 47.4 C 233.6 47.1 233.6 46.6 233.6 45.8 C 233.57 45.84 233.6 41.5 233.6 41.5 L 232.6 41.5 L 232.6 40.5 L 233.6 40.5 L 233.6 38.6 L 234.9 37.8 L 234.9 40.5 L 236.2 40.5 L 236.2 41.5 L 234.9 41.5 C 234.9 41.5 234.86 45.92 234.9 45.9 C 234.9 46.3 234.9 46.5 234.9 46.6 C 235 46.7 235 46.8 235.1 46.9 C 235.2 46.9 235.4 47 235.6 47 C 235.6 47 235.6 47 235.6 47 Z M 236.9 45.8 C 236.9 45.8 238.2 45.6 238.2 45.6 C 238.2 46.1 238.4 46.5 238.8 46.8 C 239.1 47 239.6 47.2 240.1 47.2 C 240.7 47.2 241.2 47.1 241.5 46.8 C 241.7 46.6 241.9 46.3 241.9 46 C 241.9 45.7 241.8 45.5 241.5 45.3 C 241.3 45.2 240.9 45 240.2 44.8 C 239.2 44.6 238.6 44.4 238.2 44.2 C 237.9 44.1 237.6 43.8 237.4 43.5 C 237.2 43.2 237.1 42.9 237.1 42.5 C 237.1 42.1 237.2 41.8 237.3 41.5 C 237.5 41.3 237.7 41 238 40.8 C 238.2 40.7 238.5 40.6 238.8 40.4 C 239.1 40.3 239.5 40.3 239.9 40.3 C 240.5 40.3 241 40.4 241.5 40.6 C 241.9 40.7 242.3 41 242.5 41.3 C 242.7 41.5 242.8 41.9 242.9 42.4 C 242.9 42.4 241.7 42.6 241.7 42.6 C 241.6 42.2 241.4 41.9 241.2 41.7 C 240.9 41.5 240.5 41.4 240 41.4 C 239.4 41.4 239 41.5 238.7 41.6 C 238.5 41.8 238.4 42.1 238.4 42.3 C 238.4 42.5 238.4 42.7 238.5 42.8 C 238.6 42.9 238.8 43 239 43.1 C 239.1 43.2 239.5 43.3 240.1 43.5 C 241.1 43.7 241.7 43.9 242.1 44.1 C 242.4 44.2 242.7 44.4 242.9 44.7 C 243.1 45 243.2 45.4 243.2 45.8 C 243.2 46.3 243.1 46.7 242.8 47.1 C 242.6 47.4 242.2 47.7 241.8 47.9 C 241.3 48.1 240.7 48.2 240.1 48.2 C 239.2 48.2 238.4 48 237.9 47.6 C 237.4 47.2 237 46.6 236.9 45.8 Z " stroke="none" fill="#fff"/>  </g>  <g id="Polygon65503">    <path d="M 15.4 25.4 C 15.4 23.6 15.9 22.3 16.8 21.3 C 17.7 20.3 18.9 19.8 20.4 19.8 C 21.4 19.8 22.3 20 23 20.5 C 23.8 20.9 24.4 21.6 24.8 22.4 C 25.2 23.2 25.4 24.2 25.4 25.2 C 25.4 26.3 25.2 27.3 24.8 28.1 C 24.4 28.9 23.7 29.6 23 30 C 22.2 30.4 21.3 30.7 20.4 30.7 C 19.4 30.7 18.5 30.4 17.8 29.9 C 17 29.5 16.4 28.8 16 28 C 15.6 27.2 15.4 26.3 15.4 25.4 Z M 16.8 25.4 C 16.8 26.6 17.2 27.6 17.8 28.4 C 18.5 29.1 19.4 29.5 20.4 29.5 C 21.4 29.5 22.3 29.1 23 28.4 C 23.7 27.6 24 26.6 24 25.2 C 24 24.4 23.8 23.6 23.6 23 C 23.3 22.4 22.8 21.9 22.3 21.5 C 21.7 21.2 21.1 21 20.4 21 C 19.4 21 18.6 21.3 17.9 22 C 17.2 22.7 16.8 23.8 16.8 25.4 Z M 32 30.5 C 32 30.5 32.04 29.36 32 29.4 C 31.4 30.2 30.6 30.6 29.6 30.6 C 29.2 30.6 28.8 30.6 28.4 30.4 C 28 30.2 27.7 30 27.5 29.7 C 27.3 29.5 27.2 29.2 27.1 28.8 C 27 28.5 27 28.1 27 27.6 C 27.02 27.58 27 22.9 27 22.9 L 28.3 22.9 C 28.3 22.9 28.31 27.08 28.3 27.1 C 28.3 27.8 28.3 28.2 28.4 28.4 C 28.5 28.8 28.6 29.1 28.9 29.2 C 29.2 29.4 29.5 29.5 29.9 29.5 C 30.3 29.5 30.6 29.4 31 29.2 C 31.3 29 31.5 28.8 31.7 28.4 C 31.8 28.1 31.9 27.6 31.9 26.9 C 31.9 26.94 31.9 22.9 31.9 22.9 L 33.2 22.9 L 33.2 30.5 L 32 30.5 Z M 35.2 30.5 L 35.2 22.9 L 36.4 22.9 C 36.4 22.9 36.35 24.02 36.4 24 C 36.7 23.5 36.9 23.1 37.2 23 C 37.4 22.8 37.7 22.7 38 22.7 C 38.4 22.7 38.9 22.8 39.3 23.1 C 39.3 23.1 38.9 24.3 38.9 24.3 C 38.6 24.1 38.3 24 37.9 24 C 37.7 24 37.4 24.1 37.2 24.3 C 37 24.5 36.8 24.7 36.7 25 C 36.6 25.4 36.5 25.9 36.5 26.5 C 36.48 26.49 36.5 30.5 36.5 30.5 L 35.2 30.5 Z M 44.3 30.5 L 44.3 20 L 46.4 20 C 46.4 20 48.87 27.41 48.9 27.4 C 49.1 28.1 49.3 28.6 49.4 29 C 49.5 28.6 49.7 28 49.9 27.3 C 49.93 27.28 52.4 20 52.4 20 L 54.3 20 L 54.3 30.5 L 53 30.5 L 53 21.7 L 49.9 30.5 L 48.7 30.5 L 45.6 21.5 L 45.6 30.5 L 44.3 30.5 Z M 61.6 30.5 C 61.5 30.2 61.4 29.9 61.3 29.5 C 60.9 29.9 60.4 30.2 60 30.4 C 59.5 30.6 59.1 30.6 58.5 30.6 C 57.7 30.6 57.1 30.4 56.6 30 C 56.2 29.6 55.9 29.1 55.9 28.5 C 55.9 28.1 56 27.8 56.2 27.4 C 56.4 27.1 56.6 26.9 56.9 26.7 C 57.1 26.5 57.5 26.4 57.8 26.3 C 58 26.2 58.4 26.2 58.9 26.1 C 60 26 60.7 25.8 61.2 25.6 C 61.2 25.5 61.2 25.4 61.2 25.3 C 61.2 24.8 61.1 24.4 60.9 24.2 C 60.6 23.9 60.1 23.8 59.4 23.8 C 58.8 23.8 58.4 23.9 58.1 24.1 C 57.8 24.3 57.6 24.7 57.4 25.2 C 57.4 25.2 56.2 25 56.2 25 C 56.3 24.5 56.5 24.1 56.7 23.7 C 57 23.4 57.4 23.1 57.9 23 C 58.4 22.8 58.9 22.7 59.6 22.7 C 60.3 22.7 60.8 22.8 61.2 22.9 C 61.6 23.1 61.9 23.3 62.1 23.5 C 62.3 23.7 62.4 24 62.5 24.4 C 62.5 24.6 62.5 25 62.5 25.6 C 62.5 25.6 62.5 27.3 62.5 27.3 C 62.5 28.5 62.6 29.2 62.6 29.6 C 62.7 29.9 62.8 30.2 63 30.5 C 62.95 30.47 61.6 30.5 61.6 30.5 C 61.6 30.5 61.61 30.47 61.6 30.5 Z M 61.2 26.7 C 60.8 26.8 60.1 27 59.1 27.1 C 58.6 27.2 58.2 27.3 58 27.4 C 57.8 27.5 57.6 27.6 57.5 27.8 C 57.4 28 57.3 28.2 57.3 28.4 C 57.3 28.8 57.5 29.1 57.7 29.3 C 58 29.5 58.4 29.6 58.9 29.6 C 59.4 29.6 59.8 29.5 60.2 29.3 C 60.6 29.1 60.9 28.8 61 28.4 C 61.2 28.1 61.2 27.7 61.2 27.1 C 61.2 27.1 61.2 26.7 61.2 26.7 Z M 64.5 30.5 L 64.5 22.9 L 65.7 22.9 C 65.7 22.9 65.7 23.95 65.7 23.9 C 66.3 23.1 67.1 22.7 68.1 22.7 C 68.6 22.7 69 22.8 69.4 22.9 C 69.8 23.1 70.1 23.3 70.3 23.6 C 70.4 23.9 70.6 24.2 70.7 24.5 C 70.7 24.8 70.7 25.2 70.7 25.8 C 70.72 25.8 70.7 30.5 70.7 30.5 L 69.4 30.5 C 69.4 30.5 69.43 25.85 69.4 25.8 C 69.4 25.3 69.4 24.9 69.3 24.7 C 69.2 24.4 69 24.2 68.7 24 C 68.5 23.9 68.2 23.8 67.9 23.8 C 67.3 23.8 66.8 24 66.4 24.3 C 66 24.7 65.8 25.3 65.8 26.3 C 65.83 26.32 65.8 30.5 65.8 30.5 L 64.5 30.5 Z M 77.9 30.5 C 77.8 30.2 77.7 29.9 77.7 29.5 C 77.2 29.9 76.7 30.2 76.3 30.4 C 75.8 30.6 75.4 30.6 74.9 30.6 C 74 30.6 73.4 30.4 72.9 30 C 72.5 29.6 72.3 29.1 72.3 28.5 C 72.3 28.1 72.3 27.8 72.5 27.4 C 72.7 27.1 72.9 26.9 73.2 26.7 C 73.5 26.5 73.8 26.4 74.1 26.3 C 74.4 26.2 74.7 26.2 75.3 26.1 C 76.3 26 77.1 25.8 77.6 25.6 C 77.6 25.5 77.6 25.4 77.6 25.3 C 77.6 24.8 77.4 24.4 77.2 24.2 C 76.9 23.9 76.4 23.8 75.7 23.8 C 75.1 23.8 74.7 23.9 74.4 24.1 C 74.1 24.3 73.9 24.7 73.7 25.2 C 73.7 25.2 72.5 25 72.5 25 C 72.6 24.5 72.8 24.1 73.1 23.7 C 73.3 23.4 73.7 23.1 74.2 23 C 74.7 22.8 75.3 22.7 75.9 22.7 C 76.6 22.7 77.1 22.8 77.5 22.9 C 77.9 23.1 78.2 23.3 78.4 23.5 C 78.6 23.7 78.7 24 78.8 24.4 C 78.8 24.6 78.9 25 78.9 25.6 C 78.9 25.6 78.9 27.3 78.9 27.3 C 78.9 28.5 78.9 29.2 78.9 29.6 C 79 29.9 79.1 30.2 79.3 30.5 C 79.27 30.47 77.9 30.5 77.9 30.5 C 77.9 30.5 77.92 30.47 77.9 30.5 Z M 77.6 26.7 C 77.1 26.8 76.4 27 75.4 27.1 C 74.9 27.2 74.5 27.3 74.3 27.4 C 74.1 27.5 73.9 27.6 73.8 27.8 C 73.7 28 73.6 28.2 73.6 28.4 C 73.6 28.8 73.8 29.1 74 29.3 C 74.3 29.5 74.7 29.6 75.2 29.6 C 75.7 29.6 76.1 29.5 76.5 29.3 C 76.9 29.1 77.2 28.8 77.3 28.4 C 77.5 28.1 77.6 27.7 77.6 27.1 C 77.6 27.1 77.6 26.7 77.6 26.7 Z M 80.6 31.1 C 80.6 31.1 81.9 31.3 81.9 31.3 C 81.9 31.7 82.1 32 82.3 32.1 C 82.6 32.4 83.1 32.5 83.6 32.5 C 84.2 32.5 84.7 32.4 85 32.1 C 85.3 31.9 85.5 31.6 85.7 31.1 C 85.7 30.9 85.8 30.3 85.8 29.5 C 85.2 30.1 84.5 30.5 83.6 30.5 C 82.6 30.5 81.8 30.1 81.2 29.3 C 80.6 28.6 80.4 27.7 80.4 26.6 C 80.4 25.9 80.5 25.2 80.8 24.6 C 81 24 81.4 23.5 81.9 23.2 C 82.4 22.9 83 22.7 83.7 22.7 C 84.6 22.7 85.3 23.1 85.9 23.8 C 85.88 23.78 85.9 22.9 85.9 22.9 L 87.1 22.9 C 87.1 22.9 87.07 29.44 87.1 29.4 C 87.1 30.6 86.9 31.5 86.7 32 C 86.5 32.5 86.1 32.8 85.6 33.1 C 85 33.4 84.4 33.6 83.6 33.6 C 82.7 33.6 82 33.4 81.4 32.9 C 80.9 32.5 80.6 31.9 80.6 31.1 Z M 81.7 26.5 C 81.7 27.5 81.9 28.3 82.3 28.7 C 82.7 29.2 83.2 29.4 83.8 29.4 C 84.4 29.4 84.9 29.2 85.3 28.7 C 85.7 28.3 85.9 27.6 85.9 26.6 C 85.9 25.6 85.7 24.9 85.2 24.5 C 84.8 24 84.3 23.8 83.7 23.8 C 83.2 23.8 82.7 24 82.3 24.5 C 81.9 24.9 81.7 25.6 81.7 26.5 Z M 94.2 28 C 94.2 28 95.6 28.2 95.6 28.2 C 95.3 29 95 29.6 94.4 30 C 93.8 30.4 93.1 30.6 92.2 30.6 C 91.1 30.6 90.2 30.3 89.6 29.6 C 88.9 28.9 88.6 28 88.6 26.7 C 88.6 25.5 88.9 24.5 89.6 23.8 C 90.2 23 91.1 22.7 92.1 22.7 C 93.2 22.7 94 23 94.6 23.7 C 95.3 24.4 95.6 25.4 95.6 26.7 C 95.6 26.7 95.6 26.8 95.6 27 C 95.6 27 89.9 27 89.9 27 C 90 27.8 90.2 28.5 90.6 28.9 C 91 29.4 91.6 29.6 92.2 29.6 C 92.7 29.6 93.1 29.5 93.4 29.2 C 93.8 29 94 28.6 94.2 28 Z M 90 25.9 C 90 25.9 94.2 25.9 94.2 25.9 C 94.2 25.3 94 24.8 93.7 24.5 C 93.3 24 92.8 23.8 92.1 23.8 C 91.6 23.8 91.1 24 90.7 24.3 C 90.3 24.7 90 25.3 90 25.9 Z M 102.1 30.5 C 102.1 30.5 102.1 29.51 102.1 29.5 C 101.6 30.3 100.9 30.6 100 30.6 C 99.4 30.6 98.8 30.5 98.3 30.1 C 97.8 29.8 97.4 29.3 97.1 28.7 C 96.8 28.1 96.7 27.5 96.7 26.7 C 96.7 25.9 96.8 25.2 97.1 24.6 C 97.3 24 97.7 23.5 98.2 23.2 C 98.7 22.9 99.3 22.7 99.9 22.7 C 100.4 22.7 100.8 22.8 101.1 23 C 101.5 23.2 101.8 23.4 102 23.7 C 102.02 23.74 102 20 102 20 L 103.3 20 L 103.3 30.5 L 102.1 30.5 Z M 98 26.7 C 98 27.7 98.2 28.4 98.6 28.9 C 99.1 29.3 99.5 29.6 100.1 29.6 C 100.7 29.6 101.1 29.4 101.5 28.9 C 101.9 28.4 102.1 27.7 102.1 26.8 C 102.1 25.7 101.9 25 101.5 24.5 C 101.1 24 100.6 23.8 100 23.8 C 99.5 23.8 99 24 98.6 24.5 C 98.2 24.9 98 25.7 98 26.7 Z M 109.5 30.5 L 109.5 20 L 110.9 20 L 110.9 29.2 L 116.1 29.2 L 116.1 30.5 L 109.5 30.5 Z M 122.8 28 C 122.8 28 124.1 28.2 124.1 28.2 C 123.9 29 123.5 29.6 122.9 30 C 122.4 30.4 121.6 30.6 120.8 30.6 C 119.6 30.6 118.8 30.3 118.1 29.6 C 117.5 28.9 117.1 28 117.1 26.7 C 117.1 25.5 117.5 24.5 118.1 23.8 C 118.8 23 119.6 22.7 120.7 22.7 C 121.7 22.7 122.5 23 123.2 23.7 C 123.8 24.4 124.1 25.4 124.1 26.7 C 124.1 26.7 124.1 26.8 124.1 27 C 124.1 27 118.5 27 118.5 27 C 118.5 27.8 118.7 28.5 119.2 28.9 C 119.6 29.4 120.1 29.6 120.8 29.6 C 121.2 29.6 121.6 29.5 122 29.2 C 122.3 29 122.6 28.6 122.8 28 Z M 118.5 25.9 C 118.5 25.9 122.8 25.9 122.8 25.9 C 122.7 25.3 122.6 24.8 122.3 24.5 C 121.9 24 121.3 23.8 120.7 23.8 C 120.1 23.8 119.6 24 119.2 24.3 C 118.8 24.7 118.6 25.3 118.5 25.9 Z M 130.9 30.5 C 130.8 30.2 130.7 29.9 130.7 29.5 C 130.2 29.9 129.7 30.2 129.3 30.4 C 128.9 30.6 128.4 30.6 127.9 30.6 C 127 30.6 126.4 30.4 126 30 C 125.5 29.6 125.3 29.1 125.3 28.5 C 125.3 28.1 125.4 27.8 125.5 27.4 C 125.7 27.1 125.9 26.9 126.2 26.7 C 126.5 26.5 126.8 26.4 127.1 26.3 C 127.4 26.2 127.8 26.2 128.3 26.1 C 129.3 26 130.1 25.8 130.6 25.6 C 130.6 25.5 130.6 25.4 130.6 25.3 C 130.6 24.8 130.5 24.4 130.2 24.2 C 129.9 23.9 129.4 23.8 128.7 23.8 C 128.1 23.8 127.7 23.9 127.4 24.1 C 127.1 24.3 126.9 24.7 126.8 25.2 C 126.8 25.2 125.5 25 125.5 25 C 125.6 24.5 125.8 24.1 126.1 23.7 C 126.3 23.4 126.7 23.1 127.2 23 C 127.7 22.8 128.3 22.7 128.9 22.7 C 129.6 22.7 130.1 22.8 130.5 22.9 C 130.9 23.1 131.2 23.3 131.4 23.5 C 131.6 23.7 131.7 24 131.8 24.4 C 131.9 24.6 131.9 25 131.9 25.6 C 131.9 25.6 131.9 27.3 131.9 27.3 C 131.9 28.5 131.9 29.2 132 29.6 C 132 29.9 132.1 30.2 132.3 30.5 C 132.28 30.47 130.9 30.5 130.9 30.5 C 130.9 30.5 130.94 30.47 130.9 30.5 Z M 130.6 26.7 C 130.1 26.8 129.4 27 128.5 27.1 C 127.9 27.2 127.6 27.3 127.3 27.4 C 127.1 27.5 127 27.6 126.8 27.8 C 126.7 28 126.7 28.2 126.7 28.4 C 126.7 28.8 126.8 29.1 127 29.3 C 127.3 29.5 127.7 29.6 128.2 29.6 C 128.7 29.6 129.1 29.5 129.5 29.3 C 129.9 29.1 130.2 28.8 130.4 28.4 C 130.5 28.1 130.6 27.7 130.6 27.1 C 130.6 27.1 130.6 26.7 130.6 26.7 Z M 133.9 30.5 L 133.9 22.9 L 135 22.9 C 135 22.9 135.02 24.02 135 24 C 135.3 23.5 135.6 23.1 135.8 23 C 136.1 22.8 136.4 22.7 136.7 22.7 C 137.1 22.7 137.5 22.8 138 23.1 C 138 23.1 137.5 24.3 137.5 24.3 C 137.2 24.1 136.9 24 136.6 24 C 136.3 24 136.1 24.1 135.8 24.3 C 135.6 24.5 135.5 24.7 135.4 25 C 135.2 25.4 135.1 25.9 135.1 26.5 C 135.15 26.49 135.1 30.5 135.1 30.5 L 133.9 30.5 Z M 138.8 30.5 L 138.8 22.9 L 139.9 22.9 C 139.9 22.9 139.92 23.95 139.9 23.9 C 140.5 23.1 141.3 22.7 142.3 22.7 C 142.8 22.7 143.2 22.8 143.6 22.9 C 144 23.1 144.3 23.3 144.5 23.6 C 144.7 23.9 144.8 24.2 144.9 24.5 C 144.9 24.8 144.9 25.2 144.9 25.8 C 144.94 25.8 144.9 30.5 144.9 30.5 L 143.6 30.5 C 143.6 30.5 143.65 25.85 143.6 25.8 C 143.6 25.3 143.6 24.9 143.5 24.7 C 143.4 24.4 143.2 24.2 143 24 C 142.7 23.9 142.4 23.8 142.1 23.8 C 141.5 23.8 141 24 140.6 24.3 C 140.2 24.7 140 25.3 140 26.3 C 140.05 26.32 140 30.5 140 30.5 L 138.8 30.5 Z M 146.9 21.5 L 146.9 20 L 148.2 20 L 148.2 21.5 L 146.9 21.5 Z M 146.9 30.5 L 146.9 22.9 L 148.2 22.9 L 148.2 30.5 L 146.9 30.5 Z M 150.2 30.5 L 150.2 22.9 L 151.3 22.9 C 151.3 22.9 151.33 23.95 151.3 23.9 C 151.9 23.1 152.7 22.7 153.8 22.7 C 154.2 22.7 154.6 22.8 155 22.9 C 155.4 23.1 155.7 23.3 155.9 23.6 C 156.1 23.9 156.2 24.2 156.3 24.5 C 156.3 24.8 156.4 25.2 156.4 25.8 C 156.35 25.8 156.4 30.5 156.4 30.5 L 155.1 30.5 C 155.1 30.5 155.06 25.85 155.1 25.8 C 155.1 25.3 155 24.9 154.9 24.7 C 154.8 24.4 154.6 24.2 154.4 24 C 154.1 23.9 153.8 23.8 153.5 23.8 C 152.9 23.8 152.5 24 152.1 24.3 C 151.7 24.7 151.5 25.3 151.5 26.3 C 151.46 26.32 151.5 30.5 151.5 30.5 L 150.2 30.5 Z M 158.1 31.1 C 158.1 31.1 159.3 31.3 159.3 31.3 C 159.4 31.7 159.5 32 159.8 32.1 C 160.1 32.4 160.5 32.5 161.1 32.5 C 161.7 32.5 162.2 32.4 162.5 32.1 C 162.8 31.9 163 31.6 163.1 31.1 C 163.2 30.9 163.2 30.3 163.2 29.5 C 162.7 30.1 162 30.5 161.1 30.5 C 160.1 30.5 159.3 30.1 158.7 29.3 C 158.1 28.6 157.8 27.7 157.8 26.6 C 157.8 25.9 158 25.2 158.2 24.6 C 158.5 24 158.9 23.5 159.4 23.2 C 159.9 22.9 160.5 22.7 161.1 22.7 C 162 22.7 162.8 23.1 163.3 23.8 C 163.35 23.78 163.3 22.9 163.3 22.9 L 164.5 22.9 C 164.5 22.9 164.54 29.44 164.5 29.4 C 164.5 30.6 164.4 31.5 164.2 32 C 163.9 32.5 163.6 32.8 163 33.1 C 162.5 33.4 161.9 33.6 161.1 33.6 C 160.2 33.6 159.5 33.4 158.9 32.9 C 158.3 32.5 158.1 31.9 158.1 31.1 Z M 159.2 26.5 C 159.2 27.5 159.4 28.3 159.8 28.7 C 160.2 29.2 160.6 29.4 161.2 29.4 C 161.8 29.4 162.3 29.2 162.7 28.7 C 163.1 28.3 163.3 27.6 163.3 26.6 C 163.3 25.6 163.1 24.9 162.7 24.5 C 162.3 24 161.8 23.8 161.2 23.8 C 160.6 23.8 160.2 24 159.8 24.5 C 159.4 24.9 159.2 25.6 159.2 26.5 Z M 170.3 27.1 C 170.3 27.1 171.6 27 171.6 27 C 171.6 27.5 171.8 27.9 172 28.3 C 172.2 28.6 172.6 28.9 173.1 29.1 C 173.5 29.3 174.1 29.4 174.7 29.4 C 175.2 29.4 175.7 29.3 176.1 29.2 C 176.5 29 176.8 28.8 177 28.5 C 177.2 28.2 177.3 27.9 177.3 27.6 C 177.3 27.3 177.2 27 177 26.8 C 176.8 26.5 176.5 26.3 176 26.1 C 175.8 26 175.1 25.9 174.2 25.6 C 173.2 25.4 172.5 25.2 172.1 25 C 171.6 24.7 171.3 24.4 171 24 C 170.8 23.6 170.7 23.2 170.7 22.7 C 170.7 22.2 170.8 21.7 171.1 21.2 C 171.4 20.7 171.8 20.4 172.4 20.2 C 173 19.9 173.6 19.8 174.3 19.8 C 175.1 19.8 175.8 19.9 176.4 20.2 C 177 20.4 177.5 20.8 177.8 21.3 C 178.1 21.8 178.3 22.3 178.3 22.9 C 178.3 22.9 177 23 177 23 C 176.9 22.4 176.6 21.9 176.2 21.5 C 175.8 21.2 175.2 21 174.4 21 C 173.6 21 173 21.2 172.6 21.5 C 172.2 21.8 172 22.2 172 22.6 C 172 23 172.1 23.3 172.4 23.5 C 172.7 23.8 173.4 24 174.5 24.3 C 175.6 24.5 176.4 24.8 176.8 24.9 C 177.4 25.2 177.9 25.6 178.2 26 C 178.5 26.4 178.6 26.9 178.6 27.5 C 178.6 28.1 178.4 28.6 178.1 29.1 C 177.8 29.6 177.4 30 176.8 30.2 C 176.2 30.5 175.5 30.7 174.7 30.7 C 173.8 30.7 173 30.5 172.3 30.2 C 171.7 30 171.2 29.5 170.8 29 C 170.5 28.4 170.3 27.8 170.3 27.1 Z M 185.5 28 C 185.5 28 186.9 28.2 186.9 28.2 C 186.7 29 186.3 29.6 185.7 30 C 185.1 30.4 184.4 30.6 183.5 30.6 C 182.4 30.6 181.5 30.3 180.9 29.6 C 180.2 28.9 179.9 28 179.9 26.7 C 179.9 25.5 180.2 24.5 180.9 23.8 C 181.6 23 182.4 22.7 183.5 22.7 C 184.5 22.7 185.3 23 186 23.7 C 186.6 24.4 186.9 25.4 186.9 26.7 C 186.9 26.7 186.9 26.8 186.9 27 C 186.9 27 181.2 27 181.2 27 C 181.3 27.8 181.5 28.5 182 28.9 C 182.4 29.4 182.9 29.6 183.5 29.6 C 184 29.6 184.4 29.5 184.8 29.2 C 185.1 29 185.4 28.6 185.5 28 Z M 181.3 25.9 C 181.3 25.9 185.6 25.9 185.6 25.9 C 185.5 25.3 185.3 24.8 185.1 24.5 C 184.7 24 184.1 23.8 183.5 23.8 C 182.9 23.8 182.4 24 182 24.3 C 181.6 24.7 181.4 25.3 181.3 25.9 Z M 188.5 30.5 L 188.5 22.9 L 189.6 22.9 C 189.6 22.9 189.65 24.02 189.6 24 C 189.9 23.5 190.2 23.1 190.5 23 C 190.7 22.8 191 22.7 191.3 22.7 C 191.7 22.7 192.2 22.8 192.6 23.1 C 192.6 23.1 192.2 24.3 192.2 24.3 C 191.9 24.1 191.5 24 191.2 24 C 190.9 24 190.7 24.1 190.5 24.3 C 190.2 24.5 190.1 24.7 190 25 C 189.8 25.4 189.8 25.9 189.8 26.5 C 189.77 26.49 189.8 30.5 189.8 30.5 L 188.5 30.5 Z M 195.5 30.5 L 192.6 22.9 L 194 22.9 C 194 22.9 195.6 27.42 195.6 27.4 C 195.8 27.9 195.9 28.4 196.1 29 C 196.2 28.6 196.4 28.1 196.6 27.5 C 196.56 27.51 198.3 22.9 198.3 22.9 L 199.6 22.9 L 196.7 30.5 L 195.5 30.5 Z M 200.7 21.5 L 200.7 20 L 202 20 L 202 21.5 L 200.7 21.5 Z M 200.7 30.5 L 200.7 22.9 L 202 22.9 L 202 30.5 L 200.7 30.5 Z M 208.9 27.7 C 208.9 27.7 210.2 27.9 210.2 27.9 C 210.1 28.7 209.7 29.4 209.1 29.9 C 208.6 30.4 207.9 30.6 207 30.6 C 206 30.6 205.2 30.3 204.5 29.6 C 203.9 28.9 203.6 28 203.6 26.7 C 203.6 25.9 203.7 25.2 204 24.5 C 204.3 23.9 204.7 23.5 205.2 23.2 C 205.8 22.8 206.4 22.7 207 22.7 C 207.9 22.7 208.5 22.9 209.1 23.3 C 209.6 23.7 209.9 24.3 210.1 25.1 C 210.1 25.1 208.8 25.3 208.8 25.3 C 208.7 24.8 208.5 24.4 208.2 24.1 C 207.9 23.9 207.5 23.8 207.1 23.8 C 206.4 23.8 205.9 24 205.5 24.5 C 205.1 24.9 204.9 25.7 204.9 26.7 C 204.9 27.7 205.1 28.4 205.5 28.9 C 205.9 29.4 206.4 29.6 207 29.6 C 207.5 29.6 208 29.4 208.3 29.1 C 208.6 28.8 208.8 28.3 208.9 27.7 Z M 216.5 28 C 216.5 28 217.8 28.2 217.8 28.2 C 217.6 29 217.2 29.6 216.7 30 C 216.1 30.4 215.4 30.6 214.5 30.6 C 213.4 30.6 212.5 30.3 211.9 29.6 C 211.2 28.9 210.9 28 210.9 26.7 C 210.9 25.5 211.2 24.5 211.9 23.8 C 212.5 23 213.4 22.7 214.4 22.7 C 215.4 22.7 216.3 23 216.9 23.7 C 217.6 24.4 217.9 25.4 217.9 26.7 C 217.9 26.7 217.9 26.8 217.9 27 C 217.9 27 212.2 27 212.2 27 C 212.3 27.8 212.5 28.5 212.9 28.9 C 213.3 29.4 213.9 29.6 214.5 29.6 C 215 29.6 215.4 29.5 215.7 29.2 C 216.1 29 216.3 28.6 216.5 28 Z M 212.3 25.9 C 212.3 25.9 216.5 25.9 216.5 25.9 C 216.5 25.3 216.3 24.8 216 24.5 C 215.6 24 215.1 23.8 214.4 23.8 C 213.9 23.8 213.4 24 213 24.3 C 212.5 24.7 212.3 25.3 212.3 25.9 Z M 224.9 30.5 L 222.6 22.9 L 223.9 22.9 L 225.2 27.3 C 225.2 27.3 225.61 28.89 225.6 28.9 C 225.6 28.8 225.8 28.3 226 27.3 C 226 27.32 227.2 22.9 227.2 22.9 L 228.5 22.9 L 229.7 27.3 L 230.1 28.7 L 230.5 27.3 L 231.8 22.9 L 233.1 22.9 L 230.7 30.5 L 229.3 30.5 L 228.1 25.9 L 227.8 24.6 L 226.3 30.5 L 224.9 30.5 Z M 239.4 30.5 C 239.2 30.2 239.1 29.9 239.1 29.5 C 238.6 29.9 238.2 30.2 237.7 30.4 C 237.3 30.6 236.8 30.6 236.3 30.6 C 235.5 30.6 234.8 30.4 234.4 30 C 233.9 29.6 233.7 29.1 233.7 28.5 C 233.7 28.1 233.8 27.8 234 27.4 C 234.1 27.1 234.3 26.9 234.6 26.7 C 234.9 26.5 235.2 26.4 235.5 26.3 C 235.8 26.2 236.2 26.2 236.7 26.1 C 237.7 26 238.5 25.8 239 25.6 C 239 25.5 239 25.4 239 25.3 C 239 24.8 238.9 24.4 238.6 24.2 C 238.3 23.9 237.8 23.8 237.2 23.8 C 236.6 23.8 236.1 23.9 235.8 24.1 C 235.5 24.3 235.3 24.7 235.2 25.2 C 235.2 25.2 233.9 25 233.9 25 C 234 24.5 234.2 24.1 234.5 23.7 C 234.7 23.4 235.1 23.1 235.6 23 C 236.1 22.8 236.7 22.7 237.3 22.7 C 238 22.7 238.5 22.8 238.9 22.9 C 239.3 23.1 239.6 23.3 239.8 23.5 C 240 23.7 240.2 24 240.2 24.4 C 240.3 24.6 240.3 25 240.3 25.6 C 240.3 25.6 240.3 27.3 240.3 27.3 C 240.3 28.5 240.3 29.2 240.4 29.6 C 240.4 29.9 240.5 30.2 240.7 30.5 C 240.7 30.47 239.4 30.5 239.4 30.5 C 239.4 30.5 239.35 30.47 239.4 30.5 Z M 239 26.7 C 238.5 26.8 237.8 27 236.9 27.1 C 236.4 27.2 236 27.3 235.8 27.4 C 235.5 27.5 235.4 27.6 235.2 27.8 C 235.1 28 235.1 28.2 235.1 28.4 C 235.1 28.8 235.2 29.1 235.5 29.3 C 235.7 29.5 236.1 29.6 236.6 29.6 C 237.1 29.6 237.5 29.5 237.9 29.3 C 238.3 29.1 238.6 28.8 238.8 28.4 C 238.9 28.1 239 27.7 239 27.1 C 239 27.1 239 26.7 239 26.7 Z M 241.8 28.2 C 241.8 28.2 243 28 243 28 C 243.1 28.5 243.3 28.9 243.6 29.2 C 244 29.4 244.4 29.6 245 29.6 C 245.6 29.6 246 29.5 246.3 29.2 C 246.6 29 246.8 28.7 246.8 28.4 C 246.8 28.1 246.6 27.9 246.4 27.7 C 246.2 27.6 245.8 27.4 245.1 27.2 C 244.1 27 243.5 26.8 243.1 26.6 C 242.7 26.5 242.5 26.2 242.3 25.9 C 242.1 25.6 242 25.3 242 24.9 C 242 24.5 242.1 24.2 242.2 23.9 C 242.4 23.7 242.6 23.4 242.9 23.2 C 243.1 23.1 243.3 23 243.7 22.8 C 244 22.7 244.4 22.7 244.8 22.7 C 245.4 22.7 245.9 22.8 246.4 23 C 246.8 23.1 247.1 23.4 247.4 23.7 C 247.6 23.9 247.7 24.3 247.8 24.8 C 247.8 24.8 246.5 25 246.5 25 C 246.5 24.6 246.3 24.3 246 24.1 C 245.8 23.9 245.4 23.8 244.9 23.8 C 244.3 23.8 243.9 23.9 243.6 24 C 243.4 24.2 243.2 24.5 243.2 24.7 C 243.2 24.9 243.3 25.1 243.4 25.2 C 243.5 25.3 243.7 25.4 243.9 25.5 C 244 25.6 244.4 25.7 245 25.9 C 245.9 26.1 246.6 26.3 246.9 26.5 C 247.3 26.6 247.6 26.8 247.8 27.1 C 248 27.4 248.1 27.8 248.1 28.2 C 248.1 28.7 248 29.1 247.7 29.5 C 247.5 29.8 247.1 30.1 246.6 30.3 C 246.2 30.5 245.6 30.6 245 30.6 C 244 30.6 243.3 30.4 242.8 30 C 242.2 29.6 241.9 29 241.8 28.2 Z " stroke="none" fill="#fff"/>  </g></svg>