<?xml version="1.0" standalone="no"?><!DOCTYPE svg PUBLIC "-//W3C//DTD SVG 1.1//EN" "http://www.w3.org/Graphics/SVG/1.1/DTD/svg11.dtd"><svg xmlns="http://www.w3.org/2000/svg" version="1.1" width="262.3px" height="57.5px" viewBox="0 -9 262.3 57.5" style="top:-9px">  <desc>YouTube Visit Our YouTube channel.</desc>  <defs/>  <g id="Polygon69353">    <path d="M 63.7 41.4 L 60.4 33 L 61.6 33 C 61.6 33 63.79 39.13 63.8 39.1 C 64 39.6 64.1 40.1 64.2 40.5 C 64.4 40 64.5 39.6 64.7 39.1 C 64.69 39.13 67 33 67 33 L 68.1 33 L 64.8 41.4 L 63.7 41.4 Z M 68.7 34.2 L 68.7 33 L 69.8 33 L 69.8 34.2 L 68.7 34.2 Z M 68.7 41.4 L 68.7 35.3 L 69.8 35.3 L 69.8 41.4 L 68.7 41.4 Z M 70.9 39.6 C 70.9 39.6 72 39.4 72 39.4 C 72 39.9 72.2 40.2 72.4 40.4 C 72.7 40.6 73.1 40.7 73.5 40.7 C 74 40.7 74.4 40.6 74.6 40.4 C 74.8 40.2 74.9 40 74.9 39.7 C 74.9 39.5 74.8 39.3 74.6 39.2 C 74.5 39.1 74.1 39 73.6 38.8 C 72.8 38.7 72.3 38.5 72 38.4 C 71.7 38.2 71.5 38 71.3 37.8 C 71.2 37.5 71.1 37.3 71.1 37 C 71.1 36.7 71.2 36.4 71.3 36.2 C 71.4 36 71.6 35.8 71.8 35.6 C 72 35.5 72.2 35.4 72.5 35.3 C 72.7 35.2 73 35.2 73.4 35.2 C 73.8 35.2 74.2 35.3 74.6 35.4 C 75 35.5 75.2 35.7 75.4 36 C 75.6 36.2 75.7 36.5 75.8 36.9 C 75.8 36.9 74.8 37 74.8 37 C 74.7 36.7 74.6 36.5 74.4 36.3 C 74.1 36.1 73.8 36.1 73.4 36.1 C 73 36.1 72.6 36.1 72.4 36.3 C 72.2 36.4 72.1 36.6 72.1 36.8 C 72.1 37 72.1 37.1 72.2 37.2 C 72.3 37.3 72.4 37.4 72.6 37.5 C 72.7 37.5 73 37.6 73.5 37.7 C 74.3 37.9 74.8 38.1 75.1 38.2 C 75.4 38.3 75.6 38.5 75.7 38.8 C 75.9 39 76 39.3 76 39.6 C 76 40 75.9 40.3 75.7 40.6 C 75.5 40.9 75.2 41.1 74.8 41.3 C 74.4 41.5 74 41.6 73.5 41.6 C 72.7 41.6 72.1 41.4 71.7 41.1 C 71.3 40.7 71.1 40.3 70.9 39.6 Z M 77.2 34.2 L 77.2 33 L 78.3 33 L 78.3 34.2 L 77.2 34.2 Z M 77.2 41.4 L 77.2 35.3 L 78.3 35.3 L 78.3 41.4 L 77.2 41.4 Z M 81.6 40.5 C 81.7 40.5 81.9 40.5 82.1 40.5 C 82.1 40.5 82.2 41.4 82.2 41.4 C 81.9 41.5 81.7 41.5 81.4 41.5 C 81.1 41.5 80.8 41.4 80.6 41.3 C 80.4 41.2 80.2 41.1 80.1 40.9 C 80.1 40.7 80 40.3 80 39.6 C 80.01 39.64 80 36.1 80 36.1 L 79.3 36.1 L 79.3 35.3 L 80 35.3 L 80 33.8 L 81 33.2 L 81 35.3 L 82.1 35.3 L 82.1 36.1 L 81 36.1 C 81 36.1 81.04 39.7 81 39.7 C 81 40 81.1 40.2 81.1 40.3 C 81.1 40.4 81.2 40.4 81.3 40.5 C 81.4 40.5 81.5 40.5 81.6 40.5 C 81.6 40.5 81.6 40.5 81.6 40.5 Z M 86.1 37.3 C 86.1 35.9 86.5 34.8 87.3 34.1 C 88 33.3 89 32.9 90.2 32.9 C 90.9 32.9 91.6 33.1 92.3 33.4 C 92.9 33.8 93.4 34.3 93.7 35 C 94 35.6 94.2 36.4 94.2 37.2 C 94.2 38.1 94 38.9 93.7 39.5 C 93.3 40.2 92.8 40.7 92.2 41.1 C 91.6 41.4 90.9 41.6 90.2 41.6 C 89.4 41.6 88.7 41.4 88 41 C 87.4 40.6 86.9 40.1 86.6 39.4 C 86.3 38.8 86.1 38.1 86.1 37.3 Z M 87.3 37.4 C 87.3 38.4 87.6 39.2 88.1 39.7 C 88.6 40.3 89.3 40.6 90.1 40.6 C 91 40.6 91.7 40.3 92.2 39.7 C 92.8 39.1 93 38.3 93 37.2 C 93 36.5 92.9 36 92.7 35.4 C 92.4 34.9 92.1 34.5 91.7 34.3 C 91.2 34 90.7 33.8 90.2 33.8 C 89.4 33.8 88.7 34.1 88.1 34.6 C 87.6 35.2 87.3 36.1 87.3 37.4 Z M 99.5 41.4 C 99.5 41.4 99.46 40.53 99.5 40.5 C 99 41.2 98.3 41.6 97.5 41.6 C 97.2 41.6 96.8 41.5 96.5 41.4 C 96.2 41.2 96 41 95.8 40.8 C 95.7 40.6 95.6 40.4 95.5 40.1 C 95.5 39.9 95.4 39.6 95.4 39.1 C 95.45 39.11 95.4 35.3 95.4 35.3 L 96.5 35.3 C 96.5 35.3 96.48 38.72 96.5 38.7 C 96.5 39.3 96.5 39.6 96.5 39.8 C 96.6 40.1 96.7 40.3 97 40.4 C 97.2 40.6 97.4 40.7 97.7 40.7 C 98 40.7 98.3 40.6 98.6 40.4 C 98.9 40.3 99.1 40.1 99.2 39.8 C 99.3 39.5 99.3 39.1 99.3 38.6 C 99.35 38.6 99.3 35.3 99.3 35.3 L 100.4 35.3 L 100.4 41.4 L 99.5 41.4 Z M 102 41.4 L 102 35.3 L 102.9 35.3 C 102.9 35.3 102.91 36.26 102.9 36.3 C 103.1 35.8 103.4 35.5 103.6 35.4 C 103.8 35.3 104 35.2 104.2 35.2 C 104.6 35.2 104.9 35.3 105.3 35.5 C 105.3 35.5 104.9 36.5 104.9 36.5 C 104.7 36.3 104.4 36.3 104.2 36.3 C 104 36.3 103.8 36.3 103.6 36.5 C 103.4 36.6 103.3 36.8 103.2 37 C 103.1 37.4 103 37.8 103 38.2 C 103.02 38.24 103 41.4 103 41.4 L 102 41.4 Z M 111.4 41.4 L 111.4 37.9 L 108.2 33 L 109.6 33 C 109.6 33 111.22 35.56 111.2 35.6 C 111.5 36 111.8 36.5 112.1 37 C 112.3 36.5 112.6 36 113 35.5 C 112.99 35.5 114.6 33 114.6 33 L 115.9 33 L 112.6 37.9 L 112.6 41.4 L 111.4 41.4 Z M 115.3 38.4 C 115.3 37.3 115.6 36.4 116.3 35.9 C 116.8 35.4 117.4 35.2 118.2 35.2 C 119 35.2 119.7 35.5 120.2 36 C 120.8 36.6 121 37.3 121 38.3 C 121 39.1 120.9 39.7 120.7 40.1 C 120.4 40.6 120.1 40.9 119.6 41.2 C 119.2 41.4 118.7 41.6 118.2 41.6 C 117.3 41.6 116.6 41.3 116.1 40.7 C 115.6 40.2 115.3 39.4 115.3 38.4 Z M 116.4 38.4 C 116.4 39.2 116.5 39.7 116.9 40.1 C 117.2 40.5 117.7 40.7 118.2 40.7 C 118.7 40.7 119.1 40.5 119.4 40.1 C 119.8 39.7 120 39.1 120 38.3 C 120 37.6 119.8 37 119.4 36.6 C 119.1 36.3 118.7 36.1 118.2 36.1 C 117.7 36.1 117.2 36.3 116.9 36.6 C 116.5 37 116.4 37.6 116.4 38.4 Z M 126.2 41.4 C 126.2 41.4 126.21 40.53 126.2 40.5 C 125.7 41.2 125.1 41.6 124.3 41.6 C 123.9 41.6 123.6 41.5 123.3 41.4 C 123 41.2 122.7 41 122.6 40.8 C 122.4 40.6 122.3 40.4 122.3 40.1 C 122.2 39.9 122.2 39.6 122.2 39.1 C 122.2 39.11 122.2 35.3 122.2 35.3 L 123.2 35.3 C 123.2 35.3 123.23 38.72 123.2 38.7 C 123.2 39.3 123.3 39.6 123.3 39.8 C 123.4 40.1 123.5 40.3 123.7 40.4 C 123.9 40.6 124.2 40.7 124.5 40.7 C 124.8 40.7 125.1 40.6 125.4 40.4 C 125.6 40.3 125.8 40.1 125.9 39.8 C 126 39.5 126.1 39.1 126.1 38.6 C 126.1 38.6 126.1 35.3 126.1 35.3 L 127.1 35.3 L 127.1 41.4 L 126.2 41.4 Z M 131 41.4 L 131 34 L 128.3 34 L 128.3 33 L 134.9 33 L 134.9 34 L 132.1 34 L 132.1 41.4 L 131 41.4 Z M 139.5 41.4 C 139.5 41.4 139.47 40.53 139.5 40.5 C 139 41.2 138.4 41.6 137.5 41.6 C 137.2 41.6 136.8 41.5 136.5 41.4 C 136.2 41.2 136 41 135.8 40.8 C 135.7 40.6 135.6 40.4 135.5 40.1 C 135.5 39.9 135.5 39.6 135.5 39.1 C 135.46 39.11 135.5 35.3 135.5 35.3 L 136.5 35.3 C 136.5 35.3 136.49 38.72 136.5 38.7 C 136.5 39.3 136.5 39.6 136.6 39.8 C 136.6 40.1 136.8 40.3 137 40.4 C 137.2 40.6 137.4 40.7 137.7 40.7 C 138.1 40.7 138.3 40.6 138.6 40.4 C 138.9 40.3 139.1 40.1 139.2 39.8 C 139.3 39.5 139.4 39.1 139.4 38.6 C 139.36 38.6 139.4 35.3 139.4 35.3 L 140.4 35.3 L 140.4 41.4 L 139.5 41.4 Z M 143 41.4 L 142 41.4 L 142 33 L 143 33 C 143 33 143.03 36.02 143 36 C 143.5 35.5 144 35.2 144.7 35.2 C 145.1 35.2 145.4 35.3 145.8 35.4 C 146.1 35.6 146.4 35.8 146.6 36.1 C 146.8 36.3 147 36.7 147.1 37.1 C 147.2 37.4 147.3 37.9 147.3 38.3 C 147.3 39.3 147 40.1 146.5 40.7 C 146 41.3 145.4 41.6 144.6 41.6 C 143.9 41.6 143.4 41.3 143 40.7 C 142.96 40.66 143 41.4 143 41.4 Z M 142.9 38.3 C 142.9 39.1 143 39.6 143.2 39.9 C 143.6 40.4 144 40.7 144.6 40.7 C 145 40.7 145.4 40.5 145.7 40.1 C 146.1 39.7 146.2 39.2 146.2 38.4 C 146.2 37.6 146.1 37 145.8 36.6 C 145.4 36.2 145.1 36.1 144.6 36.1 C 144.2 36.1 143.8 36.2 143.4 36.6 C 143.1 37 142.9 37.6 142.9 38.3 Z M 152.7 39.5 C 152.7 39.5 153.8 39.6 153.8 39.6 C 153.6 40.2 153.3 40.7 152.8 41 C 152.4 41.4 151.8 41.6 151.1 41.6 C 150.2 41.6 149.5 41.3 149 40.7 C 148.5 40.2 148.2 39.4 148.2 38.4 C 148.2 37.4 148.5 36.6 149 36.1 C 149.5 35.5 150.2 35.2 151 35.2 C 151.8 35.2 152.5 35.5 153 36 C 153.5 36.6 153.8 37.4 153.8 38.4 C 153.8 38.4 153.8 38.5 153.8 38.6 C 153.8 38.6 149.3 38.6 149.3 38.6 C 149.3 39.3 149.5 39.8 149.8 40.2 C 150.2 40.5 150.6 40.7 151.1 40.7 C 151.5 40.7 151.8 40.6 152.1 40.4 C 152.3 40.2 152.5 39.9 152.7 39.5 Z M 149.3 37.8 C 149.3 37.8 152.7 37.8 152.7 37.8 C 152.7 37.3 152.5 36.9 152.3 36.6 C 152 36.3 151.6 36.1 151 36.1 C 150.6 36.1 150.2 36.2 149.8 36.5 C 149.5 36.8 149.3 37.3 149.3 37.8 Z M 162.3 39.2 C 162.3 39.2 163.3 39.3 163.3 39.3 C 163.2 40 162.9 40.6 162.5 41 C 162 41.4 161.4 41.6 160.8 41.6 C 159.9 41.6 159.3 41.3 158.8 40.7 C 158.3 40.2 158 39.4 158 38.4 C 158 37.7 158.1 37.2 158.3 36.7 C 158.5 36.2 158.9 35.8 159.3 35.6 C 159.8 35.3 160.3 35.2 160.8 35.2 C 161.4 35.2 162 35.4 162.4 35.7 C 162.8 36 163.1 36.5 163.2 37.1 C 163.2 37.1 162.2 37.3 162.2 37.3 C 162.1 36.9 161.9 36.6 161.7 36.4 C 161.5 36.2 161.2 36.1 160.8 36.1 C 160.3 36.1 159.9 36.2 159.6 36.6 C 159.2 37 159.1 37.6 159.1 38.4 C 159.1 39.2 159.2 39.8 159.5 40.2 C 159.8 40.5 160.3 40.7 160.8 40.7 C 161.2 40.7 161.5 40.6 161.8 40.3 C 162 40.1 162.2 39.7 162.3 39.2 Z M 164.2 41.4 L 164.2 33 L 165.2 33 C 165.2 33 165.22 36.04 165.2 36 C 165.7 35.5 166.3 35.2 167 35.2 C 167.5 35.2 167.9 35.3 168.2 35.5 C 168.5 35.6 168.8 35.9 168.9 36.2 C 169.1 36.5 169.1 37 169.1 37.6 C 169.14 37.57 169.1 41.4 169.1 41.4 L 168.1 41.4 C 168.1 41.4 168.11 37.57 168.1 37.6 C 168.1 37.1 168 36.7 167.8 36.4 C 167.6 36.2 167.2 36.1 166.8 36.1 C 166.5 36.1 166.2 36.2 166 36.3 C 165.7 36.5 165.5 36.7 165.4 37 C 165.3 37.2 165.2 37.6 165.2 38.1 C 165.22 38.1 165.2 41.4 165.2 41.4 L 164.2 41.4 Z M 174.9 41.4 C 174.8 41.2 174.7 41 174.7 40.7 C 174.3 41 173.9 41.2 173.6 41.4 C 173.2 41.5 172.8 41.6 172.4 41.6 C 171.8 41.6 171.3 41.4 170.9 41.1 C 170.5 40.7 170.4 40.3 170.4 39.8 C 170.4 39.5 170.4 39.3 170.6 39 C 170.7 38.8 170.9 38.6 171.1 38.4 C 171.3 38.3 171.6 38.2 171.8 38.1 C 172 38 172.3 38 172.8 37.9 C 173.6 37.8 174.2 37.7 174.6 37.6 C 174.6 37.4 174.6 37.3 174.6 37.3 C 174.6 36.9 174.5 36.6 174.3 36.4 C 174 36.2 173.7 36.1 173.1 36.1 C 172.6 36.1 172.3 36.1 172.1 36.3 C 171.8 36.5 171.7 36.8 171.5 37.2 C 171.5 37.2 170.5 37.1 170.5 37.1 C 170.6 36.6 170.8 36.3 171 36 C 171.2 35.8 171.5 35.6 171.9 35.4 C 172.3 35.3 172.8 35.2 173.3 35.2 C 173.8 35.2 174.2 35.3 174.6 35.4 C 174.9 35.5 175.1 35.7 175.3 35.8 C 175.4 36 175.5 36.3 175.6 36.6 C 175.6 36.7 175.6 37 175.6 37.5 C 175.6 37.5 175.6 38.9 175.6 38.9 C 175.6 39.8 175.7 40.4 175.7 40.7 C 175.7 40.9 175.8 41.2 176 41.4 C 175.97 41.43 174.9 41.4 174.9 41.4 C 174.9 41.4 174.89 41.43 174.9 41.4 Z M 174.6 38.4 C 174.2 38.5 173.7 38.7 172.9 38.8 C 172.5 38.8 172.2 38.9 172 39 C 171.8 39 171.7 39.2 171.6 39.3 C 171.5 39.5 171.5 39.6 171.5 39.8 C 171.5 40.1 171.6 40.3 171.8 40.5 C 172 40.7 172.3 40.8 172.7 40.8 C 173.1 40.8 173.4 40.7 173.7 40.5 C 174.1 40.3 174.3 40.1 174.4 39.8 C 174.5 39.5 174.6 39.2 174.6 38.8 C 174.6 38.8 174.6 38.4 174.6 38.4 Z M 177.2 41.4 L 177.2 35.3 L 178.2 35.3 C 178.2 35.3 178.17 36.21 178.2 36.2 C 178.6 35.5 179.3 35.2 180.1 35.2 C 180.5 35.2 180.8 35.3 181.1 35.4 C 181.4 35.5 181.7 35.7 181.8 35.9 C 182 36.1 182.1 36.4 182.1 36.7 C 182.2 36.9 182.2 37.2 182.2 37.7 C 182.18 37.68 182.2 41.4 182.2 41.4 L 181.2 41.4 C 181.2 41.4 181.15 37.72 181.2 37.7 C 181.2 37.3 181.1 37 181 36.8 C 180.9 36.6 180.8 36.4 180.6 36.3 C 180.4 36.2 180.2 36.1 179.9 36.1 C 179.4 36.1 179.1 36.2 178.7 36.5 C 178.4 36.8 178.3 37.3 178.3 38.1 C 178.27 38.1 178.3 41.4 178.3 41.4 L 177.2 41.4 Z M 183.8 41.4 L 183.8 35.3 L 184.7 35.3 C 184.7 35.3 184.69 36.21 184.7 36.2 C 185.1 35.5 185.8 35.2 186.6 35.2 C 187 35.2 187.3 35.3 187.6 35.4 C 187.9 35.5 188.2 35.7 188.3 35.9 C 188.5 36.1 188.6 36.4 188.6 36.7 C 188.7 36.9 188.7 37.2 188.7 37.7 C 188.71 37.68 188.7 41.4 188.7 41.4 L 187.7 41.4 C 187.7 41.4 187.68 37.72 187.7 37.7 C 187.7 37.3 187.6 37 187.6 36.8 C 187.5 36.6 187.3 36.4 187.1 36.3 C 186.9 36.2 186.7 36.1 186.4 36.1 C 186 36.1 185.6 36.2 185.3 36.5 C 185 36.8 184.8 37.3 184.8 38.1 C 184.79 38.1 184.8 41.4 184.8 41.4 L 183.8 41.4 Z M 194.5 39.5 C 194.5 39.5 195.5 39.6 195.5 39.6 C 195.4 40.2 195 40.7 194.6 41 C 194.1 41.4 193.5 41.6 192.8 41.6 C 192 41.6 191.2 41.3 190.7 40.7 C 190.2 40.2 189.9 39.4 189.9 38.4 C 189.9 37.4 190.2 36.6 190.7 36.1 C 191.3 35.5 191.9 35.2 192.8 35.2 C 193.6 35.2 194.3 35.5 194.8 36 C 195.3 36.6 195.6 37.4 195.6 38.4 C 195.6 38.4 195.6 38.5 195.5 38.6 C 195.5 38.6 191 38.6 191 38.6 C 191 39.3 191.2 39.8 191.6 40.2 C 191.9 40.5 192.3 40.7 192.8 40.7 C 193.2 40.7 193.5 40.6 193.8 40.4 C 194.1 40.2 194.3 39.9 194.5 39.5 Z M 191.1 37.8 C 191.1 37.8 194.5 37.8 194.5 37.8 C 194.4 37.3 194.3 36.9 194.1 36.6 C 193.7 36.3 193.3 36.1 192.8 36.1 C 192.3 36.1 191.9 36.2 191.6 36.5 C 191.3 36.8 191.1 37.3 191.1 37.8 Z M 196.8 41.4 L 196.8 33 L 197.8 33 L 197.8 41.4 L 196.8 41.4 Z M 199.7 41.4 L 199.7 40.3 L 200.9 40.3 L 200.9 41.4 L 199.7 41.4 Z " stroke="none" fill="#ffffff"/>  </g>  <g id="Polygon69352">    <path d="M 100.9 0.2 L 95.8 6.2 L 95.8 13.3 L 94.8 13.3 L 94.8 6.2 L 89.7 0.2 L 91 0.2 L 95.3 5.4 L 99.7 0.2 L 100.9 0.2 Z M 107.2 0 C 109.1 0 110.8 0.7 112.1 2 C 113.5 3.3 114.1 4.8 114.1 6.7 C 114.1 8.6 113.5 10.2 112.1 11.5 C 110.8 12.8 109.1 13.4 107.2 13.4 C 105.3 13.4 103.6 12.8 102.3 11.5 C 100.9 10.2 100.3 8.6 100.3 6.7 C 100.3 4.8 100.9 3.3 102.3 2 C 103.6 0.7 105.3 0 107.2 0 Z M 107.2 12.5 C 108.9 12.5 110.2 11.9 111.4 10.8 C 112.5 9.7 113 8.3 113 6.7 C 113 5.1 112.5 3.7 111.4 2.6 C 110.2 1.5 108.9 0.9 107.2 0.9 C 105.6 0.9 104.2 1.5 103.1 2.6 C 101.9 3.7 101.4 5.1 101.4 6.7 C 101.4 8.3 101.9 9.7 103.1 10.8 C 104.2 11.9 105.6 12.5 107.2 12.5 Z M 126.3 0.2 L 127.3 0.2 C 127.3 0.2 127.29 7.31 127.3 7.3 C 127.3 9.3 126.8 10.8 125.8 11.8 C 124.7 12.9 123.4 13.4 121.8 13.4 C 120.2 13.4 118.9 12.9 117.9 11.9 C 116.8 10.8 116.3 9.4 116.3 7.5 C 116.33 7.55 116.3 0.2 116.3 0.2 L 117.4 0.2 C 117.4 0.2 117.36 7.51 117.4 7.5 C 117.4 9.1 117.8 10.3 118.6 11.2 C 119.4 12.1 120.5 12.5 121.8 12.5 C 123.1 12.5 124.2 12.1 125 11.2 C 125.9 10.3 126.3 9 126.3 7.4 C 126.28 7.37 126.3 0.2 126.3 0.2 Z M 139.4 0.2 L 139.4 1 L 134.5 1 L 134.5 13.3 L 133.5 13.3 L 133.5 1 L 128.6 1 L 128.6 0.2 L 139.4 0.2 Z M 150.7 0.2 L 151.7 0.2 C 151.7 0.2 151.7 7.31 151.7 7.3 C 151.7 9.3 151.2 10.8 150.2 11.8 C 149.2 12.9 147.8 13.4 146.2 13.4 C 144.6 13.4 143.3 12.9 142.3 11.9 C 141.3 10.8 140.7 9.4 140.7 7.5 C 140.75 7.55 140.7 0.2 140.7 0.2 L 141.8 0.2 C 141.8 0.2 141.77 7.51 141.8 7.5 C 141.8 9.1 142.2 10.3 143 11.2 C 143.8 12.1 144.9 12.5 146.2 12.5 C 147.5 12.5 148.6 12.1 149.5 11.2 C 150.3 10.3 150.7 9 150.7 7.4 C 150.69 7.37 150.7 0.2 150.7 0.2 Z M 154.5 0.2 C 154.5 0.2 157.19 0.17 157.2 0.2 C 158.6 0.2 159.7 0.5 160.4 1.1 C 161.2 1.7 161.5 2.5 161.5 3.6 C 161.5 4.8 160.9 5.8 159.7 6.5 C 161.7 6.9 162.7 8 162.7 9.8 C 162.7 10.9 162.3 11.7 161.5 12.3 C 160.7 13 159.6 13.3 158.3 13.3 C 158.3 13.27 154.5 13.3 154.5 13.3 L 154.5 0.2 Z M 155.5 1 L 155.5 6.2 C 155.5 6.2 156.88 6.23 156.9 6.2 C 159.3 6.2 160.5 5.4 160.5 3.6 C 160.5 1.9 159.2 1 156.8 1 C 156.84 1.01 155.5 1 155.5 1 Z M 155.5 7.1 L 155.5 12.4 C 155.5 12.4 158.18 12.42 158.2 12.4 C 159.3 12.4 160.2 12.2 160.7 11.7 C 161.3 11.2 161.6 10.6 161.6 9.8 C 161.6 8 160.3 7.1 157.7 7.1 C 157.74 7.09 155.5 7.1 155.5 7.1 Z M 171.8 0.2 L 171.8 1 L 165.7 1 L 165.7 6.3 L 171.6 6.3 L 171.6 7.1 L 165.7 7.1 L 165.7 12.4 L 171.9 12.4 L 171.9 13.3 L 164.7 13.3 L 164.7 0.2 L 171.8 0.2 Z " stroke="none" fill="#ffffff"/>  </g></svg>