<?xml version="1.0" standalone="no"?><!DOCTYPE svg PUBLIC "-//W3C//DTD SVG 1.1//EN" "http://www.w3.org/Graphics/SVG/1.1/DTD/svg11.dtd"><svg xmlns="http://www.w3.org/2000/svg" version="1.1" width="73px" height="25.1px" viewBox="0 -4 73 25.1" style="top:-4px">  <desc>About Us</desc>  <defs/>  <g id="Polygon63896">    <path d="M 6.1 11.3 L 10.2 0.8 L 11.7 0.8 L 16 11.3 L 14.4 11.3 L 13.2 8.2 L 8.8 8.2 L 7.6 11.3 L 6.1 11.3 Z M 9.2 7 L 12.7 7 C 12.7 7 11.63 4.11 11.6 4.1 C 11.3 3.2 11 2.5 10.9 1.9 C 10.8 2.6 10.6 3.3 10.3 3.9 C 10.32 3.94 9.2 7 9.2 7 Z M 18.1 11.3 L 16.9 11.3 L 16.9 0.8 L 18.2 0.8 C 18.2 0.8 18.19 4.58 18.2 4.6 C 18.7 3.9 19.4 3.6 20.3 3.6 C 20.7 3.6 21.2 3.7 21.6 3.8 C 22 4 22.4 4.3 22.6 4.6 C 22.9 5 23.1 5.4 23.3 5.9 C 23.4 6.4 23.5 6.9 23.5 7.4 C 23.5 8.7 23.2 9.7 22.5 10.4 C 21.9 11.1 21.1 11.5 20.2 11.5 C 19.3 11.5 18.6 11.1 18.1 10.4 C 18.1 10.38 18.1 11.3 18.1 11.3 Z M 18.1 7.5 C 18.1 8.4 18.2 9 18.5 9.4 C 18.9 10.1 19.4 10.4 20.1 10.4 C 20.7 10.4 21.2 10.2 21.6 9.7 C 22 9.2 22.2 8.5 22.2 7.5 C 22.2 6.5 22 5.8 21.6 5.3 C 21.2 4.9 20.7 4.6 20.2 4.6 C 19.6 4.6 19.1 4.9 18.7 5.3 C 18.3 5.8 18.1 6.5 18.1 7.5 Z M 24.6 7.5 C 24.6 6.1 25 5.1 25.8 4.4 C 26.4 3.8 27.2 3.6 28.2 3.6 C 29.2 3.6 30.1 3.9 30.7 4.6 C 31.4 5.3 31.7 6.2 31.7 7.4 C 31.7 8.4 31.6 9.2 31.3 9.7 C 31 10.3 30.6 10.7 30 11 C 29.4 11.4 28.8 11.5 28.2 11.5 C 27.1 11.5 26.2 11.2 25.6 10.5 C 24.9 9.8 24.6 8.8 24.6 7.5 Z M 25.9 7.5 C 25.9 8.5 26.1 9.2 26.5 9.7 C 27 10.2 27.5 10.4 28.2 10.4 C 28.8 10.4 29.3 10.2 29.7 9.7 C 30.2 9.2 30.4 8.5 30.4 7.5 C 30.4 6.5 30.2 5.8 29.7 5.3 C 29.3 4.9 28.8 4.6 28.2 4.6 C 27.5 4.6 27 4.9 26.5 5.3 C 26.1 5.8 25.9 6.6 25.9 7.5 Z M 38.2 11.3 C 38.2 11.3 38.21 10.22 38.2 10.2 C 37.6 11.1 36.8 11.5 35.8 11.5 C 35.3 11.5 34.9 11.4 34.5 11.2 C 34.1 11.1 33.9 10.9 33.7 10.6 C 33.5 10.3 33.3 10 33.3 9.6 C 33.2 9.4 33.2 9 33.2 8.4 C 33.19 8.44 33.2 3.7 33.2 3.7 L 34.5 3.7 C 34.5 3.7 34.48 7.95 34.5 7.9 C 34.5 8.6 34.5 9.1 34.6 9.3 C 34.6 9.6 34.8 9.9 35.1 10.1 C 35.3 10.3 35.7 10.4 36.1 10.4 C 36.4 10.4 36.8 10.3 37.1 10.1 C 37.5 9.9 37.7 9.6 37.9 9.3 C 38 8.9 38.1 8.5 38.1 7.8 C 38.07 7.8 38.1 3.7 38.1 3.7 L 39.4 3.7 L 39.4 11.3 L 38.2 11.3 Z M 43.6 10.2 C 43.8 10.2 44 10.2 44.2 10.2 C 44.2 10.2 44.4 11.3 44.4 11.3 C 44 11.4 43.7 11.4 43.4 11.4 C 42.9 11.4 42.6 11.4 42.3 11.2 C 42.1 11.1 41.9 10.9 41.8 10.6 C 41.7 10.4 41.6 9.9 41.6 9.1 C 41.62 9.11 41.6 4.7 41.6 4.7 L 40.7 4.7 L 40.7 3.7 L 41.6 3.7 L 41.6 1.8 L 42.9 1.1 L 42.9 3.7 L 44.2 3.7 L 44.2 4.7 L 42.9 4.7 C 42.9 4.7 42.9 9.18 42.9 9.2 C 42.9 9.5 42.9 9.8 43 9.9 C 43 10 43.1 10.1 43.2 10.1 C 43.3 10.2 43.4 10.2 43.6 10.2 C 43.6 10.2 43.6 10.2 43.6 10.2 Z M 56.6 0.8 L 58 0.8 C 58 0.8 57.97 6.9 58 6.9 C 58 8 57.9 8.8 57.6 9.4 C 57.4 10 56.9 10.5 56.3 10.9 C 55.7 11.3 54.9 11.5 53.9 11.5 C 52.9 11.5 52.1 11.3 51.5 11 C 50.8 10.7 50.4 10.2 50.1 9.5 C 49.8 8.9 49.7 8 49.7 6.9 C 49.72 6.9 49.7 0.8 49.7 0.8 L 51.1 0.8 C 51.1 0.8 51.1 6.89 51.1 6.9 C 51.1 7.8 51.2 8.5 51.4 8.9 C 51.5 9.3 51.8 9.7 52.2 9.9 C 52.6 10.1 53.2 10.3 53.7 10.3 C 54.8 10.3 55.5 10 55.9 9.6 C 56.4 9.1 56.6 8.2 56.6 6.9 C 56.58 6.89 56.6 0.8 56.6 0.8 Z M 59.6 9.1 C 59.6 9.1 60.9 8.9 60.9 8.9 C 61 9.4 61.2 9.8 61.5 10 C 61.8 10.3 62.3 10.4 62.8 10.4 C 63.4 10.4 63.9 10.3 64.2 10.1 C 64.5 9.8 64.6 9.6 64.6 9.2 C 64.6 8.9 64.5 8.7 64.2 8.5 C 64 8.4 63.6 8.3 62.9 8.1 C 62 7.9 61.3 7.7 60.9 7.5 C 60.6 7.3 60.3 7.1 60.1 6.8 C 59.9 6.5 59.8 6.1 59.8 5.7 C 59.8 5.4 59.9 5.1 60.1 4.8 C 60.2 4.5 60.4 4.3 60.7 4.1 C 60.9 3.9 61.2 3.8 61.5 3.7 C 61.9 3.6 62.2 3.6 62.6 3.6 C 63.2 3.6 63.7 3.6 64.2 3.8 C 64.6 4 65 4.2 65.2 4.5 C 65.4 4.8 65.6 5.2 65.6 5.7 C 65.6 5.7 64.4 5.9 64.4 5.9 C 64.3 5.5 64.2 5.2 63.9 4.9 C 63.6 4.7 63.2 4.6 62.7 4.6 C 62.1 4.6 61.7 4.7 61.4 4.9 C 61.2 5.1 61.1 5.3 61.1 5.6 C 61.1 5.8 61.1 5.9 61.2 6 C 61.3 6.2 61.5 6.3 61.7 6.4 C 61.8 6.4 62.2 6.5 62.9 6.7 C 63.8 7 64.4 7.2 64.8 7.3 C 65.1 7.5 65.4 7.7 65.6 8 C 65.8 8.3 65.9 8.7 65.9 9.1 C 65.9 9.5 65.8 9.9 65.5 10.3 C 65.3 10.7 64.9 11 64.5 11.2 C 64 11.4 63.5 11.5 62.9 11.5 C 61.9 11.5 61.1 11.3 60.6 10.9 C 60.1 10.5 59.7 9.9 59.6 9.1 Z " stroke="none" fill="#f28620"/>  </g></svg>