<?xml version="1.0" standalone="no"?><!DOCTYPE svg PUBLIC "-//W3C//DTD SVG 1.1//EN" "http://www.w3.org/Graphics/SVG/1.1/DTD/svg11.dtd"><svg xmlns="http://www.w3.org/2000/svg" version="1.1" width="97px" height="20.5px" viewBox="0 -4 97 20.5" style="top:-4px">  <desc>News and Blogs</desc>  <defs/>  <g id="Polygon67635">    <path d="M 6.9 9.1 L 6.9 0.7 L 8.1 0.7 L 12.5 7.3 L 12.5 0.7 L 13.5 0.7 L 13.5 9.1 L 12.4 9.1 L 8 2.5 L 8 9.1 L 6.9 9.1 Z M 19.5 7.1 C 19.5 7.1 20.5 7.2 20.5 7.2 C 20.3 7.9 20 8.3 19.6 8.7 C 19.1 9 18.5 9.2 17.8 9.2 C 17 9.2 16.2 8.9 15.7 8.4 C 15.2 7.8 14.9 7.1 14.9 6.1 C 14.9 5.1 15.2 4.3 15.7 3.7 C 16.3 3.1 16.9 2.8 17.8 2.8 C 18.6 2.8 19.3 3.1 19.8 3.7 C 20.3 4.2 20.6 5 20.6 6 C 20.6 6.1 20.5 6.2 20.5 6.3 C 20.5 6.3 16 6.3 16 6.3 C 16 7 16.2 7.5 16.6 7.8 C 16.9 8.2 17.3 8.4 17.8 8.4 C 18.2 8.4 18.5 8.3 18.8 8.1 C 19.1 7.9 19.3 7.5 19.5 7.1 Z M 16.1 5.4 C 16.1 5.4 19.5 5.4 19.5 5.4 C 19.4 4.9 19.3 4.5 19.1 4.3 C 18.7 3.9 18.3 3.7 17.8 3.7 C 17.3 3.7 16.9 3.9 16.6 4.2 C 16.3 4.5 16.1 4.9 16.1 5.4 Z M 22.9 9.1 L 21.1 3 L 22.1 3 L 23.1 6.5 C 23.1 6.5 23.47 7.8 23.5 7.8 C 23.5 7.7 23.6 7.3 23.8 6.5 C 23.78 6.55 24.7 3 24.7 3 L 25.8 3 L 26.7 6.5 L 27 7.7 L 27.4 6.5 L 28.4 3 L 29.4 3 L 27.5 9.1 L 26.4 9.1 L 25.5 5.4 L 25.2 4.4 L 24 9.1 L 22.9 9.1 Z M 29.9 7.3 C 29.9 7.3 30.9 7.1 30.9 7.1 C 30.9 7.5 31.1 7.8 31.4 8 C 31.6 8.2 32 8.4 32.5 8.4 C 32.9 8.4 33.3 8.3 33.5 8.1 C 33.8 7.9 33.9 7.6 33.9 7.4 C 33.9 7.2 33.8 7 33.6 6.8 C 33.4 6.7 33.1 6.6 32.5 6.5 C 31.8 6.3 31.2 6.1 30.9 6 C 30.6 5.9 30.4 5.7 30.3 5.4 C 30.1 5.2 30 4.9 30 4.6 C 30 4.3 30.1 4.1 30.2 3.8 C 30.4 3.6 30.5 3.4 30.7 3.3 C 30.9 3.2 31.1 3.1 31.4 3 C 31.7 2.9 32 2.8 32.3 2.8 C 32.8 2.8 33.2 2.9 33.5 3.1 C 33.9 3.2 34.2 3.4 34.3 3.6 C 34.5 3.8 34.6 4.2 34.7 4.6 C 34.7 4.6 33.7 4.7 33.7 4.7 C 33.6 4.4 33.5 4.1 33.3 4 C 33.1 3.8 32.8 3.7 32.4 3.7 C 31.9 3.7 31.5 3.8 31.3 3.9 C 31.1 4.1 31 4.3 31 4.5 C 31 4.6 31.1 4.7 31.2 4.8 C 31.3 4.9 31.4 5 31.6 5.1 C 31.7 5.2 32 5.2 32.5 5.4 C 33.2 5.6 33.7 5.7 34 5.9 C 34.3 6 34.5 6.2 34.7 6.4 C 34.8 6.6 34.9 6.9 34.9 7.3 C 34.9 7.6 34.8 7.9 34.6 8.3 C 34.4 8.6 34.1 8.8 33.8 9 C 33.4 9.1 33 9.2 32.5 9.2 C 31.7 9.2 31.1 9 30.7 8.7 C 30.3 8.4 30 7.9 29.9 7.3 Z M 43.6 9.1 C 43.5 8.9 43.4 8.6 43.4 8.3 C 43 8.6 42.6 8.9 42.3 9 C 41.9 9.1 41.5 9.2 41.1 9.2 C 40.5 9.2 40 9 39.6 8.7 C 39.2 8.4 39.1 8 39.1 7.5 C 39.1 7.2 39.1 6.9 39.3 6.6 C 39.4 6.4 39.6 6.2 39.8 6.1 C 40 5.9 40.3 5.8 40.5 5.7 C 40.7 5.7 41 5.6 41.5 5.6 C 42.3 5.5 42.9 5.3 43.3 5.2 C 43.3 5.1 43.3 5 43.3 4.9 C 43.3 4.5 43.2 4.2 43 4 C 42.7 3.8 42.4 3.7 41.8 3.7 C 41.3 3.7 41 3.8 40.8 4 C 40.5 4.1 40.4 4.4 40.2 4.9 C 40.2 4.9 39.2 4.7 39.2 4.7 C 39.3 4.3 39.5 3.9 39.7 3.7 C 39.9 3.4 40.2 3.2 40.6 3.1 C 41 2.9 41.5 2.8 42 2.8 C 42.5 2.8 42.9 2.9 43.2 3 C 43.6 3.2 43.8 3.3 44 3.5 C 44.1 3.7 44.2 3.9 44.3 4.2 C 44.3 4.4 44.3 4.7 44.3 5.1 C 44.3 5.1 44.3 6.5 44.3 6.5 C 44.3 7.5 44.4 8.1 44.4 8.3 C 44.4 8.6 44.5 8.8 44.7 9.1 C 44.66 9.07 43.6 9.1 43.6 9.1 C 43.6 9.1 43.59 9.07 43.6 9.1 Z M 43.3 6 C 42.9 6.2 42.4 6.3 41.6 6.4 C 41.2 6.5 40.9 6.5 40.7 6.6 C 40.5 6.7 40.4 6.8 40.3 6.9 C 40.2 7.1 40.2 7.3 40.2 7.4 C 40.2 7.7 40.3 7.9 40.5 8.1 C 40.7 8.3 41 8.4 41.4 8.4 C 41.8 8.4 42.1 8.3 42.4 8.1 C 42.8 8 43 7.7 43.1 7.4 C 43.2 7.2 43.3 6.8 43.3 6.4 C 43.3 6.4 43.3 6 43.3 6 Z M 45.9 9.1 L 45.9 3 L 46.9 3 C 46.9 3 46.86 3.85 46.9 3.8 C 47.3 3.2 48 2.8 48.8 2.8 C 49.2 2.8 49.5 2.9 49.8 3 C 50.1 3.2 50.3 3.3 50.5 3.6 C 50.7 3.8 50.8 4 50.8 4.3 C 50.9 4.5 50.9 4.8 50.9 5.3 C 50.88 5.33 50.9 9.1 50.9 9.1 L 49.8 9.1 C 49.8 9.1 49.85 5.37 49.8 5.4 C 49.8 4.9 49.8 4.6 49.7 4.4 C 49.6 4.2 49.5 4 49.3 3.9 C 49.1 3.8 48.9 3.7 48.6 3.7 C 48.1 3.7 47.8 3.9 47.4 4.2 C 47.1 4.4 47 5 47 5.7 C 46.97 5.74 47 9.1 47 9.1 L 45.9 9.1 Z M 56.4 9.1 C 56.4 9.1 56.41 8.3 56.4 8.3 C 56 8.9 55.5 9.2 54.7 9.2 C 54.2 9.2 53.8 9.1 53.4 8.8 C 53 8.5 52.6 8.2 52.4 7.7 C 52.2 7.2 52.1 6.7 52.1 6 C 52.1 5.4 52.2 4.9 52.4 4.4 C 52.6 3.9 52.9 3.5 53.3 3.2 C 53.7 3 54.2 2.8 54.7 2.8 C 55 2.8 55.4 2.9 55.6 3.1 C 55.9 3.2 56.2 3.4 56.3 3.7 C 56.34 3.68 56.3 0.7 56.3 0.7 L 57.4 0.7 L 57.4 9.1 L 56.4 9.1 Z M 53.1 6 C 53.1 6.8 53.3 7.4 53.6 7.8 C 54 8.2 54.4 8.4 54.8 8.4 C 55.3 8.4 55.6 8.2 56 7.8 C 56.3 7.4 56.4 6.9 56.4 6.1 C 56.4 5.3 56.3 4.7 55.9 4.3 C 55.6 3.9 55.2 3.7 54.8 3.7 C 54.3 3.7 53.9 3.9 53.6 4.3 C 53.3 4.6 53.1 5.2 53.1 6 Z M 62.3 9.1 L 62.3 0.7 C 62.3 0.7 65.48 0.67 65.5 0.7 C 66.1 0.7 66.6 0.8 67 0.9 C 67.4 1.1 67.7 1.4 67.9 1.7 C 68.2 2.1 68.3 2.4 68.3 2.8 C 68.3 3.2 68.2 3.5 68 3.8 C 67.8 4.1 67.5 4.4 67.1 4.6 C 67.6 4.7 68 5 68.3 5.4 C 68.5 5.7 68.7 6.1 68.7 6.6 C 68.7 7 68.6 7.4 68.4 7.7 C 68.3 8.1 68.1 8.3 67.8 8.5 C 67.6 8.7 67.3 8.8 66.9 8.9 C 66.5 9 66.1 9.1 65.5 9.1 C 65.54 9.07 62.3 9.1 62.3 9.1 Z M 63.4 4.2 C 63.4 4.2 65.26 4.2 65.3 4.2 C 65.8 4.2 66.1 4.2 66.3 4.1 C 66.6 4 66.8 3.9 67 3.7 C 67.1 3.5 67.2 3.2 67.2 2.9 C 67.2 2.7 67.1 2.4 67 2.2 C 66.8 2 66.6 1.9 66.4 1.8 C 66.2 1.7 65.7 1.7 65.1 1.7 C 65.12 1.66 63.4 1.7 63.4 1.7 L 63.4 4.2 Z M 63.4 8.1 C 63.4 8.1 65.54 8.08 65.5 8.1 C 65.9 8.1 66.1 8.1 66.3 8 C 66.5 8 66.8 7.9 66.9 7.8 C 67.1 7.7 67.2 7.5 67.4 7.3 C 67.5 7.1 67.5 6.9 67.5 6.6 C 67.5 6.3 67.4 6 67.3 5.8 C 67.1 5.6 66.9 5.4 66.6 5.3 C 66.3 5.2 65.9 5.2 65.4 5.2 C 65.39 5.19 63.4 5.2 63.4 5.2 L 63.4 8.1 Z M 70.1 9.1 L 70.1 0.7 L 71.1 0.7 L 71.1 9.1 L 70.1 9.1 Z M 72.3 6 C 72.3 4.9 72.6 4.1 73.2 3.5 C 73.8 3.1 74.4 2.8 75.1 2.8 C 76 2.8 76.7 3.1 77.2 3.7 C 77.7 4.2 78 5 78 5.9 C 78 6.7 77.9 7.3 77.6 7.8 C 77.4 8.2 77.1 8.6 76.6 8.8 C 76.2 9.1 75.7 9.2 75.1 9.2 C 74.3 9.2 73.6 8.9 73.1 8.4 C 72.6 7.8 72.3 7.1 72.3 6 Z M 73.4 6 C 73.4 6.8 73.5 7.4 73.9 7.8 C 74.2 8.2 74.6 8.4 75.1 8.4 C 75.7 8.4 76.1 8.2 76.4 7.8 C 76.8 7.4 76.9 6.8 76.9 6 C 76.9 5.2 76.8 4.7 76.4 4.3 C 76.1 3.9 75.7 3.7 75.1 3.7 C 74.6 3.7 74.2 3.9 73.9 4.3 C 73.5 4.7 73.4 5.2 73.4 6 Z M 79 9.6 C 79 9.6 80 9.7 80 9.7 C 80.1 10 80.2 10.3 80.4 10.4 C 80.6 10.6 81 10.7 81.4 10.7 C 81.9 10.7 82.3 10.6 82.5 10.4 C 82.8 10.2 83 9.9 83 9.6 C 83.1 9.4 83.1 8.9 83.1 8.3 C 82.7 8.8 82.1 9.1 81.4 9.1 C 80.6 9.1 80 8.8 79.5 8.2 C 79 7.6 78.8 6.8 78.8 6 C 78.8 5.4 78.9 4.9 79.1 4.4 C 79.3 3.9 79.6 3.5 80 3.2 C 80.4 3 80.9 2.8 81.4 2.8 C 82.2 2.8 82.8 3.1 83.2 3.7 C 83.22 3.72 83.2 3 83.2 3 L 84.2 3 C 84.2 3 84.17 8.24 84.2 8.2 C 84.2 9.2 84.1 9.9 83.9 10.3 C 83.7 10.7 83.4 11 83 11.2 C 82.5 11.4 82 11.5 81.4 11.5 C 80.7 11.5 80.1 11.4 79.7 11 C 79.2 10.7 79 10.2 79 9.6 Z M 79.9 5.9 C 79.9 6.7 80 7.3 80.3 7.7 C 80.7 8 81.1 8.2 81.5 8.2 C 82 8.2 82.4 8 82.7 7.7 C 83 7.3 83.2 6.7 83.2 5.9 C 83.2 5.2 83 4.6 82.7 4.3 C 82.4 3.9 82 3.7 81.5 3.7 C 81.1 3.7 80.7 3.9 80.4 4.3 C 80 4.6 79.9 5.2 79.9 5.9 Z M 85.3 7.3 C 85.3 7.3 86.3 7.1 86.3 7.1 C 86.4 7.5 86.6 7.8 86.8 8 C 87.1 8.2 87.4 8.4 87.9 8.4 C 88.4 8.4 88.7 8.3 89 8.1 C 89.2 7.9 89.3 7.6 89.3 7.4 C 89.3 7.2 89.2 7 89 6.8 C 88.9 6.7 88.5 6.6 88 6.5 C 87.2 6.3 86.7 6.1 86.4 6 C 86.1 5.9 85.9 5.7 85.7 5.4 C 85.6 5.2 85.5 4.9 85.5 4.6 C 85.5 4.3 85.6 4.1 85.7 3.8 C 85.8 3.6 86 3.4 86.2 3.3 C 86.3 3.2 86.6 3.1 86.8 3 C 87.1 2.9 87.4 2.8 87.7 2.8 C 88.2 2.8 88.6 2.9 89 3.1 C 89.3 3.2 89.6 3.4 89.8 3.6 C 90 3.8 90.1 4.2 90.1 4.6 C 90.1 4.6 89.1 4.7 89.1 4.7 C 89.1 4.4 89 4.1 88.7 4 C 88.5 3.8 88.2 3.7 87.8 3.7 C 87.3 3.7 87 3.8 86.8 3.9 C 86.6 4.1 86.5 4.3 86.5 4.5 C 86.5 4.6 86.5 4.7 86.6 4.8 C 86.7 4.9 86.8 5 87 5.1 C 87.1 5.2 87.4 5.2 87.9 5.4 C 88.6 5.6 89.2 5.7 89.4 5.9 C 89.7 6 90 6.2 90.1 6.4 C 90.3 6.6 90.4 6.9 90.4 7.3 C 90.4 7.6 90.3 7.9 90.1 8.3 C 89.9 8.6 89.6 8.8 89.2 9 C 88.8 9.1 88.4 9.2 87.9 9.2 C 87.1 9.2 86.5 9 86.1 8.7 C 85.7 8.4 85.4 7.9 85.3 7.3 Z " stroke="none" fill="#f28620"/>  </g></svg>