<?xml version="1.0" standalone="no"?><!DOCTYPE svg PUBLIC "-//W3C//DTD SVG 1.1//EN" "http://www.w3.org/Graphics/SVG/1.1/DTD/svg11.dtd"><svg xmlns="http://www.w3.org/2000/svg" version="1.1" width="492px" height="103.3px" viewBox="0 -16 492 103.3" style="top:-16px">  <desc>YouTube</desc>  <defs/>  <g id="Polygon63198">    <path d="M 189.2 0.3 L 179.7 11.7 L 179.7 24.9 L 177.8 24.9 L 177.8 11.7 L 168.3 0.3 L 170.6 0.3 L 178.8 10 L 186.9 0.3 L 189.2 0.3 Z M 201 0 C 204.6 0 207.7 1.2 210.2 3.7 C 212.7 6.1 214 9.1 214 12.6 C 214 16.1 212.7 19.1 210.2 21.5 C 207.7 24 204.6 25.2 201 25.2 C 197.4 25.2 194.3 24 191.8 21.5 C 189.3 19.1 188 16.1 188 12.6 C 188 9.1 189.3 6.1 191.8 3.7 C 194.3 1.2 197.4 0 201 0 Z M 201.1 23.4 C 204.1 23.4 206.7 22.4 208.8 20.3 C 210.9 18.2 212 15.6 212 12.6 C 212 9.6 210.9 7 208.8 4.9 C 206.7 2.8 204.1 1.8 201.1 1.8 C 198 1.8 195.4 2.8 193.3 4.9 C 191.1 7 190.1 9.6 190.1 12.6 C 190.1 15.6 191.1 18.2 193.3 20.3 C 195.4 22.4 198 23.4 201.1 23.4 Z M 236.8 0.3 L 238.7 0.3 C 238.7 0.3 238.67 13.71 238.7 13.7 C 238.7 17.4 237.7 20.2 235.8 22.2 C 233.9 24.2 231.4 25.2 228.4 25.2 C 225.4 25.2 222.9 24.2 221 22.2 C 219.1 20.3 218.1 17.6 218.1 14.2 C 218.12 14.15 218.1 0.3 218.1 0.3 L 220 0.3 C 220 0.3 220.04 14.08 220 14.1 C 220 17 220.8 19.3 222.4 21 C 223.9 22.6 225.9 23.4 228.4 23.4 C 230.9 23.4 232.9 22.6 234.4 20.9 C 236 19.3 236.8 16.9 236.8 13.8 C 236.77 13.82 236.8 0.3 236.8 0.3 Z M 261.4 0.3 L 261.4 1.9 L 252.2 1.9 L 252.2 24.9 L 250.3 24.9 L 250.3 1.9 L 241.1 1.9 L 241.1 0.3 L 261.4 0.3 Z M 282.5 0.3 L 284.4 0.3 C 284.4 0.3 284.45 13.71 284.4 13.7 C 284.4 17.4 283.5 20.2 281.6 22.2 C 279.7 24.2 277.2 25.2 274.2 25.2 C 271.1 25.2 268.7 24.2 266.8 22.2 C 264.9 20.3 263.9 17.6 263.9 14.2 C 263.9 14.15 263.9 0.3 263.9 0.3 L 265.8 0.3 C 265.8 0.3 265.81 14.08 265.8 14.1 C 265.8 17 266.6 19.3 268.1 21 C 269.7 22.6 271.7 23.4 274.2 23.4 C 276.6 23.4 278.7 22.6 280.2 20.9 C 281.8 19.3 282.5 16.9 282.5 13.8 C 282.55 13.82 282.5 0.3 282.5 0.3 Z M 289.6 0.3 C 289.6 0.3 294.73 0.32 294.7 0.3 C 297.4 0.3 299.4 0.9 300.8 2 C 302.2 3.1 302.9 4.7 302.9 6.7 C 302.9 9 301.7 10.9 299.4 12.1 C 303.2 12.9 305 15 305 18.4 C 305 20.3 304.3 21.9 302.8 23.1 C 301.3 24.3 299.3 24.9 296.8 24.9 C 296.8 24.87 289.6 24.9 289.6 24.9 L 289.6 0.3 Z M 291.5 1.9 L 291.5 11.7 C 291.5 11.7 294.15 11.69 294.1 11.7 C 298.6 11.7 300.8 10.1 300.8 6.8 C 300.8 3.5 298.6 1.9 294.1 1.9 C 294.08 1.9 291.5 1.9 291.5 1.9 Z M 291.5 13.3 L 291.5 23.3 C 291.5 23.3 296.59 23.29 296.6 23.3 C 298.7 23.3 300.3 22.8 301.4 21.9 C 302.5 21 303 19.8 303 18.3 C 303 15 300.6 13.3 295.8 13.3 C 295.77 13.29 291.5 13.3 291.5 13.3 Z M 322.1 0.3 L 322.1 1.9 L 310.6 1.9 L 310.6 11.7 L 321.8 11.7 L 321.8 13.3 L 310.6 13.3 L 310.6 23.3 L 322.4 23.3 L 322.4 24.9 L 308.7 24.9 L 308.7 0.3 L 322.1 0.3 Z " stroke="none" fill="#ffffff"/>  </g></svg>