<?xml version="1.0" standalone="no"?><!DOCTYPE svg PUBLIC "-//W3C//DTD SVG 1.1//EN" "http://www.w3.org/Graphics/SVG/1.1/DTD/svg11.dtd"><svg xmlns="http://www.w3.org/2000/svg" version="1.1" width="262.3px" height="57.5px" viewBox="0 -9 262.3 57.5" style="top:-9px">  <desc>WEBINARS Deep dive into on the pulse, industry topics!</desc>  <defs/>  <g id="Polygon69021">    <path d="M 17.9 41.4 L 17.9 33 C 17.9 33 20.79 33.03 20.8 33 C 21.4 33 21.9 33.1 22.3 33.1 C 22.8 33.3 23.2 33.5 23.5 33.7 C 24 34.1 24.3 34.6 24.5 35.2 C 24.7 35.8 24.8 36.4 24.8 37.2 C 24.8 37.8 24.8 38.4 24.6 38.9 C 24.5 39.4 24.3 39.8 24 40.1 C 23.8 40.4 23.6 40.7 23.3 40.9 C 23 41 22.7 41.2 22.3 41.3 C 21.9 41.4 21.4 41.4 20.9 41.4 C 20.93 41.43 17.9 41.4 17.9 41.4 Z M 19 40.4 C 19 40.4 20.81 40.43 20.8 40.4 C 21.4 40.4 21.8 40.4 22.1 40.3 C 22.4 40.2 22.7 40 22.9 39.8 C 23.1 39.6 23.3 39.2 23.5 38.8 C 23.6 38.3 23.7 37.8 23.7 37.2 C 23.7 36.3 23.6 35.6 23.3 35.1 C 23 34.7 22.6 34.4 22.2 34.2 C 21.9 34.1 21.4 34 20.8 34 C 20.78 34.02 19 34 19 34 L 19 40.4 Z M 30.4 39.5 C 30.4 39.5 31.5 39.6 31.5 39.6 C 31.3 40.2 31 40.7 30.5 41 C 30.1 41.4 29.5 41.6 28.8 41.6 C 27.9 41.6 27.2 41.3 26.7 40.7 C 26.2 40.2 25.9 39.4 25.9 38.4 C 25.9 37.4 26.2 36.6 26.7 36.1 C 27.2 35.5 27.9 35.2 28.7 35.2 C 29.6 35.2 30.2 35.5 30.7 36 C 31.2 36.6 31.5 37.4 31.5 38.4 C 31.5 38.4 31.5 38.5 31.5 38.6 C 31.5 38.6 27 38.6 27 38.6 C 27 39.3 27.2 39.8 27.5 40.2 C 27.9 40.5 28.3 40.7 28.8 40.7 C 29.2 40.7 29.5 40.6 29.8 40.4 C 30 40.2 30.3 39.9 30.4 39.5 Z M 27 37.8 C 27 37.8 30.4 37.8 30.4 37.8 C 30.4 37.3 30.2 36.9 30 36.6 C 29.7 36.3 29.3 36.1 28.8 36.1 C 28.3 36.1 27.9 36.2 27.6 36.5 C 27.2 36.8 27.1 37.3 27 37.8 Z M 36.9 39.5 C 36.9 39.5 38 39.6 38 39.6 C 37.8 40.2 37.5 40.7 37.1 41 C 36.6 41.4 36 41.6 35.3 41.6 C 34.4 41.6 33.7 41.3 33.2 40.7 C 32.7 40.2 32.4 39.4 32.4 38.4 C 32.4 37.4 32.7 36.6 33.2 36.1 C 33.7 35.5 34.4 35.2 35.3 35.2 C 36.1 35.2 36.7 35.5 37.3 36 C 37.8 36.6 38 37.4 38 38.4 C 38 38.4 38 38.5 38 38.6 C 38 38.6 33.5 38.6 33.5 38.6 C 33.5 39.3 33.7 39.8 34.1 40.2 C 34.4 40.5 34.8 40.7 35.3 40.7 C 35.7 40.7 36 40.6 36.3 40.4 C 36.6 40.2 36.8 39.9 36.9 39.5 Z M 33.5 37.8 C 33.5 37.8 36.9 37.8 36.9 37.8 C 36.9 37.3 36.8 36.9 36.6 36.6 C 36.2 36.3 35.8 36.1 35.3 36.1 C 34.8 36.1 34.4 36.2 34.1 36.5 C 33.8 36.8 33.6 37.3 33.5 37.8 Z M 39.3 43.8 L 39.3 35.3 L 40.2 35.3 C 40.2 35.3 40.23 36.13 40.2 36.1 C 40.5 35.8 40.7 35.6 41 35.4 C 41.3 35.3 41.6 35.2 42 35.2 C 42.5 35.2 43 35.3 43.4 35.6 C 43.8 35.9 44.1 36.2 44.3 36.7 C 44.5 37.2 44.6 37.8 44.6 38.3 C 44.6 39 44.5 39.5 44.2 40 C 44 40.5 43.7 40.9 43.3 41.2 C 42.8 41.4 42.4 41.6 41.9 41.6 C 41.6 41.6 41.3 41.5 41 41.3 C 40.7 41.2 40.5 41 40.3 40.8 C 40.32 40.8 40.3 43.8 40.3 43.8 L 39.3 43.8 Z M 40.2 38.4 C 40.2 39.2 40.4 39.8 40.7 40.2 C 41 40.5 41.4 40.7 41.9 40.7 C 42.3 40.7 42.7 40.5 43 40.1 C 43.4 39.7 43.5 39.1 43.5 38.3 C 43.5 37.6 43.4 37 43 36.6 C 42.7 36.2 42.3 36 41.9 36 C 41.5 36 41.1 36.2 40.7 36.6 C 40.4 37 40.2 37.6 40.2 38.4 Z M 53 41.4 C 53 41.4 53.03 40.66 53 40.7 C 52.6 41.3 52.1 41.6 51.3 41.6 C 50.8 41.6 50.4 41.4 50 41.2 C 49.6 40.9 49.3 40.5 49 40 C 48.8 39.6 48.7 39 48.7 38.4 C 48.7 37.8 48.8 37.2 49 36.7 C 49.2 36.2 49.5 35.9 49.9 35.6 C 50.3 35.3 50.8 35.2 51.3 35.2 C 51.6 35.2 52 35.3 52.3 35.4 C 52.5 35.6 52.8 35.8 53 36 C 52.96 36.04 53 33 53 33 L 54 33 L 54 41.4 L 53 41.4 Z M 49.8 38.4 C 49.8 39.2 49.9 39.8 50.3 40.1 C 50.6 40.5 51 40.7 51.4 40.7 C 51.9 40.7 52.3 40.5 52.6 40.2 C 52.9 39.8 53 39.2 53 38.5 C 53 37.6 52.9 37 52.6 36.6 C 52.2 36.3 51.8 36.1 51.4 36.1 C 50.9 36.1 50.5 36.2 50.2 36.6 C 49.9 37 49.8 37.6 49.8 38.4 Z M 55.6 34.2 L 55.6 33 L 56.6 33 L 56.6 34.2 L 55.6 34.2 Z M 55.6 41.4 L 55.6 35.3 L 56.6 35.3 L 56.6 41.4 L 55.6 41.4 Z M 59.9 41.4 L 57.6 35.3 L 58.7 35.3 C 58.7 35.3 59.98 38.99 60 39 C 60.1 39.4 60.3 39.8 60.4 40.2 C 60.5 39.9 60.6 39.5 60.8 39.1 C 60.75 39.05 62.1 35.3 62.1 35.3 L 63.2 35.3 L 60.9 41.4 L 59.9 41.4 Z M 68.2 39.5 C 68.2 39.5 69.3 39.6 69.3 39.6 C 69.1 40.2 68.8 40.7 68.4 41 C 67.9 41.4 67.3 41.6 66.6 41.6 C 65.7 41.6 65 41.3 64.5 40.7 C 64 40.2 63.7 39.4 63.7 38.4 C 63.7 37.4 64 36.6 64.5 36.1 C 65.1 35.5 65.7 35.2 66.6 35.2 C 67.4 35.2 68.1 35.5 68.6 36 C 69.1 36.6 69.3 37.4 69.3 38.4 C 69.3 38.4 69.3 38.5 69.3 38.6 C 69.3 38.6 64.8 38.6 64.8 38.6 C 64.8 39.3 65 39.8 65.4 40.2 C 65.7 40.5 66.1 40.7 66.6 40.7 C 67 40.7 67.3 40.6 67.6 40.4 C 67.9 40.2 68.1 39.9 68.2 39.5 Z M 64.9 37.8 C 64.9 37.8 68.3 37.8 68.3 37.8 C 68.2 37.3 68.1 36.9 67.9 36.6 C 67.5 36.3 67.1 36.1 66.6 36.1 C 66.1 36.1 65.7 36.2 65.4 36.5 C 65.1 36.8 64.9 37.3 64.9 37.8 Z M 73.9 34.2 L 73.9 33 L 74.9 33 L 74.9 34.2 L 73.9 34.2 Z M 73.9 41.4 L 73.9 35.3 L 74.9 35.3 L 74.9 41.4 L 73.9 41.4 Z M 76.5 41.4 L 76.5 35.3 L 77.4 35.3 C 77.4 35.3 77.4 36.21 77.4 36.2 C 77.8 35.5 78.5 35.2 79.3 35.2 C 79.7 35.2 80 35.3 80.3 35.4 C 80.7 35.5 80.9 35.7 81 35.9 C 81.2 36.1 81.3 36.4 81.4 36.7 C 81.4 36.9 81.4 37.2 81.4 37.7 C 81.41 37.68 81.4 41.4 81.4 41.4 L 80.4 41.4 C 80.4 41.4 80.38 37.72 80.4 37.7 C 80.4 37.3 80.3 37 80.3 36.8 C 80.2 36.6 80 36.4 79.8 36.3 C 79.6 36.2 79.4 36.1 79.1 36.1 C 78.7 36.1 78.3 36.2 78 36.5 C 77.7 36.8 77.5 37.3 77.5 38.1 C 77.5 38.1 77.5 41.4 77.5 41.4 L 76.5 41.4 Z M 84.8 40.5 C 84.9 40.5 85.1 40.5 85.2 40.5 C 85.2 40.5 85.4 41.4 85.4 41.4 C 85.1 41.5 84.8 41.5 84.6 41.5 C 84.2 41.5 84 41.4 83.7 41.3 C 83.5 41.2 83.4 41.1 83.3 40.9 C 83.2 40.7 83.2 40.3 83.2 39.6 C 83.18 39.64 83.2 36.1 83.2 36.1 L 82.4 36.1 L 82.4 35.3 L 83.2 35.3 L 83.2 33.8 L 84.2 33.2 L 84.2 35.3 L 85.2 35.3 L 85.2 36.1 L 84.2 36.1 C 84.2 36.1 84.21 39.7 84.2 39.7 C 84.2 40 84.2 40.2 84.3 40.3 C 84.3 40.4 84.4 40.4 84.4 40.5 C 84.5 40.5 84.6 40.5 84.8 40.5 C 84.8 40.5 84.8 40.5 84.8 40.5 Z M 85.9 38.4 C 85.9 37.3 86.2 36.4 86.8 35.9 C 87.3 35.4 88 35.2 88.7 35.2 C 89.6 35.2 90.2 35.5 90.8 36 C 91.3 36.6 91.6 37.3 91.6 38.3 C 91.6 39.1 91.5 39.7 91.2 40.1 C 91 40.6 90.6 40.9 90.2 41.2 C 89.7 41.4 89.3 41.6 88.7 41.6 C 87.9 41.6 87.2 41.3 86.7 40.7 C 86.1 40.2 85.9 39.4 85.9 38.4 Z M 86.9 38.4 C 86.9 39.2 87.1 39.7 87.4 40.1 C 87.8 40.5 88.2 40.7 88.7 40.7 C 89.2 40.7 89.7 40.5 90 40.1 C 90.3 39.7 90.5 39.1 90.5 38.3 C 90.5 37.6 90.3 37 90 36.6 C 89.7 36.3 89.2 36.1 88.7 36.1 C 88.2 36.1 87.8 36.3 87.4 36.6 C 87.1 37 86.9 37.6 86.9 38.4 Z M 95.7 38.4 C 95.7 37.3 96 36.4 96.6 35.9 C 97.1 35.4 97.8 35.2 98.5 35.2 C 99.3 35.2 100 35.5 100.6 36 C 101.1 36.6 101.4 37.3 101.4 38.3 C 101.4 39.1 101.2 39.7 101 40.1 C 100.8 40.6 100.4 40.9 100 41.2 C 99.5 41.4 99 41.6 98.5 41.6 C 97.7 41.6 97 41.3 96.4 40.7 C 95.9 40.2 95.7 39.4 95.7 38.4 Z M 96.7 38.4 C 96.7 39.2 96.9 39.7 97.2 40.1 C 97.6 40.5 98 40.7 98.5 40.7 C 99 40.7 99.4 40.5 99.8 40.1 C 100.1 39.7 100.3 39.1 100.3 38.3 C 100.3 37.6 100.1 37 99.8 36.6 C 99.4 36.3 99 36.1 98.5 36.1 C 98 36.1 97.6 36.3 97.2 36.6 C 96.9 37 96.7 37.6 96.7 38.4 Z M 102.6 41.4 L 102.6 35.3 L 103.5 35.3 C 103.5 35.3 103.49 36.21 103.5 36.2 C 103.9 35.5 104.6 35.2 105.4 35.2 C 105.8 35.2 106.1 35.3 106.4 35.4 C 106.7 35.5 107 35.7 107.1 35.9 C 107.3 36.1 107.4 36.4 107.5 36.7 C 107.5 36.9 107.5 37.2 107.5 37.7 C 107.51 37.68 107.5 41.4 107.5 41.4 L 106.5 41.4 C 106.5 41.4 106.48 37.72 106.5 37.7 C 106.5 37.3 106.4 37 106.4 36.8 C 106.3 36.6 106.1 36.4 105.9 36.3 C 105.7 36.2 105.5 36.1 105.2 36.1 C 104.8 36.1 104.4 36.2 104.1 36.5 C 103.8 36.8 103.6 37.3 103.6 38.1 C 103.6 38.1 103.6 41.4 103.6 41.4 L 102.6 41.4 Z M 108.7 38.9 L 108.7 37.9 L 111.9 37.9 L 111.9 38.9 L 108.7 38.9 Z M 114.8 40.5 C 114.9 40.5 115.1 40.5 115.3 40.5 C 115.3 40.5 115.4 41.4 115.4 41.4 C 115.1 41.5 114.8 41.5 114.6 41.5 C 114.2 41.5 114 41.4 113.7 41.3 C 113.5 41.2 113.4 41.1 113.3 40.9 C 113.2 40.7 113.2 40.3 113.2 39.6 C 113.19 39.64 113.2 36.1 113.2 36.1 L 112.4 36.1 L 112.4 35.3 L 113.2 35.3 L 113.2 33.8 L 114.2 33.2 L 114.2 35.3 L 115.3 35.3 L 115.3 36.1 L 114.2 36.1 C 114.2 36.1 114.21 39.7 114.2 39.7 C 114.2 40 114.2 40.2 114.3 40.3 C 114.3 40.4 114.4 40.4 114.4 40.5 C 114.5 40.5 114.6 40.5 114.8 40.5 C 114.8 40.5 114.8 40.5 114.8 40.5 Z M 116.3 41.4 L 116.3 33 L 117.3 33 C 117.3 33 117.29 36.04 117.3 36 C 117.8 35.5 118.4 35.2 119.1 35.2 C 119.6 35.2 120 35.3 120.3 35.5 C 120.6 35.6 120.9 35.9 121 36.2 C 121.1 36.5 121.2 37 121.2 37.6 C 121.21 37.57 121.2 41.4 121.2 41.4 L 120.2 41.4 C 120.2 41.4 120.18 37.57 120.2 37.6 C 120.2 37.1 120.1 36.7 119.8 36.4 C 119.6 36.2 119.3 36.1 118.9 36.1 C 118.6 36.1 118.3 36.2 118 36.3 C 117.8 36.5 117.6 36.7 117.5 37 C 117.3 37.2 117.3 37.6 117.3 38.1 C 117.29 38.1 117.3 41.4 117.3 41.4 L 116.3 41.4 Z M 126.9 39.5 C 126.9 39.5 128 39.6 128 39.6 C 127.8 40.2 127.5 40.7 127.1 41 C 126.6 41.4 126 41.6 125.3 41.6 C 124.4 41.6 123.7 41.3 123.2 40.7 C 122.7 40.2 122.4 39.4 122.4 38.4 C 122.4 37.4 122.7 36.6 123.2 36.1 C 123.8 35.5 124.4 35.2 125.3 35.2 C 126.1 35.2 126.8 35.5 127.3 36 C 127.8 36.6 128 37.4 128 38.4 C 128 38.4 128 38.5 128 38.6 C 128 38.6 123.5 38.6 123.5 38.6 C 123.5 39.3 123.7 39.8 124.1 40.2 C 124.4 40.5 124.8 40.7 125.3 40.7 C 125.7 40.7 126 40.6 126.3 40.4 C 126.6 40.2 126.8 39.9 126.9 39.5 Z M 123.6 37.8 C 123.6 37.8 127 37.8 127 37.8 C 126.9 37.3 126.8 36.9 126.6 36.6 C 126.2 36.3 125.8 36.1 125.3 36.1 C 124.8 36.1 124.4 36.2 124.1 36.5 C 123.8 36.8 123.6 37.3 123.6 37.8 Z M 128.9 38.9 L 128.9 37.9 L 132.1 37.9 L 132.1 38.9 L 128.9 38.9 Z M 133.2 43.8 L 133.2 35.3 L 134.2 35.3 C 134.2 35.3 134.16 36.13 134.2 36.1 C 134.4 35.8 134.6 35.6 134.9 35.4 C 135.2 35.3 135.5 35.2 135.9 35.2 C 136.4 35.2 136.9 35.3 137.3 35.6 C 137.7 35.9 138 36.2 138.2 36.7 C 138.4 37.2 138.5 37.8 138.5 38.3 C 138.5 39 138.4 39.5 138.2 40 C 137.9 40.5 137.6 40.9 137.2 41.2 C 136.8 41.4 136.3 41.6 135.8 41.6 C 135.5 41.6 135.2 41.5 134.9 41.3 C 134.6 41.2 134.4 41 134.2 40.8 C 134.25 40.8 134.2 43.8 134.2 43.8 L 133.2 43.8 Z M 134.2 38.4 C 134.2 39.2 134.3 39.8 134.6 40.2 C 134.9 40.5 135.3 40.7 135.8 40.7 C 136.2 40.7 136.6 40.5 137 40.1 C 137.3 39.7 137.4 39.1 137.4 38.3 C 137.4 37.6 137.3 37 137 36.6 C 136.6 36.2 136.3 36 135.8 36 C 135.4 36 135 36.2 134.7 36.6 C 134.3 37 134.2 37.6 134.2 38.4 Z M 143.7 41.4 C 143.7 41.4 143.73 40.53 143.7 40.5 C 143.3 41.2 142.6 41.6 141.8 41.6 C 141.4 41.6 141.1 41.5 140.8 41.4 C 140.5 41.2 140.3 41 140.1 40.8 C 139.9 40.6 139.8 40.4 139.8 40.1 C 139.7 39.9 139.7 39.6 139.7 39.1 C 139.72 39.11 139.7 35.3 139.7 35.3 L 140.8 35.3 C 140.8 35.3 140.75 38.72 140.8 38.7 C 140.8 39.3 140.8 39.6 140.8 39.8 C 140.9 40.1 141 40.3 141.2 40.4 C 141.4 40.6 141.7 40.7 142 40.7 C 142.3 40.7 142.6 40.6 142.9 40.4 C 143.1 40.3 143.3 40.1 143.5 39.8 C 143.6 39.5 143.6 39.1 143.6 38.6 C 143.62 38.6 143.6 35.3 143.6 35.3 L 144.7 35.3 L 144.7 41.4 L 143.7 41.4 Z M 146.2 41.4 L 146.2 33 L 147.3 33 L 147.3 41.4 L 146.2 41.4 Z M 148.5 39.6 C 148.5 39.6 149.5 39.4 149.5 39.4 C 149.5 39.9 149.7 40.2 150 40.4 C 150.2 40.6 150.6 40.7 151.1 40.7 C 151.5 40.7 151.9 40.6 152.1 40.4 C 152.3 40.2 152.5 40 152.5 39.7 C 152.5 39.5 152.4 39.3 152.2 39.2 C 152 39.1 151.7 39 151.1 38.8 C 150.3 38.7 149.8 38.5 149.5 38.4 C 149.2 38.2 149 38 148.9 37.8 C 148.7 37.5 148.6 37.3 148.6 37 C 148.6 36.7 148.7 36.4 148.8 36.2 C 148.9 36 149.1 35.8 149.3 35.6 C 149.5 35.5 149.7 35.4 150 35.3 C 150.3 35.2 150.6 35.2 150.9 35.2 C 151.4 35.2 151.8 35.3 152.1 35.4 C 152.5 35.5 152.8 35.7 152.9 36 C 153.1 36.2 153.2 36.5 153.3 36.9 C 153.3 36.9 152.3 37 152.3 37 C 152.2 36.7 152.1 36.5 151.9 36.3 C 151.7 36.1 151.3 36.1 150.9 36.1 C 150.5 36.1 150.1 36.1 149.9 36.3 C 149.7 36.4 149.6 36.6 149.6 36.8 C 149.6 37 149.7 37.1 149.8 37.2 C 149.8 37.3 150 37.4 150.2 37.5 C 150.3 37.5 150.6 37.6 151.1 37.7 C 151.8 37.9 152.3 38.1 152.6 38.2 C 152.9 38.3 153.1 38.5 153.3 38.8 C 153.4 39 153.5 39.3 153.5 39.6 C 153.5 40 153.4 40.3 153.2 40.6 C 153 40.9 152.7 41.1 152.3 41.3 C 152 41.5 151.5 41.6 151.1 41.6 C 150.3 41.6 149.7 41.4 149.3 41.1 C 148.8 40.7 148.6 40.3 148.5 39.6 Z M 158.9 39.5 C 158.9 39.5 160 39.6 160 39.6 C 159.8 40.2 159.5 40.7 159 41 C 158.6 41.4 158 41.6 157.3 41.6 C 156.4 41.6 155.7 41.3 155.2 40.7 C 154.7 40.2 154.4 39.4 154.4 38.4 C 154.4 37.4 154.7 36.6 155.2 36.1 C 155.7 35.5 156.4 35.2 157.2 35.2 C 158.1 35.2 158.7 35.5 159.2 36 C 159.7 36.6 160 37.4 160 38.4 C 160 38.4 160 38.5 160 38.6 C 160 38.6 155.5 38.6 155.5 38.6 C 155.5 39.3 155.7 39.8 156 40.2 C 156.4 40.5 156.8 40.7 157.3 40.7 C 157.7 40.7 158 40.6 158.3 40.4 C 158.5 40.2 158.7 39.9 158.9 39.5 Z M 155.5 37.8 C 155.5 37.8 158.9 37.8 158.9 37.8 C 158.9 37.3 158.7 36.9 158.5 36.6 C 158.2 36.3 157.8 36.1 157.3 36.1 C 156.8 36.1 156.4 36.2 156.1 36.5 C 155.7 36.8 155.6 37.3 155.5 37.8 Z M 161.5 41.4 L 161.5 40.3 L 162.7 40.3 C 162.7 40.3 162.71 41.43 162.7 41.4 C 162.7 41.9 162.6 42.2 162.5 42.5 C 162.3 42.7 162.1 42.9 161.8 43.1 C 161.8 43.1 161.5 42.6 161.5 42.6 C 161.7 42.6 161.8 42.4 161.9 42.2 C 162.1 42 162.1 41.8 162.1 41.4 C 162.12 41.43 161.5 41.4 161.5 41.4 Z M 167.8 34.2 L 167.8 33 L 168.8 33 L 168.8 34.2 L 167.8 34.2 Z M 167.8 41.4 L 167.8 35.3 L 168.8 35.3 L 168.8 41.4 L 167.8 41.4 Z M 170.4 41.4 L 170.4 35.3 L 171.3 35.3 C 171.3 35.3 171.32 36.21 171.3 36.2 C 171.8 35.5 172.4 35.2 173.3 35.2 C 173.6 35.2 174 35.3 174.3 35.4 C 174.6 35.5 174.8 35.7 175 35.9 C 175.1 36.1 175.2 36.4 175.3 36.7 C 175.3 36.9 175.3 37.2 175.3 37.7 C 175.34 37.68 175.3 41.4 175.3 41.4 L 174.3 41.4 C 174.3 41.4 174.31 37.72 174.3 37.7 C 174.3 37.3 174.3 37 174.2 36.8 C 174.1 36.6 174 36.4 173.8 36.3 C 173.6 36.2 173.3 36.1 173 36.1 C 172.6 36.1 172.2 36.2 171.9 36.5 C 171.6 36.8 171.4 37.3 171.4 38.1 C 171.42 38.1 171.4 41.4 171.4 41.4 L 170.4 41.4 Z M 180.9 41.4 C 180.9 41.4 180.87 40.66 180.9 40.7 C 180.5 41.3 179.9 41.6 179.2 41.6 C 178.7 41.6 178.2 41.4 177.8 41.2 C 177.4 40.9 177.1 40.5 176.9 40 C 176.7 39.6 176.5 39 176.5 38.4 C 176.5 37.8 176.6 37.2 176.9 36.7 C 177.1 36.2 177.4 35.9 177.8 35.6 C 178.2 35.3 178.6 35.2 179.1 35.2 C 179.5 35.2 179.8 35.3 180.1 35.4 C 180.4 35.6 180.6 35.8 180.8 36 C 180.8 36.04 180.8 33 180.8 33 L 181.8 33 L 181.8 41.4 L 180.9 41.4 Z M 177.6 38.4 C 177.6 39.2 177.8 39.8 178.1 40.1 C 178.4 40.5 178.8 40.7 179.3 40.7 C 179.7 40.7 180.1 40.5 180.4 40.2 C 180.7 39.8 180.9 39.2 180.9 38.5 C 180.9 37.6 180.7 37 180.4 36.6 C 180.1 36.3 179.7 36.1 179.2 36.1 C 178.8 36.1 178.4 36.2 178.1 36.6 C 177.8 37 177.6 37.6 177.6 38.4 Z M 187.4 41.4 C 187.4 41.4 187.43 40.53 187.4 40.5 C 187 41.2 186.3 41.6 185.5 41.6 C 185.1 41.6 184.8 41.5 184.5 41.4 C 184.2 41.2 184 41 183.8 40.8 C 183.7 40.6 183.5 40.4 183.5 40.1 C 183.4 39.9 183.4 39.6 183.4 39.1 C 183.42 39.11 183.4 35.3 183.4 35.3 L 184.5 35.3 C 184.5 35.3 184.45 38.72 184.5 38.7 C 184.5 39.3 184.5 39.6 184.5 39.8 C 184.6 40.1 184.7 40.3 184.9 40.4 C 185.1 40.6 185.4 40.7 185.7 40.7 C 186 40.7 186.3 40.6 186.6 40.4 C 186.8 40.3 187 40.1 187.2 39.8 C 187.3 39.5 187.3 39.1 187.3 38.6 C 187.32 38.6 187.3 35.3 187.3 35.3 L 188.4 35.3 L 188.4 41.4 L 187.4 41.4 Z M 189.6 39.6 C 189.6 39.6 190.6 39.4 190.6 39.4 C 190.6 39.9 190.8 40.2 191.1 40.4 C 191.3 40.6 191.7 40.7 192.2 40.7 C 192.6 40.7 193 40.6 193.2 40.4 C 193.4 40.2 193.6 40 193.6 39.7 C 193.6 39.5 193.4 39.3 193.2 39.2 C 193.1 39.1 192.8 39 192.2 38.8 C 191.4 38.7 190.9 38.5 190.6 38.4 C 190.3 38.2 190.1 38 190 37.8 C 189.8 37.5 189.7 37.3 189.7 37 C 189.7 36.7 189.8 36.4 189.9 36.2 C 190 36 190.2 35.8 190.4 35.6 C 190.6 35.5 190.8 35.4 191.1 35.3 C 191.4 35.2 191.7 35.2 192 35.2 C 192.4 35.2 192.9 35.3 193.2 35.4 C 193.6 35.5 193.9 35.7 194 36 C 194.2 36.2 194.3 36.5 194.4 36.9 C 194.4 36.9 193.4 37 193.4 37 C 193.3 36.7 193.2 36.5 193 36.3 C 192.8 36.1 192.4 36.1 192 36.1 C 191.6 36.1 191.2 36.1 191 36.3 C 190.8 36.4 190.7 36.6 190.7 36.8 C 190.7 37 190.8 37.1 190.9 37.2 C 190.9 37.3 191.1 37.4 191.2 37.5 C 191.4 37.5 191.7 37.6 192.2 37.7 C 192.9 37.9 193.4 38.1 193.7 38.2 C 194 38.3 194.2 38.5 194.4 38.8 C 194.5 39 194.6 39.3 194.6 39.6 C 194.6 40 194.5 40.3 194.3 40.6 C 194.1 40.9 193.8 41.1 193.4 41.3 C 193.1 41.5 192.6 41.6 192.2 41.6 C 191.4 41.6 190.8 41.4 190.4 41.1 C 189.9 40.7 189.7 40.3 189.6 39.6 Z M 197.6 40.5 C 197.8 40.5 197.9 40.5 198.1 40.5 C 198.1 40.5 198.2 41.4 198.2 41.4 C 197.9 41.5 197.7 41.5 197.5 41.5 C 197.1 41.5 196.8 41.4 196.6 41.3 C 196.4 41.2 196.2 41.1 196.2 40.9 C 196.1 40.7 196 40.3 196 39.6 C 196.03 39.64 196 36.1 196 36.1 L 195.3 36.1 L 195.3 35.3 L 196 35.3 L 196 33.8 L 197.1 33.2 L 197.1 35.3 L 198.1 35.3 L 198.1 36.1 L 197.1 36.1 C 197.1 36.1 197.05 39.7 197.1 39.7 C 197.1 40 197.1 40.2 197.1 40.3 C 197.1 40.4 197.2 40.4 197.3 40.5 C 197.4 40.5 197.5 40.5 197.6 40.5 C 197.6 40.5 197.6 40.5 197.6 40.5 Z M 199.1 41.4 L 199.1 35.3 L 200 35.3 C 200 35.3 200.01 36.26 200 36.3 C 200.3 35.8 200.5 35.5 200.7 35.4 C 200.9 35.3 201.1 35.2 201.3 35.2 C 201.7 35.2 202 35.3 202.4 35.5 C 202.4 35.5 202 36.5 202 36.5 C 201.8 36.3 201.5 36.3 201.3 36.3 C 201.1 36.3 200.9 36.3 200.7 36.5 C 200.5 36.6 200.4 36.8 200.3 37 C 200.2 37.4 200.1 37.8 200.1 38.2 C 200.12 38.24 200.1 41.4 200.1 41.4 L 199.1 41.4 Z M 203.6 43.9 C 203.4 43.9 203.2 43.9 203 43.8 C 203 43.8 202.8 42.8 202.8 42.8 C 203.1 42.9 203.3 42.9 203.4 42.9 C 203.7 42.9 203.8 42.9 204 42.8 C 204.1 42.7 204.2 42.6 204.3 42.5 C 204.4 42.4 204.5 42.1 204.6 41.7 C 204.7 41.6 204.7 41.5 204.7 41.4 C 204.73 41.44 202.4 35.3 202.4 35.3 L 203.5 35.3 C 203.5 35.3 204.8 38.86 204.8 38.9 C 205 39.3 205.1 39.8 205.2 40.3 C 205.4 39.8 205.5 39.3 205.7 38.9 C 205.66 38.89 207 35.3 207 35.3 L 208 35.3 C 208 35.3 205.68 41.53 205.7 41.5 C 205.4 42.2 205.2 42.7 205.1 42.9 C 204.9 43.2 204.7 43.5 204.5 43.7 C 204.2 43.8 204 43.9 203.6 43.9 C 203.6 43.9 203.6 43.9 203.6 43.9 Z M 213.9 40.5 C 214 40.5 214.2 40.5 214.4 40.5 C 214.4 40.5 214.5 41.4 214.5 41.4 C 214.2 41.5 214 41.5 213.8 41.5 C 213.4 41.5 213.1 41.4 212.9 41.3 C 212.7 41.2 212.5 41.1 212.4 40.9 C 212.4 40.7 212.3 40.3 212.3 39.6 C 212.32 39.64 212.3 36.1 212.3 36.1 L 211.6 36.1 L 211.6 35.3 L 212.3 35.3 L 212.3 33.8 L 213.3 33.2 L 213.3 35.3 L 214.4 35.3 L 214.4 36.1 L 213.3 36.1 C 213.3 36.1 213.34 39.7 213.3 39.7 C 213.3 40 213.4 40.2 213.4 40.3 C 213.4 40.4 213.5 40.4 213.6 40.5 C 213.7 40.5 213.8 40.5 213.9 40.5 C 213.9 40.5 213.9 40.5 213.9 40.5 Z M 215 38.4 C 215 37.3 215.3 36.4 215.9 35.9 C 216.5 35.4 217.1 35.2 217.9 35.2 C 218.7 35.2 219.4 35.5 219.9 36 C 220.4 36.6 220.7 37.3 220.7 38.3 C 220.7 39.1 220.6 39.7 220.4 40.1 C 220.1 40.6 219.8 40.9 219.3 41.2 C 218.9 41.4 218.4 41.6 217.9 41.6 C 217 41.6 216.3 41.3 215.8 40.7 C 215.3 40.2 215 39.4 215 38.4 Z M 216.1 38.4 C 216.1 39.2 216.2 39.7 216.6 40.1 C 216.9 40.5 217.3 40.7 217.9 40.7 C 218.4 40.7 218.8 40.5 219.1 40.1 C 219.5 39.7 219.6 39.1 219.6 38.3 C 219.6 37.6 219.5 37 219.1 36.6 C 218.8 36.3 218.4 36.1 217.9 36.1 C 217.3 36.1 216.9 36.3 216.6 36.6 C 216.2 37 216.1 37.6 216.1 38.4 Z M 221.9 43.8 L 221.9 35.3 L 222.9 35.3 C 222.9 35.3 222.86 36.13 222.9 36.1 C 223.1 35.8 223.3 35.6 223.6 35.4 C 223.9 35.3 224.2 35.2 224.6 35.2 C 225.1 35.2 225.6 35.3 226 35.6 C 226.4 35.9 226.7 36.2 226.9 36.7 C 227.1 37.2 227.2 37.8 227.2 38.3 C 227.2 39 227.1 39.5 226.9 40 C 226.6 40.5 226.3 40.9 225.9 41.2 C 225.5 41.4 225 41.6 224.5 41.6 C 224.2 41.6 223.9 41.5 223.6 41.3 C 223.3 41.2 223.1 41 222.9 40.8 C 222.95 40.8 222.9 43.8 222.9 43.8 L 221.9 43.8 Z M 222.8 38.4 C 222.8 39.2 223 39.8 223.3 40.2 C 223.6 40.5 224 40.7 224.5 40.7 C 224.9 40.7 225.3 40.5 225.7 40.1 C 226 39.7 226.1 39.1 226.1 38.3 C 226.1 37.6 226 37 225.7 36.6 C 225.3 36.2 225 36 224.5 36 C 224.1 36 223.7 36.2 223.4 36.6 C 223 37 222.8 37.6 222.8 38.4 Z M 228.4 34.2 L 228.4 33 L 229.5 33 L 229.5 34.2 L 228.4 34.2 Z M 228.4 41.4 L 228.4 35.3 L 229.5 35.3 L 229.5 41.4 L 228.4 41.4 Z M 235 39.2 C 235 39.2 236 39.3 236 39.3 C 235.9 40 235.6 40.6 235.2 41 C 234.7 41.4 234.2 41.6 233.5 41.6 C 232.7 41.6 232 41.3 231.5 40.7 C 231 40.2 230.7 39.4 230.7 38.4 C 230.7 37.7 230.8 37.2 231.1 36.7 C 231.3 36.2 231.6 35.8 232.1 35.6 C 232.5 35.3 233 35.2 233.5 35.2 C 234.2 35.2 234.7 35.4 235.1 35.7 C 235.5 36 235.8 36.5 235.9 37.1 C 235.9 37.1 234.9 37.3 234.9 37.3 C 234.8 36.9 234.7 36.6 234.4 36.4 C 234.2 36.2 233.9 36.1 233.5 36.1 C 233 36.1 232.6 36.2 232.3 36.6 C 232 37 231.8 37.6 231.8 38.4 C 231.8 39.2 231.9 39.8 232.3 40.2 C 232.6 40.5 233 40.7 233.5 40.7 C 233.9 40.7 234.2 40.6 234.5 40.3 C 234.8 40.1 234.9 39.7 235 39.2 Z M 236.5 39.6 C 236.5 39.6 237.5 39.4 237.5 39.4 C 237.6 39.9 237.7 40.2 238 40.4 C 238.3 40.6 238.6 40.7 239.1 40.7 C 239.6 40.7 239.9 40.6 240.2 40.4 C 240.4 40.2 240.5 40 240.5 39.7 C 240.5 39.5 240.4 39.3 240.2 39.2 C 240.1 39.1 239.7 39 239.1 38.8 C 238.4 38.7 237.9 38.5 237.6 38.4 C 237.3 38.2 237.1 38 236.9 37.8 C 236.7 37.5 236.7 37.3 236.7 37 C 236.7 36.7 236.7 36.4 236.9 36.2 C 237 36 237.2 35.8 237.4 35.6 C 237.5 35.5 237.7 35.4 238 35.3 C 238.3 35.2 238.6 35.2 238.9 35.2 C 239.4 35.2 239.8 35.3 240.2 35.4 C 240.5 35.5 240.8 35.7 241 36 C 241.1 36.2 241.3 36.5 241.3 36.9 C 241.3 36.9 240.3 37 240.3 37 C 240.3 36.7 240.1 36.5 239.9 36.3 C 239.7 36.1 239.4 36.1 239 36.1 C 238.5 36.1 238.2 36.1 238 36.3 C 237.8 36.4 237.7 36.6 237.7 36.8 C 237.7 37 237.7 37.1 237.8 37.2 C 237.9 37.3 238 37.4 238.2 37.5 C 238.3 37.5 238.6 37.6 239.1 37.7 C 239.8 37.9 240.3 38.1 240.6 38.2 C 240.9 38.3 241.1 38.5 241.3 38.8 C 241.5 39 241.6 39.3 241.6 39.6 C 241.6 40 241.5 40.3 241.3 40.6 C 241.1 40.9 240.8 41.1 240.4 41.3 C 240 41.5 239.6 41.6 239.1 41.6 C 238.3 41.6 237.7 41.4 237.3 41.1 C 236.9 40.7 236.6 40.3 236.5 39.6 Z M 243.3 39.3 L 243 34.9 L 243 33 L 244.3 33 L 244.3 34.9 L 244 39.3 L 243.3 39.3 Z M 243.1 41.4 L 243.1 40.3 L 244.2 40.3 L 244.2 41.4 L 243.1 41.4 Z " stroke="none" fill="#ffffff"/>  </g>  <g id="Polygon69020">    <path d="M 95.5 2.3 L 91.1 13.4 L 90.9 13.4 L 85.6 0.2 L 86.6 0.2 L 91 11 L 95.4 0.2 L 95.7 0.2 L 100.1 11 L 104.4 0.2 L 105.5 0.2 L 100.2 13.4 L 99.9 13.4 L 95.5 2.3 Z M 114.1 0.2 L 114.1 1 L 108 1 L 108 6.3 L 113.9 6.3 L 113.9 7.1 L 108 7.1 L 108 12.4 L 114.2 12.4 L 114.2 13.3 L 107 13.3 L 107 0.2 L 114.1 0.2 Z M 116.4 0.2 C 116.4 0.2 119.09 0.17 119.1 0.2 C 120.5 0.2 121.6 0.5 122.3 1.1 C 123.1 1.7 123.5 2.5 123.5 3.6 C 123.5 4.8 122.8 5.8 121.6 6.5 C 123.6 6.9 124.6 8 124.6 9.8 C 124.6 10.9 124.2 11.7 123.4 12.3 C 122.6 13 121.6 13.3 120.2 13.3 C 120.2 13.27 116.4 13.3 116.4 13.3 L 116.4 0.2 Z M 117.4 1 L 117.4 6.2 C 117.4 6.2 118.78 6.23 118.8 6.2 C 121.2 6.2 122.4 5.4 122.4 3.6 C 122.4 1.9 121.2 1 118.7 1 C 118.75 1.01 117.4 1 117.4 1 Z M 117.4 7.1 L 117.4 12.4 C 117.4 12.4 120.09 12.42 120.1 12.4 C 121.2 12.4 122.1 12.2 122.6 11.7 C 123.2 11.2 123.5 10.6 123.5 9.8 C 123.5 8 122.2 7.1 119.6 7.1 C 119.65 7.09 117.4 7.1 117.4 7.1 Z M 127.5 0.2 L 127.5 13.3 L 126.5 13.3 L 126.5 0.2 L 127.5 0.2 Z M 142.3 0.2 L 142.3 13.3 L 141.5 13.3 L 131.5 1.8 L 131.5 13.3 L 130.5 13.3 L 130.5 0.2 L 131.4 0.2 L 141.3 11.6 L 141.3 0.2 L 142.3 0.2 Z M 150.5 0.1 L 156.6 13.3 L 155.5 13.3 L 153.4 8.7 L 147 8.7 L 145 13.3 L 143.9 13.3 L 149.9 0.1 L 150.5 0.1 Z M 153 7.9 L 150.2 1.7 L 147.4 7.9 L 153 7.9 Z M 158.1 0.2 C 158.1 0.2 161.5 0.17 161.5 0.2 C 162.9 0.2 164 0.5 164.7 1.1 C 165.5 1.7 165.8 2.5 165.8 3.6 C 165.8 5.1 165 6.1 163.3 6.7 C 163.8 6.9 164.4 7.6 165.1 8.7 C 165.09 8.74 168.1 13.3 168.1 13.3 L 166.9 13.3 C 166.9 13.3 164.57 9.68 164.6 9.7 C 163.8 8.5 163.2 7.7 162.8 7.4 C 162.4 7.1 161.7 7 160.9 7 C 160.92 6.98 159.2 7 159.2 7 L 159.2 13.3 L 158.1 13.3 L 158.1 0.2 Z M 159.2 1 L 159.2 6.1 C 159.2 6.1 161.33 6.14 161.3 6.1 C 162.4 6.1 163.3 5.9 163.9 5.5 C 164.4 5 164.7 4.4 164.7 3.6 C 164.7 2.8 164.4 2.1 163.9 1.7 C 163.3 1.2 162.4 1 161.3 1 C 161.29 1.01 159.2 1 159.2 1 Z M 172.3 0 C 173.3 0 174.3 0.3 175.3 0.8 C 175.3 0.8 175.3 1.9 175.3 1.9 C 174.2 1.3 173.2 0.9 172.4 0.9 C 171.6 0.9 170.9 1.2 170.4 1.7 C 169.9 2.1 169.6 2.7 169.6 3.4 C 169.6 3.9 169.8 4.4 170.1 4.8 C 170.4 5.2 171 5.6 172 6 C 173 6.3 173.8 6.7 174.2 6.9 C 174.7 7.2 175.1 7.5 175.4 8 C 175.7 8.5 175.9 9.1 175.9 9.8 C 175.9 10.9 175.5 11.7 174.7 12.4 C 174 13.1 173.1 13.4 172 13.4 C 171 13.4 169.8 13.1 168.7 12.3 C 168.7 12.3 168.7 11.1 168.7 11.1 C 170 12 171.1 12.5 172 12.5 C 172.8 12.5 173.4 12.2 174 11.7 C 174.5 11.2 174.8 10.6 174.8 9.9 C 174.8 9.3 174.6 8.8 174.3 8.4 C 173.9 7.9 173.3 7.5 172.2 7.1 C 171.2 6.7 170.5 6.4 170.1 6.2 C 169.6 6 169.3 5.6 169 5.2 C 168.7 4.7 168.5 4.2 168.5 3.5 C 168.5 2.5 168.9 1.7 169.6 1 C 170.4 0.3 171.2 0 172.3 0 C 172.3 0 172.3 0 172.3 0 Z " stroke="none" fill="#ffffff"/>  </g></svg>