<?xml version="1.0" standalone="no"?><!DOCTYPE svg PUBLIC "-//W3C//DTD SVG 1.1//EN" "http://www.w3.org/Graphics/SVG/1.1/DTD/svg11.dtd"><svg xmlns="http://www.w3.org/2000/svg" version="1.1" width="211px" height="99.5px" viewBox="0 0 211 99.5">  <desc>Approved by both Ofqual and the ESFA, we provide independent and robust end point assessment across a growing list of...</desc>  <defs/>  <g id="Polygon67876">    <path d="M 40.5 73.7 C 40.4 73.4 40.3 73.2 40.3 72.9 C 39.9 73.2 39.5 73.5 39.2 73.6 C 38.8 73.7 38.5 73.8 38.1 73.8 C 37.4 73.8 36.9 73.6 36.5 73.3 C 36.2 73 36 72.6 36 72.1 C 36 71.8 36 71.5 36.2 71.2 C 36.3 71 36.5 70.8 36.7 70.6 C 36.9 70.5 37.2 70.4 37.5 70.3 C 37.7 70.3 38 70.2 38.4 70.2 C 39.2 70.1 39.8 69.9 40.2 69.8 C 40.2 69.7 40.2 69.6 40.2 69.5 C 40.2 69.1 40.1 68.8 39.9 68.6 C 39.7 68.4 39.3 68.3 38.7 68.3 C 38.3 68.3 37.9 68.4 37.7 68.5 C 37.4 68.7 37.3 69 37.2 69.4 C 37.2 69.4 36.2 69.3 36.2 69.3 C 36.2 68.9 36.4 68.5 36.6 68.3 C 36.8 68 37.1 67.8 37.5 67.7 C 37.9 67.5 38.4 67.4 38.9 67.4 C 39.4 67.4 39.8 67.5 40.2 67.6 C 40.5 67.7 40.7 67.9 40.9 68.1 C 41 68.3 41.1 68.5 41.2 68.8 C 41.2 69 41.2 69.3 41.2 69.7 C 41.2 69.7 41.2 71.1 41.2 71.1 C 41.2 72.1 41.3 72.7 41.3 72.9 C 41.4 73.2 41.4 73.4 41.6 73.7 C 41.58 73.66 40.5 73.7 40.5 73.7 C 40.5 73.7 40.5 73.66 40.5 73.7 Z M 40.2 70.6 C 39.8 70.8 39.3 70.9 38.5 71 C 38.1 71.1 37.8 71.1 37.6 71.2 C 37.4 71.3 37.3 71.4 37.2 71.5 C 37.1 71.7 37.1 71.8 37.1 72 C 37.1 72.3 37.2 72.5 37.4 72.7 C 37.6 72.9 37.9 73 38.3 73 C 38.7 73 39 72.9 39.4 72.7 C 39.7 72.6 39.9 72.3 40 72 C 40.2 71.8 40.2 71.4 40.2 71 C 40.2 71 40.2 70.6 40.2 70.6 Z M 45.9 74.2 C 45.9 74.2 46.9 74.3 46.9 74.3 C 47 74.6 47.1 74.8 47.3 75 C 47.5 75.2 47.9 75.3 48.3 75.3 C 48.8 75.3 49.2 75.2 49.4 75 C 49.7 74.8 49.9 74.5 50 74.2 C 50 74 50 73.5 50 72.9 C 49.6 73.4 49 73.7 48.3 73.7 C 47.5 73.7 46.9 73.4 46.4 72.8 C 45.9 72.1 45.7 71.4 45.7 70.6 C 45.7 70 45.8 69.5 46 69 C 46.2 68.5 46.5 68.1 46.9 67.8 C 47.3 67.6 47.8 67.4 48.3 67.4 C 49.1 67.4 49.7 67.7 50.1 68.3 C 50.12 68.31 50.1 67.6 50.1 67.6 L 51.1 67.6 C 51.1 67.6 51.08 72.83 51.1 72.8 C 51.1 73.8 51 74.5 50.8 74.8 C 50.6 75.2 50.3 75.6 49.9 75.8 C 49.5 76 48.9 76.1 48.3 76.1 C 47.6 76.1 47 76 46.6 75.6 C 46.1 75.3 45.9 74.8 45.9 74.2 Z M 46.8 70.5 C 46.8 71.3 46.9 71.9 47.2 72.3 C 47.6 72.6 48 72.8 48.4 72.8 C 48.9 72.8 49.3 72.6 49.6 72.3 C 50 71.9 50.1 71.3 50.1 70.5 C 50.1 69.8 49.9 69.2 49.6 68.9 C 49.3 68.5 48.9 68.3 48.4 68.3 C 48 68.3 47.6 68.5 47.3 68.8 C 46.9 69.2 46.8 69.8 46.8 70.5 Z M 52.6 73.7 L 52.6 67.6 L 53.6 67.6 C 53.6 67.6 53.55 68.5 53.6 68.5 C 53.8 68.1 54 67.8 54.2 67.6 C 54.4 67.5 54.6 67.4 54.9 67.4 C 55.2 67.4 55.6 67.5 55.9 67.8 C 55.9 67.8 55.6 68.7 55.6 68.7 C 55.3 68.6 55.1 68.5 54.8 68.5 C 54.6 68.5 54.4 68.6 54.2 68.7 C 54 68.8 53.9 69 53.8 69.3 C 53.7 69.6 53.7 70 53.7 70.5 C 53.65 70.47 53.7 73.7 53.7 73.7 L 52.6 73.7 Z M 56.2 70.6 C 56.2 69.5 56.5 68.7 57.1 68.1 C 57.6 67.7 58.3 67.4 59 67.4 C 59.8 67.4 60.5 67.7 61.1 68.3 C 61.6 68.8 61.9 69.6 61.9 70.5 C 61.9 71.3 61.7 71.9 61.5 72.4 C 61.3 72.8 60.9 73.2 60.5 73.4 C 60 73.7 59.5 73.8 59 73.8 C 58.2 73.8 57.5 73.5 56.9 73 C 56.4 72.4 56.2 71.6 56.2 70.6 Z M 57.2 70.6 C 57.2 71.4 57.4 72 57.7 72.4 C 58.1 72.8 58.5 72.9 59 72.9 C 59.5 72.9 59.9 72.8 60.3 72.4 C 60.6 72 60.8 71.4 60.8 70.6 C 60.8 69.8 60.6 69.3 60.3 68.9 C 59.9 68.5 59.5 68.3 59 68.3 C 58.5 68.3 58.1 68.5 57.7 68.9 C 57.4 69.3 57.2 69.8 57.2 70.6 Z M 64.2 73.7 L 62.3 67.6 L 63.4 67.6 L 64.4 71.1 C 64.4 71.1 64.72 72.39 64.7 72.4 C 64.7 72.3 64.8 71.9 65 71.1 C 65.04 71.14 66 67.6 66 67.6 L 67.1 67.6 L 68 71.1 L 68.3 72.3 L 68.6 71.1 L 69.7 67.6 L 70.7 67.6 L 68.8 73.7 L 67.7 73.7 L 66.7 70 L 66.5 69 L 65.3 73.7 L 64.2 73.7 Z M 71.5 66.4 L 71.5 65.3 L 72.6 65.3 L 72.6 66.4 L 71.5 66.4 Z M 71.5 73.7 L 71.5 67.6 L 72.6 67.6 L 72.6 73.7 L 71.5 73.7 Z M 74.1 73.7 L 74.1 67.6 L 75.1 67.6 C 75.1 67.6 75.07 68.44 75.1 68.4 C 75.5 67.8 76.2 67.4 77 67.4 C 77.4 67.4 77.7 67.5 78 67.6 C 78.3 67.8 78.6 67.9 78.7 68.2 C 78.9 68.4 79 68.6 79 68.9 C 79.1 69.1 79.1 69.4 79.1 69.9 C 79.09 69.92 79.1 73.7 79.1 73.7 L 78.1 73.7 C 78.1 73.7 78.06 69.96 78.1 70 C 78.1 69.5 78 69.2 77.9 69 C 77.9 68.8 77.7 68.6 77.5 68.5 C 77.3 68.4 77.1 68.3 76.8 68.3 C 76.4 68.3 76 68.5 75.7 68.7 C 75.3 69 75.2 69.6 75.2 70.3 C 75.18 70.33 75.2 73.7 75.2 73.7 L 74.1 73.7 Z M 80.5 74.2 C 80.5 74.2 81.5 74.3 81.5 74.3 C 81.5 74.6 81.6 74.8 81.8 75 C 82.1 75.2 82.4 75.3 82.9 75.3 C 83.4 75.3 83.7 75.2 84 75 C 84.2 74.8 84.4 74.5 84.5 74.2 C 84.6 74 84.6 73.5 84.6 72.9 C 84.1 73.4 83.6 73.7 82.9 73.7 C 82.1 73.7 81.4 73.4 81 72.8 C 80.5 72.1 80.3 71.4 80.3 70.6 C 80.3 70 80.4 69.5 80.6 69 C 80.8 68.5 81.1 68.1 81.5 67.8 C 81.9 67.6 82.4 67.4 82.9 67.4 C 83.6 67.4 84.2 67.7 84.7 68.3 C 84.69 68.31 84.7 67.6 84.7 67.6 L 85.6 67.6 C 85.6 67.6 85.64 72.83 85.6 72.8 C 85.6 73.8 85.5 74.5 85.4 74.8 C 85.2 75.2 84.9 75.6 84.4 75.8 C 84 76 83.5 76.1 82.9 76.1 C 82.2 76.1 81.6 76 81.1 75.6 C 80.7 75.3 80.5 74.8 80.5 74.2 Z M 81.3 70.5 C 81.3 71.3 81.5 71.9 81.8 72.3 C 82.1 72.6 82.5 72.8 83 72.8 C 83.5 72.8 83.9 72.6 84.2 72.3 C 84.5 71.9 84.7 71.3 84.7 70.5 C 84.7 69.8 84.5 69.2 84.2 68.9 C 83.9 68.5 83.5 68.3 83 68.3 C 82.5 68.3 82.1 68.5 81.8 68.8 C 81.5 69.2 81.3 69.8 81.3 70.5 Z M 90.4 73.7 L 90.4 65.3 L 91.5 65.3 L 91.5 73.7 L 90.4 73.7 Z M 93.1 66.4 L 93.1 65.3 L 94.1 65.3 L 94.1 66.4 L 93.1 66.4 Z M 93.1 73.7 L 93.1 67.6 L 94.1 67.6 L 94.1 73.7 L 93.1 73.7 Z M 95.3 71.8 C 95.3 71.8 96.3 71.7 96.3 71.7 C 96.3 72.1 96.5 72.4 96.8 72.6 C 97 72.8 97.4 72.9 97.9 72.9 C 98.3 72.9 98.7 72.9 98.9 72.7 C 99.1 72.5 99.3 72.2 99.3 72 C 99.3 71.7 99.2 71.6 98.9 71.4 C 98.8 71.3 98.5 71.2 97.9 71.1 C 97.1 70.9 96.6 70.7 96.3 70.6 C 96 70.4 95.8 70.3 95.7 70 C 95.5 69.8 95.4 69.5 95.4 69.2 C 95.4 68.9 95.5 68.7 95.6 68.4 C 95.7 68.2 95.9 68 96.1 67.9 C 96.3 67.7 96.5 67.6 96.8 67.6 C 97.1 67.5 97.4 67.4 97.7 67.4 C 98.1 67.4 98.6 67.5 98.9 67.6 C 99.3 67.8 99.6 68 99.7 68.2 C 99.9 68.4 100 68.7 100.1 69.1 C 100.1 69.1 99.1 69.3 99.1 69.3 C 99 69 98.9 68.7 98.7 68.5 C 98.5 68.4 98.1 68.3 97.7 68.3 C 97.3 68.3 96.9 68.4 96.7 68.5 C 96.5 68.7 96.4 68.9 96.4 69.1 C 96.4 69.2 96.5 69.3 96.6 69.4 C 96.6 69.5 96.8 69.6 96.9 69.7 C 97.1 69.7 97.4 69.8 97.9 70 C 98.6 70.2 99.1 70.3 99.4 70.4 C 99.7 70.6 99.9 70.8 100.1 71 C 100.2 71.2 100.3 71.5 100.3 71.9 C 100.3 72.2 100.2 72.5 100 72.8 C 99.8 73.1 99.5 73.4 99.1 73.5 C 98.8 73.7 98.3 73.8 97.9 73.8 C 97.1 73.8 96.5 73.6 96.1 73.3 C 95.6 73 95.4 72.5 95.3 71.8 Z M 103.3 72.8 C 103.5 72.8 103.6 72.8 103.8 72.7 C 103.8 72.7 103.9 73.6 103.9 73.6 C 103.6 73.7 103.4 73.7 103.2 73.7 C 102.8 73.7 102.5 73.7 102.3 73.6 C 102.1 73.4 101.9 73.3 101.9 73.1 C 101.8 72.9 101.7 72.5 101.7 71.9 C 101.73 71.88 101.7 68.4 101.7 68.4 L 101 68.4 L 101 67.6 L 101.7 67.6 L 101.7 66.1 L 102.8 65.4 L 102.8 67.6 L 103.8 67.6 L 103.8 68.4 L 102.8 68.4 C 102.8 68.4 102.75 71.93 102.8 71.9 C 102.8 72.2 102.8 72.4 102.8 72.5 C 102.8 72.6 102.9 72.7 103 72.7 C 103.1 72.8 103.2 72.8 103.3 72.8 C 103.3 72.8 103.3 72.8 103.3 72.8 Z M 107.7 70.6 C 107.7 69.5 108 68.7 108.6 68.1 C 109.1 67.7 109.8 67.4 110.5 67.4 C 111.4 67.4 112 67.7 112.6 68.3 C 113.1 68.8 113.4 69.6 113.4 70.5 C 113.4 71.3 113.3 71.9 113 72.4 C 112.8 72.8 112.4 73.2 112 73.4 C 111.5 73.7 111.1 73.8 110.5 73.8 C 109.7 73.8 109 73.5 108.5 73 C 107.9 72.4 107.7 71.6 107.7 70.6 Z M 108.7 70.6 C 108.7 71.4 108.9 72 109.2 72.4 C 109.6 72.8 110 72.9 110.5 72.9 C 111 72.9 111.5 72.8 111.8 72.4 C 112.1 72 112.3 71.4 112.3 70.6 C 112.3 69.8 112.1 69.3 111.8 68.9 C 111.5 68.5 111 68.3 110.5 68.3 C 110 68.3 109.6 68.5 109.2 68.9 C 108.9 69.3 108.7 69.8 108.7 70.6 Z M 114.8 73.7 L 114.8 68.4 L 113.9 68.4 L 113.9 67.6 L 114.8 67.6 C 114.8 67.6 114.83 66.93 114.8 66.9 C 114.8 66.5 114.9 66.2 114.9 66 C 115 65.7 115.2 65.5 115.5 65.4 C 115.7 65.2 116.1 65.1 116.5 65.1 C 116.8 65.1 117.1 65.1 117.5 65.2 C 117.5 65.2 117.3 66.1 117.3 66.1 C 117.1 66.1 116.9 66.1 116.7 66.1 C 116.4 66.1 116.2 66.1 116 66.3 C 115.9 66.4 115.9 66.6 115.9 67 C 115.85 67.01 115.9 67.6 115.9 67.6 L 117 67.6 L 117 68.4 L 115.9 68.4 L 115.9 73.7 L 114.8 73.7 Z M 120.7 71.8 C 120.7 71.8 121.7 71.7 121.7 71.7 C 121.8 72.1 121.9 72.4 122.2 72.6 C 122.5 72.8 122.8 72.9 123.3 72.9 C 123.8 72.9 124.1 72.9 124.3 72.7 C 124.6 72.5 124.7 72.2 124.7 72 C 124.7 71.7 124.6 71.6 124.4 71.4 C 124.2 71.3 123.9 71.2 123.3 71.1 C 122.6 70.9 122 70.7 121.8 70.6 C 121.5 70.4 121.2 70.3 121.1 70 C 120.9 69.8 120.9 69.5 120.9 69.2 C 120.9 68.9 120.9 68.7 121 68.4 C 121.2 68.2 121.3 68 121.6 67.9 C 121.7 67.7 121.9 67.6 122.2 67.6 C 122.5 67.5 122.8 67.4 123.1 67.4 C 123.6 67.4 124 67.5 124.4 67.6 C 124.7 67.8 125 68 125.2 68.2 C 125.3 68.4 125.4 68.7 125.5 69.1 C 125.5 69.1 124.5 69.3 124.5 69.3 C 124.5 69 124.3 68.7 124.1 68.5 C 123.9 68.4 123.6 68.3 123.2 68.3 C 122.7 68.3 122.4 68.4 122.2 68.5 C 122 68.7 121.9 68.9 121.9 69.1 C 121.9 69.2 121.9 69.3 122 69.4 C 122.1 69.5 122.2 69.6 122.4 69.7 C 122.5 69.7 122.8 69.8 123.3 70 C 124 70.2 124.5 70.3 124.8 70.4 C 125.1 70.6 125.3 70.8 125.5 71 C 125.7 71.2 125.7 71.5 125.7 71.9 C 125.7 72.2 125.6 72.5 125.4 72.8 C 125.2 73.1 125 73.4 124.6 73.5 C 124.2 73.7 123.8 73.8 123.3 73.8 C 122.5 73.8 121.9 73.6 121.5 73.3 C 121.1 73 120.8 72.5 120.7 71.8 Z M 128.8 72.8 C 128.9 72.8 129 72.8 129.2 72.7 C 129.2 72.7 129.4 73.6 129.4 73.6 C 129.1 73.7 128.8 73.7 128.6 73.7 C 128.2 73.7 127.9 73.7 127.7 73.6 C 127.5 73.4 127.4 73.3 127.3 73.1 C 127.2 72.9 127.2 72.5 127.2 71.9 C 127.16 71.88 127.2 68.4 127.2 68.4 L 126.4 68.4 L 126.4 67.6 L 127.2 67.6 L 127.2 66.1 L 128.2 65.4 L 128.2 67.6 L 129.2 67.6 L 129.2 68.4 L 128.2 68.4 C 128.2 68.4 128.18 71.93 128.2 71.9 C 128.2 72.2 128.2 72.4 128.2 72.5 C 128.3 72.6 128.3 72.7 128.4 72.7 C 128.5 72.8 128.6 72.8 128.8 72.8 C 128.8 72.8 128.8 72.8 128.8 72.8 Z M 134.4 73.7 C 134.3 73.4 134.2 73.2 134.2 72.9 C 133.8 73.2 133.5 73.5 133.1 73.6 C 132.7 73.7 132.4 73.8 132 73.8 C 131.3 73.8 130.8 73.6 130.4 73.3 C 130.1 73 129.9 72.6 129.9 72.1 C 129.9 71.8 129.9 71.5 130.1 71.2 C 130.2 71 130.4 70.8 130.6 70.6 C 130.8 70.5 131.1 70.4 131.4 70.3 C 131.6 70.3 131.9 70.2 132.3 70.2 C 133.1 70.1 133.7 69.9 134.1 69.8 C 134.1 69.7 134.1 69.6 134.1 69.5 C 134.1 69.1 134 68.8 133.8 68.6 C 133.6 68.4 133.2 68.3 132.7 68.3 C 132.2 68.3 131.8 68.4 131.6 68.5 C 131.3 68.7 131.2 69 131.1 69.4 C 131.1 69.4 130.1 69.3 130.1 69.3 C 130.1 68.9 130.3 68.5 130.5 68.3 C 130.7 68 131 67.8 131.4 67.7 C 131.8 67.5 132.3 67.4 132.8 67.4 C 133.3 67.4 133.7 67.5 134.1 67.6 C 134.4 67.7 134.6 67.9 134.8 68.1 C 134.9 68.3 135 68.5 135.1 68.8 C 135.1 69 135.2 69.3 135.2 69.7 C 135.2 69.7 135.2 71.1 135.2 71.1 C 135.2 72.1 135.2 72.7 135.2 72.9 C 135.3 73.2 135.4 73.4 135.5 73.7 C 135.48 73.66 134.4 73.7 134.4 73.7 C 134.4 73.7 134.41 73.66 134.4 73.7 Z M 134.1 70.6 C 133.7 70.8 133.2 70.9 132.4 71 C 132 71.1 131.7 71.1 131.5 71.2 C 131.4 71.3 131.2 71.4 131.1 71.5 C 131 71.7 131 71.8 131 72 C 131 72.3 131.1 72.5 131.3 72.7 C 131.5 72.9 131.8 73 132.2 73 C 132.6 73 133 72.9 133.3 72.7 C 133.6 72.6 133.8 72.3 133.9 72 C 134.1 71.8 134.1 71.4 134.1 71 C 134.1 71 134.1 70.6 134.1 70.6 Z M 136.8 73.7 L 136.8 67.6 L 137.7 67.6 C 137.7 67.6 137.68 68.44 137.7 68.4 C 138.1 67.8 138.8 67.4 139.6 67.4 C 140 67.4 140.3 67.5 140.6 67.6 C 140.9 67.8 141.2 67.9 141.3 68.2 C 141.5 68.4 141.6 68.6 141.6 68.9 C 141.7 69.1 141.7 69.4 141.7 69.9 C 141.7 69.92 141.7 73.7 141.7 73.7 L 140.7 73.7 C 140.7 73.7 140.67 69.96 140.7 70 C 140.7 69.5 140.6 69.2 140.5 69 C 140.5 68.8 140.3 68.6 140.1 68.5 C 139.9 68.4 139.7 68.3 139.4 68.3 C 139 68.3 138.6 68.5 138.3 68.7 C 137.9 69 137.8 69.6 137.8 70.3 C 137.79 70.33 137.8 73.7 137.8 73.7 L 136.8 73.7 Z M 147.2 73.7 C 147.2 73.7 147.23 72.89 147.2 72.9 C 146.8 73.5 146.3 73.8 145.5 73.8 C 145 73.8 144.6 73.7 144.2 73.4 C 143.8 73.1 143.5 72.8 143.2 72.3 C 143 71.8 142.9 71.2 142.9 70.6 C 142.9 70 143 69.5 143.2 69 C 143.4 68.5 143.7 68.1 144.1 67.8 C 144.5 67.6 145 67.4 145.5 67.4 C 145.8 67.4 146.2 67.5 146.5 67.7 C 146.7 67.8 147 68 147.2 68.3 C 147.16 68.27 147.2 65.3 147.2 65.3 L 148.2 65.3 L 148.2 73.7 L 147.2 73.7 Z M 144 70.6 C 144 71.4 144.1 72 144.5 72.4 C 144.8 72.8 145.2 72.9 145.6 72.9 C 146.1 72.9 146.5 72.8 146.8 72.4 C 147.1 72 147.2 71.5 147.2 70.7 C 147.2 69.9 147.1 69.3 146.8 68.9 C 146.4 68.5 146 68.3 145.6 68.3 C 145.1 68.3 144.7 68.5 144.4 68.9 C 144.1 69.2 144 69.8 144 70.6 Z M 154 73.7 C 153.9 73.4 153.8 73.2 153.8 72.9 C 153.4 73.2 153 73.5 152.7 73.6 C 152.3 73.7 151.9 73.8 151.5 73.8 C 150.9 73.8 150.4 73.6 150 73.3 C 149.6 73 149.5 72.6 149.5 72.1 C 149.5 71.8 149.5 71.5 149.7 71.2 C 149.8 71 150 70.8 150.2 70.6 C 150.4 70.5 150.7 70.4 150.9 70.3 C 151.1 70.3 151.4 70.2 151.9 70.2 C 152.7 70.1 153.3 69.9 153.7 69.8 C 153.7 69.7 153.7 69.6 153.7 69.5 C 153.7 69.1 153.6 68.8 153.4 68.6 C 153.1 68.4 152.7 68.3 152.2 68.3 C 151.7 68.3 151.4 68.4 151.2 68.5 C 150.9 68.7 150.8 69 150.6 69.4 C 150.6 69.4 149.6 69.3 149.6 69.3 C 149.7 68.9 149.9 68.5 150.1 68.3 C 150.3 68 150.6 67.8 151 67.7 C 151.4 67.5 151.9 67.4 152.4 67.4 C 152.9 67.4 153.3 67.5 153.6 67.6 C 154 67.7 154.2 67.9 154.4 68.1 C 154.5 68.3 154.6 68.5 154.7 68.8 C 154.7 69 154.7 69.3 154.7 69.7 C 154.7 69.7 154.7 71.1 154.7 71.1 C 154.7 72.1 154.8 72.7 154.8 72.9 C 154.8 73.2 154.9 73.4 155.1 73.7 C 155.06 73.66 154 73.7 154 73.7 C 154 73.7 153.98 73.66 154 73.7 Z M 153.7 70.6 C 153.3 70.8 152.8 70.9 152 71 C 151.6 71.1 151.3 71.1 151.1 71.2 C 150.9 71.3 150.8 71.4 150.7 71.5 C 150.6 71.7 150.6 71.8 150.6 72 C 150.6 72.3 150.7 72.5 150.9 72.7 C 151.1 72.9 151.4 73 151.8 73 C 152.2 73 152.5 72.9 152.8 72.7 C 153.2 72.6 153.4 72.3 153.5 72 C 153.6 71.8 153.7 71.4 153.7 71 C 153.7 71 153.7 70.6 153.7 70.6 Z M 156.3 73.7 L 156.3 67.6 L 157.2 67.6 C 157.2 67.6 157.25 68.5 157.2 68.5 C 157.5 68.1 157.7 67.8 157.9 67.6 C 158.1 67.5 158.3 67.4 158.6 67.4 C 158.9 67.4 159.3 67.5 159.6 67.8 C 159.6 67.8 159.3 68.7 159.3 68.7 C 159 68.6 158.8 68.5 158.5 68.5 C 158.3 68.5 158.1 68.6 157.9 68.7 C 157.7 68.8 157.6 69 157.5 69.3 C 157.4 69.6 157.4 70 157.4 70.5 C 157.35 70.47 157.4 73.7 157.4 73.7 L 156.3 73.7 Z M 164.2 73.7 C 164.2 73.7 164.19 72.89 164.2 72.9 C 163.8 73.5 163.2 73.8 162.5 73.8 C 162 73.8 161.6 73.7 161.1 73.4 C 160.7 73.1 160.4 72.8 160.2 72.3 C 160 71.8 159.9 71.2 159.9 70.6 C 159.9 70 160 69.5 160.2 69 C 160.4 68.5 160.7 68.1 161.1 67.8 C 161.5 67.6 161.9 67.4 162.4 67.4 C 162.8 67.4 163.1 67.5 163.4 67.7 C 163.7 67.8 163.9 68 164.1 68.3 C 164.12 68.27 164.1 65.3 164.1 65.3 L 165.1 65.3 L 165.1 73.7 L 164.2 73.7 Z M 160.9 70.6 C 160.9 71.4 161.1 72 161.4 72.4 C 161.7 72.8 162.1 72.9 162.6 72.9 C 163 72.9 163.4 72.8 163.7 72.4 C 164 72 164.2 71.5 164.2 70.7 C 164.2 69.9 164 69.3 163.7 68.9 C 163.4 68.5 163 68.3 162.5 68.3 C 162.1 68.3 161.7 68.5 161.4 68.9 C 161.1 69.2 160.9 69.8 160.9 70.6 Z M 166.4 71.8 C 166.4 71.8 167.4 71.7 167.4 71.7 C 167.4 72.1 167.6 72.4 167.8 72.6 C 168.1 72.8 168.5 72.9 168.9 72.9 C 169.4 72.9 169.8 72.9 170 72.7 C 170.2 72.5 170.3 72.2 170.3 72 C 170.3 71.7 170.2 71.6 170 71.4 C 169.9 71.3 169.5 71.2 169 71.1 C 168.2 70.9 167.7 70.7 167.4 70.6 C 167.1 70.4 166.9 70.3 166.7 70 C 166.6 69.8 166.5 69.5 166.5 69.2 C 166.5 68.9 166.6 68.7 166.7 68.4 C 166.8 68.2 167 68 167.2 67.9 C 167.4 67.7 167.6 67.6 167.9 67.6 C 168.1 67.5 168.4 67.4 168.8 67.4 C 169.2 67.4 169.7 67.5 170 67.6 C 170.4 67.8 170.6 68 170.8 68.2 C 171 68.4 171.1 68.7 171.2 69.1 C 171.2 69.1 170.2 69.3 170.2 69.3 C 170.1 69 170 68.7 169.8 68.5 C 169.5 68.4 169.2 68.3 168.8 68.3 C 168.4 68.3 168 68.4 167.8 68.5 C 167.6 68.7 167.5 68.9 167.5 69.1 C 167.5 69.2 167.6 69.3 167.6 69.4 C 167.7 69.5 167.9 69.6 168 69.7 C 168.1 69.7 168.4 69.8 169 70 C 169.7 70.2 170.2 70.3 170.5 70.4 C 170.8 70.6 171 70.8 171.2 71 C 171.3 71.2 171.4 71.5 171.4 71.9 C 171.4 72.2 171.3 72.5 171.1 72.8 C 170.9 73.1 170.6 73.4 170.2 73.5 C 169.9 73.7 169.4 73.8 169 73.8 C 168.2 73.8 167.6 73.6 167.1 73.3 C 166.7 73 166.5 72.5 166.4 71.8 Z M 172.9 73.7 L 172.9 72.5 L 174.1 72.5 L 174.1 73.7 L 172.9 73.7 Z " stroke="none" fill="#fff"/>  </g>  <g id="Polygon67875">    <path d="M 11.9 59.6 L 11.9 53.5 L 12.8 53.5 C 12.8 53.5 12.78 54.42 12.8 54.4 C 13 54 13.2 53.7 13.4 53.6 C 13.6 53.4 13.9 53.4 14.1 53.4 C 14.4 53.4 14.8 53.5 15.2 53.7 C 15.2 53.7 14.8 54.6 14.8 54.6 C 14.6 54.5 14.3 54.4 14.1 54.4 C 13.8 54.4 13.6 54.5 13.4 54.6 C 13.3 54.8 13.1 54.9 13.1 55.2 C 12.9 55.6 12.9 56 12.9 56.4 C 12.89 56.39 12.9 59.6 12.9 59.6 L 11.9 59.6 Z M 15.4 56.5 C 15.4 55.4 15.7 54.6 16.3 54 C 16.9 53.6 17.5 53.4 18.2 53.4 C 19.1 53.4 19.8 53.6 20.3 54.2 C 20.8 54.7 21.1 55.5 21.1 56.4 C 21.1 57.2 21 57.8 20.7 58.3 C 20.5 58.7 20.2 59.1 19.7 59.3 C 19.3 59.6 18.8 59.7 18.2 59.7 C 17.4 59.7 16.7 59.4 16.2 58.9 C 15.7 58.3 15.4 57.6 15.4 56.5 Z M 16.5 56.5 C 16.5 57.3 16.6 57.9 17 58.3 C 17.3 58.7 17.7 58.9 18.2 58.9 C 18.8 58.9 19.2 58.7 19.5 58.3 C 19.9 57.9 20 57.3 20 56.5 C 20 55.7 19.9 55.2 19.5 54.8 C 19.2 54.4 18.8 54.2 18.2 54.2 C 17.7 54.2 17.3 54.4 17 54.8 C 16.6 55.2 16.5 55.8 16.5 56.5 Z M 23.3 59.6 L 22.3 59.6 L 22.3 51.2 L 23.3 51.2 C 23.3 51.2 23.33 54.18 23.3 54.2 C 23.8 53.6 24.3 53.4 25 53.4 C 25.4 53.4 25.7 53.4 26.1 53.6 C 26.4 53.7 26.7 53.9 26.9 54.2 C 27.1 54.5 27.3 54.8 27.4 55.2 C 27.5 55.6 27.6 56 27.6 56.4 C 27.6 57.5 27.3 58.3 26.8 58.9 C 26.3 59.4 25.7 59.7 24.9 59.7 C 24.2 59.7 23.7 59.4 23.3 58.8 C 23.25 58.82 23.3 59.6 23.3 59.6 Z M 23.2 56.5 C 23.2 57.2 23.3 57.7 23.5 58.1 C 23.9 58.6 24.3 58.9 24.9 58.9 C 25.3 58.9 25.7 58.7 26 58.3 C 26.4 57.9 26.5 57.3 26.5 56.5 C 26.5 55.7 26.4 55.1 26 54.8 C 25.7 54.4 25.3 54.2 24.9 54.2 C 24.5 54.2 24.1 54.4 23.7 54.8 C 23.4 55.2 23.2 55.7 23.2 56.5 Z M 32.8 59.6 C 32.8 59.6 32.81 58.68 32.8 58.7 C 32.3 59.4 31.7 59.7 30.9 59.7 C 30.5 59.7 30.2 59.6 29.9 59.5 C 29.6 59.4 29.3 59.2 29.2 59 C 29 58.8 28.9 58.5 28.9 58.2 C 28.8 58 28.8 57.7 28.8 57.3 C 28.8 57.26 28.8 53.5 28.8 53.5 L 29.8 53.5 C 29.8 53.5 29.83 56.87 29.8 56.9 C 29.8 57.4 29.9 57.8 29.9 58 C 30 58.2 30.1 58.4 30.3 58.6 C 30.5 58.7 30.8 58.8 31.1 58.8 C 31.4 58.8 31.7 58.7 32 58.6 C 32.2 58.4 32.4 58.2 32.5 57.9 C 32.6 57.7 32.7 57.3 32.7 56.8 C 32.7 56.75 32.7 53.5 32.7 53.5 L 33.7 53.5 L 33.7 59.6 L 32.8 59.6 Z M 34.9 57.8 C 34.9 57.8 36 57.6 36 57.6 C 36 58 36.2 58.3 36.4 58.5 C 36.7 58.8 37.1 58.9 37.5 58.9 C 38 58.9 38.4 58.8 38.6 58.6 C 38.8 58.4 38.9 58.2 38.9 57.9 C 38.9 57.7 38.8 57.5 38.6 57.3 C 38.5 57.3 38.1 57.1 37.6 57 C 36.8 56.8 36.3 56.6 36 56.5 C 35.7 56.4 35.5 56.2 35.3 55.9 C 35.2 55.7 35.1 55.4 35.1 55.1 C 35.1 54.8 35.2 54.6 35.3 54.4 C 35.4 54.1 35.6 53.9 35.8 53.8 C 36 53.7 36.2 53.6 36.5 53.5 C 36.7 53.4 37 53.4 37.4 53.4 C 37.8 53.4 38.2 53.4 38.6 53.6 C 39 53.7 39.2 53.9 39.4 54.1 C 39.6 54.4 39.7 54.7 39.8 55.1 C 39.8 55.1 38.8 55.2 38.8 55.2 C 38.7 54.9 38.6 54.6 38.4 54.5 C 38.1 54.3 37.8 54.2 37.4 54.2 C 37 54.2 36.6 54.3 36.4 54.4 C 36.2 54.6 36.1 54.8 36.1 55 C 36.1 55.1 36.1 55.2 36.2 55.3 C 36.3 55.5 36.4 55.6 36.6 55.6 C 36.7 55.7 37 55.8 37.5 55.9 C 38.3 56.1 38.8 56.2 39.1 56.4 C 39.4 56.5 39.6 56.7 39.7 56.9 C 39.9 57.1 40 57.4 40 57.8 C 40 58.1 39.9 58.5 39.7 58.8 C 39.5 59.1 39.2 59.3 38.8 59.5 C 38.4 59.6 38 59.7 37.5 59.7 C 36.7 59.7 36.1 59.6 35.7 59.2 C 35.3 58.9 35.1 58.4 34.9 57.8 Z M 43 58.7 C 43.1 58.7 43.3 58.7 43.5 58.7 C 43.5 58.7 43.6 59.6 43.6 59.6 C 43.3 59.6 43.1 59.7 42.8 59.7 C 42.5 59.7 42.2 59.6 42 59.5 C 41.8 59.4 41.6 59.2 41.5 59 C 41.4 58.8 41.4 58.4 41.4 57.8 C 41.41 57.8 41.4 54.3 41.4 54.3 L 40.7 54.3 L 40.7 53.5 L 41.4 53.5 L 41.4 52 L 42.4 51.4 L 42.4 53.5 L 43.5 53.5 L 43.5 54.3 L 42.4 54.3 C 42.4 54.3 42.43 57.85 42.4 57.9 C 42.4 58.1 42.5 58.3 42.5 58.4 C 42.5 58.5 42.6 58.6 42.7 58.6 C 42.7 58.7 42.9 58.7 43 58.7 C 43 58.7 43 58.7 43 58.7 Z M 51.9 57.6 C 51.9 57.6 53 57.8 53 57.8 C 52.8 58.4 52.5 58.9 52 59.2 C 51.6 59.5 51 59.7 50.3 59.7 C 49.4 59.7 48.7 59.4 48.2 58.9 C 47.7 58.3 47.4 57.6 47.4 56.6 C 47.4 55.6 47.7 54.8 48.2 54.2 C 48.7 53.6 49.4 53.4 50.2 53.4 C 51 53.4 51.7 53.6 52.2 54.2 C 52.7 54.7 53 55.5 53 56.5 C 53 56.6 53 56.7 53 56.8 C 53 56.8 48.5 56.8 48.5 56.8 C 48.5 57.5 48.7 58 49 58.3 C 49.4 58.7 49.8 58.9 50.3 58.9 C 50.7 58.9 51 58.8 51.3 58.6 C 51.5 58.4 51.7 58.1 51.9 57.6 Z M 48.5 56 C 48.5 56 51.9 56 51.9 56 C 51.9 55.4 51.7 55.1 51.5 54.8 C 51.2 54.4 50.8 54.2 50.2 54.2 C 49.8 54.2 49.4 54.4 49.1 54.7 C 48.7 55 48.6 55.4 48.5 56 Z M 54.3 59.6 L 54.3 53.5 L 55.2 53.5 C 55.2 53.5 55.19 54.36 55.2 54.4 C 55.6 53.7 56.3 53.4 57.1 53.4 C 57.5 53.4 57.8 53.4 58.1 53.6 C 58.4 53.7 58.7 53.9 58.8 54.1 C 59 54.3 59.1 54.5 59.2 54.8 C 59.2 55 59.2 55.4 59.2 55.8 C 59.21 55.84 59.2 59.6 59.2 59.6 L 58.2 59.6 C 58.2 59.6 58.18 55.88 58.2 55.9 C 58.2 55.5 58.1 55.1 58.1 54.9 C 58 54.7 57.8 54.6 57.6 54.4 C 57.4 54.3 57.2 54.2 56.9 54.2 C 56.5 54.2 56.1 54.4 55.8 54.7 C 55.5 54.9 55.3 55.5 55.3 56.3 C 55.29 56.25 55.3 59.6 55.3 59.6 L 54.3 59.6 Z M 64.7 59.6 C 64.7 59.6 64.74 58.81 64.7 58.8 C 64.4 59.4 63.8 59.7 63 59.7 C 62.5 59.7 62.1 59.6 61.7 59.3 C 61.3 59 61 58.7 60.8 58.2 C 60.5 57.7 60.4 57.2 60.4 56.5 C 60.4 55.9 60.5 55.4 60.7 54.9 C 60.9 54.4 61.2 54 61.6 53.8 C 62 53.5 62.5 53.4 63 53.4 C 63.4 53.4 63.7 53.4 64 53.6 C 64.3 53.7 64.5 53.9 64.7 54.2 C 64.67 54.19 64.7 51.2 64.7 51.2 L 65.7 51.2 L 65.7 59.6 L 64.7 59.6 Z M 61.5 56.5 C 61.5 57.3 61.6 57.9 62 58.3 C 62.3 58.7 62.7 58.9 63.1 58.9 C 63.6 58.9 64 58.7 64.3 58.3 C 64.6 57.9 64.8 57.4 64.8 56.6 C 64.8 55.8 64.6 55.2 64.3 54.8 C 64 54.4 63.6 54.2 63.1 54.2 C 62.6 54.2 62.2 54.4 61.9 54.8 C 61.6 55.1 61.5 55.7 61.5 56.5 Z M 66.9 57.1 L 66.9 56 L 70.1 56 L 70.1 57.1 L 66.9 57.1 Z M 71.2 61.9 L 71.2 53.5 L 72.2 53.5 C 72.2 53.5 72.16 54.28 72.2 54.3 C 72.4 54 72.6 53.7 72.9 53.6 C 73.2 53.4 73.5 53.4 73.9 53.4 C 74.4 53.4 74.9 53.5 75.3 53.8 C 75.7 54 76 54.4 76.2 54.9 C 76.4 55.4 76.5 55.9 76.5 56.5 C 76.5 57.1 76.4 57.7 76.2 58.2 C 75.9 58.7 75.6 59.1 75.2 59.3 C 74.8 59.6 74.3 59.7 73.9 59.7 C 73.5 59.7 73.2 59.6 72.9 59.5 C 72.7 59.4 72.4 59.2 72.3 58.9 C 72.25 58.95 72.3 61.9 72.3 61.9 L 71.2 61.9 Z M 72.2 56.6 C 72.2 57.4 72.3 57.9 72.6 58.3 C 72.9 58.7 73.3 58.9 73.8 58.9 C 74.2 58.9 74.6 58.7 75 58.3 C 75.3 57.9 75.5 57.3 75.5 56.5 C 75.5 55.7 75.3 55.1 75 54.7 C 74.7 54.4 74.3 54.2 73.8 54.2 C 73.4 54.2 73 54.4 72.7 54.8 C 72.3 55.2 72.2 55.8 72.2 56.6 Z M 77.4 56.5 C 77.4 55.4 77.7 54.6 78.3 54 C 78.8 53.6 79.5 53.4 80.2 53.4 C 81.1 53.4 81.7 53.6 82.3 54.2 C 82.8 54.7 83.1 55.5 83.1 56.4 C 83.1 57.2 82.9 57.8 82.7 58.3 C 82.5 58.7 82.1 59.1 81.7 59.3 C 81.2 59.6 80.7 59.7 80.2 59.7 C 79.4 59.7 78.7 59.4 78.2 58.9 C 77.6 58.3 77.4 57.6 77.4 56.5 Z M 78.4 56.5 C 78.4 57.3 78.6 57.9 78.9 58.3 C 79.3 58.7 79.7 58.9 80.2 58.9 C 80.7 58.9 81.2 58.7 81.5 58.3 C 81.8 57.9 82 57.3 82 56.5 C 82 55.7 81.8 55.2 81.5 54.8 C 81.1 54.4 80.7 54.2 80.2 54.2 C 79.7 54.2 79.3 54.4 78.9 54.8 C 78.6 55.2 78.4 55.8 78.4 56.5 Z M 84.3 52.4 L 84.3 51.2 L 85.3 51.2 L 85.3 52.4 L 84.3 52.4 Z M 84.3 59.6 L 84.3 53.5 L 85.3 53.5 L 85.3 59.6 L 84.3 59.6 Z M 86.9 59.6 L 86.9 53.5 L 87.8 53.5 C 87.8 53.5 87.81 54.36 87.8 54.4 C 88.3 53.7 88.9 53.4 89.7 53.4 C 90.1 53.4 90.4 53.4 90.8 53.6 C 91.1 53.7 91.3 53.9 91.4 54.1 C 91.6 54.3 91.7 54.5 91.8 54.8 C 91.8 55 91.8 55.4 91.8 55.8 C 91.82 55.84 91.8 59.6 91.8 59.6 L 90.8 59.6 C 90.8 59.6 90.79 55.88 90.8 55.9 C 90.8 55.5 90.8 55.1 90.7 54.9 C 90.6 54.7 90.4 54.6 90.2 54.4 C 90 54.3 89.8 54.2 89.5 54.2 C 89.1 54.2 88.7 54.4 88.4 54.7 C 88.1 54.9 87.9 55.5 87.9 56.3 C 87.91 56.25 87.9 59.6 87.9 59.6 L 86.9 59.6 Z M 95.2 58.7 C 95.3 58.7 95.5 58.7 95.7 58.7 C 95.7 58.7 95.8 59.6 95.8 59.6 C 95.5 59.6 95.3 59.7 95 59.7 C 94.7 59.7 94.4 59.6 94.2 59.5 C 93.9 59.4 93.8 59.2 93.7 59 C 93.6 58.8 93.6 58.4 93.6 57.8 C 93.59 57.8 93.6 54.3 93.6 54.3 L 92.8 54.3 L 92.8 53.5 L 93.6 53.5 L 93.6 52 L 94.6 51.4 L 94.6 53.5 L 95.7 53.5 L 95.7 54.3 L 94.6 54.3 C 94.6 54.3 94.62 57.85 94.6 57.9 C 94.6 58.1 94.6 58.3 94.7 58.4 C 94.7 58.5 94.8 58.6 94.9 58.6 C 94.9 58.7 95.1 58.7 95.2 58.7 C 95.2 58.7 95.2 58.7 95.2 58.7 Z M 104.1 59.6 C 104 59.4 103.9 59.1 103.9 58.8 C 103.5 59.2 103.1 59.4 102.8 59.5 C 102.4 59.6 102.1 59.7 101.7 59.7 C 101 59.7 100.5 59.6 100.1 59.2 C 99.8 58.9 99.6 58.5 99.6 58 C 99.6 57.7 99.6 57.4 99.8 57.2 C 99.9 56.9 100.1 56.7 100.3 56.6 C 100.5 56.4 100.8 56.3 101.1 56.2 C 101.3 56.2 101.6 56.1 102 56.1 C 102.8 56 103.4 55.9 103.8 55.7 C 103.8 55.6 103.8 55.5 103.8 55.4 C 103.8 55 103.7 54.7 103.5 54.6 C 103.3 54.3 102.9 54.2 102.3 54.2 C 101.9 54.2 101.5 54.3 101.3 54.5 C 101 54.6 100.9 54.9 100.8 55.4 C 100.8 55.4 99.8 55.2 99.8 55.2 C 99.8 54.8 100 54.4 100.2 54.2 C 100.4 53.9 100.7 53.7 101.1 53.6 C 101.5 53.4 102 53.4 102.5 53.4 C 103 53.4 103.4 53.4 103.8 53.5 C 104.1 53.7 104.3 53.8 104.5 54 C 104.6 54.2 104.7 54.4 104.8 54.7 C 104.8 54.9 104.9 55.2 104.9 55.7 C 104.9 55.7 104.9 57 104.9 57 C 104.9 58 104.9 58.6 104.9 58.8 C 105 59.1 105 59.3 105.2 59.6 C 105.18 59.58 104.1 59.6 104.1 59.6 C 104.1 59.6 104.1 59.58 104.1 59.6 Z M 103.8 56.5 C 103.4 56.7 102.9 56.8 102.1 56.9 C 101.7 57 101.4 57 101.2 57.1 C 101 57.2 100.9 57.3 100.8 57.5 C 100.7 57.6 100.7 57.8 100.7 57.9 C 100.7 58.2 100.8 58.4 101 58.6 C 101.2 58.8 101.5 58.9 101.9 58.9 C 102.3 58.9 102.7 58.8 103 58.6 C 103.3 58.5 103.5 58.2 103.6 57.9 C 103.8 57.7 103.8 57.4 103.8 56.9 C 103.8 56.9 103.8 56.5 103.8 56.5 Z M 106 57.8 C 106 57.8 107.1 57.6 107.1 57.6 C 107.1 58 107.3 58.3 107.5 58.5 C 107.8 58.8 108.2 58.9 108.6 58.9 C 109.1 58.9 109.5 58.8 109.7 58.6 C 109.9 58.4 110 58.2 110 57.9 C 110 57.7 109.9 57.5 109.7 57.3 C 109.6 57.3 109.2 57.1 108.7 57 C 107.9 56.8 107.4 56.6 107.1 56.5 C 106.8 56.4 106.6 56.2 106.4 55.9 C 106.3 55.7 106.2 55.4 106.2 55.1 C 106.2 54.8 106.3 54.6 106.4 54.4 C 106.5 54.1 106.7 53.9 106.9 53.8 C 107.1 53.7 107.3 53.6 107.6 53.5 C 107.8 53.4 108.1 53.4 108.4 53.4 C 108.9 53.4 109.3 53.4 109.7 53.6 C 110.1 53.7 110.3 53.9 110.5 54.1 C 110.7 54.4 110.8 54.7 110.9 55.1 C 110.9 55.1 109.9 55.2 109.9 55.2 C 109.8 54.9 109.7 54.6 109.5 54.5 C 109.2 54.3 108.9 54.2 108.5 54.2 C 108.1 54.2 107.7 54.3 107.5 54.4 C 107.3 54.6 107.2 54.8 107.2 55 C 107.2 55.1 107.2 55.2 107.3 55.3 C 107.4 55.5 107.5 55.6 107.7 55.6 C 107.8 55.7 108.1 55.8 108.6 55.9 C 109.4 56.1 109.9 56.2 110.2 56.4 C 110.5 56.5 110.7 56.7 110.8 56.9 C 111 57.1 111.1 57.4 111.1 57.8 C 111.1 58.1 111 58.5 110.8 58.8 C 110.6 59.1 110.3 59.3 109.9 59.5 C 109.5 59.6 109.1 59.7 108.6 59.7 C 107.8 59.7 107.2 59.6 106.8 59.2 C 106.4 58.9 106.2 58.4 106 57.8 Z M 111.9 57.8 C 111.9 57.8 112.9 57.6 112.9 57.6 C 113 58 113.1 58.3 113.4 58.5 C 113.7 58.8 114 58.9 114.5 58.9 C 115 58.9 115.3 58.8 115.6 58.6 C 115.8 58.4 115.9 58.2 115.9 57.9 C 115.9 57.7 115.8 57.5 115.6 57.3 C 115.5 57.3 115.1 57.1 114.5 57 C 113.8 56.8 113.3 56.6 113 56.5 C 112.7 56.4 112.5 56.2 112.3 55.9 C 112.2 55.7 112.1 55.4 112.1 55.1 C 112.1 54.8 112.1 54.6 112.3 54.4 C 112.4 54.1 112.6 53.9 112.8 53.8 C 112.9 53.7 113.1 53.6 113.4 53.5 C 113.7 53.4 114 53.4 114.3 53.4 C 114.8 53.4 115.2 53.4 115.6 53.6 C 115.9 53.7 116.2 53.9 116.4 54.1 C 116.5 54.4 116.7 54.7 116.7 55.1 C 116.7 55.1 115.7 55.2 115.7 55.2 C 115.7 54.9 115.5 54.6 115.3 54.5 C 115.1 54.3 114.8 54.2 114.4 54.2 C 113.9 54.2 113.6 54.3 113.4 54.4 C 113.2 54.6 113.1 54.8 113.1 55 C 113.1 55.1 113.1 55.2 113.2 55.3 C 113.3 55.5 113.4 55.6 113.6 55.6 C 113.7 55.7 114 55.8 114.5 55.9 C 115.2 56.1 115.7 56.2 116 56.4 C 116.3 56.5 116.5 56.7 116.7 56.9 C 116.9 57.1 117 57.4 117 57.8 C 117 58.1 116.9 58.5 116.7 58.8 C 116.5 59.1 116.2 59.3 115.8 59.5 C 115.4 59.6 115 59.7 114.5 59.7 C 113.7 59.7 113.1 59.6 112.7 59.2 C 112.3 58.9 112 58.4 111.9 57.8 Z M 122.3 57.6 C 122.3 57.6 123.4 57.8 123.4 57.8 C 123.2 58.4 122.9 58.9 122.5 59.2 C 122 59.5 121.4 59.7 120.7 59.7 C 119.8 59.7 119.1 59.4 118.6 58.9 C 118.1 58.3 117.8 57.6 117.8 56.6 C 117.8 55.6 118.1 54.8 118.6 54.2 C 119.2 53.6 119.8 53.4 120.7 53.4 C 121.5 53.4 122.2 53.6 122.7 54.2 C 123.2 54.7 123.4 55.5 123.4 56.5 C 123.4 56.6 123.4 56.7 123.4 56.8 C 123.4 56.8 118.9 56.8 118.9 56.8 C 118.9 57.5 119.1 58 119.5 58.3 C 119.8 58.7 120.2 58.9 120.7 58.9 C 121.1 58.9 121.4 58.8 121.7 58.6 C 122 58.4 122.2 58.1 122.3 57.6 Z M 119 56 C 119 56 122.4 56 122.4 56 C 122.3 55.4 122.2 55.1 122 54.8 C 121.6 54.4 121.2 54.2 120.7 54.2 C 120.2 54.2 119.8 54.4 119.5 54.7 C 119.2 55 119 55.4 119 56 Z M 124.3 57.8 C 124.3 57.8 125.3 57.6 125.3 57.6 C 125.4 58 125.5 58.3 125.8 58.5 C 126.1 58.8 126.4 58.9 126.9 58.9 C 127.4 58.9 127.7 58.8 127.9 58.6 C 128.2 58.4 128.3 58.2 128.3 57.9 C 128.3 57.7 128.2 57.5 128 57.3 C 127.8 57.3 127.5 57.1 126.9 57 C 126.2 56.8 125.7 56.6 125.4 56.5 C 125.1 56.4 124.8 56.2 124.7 55.9 C 124.5 55.7 124.5 55.4 124.5 55.1 C 124.5 54.8 124.5 54.6 124.7 54.4 C 124.8 54.1 124.9 53.9 125.2 53.8 C 125.3 53.7 125.5 53.6 125.8 53.5 C 126.1 53.4 126.4 53.4 126.7 53.4 C 127.2 53.4 127.6 53.4 128 53.6 C 128.3 53.7 128.6 53.9 128.8 54.1 C 128.9 54.4 129.1 54.7 129.1 55.1 C 129.1 55.1 128.1 55.2 128.1 55.2 C 128.1 54.9 127.9 54.6 127.7 54.5 C 127.5 54.3 127.2 54.2 126.8 54.2 C 126.3 54.2 126 54.3 125.8 54.4 C 125.6 54.6 125.5 54.8 125.5 55 C 125.5 55.1 125.5 55.2 125.6 55.3 C 125.7 55.5 125.8 55.6 126 55.6 C 126.1 55.7 126.4 55.8 126.9 55.9 C 127.6 56.1 128.1 56.2 128.4 56.4 C 128.7 56.5 128.9 56.7 129.1 56.9 C 129.3 57.1 129.3 57.4 129.3 57.8 C 129.3 58.1 129.2 58.5 129 58.8 C 128.8 59.1 128.6 59.3 128.2 59.5 C 127.8 59.6 127.4 59.7 126.9 59.7 C 126.1 59.7 125.5 59.6 125.1 59.2 C 124.7 58.9 124.4 58.4 124.3 57.8 Z M 130.2 57.8 C 130.2 57.8 131.2 57.6 131.2 57.6 C 131.2 58 131.4 58.3 131.7 58.5 C 131.9 58.8 132.3 58.9 132.8 58.9 C 133.2 58.9 133.6 58.8 133.8 58.6 C 134 58.4 134.2 58.2 134.2 57.9 C 134.2 57.7 134.1 57.5 133.9 57.3 C 133.7 57.3 133.4 57.1 132.8 57 C 132 56.8 131.5 56.6 131.2 56.5 C 130.9 56.4 130.7 56.2 130.6 55.9 C 130.4 55.7 130.3 55.4 130.3 55.1 C 130.3 54.8 130.4 54.6 130.5 54.4 C 130.6 54.1 130.8 53.9 131 53.8 C 131.2 53.7 131.4 53.6 131.7 53.5 C 132 53.4 132.3 53.4 132.6 53.4 C 133.1 53.4 133.5 53.4 133.8 53.6 C 134.2 53.7 134.5 53.9 134.6 54.1 C 134.8 54.4 134.9 54.7 135 55.1 C 135 55.1 134 55.2 134 55.2 C 133.9 54.9 133.8 54.6 133.6 54.5 C 133.4 54.3 133.1 54.2 132.6 54.2 C 132.2 54.2 131.8 54.3 131.6 54.4 C 131.4 54.6 131.3 54.8 131.3 55 C 131.3 55.1 131.4 55.2 131.5 55.3 C 131.5 55.5 131.7 55.6 131.9 55.6 C 132 55.7 132.3 55.8 132.8 55.9 C 133.5 56.1 134 56.2 134.3 56.4 C 134.6 56.5 134.8 56.7 135 56.9 C 135.1 57.1 135.2 57.4 135.2 57.8 C 135.2 58.1 135.1 58.5 134.9 58.8 C 134.7 59.1 134.4 59.3 134 59.5 C 133.7 59.6 133.2 59.7 132.8 59.7 C 132 59.7 131.4 59.6 131 59.2 C 130.5 58.9 130.3 58.4 130.2 57.8 Z M 136.4 59.6 L 136.4 53.5 L 137.4 53.5 C 137.4 53.5 137.37 54.35 137.4 54.3 C 137.6 54 137.8 53.8 138.1 53.6 C 138.4 53.4 138.8 53.4 139.2 53.4 C 139.7 53.4 140 53.4 140.3 53.6 C 140.6 53.8 140.8 54.1 140.9 54.4 C 141.4 53.7 142 53.4 142.8 53.4 C 143.4 53.4 143.9 53.5 144.2 53.9 C 144.5 54.2 144.7 54.7 144.7 55.4 C 144.69 55.4 144.7 59.6 144.7 59.6 L 143.7 59.6 C 143.7 59.6 143.66 55.74 143.7 55.7 C 143.7 55.3 143.6 55 143.6 54.9 C 143.5 54.7 143.4 54.5 143.2 54.4 C 143 54.3 142.8 54.2 142.6 54.2 C 142.2 54.2 141.8 54.4 141.5 54.7 C 141.2 55 141.1 55.4 141.1 56 C 141.09 56.04 141.1 59.6 141.1 59.6 L 140.1 59.6 C 140.1 59.6 140.06 55.62 140.1 55.6 C 140.1 55.2 140 54.8 139.8 54.6 C 139.6 54.4 139.4 54.2 139 54.2 C 138.7 54.2 138.4 54.3 138.2 54.5 C 137.9 54.6 137.8 54.9 137.6 55.1 C 137.5 55.4 137.5 55.9 137.5 56.4 C 137.47 56.42 137.5 59.6 137.5 59.6 L 136.4 59.6 Z M 150.4 57.6 C 150.4 57.6 151.4 57.8 151.4 57.8 C 151.3 58.4 151 58.9 150.5 59.2 C 150.1 59.5 149.5 59.7 148.8 59.7 C 147.9 59.7 147.2 59.4 146.7 58.9 C 146.1 58.3 145.9 57.6 145.9 56.6 C 145.9 55.6 146.1 54.8 146.7 54.2 C 147.2 53.6 147.9 53.4 148.7 53.4 C 149.5 53.4 150.2 53.6 150.7 54.2 C 151.2 54.7 151.5 55.5 151.5 56.5 C 151.5 56.6 151.5 56.7 151.5 56.8 C 151.5 56.8 146.9 56.8 146.9 56.8 C 147 57.5 147.2 58 147.5 58.3 C 147.8 58.7 148.3 58.9 148.8 58.9 C 149.2 58.9 149.5 58.8 149.7 58.6 C 150 58.4 150.2 58.1 150.4 57.6 Z M 147 56 C 147 56 150.4 56 150.4 56 C 150.3 55.4 150.2 55.1 150 54.8 C 149.7 54.4 149.2 54.2 148.7 54.2 C 148.3 54.2 147.9 54.4 147.5 54.7 C 147.2 55 147 55.4 147 56 Z M 152.7 59.6 L 152.7 53.5 L 153.7 53.5 C 153.7 53.5 153.67 54.36 153.7 54.4 C 154.1 53.7 154.8 53.4 155.6 53.4 C 156 53.4 156.3 53.4 156.6 53.6 C 156.9 53.7 157.2 53.9 157.3 54.1 C 157.5 54.3 157.6 54.5 157.6 54.8 C 157.7 55 157.7 55.4 157.7 55.8 C 157.69 55.84 157.7 59.6 157.7 59.6 L 156.7 59.6 C 156.7 59.6 156.66 55.88 156.7 55.9 C 156.7 55.5 156.6 55.1 156.5 54.9 C 156.5 54.7 156.3 54.6 156.1 54.4 C 155.9 54.3 155.7 54.2 155.4 54.2 C 154.9 54.2 154.6 54.4 154.3 54.7 C 153.9 54.9 153.8 55.5 153.8 56.3 C 153.77 56.25 153.8 59.6 153.8 59.6 L 152.7 59.6 Z M 161.1 58.7 C 161.2 58.7 161.3 58.7 161.5 58.7 C 161.5 58.7 161.7 59.6 161.7 59.6 C 161.4 59.6 161.1 59.7 160.9 59.7 C 160.5 59.7 160.2 59.6 160 59.5 C 159.8 59.4 159.7 59.2 159.6 59 C 159.5 58.8 159.5 58.4 159.5 57.8 C 159.46 57.8 159.5 54.3 159.5 54.3 L 158.7 54.3 L 158.7 53.5 L 159.5 53.5 L 159.5 52 L 160.5 51.4 L 160.5 53.5 L 161.5 53.5 L 161.5 54.3 L 160.5 54.3 C 160.5 54.3 160.48 57.85 160.5 57.9 C 160.5 58.1 160.5 58.3 160.5 58.4 C 160.6 58.5 160.6 58.6 160.7 58.6 C 160.8 58.7 160.9 58.7 161.1 58.7 C 161.1 58.7 161.1 58.7 161.1 58.7 Z M 170 59.6 C 169.9 59.4 169.8 59.1 169.8 58.8 C 169.4 59.2 169 59.4 168.7 59.5 C 168.3 59.6 167.9 59.7 167.5 59.7 C 166.8 59.7 166.3 59.6 166 59.2 C 165.6 58.9 165.4 58.5 165.4 58 C 165.4 57.7 165.5 57.4 165.6 57.2 C 165.8 56.9 166 56.7 166.2 56.6 C 166.4 56.4 166.6 56.3 166.9 56.2 C 167.1 56.2 167.4 56.1 167.8 56.1 C 168.7 56 169.3 55.9 169.7 55.7 C 169.7 55.6 169.7 55.5 169.7 55.4 C 169.7 55 169.6 54.7 169.4 54.6 C 169.1 54.3 168.7 54.2 168.2 54.2 C 167.7 54.2 167.4 54.3 167.1 54.5 C 166.9 54.6 166.7 54.9 166.6 55.4 C 166.6 55.4 165.6 55.2 165.6 55.2 C 165.7 54.8 165.9 54.4 166.1 54.2 C 166.3 53.9 166.6 53.7 167 53.6 C 167.4 53.4 167.8 53.4 168.4 53.4 C 168.9 53.4 169.3 53.4 169.6 53.5 C 170 53.7 170.2 53.8 170.3 54 C 170.5 54.2 170.6 54.4 170.7 54.7 C 170.7 54.9 170.7 55.2 170.7 55.7 C 170.7 55.7 170.7 57 170.7 57 C 170.7 58 170.7 58.6 170.8 58.8 C 170.8 59.1 170.9 59.3 171 59.6 C 171.04 59.58 170 59.6 170 59.6 C 170 59.6 169.96 59.58 170 59.6 Z M 169.7 56.5 C 169.3 56.7 168.7 56.8 168 56.9 C 167.6 57 167.3 57 167.1 57.1 C 166.9 57.2 166.8 57.3 166.7 57.5 C 166.6 57.6 166.5 57.8 166.5 57.9 C 166.5 58.2 166.6 58.4 166.9 58.6 C 167.1 58.8 167.4 58.9 167.8 58.9 C 168.2 58.9 168.5 58.8 168.8 58.6 C 169.1 58.5 169.4 58.2 169.5 57.9 C 169.6 57.7 169.7 57.4 169.7 56.9 C 169.7 56.9 169.7 56.5 169.7 56.5 Z M 176.3 57.3 C 176.3 57.3 177.3 57.5 177.3 57.5 C 177.2 58.2 176.9 58.7 176.4 59.1 C 176 59.5 175.4 59.7 174.8 59.7 C 173.9 59.7 173.3 59.4 172.8 58.9 C 172.3 58.4 172 57.6 172 56.6 C 172 55.9 172.1 55.3 172.3 54.8 C 172.5 54.3 172.9 54 173.3 53.7 C 173.8 53.5 174.2 53.4 174.8 53.4 C 175.4 53.4 176 53.5 176.4 53.9 C 176.8 54.2 177.1 54.7 177.2 55.3 C 177.2 55.3 176.2 55.4 176.2 55.4 C 176.1 55 175.9 54.7 175.7 54.5 C 175.4 54.3 175.2 54.2 174.8 54.2 C 174.3 54.2 173.9 54.4 173.5 54.8 C 173.2 55.1 173.1 55.7 173.1 56.5 C 173.1 57.3 173.2 57.9 173.5 58.3 C 173.8 58.7 174.2 58.9 174.8 58.9 C 175.2 58.9 175.5 58.7 175.8 58.5 C 176 58.2 176.2 57.9 176.3 57.3 Z M 178.2 59.6 L 178.2 53.5 L 179.1 53.5 C 179.1 53.5 179.1 54.42 179.1 54.4 C 179.3 54 179.6 53.7 179.8 53.6 C 180 53.4 180.2 53.4 180.4 53.4 C 180.8 53.4 181.1 53.5 181.5 53.7 C 181.5 53.7 181.1 54.6 181.1 54.6 C 180.9 54.5 180.6 54.4 180.4 54.4 C 180.1 54.4 179.9 54.5 179.8 54.6 C 179.6 54.8 179.4 54.9 179.4 55.2 C 179.3 55.6 179.2 56 179.2 56.4 C 179.2 56.39 179.2 59.6 179.2 59.6 L 178.2 59.6 Z M 181.7 56.5 C 181.7 55.4 182 54.6 182.6 54 C 183.2 53.6 183.8 53.4 184.6 53.4 C 185.4 53.4 186.1 53.6 186.6 54.2 C 187.1 54.7 187.4 55.5 187.4 56.4 C 187.4 57.2 187.3 57.8 187.1 58.3 C 186.8 58.7 186.5 59.1 186 59.3 C 185.6 59.6 185.1 59.7 184.6 59.7 C 183.7 59.7 183 59.4 182.5 58.9 C 182 58.3 181.7 57.6 181.7 56.5 Z M 182.8 56.5 C 182.8 57.3 182.9 57.9 183.3 58.3 C 183.6 58.7 184 58.9 184.6 58.9 C 185.1 58.9 185.5 58.7 185.8 58.3 C 186.2 57.9 186.3 57.3 186.3 56.5 C 186.3 55.7 186.2 55.2 185.8 54.8 C 185.5 54.4 185.1 54.2 184.6 54.2 C 184 54.2 183.6 54.4 183.3 54.8 C 182.9 55.2 182.8 55.8 182.8 56.5 Z M 188.2 57.8 C 188.2 57.8 189.2 57.6 189.2 57.6 C 189.3 58 189.4 58.3 189.7 58.5 C 190 58.8 190.3 58.9 190.8 58.9 C 191.3 58.9 191.6 58.8 191.8 58.6 C 192.1 58.4 192.2 58.2 192.2 57.9 C 192.2 57.7 192.1 57.5 191.9 57.3 C 191.7 57.3 191.4 57.1 190.8 57 C 190.1 56.8 189.6 56.6 189.3 56.5 C 189 56.4 188.7 56.2 188.6 55.9 C 188.4 55.7 188.4 55.4 188.4 55.1 C 188.4 54.8 188.4 54.6 188.6 54.4 C 188.7 54.1 188.9 53.9 189.1 53.8 C 189.2 53.7 189.4 53.6 189.7 53.5 C 190 53.4 190.3 53.4 190.6 53.4 C 191.1 53.4 191.5 53.4 191.9 53.6 C 192.2 53.7 192.5 53.9 192.7 54.1 C 192.8 54.4 193 54.7 193 55.1 C 193 55.1 192 55.2 192 55.2 C 192 54.9 191.8 54.6 191.6 54.5 C 191.4 54.3 191.1 54.2 190.7 54.2 C 190.2 54.2 189.9 54.3 189.7 54.4 C 189.5 54.6 189.4 54.8 189.4 55 C 189.4 55.1 189.4 55.2 189.5 55.3 C 189.6 55.5 189.7 55.6 189.9 55.6 C 190 55.7 190.3 55.8 190.8 55.9 C 191.5 56.1 192 56.2 192.3 56.4 C 192.6 56.5 192.8 56.7 193 56.9 C 193.2 57.1 193.3 57.4 193.3 57.8 C 193.3 58.1 193.2 58.5 193 58.8 C 192.8 59.1 192.5 59.3 192.1 59.5 C 191.7 59.6 191.3 59.7 190.8 59.7 C 190 59.7 189.4 59.6 189 59.2 C 188.6 58.9 188.3 58.4 188.2 57.8 Z M 194.1 57.8 C 194.1 57.8 195.1 57.6 195.1 57.6 C 195.1 58 195.3 58.3 195.6 58.5 C 195.8 58.8 196.2 58.9 196.7 58.9 C 197.1 58.9 197.5 58.8 197.7 58.6 C 197.9 58.4 198.1 58.2 198.1 57.9 C 198.1 57.7 198 57.5 197.8 57.3 C 197.6 57.3 197.3 57.1 196.7 57 C 195.9 56.8 195.4 56.6 195.1 56.5 C 194.8 56.4 194.6 56.2 194.5 55.9 C 194.3 55.7 194.2 55.4 194.2 55.1 C 194.2 54.8 194.3 54.6 194.4 54.4 C 194.5 54.1 194.7 53.9 194.9 53.8 C 195.1 53.7 195.3 53.6 195.6 53.5 C 195.9 53.4 196.2 53.4 196.5 53.4 C 197 53.4 197.4 53.4 197.7 53.6 C 198.1 53.7 198.4 53.9 198.5 54.1 C 198.7 54.4 198.8 54.7 198.9 55.1 C 198.9 55.1 197.9 55.2 197.9 55.2 C 197.8 54.9 197.7 54.6 197.5 54.5 C 197.3 54.3 197 54.2 196.6 54.2 C 196.1 54.2 195.7 54.3 195.5 54.4 C 195.3 54.6 195.2 54.8 195.2 55 C 195.2 55.1 195.3 55.2 195.4 55.3 C 195.4 55.5 195.6 55.6 195.8 55.6 C 195.9 55.7 196.2 55.8 196.7 55.9 C 197.4 56.1 197.9 56.2 198.2 56.4 C 198.5 56.5 198.7 56.7 198.9 56.9 C 199 57.1 199.1 57.4 199.1 57.8 C 199.1 58.1 199 58.5 198.8 58.8 C 198.6 59.1 198.3 59.3 198 59.5 C 197.6 59.6 197.1 59.7 196.7 59.7 C 195.9 59.7 195.3 59.6 194.9 59.2 C 194.4 58.9 194.2 58.4 194.1 57.8 Z " stroke="none" fill="#fff"/>  </g>  <g id="Polygon67874">    <path d="M 14.3 45.5 L 14.3 37.1 L 20.4 37.1 L 20.4 38.1 L 15.4 38.1 L 15.4 40.7 L 20 40.7 L 20 41.6 L 15.4 41.6 L 15.4 44.5 L 20.6 44.5 L 20.6 45.5 L 14.3 45.5 Z M 21.7 42.8 C 21.7 42.8 22.8 42.7 22.8 42.7 C 22.8 43.1 22.9 43.5 23.1 43.7 C 23.3 44 23.6 44.2 24 44.4 C 24.3 44.6 24.8 44.6 25.2 44.6 C 25.7 44.6 26 44.6 26.4 44.5 C 26.7 44.3 26.9 44.2 27.1 43.9 C 27.2 43.7 27.3 43.5 27.3 43.2 C 27.3 43 27.2 42.7 27.1 42.5 C 26.9 42.3 26.7 42.2 26.3 42 C 26.1 41.9 25.6 41.8 24.8 41.6 C 24.1 41.4 23.5 41.3 23.2 41.1 C 22.8 40.9 22.5 40.6 22.3 40.3 C 22.1 40 22 39.7 22 39.3 C 22 38.8 22.2 38.4 22.4 38.1 C 22.6 37.7 23 37.4 23.4 37.2 C 23.9 37.1 24.4 37 25 37 C 25.6 37 26.2 37.1 26.6 37.3 C 27.1 37.5 27.5 37.8 27.7 38.1 C 28 38.5 28.1 39 28.1 39.5 C 28.1 39.5 27.1 39.5 27.1 39.5 C 27 39 26.8 38.6 26.5 38.3 C 26.2 38.1 25.7 37.9 25 37.9 C 24.4 37.9 23.9 38.1 23.6 38.3 C 23.3 38.6 23.1 38.8 23.1 39.2 C 23.1 39.5 23.2 39.7 23.4 39.9 C 23.6 40.1 24.2 40.3 25.1 40.5 C 26 40.7 26.6 40.9 27 41.1 C 27.5 41.3 27.8 41.6 28 41.9 C 28.3 42.3 28.4 42.7 28.4 43.1 C 28.4 43.6 28.3 44 28 44.4 C 27.8 44.8 27.4 45.1 26.9 45.3 C 26.4 45.5 25.9 45.6 25.3 45.6 C 24.5 45.6 23.9 45.5 23.4 45.3 C 22.9 45.1 22.5 44.8 22.2 44.3 C 21.9 43.9 21.7 43.4 21.7 42.8 Z M 30 45.5 L 30 37.1 L 35.6 37.1 L 35.6 38.1 L 31.1 38.1 L 31.1 40.7 L 35 40.7 L 35 41.7 L 31.1 41.7 L 31.1 45.5 L 30 45.5 Z M 35.5 45.5 L 38.7 37.1 L 39.9 37.1 L 43.4 45.5 L 42.1 45.5 L 41.1 43 L 37.6 43 L 36.7 45.5 L 35.5 45.5 Z M 37.9 42 L 40.8 42 C 40.8 42 39.91 39.72 39.9 39.7 C 39.6 39 39.4 38.4 39.3 38 C 39.2 38.5 39.1 39.1 38.9 39.6 C 38.86 39.59 37.9 42 37.9 42 Z M 44.4 45.5 L 44.4 44.3 L 45.6 44.3 C 45.6 44.3 45.57 45.5 45.6 45.5 C 45.6 45.9 45.5 46.3 45.3 46.5 C 45.2 46.8 44.9 47 44.6 47.2 C 44.6 47.2 44.3 46.7 44.3 46.7 C 44.5 46.6 44.7 46.5 44.8 46.3 C 44.9 46.1 45 45.8 45 45.5 C 44.98 45.5 44.4 45.5 44.4 45.5 Z M 51.8 45.5 L 49.9 39.4 L 51 39.4 L 51.9 42.9 C 51.9 42.9 52.3 44.23 52.3 44.2 C 52.3 44.2 52.4 43.7 52.6 43 C 52.62 42.98 53.6 39.4 53.6 39.4 L 54.6 39.4 L 55.6 42.9 L 55.9 44.1 L 56.2 42.9 L 57.3 39.4 L 58.3 39.4 L 56.4 45.5 L 55.3 45.5 L 54.3 41.9 L 54.1 40.8 L 52.8 45.5 L 51.8 45.5 Z M 63.3 43.5 C 63.3 43.5 64.4 43.7 64.4 43.7 C 64.2 44.3 63.9 44.8 63.4 45.1 C 63 45.5 62.4 45.6 61.7 45.6 C 60.8 45.6 60.1 45.4 59.6 44.8 C 59 44.3 58.8 43.5 58.8 42.5 C 58.8 41.5 59 40.7 59.6 40.1 C 60.1 39.6 60.8 39.3 61.6 39.3 C 62.4 39.3 63.1 39.6 63.6 40.1 C 64.1 40.7 64.4 41.4 64.4 42.4 C 64.4 42.5 64.4 42.6 64.4 42.7 C 64.4 42.7 59.8 42.7 59.8 42.7 C 59.9 43.4 60.1 43.9 60.4 44.3 C 60.8 44.6 61.2 44.8 61.7 44.8 C 62.1 44.8 62.4 44.7 62.7 44.5 C 62.9 44.3 63.1 44 63.3 43.5 Z M 59.9 41.9 C 59.9 41.9 63.3 41.9 63.3 41.9 C 63.3 41.4 63.1 41 62.9 40.7 C 62.6 40.3 62.2 40.1 61.6 40.1 C 61.2 40.1 60.8 40.3 60.4 40.6 C 60.1 40.9 59.9 41.3 59.9 41.9 Z M 68.9 47.8 L 68.9 39.4 L 69.8 39.4 C 69.8 39.4 69.85 40.2 69.8 40.2 C 70.1 39.9 70.3 39.7 70.6 39.5 C 70.9 39.4 71.2 39.3 71.6 39.3 C 72.1 39.3 72.6 39.4 73 39.7 C 73.4 39.9 73.7 40.3 73.9 40.8 C 74.1 41.3 74.2 41.8 74.2 42.4 C 74.2 43 74.1 43.6 73.9 44.1 C 73.6 44.6 73.3 45 72.9 45.2 C 72.5 45.5 72 45.6 71.5 45.6 C 71.2 45.6 70.9 45.6 70.6 45.4 C 70.3 45.3 70.1 45.1 69.9 44.9 C 69.94 44.87 69.9 47.8 69.9 47.8 L 68.9 47.8 Z M 69.8 42.5 C 69.8 43.3 70 43.9 70.3 44.2 C 70.6 44.6 71 44.8 71.5 44.8 C 71.9 44.8 72.3 44.6 72.6 44.2 C 73 43.8 73.1 43.2 73.1 42.4 C 73.1 41.6 73 41 72.7 40.7 C 72.3 40.3 72 40.1 71.5 40.1 C 71.1 40.1 70.7 40.3 70.3 40.7 C 70 41.1 69.8 41.7 69.8 42.5 Z M 75.4 45.5 L 75.4 39.4 L 76.3 39.4 C 76.3 39.4 76.35 40.34 76.3 40.3 C 76.6 39.9 76.8 39.6 77 39.5 C 77.2 39.3 77.4 39.3 77.7 39.3 C 78 39.3 78.4 39.4 78.7 39.6 C 78.7 39.6 78.4 40.6 78.4 40.6 C 78.1 40.4 77.9 40.3 77.6 40.3 C 77.4 40.3 77.2 40.4 77 40.5 C 76.8 40.7 76.7 40.9 76.6 41.1 C 76.5 41.5 76.5 41.9 76.5 42.3 C 76.45 42.31 76.5 45.5 76.5 45.5 L 75.4 45.5 Z M 79 42.5 C 79 41.3 79.3 40.5 79.9 40 C 80.4 39.5 81.1 39.3 81.8 39.3 C 82.6 39.3 83.3 39.5 83.9 40.1 C 84.4 40.6 84.7 41.4 84.7 42.4 C 84.7 43.2 84.5 43.8 84.3 44.2 C 84.1 44.7 83.7 45 83.3 45.3 C 82.8 45.5 82.3 45.6 81.8 45.6 C 81 45.6 80.3 45.4 79.7 44.8 C 79.2 44.3 79 43.5 79 42.5 Z M 80 42.5 C 80 43.2 80.2 43.8 80.5 44.2 C 80.9 44.6 81.3 44.8 81.8 44.8 C 82.3 44.8 82.7 44.6 83.1 44.2 C 83.4 43.8 83.6 43.2 83.6 42.4 C 83.6 41.7 83.4 41.1 83.1 40.7 C 82.7 40.3 82.3 40.1 81.8 40.1 C 81.3 40.1 80.9 40.3 80.5 40.7 C 80.2 41.1 80 41.7 80 42.5 Z M 87.6 45.5 L 85.2 39.4 L 86.3 39.4 C 86.3 39.4 87.64 43.06 87.6 43.1 C 87.8 43.5 87.9 43.9 88 44.3 C 88.1 44 88.2 43.6 88.4 43.1 C 88.41 43.13 89.8 39.4 89.8 39.4 L 90.8 39.4 L 88.5 45.5 L 87.6 45.5 Z M 91.7 38.3 L 91.7 37.1 L 92.8 37.1 L 92.8 38.3 L 91.7 38.3 Z M 91.7 45.5 L 91.7 39.4 L 92.8 39.4 L 92.8 45.5 L 91.7 45.5 Z M 98.3 45.5 C 98.3 45.5 98.29 44.73 98.3 44.7 C 97.9 45.3 97.3 45.6 96.6 45.6 C 96.1 45.6 95.7 45.5 95.2 45.2 C 94.8 45 94.5 44.6 94.3 44.1 C 94.1 43.6 94 43.1 94 42.5 C 94 41.9 94.1 41.3 94.3 40.8 C 94.5 40.3 94.8 39.9 95.2 39.7 C 95.6 39.4 96 39.3 96.5 39.3 C 96.9 39.3 97.2 39.4 97.5 39.5 C 97.8 39.7 98 39.9 98.2 40.1 C 98.22 40.11 98.2 37.1 98.2 37.1 L 99.2 37.1 L 99.2 45.5 L 98.3 45.5 Z M 95 42.5 C 95 43.2 95.2 43.8 95.5 44.2 C 95.8 44.6 96.2 44.8 96.7 44.8 C 97.1 44.8 97.5 44.6 97.8 44.2 C 98.1 43.9 98.3 43.3 98.3 42.5 C 98.3 41.7 98.1 41.1 97.8 40.7 C 97.5 40.3 97.1 40.1 96.6 40.1 C 96.2 40.1 95.8 40.3 95.5 40.7 C 95.2 41.1 95 41.7 95 42.5 Z M 105 43.5 C 105 43.5 106.1 43.7 106.1 43.7 C 105.9 44.3 105.6 44.8 105.2 45.1 C 104.7 45.5 104.1 45.6 103.4 45.6 C 102.5 45.6 101.8 45.4 101.3 44.8 C 100.8 44.3 100.5 43.5 100.5 42.5 C 100.5 41.5 100.8 40.7 101.3 40.1 C 101.8 39.6 102.5 39.3 103.4 39.3 C 104.2 39.3 104.8 39.6 105.4 40.1 C 105.9 40.7 106.1 41.4 106.1 42.4 C 106.1 42.5 106.1 42.6 106.1 42.7 C 106.1 42.7 101.6 42.7 101.6 42.7 C 101.6 43.4 101.8 43.9 102.2 44.3 C 102.5 44.6 102.9 44.8 103.4 44.8 C 103.8 44.8 104.1 44.7 104.4 44.5 C 104.7 44.3 104.9 44 105 43.5 Z M 101.6 41.9 C 101.6 41.9 105 41.9 105 41.9 C 105 41.4 104.9 41 104.7 40.7 C 104.3 40.3 103.9 40.1 103.4 40.1 C 102.9 40.1 102.5 40.3 102.2 40.6 C 101.9 40.9 101.7 41.3 101.6 41.9 Z M 110.7 38.3 L 110.7 37.1 L 111.7 37.1 L 111.7 38.3 L 110.7 38.3 Z M 110.7 45.5 L 110.7 39.4 L 111.7 39.4 L 111.7 45.5 L 110.7 45.5 Z M 113.3 45.5 L 113.3 39.4 L 114.2 39.4 C 114.2 39.4 114.18 40.28 114.2 40.3 C 114.6 39.6 115.3 39.3 116.1 39.3 C 116.5 39.3 116.8 39.3 117.1 39.5 C 117.4 39.6 117.7 39.8 117.8 40 C 118 40.2 118.1 40.5 118.1 40.8 C 118.2 40.9 118.2 41.3 118.2 41.8 C 118.2 41.76 118.2 45.5 118.2 45.5 L 117.2 45.5 C 117.2 45.5 117.17 41.8 117.2 41.8 C 117.2 41.4 117.1 41.1 117 40.9 C 117 40.6 116.8 40.5 116.6 40.4 C 116.4 40.2 116.2 40.2 115.9 40.2 C 115.5 40.2 115.1 40.3 114.8 40.6 C 114.4 40.9 114.3 41.4 114.3 42.2 C 114.29 42.17 114.3 45.5 114.3 45.5 L 113.3 45.5 Z M 123.7 45.5 C 123.7 45.5 123.73 44.73 123.7 44.7 C 123.3 45.3 122.8 45.6 122 45.6 C 121.5 45.6 121.1 45.5 120.7 45.2 C 120.3 45 120 44.6 119.7 44.1 C 119.5 43.6 119.4 43.1 119.4 42.5 C 119.4 41.9 119.5 41.3 119.7 40.8 C 119.9 40.3 120.2 39.9 120.6 39.7 C 121 39.4 121.5 39.3 122 39.3 C 122.3 39.3 122.7 39.4 123 39.5 C 123.2 39.7 123.5 39.9 123.7 40.1 C 123.66 40.11 123.7 37.1 123.7 37.1 L 124.7 37.1 L 124.7 45.5 L 123.7 45.5 Z M 120.5 42.5 C 120.5 43.2 120.6 43.8 121 44.2 C 121.3 44.6 121.7 44.8 122.1 44.8 C 122.6 44.8 123 44.6 123.3 44.2 C 123.6 43.9 123.7 43.3 123.7 42.5 C 123.7 41.7 123.6 41.1 123.3 40.7 C 122.9 40.3 122.5 40.1 122.1 40.1 C 121.6 40.1 121.2 40.3 120.9 40.7 C 120.6 41.1 120.5 41.7 120.5 42.5 Z M 130.5 43.5 C 130.5 43.5 131.5 43.7 131.5 43.7 C 131.4 44.3 131.1 44.8 130.6 45.1 C 130.2 45.5 129.6 45.6 128.9 45.6 C 128 45.6 127.3 45.4 126.7 44.8 C 126.2 44.3 126 43.5 126 42.5 C 126 41.5 126.2 40.7 126.8 40.1 C 127.3 39.6 128 39.3 128.8 39.3 C 129.6 39.3 130.3 39.6 130.8 40.1 C 131.3 40.7 131.6 41.4 131.6 42.4 C 131.6 42.5 131.6 42.6 131.6 42.7 C 131.6 42.7 127 42.7 127 42.7 C 127.1 43.4 127.3 43.9 127.6 44.3 C 127.9 44.6 128.4 44.8 128.9 44.8 C 129.2 44.8 129.6 44.7 129.8 44.5 C 130.1 44.3 130.3 44 130.5 43.5 Z M 127.1 41.9 C 127.1 41.9 130.5 41.9 130.5 41.9 C 130.4 41.4 130.3 41 130.1 40.7 C 129.8 40.3 129.3 40.1 128.8 40.1 C 128.3 40.1 127.9 40.3 127.6 40.6 C 127.3 40.9 127.1 41.3 127.1 41.9 Z M 132.8 47.8 L 132.8 39.4 L 133.8 39.4 C 133.8 39.4 133.77 40.2 133.8 40.2 C 134 39.9 134.2 39.7 134.5 39.5 C 134.8 39.4 135.1 39.3 135.5 39.3 C 136.1 39.3 136.5 39.4 136.9 39.7 C 137.3 39.9 137.6 40.3 137.8 40.8 C 138 41.3 138.1 41.8 138.1 42.4 C 138.1 43 138 43.6 137.8 44.1 C 137.6 44.6 137.2 45 136.8 45.2 C 136.4 45.5 135.9 45.6 135.5 45.6 C 135.1 45.6 134.8 45.6 134.5 45.4 C 134.3 45.3 134 45.1 133.9 44.9 C 133.86 44.87 133.9 47.8 133.9 47.8 L 132.8 47.8 Z M 133.8 42.5 C 133.8 43.3 133.9 43.9 134.2 44.2 C 134.6 44.6 134.9 44.8 135.4 44.8 C 135.9 44.8 136.2 44.6 136.6 44.2 C 136.9 43.8 137.1 43.2 137.1 42.4 C 137.1 41.6 136.9 41 136.6 40.7 C 136.3 40.3 135.9 40.1 135.4 40.1 C 135 40.1 134.6 40.3 134.3 40.7 C 133.9 41.1 133.8 41.7 133.8 42.5 Z M 143.5 43.5 C 143.5 43.5 144.6 43.7 144.6 43.7 C 144.4 44.3 144.1 44.8 143.7 45.1 C 143.2 45.5 142.6 45.6 141.9 45.6 C 141 45.6 140.3 45.4 139.8 44.8 C 139.3 44.3 139 43.5 139 42.5 C 139 41.5 139.3 40.7 139.8 40.1 C 140.3 39.6 141 39.3 141.9 39.3 C 142.7 39.3 143.3 39.6 143.9 40.1 C 144.4 40.7 144.6 41.4 144.6 42.4 C 144.6 42.5 144.6 42.6 144.6 42.7 C 144.6 42.7 140.1 42.7 140.1 42.7 C 140.1 43.4 140.3 43.9 140.6 44.3 C 141 44.6 141.4 44.8 141.9 44.8 C 142.3 44.8 142.6 44.7 142.9 44.5 C 143.2 44.3 143.4 44 143.5 43.5 Z M 140.1 41.9 C 140.1 41.9 143.5 41.9 143.5 41.9 C 143.5 41.4 143.4 41 143.1 40.7 C 142.8 40.3 142.4 40.1 141.9 40.1 C 141.4 40.1 141 40.3 140.7 40.6 C 140.4 40.9 140.2 41.3 140.1 41.9 Z M 145.9 45.5 L 145.9 39.4 L 146.8 39.4 C 146.8 39.4 146.81 40.28 146.8 40.3 C 147.3 39.6 147.9 39.3 148.7 39.3 C 149.1 39.3 149.5 39.3 149.8 39.5 C 150.1 39.6 150.3 39.8 150.5 40 C 150.6 40.2 150.7 40.5 150.8 40.8 C 150.8 40.9 150.8 41.3 150.8 41.8 C 150.83 41.76 150.8 45.5 150.8 45.5 L 149.8 45.5 C 149.8 45.5 149.8 41.8 149.8 41.8 C 149.8 41.4 149.8 41.1 149.7 40.9 C 149.6 40.6 149.5 40.5 149.3 40.4 C 149 40.2 148.8 40.2 148.5 40.2 C 148.1 40.2 147.7 40.3 147.4 40.6 C 147.1 40.9 146.9 41.4 146.9 42.2 C 146.92 42.17 146.9 45.5 146.9 45.5 L 145.9 45.5 Z M 156.4 45.5 C 156.4 45.5 156.36 44.73 156.4 44.7 C 156 45.3 155.4 45.6 154.7 45.6 C 154.2 45.6 153.7 45.5 153.3 45.2 C 152.9 45 152.6 44.6 152.4 44.1 C 152.1 43.6 152 43.1 152 42.5 C 152 41.9 152.1 41.3 152.3 40.8 C 152.5 40.3 152.8 39.9 153.3 39.7 C 153.7 39.4 154.1 39.3 154.6 39.3 C 155 39.3 155.3 39.4 155.6 39.5 C 155.9 39.7 156.1 39.9 156.3 40.1 C 156.29 40.11 156.3 37.1 156.3 37.1 L 157.3 37.1 L 157.3 45.5 L 156.4 45.5 Z M 153.1 42.5 C 153.1 43.2 153.3 43.8 153.6 44.2 C 153.9 44.6 154.3 44.8 154.8 44.8 C 155.2 44.8 155.6 44.6 155.9 44.2 C 156.2 43.9 156.4 43.3 156.4 42.5 C 156.4 41.7 156.2 41.1 155.9 40.7 C 155.6 40.3 155.2 40.1 154.7 40.1 C 154.2 40.1 153.9 40.3 153.6 40.7 C 153.3 41.1 153.1 41.7 153.1 42.5 Z M 163.1 43.5 C 163.1 43.5 164.2 43.7 164.2 43.7 C 164 44.3 163.7 44.8 163.2 45.1 C 162.8 45.5 162.2 45.6 161.5 45.6 C 160.6 45.6 159.9 45.4 159.4 44.8 C 158.9 44.3 158.6 43.5 158.6 42.5 C 158.6 41.5 158.9 40.7 159.4 40.1 C 159.9 39.6 160.6 39.3 161.4 39.3 C 162.2 39.3 162.9 39.6 163.4 40.1 C 163.9 40.7 164.2 41.4 164.2 42.4 C 164.2 42.5 164.2 42.6 164.2 42.7 C 164.2 42.7 159.7 42.7 159.7 42.7 C 159.7 43.4 159.9 43.9 160.2 44.3 C 160.6 44.6 161 44.8 161.5 44.8 C 161.9 44.8 162.2 44.7 162.5 44.5 C 162.7 44.3 162.9 44 163.1 43.5 Z M 159.7 41.9 C 159.7 41.9 163.1 41.9 163.1 41.9 C 163.1 41.4 162.9 41 162.7 40.7 C 162.4 40.3 162 40.1 161.4 40.1 C 161 40.1 160.6 40.3 160.3 40.6 C 159.9 40.9 159.7 41.3 159.7 41.9 Z M 165.5 45.5 L 165.5 39.4 L 166.4 39.4 C 166.4 39.4 166.39 40.28 166.4 40.3 C 166.8 39.6 167.5 39.3 168.3 39.3 C 168.7 39.3 169 39.3 169.3 39.5 C 169.6 39.6 169.9 39.8 170 40 C 170.2 40.2 170.3 40.5 170.3 40.8 C 170.4 40.9 170.4 41.3 170.4 41.8 C 170.41 41.76 170.4 45.5 170.4 45.5 L 169.4 45.5 C 169.4 45.5 169.37 41.8 169.4 41.8 C 169.4 41.4 169.3 41.1 169.3 40.9 C 169.2 40.6 169 40.5 168.8 40.4 C 168.6 40.2 168.4 40.2 168.1 40.2 C 167.7 40.2 167.3 40.3 167 40.6 C 166.7 40.9 166.5 41.4 166.5 42.2 C 166.49 42.17 166.5 45.5 166.5 45.5 L 165.5 45.5 Z M 173.8 44.6 C 173.9 44.6 174.1 44.6 174.2 44.6 C 174.2 44.6 174.4 45.5 174.4 45.5 C 174.1 45.5 173.8 45.6 173.6 45.6 C 173.2 45.6 172.9 45.5 172.7 45.4 C 172.5 45.3 172.4 45.1 172.3 44.9 C 172.2 44.7 172.2 44.3 172.2 43.7 C 172.18 43.72 172.2 40.2 172.2 40.2 L 171.4 40.2 L 171.4 39.4 L 172.2 39.4 L 172.2 37.9 L 173.2 37.3 L 173.2 39.4 L 174.2 39.4 L 174.2 40.2 L 173.2 40.2 C 173.2 40.2 173.2 43.77 173.2 43.8 C 173.2 44.1 173.2 44.3 173.3 44.3 C 173.3 44.4 173.4 44.5 173.4 44.5 C 173.5 44.6 173.6 44.6 173.8 44.6 C 173.8 44.6 173.8 44.6 173.8 44.6 Z M 182.7 45.5 C 182.6 45.3 182.5 45 182.5 44.7 C 182.1 45.1 181.7 45.3 181.4 45.4 C 181 45.6 180.6 45.6 180.2 45.6 C 179.6 45.6 179.1 45.5 178.7 45.1 C 178.3 44.8 178.2 44.4 178.2 43.9 C 178.2 43.6 178.2 43.3 178.4 43.1 C 178.5 42.8 178.7 42.6 178.9 42.5 C 179.1 42.3 179.4 42.2 179.6 42.1 C 179.8 42.1 180.1 42 180.6 42 C 181.4 41.9 182 41.8 182.4 41.6 C 182.4 41.5 182.4 41.4 182.4 41.4 C 182.4 40.9 182.3 40.7 182.1 40.5 C 181.8 40.2 181.4 40.1 180.9 40.1 C 180.4 40.1 180.1 40.2 179.9 40.4 C 179.6 40.6 179.5 40.9 179.3 41.3 C 179.3 41.3 178.3 41.1 178.3 41.1 C 178.4 40.7 178.6 40.4 178.8 40.1 C 179 39.8 179.3 39.6 179.7 39.5 C 180.1 39.3 180.6 39.3 181.1 39.3 C 181.6 39.3 182 39.3 182.3 39.5 C 182.7 39.6 182.9 39.7 183.1 39.9 C 183.2 40.1 183.3 40.3 183.4 40.6 C 183.4 40.8 183.4 41.1 183.4 41.6 C 183.4 41.6 183.4 42.9 183.4 42.9 C 183.4 43.9 183.5 44.5 183.5 44.8 C 183.5 45 183.6 45.3 183.8 45.5 C 183.76 45.5 182.7 45.5 182.7 45.5 C 182.7 45.5 182.68 45.5 182.7 45.5 Z M 182.4 42.4 C 182 42.6 181.5 42.7 180.7 42.8 C 180.3 42.9 180 43 179.8 43 C 179.6 43.1 179.5 43.2 179.4 43.4 C 179.3 43.5 179.3 43.7 179.3 43.9 C 179.3 44.1 179.4 44.4 179.6 44.6 C 179.8 44.7 180.1 44.8 180.5 44.8 C 180.9 44.8 181.2 44.7 181.5 44.6 C 181.9 44.4 182.1 44.2 182.2 43.9 C 182.3 43.6 182.4 43.3 182.4 42.8 C 182.4 42.8 182.4 42.4 182.4 42.4 Z M 185 45.5 L 185 39.4 L 186 39.4 C 186 39.4 185.96 40.28 186 40.3 C 186.4 39.6 187.1 39.3 187.9 39.3 C 188.3 39.3 188.6 39.3 188.9 39.5 C 189.2 39.6 189.4 39.8 189.6 40 C 189.8 40.2 189.9 40.5 189.9 40.8 C 190 40.9 190 41.3 190 41.8 C 189.98 41.76 190 45.5 190 45.5 L 188.9 45.5 C 188.9 45.5 188.94 41.8 188.9 41.8 C 188.9 41.4 188.9 41.1 188.8 40.9 C 188.7 40.6 188.6 40.5 188.4 40.4 C 188.2 40.2 188 40.2 187.7 40.2 C 187.2 40.2 186.9 40.3 186.5 40.6 C 186.2 40.9 186.1 41.4 186.1 42.2 C 186.06 42.17 186.1 45.5 186.1 45.5 L 185 45.5 Z M 195.5 45.5 C 195.5 45.5 195.5 44.73 195.5 44.7 C 195.1 45.3 194.6 45.6 193.8 45.6 C 193.3 45.6 192.9 45.5 192.5 45.2 C 192.1 45 191.7 44.6 191.5 44.1 C 191.3 43.6 191.2 43.1 191.2 42.5 C 191.2 41.9 191.3 41.3 191.5 40.8 C 191.7 40.3 192 39.9 192.4 39.7 C 192.8 39.4 193.3 39.3 193.8 39.3 C 194.1 39.3 194.5 39.4 194.7 39.5 C 195 39.7 195.3 39.9 195.4 40.1 C 195.44 40.11 195.4 37.1 195.4 37.1 L 196.5 37.1 L 196.5 45.5 L 195.5 45.5 Z M 192.2 42.5 C 192.2 43.2 192.4 43.8 192.7 44.2 C 193.1 44.6 193.5 44.8 193.9 44.8 C 194.4 44.8 194.7 44.6 195 44.2 C 195.4 43.9 195.5 43.3 195.5 42.5 C 195.5 41.7 195.4 41.1 195 40.7 C 194.7 40.3 194.3 40.1 193.9 40.1 C 193.4 40.1 193 40.3 192.7 40.7 C 192.4 41.1 192.2 41.7 192.2 42.5 Z " stroke="none" fill="#fff"/>  </g>  <g id="Polygon67873">    <path d="M 19.2 31.4 L 22.4 23 L 23.6 23 L 27.1 31.4 L 25.8 31.4 L 24.8 28.9 L 21.3 28.9 L 20.4 31.4 L 19.2 31.4 Z M 21.6 28 L 24.5 28 C 24.5 28 23.6 25.64 23.6 25.6 C 23.3 24.9 23.1 24.4 23 23.9 C 22.9 24.4 22.8 25 22.6 25.5 C 22.56 25.51 21.6 28 21.6 28 Z M 27.8 33.7 L 27.8 25.3 L 28.8 25.3 C 28.8 25.3 28.77 26.12 28.8 26.1 C 29 25.8 29.2 25.6 29.5 25.4 C 29.8 25.3 30.1 25.2 30.5 25.2 C 31 25.2 31.5 25.3 31.9 25.6 C 32.3 25.9 32.6 26.2 32.8 26.7 C 33 27.2 33.1 27.7 33.1 28.3 C 33.1 29 33 29.5 32.8 30 C 32.6 30.5 32.2 30.9 31.8 31.2 C 31.4 31.4 30.9 31.6 30.5 31.6 C 30.1 31.6 29.8 31.5 29.5 31.3 C 29.3 31.2 29 31 28.9 30.8 C 28.86 30.79 28.9 33.7 28.9 33.7 L 27.8 33.7 Z M 28.8 28.4 C 28.8 29.2 28.9 29.8 29.2 30.1 C 29.6 30.5 29.9 30.7 30.4 30.7 C 30.8 30.7 31.2 30.5 31.6 30.1 C 31.9 29.7 32.1 29.1 32.1 28.3 C 32.1 27.5 31.9 27 31.6 26.6 C 31.3 26.2 30.9 26 30.4 26 C 30 26 29.6 26.2 29.3 26.6 C 28.9 27 28.8 27.6 28.8 28.4 Z M 34.4 33.7 L 34.4 25.3 L 35.3 25.3 C 35.3 25.3 35.29 26.12 35.3 26.1 C 35.5 25.8 35.8 25.6 36 25.4 C 36.3 25.3 36.7 25.2 37.1 25.2 C 37.6 25.2 38 25.3 38.4 25.6 C 38.8 25.9 39.1 26.2 39.3 26.7 C 39.5 27.2 39.6 27.7 39.6 28.3 C 39.6 29 39.5 29.5 39.3 30 C 39.1 30.5 38.8 30.9 38.3 31.2 C 37.9 31.4 37.5 31.6 37 31.6 C 36.6 31.6 36.3 31.5 36.1 31.3 C 35.8 31.2 35.6 31 35.4 30.8 C 35.38 30.79 35.4 33.7 35.4 33.7 L 34.4 33.7 Z M 35.3 28.4 C 35.3 29.2 35.4 29.8 35.8 30.1 C 36.1 30.5 36.5 30.7 36.9 30.7 C 37.4 30.7 37.8 30.5 38.1 30.1 C 38.4 29.7 38.6 29.1 38.6 28.3 C 38.6 27.5 38.4 27 38.1 26.6 C 37.8 26.2 37.4 26 37 26 C 36.5 26 36.1 26.2 35.8 26.6 C 35.5 27 35.3 27.6 35.3 28.4 Z M 40.9 31.4 L 40.9 25.3 L 41.8 25.3 C 41.8 25.3 41.79 26.26 41.8 26.3 C 42 25.8 42.2 25.5 42.5 25.4 C 42.7 25.3 42.9 25.2 43.1 25.2 C 43.5 25.2 43.8 25.3 44.2 25.5 C 44.2 25.5 43.8 26.5 43.8 26.5 C 43.6 26.3 43.3 26.3 43.1 26.3 C 42.8 26.3 42.6 26.3 42.5 26.5 C 42.3 26.6 42.1 26.8 42.1 27 C 42 27.4 41.9 27.8 41.9 28.2 C 41.9 28.23 41.9 31.4 41.9 31.4 L 40.9 31.4 Z M 44.4 28.4 C 44.4 27.2 44.7 26.4 45.3 25.9 C 45.9 25.4 46.5 25.2 47.3 25.2 C 48.1 25.2 48.8 25.5 49.3 26 C 49.8 26.6 50.1 27.3 50.1 28.3 C 50.1 29.1 50 29.7 49.7 30.1 C 49.5 30.6 49.2 30.9 48.7 31.2 C 48.3 31.4 47.8 31.6 47.3 31.6 C 46.4 31.6 45.7 31.3 45.2 30.7 C 44.7 30.2 44.4 29.4 44.4 28.4 Z M 45.5 28.4 C 45.5 29.2 45.6 29.7 46 30.1 C 46.3 30.5 46.7 30.7 47.3 30.7 C 47.8 30.7 48.2 30.5 48.5 30.1 C 48.9 29.7 49 29.1 49 28.3 C 49 27.6 48.9 27 48.5 26.6 C 48.2 26.2 47.8 26 47.3 26 C 46.7 26 46.3 26.2 46 26.6 C 45.6 27 45.5 27.6 45.5 28.4 Z M 53 31.4 L 50.7 25.3 L 51.8 25.3 C 51.8 25.3 53.08 28.98 53.1 29 C 53.2 29.4 53.4 29.8 53.5 30.2 C 53.6 29.9 53.7 29.5 53.9 29 C 53.85 29.05 55.2 25.3 55.2 25.3 L 56.3 25.3 L 54 31.4 L 53 31.4 Z M 61.3 29.5 C 61.3 29.5 62.4 29.6 62.4 29.6 C 62.2 30.2 61.9 30.7 61.5 31 C 61 31.4 60.4 31.6 59.7 31.6 C 58.8 31.6 58.1 31.3 57.6 30.7 C 57.1 30.2 56.8 29.4 56.8 28.4 C 56.8 27.4 57.1 26.6 57.6 26 C 58.2 25.5 58.8 25.2 59.7 25.2 C 60.5 25.2 61.2 25.5 61.7 26 C 62.2 26.6 62.4 27.4 62.4 28.4 C 62.4 28.4 62.4 28.5 62.4 28.6 C 62.4 28.6 57.9 28.6 57.9 28.6 C 57.9 29.3 58.1 29.8 58.5 30.2 C 58.8 30.5 59.2 30.7 59.7 30.7 C 60.1 30.7 60.4 30.6 60.7 30.4 C 61 30.2 61.2 29.9 61.3 29.5 Z M 58 27.8 C 58 27.8 61.4 27.8 61.4 27.8 C 61.3 27.3 61.2 26.9 61 26.6 C 60.6 26.2 60.2 26 59.7 26 C 59.2 26 58.8 26.2 58.5 26.5 C 58.2 26.8 58 27.3 58 27.8 Z M 67.6 31.4 C 67.6 31.4 67.65 30.65 67.6 30.7 C 67.3 31.3 66.7 31.6 65.9 31.6 C 65.5 31.6 65 31.4 64.6 31.2 C 64.2 30.9 63.9 30.5 63.7 30 C 63.4 29.6 63.3 29 63.3 28.4 C 63.3 27.8 63.4 27.2 63.6 26.7 C 63.8 26.2 64.1 25.9 64.5 25.6 C 64.9 25.3 65.4 25.2 65.9 25.2 C 66.3 25.2 66.6 25.3 66.9 25.4 C 67.2 25.6 67.4 25.8 67.6 26 C 67.58 26.03 67.6 23 67.6 23 L 68.6 23 L 68.6 31.4 L 67.6 31.4 Z M 64.4 28.4 C 64.4 29.2 64.6 29.7 64.9 30.1 C 65.2 30.5 65.6 30.7 66 30.7 C 66.5 30.7 66.9 30.5 67.2 30.2 C 67.5 29.8 67.7 29.2 67.7 28.5 C 67.7 27.6 67.5 27 67.2 26.6 C 66.9 26.2 66.5 26 66 26 C 65.5 26 65.2 26.2 64.9 26.6 C 64.5 27 64.4 27.6 64.4 28.4 Z M 74.4 31.4 L 73.5 31.4 L 73.5 23 L 74.5 23 C 74.5 23 74.51 26.02 74.5 26 C 74.9 25.5 75.5 25.2 76.2 25.2 C 76.6 25.2 76.9 25.3 77.2 25.4 C 77.6 25.6 77.9 25.8 78.1 26.1 C 78.3 26.3 78.5 26.7 78.6 27 C 78.7 27.4 78.8 27.8 78.8 28.3 C 78.8 29.3 78.5 30.1 78 30.7 C 77.5 31.3 76.9 31.6 76.1 31.6 C 75.4 31.6 74.8 31.3 74.4 30.7 C 74.44 30.66 74.4 31.4 74.4 31.4 Z M 74.4 28.3 C 74.4 29.1 74.5 29.6 74.7 29.9 C 75 30.4 75.5 30.7 76 30.7 C 76.5 30.7 76.9 30.5 77.2 30.1 C 77.5 29.7 77.7 29.1 77.7 28.4 C 77.7 27.6 77.5 27 77.2 26.6 C 76.9 26.2 76.5 26 76.1 26 C 75.6 26 75.2 26.2 74.9 26.6 C 74.6 27 74.4 27.6 74.4 28.3 Z M 80.6 33.9 C 80.4 33.9 80.2 33.8 80 33.8 C 80 33.8 79.9 32.8 79.9 32.8 C 80.1 32.9 80.3 32.9 80.4 32.9 C 80.7 32.9 80.9 32.8 81 32.8 C 81.1 32.7 81.2 32.6 81.3 32.4 C 81.4 32.3 81.5 32.1 81.6 31.7 C 81.7 31.6 81.7 31.5 81.7 31.4 C 81.74 31.43 79.4 25.3 79.4 25.3 L 80.5 25.3 C 80.5 25.3 81.81 28.86 81.8 28.9 C 82 29.3 82.1 29.8 82.2 30.3 C 82.4 29.8 82.5 29.3 82.7 28.9 C 82.67 28.88 84 25.3 84 25.3 L 85 25.3 C 85 25.3 82.69 31.52 82.7 31.5 C 82.4 32.2 82.2 32.6 82.1 32.9 C 81.9 33.2 81.7 33.5 81.5 33.6 C 81.2 33.8 81 33.9 80.6 33.9 C 80.6 33.9 80.6 33.9 80.6 33.9 Z M 90.1 31.4 L 89.1 31.4 L 89.1 23 L 90.2 23 C 90.2 23 90.17 26.02 90.2 26 C 90.6 25.5 91.2 25.2 91.8 25.2 C 92.2 25.2 92.6 25.3 92.9 25.4 C 93.2 25.6 93.5 25.8 93.7 26.1 C 93.9 26.3 94.1 26.7 94.2 27 C 94.3 27.4 94.4 27.8 94.4 28.3 C 94.4 29.3 94.2 30.1 93.6 30.7 C 93.1 31.3 92.5 31.6 91.8 31.6 C 91.1 31.6 90.5 31.3 90.1 30.7 C 90.09 30.66 90.1 31.4 90.1 31.4 Z M 90.1 28.3 C 90.1 29.1 90.2 29.6 90.4 29.9 C 90.7 30.4 91.1 30.7 91.7 30.7 C 92.1 30.7 92.5 30.5 92.9 30.1 C 93.2 29.7 93.4 29.1 93.4 28.4 C 93.4 27.6 93.2 27 92.9 26.6 C 92.6 26.2 92.2 26 91.7 26 C 91.3 26 90.9 26.2 90.6 26.6 C 90.2 27 90.1 27.6 90.1 28.3 Z M 95.3 28.4 C 95.3 27.2 95.6 26.4 96.2 25.9 C 96.7 25.4 97.4 25.2 98.1 25.2 C 99 25.2 99.7 25.5 100.2 26 C 100.7 26.6 101 27.3 101 28.3 C 101 29.1 100.9 29.7 100.6 30.1 C 100.4 30.6 100.1 30.9 99.6 31.2 C 99.2 31.4 98.7 31.6 98.1 31.6 C 97.3 31.6 96.6 31.3 96.1 30.7 C 95.5 30.2 95.3 29.4 95.3 28.4 Z M 96.3 28.4 C 96.3 29.2 96.5 29.7 96.9 30.1 C 97.2 30.5 97.6 30.7 98.1 30.7 C 98.6 30.7 99.1 30.5 99.4 30.1 C 99.8 29.7 99.9 29.1 99.9 28.3 C 99.9 27.6 99.8 27 99.4 26.6 C 99.1 26.2 98.6 26 98.1 26 C 97.6 26 97.2 26.2 96.9 26.6 C 96.5 27 96.3 27.6 96.3 28.4 Z M 104 30.5 C 104.1 30.5 104.3 30.5 104.4 30.5 C 104.4 30.5 104.6 31.4 104.6 31.4 C 104.3 31.5 104 31.5 103.8 31.5 C 103.4 31.5 103.1 31.4 102.9 31.3 C 102.7 31.2 102.6 31 102.5 30.9 C 102.4 30.7 102.4 30.3 102.4 29.6 C 102.38 29.64 102.4 26.1 102.4 26.1 L 101.6 26.1 L 101.6 25.3 L 102.4 25.3 L 102.4 23.8 L 103.4 23.2 L 103.4 25.3 L 104.4 25.3 L 104.4 26.1 L 103.4 26.1 C 103.4 26.1 103.41 29.69 103.4 29.7 C 103.4 30 103.4 30.2 103.5 30.3 C 103.5 30.3 103.6 30.4 103.6 30.5 C 103.7 30.5 103.8 30.5 104 30.5 C 104 30.5 104 30.5 104 30.5 Z M 105.5 31.4 L 105.5 23 L 106.5 23 C 106.5 23 106.48 26.03 106.5 26 C 107 25.5 107.6 25.2 108.3 25.2 C 108.8 25.2 109.1 25.3 109.5 25.5 C 109.8 25.6 110 25.9 110.2 26.2 C 110.3 26.5 110.4 27 110.4 27.6 C 110.41 27.56 110.4 31.4 110.4 31.4 L 109.4 31.4 C 109.4 31.4 109.38 27.56 109.4 27.6 C 109.4 27 109.3 26.7 109 26.4 C 108.8 26.2 108.5 26.1 108.1 26.1 C 107.8 26.1 107.5 26.2 107.2 26.3 C 107 26.5 106.8 26.7 106.7 27 C 106.5 27.2 106.5 27.6 106.5 28.1 C 106.48 28.09 106.5 31.4 106.5 31.4 L 105.5 31.4 Z M 115 27.3 C 115 25.9 115.4 24.8 116.2 24.1 C 116.9 23.3 117.9 22.9 119.1 22.9 C 119.8 22.9 120.5 23.1 121.1 23.4 C 121.8 23.8 122.2 24.3 122.6 25 C 122.9 25.6 123.1 26.4 123.1 27.2 C 123.1 28.1 122.9 28.8 122.5 29.5 C 122.2 30.2 121.7 30.7 121.1 31 C 120.5 31.4 119.8 31.6 119 31.6 C 118.3 31.6 117.5 31.4 116.9 31 C 116.3 30.6 115.8 30.1 115.5 29.4 C 115.2 28.8 115 28.1 115 27.3 Z M 116.2 27.3 C 116.2 28.4 116.4 29.2 117 29.7 C 117.5 30.3 118.2 30.6 119 30.6 C 119.9 30.6 120.6 30.3 121.1 29.7 C 121.6 29.1 121.9 28.3 121.9 27.2 C 121.9 26.5 121.8 25.9 121.6 25.4 C 121.3 24.9 121 24.5 120.6 24.2 C 120.1 24 119.6 23.8 119.1 23.8 C 118.3 23.8 117.6 24.1 117 24.6 C 116.5 25.2 116.2 26.1 116.2 27.3 Z M 124.6 31.4 L 124.6 26.1 L 123.7 26.1 L 123.7 25.3 L 124.6 25.3 C 124.6 25.3 124.61 24.69 124.6 24.7 C 124.6 24.3 124.6 24 124.7 23.8 C 124.8 23.5 125 23.3 125.2 23.1 C 125.5 23 125.8 22.9 126.3 22.9 C 126.6 22.9 126.9 22.9 127.3 23 C 127.3 23 127.1 23.9 127.1 23.9 C 126.9 23.8 126.7 23.8 126.5 23.8 C 126.2 23.8 126 23.9 125.8 24 C 125.7 24.2 125.6 24.4 125.6 24.8 C 125.63 24.77 125.6 25.3 125.6 25.3 L 126.8 25.3 L 126.8 26.1 L 125.6 26.1 L 125.6 31.4 L 124.6 31.4 Z M 131.5 33.7 C 131.5 33.7 131.5 30.77 131.5 30.8 C 131.3 31 131.1 31.2 130.8 31.3 C 130.5 31.5 130.2 31.6 129.9 31.6 C 129.2 31.6 128.6 31.3 128 30.7 C 127.5 30.1 127.3 29.3 127.3 28.3 C 127.3 27.7 127.4 27.2 127.6 26.7 C 127.8 26.2 128.1 25.8 128.5 25.6 C 128.9 25.3 129.3 25.2 129.8 25.2 C 130.6 25.2 131.2 25.5 131.6 26.1 C 131.6 26.15 131.6 25.3 131.6 25.3 L 132.5 25.3 L 132.5 33.7 L 131.5 33.7 Z M 128.3 28.4 C 128.3 29.1 128.5 29.7 128.8 30.1 C 129.1 30.5 129.5 30.7 130 30.7 C 130.4 30.7 130.8 30.5 131.1 30.1 C 131.4 29.8 131.6 29.2 131.6 28.5 C 131.6 27.6 131.4 27 131.1 26.6 C 130.8 26.2 130.4 26 129.9 26 C 129.5 26 129.1 26.2 128.8 26.6 C 128.5 27 128.3 27.6 128.3 28.4 Z M 138.1 31.4 C 138.1 31.4 138.14 30.52 138.1 30.5 C 137.7 31.2 137 31.6 136.2 31.6 C 135.8 31.6 135.5 31.5 135.2 31.3 C 134.9 31.2 134.7 31 134.5 30.8 C 134.4 30.6 134.2 30.4 134.2 30.1 C 134.1 29.9 134.1 29.5 134.1 29.1 C 134.13 29.1 134.1 25.3 134.1 25.3 L 135.2 25.3 C 135.2 25.3 135.16 28.71 135.2 28.7 C 135.2 29.2 135.2 29.6 135.2 29.8 C 135.3 30.1 135.4 30.3 135.6 30.4 C 135.8 30.6 136.1 30.7 136.4 30.7 C 136.7 30.7 137 30.6 137.3 30.4 C 137.6 30.3 137.7 30.1 137.9 29.8 C 138 29.5 138 29.1 138 28.6 C 138.03 28.59 138 25.3 138 25.3 L 139.1 25.3 L 139.1 31.4 L 138.1 31.4 Z M 144.9 31.4 C 144.7 31.2 144.7 31 144.6 30.7 C 144.3 31 143.9 31.2 143.5 31.4 C 143.2 31.5 142.8 31.6 142.4 31.6 C 141.7 31.6 141.2 31.4 140.9 31.1 C 140.5 30.7 140.3 30.3 140.3 29.8 C 140.3 29.5 140.4 29.2 140.5 29 C 140.7 28.8 140.8 28.6 141.1 28.4 C 141.3 28.3 141.5 28.1 141.8 28.1 C 142 28 142.3 28 142.7 27.9 C 143.6 27.8 144.2 27.7 144.6 27.6 C 144.6 27.4 144.6 27.3 144.6 27.3 C 144.6 26.9 144.5 26.6 144.3 26.4 C 144 26.2 143.6 26 143.1 26 C 142.6 26 142.3 26.1 142 26.3 C 141.8 26.5 141.6 26.8 141.5 27.2 C 141.5 27.2 140.5 27.1 140.5 27.1 C 140.6 26.6 140.7 26.3 141 26 C 141.2 25.8 141.5 25.6 141.9 25.4 C 142.3 25.3 142.7 25.2 143.2 25.2 C 143.8 25.2 144.2 25.3 144.5 25.4 C 144.8 25.5 145.1 25.7 145.2 25.8 C 145.4 26 145.5 26.3 145.5 26.5 C 145.6 26.7 145.6 27 145.6 27.5 C 145.6 27.5 145.6 28.9 145.6 28.9 C 145.6 29.8 145.6 30.4 145.7 30.7 C 145.7 30.9 145.8 31.2 145.9 31.4 C 145.93 31.42 144.9 31.4 144.9 31.4 C 144.9 31.4 144.85 31.42 144.9 31.4 Z M 144.6 28.4 C 144.2 28.5 143.6 28.6 142.9 28.8 C 142.4 28.8 142.1 28.9 142 29 C 141.8 29 141.7 29.1 141.6 29.3 C 141.5 29.4 141.4 29.6 141.4 29.8 C 141.4 30.1 141.5 30.3 141.7 30.5 C 141.9 30.7 142.2 30.7 142.7 30.7 C 143 30.7 143.4 30.7 143.7 30.5 C 144 30.3 144.2 30.1 144.4 29.8 C 144.5 29.5 144.6 29.2 144.6 28.7 C 144.6 28.7 144.6 28.4 144.6 28.4 Z M 147.2 31.4 L 147.2 23 L 148.2 23 L 148.2 31.4 L 147.2 31.4 Z M 157.2 31.4 C 157.1 31.2 157.1 31 157 30.7 C 156.7 31 156.3 31.2 155.9 31.4 C 155.6 31.5 155.2 31.6 154.8 31.6 C 154.1 31.6 153.6 31.4 153.3 31.1 C 152.9 30.7 152.7 30.3 152.7 29.8 C 152.7 29.5 152.8 29.2 152.9 29 C 153.1 28.8 153.2 28.6 153.5 28.4 C 153.7 28.3 153.9 28.1 154.2 28.1 C 154.4 28 154.7 28 155.1 27.9 C 155.9 27.8 156.6 27.7 157 27.6 C 157 27.4 157 27.3 157 27.3 C 157 26.9 156.9 26.6 156.7 26.4 C 156.4 26.2 156 26 155.5 26 C 155 26 154.6 26.1 154.4 26.3 C 154.2 26.5 154 26.8 153.9 27.2 C 153.9 27.2 152.9 27.1 152.9 27.1 C 153 26.6 153.1 26.3 153.3 26 C 153.6 25.8 153.9 25.6 154.3 25.4 C 154.7 25.3 155.1 25.2 155.6 25.2 C 156.2 25.2 156.6 25.3 156.9 25.4 C 157.2 25.5 157.5 25.7 157.6 25.8 C 157.8 26 157.9 26.3 157.9 26.5 C 158 26.7 158 27 158 27.5 C 158 27.5 158 28.9 158 28.9 C 158 29.8 158 30.4 158.1 30.7 C 158.1 30.9 158.2 31.2 158.3 31.4 C 158.32 31.42 157.2 31.4 157.2 31.4 C 157.2 31.4 157.24 31.42 157.2 31.4 Z M 157 28.4 C 156.6 28.5 156 28.6 155.3 28.8 C 154.8 28.8 154.5 28.9 154.4 29 C 154.2 29 154.1 29.1 154 29.3 C 153.9 29.4 153.8 29.6 153.8 29.8 C 153.8 30.1 153.9 30.3 154.1 30.5 C 154.3 30.7 154.6 30.7 155 30.7 C 155.4 30.7 155.8 30.7 156.1 30.5 C 156.4 30.3 156.6 30.1 156.8 29.8 C 156.9 29.5 157 29.2 157 28.7 C 157 28.7 157 28.4 157 28.4 Z M 159.6 31.4 L 159.6 25.3 L 160.5 25.3 C 160.5 25.3 160.52 26.2 160.5 26.2 C 161 25.5 161.6 25.2 162.5 25.2 C 162.8 25.2 163.2 25.3 163.5 25.4 C 163.8 25.5 164 25.7 164.2 25.9 C 164.3 26.1 164.4 26.4 164.5 26.7 C 164.5 26.9 164.5 27.2 164.5 27.7 C 164.54 27.68 164.5 31.4 164.5 31.4 L 163.5 31.4 C 163.5 31.4 163.5 27.72 163.5 27.7 C 163.5 27.3 163.5 27 163.4 26.8 C 163.3 26.6 163.2 26.4 163 26.3 C 162.8 26.2 162.5 26.1 162.2 26.1 C 161.8 26.1 161.4 26.2 161.1 26.5 C 160.8 26.8 160.6 27.3 160.6 28.1 C 160.62 28.09 160.6 31.4 160.6 31.4 L 159.6 31.4 Z M 170.1 31.4 C 170.1 31.4 170.06 30.65 170.1 30.7 C 169.7 31.3 169.1 31.6 168.4 31.6 C 167.9 31.6 167.4 31.4 167 31.2 C 166.6 30.9 166.3 30.5 166.1 30 C 165.9 29.6 165.7 29 165.7 28.4 C 165.7 27.8 165.8 27.2 166 26.7 C 166.3 26.2 166.6 25.9 167 25.6 C 167.4 25.3 167.8 25.2 168.3 25.2 C 168.7 25.2 169 25.3 169.3 25.4 C 169.6 25.6 169.8 25.8 170 26 C 170 26.03 170 23 170 23 L 171 23 L 171 31.4 L 170.1 31.4 Z M 166.8 28.4 C 166.8 29.2 167 29.7 167.3 30.1 C 167.6 30.5 168 30.7 168.5 30.7 C 168.9 30.7 169.3 30.5 169.6 30.2 C 169.9 29.8 170.1 29.2 170.1 28.5 C 170.1 27.6 169.9 27 169.6 26.6 C 169.3 26.2 168.9 26 168.4 26 C 168 26 167.6 26.2 167.3 26.6 C 167 27 166.8 27.6 166.8 28.4 Z M 177.7 30.5 C 177.8 30.5 178 30.5 178.2 30.5 C 178.2 30.5 178.3 31.4 178.3 31.4 C 178 31.5 177.8 31.5 177.5 31.5 C 177.1 31.5 176.9 31.4 176.7 31.3 C 176.4 31.2 176.3 31 176.2 30.9 C 176.1 30.7 176.1 30.3 176.1 29.6 C 176.09 29.64 176.1 26.1 176.1 26.1 L 175.3 26.1 L 175.3 25.3 L 176.1 25.3 L 176.1 23.8 L 177.1 23.2 L 177.1 25.3 L 178.2 25.3 L 178.2 26.1 L 177.1 26.1 C 177.1 26.1 177.12 29.69 177.1 29.7 C 177.1 30 177.1 30.2 177.2 30.3 C 177.2 30.3 177.3 30.4 177.3 30.5 C 177.4 30.5 177.5 30.5 177.7 30.5 C 177.7 30.5 177.7 30.5 177.7 30.5 Z M 179.2 31.4 L 179.2 23 L 180.2 23 C 180.2 23 180.19 26.03 180.2 26 C 180.7 25.5 181.3 25.2 182 25.2 C 182.5 25.2 182.9 25.3 183.2 25.5 C 183.5 25.6 183.8 25.9 183.9 26.2 C 184 26.5 184.1 27 184.1 27.6 C 184.12 27.56 184.1 31.4 184.1 31.4 L 183.1 31.4 C 183.1 31.4 183.09 27.56 183.1 27.6 C 183.1 27 183 26.7 182.8 26.4 C 182.5 26.2 182.2 26.1 181.8 26.1 C 181.5 26.1 181.2 26.2 180.9 26.3 C 180.7 26.5 180.5 26.7 180.4 27 C 180.3 27.2 180.2 27.6 180.2 28.1 C 180.19 28.09 180.2 31.4 180.2 31.4 L 179.2 31.4 Z M 189.9 29.5 C 189.9 29.5 190.9 29.6 190.9 29.6 C 190.8 30.2 190.4 30.7 190 31 C 189.5 31.4 188.9 31.6 188.2 31.6 C 187.4 31.6 186.6 31.3 186.1 30.7 C 185.6 30.2 185.3 29.4 185.3 28.4 C 185.3 27.4 185.6 26.6 186.1 26 C 186.7 25.5 187.3 25.2 188.2 25.2 C 189 25.2 189.7 25.5 190.2 26 C 190.7 26.6 191 27.4 191 28.4 C 191 28.4 191 28.5 190.9 28.6 C 190.9 28.6 186.4 28.6 186.4 28.6 C 186.4 29.3 186.6 29.8 187 30.2 C 187.3 30.5 187.7 30.7 188.2 30.7 C 188.6 30.7 188.9 30.6 189.2 30.4 C 189.5 30.2 189.7 29.9 189.9 29.5 Z M 186.5 27.8 C 186.5 27.8 189.9 27.8 189.9 27.8 C 189.8 27.3 189.7 26.9 189.5 26.6 C 189.1 26.2 188.7 26 188.2 26 C 187.7 26 187.3 26.2 187 26.5 C 186.7 26.8 186.5 27.3 186.5 27.8 Z " stroke="none" fill="#fff"/>  </g></svg>