<?xml version="1.0" standalone="no"?><!DOCTYPE svg PUBLIC "-//W3C//DTD SVG 1.1//EN" "http://www.w3.org/Graphics/SVG/1.1/DTD/svg11.dtd"><svg xmlns="http://www.w3.org/2000/svg" version="1.1" width="55px" height="20.5px" viewBox="0 -4 55 20.5" style="top:-4px">  <desc>Services</desc>  <defs/>  <g id="Polygon66855">    <path d="M 5.4 6.4 C 5.4 6.4 6.4 6.3 6.4 6.3 C 6.5 6.7 6.6 7 6.8 7.3 C 6.9 7.6 7.2 7.8 7.6 8 C 8 8.1 8.4 8.2 8.9 8.2 C 9.3 8.2 9.7 8.1 10 8 C 10.3 7.9 10.6 7.7 10.7 7.5 C 10.9 7.3 11 7 11 6.8 C 11 6.5 10.9 6.3 10.7 6.1 C 10.6 5.9 10.3 5.7 10 5.6 C 9.8 5.5 9.3 5.4 8.5 5.2 C 7.7 5 7.2 4.8 6.9 4.7 C 6.5 4.5 6.2 4.2 6 3.9 C 5.8 3.6 5.7 3.2 5.7 2.8 C 5.7 2.4 5.8 2 6 1.7 C 6.3 1.3 6.6 1 7.1 0.8 C 7.6 0.6 8.1 0.5 8.6 0.5 C 9.3 0.5 9.8 0.6 10.3 0.8 C 10.8 1 11.1 1.3 11.4 1.7 C 11.6 2.1 11.8 2.5 11.8 3 C 11.8 3 10.7 3.1 10.7 3.1 C 10.7 2.6 10.5 2.2 10.1 1.9 C 9.8 1.6 9.3 1.5 8.7 1.5 C 8 1.5 7.5 1.6 7.2 1.9 C 6.9 2.1 6.8 2.4 6.8 2.8 C 6.8 3.1 6.9 3.3 7.1 3.5 C 7.3 3.7 7.9 3.9 8.8 4.1 C 9.7 4.3 10.3 4.5 10.6 4.6 C 11.1 4.9 11.5 5.2 11.7 5.5 C 11.9 5.8 12 6.2 12 6.7 C 12 7.1 11.9 7.6 11.7 8 C 11.4 8.4 11 8.7 10.6 8.9 C 10.1 9.1 9.5 9.2 8.9 9.2 C 8.2 9.2 7.5 9.1 7 8.9 C 6.5 8.7 6.1 8.3 5.8 7.9 C 5.5 7.4 5.4 6.9 5.4 6.4 Z M 17.6 7.1 C 17.6 7.1 18.7 7.2 18.7 7.2 C 18.5 7.9 18.2 8.3 17.7 8.7 C 17.3 9 16.7 9.2 16 9.2 C 15.1 9.2 14.4 8.9 13.9 8.4 C 13.3 7.8 13.1 7.1 13.1 6.1 C 13.1 5.1 13.4 4.3 13.9 3.7 C 14.4 3.1 15.1 2.8 15.9 2.8 C 16.7 2.8 17.4 3.1 17.9 3.7 C 18.4 4.2 18.7 5 18.7 6 C 18.7 6.1 18.7 6.2 18.7 6.3 C 18.7 6.3 14.2 6.3 14.2 6.3 C 14.2 7 14.4 7.5 14.7 7.8 C 15.1 8.2 15.5 8.4 16 8.4 C 16.4 8.4 16.7 8.3 17 8.1 C 17.2 7.9 17.4 7.5 17.6 7.1 Z M 14.2 5.4 C 14.2 5.4 17.6 5.4 17.6 5.4 C 17.6 4.9 17.4 4.5 17.2 4.3 C 16.9 3.9 16.5 3.7 15.9 3.7 C 15.5 3.7 15.1 3.9 14.7 4.2 C 14.4 4.5 14.2 4.9 14.2 5.4 Z M 19.9 9.1 L 19.9 3 L 20.9 3 C 20.9 3 20.88 3.9 20.9 3.9 C 21.1 3.5 21.3 3.2 21.5 3.1 C 21.7 2.9 22 2.8 22.2 2.8 C 22.5 2.8 22.9 3 23.3 3.2 C 23.3 3.2 22.9 4.1 22.9 4.1 C 22.6 4 22.4 3.9 22.1 3.9 C 21.9 3.9 21.7 4 21.5 4.1 C 21.4 4.2 21.2 4.4 21.2 4.7 C 21 5 21 5.4 21 5.9 C 20.98 5.88 21 9.1 21 9.1 L 19.9 9.1 Z M 25.6 9.1 L 23.2 3 L 24.3 3 C 24.3 3 25.64 6.63 25.6 6.6 C 25.8 7 25.9 7.4 26 7.9 C 26.1 7.5 26.2 7.1 26.4 6.7 C 26.41 6.69 27.8 3 27.8 3 L 28.8 3 L 26.5 9.1 L 25.6 9.1 Z M 29.7 1.9 L 29.7 0.7 L 30.8 0.7 L 30.8 1.9 L 29.7 1.9 Z M 29.7 9.1 L 29.7 3 L 30.8 3 L 30.8 9.1 L 29.7 9.1 Z M 36.3 6.8 C 36.3 6.8 37.3 7 37.3 7 C 37.2 7.7 36.9 8.2 36.5 8.6 C 36 9 35.5 9.2 34.8 9.2 C 34 9.2 33.3 8.9 32.8 8.4 C 32.3 7.8 32 7.1 32 6 C 32 5.4 32.1 4.8 32.4 4.3 C 32.6 3.8 32.9 3.5 33.3 3.2 C 33.8 3 34.3 2.8 34.8 2.8 C 35.5 2.8 36 3 36.4 3.3 C 36.8 3.7 37.1 4.2 37.2 4.8 C 37.2 4.8 36.2 4.9 36.2 4.9 C 36.1 4.5 36 4.2 35.7 4 C 35.5 3.8 35.2 3.7 34.8 3.7 C 34.3 3.7 33.9 3.9 33.6 4.3 C 33.2 4.6 33.1 5.2 33.1 6 C 33.1 6.8 33.2 7.4 33.6 7.8 C 33.9 8.2 34.3 8.4 34.8 8.4 C 35.2 8.4 35.5 8.2 35.8 8 C 36.1 7.7 36.2 7.4 36.3 6.8 Z M 42.4 7.1 C 42.4 7.1 43.4 7.2 43.4 7.2 C 43.3 7.9 43 8.3 42.5 8.7 C 42 9 41.5 9.2 40.8 9.2 C 39.9 9.2 39.2 8.9 38.6 8.4 C 38.1 7.8 37.9 7.1 37.9 6.1 C 37.9 5.1 38.1 4.3 38.7 3.7 C 39.2 3.1 39.9 2.8 40.7 2.8 C 41.5 2.8 42.2 3.1 42.7 3.7 C 43.2 4.2 43.5 5 43.5 6 C 43.5 6.1 43.5 6.2 43.5 6.3 C 43.5 6.3 38.9 6.3 38.9 6.3 C 39 7 39.2 7.5 39.5 7.8 C 39.8 8.2 40.3 8.4 40.8 8.4 C 41.1 8.4 41.5 8.3 41.7 8.1 C 42 7.9 42.2 7.5 42.4 7.1 Z M 39 5.4 C 39 5.4 42.4 5.4 42.4 5.4 C 42.3 4.9 42.2 4.5 42 4.3 C 41.7 3.9 41.2 3.7 40.7 3.7 C 40.2 3.7 39.8 3.9 39.5 4.2 C 39.2 4.5 39 4.9 39 5.4 Z M 44.3 7.3 C 44.3 7.3 45.3 7.1 45.3 7.1 C 45.4 7.5 45.6 7.8 45.8 8 C 46.1 8.2 46.4 8.4 46.9 8.4 C 47.4 8.4 47.7 8.3 48 8.1 C 48.2 7.9 48.3 7.6 48.3 7.4 C 48.3 7.2 48.2 7 48 6.8 C 47.9 6.7 47.5 6.6 47 6.5 C 46.2 6.3 45.7 6.1 45.4 6 C 45.1 5.9 44.9 5.7 44.7 5.4 C 44.6 5.2 44.5 4.9 44.5 4.6 C 44.5 4.3 44.6 4.1 44.7 3.8 C 44.8 3.6 45 3.4 45.2 3.3 C 45.3 3.2 45.6 3.1 45.8 3 C 46.1 2.9 46.4 2.8 46.7 2.8 C 47.2 2.8 47.6 2.9 48 3.1 C 48.3 3.2 48.6 3.4 48.8 3.6 C 49 3.8 49.1 4.2 49.1 4.6 C 49.1 4.6 48.1 4.7 48.1 4.7 C 48.1 4.4 48 4.1 47.7 4 C 47.5 3.8 47.2 3.7 46.8 3.7 C 46.3 3.7 46 3.8 45.8 3.9 C 45.6 4.1 45.5 4.3 45.5 4.5 C 45.5 4.6 45.5 4.7 45.6 4.8 C 45.7 4.9 45.8 5 46 5.1 C 46.1 5.2 46.4 5.2 46.9 5.4 C 47.6 5.6 48.2 5.7 48.4 5.9 C 48.7 6 49 6.2 49.1 6.4 C 49.3 6.6 49.4 6.9 49.4 7.3 C 49.4 7.6 49.3 7.9 49.1 8.3 C 48.9 8.6 48.6 8.8 48.2 9 C 47.8 9.1 47.4 9.2 46.9 9.2 C 46.1 9.2 45.5 9 45.1 8.7 C 44.7 8.4 44.4 7.9 44.3 7.3 Z " stroke="none" fill="#f28620"/>  </g></svg>