<?xml version="1.0" standalone="no"?><!DOCTYPE svg PUBLIC "-//W3C//DTD SVG 1.1//EN" "http://www.w3.org/Graphics/SVG/1.1/DTD/svg11.dtd"><svg xmlns="http://www.w3.org/2000/svg" version="1.1" width="211px" height="78.4px" viewBox="0 -1 211 78.4" style="top:-1px">  <desc>End Point Assessment</desc>  <defs/>  <g id="Polygon67796">    <path d="M 57.8 41 L 63.8 54.2 L 62.8 54.2 L 60.7 49.6 L 54.3 49.6 L 52.2 54.2 L 51.2 54.2 L 57.2 41 L 57.8 41 Z M 60.3 48.8 L 57.5 42.6 L 54.7 48.8 L 60.3 48.8 Z M 68.6 40.9 C 69.6 40.9 70.6 41.2 71.6 41.7 C 71.6 41.7 71.6 42.8 71.6 42.8 C 70.4 42.2 69.5 41.8 68.6 41.8 C 67.9 41.8 67.2 42.1 66.7 42.5 C 66.1 43 65.9 43.6 65.9 44.3 C 65.9 44.8 66 45.3 66.4 45.7 C 66.7 46.1 67.3 46.5 68.3 46.9 C 69.3 47.2 70 47.5 70.5 47.8 C 70.9 48 71.3 48.4 71.6 48.9 C 72 49.4 72.1 50 72.1 50.7 C 72.1 51.7 71.8 52.6 71 53.3 C 70.3 54 69.4 54.3 68.3 54.3 C 67.2 54.3 66.1 53.9 65 53.2 C 65 53.2 65 52 65 52 C 66.2 52.9 67.3 53.4 68.3 53.4 C 69 53.4 69.7 53.1 70.2 52.6 C 70.8 52.1 71 51.5 71 50.8 C 71 50.2 70.9 49.7 70.5 49.3 C 70.2 48.8 69.5 48.4 68.5 48 C 67.5 47.6 66.8 47.3 66.3 47.1 C 65.9 46.8 65.5 46.5 65.2 46.1 C 64.9 45.6 64.8 45.1 64.8 44.4 C 64.8 43.4 65.2 42.6 65.9 41.9 C 66.6 41.2 67.5 40.9 68.6 40.9 C 68.6 40.9 68.6 40.9 68.6 40.9 Z M 77.6 40.9 C 78.6 40.9 79.6 41.2 80.6 41.7 C 80.6 41.7 80.6 42.8 80.6 42.8 C 79.5 42.2 78.5 41.8 77.7 41.8 C 76.9 41.8 76.2 42.1 75.7 42.5 C 75.2 43 74.9 43.6 74.9 44.3 C 74.9 44.8 75 45.3 75.4 45.7 C 75.7 46.1 76.3 46.5 77.3 46.9 C 78.3 47.2 79 47.5 79.5 47.8 C 80 48 80.3 48.4 80.7 48.9 C 81 49.4 81.1 50 81.1 50.7 C 81.1 51.7 80.8 52.6 80 53.3 C 79.3 54 78.4 54.3 77.3 54.3 C 76.2 54.3 75.1 53.9 74 53.2 C 74 53.2 74 52 74 52 C 75.2 52.9 76.3 53.4 77.3 53.4 C 78 53.4 78.7 53.1 79.2 52.6 C 79.8 52.1 80 51.5 80 50.8 C 80 50.2 79.9 49.7 79.5 49.3 C 79.2 48.8 78.5 48.4 77.5 48 C 76.5 47.6 75.8 47.3 75.4 47.1 C 74.9 46.8 74.6 46.5 74.3 46.1 C 73.9 45.6 73.8 45.1 73.8 44.4 C 73.8 43.4 74.2 42.6 74.9 41.9 C 75.6 41.2 76.5 40.9 77.6 40.9 C 77.6 40.9 77.6 40.9 77.6 40.9 Z M 90.6 41.1 L 90.6 41.9 L 84.5 41.9 L 84.5 47.1 L 90.4 47.1 L 90.4 48 L 84.5 48 L 84.5 53.3 L 90.8 53.3 L 90.8 54.2 L 83.5 54.2 L 83.5 41.1 L 90.6 41.1 Z M 96 40.9 C 97 40.9 98 41.2 99 41.7 C 99 41.7 99 42.8 99 42.8 C 97.9 42.2 96.9 41.8 96.1 41.8 C 95.3 41.8 94.6 42.1 94.1 42.5 C 93.6 43 93.3 43.6 93.3 44.3 C 93.3 44.8 93.5 45.3 93.8 45.7 C 94.1 46.1 94.7 46.5 95.7 46.9 C 96.7 47.2 97.5 47.5 97.9 47.8 C 98.4 48 98.8 48.4 99.1 48.9 C 99.4 49.4 99.6 50 99.6 50.7 C 99.6 51.7 99.2 52.6 98.5 53.3 C 97.7 54 96.8 54.3 95.8 54.3 C 94.7 54.3 93.5 53.9 92.4 53.2 C 92.4 53.2 92.4 52 92.4 52 C 93.7 52.9 94.8 53.4 95.7 53.4 C 96.5 53.4 97.1 53.1 97.7 52.6 C 98.2 52.1 98.5 51.5 98.5 50.8 C 98.5 50.2 98.3 49.7 98 49.3 C 97.6 48.8 97 48.4 95.9 48 C 94.9 47.6 94.2 47.3 93.8 47.1 C 93.3 46.8 93 46.5 92.7 46.1 C 92.4 45.6 92.2 45.1 92.2 44.4 C 92.2 43.4 92.6 42.6 93.3 41.9 C 94.1 41.2 94.9 40.9 96 40.9 C 96 40.9 96 40.9 96 40.9 Z M 105 40.9 C 106 40.9 107 41.2 108 41.7 C 108 41.7 108 42.8 108 42.8 C 106.9 42.2 105.9 41.8 105.1 41.8 C 104.3 41.8 103.6 42.1 103.1 42.5 C 102.6 43 102.3 43.6 102.3 44.3 C 102.3 44.8 102.5 45.3 102.8 45.7 C 103.1 46.1 103.8 46.5 104.8 46.9 C 105.7 47.2 106.5 47.5 106.9 47.8 C 107.4 48 107.8 48.4 108.1 48.9 C 108.4 49.4 108.6 50 108.6 50.7 C 108.6 51.7 108.2 52.6 107.5 53.3 C 106.7 54 105.8 54.3 104.8 54.3 C 103.7 54.3 102.6 53.9 101.4 53.2 C 101.4 53.2 101.4 52 101.4 52 C 102.7 52.9 103.8 53.4 104.7 53.4 C 105.5 53.4 106.1 53.1 106.7 52.6 C 107.2 52.1 107.5 51.5 107.5 50.8 C 107.5 50.2 107.3 49.7 107 49.3 C 106.6 48.8 106 48.4 105 48 C 103.9 47.6 103.2 47.3 102.8 47.1 C 102.4 46.8 102 46.5 101.7 46.1 C 101.4 45.6 101.2 45.1 101.2 44.4 C 101.2 43.4 101.6 42.6 102.3 41.9 C 103.1 41.2 104 40.9 105 40.9 C 105 40.9 105 40.9 105 40.9 Z M 116.9 47.1 L 121.8 41.1 L 122.9 41.1 L 122.9 54.2 L 121.8 54.2 L 121.8 42.5 L 116.9 48.7 L 111.8 42.5 L 111.8 54.2 L 110.8 54.2 L 110.8 41.1 L 111.8 41.1 L 116.9 47.1 Z M 133 41.1 L 133 41.9 L 126.9 41.9 L 126.9 47.1 L 132.9 47.1 L 132.9 48 L 126.9 48 L 126.9 53.3 L 133.2 53.3 L 133.2 54.2 L 125.9 54.2 L 125.9 41.1 L 133 41.1 Z M 147.1 41.1 L 147.1 54.2 L 146.2 54.2 L 136.3 42.7 L 136.3 54.2 L 135.3 54.2 L 135.3 41.1 L 136.1 41.1 L 146 52.5 L 146 41.1 L 147.1 41.1 Z M 159.5 41.1 L 159.5 41.9 L 154.6 41.9 L 154.6 54.2 L 153.5 54.2 L 153.5 41.9 L 148.6 41.9 L 148.6 41.1 L 159.5 41.1 Z " stroke="none" fill="#ffffff"/>  </g>  <g id="Polygon67795">    <path d="M 64.1 18 L 64.1 18.9 L 58 18.9 L 58 24.1 L 63.9 24.1 L 63.9 25 L 58 25 L 58 30.3 L 64.2 30.3 L 64.2 31.1 L 57 31.1 L 57 18 L 64.1 18 Z M 78.1 18 L 78.1 31.1 L 77.3 31.1 L 67.3 19.7 L 67.3 31.1 L 66.3 31.1 L 66.3 18 L 67.2 18 L 77.1 29.5 L 77.1 18 L 78.1 18 Z M 81.2 18 C 81.2 18 85.73 18.02 85.7 18 C 88.1 18 89.8 18.6 91 19.8 C 92.3 21.1 92.9 22.6 92.9 24.6 C 92.9 26.5 92.3 28 91.1 29.3 C 89.9 30.5 88.1 31.1 85.9 31.1 C 85.91 31.11 81.2 31.1 81.2 31.1 L 81.2 18 Z M 82.2 18.9 L 82.2 30.3 C 82.2 30.3 85.86 30.27 85.9 30.3 C 87.6 30.3 89 29.7 90.1 28.7 C 91.2 27.7 91.8 26.3 91.8 24.6 C 91.8 22.9 91.2 21.5 90.1 20.5 C 89 19.4 87.6 18.9 85.8 18.9 C 85.79 18.86 82.2 18.9 82.2 18.9 Z M 99.1 26.3 L 99.1 27.2 L 94.6 27.2 L 94.6 26.3 L 99.1 26.3 Z M 101.4 18 C 101.4 18 104.96 18.02 105 18 C 106.3 18 107.4 18.3 108.1 18.9 C 108.9 19.6 109.2 20.4 109.2 21.5 C 109.2 22.6 108.9 23.4 108.1 24 C 107.4 24.7 106.3 25 104.9 25 C 104.87 24.99 102.4 25 102.4 25 L 102.4 31.1 L 101.4 31.1 L 101.4 18 Z M 102.4 18.9 L 102.4 24.1 C 102.4 24.1 104.8 24.15 104.8 24.1 C 105.9 24.1 106.7 23.9 107.3 23.5 C 107.9 23 108.2 22.3 108.2 21.5 C 108.2 20.7 107.9 20 107.3 19.6 C 106.8 19.1 106 18.9 104.9 18.9 C 104.93 18.86 102.4 18.9 102.4 18.9 Z M 117.5 17.8 C 119.5 17.8 121.1 18.5 122.5 19.8 C 123.8 21.1 124.5 22.7 124.5 24.6 C 124.5 26.4 123.8 28 122.5 29.3 C 121.1 30.6 119.5 31.3 117.5 31.3 C 115.6 31.3 114 30.6 112.6 29.3 C 111.3 28 110.6 26.4 110.6 24.6 C 110.6 22.7 111.3 21.1 112.6 19.8 C 114 18.5 115.6 17.8 117.5 17.8 Z M 117.6 30.3 C 119.2 30.3 120.6 29.8 121.7 28.7 C 122.8 27.6 123.4 26.2 123.4 24.6 C 123.4 22.9 122.8 21.6 121.7 20.5 C 120.6 19.3 119.2 18.8 117.6 18.8 C 115.9 18.8 114.5 19.3 113.4 20.5 C 112.3 21.6 111.7 22.9 111.7 24.6 C 111.7 26.2 112.3 27.6 113.4 28.7 C 114.5 29.8 115.9 30.3 117.6 30.3 Z M 128 18 L 128 31.1 L 126.9 31.1 L 126.9 18 L 128 18 Z M 142.7 18 L 142.7 31.1 L 141.9 31.1 L 132 19.7 L 132 31.1 L 130.9 31.1 L 130.9 18 L 131.8 18 L 141.7 29.5 L 141.7 18 L 142.7 18 Z M 155.2 18 L 155.2 18.9 L 150.3 18.9 L 150.3 31.1 L 149.2 31.1 L 149.2 18.9 L 144.3 18.9 L 144.3 18 L 155.2 18 Z " stroke="none" fill="#ffffff"/>  </g></svg>