<?xml version="1.0" standalone="no"?><!DOCTYPE svg PUBLIC "-//W3C//DTD SVG 1.1//EN" "http://www.w3.org/Graphics/SVG/1.1/DTD/svg11.dtd"><svg xmlns="http://www.w3.org/2000/svg" version="1.1" width="492px" height="103.3px" viewBox="0 -16 492 103.3" style="top:-16px">  <desc>News</desc>  <defs/>  <g id="Polygon63032">    <path d="M 221.2 0.3 L 221.2 24.9 L 219.6 24.9 L 201 3.4 L 201 24.9 L 199.1 24.9 L 199.1 0.3 L 200.7 0.3 L 219.3 21.8 L 219.3 0.3 L 221.2 0.3 Z M 240.3 0.3 L 240.3 1.9 L 228.8 1.9 L 228.8 11.7 L 240 11.7 L 240 13.3 L 228.8 13.3 L 228.8 23.3 L 240.6 23.3 L 240.6 24.9 L 226.9 24.9 L 226.9 0.3 L 240.3 0.3 Z M 260.2 4.4 L 252 25.1 L 251.5 25.1 L 241.6 0.3 L 243.6 0.3 L 251.7 20.7 L 259.9 0.3 L 260.5 0.3 L 268.7 20.7 L 276.9 0.3 L 278.8 0.3 L 268.9 25.1 L 268.5 25.1 L 260.2 4.4 Z M 287.5 0 C 289.4 0 291.3 0.5 293.2 1.5 C 293.2 1.5 293.2 3.6 293.2 3.6 C 291 2.4 289.2 1.8 287.7 1.8 C 286.2 1.8 284.9 2.2 284 3.1 C 283 4 282.5 5.1 282.5 6.4 C 282.5 7.4 282.8 8.2 283.3 9 C 283.9 9.8 285.2 10.5 287 11.2 C 288.9 11.9 290.2 12.5 291.1 13 C 292 13.4 292.7 14.1 293.3 15 C 293.9 15.9 294.2 17 294.2 18.5 C 294.2 20.3 293.5 21.9 292.1 23.2 C 290.7 24.5 289 25.2 287 25.2 C 285 25.2 282.9 24.5 280.7 23 C 280.7 23 280.7 20.8 280.7 20.8 C 283.1 22.6 285.2 23.4 286.9 23.4 C 288.4 23.4 289.6 23 290.6 22 C 291.6 21.1 292.1 19.9 292.1 18.5 C 292.1 17.5 291.8 16.6 291.2 15.7 C 290.6 14.9 289.3 14.1 287.4 13.4 C 285.5 12.6 284.2 12.1 283.3 11.6 C 282.5 11.2 281.8 10.5 281.3 9.7 C 280.7 8.9 280.4 7.8 280.4 6.5 C 280.4 4.7 281.1 3.2 282.5 1.9 C 283.9 0.6 285.5 0 287.5 0 C 287.5 0 287.5 0 287.5 0 Z " stroke="none" fill="#ffffff"/>  </g></svg>