<?xml version="1.0" standalone="no"?><!DOCTYPE svg PUBLIC "-//W3C//DTD SVG 1.1//EN" "http://www.w3.org/Graphics/SVG/1.1/DTD/svg11.dtd"><svg xmlns="http://www.w3.org/2000/svg" version="1.1" width="128.4px" height="35.6px" viewBox="0 -6 128.4 35.6" style="top:-6px">  <desc>Contact Us</desc>  <defs/>  <g id="Polygon61060">    <path d="M 22.7 11.5 C 22.7 11.5 24.8 12 24.8 12 C 24.4 13.7 23.6 15 22.5 15.9 C 21.3 16.8 19.9 17.3 18.3 17.3 C 16.6 17.3 15.2 16.9 14.2 16.2 C 13.1 15.5 12.3 14.5 11.7 13.2 C 11.2 11.9 10.9 10.5 10.9 9 C 10.9 7.4 11.2 5.9 11.8 4.7 C 12.5 3.5 13.4 2.6 14.5 1.9 C 15.7 1.3 16.9 1 18.3 1 C 19.9 1 21.2 1.4 22.3 2.2 C 23.4 3 24.1 4.1 24.6 5.6 C 24.6 5.6 22.5 6.1 22.5 6.1 C 22.1 4.9 21.6 4.1 20.9 3.6 C 20.2 3 19.3 2.8 18.3 2.8 C 17.1 2.8 16.1 3.1 15.3 3.6 C 14.4 4.2 13.9 5 13.5 6 C 13.2 7 13 8 13 9 C 13 10.3 13.2 11.5 13.6 12.5 C 14 13.5 14.6 14.3 15.5 14.7 C 16.3 15.2 17.2 15.5 18.1 15.5 C 19.3 15.5 20.3 15.1 21.1 14.5 C 21.9 13.8 22.5 12.8 22.7 11.5 Z M 26.4 11.3 C 26.4 9.2 27 7.6 28.2 6.6 C 29.2 5.8 30.4 5.3 31.8 5.3 C 33.3 5.3 34.6 5.8 35.6 6.9 C 36.6 7.9 37.1 9.3 37.1 11.1 C 37.1 12.6 36.9 13.8 36.5 14.6 C 36 15.4 35.4 16.1 34.5 16.6 C 33.7 17 32.8 17.3 31.8 17.3 C 30.2 17.3 28.9 16.7 27.9 15.7 C 26.9 14.7 26.4 13.2 26.4 11.3 Z M 28.4 11.3 C 28.4 12.8 28.7 13.9 29.4 14.6 C 30 15.3 30.8 15.7 31.8 15.7 C 32.7 15.7 33.5 15.3 34.2 14.6 C 34.8 13.8 35.1 12.7 35.1 11.2 C 35.1 9.8 34.8 8.8 34.2 8 C 33.5 7.3 32.7 6.9 31.8 6.9 C 30.8 6.9 30 7.3 29.4 8 C 28.7 8.7 28.4 9.8 28.4 11.3 Z M 39.4 17 L 39.4 5.6 L 41.1 5.6 C 41.1 5.6 41.12 7.21 41.1 7.2 C 42 6 43.2 5.3 44.7 5.3 C 45.4 5.3 46.1 5.5 46.6 5.7 C 47.2 6 47.7 6.3 47.9 6.7 C 48.2 7.1 48.4 7.6 48.5 8.1 C 48.6 8.5 48.6 9.1 48.6 10 C 48.65 9.99 48.6 17 48.6 17 L 46.7 17 C 46.7 17 46.72 10.06 46.7 10.1 C 46.7 9.3 46.6 8.7 46.5 8.3 C 46.3 7.9 46.1 7.6 45.7 7.4 C 45.3 7.1 44.9 7 44.3 7 C 43.5 7 42.8 7.3 42.2 7.8 C 41.6 8.3 41.3 9.3 41.3 10.8 C 41.31 10.77 41.3 17 41.3 17 L 39.4 17 Z M 55 15.3 C 55.2 15.3 55.5 15.3 55.8 15.3 C 55.8 15.3 56.1 17 56.1 17 C 55.6 17.1 55.1 17.2 54.7 17.2 C 54 17.2 53.4 17 53 16.8 C 52.6 16.6 52.4 16.3 52.2 15.9 C 52 15.6 52 14.8 52 13.7 C 51.97 13.66 52 7.1 52 7.1 L 50.6 7.1 L 50.6 5.6 L 52 5.6 L 52 2.8 L 53.9 1.6 L 53.9 5.6 L 55.8 5.6 L 55.8 7.1 L 53.9 7.1 C 53.9 7.1 53.89 13.77 53.9 13.8 C 53.9 14.3 53.9 14.7 54 14.8 C 54.1 15 54.2 15.1 54.3 15.2 C 54.5 15.3 54.7 15.3 55 15.3 C 55 15.3 55 15.3 55 15.3 Z M 65.6 17 C 65.4 16.6 65.2 16.1 65.2 15.6 C 64.5 16.2 63.8 16.6 63.1 16.9 C 62.4 17.1 61.7 17.3 61 17.3 C 59.7 17.3 58.8 17 58.1 16.3 C 57.4 15.7 57.1 14.9 57.1 14 C 57.1 13.4 57.2 12.9 57.5 12.5 C 57.7 12 58 11.6 58.5 11.3 C 58.9 11.1 59.3 10.9 59.8 10.7 C 60.2 10.6 60.8 10.5 61.6 10.4 C 63.1 10.2 64.3 10 65 9.8 C 65 9.5 65 9.3 65 9.3 C 65 8.5 64.8 7.9 64.5 7.6 C 64 7.2 63.2 6.9 62.3 6.9 C 61.4 6.9 60.7 7.1 60.3 7.4 C 59.8 7.7 59.5 8.3 59.3 9.1 C 59.3 9.1 57.4 8.8 57.4 8.8 C 57.6 8 57.9 7.4 58.3 6.9 C 58.6 6.4 59.2 6 60 5.7 C 60.7 5.5 61.6 5.3 62.5 5.3 C 63.5 5.3 64.3 5.4 64.9 5.7 C 65.5 5.9 66 6.2 66.3 6.5 C 66.6 6.9 66.8 7.3 66.9 7.9 C 66.9 8.2 67 8.8 67 9.6 C 67 9.6 67 12.2 67 12.2 C 67 14 67 15.2 67.1 15.6 C 67.2 16.1 67.3 16.6 67.6 17 C 67.58 17 65.6 17 65.6 17 C 65.6 17 65.56 17 65.6 17 Z M 65 11.3 C 64.3 11.6 63.3 11.8 61.9 12 C 61.1 12.1 60.5 12.2 60.2 12.4 C 59.8 12.5 59.6 12.7 59.4 13 C 59.2 13.3 59.1 13.6 59.1 13.9 C 59.1 14.5 59.3 14.9 59.7 15.2 C 60.1 15.6 60.7 15.7 61.4 15.7 C 62.2 15.7 62.8 15.6 63.4 15.3 C 64 14.9 64.4 14.5 64.7 13.9 C 64.9 13.5 65 12.8 65 12 C 65 12 65 11.3 65 11.3 Z M 77.4 12.8 C 77.4 12.8 79.3 13.1 79.3 13.1 C 79.1 14.4 78.6 15.4 77.7 16.1 C 76.9 16.9 75.8 17.3 74.6 17.3 C 73 17.3 71.7 16.7 70.8 15.7 C 69.8 14.7 69.4 13.2 69.4 11.3 C 69.4 10.1 69.6 9 70 8.1 C 70.4 7.2 71 6.5 71.8 6 C 72.7 5.6 73.6 5.3 74.6 5.3 C 75.8 5.3 76.8 5.6 77.6 6.3 C 78.4 6.9 78.9 7.8 79.1 8.9 C 79.1 8.9 77.2 9.2 77.2 9.2 C 77.1 8.5 76.7 7.9 76.3 7.5 C 75.8 7.1 75.3 6.9 74.6 6.9 C 73.7 6.9 72.9 7.3 72.3 8 C 71.7 8.7 71.4 9.8 71.4 11.3 C 71.4 12.8 71.7 13.9 72.2 14.6 C 72.8 15.3 73.6 15.7 74.5 15.7 C 75.3 15.7 75.9 15.4 76.4 15 C 76.9 14.5 77.3 13.8 77.4 12.8 Z M 84.3 15.3 C 84.5 15.3 84.8 15.3 85.2 15.3 C 85.2 15.3 85.5 17 85.5 17 C 84.9 17.1 84.4 17.2 84 17.2 C 83.3 17.2 82.8 17 82.4 16.8 C 82 16.6 81.7 16.3 81.6 15.9 C 81.4 15.6 81.3 14.8 81.3 13.7 C 81.32 13.66 81.3 7.1 81.3 7.1 L 79.9 7.1 L 79.9 5.6 L 81.3 5.6 L 81.3 2.8 L 83.2 1.6 L 83.2 5.6 L 85.2 5.6 L 85.2 7.1 L 83.2 7.1 C 83.2 7.1 83.24 13.77 83.2 13.8 C 83.2 14.3 83.3 14.7 83.3 14.8 C 83.4 15 83.5 15.1 83.7 15.2 C 83.8 15.3 84 15.3 84.3 15.3 C 84.3 15.3 84.3 15.3 84.3 15.3 Z M 103.8 1.3 L 105.9 1.3 C 105.9 1.3 105.85 10.35 105.9 10.4 C 105.9 11.9 105.7 13.2 105.3 14.1 C 105 15.1 104.3 15.8 103.4 16.4 C 102.4 17 101.2 17.3 99.7 17.3 C 98.2 17.3 97 17 96.1 16.5 C 95.1 16 94.5 15.3 94.1 14.3 C 93.7 13.3 93.5 12 93.5 10.4 C 93.47 10.35 93.5 1.3 93.5 1.3 L 95.5 1.3 C 95.5 1.3 95.55 10.34 95.5 10.3 C 95.5 11.7 95.7 12.7 95.9 13.4 C 96.2 14 96.6 14.5 97.2 14.9 C 97.9 15.2 98.6 15.4 99.5 15.4 C 101 15.4 102.1 15 102.8 14.3 C 103.4 13.7 103.8 12.3 103.8 10.3 C 103.77 10.34 103.8 1.3 103.8 1.3 Z M 108.3 13.6 C 108.3 13.6 110.2 13.3 110.2 13.3 C 110.3 14.1 110.6 14.6 111.1 15.1 C 111.6 15.5 112.3 15.7 113.2 15.7 C 114.1 15.7 114.7 15.5 115.1 15.1 C 115.6 14.8 115.8 14.3 115.8 13.9 C 115.8 13.4 115.6 13.1 115.2 12.8 C 115 12.6 114.3 12.4 113.2 12.2 C 111.8 11.8 110.8 11.5 110.3 11.2 C 109.7 11 109.3 10.6 109 10.2 C 108.8 9.7 108.6 9.2 108.6 8.6 C 108.6 8.1 108.7 7.6 109 7.2 C 109.2 6.8 109.5 6.4 109.9 6.1 C 110.2 5.9 110.6 5.7 111.2 5.6 C 111.7 5.4 112.2 5.3 112.8 5.3 C 113.7 5.3 114.5 5.5 115.2 5.7 C 115.9 6 116.4 6.3 116.7 6.8 C 117 7.2 117.2 7.8 117.3 8.5 C 117.3 8.5 115.5 8.8 115.5 8.8 C 115.4 8.2 115.1 7.7 114.7 7.4 C 114.3 7.1 113.7 6.9 113 6.9 C 112.1 6.9 111.4 7.1 111.1 7.4 C 110.7 7.7 110.5 8 110.5 8.4 C 110.5 8.6 110.6 8.9 110.7 9.1 C 110.9 9.3 111.1 9.5 111.5 9.6 C 111.7 9.7 112.2 9.8 113.2 10.1 C 114.5 10.4 115.5 10.7 116 11 C 116.6 11.2 117 11.6 117.3 12 C 117.6 12.4 117.8 13 117.8 13.6 C 117.8 14.3 117.6 14.9 117.2 15.5 C 116.8 16 116.3 16.5 115.6 16.8 C 114.9 17.1 114.1 17.3 113.2 17.3 C 111.7 17.3 110.6 16.9 109.8 16.3 C 109 15.7 108.5 14.8 108.3 13.6 Z " stroke="none" fill="#f28620"/>  </g></svg>