<?xml version="1.0" standalone="no"?><!DOCTYPE svg PUBLIC "-//W3C//DTD SVG 1.1//EN" "http://www.w3.org/Graphics/SVG/1.1/DTD/svg11.dtd"><svg xmlns="http://www.w3.org/2000/svg" version="1.1" width="395px" height="185.6px" viewBox="0 0 395 185.6">  <desc>When capacity, resources and capabilities are stretched, we provide the people and skills you need to succeed.</desc>  <defs/>  <g id="Polygon61785">    <path d="M 154.1 134.7 C 154.1 134.7 156.1 134.4 156.1 134.4 C 156.2 135.2 156.5 135.8 157 136.2 C 157.4 136.6 158.1 136.8 159 136.8 C 159.9 136.8 160.6 136.6 161 136.2 C 161.4 135.9 161.6 135.4 161.6 135 C 161.6 134.5 161.4 134.2 161.1 133.9 C 160.8 133.8 160.1 133.5 159.1 133.3 C 157.7 132.9 156.7 132.6 156.1 132.3 C 155.6 132.1 155.2 131.7 154.9 131.3 C 154.6 130.8 154.5 130.3 154.5 129.7 C 154.5 129.2 154.6 128.8 154.8 128.3 C 155.1 127.9 155.4 127.5 155.8 127.2 C 156.1 127 156.5 126.8 157 126.7 C 157.5 126.5 158.1 126.4 158.7 126.4 C 159.6 126.4 160.4 126.6 161 126.8 C 161.7 127.1 162.2 127.4 162.5 127.9 C 162.9 128.3 163.1 128.9 163.2 129.6 C 163.2 129.6 161.3 129.9 161.3 129.9 C 161.2 129.3 161 128.9 160.6 128.5 C 160.1 128.2 159.6 128 158.8 128 C 157.9 128 157.3 128.2 156.9 128.5 C 156.5 128.8 156.3 129.1 156.3 129.5 C 156.3 129.8 156.4 130 156.6 130.2 C 156.7 130.4 157 130.6 157.3 130.7 C 157.5 130.8 158.1 130.9 159 131.2 C 160.4 131.6 161.3 131.9 161.9 132.1 C 162.4 132.3 162.9 132.7 163.2 133.1 C 163.5 133.5 163.6 134.1 163.6 134.8 C 163.6 135.4 163.4 136 163.1 136.6 C 162.7 137.1 162.1 137.6 161.4 137.9 C 160.7 138.2 159.9 138.4 159 138.4 C 157.5 138.4 156.4 138.1 155.6 137.4 C 154.9 136.8 154.4 135.9 154.1 134.7 Z M 173.4 138.1 C 173.4 138.1 173.4 136.43 173.4 136.4 C 172.5 137.7 171.3 138.4 169.8 138.4 C 169.1 138.4 168.5 138.2 167.9 138 C 167.3 137.7 166.9 137.4 166.6 137 C 166.3 136.6 166.1 136.1 166 135.6 C 165.9 135.2 165.9 134.6 165.9 133.8 C 165.88 133.77 165.9 126.7 165.9 126.7 L 167.8 126.7 C 167.8 126.7 167.81 133.03 167.8 133 C 167.8 134 167.9 134.7 167.9 135.1 C 168.1 135.6 168.3 136 168.7 136.3 C 169.1 136.6 169.6 136.7 170.2 136.7 C 170.7 136.7 171.3 136.6 171.8 136.3 C 172.3 136 172.7 135.6 172.9 135 C 173.1 134.5 173.2 133.8 173.2 132.8 C 173.2 132.81 173.2 126.7 173.2 126.7 L 175.1 126.7 L 175.1 138.1 L 173.4 138.1 Z M 185.6 133.9 C 185.6 133.9 187.5 134.2 187.5 134.2 C 187.3 135.5 186.8 136.5 185.9 137.3 C 185.1 138 184 138.4 182.8 138.4 C 181.2 138.4 179.9 137.9 179 136.8 C 178 135.8 177.6 134.4 177.6 132.4 C 177.6 131.2 177.8 130.1 178.2 129.2 C 178.6 128.3 179.2 127.6 180 127.1 C 180.9 126.7 181.8 126.4 182.8 126.4 C 184 126.4 185 126.8 185.8 127.4 C 186.6 128 187.1 128.9 187.3 130.1 C 187.3 130.1 185.4 130.3 185.4 130.3 C 185.3 129.6 184.9 129 184.5 128.6 C 184 128.2 183.5 128 182.8 128 C 181.9 128 181.1 128.4 180.5 129.1 C 179.9 129.8 179.6 130.9 179.6 132.4 C 179.6 133.9 179.8 135 180.4 135.7 C 181 136.4 181.8 136.8 182.7 136.8 C 183.5 136.8 184.1 136.5 184.6 136.1 C 185.1 135.6 185.5 134.9 185.6 133.9 Z M 196.6 133.9 C 196.6 133.9 198.5 134.2 198.5 134.2 C 198.3 135.5 197.8 136.5 196.9 137.3 C 196.1 138 195 138.4 193.8 138.4 C 192.2 138.4 190.9 137.9 190 136.8 C 189 135.8 188.6 134.4 188.6 132.4 C 188.6 131.2 188.8 130.1 189.2 129.2 C 189.6 128.3 190.2 127.6 191 127.1 C 191.9 126.7 192.8 126.4 193.8 126.4 C 195 126.4 196 126.8 196.8 127.4 C 197.6 128 198.1 128.9 198.3 130.1 C 198.3 130.1 196.4 130.3 196.4 130.3 C 196.3 129.6 195.9 129 195.5 128.6 C 195 128.2 194.5 128 193.8 128 C 192.9 128 192.1 128.4 191.5 129.1 C 190.9 129.8 190.6 130.9 190.6 132.4 C 190.6 133.9 190.8 135 191.4 135.7 C 192 136.4 192.8 136.8 193.7 136.8 C 194.5 136.8 195.1 136.5 195.6 136.1 C 196.1 135.6 196.5 134.9 196.6 133.9 Z M 208 134.4 C 208 134.4 210 134.7 210 134.7 C 209.7 135.8 209.1 136.8 208.2 137.4 C 207.4 138 206.3 138.4 204.9 138.4 C 203.3 138.4 202 137.9 201 136.8 C 200 135.8 199.5 134.4 199.5 132.5 C 199.5 130.6 200 129.1 201 128 C 202 127 203.3 126.4 204.8 126.4 C 206.4 126.4 207.6 127 208.6 128 C 209.5 129 210 130.5 210 132.4 C 210 132.5 210 132.7 210 132.9 C 210 132.9 201.5 132.9 201.5 132.9 C 201.6 134.2 201.9 135.1 202.6 135.8 C 203.2 136.4 204 136.8 205 136.8 C 205.7 136.8 206.3 136.6 206.8 136.2 C 207.3 135.8 207.7 135.3 208 134.4 Z M 201.6 131.3 C 201.6 131.3 208 131.3 208 131.3 C 207.9 130.3 207.7 129.6 207.3 129.1 C 206.6 128.4 205.8 128 204.9 128 C 204 128 203.2 128.3 202.6 128.9 C 202 129.5 201.7 130.3 201.6 131.3 Z M 220.2 134.4 C 220.2 134.4 222.2 134.7 222.2 134.7 C 221.9 135.8 221.3 136.8 220.5 137.4 C 219.6 138 218.5 138.4 217.2 138.4 C 215.5 138.4 214.2 137.9 213.2 136.8 C 212.2 135.8 211.7 134.4 211.7 132.5 C 211.7 130.6 212.2 129.1 213.2 128 C 214.2 127 215.5 126.4 217.1 126.4 C 218.6 126.4 219.8 127 220.8 128 C 221.8 129 222.3 130.5 222.3 132.4 C 222.3 132.5 222.3 132.7 222.3 132.9 C 222.3 132.9 213.7 132.9 213.7 132.9 C 213.8 134.2 214.2 135.1 214.8 135.8 C 215.4 136.4 216.2 136.8 217.2 136.8 C 217.9 136.8 218.5 136.6 219 136.2 C 219.5 135.8 219.9 135.3 220.2 134.4 Z M 213.9 131.3 C 213.9 131.3 220.2 131.3 220.2 131.3 C 220.1 130.3 219.9 129.6 219.5 129.1 C 218.9 128.4 218.1 128 217.1 128 C 216.2 128 215.5 128.3 214.9 128.9 C 214.3 129.5 213.9 130.3 213.9 131.3 Z M 232 138.1 C 232 138.1 232.03 136.67 232 136.7 C 231.3 137.8 230.2 138.4 228.8 138.4 C 227.9 138.4 227.1 138.1 226.3 137.6 C 225.6 137.1 225 136.4 224.6 135.5 C 224.1 134.6 223.9 133.6 223.9 132.4 C 223.9 131.3 224.1 130.2 224.5 129.3 C 224.9 128.4 225.4 127.7 226.2 127.2 C 227 126.7 227.8 126.4 228.8 126.4 C 229.4 126.4 230.1 126.6 230.6 126.9 C 231.1 127.2 231.6 127.5 231.9 128 C 231.9 128.01 231.9 122.4 231.9 122.4 L 233.8 122.4 L 233.8 138.1 L 232 138.1 Z M 225.9 132.4 C 225.9 133.9 226.2 135 226.8 135.7 C 227.5 136.4 228.2 136.8 229 136.8 C 229.9 136.8 230.6 136.4 231.2 135.7 C 231.8 135 232.1 134 232.1 132.6 C 232.1 131 231.8 129.9 231.2 129.1 C 230.6 128.4 229.8 128 228.9 128 C 228.1 128 227.4 128.4 226.8 129.1 C 226.2 129.8 225.9 130.9 225.9 132.4 Z M 237.4 138.1 L 237.4 135.9 L 239.6 135.9 L 239.6 138.1 L 237.4 138.1 Z " stroke="none" fill="#fff"/>  </g>  <g id="Polygon61784">    <path d="M 42.1 110.1 C 42.3 110.1 42.6 110 42.9 110 C 42.9 110 43.2 111.7 43.2 111.7 C 42.7 111.8 42.2 111.9 41.8 111.9 C 41.1 111.9 40.5 111.7 40.1 111.5 C 39.7 111.3 39.5 111 39.3 110.7 C 39.2 110.3 39.1 109.5 39.1 108.4 C 39.08 108.37 39.1 101.8 39.1 101.8 L 37.7 101.8 L 37.7 100.3 L 39.1 100.3 L 39.1 97.5 L 41 96.3 L 41 100.3 L 42.9 100.3 L 42.9 101.8 L 41 101.8 C 41 101.8 41 108.47 41 108.5 C 41 109 41 109.4 41.1 109.5 C 41.2 109.7 41.3 109.8 41.4 109.9 C 41.6 110 41.8 110.1 42.1 110.1 C 42.1 110.1 42.1 110.1 42.1 110.1 Z M 44.8 111.7 L 44.8 96 L 46.8 96 C 46.8 96 46.77 101.61 46.8 101.6 C 47.7 100.6 48.8 100 50.2 100 C 51 100 51.8 100.2 52.4 100.5 C 53 100.9 53.5 101.3 53.7 101.9 C 54 102.5 54.1 103.4 54.1 104.5 C 54.13 104.48 54.1 111.7 54.1 111.7 L 52.2 111.7 C 52.2 111.7 52.2 104.48 52.2 104.5 C 52.2 103.5 52 102.8 51.6 102.4 C 51.1 101.9 50.6 101.7 49.8 101.7 C 49.2 101.7 48.7 101.9 48.2 102.2 C 47.7 102.5 47.3 102.9 47.1 103.4 C 46.9 103.9 46.8 104.6 46.8 105.5 C 46.77 105.47 46.8 111.7 46.8 111.7 L 44.8 111.7 Z M 64.9 108 C 64.9 108 66.9 108.3 66.9 108.3 C 66.6 109.4 66 110.4 65.1 111 C 64.3 111.6 63.2 112 61.9 112 C 60.2 112 58.9 111.5 57.9 110.4 C 56.9 109.4 56.4 108 56.4 106.1 C 56.4 104.2 56.9 102.7 57.9 101.6 C 58.9 100.6 60.2 100 61.8 100 C 63.3 100 64.5 100.6 65.5 101.6 C 66.5 102.6 66.9 104.1 66.9 106 C 66.9 106.1 66.9 106.3 66.9 106.5 C 66.9 106.5 58.4 106.5 58.4 106.5 C 58.5 107.8 58.9 108.7 59.5 109.4 C 60.1 110 60.9 110.4 61.9 110.4 C 62.6 110.4 63.2 110.2 63.7 109.8 C 64.2 109.4 64.6 108.9 64.9 108 Z M 58.5 104.9 C 58.5 104.9 64.9 104.9 64.9 104.9 C 64.8 103.9 64.6 103.2 64.2 102.7 C 63.6 102 62.8 101.6 61.8 101.6 C 60.9 101.6 60.1 101.9 59.5 102.5 C 58.9 103.1 58.6 103.9 58.5 104.9 Z M 75.4 116.1 L 75.4 100.3 L 77.2 100.3 C 77.2 100.3 77.18 101.78 77.2 101.8 C 77.6 101.2 78.1 100.8 78.6 100.5 C 79.1 100.2 79.7 100 80.5 100 C 81.5 100 82.3 100.3 83.1 100.8 C 83.8 101.3 84.4 102 84.8 102.9 C 85.1 103.8 85.3 104.8 85.3 105.9 C 85.3 107.1 85.1 108.1 84.7 109.1 C 84.3 110 83.7 110.7 82.9 111.2 C 82.1 111.7 81.2 112 80.4 112 C 79.7 112 79.1 111.8 78.6 111.6 C 78.1 111.3 77.7 110.9 77.4 110.5 C 77.35 110.53 77.4 116.1 77.4 116.1 L 75.4 116.1 Z M 77.2 106.1 C 77.2 107.5 77.5 108.6 78.1 109.3 C 78.7 110 79.4 110.4 80.2 110.4 C 81.1 110.4 81.8 110 82.4 109.3 C 83 108.6 83.3 107.4 83.3 105.9 C 83.3 104.5 83 103.4 82.5 102.6 C 81.9 101.9 81.1 101.6 80.3 101.6 C 79.5 101.6 78.8 101.9 78.1 102.7 C 77.5 103.5 77.2 104.6 77.2 106.1 Z M 95.5 108 C 95.5 108 97.5 108.3 97.5 108.3 C 97.1 109.4 96.6 110.4 95.7 111 C 94.9 111.6 93.8 112 92.4 112 C 90.8 112 89.5 111.5 88.5 110.4 C 87.5 109.4 87 108 87 106.1 C 87 104.2 87.5 102.7 88.5 101.6 C 89.5 100.6 90.8 100 92.3 100 C 93.9 100 95.1 100.6 96.1 101.6 C 97 102.6 97.5 104.1 97.5 106 C 97.5 106.1 97.5 106.3 97.5 106.5 C 97.5 106.5 89 106.5 89 106.5 C 89.1 107.8 89.4 108.7 90.1 109.4 C 90.7 110 91.5 110.4 92.5 110.4 C 93.2 110.4 93.8 110.2 94.3 109.8 C 94.8 109.4 95.2 108.9 95.5 108 Z M 89.1 104.9 C 89.1 104.9 95.5 104.9 95.5 104.9 C 95.4 103.9 95.2 103.2 94.8 102.7 C 94.1 102 93.3 101.6 92.4 101.6 C 91.5 101.6 90.7 101.9 90.1 102.5 C 89.5 103.1 89.2 103.9 89.1 104.9 Z M 99.2 106 C 99.2 103.9 99.8 102.3 100.9 101.3 C 101.9 100.5 103.1 100 104.5 100 C 106.1 100 107.4 100.6 108.4 101.6 C 109.4 102.6 109.9 104 109.9 105.8 C 109.9 107.3 109.6 108.5 109.2 109.3 C 108.8 110.1 108.1 110.8 107.3 111.3 C 106.4 111.7 105.5 112 104.5 112 C 102.9 112 101.6 111.5 100.6 110.4 C 99.7 109.4 99.2 107.9 99.2 106 Z M 101.2 106 C 101.2 107.5 101.5 108.6 102.1 109.3 C 102.8 110 103.6 110.4 104.5 110.4 C 105.5 110.4 106.3 110 106.9 109.3 C 107.6 108.6 107.9 107.4 107.9 105.9 C 107.9 104.5 107.6 103.5 106.9 102.7 C 106.3 102 105.5 101.6 104.5 101.6 C 103.6 101.6 102.8 102 102.1 102.7 C 101.5 103.5 101.2 104.5 101.2 106 Z M 112.1 116.1 L 112.1 100.3 L 113.9 100.3 C 113.9 100.3 113.89 101.78 113.9 101.8 C 114.3 101.2 114.8 100.8 115.3 100.5 C 115.8 100.2 116.5 100 117.2 100 C 118.2 100 119 100.3 119.8 100.8 C 120.5 101.3 121.1 102 121.5 102.9 C 121.8 103.8 122 104.8 122 105.9 C 122 107.1 121.8 108.1 121.4 109.1 C 121 110 120.4 110.7 119.6 111.2 C 118.8 111.7 117.9 112 117.1 112 C 116.4 112 115.8 111.8 115.3 111.6 C 114.8 111.3 114.4 110.9 114.1 110.5 C 114.06 110.53 114.1 116.1 114.1 116.1 L 112.1 116.1 Z M 113.9 106.1 C 113.9 107.5 114.2 108.6 114.8 109.3 C 115.4 110 116.1 110.4 116.9 110.4 C 117.8 110.4 118.5 110 119.1 109.3 C 119.7 108.6 120.1 107.4 120.1 105.9 C 120.1 104.5 119.8 103.4 119.2 102.6 C 118.6 101.9 117.8 101.6 117 101.6 C 116.2 101.6 115.5 101.9 114.8 102.7 C 114.2 103.5 113.9 104.6 113.9 106.1 Z M 124.3 111.7 L 124.3 96 L 126.3 96 L 126.3 111.7 L 124.3 111.7 Z M 137.1 108 C 137.1 108 139.1 108.3 139.1 108.3 C 138.7 109.4 138.2 110.4 137.3 111 C 136.5 111.6 135.4 112 134 112 C 132.4 112 131 111.5 130.1 110.4 C 129.1 109.4 128.6 108 128.6 106.1 C 128.6 104.2 129.1 102.7 130.1 101.6 C 131.1 100.6 132.4 100 133.9 100 C 135.5 100 136.7 100.6 137.7 101.6 C 138.6 102.6 139.1 104.1 139.1 106 C 139.1 106.1 139.1 106.3 139.1 106.5 C 139.1 106.5 130.6 106.5 130.6 106.5 C 130.7 107.8 131 108.7 131.7 109.4 C 132.3 110 133.1 110.4 134.1 110.4 C 134.8 110.4 135.4 110.2 135.9 109.8 C 136.4 109.4 136.8 108.9 137.1 108 Z M 130.7 104.9 C 130.7 104.9 137.1 104.9 137.1 104.9 C 137 103.9 136.8 103.2 136.4 102.7 C 135.7 102 134.9 101.6 134 101.6 C 133.1 101.6 132.3 101.9 131.7 102.5 C 131.1 103.1 130.8 103.9 130.7 104.9 Z M 155.4 111.7 C 155.2 111.3 155.1 110.8 155 110.3 C 154.3 110.9 153.6 111.3 153 111.6 C 152.3 111.8 151.6 112 150.8 112 C 149.6 112 148.6 111.7 148 111 C 147.3 110.4 146.9 109.7 146.9 108.7 C 146.9 108.1 147.1 107.6 147.3 107.2 C 147.6 106.7 147.9 106.3 148.3 106.1 C 148.7 105.8 149.2 105.6 149.7 105.4 C 150.1 105.3 150.7 105.2 151.4 105.1 C 153 104.9 154.1 104.7 154.9 104.5 C 154.9 104.2 154.9 104 154.9 104 C 154.9 103.2 154.7 102.6 154.3 102.3 C 153.8 101.9 153.1 101.6 152.1 101.6 C 151.2 101.6 150.6 101.8 150.1 102.1 C 149.7 102.4 149.4 103 149.2 103.8 C 149.2 103.8 147.3 103.6 147.3 103.6 C 147.4 102.7 147.7 102.1 148.1 101.6 C 148.5 101.1 149.1 100.7 149.8 100.4 C 150.6 100.2 151.4 100 152.4 100 C 153.4 100 154.2 100.2 154.8 100.4 C 155.4 100.6 155.9 100.9 156.1 101.3 C 156.4 101.6 156.6 102 156.7 102.6 C 156.8 102.9 156.8 103.5 156.8 104.3 C 156.8 104.3 156.8 106.9 156.8 106.9 C 156.8 108.7 156.9 109.9 157 110.3 C 157 110.8 157.2 111.3 157.4 111.7 C 157.45 111.71 155.4 111.7 155.4 111.7 C 155.4 111.7 155.43 111.71 155.4 111.7 Z M 154.9 106 C 154.2 106.3 153.1 106.5 151.7 106.7 C 150.9 106.8 150.4 107 150 107.1 C 149.7 107.2 149.5 107.5 149.3 107.7 C 149.1 108 149 108.3 149 108.6 C 149 109.2 149.2 109.6 149.6 109.9 C 150 110.3 150.6 110.5 151.3 110.5 C 152 110.5 152.7 110.3 153.3 110 C 153.9 109.6 154.3 109.2 154.6 108.6 C 154.8 108.2 154.9 107.5 154.9 106.7 C 154.9 106.7 154.9 106 154.9 106 Z M 159.8 111.7 L 159.8 100.3 L 161.6 100.3 C 161.6 100.3 161.57 101.92 161.6 101.9 C 162.4 100.7 163.6 100 165.2 100 C 165.9 100 166.5 100.2 167.1 100.4 C 167.7 100.7 168.1 101 168.4 101.4 C 168.7 101.8 168.9 102.3 169 102.8 C 169.1 103.2 169.1 103.8 169.1 104.7 C 169.1 104.69 169.1 111.7 169.1 111.7 L 167.2 111.7 C 167.2 111.7 167.17 104.77 167.2 104.8 C 167.2 104 167.1 103.4 166.9 103 C 166.8 102.6 166.5 102.3 166.1 102.1 C 165.8 101.8 165.3 101.7 164.8 101.7 C 164 101.7 163.3 102 162.7 102.5 C 162.1 103 161.8 104 161.8 105.5 C 161.77 105.48 161.8 111.7 161.8 111.7 L 159.8 111.7 Z M 179.5 111.7 C 179.5 111.7 179.47 110.27 179.5 110.3 C 178.7 111.4 177.7 112 176.3 112 C 175.4 112 174.5 111.7 173.8 111.2 C 173 110.7 172.4 110 172 109.1 C 171.6 108.2 171.4 107.2 171.4 106 C 171.4 104.9 171.6 103.8 171.9 102.9 C 172.3 102 172.9 101.3 173.6 100.8 C 174.4 100.3 175.3 100 176.2 100 C 176.9 100 177.5 100.2 178 100.5 C 178.6 100.8 179 101.1 179.3 101.6 C 179.34 101.61 179.3 96 179.3 96 L 181.3 96 L 181.3 111.7 L 179.5 111.7 Z M 173.4 106 C 173.4 107.5 173.7 108.6 174.3 109.3 C 174.9 110 175.6 110.4 176.5 110.4 C 177.3 110.4 178 110 178.6 109.3 C 179.2 108.6 179.5 107.6 179.5 106.2 C 179.5 104.6 179.2 103.5 178.6 102.7 C 178 102 177.3 101.6 176.4 101.6 C 175.5 101.6 174.8 102 174.2 102.7 C 173.6 103.4 173.4 104.5 173.4 106 Z M 189.6 108.3 C 189.6 108.3 191.6 108 191.6 108 C 191.7 108.8 192 109.4 192.5 109.8 C 192.9 110.2 193.6 110.4 194.5 110.4 C 195.4 110.4 196.1 110.2 196.5 109.8 C 196.9 109.5 197.1 109 197.1 108.6 C 197.1 108.1 196.9 107.8 196.6 107.5 C 196.3 107.4 195.6 107.1 194.6 106.9 C 193.2 106.5 192.2 106.2 191.6 105.9 C 191.1 105.7 190.7 105.3 190.4 104.9 C 190.1 104.4 190 103.9 190 103.3 C 190 102.8 190.1 102.4 190.3 101.9 C 190.5 101.5 190.9 101.1 191.3 100.8 C 191.6 100.6 192 100.4 192.5 100.3 C 193 100.1 193.6 100 194.2 100 C 195.1 100 195.8 100.2 196.5 100.4 C 197.2 100.7 197.7 101 198 101.5 C 198.3 101.9 198.6 102.5 198.7 103.2 C 198.7 103.2 196.8 103.5 196.8 103.5 C 196.7 102.9 196.5 102.5 196 102.1 C 195.6 101.8 195.1 101.6 194.3 101.6 C 193.4 101.6 192.8 101.8 192.4 102.1 C 192 102.4 191.8 102.7 191.8 103.1 C 191.8 103.4 191.9 103.6 192.1 103.8 C 192.2 104 192.5 104.2 192.8 104.3 C 193 104.4 193.6 104.5 194.5 104.8 C 195.9 105.2 196.8 105.5 197.4 105.7 C 197.9 105.9 198.3 106.3 198.7 106.7 C 199 107.1 199.1 107.7 199.1 108.4 C 199.1 109 198.9 109.6 198.6 110.2 C 198.2 110.7 197.6 111.2 196.9 111.5 C 196.2 111.8 195.4 112 194.5 112 C 193 112 191.9 111.7 191.1 111 C 190.4 110.4 189.9 109.5 189.6 108.3 Z M 201.4 111.7 L 201.4 96 L 203.4 96 L 203.4 104.9 L 207.9 100.3 L 210.4 100.3 L 206.1 104.5 L 210.9 111.7 L 208.5 111.7 L 204.7 105.9 L 203.4 107.2 L 203.4 111.7 L 201.4 111.7 Z M 212.4 98.2 L 212.4 96 L 214.4 96 L 214.4 98.2 L 212.4 98.2 Z M 212.4 111.7 L 212.4 100.3 L 214.4 100.3 L 214.4 111.7 L 212.4 111.7 Z M 217.3 111.7 L 217.3 96 L 219.2 96 L 219.2 111.7 L 217.3 111.7 Z M 222.1 111.7 L 222.1 96 L 224.1 96 L 224.1 111.7 L 222.1 111.7 Z M 226.3 108.3 C 226.3 108.3 228.2 108 228.2 108 C 228.3 108.8 228.6 109.4 229.1 109.8 C 229.6 110.2 230.3 110.4 231.2 110.4 C 232.1 110.4 232.7 110.2 233.1 109.8 C 233.6 109.5 233.8 109 233.8 108.6 C 233.8 108.1 233.6 107.8 233.2 107.5 C 233 107.4 232.3 107.1 231.2 106.9 C 229.8 106.5 228.8 106.2 228.3 105.9 C 227.8 105.7 227.3 105.3 227.1 104.9 C 226.8 104.4 226.6 103.9 226.6 103.3 C 226.6 102.8 226.7 102.4 227 101.9 C 227.2 101.5 227.5 101.1 227.9 100.8 C 228.2 100.6 228.6 100.4 229.2 100.3 C 229.7 100.1 230.2 100 230.8 100 C 231.7 100 232.5 100.2 233.2 100.4 C 233.9 100.7 234.4 101 234.7 101.5 C 235 101.9 235.2 102.5 235.4 103.2 C 235.4 103.2 233.5 103.5 233.5 103.5 C 233.4 102.9 233.1 102.5 232.7 102.1 C 232.3 101.8 231.7 101.6 231 101.6 C 230.1 101.6 229.4 101.8 229.1 102.1 C 228.7 102.4 228.5 102.7 228.5 103.1 C 228.5 103.4 228.6 103.6 228.7 103.8 C 228.9 104 229.1 104.2 229.5 104.3 C 229.7 104.4 230.2 104.5 231.2 104.8 C 232.5 105.2 233.5 105.5 234 105.7 C 234.6 105.9 235 106.3 235.3 106.7 C 235.6 107.1 235.8 107.7 235.8 108.4 C 235.8 109 235.6 109.6 235.2 110.2 C 234.8 110.7 234.3 111.2 233.6 111.5 C 232.9 111.8 232.1 112 231.2 112 C 229.7 112 228.6 111.7 227.8 111 C 227 110.4 226.5 109.5 226.3 108.3 Z M 245.4 116.3 C 245 116.3 244.6 116.3 244.1 116.1 C 244.1 116.1 243.9 114.3 243.9 114.3 C 244.3 114.4 244.7 114.5 245 114.5 C 245.4 114.5 245.8 114.4 246 114.2 C 246.3 114.1 246.5 113.9 246.7 113.6 C 246.8 113.4 247 113 247.3 112.2 C 247.3 112.1 247.3 111.9 247.4 111.7 C 247.42 111.73 243.1 100.3 243.1 100.3 L 245.2 100.3 C 245.2 100.3 247.55 106.91 247.6 106.9 C 247.9 107.7 248.1 108.6 248.4 109.5 C 248.6 108.7 248.9 107.8 249.2 106.9 C 249.18 106.95 251.6 100.3 251.6 100.3 L 253.5 100.3 C 253.5 100.3 249.21 111.9 249.2 111.9 C 248.7 113.2 248.4 114 248.1 114.5 C 247.8 115.1 247.4 115.6 246.9 115.9 C 246.5 116.2 246 116.3 245.4 116.3 C 245.4 116.3 245.4 116.3 245.4 116.3 Z M 254.5 106 C 254.5 103.9 255.1 102.3 256.2 101.3 C 257.2 100.5 258.4 100 259.8 100 C 261.4 100 262.7 100.6 263.7 101.6 C 264.7 102.6 265.2 104 265.2 105.8 C 265.2 107.3 264.9 108.5 264.5 109.3 C 264.1 110.1 263.4 110.8 262.6 111.3 C 261.7 111.7 260.8 112 259.8 112 C 258.2 112 256.9 111.5 255.9 110.4 C 255 109.4 254.5 107.9 254.5 106 Z M 256.5 106 C 256.5 107.5 256.8 108.6 257.4 109.3 C 258.1 110 258.9 110.4 259.8 110.4 C 260.8 110.4 261.6 110 262.2 109.3 C 262.9 108.6 263.2 107.4 263.2 105.9 C 263.2 104.5 262.9 103.5 262.2 102.7 C 261.6 102 260.8 101.6 259.8 101.6 C 258.9 101.6 258.1 102 257.4 102.7 C 256.8 103.5 256.5 104.5 256.5 106 Z M 274.9 111.7 C 274.9 111.7 274.9 110.03 274.9 110 C 274 111.3 272.8 112 271.3 112 C 270.6 112 270 111.8 269.4 111.6 C 268.8 111.3 268.4 111 268.1 110.6 C 267.8 110.2 267.6 109.7 267.5 109.2 C 267.4 108.8 267.4 108.2 267.4 107.4 C 267.38 107.37 267.4 100.3 267.4 100.3 L 269.3 100.3 C 269.3 100.3 269.32 106.63 269.3 106.6 C 269.3 107.6 269.4 108.3 269.4 108.7 C 269.6 109.2 269.8 109.6 270.2 109.9 C 270.6 110.2 271.1 110.3 271.7 110.3 C 272.2 110.3 272.8 110.2 273.3 109.9 C 273.8 109.6 274.2 109.2 274.4 108.6 C 274.6 108.1 274.7 107.4 274.7 106.4 C 274.7 106.41 274.7 100.3 274.7 100.3 L 276.6 100.3 L 276.6 111.7 L 274.9 111.7 Z M 285.8 111.7 L 285.8 100.3 L 287.5 100.3 C 287.5 100.3 287.51 101.92 287.5 101.9 C 288.4 100.7 289.6 100 291.1 100 C 291.8 100 292.5 100.2 293 100.4 C 293.6 100.7 294 101 294.3 101.4 C 294.6 101.8 294.8 102.3 294.9 102.8 C 295 103.2 295 103.8 295 104.7 C 295.04 104.69 295 111.7 295 111.7 L 293.1 111.7 C 293.1 111.7 293.11 104.77 293.1 104.8 C 293.1 104 293 103.4 292.9 103 C 292.7 102.6 292.5 102.3 292.1 102.1 C 291.7 101.8 291.3 101.7 290.7 101.7 C 289.9 101.7 289.2 102 288.6 102.5 C 288 103 287.7 104 287.7 105.5 C 287.71 105.48 287.7 111.7 287.7 111.7 L 285.8 111.7 Z M 305.8 108 C 305.8 108 307.8 108.3 307.8 108.3 C 307.5 109.4 306.9 110.4 306.1 111 C 305.2 111.6 304.1 112 302.8 112 C 301.1 112 299.8 111.5 298.8 110.4 C 297.9 109.4 297.4 108 297.4 106.1 C 297.4 104.2 297.9 102.7 298.8 101.6 C 299.8 100.6 301.1 100 302.7 100 C 304.2 100 305.5 100.6 306.4 101.6 C 307.4 102.6 307.9 104.1 307.9 106 C 307.9 106.1 307.9 106.3 307.9 106.5 C 307.9 106.5 299.4 106.5 299.4 106.5 C 299.4 107.8 299.8 108.7 300.4 109.4 C 301.1 110 301.9 110.4 302.8 110.4 C 303.5 110.4 304.1 110.2 304.6 109.8 C 305.1 109.4 305.5 108.9 305.8 108 Z M 299.5 104.9 C 299.5 104.9 305.8 104.9 305.8 104.9 C 305.8 103.9 305.5 103.2 305.1 102.7 C 304.5 102 303.7 101.6 302.7 101.6 C 301.8 101.6 301.1 101.9 300.5 102.5 C 299.9 103.1 299.5 103.9 299.5 104.9 Z M 318.1 108 C 318.1 108 320.1 108.3 320.1 108.3 C 319.7 109.4 319.2 110.4 318.3 111 C 317.4 111.6 316.4 112 315 112 C 313.4 112 312 111.5 311.1 110.4 C 310.1 109.4 309.6 108 309.6 106.1 C 309.6 104.2 310.1 102.7 311.1 101.6 C 312.1 100.6 313.4 100 314.9 100 C 316.5 100 317.7 100.6 318.7 101.6 C 319.6 102.6 320.1 104.1 320.1 106 C 320.1 106.1 320.1 106.3 320.1 106.5 C 320.1 106.5 311.6 106.5 311.6 106.5 C 311.7 107.8 312 108.7 312.7 109.4 C 313.3 110 314.1 110.4 315 110.4 C 315.8 110.4 316.4 110.2 316.9 109.8 C 317.4 109.4 317.8 108.9 318.1 108 Z M 311.7 104.9 C 311.7 104.9 318.1 104.9 318.1 104.9 C 318 103.9 317.7 103.2 317.3 102.7 C 316.7 102 315.9 101.6 314.9 101.6 C 314.1 101.6 313.3 101.9 312.7 102.5 C 312.1 103.1 311.8 103.9 311.7 104.9 Z M 329.9 111.7 C 329.9 111.7 329.88 110.27 329.9 110.3 C 329.2 111.4 328.1 112 326.7 112 C 325.8 112 324.9 111.7 324.2 111.2 C 323.4 110.7 322.8 110 322.4 109.1 C 322 108.2 321.8 107.2 321.8 106 C 321.8 104.9 322 103.8 322.4 102.9 C 322.7 102 323.3 101.3 324.1 100.8 C 324.8 100.3 325.7 100 326.6 100 C 327.3 100 327.9 100.2 328.4 100.5 C 329 100.8 329.4 101.1 329.8 101.6 C 329.75 101.61 329.8 96 329.8 96 L 331.7 96 L 331.7 111.7 L 329.9 111.7 Z M 323.8 106 C 323.8 107.5 324.1 108.6 324.7 109.3 C 325.3 110 326 110.4 326.9 110.4 C 327.7 110.4 328.4 110 329 109.3 C 329.6 108.6 329.9 107.6 329.9 106.2 C 329.9 104.6 329.6 103.5 329 102.7 C 328.4 102 327.7 101.6 326.8 101.6 C 325.9 101.6 325.2 102 324.6 102.7 C 324.1 103.4 323.8 104.5 323.8 106 Z M 344.2 110.1 C 344.4 110.1 344.7 110 345 110 C 345 110 345.3 111.7 345.3 111.7 C 344.8 111.8 344.3 111.9 343.9 111.9 C 343.2 111.9 342.6 111.7 342.2 111.5 C 341.8 111.3 341.6 111 341.4 110.7 C 341.3 110.3 341.2 109.5 341.2 108.4 C 341.18 108.37 341.2 101.8 341.2 101.8 L 339.8 101.8 L 339.8 100.3 L 341.2 100.3 L 341.2 97.5 L 343.1 96.3 L 343.1 100.3 L 345 100.3 L 345 101.8 L 343.1 101.8 C 343.1 101.8 343.1 108.47 343.1 108.5 C 343.1 109 343.1 109.4 343.2 109.5 C 343.3 109.7 343.4 109.8 343.5 109.9 C 343.7 110 343.9 110.1 344.2 110.1 C 344.2 110.1 344.2 110.1 344.2 110.1 Z M 346.2 106 C 346.2 103.9 346.8 102.3 348 101.3 C 349 100.5 350.2 100 351.6 100 C 353.1 100 354.4 100.6 355.4 101.6 C 356.4 102.6 356.9 104 356.9 105.8 C 356.9 107.3 356.7 108.5 356.2 109.3 C 355.8 110.1 355.2 110.8 354.3 111.3 C 353.5 111.7 352.6 112 351.6 112 C 350 112 348.7 111.5 347.7 110.4 C 346.7 109.4 346.2 107.9 346.2 106 Z M 348.2 106 C 348.2 107.5 348.5 108.6 349.2 109.3 C 349.8 110 350.6 110.4 351.6 110.4 C 352.5 110.4 353.3 110 354 109.3 C 354.6 108.6 354.9 107.4 354.9 105.9 C 354.9 104.5 354.6 103.5 354 102.7 C 353.3 102 352.5 101.6 351.6 101.6 C 350.6 101.6 349.8 102 349.2 102.7 C 348.5 103.5 348.2 104.5 348.2 106 Z " stroke="none" fill="#fff"/>  </g>  <g id="Polygon61783">    <path d="M 25.4 81.1 C 25.4 81.1 27.3 81.4 27.3 81.4 C 27.1 82.7 26.6 83.7 25.7 84.5 C 24.9 85.2 23.8 85.6 22.6 85.6 C 21 85.6 19.7 85.1 18.8 84 C 17.8 83 17.4 81.6 17.4 79.6 C 17.4 78.4 17.6 77.3 18 76.4 C 18.4 75.5 19 74.8 19.9 74.3 C 20.7 73.9 21.6 73.6 22.6 73.6 C 23.8 73.6 24.8 74 25.6 74.6 C 26.4 75.2 26.9 76.1 27.1 77.3 C 27.1 77.3 25.2 77.5 25.2 77.5 C 25.1 76.8 24.8 76.2 24.3 75.8 C 23.8 75.4 23.3 75.2 22.6 75.2 C 21.7 75.2 20.9 75.6 20.3 76.3 C 19.7 77 19.4 78.1 19.4 79.6 C 19.4 81.1 19.7 82.2 20.2 82.9 C 20.8 83.6 21.6 84 22.5 84 C 23.3 84 23.9 83.7 24.4 83.3 C 25 82.8 25.3 82.1 25.4 81.1 Z M 36.8 85.3 C 36.6 84.9 36.5 84.4 36.4 83.9 C 35.7 84.5 35 84.9 34.3 85.2 C 33.7 85.4 33 85.6 32.2 85.6 C 31 85.6 30 85.3 29.3 84.6 C 28.6 84 28.3 83.3 28.3 82.3 C 28.3 81.7 28.4 81.2 28.7 80.8 C 28.9 80.3 29.3 79.9 29.7 79.7 C 30.1 79.4 30.6 79.2 31.1 79 C 31.5 78.9 32 78.8 32.8 78.7 C 34.4 78.5 35.5 78.3 36.2 78.1 C 36.3 77.8 36.3 77.6 36.3 77.6 C 36.3 76.8 36.1 76.2 35.7 75.9 C 35.2 75.5 34.5 75.2 33.5 75.2 C 32.6 75.2 31.9 75.4 31.5 75.7 C 31.1 76 30.7 76.6 30.5 77.4 C 30.5 77.4 28.6 77.2 28.6 77.2 C 28.8 76.3 29.1 75.7 29.5 75.2 C 29.9 74.7 30.5 74.3 31.2 74 C 31.9 73.8 32.8 73.6 33.8 73.6 C 34.8 73.6 35.6 73.8 36.2 74 C 36.8 74.2 37.2 74.5 37.5 74.9 C 37.8 75.2 38 75.6 38.1 76.2 C 38.2 76.5 38.2 77.1 38.2 77.9 C 38.2 77.9 38.2 80.5 38.2 80.5 C 38.2 82.3 38.2 83.5 38.3 83.9 C 38.4 84.4 38.6 84.9 38.8 85.3 C 38.82 85.31 36.8 85.3 36.8 85.3 C 36.8 85.3 36.8 85.31 36.8 85.3 Z M 36.2 79.6 C 35.5 79.9 34.5 80.1 33.1 80.3 C 32.3 80.4 31.7 80.6 31.4 80.7 C 31.1 80.8 30.8 81.1 30.6 81.3 C 30.5 81.6 30.4 81.9 30.4 82.2 C 30.4 82.8 30.6 83.2 31 83.5 C 31.3 83.9 31.9 84.1 32.7 84.1 C 33.4 84.1 34.1 83.9 34.7 83.6 C 35.2 83.2 35.7 82.8 35.9 82.2 C 36.1 81.8 36.2 81.1 36.2 80.3 C 36.2 80.3 36.2 79.6 36.2 79.6 Z M 41.2 89.7 L 41.2 73.9 L 43 73.9 C 43 73.9 42.96 75.38 43 75.4 C 43.4 74.8 43.8 74.4 44.4 74.1 C 44.9 73.8 45.5 73.6 46.3 73.6 C 47.2 73.6 48.1 73.9 48.8 74.4 C 49.6 74.9 50.2 75.6 50.5 76.5 C 50.9 77.4 51.1 78.4 51.1 79.5 C 51.1 80.7 50.9 81.7 50.5 82.7 C 50.1 83.6 49.4 84.3 48.7 84.8 C 47.9 85.3 47 85.6 46.1 85.6 C 45.5 85.6 44.9 85.4 44.4 85.2 C 43.9 84.9 43.5 84.5 43.1 84.1 C 43.13 84.13 43.1 89.7 43.1 89.7 L 41.2 89.7 Z M 43 79.7 C 43 81.1 43.2 82.2 43.8 82.9 C 44.4 83.6 45.2 84 46 84 C 46.9 84 47.6 83.6 48.2 82.9 C 48.8 82.2 49.1 81 49.1 79.5 C 49.1 78.1 48.8 77 48.2 76.2 C 47.6 75.5 46.9 75.2 46.1 75.2 C 45.3 75.2 44.5 75.5 43.9 76.3 C 43.3 77.1 43 78.2 43 79.7 Z M 61.3 85.3 C 61.1 84.9 60.9 84.4 60.9 83.9 C 60.2 84.5 59.5 84.9 58.8 85.2 C 58.2 85.4 57.4 85.6 56.7 85.6 C 55.4 85.6 54.5 85.3 53.8 84.6 C 53.1 84 52.8 83.3 52.8 82.3 C 52.8 81.7 52.9 81.2 53.2 80.8 C 53.4 80.3 53.7 79.9 54.2 79.7 C 54.6 79.4 55 79.2 55.6 79 C 55.9 78.9 56.5 78.8 57.3 78.7 C 58.8 78.5 60 78.3 60.7 78.1 C 60.7 77.8 60.7 77.6 60.7 77.6 C 60.7 76.8 60.5 76.2 60.2 75.9 C 59.7 75.5 59 75.2 58 75.2 C 57.1 75.2 56.4 75.4 56 75.7 C 55.5 76 55.2 76.6 55 77.4 C 55 77.4 53.1 77.2 53.1 77.2 C 53.3 76.3 53.6 75.7 54 75.2 C 54.4 74.7 54.9 74.3 55.7 74 C 56.4 73.8 57.3 73.6 58.3 73.6 C 59.2 73.6 60 73.8 60.6 74 C 61.2 74.2 61.7 74.5 62 74.9 C 62.3 75.2 62.5 75.6 62.6 76.2 C 62.6 76.5 62.7 77.1 62.7 77.9 C 62.7 77.9 62.7 80.5 62.7 80.5 C 62.7 82.3 62.7 83.5 62.8 83.9 C 62.9 84.4 63 84.9 63.3 85.3 C 63.29 85.31 61.3 85.3 61.3 85.3 C 61.3 85.3 61.27 85.31 61.3 85.3 Z M 60.7 79.6 C 60 79.9 59 80.1 57.6 80.3 C 56.8 80.4 56.2 80.6 55.9 80.7 C 55.5 80.8 55.3 81.1 55.1 81.3 C 54.9 81.6 54.8 81.9 54.8 82.2 C 54.8 82.8 55 83.2 55.4 83.5 C 55.8 83.9 56.4 84.1 57.1 84.1 C 57.9 84.1 58.5 83.9 59.1 83.6 C 59.7 83.2 60.1 82.8 60.4 82.2 C 60.6 81.8 60.7 81.1 60.7 80.3 C 60.7 80.3 60.7 79.6 60.7 79.6 Z M 67.5 85.3 L 65.7 85.3 L 65.7 69.6 L 67.6 69.6 C 67.6 69.6 67.59 75.18 67.6 75.2 C 68.4 74.2 69.5 73.6 70.7 73.6 C 71.4 73.6 72.1 73.8 72.7 74.1 C 73.3 74.3 73.9 74.7 74.3 75.3 C 74.7 75.8 75 76.4 75.2 77.1 C 75.4 77.8 75.6 78.6 75.6 79.4 C 75.6 81.4 75.1 82.9 74.1 84 C 73.1 85 72 85.6 70.6 85.6 C 69.3 85.6 68.2 85 67.5 83.9 C 67.46 83.88 67.5 85.3 67.5 85.3 Z M 67.4 79.5 C 67.4 80.9 67.6 81.9 68 82.5 C 68.6 83.5 69.4 84 70.5 84 C 71.3 84 72 83.6 72.7 82.9 C 73.3 82.1 73.6 81 73.6 79.6 C 73.6 78.1 73.3 77 72.7 76.3 C 72.1 75.6 71.4 75.2 70.5 75.2 C 69.7 75.2 69 75.6 68.4 76.3 C 67.7 77.1 67.4 78.1 67.4 79.5 Z M 77.9 71.8 L 77.9 69.6 L 79.9 69.6 L 79.9 71.8 L 77.9 71.8 Z M 77.9 85.3 L 77.9 73.9 L 79.9 73.9 L 79.9 85.3 L 77.9 85.3 Z M 82.8 85.3 L 82.8 69.6 L 84.7 69.6 L 84.7 85.3 L 82.8 85.3 Z M 87.7 71.8 L 87.7 69.6 L 89.6 69.6 L 89.6 71.8 L 87.7 71.8 Z M 87.7 85.3 L 87.7 73.9 L 89.6 73.9 L 89.6 85.3 L 87.7 85.3 Z M 95.9 83.7 C 96.2 83.7 96.4 83.6 96.8 83.6 C 96.8 83.6 97.1 85.3 97.1 85.3 C 96.5 85.4 96 85.5 95.6 85.5 C 94.9 85.5 94.4 85.3 94 85.1 C 93.6 84.9 93.3 84.6 93.2 84.3 C 93 83.9 92.9 83.1 92.9 82 C 92.92 81.97 92.9 75.4 92.9 75.4 L 91.5 75.4 L 91.5 73.9 L 92.9 73.9 L 92.9 71.1 L 94.8 69.9 L 94.8 73.9 L 96.8 73.9 L 96.8 75.4 L 94.8 75.4 C 94.8 75.4 94.85 82.07 94.8 82.1 C 94.8 82.6 94.9 83 94.9 83.1 C 95 83.3 95.1 83.4 95.3 83.5 C 95.4 83.6 95.7 83.7 95.9 83.7 C 95.9 83.7 95.9 83.7 95.9 83.7 Z M 98.7 71.8 L 98.7 69.6 L 100.6 69.6 L 100.6 71.8 L 98.7 71.8 Z M 98.7 85.3 L 98.7 73.9 L 100.6 73.9 L 100.6 85.3 L 98.7 85.3 Z M 111.4 81.6 C 111.4 81.6 113.4 81.9 113.4 81.9 C 113.1 83 112.5 84 111.6 84.6 C 110.8 85.2 109.7 85.6 108.4 85.6 C 106.7 85.6 105.4 85.1 104.4 84 C 103.4 83 102.9 81.6 102.9 79.7 C 102.9 77.8 103.4 76.3 104.4 75.2 C 105.4 74.2 106.7 73.6 108.3 73.6 C 109.8 73.6 111 74.2 112 75.2 C 113 76.2 113.4 77.7 113.4 79.6 C 113.4 79.7 113.4 79.9 113.4 80.1 C 113.4 80.1 104.9 80.1 104.9 80.1 C 105 81.4 105.3 82.3 106 83 C 106.6 83.6 107.4 84 108.4 84 C 109.1 84 109.7 83.8 110.2 83.4 C 110.7 83 111.1 82.5 111.4 81.6 Z M 105 78.5 C 105 78.5 111.4 78.5 111.4 78.5 C 111.3 77.5 111.1 76.8 110.7 76.3 C 110.1 75.6 109.3 75.2 108.3 75.2 C 107.4 75.2 106.6 75.5 106 76.1 C 105.4 76.7 105.1 77.5 105 78.5 Z M 115 81.9 C 115 81.9 116.9 81.6 116.9 81.6 C 117.1 82.4 117.4 83 117.8 83.4 C 118.3 83.8 119 84 119.9 84 C 120.8 84 121.4 83.8 121.9 83.4 C 122.3 83.1 122.5 82.6 122.5 82.2 C 122.5 81.7 122.3 81.4 122 81.1 C 121.7 81 121 80.7 120 80.5 C 118.6 80.1 117.6 79.8 117 79.5 C 116.5 79.3 116.1 78.9 115.8 78.5 C 115.5 78 115.4 77.5 115.4 76.9 C 115.4 76.4 115.5 76 115.7 75.5 C 115.9 75.1 116.3 74.7 116.7 74.4 C 117 74.2 117.4 74 117.9 73.9 C 118.4 73.7 119 73.6 119.6 73.6 C 120.4 73.6 121.2 73.8 121.9 74 C 122.6 74.3 123.1 74.6 123.4 75.1 C 123.7 75.5 124 76.1 124.1 76.8 C 124.1 76.8 122.2 77.1 122.2 77.1 C 122.1 76.5 121.9 76.1 121.4 75.7 C 121 75.4 120.4 75.2 119.7 75.2 C 118.8 75.2 118.2 75.4 117.8 75.7 C 117.4 76 117.2 76.3 117.2 76.7 C 117.2 77 117.3 77.2 117.5 77.4 C 117.6 77.6 117.9 77.8 118.2 77.9 C 118.4 78 119 78.1 119.9 78.4 C 121.3 78.8 122.2 79.1 122.8 79.3 C 123.3 79.5 123.7 79.9 124 80.3 C 124.4 80.7 124.5 81.3 124.5 82 C 124.5 82.6 124.3 83.2 123.9 83.8 C 123.6 84.3 123 84.8 122.3 85.1 C 121.6 85.4 120.8 85.6 119.9 85.6 C 118.4 85.6 117.3 85.3 116.5 84.6 C 115.7 84 115.2 83.1 115 81.9 Z M 140.7 85.3 C 140.5 84.9 140.4 84.4 140.4 83.9 C 139.6 84.5 139 84.9 138.3 85.2 C 137.6 85.4 136.9 85.6 136.2 85.6 C 134.9 85.6 133.9 85.3 133.3 84.6 C 132.6 84 132.3 83.3 132.3 82.3 C 132.3 81.7 132.4 81.2 132.6 80.8 C 132.9 80.3 133.2 79.9 133.6 79.7 C 134.1 79.4 134.5 79.2 135 79 C 135.4 78.9 136 78.8 136.8 78.7 C 138.3 78.5 139.5 78.3 140.2 78.1 C 140.2 77.8 140.2 77.6 140.2 77.6 C 140.2 76.8 140 76.2 139.7 75.9 C 139.2 75.5 138.4 75.2 137.5 75.2 C 136.6 75.2 135.9 75.4 135.4 75.7 C 135 76 134.7 76.6 134.5 77.4 C 134.5 77.4 132.6 77.2 132.6 77.2 C 132.8 76.3 133.1 75.7 133.4 75.2 C 133.8 74.7 134.4 74.3 135.2 74 C 135.9 73.8 136.8 73.6 137.7 73.6 C 138.7 73.6 139.5 73.8 140.1 74 C 140.7 74.2 141.2 74.5 141.5 74.9 C 141.7 75.2 141.9 75.6 142.1 76.2 C 142.1 76.5 142.2 77.1 142.2 77.9 C 142.2 77.9 142.2 80.5 142.2 80.5 C 142.2 82.3 142.2 83.5 142.3 83.9 C 142.4 84.4 142.5 84.9 142.8 85.3 C 142.77 85.31 140.7 85.3 140.7 85.3 C 140.7 85.3 140.75 85.31 140.7 85.3 Z M 140.2 79.6 C 139.5 79.9 138.4 80.1 137 80.3 C 136.2 80.4 135.7 80.6 135.4 80.7 C 135 80.8 134.8 81.1 134.6 81.3 C 134.4 81.6 134.3 81.9 134.3 82.2 C 134.3 82.8 134.5 83.2 134.9 83.5 C 135.3 83.9 135.9 84.1 136.6 84.1 C 137.4 84.1 138 83.9 138.6 83.6 C 139.2 83.2 139.6 82.8 139.9 82.2 C 140.1 81.8 140.2 81.1 140.2 80.3 C 140.2 80.3 140.2 79.6 140.2 79.6 Z M 145.1 85.3 L 145.1 73.9 L 146.9 73.9 C 146.9 73.9 146.87 75.63 146.9 75.6 C 147.3 74.8 147.7 74.3 148.1 74 C 148.5 73.8 148.9 73.6 149.3 73.6 C 150 73.6 150.7 73.9 151.3 74.3 C 151.3 74.3 150.7 76.1 150.7 76.1 C 150.2 75.8 149.7 75.6 149.2 75.6 C 148.8 75.6 148.4 75.8 148.1 76 C 147.8 76.3 147.5 76.6 147.4 77.1 C 147.2 77.8 147.1 78.5 147.1 79.3 C 147.07 79.34 147.1 85.3 147.1 85.3 L 145.1 85.3 Z M 160.3 81.6 C 160.3 81.6 162.3 81.9 162.3 81.9 C 162 83 161.4 84 160.5 84.6 C 159.7 85.2 158.6 85.6 157.3 85.6 C 155.6 85.6 154.3 85.1 153.3 84 C 152.3 83 151.8 81.6 151.8 79.7 C 151.8 77.8 152.3 76.3 153.3 75.2 C 154.3 74.2 155.6 73.6 157.2 73.6 C 158.7 73.6 159.9 74.2 160.9 75.2 C 161.9 76.2 162.4 77.7 162.4 79.6 C 162.4 79.7 162.3 79.9 162.3 80.1 C 162.3 80.1 153.8 80.1 153.8 80.1 C 153.9 81.4 154.3 82.3 154.9 83 C 155.5 83.6 156.3 84 157.3 84 C 158 84 158.6 83.8 159.1 83.4 C 159.6 83 160 82.5 160.3 81.6 Z M 153.9 78.5 C 153.9 78.5 160.3 78.5 160.3 78.5 C 160.2 77.5 160 76.8 159.6 76.3 C 159 75.6 158.2 75.2 157.2 75.2 C 156.3 75.2 155.5 75.5 154.9 76.1 C 154.3 76.7 154 77.5 153.9 78.5 Z M 170.1 81.9 C 170.1 81.9 172 81.6 172 81.6 C 172.1 82.4 172.4 83 172.9 83.4 C 173.4 83.8 174 84 174.9 84 C 175.8 84 176.5 83.8 176.9 83.4 C 177.3 83.1 177.5 82.6 177.5 82.2 C 177.5 81.7 177.4 81.4 177 81.1 C 176.7 81 176 80.7 175 80.5 C 173.6 80.1 172.6 79.8 172 79.5 C 171.5 79.3 171.1 78.9 170.8 78.5 C 170.5 78 170.4 77.5 170.4 76.9 C 170.4 76.4 170.5 76 170.7 75.5 C 171 75.1 171.3 74.7 171.7 74.4 C 172 74.2 172.4 74 172.9 73.9 C 173.4 73.7 174 73.6 174.6 73.6 C 175.5 73.6 176.3 73.8 176.9 74 C 177.6 74.3 178.1 74.6 178.4 75.1 C 178.8 75.5 179 76.1 179.1 76.8 C 179.1 76.8 177.2 77.1 177.2 77.1 C 177.1 76.5 176.9 76.1 176.5 75.7 C 176 75.4 175.5 75.2 174.7 75.2 C 173.8 75.2 173.2 75.4 172.8 75.7 C 172.4 76 172.2 76.3 172.2 76.7 C 172.2 77 172.3 77.2 172.5 77.4 C 172.6 77.6 172.9 77.8 173.2 77.9 C 173.4 78 174 78.1 174.9 78.4 C 176.3 78.8 177.3 79.1 177.8 79.3 C 178.3 79.5 178.8 79.9 179.1 80.3 C 179.4 80.7 179.5 81.3 179.5 82 C 179.5 82.6 179.3 83.2 179 83.8 C 178.6 84.3 178 84.8 177.3 85.1 C 176.6 85.4 175.8 85.6 174.9 85.6 C 173.4 85.6 172.3 85.3 171.5 84.6 C 170.8 84 170.3 83.1 170.1 81.9 Z M 185.2 83.7 C 185.4 83.7 185.7 83.6 186 83.6 C 186 83.6 186.3 85.3 186.3 85.3 C 185.8 85.4 185.3 85.5 184.9 85.5 C 184.2 85.5 183.6 85.3 183.2 85.1 C 182.8 84.9 182.6 84.6 182.4 84.3 C 182.3 83.9 182.2 83.1 182.2 82 C 182.18 81.97 182.2 75.4 182.2 75.4 L 180.8 75.4 L 180.8 73.9 L 182.2 73.9 L 182.2 71.1 L 184.1 69.9 L 184.1 73.9 L 186 73.9 L 186 75.4 L 184.1 75.4 C 184.1 75.4 184.1 82.07 184.1 82.1 C 184.1 82.6 184.1 83 184.2 83.1 C 184.3 83.3 184.4 83.4 184.5 83.5 C 184.7 83.6 184.9 83.7 185.2 83.7 C 185.2 83.7 185.2 83.7 185.2 83.7 Z M 187.9 85.3 L 187.9 73.9 L 189.7 73.9 C 189.7 73.9 189.66 75.63 189.7 75.6 C 190.1 74.8 190.5 74.3 190.9 74 C 191.3 73.8 191.7 73.6 192.1 73.6 C 192.8 73.6 193.4 73.9 194.1 74.3 C 194.1 74.3 193.5 76.1 193.5 76.1 C 193 75.8 192.5 75.6 192 75.6 C 191.6 75.6 191.2 75.8 190.9 76 C 190.6 76.3 190.3 76.6 190.2 77.1 C 190 77.8 189.9 78.5 189.9 79.3 C 189.85 79.34 189.9 85.3 189.9 85.3 L 187.9 85.3 Z M 203.1 81.6 C 203.1 81.6 205.1 81.9 205.1 81.9 C 204.8 83 204.2 84 203.3 84.6 C 202.5 85.2 201.4 85.6 200.1 85.6 C 198.4 85.6 197.1 85.1 196.1 84 C 195.1 83 194.6 81.6 194.6 79.7 C 194.6 77.8 195.1 76.3 196.1 75.2 C 197.1 74.2 198.4 73.6 199.9 73.6 C 201.5 73.6 202.7 74.2 203.7 75.2 C 204.7 76.2 205.1 77.7 205.1 79.6 C 205.1 79.7 205.1 79.9 205.1 80.1 C 205.1 80.1 196.6 80.1 196.6 80.1 C 196.7 81.4 197 82.3 197.7 83 C 198.3 83.6 199.1 84 200.1 84 C 200.8 84 201.4 83.8 201.9 83.4 C 202.4 83 202.8 82.5 203.1 81.6 Z M 196.7 78.5 C 196.7 78.5 203.1 78.5 203.1 78.5 C 203 77.5 202.8 76.8 202.4 76.3 C 201.8 75.6 201 75.2 200 75.2 C 199.1 75.2 198.3 75.5 197.7 76.1 C 197.1 76.7 196.8 77.5 196.7 78.5 Z M 210.9 83.7 C 211.1 83.7 211.4 83.6 211.7 83.6 C 211.7 83.6 212 85.3 212 85.3 C 211.5 85.4 211 85.5 210.5 85.5 C 209.8 85.5 209.3 85.3 208.9 85.1 C 208.5 84.9 208.2 84.6 208.1 84.3 C 207.9 83.9 207.9 83.1 207.9 82 C 207.86 81.97 207.9 75.4 207.9 75.4 L 206.4 75.4 L 206.4 73.9 L 207.9 73.9 L 207.9 71.1 L 209.8 69.9 L 209.8 73.9 L 211.7 73.9 L 211.7 75.4 L 209.8 75.4 C 209.8 75.4 209.78 82.07 209.8 82.1 C 209.8 82.6 209.8 83 209.9 83.1 C 209.9 83.3 210.1 83.4 210.2 83.5 C 210.4 83.6 210.6 83.7 210.9 83.7 C 210.9 83.7 210.9 83.7 210.9 83.7 Z M 221.1 81.1 C 221.1 81.1 223 81.4 223 81.4 C 222.8 82.7 222.2 83.7 221.4 84.5 C 220.5 85.2 219.5 85.6 218.2 85.6 C 216.6 85.6 215.4 85.1 214.4 84 C 213.5 83 213 81.6 213 79.6 C 213 78.4 213.2 77.3 213.6 76.4 C 214 75.5 214.7 74.8 215.5 74.3 C 216.3 73.9 217.2 73.6 218.2 73.6 C 219.5 73.6 220.5 74 221.3 74.6 C 222 75.2 222.6 76.1 222.8 77.3 C 222.8 77.3 220.9 77.5 220.9 77.5 C 220.7 76.8 220.4 76.2 219.9 75.8 C 219.5 75.4 218.9 75.2 218.3 75.2 C 217.3 75.2 216.5 75.6 215.9 76.3 C 215.3 77 215 78.1 215 79.6 C 215 81.1 215.3 82.2 215.9 82.9 C 216.5 83.6 217.2 84 218.2 84 C 218.9 84 219.6 83.7 220.1 83.3 C 220.6 82.8 220.9 82.1 221.1 81.1 Z M 224.6 85.3 L 224.6 69.6 L 226.5 69.6 C 226.5 69.6 226.55 75.21 226.5 75.2 C 227.4 74.2 228.6 73.6 230 73.6 C 230.8 73.6 231.5 73.8 232.2 74.1 C 232.8 74.5 233.2 74.9 233.5 75.5 C 233.8 76.1 233.9 77 233.9 78.1 C 233.91 78.08 233.9 85.3 233.9 85.3 L 232 85.3 C 232 85.3 231.97 78.08 232 78.1 C 232 77.1 231.8 76.4 231.3 76 C 230.9 75.5 230.3 75.3 229.6 75.3 C 229 75.3 228.5 75.5 227.9 75.8 C 227.4 76.1 227.1 76.5 226.9 77 C 226.7 77.5 226.5 78.2 226.5 79.1 C 226.55 79.07 226.5 85.3 226.5 85.3 L 224.6 85.3 Z M 244.7 81.6 C 244.7 81.6 246.7 81.9 246.7 81.9 C 246.3 83 245.8 84 244.9 84.6 C 244.1 85.2 243 85.6 241.6 85.6 C 240 85.6 238.6 85.1 237.7 84 C 236.7 83 236.2 81.6 236.2 79.7 C 236.2 77.8 236.7 76.3 237.7 75.2 C 238.7 74.2 240 73.6 241.5 73.6 C 243.1 73.6 244.3 74.2 245.3 75.2 C 246.2 76.2 246.7 77.7 246.7 79.6 C 246.7 79.7 246.7 79.9 246.7 80.1 C 246.7 80.1 238.2 80.1 238.2 80.1 C 238.3 81.4 238.6 82.3 239.3 83 C 239.9 83.6 240.7 84 241.7 84 C 242.4 84 243 83.8 243.5 83.4 C 244 83 244.4 82.5 244.7 81.6 Z M 238.3 78.5 C 238.3 78.5 244.7 78.5 244.7 78.5 C 244.6 77.5 244.4 76.8 243.9 76.3 C 243.3 75.6 242.5 75.2 241.6 75.2 C 240.7 75.2 239.9 75.5 239.3 76.1 C 238.7 76.7 238.4 77.5 238.3 78.5 Z M 256.5 85.3 C 256.5 85.3 256.49 83.87 256.5 83.9 C 255.8 85 254.7 85.6 253.3 85.6 C 252.4 85.6 251.5 85.3 250.8 84.8 C 250 84.3 249.4 83.6 249 82.7 C 248.6 81.8 248.4 80.8 248.4 79.6 C 248.4 78.5 248.6 77.4 249 76.5 C 249.3 75.6 249.9 74.9 250.7 74.4 C 251.4 73.9 252.3 73.6 253.2 73.6 C 253.9 73.6 254.5 73.8 255 74.1 C 255.6 74.4 256 74.7 256.4 75.2 C 256.36 75.21 256.4 69.6 256.4 69.6 L 258.3 69.6 L 258.3 85.3 L 256.5 85.3 Z M 250.4 79.6 C 250.4 81.1 250.7 82.2 251.3 82.9 C 251.9 83.6 252.6 84 253.5 84 C 254.3 84 255 83.6 255.6 82.9 C 256.2 82.2 256.5 81.2 256.5 79.8 C 256.5 78.2 256.2 77.1 255.6 76.3 C 255 75.6 254.3 75.2 253.4 75.2 C 252.5 75.2 251.8 75.6 251.2 76.3 C 250.7 77 250.4 78.1 250.4 79.6 Z M 261.8 85.3 L 261.8 83.1 L 264 83.1 C 264 83.1 264.03 85.31 264 85.3 C 264 86.1 263.9 86.8 263.6 87.3 C 263.3 87.8 262.9 88.2 262.2 88.4 C 262.2 88.4 261.7 87.6 261.7 87.6 C 262.1 87.4 262.4 87.2 262.6 86.8 C 262.8 86.5 262.9 86 262.9 85.3 C 262.92 85.31 261.8 85.3 261.8 85.3 Z M 275.6 85.3 L 272.2 73.9 L 274.2 73.9 L 276 80.5 C 276 80.5 276.65 82.93 276.6 82.9 C 276.7 82.8 276.9 82 277.2 80.6 C 277.24 80.58 279.1 73.9 279.1 73.9 L 281 73.9 L 282.8 80.5 L 283.3 82.7 L 284 80.5 L 285.9 73.9 L 287.8 73.9 L 284.2 85.3 L 282.2 85.3 L 280.4 78.5 L 280 76.5 L 277.7 85.3 L 275.6 85.3 Z M 297.2 81.6 C 297.2 81.6 299.2 81.9 299.2 81.9 C 298.9 83 298.3 84 297.5 84.6 C 296.6 85.2 295.5 85.6 294.2 85.6 C 292.6 85.6 291.2 85.1 290.3 84 C 289.3 83 288.8 81.6 288.8 79.7 C 288.8 77.8 289.3 76.3 290.3 75.2 C 291.3 74.2 292.5 73.6 294.1 73.6 C 295.6 73.6 296.9 74.2 297.9 75.2 C 298.8 76.2 299.3 77.7 299.3 79.6 C 299.3 79.7 299.3 79.9 299.3 80.1 C 299.3 80.1 290.8 80.1 290.8 80.1 C 290.9 81.4 291.2 82.3 291.8 83 C 292.5 83.6 293.3 84 294.2 84 C 294.9 84 295.5 83.8 296 83.4 C 296.6 83 296.9 82.5 297.2 81.6 Z M 290.9 78.5 C 290.9 78.5 297.3 78.5 297.3 78.5 C 297.2 77.5 296.9 76.8 296.5 76.3 C 295.9 75.6 295.1 75.2 294.1 75.2 C 293.2 75.2 292.5 75.5 291.9 76.1 C 291.3 76.7 291 77.5 290.9 78.5 Z M 307.8 89.7 L 307.8 73.9 L 309.5 73.9 C 309.5 73.9 309.54 75.38 309.5 75.4 C 310 74.8 310.4 74.4 310.9 74.1 C 311.5 73.8 312.1 73.6 312.8 73.6 C 313.8 73.6 314.7 73.9 315.4 74.4 C 316.2 74.9 316.7 75.6 317.1 76.5 C 317.5 77.4 317.7 78.4 317.7 79.5 C 317.7 80.7 317.5 81.7 317.1 82.7 C 316.6 83.6 316 84.3 315.2 84.8 C 314.4 85.3 313.6 85.6 312.7 85.6 C 312.1 85.6 311.5 85.4 311 85.2 C 310.5 84.9 310 84.5 309.7 84.1 C 309.71 84.13 309.7 89.7 309.7 89.7 L 307.8 89.7 Z M 309.5 79.7 C 309.5 81.1 309.8 82.2 310.4 82.9 C 311 83.6 311.7 84 312.6 84 C 313.4 84 314.2 83.6 314.8 82.9 C 315.4 82.2 315.7 81 315.7 79.5 C 315.7 78.1 315.4 77 314.8 76.2 C 314.2 75.5 313.5 75.2 312.7 75.2 C 311.8 75.2 311.1 75.5 310.5 76.3 C 309.8 77.1 309.5 78.2 309.5 79.7 Z M 320 85.3 L 320 73.9 L 321.7 73.9 C 321.7 73.9 321.73 75.63 321.7 75.6 C 322.2 74.8 322.6 74.3 323 74 C 323.3 73.8 323.8 73.6 324.2 73.6 C 324.9 73.6 325.5 73.9 326.2 74.3 C 326.2 74.3 325.5 76.1 325.5 76.1 C 325.1 75.8 324.6 75.6 324.1 75.6 C 323.7 75.6 323.3 75.8 323 76 C 322.6 76.3 322.4 76.6 322.2 77.1 C 322 77.8 321.9 78.5 321.9 79.3 C 321.93 79.34 321.9 85.3 321.9 85.3 L 320 85.3 Z M 326.6 79.6 C 326.6 77.5 327.2 75.9 328.4 74.9 C 329.4 74.1 330.6 73.6 332 73.6 C 333.5 73.6 334.8 74.2 335.8 75.2 C 336.8 76.2 337.3 77.6 337.3 79.4 C 337.3 80.9 337.1 82.1 336.6 82.9 C 336.2 83.7 335.6 84.4 334.7 84.9 C 333.9 85.3 333 85.6 332 85.6 C 330.4 85.6 329.1 85.1 328.1 84 C 327.1 83 326.6 81.5 326.6 79.6 Z M 328.6 79.6 C 328.6 81.1 328.9 82.2 329.6 82.9 C 330.2 83.6 331 84 332 84 C 332.9 84 333.7 83.6 334.4 82.9 C 335 82.2 335.3 81 335.3 79.5 C 335.3 78.1 335 77.1 334.4 76.3 C 333.7 75.6 332.9 75.2 332 75.2 C 331 75.2 330.2 75.6 329.6 76.3 C 328.9 77.1 328.6 78.1 328.6 79.6 Z M 342.7 85.3 L 338.4 73.9 L 340.4 73.9 C 340.4 73.9 342.9 80.73 342.9 80.7 C 343.2 81.5 343.4 82.2 343.6 83 C 343.8 82.4 344 81.7 344.3 80.9 C 344.35 80.86 346.9 73.9 346.9 73.9 L 348.9 73.9 L 344.5 85.3 L 342.7 85.3 Z M 350.6 71.8 L 350.6 69.6 L 352.5 69.6 L 352.5 71.8 L 350.6 71.8 Z M 350.6 85.3 L 350.6 73.9 L 352.5 73.9 L 352.5 85.3 L 350.6 85.3 Z M 362.9 85.3 C 362.9 85.3 362.87 83.87 362.9 83.9 C 362.1 85 361.1 85.6 359.7 85.6 C 358.8 85.6 357.9 85.3 357.2 84.8 C 356.4 84.3 355.8 83.6 355.4 82.7 C 355 81.8 354.8 80.8 354.8 79.6 C 354.8 78.5 355 77.4 355.3 76.5 C 355.7 75.6 356.3 74.9 357 74.4 C 357.8 73.9 358.7 73.6 359.6 73.6 C 360.3 73.6 360.9 73.8 361.4 74.1 C 362 74.4 362.4 74.7 362.7 75.2 C 362.74 75.21 362.7 69.6 362.7 69.6 L 364.7 69.6 L 364.7 85.3 L 362.9 85.3 Z M 356.8 79.6 C 356.8 81.1 357.1 82.2 357.7 82.9 C 358.3 83.6 359 84 359.9 84 C 360.7 84 361.4 83.6 362 82.9 C 362.6 82.2 362.9 81.2 362.9 79.8 C 362.9 78.2 362.6 77.1 362 76.3 C 361.4 75.6 360.7 75.2 359.8 75.2 C 358.9 75.2 358.2 75.6 357.6 76.3 C 357 77 356.8 78.1 356.8 79.6 Z M 375.5 81.6 C 375.5 81.6 377.5 81.9 377.5 81.9 C 377.2 83 376.6 84 375.8 84.6 C 374.9 85.2 373.8 85.6 372.5 85.6 C 370.8 85.6 369.5 85.1 368.5 84 C 367.5 83 367.1 81.6 367.1 79.7 C 367.1 77.8 367.5 76.3 368.5 75.2 C 369.5 74.2 370.8 73.6 372.4 73.6 C 373.9 73.6 375.2 74.2 376.1 75.2 C 377.1 76.2 377.6 77.7 377.6 79.6 C 377.6 79.7 377.6 79.9 377.6 80.1 C 377.6 80.1 369.1 80.1 369.1 80.1 C 369.1 81.4 369.5 82.3 370.1 83 C 370.8 83.6 371.5 84 372.5 84 C 373.2 84 373.8 83.8 374.3 83.4 C 374.8 83 375.2 82.5 375.5 81.6 Z M 369.2 78.5 C 369.2 78.5 375.5 78.5 375.5 78.5 C 375.4 77.5 375.2 76.8 374.8 76.3 C 374.2 75.6 373.4 75.2 372.4 75.2 C 371.5 75.2 370.8 75.5 370.2 76.1 C 369.6 76.7 369.2 77.5 369.2 78.5 Z " stroke="none" fill="#fff"/>  </g>  <g id="Polygon61782">    <path d="M 54.8 58.9 L 50.6 43.2 L 52.8 43.2 C 52.8 43.2 55.16 53.48 55.2 53.5 C 55.4 54.6 55.6 55.6 55.8 56.7 C 56.2 55 56.5 54.1 56.5 53.8 C 56.53 53.8 59.5 43.2 59.5 43.2 L 62 43.2 C 62 43.2 64.3 51.13 64.3 51.1 C 64.9 53.1 65.3 55 65.5 56.7 C 65.7 55.7 66 54.6 66.3 53.3 C 66.31 53.28 68.8 43.2 68.8 43.2 L 70.9 43.2 L 66.6 58.9 L 64.5 58.9 C 64.5 58.9 61.22 46.91 61.2 46.9 C 60.9 45.9 60.8 45.3 60.7 45.1 C 60.6 45.8 60.4 46.4 60.3 46.9 C 60.27 46.91 56.9 58.9 56.9 58.9 L 54.8 58.9 Z M 72.6 58.9 L 72.6 43.2 L 74.5 43.2 C 74.5 43.2 74.5 48.81 74.5 48.8 C 75.4 47.8 76.5 47.2 77.9 47.2 C 78.8 47.2 79.5 47.4 80.1 47.7 C 80.7 48.1 81.2 48.5 81.5 49.1 C 81.7 49.7 81.9 50.6 81.9 51.7 C 81.86 51.68 81.9 58.9 81.9 58.9 L 79.9 58.9 C 79.9 58.9 79.93 51.68 79.9 51.7 C 79.9 50.7 79.7 50 79.3 49.6 C 78.9 49.1 78.3 48.9 77.5 48.9 C 76.9 48.9 76.4 49.1 75.9 49.4 C 75.4 49.7 75 50.1 74.8 50.6 C 74.6 51.1 74.5 51.8 74.5 52.7 C 74.5 52.67 74.5 58.9 74.5 58.9 L 72.6 58.9 Z M 92.6 55.2 C 92.6 55.2 94.6 55.5 94.6 55.5 C 94.3 56.6 93.7 57.6 92.9 58.2 C 92 58.8 90.9 59.2 89.6 59.2 C 87.9 59.2 86.6 58.7 85.6 57.6 C 84.6 56.6 84.2 55.2 84.2 53.3 C 84.2 51.4 84.7 49.9 85.6 48.8 C 86.6 47.8 87.9 47.2 89.5 47.2 C 91 47.2 92.3 47.8 93.2 48.8 C 94.2 49.8 94.7 51.3 94.7 53.2 C 94.7 53.3 94.7 53.5 94.7 53.7 C 94.7 53.7 86.2 53.7 86.2 53.7 C 86.2 55 86.6 55.9 87.2 56.6 C 87.9 57.2 88.7 57.6 89.6 57.6 C 90.3 57.6 90.9 57.4 91.4 57 C 91.9 56.6 92.3 56.1 92.6 55.2 Z M 86.3 52.1 C 86.3 52.1 92.6 52.1 92.6 52.1 C 92.5 51.1 92.3 50.4 91.9 49.9 C 91.3 49.2 90.5 48.8 89.5 48.8 C 88.6 48.8 87.9 49.1 87.3 49.7 C 86.7 50.3 86.3 51.1 86.3 52.1 Z M 97 58.9 L 97 47.5 L 98.8 47.5 C 98.8 47.5 98.78 49.12 98.8 49.1 C 99.6 47.9 100.8 47.2 102.4 47.2 C 103.1 47.2 103.7 47.4 104.3 47.6 C 104.9 47.9 105.3 48.2 105.6 48.6 C 105.9 49 106.1 49.5 106.2 50 C 106.3 50.4 106.3 51 106.3 51.9 C 106.31 51.89 106.3 58.9 106.3 58.9 L 104.4 58.9 C 104.4 58.9 104.38 51.97 104.4 52 C 104.4 51.2 104.3 50.6 104.2 50.2 C 104 49.8 103.7 49.5 103.4 49.3 C 103 49 102.5 48.9 102 48.9 C 101.2 48.9 100.5 49.2 99.9 49.7 C 99.3 50.2 99 51.2 99 52.7 C 98.97 52.68 99 58.9 99 58.9 L 97 58.9 Z M 122.8 54.7 C 122.8 54.7 124.7 55 124.7 55 C 124.5 56.3 124 57.3 123.1 58.1 C 122.3 58.8 121.2 59.2 120 59.2 C 118.4 59.2 117.2 58.7 116.2 57.6 C 115.3 56.6 114.8 55.2 114.8 53.2 C 114.8 52 115 50.9 115.4 50 C 115.8 49.1 116.4 48.4 117.3 47.9 C 118.1 47.5 119 47.2 120 47.2 C 121.2 47.2 122.2 47.6 123 48.2 C 123.8 48.8 124.3 49.7 124.5 50.9 C 124.5 50.9 122.7 51.1 122.7 51.1 C 122.5 50.4 122.2 49.8 121.7 49.4 C 121.3 49 120.7 48.8 120.1 48.8 C 119.1 48.8 118.3 49.2 117.7 49.9 C 117.1 50.6 116.8 51.7 116.8 53.2 C 116.8 54.7 117.1 55.8 117.7 56.5 C 118.3 57.2 119 57.6 120 57.6 C 120.7 57.6 121.4 57.3 121.9 56.9 C 122.4 56.4 122.7 55.7 122.8 54.7 Z M 134.2 58.9 C 134 58.5 133.9 58 133.8 57.5 C 133.1 58.1 132.4 58.5 131.8 58.8 C 131.1 59 130.4 59.2 129.6 59.2 C 128.4 59.2 127.4 58.9 126.7 58.2 C 126.1 57.6 125.7 56.9 125.7 55.9 C 125.7 55.3 125.9 54.8 126.1 54.4 C 126.4 53.9 126.7 53.5 127.1 53.3 C 127.5 53 128 52.8 128.5 52.6 C 128.9 52.5 129.5 52.4 130.2 52.3 C 131.8 52.1 132.9 51.9 133.7 51.7 C 133.7 51.4 133.7 51.2 133.7 51.2 C 133.7 50.4 133.5 49.8 133.1 49.5 C 132.6 49.1 131.9 48.8 130.9 48.8 C 130 48.8 129.3 49 128.9 49.3 C 128.5 49.6 128.2 50.2 128 51 C 128 51 126.1 50.8 126.1 50.8 C 126.2 49.9 126.5 49.3 126.9 48.8 C 127.3 48.3 127.9 47.9 128.6 47.6 C 129.4 47.4 130.2 47.2 131.2 47.2 C 132.2 47.2 133 47.4 133.6 47.6 C 134.2 47.8 134.6 48.1 134.9 48.5 C 135.2 48.8 135.4 49.2 135.5 49.8 C 135.6 50.1 135.6 50.7 135.6 51.5 C 135.6 51.5 135.6 54.1 135.6 54.1 C 135.6 55.9 135.7 57.1 135.7 57.5 C 135.8 58 136 58.5 136.2 58.9 C 136.24 58.91 134.2 58.9 134.2 58.9 C 134.2 58.9 134.22 58.91 134.2 58.9 Z M 133.7 53.2 C 133 53.5 131.9 53.7 130.5 53.9 C 129.7 54 129.2 54.2 128.8 54.3 C 128.5 54.4 128.2 54.7 128.1 54.9 C 127.9 55.2 127.8 55.5 127.8 55.8 C 127.8 56.4 128 56.8 128.4 57.1 C 128.8 57.5 129.3 57.7 130.1 57.7 C 130.8 57.7 131.5 57.5 132.1 57.2 C 132.7 56.8 133.1 56.4 133.4 55.8 C 133.6 55.4 133.7 54.7 133.7 53.9 C 133.7 53.9 133.7 53.2 133.7 53.2 Z M 138.6 63.3 L 138.6 47.5 L 140.4 47.5 C 140.4 47.5 140.38 48.98 140.4 49 C 140.8 48.4 141.3 48 141.8 47.7 C 142.3 47.4 142.9 47.2 143.7 47.2 C 144.7 47.2 145.5 47.5 146.3 48 C 147 48.5 147.6 49.2 148 50.1 C 148.3 51 148.5 52 148.5 53.1 C 148.5 54.3 148.3 55.3 147.9 56.3 C 147.5 57.2 146.9 57.9 146.1 58.4 C 145.3 58.9 144.4 59.2 143.6 59.2 C 142.9 59.2 142.3 59 141.8 58.8 C 141.3 58.5 140.9 58.1 140.6 57.7 C 140.56 57.73 140.6 63.3 140.6 63.3 L 138.6 63.3 Z M 140.4 53.3 C 140.4 54.7 140.7 55.8 141.3 56.5 C 141.9 57.2 142.6 57.6 143.4 57.6 C 144.3 57.6 145 57.2 145.6 56.5 C 146.2 55.8 146.5 54.6 146.5 53.1 C 146.5 51.7 146.3 50.6 145.7 49.8 C 145.1 49.1 144.3 48.8 143.5 48.8 C 142.7 48.8 142 49.1 141.3 49.9 C 140.7 50.7 140.4 51.8 140.4 53.3 Z M 158.7 58.9 C 158.5 58.5 158.4 58 158.3 57.5 C 157.6 58.1 156.9 58.5 156.2 58.8 C 155.6 59 154.9 59.2 154.1 59.2 C 152.8 59.2 151.9 58.9 151.2 58.2 C 150.5 57.6 150.2 56.9 150.2 55.9 C 150.2 55.3 150.3 54.8 150.6 54.4 C 150.8 53.9 151.2 53.5 151.6 53.3 C 152 53 152.5 52.8 153 52.6 C 153.4 52.5 153.9 52.4 154.7 52.3 C 156.3 52.1 157.4 51.9 158.1 51.7 C 158.1 51.4 158.2 51.2 158.2 51.2 C 158.2 50.4 158 49.8 157.6 49.5 C 157.1 49.1 156.4 48.8 155.4 48.8 C 154.5 48.8 153.8 49 153.4 49.3 C 153 49.6 152.6 50.2 152.4 51 C 152.4 51 150.5 50.8 150.5 50.8 C 150.7 49.9 151 49.3 151.4 48.8 C 151.8 48.3 152.3 47.9 153.1 47.6 C 153.8 47.4 154.7 47.2 155.7 47.2 C 156.7 47.2 157.4 47.4 158.1 47.6 C 158.7 47.8 159.1 48.1 159.4 48.5 C 159.7 48.8 159.9 49.2 160 49.8 C 160.1 50.1 160.1 50.7 160.1 51.5 C 160.1 51.5 160.1 54.1 160.1 54.1 C 160.1 55.9 160.1 57.1 160.2 57.5 C 160.3 58 160.5 58.5 160.7 58.9 C 160.71 58.91 158.7 58.9 158.7 58.9 C 158.7 58.9 158.69 58.91 158.7 58.9 Z M 158.1 53.2 C 157.4 53.5 156.4 53.7 155 53.9 C 154.2 54 153.6 54.2 153.3 54.3 C 153 54.4 152.7 54.7 152.5 54.9 C 152.4 55.2 152.3 55.5 152.3 55.8 C 152.3 56.4 152.5 56.8 152.9 57.1 C 153.2 57.5 153.8 57.7 154.6 57.7 C 155.3 57.7 156 57.5 156.6 57.2 C 157.1 56.8 157.6 56.4 157.8 55.8 C 158 55.4 158.1 54.7 158.1 53.9 C 158.1 53.9 158.1 53.2 158.1 53.2 Z M 170.5 54.7 C 170.5 54.7 172.4 55 172.4 55 C 172.2 56.3 171.7 57.3 170.8 58.1 C 170 58.8 168.9 59.2 167.7 59.2 C 166.1 59.2 164.9 58.7 163.9 57.6 C 163 56.6 162.5 55.2 162.5 53.2 C 162.5 52 162.7 50.9 163.1 50 C 163.5 49.1 164.1 48.4 165 47.9 C 165.8 47.5 166.7 47.2 167.7 47.2 C 168.9 47.2 170 47.6 170.7 48.2 C 171.5 48.8 172 49.7 172.3 50.9 C 172.3 50.9 170.4 51.1 170.4 51.1 C 170.2 50.4 169.9 49.8 169.4 49.4 C 169 49 168.4 48.8 167.8 48.8 C 166.8 48.8 166 49.2 165.4 49.9 C 164.8 50.6 164.5 51.7 164.5 53.2 C 164.5 54.7 164.8 55.8 165.4 56.5 C 166 57.2 166.7 57.6 167.7 57.6 C 168.4 57.6 169.1 57.3 169.6 56.9 C 170.1 56.4 170.4 55.7 170.5 54.7 Z M 174.1 45.4 L 174.1 43.2 L 176 43.2 L 176 45.4 L 174.1 45.4 Z M 174.1 58.9 L 174.1 47.5 L 176 47.5 L 176 58.9 L 174.1 58.9 Z M 182.4 57.3 C 182.6 57.3 182.9 57.2 183.2 57.2 C 183.2 57.2 183.5 58.9 183.5 58.9 C 182.9 59 182.5 59.1 182 59.1 C 181.3 59.1 180.8 58.9 180.4 58.7 C 180 58.5 179.7 58.2 179.6 57.9 C 179.4 57.5 179.3 56.7 179.3 55.6 C 179.33 55.57 179.3 49 179.3 49 L 177.9 49 L 177.9 47.5 L 179.3 47.5 L 179.3 44.7 L 181.3 43.5 L 181.3 47.5 L 183.2 47.5 L 183.2 49 L 181.3 49 C 181.3 49 181.26 55.67 181.3 55.7 C 181.3 56.2 181.3 56.6 181.4 56.7 C 181.4 56.9 181.5 57 181.7 57.1 C 181.8 57.2 182.1 57.3 182.4 57.3 C 182.4 57.3 182.4 57.3 182.4 57.3 Z M 186.3 63.5 C 185.9 63.5 185.5 63.5 185 63.3 C 185 63.3 184.8 61.5 184.8 61.5 C 185.2 61.6 185.6 61.7 185.9 61.7 C 186.3 61.7 186.7 61.6 186.9 61.4 C 187.2 61.3 187.4 61.1 187.6 60.8 C 187.7 60.6 187.9 60.2 188.2 59.4 C 188.2 59.3 188.2 59.1 188.3 58.9 C 188.33 58.93 184 47.5 184 47.5 L 186.1 47.5 C 186.1 47.5 188.46 54.11 188.5 54.1 C 188.8 54.9 189 55.8 189.3 56.7 C 189.5 55.9 189.8 55 190.1 54.1 C 190.08 54.15 192.5 47.5 192.5 47.5 L 194.4 47.5 C 194.4 47.5 190.11 59.1 190.1 59.1 C 189.6 60.4 189.3 61.2 189 61.7 C 188.7 62.3 188.3 62.8 187.8 63.1 C 187.4 63.4 186.9 63.5 186.3 63.5 C 186.3 63.5 186.3 63.5 186.3 63.5 Z M 195 58.9 L 195 56.7 L 197.2 56.7 C 197.2 56.7 197.17 58.91 197.2 58.9 C 197.2 59.7 197 60.4 196.7 60.9 C 196.5 61.4 196 61.8 195.4 62 C 195.4 62 194.8 61.2 194.8 61.2 C 195.2 61 195.5 60.8 195.7 60.4 C 195.9 60.1 196 59.6 196.1 58.9 C 196.06 58.91 195 58.9 195 58.9 Z M 206.7 58.9 L 206.7 47.5 L 208.4 47.5 C 208.4 47.5 208.4 49.23 208.4 49.2 C 208.8 48.4 209.3 47.9 209.6 47.6 C 210 47.4 210.4 47.2 210.9 47.2 C 211.5 47.2 212.2 47.5 212.9 47.9 C 212.9 47.9 212.2 49.7 212.2 49.7 C 211.7 49.4 211.3 49.2 210.8 49.2 C 210.4 49.2 210 49.4 209.6 49.6 C 209.3 49.9 209.1 50.2 208.9 50.7 C 208.7 51.4 208.6 52.1 208.6 52.9 C 208.6 52.94 208.6 58.9 208.6 58.9 L 206.7 58.9 Z M 221.8 55.2 C 221.8 55.2 223.8 55.5 223.8 55.5 C 223.5 56.6 222.9 57.6 222.1 58.2 C 221.2 58.8 220.1 59.2 218.8 59.2 C 217.1 59.2 215.8 58.7 214.8 57.6 C 213.9 56.6 213.4 55.2 213.4 53.3 C 213.4 51.4 213.9 49.9 214.8 48.8 C 215.8 47.8 217.1 47.2 218.7 47.2 C 220.2 47.2 221.5 47.8 222.4 48.8 C 223.4 49.8 223.9 51.3 223.9 53.2 C 223.9 53.3 223.9 53.5 223.9 53.7 C 223.9 53.7 215.4 53.7 215.4 53.7 C 215.4 55 215.8 55.9 216.4 56.6 C 217.1 57.2 217.9 57.6 218.8 57.6 C 219.5 57.6 220.1 57.4 220.6 57 C 221.1 56.6 221.5 56.1 221.8 55.2 Z M 215.5 52.1 C 215.5 52.1 221.8 52.1 221.8 52.1 C 221.8 51.1 221.5 50.4 221.1 49.9 C 220.5 49.2 219.7 48.8 218.7 48.8 C 217.8 48.8 217.1 49.1 216.5 49.7 C 215.9 50.3 215.5 51.1 215.5 52.1 Z M 225.5 55.5 C 225.5 55.5 227.4 55.2 227.4 55.2 C 227.5 56 227.8 56.6 228.3 57 C 228.8 57.4 229.5 57.6 230.3 57.6 C 231.2 57.6 231.9 57.4 232.3 57 C 232.7 56.7 233 56.2 233 55.8 C 233 55.3 232.8 55 232.4 54.7 C 232.1 54.6 231.5 54.3 230.4 54.1 C 229 53.7 228 53.4 227.5 53.1 C 226.9 52.9 226.5 52.5 226.2 52.1 C 225.9 51.6 225.8 51.1 225.8 50.5 C 225.8 50 225.9 49.6 226.1 49.1 C 226.4 48.7 226.7 48.3 227.1 48 C 227.4 47.8 227.8 47.6 228.3 47.5 C 228.8 47.3 229.4 47.2 230 47.2 C 230.9 47.2 231.7 47.4 232.4 47.6 C 233 47.9 233.5 48.2 233.9 48.7 C 234.2 49.1 234.4 49.7 234.5 50.4 C 234.5 50.4 232.6 50.7 232.6 50.7 C 232.5 50.1 232.3 49.7 231.9 49.3 C 231.5 49 230.9 48.8 230.1 48.8 C 229.2 48.8 228.6 49 228.2 49.3 C 227.9 49.6 227.7 49.9 227.7 50.3 C 227.7 50.6 227.7 50.8 227.9 51 C 228.1 51.2 228.3 51.4 228.6 51.5 C 228.8 51.6 229.4 51.7 230.3 52 C 231.7 52.4 232.7 52.7 233.2 52.9 C 233.8 53.1 234.2 53.5 234.5 53.9 C 234.8 54.3 234.9 54.9 234.9 55.6 C 234.9 56.2 234.8 56.8 234.4 57.4 C 234 57.9 233.5 58.4 232.8 58.7 C 232 59 231.2 59.2 230.3 59.2 C 228.9 59.2 227.7 58.9 227 58.2 C 226.2 57.6 225.7 56.7 225.5 55.5 Z M 236.5 53.2 C 236.5 51.1 237.1 49.5 238.3 48.5 C 239.3 47.7 240.5 47.2 241.9 47.2 C 243.4 47.2 244.7 47.8 245.7 48.8 C 246.7 49.8 247.2 51.2 247.2 53 C 247.2 54.5 247 55.7 246.6 56.5 C 246.1 57.3 245.5 58 244.6 58.5 C 243.8 58.9 242.9 59.2 241.9 59.2 C 240.3 59.2 239 58.7 238 57.6 C 237 56.6 236.5 55.1 236.5 53.2 Z M 238.5 53.2 C 238.5 54.7 238.8 55.8 239.5 56.5 C 240.1 57.2 240.9 57.6 241.9 57.6 C 242.8 57.6 243.6 57.2 244.3 56.5 C 244.9 55.8 245.2 54.6 245.2 53.1 C 245.2 51.7 244.9 50.7 244.3 49.9 C 243.6 49.2 242.8 48.8 241.9 48.8 C 240.9 48.8 240.1 49.2 239.5 49.9 C 238.8 50.7 238.5 51.7 238.5 53.2 Z M 257 58.9 C 257 58.9 256.96 57.23 257 57.2 C 256.1 58.5 254.9 59.2 253.3 59.2 C 252.7 59.2 252 59 251.5 58.8 C 250.9 58.5 250.4 58.2 250.2 57.8 C 249.9 57.4 249.7 56.9 249.6 56.4 C 249.5 56 249.4 55.4 249.4 54.6 C 249.44 54.57 249.4 47.5 249.4 47.5 L 251.4 47.5 C 251.4 47.5 251.37 53.83 251.4 53.8 C 251.4 54.8 251.4 55.5 251.5 55.9 C 251.6 56.4 251.9 56.8 252.3 57.1 C 252.7 57.4 253.1 57.5 253.7 57.5 C 254.3 57.5 254.8 57.4 255.4 57.1 C 255.9 56.8 256.2 56.4 256.4 55.8 C 256.6 55.3 256.8 54.6 256.8 53.6 C 256.75 53.61 256.8 47.5 256.8 47.5 L 258.7 47.5 L 258.7 58.9 L 257 58.9 Z M 261.7 58.9 L 261.7 47.5 L 263.4 47.5 C 263.4 47.5 263.44 49.23 263.4 49.2 C 263.9 48.4 264.3 47.9 264.7 47.6 C 265 47.4 265.5 47.2 265.9 47.2 C 266.6 47.2 267.2 47.5 267.9 47.9 C 267.9 47.9 267.2 49.7 267.2 49.7 C 266.8 49.4 266.3 49.2 265.8 49.2 C 265.4 49.2 265 49.4 264.7 49.6 C 264.3 49.9 264.1 50.2 264 50.7 C 263.7 51.4 263.6 52.1 263.6 52.9 C 263.63 52.94 263.6 58.9 263.6 58.9 L 261.7 58.9 Z M 276.5 54.7 C 276.5 54.7 278.4 55 278.4 55 C 278.2 56.3 277.6 57.3 276.8 58.1 C 275.9 58.8 274.9 59.2 273.6 59.2 C 272.1 59.2 270.8 58.7 269.9 57.6 C 268.9 56.6 268.5 55.2 268.5 53.2 C 268.5 52 268.7 50.9 269.1 50 C 269.5 49.1 270.1 48.4 270.9 47.9 C 271.8 47.5 272.7 47.2 273.7 47.2 C 274.9 47.2 275.9 47.6 276.7 48.2 C 277.5 48.8 278 49.7 278.2 50.9 C 278.2 50.9 276.3 51.1 276.3 51.1 C 276.1 50.4 275.8 49.8 275.4 49.4 C 274.9 49 274.4 48.8 273.7 48.8 C 272.8 48.8 272 49.2 271.4 49.9 C 270.7 50.6 270.4 51.7 270.4 53.2 C 270.4 54.7 270.7 55.8 271.3 56.5 C 271.9 57.2 272.7 57.6 273.6 57.6 C 274.4 57.6 275 57.3 275.5 56.9 C 276 56.4 276.4 55.7 276.5 54.7 Z M 287.9 55.2 C 287.9 55.2 289.9 55.5 289.9 55.5 C 289.5 56.6 289 57.6 288.1 58.2 C 287.2 58.8 286.2 59.2 284.8 59.2 C 283.2 59.2 281.8 58.7 280.9 57.6 C 279.9 56.6 279.4 55.2 279.4 53.3 C 279.4 51.4 279.9 49.9 280.9 48.8 C 281.9 47.8 283.2 47.2 284.7 47.2 C 286.3 47.2 287.5 47.8 288.5 48.8 C 289.4 49.8 289.9 51.3 289.9 53.2 C 289.9 53.3 289.9 53.5 289.9 53.7 C 289.9 53.7 281.4 53.7 281.4 53.7 C 281.5 55 281.8 55.9 282.5 56.6 C 283.1 57.2 283.9 57.6 284.8 57.6 C 285.6 57.6 286.2 57.4 286.7 57 C 287.2 56.6 287.6 56.1 287.9 55.2 Z M 281.5 52.1 C 281.5 52.1 287.9 52.1 287.9 52.1 C 287.8 51.1 287.5 50.4 287.1 49.9 C 286.5 49.2 285.7 48.8 284.7 48.8 C 283.9 48.8 283.1 49.1 282.5 49.7 C 281.9 50.3 281.6 51.1 281.5 52.1 Z M 291.5 55.5 C 291.5 55.5 293.4 55.2 293.4 55.2 C 293.5 56 293.8 56.6 294.3 57 C 294.8 57.4 295.5 57.6 296.4 57.6 C 297.3 57.6 297.9 57.4 298.3 57 C 298.8 56.7 299 56.2 299 55.8 C 299 55.3 298.8 55 298.4 54.7 C 298.2 54.6 297.5 54.3 296.4 54.1 C 295 53.7 294 53.4 293.5 53.1 C 292.9 52.9 292.5 52.5 292.3 52.1 C 292 51.6 291.8 51.1 291.8 50.5 C 291.8 50 291.9 49.6 292.2 49.1 C 292.4 48.7 292.7 48.3 293.1 48 C 293.4 47.8 293.8 47.6 294.4 47.5 C 294.9 47.3 295.4 47.2 296 47.2 C 296.9 47.2 297.7 47.4 298.4 47.6 C 299.1 47.9 299.6 48.2 299.9 48.7 C 300.2 49.1 300.4 49.7 300.5 50.4 C 300.5 50.4 298.7 50.7 298.7 50.7 C 298.6 50.1 298.3 49.7 297.9 49.3 C 297.5 49 296.9 48.8 296.2 48.8 C 295.3 48.8 294.6 49 294.3 49.3 C 293.9 49.6 293.7 49.9 293.7 50.3 C 293.7 50.6 293.8 50.8 293.9 51 C 294.1 51.2 294.3 51.4 294.7 51.5 C 294.9 51.6 295.4 51.7 296.4 52 C 297.7 52.4 298.7 52.7 299.2 52.9 C 299.8 53.1 300.2 53.5 300.5 53.9 C 300.8 54.3 301 54.9 301 55.6 C 301 56.2 300.8 56.8 300.4 57.4 C 300 57.9 299.5 58.4 298.8 58.7 C 298.1 59 297.3 59.2 296.4 59.2 C 294.9 59.2 293.8 58.9 293 58.2 C 292.2 57.6 291.7 56.7 291.5 55.5 Z M 317.2 58.9 C 317 58.5 316.9 58 316.8 57.5 C 316.1 58.1 315.4 58.5 314.8 58.8 C 314.1 59 313.4 59.2 312.6 59.2 C 311.4 59.2 310.4 58.9 309.7 58.2 C 309.1 57.6 308.7 56.9 308.7 55.9 C 308.7 55.3 308.9 54.8 309.1 54.4 C 309.4 53.9 309.7 53.5 310.1 53.3 C 310.5 53 311 52.8 311.5 52.6 C 311.9 52.5 312.5 52.4 313.2 52.3 C 314.8 52.1 315.9 51.9 316.7 51.7 C 316.7 51.4 316.7 51.2 316.7 51.2 C 316.7 50.4 316.5 49.8 316.1 49.5 C 315.6 49.1 314.9 48.8 313.9 48.8 C 313 48.8 312.4 49 311.9 49.3 C 311.5 49.6 311.2 50.2 311 51 C 311 51 309.1 50.8 309.1 50.8 C 309.2 49.9 309.5 49.3 309.9 48.8 C 310.3 48.3 310.9 47.9 311.6 47.6 C 312.4 47.4 313.2 47.2 314.2 47.2 C 315.2 47.2 316 47.4 316.6 47.6 C 317.2 47.8 317.6 48.1 317.9 48.5 C 318.2 48.8 318.4 49.2 318.5 49.8 C 318.6 50.1 318.6 50.7 318.6 51.5 C 318.6 51.5 318.6 54.1 318.6 54.1 C 318.6 55.9 318.7 57.1 318.8 57.5 C 318.8 58 319 58.5 319.2 58.9 C 319.24 58.91 317.2 58.9 317.2 58.9 C 317.2 58.9 317.22 58.91 317.2 58.9 Z M 316.7 53.2 C 316 53.5 314.9 53.7 313.5 53.9 C 312.7 54 312.2 54.2 311.8 54.3 C 311.5 54.4 311.2 54.7 311.1 54.9 C 310.9 55.2 310.8 55.5 310.8 55.8 C 310.8 56.4 311 56.8 311.4 57.1 C 311.8 57.5 312.3 57.7 313.1 57.7 C 313.8 57.7 314.5 57.5 315.1 57.2 C 315.7 56.8 316.1 56.4 316.4 55.8 C 316.6 55.4 316.7 54.7 316.7 53.9 C 316.7 53.9 316.7 53.2 316.7 53.2 Z M 321.6 58.9 L 321.6 47.5 L 323.4 47.5 C 323.4 47.5 323.37 49.12 323.4 49.1 C 324.2 47.9 325.4 47.2 327 47.2 C 327.7 47.2 328.3 47.4 328.9 47.6 C 329.5 47.9 329.9 48.2 330.2 48.6 C 330.5 49 330.7 49.5 330.8 50 C 330.9 50.4 330.9 51 330.9 51.9 C 330.9 51.89 330.9 58.9 330.9 58.9 L 329 58.9 C 329 58.9 328.96 51.97 329 52 C 329 51.2 328.9 50.6 328.7 50.2 C 328.6 49.8 328.3 49.5 327.9 49.3 C 327.6 49 327.1 48.9 326.6 48.9 C 325.8 48.9 325.1 49.2 324.5 49.7 C 323.9 50.2 323.6 51.2 323.6 52.7 C 323.56 52.68 323.6 58.9 323.6 58.9 L 321.6 58.9 Z M 341.3 58.9 C 341.3 58.9 341.26 57.47 341.3 57.5 C 340.5 58.6 339.5 59.2 338.1 59.2 C 337.2 59.2 336.3 58.9 335.6 58.4 C 334.8 57.9 334.2 57.2 333.8 56.3 C 333.4 55.4 333.2 54.4 333.2 53.2 C 333.2 52.1 333.4 51 333.7 50.1 C 334.1 49.2 334.7 48.5 335.4 48 C 336.2 47.5 337 47.2 338 47.2 C 338.7 47.2 339.3 47.4 339.8 47.7 C 340.4 48 340.8 48.3 341.1 48.8 C 341.13 48.81 341.1 43.2 341.1 43.2 L 343.1 43.2 L 343.1 58.9 L 341.3 58.9 Z M 335.2 53.2 C 335.2 54.7 335.5 55.8 336.1 56.5 C 336.7 57.2 337.4 57.6 338.3 57.6 C 339.1 57.6 339.8 57.2 340.4 56.5 C 341 55.8 341.3 54.8 341.3 53.4 C 341.3 51.8 341 50.7 340.4 49.9 C 339.8 49.2 339 48.8 338.2 48.8 C 337.3 48.8 336.6 49.2 336 49.9 C 335.4 50.6 335.2 51.7 335.2 53.2 Z " stroke="none" fill="#fff"/>  </g></svg>